<?xml version="1.0" encoding="UTF-8"?>
<svg id="Layer_1" data-name="Layer 1" xmlns="http://www.w3.org/2000/svg" viewBox="0 0 2129.7948 1654.5383">
  <defs>
    <style>
      .cls-1 {
        fill: #808082;
      }

      .cls-2 {
        fill: #fff6eb;
      }

      .cls-3 {
        fill: #f9ecd1;
      }

      .cls-4 {
        fill: #f1dbbb;
      }

      .cls-5 {
        fill: #a8a9a9;
      }

      .cls-6 {
        fill: #d3d4d3;
      }

      .cls-7 {
        fill: #404554;
      }

      .cls-8 {
        fill: #8293a8;
      }

      .cls-9 {
        stroke: #9d9d9d;
        stroke-width: 13.31px;
      }

      .cls-9, .cls-10 {
        fill: none;
        stroke-miterlimit: 10;
      }

      .cls-11 {
        fill: #ffcc8b;
      }

      .cls-12 {
        fill: #77829a;
      }

      .cls-13 {
        fill: #232935;
      }

      .cls-10 {
        stroke: #909294;
        stroke-width: 7.6192px;
      }

      .cls-14 {
        fill: #3a3938;
      }

      .cls-15 {
        fill: #5b6573;
      }

      .cls-16 {
        fill: #f3e8d8;
      }

      .cls-17 {
        fill: #f0d49f;
      }

      .cls-18 {
        fill: #fbfcff;
      }

      .cls-19 {
        fill: #4c505d;
      }

      .cls-20 {
        fill: #f1f2f3;
      }

      .cls-21 {
        fill: #606c7e;
      }
    </style>
  </defs>
  <path class="cls-19" d="M1385.0953,730.458c22.0831-1.5325,40.2425-14.6859,45.6437-32.628,4.1334-13.7303-.5063-25.9403-2.5157-30.4768-.4163-1.4386-1.1189-3.7224-2.1564-6.4538-29.9974-78.977-174.7287-94.8672-221.3718-99.9889-44.0897-4.8414-101.1812-5.4935-112.5365-5.5956-11.2127-.1008-25.7249-.0953-46.4117.3605-67.2799,1.4828-137.9589,6.3667-191.96,10.8441-28.9797,2.0078-52.3495,7.0723-68.563,11.4482-62.4025,16.8422-95.9589,44.5334-109.0438,57.4746-3.1672,3.1324-14.1867,14.6995-21.1523,32.6476-4.6269,11.9221-4.1104,18.0638-3.934,19.7212,1.6131,15.1539,14.0983,24.6089,18.1039,27.3484.3395.2323.6327.4274.9248.6173.0003.0002,9.1522,5.9534,36.0836,9.5637h0s.7856-3.8073.7864-3.811c3.9898-19.3348,54.7884-30.8029,54.7888-30.803,55.0227-12.4218,91.0712-15.6725,91.0715-15.6725,57.2426-5.1619,85.8639-7.7429,94.0011-8.157,81.1075-4.1278,153.1472-7.5832,249.528-2.1513,59.1635,3.3343,103.193,8.6476,145.3531,38.7233,13.8058,9.8486,23.8883,19.8395,30.422,26.9887h12.9384Z"/>
  <ellipse class="cls-14" cx="747.9679" cy="803.3385" rx="6.6069" ry="10.7052" transform="translate(-201.4237 1354.2145) rotate(-77.1683)"/>
  <path class="cls-21" d="M655.0812,782.7632c.9358,30.3205,76.1798,74.4096,199.3535,95.7326,49.5898,8.5846,98.4127,8.9234,194.0344,9.2501.0004,0,125.9331.4304,262.0405-23.2336,32.0556-5.5733,88.5976-16.674,115.0944-60.7501,3.6989-6.1529,6.0198-11.6304,7.3935-15.2623,9.7931-25.8919,9.6602-48.1222,9.0998-61.3118-1.6125-37.9467-15.5035-68.1649-24.3779-84.328,13.263,19.6724,14.1688,43.5446,2.8684,59.0119-1.7845,2.4425-12.716,17.4046-27.1601,17.569-6.1439.07-12.1031-2.5468-20.5269.3585-4.2051,1.4505-7.2795,3.675-9.1878,5.2884-2.5113,1.4467-7.8304,4.2602-14.4741,7.8592-72.1076,39.0595-280.7493,39.0595-280.7497,39.0595h-.0003s-221.2537-3.5787-302.8735-31.6531c-1.64-.5641-5.6435-2.0494-11.6129-4.0733-3.6707-1.2444-9.1109-3.0776-15.8161-5.0698-1.2828-.3811-26.0366-7.7273-29.0863-8.8367-1.0817-.3934-2.1071-.8438-2.1075-.844s-.902-.3962-1.7845-.8457c-5.392-2.7461-10.5601-6.7714-10.5604-6.7717-7.1297-5.4321-24.5561-.9012-31.8092-5.3624-6.0478-3.7198-9.7796-16.7409,1.6483-58.6725-13.034,25.283-13.527,36.3973-13.527,36.3976-.1058,2.3839-.0153,4.4779.0296,5.4678.11,2.4297.1034,6.4216,3.3583,22.0455.0001.0007.0002.0012.0002.0012.3539,1.3808.6052,3.351.7799,5.9879.5486,8.2788.3419,23.1295.1817,46.9458-.0777,11.5569-.2867,14.1441-.2282,16.0399Z"/>
  <rect class="cls-9" x="968.0052" y="772.3101" width="142.7027" height="115.4357" rx="23.9176" ry="23.9176"/>
  <ellipse class="cls-1" cx="1041.762" cy="890.3028" rx="7.3503" ry="31.0145"/>
  <ellipse class="cls-10" cx="1041.762" cy="937.0935" rx="29.5803" ry="25.2777"/>
  <path class="cls-11" d="M977.1649,953.444h149.6501c11.8302-29.3398,43.7194-38.4586,60.669-28.3123,15.9968,9.5758,23.3243,39.0879,6.7409,63.3654,15.4864,25.1529,9.327,54.0455-5.7298,64.0395-16.9386,11.2429-51.4345,2.7473-65.7247-28.9863-44.9611,0-89.9223,0-134.8834,0-11.2386,31.7793-45.6031,42.982-65.3243,32.0197-18.1866-10.1092-27.2408-40.9139-11.4597-67.0729-15.1457-12.4772-20.1873-32.3395-13.145-47.8611,6.3699-14.0394,20.9004-20.7241,32.6938-21.5711,19.3362-1.3886,38.7863,12.3797,46.5129,34.3791Z"/>
  <path class="cls-3" d="M977.3994,942.4155h149.6501c11.8302-29.3398,43.7194-38.4586,60.669-28.3123,15.9968,9.5758,23.3243,39.0879,6.7409,63.3654,15.4864,25.1529,9.327,54.0455-5.7298,64.0395-16.9386,11.2429-51.4345,2.7473-65.7247-28.9863-44.9611,0-89.9223,0-134.8834,0-11.2386,31.7793-45.6031,42.982-65.3243,32.0197-18.1866-10.1092-27.2408-40.9139-11.4597-67.0729-15.1457-12.4772-20.1873-32.3395-13.145-47.8611,6.3699-14.0394,20.9004-20.7241,32.6938-21.5711,19.3362-1.3886,38.7863,12.3797,46.5129,34.3791Z"/>
  <path class="cls-2" d="M1195.2223,948.5338c-1.9866,3.4104-6.176,7.1418-9.2574,8.5265-7.6926,3.4571-6.3386-8.6746-11.3003-21.039-1.9258-4.7992-4.3087-8.3993-6.5896-11.1091-4.7142-5.6007-8.4141-6.9372-7.9927-8.0363.8225-2.1452,16.8367-1.8462,27.4016,8.2558,5.0685,4.8464,9.7403,12.769,8.7688,19.7007-.2548,1.8183-.8104,3.3236-1.0305,3.7015Z"/>
  <ellipse class="cls-2" cx="914.1184" cy="941.4935" rx="8.6052" ry="15.1565"/>
  <ellipse class="cls-2" cx="925.0093" cy="960.1458" rx="5.9161" ry="3.4959"/>
  <path class="cls-2" d="M1097.9718,1001.6566c11.7748.1958,19.131,8.3684,21.2369,6.365,1.5684-1.4921-.4402-7.9966-4.7547-12.0312-9.5262-8.9085-27.3126-2.9888-41.8567.5576-47.5111,11.585-80.5875,2.7609-80.6737,5.56-.127,4.1237,72.035,11.2367,93.5814,2.3282,1.8404-.7608,6.318-2.8818,12.4668-2.7795Z"/>
  <ellipse class="cls-2" cx="926.8758" cy="951.4367" rx="3.0837" ry="1.8222" transform="translate(-254.6437 1558.3486) rotate(-72.9374)"/>
  <path class="cls-2" d="M920.1096,1013.4405c.6226,14.8963,18.8248,23.7993,17.9723,25.0009-.9623,1.3563-26.162-7.1553-26.1741-22.0507-.0074-9.1348,9.4607-17.1615,10.9358-16.314,1.1173.642-3.0426,5.9783-2.7339,13.3638Z"/>
  <ellipse class="cls-2" cx="1166.8957" cy="947.2226" rx="4.0337" ry="6.185"/>
  <ellipse class="cls-2" cx="1047.4538" cy="955.7913" rx="55.5304" ry="4.3546"/>
  <path class="cls-18" d="M1192.6378,944.4128c-1.6248,2.7892-5.0512,5.8411-7.5714,6.9736-6.2915,2.8275-5.1842-7.0947-9.2422-17.2073-1.575-3.9251-3.524-6.8696-5.3895-9.0858-3.8556-4.5807-6.8817-5.6738-6.537-6.5727.6727-1.7545,13.7703-1.51,22.4111,6.7522,4.1454,3.9637,7.9663,10.4435,7.1718,16.1127-.2084,1.4871-.6628,2.7183-.8428,3.0273Z"/>
  <circle class="cls-18" cx="1165.966" cy="948.3316" r="2.095"/>
  <ellipse class="cls-18" cx="1048.7565" cy="953.8012" rx="21.2469" ry="1.9901"/>
  <ellipse class="cls-18" cx="913.0427" cy="941.3065" rx="2.5995" ry="7.7985"/>
  <ellipse class="cls-18" cx="924.8602" cy="961.0908" rx="3.8397" ry="1.7672"/>
  <circle class="cls-18" cx="926.9859" cy="952.0738" r="1.7139"/>
  <path class="cls-18" d="M914.1184,1013.6438c-.0291,2.3475.887,4.8603,1.5687,4.8404.5476-.016.7812-1.6614,1.5686-4.8404,1.7273-6.9737,3.0476-8.9262,2.5547-9.2103-.8022-.4622-5.6266,3.9426-5.692,9.2103Z"/>
  <rect class="cls-5" x="968.0052" y="819.2679" width="66.4065" height="20.4373" rx="10.2186" ry="10.2186"/>
  <path class="cls-17" d="M1139.7987,769.8844c4.3565,2.0906,13.5456,7.2937,19.3858,17.9535,2.0666,3.7719,3.2489,7.3788,3.9441,10.3978v84.3961c1.37,1.0535,7.6627,5.6553,16.6475,4.8166,8.796-.821,14.0717-6.2869,15.2682-7.5931v-91.6589c-1.5282-3.3841-5.8324-11.6397-15.2433-16.6726-3.8376-2.0524-7.4763-3.0083-10.2912-3.4717-9.9038.6108-19.8074,1.2214-29.7112,1.8323Z"/>
  <path class="cls-4" d="M1176.8602,785.5194c.1471,3.1176-3.1056,6.6959-5.6471,6.5436-2.0447-.1225-2.8771-2.6147-5.6471-6.5436-5.5311-7.8452-10.6088-9.8184-10.0394-10.8461,1.0957-1.9778,20.9814,3.3778,21.3337,10.8461Z"/>
  <ellipse class="cls-4" cx="1185.1289" cy="829.8899" rx="3.6727" ry="23.6643"/>
  <path class="cls-4" d="M1193.5861,878.7634c.1341.3465-6.0585,4.7985-14.1337,4.6825-7.7165-.1109-13.612-4.3423-13.4864-4.6611.1146-.2911,5.1949,2.8095,12.7626,3.0476,8.6806.2732,14.7273-3.4055,14.8576-3.069Z"/>
  <ellipse class="cls-16" cx="1170.0852" cy="874.9304" rx="3.1895" ry="1.8824"/>
  <ellipse class="cls-16" cx="1185.4206" cy="832.9376" rx="1.7479" ry="8.8741"/>
  <path class="cls-16" d="M1174.9331,784.3094c.742.4411-.2385,5.7081-2.6443,6.0057-2.0336.2516-3.9636-3.1862-3.7541-3.4064.2068-.2174,2.8907,2.2878,3.4404,1.7927.1589-.1432.0271-.436,0-.8066-.1328-1.8197,2.3757-3.9314,2.9581-3.5854Z"/>
  <ellipse class="cls-20" cx="1170.4288" cy="875.3114" rx="1.479" ry=".6723"/>
  <ellipse class="cls-7" cx="905.5132" cy="829.4866" rx="13.356" ry="21.6409" transform="translate(-49.1247 1601.9299) rotate(-81.4689)"/>
  <ellipse class="cls-7" cx="817.5587" cy="811.0049" rx="10.6228" ry="17.2122" transform="translate(-179.6744 1386.9019) rotate(-74.7756)"/>
  <ellipse class="cls-7" cx="751.3278" cy="790.3283" rx="6.6069" ry="10.7052" transform="translate(-186.1246 1347.3698) rotate(-77.1683)"/>
  <ellipse class="cls-13" cx="899.8239" cy="828.6332" rx="13.356" ry="21.6409" transform="translate(-53.126 1595.5767) rotate(-81.4689)"/>
  <ellipse class="cls-13" cx="814.1616" cy="809.1363" rx="10.6228" ry="17.2122" transform="translate(-180.3763 1382.2461) rotate(-74.7756)"/>
  <path class="cls-6" d="M1024.3009,825.7381c-.0914.4609-9.2093-2.2233-23.0925-2.1385-13.1098.0802-21.6395,2.5756-21.7262,2.1385-.0944-.476,9.8596-4.2828,22.4093-4.29,12.5773-.0072,22.5056,3.8052,22.4093,4.29Z"/>
  <ellipse class="cls-6" cx="1019.4609" cy="833.6165" rx="4.8408" ry="1.5462"/>
  <path class="cls-6" d="M1109.7181,830.0279c.704,24.055-1.214,39.3936-.4203,39.466.807.0735,4.1398-15.6602,4.2371-34.331.1386-26.5914-6.3439-48.012-7.2606-47.8627-.7781.1267,2.6546,15.7578,3.4438,42.7277Z"/>
  <ellipse class="cls-6" cx="1026.8108" cy="770.6457" rx="28.908" ry="1.6644"/>
  <ellipse class="cls-6" cx="1067.4165" cy="774.1645" rx="3.0925" ry="2.2858"/>
  <path class="cls-6" d="M972.1781,830.3222c.2205,4.5278,3.8021,7.2706,3.405,7.6192-.4762.4181-6.4488-2.8049-6.6332-7.888-.1938-5.3454,6.1483-9.0315,6.6668-8.6053.4547.3737-3.6851,3.8135-3.4386,8.8741Z"/>
  <path class="cls-12" d="M1397.4837,806.2256c-1.2997-2.2371-35.4405,25.5253-92.8395,35.5861-46.167,8.0921-79.9436-.0763-80.222,2.4003-.295,2.6235,37.1391,15.9908,80.1543,9.7414,55.7377-8.0979,94.3295-45.2799,92.9073-47.7278Z"/>
  <ellipse class="cls-13" cx="748.79" cy="789.7502" rx="6.6069" ry="10.7052" transform="translate(-187.5352 1344.4456) rotate(-77.1683)"/>
  <path class="cls-12" d="M1147.9333,837.1348c0,14.8515-2.8895,26.8911-6.4539,26.8911-4.5641,0-9.5907-25.6185-6.4539-26.8911,1.5838-.6425,4.3235,5.3168,6.4539,4.6769,4.607-1.3835-1.6658-31.2138,0-31.5682,1.0809-.23,6.4539,11.7822,6.4539,26.8913Z"/>
  <ellipse class="cls-12" cx="1409.7762" cy="801.8564" rx="8.6719" ry="4.013" transform="translate(-184.8427 1097.8855) rotate(-40.1473)"/>
  <ellipse class="cls-8" cx="1407.2159" cy="803.2583" rx="5.1557" ry="2.3858" transform="translate(-186.3498 1096.5651) rotate(-40.1473)"/>
  <path class="cls-8" d="M768.2153,846.2004c.1991-.5571,15.1993,5.5738,44.4004,12.5327,21.2106,5.0545,31.8879,7.5991,47.3668,8.7812,25.8107,1.9713,44.7061,3.4145,62.4546-3.7261,7.5638-3.0431,17.6048-8.5026,22.0948-4.528,2.5765,2.2806,2.833,7.2269,1.6288,10.2849-7.2998,18.5374-83.0971,5.3376-90.9641,3.9256-49.708-8.9221-87.2314-26.5701-86.9812-27.2702Z"/>
  <path class="cls-8" d="M1099.4231,790.9891c1.4314,7.2193-4.4086,15.2456-5.2181,15.0728-.8182-.1746,2.8768-8.8578-1.4877-14.7366-4.6991-6.3292-15.2789-4.7446-15.2577-5.8441.0238-1.2379,13.5013-6.8428,19.8372.9624,1.1466,1.4126,1.8119,2.9595,2.1263,4.5455"/>
  <ellipse class="cls-8" cx="1078.7798" cy="793.0957" rx="2.7788" ry="2.1513"/>
  <path class="cls-8" d="M976.1996,841.4176c.0108-.2625,6.7406,0,25.0088,0s24.9981-.2625,25.0088,0c.0141.3455-11.6002,1.4791-25.0088,1.4791s-25.0229-1.1335-25.0088-1.4791Z"/>
  <ellipse class="cls-8" cx="978.5436" cy="854.5229" rx=".938" ry="4.7654"/>
  <path class="cls-15" d="M655.1276,786.1596c.7204,2.7679,2.009,6.6863,4.429,10.941,4.6982,8.2598,10.8527,12.8492,17.2708,17.3397,21.1511,14.7987,31.7267,22.1979,37.446,19.8548,1.6271-.6666,8.5344-3.9677,10.8747-20.6614-.5133-.9868-1.4023-2.1794-2.9665-2.5324-1.7086-.3855-2.7729.558-3.8721.4483-3.7392-.3732-.4039-12.1875-6.8307-20.1969-6.4286-8.0115-17.2989-5.5793-22.8658-12.9913-3.7427-4.9834,2.5121-8.4258,1.8032-21.3402-.1557-2.8372-.9007-16.4098-7.8745-19.1761-3.3455-1.327-5.3601.9294-9.3223.7171-4.6248-.2479-10.943-3.808-18.0918-18.7848"/>
</svg>