<?xml version="1.0" encoding="UTF-8"?>
<svg id="szem1" xmlns="http://www.w3.org/2000/svg" viewBox="0 0 472.9793 326.8758">
  <defs>
    <style>
      .cls-1 {
        fill: #c6ebed;
      }

      .cls-2 {
        fill: #aad7db;
      }
    </style>
  </defs>
  <rect class="cls-2" x="9.7245" y="4.0134" width="457.7878" height="315.6693" rx="24.1899" ry="24.1899"/>
  <path class="cls-1" d="M454.553,40.1095c-.24.9173-.5542,1.7029-1.1578,1.865-3.0504.8188-5.3948-16.4521-16.4395-20.7052-3.953-1.5221-9.6062-2.0565-10.6406-4.4962-.066-.1557-.0611-.3472.025-.589,1.0889-3.0548,9.2161-7.8413,16.0433-6.2447,11.5429,2.6994,14.2057,22.3869,12.1695,30.1701Z"/>
  <path class="cls-1" d="M456.5211,291.0415c-.0688,7.9214-9.1982,14.5245-11.4819,13.1765-1.7236-1.0175-.0024-6.8337,1.3174-11.2942,1.2676-4.283,3.1182-10.5365,5.647-10.5411,2.1616-.0039,4.5532,4.5582,4.5176,8.6588Z"/>
  <path class="cls-1" d="M41.2761,78.3977c-1.0996-.0247-3.5349,39.9663-3.8274,82.0928-.3171,45.692,1.9241,88.4637,3.0745,88.4481,1.2925-.0175,1.5042-54.037,1.6389-88.4481.1323-33.7881.3215-82.0657-.886-82.0928Z"/>
  <path class="cls-1" d="M38.9477,298.8839c1.8891,2.7013-3.3335,13.7043-11.1115,13.7043-6.1366,0-11.1115-6.1357-11.1115-13.7043,0-8.4914,8.8328-14.8916,11.1115-13.7043,2.1438,1.1171-1.7136,8.8296,1.9754,12.0992,2.9754,2.6372,7.7576-.3662,9.1362,1.605Z"/>
  <path class="cls-1" d="M328.5201,14.0304c.0247-1.0996-39.9663-3.5349-82.0928-3.8274-45.692-.3171-88.4637,1.9241-88.4481,3.0745.0175,1.2925,54.037,1.5042,88.4481,1.6389,33.7881.1323,82.0657.3215,82.0928-.886Z"/>
</svg>