<?xml version="1.0" encoding="UTF-8"?>
<svg id="szem1" xmlns="http://www.w3.org/2000/svg" viewBox="0 0 472.9793 326.8758" preserveAspectRatio="none">
  <defs>
    <style>
      .cls-1 {
        fill: #c6ebed;
      }

      .cls-2 {
        fill: #aad7db;
      }
    </style>
  </defs>
  <path class="cls-1" d="M459.4782,72.6823c1.0996-.0241,3.5349,39.0953,3.8274,80.3038.3171,44.6963-1.9241,86.5359-3.0745,86.5206-1.2925-.0171-1.5042-52.8594-1.6389-86.5206-.1323-33.0518-.3215-80.2773.886-80.3038Z"/>
  <g>
    <rect class="cls-2" x="7.5958" y="5.6032" width="457.7878" height="315.6693" rx="24.1899" ry="24.1899"/>
    <ellipse class="cls-1" cx="427.421" cy="18.483" rx="6.0706" ry="3.8668"/>
    <path class="cls-1" d="M30.6088,309.9299c.5617,1.5394-6.1705,1.5726-10.4731-4.0658-4.3134-5.6527-2.2826-11.8916-1.0238-10.9766.8065.5862.9759,3.8778,4.073,8.0565,3.3422,4.5094,7.0385,5.9295,7.4239,6.9859Z"/>
    <path class="cls-1" d="M46.7698,13.3623c9.6537-1.0721,19.5138,1.2627,19.5546,3.1924.0763,3.6073-34.2371,1.8018-41.5681,17.3772-3.1556,6.7045-3.0873,14.1521-3.0873,14.1521.0542,5.9067,1.8128,11.5679,1.0049,11.8128-.4348.1316-1.2766-1.4067-1.4978-1.8112-8.742-15.9776-2.6836-28.4943-2.6836-28.4943,6.6954-13.8325,23.2402-15.6696,28.2773-16.229Z"/>
    <ellipse class="cls-1" cx="34.5731" cy="48.1963" rx="2.6353" ry="4.6033"/>
  </g>
  <path class="cls-1" d="M453.4265,50.2776c-.5913.7412-1.1971,1.3319-1.8145,1.2354-3.1204-.4883,1.7393-17.2264-6.6323-25.5924-2.9963-2.9942-7.9473-5.7748-7.9036-8.4244.0028-.1691.0849-.3422.2617-.5283,2.234-2.3509,11.6039-3.4311,17.1974.7966,9.457,7.1478,3.9085,26.224-1.1086,32.5132Z"/>
</svg>