<?xml version="1.0" encoding="UTF-8"?>
<svg id="szem1" xmlns="http://www.w3.org/2000/svg" viewBox="0 0 472.9793 326.8758" preserveAspectRatio="none">
  <defs>
    <style>
      .cls-1 {
        fill: #c6ebed;
      }

      .cls-2 {
        fill: #aad7db;
      }
    </style>
  </defs>
  <rect class="cls-2" x="2.0757" y="4.0134" width="463.6033" height="315.6693" rx="24.343" ry="24.343"/>
  <ellipse class="cls-1" cx="421.016" cy="15.4047" rx="6.0706" ry="3.9529"/>
  <path class="cls-1" d="M24.2038,313.3445c.5617,1.5736-6.1705,1.6077-10.4731-4.1564-4.3134-5.7786-2.2826-12.1565-1.0238-11.2211.8065.5992.9759,3.9642,4.073,8.236,3.3422,4.6099,7.0385,6.0616,7.4239,7.1415Z"/>
  <path class="cls-1" d="M452.9575,71.2903c1.0996-.0247,3.5349,39.9663,3.8274,82.0928.3171,45.692-1.9241,88.4637-3.0745,88.4481-1.2925-.0175-1.5042-54.037-1.6389-88.4481-.1323-33.7881-.3215-82.0657.886-82.0928Z"/>
  <path class="cls-1" d="M40.3648,10.17c9.6537-1.096,19.5138,1.2908,19.5546,3.2635.0763,3.6877-34.2371,1.842-41.5681,17.7644-3.1556,6.8539-3.0873,14.4674-3.0873,14.4674.0542,6.0383,1.8128,11.8256,1.0049,12.0759-.4348.1346-1.2766-1.4381-1.4978-1.8515-8.742-16.3335-2.6836-29.1291-2.6836-29.1291,6.6954-14.1407,23.2402-16.0187,28.2773-16.5906Z"/>
  <ellipse class="cls-1" cx="28.1681" cy="45.78" rx="2.6353" ry="4.7059"/>
</svg>