<?xml version="1.0" encoding="UTF-8"?>
<svg id="szem1" xmlns="http://www.w3.org/2000/svg" viewBox="0 0 472.9793 326.8758" preserveAspectRatio="none">
  <defs>
    <style>
      .cls-1 {
        fill: #c6ebed;
      }

      .cls-2 {
        fill: #aad7db;
      }
    </style>
  </defs>
  <rect class="cls-2" x="7.5958" y="5.6032" width="457.7878" height="315.6693" rx="24.1899" ry="24.1899"/>
  <g>
    <path class="cls-1" d="M448.8233,47.4573c-.2349.8978-.5424,1.6667-1.1332,1.8254-2.9855.8014-5.2801-16.1025-16.0901-20.2652-3.869-1.4898-9.402-2.0128-10.4145-4.4006-.0646-.1524-.0598-.3398.0245-.5765,1.0658-2.9899,9.0203-7.6747,15.7024-6.112,11.2976,2.6421,13.9038,21.9112,11.9109,29.529Z"/>
    <path class="cls-1" d="M15.0918,44.0138c-.8755,9.4689,1.6612,19.0687,3.5924,19.0683,3.6101-.0006,1.104-33.5399,16.535-41.0383,6.6424-3.2277,14.0939-3.3162,14.0939-3.3162,5.9098-.0701,11.6088,1.5326,11.8372.7369.1228-.4282-1.4332-1.2199-1.8423-1.4279-16.1613-8.2212-28.5587-2.0317-28.5587-2.0317-13.7006,6.8401-15.2007,23.0683-15.6576,28.0088Z"/>
    <ellipse class="cls-1" cx="75.3287" cy="17.8412" rx="7.7379" ry="3.3162"/>
    <path class="cls-1" d="M452.5495,296.4966c-.0674,7.7531-9.0028,14.2159-11.2379,12.8965-1.687-.9958-.0024-6.6885,1.2894-11.0542,1.2406-4.1919,3.0519-10.3126,5.527-10.3171,2.1157-.0038,4.4565,4.4614,4.4216,8.4748Z"/>
    <path class="cls-1" d="M40.9689,302.8301c1.849,2.6439-3.2626,13.413-10.8754,13.413-6.0062,0-10.8754-6.0053-10.8754-13.413,0-8.3109,8.6451-14.5751,10.8754-13.413,2.0983,1.0933-1.6772,8.6419,1.9334,11.8421,2.9122,2.5812,7.5927-.3584,8.942,1.5709Z"/>
    <path class="cls-1" d="M446.879,98.6566c1.0762-.0241,3.4598,39.117,3.7461,80.3483.3104,44.7211-1.8832,86.5839-3.0091,86.5686-1.265-.0171-1.4722-52.8887-1.6041-86.5686-.1295-33.0701-.3147-80.3218.8672-80.3483Z"/>
    <path class="cls-1" d="M22.4033,94.134c-1.0762-.0241-3.4598,39.117-3.7461,80.3483-.3104,44.7211,1.8832,86.5839,3.0091,86.5686,1.265-.0171,1.4722-52.8887,1.6041-86.5686.1295-33.0701.3147-80.3218-.8672-80.3483Z"/>
  </g>
</svg>