<?xml version="1.0" encoding="UTF-8"?>
<svg id="szem1" xmlns="http://www.w3.org/2000/svg" viewBox="0 0 472.9793 326.8758" preserveAspectRatio="none">
  <defs>
    <style>
      .cls-1 {
        fill: #c6ebed;
      }

      .cls-2 {
        fill: #aad7db;
      }
    </style>
  </defs>
  <rect class="cls-2" x="4.688" y="5.6032" width="463.6033" height="315.6693" rx="24.343" ry="24.343"/>
  <path class="cls-1" d="M461.7115,43.5914c-.24.9173-.5542,1.7029-1.1578,1.865-3.0504.8188-5.3948-16.4521-16.4395-20.7052-3.953-1.5221-9.6062-2.0565-10.6406-4.4962-.066-.1557-.0611-.3472.025-.589,1.0889-3.0548,9.2161-7.8413,16.0433-6.2447,11.5429,2.6994,14.2057,22.3869,12.1695,30.1701Z"/>
  <path class="cls-1" d="M14.053,42.0349c-.8945,9.6744,1.6973,19.4827,3.6704,19.4823,3.6885-.0006,1.1279-34.2681,16.894-41.9293,6.7866-3.2977,14.3999-3.3882,14.3999-3.3882,6.0381-.0717,11.8608,1.5659,12.0942.7529.1255-.4375-1.4644-1.2463-1.8823-1.4589-16.5122-8.3997-29.1787-2.0758-29.1787-2.0758-13.998,6.9886-15.5308,23.5691-15.9976,28.6169Z"/>
  <ellipse class="cls-1" cx="422.6167" cy="11.635" rx="7.3412" ry="1.9765"/>
  <path class="cls-1" d="M452.8673,309.1605c-8.4803,5.9301-18.7195,7.247-19.3003,5.8146-.4808-1.1861,6.2911-2.6987,11.771-9.421,8.4279-10.3389,5.1054-22.3367,9.314-23.2695,3.222-.7139,8.7005,5.535,8.9229,11.8764.2571,7.3323-6.6061,12.1312-10.7077,14.9995Z"/>
  <path class="cls-1" d="M459.0857,269.4451c.2319,2.2434-1.0962,5.2097-2.6353,5.2235-1.5869.0143-3.6997-3.1075-2.6353-5.2235.8643-1.718,3.6313-2.392,4.7056-1.4587.4458.3875.5151.9785.5649,1.4587Z"/>
  <path class="cls-1" d="M24.2025,300.4753c8.4803,5.9301,18.7195,7.247,19.3003,5.8146.4808-1.1861-6.2911-2.6987-11.771-9.421-8.4279-10.3389-5.1054-22.3367-9.314-23.2695-3.222-.7139-8.7005,5.535-8.9229,11.8764-.2571,7.3323,6.6061,12.1312,10.7077,14.9995Z"/>
  <path class="cls-1" d="M17.9841,260.7599c-.2319,2.2434,1.0962,5.2097,2.6353,5.2235,1.5869.0143,3.6997-3.1075,2.6353-5.2235-.8643-1.718-3.6313-2.392-4.7056-1.4587-.4458.3875-.5151.9785-.5649,1.4587Z"/>
</svg>