<?xml version="1.0" encoding="UTF-8"?>
<svg id="szem1" xmlns="http://www.w3.org/2000/svg" viewBox="0 0 472.9793 326.8758">
  <defs>
    <style>
      .cls-1 {
        fill: #c6ebed;
      }

      .cls-2 {
        fill: #aad7db;
      }
    </style>
  </defs>
  <rect class="cls-2" x="10.693" y="4.6015" width="460.3695" height="317.6831" rx="24.3352" ry="24.3352"/>
  <path class="cls-1" d="M457.6397,43.2778c-.24.9173-.5542,1.7029-1.1578,1.865-3.0504.8188-5.3948-16.4521-16.4395-20.7052-3.953-1.5221-9.6062-2.0565-10.6406-4.4962-.066-.1557-.0611-.3472.025-.589,1.0889-3.0548,9.2161-7.8413,16.0433-6.2447,11.5429,2.6994,14.2057,22.3869,12.1695,30.1701Z"/>
  <path class="cls-1" d="M14.4913,39.7595c-.8945,9.6744,1.6973,19.4827,3.6704,19.4823,3.6885-.0006,1.1279-34.2681,16.894-41.9293,6.7866-3.2977,14.3999-3.3882,14.3999-3.3882,6.0381-.0717,11.8608,1.5659,12.0942.7529.1255-.4375-1.4644-1.2463-1.8823-1.4589-16.5122-8.3997-29.1787-2.0758-29.1787-2.0758-13.998,6.9886-15.5308,23.5691-15.9976,28.6169Z"/>
  <ellipse class="cls-1" cx="76.036" cy="13.0187" rx="7.9059" ry="3.3882"/>
  <path class="cls-1" d="M461.4468,297.724c-.0688,7.9214-9.1982,14.5245-11.4819,13.1765-1.7236-1.0175-.0024-6.8337,1.3174-11.2942,1.2676-4.283,3.1182-10.5365,5.647-10.5411,2.1616-.0039,4.5532,4.5582,4.5176,8.6588Z"/>
  <path class="cls-1" d="M40.9302,304.1951c1.8891,2.7013-3.3335,13.7043-11.1115,13.7043-6.1366,0-11.1115-6.1357-11.1115-13.7043,0-8.4914,8.8328-14.8916,11.1115-13.7043,2.1438,1.1171-1.7136,8.8296,1.9754,12.0992,2.9754,2.6372,7.7576-.3662,9.1362,1.605Z"/>
  <path class="cls-1" d="M455.6531,95.5887c1.0996-.0247,3.5349,39.9663,3.8274,82.0928.3171,45.692-1.9241,88.4637-3.0745,88.4481-1.2925-.0175-1.5042-54.037-1.6389-88.4481-.1323-33.7881-.3215-82.0657.886-82.0928Z"/>
  <path class="cls-1" d="M21.9616,90.9679c-1.0996-.0247-3.5349,39.9663-3.8274,82.0928-.3171,45.692,1.9241,88.4637,3.0745,88.4481,1.2925-.0175,1.5042-54.037,1.6389-88.4481.1323-33.7881.3215-82.0657-.886-82.0928Z"/>
</svg>