<?xml version="1.0" encoding="UTF-8"?>
<svg id="szem1" xmlns="http://www.w3.org/2000/svg" viewBox="0 0 472.9793 326.8758" preserveAspectRatio="none">
  <defs>
    <style>
      .cls-1 {
        fill: #c6ebed;
      }

      .cls-2 {
        fill: #aad7db;
      }
    </style>
  </defs>
  <rect class="cls-2" x="7.5958" y="5.6032" width="457.7878" height="315.6693" rx="24.1899" ry="24.1899"/>
  <g>
    <path class="cls-1" d="M456.156,47.1728c-.2358.9013-.5445,1.6732-1.1376,1.8324-2.9971.8045-5.3006-16.1648-16.1524-20.3437-3.8839-1.4956-9.4384-2.0206-10.4548-4.4177-.0649-.153-.0601-.3412.0246-.5788,1.0699-3.0014,9.0552-7.7044,15.7632-6.1357,11.3414,2.6523,13.9577,21.996,11.957,29.6434Z"/>
    <path class="cls-1" d="M16.3132,45.6435c-.8789,9.5055,1.6676,19.1425,3.6063,19.1422,3.6241-.0006,1.1082-33.6698,16.5991-41.1973,6.6681-3.2402,14.1485-3.329,14.1485-3.329,5.9327-.0704,11.6538,1.5386,11.8831.7398.1233-.4299-1.4388-1.2246-1.8495-1.4334-16.2239-8.253-28.6693-2.0396-28.6693-2.0396-13.7537,6.8666-15.2596,23.1576-15.7183,28.1173Z"/>
    <ellipse class="cls-1" cx="417.7438" cy="15.7743" rx="7.213" ry="1.942"/>
    <path class="cls-1" d="M447.4662,308.1052c-8.3323,5.8265-18.3927,7.1205-18.9633,5.713-.4725-1.1654,6.1813-2.6516,11.5655-9.2565,8.2808-10.1584,5.0163-21.9468,9.1514-22.8632,3.1657-.7014,8.5486,5.4384,8.7671,11.6691.2526,7.2043-6.4907,11.9194-10.5207,14.7376Z"/>
    <path class="cls-1" d="M453.576,269.0833c.2279,2.2042-1.0771,5.1188-2.5892,5.1323-1.5592.014-3.6351-3.0533-2.5892-5.1323.8492-1.688,3.5679-2.3502,4.6234-1.4333.438.3807.5061.9614.5551,1.4333Z"/>
    <path class="cls-1" d="M26.2855,309.5717c8.3323,5.8265,18.3927,7.1205,18.9633,5.713.4725-1.1654-6.1813-2.6516-11.5655-9.2565-8.2808-10.1584-5.0163-21.9468-9.1514-22.8632-3.1657-.7014-8.5486,5.4384-8.7671,11.6691-.2526,7.2043,6.4907,11.9194,10.5207,14.7376Z"/>
    <path class="cls-1" d="M20.1757,270.5497c-.2279,2.2042,1.0771,5.1188,2.5892,5.1323,1.5592.014,3.6351-3.0533,2.5892-5.1323-.8492-1.688-3.5679-2.3502-4.6234-1.4333-.438.3807-.5061.9614-.5551,1.4333Z"/>
  </g>
</svg>