<?xml version="1.0" encoding="UTF-8"?>
<svg id="szem1" xmlns="http://www.w3.org/2000/svg" viewBox="0 0 472.9793 326.8758" preserveAspectRatio="none">
  <defs>
    <style>
      .cls-1 {
        fill: #c6ebed;
      }

      .cls-2 {
        fill: #aad7db;
      }
    </style>
  </defs>
  <rect class="cls-2" x="6.1739" y="5.6032" width="460.6316" height="315.6693" rx="24.2649" ry="24.2649"/>
  <path class="cls-1" d="M152.0581,17.6817c-4.8721.8082-19.4426,3.2255-19.3142,4.5574.0361.375,1.2278.5648,2.1519.6691,44.4841,5.0187,109.4954-1.0021,109.4954-1.0021,11.5339-1.0681,28.6011-2.2518,49.6863-2.1772,18.1821,1.3447,33.2498,3.027,35.1235,2.896,1.0078-.0704-2.5835-.6115-3.5278-.7537-37.302-5.6185-84.365-7.0455-84.365-7.0455-56.2483-1.322-79.4578,1.2316-89.25,2.8561Z"/>
  <path class="cls-1" d="M458.7976,35.173c-.159.7481-.3996,1.3803-.9678,1.4684-2.8713.4451-6.4836-14.1793-17.4468-18.6025-3.9238-1.583-9.4063-2.4737-10.5934-4.5947-.0757-.1353-.0861-.2951-.0221-.4905.8081-2.4686,8.2538-5.8326,14.9495-3.9616,11.3207,3.1633,15.4291,19.8332,14.0806,26.181Z"/>
  <ellipse class="cls-1" cx="390.8732" cy="18.1762" rx="6.4941" ry="2.6823"/>
  <path class="cls-1" d="M451.2215,115.77c1.0996-.0247,3.5349,39.9663,3.8274,82.0928.3171,45.692-1.9241,88.4637-3.0745,88.4481-1.2925-.0175-1.5042-54.037-1.6389-88.4481-.1323-33.7881-.3215-82.0657.886-82.0928Z"/>
  <path class="cls-1" d="M19.0075,111.5439c1.0996-.0247,3.5349,39.9663,3.8274,82.0928.3171,45.692-1.9241,88.4637-3.0745,88.4481-1.2925-.0175-1.5042-54.037-1.6389-88.4481-.1323-33.7881-.3215-82.0657.886-82.0928Z"/>
  <path class="cls-1" d="M11.4939,45.4817c-.8945,9.6744,1.6973,19.4827,3.6704,19.4823,3.6885-.0006,1.1279-34.2681,16.894-41.9293,6.7866-3.2977,14.3999-3.3882,14.3999-3.3882,6.0381-.0717,11.8608,1.5659,12.0942.7529.1255-.4375-1.4644-1.2463-1.8823-1.4589-16.5122-8.3997-29.1787-2.0758-29.1787-2.0758-13.998,6.9886-15.5308,23.5691-15.9976,28.6169Z"/>
</svg>