<?xml version="1.0" encoding="UTF-8"?>
<svg id="szem1" xmlns="http://www.w3.org/2000/svg" viewBox="0 0 472.9793 326.8758">
  <defs>
    <style>
      .cls-1 {
        fill: #c6ebed;
      }

      .cls-2 {
        fill: #aad7db;
      }
    </style>
  </defs>
  <rect class="cls-2" x="4.688" y="5.6032" width="463.6033" height="315.6693" rx="24.343" ry="24.343"/>
  <path class="cls-1" d="M458.2214,41.14c-.2261.9208-.5283,1.7111-1.1294,1.8823-3.0376.865-5.6436-16.3684-16.7515-20.4536-3.9756-1.462-9.6362-1.9106-10.7075-4.3344-.0684-.1547-.0664-.3463.0161-.5894,1.0425-3.0709,9.0962-7.9802,15.9468-6.4872,11.5825,2.5241,14.5435,22.1689,12.6255,29.9822Z"/>
  <path class="cls-1" d="M22.2658,71.364c-1.6709-.1893-12.2661,46.5686-12.1084,104.752.1538,56.681,10.4531,102.259,12.1084,102.0713,1.5425-.1749-4.7954-40.0408-4.8086-103.4116-.0132-63.5428,6.3423-103.2379,4.8086-103.4116Z"/>
  <path class="cls-1" d="M12.37,34.6662c-2.9799,5.3215-2.8803,9.9275-1.1203,9.4823,3.2901-.8322,8.735-18.3892,24.5255-25.9996,6.7971-3.2759,13.6082-5.0408,13.6082-5.0408,5.4018-1.3998,10.2261-1.8464,10.6176-2.3293.2106-.2598-1.025-.3293-1.3499-.3475-12.8336-.7209-25.5577,5.4825-25.5577,5.4825-14.0618,6.8556-19.1685,15.9757-20.7234,18.7524Z"/>
</svg>