<?xml version="1.0" encoding="UTF-8"?>
<svg id="Főpanel" xmlns="http://www.w3.org/2000/svg" viewBox="0 0 1419.0611 111.3316">
  <defs>
    <style>
      .cls-1 {
        fill: #c6ebed;
      }

      .cls-2 {
        fill: #7fb6b7;
      }

      .cls-3 {
        fill: #cef5f9;
      }

      .cls-4 {
        fill: #aad7db;
      }
    </style>
  </defs>
  <ellipse class="cls-1" cx="45.1329" cy="36.79" rx="3.2409" ry="3.8118"/>
  <rect class="cls-2" x="2.5378" y="3.3334" width="1411.9867" height="105.1385" rx="52.5692" ry="52.5692"/>
  <rect class="cls-4" x="2.5378" y="2.8597" width="1413.9855" height="97.2786" rx="48.6393" ry="48.6393"/>
  <path class="cls-3" d="M1406.0922,41.4095c8.1949,21.5698-17.4592,42.9215-21.2116,42.05-3.0765-.7145,10.1057-16.0128,4.1391-37.5519-5.3773-19.4129-22.4244-29.8694-19.5657-31.3561,3.2387-1.6842,29.9404,9.2288,36.6382,26.858Z"/>
  <ellipse class="cls-3" cx="1342.1927" cy="90.2489" rx="10.0826" ry="5.0823"/>
  <path class="cls-1" d="M27.2094,59.5281c.3673-.9173.8482-1.7029,1.7719-1.865,4.6683-.8188,8.2562,16.4521,25.159,20.7052,6.0496,1.5221,14.7013,2.0565,16.2844,4.4962.101.1557.0936.3472-.0383.589-1.6665,3.0548-14.1044,7.8413-24.5527,6.2447-17.6653-2.6994-21.7405-22.3869-18.6243-30.1701Z"/>
  <ellipse class="cls-1" cx="29.3365" cy="34.7097" rx="3.2409" ry="3.8118"/>
</svg>