<?xml version="1.0" encoding="UTF-8"?>
<svg id="Főpanel" xmlns="http://www.w3.org/2000/svg" viewBox="0 0 964.662 434.4053" preserveAspectRatio="none">
  <defs>
    <style>
      .cls-1 {
        fill: #c6ebed;
      }

      .cls-2 {
        fill: #7fb6b7;
      }

      .cls-3 {
        fill: #beebed;
      }

      .cls-4 {
        fill: #aad7db;
      }
    </style>
  </defs>
  <rect class="cls-2" x="6.214" y="23.397" width="952.234" height="387.6113" rx="90.1551" ry="90.1551"/>
  <rect class="cls-4" x="6.2406" y="23.397" width="951.9352" height="363.0438" rx="87.2375" ry="87.2375"/>
  <path class="cls-3" d="M175.8018,62.314c.0723,1.3088,117.2442-2.5068,316.3759-2.5111,199.4291-.0043,316.3036,3.8175,316.3759,2.5111.0804-1.4468-143.1386-8.8407-318.2553-8.7886-172.9716.0514-314.5761,7.349-314.4965,8.7886Z"/>
  <path class="cls-1" d="M941.7572,144.3738c-2.6047,2.9308-8.1611-30.1979-31.704-51.4477-16.5846-14.9696-31.0838-14.1047-30.2463-18.8226.9719-5.4751,22.0396-15.3249,38.1485-4.3614,23.7778,16.1822,26.9762,71.0596,23.8019,74.6316Z"/>
  <ellipse class="cls-1" cx="855.1394" cy="73.1902" rx="14.0436" ry="9.0569"/>
  <path class="cls-1" d="M36.2901,132.1668c.4951,2.5568,1.1432,4.7465,2.3883,5.1983,6.2922,2.2824,11.1281-45.857,33.9107-57.7116,8.154-4.2427,19.8152-5.7321,21.949-12.5322.1362-.4339.1261-.9678-.0517-1.6418-2.2462-8.5146-19.0107-21.8562-33.0935-17.406-23.8103,7.5241-29.303,62.3991-25.1028,84.0934Z"/>
</svg>