<?xml version="1.0" encoding="UTF-8"?>
<svg id="Főpanel" xmlns="http://www.w3.org/2000/svg" viewBox="0 0 964.662 297.8197">
  <defs>
    <style>
      .cls-1 {
        fill: #c6ebed;
      }

      .cls-2 {
        fill: #7fb6b7;
      }

      .cls-3 {
        fill: #beebed;
      }

      .cls-4 {
        fill: #aad7db;
      }
    </style>
  </defs>
  <rect class="cls-2" x="6.1908" y="6.3558" width="952.2804" height="285.1081" rx="77.3228" ry="77.3228"/>
  <rect class="cls-4" x="6.1908" y="6.3558" width="952.0082" height="267.0374" rx="74.8215" ry="74.8215"/>
  <path class="cls-3" d="M161.6511,34.1721c.0728.901,117.9533-1.7257,318.2894-1.7287,200.6353-.003,318.2166,2.6281,318.2894,1.7287.0809-.996-144.0044-6.0862-320.1802-6.0503-174.0177.0354-316.4787,5.0593-316.3986,6.0503Z"/>
  <path class="cls-1" d="M932.2391,90.6645c-2.6205,2.0177-8.2104-20.7891-31.8958-35.4181-16.6849-10.3055-31.2718-9.7101-30.4293-12.958.9778-3.7692,22.1729-10.5501,38.3792-3.0025,23.9216,11.1403,27.1394,48.9196,23.9458,51.3786Z"/>
  <ellipse class="cls-1" cx="845.0974" cy="41.6596" rx="14.1286" ry="6.235"/>
  <path class="cls-1" d="M21.2956,82.2608c.4981,1.7602,1.1501,3.2677,2.4027,3.5787,6.3302,1.5712,11.1954-31.5693,34.1158-39.7304,8.2034-2.9208,19.9351-3.9462,22.0818-8.6276.137-.2987.1269-.6663-.052-1.1303-2.2598-5.8617-19.1257-15.0465-33.2937-11.9828-23.9543,5.1798-29.4802,42.9574-25.2546,57.8924Z"/>
  <path class="cls-1" d="M73.0857,264.5279c-1.3287,2.5767-19.1608-.7686-32.6118-12.0471-13.0841-10.9709-19.3885-27.2395-17.0688-28.988,1.5232-1.1479,6.213,4.3787,26.0779,20.7656,18.6765,15.4065,24.4219,18.6809,23.6027,20.2695Z"/>
  <path class="cls-1" d="M21.121,94.3514c-.9791-.1041-6.4762,24.6643-6.6786,55.0007-.2276,34.0516,6.3068,61.4105,7.3521,61.2887.9678-.1128-2.9956-23.749-2.9196-62.0935.0662-33.3387,3.1393-54.101,2.2461-54.1959Z"/>
  <path class="cls-1" d="M928.7776,217.1542c1.393,1.4152.9936,16.9158-8.5612,26.2549-10.7244,10.4834-28.6662,8.9843-30.0778,7.404-1.3069-1.4631,11.8587-2.6522,24.1854-14.191,10.7174-10.0325,13.1828-20.7589,14.4536-19.4678Z"/>
</svg>