<?xml version="1.0" encoding="UTF-8"?>
<svg id="szem1" xmlns="http://www.w3.org/2000/svg" viewBox="0 0 2503.9008 196.364">
  <defs>
    <style>
      .cls-1 {
        fill: #c6ebed;
      }

      .cls-2 {
        fill: #cef5f9;
      }

      .cls-3 {
        fill: #aad7db;
      }
    </style>
  </defs>
  <rect class="cls-3" x="27.3692" y="25.4498" width="2449.1623" height="145.4644" rx="55.5395" ry="55.5395"/>
  <path class="cls-2" d="M2458.4639,84.6517c14.1944,32.2541-30.241,64.1821-36.7405,62.879-5.3288-1.0685,17.504-23.9445,7.1694-56.1528-9.3141-29.0288-38.8413-44.6649-33.8897-46.8879,5.6097-2.5185,51.8597,13.8001,63.4609,40.1617Z"/>
  <ellipse class="cls-2" cx="2382.4256" cy="157.683" rx="17.4641" ry="7.5998"/>
  <ellipse class="cls-2" cx="1851.3471" cy="162.5359" rx="465.8157" ry="3.5511"/>
  <path class="cls-1" d="M69.659,111.8621c.6362-1.3717,1.4691-2.5464,3.0691-2.7888,8.0859-1.2244,14.3005,24.6014,43.5779,30.9612,10.4786,2.2761,25.4641,3.0752,28.2062,6.7233.175.2328.1621.5192-.0664.8808-2.8865,4.5679-24.4302,11.7255-42.5278,9.338-30.5981-4.0365-37.6566-33.4759-32.259-45.1145Z"/>
  <ellipse class="cls-1" cx="68.1738" cy="89.3885" rx="5.6135" ry="5.6999"/>
  <path class="cls-1" d="M398.5146,45.207c.0427-1.6443-69.2256-5.2859-142.1928-5.7232-79.1431-.4742-153.2279,2.8771-153.2009,4.5974.0302,1.9327,93.5974,2.2492,153.2009,2.4507,58.5243.1979,142.1458.4808,142.1928-1.3248Z"/>
</svg>