<?xml version="1.0" encoding="UTF-8"?>
<svg id="belter3" xmlns="http://www.w3.org/2000/svg" viewBox="0 0 146.5931 126.2021">
  <defs>
    <style>
      .cls-1 {
        fill: #a9dbd8;
      }

      .cls-2 {
        fill: #80cfcc;
      }

      .cls-3 {
        fill: #03626f;
      }

      .cls-4 {
        fill: none;
        stroke: #03626f;
        stroke-miterlimit: 10;
        stroke-width: 4px;
      }

      .cls-5 {
        fill: #246156;
      }
    </style>
  </defs>
  <g>
    <rect class="cls-5" x="1.5956" y="2.4039" width="143.4071" height="121.9336" rx="21.108" ry="21.108"/>
    <rect class="cls-2" x="1.5903" y="1.8646" width="143.4126" height="112.6611" rx="20.2899" ry="20.2899"/>
    <path class="cls-3" d="M48.8076,50.0336c1.4746,15.8745,2.949,31.7489,4.4236,47.6234.0669.7748.2959,2.0499,1.2236,3.0588,1.6121,1.7533,4.3379,1.6196,5.4822,1.5765,8.7158-.3285,17.4426.2994,26.1648.2823,4.5688-.0089,8.7205.1285,10.5647-2.5647.6519-.952.8252-1.9801.8706-2.6942,1.498-15.6195,2.9961-31.2391,4.4941-46.8586l-53.2236-.4236Z"/>
    <path class="cls-3" d="M48.3137,38.2454l56.188,13.2706c2.396-1.8848,3.2974-5.0609,2.2588-7.7648-.8918-2.3217-3.085-3.9598-5.647-4.2352-15.9058-3.4823-31.8118-6.9647-47.7175-10.447-2.2698-.7797-4.7236-.1271-6.0706,1.5529-1.6956,2.1147-1.3972,5.5588.9883,7.6235Z"/>
    <path class="cls-4" d="M66.2429,32.1748s2.1418-4.3496,5.0825-5.6471c2.0684-.9126,3.0425.3423,10.0234,2.1177,5.6143,1.4279,7.2637,1.1958,8.1882,2.8235,1.2603,2.2189.283,6.3252.2822,6.353,0,0-23.5745-5.6466-23.5764-5.6471Z"/>
  </g>
  <path class="cls-1" d="M139.8333,32.9551c-1.1739,1.0562-3.1696-10.2718-13.1635-17.1894-7.0401-4.8731-13.3752-4.3219-12.949-5.9635.4946-1.9051,9.8105-5.6695,16.6948-2.1696,10.1618,5.1658,10.8483,24.0353,9.4176,25.3225Z"/>
  <ellipse class="cls-1" cx="140.3039" cy="47.8193" rx="2.6623" ry="7.7901"/>
  <path class="cls-1" d="M6.1663,93.2527c-.3306,3.0459-.2898,7.4984,2.259,11.2941,4.719,7.0277,15.1084,7.4445,21.8823,7.7177,0,0,70.2383,2.8333,97.9763-.9883.8828-.1216,3.3987-.4683,3.3882-.5647-.0107-.0996-2.7136.1104-5.2708.3295-46.0569,1.4852-80.3149-.4686-91.8584-3.2942-8.7239-2.1354-15.7649-5.8352-15.7649-5.8352-5.709-2.9999-9.9258-6.3092-12.6118-8.6588Z"/>
</svg>