<?xml version="1.0" encoding="UTF-8"?>
<svg id="belter3" xmlns="http://www.w3.org/2000/svg" viewBox="0 0 268.9458 133.7315">
  <defs>
    <style>
      .cls-1 {
        fill: #dbf5f9;
      }

      .cls-2 {
        fill: #a4e6e2;
      }

      .cls-3 {
        fill: #80cfcc;
      }

      .cls-4 {
        fill: #03626f;
      }

      .cls-5 {
        fill: #246156;
      }

      .cls-6 {
        fill: #41909a;
      }
    </style>
  </defs>
  <g>
    <rect class="cls-5" x="3.4604" y="6.4373" width="261.7338" height="121.9336" rx="28.5161" ry="28.5161"/>
    <rect class="cls-3" x="3.7518" y="5.3606" width="261.7336" height="113.1986" rx="27.4756" ry="27.4756"/>
    <path class="cls-4" d="M89.367,70.38c-1.6573-3.7243-.9289-8.0202,1.7686-10.7294,3.2044-3.2185,8.6207-3.6287,12.6158-.7073,5.7576,5.8363,11.5152,11.6724,17.2728,17.5087,1.1642-1.3043,2.7844-3.1182,3.9499-4.4215,16.4303-18.3773,32.8984-36.6126,49.4017-54.7072,1.212-1.0217,3.0103-.8845,4.0086.2357.9212,1.034.9436,2.6616,0,3.7731-16.6244,26.6856-33.2487,53.3709-49.8731,80.0565-.0848.1802-2.0022,4.0759-6.3668,4.4804-4.23.3919-6.8019-2.8623-6.9565-3.0654-8.6068-10.8079-17.214-21.6157-25.8208-32.4236Z"/>
  </g>
  <path class="cls-2" d="M256.3354,33.4188c-1.0239.8481-3.2376-8.7735-12.5281-14.9653-6.5446-4.3618-12.2559-4.1255-11.9295-5.494.3788-1.5882,8.6709-4.4259,15.0251-1.2273,9.3793,4.7211,10.6803,20.6531,9.4325,21.6867Z"/>
  <path class="cls-2" d="M33.3012,110.9571c.0134-.3314,14.5771.2141,49.801.6205,0,0,28.2246.3257,55.1108.328,61.2651.0054,96.8438-2.0928,96.8691-1.5264.03.6692-49.5535,5.2994-111.8567,4.8307-48.3682-.3639-89.9468-3.6923-89.9243-4.2528Z"/>
  <path class="cls-6" d="M129.6362,92.8203c18.6738-27.8567,38.2952-57.4294,37.647-57.8763-.21-.1448-2.3003,2.9351-8.1882,10.3942,0,.0001-25.6965,32.5536-29.3589,44.1823-.2534.8042-1.0281,3.2645-.5706,3.4883.1335.0654.3372-.0773.4707-.1884Z"/>
  <path class="cls-1" d="M252.2292,18.8029c-.3652.3441-3.1467-3.8987-8.9739-5.6492-4.5413-1.3643-8.0376-.3451-8.1018-.8156-.074-.5433,4.4753-2.7339,8.9883-1.5059,5.594,1.5222,8.501,7.5809,8.0874,7.9706Z"/>
</svg>