<?xml version="1.0" encoding="UTF-8"?>
<svg id="közmondás_kapás" data-name="közmondás kapás" xmlns="http://www.w3.org/2000/svg" viewBox="0 0 148.9721 138.2689">
  <defs>
    <style>
      .cls-1 {
        fill: #a9dbdb;
      }

      .cls-2 {
        fill: #86c3c4;
        stroke-width: 12px;
      }

      .cls-2, .cls-3 {
        stroke: #000;
        stroke-miterlimit: 10;
      }

      .cls-3 {
        fill: none;
        stroke-width: 10px;
      }

      .cls-4 {
        fill: #2f3a3a;
      }
    </style>
  </defs>
  <g>
    <g>
      <circle class="cls-2" cx="74.486" cy="69.1345" r="59.5276"/>
      <line class="cls-3" x1="51.8588" y1="98.6605" x2="95.6362" y2="45.5536"/>
      <line class="cls-3" x1="95.8984" y1="98.6605" x2="52.121" y2="45.5536"/>
    </g>
    <path class="cls-1" d="M109.3096,36.8992c.6941-1.3381-15.6287-17.2788-36.7058-16.7058-19.5742.5322-34.2896,15.0637-33.6001,16.3765.6248,1.1899,13.5686-9.1223,33.3176-9.5999,21.6682-.5239,36.3508,11.1582,36.9883,9.9292Z"/>
    <ellipse class="cls-1" cx="33.7802" cy="45.1816" rx="5.5059" ry="1.5529" transform="translate(-22.2383 51.8453) rotate(-60)"/>
    <path class="cls-1" d="M108.4206,88.3646c-1.0357-6.203-1.7042-9.6161.6105-12.0007,3.4759-3.5809,8.8383-4.014,11.9772-.9672,3.9163,3.8015-.1527,11.1673-.6105,12.0007-2.3069,4.2002-7.157,8.0892-9.7596,6.851-1.3148-.6256-1.6337-2.3867-2.2176-5.8839Z"/>
  </g>
  <path class="cls-4" d="M55.9788,42.8c5.5554,7.4951,11.1111,14.9902,16.6665,22.4854.3064-.3877.613-.7751.9194-1.1628-5.8621-7.1074-11.7239-14.2151-17.5859-21.3225Z"/>
</svg>