<?xml version="1.0" encoding="UTF-8"?>
<svg id="start" xmlns="http://www.w3.org/2000/svg" viewBox="0 0 1392.7082 270.9548">
  <defs>
    <style>
      .cls-1 {
        fill: #c6ebed;
      }

      .cls-2 {
        fill: #a9dbdb;
      }

      .cls-3 {
        fill: #7fb6b7;
      }

      .cls-4 {
        fill: #aad7db;
      }
    </style>
  </defs>
  <rect class="cls-3" x="16.1267" y="20.8129" width="1371.092" height="216.7352" rx="74.376" ry="74.376"/>
  <g>
    <rect class="cls-4" x="16.0629" y="15.7899" width="1371.0932" height="201.5916" rx="76.2188" ry="76.2188"/>
    <path class="cls-1" d="M1375.4289,95.6712c7.9481,44.6993-16.9334,88.9467-20.5728,87.1408-2.9839-1.4807,9.8014-33.1834,4.0145-77.8193-5.2154-40.2296-21.7491-61.8988-18.9765-64.9795,3.1411-3.4902,29.0388,19.1249,35.5349,55.6581Z"/>
    <ellipse class="cls-2" cx="1332.8514" cy="196.8815" rx="9.779" ry="10.5322"/>
    <ellipse class="cls-1" cx="1035.4745" cy="203.6069" rx="260.833" ry="4.9213"/>
    <path class="cls-1" d="M315.5278,40.2748c.0366-2.2787-59.3228-7.3254-121.8519-7.9315-67.8215-.6572-131.3084,3.9873-131.2852,6.3712.0259,2.6784,80.2081,3.1171,131.2852,3.3963,50.1523.2742,121.8116.6663,121.8519-1.836Z"/>
    <path class="cls-1" d="M37.8202,133.3808c.3562-1.9009.8226-3.529,1.7185-3.8648,4.5277-1.6969,8.0075,34.0938,24.4014,42.9075,5.8675,3.1543,14.2586,4.2617,15.794,9.3175.098.3226.0908.7195-.0372,1.2207-1.6163,6.3304-13.6797,16.2497-23.8134,12.941-17.1334-5.594-21.0858-46.3926-18.0634-62.5219Z"/>
    <ellipse class="cls-1" cx="36.9886" cy="102.2358" rx="3.1433" ry="7.8991"/>
  </g>
</svg>