<?xml version="1.0" encoding="UTF-8"?>
<svg id="Főpanel" xmlns="http://www.w3.org/2000/svg" viewBox="0 0 964.662 297.8197">
  <defs>
    <style>
      .cls-1 {
        fill: #c6ebed;
      }

      .cls-2 {
        fill: #7fb6b7;
      }

      .cls-3 {
        fill: #beebed;
      }

      .cls-4 {
        fill: #aad7db;
      }
    </style>
  </defs>
  <rect class="cls-2" x="6.214" y="6.3558" width="952.234" height="285.1081" rx="77.3209" ry="77.3209"/>
  <rect class="cls-4" x="6.2406" y="6.3558" width="951.9352" height="267.0374" rx="74.8187" ry="74.8187"/>
  <path class="cls-3" d="M165.648,34.1721c.0724.901,117.358-1.7257,316.683-1.7287,199.6227-.003,316.6106,2.6281,316.683,1.7287.0805-.996-143.2776-6.0862-318.5642-6.0503-173.1394.0354-314.8814,5.0593-314.8017,6.0503Z"/>
  <path class="cls-1" d="M932.3469,90.6645c-2.6072,2.0177-8.169-20.7891-31.7348-35.4181-16.6007-10.3055-31.114-9.7101-30.2757-12.958.9729-3.7692,22.061-10.5501,38.1855-3.0025,23.8009,11.1403,27.0024,48.9196,23.825,51.3786Z"/>
  <ellipse class="cls-1" cx="845.645" cy="41.6596" rx="14.0573" ry="6.235"/>
  <path class="cls-1" d="M26.0009,82.2608c.4956,1.7602,1.1443,3.2677,2.3906,3.5787,6.2983,1.5712,11.1389-31.5693,33.9437-39.7304,8.162-2.9208,19.8345-3.9462,21.9703-8.6276.1363-.2987.1263-.6663-.0517-1.1303-2.2484-5.8617-19.0292-15.0465-33.1257-11.9828-23.8334,5.1798-29.3315,42.9574-25.1272,57.8924Z"/>
  <path class="cls-1" d="M77.5297,264.5279c-1.322,2.5767-19.0641-.7686-32.4473-12.0471-13.0181-10.9709-19.2906-27.2395-16.9826-28.988,1.5156-1.1479,6.1816,4.3787,25.9463,20.7656,18.5822,15.4065,24.2986,18.6809,23.4836,20.2695Z"/>
  <path class="cls-1" d="M25.8272,94.3514c-.9742-.1041-6.4435,24.6643-6.6449,55.0007-.2265,34.0516,6.275,61.4105,7.315,61.2887.9629-.1128-2.9805-23.749-2.9049-62.0935.0658-33.3387,3.1235-54.101,2.2348-54.1959Z"/>
  <path class="cls-1" d="M928.9029,217.1542c1.386,1.4152.9886,16.9158-8.518,26.2549-10.6703,10.4834-28.5215,8.9843-29.926,7.404-1.3003-1.4631,11.7989-2.6522,24.0633-14.191,10.6633-10.0325,13.1163-20.7589,14.3806-19.4678Z"/>
</svg>