<?xml version="1.0" encoding="UTF-8"?>
<svg id="Főpanel" xmlns="http://www.w3.org/2000/svg" viewBox="0 0 964.662 297.8197" preserveAspectRatio="none">
  <defs>
    <style>
      .cls-1 {
        fill: #c6ebed;
      }

      .cls-2 {
        fill: #7fb6b7;
      }

      .cls-3 {
        fill: #aad7db;
      }
    </style>
  </defs>
  <rect class="cls-2" x="5.2169" y="6.1592" width="951.997" height="285.1081" rx="77.3113" ry="77.3113"/>
  <rect class="cls-3" x="5.2158" y="6.1592" width="951.7274" height="267.0374" rx="74.8105" ry="74.8105"/>
  <path class="cls-1" d="M72.0555,264.3314c-1.3277,2.5767-19.1457-.7686-32.586-12.0471-13.0738-10.9709-19.3731-27.2395-17.0553-28.988,1.522-1.1479,6.2081,4.3787,26.0573,20.7656,18.6617,15.4065,24.4025,18.6809,23.584,20.2695Z"/>
  <path class="cls-1" d="M20.1318,94.1549c-.9784-.1041-6.471,24.6643-6.6733,55.0007-.2274,34.0516,6.3018,61.4105,7.3463,61.2887.967-.1128-2.9933-23.749-2.9173-62.0935.0661-33.3387,3.1368-54.101,2.2443-54.1959Z"/>
  <path class="cls-1" d="M927.0703,216.9576c1.3919,1.4152.9928,16.9158-8.5544,26.2549-10.7159,10.4834-28.6435,8.9843-30.054,7.404-1.3059-1.4631,11.8493-2.6522,24.1663-14.191,10.7089-10.0325,13.1724-20.7589,14.4421-19.4678Z"/>
</svg>