<?xml version="1.0" encoding="UTF-8"?>
<svg id="szem1" xmlns="http://www.w3.org/2000/svg" viewBox="0 0 816.0117 178.6969" preserveAspectRatio="none">
  <defs>
    <style>
      .cls-1 {
        fill: #c6ebed;
      }

      .cls-2 {
        fill: #beebed;
      }

      .cls-3 {
        fill: #aad7db;
      }
    </style>
  </defs>
  <rect class="cls-3" x="7.4846" y="7.5023" width="801.0424" height="163.6923" rx="36.7811" ry="36.7811" transform="translate(-.3317 1.5284) rotate(-.2146)"/>
  <path class="cls-2" d="M99.0457,21.3662c.0673.901,109.0651-1.7257,294.3052-1.7287,185.5167-.003,294.2379,2.6281,294.3052,1.7287.0748-.996-133.1531-6.0862-296.0535-6.0503-160.9049.0354-292.631,5.0593-292.5569,6.0503Z"/>
  <path class="cls-1" d="M801.2238,65.2899c-2.423,2.0177-7.5918-20.7891-29.4923-35.4181-15.4276-10.3055-28.9154-9.7101-28.1363-12.958.9041-3.7692,20.5021-10.5501,35.4872-3.0025,22.1191,11.1403,25.0943,48.9196,22.1414,51.3786Z"/>
  <ellipse class="cls-1" cx="716.2757" cy="19.435" rx="13.0639" ry="6.235"/>
  <path class="cls-1" d="M37.8954,49.3732c.24.9173.5542,1.7029,1.1578,1.865,3.0504.8188,5.3948-16.4521,16.4395-20.7052,3.953-1.5221,9.6062-2.0565,10.6406-4.4962.066-.1557.0611-.3472-.025-.589-1.0889-3.0548-9.2161-7.8413-16.0433-6.2447-11.5429,2.6994-14.2057,22.3869-12.1695,30.1701Z"/>
  <ellipse class="cls-1" cx="75.2907" cy="15.0671" rx="9.0353" ry="1.5529"/>
</svg>