<?xml version="1.0" encoding="UTF-8"?>
<svg id="_öltözék1" data-name="öltözék1" xmlns="http://www.w3.org/2000/svg" viewBox="0 0 814.3042 169.4114" preserveAspectRatio="none">
  <defs>
    <style>
      .cls-1 {
        fill: #c6ebed;
      }

      .cls-2 {
        fill: #aad7db;
      }
    </style>
  </defs>
  <rect class="cls-2" x="5.5973" y="2.8597" width="803.1097" height="163.692" rx="36.8285" ry="36.8285" transform="translate(-.3321 1.6123) rotate(-.2268)"/>
  <path class="cls-1" d="M797.4324,62.3033c-2.2922,2.0177-7.1819-20.7891-27.9002-35.4181-14.5948-10.3055-27.3544-9.7101-26.6174-12.958.8553-3.7692,19.3953-10.5501,33.5715-3.0025,20.925,11.1403,23.7397,48.9196,20.9462,51.3786Z"/>
  <path class="cls-1" d="M36.0173,45.8203c.24.9173.5542,1.7029,1.1578,1.865,3.0504.8188,5.3948-16.4521,16.4395-20.7052,3.953-1.5221,9.6062-2.0565,10.6406-4.4962.066-.1557.0611-.3472-.025-.589-1.0889-3.0548-9.2161-7.8413-16.0433-6.2447-11.5429,2.6994-14.2057,22.3869-12.1695,30.1701Z"/>
</svg>