<?xml version="1.0" encoding="UTF-8"?>
<svg id="kivalaszto" xmlns="http://www.w3.org/2000/svg" viewBox="0 0 100.5174 92.0934">
  <defs>
    <style>
      .cls-1 {
        fill: #c6ebed;
      }

      .cls-2 {
        fill: #246156;
      }

      .cls-3 {
        fill: #aad7db;
      }
    </style>
  </defs>
  <path class="cls-2" d="M7.0053,25.3589c-.3657.2942-2.5636,2.1232-2.777,5.3055-.1968,2.9347,1.4342,4.931,1.7746,5.3301,7.6809,8.6151,15.3617,17.2303,23.0426,25.8454,3.9778,2.0871,8.7872,1.3137,11.6808-1.7697,2.452-2.6128,3.1779-6.5112,1.8823-10.0135-1.9614-2.6057-3.9225-5.2114-5.8839-7.8172l1.1184-17.8772c2.0747-2.2387,4.1495-4.4777,6.2243-6.7164,2.3803-3.6732,1.9956-8.4946-.8945-11.6778-2.7589-3.0387-7.2372-3.963-11.0438-2.254-8.3745,7.2149-16.7492,14.43-25.1238,21.6449Z"/>
  <path class="cls-3" d="M10.5366,25.5798c-.3657.2942-2.5636,2.1232-2.777,5.3055-.1968,2.9347,1.4342,4.931,1.7746,5.3301,7.6809,8.6151,15.3617,17.2303,23.0426,25.8454,3.9778,2.0871,8.7872,1.3137,11.6808-1.7697,2.452-2.6128,3.1779-6.5112,1.8823-10.0135-1.9614-2.6057-3.9225-5.2114-5.8839-7.8172l1.1184-17.8772c2.0747-2.2387,4.1495-4.4777,6.2243-6.7164,2.3803-3.6732,1.9956-8.4946-.8945-11.6778-2.7589-3.0387-7.2372-3.963-11.0438-2.254-8.3745,7.2149-16.7492,14.43-25.1238,21.6449Z"/>
  <path class="cls-1" d="M16.8804,26.3889c.1816.0717.3374.166.3703.3484.1664.9218-3.2434,1.6478-4.0674,4.9925-.2949,1.1971-.3921,2.9075-.8727,3.2227-.0307.0201-.0685.0188-.1165-.007-.6054-.3264-1.5635-2.7798-1.2582-4.8463.5162-3.4939,4.4031-4.3185,5.9444-3.7103Z"/>
  <ellipse class="cls-1" cx="14.8432" cy="37.093" rx=".7865" ry="1.3371" transform="translate(-.1387 .0558) rotate(-.2144)"/>
  <path class="cls-2" d="M40.3358,21.7491c24.6683.3645,45.2845,10.5403,52.7017,27.3639,7.7274,17.5281-.2033,39.2528-3.8015,39.2721-2.9041.0158-.3891-15.9998-12.1615-29.4101-.4767-.5433-11.9635-13.3253-26.3123-14.751-2.4624-.2445-12.3736-.8868-12.3736-.8868h0"/>
  <path class="cls-3" d="M39.5734,20.9043c2.2293.1069,41.3429,2.5124,52.614,29.0534,7.51,17.6849-.2454,39.2467-3.8015,39.2721-2.6289.0184-.4872-15.9122-12.1615-29.4101-1.5896-1.8385-7.1823-8.1603-16.3836-11.6787-5.9782-2.2854-13.3218-2.7981-16.7657-3.1039-2.0681-.1832-3.7927-.2655-4.9827-.3058"/>
  <path class="cls-1" d="M93.7134,59.9244c-.6433.4202-4.8891-10.7552-16.7128-20.923-12.3641-10.6323-24.6733-12.989-24.3678-13.6938.3287-.7592,15.1324.743,26.9496,11.0828,11.1115,9.7223,14.8153,23.0869,14.131,23.534Z"/>
</svg>