<?xml version="1.0" encoding="UTF-8"?>
<svg id="Főpanel" xmlns="http://www.w3.org/2000/svg" version="1.1" viewBox="0 0 196.5173 174.0176">
  <!-- Generator: Adobe Illustrator 29.4.0, SVG Export Plug-In . SVG Version: 2.1.0 Build 152)  -->
  <path d="M14.6787,23.3175c-.5121,13.5999-.565,38.9044-.6569,81.7853-.0154,8.5935-.0231,18.3455,7.0002,24.5339,5.6856,5.0063,13.1189,5.1324,19.0952,5.2426,5.2891.0947,8.5842.2838,9.7121,2.1128,1.176,1.8843.1905,5.0615-.5043,6.4883-.155.3241-1.1339,2.0715-4.8175,3.6261h90.9755c-1.0031-.7152-1.526-1.3997-1.7956-1.8838-1.5205-2.7278-1.5359-7.5681.8758-10.1539,1.7823-1.9162,4.1863-2.6966,8.2859-2.6966,1.9151,0,3.911.158,5.9512.3233,2.3501.1814,4.7464.3707,7.1195.3707,3.8244,0,9.5159-.4099,14.7819-3.9577,11.7389-7.8837,11.7543-24.3054,11.7947-54.192.0077-10.8008-.868-33.1352-1.4358-47.9093-.0502-1.2951-.0984-2.5283-.1436-3.6896" style="fill: #76c615; stroke: #261f20; stroke-miterlimit: 10; stroke-width: 5.5808px;"/>
  <path d="M31.864,79.2658c-2.5849,0-5.0139-.1419-7.237-.3628-.3869-.0395-.741-.2127-1.0009-.4884-1.1433-1.2063-6.827-7.7027-6.3785-17.8725.3946-8.5852,4.9831-14.0091,6.3785-15.4676.2752-.2998.6621-.473,1.0721-.4971,2.2692-.1338,4.6501-.2127,7.1176-.2127,2.2943,0,4.6675.0707,7.1119.2127,7.5045.4494,15.0494,1.6245,22.4211,3.4847.7025.1737,1.2068.7964,1.2222,1.5138l.5832,21.5064c.0154.6467-.3541,1.2381-.945,1.5061-7.466,3.3817-15.24,5.5105-23.1159,6.3145-2.5233.2526-4.9427.3628-7.2293.3628" style="fill: #fff;"/>
  <path d="M31.814,45.971c2.2635,0,4.6039.0707,7.0252.2127,8.284.4966,15.7115,1.8213,22.1208,3.4371.1963,7.1667.3869,14.3406.5832,21.5069-5.7241,2.5936-13.3941,5.2271-22.6097,6.1731-2.4752.2521-4.833.3546-7.0637.3546-2.531,0-4.9042-.1342-7.0811-.3546-.7083-.741-6.3689-6.8982-5.9281-16.6821.3869-8.475,5.062-13.5361,5.9281-14.4349,2.2404-.1338,4.5885-.2127,7.0252-.2127M31.814,42.7543c-2.5079,0-4.9119.0789-7.2216.2127-.8045.0476-1.5686.4023-2.1287.9855-1.4974,1.561-6.4093,7.3558-6.8193,16.5165-.4889,10.8083,5.5894,17.7618,6.8116,19.0471.5274.5596,1.2376.9065,2.0017.9855,2.4598.2521,4.9523.3782,7.4121.3782,2.4521,0,4.9427-.1261,7.3948-.3782,8.0492-.8199,15.9867-2.9881,23.6029-6.4411,1.1837-.536,1.9247-1.7265,1.892-3.0194l-.5678-20.9549-.0154-.5519c-.0385-1.4426-1.024-2.6802-2.4271-3.0353-7.466-1.8838-15.1148-3.0743-22.7214-3.5319-2.4829-.1496-4.8888-.2127-7.2139-.2127" style="fill: #261f20;"/>
  <path d="M63.3102,62.4115c1.4974,5.1482-6.1091,11.8885-16.9895,15.0499-10.8785,3.1614-20.916,1.5533-22.4134-3.5949-1.4974-5.1482,6.111-11.8885,16.9895-15.0499,10.8805-3.1614,20.916-1.5533,22.4134,3.5949" style="fill: #261f20;"/>
  <path d="M162.2063,80.2363c-2.2866,0-4.6982-.1102-7.2216-.3705-7.8683-.7964-15.6403-2.9169-23.114-6.3068-.5928-.268-.9624-.8594-.947-1.5138l.5755-21.2778c.0231-.7256.5293-1.561,1.2299-1.7347,7.364-1.8684,14.9089-3.043,22.4134-3.4847,2.4521-.1496,4.833-.2204,7.1195-.2204,2.4675,0,4.8484.0784,7.1176.2204.41.0241.7968.1973,1.0721.4889,1.3954,1.4585,5.984,6.8905,6.3708,15.4757.4658,10.1856-5.2275,16.6739-6.3708,17.8643-.2598.2762-.614.4494-1.0009.4889-2.2308.2286-4.6598.3705-7.2447.3705" style="fill: #fff;"/>
  <path d="M162.2659,46.9391c2.4367,0,4.7849.0789,7.0252.2127.8661.8988,5.5413,5.9599,5.9281,14.4349.4408,9.7838-5.2275,15.941-5.9281,16.6821-2.1769.2204-4.55.3546-7.0811.3546-2.2308,0-4.5962-.1025-7.0637-.3546-9.2156-.946-16.8856-3.5795-22.6097-6.1731.1963-7.1739.3869-14.3401.5832-21.5069,6.4093-1.6158,13.8368-2.9405,22.1208-3.4371,2.4213-.1419,4.7618-.2127,7.0252-.2127M162.2659,43.7224c-2.3251,0-4.731.063-7.2139.2127-7.6065.4576-15.2554,1.648-22.7214,3.5319-1.4031.3551-2.3963,1.5927-2.4271,3.0353l-.0154.5678-.5678,20.9391c-.0404,1.2929.7083,2.4834,1.892,3.0194,7.6161,3.453,15.5537,5.6212,23.6029,6.4411,2.4521.244,4.935.3782,7.3948.3782s4.9523-.1342,7.4025-.3782c.7737-.0789,1.484-.4258,2.0113-.9855,1.2222-1.2852,7.3005-8.2388,6.8116-19.0471-.4177-9.1607-5.3296-14.9556-6.8193-16.5165-.5601-.5832-1.3242-.9378-2.1287-.9855-2.3097-.1338-4.7136-.2127-7.2216-.2127" style="fill: #261f20;"/>
  <path d="M130.7678,63.3796c-1.4974,5.1482,5.5509,11.723,15.7442,14.6871,10.1856,2.9646,19.6533,1.1904,21.1508-3.9572,1.4994-5.1563-5.5413-11.7312-15.7346-14.6876-10.1856-2.9641-19.663-1.1904-21.1604,3.9577" style="fill: #261f20;"/>
  <path d="M65.7161,142.0546c-4.8792,0-9.3349-1.4979-12.2047-4.1074-4.6116-4.2022-4.8003-10.6428-4.8869-13.3864-1.4666-49.3913-2.2077-73.9647,15.1437-87.2722,9.2329-7.0714,21.9572-11.1316,34.9087-11.1316s23.982,4.0126,31.0631,11.2972c7.7412,7.9626,8.2224,21.9009,9.1829,49.6752.9065,26.4178,1.561,45.4413-9.7834,51.5985-2.5291,1.3718-5.7222,2.1287-8.9788,2.1287-4.5096,0-8.5073-1.4272-11.2423-4.0289-7.4025-7.0243-3.2566-19.7169,1.1433-33.1586,4.2094-12.874,8.5689-26.1892,2.2385-33.8602-3.5954-4.3518-10.9113-7.056-19.0779-7.056-8.49,0-16.1138,2.8775-19.8824,7.4978-6.6865,8.183-1.9709,22.066,2.5772,35.5001,4.5019,13.2681,8.7517,25.7951,1.561,32.37-2.735,2.4993-7.0233,3.9341-11.762,3.9341" style="fill: #261f20;"/>
  <path d="M98.6769,27.6582c11.6523,0,22.8234,3.477,29.9814,10.84,7.3486,7.5526,7.8201,21.2937,8.7671,48.7686.9219,26.6545,1.3242,44.5347-9.0039,50.14-2.302,1.2535-5.266,1.9473-8.2532,1.9473-3.7609,0-7.5776-1.1038-10.2184-3.6108-13.6155-12.9293,17.0299-50.5187,3.5011-66.8928-4.1786-5.0615-12.1642-7.5921-20.2288-7.5921-8.2936,0-16.6662,2.6802-21.0507,8.0415-13.9773,17.1233,17.6362,55.5167,4.2883,67.7127-2.5849,2.365-6.6441,3.5396-10.7361,3.5396-4.2267,0-8.4842-1.2453-11.2038-3.721-4.0438-3.6815-4.3114-9.4764-4.398-12.3221-1.4512-48.7686-2.2308-73.1525,14.5605-86.0264,9.2079-7.056,21.8687-10.8246,33.9945-10.8246M98.6769,24.6547h0c-13.2767,0-26.3321,4.1704-35.8229,11.4473-17.9596,13.7647-17.2186,38.5902-15.7442,88.0522l.0154.4494c.0789,2.6884.2926,9.8233,5.3777,14.4508,3.145,2.8621,7.9626,4.5014,13.2209,4.5014,5.1005,0,9.7603-1.5763,12.7628-4.3277,7.9164-7.2374,3.5165-20.2139-1.1433-33.9632-4.423-13.0395-8.9942-26.5285-2.837-34.0652,3.4914-4.2806,10.6668-6.9454,18.716-6.9454,7.7335,0,14.599,2.4993,17.9192,6.5118,5.8011,7.0243,1.5763,19.9459-2.5079,32.4412-4.3441,13.284-8.8364,27.0332-.7487,34.7119,3.0122,2.8616,7.3794,4.4384,12.2836,4.4384,3.4914,0,6.9367-.8199,9.6891-2.3097,12.1719-6.6066,11.5021-26.0165,10.5706-52.8837-.9758-28.216-1.4647-42.3747-9.6178-50.7549-7.3621-7.5844-18.7776-11.7548-32.1332-11.7548" style="fill: #261f20;"/>
  <path d="M115.5799,132.9174c-1.7419-2.2784-1.663-6.4093.3157-8.144,2.9795-2.6171,9.2945,1.0013,10.1529-.5991.4889-.9142-1.4493-2.2702-3.4048-5.4869-1.1664-1.9238-4.2883-6.93-2.8852-10.3276,1.994-4.8407,11.1711-4.5962,11.1403-6.7091-.025-1.4743-4.4403-1.151-7.3794-4.3046-4.0689-4.3595-3.682-13.6386.6852-17.5727,3.1527-2.838,7.6238-2.2149,7.6796-3.3269.0866-1.7501-11.0691-1.5292-12.938-6.3934-1.994-5.1717,7.7181-12.9134,6.2207-14.7188-1.3165-1.5686-8.3802,4.6198-12.5357,2.2312-4.4942-2.5859-2.0344-13.205-4.4461-13.7728-2.4983-.5837-5.1794,10.7298-10.1394,10.9344-5.345.229-9.0577-12.6214-12.0295-11.8568-2.7196.6939.2675,11.392-4.5885,14.8372-5.7934,4.1074-18.4234-5.2035-19.8978-3.0435-1.3165,1.9238,8.9326,9.0587,7.158,13.8753-1.4512,3.9577-9.5543,2.3732-11.123,6.3622-1.815,4.6357,8.1743,9.1453,7.5122,16.556-.6236,6.9766-10.0682,9.3104-9.1694,14.4032.766,4.3359,7.901,4.2965,8.7209,8.7508,1.0547,5.779-8.948,12.1253-7.7894,13.7416.945,1.3242,7.5353-3.1931,10.7534-.5914,1.2761,1.0485,1.5051,2.8067,1.5994,3.5554.308,2.365-.6467,5.1323-2.5695,6.291-3.2239,1.9555-8.003-1.3242-8.2224-1.482-5.2198-3.6738-4.7945-11.1158-5.0389-31.0063-.2829-23.0043-.9527-21.6724-.2983-28.2078,1.4897-14.7819,2.2462-22.3186,7.7894-29.6345,9.9412-13.1184,26.9769-14.5692,31.0997-14.9161.308-.0313.8353-.0789,1.5533-.1184,3.2874-.1968,20.3867-1.2058,30.9438,9.6024.4889.4966,1.8208,1.9002,3.4453,4.3518,7.8914,11.9357,7.5122,25.8269,7.1426,45.5438-.6159,32.2208-.4177,38.646-5.676,41.7679-4.0284,2.3968-11.1788,2.8221-13.781-.5914" style="fill: #fff;"/>
  <path d="M42.8791,28.1228c4.2014,4.2427,8.1437,9.1705,12.4261,13.8134" style="fill: #76c615;"/>
  <path d="M150.833,28.0728c-4.7023,4.7855-9.1374,9.7133-13.4537,14.9557" style="fill: #76c615;"/>
  <rect x="20.1915" y="144.2347" width="143.4673" height="6.4654" style="fill: #aad7db;"/>
</svg>