<?xml version="1.0" encoding="UTF-8"?>
<svg id="Főpanel" xmlns="http://www.w3.org/2000/svg" version="1.1" viewBox="0 0 196.5173 174.0176">
  <!-- Generator: Adobe Illustrator 29.4.0, SVG Export Plug-In . SVG Version: 2.1.0 Build 152)  -->
  <g id="_x32_.">
    <g>
      <path d="M184.817,146.0948c.3206-6.663.3306-14.3967.3427-23.3319.0075-10.817-.8695-33.1852-1.4381-47.9817-.2757-7.1059-.4897-12.4039-.4897-13.6752,0-1.9898-3.5121-8.2667-3.5449-8.3139-13.1215-19.4157-47.2079-26.332-74.7403-26.332-30.7611,0-71.6195,8.5192-85.375,32.3009-.0232.0395-1.7214,3.6952-1.7214,3.6952-.212.4579-.3142.892-.3624,1.3975-.8455,10.1808-.9385,34.2319-1.041,81.1242" style="fill: #76c615; stroke: #261f20; stroke-miterlimit: 10; stroke-width: 8.1689px;"/>
      <g>
        <path d="M165.5907,136.8411c3.8817-.0743,7.5093-.3727,10.8562-.78,2.5135-2.4346,11.1828-13.1436,10.1107-30.2051-.8701-13.8936-7.5661-22.2822-10.4001-25.252-.2568-.2565-.536-.3983-.8209-.4093-3.4333-.1468-7.0166-.2089-10.7406-.1376-3.4641.0663-7.0426.2495-10.7439.5489-11.2898.919-22.644,2.9671-33.7158,6.0723-.8432.2451-1.4618,1.6303-1.4726,3.3141l-.2414,33.8248c-.0193,1.6675.5886,3.1434,1.4273,3.5195,11.32,5.0471,23.0652,8.1242,34.8876,9.14,3.7971.3199,7.4243.4301,10.8535.3644" style="fill: #fff;"/>
        <path d="M164.6989,85.9712c-3.4374.0658-6.9997.2427-10.6688.5143-12.589.9846-23.8482,3.1829-33.5454,5.7697-.0903,10.6909-.1785,21.3817-.277,32.0727,8.779,3.6892,20.5199,7.3993,34.5587,8.5403,3.7639.2995,7.3558.3859,10.7523.3208,3.849-.0737,7.4422-.3439,10.7568-.7326,1.0538-1.1203,9.489-10.468,8.5403-25.0425-.8292-12.6097-8.0941-20.0149-9.4281-21.3372-3.4164-.1204-6.9832-.1765-10.6888-.1055M164.5729,79.39c3.7486-.0718,7.3478-.0324,10.7994.1029.57.0359,1.1282.3037,1.6331.7899,3.0873,3.0394,10.3826,11.7144,11.3457,26.5056,1.1962,18.1949-8.3129,29.3294-10.2295,31.3801-.4675.5044-.9822.7932-1.5259.8504-3.6248.441-7.3105.6973-10.9507.767-3.6319.0695-7.3166-.0457-10.9454-.3479-11.9484-.9645-23.7909-3.8822-35.1987-8.6987-1.6828-.7114-2.8856-3.5231-2.8539-6.6841l.2671-32.0569c.0232-3.1765,1.2734-5.8029,2.9667-6.2533,11.1335-2.9863,22.5383-4.9553,33.9046-5.839,3.7117-.2876,7.3071-.4495,10.7875-.5161" style="fill: #261f20;"/>
        <path d="M140.1965,107.7479c-.6878,4.4018,1.6574,9.2896,5.2393,10.9199,3.5835,1.6302,7.0463-.6031,7.734-5.0046.688-4.3909-1.6556-9.279-5.2393-10.9203-3.5835-1.6299-7.0463.6031-7.734,5.005" style="fill: #261f20;"/>
      </g>
      <g>
        <path d="M28.9355,134.5228c-3.7396-.0716-7.2345-.3554-10.4591-.7422-2.4222-2.3068-10.7775-12.4528-9.75-28.6127.834-13.1595,7.2822-21.1029,10.0116-23.9149.2473-.2429.5163-.3771.7907-.3874,3.3076-.138,6.7597-.1957,10.3474-.127,3.3373.0639,6.7849.2385,10.3508.5232,10.8768.8739,21.816,2.8174,32.4835,5.762.8124.2324,1.4088,1.5446,1.4197,3.1395l.2431,32.0382c.0191,1.5794-.566,2.9772-1.3739,3.3331-10.9041,4.777-22.2184,7.6879-33.6077,8.6464-3.658.3018-7.1524.405-10.4561.3418" style="fill: #fff;"/>
        <path d="M29.7788,86.3402c3.3116.0634,6.7436.2321,10.2784.4905,12.1285.9365,22.9762,3.0222,32.3193,5.4753.0903,10.1262.1786,20.2523.2768,30.3787-8.4565,3.4916-19.7665,7.0021-33.291,8.0785-3.6261.2826-7.0865.3632-10.3587.3006-3.7081-.071-7.1699-.328-10.3632-.6972-1.0156-1.0614-9.1449-9.918-8.2355-23.7224.7949-11.9434,7.7916-18.9552,9.0764-20.2073,3.2913-.113,6.7275-.165,10.2975-.0966M29.8981,80.1066c-3.6114-.0691-7.0789-.033-10.404.0942-.5492.0338-1.0868.2873-1.5731.7477-2.9733,2.8779-9.9989,11.0924-10.9222,25.1021-1.1467,17.2335,8.0177,27.7828,9.8648,29.7257.4506.4779.9465.7516,1.4703.8059,3.4923.4188,7.0432.6628,10.5501.7299,3.499.067,7.0487-.0411,10.5446-.3261,11.5108-.9099,22.9188-3.6697,33.9075-8.2283,1.621-.6733,2.7789-3.3361,2.7474-6.3302l-.2672-30.3637c-.0233-3.0087-1.2286-5.4968-2.8601-5.9239-10.7269-2.832-21.7149-4.7005-32.6653-5.5411-3.576-.2735-7.0398-.4281-10.3928-.4922" style="fill: #261f20;"/>
        <path d="M51.0805,110.9082c.664,4.1695-1.5938,8.7984-5.0441,10.3415-3.4518,1.543-6.7885-.5735-7.4525-4.7427-.6642-4.1592,1.5921-8.7884,5.0441-10.3418,3.4518-1.5427,6.7885.5735,7.4525,4.743" style="fill: #261f20;"/>
      </g>
      <path d="M54.1871,145.3371c1.6041-.178,3.2139-.2774,4.8434-.1677,4.1864.2819,8.1327.6223,12.3467.3446,1.5389-.1014,3.0795-.1559,4.621-.1739-3.3017-10.662-5.2149-20.8148.1203-27.344,3.7743-4.6273,11.4096-7.5091,19.9124-7.5091,8.1789,0,15.5058,2.7084,19.1067,7.0668,5.5737,6.7538,2.8727,17.8764-.7259,29.2268,6.7352-.4181,13.5076.4805,20.2136-.3562,2.5432-.3173,5.1813-.5384,7.5279-.0306-.0843-3.6488-.215-7.4845-.3525-11.4933-.9619-27.8163-1.4438-41.7757-9.1967-49.7504-7.0918-7.2956-18.1449-11.3142-31.1102-11.3142s-25.7147,4.0664-34.9615,11.1485c-13.8739,10.6405-16.1965,28.4816-15.8222,60.4129,1.1276-.1659,2.2724-.185,3.477-.0602Z" style="fill: #261f20;"/>
      <path d="M49.3296,145.6816c.8571-.223,1.7162-.3552,2.5928-.4011-.3652-31.242,1.8889-48.7664,15.2447-59.0063,9.2217-7.0667,21.9018-10.841,34.0459-10.841,11.6699,0,22.8579,3.4823,30.0268,10.8565,7.3597,7.564,7.832,21.3259,8.7804,48.8424.1335,3.857.2556,7.5295.3363,11.0088,1.0565.0791,2.0769.264,3.0314.6023-.0848-3.7207-.219-7.6294-.3606-11.7137-.9774-28.2587-1.467-42.4389-9.6325-50.8318-7.3732-7.5958-18.806-11.7725-32.1819-11.7725-13.2968,0-26.372,4.1767-35.8772,11.4646-14.4531,11.0772-16.8114,29.3165-16.4148,61.7529.1366.0102.2724.0273.4086.039Z" style="fill: #261f20;"/>
      <path d="M77.2648,145.3353c-3.2455-10.3921-5.1948-20.2531-.259-26.2947,3.4967-4.2871,10.6829-6.9559,18.7443-6.9559,7.7453,0,14.6211,2.503,17.9463,6.5217,5.1668,6.2563,2.3915,17.1841-1.1629,28.3282,1.075-.1103,2.1512-.1807,3.2283-.2215,3.6143-11.5118,6.2015-22.8193.2477-30.0252-4.1849-5.0692-12.1826-7.6035-20.2594-7.6035-8.3062,0-16.6915,2.6842-21.0825,8.0536-5.6844,6.9639-3.84,17.4398-.5403,28.2448,1.0454-.0336,2.0913-.0488,3.1376-.0475Z" style="fill: #261f20;"/>
      <path d="M59.0306,145.1694c1.7728.1194,3.5022.2466,5.2274.3355,1.6584-1.6771,3.0753-3.6138,3.3043-6.1759.6631-7.4219-9.3414-11.9383-7.5236-16.581,1.5711-3.995,9.6864-2.4081,11.1399-6.3718,1.7772-4.8239-8.4875-11.9697-7.1689-13.8963,1.4765-2.1633,14.1257,7.1616,19.9279,3.048,4.8635-3.4504,1.8718-14.1648,4.5955-14.8596,2.9763-.7657,6.6947,12.1041,12.0478,11.8747,4.9675-.2049,7.6526-11.5355,10.1548-10.9509,2.4153.5687-.0482,11.2039,4.4528,13.7937,4.1618,2.3922,11.2362-3.8057,12.5548-2.2346,1.4997,1.8081-8.2271,9.5615-6.2302,14.7411,1.8716,4.8716,13.0442,4.6503,12.9575,6.4031-.0559,1.1137-4.5338.4896-7.6912,3.3319-4.3738,3.9402-4.7613,13.2333-.6863,17.5994.6146.6595,1.2942,1.161,1.9842,1.5649,2.1873-.0097,4.3714-.0954,6.5482-.367.9536-.119,1.9206-.2244,2.8805-.283.0381-2.0516.078-4.2211.122-6.5287.3702-19.7467.7499-33.659-7.1534-45.6127-1.6269-2.4554-2.961-3.861-3.4505-4.3584-10.5731-10.8246-27.6981-9.8141-30.9907-9.617-.7189.0395-1.2472.0872-1.5555.1185-4.129.3475-21.1906,1.8005-31.1468,14.9387-5.5516,7.327-6.3091,14.8751-7.8011,29.6793-.3755,3.7499-.1511,13.3979.0613,20.4466,1.14-.0859,2.2845-.1163,3.4393-.0386Z" style="fill: #fff;"/>
    </g>
    <rect x="10.4891" y="145.1959" width="179.1282" height="2.3616" style="fill: #aad7db;"/>
  </g>
</svg>