<?xml version="1.0" encoding="UTF-8"?>
<svg id="Főpanel" xmlns="http://www.w3.org/2000/svg" viewBox="0 0 196.5173 174.0176">
  <defs>
    <style>
      .cls-1 {
        fill: #c48e16;
      }

      .cls-2 {
        fill: #d6be92;
      }

      .cls-3 {
        fill: #cea85b;
      }

      .cls-4 {
        fill: #59380c;
      }

      .cls-5 {
        fill: #603e07;
      }

      .cls-6 {
        fill: #7c4e12;
      }

      .cls-7 {
        fill: #ddc8a6;
      }

      .cls-8 {
        fill: #87561b;
      }

      .cls-9 {
        fill: #6d460d;
      }

      .cls-10 {
        fill: #e2bf7f;
      }
    </style>
  </defs>
  <rect class="cls-9" x="65.848" y="17.4853" width="19.6132" height="15.374" rx="2.0896" ry="2.0896"/>
  <g>
    <rect class="cls-9" x="65.6421" y="10.416" width="63.0058" height="15.374" rx="7.687" ry="7.687"/>
    <rect class="cls-9" x="65.848" y="17.4853" width="19.6132" height="15.374" rx="2.0896" ry="2.0896"/>
    <rect class="cls-9" x="109.0954" y="17.7599" width="19.6132" height="15.374" rx="2.0896" ry="2.0896"/>
  </g>
  <rect class="cls-5" x="3.3648" y="30.2114" width="188.6765" height="129.729" rx="13.7616" ry="13.7616"/>
  <rect class="cls-9" x="3.403" y="91.3294" width="188.6382" height="9.1502"/>
  <rect class="cls-1" x="87.409" y="79.1083" width="20.0867" height="29.4826" rx="5.8671" ry="5.8671"/>
  <path class="cls-3" d="M90.0427,106.4133c.8843.9738,2.1849,1.05,4.3555,1.0884,4.6767.0829,9.8482-.0721,9.8406-.2108-.0009-.017-.6772-.0495-2.0309-.0661-.7499-.0092-1.7622-.0269-3.1215-.0655-4.4532-.1266-6.9988-.128-7.6833-1.4692-.4298-.8421.1115-1.7285-.653-2.4996-.3509-.3539-.9619-.6686-1.302-.4674-.6174.3652-.4766,2.5106.5946,3.6902Z"/>
  <path class="cls-10" d="M97.8598,80.1065c-4.2656.0692-7.1889,1.2108-7.2135,1.123-.0257-.0913,3.0941-1.4804,7.2135-1.5377,3.9031-.0542,6.9205,1.112,6.9,1.2023-.0196.087-2.8503-.8533-6.9-.7876Z"/>
  <rect class="cls-4" x="107.8777" y="89.4255" width="84.1636" height="1.8442"/>
  <rect class="cls-4" x="3.3624" y="89.5577" width="83.9849" height="1.8316"/>
  <ellipse class="cls-6" cx="150.1489" cy="91.2697" rx="41.8923" ry=".6714"/>
  <ellipse class="cls-6" cx="45.3548" cy="91.3893" rx="41.9924" ry=".6668"/>
  <rect class="cls-6" x="88.5537" y="25.1095" width="23.4586" height=".6805"/>
  <path class="cls-8" d="M70.6488,16.4101c-2.0385,2.4767-2.6481,5.9923-3.1228,5.8682-.2224-.0581-.1916-.8569-.1716-1.3041.0388-.875.1914-4.3092,2.3698-6.6876,3.562-3.889,10.3307-2.5426,10.3961-2.0289.0625.4908-6.0272-.0323-9.4715,4.1523Z"/>
  <ellipse class="cls-8" cx="100.9799" cy="12.3316" rx="18.1299" ry=".7207"/>
  <rect class="cls-3" x="91.6184" y="87.1363" width="11.6679" height="13.4265" rx="3.2415" ry="3.2415"/>
  <rect class="cls-2" x="94.3211" y="89.9276" width="6.2627" height="7.8438" rx="2.2925" ry="2.2925"/>
  <path class="cls-7" d="M97.6363,97.3981c-1.0146,0-1.8373-.1652-1.8373-.3689s.8227-.369,1.8373-.369,1.8373.1652,1.8373.369-.8225.3689-1.8373.3689Z"/>
  <path class="cls-7" d="M95.8773,91.0597c.0115.0565-.0823.0964-.2827.2501-.5103.391-.6143.6771-.7197.6366-.1346-.0517-.1974-.607.1147-.8802.3149-.2757.8619-.1337.8878-.0064Z"/>
</svg>