<?xml version="1.0" encoding="UTF-8"?>
<svg id="SZÁJ" xmlns="http://www.w3.org/2000/svg" viewBox="0 0 445.26 281">
  <defs>
    <style>
      .cls-1 {
        fill: #76c615;
      }

      .cls-2, .cls-3 {
        fill: #261f20;
      }

      .cls-4 {
        fill: #fff;
      }

      .cls-3 {
        stroke: #261f20;
        stroke-miterlimit: 10;
        stroke-width: 1.8245px;
      }
    </style>
  </defs>
  <g>
    <path class="cls-1" d="M375.3027,11.6186H34.8711c-.3255.6957-.5419,1.1592-.5419,1.1592-.4371.9373-.6475,1.8269-.747,2.8623-1.8402,22.0078-1.951,75.6633-2.1821,182.5706-.0312,17.6269-.0476,37.6307,14.4536,50.3246,11.7391,10.2689,27.0868,10.5273,39.4257,10.7535,10.9202.1943,17.7237.5822,20.053,4.3336,2.3457,3.7351.5263,9.9374-.8933,12.9919h172.5269c-1.4282-5.5651-.6483-12.7137,3.3161-16.9368,3.6796-3.9303,8.6437-5.5311,17.1083-5.5311,3.954,0,8.0751.3238,12.287.6634,4.8525.3719,9.8002.7598,14.7003.7598,7.8959,0,19.6471-.841,30.5197-8.1182,24.2373-16.171,24.2693-49.8555,24.3524-111.1592.0156-22.154-1.7926-67.9669-2.9646-98.2718-.4873-12.4927-.8812-22.24-.9824-26.4017Z"/>
    <path class="cls-2" d="M54.6608,241.6298c-11.2822-9.9287-11.4766-26.3691-11.4443-43.9976.2266-107.4961.3252-161.2437,2.1494-183.0547,0,0,1.2949-2.9023,2.1279-4.7671h-19.209c-.293,1.0625-.4873,2.1504-.5791,3.3018-1.8721,22.5439-1.9873,76.6665-2.2139,184.4883-.0361,18.6694-.083,41.8975,17.4453,57.3281,14.1641,12.4844,32.0703,12.8101,45.125,13.0386,3.9863.0806,9.7158.1792,12.5498.8301.0205.9097-.0635,2.7095-1.0488,4.6641-.7979,1.5835-1.8516,2.6016-2.5186,3.1528h0c6.5996-.022,13.1982-.0444,19.7979-.0664,1.4238-4.5137,2.6807-11.7349-1.0293-17.7451-10.0752-16.2935-42.582-.7969-61.1523-17.1729Z"/>
  </g>
  <path class="cls-2" d="M387.1052,9.8104h-17.7289c.3384,14.3744,3.9592,94.0897,3.9289,125.4801-.0476,59.4446-.0831,90.8757-20.414,104.5494-7.8924,5.306-16.6833,6.6572-25.5686,6.6572-9.2003,0-18.4751-1.4325-27.0072-1.4325-9.0809,0-17.3031,1.6282-23.6019,8.3988-5.5449,5.9604-7.2527,15.1062-5.8592,23.0848h18.6343c-.1619-.1593-.2744-.2986-.3367-.4099-1.6126-2.8642-1.3027-8.6109.5531-10.6125.8777-.9608,2.5552-2.7353,10.6104-2.7353,3.7272,0,7.6336.3259,11.5919.6349,4.9312.3912,10.0261.7976,15.4152.7976,9.0324,0,22.5598-1.0093,35.4674-9.6686,28.1593-18.9299,28.1757-54.5618,28.2389-119.2479"/>
  <g>
    <path class="cls-4" d="M357.6873,151.8692c-5.5655,0-11.4355-.2682-17.5772-.9018-19.1513-1.9383-38.0683-7.0997-56.2592-15.3508-1.4429-.6524-2.3424-2.0917-2.3049-3.6846l1.4007-51.79c.0562-1.7662,1.2883-3.7993,2.9936-4.2221,17.9239-4.5477,36.2881-7.4066,54.554-8.4818,5.9684-.3642,11.7634-.5364,17.3289-.5364,6.0059,0,11.8009.1909,17.3242.5364.9979.0586,1.9395.4802,2.6094,1.1899,3.3964,3.5499,14.5649,16.7714,15.5065,37.6678,1.1337,24.7917-12.7238,40.584-15.5065,43.4816-.6324.6723-1.4944,1.0939-2.4361,1.1899-5.4296.5563-11.3418.9018-17.6334.9018"/>
    <path class="cls-2" d="M358.9901,69.6459c6.2483,0,12.2697.1921,18.0146.5177,2.221,2.1878,14.2093,14.5063,15.2014,35.1345,1.1302,23.8138-13.4048,38.8003-15.2014,40.604-5.5821.5364-11.6675.8632-18.1577.8632-5.7203,0-11.786-.2495-18.1133-.8632-23.6312-2.3026-43.2992-8.7125-57.9774-15.0252.5034-17.4613.992-34.9038,1.4955-52.3475,16.4352-3.9329,35.4813-7.1571,56.7238-8.3658,6.2089-.3455,12.2104-.5177,18.0146-.5177M358.9897,61.8166c-5.9619,0-12.1309.1533-18.498.5176-19.5049,1.1133-39.1182,4.0107-58.2637,8.5967-3.5977.8643-6.1445,3.876-6.2236,7.3877l-.0391,1.3818-1.4561,50.9658c-.1035,3.1465,1.8164,6.0439,4.8516,7.3486,19.5293,8.4043,39.8838,13.6826,60.5244,15.6777,6.2871.5938,12.6543.9209,18.9619.9209s12.6992-.3271,18.9814-.9209c1.9844-.1924,3.8057-1.0361,5.1582-2.3984,3.1338-3.1279,18.7197-20.0527,17.4668-46.3604-1.0713-22.2969-13.667-36.4014-17.4863-40.2012-1.4365-1.4189-3.3965-2.2822-5.459-2.3984-5.9229-.3262-12.0869-.5176-18.5186-.5176"/>
    <path class="cls-2" d="M276.2403,123.8265c.1389,13.0029,21.3709,23.8483,47.4274,24.2272,26.0387.3849,47.0241-9.8512,46.8855-22.8529-.1402-13.0233-21.3541-23.8737-47.4051-24.2345-26.0384-.3838-47.0467,9.8573-46.9078,22.8602"/>
  </g>
  <g>
    <path class="cls-4" d="M44.3801,151.8694c5.5655,0,11.4355-.2682,17.5772-.9018,19.1513-1.9383,38.0683-7.0997,56.2592-15.3508,1.4429-.6524,2.3424-2.0917,2.3049-3.6846l-1.4007-51.79c-.0562-1.7662-1.2883-3.7993-2.9936-4.2221-17.9239-4.5477-36.2881-7.4066-54.554-8.4818-5.9684-.3642-11.7634-.5364-17.3289-.5364-6.0059,0-11.8009.1909-17.3242.5364-.9979.0586-1.9395.4802-2.6094,1.1899-3.3964,3.5499-14.5649,16.7714-15.5065,37.6678-1.1337,24.7917,12.7238,40.584,15.5065,43.4816.6324.6723,1.4944,1.0939,2.4361,1.1899,5.4296.5563,11.3418.9018,17.6334.9018"/>
    <path class="cls-2" d="M43.0773,69.6461c-6.2483,0-12.2697.1921-18.0146.5177-2.221,2.1878-14.2093,14.5063-15.2014,35.1345-1.1302,23.8138,13.4048,38.8003,15.2014,40.604,5.5821.5364,11.6675.8632,18.1577.8632,5.7203,0,11.786-.2495,18.1133-.8632,23.6312-2.3026,43.2992-8.7125,57.9774-15.0252-.5034-17.4613-.992-34.9038-1.4955-52.3475-16.4352-3.9329-35.4813-7.1571-56.7238-8.3658-6.2089-.3455-12.2104-.5177-18.0146-.5177M43.0773,61.8167c5.9621,0,12.1315.1534,18.4983.5177,19.5051,1.1138,39.1188,4.0113,58.2636,8.5965,3.598.8643,6.1447,3.8766,6.2237,7.3879l.0395,1.382,1.456,50.9655c.1036,3.147-1.8163,6.0445-4.8516,7.3492-19.5298,8.4045-39.8838,13.6818-60.5241,15.6775-6.2878.5938-12.6546.9206-18.9622.9206s-12.6991-.3268-18.982-.9206c-1.9841-.1921-3.8053-1.0365-5.1576-2.3986-3.134-3.1282-18.7204-20.0531-17.4668-46.3604,1.071-22.2971,13.6664-36.4017,17.4865-40.2011,1.4362-1.4195,3.3956-2.2826,5.4587-2.3986,5.9226-.3256,12.0871-.5177,18.518-.5177"/>
    <path class="cls-2" d="M125.8272,123.8267c-.1389,13.0029-21.3709,23.8483-47.4274,24.2272-26.0387.3849-47.0241-9.8512-46.8855-22.8529.1402-13.0233,21.3541-23.8737,47.4051-24.2345,26.0384-.3838,47.0467,9.8573,46.9078,22.8602"/>
  </g>
  <g>
    <path class="cls-3" d="M280.8667,138.6483c.0593,1.2459.3251,6.6036.5096,13.8106,1.5061,58.7782-6.3602,77.7591-8.762,83.1343-1.1485,2.5709-3.074,6.5645-5.9668,11.1762,0,0-3.3065,4.6127-7.5835,8.6287-28.9643,27.1946-99.9758,16.4548-117.8299,4.2065-7.0365-4.8275-12.2026-11.8353-12.2026-11.8353-4.2225-5.7277-5.8335-10.3336-6.2041-11.4428-.7876-2.3591-1.5143-5.304-2.1808-12.0267-.9217-9.2995-.7998-16.4743-.7835-17.5035.1317-8.1747-.3105-2.236-.964-31.7155-.3601-16.2488-.5299-31.7584-.5226-36.4326.039-25.7065.1089-71.298,23.9688-99.0765,19.7422-22.9852,46.9476-23.5007,57.2759-23.696,8.6304-.1631,47.545-.9003,66.8711,29.9872,10.7656,17.2057,11.9686,42.3986,14.3745,92.7854Z"/>
    <path class="cls-4" d="M238.1187,239.11c-2.7457-5.2786-2.9261-13.6857.5633-17.3199,5.3385-5.5608,16.4195,2.1042,17.9549-1.2801.8713-1.9206-2.566-4.8099-6.0229-11.6381-2.0653-4.1118-7.5883-14.7402-5.1012-21.9756,3.5365-10.2799,19.7609-9.7565,19.7138-14.2559-.0317-3.1236-7.8639-2.444-13.0593-9.1355-7.2023-9.2712-6.5081-28.9971,1.2103-37.3563,5.5856-6.0334,13.4966-4.6937,13.595-7.0606.1422-3.7436-19.6024-3.2593-22.8983-13.6163-3.5194-10.978,13.6624-27.426,10.9981-31.2663-2.3254-3.3365-14.8215,9.8151-22.1693,4.7328-7.9582-5.4895-3.5983-28.0665-7.8793-29.2695-4.407-1.2401-9.153,22.8104-17.9199,23.2566-9.4643.4658-16.035-26.845-21.2971-25.2144-4.8134,1.4734.469,24.2253-8.1207,31.5377-10.2365,8.7283-32.5829-11.0747-35.2001-6.4786-2.3417,4.1118,15.7912,19.2601,12.6765,29.5019-2.5701,8.4178-16.9218,5.0433-19.6967,13.5187-3.1968,9.8532,14.4663,19.4544,13.3032,35.1837-1.1152,14.8388-17.8086,19.804-16.2285,30.6267,1.3403,9.2136,13.9819,9.1355,15.4205,18.601,1.8727,12.2972-15.8221,25.7768-13.773,29.2099,1.6793,2.8131,13.3357-6.7881,19.0196-1.2606,2.2783,2.2302,2.6644,5.9738,2.8424,7.5644.5316,5.0237-1.1477,10.9009-4.5533,13.3634-5.7156,4.1518-14.1591-2.8111-14.5492-3.1422-9.2318-7.8163-8.4906-23.6433-8.9124-65.9071-.5161-48.8977-1.6947-46.0661-.5324-59.9724,2.6335-31.403,3.9892-47.4428,13.7892-62.9788,17.5842-27.8918,47.7271-30.9753,55.0236-31.7125.5519-.0586,1.4704-.1553,2.7473-.2529,5.8107-.4072,36.0674-2.5592,54.7481,20.425,2.948,3.6274,4.7151,6.7774,6.0903,9.2517,10.7193,19.2865,12.101,39.2672,13.6551,77.2298,1.3688,33.432,1.8898,56.8176-2.9172,85.5481-1.8922,11.311-4.5322,22.9842-12.3595,27.1585-6.1164,3.2623-16.0488,2.2907-20.1608-5.6164Z"/>
  </g>
</svg>