<?xml version="1.0" encoding="UTF-8"?>
<svg id="SZÁJ" xmlns="http://www.w3.org/2000/svg" viewBox="0 0 445.26 281">
  <defs>
    <style>
      .cls-1 {
        fill: #76c615;
      }

      .cls-2 {
        fill: #261f20;
      }

      .cls-3 {
        fill: #fff;
      }
    </style>
  </defs>
  <g>
    <path class="cls-1" d="M407.4435,9.6724H67.012c-.3255.6957-.5419,1.1592-.5419,1.1592-.4371.9373-.6475,1.8269-.747,2.8623-1.8402,22.0078-1.951,75.6633-2.1821,182.5706-.0312,17.6269-.0476,37.6307,14.4536,50.3246,11.7391,10.2689,27.0868,10.5273,39.4257,10.7535,10.9202.1943,17.7237.5822,20.053,4.3336,2.3457,3.7351.5263,9.9374-.8933,12.9919h172.5269c-1.4282-5.5651-.6483-12.7137,3.3161-16.9368,3.6796-3.9303,8.6437-5.5311,17.1083-5.5311,3.954,0,8.0751.3238,12.287.6634,4.8525.3719,9.8002.7598,14.7003.7598,7.8959,0,19.6471-.841,30.5197-8.1182,24.2373-16.171,24.2693-49.8555,24.3524-111.1592.0156-22.154-1.7926-67.9669-2.9646-98.2718-.4873-12.4927-.8812-22.24-.9824-26.4017Z"/>
    <path class="cls-2" d="M86.8017,239.6837c-11.2822-9.9287-11.4766-26.3691-11.4443-43.9976.2266-107.4961.3252-161.2437,2.1494-183.0547,0,0,1.2949-2.9023,2.1279-4.7671h-19.209c-.293,1.0625-.4873,2.1504-.5791,3.3018-1.8721,22.5439-1.9873,76.6665-2.2139,184.4883-.0361,18.6694-.083,41.8975,17.4453,57.3281,14.1641,12.4844,32.0703,12.8101,45.125,13.0386,3.9863.0806,9.7158.1792,12.5498.8301.0205.9097-.0635,2.7095-1.0488,4.6641-.7979,1.5835-1.8516,2.6016-2.5186,3.1528h0c6.5996-.022,13.1982-.0444,19.7979-.0664,1.4238-4.5137,2.6807-11.7349-1.0293-17.7451-10.0752-16.2935-42.582-.7969-61.1523-17.1729Z"/>
  </g>
  <path class="cls-2" d="M419.2461,7.8642h-17.7289c.3384,14.3744,3.9592,94.0897,3.9289,125.4801-.0476,59.4446-.0831,90.8757-20.414,104.5494-7.8924,5.306-16.6833,6.6572-25.5686,6.6572-9.2003,0-18.4751-1.4325-27.0072-1.4325-9.0809,0-17.3031,1.6282-23.6019,8.3988-5.5449,5.9604-7.2527,15.1062-5.8592,23.0848h18.6343c-.1619-.1593-.2744-.2986-.3367-.4099-1.6126-2.8642-1.3027-8.6109.5531-10.6125.8777-.9608,2.5552-2.7353,10.6104-2.7353,3.7272,0,7.6336.3259,11.5919.6349,4.9312.3912,10.0261.7976,15.4152.7976,9.0324,0,22.5598-1.0093,35.4674-9.6686,28.1593-18.9299,28.1757-54.5618,28.2389-119.2479"/>
  <g>
    <path class="cls-3" d="M394.8991,144.8379c-5.5655,0-11.4355-.2682-17.5772-.9018-19.1513-1.9383-38.0683-7.0997-56.2592-15.3508-1.4429-.6524-2.3424-2.0917-2.3049-3.6846l1.4007-51.79c.0562-1.7662,1.2883-3.7993,2.9936-4.2221,17.9239-4.5477,36.2881-7.4066,54.554-8.4818,5.9684-.3642,11.7634-.5364,17.3289-.5364,6.0059,0,11.8009.1909,17.3242.5364.9979.0586,1.9395.4802,2.6094,1.1899,3.3964,3.5499,14.5649,16.7714,15.5065,37.6678,1.1337,24.7917-12.7238,40.584-15.5065,43.4816-.6324.6723-1.4944,1.0939-2.4361,1.1899-5.4296.5563-11.3418.9018-17.6334.9018"/>
    <path class="cls-2" d="M396.2019,62.6146c6.2483,0,12.2697.1921,18.0146.5177,2.221,2.1878,14.2093,14.5063,15.2014,35.1345,1.1302,23.8138-13.4048,38.8003-15.2014,40.604-5.5821.5364-11.6675.8632-18.1577.8632-5.7203,0-11.786-.2495-18.1133-.8632-23.6312-2.3026-43.2992-8.7125-57.9774-15.0252.5034-17.4613.992-34.9038,1.4955-52.3475,16.4352-3.9329,35.4813-7.1571,56.7238-8.3658,6.2089-.3455,12.2104-.5177,18.0146-.5177M396.2019,54.7852c-5.9621,0-12.1315.1534-18.4983.5177-19.5051,1.1138-39.1188,4.0113-58.2636,8.5965-3.598.8643-6.1447,3.8766-6.2237,7.3879l-.0395,1.382-1.456,50.9655c-.1036,3.147,1.8163,6.0445,4.8516,7.3492,19.5298,8.4045,39.8838,13.6818,60.5241,15.6775,6.2878.5938,12.6546.9206,18.9622.9206s12.6991-.3268,18.982-.9206c1.9841-.1921,3.8053-1.0365,5.1576-2.3986,3.134-3.1282,18.7204-20.0531,17.4668-46.3604-1.071-22.2971-13.6664-36.4017-17.4865-40.2011-1.4362-1.4195-3.3956-2.2826-5.4587-2.3986-5.9226-.3256-12.0871-.5177-18.518-.5177"/>
    <path class="cls-2" d="M313.4521,116.7952c.1389,13.0029,21.3709,23.8483,47.4274,24.2272,26.0387.3849,47.0241-9.8512,46.8855-22.8529-.1402-13.0233-21.3541-23.8737-47.4051-24.2345-26.0384-.3838-47.0467,9.8573-46.9078,22.8602"/>
  </g>
  <g>
    <path class="cls-3" d="M69.3253,144.8379c5.5655,0,11.4355-.2682,17.5772-.9018,19.1513-1.9383,38.0683-7.0997,56.2592-15.3508,1.4429-.6524,2.3424-2.0917,2.3049-3.6846l-1.4007-51.79c-.0562-1.7662-1.2883-3.7993-2.9936-4.2221-17.9239-4.5477-36.2881-7.4066-54.554-8.4818-5.9684-.3642-11.7634-.5364-17.3289-.5364-6.0059,0-11.8009.1909-17.3242.5364-.9979.0586-1.9395.4802-2.6094,1.1899-3.3964,3.5499-14.5649,16.7714-15.5065,37.6678-1.1337,24.7917,12.7238,40.584,15.5065,43.4816.6324.6723,1.4944,1.0939,2.4361,1.1899,5.4296.5563,11.3418.9018,17.6334.9018"/>
    <path class="cls-2" d="M68.0225,62.6146c-6.2483,0-12.2697.1921-18.0146.5177-2.221,2.1878-14.2093,14.5063-15.2014,35.1345-1.1302,23.8138,13.4048,38.8003,15.2014,40.604,5.5821.5364,11.6675.8632,18.1577.8632,5.7203,0,11.786-.2495,18.1133-.8632,23.6312-2.3026,43.2992-8.7125,57.9774-15.0252-.5034-17.4613-.992-34.9038-1.4955-52.3475-16.4352-3.9329-35.4813-7.1571-56.7238-8.3658-6.2089-.3455-12.2104-.5177-18.0146-.5177M68.0225,54.7852c5.9621,0,12.1315.1534,18.4983.5177,19.5051,1.1138,39.1188,4.0113,58.2636,8.5965,3.598.8643,6.1447,3.8766,6.2237,7.3879l.0395,1.382,1.456,50.9655c.1036,3.147-1.8163,6.0445-4.8516,7.3492-19.5298,8.4045-39.8838,13.6818-60.5241,15.6775-6.2878.5938-12.6546.9206-18.9622.9206s-12.6991-.3268-18.982-.9206c-1.9841-.1921-3.8053-1.0365-5.1576-2.3986-3.134-3.1282-18.7204-20.0531-17.4668-46.3604,1.071-22.2971,13.6664-36.4017,17.4865-40.2011,1.4362-1.4195,3.3956-2.2826,5.4587-2.3986,5.9226-.3256,12.0871-.5177,18.518-.5177"/>
    <path class="cls-2" d="M150.7724,116.7952c-.1389,13.0029-21.3709,23.8483-47.4274,24.2272-26.0387.3849-47.0241-9.8512-46.8855-22.8529.1402-13.0233,21.3541-23.8737,47.4051-24.2345,26.0384-.3838,47.0467,9.8573,46.9078,22.8602"/>
  </g>
  <g>
    <path class="cls-2" d="M229.8765,255.7205c-8.2881-.124-42.1963-.6289-65.5928-23.3594-1.5537-1.5098-3.6934-3.6055-6.1445-6.8154-9.5957-12.5684-11.3096-25.6445-13.4365-57.2061-.9971-14.7959-1.6777-27.6006-2.1494-37.7949-.332-7.6709-.5879-18.4932-.6855-31.5137-.166-22.1318,1.4932-44.2441,1.7412-66.375.0146-1.3525.0342-3.3799,1.0352-5.7412,6.2686-14.7949,38.4023-12.9033,39.9053-12.7998,8.1572.5586,19.4727,1.334,28.4541,8.3135,18.8037,14.6133,19.3721,48.6455,14.8203,96.7559-2.7988,29.584-5.4922,57.5303,6.7168,62.9619.2529.1035,2.4492,1.0361,5.1621,1.0361,1.3262,0,2.5713-.2275,3.6494-.6836,11.0693-4.582,8.4775-32.0713,5.7451-61.1387-4.4727-47.5635-4.3428-85.1211,15.3818-99.1592,8.1709-5.8154,18.4795-6.4727,31.8818-7.333,4.4355-.2852,29.3525-1.8848,33.1885,7.4961.3535.8643.6592,3.2119,1.2705,7.9053.7061,5.418.9404,9.6777.9883,10.5889.2793,5.2852.0801,7.7061.3711,10.2803.0479.4209.2695,2.2129.2695,4.6064,0,.2812-.001.4902-.002.5459-.0332,3.3994.5137,39.5293.585,50.9668.0771,12.248.1299,20.7949-.6602,32.6641-.8389,12.6025-1.9316,25.2568-5.6738,41.4141-4.6455,20.0596-9.7646,29.6475-14,35.999-4.9707,7.4551-10.1514,12.7031-13.4883,15.7842-9.2793,6.7354-34.5293,23.1211-69.333,22.6016Z"/>
    <path class="cls-3" d="M194.5884,34.869c3.5186,4.8418,3.1025,13.375-1.1807,16.8506-6.4189,5.2422-19.5029-2.6533-21.4004.6143-1.083,1.8584,2.9082,4.7861,6.8369,11.5674,2.3359,4.0645,8.5869,14.6406,5.4297,21.6094-4.5146,9.8965-23.8018,8.8047-23.877,13.2002-.0605,3.0469,9.2793,2.6514,15.2773,9.3643,8.2861,9.3027,6.8887,28.4912-2.5469,36.3701-6.8252,5.6885-16.2002,4.1143-16.3838,6.4102-.2861,3.6221,23.2139,3.8701,26.8428,14.0664,3.8828,10.8457-17.0645,26.2607-14.0088,30.1162,2.6729,3.3262,17.9355-9.0654,26.5195-3.8398,9.3076,5.6592,3.4424,27.4873,8.5039,28.8242,5.21,1.3613,11.5752-21.9053,22.0283-22.0225,11.251-.1377,18.2686,26.7188,24.585,25.3311,5.7422-1.2803.1426-23.6396,10.5566-30.4561,12.4561-8.1523,38.4648,11.9473,41.6973,7.5732,2.9072-3.9258-18.2119-19.3535-14.2021-29.2236,3.29-8.1035,20.2734-4.2949,23.8174-12.4756,4.1084-9.4941-16.6299-19.4795-14.7949-34.7773,1.7549-14.4297,21.7695-18.6689,20.1982-29.2676-1.3193-9.0352-16.3516-9.4131-17.7881-18.6797-1.8711-12.0566,19.5869-24.5762,17.2549-27.9971-1.9258-2.8096-16.0898,6.1484-22.6787.54-2.6406-2.2275-3.0059-5.9072-3.1553-7.4453-.502-4.9287,1.6738-10.5957,5.7979-12.8926,6.9258-3.8389,16.7656,3.2656,17.2197,3.5879,10.7441,7.958,9.4102,23.3525,8.6738,64.583-.4902,27.8057-.3789,52.8408-1.126,58.4746-4.0742,30.5234-6.127,46.1074-18.2549,60.9053-21.7217,26.5723-57.6895,28.5029-66.3818,28.957-7.1689.3906-50.9385,2.7168-75.4395-25.9932-6.1055-7.1494-11.0869-16.3447-11.5322-99.7686-.3232-62.5791,2.3584-79.5762,14.542-86.2012,8.6309-4.707,23.7051-5.1377,28.9697,2.0947"/>
  </g>
</svg>