<?xml version="1.0" encoding="UTF-8"?>
<svg id="SZÁJ" xmlns="http://www.w3.org/2000/svg" viewBox="0 0 445.26 281">
  <defs>
    <style>
      .cls-1 {
        fill: #76c615;
      }

      .cls-2 {
        fill: #261f20;
      }

      .cls-3 {
        fill: #fff;
      }
    </style>
  </defs>
  <g>
    <path class="cls-1" d="M391.6517,8.9063H51.2201c-.3255.6957-.5419,1.1592-.5419,1.1592-.4371.9373-.6475,1.8269-.747,2.8623-1.8402,22.0078-1.951,75.6633-2.1821,182.5706-.0312,17.6269-.0476,37.6307,14.4536,50.3246,11.7391,10.2689,27.0868,10.5273,39.4257,10.7535,10.9202.1943,17.7237.5822,20.053,4.3336,2.3457,3.7351.5263,9.9374-.8933,12.9919h172.5269c-1.4282-5.5651-.6483-12.7137,3.3161-16.9368,3.6796-3.9303,8.6437-5.5311,17.1083-5.5311,3.954,0,8.0751.3238,12.287.6634,4.8525.3719,9.8002.7598,14.7003.7598,7.8959,0,19.6471-.841,30.5197-8.1182,24.2373-16.171,24.2693-49.8555,24.3524-111.1592.0156-22.154-1.7926-67.9669-2.9646-98.2718-.4873-12.4927-.8812-22.24-.9824-26.4017Z"/>
    <path class="cls-2" d="M71.0099,238.9175c-11.2822-9.9287-11.4766-26.3691-11.4443-43.9976.2266-107.4961.3252-161.2437,2.1494-183.0547,0,0,1.2949-2.9023,2.1279-4.7671h-19.209c-.293,1.0625-.4873,2.1504-.5791,3.3018-1.8721,22.5439-1.9873,76.6665-2.2139,184.4883-.0361,18.6694-.083,41.8975,17.4453,57.3281,14.1641,12.4844,32.0703,12.8101,45.125,13.0386,3.9863.0806,9.7158.1792,12.5498.8301.0205.9097-.0635,2.7095-1.0488,4.6641-.7979,1.5835-1.8516,2.6016-2.5186,3.1528h0c6.5996-.022,13.1982-.0444,19.7979-.0664,1.4238-4.5137,2.6807-11.7349-1.0293-17.7451-10.0752-16.2935-42.582-.7969-61.1523-17.1729Z"/>
  </g>
  <path class="cls-2" d="M403.4543,7.0981h-17.7289c.3384,14.3744,3.9592,94.0897,3.9289,125.4801-.0476,59.4446-.0831,90.8757-20.414,104.5494-7.8924,5.306-16.6833,6.6572-25.5686,6.6572-9.2003,0-18.4751-1.4325-27.0072-1.4325-9.0809,0-17.3031,1.6282-23.6019,8.3988-5.5449,5.9604-7.2527,15.1062-5.8592,23.0848h18.6343c-.1619-.1593-.2744-.2986-.3367-.4099-1.6126-2.8642-1.3027-8.6109.5531-10.6125.8777-.9608,2.5552-2.7353,10.6104-2.7353,3.7272,0,7.6336.3259,11.5919.6349,4.9312.3912,10.0261.7976,15.4152.7976,9.0324,0,22.5598-1.0093,35.4674-9.6686,28.1593-18.9299,28.1757-54.5618,28.2389-119.2479"/>
  <g>
    <path class="cls-3" d="M379.1073,144.0718c-5.5655,0-11.4355-.2682-17.5772-.9018-19.1513-1.9383-38.0683-7.0997-56.2592-15.3508-1.4429-.6524-2.3424-2.0917-2.3049-3.6846l1.4007-51.79c.0562-1.7662,1.2883-3.7993,2.9936-4.2221,17.9239-4.5477,36.2881-7.4066,54.554-8.4818,5.9684-.3642,11.7634-.5364,17.3289-.5364,6.0059,0,11.8009.1909,17.3242.5364.9979.0586,1.9395.4802,2.6094,1.1899,3.3964,3.5499,14.5649,16.7714,15.5065,37.6678,1.1337,24.7917-12.7238,40.584-15.5065,43.4816-.6324.6723-1.4944,1.0939-2.4361,1.1899-5.4296.5563-11.3418.9018-17.6334.9018"/>
    <path class="cls-2" d="M380.4101,61.8485c6.2483,0,12.2697.1921,18.0146.5177,2.221,2.1878,14.2093,14.5063,15.2014,35.1345,1.1302,23.8138-13.4048,38.8003-15.2014,40.604-5.5821.5364-11.6675.8632-18.1577.8632-5.7203,0-11.786-.2495-18.1133-.8632-23.6312-2.3026-43.2992-8.7125-57.9774-15.0252.5034-17.4613.992-34.9038,1.4955-52.3475,16.4352-3.9329,35.4813-7.1571,56.7238-8.3658,6.2089-.3455,12.2104-.5177,18.0146-.5177M380.4101,54.0191c-5.9621,0-12.1315.1534-18.4983.5177-19.5051,1.1138-39.1188,4.0113-58.2636,8.5965-3.598.8643-6.1447,3.8766-6.2237,7.3879l-.0395,1.382-1.456,50.9655c-.1036,3.147,1.8163,6.0445,4.8516,7.3492,19.5298,8.4045,39.8838,13.6818,60.5241,15.6775,6.2878.5938,12.6546.9206,18.9622.9206s12.6991-.3268,18.982-.9206c1.9841-.1921,3.8053-1.0365,5.1576-2.3986,3.134-3.1282,18.7204-20.0531,17.4668-46.3604-1.071-22.2971-13.6664-36.4017-17.4865-40.2011-1.4362-1.4195-3.3956-2.2826-5.4587-2.3986-5.9226-.3256-12.0871-.5177-18.518-.5177"/>
    <path class="cls-2" d="M297.6602,116.0291c.1389,13.0029,21.3709,23.8483,47.4274,24.2272,26.0387.3849,47.0241-9.8512,46.8855-22.8529-.1402-13.0233-21.3541-23.8737-47.4051-24.2345-26.0384-.3838-47.0467,9.8573-46.9078,22.8602"/>
  </g>
  <g>
    <path class="cls-3" d="M53.5335,144.0718c5.5655,0,11.4355-.2682,17.5772-.9018,19.1513-1.9383,38.0683-7.0997,56.2592-15.3508,1.4429-.6524,2.3424-2.0917,2.3049-3.6846l-1.4007-51.79c-.0562-1.7662-1.2883-3.7993-2.9936-4.2221-17.9239-4.5477-36.2881-7.4066-54.554-8.4818-5.9684-.3642-11.7634-.5364-17.3289-.5364-6.0059,0-11.8009.1909-17.3242.5364-.9979.0586-1.9395.4802-2.6094,1.1899-3.3964,3.5499-14.5649,16.7714-15.5065,37.6678-1.1337,24.7917,12.7238,40.584,15.5065,43.4816.6324.6723,1.4944,1.0939,2.4361,1.1899,5.4296.5563,11.3418.9018,17.6334.9018"/>
    <path class="cls-2" d="M52.2307,61.8485c-6.2483,0-12.2697.1921-18.0146.5177-2.221,2.1878-14.2093,14.5063-15.2014,35.1345-1.1302,23.8138,13.4048,38.8003,15.2014,40.604,5.5821.5364,11.6675.8632,18.1577.8632,5.7203,0,11.786-.2495,18.1133-.8632,23.6312-2.3026,43.2992-8.7125,57.9774-15.0252-.5034-17.4613-.992-34.9038-1.4955-52.3475-16.4352-3.9329-35.4813-7.1571-56.7238-8.3658-6.2089-.3455-12.2104-.5177-18.0146-.5177M52.2307,54.0191c5.9621,0,12.1315.1534,18.4983.5177,19.5051,1.1138,39.1188,4.0113,58.2636,8.5965,3.598.8643,6.1447,3.8766,6.2237,7.3879l.0395,1.382,1.456,50.9655c.1036,3.147-1.8163,6.0445-4.8516,7.3492-19.5298,8.4045-39.8838,13.6818-60.5241,15.6775-6.2878.5938-12.6546.9206-18.9622.9206s-12.6991-.3268-18.982-.9206c-1.9841-.1921-3.8053-1.0365-5.1576-2.3986-3.134-3.1282-18.7204-20.0531-17.4668-46.3604,1.071-22.2971,13.6664-36.4017,17.4865-40.2011,1.4362-1.4195,3.3956-2.2826,5.4587-2.3986,5.9226-.3256,12.0871-.5177,18.518-.5177"/>
    <path class="cls-2" d="M134.9805,116.0291c-.1389,13.0029-21.3709,23.8483-47.4274,24.2272-26.0387.3849-47.0241-9.8512-46.8855-22.8529.1402-13.0233,21.3541-23.8737,47.4051-24.2345,26.0384-.3838,47.0467,9.8573,46.9078,22.8602"/>
  </g>
  <g>
    <path class="cls-2" d="M280.7668,12.4735c3.167-.0264,16.5771-.1396,26.0674,8.7725,9.3154,8.748,10.1475,21.7715,10.4375,28.5918,4.4658,105.0371,6.6982,157.5547-32.3438,186.3994-29.5635,21.8408-65.5449,19.7568-75.6699,18.7842-10.5029-1.0088-42.373-4.0693-64.377-28.0176-16.9609-18.459-18.3623-44.9629-20.4727-97.2188-1.377-34.0928-3.2031-97.1377,20.8955-110.2061,5.4023-2.9297,12.2227-4.5469,19.1777-4.5469,9.6318,0,18.1699,3.0488,24.0117,8.6055,15.8105,15.0029,6.9561,42.1123-2.4414,70.8213-8.9912,27.4971-18.3018,55.9365-4.7812,72.3203,7.6797,9.2949,23.3047,15.0713,40.7471,15.0713,18.1338,0,34.417-6.1465,42.4658-16.0146,7.1387-8.7529,5.8682-19.5029-5.5039-75.8223-8.7881-43.5225-12.8018-59.4492-3.334-69.1377,8.0703-8.2578,22.416-8.3799,25.1211-8.4023Z"/>
    <path class="cls-3" d="M176.1029,34.4888c3.6729,4.9033,3.5684,13.7041-.6826,17.3945-6.4346,5.5859-20.1094-2.1494-21.9668,1.2793-1.0586,1.9531,3.1348,4.8486,7.3662,11.7197,2.5234,4.1084,9.2783,14.8008,6.2422,22.0576-4.3145,10.3389-24.1699,9.8174-24.1045,14.3301.0547,3.1484,9.6084,2.458,15.9678,9.1934,8.8037,9.3115,7.9668,29.1299-1.4834,37.5332-6.8213,6.0615-16.4951,4.7305-16.6162,7.1055-.1865,3.7383,23.9502,3.2666,27.9941,13.6553,4.3145,11.0459-16.7002,27.5811-13.459,31.4375,2.8477,3.3506,18.1318-9.8672,27.123-4.7656,9.7236,5.5225,4.4014,28.2041,9.6201,29.417,5.4053,1.2461,11.207-22.918,21.9385-23.3545,11.5645-.4893,19.5977,26.957,26.0283,25.3242,5.8838-1.4824-.5801-24.3311,9.9277-31.6904,12.5352-8.7725,39.8623,11.1143,43.0527,6.501,2.8477-4.1094-19.3281-19.3486-15.4883-29.6357,3.1396-8.4531,20.6729-5.0684,24.0664-13.5889,3.9277-9.9014-17.6865-19.5332-16.2529-35.3604,1.3477-14.9014,21.7842-19.8857,19.8389-30.7637-1.6572-9.2607-17.0947-9.1768-18.8701-18.6904-2.2822-12.3428,19.3623-25.8975,16.8545-29.3496-2.0439-2.8281-16.3037,6.8203-23.2666,1.2637-2.7607-2.2402-3.2568-5.9951-3.4619-7.5947-.665-5.0508,1.4004-10.9609,5.5605-13.4365,6.9756-4.1768,17.3164,2.8291,17.791,3.166,11.2939,7.8467,10.374,23.7412,10.9023,66.2246.6123,49.1338,2.0615,46.2891.6455,60.2471-3.2236,31.5723-4.8604,47.6699-16.8535,63.2949-19.04,24.8047-51.4668,29.6553-61.9814,30.999-4.5684.584-24.2744,2.9424-47.3779-4.5244-8.9766-2.9014-21.0869-6.9707-31.585-18.0039-1.4834-1.5586-6.1113-6.5957-10.2842-14.7471-14.0088-27.3633-12.9727-71.6191-11.457-115.3232,1.4941-43.0742,4.085-56.3291,14.4541-62.5771,8.6406-5.2061,24.084-6.3906,29.8174,1.2627Z"/>
  </g>
</svg>