<?xml version="1.0" encoding="UTF-8"?>
<svg id="SZÁJ" xmlns="http://www.w3.org/2000/svg" viewBox="0 0 445.26 281">
  <defs>
    <style>
      .cls-1 {
        fill: #76c615;
      }

      .cls-2, .cls-3 {
        fill: #261f20;
      }

      .cls-4 {
        fill: #fff;
      }

      .cls-3 {
        stroke: #261f20;
        stroke-miterlimit: 10;
        stroke-width: 2px;
      }
    </style>
  </defs>
  <g>
    <path class="cls-1" d="M397.9613,10.7145H57.5297c-.3255.6957-.5419,1.1592-.5419,1.1592-.4371.9373-.6475,1.8269-.747,2.8623-1.8402,22.0078-1.951,75.6633-2.1821,182.5706-.0312,17.6269-.0476,37.6307,14.4536,50.3246,11.7391,10.2689,27.0868,10.5273,39.4257,10.7535,10.9202.1943,17.7237.5822,20.053,4.3336,2.3457,3.7351.5263,9.9374-.8933,12.9919h172.5269c-1.4282-5.5651-.6483-12.7137,3.3161-16.9368,3.6796-3.9303,8.6437-5.5311,17.1083-5.5311,3.954,0,8.0751.3238,12.287.6634,4.8525.3719,9.8002.7598,14.7003.7598,7.8959,0,19.6471-.841,30.5197-8.1182,24.2373-16.171,24.2693-49.8555,24.3524-111.1592.0156-22.154-1.7926-67.9669-2.9646-98.2718-.4873-12.4927-.8812-22.24-.9824-26.4017Z"/>
    <path class="cls-2" d="M77.3195,240.7257c-11.2822-9.9287-11.4766-26.3691-11.4443-43.9976.2266-107.4961.3252-161.2437,2.1494-183.0547,0,0,1.2949-2.9023,2.1279-4.7671h-19.209c-.293,1.0625-.4873,2.1504-.5791,3.3018-1.8721,22.5439-1.9873,76.6665-2.2139,184.4883-.0361,18.6694-.083,41.8975,17.4453,57.3281,14.1641,12.4844,32.0703,12.8101,45.125,13.0386,3.9863.0806,9.7158.1792,12.5498.8301.0205.9097-.0635,2.7095-1.0488,4.6641-.7979,1.5835-1.8516,2.6016-2.5186,3.1528h0c6.5996-.022,13.1982-.0444,19.7979-.0664,1.4238-4.5137,2.6807-11.7349-1.0293-17.7451-10.0752-16.2935-42.582-.7969-61.1523-17.1729Z"/>
  </g>
  <path class="cls-2" d="M409.7639,8.9063h-17.7289c.3384,14.3744,3.9592,94.0897,3.9289,125.4801-.0476,59.4446-.0831,90.8757-20.414,104.5494-7.8924,5.306-16.6833,6.6572-25.5686,6.6572-9.2003,0-18.4751-1.4325-27.0072-1.4325-9.0809,0-17.3031,1.6282-23.6019,8.3988-5.5449,5.9604-7.2527,15.1062-5.8592,23.0848h18.6343c-.1619-.1593-.2744-.2986-.3367-.4099-1.6126-2.8642-1.3027-8.6109.5531-10.6125.8777-.9608,2.5552-2.7353,10.6104-2.7353,3.7272,0,7.6336.3259,11.5919.6349,4.9312.3912,10.0261.7976,15.4152.7976,9.0324,0,22.5598-1.0093,35.4674-9.6686,28.1593-18.9299,28.1757-54.5618,28.2389-119.2479"/>
  <g>
    <path class="cls-4" d="M385.4169,145.88c-5.5655,0-11.4355-.2682-17.5772-.9018-19.1513-1.9383-38.0683-7.0997-56.2592-15.3508-1.4429-.6524-2.3424-2.0917-2.3049-3.6846l1.4007-51.79c.0562-1.7662,1.2883-3.7993,2.9936-4.2221,17.9239-4.5477,36.2881-7.4066,54.554-8.4818,5.9684-.3642,11.7634-.5364,17.3289-.5364,6.0059,0,11.8009.1909,17.3242.5364.9979.0586,1.9395.4802,2.6094,1.1899,3.3964,3.5499,14.5649,16.7714,15.5065,37.6678,1.1337,24.7917-12.7238,40.584-15.5065,43.4816-.6324.6723-1.4944,1.0939-2.4361,1.1899-5.4296.5563-11.3418.9018-17.6334.9018"/>
    <path class="cls-2" d="M386.7197,63.6567c6.2483,0,12.2697.1921,18.0146.5177,2.221,2.1878,14.2093,14.5063,15.2014,35.1345,1.1302,23.8138-13.4048,38.8003-15.2014,40.604-5.5821.5364-11.6675.8632-18.1577.8632-5.7203,0-11.786-.2495-18.1133-.8632-23.6312-2.3026-43.2992-8.7125-57.9774-15.0252.5034-17.4613.992-34.9038,1.4955-52.3475,16.4352-3.9329,35.4813-7.1571,56.7238-8.3658,6.2089-.3455,12.2104-.5177,18.0146-.5177M386.7197,55.8273c-5.9621,0-12.1315.1534-18.4983.5177-19.5051,1.1138-39.1188,4.0113-58.2636,8.5965-3.598.8643-6.1447,3.8766-6.2237,7.3879l-.0395,1.382-1.456,50.9655c-.1036,3.147,1.8163,6.0445,4.8516,7.3492,19.5298,8.4045,39.8838,13.6818,60.5241,15.6775,6.2878.5938,12.6546.9206,18.9622.9206s12.6991-.3268,18.982-.9206c1.9841-.1921,3.8053-1.0365,5.1576-2.3986,3.134-3.1282,18.7204-20.0531,17.4668-46.3604-1.071-22.2971-13.6664-36.4017-17.4865-40.2011-1.4362-1.4195-3.3956-2.2826-5.4587-2.3986-5.9226-.3256-12.0871-.5177-18.518-.5177"/>
    <path class="cls-2" d="M303.9698,117.8373c.1389,13.0029,21.3709,23.8483,47.4274,24.2272,26.0387.3849,47.0241-9.8512,46.8855-22.8529-.1402-13.0233-21.3541-23.8737-47.4051-24.2345-26.0384-.3838-47.0467,9.8573-46.9078,22.8602"/>
  </g>
  <g>
    <path class="cls-4" d="M59.8431,145.88c5.5655,0,11.4355-.2682,17.5772-.9018,19.1513-1.9383,38.0683-7.0997,56.2592-15.3508,1.4429-.6524,2.3424-2.0917,2.3049-3.6846l-1.4007-51.79c-.0562-1.7662-1.2883-3.7993-2.9936-4.2221-17.9239-4.5477-36.2881-7.4066-54.554-8.4818-5.9684-.3642-11.7634-.5364-17.3289-.5364-6.0059,0-11.8009.1909-17.3242.5364-.9979.0586-1.9395.4802-2.6094,1.1899-3.3964,3.5499-14.5649,16.7714-15.5065,37.6678-1.1337,24.7917,12.7238,40.584,15.5065,43.4816.6324.6723,1.4944,1.0939,2.4361,1.1899,5.4296.5563,11.3418.9018,17.6334.9018"/>
    <path class="cls-2" d="M58.5403,63.6567c-6.2483,0-12.2697.1921-18.0146.5177-2.221,2.1878-14.2093,14.5063-15.2014,35.1345-1.1302,23.8138,13.4048,38.8003,15.2014,40.604,5.5821.5364,11.6675.8632,18.1577.8632,5.7203,0,11.786-.2495,18.1133-.8632,23.6312-2.3026,43.2992-8.7125,57.9774-15.0252-.5034-17.4613-.992-34.9038-1.4955-52.3475-16.4352-3.9329-35.4813-7.1571-56.7238-8.3658-6.2089-.3455-12.2104-.5177-18.0146-.5177M58.5403,55.8273c5.9621,0,12.1315.1534,18.4983.5177,19.5051,1.1138,39.1188,4.0113,58.2636,8.5965,3.598.8643,6.1447,3.8766,6.2237,7.3879l.0395,1.382,1.456,50.9655c.1036,3.147-1.8163,6.0445-4.8516,7.3492-19.5298,8.4045-39.8838,13.6818-60.5241,15.6775-6.2878.5938-12.6546.9206-18.9622.9206s-12.6991-.3268-18.982-.9206c-1.9841-.1921-3.8053-1.0365-5.1576-2.3986-3.134-3.1282-18.7204-20.0531-17.4668-46.3604,1.071-22.2971,13.6664-36.4017,17.4865-40.2011,1.4362-1.4195,3.3956-2.2826,5.4587-2.3986,5.9226-.3256,12.0871-.5177,18.518-.5177"/>
    <path class="cls-2" d="M141.2902,117.8373c-.1389,13.0029-21.3709,23.8483-47.4274,24.2272-26.0387.3849-47.0241-9.8512-46.8855-22.8529.1402-13.0233,21.3541-23.8737,47.4051-24.2345,26.0384-.3838,47.0467,9.8573,46.9078,22.8602"/>
  </g>
  <g>
    <path class="cls-3" d="M316.8332,137.7435c.0713,1.2461.3906,6.6045.6123,13.8125,1.8096,58.7861-7.6416,77.7695-10.5273,83.1455-1.3799,2.5713-3.6934,6.5654-7.1689,11.1777,0,0-3.9727,4.6133-9.1113,8.6299-34.7998,27.1982-120.1182,16.457-141.5693,4.207-8.4541-4.8281-14.6611-11.8369-14.6611-11.8369-5.0732-5.7285-7.0088-10.335-7.4541-11.4443-.9463-2.3594-1.8193-5.3047-2.6201-12.0283-1.1074-9.3008-.9609-16.4766-.9414-17.5059.1582-8.1758-.373-2.2363-1.1582-31.7197-.4326-16.251-.6367-31.7627-.6279-36.4375.0469-25.71.1309-71.3076,28.7979-99.0898,23.7197-22.9883,56.4062-23.5039,68.8154-23.6992,10.3691-.1631,57.124-.9004,80.3438,29.9912,12.9346,17.208,14.3799,42.4043,17.2705,92.7979Z"/>
    <path class="cls-4" d="M265.4727,238.2187c-3.2988-5.2793-3.5156-13.6875.6768-17.3223,6.4141-5.5615,19.7275,2.1045,21.5723-1.2803,1.0469-1.9209-3.083-4.8105-7.2363-11.6396-2.4814-4.1123-9.1172-14.7422-6.1289-21.9785,4.249-10.2812,23.7422-9.7578,23.6855-14.2578-.0381-3.124-9.4482-2.4443-15.6904-9.1367-8.6533-9.2725-7.8193-29.001,1.4541-37.3613,6.7109-6.0342,16.2158-4.6943,16.334-7.0615.1709-3.7441-23.5518-3.2598-27.5117-13.6182-4.2285-10.9795,16.415-27.4297,13.2139-31.2705-2.7939-3.3369-17.8076,9.8164-26.6357,4.7334-9.5615-5.4902-4.3232-28.0703-9.4668-29.2734-5.2949-1.2402-10.9971,22.8135-21.5303,23.2598-11.3711.4658-19.2656-26.8486-25.5879-25.2178-5.7832,1.4736.5635,24.2285-9.7568,31.542-12.2988,8.7295-39.1475-11.0762-42.292-6.4795-2.8135,4.1123,18.9727,19.2627,15.2305,29.5059-3.0879,8.4189-20.3311,5.0439-23.665,13.5205-3.8408,9.8545,17.3809,19.457,15.9834,35.1885-1.3398,14.8408-21.3965,19.8066-19.498,30.6309,1.6104,9.2148,16.7988,9.1367,18.5273,18.6035,2.25,12.2988-19.0098,25.7803-16.5479,29.2139,2.0176,2.8135,16.0225-6.7891,22.8516-1.2607,2.7373,2.2305,3.2012,5.9746,3.415,7.5654.6387,5.0244-1.3789,10.9023-5.4707,13.3652-6.8672,4.1523-17.0117-2.8115-17.4805-3.1426-11.0918-7.8174-10.2012-23.6465-10.708-65.916-.6201-48.9043-2.0361-46.0723-.6396-59.9805,3.1641-31.4072,4.793-47.4492,16.5674-62.9873,21.127-27.8955,57.3428-30.9795,66.1094-31.7168.6631-.0586,1.7666-.1553,3.3008-.2529,6.9814-.4072,43.334-2.5596,65.7783,20.4277,3.542,3.6279,5.665,6.7783,7.3174,9.2529,12.8789,19.2891,14.5391,39.2725,16.4062,77.2402,1.6445,33.4365,2.2705,56.8252-3.5049,85.5596-2.2734,11.3125-5.4453,22.9873-14.8496,27.1621-7.3486,3.2627-19.2822,2.291-24.2227-5.6172Z"/>
  </g>
</svg>