<?xml version="1.0" encoding="UTF-8"?>
<svg id="SZÁJ" xmlns="http://www.w3.org/2000/svg" viewBox="0 0 445.26 281">
  <defs>
    <style>
      .cls-1 {
        fill: #76c615;
      }

      .cls-2 {
        fill: #261f20;
      }

      .cls-3 {
        fill: none;
        stroke: #261f20;
        stroke-linecap: round;
        stroke-linejoin: round;
        stroke-width: 8.0902px;
      }

      .cls-4 {
        fill: #fff;
      }
    </style>
  </defs>
  <g>
    <path class="cls-1" d="M394.6929,9.8104H54.2614c-.3255.6957-.5419,1.1592-.5419,1.1592-.4371.9373-.6475,1.8269-.747,2.8623-1.8402,22.0078-1.951,75.6633-2.1821,182.5706-.0312,17.6269-.0476,37.6307,14.4536,50.3246,11.7391,10.2689,27.0868,10.5273,39.4257,10.7535,10.9202.1943,17.7237.5822,20.053,4.3336,2.3457,3.7351.5263,9.9374-.8933,12.9919h172.5269c-1.4282-5.5651-.6483-12.7137,3.3161-16.9368,3.6796-3.9303,8.6437-5.5311,17.1083-5.5311,3.954,0,8.0751.3238,12.287.6634,4.8525.3719,9.8002.7598,14.7003.7598,7.8959,0,19.6471-.841,30.5197-8.1182,24.2373-16.171,24.2693-49.8555,24.3524-111.1592.0156-22.154-1.7926-67.9669-2.9646-98.2718-.4873-12.4927-.8812-22.24-.9824-26.4017Z"/>
    <path class="cls-2" d="M74.0511,239.8216c-11.2822-9.9287-11.4766-26.3691-11.4443-43.9976.2266-107.4961.3252-161.2437,2.1494-183.0547,0,0,1.2949-2.9023,2.1279-4.7671h-19.209c-.293,1.0625-.4873,2.1504-.5791,3.3018-1.8721,22.5439-1.9873,76.6665-2.2139,184.4883-.0361,18.6694-.083,41.8975,17.4453,57.3281,14.1641,12.4844,32.0703,12.8101,45.125,13.0386,3.9863.0806,9.7158.1792,12.5498.8301.0205.9097-.0635,2.7095-1.0488,4.6641-.7979,1.5835-1.8516,2.6016-2.5186,3.1528h0c6.5996-.022,13.1982-.0444,19.7979-.0664,1.4238-4.5137,2.6807-11.7349-1.0293-17.7451-10.0752-16.2935-42.582-.7969-61.1523-17.1729Z"/>
  </g>
  <path class="cls-2" d="M406.4955,8.0022h-17.7289c.3384,14.3744,3.9592,94.0897,3.9289,125.4801-.0476,59.4446-.0831,90.8757-20.414,104.5494-7.8924,5.306-16.6833,6.6572-25.5686,6.6572-9.2003,0-18.4751-1.4325-27.0072-1.4325-9.0809,0-17.3031,1.6282-23.6019,8.3988-5.5449,5.9604-7.2527,15.1062-5.8592,23.0848h18.6343c-.1619-.1593-.2744-.2986-.3367-.4099-1.6126-2.8642-1.3027-8.6109.5531-10.6125.8777-.9608,2.5552-2.7353,10.6104-2.7353,3.7272,0,7.6336.3259,11.5919.6349,4.9312.3912,10.0261.7976,15.4152.7976,9.0324,0,22.5598-1.0093,35.4674-9.6686,28.1593-18.9299,28.1757-54.5618,28.2389-119.2479"/>
  <g>
    <path class="cls-4" d="M391.0685,144.9759c-6.1623,0-12.6618-.2682-19.4621-.9018-21.205-1.9383-42.1506-7.0997-62.2922-15.3508-1.5976-.6524-2.5936-2.0917-2.5521-3.6846l1.551-51.79c.0622-1.7662,1.4265-3.7993,3.3146-4.2221,19.8459-4.5477,40.1795-7.4066,60.4041-8.4818,6.6084-.3642,13.0249-.5364,19.1872-.5364,6.6499,0,13.0664.1909,19.182.5364,1.1049.0586,2.1475.4802,2.8892,1.1899,3.7607,3.5499,16.1268,16.7714,17.1694,37.6678,1.2553,24.7917-14.0882,40.584-17.1694,43.4816-.7003.6723-1.6547,1.0939-2.6973,1.1899-6.0119.5563-12.558.9018-19.5243.9018"/>
    <path class="cls-2" d="M392.511,62.7526c6.9184,0,13.5854.1921,19.9464.5177,2.4591,2.1878,15.7331,14.5063,16.8315,35.1345,1.2514,23.8138-14.8423,38.8003-16.8315,40.604-6.1806.5364-12.9187.8632-20.1049.8632-6.3337,0-13.0499-.2495-20.0557-.8632-26.1653-2.3026-47.9424-8.7125-64.1946-15.0252.5574-17.4613,1.0984-34.9038,1.6558-52.3475,18.1977-3.9329,39.2862-7.1571,62.8065-8.3658,6.8747-.3455,13.5198-.5177,19.9464-.5177M392.511,54.9232c-6.6014,0-13.4324.1534-20.4819.5177-21.5967,1.1138-43.3137,4.0113-64.5115,8.5965-3.9838.8643-6.8036,3.8766-6.8911,7.3879l-.0437,1.382-1.6121,50.9655c-.1148,3.147,2.011,6.0445,5.3719,7.3492,21.6241,8.4045,44.1608,13.6818,67.0144,15.6775,6.9621.5938,14.0117.9206,20.9956.9206s14.0608-.3268,21.0175-.9206c2.1968-.1921,4.2133-1.0365,5.7107-2.3986,3.4701-3.1282,20.7278-20.0531,19.3398-46.3604-1.1859-22.2971-15.1319-36.4017-19.3617-40.2011-1.5902-1.4195-3.7598-2.2826-6.044-2.3986-6.5577-.3256-13.3832-.5177-20.5038-.5177"/>
    <path class="cls-2" d="M303.7014,116.9332c.1389,13.0029,21.3709,23.8483,47.4274,24.2272,26.0387.3849,47.0241-9.8512,46.8855-22.8529-.1402-13.0233-21.3541-23.8737-47.4051-24.2345-26.0384-.3838-47.0467,9.8573-46.9078,22.8602"/>
  </g>
  <g>
    <path class="cls-4" d="M64.7704,146.1465c5.5655,0,11.4355-.2682,17.5772-.9018,19.1513-1.9383,38.0683-7.0997,56.2592-15.3508,1.4429-.6524,2.3424-2.0917,2.3049-3.6846l-1.4007-51.79c-.0562-1.7662-1.2883-3.7993-2.9936-4.2221-17.9239-4.5477-36.2881-7.4066-54.554-8.4818-5.9684-.3642-11.7634-.5364-17.3289-.5364-6.0059,0-11.8009.1909-17.3242.5364-.9979.0586-1.9395.4802-2.6094,1.1899-3.3964,3.5499-14.5649,16.7714-15.5065,37.6678-1.1337,24.7917,12.7238,40.584,15.5065,43.4816.6324.6723,1.4944,1.0939,2.4361,1.1899,5.4296.5563,11.3418.9018,17.6334.9018"/>
    <path class="cls-2" d="M58.7916,63.9229c-6.5942,0-12.9487.1921-19.0116.5177-2.3439,2.1878-14.9957,14.5063-16.0427,35.1345-1.1928,23.8138,14.1467,38.8003,16.0427,40.604,5.891.5364,12.3133.8632,19.1627.8632,6.0368,0,12.4383-.2495,19.1158-.8632,24.9391-2.3026,45.6956-8.7125,61.1862-15.0252-.5313-17.4613-1.0469-34.9038-1.5782-52.3475-17.3448-3.9329-37.4451-7.1571-59.8632-8.3658-6.5525-.3455-12.8862-.5177-19.0116-.5177M58.7916,56.0935c6.2921,0,12.8029.1534,19.5221.5177,20.5846,1.1138,41.2839,4.0113,61.4883,8.5965,3.7971.8643,6.4848,3.8766,6.5681,7.3879l.0417,1.382,1.5366,50.9655c.1094,3.147-1.9168,6.0445-5.1201,7.3492-20.6107,8.4045-42.0912,13.6818-63.8738,15.6775-6.6358.5938-13.355.9206-20.0117.9206s-13.4019-.3268-20.0325-.9206c-2.0939-.1921-4.0159-1.0365-5.4431-2.3986-3.3075-3.1282-19.7565-20.0531-18.4335-46.3604,1.1303-22.2971,14.4228-36.4017,18.4543-40.2011,1.5157-1.4195,3.5836-2.2826,5.7608-2.3986,6.2504-.3256,12.756-.5177,19.5429-.5177"/>
    <path class="cls-2" d="M142.2175,118.1038c-.1389,13.0029-21.3709,23.8483-47.4274,24.2272-26.0387.3849-47.0241-9.8512-46.8855-22.8529.1402-13.0233,21.3541-23.8737,47.4051-24.2345,26.0384-.3838,47.0467,9.8573,46.9078,22.8602"/>
  </g>
  <g>
    <g>
      <path class="cls-2" d="M305.0967,134.3668c0,62.5585-38.5756,113.2843-86.1538,113.2843s-86.13-50.7258-86.13-113.2843S171.3647,21.0825,218.9429,21.0825s86.1538,50.7095,86.1538,113.2843"/>
      <path class="cls-3" d="M308.5246,133.6235c0,62.5585-38.5756,113.2843-86.1538,113.2843s-86.13-50.7258-86.13-113.2843S174.7926,20.3393,222.3708,20.3393s86.1538,50.7095,86.1538,113.2843Z"/>
    </g>
    <path class="cls-4" d="M241.3982,174.669c7.4395-3.4109,17.0716-5.1105,24.52-2.2637,15.0765,5.7622,16.0752,26.8432,11.9364,39.8226-.8057,2.5273-4.449,13.0353-16.4177,22.1822-4.2894,3.2782-19.6973,14.0913-42.4944,13.2411-25.8557-.964-40.9143-16.1195-44.1113-19.5539-2.7093-2.91-7.8032-8.507-9.9067-16.9111-5.0169-20.0449,12.2042-35.0993,15.226-37.697,7.7843-6.6928,12.6483-6.9509,14.8399-6.8056,3.9334.2618,6.915,2.3621,9.1445,4.494,13.4529,12.8602,16.4914,43.0602,18.4631,43.0954,1.9483.0352-3.1679-29.5321,18.8001-39.6041Z"/>
    <path class="cls-4" d="M241.7951,93.4686c7.4395,3.4109,17.0716,5.1105,24.52,2.2637,15.0765-5.7622,16.0752-26.8432,11.9364-39.8226-.8057-2.5273-4.449-13.0353-16.4177-22.1822-4.2894-3.2782-19.6973-14.0913-42.4944-13.2411-25.8557.964-40.9143,16.1195-44.1113,19.5539-2.7093,2.91-7.8032,8.507-9.9067,16.9111-5.0169,20.0449,12.2042,35.0993,15.226,37.697,7.7843,6.6928,12.6483,6.9509,14.8399,6.8056,3.9334-.2618,6.915-2.3621,9.1445-4.494,13.4529-12.8602,16.4914-43.0602,18.4631-43.0954,1.9483-.0352-3.1679,29.5321,18.8001,39.6041Z"/>
  </g>
</svg>