<?xml version="1.0" encoding="UTF-8"?>
<svg id="Layer_1" data-name="Layer 1" xmlns="http://www.w3.org/2000/svg" viewBox="0 0 1621.4173 1264.252">
  <defs>
    <style>
      .cls-1 {
        fill: #ca6628;
      }

      .cls-2 {
        fill: #e2b199;
      }

      .cls-3 {
        fill: #afafb0;
      }

      .cls-4 {
        fill: #ab474b;
      }

      .cls-5 {
        fill: #7d7c7c;
      }

      .cls-6 {
        fill: #fff;
      }

      .cls-7 {
        fill: #dc7427;
      }

      .cls-8 {
        fill: #9f3134;
      }

      .cls-9 {
        fill: #fff9c9;
      }

      .cls-10 {
        fill: #f68720;
      }

      .cls-11 {
        fill: #e5e3da;
      }

      .cls-12 {
        fill: #d8d4d4;
      }

      .cls-13 {
        fill: #852328;
      }
    </style>
  </defs>
  <g>
    <path class="cls-5" d="M471.944,905.6681c5.3877-4.1041-.2023-16.5441-5.3575-37.4674-37.4561-152.0208,43.8167-363.1051,139.416-379.3459,45.3277-7.7003,80.6853,30.643,98.3541,12.8698,16.5252-16.6225,4.9685-69.6504-24.7469-85.321-51.2028-27.0025-143.2019,63.8281-153.8289,51.6938-11.0269-12.5908,103.7832-92.3993,101.0357-197.1164-1.3573-51.7321-31.2196-102.4901-48.4262-100.3897-17.5791,2.1456-16.1851,58.7586-31.191,120.7528-37.5955,155.3193-166.7911,297.563-229.8032,279.4501-34.4401-9.9-58.2371-70.3261-44.0732-107.5153,14.1097-37.0465,58.9308-32.7646,78.981-74.3131,19.1229-39.6276,5.0494-98.8501-17.0626-104.8364-37.2697-10.0901-141.1534,119.2065-143.4217,253.1325-3.6361,214.692,254.7685,387.7212,280.1247,368.406Z"/>
    <path class="cls-3" d="M454.5657,891.9984c16.0316-9.2988-46.2898-83.3237-27.1298-196.6901,18.0164-106.5984,103.0439-218.2093,186.4551-219.9747,42.5754-.9011,74.081,25.829,89.3858,11.6964,14.8336-13.6977,3.825-58.0258-23.2961-71.3832-46.7335-23.0173-129.3337,51.8136-139.097,41.5918-10.1312-10.6062,93.2789-76.0229,89.758-163.3624-1.7401-43.1477-29.3389-85.7621-44.934-84.1798-15.9326,1.6164-14.1117,48.8337-27.1216,100.3768-32.5943,129.1352-148.4469,246.4689-205.8102,230.748-31.3523-8.5928-53.5422-59.2095-41.053-90.0786,12.4414-30.7503,53.1601-26.7406,70.9483-61.1866,16.9657-32.8533,3.6122-82.3709-16.5143-87.5792-32.7405-8.4724-113.0607,100.2037-127.6744,209.6522-28.0156,209.8221,189.099,396.0209,216.0832,380.3693Z"/>
    <path class="cls-5" d="M441.8483,223.5069c7.9473-21.9705,31.9362-22.1827,34.3361-39.4231,2.2657-16.2743-16.2361-36.7304-28.4015-34.7597-14.4218,2.3364-21.0282,36.3673-20.347,59.3459,1.0166,34.302,18.746,59.9518,20.347,59.3464,1.49-.5635-13.7835-22.8117-5.9345-44.5095Z"/>
    <path class="cls-3" d="M438.9572,223.6316c6.1538-17.0123,24.729-17.1766,26.5872-30.5262,1.7544-12.6016-12.572-28.4413-21.992-26.9153-11.1671,1.8091-16.2826,28.1601-15.7552,45.953.7872,26.5609,14.5154,46.4221,15.7552,45.9534,1.1537-.4364-10.6729-17.6637-4.5953-34.4648Z"/>
    <path class="cls-5" d="M660.3143,347.7872c20.2183-11.7084,38.721,3.5612,51.6491-8.0944,12.204-11.0023,11.1982-38.566.6164-44.8832-12.5445-7.4888-39.4946,14.3158-53.7552,32.3467-21.2882,26.916-24.2149,57.9591-22.5998,58.5256,1.5033.527,4.122-26.3319,24.0895-37.8948Z"/>
    <path class="cls-3" d="M658.0206,346.0228c15.6555-9.0661,29.9826,2.7575,39.9931-6.2677,9.4498-8.5193,8.671-29.8626.4773-34.7542-9.7135-5.7988-30.5816,11.0851-41.624,25.0468-16.484,20.8417-18.7502,44.8792-17.4996,45.3178,1.164.4081,3.1918-20.3894,18.6531-29.3428Z"/>
    <path class="cls-5" d="M657.1327,393.9949c9.4291-5.5311,7.4795-16.5852,15.206-19.1605,7.2935-2.4312,18.2832,4.3346,18.4148,10.0994.156,6.834-14.9359,12.7775-25.5652,14.4252-15.8671,2.4598-29.1802-3.5075-29.0384-4.2957.1321-.7335,11.6707,4.3942,20.9828-1.0684Z"/>
    <path class="cls-3" d="M657.3221,395.3356c7.3012-4.2829,5.7916-12.8423,11.7744-14.8365,5.6476-1.8826,14.1571,3.3564,14.259,7.8202.1208,5.2918-11.5653,9.894-19.7958,11.1698-12.2863,1.9046-22.595-2.7159-22.4851-3.3263.1023-.568,9.0369,3.4025,16.2475-.8273Z"/>
    <path class="cls-5" d="M819.6499,758.8932c1.6912,3.3532,4.819,9.3125,7.9484,8.9023,3.273-.4288,2.7358-7.2414,6.7823-10.5979,6.9742-5.785,20.8643,4.2516,31.2423,6.5855,29.8717,6.7185,48.1608-47.2409,77.6762-48.3246,36.6386-1.3454,83.4821,70.4309,91.0682,142.4304,6.5349,62.0267-17.8393,107.3769,2.6781,119.5401,18.2478,10.8173,44.653-20.828,72.3195-10.1735,34.6577,13.3469,24.8812,75.2004,42.8558,78.8456,32.6333,6.6179,125.7842-184.9057,83.0323-216.1899-28.2773-20.6928-92.7335,45.7548-115.1747,27.9776-38.9516-30.8575,80.142-290.5656,211.6001-292.4915,49.6518-.7274,88.0218,35.511,96.4249,25.4343,10.466-12.5497-33.9682-86.8496-93.7468-94.1064-77.0082-9.3488-155.6559,95.4528-179.4578,127.1702-31.1406,41.4966-46.121,76.7443-56.2478,73.7589-17.7464-5.2319,30.6051-112.7853-24.1065-190.755-25.9054-36.9179-69.7002-59.7687-83.0329-50.8685-14.8484,9.9123,20.2024,51.1143,5.3567,106.8232-10.9454,41.0728-43.6249,69.813-57.0692,80.4472-1.4361,1.1359-2.4669,1.9221-4.5353,3.4852-43.5446,32.9027-69.8454,39.6724-100.0354,66.3256-3.251,2.8705-11.5271,10.3676-15.5786,22.5731-1.5625,4.7079-4.5529,14.181,0,23.2081Z"/>
    <path class="cls-3" d="M830.6928,770.7777c1.6961-.0764-.2205-9.2416,4.9597-13.1561,9.6495-7.292,30.6084,13.6988,46.11,4.7228,1.546-.8951,2.3229-1.7638,3.511-2.7127,10.5171-8.4004,40.6439-24.167,52.6944-26.2876,33.3921-5.8757,98.154,63.0884,103.8274,142.9846,4.3467,61.2113-27.6225,106.1041-10.0811,118.9859,15.6126,11.4655,43.8602-21.1332,72.3189-10.1735,34.6577,13.3469,24.8817,75.2004,42.8558,78.8456,32.6333,6.6179,125.7842-184.9057,83.0329-216.1899-28.2773-20.6928-92.7341,45.7548-115.1747,27.9776-38.9522-30.8575,80.142-290.5656,211.5996-292.4915,49.6524-.7274,88.0223,35.511,96.4254,25.4343,10.466-12.5497-33.9682-86.8496-93.7468-94.1064-77.0082-9.3488-155.6559,95.4528-179.4578,127.1702-31.1406,41.4966-46.121,76.7443-56.2478,73.7589-17.7464-5.2319,30.6051-112.7853-24.1065-190.755-25.9054-36.9179-69.7002-59.7687-83.0329-50.8685-14.8484,9.9123,20.2024,51.1143,5.3567,106.8232-10.946,41.0744-43.6288,69.8152-57.0703,80.4488-1.4498,1.1469-2.4752,1.9287-4.5342,3.4835-62.7931,47.4235-97.773,46.452-105.7803,73.4152-4.5771,15.4131,4.201,32.7961,6.5404,32.6905Z"/>
    <path class="cls-5" d="M1129.6487,534.9422c10.6674-20.7863,34.4898-17.9569,39.055-34.7541,4.3098-15.856-11.4507-38.4918-23.7678-38.0786-14.6016.49-25.4672,33.4094-27.7034,56.289-3.3384,34.1543,10.9976,61.844,12.6624,61.4464,1.5494-.3702-10.7816-24.3745-.2464-44.9028Z"/>
    <path class="cls-3" d="M1126.7652,534.6995c8.26-16.0953,26.7063-13.9045,30.2412-26.911,3.3372-12.2777-8.8665-29.8051-18.4039-29.4851-11.3064.3794-19.7199,25.8697-21.4514,43.586-2.585,26.4465,8.5157,47.8873,9.8048,47.5794,1.1997-.2866-8.3485-18.8738-.1908-34.7693Z"/>
    <path class="cls-5" d="M1151.976,575.5227c4.9367-9.7535-2.6842-17.9946,2.42-24.3412,4.818-5.9911,17.7209-6.2477,20.9509-1.4709,3.829,5.6628-5.6467,18.8272-13.6939,25.9643-12.0127,10.6542-26.4373,12.8396-26.7445,12.1-.2858-.6884,12.1923-2.6196,17.0676-12.2522Z"/>
    <path class="cls-3" d="M1152.8607,576.5476c3.8226-7.5524-2.0784-13.9337,1.8738-18.848,3.7307-4.639,13.7217-4.8378,16.2228-1.139,2.9649,4.3848-4.3723,14.5783-10.6035,20.1048-9.3017,8.2498-20.4711,9.942-20.7089,9.3693-.2213-.533,9.4408-2.0284,13.2158-9.4872Z"/>
    <path class="cls-5" d="M1202.4913,761.8611c23.3335,1.1889,30.5379,24.0713,47.7281,21.3349,16.227-2.5828,30.3924-26.2495,24.9568-37.31-6.4439-13.112-40.9212-9.4983-62.7005-2.1401-32.5118,10.9838-51.8702,35.4275-50.8239,36.7822.9739,1.2606,17.7956-19.8413,40.8395-18.6669Z"/>
    <path class="cls-3" d="M1201.5283,759.1324c18.0677.9206,23.6463,18.639,36.957,16.5201,12.565-1.9999,23.5336-20.3256,19.3247-28.8901-4.9896-10.1529-31.6863-7.3547-48.5505-1.6571-25.1746,8.5051-40.1643,27.4324-39.3542,28.4813.7541.9761,13.7796-15.3636,31.623-14.4542Z"/>
    <path class="cls-5" d="M1174.6617,798.8854c10.9205.4951,15.3044-9.838,23.1873-7.7909,7.4413,1.9323,12.9747,13.5913,9.946,18.4981-3.5905,5.817-19.4851,2.5842-29.2976-1.8217-14.6479-6.5769-22.5649-18.8312-22.0168-19.415.5102-.5433,7.396,10.0405,18.181,10.5294Z"/>
    <path class="cls-3" d="M1174.0905,800.1129c8.456.3834,11.8506-7.6178,17.9545-6.0327,5.762,1.4962,10.0466,10.524,7.7014,14.3236-2.7802,4.5042-15.0878,2.001-22.6858-1.4106-11.3422-5.0926-17.4726-14.5814-17.0481-15.0335.3951-.4207,5.7269,7.7746,14.078,8.1532Z"/>
    <path class="cls-5" d="M867.996,596.7662c29.4874-79.8133-.4305-104.7241,25.4337-155.1473,42.1586-82.1884,150.3844-72.0286,155.1478-119.5401,5.3891-53.7484-131.9722-78.1507-137.3437-152.6045-5.1263-71.0555,114.6914-122.1626,101.736-147.5175-8.8281-17.2772-73.137-10.5226-119.5401,20.3472-56.4787,37.5727-93.9909,115.8982-73.7583,175.4948,23.1603,68.2196,110.4442,77.9066,106.8227,119.5401-2.9139,33.496-59.3464,26.4816-89.0191,76.3022-36.2323,60.8336,21.5318,115.5749-10.1735,221.276-12.1951,40.6566-31.0433,66.9045-27.9776,68.6721,4.2241,2.4356,45.5371-44.2044,68.6721-106.8232Z"/>
    <path class="cls-3" d="M853.2696,602.4912c28.9645-83.9637,2.3889-110.2216,25.4337-155.1473,42.1586-82.1884,150.3844-72.0286,155.1478-119.5401,5.3891-53.7484-131.9722-78.1507-137.3437-152.6045-5.1263-71.0555,114.6914-122.1626,101.736-147.5175-8.8281-17.2772-73.137-10.5226-119.5401,20.3472-56.4787,37.5727-93.9909,115.8982-73.7583,175.4948,23.1603,68.2196,110.4442,77.9066,106.8227,119.5401-2.9535,33.954-65.607,27.0523-89.0191,76.3022-24.4534,51.4403,28.5412,89.7377,13.8786,183.7583-6.8796,44.1159-24.9087,76.4765-22.2548,77.5739,2.8348,1.1722,24.1461-35.4461,38.8972-78.2073Z"/>
    <path class="cls-5" d="M994.9791,168.7226c17.6036-15.3615,38.6867-3.9154,49.1451-17.8299,9.8726-13.1346,3.61-39.9963-7.9852-44.1715-13.7459-4.9495-36.0246,21.61-46.5706,42.037-15.7432,30.4928-12.6745,61.5222-10.9807,61.7691,1.5763.2296-.9938-26.634,16.3915-41.8048Z"/>
    <path class="cls-3" d="M992.3902,167.4298c13.6309-11.8948,29.9561-3.0318,38.0542-13.8061,7.6446-10.1705,2.7953-30.9701-6.1831-34.203-10.6438-3.8325-27.8947,16.7332-36.0608,32.5503-12.1904,23.6113-9.8141,47.6381-8.5027,47.8293,1.2206.1778-.7696-20.6234,12.6923-32.3704Z"/>
    <path class="cls-5" d="M776.857,264.2163c4.0669,16.0102,18.3897,19.3969,58.4986,48.3246,39.6213,28.5764,39.7884,35.4725,39.4228,38.1511-2.4785,18.1555-52.7609,13.458-64.8571,41.9662-9.2614,21.827,11.4034,45.348,5.0867,49.5963-7.1479,4.8074-42.0239-19.6586-39.4228-41.9662,2.7468-23.5578,44.9873-24.9614,48.3252-49.5963,2.6473-19.5393-20.9622-40.5312-36.8794-54.6836-22.014-19.5729-34.9837-20.9111-36.8794-33.0638-3.2372-20.7538,30.2571-44.6107,35.6077-40.6945,4.3126,3.1564-14.2261,21.0067-8.9023,41.9662Z"/>
    <path class="cls-3" d="M770.6627,265.0425c4.0669,16.0102,18.3897,19.3969,58.4986,48.3246,39.6213,28.5764,39.7884,35.4725,39.4228,38.1511-2.4785,18.1555-52.7609,13.458-64.8571,41.9662-9.2614,21.827,11.4034,45.348,5.0867,49.5963-7.1479,4.8074-42.0239-19.6586-39.4228-41.9662,2.7468-23.5578,44.9873-24.9614,48.3252-49.5963,2.6473-19.5393-20.9622-40.5312-36.8794-54.6836-22.014-19.5729-34.9837-20.9111-36.8794-33.0638-3.2372-20.7538,30.2571-44.6107,35.6077-40.6945,4.3126,3.1564-14.2261,21.0067-8.9023,41.9662Z"/>
    <path class="cls-12" d="M1046.9666,637.4458c10.6199-12.1143,18.0505-35.3026,3.8151-83.9324,9.0381,21.0271,19.6999,56.3726,6.359,90.2908-5.2759,13.414-19.1088,38.8142-30.521,36.8794-4.7107-.7989-8.8501-6.2281-9.3257-11.4452-1.126-12.3606,18.702-19.2787,29.6727-31.7927Z"/>
    <path class="cls-12" d="M1083.1362,901.6284c-10.6199-12.1143-18.0505-35.3026-3.8151-83.9324-9.0381,21.0271-19.6999,56.3726-6.359,90.2908,5.2759,13.414,19.1088,38.8142,30.521,36.8794,4.7107-.7989,8.8501-6.2281,9.3257-11.4452,1.126-12.3606-18.702-19.2787-29.6727-31.7927Z"/>
    <path class="cls-12" d="M303.1941,422.3011c-10.6199,12.1143-18.0505,35.3026-3.8151,83.9324-9.0381-21.0271-19.6999-56.3726-6.359-90.2908,5.2759-13.414,19.1088-38.8142,30.521-36.8794,4.7107.7989,8.8501,6.2281,9.3257,11.4452,1.126,12.3606-18.702,19.2787-29.6727,31.7927Z"/>
    <path class="cls-12" d="M608.7358,305.6485c3.7466,15.6685-.4917,39.6466-35.7588,76.0296,17.7996-14.3875,43.7115-40.6849,47.724-76.9109,1.587-14.3266,1.1927-43.2466-9.8052-46.856-4.5398-1.4897-10.7332,1.3833-13.5863,5.7768-6.7593,10.4098,7.5559,25.7748,11.4265,41.9604Z"/>
    <path class="cls-12" d="M863.2813,156.6938c-3.7466,15.6685.4917,39.6466,35.7588,76.0296-17.7996-14.3875-43.7115-40.6849-47.724-76.9109-1.587-14.3266-1.1927-43.2466,9.8052-46.856,4.5398-1.4897,10.7332,1.3833,13.5863,5.7768,6.7593,10.4098-7.5559,25.7748-11.4265,41.9604Z"/>
    <path class="cls-12" d="M397.4621,735.4705c-4.8011-1.2726-6.942,2.6641-12.7707,2.2575-24.183-1.6879-34.0453-72.7224-39.6791-71.879-4.2117.6309-8.8847,41.9189,8.6213,86.7399,16.8644,43.1781,40.3468,74.3486,52.4498,69.6215,15.6295-6.1045,10.9425-81.5532-8.6213-86.7399Z"/>
    <path class="cls-12" d="M965.8204,325.3028c3.8795-1.6078,7.4033-.6917,12.5665-2.2309,21.4216-6.3863,2.1415-34.4946,7.6246-35.534,4.0991-.7769,24.8119,13.0761,26.6687,33.5059,1.7887,19.6809-7.251,36.5888-20.1911,37.7649-16.7104,1.5188-42.4767-26.9541-26.6687-33.5059Z"/>
    <path class="cls-12" d="M411.8838,611.5773c-2.6699-.2249,2.5473-61.9727,44.6785-95.6979,17.4387-13.9591,41.1835-23.0764,43.1697-19.0393,1.3807,2.8065-7.2757,12.9472-15.4043,19.4204-7.6597,6.0999-14.5008,8.3651-16.2527,9.3732-37.7811,21.7449-54.1846,86.1127-56.1912,85.9436Z"/>
    <path class="cls-12" d="M1171.395,661.5449c-2.6124-.5955,11.1758-61.0099,57.6035-88.5217,19.2171-11.3873,44.0023-17.0997,45.4053-12.8249.9753,2.9718-9.0123,11.8044-17.9651,17.0792-8.4364,4.9706-15.5268,6.2584-17.4023,7.012-40.4473,16.2564-65.678,77.703-67.6414,77.2554Z"/>
    <ellipse class="cls-12" cx="1361.2893" cy="557.1166" rx="6.9944" ry="20.9831" transform="translate(389.5877 1661.3283) rotate(-70.9095)"/>
    <ellipse class="cls-12" cx="1005.3832" cy="501.5475" rx="7.8422" ry="10.8095"/>
    <ellipse class="cls-12" cx="674.1461" cy="453.2609" rx="13.3529" ry="11.6573"/>
    <ellipse class="cls-12" cx="271.2283" cy="603.1099" rx="5.0868" ry="13.9887"/>
    <ellipse class="cls-12" cx="449.0547" cy="185.7795" rx="6.1466" ry="9.1139"/>
    <path class="cls-12" d="M852.8204,346.8621c.0033,7.3975-10.455,11.3918-11.4457,10.3852-.7719-.784,4.3154-4.4864,4.2395-10.5974-.0737-5.9417-4.9696-9.4241-4.2395-10.1735.9605-.9858,11.4424,2.981,11.4457,10.3857Z"/>
    <path class="cls-12" d="M1229.0889,894.9596c-1.4885.2222-.8158-13.4996-10.617-21.4007-10.8016-8.7071-26.0893-3.7079-26.355-5.5992-.3015-2.1434,18.6848-13.16,31.2356-3.9591,12.6009,9.2376,7.571,30.6851,5.7365,30.9589Z"/>
    <ellipse class="cls-12" cx="1213.3479" cy="880.553" rx="3.1793" ry="4.6629"/>
    <path class="cls-12" d="M1228.9402,771.3711c-.0486-1.0479,8.9965-1.8904,14.8796-9.6954,6.4833-8.6015,4.1844-19.1018,5.4548-19.4754,1.4398-.4237,7.4798,12.1524.5535,22.0583-6.9539,9.9455-20.8281,8.404-20.8879,7.1125Z"/>
    <path class="cls-12" d="M1193.948,804.2638c-.2367-.0389.0044-2.1017-1.4617-3.7879-1.6158-1.8583-4.0732-1.8427-4.0964-2.1446-.0264-.3421,3.0728-1.0958,4.9593.9235,1.894,2.0273.8905,5.0569.5989,5.0089Z"/>
    <path class="cls-12" d="M1130.7121,486.6066c-.042.9052,7.7712,1.6329,12.853,8.3749,5.6003,7.43,3.6145,16.5002,4.7119,16.8229,1.2437.366,6.4611-10.4973.4781-19.054-6.0068-8.591-17.9913-7.2594-18.043-6.1438Z"/>
    <path class="cls-12" d="M1166.8424,559.4386c-.1739.1652-1.6728-1.2724-3.9022-1.1217-2.4569.1661-3.9281,2.1345-4.1828,1.9708-.2887-.1855.9817-3.1111,3.7304-3.3959,2.7596-.2859,4.5689,2.3432,4.3546,2.5467Z"/>
    <ellipse class="cls-12" cx="1164.1081" cy="564.864" rx="1.1171" ry=".9575"/>
    <ellipse class="cls-12" cx="1137.138" cy="505.7373" rx="1.2767" ry="3.9099"/>
    <path class="cls-12" d="M876.2743,726.8514c.751,1.7528,9.1888-.0742,14.413-1.6956,8.3536-2.5929,16.3131-7.0886,34.7594-23.7381,7.0748-6.3859,11.8762-10.7194,18.6519-17.8041,12.7531-13.3348,29.8832-33.6796,27.9776-35.6077-1.6807-1.7011-17.9619,11.1461-29.6732,22.0431-14.5449,13.5339-13.7362,16.3323-25.4343,27.1293-21.3421,19.6982-41.8964,26.8681-40.6945,29.6732Z"/>
    <path class="cls-12" d="M1008.511,128.8351c-.042.9052,7.7712,1.6329,12.853,8.3749,5.6003,7.43,3.6145,16.5002,4.7119,16.8229,1.2437.366,6.4611-10.4973.4781-19.054-6.0068-8.591-17.9913-7.2594-18.043-6.1438Z"/>
    <path class="cls-12" d="M688.1026,307.4823c-.5315.7339,5.6029,5.6272,6.1552,14.0518.6085,9.2843-6.0262,15.7799-5.2855,16.6516.8393.9881,11.1595-5.2348,10.849-15.6711-.3117-10.478-11.0636-15.9368-11.7187-15.0323Z"/>
    <ellipse class="cls-12" cx="670.3366" cy="386.5638" rx="2.1155" ry="2.9159"/>
    <path class="cls-2" d="M768.7565,945.0798c-2.9979,2.5902-2.4974,6.4555-3.6324,6.5094-1.5634.0744-4.9178-7.1469-2.3035-10.4209,3.2649-4.0894,13.776.565,13.6564,1.6263-.0765.6813-4.4864-.5083-7.7205,2.2852Z"/>
    <path class="cls-2" d="M809.5587,993.0566c-.4185-3.3166-2.2215-4.5717-1.976-5.4374.338-1.1924,4.2797-.6443,5.087,2.6752,1.0085,4.1459-3.5102,9.9932-3.9444,9.4577-.2788-.3435,1.2845-3.118.8334-6.6956Z"/>
    <circle class="cls-2" cx="776.7288" cy="948.8184" r="1.556"/>
  </g>
  <g>
    <g>
      <path class="cls-8" d="M609.4348,1237.552c-129.0276-47.8611-155.0835-191.5413-158.3445-211.4114-5.6236-34.2682-5.6723-79.4607,9.4152-84.7356,18.8717-6.5984,46.255,54.5618,67.6172,48.7872,22.7351-6.1458,5.5437-79.1537,27.3894-156.6329,33.7665-119.7564,145.7695-196.9062,165.1919-184.0219,11.2059,7.4333-12.3174,42.2413-6.8471,114.6928,2.3349,30.9265,5.5533,73.5575,28.2452,83.0237,29.3779,12.2556,57.681-45.1427,99.2859-37.6604,36.9035,6.637,67.3017,61.2664,65.0498,107.8457-2.5226,52.1922-45.6718,86.7168-37.66,95.0066,9.6597,9.9956,65.499-47.3231,88.1592-33.3807,23.2545,14.3082,8.5579,101.8112-37.6604,164.3361-44.1085,59.6706-105.4537,81.0707-131.8112,89.8711-29.8054,9.952-99.7652,33.3112-178.0307,4.2797Z"/>
      <path class="cls-10" d="M618.4024,1223.494c-33.8781-23.9295-64.1353-67.4457-63.6136-114.8147.6325-57.4266,45.9016-66.0417,63.6136-151.2762,9.0672-43.6336,2.3145-65.9712,15.5155-71.3713,21.5896-8.8317,74.8836,36.5037,85.3352,89.99,5.5568,28.437-2.2184,52.9264,6.9819,56.6315,12.2182,4.9205,29.469-37.5664,51.2013-34.9099,27.1879,3.3234,38.0988,74.3987,38.7887,79.1291,6.3628,43.6272-5.2798,85.3713-8.5409,96.6886-.376,1.305-.5389,1.9659-.7684,2.6107-12.5476,35.2327-46.1812,63.3909-84.5594,72.1471-52.0089,11.8661-92.2654-16.5687-103.9538-24.8248Z"/>
      <path class="cls-9" d="M672.1431,1034.9035c-2.1007,6.9478-8.8631,29.3142,0,47.3222,9.8933,20.1012,37.6529,31.515,57.4073,25.6007,15.9189-4.7658,18.6608-18.3955,27.1521-17.0672,13.6287,2.1319,24.5566,40.0581,18.6186,72.9229-6.3455,35.1203-35.2461,82.6974-79.1291,84.5596-48.8488,2.073-80.6278-54.0129-89.2142-90.7657-10.2412-43.8357,6.6743-85.1509,27.1521-109.3844,15.6178-18.482,39.6224-34.5013,43.4434-31.0309,1.8848,1.7118-2.2109,7.1947-5.4304,17.8428Z"/>
    </g>
    <path class="cls-13" d="M930.3593,1067.2525c.1631,15.8717-9.1655,37.9742-51.0187,65.1885,20.2519-9.9169,50.9074-29.4948,62.7049-63.4114,4.6658-13.4133,10.6282-41.2784.8558-47.1569-4.034-2.4263-10.6129-1.0247-14.3169,2.5698-8.7751,8.5169,1.6061,26.4145,1.7749,42.8101Z"/>
    <path class="cls-13" d="M861.3504,875.2596c35.7565,40.9341-5.7824,108.5822-8.7347,107.9905-2.7871-.5584,23.431-63.0077-5.646-97.3816-26.4892-31.3146-82.8622-20.4072-82.7865-23.2082.0811-2.9906,64.6022-24.6815,97.1673,12.5993Z"/>
    <path class="cls-13" d="M580.1716,907.9185c-9.5913-2.4021-10.052-57.3937,10.1238-107.7862,9.5546-23.8639,24.6792-49.0498,50.0222-67.8879,11.6307-8.6455,31.3509-20.3674,36.3261-15.4829,7.0193,6.8907-29.4725,34.4937-25.9045,71.4605,4.0306,41.7582,48.4018,66.4053,41.983,75.9271-5.741,8.5162-37.862-16.207-69.674-4.4662-30.4411,11.2349-34.7536,50.2701-42.8766,48.2357Z"/>
    <path class="cls-13" d="M542.4424,1178.5757c-1.0068.8291-26.7032-21.4561-46.9814-58.3592-6.2172-11.3145-12.9001-31.5618-26.266-72.0564-2.0719-6.2771-7.3819-22.9502-7.4437-44.9609-.0375-13.3821-.0575-20.5292,4.4662-23.8203,15.2578-11.1001,73.023,28.3441,67.8879,47.6406-1.9054,7.1603-12.7202,12.4776-21.4383,11.6122-13.6482-1.3547-18.6037-17.5073-23.4801-16.0784-6.8799,2.0159-8.0929,37.414,5.0193,75.629,17.1779,50.0643,49.3792,79.4518,48.2361,80.3934Z"/>
    <path class="cls-13" d="M707.7178,907.9954c-5.7418,6.6405,12.1687,21.3302,18.5018,52.3277,5.3521,26.1969-1.0875,46.7972,4.1685,48.2361,4.6721,1.2794,7.7778-15.542,23.2248-22.0338,14.6434-6.1542,26.8966,2.6396,30.9663-3.2714,3.8321-5.5661-2.4055-20.0859-11.3148-22.3354-11.8574-2.9937-22.2072,17.3216-29.1798,14.2923-9.6751-4.2032,8.4551-44.0989-8.9325-61.7866-8.3053-8.4486-23.2167-10.3069-27.4342-5.429Z"/>
    <path class="cls-13" d="M776.9766,1227.4073c1.6293,2.3461,24.1362-5.3776,39.4442-24.2702,16.6307-20.525,16.4542-43.9757,16.394-51.9543-.1244-16.516-4.8953-31.1671-6.5505-30.9663-2.1657.2626,5.5197,25.401-3.2721,51.8087-12.159,36.5215-48.1303,52.337-46.0155,55.3821Z"/>
    <path class="cls-7" d="M677.927,1047.4971c-7.5067,8.7521-2.3816,23.9277,2.845,31.9356,12.1984,18.6898,42.7364,25.5875,57.5918,13.9351,8.1466-6.3898,11.5508-18.338,8.7096-20.8393-3.4494-3.0366-14.0699,11.8034-27.2906,9.2267-9.3449-1.8212-17.5795-11.8447-19.7352-21.451-2.0931-9.3283,2.3441-14.704-1.1678-18.0329-4.138-3.9221-15.3671-1.2864-20.9529,5.2259Z"/>
    <path class="cls-11" d="M716.7698,1219.2364c-1.7954,10.376-29.9711,19.4162-49.434,9.3646-19.1671-9.8991-22.7896-36.5466-21.0637-37.4109,1.7228-.8627,14.9295,29.7826,23.7322,27.5628,6.1763-1.5575,3.0037-17.4683,11.411-21.8778,11.1774-5.8623,37.2267,11.54,35.3545,22.3613Z"/>
    <ellipse class="cls-11" cx="633.563" cy="1178.5981" rx="6.9511" ry="11.072"/>
    <path class="cls-4" d="M600.9327,858.6902c-4.0569-1.016-4.2518-24.2762,4.2821-45.591,4.0414-10.0939,10.4387-20.7469,21.1582-28.715,4.9195-3.6569,13.2607-8.6149,15.3651-6.5489,2.969,2.9146-12.4662,14.59-10.957,30.2261,1.7049,17.6627,20.4728,28.0879,17.7578,32.1154-2.4283,3.6021-16.0147-6.8552-29.4704-1.8891-12.8758,4.7521-14.6999,21.2631-18.1358,20.4026Z"/>
    <path class="cls-4" d="M721.1797,932.8768c-3.6163,4.1823,7.6642,13.4343,11.6529,32.9574,3.3709,16.4995-.6849,29.4741,2.6254,30.3804,2.9426.8058,4.8986-9.7888,14.6276-13.8775,9.2228-3.8761,16.9402,1.6625,19.5034-2.0604,2.4136-3.5057-1.5151-12.6506-7.1264-14.0674-7.4681-1.8855-13.9867,10.9096-18.3782,9.0017-6.0936-2.6473,5.3253-27.7747-5.6259-38.9148-5.2309-5.3211-14.6225-6.4916-17.2788-3.4193Z"/>
    <path class="cls-4" d="M522.9775,1159.9083c-.5781.3765-20.608-22.6544-35.9917-57.0801-7.4897-16.7608-14.2147-36.8676-21.6492-59.3911-1.7077-5.1737-6.0843-18.9161-6.1353-37.058-.0309-11.0298-.0471-16.9207,3.6815-19.6333,12.5757-9.1491,60.1874,23.3619,55.9548,39.2669-1.5702,5.9017-10.4842,10.2841-17.6699,9.5708-11.2492-1.1165-15.3339-14.4298-19.3529-13.2523-5.4093,1.5849-5.5217,29.3188,4.1368,62.3357,13.379,45.7355,37.6712,74.8215,37.0259,75.2413Z"/>
    <path class="cls-4" d="M856.8351,880.3044c34.2859,41.0071-5.743,108.5922-8.7347,107.9905-2.7948-.5619,23.1495-61.3594-5.646-97.3816-25.4793-31.8738-78.564-25.2696-78.2713-28.2529.3147-3.208,62.4512-18.477,92.652,17.644Z"/>
    <path class="cls-4" d="M930.7808,1070.0398c.5579,12.3537-5.2809,30.2766-35.3132,53.424,31.412-19.5354,41.035-41.8221,44.3626-52.0476,2.9966-9.2087,8.4428-31.8377.6625-36.5174-3.1239-1.8791-8.2185-.7936-11.0867,1.9902-6.7706,6.5712.8039,20.5072,1.3748,33.1508Z"/>
    <path class="cls-1" d="M676.8241,1059.4109c-4.8455,9.0858,6.5551,22.0763,7.4839,23.1105,11.7937,13.1326,33.7375,16.5542,46.7103,8.7104,6.6069-3.9947,9.3681-11.4624,7.0637-13.026-2.6666-1.8089-10.9715,7.2943-22.1338,5.7673-6.8459-.9365-13.6084-5.7847-15.8386-11.4488-2.0526-5.2127,1.5258-8.3289-1.1153-13.2303-1.8533-3.4398-5.707-6.0886-9.9624-6.4335-5.2486-.4252-10.171,2.7311-12.2077,6.5505Z"/>
    <circle class="cls-2" cx="694.9065" cy="1068.0496" r="3.1948"/>
    <circle class="cls-6" cx="633.1014" cy="1182.6038" r="4.0057"/>
    <path class="cls-6" d="M704.0559,1218.7324c.3167,6.3126-13.0434,13.934-24.4637,12.3263-10.6263-1.4961-17.6131-10.707-17.0717-11.4879.6287-.9071,12.1938,8.4385,16.3302,5.1536,3.5487-2.818-2.3021-11.8088,1.2852-15.3779,4.7061-4.6821,23.5523,2.0599,23.9199,9.3858Z"/>
    <path class="cls-2" d="M934.5564,1043.6596c-3.4072,1.9046-3.6916,5.7343-4.7977,5.561-1.5238-.2389-3.327-7.8734-.1538-10.5142,3.9624-3.2978,13.182,3.2805,12.8559,4.281-.2091.6424-4.229-1.3813-7.9043.6722Z"/>
    <path class="cls-2" d="M848.4844,885.7182c-4.228-3.8981-7.9911-3.5496-8.6282-4.9603-.8776-1.9431,4.9143-5.593,9.657-2.1223,5.9236,4.3345,6.4643,17.0358,5.2994,16.8129-.7476-.1427-1.768-5.5253-6.3283-9.7304Z"/>
    <circle class="cls-2" cx="834.5121" cy="876.2553" r="1.6814"/>
    <path class="cls-2" d="M509.429,1021.1685c.4905,2.6813-1.3188,5.3568-3.5027,6.5211-3.9781,2.1209-9.0839-.8342-8.9676-1.9371.1433-1.3598,8.2578-.2267,9.528-3.5556.8859-2.3214-2.1889-5.1563-1.6417-5.6124.5152-.4294,4.0098,1.4443,4.584,4.584Z"/>
  </g>
</svg>