<?xml version="1.0" encoding="UTF-8"?>
<svg id="Layer_1" data-name="Layer 1" xmlns="http://www.w3.org/2000/svg" viewBox="0 0 1621.4173 1264.252">
  <defs>
    <style>
      .cls-1 {
        fill: #808184;
      }

      .cls-2 {
        fill: #754d29;
      }

      .cls-3 {
        fill: #a7a9ac;
      }
    </style>
  </defs>
  <path class="cls-2" d="M839.0186,854.0069c-2.8884,13.0912-12.6225,22.1871-23.5542,22.0598-10.766-.1253-20.2534-9.1682-23.0967-22.0598V68.1413c-.6423-33.1481,9.6886-60.8104,22.0012-62.4855,13.2129-1.7977,25.2806,26.7998,24.6497,62.4855v785.8655Z"/>
  <path class="cls-3" d="M1009.9973,843.1398c6.0203,247.9999-109.2254,434.8549-220.9784,413.9382-98.8198-18.4953-184.6474-197.5323-177.3965-413.9382"/>
  <path class="cls-1" d="M964.5344,904.9574c3.6608,69.9386-11.6425,120.4769-23.7706,150.2859-38.4719,94.557-113.1343,148.0005-114.2824,147.1698-.0053-.0039-1.1286-.819-1.1286-.819h0c70.606-94.2512,78.93-110.097,92.6957-137.9413,6.7245-13.6015,12.1459-24.5679,17.987-40.7452,25.3428-70.188,20.3256-132.5108,24.7652-132.5171.8982-.0012,2.1775,2.5483,3.7337,14.5669Z"/>
  <path class="cls-1" d="M643.9477,935.3126c-2.0607.4603-9.4882-14.9714-10.1783-32.8218-.6901-17.8504,5.5237-33.8095,7.6138-33.5097,1.5281.2191.3497,9.0552,1.2819,33.1658.9322,24.1106,2.7892,32.8293,1.2826,33.1657Z"/>
</svg>