<?xml version="1.0" encoding="UTF-8"?>
<svg id="Layer_1" data-name="Layer 1" xmlns="http://www.w3.org/2000/svg" viewBox="0 0 1621.4173 1264.252">
  <defs>
    <style>
      .cls-1 {
        fill: #808184;
      }

      .cls-2 {
        fill: #754d29;
      }

      .cls-3 {
        fill: #a7a9ac;
      }
    </style>
  </defs>
  <path class="cls-2" d="M821.4159,716.0444c-1.0924,4.9513-4.774,8.3915-8.9085,8.3433-4.0718-.0474-7.6601-3.4676-8.7355-8.3433v-297.2253c-.2429-12.5371,3.6644-22.9993,8.3212-23.6329,4.9973-.6799,9.5615,10.1361,9.3229,23.6329v297.2253Z"/>
  <path class="cls-3" d="M886.0824,711.9343c2.277,93.797-41.3106,164.4681-83.5771,156.5572-37.375-6.9952-69.8362-74.7095-67.0938-156.5572"/>
  <path class="cls-1" d="M868.8877,735.3146c1.3846,26.4518-4.4034,45.5661-8.9904,56.8402-14.5506,35.7628-42.789,55.9758-43.2232,55.6617-.002-.0015-.4268-.3097-.4268-.3097h0c26.7042-35.6471,29.8524-41.6402,35.0588-52.1713,2.5433-5.1443,4.5937-9.2919,6.803-15.4104,9.585-26.5461,7.6874-50.1174,9.3665-50.1198.3397-.0005.8236.9638,1.4121,5.5094Z"/>
  <path class="cls-1" d="M747.6374,746.7954c-.7794.1741-3.5886-5.6624-3.8496-12.4137-.261-6.7513,2.0892-12.7872,2.8796-12.6738.578.0829.1323,3.4248.4848,12.5438.3526,9.119,1.0549,12.4165.4851,12.5437Z"/>
</svg>