<?xml version="1.0" encoding="UTF-8"?>
<svg id="Layer_1" data-name="Layer 1" xmlns="http://www.w3.org/2000/svg" viewBox="0 0 2367.4471 1514.657">
  <defs>
    <style>
      .cls-1 {
        fill: #422113;
      }

      .cls-2 {
        fill: #612f15;
      }

      .cls-3 {
        fill: #a46939;
      }

      .cls-4 {
        fill: #3e1d11;
      }

      .cls-5 {
        fill: #482818;
      }

      .cls-6 {
        fill: #784626;
      }

      .cls-7 {
        fill: #563020;
      }

      .cls-8 {
        fill: #f2dbd0;
      }

      .cls-9 {
        fill: #7b4732;
      }
    </style>
  </defs>
  <rect class="cls-2" x="672.3176" y="844.371" width="1119.4736" height="108.7075"/>
  <rect class="cls-1" x="642.1849" y="809.7075" width="1171.893" height="68.8512" rx="29.4009" ry="29.4009"/>
  <rect class="cls-2" x="708.8949" y="950.7356" width="73.4854" height="506.4537"/>
  <rect class="cls-2" x="1672.018" y="952.0441" width="73.4854" height="506.4537"/>
  <path class="cls-6" d="M1262.1263,927.9475h-144.9846c-3.2766,0-5.9582-2.6811-5.9582-5.9582v-.0002c.1829-.9529.6165-2.5506,1.7508-4.208,1.3137-1.9191,2.9134-2.963,3.7944-3.4531,20.8593-8.3676,37.7928-9.4222,49.941-8.587,17.4539,1.2,25.5793,6.28,46.011,9.5993,20.0006,3.2494,37.1883,2.2814,49.4456.6906.4843.0114,2.5717.1148,4.2074,1.7502,1.0802,1.08,1.7508,2.5695,1.7508,4.208v.0002c0,3.2771-2.6807,5.9582-5.9582,5.9582Z"/>
  <ellipse class="cls-6" cx="1069.7586" cy="919.9046" rx="9.9305" ry="8.6064"/>
  <path class="cls-7" d="M1620.568,859.6599h-938.7594c-8.0104,0-14.5645-6.5541-14.5645-14.5647,0-7.2649,10.1948-12.3747,14.5645-14.5647,52.2113-26.1688,132.7084-12.2715,132.711-12.271,64.0736,11.062,129.7649,8.5097,194.6371,12.9096,54.1089,3.6699,109.6458,7.3344,177.7551,6.9512,37.53-.2112,95.8138-.6987,169.8108-8.9373.0026-.0002,213.7507-23.7982,263.8455,1.3474,4.1258,2.0713,14.5653,7.3112,14.5653,14.5647,0,8.0106-6.5541,14.5647-14.5653,14.5647Z"/>
  <path class="cls-9" d="M975.3574,852.2739h-277.7883c-2.934,0-5.334-2.3999-5.334-5.3333v-2.4394c0-2.9334,2.3999-5.3333,5.334-5.3333,35.07-8.4588,63.6975-10.0561,83.1864-9.9849,44.9368.1644,66.38,9.2928,118.1731,11.9166,32.6383,1.6533,59.3338-.1876,76.4288-1.9318.4345.0103,2.3021.1033,3.7661,1.5666.9668.9666,1.567,2.3001,1.567,3.7667v2.4394c0,2.9334-2.3999,5.3333-5.3331,5.3333Z"/>
  <path class="cls-4" d="M708.9119,955.5262c1.8452-.5491,4.5483-1.0611,7.5828-.4482,8.7643,1.7701,12.3389,11.3162,15.515,10.2809,2.2634-.7378-.2172-7.0665,2.9907-10.0941,3.0817-2.9083,9.7698-1.4245,13.8329.5609,15.6241,7.6341,14.0158,33.2241,19.6271,33.6468,2.752.2074,7.1114-5.6489,13.9918-33.9462v-2.395h-73.5403v2.395Z"/>
  <path class="cls-4" d="M1672.0166,955.4807c13.8828,6.4066,23.6738,5.9315,30.1533,4.1961,7.8457-2.1014,14-6.8957,17.6016-4.2047,3.9463,2.9485,1.2783,12.2388,2.9961,12.6109,2.4805.537,7.6738-13.153,9.5723-12.6111,2.5986.7419-9.3154,26.1081,1.4268,43.7229,3.2012,5.2479,11.7344,15.2553,11.7344,15.2556,0-.0039.0381-20.433.1084-58.9785v-2.3934c-24.5557.0139-49.1123.0276-73.668.0415.0254.7868.0498,1.5739.0752,2.3607Z"/>
  <path class="cls-4" d="M708.8948,1457.1894c25.0366-.0232,50.0741-.0459,75.1107-.0691v-504.023h-6.4193c3.1547,31.4856-.3984,55.7556-4.2735,72.187-7.8275,33.193-23.1313,60.5327-10.6963,75.4989,5.3073,6.3875,10.1819,3.9185,14.9698,10.8804,8.3178,12.0937-2.946,24.5528-7.0255,55.3226-3.2577,24.5704,2.5356,27.106-2.2128,54.9212-3.1264,18.3125-4.975,17.8467-4.9656,26.8123.0223,21.3921,9.5577,24.667,14.2039,46.673,4.726,22.3842-3.7128,25.7545-2.2875,72.4927.5066,16.6154,1.5542,15.5657.9935,20.8537-2.1629,20.396-24.099,28.357-21.0259,37.5588,2.0032,5.9977,11.384,5.6147,11.7575,9.1146.4456,4.1735-12.247,10.7907-58.1292,21.7768Z"/>
  <path class="cls-4" d="M1672.0202,1458.464c24.4948.0112,48.9888.0228,73.4836.0339-49.364-22.3297-62.0592-44.3503-64.381-60.49-1.9363-13.4607,3.7317-20.1307,5.2962-46.5077,1.3378-22.55-1.8779-33.3072-4.9656-58.5898-5.3752-44.0107,1.0115-38.8902-3.3101-102.2837-3.0156-44.2378-6.6511-54.4301.2962-74.4788,5.8251-16.8099,12.7957-21.456,13.9377-37.7357,1.4915-21.2691-8.031-32.8852-13.9025-53.6244-4.3439-15.3452-7.4067-38.218-.0352-69.4097h-6.4193v503.086Z"/>
  <path class="cls-6" d="M1574.8112,913.7731c.1777,2.7183-55.1771,11.9164-118.7518,11.9164-65.5848,0-118.7518-5.3352-118.7518-11.9164,0-6.2085,58.8066-19.6314,118.7518-11.9166,19.3463,2.4899,34.9215,6.6816,69.4308,9.2683,31.7685,2.3813,49.2215,1.1263,49.3211,2.6483Z"/>
  <path class="cls-3" d="M1547.0655,914.4351c.1048,1.0804-42.3411,9.3052-92.7295,9.3052-51.2127,0-92.7295-4.1662-92.7295-9.3052,0-4.9027,45.81-18.2434,92.7295-9.3052,16.8442,3.2088,32.8366,9.1011,61.8858,9.9673,18.3606.5474,30.787-1.2455,30.8437-.662Z"/>
  <path class="cls-8" d="M1492.0217,916.8148c.0573,1.5365-25.9228,5.4107-55.6274,4.5903-30.6287-.846-55.3826-4.2727-55.2892-7.6539.0888-3.2145,27.946-8.9134,55.6274-4.5901,8.4297,1.3165,14.2156,3.1527,29.3582,5.0098,17.0452,2.0904,25.8977,1.7488,25.931,2.6439Z"/>
  <path class="cls-6" d="M740.1209,1233.1558c-2.7088.2883-14.1541-54.6459-16.7437-118.1679-2.6715-65.5304.4936-118.8706,7.0693-119.1387,6.2033-.2529,22.0105,57.9582,16.744,118.1679-1.6998,19.4317-5.2536,35.1646-6.4324,69.7507-1.0852,31.8391.8796,49.2265-.6371,49.388Z"/>
  <path class="cls-3" d="M738.3292,1205.4601c-1.0752.1487-11.0222-41.9269-13.0748-92.2735-2.0861-51.1702.3855-92.8222,5.5203-93.0315,4.8986-.1997,20.0943,45.0289,13.0748,92.2735-2.52,16.9609-7.756,33.1801-7.4381,62.2404.201,18.3677,2.4985,30.7107,1.9179,30.7911Z"/>
  <path class="cls-5" d="M1686.7002,1239.4556c3.2494-17.5306,8.5164-24.8022,13.4173-54.6603,6.4356-39.2089,2.7813-59.7361,6.7032-60.3883,6.3844-1.0614,27.1381,51.535,29.725,112.949,2.652,62.9599-6.3567,114.4688-20.1212,115.0486-13.5459.5706-39.7507-58.86-29.7244-112.949Z"/>
  <path class="cls-6" d="M1712.192,1156.6132c1.8901-.2012,9.8762,38.1301,11.6832,82.4536,1.8641,45.7249-.3444,82.9439-4.9327,83.131-4.3285.1765-15.3582-40.4412-11.6834-82.4535,1.186-13.5588,3.6658-24.5367,4.4883-48.6697.7572-22.2163-.6137-34.3486.4445-34.4613Z"/>
  <path class="cls-3" d="M1713.4422,1175.9383c.7503-.1037,7.6909,29.2552,9.1231,64.3853,1.4556,35.7048-.269,64.7682-3.8519,64.9143-3.4181.1393-14.0211-31.4196-9.1231-64.3853,1.7584-11.8348,5.4119-23.152,5.1901-43.4293-.1402-12.8163-1.7434-21.4289-1.3382-21.485Z"/>
  <ellipse class="cls-6" cx="1723.1062" cy="1060.4129" rx="9.2684" ry="17.8748"/>
  <ellipse class="cls-5" cx="1243.1338" cy="1245.1195" rx=".662" ry="1.3241"/>
  <ellipse class="cls-6" cx="745.9486" cy="1319.929" rx="7.9444" ry="12.5786"/>
  <ellipse class="cls-6" cx="761.1753" cy="1372.8914" rx="7.2823" ry="5.9583"/>
  <ellipse class="cls-3" cx="1723.4372" cy="1063.1851" rx="7.831" ry="15.1026"/>
  <path class="cls-6" d="M703.1426,927.4965c8.8957,15.9094,45.8847,8.6469,45.9509,10.2751.0687,1.6873-39.5298,12.4224-50.9766-5.2962-3.4003-5.2633-3.3299-11.5098-3.3101-13.2407.1528-13.5225,10.5932-24.1539,12.5784-23.171,2.4867,1.2315-10.9899,19.3657-4.2426,31.4327Z"/>
  <path class="cls-6" d="M705.3894,926.6618c8.8957,15.9094,45.8847,8.6469,45.9509,10.2751.0687,1.6873-39.5298,12.4224-50.9766-5.2962-3.4003-5.2633-3.3299-11.5098-3.3101-13.2407.1528-13.5225,10.5932-24.1539,12.5784-23.171,2.4867,1.2315-10.9899,19.3657-4.2426,31.4327Z"/>
  <path class="cls-9" d="M1782.1474,851.3238c0,11.1318-18.6903,19.1574-22.5088,15.8887-2.9804-2.5513,3.8107-11.3858,0-15.8887-4.8823-5.7699-20.8971,2.9873-22.5088,0-1.476-2.7357,8.8905-15.8887,22.5088-15.8887,12.4316,0,22.5088,7.1135,22.5088,15.8887Z"/>
  <path class="cls-3" d="M1190.2561,923.53h-62.3503c-1.3567-.2658-2.3871-1.3163-2.5631-2.5624-.2155-1.528.8878-3.1064,2.6017-3.4619,8.6733-3.3986,15.8516-3.9056,21.2603-3.5256,7.5244.5285,11.0157,2.703,19.7877,4.1282,8.6011,1.3975,15.9924.9812,21.2637.2969.2087.0049,1.1059.0496,1.81.7528.4645.4643.753,1.1049.753,1.8096,0,1.4095-1.1532,2.5624-2.5631,2.5624Z"/>
  <ellipse class="cls-3" cx="1069.4831" cy="921.1975" rx="5.0003" ry="4.1591"/>
  <ellipse class="cls-6" cx="743.4387" cy="921.511" rx="3.8067" ry="3.1446"/>
  <ellipse class="cls-6" cx="947.1787" cy="883.4442" rx="64.0515" ry="3.4757"/>
  <path class="cls-6" d="M1764.3196,924.715c-8.8957,15.9094-45.8847,8.6469-45.9509,10.2751-.0687,1.6873,39.5298,12.4224,50.9766-5.2962,3.4003-5.2633,3.3299-11.5098,3.3101-13.2407-.1528-13.5225-10.5932-24.1539-12.5784-23.171-2.4867,1.2315,10.9899,19.3657,4.2426,31.4327Z"/>
  <ellipse class="cls-6" cx="1707.1488" cy="918.3663" rx="15.5163" ry="2.9791"/>
  <path class="cls-4" d="M1672.1426,954.4119h-889.6377v-1.3086c-18.3906,4.1184-22.415,4.3457-22.584,3.7522-.3799-1.3367,18.3672-8.4055,37.0742-13.2405,4.458-1.1523,14.4668-3.613,25.8193-5.2961,21.8154-3.2349,41.6514-2.5691,76.2988-.4966,53.5049,3.2002,68.0176,4.9822,97.3193,3.9722,38.9209-1.3418,45.3506-5.6931,83.415-7.9443,52.8184-3.1238,102.2705,3.2922,108.2422,3.9722,42.2725,4.8123,56.5088,10.4436,79.6094,2.4827,8.2852-2.8555,19.2178-7.9788,35.75-8.6064,19.0176-.7222,33.2617,4.9675,37.7354,6.6204,31.4395,11.614,78.4717,7.8672,166.832.8274,49.7305-3.9619,103.4238-11.0742,121.6475.6621,1.9766,1.272,14.0811,9.5557,22.1787,5.2961,4.0449-2.1279,4.3389-6.0154,7.9443-6.2893,5.2393-.3982,11.6807,7.2356,12.3047,14.4905.0391.4556.0488.8376.0508,1.1062Z"/>
</svg>