<?xml version="1.0" encoding="UTF-8"?>
<svg id="Layer_1" data-name="Layer 1" xmlns="http://www.w3.org/2000/svg" viewBox="0 0 1621.4173 1264.252">
  <defs>
    <style>
      .cls-1 {
        fill: #422113;
      }

      .cls-2 {
        fill: #612f15;
      }

      .cls-3 {
        fill: #a46939;
      }

      .cls-4 {
        fill: #3e1d11;
      }

      .cls-5 {
        fill: #482818;
      }

      .cls-6 {
        fill: #784626;
      }

      .cls-7 {
        fill: #563020;
      }

      .cls-8 {
        fill: #f2dbd0;
      }

      .cls-9 {
        fill: #7b4732;
      }
    </style>
  </defs>
  <rect class="cls-2" x="44.2424" y="232.5864" width="1543.7523" height="149.9075"/>
  <rect class="cls-1" x="2.6894" y="184.7855" width="1616.0385" height="94.9457" rx="40.5438" ry="40.5438"/>
  <rect class="cls-2" x="94.6823" y="379.263" width="101.3363" height="698.3988"/>
  <rect class="cls-2" x="1422.8275" y="381.0675" width="101.3363" height="698.3988"/>
  <path class="cls-6" d="M857.5876,347.8383h-199.9335c-4.5185,0-8.2163-3.6973-8.2163-8.2163v-.0003c.2522-1.314.8502-3.5173,2.4143-5.8029,1.8116-2.6464,4.0176-4.086,5.2325-4.7618,28.7649-11.5389,52.1162-12.9932,68.8686-11.8414,24.0688,1.6548,35.2738,8.6601,63.4491,13.2374,27.5808,4.4809,51.2826,3.1461,68.1854.9523.6678.0157,3.5463.1584,5.802,2.4135,1.4896,1.4893,2.4143,3.5434,2.4143,5.8029v.0003c0,4.5191-3.6967,8.2163-8.2163,8.2163Z"/>
  <ellipse class="cls-6" cx="592.3128" cy="336.7471" rx="13.6941" ry="11.8682"/>
  <path class="cls-7" d="M1351.878,253.6697H57.3303c-11.0463,0-20.0844-9.0381-20.0844-20.0847,0-10.0182,14.0586-17.0647,20.0844-20.0847,71.9993-36.0867,183.0047-16.9223,183.0082-16.9217,88.3574,15.2545,178.9456,11.7348,268.4042,17.8024,74.6161,5.0608,151.2014,10.1141,245.124,9.5857,51.7539-.2913,132.127-.9635,234.1689-12.3245.0036-.0003,294.7619-32.8177,363.8424,1.8581,5.6895,2.8563,20.0856,10.0822,20.0856,20.0847,0,11.0466-9.0381,20.0847-20.0856,20.0847Z"/>
  <path class="cls-9" d="M462.1337,243.4846H79.0641c-4.046,0-7.3555-3.3095-7.3555-7.3546v-3.364c0-4.0451,3.3095-7.3546,7.3555-7.3546,48.3615-11.6647,87.8388-13.8674,114.7139-13.7691,61.9678.2268,91.5379,12.8147,162.9605,16.433,45.0082,2.28,81.8213-.2587,105.3952-2.6639.5991.0142,3.1745.1424,5.1934,2.1604,1.3333,1.333,2.161,3.1719,2.161,5.1943v3.364c0,4.0451-3.3095,7.3546-7.3543,7.3546Z"/>
  <path class="cls-4" d="M94.7059,385.8693c2.5446-.7572,6.2721-1.4632,10.4566-.6181,12.0859,2.441,17.0153,15.605,21.3952,14.1773,3.1212-1.0174-.2996-9.7447,4.1242-13.9198,4.2497-4.0105,13.4725-1.9644,19.0756.7735,21.5456,10.5274,19.3278,45.816,27.0658,46.3989,3.795.286,9.8066-7.7898,19.2946-46.8118v-3.3027h-101.4119v3.3027Z"/>
  <path class="cls-4" d="M1422.8257,385.8066c19.1444,8.8346,32.6462,8.1796,41.5814,5.7865,10.8192-2.8978,19.306-9.5092,24.2725-5.7983,5.4419,4.0659,1.7628,16.8773,4.1316,17.3904,3.4206.7405,10.5822-18.138,13.2001-17.3907,3.5835,1.0231-12.846,36.0031,1.9675,60.2939,4.4144,7.2369,16.1817,21.0371,16.1817,21.0374,0-.0054.0525-28.1771.1495-81.3313v-3.3005c-33.8622.0192-67.7258.038-101.588.0572.035,1.085.0687,2.1704.1037,3.2554Z"/>
  <path class="cls-4" d="M94.6822,1077.662c34.5255-.032,69.0521-.0633,103.5776-.0953V382.5198h-8.8522c4.3503,43.4185-.5494,76.8869-5.8932,99.5458-10.7941,45.7731-31.898,83.4745-14.7501,104.1128,7.3188,8.8084,14.0408,5.4036,20.6433,15.0041,11.4702,16.6772-4.0626,33.8582-9.6882,76.2898-4.4924,33.8825,3.4966,37.3791-3.0514,75.7363-4.3112,25.2529-6.8606,24.6106-6.8475,36.9742.0308,29.4996,13.18,34.0157,19.5871,64.362,6.5172,30.8678-5.12,35.5154-3.1544,99.9673.6986,22.9126,2.1432,21.465,1.37,28.7572-2.9827,28.1261-33.2325,39.1043-28.9946,51.7935,2.7625,8.2708,15.6986,7.7427,16.2136,12.569.6145,5.7552-16.8886,14.8804-80.16,30.0301Z"/>
  <path class="cls-4" d="M1422.8306,1079.4197c33.7783.0154,67.5554.0314,101.3338.0468-68.0729-30.7927-85.5795-61.159-88.7813-83.4156-2.6701-18.5623,5.146-27.7602,7.3034-64.134,1.8448-31.0964-2.5896-45.9306-6.8475-80.7953-7.4124-60.6907,1.3948-53.6295-4.5646-141.0491-4.1585-61.0039-9.1719-75.059.4085-102.7061,8.0328-23.1808,17.6452-29.5878,19.22-52.0375,2.0568-29.33-11.0747-45.3486-19.1715-73.948-5.9903-21.161-10.2139-52.7026-.0485-95.7159h-8.8522v693.7547Z"/>
  <path class="cls-6" d="M1288.7795,328.2918c.2451,3.7485-76.0891,16.4327-163.7586,16.4327-90.4414,0-163.7586-7.3573-163.7586-16.4327,0-8.5615,81.0942-27.0717,163.7586-16.433,26.6786,3.4335,48.1566,9.2139,95.7449,12.781,43.8087,3.2838,67.8763,1.5532,68.0137,3.652Z"/>
  <path class="cls-3" d="M1250.5182,329.2047c.1445,1.4899-58.3883,12.8319-127.8738,12.8319-70.6222,0-127.8738-5.7452-127.8738-12.8319,0-6.7608,63.172-25.1576,127.8738-12.8319,23.2281,4.4249,45.2817,12.5504,85.3404,13.7448,25.3192.7549,42.4553-1.7175,42.5334-.9129Z"/>
  <path class="cls-8" d="M1174.6129,332.4863c.079,2.1188-35.7475,7.4614-76.7101,6.33-42.237-1.1666-76.3725-5.8921-76.2437-10.5547.1224-4.4329,38.5375-12.2915,76.7101-6.3298,11.6245,1.8154,19.6033,4.3475,40.485,6.9085,23.5052,2.8827,35.7129,2.4116,35.7587,3.6459Z"/>
  <path class="cls-6" d="M137.743,768.72c-3.7354.3976-19.5185-75.3566-23.0896-162.9533-3.684-90.3663.6806-163.9224,9.7485-164.292,8.5544-.3487,30.3525,79.9242,23.0899,162.9533-2.344,26.7963-7.2447,48.492-8.8703,96.1861-1.4965,43.9061,1.2129,67.8833-.8785,68.106Z"/>
  <path class="cls-3" d="M135.2723,730.5277c-1.4828.205-15.1996-57.8171-18.0301-127.245-2.8767-70.5636.5316-128.0017,7.6124-128.2903,6.7552-.2754,27.71,62.0948,18.0301,127.245-3.4751,23.3891-10.6955,45.7553-10.2572,85.8294.2771,25.329,3.4455,42.3501,2.6447,42.4609Z"/>
  <path class="cls-5" d="M1443.0743,777.4074c4.4809-24.1747,11.7441-34.2022,18.5025-75.3765,8.8747-54.069,3.8353-82.3761,9.2437-83.2753,8.804-1.4637,37.4234,71.0666,40.9907,155.7564,3.6572,86.8216-8.7659,157.8523-27.747,158.6518-18.6798.7868-54.8161-81.1678-40.9899-155.7565Z"/>
  <path class="cls-6" d="M1478.2274,663.1679c2.6064-.2774,13.6193,52.5813,16.1111,113.7033,2.5706,63.0546-.4749,114.3795-6.8022,114.6374-5.969.2433-21.179-55.7684-16.1114-113.7033,1.6355-18.6975,5.0551-33.8361,6.1894-67.1154,1.0442-30.6362-.8464-47.3667.613-47.5221Z"/>
  <path class="cls-3" d="M1479.9514,689.8172c1.0346-.1431,10.6058,40.3428,12.5808,88.7872,2.0073,49.2369-.3709,89.3153-5.3117,89.5167-4.7136.1922-19.3351-43.3276-12.5808-88.7872,2.4248-16.3201,7.4629-31.9265,7.1571-59.8889-.1934-17.6737-2.4041-29.5505-1.8454-29.6278Z"/>
  <ellipse class="cls-6" cx="1493.2781" cy="530.5078" rx="12.7812" ry="24.6494"/>
  <ellipse class="cls-5" cx="831.3969" cy="785.2179" rx=".9129" ry="1.8259"/>
  <ellipse class="cls-6" cx="145.7793" cy="888.3801" rx="10.9553" ry="17.3459"/>
  <ellipse class="cls-6" cx="166.7769" cy="961.4153" rx="10.0423" ry="8.2165"/>
  <ellipse class="cls-3" cx="1493.7346" cy="534.3307" rx="10.7989" ry="20.8264"/>
  <path class="cls-6" d="M86.75,347.2164c12.2671,21.939,63.275,11.924,63.3662,14.1693.0947,2.3267-54.5116,17.1304-70.2966-7.3034-4.689-7.2581-4.5919-15.872-4.5646-18.2588.2108-18.6475,14.608-33.3082,17.3456-31.9528,3.4291,1.6983-15.1551,26.7052-5.8506,43.3457Z"/>
  <path class="cls-6" d="M89.8483,346.0652c12.2671,21.939,63.275,11.924,63.3662,14.1693.0947,2.3267-54.5116,17.1304-70.2966-7.3034-4.689-7.2581-4.5919-15.872-4.5646-18.2588.2108-18.6475,14.608-33.3082,17.3456-31.9528,3.4291,1.6983-15.1551,26.7052-5.8506,43.3457Z"/>
  <path class="cls-9" d="M1574.6958,242.1743c0,15.3507-25.7739,26.4181-31.0395,21.9106-4.1099-3.5182,5.255-15.7009,0-21.9106-6.7327-7.9567-28.817,4.1194-31.0395,0-2.0354-3.7725,12.26-21.9106,31.0395-21.9106,17.1431,0,31.0395,9.8095,31.0395,21.9106Z"/>
  <path class="cls-3" d="M758.4787,341.7465h-85.981c-1.8709-.3665-3.2917-1.8152-3.5345-3.5336-.2972-2.1071,1.2243-4.2837,3.5878-4.7739,11.9604-4.6866,21.8593-5.3858,29.3179-4.8618,10.3761.7288,15.1906,3.7275,27.2872,5.6928,11.861,1.9271,22.0535,1.3531,29.3226.4094.2877.0068,1.5251.0684,2.496,1.0381.6406.6403,1.0384,1.5236,1.0384,2.4955,0,1.9437-1.5902,3.5336-3.5345,3.5336Z"/>
  <ellipse class="cls-3" cx="591.9329" cy="338.53" rx="6.8954" ry="5.7354"/>
  <ellipse class="cls-6" cx="142.3182" cy="338.9623" rx="5.2494" ry="4.3365"/>
  <ellipse class="cls-6" cx="423.2754" cy="286.4683" rx="88.3269" ry="4.7929"/>
  <path class="cls-6" d="M1550.1113,343.3807c-12.2671,21.939-63.275,11.924-63.3662,14.1693-.0947,2.3267,54.5116,17.1304,70.2966-7.3034,4.689-7.2581,4.5919-15.872,4.5646-18.2588-.2108-18.6475-14.608-33.3082-17.3456-31.9528-3.4291,1.6983,15.1551,26.7052,5.8506,43.3457Z"/>
  <ellipse class="cls-6" cx="1471.2729" cy="334.6259" rx="21.397" ry="4.1082"/>
  <path class="cls-4" d="M1422.9994,384.3326H196.1905v-1.8045c-25.3606,5.6793-30.9103,5.9927-31.1433,5.1743-.5239-1.8433,25.3283-11.5912,51.1253-18.2586,6.1476-1.5891,19.9497-4.9824,35.6048-7.3034,30.0834-4.4609,57.4372-3.5428,105.216-.6848,73.7831,4.4131,93.7961,6.8704,134.2032,5.4776,53.6719-1.8503,62.5384-7.8508,115.0292-10.9552,72.8364-4.3077,141.0309,4.54,149.2658,5.4776,58.2937,6.6361,77.9255,14.4017,109.7812,3.4236,11.4252-3.9377,26.5013-11.0027,49.2992-11.8683,26.2252-.9959,45.8679,6.8502,52.037,9.1295,43.355,16.0157,108.2123,10.8488,230.0611,1.141,68.5782-5.4635,142.6213-15.2713,167.7516.913,2.7257,1.754,19.4178,13.1772,30.5844,7.3034,5.5779-2.9344,5.9833-8.2952,10.9552-8.6729,7.2249-.5491,16.1076,9.9779,16.9681,19.9823.0539.6282.0673,1.1551.07,1.5254Z"/>
</svg>