<?xml version="1.0" encoding="UTF-8"?>
<svg id="Layer_1" data-name="Layer 1" xmlns="http://www.w3.org/2000/svg" viewBox="0 0 1621.4173 1264.252">
  <defs>
    <style>
      .cls-1 {
        fill: #422113;
      }

      .cls-2 {
        fill: #612f15;
      }

      .cls-3 {
        fill: #a46939;
      }

      .cls-4 {
        fill: #3e1d11;
      }

      .cls-5 {
        fill: #482818;
      }

      .cls-6 {
        fill: #784626;
      }

      .cls-7 {
        fill: #563020;
      }

      .cls-8 {
        fill: #f2dbd0;
      }

      .cls-9 {
        fill: #7b4732;
      }
    </style>
  </defs>
  <rect class="cls-2" x="448.5539" y="476.7722" width="674.7697" height="65.5241"/>
  <rect class="cls-1" x="430.3912" y="455.8786" width="706.3658" height="41.5005" rx="17.7216" ry="17.7216"/>
  <rect class="cls-2" x="470.601" y="540.8841" width="44.2938" height="305.2681"/>
  <rect class="cls-2" x="1051.1295" y="541.6729" width="44.2938" height="305.2681"/>
  <path class="cls-6" d="M804.0647,527.1485h-87.3903c-1.975,0-3.5913-1.6161-3.5913-3.5913h0c.1102-.5745.3716-1.5375,1.0553-2.5366.7919-1.1567,1.7561-1.786,2.2871-2.0814,12.5731-5.0436,22.7798-5.6793,30.1023-5.1758,10.5204.7233,15.4181,3.7853,27.7334,5.7861,12.0555,1.9586,22.4155,1.3752,29.8036.4162.2919.0069,1.5501.0692,2.536,1.0549.6511.651,1.0553,1.5488,1.0553,2.5364h0c0,1.9754-1.6158,3.5915-3.5913,3.5915Z"/>
  <ellipse class="cls-6" cx="688.1139" cy="522.3006" rx="5.9856" ry="5.1876"/>
  <path class="cls-7" d="M1020.1177,485.9877H454.2746c-4.8283,0-8.7788-3.9505-8.7788-8.779,0-4.3789,6.145-7.4589,8.7788-8.779,31.4707-15.7734,79.9908-7.3967,79.9924-7.3964,38.6208,6.6677,78.2166,5.1293,117.3187,7.7814,32.6145,2.212,66.0897,4.4209,107.143,4.1899,22.6215-.1273,57.7523-.4212,102.3545-5.387.0016-.0001,128.8396-14.3445,159.0345.8122,2.4869,1.2485,8.7794,4.4069,8.7794,8.779,0,4.8284-3.9505,8.779-8.7794,8.779Z"/>
  <path class="cls-9" d="M631.213,481.5358h-167.4386c-1.7685,0-3.2151-1.4466-3.2151-3.2147v-1.4704c0-1.7681,1.4466-3.2147,3.2151-3.2147,21.1387-5.0986,38.3941-6.0614,50.1411-6.0184,27.0859.0991,40.0109,5.6013,71.2296,7.1828,19.6729.9966,35.7638-.1131,46.0679-1.1644.2619.0062,1.3876.0622,2.27.9443.5828.5826.9445,1.3864.9445,2.2704v1.4704c0,1.7681-1.4466,3.2147-3.2146,3.2147Z"/>
  <path class="cls-4" d="M470.6113,543.7717c1.1122-.331,2.7415-.6396,4.5706-.2702,5.2827,1.0669,7.4373,6.8209,9.3518,6.1969,1.3643-.4447-.1309-4.2594,1.8027-6.0843,1.8575-1.753,5.8888-.8586,8.3379.3381,9.4175,4.6015,8.4481,20.026,11.8304,20.2808,1.6588.125,4.2864-3.4049,8.4336-20.4613v-1.4436h-44.3269v1.4436Z"/>
  <path class="cls-4" d="M1051.1287,543.7443c8.368,3.8616,14.2695,3.5753,18.1751,2.5293,4.729-1.2666,8.4386-4.1564,10.6095-2.5344,2.3787,1.7772.7705,7.377,1.8059,7.6013,1.4951.3237,4.6254-7.928,5.7697-7.6014,1.5663.4472-5.6149,15.7368.86,26.3543,1.9295,3.1632,7.073,9.1952,7.073,9.1954,0-.0024.023-12.3161.0653-35.5497v-1.4426c-14.8011.0084-29.6027.0166-44.4038.025.0153.4743.03.9487.0453,1.4229Z"/>
  <path class="cls-4" d="M470.601,846.1523c15.091-.014,30.1825-.0277,45.2735-.0417v-303.803h-3.8693c1.9015,18.9781-.2401,33.607-2.5759,43.5112-4.7181,20.0073-13.9425,36.4865-6.4472,45.5074,3.199,3.8501,6.1372,2.3619,9.0231,6.5582,5.0136,7.2896-1.7757,14.7993-4.2347,33.3461-1.9636,14.8099,1.5284,16.3383-1.3337,33.1041-1.8844,11.038-2.9987,10.7572-2.993,16.1613.0135,12.8942,5.7609,14.8682,8.5615,28.1324,2.8486,13.4922-2.2379,15.5237-1.3788,43.6954.3054,10.015.9368,9.3823.5988,12.5697-1.3037,12.2938-14.5258,17.0924-12.6735,22.6388,1.2075,3.6151,6.8618,3.3843,7.0869,5.4939.2686,2.5156-7.3819,6.5042-35.0377,13.1261Z"/>
  <path class="cls-4" d="M1051.1308,846.9206c14.7644.0067,29.5283.0137,44.2927.0204-29.7545-13.4594-37.4066-26.7324-38.8061-36.4607-1.1671-8.1135,2.2493-12.1339,3.1923-28.0328.8064-13.5921-1.1319-20.0761-2.993-35.3154-3.2399-26.5277.6097-23.4413-1.9952-61.6521-1.8177-26.6646-4.009-32.8081.1786-44.8925,3.5111-10.1323,7.7127-12.9328,8.401-22.7454.899-12.8201-4.8407-19.8217-8.3798-32.3225-2.6183-9.2494-4.4645-23.0362-.0212-41.8371h-3.8693v303.2382Z"/>
  <path class="cls-6" d="M992.5375,518.6048c.1071,1.6385-33.2583,7.1827-71.5784,7.1827-39.5317,0-71.5784-3.2159-71.5784-7.1827,0-3.7422,35.4461-11.833,71.5784-7.1828,11.6611,1.5008,21.0491,4.0274,41.8498,5.5865,19.1486,1.4353,29.6686.6789,29.7286,1.5963Z"/>
  <path class="cls-3" d="M975.8136,519.0038c.0631.6512-25.5214,5.6088-55.8933,5.6088-30.8688,0-55.8933-2.5112-55.8933-5.6088,0-2.9551,27.6123-10.9963,55.8933-5.6088,10.153,1.9341,19.7925,5.4857,37.302,6.0078,11.067.3299,18.5571-.7507,18.5912-.399Z"/>
  <path class="cls-8" d="M942.6356,520.4382c.0345.9261-15.6251,3.2614-33.5297,2.7668-18.4617-.5099-33.3822-2.5754-33.3259-4.6134.0535-1.9376,16.8446-5.3726,33.5297-2.7667,5.0811.7935,8.5685,1.9003,17.6959,3.0197,10.2741,1.26,15.61,1.0541,15.63,1.5936Z"/>
  <path class="cls-6" d="M489.4227,711.1146c-1.6327.1738-8.5315-32.9382-10.0924-71.2264-1.6103-39.4989.2975-71.65,4.261-71.8116,3.7391-.1524,13.267,34.9346,10.0925,71.2264-1.0245,11.7126-3.1666,21.1957-3.8772,42.0426-.6541,19.1912.5302,29.6716-.384,29.7689Z"/>
  <path class="cls-3" d="M488.3428,694.4209c-.6481.0896-6.6437-25.2717-7.8809-55.6184-1.2574-30.8431.2324-55.9492,3.3274-56.0753,2.9527-.1204,12.1119,27.1414,7.8809,55.6184-1.5189,10.2233-4.675,19.9995-4.4834,37.5158.1211,11.0712,1.506,18.5111,1.156,18.5596Z"/>
  <path class="cls-5" d="M1059.9793,714.9119c1.9586-10.5667,5.1333-14.9497,8.0874-32.9468,3.8791-23.6334,1.6764-36.0063,4.0404-36.3994,3.8482-.6398,16.3577,31.063,17.9169,68.0807,1.5985,37.9495-3.8316,68.9968-12.1282,69.3463-8.1649.3439-23.96-35.4782-17.9166-68.0807Z"/>
  <path class="cls-6" d="M1075.3446,664.9781c1.1393-.1213,5.953,22.9831,7.0421,49.6994,1.1236,27.561-.2076,49.9949-2.9732,50.1077-2.609.1064-9.2573-24.3762-7.0422-49.6994.7149-8.1726,2.2096-14.7896,2.7054-29.3359.4564-13.391-.3699-20.7038.2679-20.7718Z"/>
  <path class="cls-3" d="M1076.0982,676.6265c.4522-.0625,4.6358,17.6337,5.499,38.8086.8774,21.5213-.1621,39.0394-2.3217,39.1275-2.0603.084-8.4513-18.9384-5.499-38.8086,1.0599-7.1335,3.262-13.955,3.1283-26.1773-.0845-7.7251-1.0508-12.9164-.8066-12.9502Z"/>
  <ellipse class="cls-6" cx="1081.9232" cy="606.9928" rx="5.5866" ry="10.7742"/>
  <ellipse class="cls-5" cx="792.6169" cy="718.3259" rx=".399" ry=".7981"/>
  <ellipse class="cls-6" cx="492.9354" cy="763.4177" rx="4.7885" ry="7.5818"/>
  <ellipse class="cls-6" cx="502.1134" cy="795.3412" rx="4.3895" ry="3.5914"/>
  <ellipse class="cls-3" cx="1082.1227" cy="608.6638" rx="4.7202" ry="9.1032"/>
  <path class="cls-6" d="M467.1338,526.8766c5.3619,9.5895,27.6573,5.2119,27.6972,6.1934.0414,1.017-23.8269,7.4877-30.7264-3.1923-2.0495-3.1725-2.0071-6.9376-1.9952-7.9809.0921-8.1508,6.3851-14.5589,7.5817-13.9665,1.4989.7423-6.6242,11.6728-2.5573,18.9463Z"/>
  <path class="cls-6" d="M468.4881,526.3735c5.3619,9.5895,27.6573,5.2119,27.6972,6.1934.0414,1.017-23.8269,7.4877-30.7264-3.1923-2.0495-3.1725-2.0071-6.9376-1.9952-7.9809.0921-8.1508,6.3851-14.5589,7.5817-13.9665,1.4989.7423-6.6242,11.6728-2.5573,18.9463Z"/>
  <path class="cls-9" d="M1117.5106,480.9631c0,6.7098-11.2657,11.5473-13.5673,9.577-1.7964-1.5378,2.2969-6.8628,0-9.577-2.9428-3.4779-12.5958,1.8006-13.5673,0-.8897-1.6489,5.3588-9.577,13.5673-9.577,7.4932,0,13.5673,4.2877,13.5673,9.577Z"/>
  <path class="cls-3" d="M760.7445,524.4858h-37.582c-.8177-.1602-1.4388-.7934-1.5449-1.5445-.1299-.921.5352-1.8724,1.5682-2.0867,5.2279-2.0485,9.5547-2.3541,12.8148-2.1251,4.5354.3186,6.6398,1.6293,11.9271,2.4883,5.1844.8423,9.6395.5914,12.8168.1789.1258.003.6666.0299,1.091.4538.28.2799.4539.666.4539,1.0908,0,.8496-.6951,1.5445-1.5449,1.5445Z"/>
  <ellipse class="cls-3" cx="687.9478" cy="523.0799" rx="3.014" ry="2.5069"/>
  <ellipse class="cls-6" cx="491.4225" cy="523.2688" rx="2.2945" ry="1.8955"/>
  <ellipse class="cls-6" cx="614.2281" cy="500.3238" rx="38.6074" ry="2.095"/>
  <path class="cls-6" d="M1106.7648,525.2001c-5.3619,9.5895-27.6573,5.2119-27.6972,6.1934-.0414,1.017,23.8269,7.4877,30.7264-3.1923,2.0495-3.1725,2.0071-6.9376,1.9952-7.9809-.0921-8.1508-6.3851-14.5589-7.5817-13.9665-1.4989.7423,6.6242,11.6728,2.5573,18.9463Z"/>
  <ellipse class="cls-6" cx="1072.3048" cy="521.3734" rx="9.3526" ry="1.7957"/>
  <path class="cls-4" d="M1051.2046,543.1001h-536.2346v-.7888c-11.0851,2.4824-13.5108,2.6194-13.6126,2.2617-.229-.8057,11.0709-5.0665,22.3467-7.9808,2.6871-.6946,8.72-2.1778,15.5628-3.1923,13.1494-1.9498,25.1056-1.5485,45.9896-.2993,32.2504,1.9289,40.998,3.003,58.6598,2.3942,23.4598-.8088,27.3353-3.4316,50.2789-4.7885,31.8366-1.8829,61.6442,1.9844,65.2437,2.3942,25.48,2.9006,34.061,6.2949,47.985,1.4964,4.9939-1.7212,11.5836-4.8092,21.5485-5.1876,11.463-.4353,20.0487,2.9942,22.7452,3.9905,18.9503,7.0004,47.2993,4.742,100.559.4987,29.9753-2.3881,62.3394-6.6751,73.3238.3991,1.1914.7667,8.4874,5.7597,13.3684,3.1923,2.4381-1.2826,2.6153-3.6258,4.7885-3.7909,3.158-.24,7.0406,4.3613,7.4167,8.7342.0235.2746.0294.5049.0306.6668Z"/>
</svg>