<?xml version="1.0" encoding="UTF-8"?>
<svg id="Layer_1" data-name="Layer 1" xmlns="http://www.w3.org/2000/svg" viewBox="0 0 1621.4173 1264.252">
  <defs>
    <style>
      .cls-1 {
        fill: #6c3c18;
      }

      .cls-2 {
        fill: #381a10;
      }

      .cls-3 {
        fill: #d2d2d2;
      }

      .cls-4 {
        fill: #c7c5c5;
      }

      .cls-5 {
        fill: #b3b3b3;
      }

      .cls-6 {
        fill: #472513;
      }
    </style>
  </defs>
  <path class="cls-1" d="M821.5742,503.2683l-142.5151,247.2842c-4.7279,8.2036-4.2836,17.3189.9924,20.3595,6.3289,3.0667,12.6578,6.1333,18.9867,9.2,1.0974.4793,2.8966,1.1079,5.1173,1.1071,2.2666-.0008,6.5462-1.4544,13.7841-8.2589,16.5946-15.6009,11.8818-37.0001,31.1224-68.1925,9.9113-16.0679,14.1663-15.2604,31.1292-40.8107,7.7379-11.6551,10.3582-17.1035,17.995-30.2361,4.5064-7.7494,19.0016-33.8311,64.4021-111.747"/>
  <path class="cls-1" d="M862.5884,521.9738c.5701-.9893,3.5394-6.2881,3.2553-12.1158-.1796-3.6843-1.6097-6.7234-4.2477-8.2437l-19.7744-11.3964c-5.276-3.0407-13.3857,1.1447-18.1137,9.3483l-2.1336,3.7022"/>
  <path class="cls-3" d="M862.8694,520.8907c-6.9618-1.8073-15.5485-4.577-24.9134-8.8641-5.9899-2.7421-11.4464-5.7151-16.3817-8.7583"/>
  <path class="cls-3" d="M821.5743,503.2683c-11.3825-7.0188-19.9927-14.4113-25.9806-20.2076-6.2211,4.2047-16.0354,12.0193-24.1654,24.8101-10.5491,16.5969-12.6184,32.6925-13.0998,40.6557,9.5724,5.1439,23.2614,12.8109,39.2795,22.913,24.3241,15.3403,36.6729,23.2401,45.8261,34.4955,6.8854,8.4667,17.9766,25.3573,21.1505,53.8834,9.8448-3.3208,41.1521-15.2681,62.4444-48.344,26.5354-41.2208,17.4686-84.1151,15.6111-92.1558-15.148,4.3969-39.6454,9.1055-68.4874,4.0287-4.6194-.8131-8.4719-1.7255-11.2833-2.4567"/>
  <path class="cls-5" d="M933.8113,532.1601c3.5457.557,9.5218,47.321-17.0991,79.902-16.6619,20.3923-41.6145,29.7468-43.5666,27.1095-1.7674-2.3877,16.1832-13.4393,32.7329-37.2652,25.238-36.334,24.886-70.225,27.9328-69.7463Z"/>
  <path class="cls-4" d="M795.5937,483.0607c.9322-.842,12.3118,17.5253,36.8529,30.8021,32.3943,17.5253,63.4273,13.0379,63.3668,15.0241-.058,1.9037-28.6597,9.1417-57.0804-3.3104-30.0603-13.1704-44.2566-41.5065-43.1393-42.5158Z"/>
  <path class="cls-2" d="M786.3034,564.4684l37.8471,24.2735c-5.1857,8.996-10.3713,17.9919-15.557,26.9878,3.3022-5.2608,6.6705-12.5776,4.1287-18.859-1.3944-3.4459-4.0526-5.3078-5.3296-6.2528-5.4226-4.0132-12.8146-11.3854-21.0892-26.1495Z"/>
  <path class="cls-6" d="M864.002,517.688c2.246-.8035,2.7776-6.0046,1.9365-9.5056-.8847-3.6828-3.3905-6.0544-4.5155-7.002-6.4004-3.5772-12.8008-7.1545-19.2011-10.7318-1.0855-.5596-2.8869-1.2854-5.1178-1.2225-3.9787.1121-6.781,2.6609-8.8128,4.5089-1.1381,1.0351-2.673,2.6527-4.0797,4.9941,7.0786-.5657,16.6157-.0736,24.7687,5.5662,8.3259,5.7594,11.8255,14.5363,15.0218,13.3928Z"/>
  <path class="cls-6" d="M788.0754,634.4235c.7605.8096-3.0253,17.8681-11.5239,33.0035-12.2381,21.795-21.092,16.171-35.4191,39.3895-8.8376,14.3222-12.0038,27.0528-12.5721,26.5613-1.02-.8822,8.546-42.4461,24.9572-57.924,6.2653-5.9089,8.161-2.9541,15.6531-10.7589,11.8521-12.3468,18.0695-31.1606,18.9048-30.2714Z"/>
  <path class="cls-6" d="M728.4862,750.5266c.2961.2583.1121,1.0056-.7438,2.8956-2.0946,4.6253-4.5223,9.9862-10.3785,14.6981-1.7205,1.3843-14.0321,11.2631-24.9274,6.7984-6.1142-2.5055-10.1142-8.9185-9.0645-10.3699,1.0969-1.5167,6.6892,3.9393,14.8557,4.075,15.8052.2627,28.5293-19.6056,30.2585-18.0973Z"/>
  <path class="cls-6" d="M821.5743,503.2683c5.588,3.2869,12.0721,6.6837,19.4352,9.8608,7.8841,3.4019,15.271,5.9024,21.8602,7.7616"/>
</svg>