<?xml version="1.0" encoding="UTF-8"?>
<svg id="Layer_1" data-name="Layer 1" xmlns="http://www.w3.org/2000/svg" viewBox="0 0 1621.4173 1264.252">
  <defs>
    <style>
      .cls-1 {
        fill: #6c3c18;
      }

      .cls-2 {
        fill: #381a10;
      }

      .cls-3 {
        fill: #d2d2d2;
      }

      .cls-4 {
        fill: #c7c5c5;
      }

      .cls-5 {
        fill: #b3b3b3;
      }

      .cls-6 {
        fill: #472513;
      }
    </style>
  </defs>
  <path class="cls-1" d="M856.7635,85.9486L252.6976,1134.0899c-20.0397,34.772-18.1563,73.4079,4.2064,86.2961,26.8257,12.9985,53.6514,25.9968,80.4771,38.9953,4.6514,2.0316,12.2777,4.696,21.6901,4.6925,9.6074-.0035,27.7469-6.1646,58.4256-35.0064,70.3378-66.1262,50.3622-156.8288,131.9158-289.0415,42.0101-68.1057,60.0453-64.6829,131.9444-172.9805,32.7979-49.4014,43.9042-72.495,76.2739-128.1591,19.1011-32.8468,80.5403-143.397,272.9754-473.6521"/>
  <path class="cls-1" d="M1030.6065,165.234c2.4165-4.1931,15.0021-26.6529,13.7979-51.3543-.7613-15.6165-6.8228-28.4977-18.0043-34.9418l-83.8161-48.305c-22.3629-12.8883-56.7369,4.8518-76.7767,39.6237l-9.0436,15.692"/>
  <path class="cls-3" d="M1031.7978,160.6431c-29.5081-7.6604-65.9041-19.4001-105.5982-37.5714-25.389-11.6227-48.517-24.2239-69.4358-37.123"/>
  <path class="cls-3" d="M856.7638,85.9486c-48.246-29.7499-84.7412-61.084-110.1215-85.652-26.3687,17.8221-67.9679,50.945-102.4276,105.1605-44.7135,70.3476-53.4846,138.5709-55.5249,172.3237,40.5735,21.8031,98.5958,54.3006,166.4906,97.1193,103.1003,65.0214,155.442,98.5059,194.2389,146.213,29.1844,35.887,76.1959,107.4795,89.6487,228.3908,41.7282-14.0757,174.4277-64.7155,264.6772-204.9115,112.4731-174.7189,74.0426-356.5312,66.1694-390.6123-64.2065,18.6367-168.0412,38.5948-290.2913,17.076-19.58-3.4465-35.9092-7.3138-47.8255-10.413"/>
  <path class="cls-5" d="M1332.4926,208.4098c15.0289,2.361,40.359,200.5752-72.4766,338.6732-70.6231,86.4348-176.3878,126.085-184.6617,114.9068-7.4912-10.1207,68.5943-56.9638,138.7421-157.9525,106.9741-154.0057,105.4821-297.6562,118.3962-295.6274Z"/>
  <path class="cls-4" d="M746.6422.2966c3.951-3.569,52.1848,74.283,156.2052,130.5579,137.3067,74.283,268.8437,55.2626,268.5872,63.6812-.2457,8.0688-121.4774,38.748-241.9416-14.0314C802.079,124.6802,741.9063,4.5745,746.6422.2966Z"/>
  <path class="cls-2" d="M707.2642,345.3517l160.4192,102.8858c-21.98,38.1304-43.96,76.2605-65.94,114.3909,13.9968-22.2984,28.2738-53.3116,17.4998-79.9361-5.9104-14.6058-17.1775-22.4975-22.59-26.5032-22.9843-17.0104-54.3161-48.2583-89.3889-110.8374Z"/>
  <path class="cls-6" d="M1036.5983,147.0681c9.5197-3.4056,11.773-25.4512,8.2082-40.2907-3.7498-15.6098-14.3712-25.6623-19.1396-29.6788-27.1286-15.1625-54.2575-30.3252-81.3861-45.4877-4.6011-2.3719-12.2365-5.4483-21.6926-5.1818-16.8642.4752-28.7422,11.2786-37.3541,19.1115-4.8238,4.3873-11.3298,11.2435-17.2924,21.1679,30.0034-2.3977,70.4274-.3121,104.9849,23.5929,35.2902,24.4119,50.1235,61.6137,63.6715,56.7668Z"/>
  <path class="cls-6" d="M714.7752,641.8641c3.2236,3.4317-12.8229,75.7359-48.8454,139.8889-51.8725,92.3805-89.4007,68.5426-150.1275,166.9567-37.4589,60.7061-50.8793,114.6664-53.288,112.5829-4.3234-3.7392,36.2231-179.9125,105.7839-245.5171,26.556-25.0456,34.5912-12.5212,66.3472-45.6026,50.2365-52.3334,76.5898-132.0778,80.1299-128.3088Z"/>
  <path class="cls-6" d="M462.2,1133.9798c1.2549,1.0947.4752,4.2622-3.1527,12.2734-8.8783,19.6049-19.1684,42.3278-43.9904,62.2993-7.2924,5.8675-59.4765,47.7399-105.6576,28.8157-25.9156-10.6197-42.8701-37.8019-38.4208-43.9538,4.6495-6.4288,28.353,16.6971,62.9675,17.2725,66.9923,1.1134,120.9246-83.1004,128.2539-76.7072Z"/>
  <path class="cls-6" d="M856.764,85.9487c23.6855,13.932,51.1691,28.3296,82.378,41.7963,33.4176,14.4192,64.7276,25.0182,92.6567,32.8982"/>
</svg>