<?xml version="1.0" encoding="UTF-8"?>
<svg id="Layer_1" data-name="Layer 1" xmlns="http://www.w3.org/2000/svg" viewBox="0 0 1621.4173 1264.252">
  <defs>
    <style>
      .cls-1 {
        fill: #c5c146;
      }

      .cls-2 {
        fill: #639b41;
      }

      .cls-3 {
        fill: #d990be;
      }

      .cls-4 {
        fill: #4e7c39;
      }

      .cls-5 {
        fill: #286f37;
      }

      .cls-6 {
        fill: #7a7931;
      }

      .cls-7 {
        fill: #afb035;
      }

      .cls-8 {
        fill: #385a2b;
      }

      .cls-9 {
        fill: #b5b54b;
      }

      .cls-10 {
        fill: #c0c631;
      }

      .cls-11 {
        fill: #fff;
      }

      .cls-12 {
        fill: #446a32;
      }

      .cls-13 {
        fill: #bdb8bb;
      }

      .cls-14 {
        fill: #baba33;
      }

      .cls-15 {
        fill: none;
        stroke: #287a3c;
        stroke-width: 42.5439px;
      }

      .cls-15, .cls-16 {
        stroke-linecap: round;
        stroke-linejoin: round;
      }

      .cls-17 {
        fill: #eacedb;
      }

      .cls-18 {
        fill: #457738;
      }

      .cls-19 {
        fill: #4a813c;
      }

      .cls-16 {
        fill: #f8c5db;
        stroke: #f8c3db;
        stroke-width: 3.5453px;
      }
    </style>
  </defs>
  <g>
    <path class="cls-14" d="M860.2626,1193.63h-78.8138l-137.9124-99.9971v-259.0832c27.0989-68.3172,91.8314-114.2996,164.1691-116.7651,76.714-2.6149,147.8417,44.1945,176.7301,116.7651,5.0505,82.8257,10.1006,165.6518,15.1512,248.4775l-139.3242,110.6028Z"/>
    <path class="cls-18" d="M1133.0512,1179.3451h238.7456c13.5144-35.9787,2.9195-75.9389-25.3591-98.4347-36.8581-29.3212-82.7244-12.2416-84.5871-11.5119,135.826-161.8101,150.8058-326.3903,89.9259-379.5577-62.9192-54.9482-205.1533,10.5983-218.7253,17.0177v472.4866Z"/>
    <path class="cls-18" d="M488.3661,1179.3451h-238.7456c-13.5144-35.9787-2.9195-75.9389,25.3591-98.4347,36.8581-29.3212,82.7244-12.2416,84.5871-11.5119-135.826-161.8101-150.8058-326.3903-89.9259-379.5577,62.9192-54.9482,205.1533,10.5983,218.7253,17.0177v472.4866Z"/>
    <path class="cls-2" d="M758.4883,134.117h90.0366c43.4413-97.6807,160.6137-143.0419,258.4933-103.4259,93.3191,37.7699,142.9859,142.2128,110.3677,238.4451,14.6909,15.3408,66.0204,72.6704,66.8016,157.523,1.237,134.3201-125.3831,207.991-130.6988,210.968-47.7555,30.6766-155.1996,90.5509-304.9638,98.4518-188.8673,9.9641-325.6871-69.0252-371.7649-98.4518-12.5922-8.0254-115.7687-76.2426-124.8901-202.5294-6.8946-95.4525,44.3544-163.0197,58.0885-180.026-17.8628-80.7738,13.533-161.4332,75.5147-199.7166,82.1485-50.7393,210.7877-22.5714,273.0151,78.7618Z"/>
    <circle class="cls-9" cx="536.339" cy="180.4531" r="127.3016"/>
    <circle class="cls-9" cx="1089.7587" cy="180.4531" r="127.3016"/>
    <circle class="cls-6" cx="536.339" cy="180.4531" r="90.1719"/>
    <circle class="cls-6" cx="1089.7587" cy="180.4531" r="90.1719"/>
    <path class="cls-10" d="M514.1011,427.4447c57.4151,183.5056,203.0357,293.7206,347.3477,270.5935,117.8367-18.8841,219.2178-124.1754,262.6229-270.5935h-609.9706Z"/>
    <rect class="cls-5" x="846.4018" y="280.6851" width="11.7248" height="45.9745" rx="5.8624" ry="5.8624"/>
    <rect class="cls-5" x="792.0884" y="280.6851" width="11.7248" height="45.9745" rx="5.8624" ry="5.8624"/>
    <circle class="cls-11" cx="1133.0512" cy="148.973" r="17.9018"/>
    <circle class="cls-11" cx="475.2165" cy="204.9425" r="13.2606"/>
    <circle class="cls-7" cx="879.2062" cy="632.2947" r="21.7491"/>
    <circle class="cls-7" cx="820.0978" cy="656.7194" r="15.7067"/>
    <circle class="cls-7" cx="866.7325" cy="668.0555" r="7.8533"/>
    <path class="cls-19" d="M649.6991,838.3954v254.2616c69.2157-6.2714,123.3338,35.1754,129.1331,81.0838,5.0436,39.9269-27.8597,72.1547-33.034,77.0793h-177.8502c-10.9818-3.9967-27.3772-11.4734-43.8678-25.5123-19.4898-16.5923-30.2188-34.7786-35.7142-45.9624-22.1202-33.1414-89.4135-143.0184-76.9122-294.2353,10.2214-123.6407,68.3112-208.6675,94.2636-242.4165,42.3496,27.9255,168.0992,102.8854,341.6852,93.4297,137.6467-7.4979,236.3974-64.3179,280.289-93.4297,13.514,22.5231,27.0279,45.0467,40.5419,67.5698,17.0653,54.6154,35.1508,133.2332,36.0371,228.9025.953,102.8322-18.3213,186.8775-36.0371,243.5841-6.4852,11.2713-19.9537,31.2432-44.1616,47.8965-26.0477,17.9188-51.4436,22.9936-64.5235,24.6922-60.8959-1.001-121.7923-2.0025-182.6882-3.0035-3.2047-6.039-24.079-46.9617-5.933-90.6066,16.8632-40.5601,60.5103-66.8371,108.956-64.5529-2.6174-86.7051-5.2345-173.4098-7.8519-260.115-15.7558-13.0968-72.8458-57.3099-158.163-58.0599-89.3689-.7859-149.0885,46.6506-164.1691,59.3946Z"/>
    <path class="cls-3" d="M912.9704,431.0225c24.3698,29.4939-18.9605,141.2349-78.1889,140.7644-34.4843-.2739-57.3385-49.265-79.4734-96.0986-.6924-1.4654-11.8772-25.556-4.8385-31.5327.0009-.0009,1.2256-1.0408,13.1383-3.4203h0s12.0395-5.5058,12.2213-5.5889c22.0492-10.0794,58.951-11.2285,58.9523-11.2285,46.87-1.4598,70.4261-2.2907,78.1889,7.1045Z"/>
    <path class="cls-16" d="M842.7311,439.9845c4.6493,8.9434,13.1833,28.3319,12.3567,54.0697-.7015,21.832-7.8199,38.3256-12.3567,47.0349,4.0054-10.3703,8.6569-26.0442,9.3537-45.5336.8794-24.6044-4.9432-44.1231-9.3537-55.571Z"/>
    <path class="cls-15" d="M491.041,397.9762c92.8216,47.6109,165.7838,53.2054,216.2229,48.9248,71.2415-6.0459,97.5895-31.7954,176.1814-24.4624,63.6506,5.939,81.3932,26.0961,136.1402,24.6022,59.3985-1.6212,107.2544-27.2253,138.81-49.0646"/>
    <circle class="cls-12" cx="722.4085" cy="254.6139" r="21.7491"/>
    <circle class="cls-12" cx="708.9789" cy="196.4318" r="15.7067"/>
    <circle class="cls-12" cx="746.1731" cy="226.7614" r="7.8533"/>
    <circle class="cls-12" cx="921.1286" cy="238.209" r="21.7491"/>
    <circle class="cls-12" cx="934.5582" cy="180.0269" r="15.7067"/>
    <circle class="cls-12" cx="897.364" cy="210.3565" r="7.8533"/>
    <circle class="cls-8" cx="1272.8515" cy="901.95" r="21.7491"/>
    <circle class="cls-8" cx="1259.4218" cy="843.7679" r="15.7067"/>
    <circle class="cls-8" cx="1235.8605" cy="874.0975" r="7.8533"/>
    <circle class="cls-8" cx="381.568" cy="995.1364" r="21.7491"/>
    <circle class="cls-8" cx="353.6339" cy="942.3615" r="15.7067"/>
    <circle class="cls-8" cx="329.663" cy="958.0687" r="7.8533"/>
    <circle class="cls-11" cx="491.4701" cy="232.178" r="6.6303"/>
    <circle class="cls-11" cx="1121.7797" cy="176.8316" r="6.6303"/>
    <circle class="cls-1" cx="903.4289" cy="1027.1033" r="21.7491"/>
    <circle class="cls-1" cx="848.941" cy="1051.5281" r="15.7067"/>
    <circle class="cls-1" cx="895.5756" cy="1062.8642" r="7.8533"/>
    <path class="cls-17" d="M417.1147,430.5306c.0827-57.1115,45.4314-83.8296,47.7741-79.5087,1.8644,3.4392-22.9412,27.6075-25.0094,69.6095-2.4145,49.0281,28.0268,84.2682,25.0094,89.408-3.303,5.6259-47.8559-22.8502-47.7741-79.5087Z"/>
    <path class="cls-4" d="M933.0474,117.1339c5.2864,2.1444,14.1021-38.471,48.4747-63.0979,63.6622-45.6115,161.9425,1.6337,163.1673-2.9407,1.3667-5.1046-118.15-74.6509-179.5155-23.4977-35.0465,29.2139-38.2417,87.0557-32.1265,89.5364Z"/>
    <path class="cls-4" d="M933.0474,117.1339c5.2864,2.1444,14.1021-38.471,48.4747-63.0979,63.6622-45.6115,161.9425,1.6337,163.1673-2.9407,1.3667-5.1046-118.15-74.6509-179.5155-23.4977-35.0465,29.2139-38.2417,87.0557-32.1265,89.5364Z"/>
    <path class="cls-17" d="M1241.0525,439.8604c-.0827-57.1115-45.4314-83.8296-47.7741-79.5087-1.8644,3.4392,22.9412,27.6075,25.0094,69.6095,2.4145,49.0281-28.0268,84.2682-25.0094,89.408,3.303,5.6259,47.8559-22.8502,47.7741-79.5087Z"/>
    <circle class="cls-13" cx="432.8213" cy="526.4455" r="15.7067"/>
    <circle class="cls-13" cx="479.4559" cy="537.7816" r="7.8533"/>
    <circle class="cls-13" cx="1212.4585" cy="539.3477" r="15.7067"/>
    <circle class="cls-13" cx="1165.8239" cy="550.6838" r="7.8533"/>
    <path class="cls-4" d="M687.4459,127.6397c-5.2864,2.1444-14.1021-38.471-48.4747-63.0979-63.6622-45.6115-161.9425,1.6337-163.1673-2.9407-1.3667-5.1046,118.15-74.6509,179.5155-23.4977,35.0465,29.2139,38.2417,87.0557,32.1265,89.5364Z"/>
  </g>
  <path class="cls-4" d="M769.2498,144.2354c-6.6323,16.9745-44.1681,24.9895-60.0407,11.4699-12.9635-11.0415-.6777-28.6305-12.2836-56.5365-16.2002-38.9532-52.1676-52.2589-49.1343-57.4506,2.3279-3.9842,33.9186,7.6818,64.4213,29.873,11.8222,8.6006,66.5138,48.3903,57.0373,72.6441Z"/>
  <path class="cls-4" d="M844.9469,133.9975c6.6323,16.9745,44.1681,24.9895,60.0407,11.4699,12.9635-11.0415.6777-28.6305,12.2836-56.5365,16.2002-38.9532,52.1676-52.2589,49.1343-57.4506-2.3279-3.9842-33.9186,7.6818-64.4213,29.873-11.8222,8.6006-66.5138,48.3903-57.0373,72.6441Z"/>
</svg>