<?xml version="1.0" encoding="UTF-8"?>
<svg id="Layer_1" data-name="Layer 1" xmlns="http://www.w3.org/2000/svg" viewBox="0 0 1621.4173 1264.252">
  <defs>
    <style>
      .cls-1 {
        fill: #c5c146;
      }

      .cls-2 {
        fill: #639b41;
      }

      .cls-3 {
        fill: #d990be;
      }

      .cls-4 {
        fill: #4e7c39;
      }

      .cls-5 {
        fill: #286f37;
      }

      .cls-6 {
        fill: #7a7931;
      }

      .cls-7 {
        fill: #afb035;
      }

      .cls-8 {
        fill: #385a2b;
      }

      .cls-9 {
        fill: #b5b54b;
      }

      .cls-10 {
        fill: #c0c631;
      }

      .cls-11 {
        fill: #fff;
      }

      .cls-12 {
        fill: #446a32;
      }

      .cls-13 {
        fill: #f8c5db;
        stroke: #f8c3db;
        stroke-width: .9577px;
      }

      .cls-13, .cls-14 {
        stroke-linecap: round;
        stroke-linejoin: round;
      }

      .cls-15 {
        fill: #bdb8bb;
      }

      .cls-16 {
        fill: #baba33;
      }

      .cls-14 {
        fill: none;
        stroke: #287a3c;
        stroke-width: 11.4928px;
      }

      .cls-17 {
        fill: #eacedb;
      }

      .cls-18 {
        fill: #457738;
      }

      .cls-19 {
        fill: #4a813c;
      }
    </style>
  </defs>
  <g>
    <path class="cls-16" d="M824.0951,783.8099h-21.2907l-37.2555-27.0131v-69.9884c7.3205-18.4551,24.8072-30.8767,44.3484-31.5428,20.7234-.7064,39.9377,11.9386,47.7416,31.5428,1.3643,22.3744,2.7286,44.7489,4.0929,67.1234l-37.6368,29.8781Z"/>
    <path class="cls-18" d="M897.7858,779.951h64.4944c3.6508-9.7192.7887-20.514-6.8505-26.591-9.9568-7.9208-22.3471-3.3069-22.8502-3.1098,36.6918-43.7111,40.7385-88.1706,24.2924-102.5332-16.9969-14.8436-55.4198,2.863-59.0861,4.5971v127.6368Z"/>
    <path class="cls-18" d="M723.6315,779.951h-64.4944c-3.6508-9.7192-.7887-20.514,6.8505-26.591,9.9568-7.9208,22.3471-3.3069,22.8502-3.1098-36.6918-43.7111-40.7385-88.1706-24.2924-102.5332,16.9969-14.8436,55.4198,2.863,59.0861,4.5971v127.6368Z"/>
    <path class="cls-2" d="M796.6019,497.5946h24.3224c11.7352-26.3873,43.388-38.6411,69.829-27.9393,25.2091,10.2031,38.626,38.4172,29.8146,64.4132,3.9686,4.1441,17.8347,19.6311,18.0457,42.553.3342,36.285-33.8708,56.1864-35.3068,56.9906-12.9006,8.2869-41.9254,24.4613-82.3825,26.5956-51.0203,2.6917-87.9806-18.6464-100.428-26.5956-3.4016-2.168-31.2736-20.5961-33.7376-54.711-1.8625-25.7854,11.9818-44.0379,15.6919-48.632-4.8254-21.8201,3.6558-43.6093,20.3994-53.9511,22.1915-13.7066,56.9419-6.0974,73.7519,21.2766Z"/>
    <circle class="cls-9" cx="736.5908" cy="510.1117" r="34.3891"/>
    <circle class="cls-9" cx="886.0908" cy="510.1117" r="34.3891"/>
    <circle class="cls-6" cx="736.5908" cy="510.1117" r="24.3589"/>
    <circle class="cls-6" cx="886.0908" cy="510.1117" r="24.3589"/>
    <path class="cls-10" d="M730.5835,576.8337c15.51,49.5719,54.8478,79.3453,93.832,73.0977,31.8322-5.1013,59.2192-33.5446,70.9446-73.0977h-164.7766Z"/>
    <rect class="cls-5" x="820.3507" y="537.1883" width="3.1673" height="12.4195" rx="1.5837" ry="1.5837"/>
    <rect class="cls-5" x="805.6786" y="537.1883" width="3.1673" height="12.4195" rx="1.5837" ry="1.5837"/>
    <circle class="cls-11" cx="897.7858" cy="501.6078" r="4.836"/>
    <circle class="cls-11" cx="720.0793" cy="516.7273" r="3.5822"/>
    <circle class="cls-7" cx="829.2125" cy="632.1716" r="5.8753"/>
    <circle class="cls-7" cx="813.245" cy="638.7696" r="4.243"/>
    <circle class="cls-7" cx="825.8428" cy="641.8319" r="2.1215"/>
    <path class="cls-19" d="M767.2138,687.8473v68.6859c18.6978-1.6941,33.3172,9.5022,34.8838,21.9038,1.3625,10.7858-7.526,19.4918-8.9238,20.8221h-48.0442c-2.9666-1.0797-7.3956-3.0994-11.8504-6.8919-5.2649-4.4822-8.1633-9.395-9.6478-12.4162-5.9755-8.9528-24.154-38.6348-20.777-79.4843,2.7612-33.4001,18.4535-56.3691,25.4642-65.486,11.4403,7.5438,45.4101,27.7933,92.3023,25.239,37.1837-2.0255,63.86-17.3747,75.7169-25.239,3.6506,6.0844,7.3013,12.1688,10.9519,18.2532,4.61,14.7537,9.4956,35.9914,9.735,61.8354.2574,27.7789-4.9493,50.4828-9.735,65.8015-1.7519,3.0448-5.3903,8.44-11.9298,12.9387-7.0365,4.8406-13.8969,6.2114-17.4303,6.6703-16.4503-.2704-32.9008-.5409-49.3511-.8114-.8657-1.6314-6.5047-12.6862-1.6027-24.4763,4.5554-10.9568,16.3462-18.0553,29.4332-17.4382-.7071-23.4224-1.414-46.8447-2.1211-70.2671-4.2562-3.5379-19.6785-15.4816-42.7259-15.6842-24.142-.2123-40.2746,12.6021-44.3484,16.0448Z"/>
    <path class="cls-3" d="M838.3335,577.8002c6.5832,7.9674-5.122,38.153-21.1218,38.0259-9.3155-.074-15.4893-13.3084-21.4688-25.9599-.1871-.3959-3.2085-6.9037-1.3071-8.5182.0002-.0002.3311-.2812,3.5492-.9239h0s3.2523-1.4873,3.3014-1.5098c5.9563-2.7228,15.9249-3.0332,15.9253-3.0332,12.6614-.3943,19.0248-.6188,21.1218,1.9192Z"/>
    <path class="cls-13" d="M819.3592,580.2212c1.256,2.416,3.5613,7.6535,3.338,14.6063-.1895,5.8977-2.1125,10.3532-3.338,12.7059,1.082-2.8014,2.3386-7.0355,2.5268-12.3004.2376-6.6466-1.3353-11.9194-2.5268-15.0119Z"/>
    <path class="cls-14" d="M724.3541,568.8731c25.0747,12.8615,44.7846,14.3728,58.4101,13.2165,19.2451-1.6332,26.3627-8.5892,47.5934-6.6082,17.1945,1.6044,21.9874,7.0496,36.7767,6.646,16.0458-.4379,28.9735-7.3546,37.4979-13.2542"/>
    <circle class="cls-12" cx="786.8554" cy="530.1454" r="5.8753"/>
    <circle class="cls-12" cx="783.2275" cy="514.4282" r="4.243"/>
    <circle class="cls-12" cx="793.2751" cy="522.6214" r="2.1215"/>
    <circle class="cls-12" cx="840.5373" cy="525.7138" r="5.8753"/>
    <circle class="cls-12" cx="844.1652" cy="509.9966" r="4.243"/>
    <circle class="cls-12" cx="834.1176" cy="518.1898" r="2.1215"/>
    <circle class="cls-8" cx="935.5512" cy="705.0158" r="5.8753"/>
    <circle class="cls-8" cx="931.9234" cy="689.2986" r="4.243"/>
    <circle class="cls-8" cx="925.5585" cy="697.4918" r="2.1215"/>
    <circle class="cls-8" cx="694.7812" cy="730.1891" r="5.8753"/>
    <circle class="cls-8" cx="687.2352" cy="715.9325" r="4.243"/>
    <circle class="cls-8" cx="680.7597" cy="720.1757" r="2.1215"/>
    <circle class="cls-11" cx="724.47" cy="524.0846" r="1.7911"/>
    <circle class="cls-11" cx="894.7409" cy="509.1334" r="1.7911"/>
    <circle class="cls-1" cx="835.756" cy="738.8246" r="5.8753"/>
    <circle class="cls-1" cx="821.0367" cy="745.4227" r="4.243"/>
    <circle class="cls-1" cx="833.6345" cy="748.485" r="2.1215"/>
    <path class="cls-17" d="M704.3838,577.6673c.0223-15.428,12.2728-22.6456,12.9056-21.4784.5036.9291-6.1973,7.4579-6.756,18.8042-.6522,13.2444,7.5711,22.7641,6.756,24.1525-.8923,1.5198-12.9277-6.1727-12.9056-21.4784Z"/>
    <path class="cls-4" d="M843.7571,493.0068c1.4281.5793,3.8095-10.3925,13.0949-17.0452,17.1976-12.3214,43.7469.4413,44.0778-.7944.3692-1.379-31.9169-20.1661-48.494-6.3476-9.4674,7.8918-10.3305,23.5171-8.6786,24.1872Z"/>
    <path class="cls-4" d="M843.7571,493.0068c1.4281.5793,3.8095-10.3925,13.0949-17.0452,17.1976-12.3214,43.7469.4413,44.0778-.7944.3692-1.379-31.9169-20.1661-48.494-6.3476-9.4674,7.8918-10.3305,23.5171-8.6786,24.1872Z"/>
    <path class="cls-17" d="M926.9611,580.1877c-.0223-15.428-12.2728-22.6456-12.9056-21.4784-.5036.9291,6.1973,7.4579,6.756,18.8042.6522,13.2444-7.5711,22.7641-6.756,24.1525.8923,1.5198,12.9277-6.1727,12.9056-21.4784Z"/>
    <circle class="cls-15" cx="708.6267" cy="603.5776" r="4.243"/>
    <circle class="cls-15" cx="721.2245" cy="606.6399" r="2.1215"/>
    <circle class="cls-15" cx="919.2368" cy="607.063" r="4.243"/>
    <circle class="cls-15" cx="906.639" cy="610.1253" r="2.1215"/>
    <path class="cls-4" d="M777.4107,495.8448c-1.4281.5793-3.8095-10.3925-13.0949-17.0452-17.1976-12.3214-43.7469.4413-44.0778-.7944-.3692-1.379,31.9169-20.1661,48.494-6.3476,9.4674,7.8918,10.3305,23.5171,8.6786,24.1872Z"/>
  </g>
  <path class="cls-4" d="M799.509,500.3279c-1.7917,4.5855-11.9315,6.7506-16.2193,3.0985-3.5019-2.9827-.1831-7.7342-3.3183-15.2727-4.3763-10.5227-14.0925-14.1172-13.2731-15.5196.6289-1.0763,9.1627,2.0752,17.4027,8.0699,3.1936,2.3234,17.9679,13.0721,15.408,19.624Z"/>
  <path class="cls-4" d="M819.9577,497.5623c1.7917,4.5855,11.9315,6.7506,16.2193,3.0985,3.5019-2.9827.1831-7.7342,3.3183-15.2727,4.3763-10.5227,14.0925-14.1172,13.2731-15.5196-.6289-1.0763-9.1627,2.0752-17.4027,8.0699-3.1936,2.3234-17.9679,13.0721-15.408,19.624Z"/>
</svg>