<?xml version="1.0" encoding="UTF-8"?>
<svg id="Layer_1" data-name="Layer 1" xmlns="http://www.w3.org/2000/svg" viewBox="0 0 2367.4471 1514.657">
  <defs>
    <style>
      .cls-1 {
        fill: #898e8c;
      }

      .cls-2 {
        fill: #9da1a3;
      }

      .cls-3 {
        fill: #b8bbbb;
      }
    </style>
  </defs>
  <g>
    <path class="cls-1" d="M756.8615,712.7777c10.1104-37.4364,40.239-65.6187,76.9339-71.9705,47.2008-8.1704,81.0045,23.9785,84.379,27.2993,5.5565-59.9375,45.8999-109.6628,99.2695-124.0868,65.3752-17.6691,139.6772,20.5012,166.2764,91.8241,5.5262-4.3567,52.5844-40.152,114.1599-24.817,65.6989,16.3618,89.7515,76.4441,91.8244,81.8973,29.1474-23.139,68.7045-27.9779,101.7512-12.4091,47.4059,22.3332,54.2448,73.8616,54.598,76.9339,57.4883,7.708,99.1105,59.6784,94.3061,116.6417-4.7013,55.7429-52.45,99.5332-109.1963,99.2693h-806.5647c-90.3416-21.4974-136.1158-111.8511-111.6782-178.6849,18.6765-51.0783,77.821-86.9374,143.9407-81.8973Z"/>
    <path class="cls-2" d="M756.8615,737.3515c10.1104-37.4364,40.239-65.619,76.9339-71.9708,47.2008-8.1704,81.0045,23.9785,84.379,27.2993,5.5565-59.9375,45.8999-109.6628,99.2695-124.0868,65.3752-17.6691,139.6772,20.5012,166.2764,91.8241,5.5262-4.3567,52.5844-40.152,114.1599-24.817,65.6989,16.3618,89.7515,76.4444,91.8244,81.8976,29.1474-23.1392,68.7045-27.9782,101.7512-12.4091,47.4059,22.3332,54.2448,73.8616,54.598,76.9339,57.4883,7.708,99.1105,59.6784,94.3061,116.6417-4.7013,55.7429-52.45,99.5332-109.1963,99.2693h-806.5647c-90.3416-21.4974-136.1158-111.8511-111.6782-178.6849,18.6765-51.0783,77.821-86.9374,143.9407-81.8973Z"/>
    <path class="cls-3" d="M943.2804,677.8266c-4.558-3.8132,16.3552-59.4928,61.8967-74.559,64.1701-21.2291,131.5325,53.296,129.4849,56.7364-1.7593,2.9559-54.6392-46.7736-114.4979-33.8233-48.1292,10.4123-72.5783,55.2477-76.8838,51.6458Z"/>
    <path class="cls-3" d="M802.3426,865.1194c-3.3777-4.9457,44.5993-69.0113,108.1816-66.1166,68.0752,3.0992,109.8704,80.9451,107.7296,83.1339-1.7765,1.8165-33.1779-49.1121-89.3427-58.2219-67.4993-10.9483-123.1368,46.2297-126.5685,41.2046Z"/>
    <path class="cls-3" d="M1528.8385,819.0968c1.2268-2.1657,94.4222,19.0846,94.8156,69.7237.3363,43.233-67.2536,71.3606-69.7179,70.3351-.0221-.0093-.0374-.0157-.0549-.0334-1.194-1.2286,24.8118-19.8893,34.4998-46.518,1.1887-3.2666,5.1444-14.4427,4.1067-26.3918-3.592-41.3543-64.6833-65.2916-63.6493-67.1157Z"/>
  </g>
  <path class="cls-3" d="M767.028,981.1637c-86.8348-10.4459-146.6646-77.7231-136.3028-138.2882,8.5449-49.9448,63.787-89.2742,133.5335-89.6339-52.483,12.3552-91.0949,46.6038-99.0268,89.0601-10.1549,54.3589,31.5343,113.8724,101.7961,138.862Z"/>
  <path class="cls-3" d="M1196.5888,799.0487c5.3334-46.1481,63.5606-71.9551,119.0489-60.2865,45.7583,9.6226,84.1103,43.5639,87.7714,81.5027-13.7276-29.753-46.6712-54.1503-85.6007-62.6933-49.8432-10.9375-101.8882,5.7852-121.2196,41.477Z"/>
</svg>