<?xml version="1.0" encoding="UTF-8"?>
<svg id="Layer_1" data-name="Layer 1" xmlns="http://www.w3.org/2000/svg" viewBox="0 0 1621.4173 1264.252">
  <defs>
    <style>
      .cls-1 {
        fill: #dbdcda;
      }

      .cls-2 {
        fill: #332417;
      }

      .cls-3 {
        fill: #111112;
      }

      .cls-4 {
        fill: #624b3a;
      }

      .cls-5 {
        fill: #e5e5e4;
      }

      .cls-6 {
        fill: #38291a;
      }

      .cls-7 {
        fill: #5b3a24;
      }

      .cls-8 {
        fill: #bababa;
      }

      .cls-9 {
        fill: #1f150f;
      }

      .cls-10 {
        fill: #d1d1cf;
      }

      .cls-11 {
        fill: #342414;
      }

      .cls-12 {
        fill: #472917;
      }

      .cls-13 {
        fill: #e2e2e2;
      }

      .cls-14 {
        fill: #4b3626;
      }

      .cls-15 {
        fill: #22180f;
      }
    </style>
  </defs>
  <g>
    <path class="cls-1" d="M743.1838,561.9347c-8.7085,4.1816-20.4595,11.1876-32.1917,22.9176-7.2736,7.2723-12.8095,14.6302-16.9429,21.0079-9.0609-6.9375-23.744-20.1552-35.5804-42.0157-15.6199-28.8482-17.6047-56.7208-17.7901-69.708-.5466-6.9854.6238-8.957,1.6943-9.549,6.6299-3.6666,22.7662,38.2012,56.759,61.1138,16.7041,11.2592,33.1831,14.8833,44.0518,16.2334Z"/>
    <path class="cls-5" d="M696.4255,587.4207c1.1371-1.9937-6.4717-7.1696-19.9519-25.2488-12.3034-16.5011-15.7759-25.3475-17.8179-24.379-2.6143,1.2399-1.5478,17.9338,6.6017,30.6975,10.3858,16.2661,29.5157,21.8275,31.1681,18.9303Z"/>
    <ellipse class="cls-5" cx="651.5523" cy="517.8235" rx="3.1347" ry="7.0669"/>
  </g>
  <g>
    <path class="cls-1" d="M856.3062,551.3407c9.295,2.0175,22.0925,6.0726,35.7554,14.75,8.4706,5.3798,15.2586,11.2562,20.4922,16.508,7.5592-8.9353,19.4392-25.3461,26.9196-49.5286,9.8715-31.9124,6.597-59.63,4.3485-72.3692-.7726-6.9582-2.2855-8.6072-3.4427-8.9315-7.1667-2.0082-15.1072,42.7538-44.0489,73.2315-14.2219,14.9767-29.6524,22.4365-40.0241,26.3398Z"/>
    <path class="cls-5" d="M936.7936,511.9634c-3.191-1.5151-10.5247,9.9589-16.3804,25.6281-5.8557,15.6691-8.0158,29.5997-4.8248,31.1149,3.191,1.5151,10.5247-9.9589,16.3804-25.6281,5.8557-15.6691,8.0158-29.5997,4.8248-31.1149Z"/>
    <ellipse class="cls-10" cx="930.4542" cy="535.1824" rx=".8664" ry=".9766"/>
    <ellipse class="cls-5" cx="937.9567" cy="490.6255" rx="2.4374" ry="6.2639"/>
  </g>
  <path class="cls-15" d="M665.5402,645.4735c-6.0824,8.7839-13.9653,21.4771-21.2809,37.9044-11.3412,25.4669-21.0701,47.3136-15.4782,63.7538,7.4418,21.8789,41.703,33.2555,83.0176,26.8314,3.6841,3.2022,27.106,22.8814,60.6999,18.7708,37.243-4.5571,55.6478-34.5183,57.7572-38.0892,1.551,2.9523,19.0541,34.904,56.6479,39.6045,33.5266,4.1919,56.6612-16.5872,59.8756-19.5747,10.9179-.2843,53.6854-2.425,66.2087-27.635,12.6483-25.4618-11.7209-62.0427-36.1494-98.7128-11.6679-17.515-23.0187-30.9691-31.3593-40.1154,21.8196,12.668,48.3247,13.0565,66.9694-.6424,11.5744-8.5041,27.9383-27.2524,23.7371-38.5468-4.0186-10.8034-27.6351-16.8898-111.2248,1.9274-11.6035-9.6942-53.4094-42.146-112.8505-38.5469-68.3112,4.1362-110.0531,52.8665-118.5502,63.2328"/>
  <path class="cls-12" d="M977.8864,612.1944c-5.3946-.0072-16.7559-.1884-27.5219-8.3377-2.2721-1.7199-4.0142-3.4135-5.2069-4.6746,3.7791-6.4778,12.8386-19.9845,29.0993-27.9726,28.2375-13.8717,54.7309.4233,58.7947,2.7091-2.9665,6.1922-10.0785,18.9663-23.9297,28.2347-14.7146,9.8462-28.5292,10.0447-31.2355,10.0411Z"/>
  <g>
    <path class="cls-13" d="M789.6333,678.0476c-.5694,13.3362-13.2308,16.2845-32.3638,20.7398-19.133,4.4553-31.7943,7.4036-37.0054-4.5866-7.878-18.1266.1226-73.0377,21.8517-78.0976,21.7291-5.0598,48.3783,41.7828,47.5174,61.9443Z"/>
    <path class="cls-3" d="M769.228,658.0608c3.6456,19.8921-.0669,37.5704-8.2921,39.4858-8.2252,1.9153-17.8485-12.6577-21.4942-32.5498-3.6456-19.8921.0669-37.5704,8.2921-39.4858,8.2252-1.9153,17.8485,12.6577,21.4942,32.5498Z"/>
  </g>
  <g>
    <path class="cls-13" d="M864.7365,674.5184c.5694,13.3362,13.2308,16.2845,32.3638,20.7398,19.133,4.4553,31.7943,7.4036,37.0054-4.5866,7.878-18.1266-.1226-73.0377-21.8517-78.0976-21.7291-5.0598-48.3783,41.7828-47.5174,61.9443Z"/>
    <path class="cls-3" d="M886.2719,654.2504c-3.6456,19.8921.0669,37.5704,8.2921,39.4858s17.8485-12.6577,21.4942-32.5498c3.6456-19.8921-.0669-37.5704-8.2921-39.4858-8.2252-1.9153-17.8485,12.6577-21.4942,32.5498Z"/>
  </g>
  <path class="cls-8" d="M829.6951,792.2098c-7.5717,6.2132-27.2151,20.4432-54.7446,20.3374-6.3824-.0245-51.9487-.8465-66.1293-34.2378-9.2821-21.8565.6506-44.0801,3.1805-49.3624.2397-.4484.6608-1.2157,1.2274-2.1355,4.3025-6.9853,17.5194-23.6213,100.2664-28.0229,3.5083-.1867,26.6098-1.3508,57.2448.1873,37.7685,1.8963,48.1158,5.9484,56.0508,10.5352,5.9511,3.4401,23.5483,13.6122,28.2992,32.7877.253,1.0209,1.0531,4.4397,1.1668,8.7316.656,24.7632-21.8243,43.2582-25.3423,46.1525-22.8125,18.7684-63.3916,17.0077-101.2197-4.9731Z"/>
  <path class="cls-15" d="M675.9381,631.8129c-22.0219,13.7701-47.7147,13.5045-66.9694-.6424-11.5745-8.5041-27.9384-27.2524-23.7372-38.5469,4.0186-10.8034,27.6351-16.8898,111.2248,1.9274"/>
  <path class="cls-12" d="M643.531,635.7958c5.3946-.0072,16.7559-.1884,27.5219-8.3377,2.2721-1.7199,4.0142-3.4135,5.2069-4.6746-3.7791-6.4778-12.8386-19.9845-29.0993-27.9726-28.2375-13.8717-54.7309.4233-58.7947,2.7091,2.9665,6.1922,10.0785,18.9663,23.9297,28.2347,14.7146,9.8462,28.5292,10.0447,31.2355,10.0411Z"/>
  <ellipse class="cls-11" cx="784.2475" cy="773.7822" rx="25.5959" ry="16.6115" transform="translate(-13.8213 1533.3013) rotate(-88.1974)"/>
  <ellipse class="cls-9" cx="786.1072" cy="773.8748" rx="22.6508" ry="14.7002" transform="translate(-12.1126 1535.2498) rotate(-88.1974)"/>
  <ellipse class="cls-11" cx="875.9742" cy="772.8095" rx="16.6115" ry="25.5959" transform="translate(-23.8762 27.9373) rotate(-1.8026)"/>
  <ellipse class="cls-9" cx="874.1145" cy="772.902" rx="14.7002" ry="22.6508" transform="translate(-23.88 27.8788) rotate(-1.8026)"/>
  <path class="cls-10" d="M897.0025,716.0703c-.4755,1.57-28.0457-4.9987-70.5773-3.2306-42.0642,1.7487-68.4483,10.3918-69.0671,8.89-.6824-1.656,30.2381-14.9857,69.5678-16.5075,38.9064-1.5054,70.5934,9.1419,70.0766,10.8481Z"/>
  <path class="cls-2" d="M844.6029,646.6371c2.8882,19.1839,10.7562,39.0051,4.7141,43.4775-4.1314,3.058-18.6694,1.8293-21.2864,1.6082,0,0-.0036-.0003-.0037-.0003-1.5968-.0179-3.9103-.0292-6.6969.0109-15.6649.2257-18.0438,1.6694-20.3165.1221-6.4898-4.4186,1.7102-23.8171,1.9236-42.9378.4853-43.4833-40.598-61.9041-33.1285-84.0804,6.6328-19.6922,43.9388-19.7484,46.3087-19.7264,11.6404.1082,26.3291.2449,34.0834,11.0533,13.4099,18.6918-12.7337,43.0746-5.5978,90.4729Z"/>
  <path class="cls-14" d="M796.5862,553.8564c-2.6549.853-19.9726,6.4172-20.1873,19.2218-.0637,3.7964,1.3673,8.7457,3.7292,10.335,4.7954,3.2268,8.3978-11.9013,20.642-19.5479,11.4971-7.18,20.0198-6.2951,19.6131-8.3755-.4373-2.2364-11.8588-5.4691-23.797-1.6334Z"/>
  <path class="cls-14" d="M848.2483,684.4932c-3.2211,5.602-11.2838,5.1865-11.4703,4.4972-.1529-.5649,5.0568-1.0482,7.6944-5.5514,3.7472-6.3977-.7377-15.719-.0712-15.9707.7232-.2731,7.889,9.9957,3.8472,17.0249Z"/>
  <path class="cls-4" d="M779.6369,575.3847c.2188-6.502,7.8833-11.1591,9.2212-8.9121,1.0745,1.8045-1.6754,8.4903-4.436,12.0988-2.0751,2.7124-3.0181,2.1983-3.2324,2.0607-1.0838-.6959-1.6158-3.3755-1.5528-5.2474Z"/>
  <ellipse class="cls-4" cx="847.7322" cy="677.6541" rx=".674" ry="1.3435" transform="translate(-80.0306 114.519) rotate(-7.3809)"/>
  <path class="cls-10" d="M904.4006,767.5997c.0017,1.9349.0117,13.7396,4.7021,15.7801,6.573,2.8594,22.9255-13.2014,19.6634-23.8509-2.217-7.2377-13.5777-12.2502-19.6634-7.7094-4.7125,3.5162-4.7057,11.5999-4.7021,15.7802Z"/>
  <ellipse class="cls-10" cx="903.0469" cy="658.1566" rx="2.8498" ry="5.6302"/>
  <ellipse class="cls-10" cx="749.0173" cy="658.9098" rx="2.9923" ry="6.8216"/>
  <path class="cls-10" d="M756.7829,640.6158c-.5075.8144-2.4648-.8183-5.2364-.5421-4.573.4557-7.2428,5.6974-7.3966,5.5411-.2204-.2238,5.4246-10.8089,9.7477-9.5163,2.0024.5987,3.4219,3.6563,2.8854,4.5173Z"/>
  <path class="cls-10" d="M901.0077,635.9581c.5075.8144,2.4648-.8183,5.2364-.5421,4.573.4557,7.2428,5.6974,7.3966,5.5411.2204-.2238-5.4246-10.8089-9.7477-9.5163-2.0024.5987-3.4219,3.6563-2.8854,4.5173Z"/>
  <path class="cls-6" d="M661.5884,729.4201c-4.7528-19.1345,1.0311-33.1483-3.772-31.8252-5.7971,1.5972-23.7137,24.626-22.5759,40.6876,1.4356,20.2664,32.7295,22.6776,38.0844,18.4118,3.7573-2.9932-6.9333-7.9367-11.7365-27.2742Z"/>
  <path class="cls-7" d="M1006.0273,572.6717c-.0913,1.6197-16.8259-.224-19.1163,6.9667-.6878,2.1593.4065,3.4731-.5145,4.9538-2.9429,4.7313-19.208.427-19.5717-4.4808-.3067-4.1389,10.6989-8.8431,18.9958-10.2551,11.0855-1.8866,20.275,1.6038,20.2066,2.8154Z"/>
  <ellipse class="cls-7" cx="613.7187" cy="596.6941" rx="1.7761" ry="4.5693" transform="translate(-64.8885 1118.4094) rotate(-81.7474)"/>
  <path class="cls-6" d="M994.5254,709.4195c2.1408,15.4554-3.827,34.4348-12.4686,36.0747-4.214.7996-9.649-2.4128-10.4597-6.5661-1.4099-7.2227,12.4177-10.8729,15.4859-22.973,4.245-16.7411-15.8554-35.0123-14.4165-36.3989,1.4541-1.4012,19.127,10.1401,21.859,29.8632Z"/>
</svg>