<?xml version="1.0" encoding="UTF-8"?>
<svg id="Layer_1" data-name="Layer 1" xmlns="http://www.w3.org/2000/svg" viewBox="0 0 1621.4173 1264.252">
  <defs>
    <style>
      .cls-1 {
        fill: #dbdcda;
      }

      .cls-2 {
        fill: #332417;
      }

      .cls-3 {
        fill: #111112;
      }

      .cls-4 {
        fill: #624b3a;
      }

      .cls-5 {
        fill: #e5e5e4;
      }

      .cls-6 {
        fill: #38291a;
      }

      .cls-7 {
        fill: #5b3a24;
      }

      .cls-8 {
        fill: #bababa;
      }

      .cls-9 {
        fill: #1f150f;
      }

      .cls-10 {
        fill: #d1d1cf;
      }

      .cls-11 {
        fill: #342414;
      }

      .cls-12 {
        fill: #472917;
      }

      .cls-13 {
        fill: #e2e2e2;
      }

      .cls-14 {
        fill: #4b3626;
      }

      .cls-15 {
        fill: #22180f;
      }
    </style>
  </defs>
  <g>
    <path class="cls-1" d="M576.1502,388.3051c-30.2503,14.5254-71.0695,38.8619-111.8231,79.6081-25.2661,25.2616-44.496,50.8203-58.854,72.9744-31.4745-24.0984-82.4786-70.0123-123.5941-145.9483-54.2582-100.2089-61.1528-197.0288-61.7967-242.1419-1.8986-24.2648,2.1669-31.1135,5.8855-33.17,23.0299-12.7366,79.082,132.6979,197.1614,212.2886,58.0242,39.1108,115.2669,51.6995,153.021,56.3892Z"/>
    <path class="cls-5" d="M413.7276,476.8349c3.9498-6.9255-22.4806-24.9046-69.306-87.7058-42.7379-57.319-54.8001-88.0484-61.8933-84.6843-9.0813,4.3071-5.3767,62.296,22.932,106.6328,36.0766,56.5028,102.5276,75.8214,108.2674,65.7573Z"/>
    <ellipse class="cls-5" cx="257.8536" cy="235.0781" rx="10.889" ry="24.5481"/>
  </g>
  <g>
    <path class="cls-1" d="M969.099,351.5054c32.2875,7.008,76.7418,21.0941,124.202,51.2365,29.4241,18.6875,53.0032,39.1003,71.183,57.3432,26.2582-31.0382,67.5253-88.0436,93.5094-172.0454,34.2901-110.8529,22.9159-207.1343,15.1051-251.386-2.6838-24.1705-7.9391-29.8987-11.9588-31.025-24.8948-6.9758-52.4774,148.5121-153.0108,254.3813-49.4022,52.0241-103.0023,77.9367-139.03,91.4954Z"/>
    <path class="cls-5" d="M1248.685,214.7221c-11.0844-5.2631-36.5593,34.594-56.8999,89.0232-20.3405,54.4292-27.8441,102.8194-16.7597,108.0825,11.0844,5.2631,36.5593-34.594,56.8999-89.0232,20.3405-54.4292,27.8441-102.8194,16.7597-108.0825Z"/>
    <ellipse class="cls-10" cx="1226.6641" cy="295.377" rx="3.0095" ry="3.3923"/>
    <ellipse class="cls-5" cx="1252.725" cy="140.6014" rx="8.4667" ry="21.7585"/>
  </g>
  <path class="cls-15" d="M306.4426,678.4909c-21.1283,30.5121-48.5109,74.604-73.9226,131.667-39.3954,88.4633-73.1905,164.3516-53.7661,221.4592,25.8502,75.9998,144.8619,115.5182,288.3749,93.203,12.7972,11.1233,94.1571,79.4821,210.8508,65.2035,129.3695-15.8298,193.3017-119.9048,200.6289-132.3088,5.3877,10.2553,66.1875,121.2448,196.7757,137.5727,116.4601,14.5613,196.8217-57.6183,207.9875-67.996,37.9251-.9875,186.4848-8.4235,229.9866-95.9945,43.9361-88.4456-40.7145-215.5151-125.5707-342.8946-40.5304-60.8413-79.9593-107.5761-108.9314-139.3474,75.7937,44.0044,167.8635,45.3538,232.6288-2.2316,40.2055-29.5403,97.0482-94.6657,82.4545-133.8987-13.9593-37.5274-95.9948-58.6693-386.3573,6.6952-40.3066-33.6745-185.5262-146.4009-392.0043-133.899-237.2901,14.3679-382.2872,183.6404-411.8031,219.6493"/>
  <path class="cls-12" d="M1391.4273,562.8905c-18.7391-.025-58.2042-.6543-95.6017-28.9622-7.8925-5.9743-13.9439-11.8573-18.087-16.2381,13.1275-22.5017,44.5968-69.4193,101.0811-97.1672,98.0876-48.1855,190.1167,1.4704,204.2327,9.4105-10.3047,21.5098-35.0094,65.8823-83.1235,98.0778-51.1135,34.2024-99.1008,34.8917-108.5016,34.8792Z"/>
  <g>
    <path class="cls-13" d="M737.4999,791.6422c-1.978,46.3254-45.9591,56.5668-112.4207,72.043-66.4616,15.4762-110.4427,25.7176-128.544-15.9322-27.3654-62.9656.4259-253.7083,75.9055-271.2844,75.4796-17.5761,168.0497,145.1394,165.0593,215.1736Z"/>
    <path class="cls-3" d="M666.6189,722.2146c12.6637,69.0983-.2323,130.5069-28.804,137.1601-28.5717,6.6532-61.9997-43.9686-74.6634-113.0668-12.6637-69.0983.2323-130.5069,28.804-137.1601,28.5717-6.6532,61.9997,43.9686,74.6634,113.0668Z"/>
  </g>
  <g>
    <path class="cls-13" d="M998.3832,779.3828c1.978,46.3254,45.9591,56.5668,112.4207,72.043,66.4616,15.4762,110.4427,25.7176,128.544-15.9322,27.3654-62.9656-.4259-253.7083-75.9055-271.2844-75.4796-17.5761-168.0497,145.1394-165.0593,215.1736Z"/>
    <path class="cls-3" d="M1073.1898,708.9786c-12.6637,69.0983.2323,130.5069,28.804,137.1601,28.5717,6.6532,61.9997-43.9686,74.6634-113.0668,12.6637-69.0983-.2323-130.5069-28.804-137.1601-28.5717-6.6532-61.9997,43.9686-74.6634,113.0668Z"/>
  </g>
  <path class="cls-8" d="M876.6611,1188.2028c-26.3015,21.5827-94.5361,71.0128-190.1642,70.6453-22.1701-.0852-180.452-2.9406-229.7107-118.9305-32.2427-75.922,2.26-153.1193,11.0481-171.4683.8327-1.5575,2.2955-4.2231,4.2634-7.4181,14.9454-24.2647,60.8564-82.0522,348.2915-97.342,12.1868-.6484,92.4333-4.6922,198.849.6508,131.195,6.5872,167.1378,20.6628,194.7014,36.5958,20.6723,11.9497,81.7988,47.2841,98.302,113.8933.8787,3.5463,3.6582,15.4219,4.0532,30.3306,2.2787,86.0191-75.8102,150.2643-88.0306,160.3181-79.243,65.1949-220.2007,59.079-351.603-17.275Z"/>
  <path class="cls-15" d="M342.5616,631.0383c-76.4966,47.8325-165.7446,46.9099-232.6289-2.2316-40.2058-29.5403-97.0485-94.6657-82.4549-133.8988,13.9594-37.5272,95.995-58.6693,386.3573,6.6952"/>
  <path class="cls-12" d="M229.9902,644.8737c18.7391-.025,58.2042-.6543,95.6017-28.9622,7.8925-5.9743,13.9439-11.8573,18.087-16.2381-13.1275-22.5017-44.5968-69.4193-101.0811-97.1672-98.0876-48.1855-190.1167,1.4704-204.2327,9.4105,10.3047,21.5098,35.0094,65.8823,83.1235,98.0778,51.1135,34.2024,99.1008,34.8917,108.5016,34.8792Z"/>
  <ellipse class="cls-11" cx="718.7914" cy="1124.1915" rx="88.9113" ry="57.7028" transform="translate(-427.4542 1807.2644) rotate(-88.1974)"/>
  <ellipse class="cls-9" cx="725.2515" cy="1124.5131" rx="78.6813" ry="51.0636" transform="translate(-421.5188 1814.0328) rotate(-88.1974)"/>
  <ellipse class="cls-11" cx="1037.419" cy="1120.8126" rx="57.7028" ry="88.9113" transform="translate(-34.7431 33.1879) rotate(-1.8026)"/>
  <ellipse class="cls-9" cx="1030.9589" cy="1121.1342" rx="51.0636" ry="78.6813" transform="translate(-34.7564 32.9849) rotate(-1.8026)"/>
  <path class="cls-10" d="M1110.464,923.7199c-1.6518,5.4535-97.4214-17.3638-245.1615-11.222-146.1167,6.0743-237.766,36.0977-239.9157,30.881-2.3706-5.7525,105.0368-52.0552,241.655-57.3416,135.1475-5.2294,245.2174,31.7557,243.4222,37.6827Z"/>
  <path class="cls-2" d="M928.4457,682.5328c10.0325,66.6384,37.3635,135.4904,16.3752,151.0259-14.3509,10.6226-64.8513,6.3544-73.9416,5.5863-.0003,0-.0125-.0011-.0128-.0011-5.5468-.0622-13.5832-.1013-23.2629.038-54.4146.784-62.6782,5.799-70.5725.424-22.5435-15.3489,5.9406-82.7326,6.6819-149.1514,1.6858-151.0462-141.0235-215.0337-115.0771-292.0667,23.04-68.404,152.6283-68.5994,160.8605-68.5227,40.4346.3759,91.4585.8506,118.3942,38.3955,46.5815,64.9289-44.2324,149.6265-19.4449,314.2722Z"/>
  <path class="cls-14" d="M761.6519,360.244c-9.2221,2.9631-69.3782,22.2912-70.1239,66.7701-.2214,13.1873,4.7496,30.3796,12.9538,35.9002,16.6575,11.209,29.171-41.3411,71.7034-67.9028,39.937-24.9407,69.5419-21.8671,68.1294-29.0937-1.5189-7.7684-41.1936-18.9976-82.6628-5.6738Z"/>
  <path class="cls-14" d="M941.1088,814.0317c-11.1892,19.4593-39.196,18.0161-39.8439,15.6217-.5311-1.9624,17.5657-3.6412,26.7276-19.2835,13.0166-22.2235-2.5624-54.6026-.2475-55.4767,2.5123-.9487,27.4035,34.7217,13.3638,59.1386Z"/>
  <path class="cls-4" d="M702.776,435.0259c.7602-22.5858,27.3838-38.763,32.0315-30.9575,3.7323,6.2681-5.8197,29.4923-15.4091,42.0271-7.2081,9.422-10.4838,7.6361-11.2284,7.1581-3.7646-2.4173-5.6127-11.7255-5.3939-18.2277Z"/>
  <ellipse class="cls-4" cx="939.316" cy="790.2751" rx="2.3412" ry="4.667" transform="translate(-93.7396 127.2175) rotate(-7.3809)"/>
  <path class="cls-10" d="M1136.1626,1102.7155c.0058,6.7213.0406,47.7268,16.3335,54.8146,22.8325,9.9326,79.6352-45.857,68.3039-82.8498-7.7011-25.1411-47.1644-42.553-68.3039-26.7798-16.3697,12.2142-16.3458,40.2943-16.3335,54.815Z"/>
  <ellipse class="cls-10" cx="1131.4605" cy="722.5475" rx="9.8991" ry="19.5573"/>
  <ellipse class="cls-10" cx="596.4137" cy="725.164" rx="10.3941" ry="23.696"/>
  <path class="cls-10" d="M623.3887,661.6168c-1.7627,2.829-8.562-2.8423-18.1896-1.8832-15.8851,1.5829-25.1589,19.7908-25.6934,19.2481-.7656-.7775,18.8434-37.5464,33.8601-33.0564,6.9558,2.0797,11.8864,12.7008,10.0229,15.6915Z"/>
  <path class="cls-10" d="M1124.3768,645.4375c1.7627,2.829,8.562-2.8423,18.1896-1.8832,15.8851,1.5829,25.1589,19.7908,25.6934,19.2481.7656-.7775-18.8434-37.5464-33.8601-33.0564-6.9558,2.0797-11.8864,12.7008-10.0229,15.6915Z"/>
  <path class="cls-6" d="M292.7155,970.0928c-16.5098-66.4666,3.5815-115.146-13.1028-110.5498-20.1371,5.548-82.3733,85.5425-78.4209,141.3349,4.9869,70.3987,113.6912,78.7741,132.2924,63.9562,13.0514-10.3973-24.0838-27.5693-40.7687-94.7413Z"/>
  <path class="cls-7" d="M1489.1793,425.6021c-.3173,5.6264-58.4475-.7782-66.4034,24.2001-2.389,7.5006,1.4121,12.0644-1.787,17.2078-10.2225,16.435-66.722,1.4834-67.9855-15.5649-1.0655-14.3771,37.1645-30.718,65.985-35.6226,38.5071-6.5534,70.4283,5.5711,70.1909,9.7796Z"/>
  <ellipse class="cls-7" cx="126.4326" cy="509.0478" rx="6.1696" ry="15.8722" transform="translate(-395.4918 561.1034) rotate(-81.7474)"/>
  <path class="cls-6" d="M1449.2257,900.6172c7.4364,53.6867-13.2936,119.6148-43.3118,125.3114-14.638,2.7776-33.5172-8.3813-36.3335-22.8084-4.8976-25.0891,43.1348-37.7686,53.7926-79.8004,14.7456-58.153-55.0763-121.6208-50.0781-126.4373,5.0511-4.8675,66.4408,35.2234,75.9307,103.7347Z"/>
</svg>