<?xml version="1.0" encoding="UTF-8"?>
<svg id="Layer_1" data-name="Layer 1" xmlns="http://www.w3.org/2000/svg" viewBox="0 0 1621.4173 1264.252">
  <defs>
    <style>
      .cls-1 {
        fill: #a36f51;
      }

      .cls-2 {
        fill: #68351d;
      }

      .cls-3 {
        fill: #824f20;
      }

      .cls-4 {
        fill: #834e20;
      }
    </style>
  </defs>
  <path class="cls-2" d="M801.7428,749.145h0c.1302-74.4247.2604-148.8486.3905-223.2733-.3346-6.5913,5.1749-11.306,9.9584-10.7147,4.1785.5161,8.0131,5.1062,7.5438,10.7147-5.9642,74.4247-11.9285,148.8486-17.8927,223.2733Z"/>
  <g>
    <path class="cls-3" d="M806.3245,523.5628c-.0234,0-.1377-.042-.1553-.0596-.2061-.1953-.0498-.8428.166-1.3838.5449-1.3691,1.7627-2.9668,3.4023-2.9668,1.7314.0137,2.9521,1.7812,3.4766,3.29.0957.2744.2979.9258.123,1.0664-.0215.0029-.041.0049-.0605.0049-.1562,0-.2588-.1084-.4424-.3018-.4131-.4346-1.1045-1.1611-2.1738-1.3477-.1699-.0303-.3369-.0439-.501-.0439-1.2285,0-2.2939.7676-2.999,1.2744-.3916.2822-.6494.4678-.8359.4678Z"/>
    <path class="cls-4" d="M809.7375,519.2471h.0186c2.5244.0198,3.79,3.9717,3.5215,4.1875-.0078.0063-.0166.0093-.0273.0093-.2227,0-1.0176-1.4016-2.5732-1.6731-.1758-.0308-.3486-.0447-.5186-.0447-1.8857,0-3.3662,1.7415-3.834,1.7415-.0361,0-.0664-.0105-.0898-.033-.4023-.3806,1.0244-4.1875,3.5029-4.1875M809.7375,519.0574c-1.6875,0-2.9346,1.6309-3.4912,3.0273-.1406.3545-.4365,1.2085-.1416,1.4875.0586.0554.1348.085.2197.085.2168,0,.4854-.1931.8906-.4851.6953-.5005,1.7461-1.2566,2.9434-1.2566.1631,0,.3262.0142.4863.042,1.0381.1812,1.7158.894,2.1201,1.3198.2256.2371.3389.3562.4854.3562.043,0,.1123-.0242.1455-.051.0615-.0491.2461-.1978-.0918-1.1704-.5352-1.5388-1.7842-3.3408-3.5459-3.3545-.001,0-.0205-.0002-.0205-.0002h0Z"/>
  </g>
  <g>
    <path class="cls-3" d="M807.1575,628.8372c-2.2822,0-3.6455-19.6592-3.6455-38.665s1.3633-38.665,3.6455-38.665,3.6455,19.6592,3.6455,38.665-1.3633,38.665-3.6455,38.665Z"/>
    <path class="cls-4" d="M807.1575,551.6021c1.9609,0,3.5508,17.2686,3.5508,38.5701s-1.5898,38.5701-3.5508,38.5701-3.5508-17.2683-3.5508-38.5701,1.5898-38.5701,3.5508-38.5701M807.1575,551.4126c-2.4297,0-3.7402,19.9697-3.7402,38.7595s1.3105,38.7595,3.7402,38.7595,3.7402-19.9697,3.7402-38.7595-1.3105-38.7595-3.7402-38.7595h0Z"/>
  </g>
  <path class="cls-1" d="M808.7256,596.4307c0,3.9745,0,18.9397-.9514,18.9822-.7544.0337-2.1842-9.3104-2.1842-18.9822s1.4298-19.016,2.1842-18.9822c.9514.0425.9514,15.0076.9514,18.9822Z"/>
  <ellipse class="cls-1" cx="812.8441" cy="526.1049" rx="2.2213" ry=".5959"/>
  <path class="cls-1" d="M805.2592,669.2431c-.3322,11.7618-1.409,18.7645-1.1378,18.7976.2923.0358,2.0782-8.0341,2.3838-17.9945.3027-9.8667-.9565-18.0121-1.246-17.995-.2555.0152.305,6.3932,0,17.1918Z"/>
  <g>
    <path class="cls-3" d="M813.2571,550.5374c-.0293-.0059-.0684-.0332-.084-.0586-.0537-.085-.0234-.2217.1016-.7334.3281-1.3438,1.0977-4.4893-.0986-7.8105-.167-.4619-.3438-.8525-.5127-1.2236-.3828-.8418-.7139-1.5693-.7939-2.7891-.123-1.8633.4248-3.8398.9941-4.4473.1357-.1455.2744-.2188.4111-.2188,1.0537.0117,1.9385,4.8428,1.8994,8.6426-.0488,4.6553-1.4639,8.6406-1.8926,8.6406-.0068,0-.0176-.001-.0244-.002Z"/>
    <path class="cls-4" d="M813.2747,533.3648h.0029c.9043.009,1.8291,4.5591,1.7881,8.5327-.0508,4.8596-1.542,8.5334-1.7842,8.5334-.001,0-.0029-.0002-.0039-.0005-.2402-.0483,1.5801-4.1475,0-8.533-.5361-1.4871-1.1855-2.2371-1.3008-3.9819-.1445-2.1885.6445-4.5508,1.2979-4.5508M813.2747,533.1485c-.168.0002-.333.085-.4893.2524-.5967.6375-1.1514,2.6094-1.0244,4.5288.082,1.239.4326,2.01.8037,2.8262.1699.3728.3447.7583.5098,1.2148,1.1855,3.291.4209,6.4148.0947,7.7488-.1328.5437-.168.6897-.0879.8171.0322.0498.0957.094.1533.1057h.001c.7109,0,2.0039-4.6311,2.0459-8.7427.0195-1.894-.1836-4.062-.5439-5.7991-.4043-1.9531-.8955-2.9463-1.458-2.9519-.001,0-.0039-.0002-.0049-.0002h0Z"/>
  </g>
  <path class="cls-1" d="M812.5022,537.2388c-.0853-.8182.1302-1.3315.0535-1.3538-.0903-.0261-.5363.6424-.4578,1.3959.0786.7535.653,1.3156.736,1.2714.0704-.0376-.2464-.4953-.3317-1.3135Z"/>
  <circle class="cls-1" cx="814.3916" cy="541.3848" r=".513"/>
</svg>