<?xml version="1.0" encoding="UTF-8"?>
<svg id="Layer_1" data-name="Layer 1" xmlns="http://www.w3.org/2000/svg" viewBox="0 0 1621.4173 1264.252">
  <defs>
    <style>
      .cls-1 {
        fill: #a9845c;
      }

      .cls-2 {
        fill: #997855;
      }

      .cls-3 {
        fill: #a5805b;
      }

      .cls-4 {
        fill: #b28c66;
      }
    </style>
  </defs>
  <g>
    <path class="cls-1" d="M817.5587,867.551c-74.302,120.7306-148.6033,241.4615-222.9053,362.1921-6.5875,6.0209-17.0246,14.0077-31.4129,18.9898-41.003,14.1981-80.4097-7.6643-111.826-25.0932-33.4851-18.5771-91.4515-50.7356-96.1663-104.804-1.3385-15.35,1.9849-28.2198,4.8112-36.3559,78.5203-127.5842,157.04-255.168,235.5603-382.7522,48.353-48.0822,122.8125-56.1614,176.888-21.4224,60.2837,38.7274,81.8116,122.0467,45.051,189.2459Z"/>
    <path class="cls-2" d="M802.3419,704.5664c9.0135,16.5552,19.6731,41.5718,21.2996,72.608,2.2745,43.404-14.6021,70.2744-60.2406,149.9562-73.0155,127.4812-109.5233,191.2216-114.0574,199.8291-15.135,28.7327-34.9834,54.7437-51.3929,82.7685-2.4443,4.1746-9.3595,16.1073-22.1286,28.3984-5.0436,4.8548-9.5803,8.3984-12.5814,10.6064,4.2869-1.3026,9.5286-3.3155,15.1316-6.4965,7.2281-4.1034,12.5856-8.7479,16.2813-12.4933,74.302-120.7306,148.6033-241.4615,222.9053-362.1921,12.7205-20.6696,23.5348-54.995,17.0545-94.4203-5.1474-31.3186-20.7873-54.6018-32.2714-68.5644Z"/>
    <path class="cls-1" d="M1044.0502,168.1772c-172.4358,277.7959-344.8708,555.5916-517.3066,833.3874-20.887,26.8049-12.8118,60.7609,4.4907,70.7593,16.8688,9.7484,49.1596.567,62.836-29.324,51.5537-83.7682,103.1074-167.536,154.6618-251.3043,119.1596-193.618,238.3192-387.2361,357.479-580.8534,3.1447-4.4162,6.5795-7.9236,10.0865-10.7335,37.7139-30.2218,105.4467,2.8605,113.0724,6.6982,13.3442,1.5738,26.3377-4.941,32.8623-16.4423,6.1192-10.787,5.5815-24.2539-1.3713-34.7261-77.65-47.7886-155.3007-95.5771-232.9506-143.3657-14.4642-4.187-29.8907,1.8345-37.3803,14.3571-6.8988,11.5353-5.8003,26.4748,2.8339,37.2511,39.2106,24.9678,62.8755,58.8347,57.1742,88.0987-.9557,4.905-2.8759,10.395-6.488,16.1977Z"/>
    <path class="cls-3" d="M835.4239,650.8615c-.1661-.0965-7.4105,11.7149-21.901,35.3376-34.1491,55.6719-196.0497,326.7508-225.5466,367.2609-1.5682,2.1535-7.65,10.3394-18.3496,16.3089-3.4297,1.9135-15.5893,8.4873-29.1129,5.7719-2.1854-.439-6.4945-1.3494-11.0899-4.4988-3.9203-2.6863-6.3334-5.826-7.6705-7.8799,2.554,2.0847,7.9817,5.9374,15.9091,7.4298,2.6186.4931,12.0776,2.2733,21.0585-2.5287,5.2726-2.8192,9.0056-7.3471,16.4716-16.4026.0018-.0019,1.6892-2.0492,3.0809-3.8704,12.4246-16.262,258.991-395.8567,257.1505-396.9289Z"/>
    <path class="cls-2" d="M802.3419,704.5664l303.8695-493.7242c1.4977-2.1646,2.8765-3.777,3.9184-4.8978.2149-.2308,1.5983-1.7704,3.1203-3.1911,1.4739-1.3756,4.3674-3.8509,9.2878-6.5904,7.304-4.0663,14.8226-6.3481,14.824-6.3484h0c-.0021.0005-11.3059-1.6775-18.8987,1.0445-3.9492,1.4156-8.835,4.7169-13.1728,12.9029-100.9827,166.9344-201.966,333.8697-302.9486,500.8044Z"/>
    <path class="cls-2" d="M1027.8159,12.4263l233.1391,143.0585c2.5326,3.2562,3.7033,6.18,4.3043,8.2222,2.0365,6.9204.888,15.12.8881,15.1423h0c-.0042-.0146-.9199-6.5535-4.3852-11.8713-.9582-1.4704-1.9171-2.5494-2.5475-3.2065-77.1332-50.4486-154.2656-100.8967-231.3988-151.3453Z"/>
    <path class="cls-3" d="M765.7797,616.4741h0s-235.9457,375.8643-245.6845,393.1853c-.337.5993-.6514,1.1887-.6537,1.1931-1.8319,3.445-5.6874,11.6128-6.539,22.28-.3128,3.9146-1.2305,17.7063,6.8671,28.874,1.3083,1.8043,3.9298,5.3437,8.7056,8.2109,4.0739,2.4466,7.9336,3.3349,10.3575,3.6965-2.9587-1.4556-8.7203-4.7871-13.3764-11.3743-1.5383-2.1766-7.0938-10.0363-6.4645-20.2003.3688-5.9684,2.9328-11.2474,8.0597-21.8037.0005-.0015.2902-.5987.7158-1.4487.0022-.0045.7447-1.4889,1.5213-2.9638,1.8814-3.5732,236.1789-399.1438,236.4912-399.649Z"/>
  </g>
  <path class="cls-4" d="M382.1178,1152.6415c1.4596-2.0793,97.9702,89.627,162.5491,59.9696,25.2082-11.576,38.6139-38.4602,42.1396-35.9945,4.0937,2.862-7.7338,43.4692-34.8999,58.2119-61.0975,33.1564-171.3729-79.9292-169.7887-82.187Z"/>
  <ellipse class="cls-4" cx="374.9587" cy="1129.0659" rx="3.9933" ry="12.0209" transform="translate(-144.1741 58.6057) rotate(-7.5005)"/>
  <path class="cls-4" d="M524.7276,1035.5157c-1.5656.059-6.6123,21.345,8.2647,29.3888,14.9096,8.0615,29.8468-7.9796,29.1253-9.1515-.6244-1.0132-13.9233,7.5718-24.5524,2.0372-10.919-5.686-11.4457-22.3271-12.8376-22.2746Z"/>
  <path class="cls-4" d="M1028.7956,91.068c4.1492,4.0903,6.9621,6.8651,10.2285,11.417.9674,1.3488,5.1672,7.2999,8.9054,16.4654,3.3154,8.1308,4.1572,13.6114,4.335,13.581.3099-.0562.9116-17.463-8.8991-31.9977-11.2088-16.6067-33.456-25.6836-33.4623-25.6884,12.1863,9.6076,18.8899,16.2188,18.8925,16.2227Z"/>
  <path class="cls-4" d="M643.3681,689.3569c10.0871-3.7296,18.3462-5.3384,27.7166-7.1648,18.4786-3.6001,34.0837-4.6273,45.0439-4.8682,5.3068-.1228,11.4324-.503,11.5633-1.7433.0717-.6818-1.6906-1.3793-2.3565-1.6439-49.8392-19.7524-88.4791,1.8253-88.4831,1.8272-24.5597,13.7146-37.4302,35.9042-35.8608,37.5791,1.4425,1.5392,15.3196-13.9825,42.3766-23.9861Z"/>
  <ellipse class="cls-4" cx="1057.8503" cy="139.7744" rx="4.4134" ry="2.5551" transform="translate(816.7329 1179.2197) rotate(-84.4671)"/>
  <ellipse class="cls-4" cx="595.8127" cy="745.5633" rx="19.0331" ry="6.0105" transform="translate(-357.0714 799.129) rotate(-54.5876)"/>
  <path class="cls-4" d="M738.7337,661.7451c-2.8411-1.6346-205.8753,340.7921-202.5324,342.8247,2.0847,1.2673,86.0593-128.9169,168.2693-278.3267,14.5853-26.5083,35.194-63.9622,34.2631-64.498Z"/>
  <path class="cls-4" d="M1044.0501,168.1773c-101.9293,164.725-203.8593,329.4502-305.7886,494.1752,3.2763.9539,6.7765,2.1271,10.4396,3.5767,5.637,2.231,10.5886,4.6921,14.8441,7.1064,93.5019-168.2857,187.0029-336.5726,280.5048-504.8582Z"/>
  <ellipse class="cls-4" cx="1227.0151" cy="184.0015" rx="9.2812" ry="17.6307" transform="translate(587.4706 1247.2068) rotate(-67.5005)"/>
  <path class="cls-4" d="M993.5504,56.801c1.9317.6611,1.416-10.6179,9.7981-23.6379,9.2219-14.3231,21.3151-18.49,19.8826-20.1491-1.6417-1.902-20.194.4841-28.4859,13.0588-8.1056,12.2907-3.5187,29.9329-1.1949,30.7282Z"/>
</svg>