<?xml version="1.0" encoding="UTF-8"?>
<svg id="Layer_1" data-name="Layer 1" xmlns="http://www.w3.org/2000/svg" viewBox="0 0 1621.4173 1264.252">
  <defs>
    <style>
      .cls-1 {
        fill: #a9845c;
      }

      .cls-2 {
        fill: #997855;
      }

      .cls-3 {
        fill: #a5805b;
      }

      .cls-4 {
        fill: #b28c66;
      }
    </style>
  </defs>
  <g>
    <path class="cls-1" d="M797.6758,864.7344c70.4239,121.9239,140.847,243.848,211.2708,365.7719,6.3734,6.1603,16.5143,14.379,30.6615,19.7241,40.3156,15.2325,80.0455-5.3813,111.7195-21.8146,33.7597-17.5161,92.2017-47.8377,98.3809-101.3878,1.7543-15.2029-1.1887-28.0724-3.7693-36.2286-74.422-128.8453-148.8434-257.69-223.2653-386.5353-46.674-49.0773-120.3758-59.1618-175.0261-26.1704-60.9246,36.7792-84.607,118.9047-49.972,186.6406Z"/>
    <path class="cls-2" d="M817.2998,703.34c-9.4076,16.1867-20.684,40.7286-23.1589,71.4972-3.4609,43.0297,12.5501,70.1752,55.6534,150.5503,68.9595,128.5904,103.4393,192.8854,107.7024,201.5569,14.2303,28.9461,33.2157,55.3206,48.7309,83.5991,2.3111,4.2123,8.846,16.2511,21.1831,28.8079,4.8729,4.9598,9.2789,8.6036,12.1973,10.879-4.22-1.4121-9.3684-3.5557-14.8431-6.8692-7.0626-4.2743-12.253-9.0339-15.8184-12.8549-70.4239-121.9239-140.847-243.848-211.2708-365.7719-12.0566-20.8739-21.8421-55.2528-14.3159-94.2159,5.9783-30.9514,22.1513-53.6343,33.9399-67.1785Z"/>
    <path class="cls-1" d="M592.1878,164.0989c163.5017,280.5823,327.0028,561.1643,490.5045,841.7466,19.9945,27.1914,11.0362,60.6802-6.4192,70.1275-17.0179,9.211-48.8228-.7992-61.5729-30.8549-48.8628-84.5961-97.7258-169.1918-146.5893-253.7881-112.9401-195.5317-225.8802-391.0634-338.8205-586.5944-2.9998-4.4717-6.3128-8.0491-9.7167-10.936-36.606-31.0502-104.7699-.082-112.4473,3.5169-13.2922,1.1928-26.012-5.6354-32.171-17.2351-5.7764-10.8792-4.8694-24.2347,2.3237-34.4392,78.4174-45.2943,156.8356-90.5885,235.253-135.8828,14.4765-3.7562,29.6256,2.6496,36.7144,15.29,6.5297,11.6438,5.0251,26.4457-3.8458,36.9054-39.6213,23.7022-64.055,56.6706-59.2055,85.8827.8129,4.8963,2.5672,10.4002,5.9926,16.2613Z"/>
    <path class="cls-3" d="M785.9431,649.1035c.1675-.0912,7.0328,11.8362,20.7647,35.6911,32.3616,56.219,185.5899,329.8406,213.7527,370.8776,1.4973,2.1815,7.3087,10.4773,17.7662,16.7005,3.3521,1.9948,15.2424,8.8585,28.7442,6.5373,2.1818-.3753,6.4853-1.1598,11.1351-4.1592,3.9666-2.5584,6.4494-5.6087,7.8339-7.6109-2.5935,1.999-8.089,5.6737-16.0009,6.9357-2.6135.417-12.054,1.9224-20.8374-3.094-5.1567-2.9451-8.7374-7.5439-15.899-16.7414-.0017-.0019-1.6203-2.0813-2.9515-3.928-11.8849-16.4896-246.1649-400.1951-244.3079-401.2086Z"/>
    <path class="cls-2" d="M817.2998,703.34l-288.0097-498.6044c-1.427-2.1906-2.7512-3.8296-3.7546-4.9712-.2069-.2351-1.5378-1.802-3.0095-3.2547-1.4252-1.4066-4.2294-3.9443-9.0386-6.8005-7.1389-4.2395-14.5405-6.7133-14.5418-6.7136h0c.0021.0006,11.2714-1.3522,18.7342,1.5607,3.8816,1.5149,8.6409,4.9279,12.7208,13.1754,95.633,168.5357,191.2664,337.0723,286.8993,505.6083Z"/>
    <path class="cls-2" d="M612.6215,9.9146l-235.4316,135.5725c-2.6046,3.1627-3.848,6.0331-4.5012,8.044-2.2137,6.8144-1.3006,14.987-1.3014,15.0092h0c.0046-.0144,1.0949-6.481,4.6827-11.6646.9921-1.4333,1.974-2.478,2.6181-3.1129,77.9781-47.9496,155.9553-95.8986,233.9334-143.8482Z"/>
    <path class="cls-3" d="M856.0409,616.8925h0s223.8388,379.7074,233.0278,397.1741c.3179.6043.6138,1.1982.6159,1.2027,1.7233,3.4711,5.3248,11.6871,5.8748,22.3015.2021,3.8952.731,17.6134-7.6179,28.4767-1.3489,1.7551-4.0497,5.1965-8.8707,7.9108-4.1125,2.3162-7.9691,3.0911-10.3857,3.383,2.9778-1.3632,8.7904-4.5111,13.5957-10.9221,1.5876-2.1183,7.321-9.7677,6.9779-19.8764-.2008-5.9358-2.6001-11.248-7.3977-21.8707-.0005-.0015-.2715-.6025-.6705-1.4582-.0021-.0045-.6981-1.4989-1.4283-2.9847-1.7689-3.5997-223.4253-402.8265-223.7213-403.3367Z"/>
  </g>
  <path class="cls-4" d="M1222.0948,1159.8468c-1.3915-2.1048-99.7513,86.2697-163.0454,55.0354-24.7067-12.1915-37.2713-39.2544-40.84-36.9041-4.1436,2.728,6.4738,43.3718,33.0367,58.7616,59.7407,34.6116,172.359-74.6074,170.8487-76.8929Z"/>
  <ellipse class="cls-4" cx="1229.8559" cy="1136.6386" rx="11.9394" ry="3.9662" transform="translate(-86.9739 2171.2651) rotate(-80.9008)"/>
  <path class="cls-4" d="M1083.7531,1039.6091c1.5528.1019,5.9734,21.3751-9.0198,28.9491-15.0261,7.5906-29.4117-8.7495-28.6629-9.8929.648-.9886,13.6137,7.9034,24.3199,2.7029,10.9982-5.3427,11.9824-21.8499,13.3627-21.7591Z"/>
  <path class="cls-4" d="M609.4697,87.9653c-4.2328,3.946-7.1024,6.623-10.4715,11.0517-.9978,1.3123-5.3324,7.1044-9.2978,16.1006-3.517,7.9807-4.5046,13.3986-4.6802,13.3635-.3061-.0644-.4212-17.3631,9.722-31.5216,11.5886-16.177,33.9279-24.5724,33.9342-24.577-12.3651,9.201-19.2039,15.5791-19.2066,15.5828Z"/>
  <path class="cls-4" d="M975.5552,692.6447c-9.9114-3.9823-18.0667-5.8085-27.3193-7.8814-18.2464-4.0863-33.7111-5.5386-44.5861-6.0814-5.2654-.269-11.3365-.8161-11.4321-2.0512-.0523-.6789,1.7167-1.3226,2.3852-1.5668,50.0292-18.2298,87.7942,4.2639,87.798,4.2659,24.0035,14.2968,36.167,36.684,34.5624,38.3033-1.4748,1.4882-14.8223-14.3068-41.4081-24.9884Z"/>
  <ellipse class="cls-4" cx="579.2737" cy="135.5174" rx="2.5378" ry="4.3835" transform="translate(-7.9328 40.0632) rotate(-3.9341)"/>
  <ellipse class="cls-4" cx="1021.2122" cy="749.7659" rx="5.9697" ry="18.904" transform="translate(-244.5039 695.1214) rotate(-33.8137)"/>
  <path class="cls-4" d="M881.6385,662.5884c2.866-1.5442,194.9558,344.0534,191.5806,345.9788-2.1049,1.2005-81.87-130.3773-159.3504-280.9939-13.7462-26.7224-33.1693-64.4788-32.2302-64.985Z"/>
  <path class="cls-4" d="M592.188,164.0991c96.634,166.3684,193.2686,332.7369,289.9026,499.1054-3.2793.8563-6.7869,1.9241-10.4639,3.2617-5.6584,2.0588-10.6427,4.365-14.9346,6.6441-88.1683-169.67-176.3358-339.3412-264.5041-509.0112Z"/>
  <ellipse class="cls-4" cx="410.0963" cy="174.7399" rx="17.5111" ry="9.2183" transform="translate(-35.3541 157.8002) rotate(-20.9008)"/>
  <path class="cls-4" d="M645.4118,54.9207c-1.9361.6029-1.1116-10.581-9.0729-23.7399-8.7589-14.476-20.6499-18.9481-19.1818-20.5556,1.6827-1.8428,20.0358,1.0402,27.9198,13.7545,7.7069,12.4272,2.664,29.8158.3349,30.541Z"/>
</svg>