<?xml version="1.0" encoding="UTF-8"?>
<svg id="Layer_1" data-name="Layer 1" xmlns="http://www.w3.org/2000/svg" viewBox="0 0 1621.4173 1264.252">
  <defs>
    <style>
      .cls-1 {
        fill: #a9845c;
      }

      .cls-2 {
        fill: #997855;
      }

      .cls-3 {
        fill: #a5805b;
      }

      .cls-4 {
        fill: #b28c66;
      }
    </style>
  </defs>
  <g>
    <path class="cls-1" d="M806.2913,710.9663c23.8695,41.3249,47.7387,82.6498,71.6081,123.9747,2.1602,2.088,5.5974,4.8736,10.3924,6.6853,13.6646,5.1629,27.1306-1.8239,37.8662-7.3938,11.4425-5.9369,31.2508-16.2141,33.3452-34.3644.5946-5.1529-.4029-9.5149-1.2776-12.2793-25.2246-43.6708-50.449-87.3414-75.6736-131.0123-15.8197-16.6343-40.8002-20.0523-59.3233-8.8702-20.6498,12.466-28.6767,40.3016-16.9375,63.26Z"/>
    <path class="cls-2" d="M812.9427,656.2633c-3.1886,5.4863-7.0106,13.8045-7.8495,24.2333-1.173,14.5845,4.2537,23.7852,18.8632,51.0275,23.3731,43.5844,35.0597,65.3766,36.5046,68.3157,4.8232,9.811,11.2581,18.7504,16.5169,28.3351.7833,1.4277,2.9983,5.5082,7.1798,9.7642,1.6516,1.6811,3.145,2.9161,4.1342,3.6873-1.4303-.4786-3.1753-1.2052-5.0309-2.3283-2.3938-1.4487-4.153-3.0619-5.3615-4.357-23.8695-41.3249-47.7387-82.6498-71.6081-123.9747-4.0865-7.075-7.4032-18.7274-4.8522-31.9335,2.0263-10.4907,7.508-18.1788,11.5036-22.7695Z"/>
    <path class="cls-1" d="M736.6432,473.4929c55.4173,95.1006,110.8343,190.201,166.2516,285.3016,6.7769,9.2163,3.7406,20.567-2.1757,23.769-5.7681,3.122-16.548-.2709-20.8695-10.458-16.5616-28.673-33.1232-57.3459-49.685-86.0189-38.2799-66.2735-76.5598-132.547-114.8398-198.8203-1.0167-1.5156-2.1397-2.7282-3.2934-3.7067-12.4072-10.5241-35.5107-.0278-38.1129,1.192-4.5052.4043-8.8165-1.9101-10.904-5.8417-1.9579-3.6874-1.6504-8.2141.7876-11.6728,26.5788-15.3521,53.1579-30.7041,79.7367-46.0561,4.9067-1.2731,10.0413.8981,12.444,5.1824,2.2132,3.9465,1.7032,8.9635-1.3035,12.5087-13.4292,8.0336-21.7108,19.2079-20.0671,29.1091.2755,1.6595.8701,3.525,2.0311,5.5116Z"/>
    <path class="cls-3" d="M802.3146,637.8803c.0568-.0309,2.3837,4.0118,7.038,12.0971,10.9686,19.0549,62.9038,111.7962,72.4493,125.7052.5075.7394,2.4772,3.5512,6.0217,5.6605,1.1362.6761,5.1662,3.0025,9.7426,2.2157.7395-.1272,2.1981-.3931,3.7741-1.4097,1.3444-.8671,2.186-1.901,2.6552-2.5796-.879.6775-2.7417,1.923-5.4234,2.3508-.8858.1413-4.0856.6516-7.0626-1.0487-1.7478-.9982-2.9615-2.5569-5.3888-5.6743-.0006-.0007-.5492-.7054-1.0004-1.3313-4.0283-5.589-83.4351-135.6421-82.8057-135.9856Z"/>
    <path class="cls-2" d="M812.9427,656.2633l-97.618-168.997c-.4837-.7425-.9325-1.298-1.2726-1.6849-.0701-.0797-.5212-.6108-1.0201-1.1031-.4831-.4768-1.4335-1.3369-3.0635-2.3049-2.4197-1.437-4.9283-2.2754-4.9288-2.2755h0c.0007.0002,3.8203-.4583,6.3498.529,1.3156.5135,2.9287,1.6703,4.3116,4.4657,32.4138,57.1235,64.8278,114.2473,97.2417,171.3709Z"/>
    <path class="cls-2" d="M743.569,421.2337l-79.7972,45.951c-.8828,1.072-1.3043,2.0449-1.5256,2.7264-.7503,2.3097-.4408,5.0797-.4411,5.0872h0c.0016-.0049.3711-2.1967,1.5871-3.9536.3363-.4858.6691-.8399.8874-1.0551,26.4299-16.252,52.8595-32.5039,79.2894-48.7559Z"/>
    <path class="cls-3" d="M826.0736,626.9627h0s75.8679,128.698,78.9825,134.6182c.1078.2048.2081.4061.2088.4076.5841,1.1765,1.8048,3.9612,1.9912,7.5589.0685,1.3202.2478,5.9699-2.582,9.6519-.4572.5949-1.3726,1.7613-3.0066,2.6813-1.3939.785-2.7011,1.0477-3.5201,1.1466,1.0093-.462,2.9794-1.529,4.6081-3.7019.5381-.718,2.4814-3.3107,2.3651-6.7369-.0681-2.0119-.8813-3.8124-2.5074-7.4129-.0002-.0005-.092-.2042-.2273-.4942-.0007-.0015-.2366-.508-.4841-1.0116-.5996-1.2201-75.7278-136.534-75.8281-136.7069Z"/>
  </g>
  <path class="cls-4" d="M950.1439,810.9917c-.4716-.7134-33.8097,29.2402-55.2626,18.6537-8.3741-4.1322-12.6327-13.3049-13.8423-12.5083-1.4044.9246,2.1942,14.7005,11.1975,19.9167,20.2485,11.7313,58.4194-25.2874,57.9075-26.0621Z"/>
  <ellipse class="cls-4" cx="952.7744" cy="803.1255" rx="4.0467" ry="1.3443" transform="translate(9.0796 1616.9005) rotate(-80.9008)"/>
  <path class="cls-4" d="M903.2544,770.2383c.5263.0345,2.0246,7.2449-3.0572,9.812-5.0929,2.5727-9.9688-2.9656-9.715-3.3531.2196-.3351,4.6142,2.6788,8.243.9161,3.7277-1.8109,4.0613-7.4058,4.5292-7.375Z"/>
  <path class="cls-4" d="M742.5007,447.6882c-1.4346,1.3375-2.4073,2.2448-3.5492,3.7459-.3382.4448-1.8074,2.408-3.1514,5.4571-1.192,2.705-1.5268,4.5413-1.5863,4.5294-.1038-.0218-.1428-5.885,3.2952-10.6839,3.9278-5.483,11.4995-8.3286,11.5016-8.3301-4.191,3.1186-6.509,5.2804-6.5099,5.2816Z"/>
  <path class="cls-4" d="M866.5818,652.6382c-3.3594-1.3498-6.1235-1.9687-9.2596-2.6713-6.1844-1.385-11.4261-1.8772-15.112-2.0612-1.7846-.0912-3.8424-.2766-3.8748-.6952-.0177-.2301.5818-.4483.8084-.5311,16.9569-6.1788,29.757,1.4452,29.7583,1.4459,8.1358,4.8457,12.2584,12.4337,11.7146,12.9825-.4999.5044-5.0239-4.8491-14.0349-8.4696Z"/>
  <ellipse class="cls-4" cx="732.2661" cy="463.8055" rx=".8602" ry="1.4857" transform="translate(-30.0961 51.3335) rotate(-3.9341)"/>
  <ellipse class="cls-4" cx="882.0567" cy="671.9989" rx="2.0234" ry="6.4073" transform="translate(-224.7649 604.5279) rotate(-33.8137)"/>
  <path class="cls-4" d="M834.7496,642.4509c.9714-.5234,66.0783,116.6135,64.9343,117.2661-.7134.4069-27.749-44.1901-54.0102-95.2401-4.6591-9.0573-11.2424-21.8544-10.9241-22.026Z"/>
  <path class="cls-4" d="M736.6433,473.4929c32.7531,56.3889,65.5065,112.7779,98.2596,169.1668-1.1115.2902-2.3003.6522-3.5466,1.1055-1.9179.6978-3.6072,1.4795-5.0619,2.252-29.8838-57.5079-59.7672-115.0163-89.651-172.5243Z"/>
  <ellipse class="cls-4" cx="674.9251" cy="477.0996" rx="5.9352" ry="3.1244" transform="translate(-125.7953 272.1736) rotate(-20.9008)"/>
  <path class="cls-4" d="M754.6829,436.488c-.6562.2043-.3768-3.5863-3.0752-8.0464-2.9687-4.9065-6.9991-6.4223-6.5015-6.9671.5703-.6246,6.7909.3526,9.4631,4.662,2.6122,4.2121.9029,10.1058.1135,10.3516Z"/>
</svg>