<?xml version="1.0" encoding="UTF-8"?>
<svg id="Layer_1" data-name="Layer 1" xmlns="http://www.w3.org/2000/svg" viewBox="0 0 1621.4173 1264.252">
  <defs>
    <style>
      .cls-1 {
        fill: #69903d;
      }

      .cls-2 {
        fill: #7b4b3f;
      }

      .cls-3 {
        fill: #5e392c;
      }

      .cls-4 {
        fill: #50281a;
      }

      .cls-5 {
        fill: #4b7438;
      }

      .cls-6 {
        fill: #734f44;
      }

      .cls-7 {
        fill: #40622f;
      }

      .cls-8 {
        fill: #85a87d;
      }
    </style>
  </defs>
  <g>
    <path class="cls-1" d="M748.8645,971.6106c2.8438-2.4591,7.1627-6.4213,11.867-11.7782,19.0103-21.6475,43.7026-65.3725,26.8088-97.3368-2.7334-5.1718-8.4363-13.5946-20.9977-21.0265,5.8513-.2951,15.4239-1.3975,25.8125-5.987,80.659-35.634,91.9564-229.1095,39.945-255.5134-12.7473-6.4711-29.0784-2.796-45.8772,5.5054,4.1581-6.6945,23.741-39.7621,12.8457-78.909-4.7933-17.2225-13.7727-29.4666-20.1861-36.7017,8.3496-11.8894,67.4936-98.4676,33.9491-166.3814-12.6572-25.6257-42.4092-56.4868-59.9463-50.7709-10.4322,3.4002-13.3354,18.6991-26.3028,20.1861-8.6049.9868-16.3502-4.7152-21.4095-9.4814,5.8569-7.3327,13.3544-18.1557,19.359-32.4056C763.7499,138.4132,697.3301,1.7292,646.9559,1.9157c-46.0524.1704-101.6648,114.8185-80.2288,208.321,4.1471,18.0896,10.7226,33.3999,17.5299,45.8389-5.8926-10.704-14.7115-22.5678-25.5741-22.8306-22.9407-.555-40.0981,50.9941-45.6886,67.7903-10.5217,31.612-22.835,89.0247-3.6701,170.6633-7.8393,3.5146-18.9756,10.0599-27.5264,22.021-15.9515,22.3135-16.1764,54.0634-1.8351,82.5791-15.297-12.2354-26.9196-16.518-34.8666-12.8457-43.4778,20.0911-51.7833,219.3151,31.9694,263.1442,11.3442,5.9366,22.1247,7.7734,28.8943,8.449-9.863.0976-20.0933,2.1237-25.6326,9.2941-15.8505,20.5183,16.0699,71.0431,34.5023,91.6358,66.0925,73.8388,208.4312,41.7654,234.0349,35.6344Z"/>
    <path class="cls-5" d="M748.8645,971.6106c3.8181-1.9697,9.1184-5.0677,14.7478-9.712,26.5394-21.8958,44.5658-65.3039,28.698-96.7965-2.6322-5.2241-8.1701-13.7562-20.5846-21.4313,5.6018-.1862,15.2803-1.0699,25.9242-5.4834,80.1659-33.2416,101.2555-219.5289,44.9103-254.6877-11.0058-6.8676-23.7083-7.1842-33.8886-5.9302,3.66-10.3446,11.4563-36.9391,2.2918-68.1023-4.9994-17.0003-13.2945-29.4035-19.4681-37.0875,44.447-55.7934,60.8846-119.9558,37.1809-165.6892-15.9696-30.8113-54.8905-62.3867-75.5909-53.9793-11.6066,4.7138-19.1621,22.6783-26.3028,20.1861-2.9811-1.0403-4.3088-5.0942-4.9647-8.3607,5.8797-6.9404,13.7432-17.6213,19.986-32.0226,20.7774-47.9299,5.193-94.5987-5.14-125.5423C711.249,30.8643,665.0062,3.4826,657.5253,2.8302c-.1299-.0113-10.5669-.9144-10.5695-.9146-.4268,11.898-51.3382,208.2922,32.2834,299.786,22.8842,25.0384,44.2441,29.6415,52.1484,58.7227,10.3202,37.9691-19.7452,53.9115-22.021,112.5523-.7525,19.3914,2.5884,16.274,17.1275,100.3183,7.5957,43.9079,11.3936,65.8616,12.234,78.2971,3.354,49.6315-13.6287,84.9781-44.0422,151.7007-34.5037,75.6962-76.3234,136.3682-103.8355,135.9684-4.111-.0597-16.8536-1.6133-28.9158,5.5125-7.9313,4.6854-18.2322,14.6972-18.2322,14.6972,4.2009,2.6483,10.2987,6.2486,17.9395,9.9163,29.5693,14.194,55.5476,16.58,80.8968,18.6743,25.4257,2.1006,41.691,3.5664,63.7693-1.0881,18.38-3.8748,32.8388-10.265,42.5564-15.3628Z"/>
    <path class="cls-4" d="M643.316,315.3268c-2.1776.1192-13.7243,66.6542.1006,140.967,2.1385,11.4947,5.5869,26.954.435,29.6207-11.7823,6.0986-56.9923-60.6954-59.4296-58.9139-1.1175.8168,6.8319,15.9959,19.3701,32.7773,20.778,27.8096,35.9482,35.6481,38.6835,56.2212,1.0022,7.5376-.1706,12.9809-1.1014,18.1882-10.3438,57.8684,6.5877,101.2116-3.9077,105.7378-16.8625,7.2722-76.3087-97.8229-78.5647-96.4355-1.1841.7281,13.546,30.6929,39.3369,67.8984,28.7375,41.4562,30.9688,34.345,38.3848,51.3311,15.5905,35.7094-4.2019,48.8105-1.0714,126.0608.3164,7.8046,1.1555,23.3967-4.6845,25.5451-6.7175,2.4711-18.65-14.1767-19.7833-15.7579-5.8069-8.1015-8.2429-15.3164-11.6223-25.6913-9.6753-29.7048-9.1985-30.4083-11.5477-36.4173-9.4764-24.2394-29.2652-43.56-33.2944-41.2681-7.6822,4.3697,32.7688,92.5216,32.769,92.5199h0c-20.2528-9.7061-30.1334-12.9992-30.134-12.9994-5.627-1.8753-17.2758-5.7577-18.0803-4.0523-1.6897,3.5815,45.0908,30.4513,47.5947,31.8846,8.6136,4.9304,16.3839,11.2139,24.7738,16.5158,5.6718,3.5842,11.4682,7.1106,14.9866,14.069,2.7732,5.4848,2.8692,10.606,2.9055,12.5398.2471,13.1781-6.1099,179.0926-15.4358,405.5548h54.1598l-4.236-495.4742c24.6125-28.1381,49.2251-56.2759,73.8376-84.414-25.7098,22.2249-51.4193,44.45-77.1291,66.6748l-.6117-278.322c10.9477-21.6132,21.8956-43.2266,32.8433-64.8398-12.375,16.7197-24.7502,33.4394-37.1252,50.159-7.7544-102.9572-11.029-129.7559-12.4222-129.6795Z"/>
    <path class="cls-3" d="M643.3161,315.3268c-3.0983-.1478-22.645,67.3674-11.0983,140.967,1.8349,11.6955,5.0857,27.5654.435,29.6207-10.2049,4.5097-49.0134-61.6705-49.8947-61.0941-.2741.1791,3.16,6.7855,15.9041,26.9147,22.1215,34.941,31.1295,45.6079,32.6147,64.264.5736,7.2056-.2632,11.9835-1.1014,18.1882-8.3359,61.7077,5.0919,102.4406-3.9077,105.7378-14.6902,5.3822-62.7312-98.658-67.3659-96.4355-2.5053,1.2014,7.2758,33.6423,28.1381,67.8984,21.8449,35.8695,28.7273,29.2109,38.3848,51.3311,15.5905,35.7094-4.2019,48.8105-1.0714,126.0608.3164,7.8046,1.1555,23.3967-4.6845,25.5451-6.7175,2.4711-18.65-14.1767-19.7833-15.7579-5.6359-7.8631-8.0519-14.8287-11.6223-25.6913-7.8903-24.0062-8.6253-28.1238-11.5477-36.4173-8.836-25.0759-21.2403-41.7047-22.0956-41.2681-1.1428.5835,11.8978,34.9372,22.021,75.8504,1.0915,4.4109,3.3889,14.0665-.4508,16.6695-4.3036,2.9176-15.1873-3.7891-30.134-12.9994-4.7547-2.9299-6.6512-4.3356-6.8815-4.0523-.715.8798,14.7694,17.9002,36.3959,31.8846,8.3342,5.3892,16.3839,11.2139,24.7738,16.5158,5.6718,3.5842,11.4682,7.1106,14.9866,14.069,2.7732,5.4848,2.8692,10.606,2.9055,12.5398.2471,13.1781-6.1099,179.0926-15.4358,405.5548h54.1598l-4.236-495.4742,85.0364-84.414c.1148-.2148.4804-.9552.1694-1.5286-.3382-.6234-1.2759-.6793-1.6804-.7035-4.6021-.2747-10.2456,6.2696-10.246,6.27-5.427,6.2934-13.1543,10.2737-18.8096,16.3629-6.6907,7.2038-21.9432,20.3932-57.7613,46.2741-.2039-92.7739-.4078-185.5481-.6117-278.322l44.0422-64.8398c-16.108,16.7197-32.216,33.4394-48.324,50.159,1.9479-102.6244.719-129.5869-1.2234-129.6795Z"/>
    <path class="cls-2" d="M611.1518,1044.5094c0,.0006-.9667,27.0567-8.3512,206.713h0c.019-.1031,30.1762-102.7486,33.7617-206.2398,3.5545-102.6022-19.0109-205.9637-19.0203-206.0494h0c.0002.0147-2.7183,102.8091-6.3902,205.5761Z"/>
    <path class="cls-8" d="M451.9953,707.1216c11.7381,59.3024,42.0929,94.3202,39.7603,95.7312-2.6255,1.5883-45.326-40.2167-55.1597-101.8388-8.9524-56.0998,13.2229-104.2611,16.4124-103.6913,3.1235.5581-13.3225,47.6099-1.0131,109.7989Z"/>
    <path class="cls-8" d="M485.3935,512.6688c-6.3892,13.9974-5.7763,27.9887,1.3692,31.2503,7.923,3.6164,24.6601-8.8754,24.5066-19.4392-.0803-5.534-4.7771-7.1633-5.4447-14.7474-.8293-9.4197,5.7091-14.9374,4.0753-16.5029-2.2411-2.1475-17.9397,5.0526-24.5064,19.4392Z"/>
    <path class="cls-8" d="M579.9928,258.5957c-1.4092,5.2842-17.3847,7.969-22.4799,2.294-2.3855-2.6568-1.1841-5.8069-2.8964-6.6522-5.4465-2.6887-22.8344,26.5973-24.8593,25.4618-2.0251-1.1357,5.4735-35.974,25.0048-38.0782,12.6146-1.359,26.7401,11.3148,25.2308,16.9746Z"/>
    <path class="cls-8" d="M501.2768,853.1646c-9.6487,4.1252-9.1372,21.8043-11.0991,21.6204-2.2964-.2152-7.8013-24.8892,2.911-30.7205,10.7974-5.8778,28.2217,12.7499,27.5882,13.8244-.4738.8037-10.9832-8.3228-19.4001-4.7243Z"/>
    <path class="cls-8" d="M590.9507,111.2342c9.8876-51.1888,35.9264-81.5085,33.9093-82.716-2.2705-1.3593-38.9294,34.8626-47.1653,88.0443-7.4979,48.4158,11.8172,89.8619,14.5655,89.3579,2.6915-.4937-11.6782-41.0058-1.3095-94.6861Z"/>
    <ellipse class="cls-8" cx="635.45" cy="20.6719" rx="6.7372" ry="4.3408" transform="translate(150.6159 431.9625) rotate(-42.1716)"/>
    <path class="cls-6" d="M628.3934,745.1238c-5.3031,35.5688,1.0635,64.8628,2.1409,64.84.9524-.02-3.0134-22.9338,2.4468-55.3586,6.299-37.4062,19.0474-51.2749,11.6223-74.9328-4.1583-13.2489-12.9012-24.0173-14.6807-23.2446-1.8692.8116,4.6025,14.0716,6.6546,31.8084,2.6005,22.4774-4.335,31.0733-8.1838,56.8876Z"/>
    <ellipse class="cls-6" cx="644.9091" cy="842.8424" rx="4.5877" ry="13.3044"/>
    <path class="cls-6" d="M631.0928,496.2872c-1.2599-1.2684-3.1201-2.7431-5.7962-5.935-6.1159-7.2948-9.2687-14.9423-8.755-15.2541.3701-.2247,2.397,3.5097,7.111,8.6019,5.1464,5.5593,8.8306,7.6979,10.9108,9.5869,11.7304,10.652,2.0899,40.2756,1.4378,40.19-.6045-.0793,6.5243-25.68-4.9084-37.1896Z"/>
    <ellipse class="cls-6" cx="646.814" cy="496.4963" rx="2.0961" ry="3.64"/>
    <ellipse class="cls-6" cx="581.775" cy="590.9025" rx="1.3184" ry="10.6162" transform="translate(-217.5082 370.0534) rotate(-30)"/>
    <path class="cls-6" d="M630.5726,590.1354c-.5052,18.6424,2.3855,24.4632-.4588,40.9454-.8892,5.1525-1.7831,8.1275-1.3765,8.2578.9042.29,8.6559-13.3552,9.1755-30.0495.3166-10.1698-2.4196-9.6127-1.8351-19.1537.6607-10.7831,4.2334-12.7639,7.799-30.6231,2.0505-10.2702,1.9707-15.1339-.9175-18.8098-1.8912-2.4071-5.4701-4.9201-7.799-3.8994-3.6344,1.5929-1.8204,10.7383-1.8351,24.3148-.0165,15.2258-2.3079,12.6065-2.7526,29.0175Z"/>
    <path class="cls-6" d="M617.644,1248.1871c-.8215.4848-1.5165.8612-2.015,1.1223-.0006.0004-.9542.5003-3.8663,1.8572h0c21.1542-.0593,25.4612-.0557,25.4618-.0557s9.0289.0073,19.7359.0557h0c-.001,0-.0478-7.417-1.079-12.2865-1.8329-8.6557-2.6659-13.0108-3.0586-14.0656-2.4731-6.6401-3.4305-45.6139-.9175-147.5355-.5292-43.4485-1.0197-52.5925-1.3763-52.5931-.574-.001-.79,23.685-2.5997,70.9394-1.7053,44.532-2.5925,66.896-4.2818,71.7038-2.5612,7.2897-7.9694,19.8086-3.9762,33.9408,2.2423,7.9357,5.5782,10.1509,5.8112,15.9002.2975,7.3391-4.64,17.731-27.8386,31.0169Z"/>
    <path class="cls-6" d="M567.4508,791.1134c5.6902,2.9176,10.0591,3.3856,9.9608,3.9017-.1074.5632-5.4865.9229-10.6126-1.3468-7.2039-3.1896-10.8949-10.2379-10.432-10.6664.3976-.368,3.6806,4.3153,11.0838,8.1114Z"/>
    <ellipse class="cls-6" cx="662.6587" cy="736.6049" rx="7.283" ry="2.5114" transform="translate(-300.239 503.0857) rotate(-34.393)"/>
    <path class="cls-7" d="M793.4913,332.9348c13.5245,40.4935,7.2694,66.3996,12.0309,66.9175,5.1779.5631,21.0969-29.1429,11.8861-63.7696-11.4668-43.1079-57.3234-76.7075-62.1646-75.4212-4.1222,1.0953,23.142,27.0458,38.2476,72.2733Z"/>
    <ellipse class="cls-7" cx="797.7159" cy="427.7946" rx="3.6702" ry="9.7871"/>
    <path class="cls-7" d="M841.0475,733.577c-12.8334,38.7613-44.6698,69.1599-53.3051,64.9102-6.3177-3.1092,16.0548-30.3905,18.913-81.8356,1.6589-29.8601-4.3101-47.6799,8.8244-67.8024,6.0622-9.2876,18.9096-23.2256,27.695-20.2574,15.2053,5.1371,13.0772,59.0623-2.1273,104.9852Z"/>
    <path class="cls-7" d="M743.5378,228.2999c-3.9282,13.1263-6.1679,17.2003-8.215,20.2676-4.9935,7.4819-13.5057,15.9634-13.5051,15.969,0-.0006-.003-.0218-.003-.0224-7.9083-59.5873.1985-89.9043-1.1726-126.9694-1.9937-53.8924-22.5218-81.4125-18.3509-83.1908,7.7308-3.2961,54.5365,101.22,49.2415,140.0786-.6972,5.1164-3.5513,19.0185-7.995,33.8674Z"/>
    <ellipse class="cls-7" cx="796.5953" cy="531.0315" rx="9.0726" ry="26.7487" transform="translate(-113.0222 232.444) rotate(-15.5157)"/>
    <ellipse class="cls-7" cx="794.7602" cy="572.4609" rx="1.8351" ry="4.8936"/>
  </g>
  <g>
    <path class="cls-1" d="M1116.6146,1047.4256c2.0832-1.8013,5.2468-4.7037,8.6928-8.6277,13.9254-15.8572,32.0129-47.8865,19.6379-71.301-2.0022-3.7884-6.1797-9.9583-15.3812-15.4023,4.2862-.2162,11.2983-1.0237,18.9081-4.3856,59.0841-26.1026,67.3597-167.8268,29.2604-187.1682-9.3376-4.7402-21.3005-2.0481-33.6059,4.0328,3.0458-4.9038,17.3907-29.1265,9.4097-57.8023-3.5112-12.6158-10.0888-21.5848-14.7867-26.8847,6.1163-8.7092,49.4403-72.1293,24.8683-121.8774-9.2716-18.7713-31.0655-41.3776-43.9117-37.1906-7.6418,2.4907-9.7684,13.6975-19.2673,14.7867-6.3032.7228-11.9768-3.454-15.6828-6.9453,4.2903-5.3714,9.7823-13.2994,14.1808-23.7377,28.5813-67.829-20.0723-167.9525-56.9724-167.8159-33.7342.1248-74.4713,84.1066-58.769,152.5989,3.0379,13.251,7.8545,24.466,12.841,33.5779-4.3164-7.8408-10.7764-16.5313-18.7335-16.7238-16.8045-.4065-29.3726,37.3541-33.4677,49.6576-7.7073,23.1564-16.727,65.2122-2.6884,125.0139-5.7424,2.5745-13.9,7.3691-20.1636,16.1308-11.6848,16.3451-11.8495,39.6024-1.3442,60.4907-11.2053-8.9626-19.7191-12.0997-25.5404-9.4097-31.8483,14.7171-37.9322,160.6523,23.4182,192.7579,8.3098,4.3487,16.2068,5.6942,21.1656,6.189-7.2248.0715-14.7187,1.5556-18.7763,6.8081-11.6108,15.0301,11.7715,52.0404,25.2735,67.1249,48.4139,54.0882,152.6796,30.5939,171.4348,26.1029Z"/>
    <path class="cls-5" d="M1116.6146,1047.4256c2.7968-1.4429,6.6794-3.7121,10.803-7.1142,19.4406-16.0391,32.6452-47.8363,21.0218-70.9052-1.9281-3.8268-5.9848-10.0767-15.0786-15.6988,4.1034-.1364,11.1931-.7837,18.9899-4.0167,58.723-24.3501,74.1714-160.8089,32.8976-186.5633-8.062-5.0306-17.3667-5.2625-24.824-4.344,2.681-7.5776,8.3919-27.0586,1.6788-49.8862-3.6622-12.4531-9.7385-21.5386-14.2607-27.1672,32.5582-40.8696,44.5991-87.8698,27.2357-121.3703-11.698-22.5698-40.2083-45.6994-55.3717-39.5408-8.5021,3.4529-14.0366,16.6123-19.2673,14.7867-2.1837-.762-3.1563-3.7316-3.6367-6.1244,4.307-5.084,10.0671-12.908,14.6401-23.4571,15.2198-35.1095,3.804-69.2952-3.7652-91.962-18.6167-55.7499-52.4903-75.8075-57.9702-76.2854-.0952-.0083-7.7404-.6698-7.7423-.6699-.3127,8.7155-37.6061,152.5778,23.6482,219.5987,16.7631,18.3411,32.4096,21.7129,38.1997,43.0154,7.5597,27.8131-14.4637,39.4911-16.1308,82.4466-.5512,14.2045,1.896,11.921,12.5462,73.485,5.564,32.1633,8.346,48.2448,8.9616,57.354,2.4568,36.3559-9.9833,62.248-32.2617,111.1235-25.2746,55.4489-55.9083,99.8922-76.0614,99.5993-3.0114-.0437-12.3455-1.1818-21.1813,4.038-5.8098,3.4322-13.3554,10.766-13.3554,10.766,3.0772,1.9399,7.544,4.5772,13.141,7.2639,21.66,10.3974,40.6896,12.1452,59.2584,13.6793,18.6248,1.5388,30.5394,2.6125,46.7122-.7971,13.4637-2.8384,24.055-7.5193,31.1733-11.2535Z"/>
    <path class="cls-4" d="M1039.2984,566.6859c-1.5951.0873-10.0533,48.8254.0737,103.2609,1.5665,8.4201,4.0925,19.7443.3186,21.6977-8.6308,4.4674-41.7479-44.4605-43.5332-43.1555-.8186.5983,5.0045,11.7173,14.189,24.01,15.2202,20.371,26.3327,26.1129,28.3364,41.183.7341,5.5214-.1249,9.5088-.8068,13.3232-7.577,42.3897,4.8256,74.1393-2.8625,77.4548-12.3521,5.327-55.8975-71.6571-57.55-70.6408-.8674.5334,9.9227,22.4831,28.815,49.7368,21.0507,30.3674,22.6852,25.1583,28.1176,37.6009,11.4203,26.1578-3.078,35.7546-.7849,92.3418.2317,5.717.8465,17.1385-3.4314,18.7123-4.9207,1.8102-13.6614-10.3847-14.4916-11.543-4.2536-5.9345-6.0381-11.2195-8.5135-18.8193-7.0874-21.7593-6.7381-22.2746-8.4589-26.6763-6.9416-17.7558-21.4373-31.9085-24.3887-30.2297-5.6274,3.2009,24.0037,67.7738,24.0039,67.7725h0c-14.8355-7.1099-22.0733-9.5221-22.0737-9.5223-4.1219-1.3737-12.6549-4.2176-13.2442-2.9684-1.2377,2.6235,33.0298,22.3061,34.864,23.356,6.3096,3.6116,12.0015,8.2144,18.1472,12.0981,4.1547,2.6255,8.4006,5.2086,10.9779,10.3058,2.0314,4.0177,2.1018,7.7691,2.1283,9.1856.181,9.6532-4.4756,131.1886-11.307,297.0762h39.673l-3.1029-362.9437c18.0291-20.6116,36.0582-41.2231,54.0874-61.8348-18.8329,16.2801-37.6656,32.5604-56.4984,48.8405l-.4481-203.8759c8.0194-15.832,16.0389-31.6642,24.0583-47.4963-9.0649,12.2475-18.1299,24.4949-27.1949,36.7424-5.6802-75.418-8.079-95.0485-9.0995-94.9926Z"/>
    <path class="cls-3" d="M1039.2985,566.686c-2.2696-.1082-16.5878,49.3479-8.1297,103.2609,1.3441,8.5671,3.7254,20.1922.3186,21.6977-7.4753,3.3034-35.9032-45.1747-36.5487-44.7525-.2008.1312,2.3148,4.9705,11.65,19.7155,16.2044,25.5949,22.8029,33.4086,23.8908,47.0745.4202,5.2782-.1928,8.7781-.8068,13.3232-6.1062,45.202,3.7299,75.0395-2.8625,77.4548-10.7609,3.9426-45.9517-72.2687-49.3467-70.6408-1.8352.88,5.3297,24.6436,20.6116,49.7368,16.0017,26.275,21.0433,21.3975,28.1176,37.6009,11.4203,26.1578-3.078,35.7546-.7849,92.3418.2317,5.717.8465,17.1385-3.4314,18.7123-4.9207,1.8102-13.6614-10.3847-14.4916-11.543-4.1284-5.7599-5.8982-10.8623-8.5135-18.8193-5.7798-17.585-6.3182-20.6012-8.4589-26.6763-6.4725-18.3685-15.5589-30.5494-16.1854-30.2297-.8372.4274,8.7153,25.5922,16.1308,55.5618.7995,3.2311,2.4824,10.3039-.3302,12.2107-3.1525,2.1372-11.125-2.7756-22.0737-9.5223-3.4829-2.1462-4.8721-3.1759-5.0408-2.9684-.5238.6445,10.8188,13.1122,26.6606,23.356,6.1049,3.9477,12.0015,8.2144,18.1472,12.0981,4.1547,2.6255,8.4006,5.2086,10.9779,10.3058,2.0314,4.0177,2.1018,7.7691,2.1283,9.1856.181,9.6532-4.4756,131.1886-11.307,297.0762h39.673l-3.1029-362.9437,62.2907-61.8348c.0841-.1573.3519-.6997.1241-1.1197-.2477-.4566-.9346-.4976-1.2309-.5153-3.3712-.2012-7.5051,4.5926-7.5054,4.5929-3.9754,4.61-9.6357,7.5257-13.7784,11.9861-4.9011,5.2769-16.0738,14.9384-42.3112,33.8966-.1494-67.9586-.2987-135.9173-.4481-203.8759l32.2617-47.4963c-11.7994,12.2475-23.5988,24.4949-35.3982,36.7424,1.4269-75.1742.5267-94.9247-.8961-94.9926Z"/>
    <path class="cls-2" d="M1015.7376,1100.8253s-.7081,19.8195-6.1174,151.421h0c.0139-.0756,22.1046-75.2652,24.731-151.0743,2.6037-75.158-13.9259-150.8721-13.9327-150.9349h0c.0001.0108-1.9912,75.3095-4.6809,150.5882Z"/>
    <path class="cls-8" d="M899.1526,853.6827c8.5984,43.4401,30.8338,69.0913,29.1252,70.1248-1.9232,1.1635-33.2021-29.4595-40.4054-74.5987-6.5578-41.0941,9.686-76.3732,12.0224-75.9557,2.288.4088-9.7589,34.8751-.7421,80.4296Z"/>
    <path class="cls-8" d="M923.6174,711.2425c-4.6802,10.2534-4.2313,20.5022,1.0029,22.8914,5.8037,2.6491,18.064-6.5014,17.9515-14.2395-.0588-4.0537-3.4993-5.2473-3.9883-10.8027-.6075-6.9001,4.182-10.9419,2.9853-12.0887-1.6416-1.573-13.1411,3.7011-17.9514,14.2395Z"/>
    <path class="cls-8" d="M992.9131,525.1294c-1.0323,3.8708-12.7346,5.8374-16.467,1.6804-1.7474-1.9462-.8674-4.2536-2.1217-4.8729-3.9896-1.9695-16.7266,19.483-18.2099,18.6512-1.4834-.8319,4.0094-26.3516,18.3165-27.893,9.2404-.9955,19.5876,8.2883,18.482,12.4342Z"/>
    <path class="cls-8" d="M935.2522,960.6618c-7.0679,3.0217-6.6932,15.972-8.1303,15.8374-1.6822-.1577-5.7146-18.2318,2.1324-22.5033,7.9093-4.3056,20.6729,9.3395,20.2089,10.1266-.347.5887-8.0454-6.0966-14.211-3.4606Z"/>
    <path class="cls-8" d="M1000.9399,417.1844c7.2428-37.4967,26.3167-59.7064,24.8391-60.591-1.6632-.9957-28.5165,25.5375-34.5494,64.494-5.4923,35.4654,8.6563,65.8255,10.6695,65.4562,1.9716-.3617-8.5545-30.0375-.9592-69.3593Z"/>
    <ellipse class="cls-8" cx="1033.5364" cy="350.8459" rx="4.9351" ry="3.1797" transform="translate(32.0021 784.6886) rotate(-42.1716)"/>
    <path class="cls-6" d="M1028.3674,881.52c-3.8846,26.0548.779,47.5131,1.5683,47.4964.6977-.0147-2.2074-16.7994,1.7923-40.5512,4.6141-27.4007,13.9526-37.5598,8.5135-54.8896-3.046-9.705-9.4504-17.5931-10.7539-17.0271-1.3692.5945,3.3714,10.3077,4.8746,23.3002,1.9049,16.4651-3.1754,22.7618-5.9948,41.6712Z"/>
    <ellipse class="cls-6" cx="1040.4654" cy="953.1006" rx="3.3606" ry="9.7457"/>
    <path class="cls-6" d="M1030.3447,699.2427c-.9229-.9291-2.2855-2.0094-4.2458-4.3475-4.48-5.3436-6.7895-10.9455-6.4132-11.1739.2711-.1646,1.7558,2.5709,5.2089,6.3011,3.7698,4.0723,6.4686,5.6388,7.9924,7.0226,8.5927,7.8028,1.5309,29.5026,1.0532,29.4399-.4428-.0581,4.7792-18.8111-3.5955-27.2421Z"/>
    <ellipse class="cls-6" cx="1041.8608" cy="699.3958" rx="1.5354" ry="2.6664"/>
    <ellipse class="cls-6" cx="994.2186" cy="768.5501" rx=".9657" ry="7.7766" transform="translate(-251.075 600.0755) rotate(-30)"/>
    <path class="cls-6" d="M1029.9636,767.9882c-.3701,13.6559,1.7474,17.9197-.3361,29.9933-.6513,3.7743-1.3062,5.9535-1.0083,6.049.6624.2124,6.3406-9.7829,6.7212-22.0118.2319-7.4496-1.7724-7.0415-1.3442-14.0305.484-7.8988,3.1011-9.3498,5.7129-22.432,1.502-7.5231,1.4436-11.0859-.6721-13.7785-1.3853-1.7632-4.0069-3.6041-5.7129-2.8564-2.6623,1.1668-1.3335,7.866-1.3442,17.811-.0121,11.1531-1.6906,9.2345-2.0163,21.2559Z"/>
    <path class="cls-6" d="M1020.4932,1250.0229c-.6018.3551-1.1109.6308-1.476.8221-.0004.0003-.699.3665-2.8321,1.3604h0c15.4959-.0434,18.6508-.0408,18.6512-.0408s6.6139.0054,14.4569.0408h0c-.0007,0-.035-5.4331-.7904-9.0001-1.3426-6.3405-1.9528-9.5307-2.2405-10.3033-1.8116-4.864-2.5129-33.413-.6721-108.0724-.3876-31.8268-.7469-38.5249-1.0082-38.5254-.4205-.0007-.5787,17.3497-1.9043,51.9644-1.2492,32.6205-1.8991,49.0025-3.1365,52.5243-1.8761,5.3398-5.8377,14.5101-2.9126,24.8622,1.6425,5.8131,4.0861,7.4357,4.2568,11.6472.2179,5.376-3.3989,12.9883-20.3923,22.7204Z"/>
    <path class="cls-6" d="M983.7258,915.2082c4.1682,2.1372,7.3685,2.48,7.2965,2.8581-.0787.4125-4.019.676-7.774-.9865-5.277-2.3365-7.9807-7.4995-7.6416-7.8133.2912-.2696,2.6961,3.1611,8.1191,5.9418Z"/>
    <ellipse class="cls-6" cx="1053.4673" cy="875.2797" rx="5.3349" ry="1.8396" transform="translate(-310.2515 748.0833) rotate(-34.393)"/>
    <path class="cls-7" d="M1149.3045,579.5841c9.9069,29.6622,5.3249,48.6389,8.8128,49.0183,3.7929.4125,15.4539-21.3477,8.7068-46.7124-8.3997-31.5773-41.9905-56.1897-45.5367-55.2474-3.0196.8024,16.9519,19.8116,28.0171,52.9415Z"/>
    <ellipse class="cls-7" cx="1152.3991" cy="649.0706" rx="2.6885" ry="7.1693"/>
    <path class="cls-7" d="M1184.1403,873.0618c-9.4007,28.3934-32.7214,50.6609-39.047,47.5479-4.6279-2.2775,11.7604-22.2616,13.8541-59.9461,1.2152-21.8731-3.1573-34.9264,6.4641-49.6665,4.4407-6.8034,13.8516-17.0132,20.2871-14.8389,11.1382,3.763,9.5793,43.2642-1.5583,76.9036Z"/>
    <path class="cls-7" d="M1112.7127,502.9371c-2.8775,9.6153-4.5181,12.5995-6.0176,14.8464-3.6578,5.4806-9.8932,11.6935-9.8928,11.6975,0-.0004-.0022-.016-.0022-.0164-5.793-43.6487.1454-65.8565-.859-93.0074-1.4604-39.4772-16.4976-59.6361-13.4423-60.9388,5.6629-2.4144,39.9489,74.1454,36.0703,102.6101-.5107,3.7479-2.6014,13.9314-5.8565,24.8085Z"/>
    <ellipse class="cls-7" cx="1151.5783" cy="724.6935" rx="6.6458" ry="19.5939" transform="translate(-151.8907 334.4606) rotate(-15.5157)"/>
    <ellipse class="cls-7" cx="1150.2341" cy="755.0413" rx="1.3442" ry="3.5846"/>
  </g>
  <g>
    <path class="cls-1" d="M898.2317,1098.7231c1.6641-1.4389,4.1912-3.7574,6.9439-6.8919,11.1238-12.6669,25.5723-38.2524,15.687-56.9561-1.5994-3.0262-4.9365-7.9548-12.2867-12.3035,3.4239-.1727,9.0252-.8178,15.104-3.5032,47.1972-20.8511,53.8078-134.0622,23.3736-149.5123-7.459-3.7865-17.0151-1.6361-26.8448,3.2215,2.4331-3.9172,13.8919-23.2666,7.5166-46.1732-2.8048-10.0776-8.059-17.2422-11.8118-21.4758,4.8857-6.957,39.4935-57.6178,19.8651-97.3572-7.4063-14.9947-24.8155-33.0529-35.0772-29.7083-6.1044,1.9896-7.8031,10.9417-15.3909,11.8118-5.0351.5774-9.5672-2.7591-12.5277-5.548,3.4271-4.2907,7.8143-10.6237,11.3278-18.962,22.8311-54.1827-16.034-134.1626-45.5103-134.0535-26.9473.0997-59.4887,67.1855-46.9454,121.8979,2.4267,10.5851,6.2743,19.5438,10.2575,26.8224-3.448-6.2634-8.6083-13.2054-14.9645-13.3592-13.4236-.3247-23.4632,29.8389-26.7344,39.6671-6.1567,18.4976-13.3618,52.0923-2.1476,99.8627-4.5871,2.0566-11.1035,5.8865-16.1069,12.8855-9.3339,13.0567-9.4655,31.6349-1.0738,48.3207-8.9509-7.1595-15.7519-9.6654-20.402-7.5166-25.4408,11.7562-30.3007,128.3311,18.7068,153.9775,6.638,3.4738,12.9462,4.5486,16.9074,4.9439-5.7713.0571-11.7575,1.2426-14.9988,5.4384-9.2749,12.0062,9.4032,41.5705,20.1888,53.6202,38.6737,43.2064,121.9625,24.4388,136.9443,20.8513Z"/>
    <path class="cls-5" d="M898.2317,1098.7231c2.2341-1.1526,5.3356-2.9653,8.6296-5.683,15.5294-12.8122,26.0774-38.2122,16.7925-56.64-1.5402-3.0569-4.7807-8.0494-12.045-12.5404,3.2779-.109,8.9412-.626,15.1694-3.2086,46.9087-19.4512,59.2491-128.4562,26.279-149.0292-6.44-4.0185-13.8728-4.2038-19.8297-3.4701,2.1416-6.0531,6.7036-21.6147,1.3411-39.8497-2.9254-9.9477-7.7792-17.2053-11.3917-21.7015,26.0079-32.6472,35.6263-70.1915,21.7562-96.9522-9.3445-18.0291-32.1189-36.5052-44.2316-31.5857-6.7915,2.7583-11.2126,13.2701-15.3909,11.8118-1.7444-.6087-2.5213-2.9809-2.9051-4.8922,3.4405-4.0611,8.0417-10.311,11.6947-18.7379,12.1578-28.0459,3.0387-55.3539-3.0077-73.4604-14.8712-44.5337-41.93-60.556-46.3074-60.9378-.076-.0066-6.1832-.535-6.1847-.5351-.2498,6.962-30.0403,121.8811,18.8905,175.4182,13.3906,14.6511,25.8892,17.3446,30.5144,34.3613,6.0388,22.2174-11.5538,31.546-12.8855,65.8594-.4403,11.3468,1.5146,9.5227,10.0221,58.7007,4.4446,25.6925,6.6669,38.5386,7.1586,45.8151,1.9626,29.0416-7.9748,49.7245-25.771,88.7669-20.1896,44.2933-44.6602,79.7952-60.7588,79.5612-2.4056-.0349-9.8618-.944-16.9199,3.2256-4.641,2.7417-10.6685,8.6-10.6685,8.6,2.4581,1.5496,6.0263,3.6563,10.4972,5.8025,17.3023,8.3055,32.5034,9.7017,47.3363,10.9272,14.8777,1.2292,24.3953,2.0869,37.3143-.6367,10.755-2.2673,19.2154-6.0065,24.9016-8.9895Z"/>
    <path class="cls-4" d="M836.4705,714.702c-1.2742.0698-8.0307,39.0024.0588,82.4861,1.2513,6.7261,3.2692,15.772.2545,17.3324-6.8944,3.5686-33.3488-35.5156-34.7749-34.4732-.6539.4779,3.9977,9.3599,11.3343,19.1795,12.1581,16.2726,21.0349,20.8593,22.6355,32.8975.5864,4.4106-.0998,7.5957-.6445,10.6427-6.0526,33.8614,3.8548,59.2235-2.2866,61.8719-9.867,4.2553-44.6517-57.2406-45.9717-56.4288-.6929.4261,7.9264,17.9598,23.0178,39.7304,16.8156,24.2579,18.1212,20.0968,22.4607,30.0361,9.1227,20.8952-2.4587,28.5612-.627,73.7638.1851,4.5668.6762,13.6904-2.7411,14.9476-3.9307,1.446-10.9129-8.2954-11.5761-9.2207-3.3979-4.7406-4.8233-8.9623-6.8007-15.0331-5.6615-17.3816-5.3825-17.7933-6.7571-21.3094-5.5451-14.1836-17.1244-25.4889-19.482-24.1478-4.4952,2.5569,19.1745,54.1386,19.1746,54.1375h0c-11.8508-5.6795-17.6324-7.6064-17.6327-7.6065-3.2926-1.0973-10.1089-3.3691-10.5796-2.3712-.9887,2.0957,26.3846,17.8184,27.8498,18.6571,5.0402,2.885,9.5869,6.5618,14.4962,9.6641,3.3188,2.0973,6.7105,4.1607,8.7693,8.2324,1.6227,3.2094,1.6789,6.206,1.7002,7.3376.1446,7.7111-3.5752,104.7951-9.0322,237.3083h31.6913l-2.4787-289.9241c14.4019-16.4648,28.8038-32.9296,43.2057-49.3944-15.0439,13.0048-30.0877,26.0097-45.1317,39.0144l-.3579-162.8587c6.406-12.6468,12.8121-25.2938,19.2181-37.9407-7.2412,9.7834-14.4824,19.5669-21.7236,29.3503-4.5374-60.2449-6.4536-75.926-7.2688-75.8813Z"/>
    <path class="cls-3" d="M836.4706,714.702c-1.813-.0865-13.2506,39.4197-6.4941,82.4861,1.0737,6.8435,2.9759,16.1298.2545,17.3324-5.9714,2.6388-28.6799-36.0861-29.1956-35.7489-.1604.1048,1.8491,3.9705,9.3062,15.749,12.9443,20.4456,18.2152,26.6872,19.0843,37.6037.3356,4.2163-.154,7.0121-.6445,10.6427-4.8777,36.108,2.9795,59.9426-2.2866,61.8719-8.5959,3.1494-36.7068-57.7292-39.4188-56.4288-1.4659.703,4.2574,19.6856,16.4648,39.7304,12.7824,20.9888,16.8097,17.0926,22.4607,30.0361,9.1227,20.8952-2.4587,28.5612-.627,73.7638.1851,4.5668.6762,13.6904-2.7411,14.9476-3.9307,1.446-10.9129-8.2954-11.5761-9.2207-3.2978-4.601-4.7115-8.6769-6.8007-15.0331-4.6169-14.0471-5.0471-16.4565-6.7571-21.3094-5.1703-14.673-12.4287-24.4033-12.9291-24.1478-.6687.3414,6.9619,20.4433,12.8855,44.3834.6387,2.581,1.983,8.2309-.2638,9.7541-2.5183,1.7072-8.8868-2.2172-17.6327-7.6065-2.7822-1.7144-3.8919-2.5369-4.0267-2.3712-.4184.5148,8.6422,10.4742,21.2968,18.6571,4.8767,3.1534,9.5869,6.5618,14.4962,9.6641,3.3188,2.0973,6.7105,4.1607,8.7693,8.2324,1.6227,3.2094,1.6789,6.206,1.7002,7.3376.1446,7.7111-3.5752,104.7951-9.0322,237.3083h31.6913l-2.4787-289.9241,49.7586-49.3944c.0672-.1257.2811-.5589.0991-.8945-.1979-.3648-.7466-.3975-.9833-.4117-2.6929-.1607-5.9951,3.6686-5.9954,3.6689-3.1756,3.6826-7.6972,6.0116-11.0064,9.5746-3.915,4.2153-12.84,11.933-33.7987,27.0771-.1193-54.2862-.2386-108.5725-.3579-162.8587l25.771-37.9407c-9.4255,9.7834-18.851,19.5669-28.2765,29.3503,1.1398-60.0501.4207-75.8271-.7159-75.8813Z"/>
    <path class="cls-2" d="M817.6498,1141.3794s-.5657,15.8321-4.8867,120.957h0c.0111-.0604,17.6575-60.1228,19.7555-120.6801,2.0799-60.0371-11.1242-120.5186-11.1296-120.5687h0c.0001.0086-1.5906,60.1582-3.7392,120.2918Z"/>
    <path class="cls-8" d="M724.5202,943.9587c6.8685,34.7005,24.6304,55.191,23.2656,56.0166-1.5363.9294-26.5223-23.5326-32.2764-59.5904-5.2384-32.8265,7.7373-61.0079,9.6037-60.6744,1.8277.3266-7.7956,27.8587-.5928,64.2482Z"/>
    <path class="cls-8" d="M744.063,830.1757c-3.7386,8.1905-3.38,16.3775.8012,18.2859,4.6361,2.1161,14.4297-5.1934,14.3399-11.3747-.047-3.2382-2.7953-4.1916-3.1859-8.6293-.4852-5.5119,3.3406-8.7405,2.3847-9.6566-1.3114-1.2566-10.4973,2.9565-14.3398,11.3747Z"/>
    <path class="cls-8" d="M799.4173,681.5061c-.8246,3.092-10.1726,4.663-13.154,1.3423-1.3958-1.5546-.6929-3.3979-1.6948-3.8925-3.187-1.5733-13.3614,15.5633-14.5463,14.8989-1.185-.6646,3.2028-21.05,14.6315-22.2813,7.3814-.7952,15.6469,6.6208,14.7636,9.9326Z"/>
    <path class="cls-8" d="M753.3571,1029.415c-5.6459,2.4138-5.3466,12.7587-6.4946,12.6511-1.3438-.126-4.5649-14.5638,1.7033-17.976,6.3181-3.4393,16.5138,7.4606,16.1431,8.0893-.2772.4703-6.4267-4.8701-11.3519-2.7644Z"/>
    <path class="cls-8" d="M805.8293,595.2783c5.7857-29.9529,21.0221-47.6942,19.8418-48.4009-1.3286-.7954-22.7793,20.3997-27.5985,51.5187-4.3873,28.3302,6.9147,52.5823,8.523,52.2873,1.5749-.2889-6.8334-23.9943-.7662-55.4051Z"/>
    <ellipse class="cls-8" cx="831.8678" cy="542.2862" rx="3.9423" ry="2.54" transform="translate(-148.7263 698.8545) rotate(-42.1716)"/>
    <path class="cls-6" d="M827.7387,966.1955c-3.1031,20.8129.6223,37.9541,1.2527,37.9408.5573-.0117-1.7633-13.4196,1.4317-32.3928,3.6858-21.8881,11.1455-30.0033,6.8007-43.8466-2.4332-7.7525-7.5491-14.0536-8.5903-13.6014-1.0937.4749,2.6932,8.2339,3.8939,18.6125,1.5217,13.1525-2.5366,18.1824-4.7887,33.2875Z"/>
    <ellipse class="cls-6" cx="837.4028" cy="1023.375" rx="2.6845" ry="7.785"/>
    <path class="cls-6" d="M829.3182,820.5901c-.7372-.7422-1.8257-1.6051-3.3916-3.4728-3.5787-4.2685-5.4236-8.7434-5.123-8.9259.2166-.1315,1.4026,2.0537,4.161,5.0334,3.0114,3.253,5.1672,4.5044,6.3844,5.6097,6.864,6.233,1.2229,23.5671.8413,23.5169-.3537-.0464,3.8176-15.0265-2.8721-21.7613Z"/>
    <ellipse class="cls-6" cx="838.5174" cy="820.7124" rx="1.2265" ry="2.1299"/>
    <ellipse class="cls-6" cx="800.4602" cy="875.9537" rx=".7714" ry="6.212" transform="translate(-330.7355 517.5856) rotate(-30)"/>
    <path class="cls-6" d="M829.0138,875.5048c-.2956,10.9085,1.3958,14.3145-.2684,23.959-.5203,3.015-1.0434,4.7558-.8055,4.832.5291.1697,5.0649-7.8147,5.369-17.5833.1852-5.9508-1.4158-5.6248-1.0738-11.2077.3866-6.3097,2.4772-7.4688,4.5636-17.9189,1.1998-6.0095,1.1532-8.8555-.5369-11.0065-1.1066-1.4085-3.2008-2.879-4.5636-2.2817-2.1267.9321-1.0652,6.2834-1.0738,14.2277-.0096,8.9093-1.3505,7.3766-1.6107,16.9794Z"/>
    <path class="cls-6" d="M821.4487,1260.5604c-.4807.2837-.8874.5039-1.179.6567-.0003.0002-.5584.2927-2.2623,1.0867h0c12.3783-.0347,14.8985-.0326,14.8989-.0326s5.2832.0043,11.5483.0326h0c-.0006,0-.028-4.34-.6314-7.1894-1.0725-5.0649-1.56-7.6132-1.7897-8.2304-1.4471-3.8854-2.0074-26.6907-.5369-86.3296-.3096-25.4237-.5967-30.7742-.8053-30.7746-.3359-.0006-.4623,13.8592-1.5212,41.5098-.9979,26.0577-1.517,39.1438-2.5055,41.9571-1.4987,4.2655-4.6633,11.5909-2.3266,19.8603,1.312,4.6435,3.264,5.9397,3.4004,9.3039.1741,4.2944-2.7151,10.3752-16.2896,18.1494Z"/>
    <path class="cls-6" d="M792.0784,993.1061c3.3296,1.7072,5.886,1.9811,5.8285,2.2831-.0628.3295-3.2104.54-6.2099-.7881-4.2153-1.8664-6.3751-5.9907-6.1042-6.2414.2326-.2154,2.1537,2.5251,6.4856,4.7464Z"/>
    <ellipse class="cls-6" cx="847.7889" cy="961.2107" rx="4.2616" ry="1.4695" transform="translate(-394.7473 646.9247) rotate(-34.393)"/>
    <path class="cls-7" d="M924.3449,725.0052c7.9138,23.6946,4.2536,38.8534,7.0398,39.1564,3.0298.3295,12.3447-17.0528,6.9551-37.3145-6.7098-25.2244-33.5425-44.885-36.3753-44.1323-2.4121.6409,13.5414,15.8257,22.3804,42.2903Z"/>
    <ellipse class="cls-7" cx="926.8168" cy="780.512" rx="2.1476" ry="5.7269"/>
    <path class="cls-7" d="M952.1721,959.439c-7.5094,22.681-26.1383,40.4686-31.1912,37.9819-3.6968-1.8193,9.3944-17.7829,11.0669-47.8857.9707-17.4725-2.5221-27.8996,5.1636-39.6742,3.5473-5.4346,11.0649-13.5904,16.2056-11.8535,8.8973,3.006,7.652,34.56-1.2448,61.4316Z"/>
    <path class="cls-7" d="M895.1148,663.7786c-2.2986,7.6808-3.6091,10.0646-4.8069,11.8595-2.9219,4.378-7.9028,9.3409-7.9025,9.3442,0-.0003-.0017-.0128-.0017-.0131-4.6275-34.8672.1162-52.607-.6861-74.2955-1.1666-31.5349-13.1785-47.6381-10.7379-48.6787,4.5236-1.9287,31.9117,59.2283,28.8134,81.9663-.4079,2.9939-2.078,11.1286-4.6782,19.8173Z"/>
    <ellipse class="cls-7" cx="926.1612" cy="840.9205" rx="5.3088" ry="15.6519" transform="translate(-191.1967 278.3965) rotate(-15.5157)"/>
    <ellipse class="cls-7" cx="925.0874" cy="865.1627" rx="1.0738" ry="2.8634"/>
  </g>
</svg>