<?xml version="1.0" encoding="UTF-8"?>
<svg id="Layer_1" data-name="Layer 1" xmlns="http://www.w3.org/2000/svg" viewBox="0 0 1621.4173 1264.252">
  <defs>
    <style>
      .cls-1 {
        fill: #9fa2a3;
      }

      .cls-2 {
        fill: #bbbdbf;
      }

      .cls-3 {
        fill: #b2b2b3;
      }

      .cls-4 {
        fill: #d4d6d7;
      }
    </style>
  </defs>
  <g>
    <path class="cls-2" d="M709.3786,606.5168c-.7137-1.2922-24.0409,2.043-25.5665,15.2973-1.3158,11.4317,14.9105,18.735,21.5147,20.4345.2104.0542,3.7659.9514,4.1248.1775.5023-1.0832-6.0669-3.6959-11.303-10.4396-2.3356-3.0081-4.0821-5.2574-4.2628-8.1018-.5914-9.3068,16.1374-16.2007,15.4927-17.368Z"/>
    <path class="cls-1" d="M710.2523,606.3952c-.4246-.5489-15.8301,4.2185-17.211,16.2767-1.1652,10.1744,8.4679,18.4361,15.652,20.4269,1.6307.4519,3.8471.7763,4.1248.1775.5023-1.0832-6.0669-3.6959-11.303-10.4396-2.1924-2.8237-3.9444-5.1296-4.2628-8.1018-1.0279-9.5963,13.4438-17.766,13-18.3397Z"/>
  </g>
  <g>
    <path class="cls-2" d="M912.0388,604.0711c.7137-1.2922,24.0409,2.043,25.5665,15.2973,1.3158,11.4317-14.9105,18.735-21.5147,20.4345-.2104.0542-3.7659.9514-4.1248.1775-.5023-1.0832,6.0669-3.6959,11.303-10.4396,2.3356-3.0081,4.0821-5.2574,4.2628-8.1018.5914-9.3068-16.1374-16.2007-15.4927-17.368Z"/>
    <path class="cls-1" d="M911.1651,603.9495c.4246-.5489,15.8301,4.2185,17.211,16.2767,1.1652,10.1744-8.4679,18.4361-15.652,20.4269-1.6307.4519-3.8471.7763-4.1248.1775-.5023-1.0832,6.0669-3.6959,11.303-10.4396,2.1924-2.8237,3.9444-5.1296,4.2628-8.1018,1.0279-9.5963-13.4438-17.766-13-18.3397Z"/>
  </g>
  <path class="cls-2" d="M731.9338,570.1132h155.6133c15.2862,0,27.6966,12.4104,27.6966,27.6966v42.649c0,31.5791-25.6382,57.2173-57.2173,57.2173h-96.5719c-31.5791,0-57.2173-25.6382-57.2173-57.2173v-42.649c0-15.2862,12.4104-27.6966,27.6966-27.6966Z"/>
  <path class="cls-3" d="M912.7804,590.0973h-204.5624c-6.594,0-11.989-5.2923-11.989-11.7607s5.395-11.7607,11.989-11.7607h204.5624c6.594,0,11.989,5.2923,11.989,11.7607s-5.3951,11.7607-11.989,11.7607Z"/>
  <path class="cls-4" d="M902.522,612.7377c2.1248,1.0122-3.9673,41.3967-35.1677,60.1103-29.7529,17.8454-66.987,6.7766-67.1384,3.0709-.1625-3.9778,42.448,1.6569,75.1311-26.135,20.2048-17.1811,25.62-37.787,27.1751-37.0462Z"/>
  <ellipse class="cls-4" cx="749.8621" cy="608.8174" rx="9.3248" ry="4.9657"/>
  <path class="cls-4" d="M713.3622,579.1542c-1.2629,1.2323-1.4241,3.2761-1.1989,4.1816,1.7152,6.8971,38.7686-.3021,78.4614,0,19.242.1464,102.4584,2.538,117.9585-2.4174,1.8549-.593,8.0025-2.5584,7.7928-3.8549-.085-.5259-1.1887-.7726-1.5319-.8494-2.94-.6573-5.7554,1.3288-6.1277,1.5681-6.1905,3.9782-73.983-1.3466-115.4275.8494-28.889,1.5308-53.5747,7.1714-66.6055,1.8295-1.6684-.684-10.137-4.4139-13.3212-1.3068Z"/>
</svg>