<?xml version="1.0" encoding="UTF-8"?>
<svg id="Layer_1" data-name="Layer 1" xmlns="http://www.w3.org/2000/svg" viewBox="0 0 1621.4173 1264.252">
  <defs>
    <style>
      .cls-1 {
        fill: #d1d3d6;
      }

      .cls-2 {
        fill: #2f2e31;
      }

      .cls-3 {
        fill: #9fa2a3;
      }

      .cls-4 {
        fill: #bbbdbf;
      }

      .cls-5 {
        fill: #b2b2b3;
      }

      .cls-6 {
        fill: #d4d6d7;
      }

      .cls-7 {
        fill: #a7a9ac;
      }
    </style>
  </defs>
  <g>
    <g>
      <g>
        <path class="cls-4" d="M709.8673,614.489c-.7103-1.286-23.9249,2.0331-25.4432,15.2235-1.3095,11.3765,14.8386,18.6447,21.411,20.336.2094.0539,3.7477.9468,4.1049.1767.4999-1.078-6.0376-3.678-11.2485-10.3892-2.3243-2.9936-4.0624-5.2321-4.2422-8.0627-.5885-9.2619,16.0596-16.1226,15.418-17.2842Z"/>
        <path class="cls-3" d="M710.7368,614.368c-.4225-.5463-15.7538,4.1982-17.128,16.1982-1.1596,10.1253,8.4271,18.3472,15.5765,20.3283,1.6229.4497,3.8285.7726,4.1049.1767.4999-1.0779-6.0376-3.678-11.2484-10.3892-2.1818-2.8101-3.9254-5.1049-4.2422-8.0627-1.023-9.5501,13.3789-17.6803,12.9373-18.2512Z"/>
      </g>
      <g>
        <path class="cls-4" d="M911.55,612.0551c.7103-1.286,23.9249,2.0331,25.4432,15.2235,1.3095,11.3765-14.8386,18.6447-21.411,20.336-.2094.0539-3.7477.9468-4.1049.1767-.4999-1.078,6.0376-3.678,11.2485-10.3892,2.3243-2.9936,4.0624-5.2321,4.2422-8.0627.5885-9.2619-16.0596-16.1226-15.418-17.2842Z"/>
        <path class="cls-3" d="M910.6805,611.9341c.4225-.5463,15.7538,4.1982,17.128,16.1982,1.1596,10.1253-8.4271,18.3472-15.5765,20.3283-1.6229.4497-3.8285.7726-4.1049.1767-.4999-1.0779,6.0376-3.678,11.2484-10.3892,2.1818-2.8101,3.9254-5.1049,4.2422-8.0627,1.023-9.5501-13.3789-17.6803-12.9373-18.2512Z"/>
      </g>
      <path class="cls-4" d="M732.3138,578.2611h154.8626c15.2124,0,27.563,12.3506,27.563,27.563v42.4433c0,31.4267-25.5145,56.9413-56.9413,56.9413h-96.1061c-31.4267,0-56.9413-25.5145-56.9413-56.9413v-42.4433c0-15.2124,12.3506-27.563,27.563-27.563Z"/>
      <path class="cls-5" d="M912.288,598.1487h-203.5757c-6.5621,0-11.9311-5.2668-11.9311-11.704s5.369-11.704,11.9311-11.704h203.5757c6.5621,0,11.9312,5.2668,11.9312,11.704s-5.369,11.704-11.9312,11.704Z"/>
      <path class="cls-6" d="M902.0792,620.6799c2.1145,1.0074-3.9482,41.197-34.9981,59.8203-29.6094,17.7593-66.6639,6.7439-66.8146,3.0561-.1617-3.9586,42.2433,1.6489,74.7687-26.0089,20.1073-17.0982,25.4964-37.6047,27.044-36.8675Z"/>
      <ellipse class="cls-6" cx="750.1556" cy="616.7785" rx="9.2798" ry="4.9417"/>
      <path class="cls-6" d="M713.8317,587.2584c-1.2568,1.2264-1.4172,3.2603-1.1931,4.1614,1.7069,6.8638,38.5816-.3006,78.0829,0,19.1492.1457,101.9642,2.5257,117.3895-2.4058,1.846-.5902,7.9639-2.546,7.7552-3.8363-.0846-.5234-1.183-.7689-1.5245-.8453-2.9258-.6541-5.7276,1.3224-6.0982,1.5605-6.1607,3.959-73.6261-1.3401-114.8707.8453-28.7497,1.5234-53.3163,7.1368-66.2842,1.8207-1.6604-.6807-10.0881-4.3926-13.2569-1.3005Z"/>
    </g>
    <path class="cls-2" d="M905.904,593.014c-13.7576,0-22.4885-4.7967-30.8124,0-13.0212,7.5035-1.5509,40.5617-13.309,44.7801-.2367.0849-2.5659.885-4.9438,0-11.0685-4.1196-4.067-37.6305-9.6057-38.8366-4.3462-.9464-9.9918,19.3975-17.8153,19.0209-7.918-.3811-10.1756-21.6065-16.786-21.5133-6.0425.0852-10.9571,17.916-12.1871,22.3784-4.2507,15.4221-2.5125,25.5191-9.6577,29.1963-.4128.2125-3.7249,1.866-7.0582,1.0813-16.4645-3.8755-11.1435-61.9862-20.1119-63.1473-7.4953-.9704-16.64,38.9869-27.4067,37.9759-9.1145-.8559-14.8114-29.1179-26.9539-30.9357-1.2316-.1844-5.5176-.5638-8.5445-3.802-2.1928-2.3459-3.5539-5.5816-3.5539-9.1409v-1.3627c0-7.1186,5.4443-12.943,12.0984-12.943,20.0016-4.5496,30.5643-4.6785,36.5685-3.702,1.7015.2767,8.312,1.5002,16.9612.4775,3.1998-.3783,5.5011-.9249,6.3769-1.1201,32.4469-7.2328,56.6961,4.3446,56.6962,4.3447,5.3261,2.5429,12.5074,6.9511,18.1937,3.6846,1.991-1.1437,3.0925-2.8095,3.6388-3.6846,2.8941-4.636,15.3014-7.6894,55.0698-2.0944,1.9751.47,4.8953,1.3741,8.0281,3.2258,1.2165.7191,2.5052,1.4365,3.6588,2.6706,2.1929,2.3459,3.5539,5.5817,3.5539,9.1409v1.3627c0,7.1186-5.4442,12.9429-12.0983,12.9429Z"/>
  </g>
  <path class="cls-7" d="M760.1137,568.7658c-.1934-.7684,17.2472-7.1646,37.9215-4.9716,17.5697,1.8636,30.484,9.1889,30.1043,9.9398-.3816.7549-14.0409-5.4446-35.0961-6.8009-19.5895-1.2619-32.7632,2.4943-32.9297,1.8327Z"/>
  <path class="cls-7" d="M874.5256,565.1892c-1.4332-.1688-1.7361-.2375-1.7323-.2685.0283-.2276,16.9582-1.6396,28.0142,5.5,1.4662.9468,7.3359,4.7374,6.2441,8.2396-1.4074,4.5144-13.3559,5.2604-13.5323,4.8391-.1392-.3323,7.1296-1.1797,8.3925-4.7083,1.1388-3.1819-3.244-6.7611-4.5201-7.8032-7.4564-6.0891-18.6829-6.0039-22.8661-5.7987Z"/>
  <path class="cls-7" d="M720.089,585.5921c-1.8726,1.6817-11.85-.5467-13.9734-5.8854-1.6959-4.2637,2.0852-9.3358,6.7559-11.5324,5.7832-2.7198,10.2512.2288,28.3402,1.9849,8.4798.8232,16.2625,1.026,16.2482,1.3079-.0312.6157-37.0462-2.677-40.2955,5.1511-1.4579,3.5122,4.6409,7.4327,2.9247,8.9739Z"/>
  <path class="cls-1" d="M718.8283,583.2411c-1.0243,1.3796-8.3706.9141-10.7552-2.5832-1.9044-2.7931-.1192-6.75,2.7729-8.7953,3.0546-2.1603,8.7074-2.0471,20.1332-1.7129,4.7299.1383,12.072.5326,12.0739.5326h0c-.0005,0-7.0078.0838-14.2984.7194-6.1792.5387-8.1637,1.0903-9.9926,2.158-1.1211.6545-3.2141,1.8764-3.4918,3.7323-.4487,2.9992,4.3291,4.9107,3.558,5.9492Z"/>
  <path class="cls-1" d="M784.2361,565.7673c-.065-.241,6.2028-2.1707,13.5798-1.4023,6.2692.653,10.8451,2.9948,10.7054,3.228-.1405.2345-4.9887-1.7584-12.5064-2.2667-6.9944-.473-11.7229.6485-11.7788.441Z"/>
  <path class="cls-1" d="M746.8576,604.0959c.3855.0605,1.1104,2.7844.0702,5.1792-1.0414,2.3976-3.528,3.7199-3.8418,3.4742-.2705-.2118,1.1823-1.5027,2.4103-4.4533,1.0832-2.6028,1.0557-4.248,1.3613-4.2Z"/>
  <path class="cls-1" d="M866.093,623.1775c.8709.4411-.9545,11.1751-5.666,11.6026-4.8274.4379-8.4872-10.3246-7.5652-11.0034.6814-.5016,3.6749,4.6436,7.5654,4.1595,3.4853-.4337,5.0714-5.0595,5.6658-4.7587Z"/>
  <path class="cls-7" d="M782.9457,633.6784c3.8362,6.0875,8.811,7.7465,8.0785,9.9553-.6751,2.0357-5.6826,2.9836-9.3001,1.3728-5.4661-2.4338-6.2859-10.0536-6.5978-12.9531-.7671-7.1304,1.6553-14.0779,3.0645-13.9954,1.4776.0867-.1837,7.7837,4.755,15.6204Z"/>
  <path class="cls-1" d="M784.3678,635.5731c3.3398,3.893,7.108,5.0672,6.6564,6.7922-.488,1.864-5.5518,3.0253-9.3001,1.3728-5.6105-2.4733-6.4782-10.4588-6.7501-12.9618-.7786-7.1647,1.7951-14.0872,3.2168-13.9867,1.7573.1245-.6652,10.8077,6.1771,18.7835Z"/>
</svg>