<?xml version="1.0" encoding="UTF-8"?>
<svg id="Layer_1" data-name="Layer 1" xmlns="http://www.w3.org/2000/svg" viewBox="0 0 1621.4173 1264.252">
  <defs>
    <style>
      .cls-1 {
        fill: #cdecfc;
      }

      .cls-2 {
        fill: #a0d1e3;
      }
    </style>
  </defs>
  <path class="cls-2" d="M401.8397,569.6253c11.2729-41.7406,44.8655-73.1632,85.7794-80.2453,52.6277-9.1098,90.318,26.7355,94.0805,30.438,6.1953-66.8288,51.1772-122.2713,110.683-138.3537,72.8917-19.7006,155.7365,22.8583,185.394,102.3816,6.1615-4.8576,58.6303-44.7685,127.2854-27.6704,73.2526,18.243,100.0707,85.2333,102.3819,91.3135,32.4986-25.7994,76.6038-31.1947,113.4501-13.8358,52.8564,24.901,60.4816,82.3538,60.8754,85.7794,64.098,8.5942,110.5057,66.5399,105.149,130.0526-5.2419,62.1519-58.4805,110.977-121.7512,110.6827H365.8678c-100.7286-23.969-151.7657-124.7111-124.5184-199.2292,20.8238-56.951,86.7684-96.9331,160.4903-91.3135Z"/>
  <path class="cls-1" d="M401.8397,597.0245c11.2729-41.7406,44.8655-73.1635,85.7794-80.2456,52.6277-9.1098,90.318,26.7355,94.0805,30.438,6.1953-66.8288,51.1772-122.2713,110.683-138.3537,72.8917-19.7006,155.7365,22.8583,185.394,102.3816,6.1615-4.8576,58.6303-44.7685,127.2854-27.6704,73.2526,18.243,100.0707,85.2336,102.3819,91.3138,32.4986-25.7997,76.6038-31.195,113.4501-13.8358,52.8564,24.901,60.4816,82.3538,60.8754,85.7794,64.098,8.5942,110.5057,66.5399,105.149,130.0526-5.2419,62.1519-58.4805,110.977-121.7512,110.6827H365.8678c-100.7286-23.969-151.7657-124.7111-124.5184-199.2292,20.8238-56.951,86.7684-96.9331,160.4903-91.3135Z"/>
  <path class="cls-2" d="M383.8463,774.8449c-5.082-4.2516,18.2356-66.333,69.0133-83.1314,71.5481-23.67,146.6554,59.4237,144.3724,63.2597-1.9616,3.2958-60.9214-52.1514-127.6622-37.7121-53.6628,11.6095-80.923,61.5998-85.7235,57.5838Z"/>
  <path class="cls-2" d="M863.9413,645.8252c-3.7661-5.5143,49.7271-76.9459,120.6198-73.7183,75.9021,3.4555,122.5028,90.2517,120.1158,92.6922-1.9808,2.0253-36.9925-54.7588-99.6149-64.9159-75.26-12.207-137.2944,51.5449-141.1208,45.942Z"/>
</svg>