<?xml version="1.0" encoding="UTF-8"?>
<svg id="Layer_1" data-name="Layer 1" xmlns="http://www.w3.org/2000/svg" viewBox="0 0 2367.4471 1514.657">
  <defs>
    <style>
      .cls-1 {
        fill: #cdecfc;
      }

      .cls-2 {
        fill: #a0d1e3;
      }
    </style>
  </defs>
  <path class="cls-2" d="M717.3621,695.1069c11.1495-41.2839,44.3746-72.3626,84.8408-79.3672,52.0518-9.0101,89.3297,26.4429,93.051,30.105,6.1275-66.0976,50.6172-120.9333,109.4719-136.8398,72.0941-19.4851,154.0324,22.6082,183.3653,101.2613,6.0941-4.8044,57.9887-44.2786,125.8926-27.3676,72.4511,18.0433,98.9757,84.3006,101.2616,90.3143,32.143-25.5171,75.7656-30.8533,112.2087-13.6844,52.278,24.6285,59.8198,81.4526,60.2093,84.8408,63.3966,8.5002,109.2965,65.8118,103.9984,128.6295-5.1845,61.4718-57.8405,109.7627-120.4189,109.4716h-889.459c-99.6264-23.7068-150.1051-123.3465-123.1559-197.0491,20.596-56.3278,85.819-95.8724,158.7342-90.3143Z"/>
  <path class="cls-1" d="M717.3621,722.2063c11.1495-41.2839,44.3746-72.3629,84.8408-79.3675,52.0518-9.0101,89.3297,26.4429,93.051,30.105,6.1275-66.0976,50.6172-120.9333,109.4719-136.8398,72.0941-19.4851,154.0324,22.6082,183.3653,101.2613,6.0941-4.8044,57.9887-44.2786,125.8926-27.3676,72.4511,18.0433,98.9757,84.3009,101.2616,90.3146,32.143-25.5174,75.7656-30.8536,112.2087-13.6844,52.278,24.6285,59.8198,81.4526,60.2093,84.8408,63.3966,8.5002,109.2965,65.8118,103.9984,128.6295-5.1845,61.4718-57.8405,109.7627-120.4189,109.4716h-889.459c-99.6264-23.7068-150.1051-123.3465-123.1559-197.0491,20.596-56.3278,85.819-95.8724,158.7342-90.3143Z"/>
  <path class="cls-2" d="M699.5657,898.081c-5.0264-4.2051,18.0361-65.6071,68.2581-82.2217,70.7652-23.411,145.0507,58.7735,142.7927,62.5675-1.9402,3.2597-60.2547-51.5808-126.2653-37.2995-53.0756,11.4824-80.0375,60.9258-84.7854,56.9537Z"/>
  <path class="cls-2" d="M1174.4072,770.473c-3.7249-5.454,49.183-76.104,119.2999-72.9117,75.0716,3.4177,121.1623,89.2642,118.8015,91.6779-1.9591,2.0032-36.5878-54.1596-98.5249-64.2056-74.4365-12.0735-135.7921,50.9809-139.5766,45.4393Z"/>
</svg>