<?xml version="1.0" encoding="UTF-8"?>
<svg id="Layer_1" data-name="Layer 1" xmlns="http://www.w3.org/2000/svg" viewBox="0 0 1621.4173 1264.252">
  <defs>
    <style>
      .cls-1 {
        fill: #898e8c;
      }

      .cls-2 {
        fill: #9da1a3;
      }

      .cls-3 {
        fill: #b8bbbb;
      }
    </style>
  </defs>
  <g>
    <path class="cls-1" d="M242.1181,545.2098c15.6765-58.0463,62.3919-101.7439,119.2885-111.5925,73.1863-12.6685,125.6,37.1795,130.8324,42.3284,8.6155-92.935,71.1692-170.0356,153.9205-192.4006,101.3663-27.3966,216.5739,31.7877,257.8167,142.3762,8.5685-6.7551,81.5338-62.257,177.0085-38.4796,101.8683,25.3694,139.1625,118.529,142.3767,126.9844,45.194-35.8777,106.5285-43.3806,157.7685-19.2406,73.5043,34.6283,84.1082,114.5247,84.656,119.2885,89.1374,11.9515,153.6739,92.5332,146.2246,180.8567-7.2896,86.4311-81.3254,154.3294-169.3124,153.9201H192.094C52.0164,915.9184-18.9579,775.8222,18.9334,672.1942c28.9585-79.1985,120.6639-134.7993,223.1847-126.9844Z"/>
    <path class="cls-2" d="M242.1181,583.3123c15.6765-58.0463,62.3919-101.7443,119.2885-111.593,73.1863-12.6685,125.6,37.1795,130.8324,42.3284,8.6155-92.935,71.1692-170.0356,153.9205-192.4006,101.3663-27.3966,216.5739,31.7877,257.8167,142.3762,8.5685-6.7551,81.5338-62.257,177.0085-38.4796,101.8683,25.3694,139.1625,118.5294,142.3767,126.9848,45.194-35.8781,106.5285-43.3811,157.7685-19.2406,73.5043,34.6283,84.1082,114.5247,84.656,119.2885,89.1374,11.9515,153.6739,92.5332,146.2246,180.8567-7.2896,86.4311-81.3254,154.3294-169.3124,153.9201H192.094C52.0164,954.0209-18.9579,813.9247,18.9334,710.2967c28.9585-79.1985,120.6639-134.7993,223.1847-126.9844Z"/>
    <path class="cls-3" d="M531.1666,491.0171c-7.0673-5.9125,25.3592-92.2454,95.9728-115.606,99.4978-32.9165,203.9453,82.6372,200.7705,87.9716-2.7279,4.5833-84.7198-72.524-177.5326-52.4441-74.6258,16.1446-112.535,85.6633-119.2107,80.0785Z"/>
    <path class="cls-3" d="M312.638,781.4205c-5.2373-7.6685,69.1527-107.0043,167.739-102.5158,105.5528,4.8054,170.3576,125.5079,167.0382,128.9017-2.7545,2.8165-51.4434-76.1499-138.5287-90.2749-104.6598-16.9756-190.9274,71.6806-196.2485,63.889Z"/>
    <path class="cls-3" d="M1439.0929,710.0609c1.9022-3.358,146.4045,29.5912,147.0146,108.1088.5214,67.0342-104.2788,110.6468-108.0998,109.0568-.0343-.0145-.0579-.0244-.0851-.0517-1.8514-1.905,38.4714-30.839,53.4931-72.1276,1.8431-5.065,7.9766-22.3938,6.3676-40.9213-5.5696-64.1211-100.2934-101.2367-98.6903-104.065Z"/>
  </g>
  <path class="cls-3" d="M257.8816,961.3509c-134.6402-16.1967-227.4081-120.5122-211.3418-214.4203,13.2491-77.441,98.9037-138.4225,207.0479-138.9802-81.3765,19.1571-141.2455,72.2606-153.5441,138.0905-15.7454,84.2852,48.8949,176.5628,157.8381,215.31Z"/>
  <path class="cls-3" d="M923.9292,678.9758c8.2696-71.5541,98.5526-111.5687,184.5891-93.4761,70.9496,14.9201,130.4157,67.5473,136.0924,126.3726-21.2851-46.1329-72.3652-83.9618-132.7266-97.2079-77.2835-16.959-157.9809,8.9701-187.9549,64.3114Z"/>
</svg>