<?xml version="1.0" encoding="UTF-8"?>
<svg id="Layer_1" data-name="Layer 1" xmlns="http://www.w3.org/2000/svg" viewBox="0 0 1621.4173 1264.252">
  <defs>
    <style>
      .cls-1 {
        fill: #898e8c;
      }

      .cls-2 {
        fill: #9da1a3;
      }

      .cls-3 {
        fill: #b8bbbb;
      }
    </style>
  </defs>
  <g>
    <path class="cls-1" d="M409.3527,570.7737c11.0657-40.9737,44.0411-71.8188,84.2032-78.7708,51.6607-8.9424,88.6584,26.2442,92.3518,29.8787,6.0815-65.6008,50.2368-120.0245,108.6492-135.8115,71.5523-19.3386,152.8749,22.4383,181.9873,100.5003,6.0483-4.7683,57.553-43.9459,124.9465-27.1619,71.9066,17.9077,98.2319,83.6671,100.5006,89.6356,31.9015-25.3253,75.1962-30.6215,111.3654-13.5816,51.8851,24.4434,59.3702,80.8405,59.7569,84.2032,62.9202,8.4363,108.4751,65.3172,103.2168,127.6629-5.1456,61.0098-57.4059,108.9378-119.514,108.6489H374.0418c-98.8777-23.5286-148.977-122.4196-122.2303-195.5683,20.4412-55.9045,85.1741-95.1519,157.5413-89.6356Z"/>
    <path class="cls-2" d="M409.3527,597.6695c11.0657-40.9737,44.0411-71.8191,84.2032-78.7711,51.6607-8.9424,88.6584,26.2442,92.3518,29.8787,6.0815-65.6008,50.2368-120.0245,108.6492-135.8115,71.5523-19.3386,152.8749,22.4383,181.9873,100.5003,6.0483-4.7683,57.553-43.9459,124.9465-27.1619,71.9066,17.9077,98.2319,83.6674,100.5006,89.6359,31.9015-25.3256,75.1962-30.6218,111.3654-13.5816,51.8851,24.4434,59.3702,80.8405,59.7569,84.2032,62.9202,8.4363,108.4751,65.3172,103.2168,127.6629-5.1456,61.0098-57.4059,108.9378-119.514,108.6489H374.0418c-98.8777-23.5286-148.977-122.4196-122.2303-195.5683,20.4412-55.9045,85.1741-95.1519,157.5413-89.6356Z"/>
    <path class="cls-3" d="M613.3859,532.5202c-4.9886-4.1735,17.9005-65.1141,67.7451-81.6038,70.2334-23.235,143.9606,58.3318,141.7196,62.0973-1.9256,3.2352-59.8019-51.1932-125.3164-37.0192-52.6768,11.3962-79.436,60.4679-84.1483,56.5257Z"/>
    <path class="cls-3" d="M459.1312,737.5098c-3.6969-5.413,48.8134-75.532,118.4034-72.3637,74.5074,3.392,120.2518,88.5934,117.9087,90.989-1.9444,1.9881-36.3128-53.7526-97.7844-63.7231-73.8771-11.9827-134.7716,50.5978-138.5276,45.0979Z"/>
    <path class="cls-3" d="M1254.2717,687.1386c1.3427-2.3704,103.3438,20.8878,103.7745,76.3117.368,47.318-73.6082,78.1032-76.3053,76.9809-.0242-.0102-.0409-.0172-.0601-.0365-1.3069-1.3447,27.1562-21.7686,37.7596-50.9133,1.301-3.5753,5.6305-15.8073,4.4947-28.8855-3.9314-45.2617-70.795-71.4608-69.6634-73.4573Z"/>
  </g>
  <path class="cls-3" d="M420.4798,864.5188c-95.0396-11.4329-160.5226-85.067-149.1817-151.3547,9.3523-54.6639,69.814-97.7095,146.1507-98.1032-57.442,13.5226-99.7022,51.0072-108.3835,97.4751-11.1144,59.4951,34.5138,124.6319,111.4145,151.9827Z"/>
  <path class="cls-3" d="M890.6286,665.1962c5.8373-50.5085,69.5662-78.754,130.2975-65.9828,50.0818,10.5318,92.0577,47.6802,96.0647,89.2037-15.0247-32.5642-51.0811-59.2669-93.6889-68.617-54.5528-11.971-111.5154,6.3318-132.6733,45.396Z"/>
</svg>