<?xml version="1.0" encoding="UTF-8"?>
<svg id="Layer_1" data-name="Layer 1" xmlns="http://www.w3.org/2000/svg" viewBox="0 0 1621.4173 1264.252">
  <defs>
    <style>
      .cls-1 {
        fill: #cdecfc;
      }

      .cls-2 {
        fill: #a0d1e3;
      }
    </style>
  </defs>
  <path class="cls-2" d="M242.6273,545.2877c15.6625-57.9943,62.336-101.6528,119.1816-111.4926,73.1208-12.6571,125.4876,37.1462,130.7152,42.2905,8.6078-92.8518,71.1055-169.8834,153.7827-192.2283,101.2755-27.372,216.3799,31.7592,257.5859,142.2487,8.5608-6.7491,81.4608-62.2012,176.85-38.4452,101.777,25.3467,139.0379,118.4229,142.2492,126.8707,45.1535-35.8456,106.4331-43.3418,157.6272-19.2234,73.4385,34.5973,84.0329,114.4221,84.5802,119.1816,89.0575,11.9408,153.5363,92.4504,146.0937,180.6947-7.2831,86.3537-81.2526,154.1912-169.1608,153.7823H192.648C52.6959,915.6643-18.2149,775.6935,19.6425,672.1583c28.9326-79.1275,120.5558-134.6785,222.9848-126.8707Z"/>
  <path class="cls-1" d="M242.6273,583.356c15.6625-57.9943,62.336-101.6532,119.1816-111.493,73.1208-12.6571,125.4876,37.1462,130.7152,42.2905,8.6078-92.8518,71.1055-169.8834,153.7827-192.2283,101.2755-27.372,216.3799,31.7592,257.5859,142.2487,8.5608-6.7491,81.4608-62.2012,176.85-38.4452,101.777,25.3467,139.0379,118.4233,142.2492,126.8711,45.1535-35.846,106.4331-43.3422,157.6272-19.2234,73.4385,34.5973,84.0329,114.4221,84.5802,119.1816,89.0575,11.9408,153.5363,92.4504,146.0937,180.6947-7.2831,86.3537-81.2526,154.1912-169.1608,153.7823H192.648C52.6959,953.7326-18.2149,813.7619,19.6425,710.2267c28.9326-79.1275,120.5558-134.6785,222.9848-126.8707Z"/>
  <path class="cls-2" d="M217.6273,830.4193c-7.061-5.9072,25.3365-92.1628,95.8868-115.5025,99.4087-32.887,203.7626,82.5632,200.5907,87.8928-2.7255,4.5792-84.644-72.4591-177.3736-52.3971-74.559,16.1302-112.4342,85.5866-119.1039,80.0068Z"/>
  <path class="cls-2" d="M884.6699,651.1597c-5.2326-7.6616,69.0907-106.9084,167.5888-102.424,105.4582,4.8011,170.205,125.3955,166.8886,128.7863-2.7521,2.814-51.3973-76.0817-138.4046-90.194-104.5661-16.9604-190.7565,71.6164-196.0728,63.8318Z"/>
</svg>