<?xml version="1.0" encoding="UTF-8"?>
<svg id="Layer_1" data-name="Layer 1" xmlns="http://www.w3.org/2000/svg" viewBox="0 0 2129.7948 1654.5383">
  <defs>
    <style>
      .cls-1 {
        fill: #e3e3e2;
      }

      .cls-2 {
        fill: #a5a6a9;
      }

      .cls-3 {
        fill: #2e2d30;
      }

      .cls-4 {
        fill: #818386;
      }

      .cls-5 {
        fill: #aac4cd;
      }

      .cls-6 {
        fill: #cfd1d4;
      }

      .cls-7 {
        fill: #231f1f;
      }

      .cls-8 {
        stroke: #4c4b4c;
      }

      .cls-8, .cls-9 {
        fill: none;
        stroke-linecap: round;
        stroke-linejoin: round;
        stroke-width: 29.9383px;
      }

      .cls-9 {
        stroke: #414141;
      }
    </style>
  </defs>
  <g>
    <path class="cls-4" d="M1055.6032,1172.0176c-94.8936-.0762-190.9248-4.4854-285.4258-13.1064-5.9688-.5439-10.5371-5.5488-10.5371-11.542v-577.9473c0-4.126,2.1934-7.9414,5.7598-10.0166,1.8018-1.0488,3.8154-1.5732,5.8301-1.5732,1.9746,0,3.9492.5039,5.7246,1.5127,59.6523,33.8877,156.8994,74.2842,281.4238,74.2842,6.3193,0,12.7295-.1074,19.0537-.3203,115.9365-3.8896,206.4062-42.3662,261.8848-73.958,1.7783-1.0127,3.7568-1.5186,5.7354-1.5186,2.0127,0,4.0244.5234,5.8252,1.5693,3.5693,2.0752,5.7646,5.8916,5.7646,10.0205v577.9473c0,5.9932-4.5684,10.998-10.5371,11.542-95.3496,8.6982-192.2383,13.1074-287.9756,13.1074l-2.5264-.001Z"/>
    <path class="cls-4" d="M1345.0524,569.4219v577.9468c-87.7617,8.0063-183.749,13.0596-286.9087,13.0596-.8379,0-1.6929-.0005-2.5317-.001-102.1714-.0815-197.3169-5.1162-284.3818-13.0586v-577.9468c42.4348,24.1074,145.9231,75.7969,287.1472,75.7969,6.3972,0,12.8938-.1064,19.4436-.3262,128.5464-4.313,222.8667-50.2065,267.2314-75.4707M1345.0524,546.2417c-3.957,0-7.9141,1.0112-11.4707,3.0371-54.3433,30.9463-142.9629,68.6357-256.5381,72.4463-6.198.208-12.4783.3135-18.6663.3135-58.7292,0-117.0786-9.3242-173.4277-27.7144-35.7986-11.6831-70.2068-26.8428-102.2695-45.0571-3.5513-2.0176-7.5012-3.0254-11.4497-3.0254-4.0295,0-8.0576,1.0493-11.6602,3.146-7.1326,4.1514-11.5203,11.7817-11.5203,20.0342v577.9468c0,11.9863,9.1379,21.9956,21.0745,23.0845,94.8511,8.6528,191.2332,13.0786,286.469,13.1543l2.5503.001c96.0869,0,193.3252-4.4258,289.0146-13.1553,11.9365-1.0889,21.0742-11.0981,21.0742-23.0845v-577.9468c0-8.2568-4.3921-15.8906-11.5303-20.04-3.6001-2.0928-7.625-3.1401-11.6499-3.1401h0Z"/>
  </g>
  <g>
    <path class="cls-2" d="M1055.6022,1134.3262c-94.8926-.0762-190.9238-4.4854-285.4248-13.1064-5.9688-.5439-10.5371-5.5488-10.5371-11.542v-577.9463c0-4.126,2.1934-7.9414,5.7598-10.0166,1.8008-1.0488,3.8154-1.5732,5.8301-1.5732,1.9746,0,3.9492.5039,5.7246,1.5127,59.6553,33.8877,156.9043,74.2842,281.4248,74.2842,6.3184,0,12.7285-.1074,19.0527-.3203,115.9365-3.8896,206.4062-42.3662,261.8848-73.958,1.7783-1.0127,3.7568-1.5186,5.7354-1.5186,2.0127,0,4.0244.5234,5.8252,1.5693,3.5693,2.0752,5.7646,5.8916,5.7646,10.0205v577.9463c0,5.9932-4.5684,10.998-10.5371,11.542-95.3389,8.6982-192.2178,13.1074-287.9453,13.1074l-2.5576-.001Z"/>
    <path class="cls-2" d="M1345.0524,531.731v577.9468c-87.7617,8.0063-183.749,13.0596-286.9087,13.0596-.8379,0-1.6929-.0005-2.5317-.001-102.1714-.0815-197.3169-5.1162-284.3818-13.0586v-577.9468c42.4348,24.1074,145.9231,75.7969,287.1472,75.7969,6.3972,0,12.8938-.1064,19.4436-.3262,128.5464-4.313,222.8667-50.207,267.2314-75.4707M771.2304,508.5508c-4.0295,0-8.0576,1.0493-11.6602,3.146-7.1326,4.1514-11.5203,11.7817-11.5203,20.0342v577.9468c0,11.9863,9.1379,21.9956,21.0745,23.0845,94.8511,8.6528,191.2332,13.0786,286.469,13.1543l2.5503.001c96.0869,0,193.3252-4.4258,289.0146-13.1553,11.9365-1.0889,21.0742-11.0981,21.0742-23.0845v-577.9468c0-8.2568-4.3921-15.8906-11.5303-20.04-3.6001-2.0928-7.625-3.1401-11.6499-3.1401-3.957,0-7.9136,1.0112-11.4707,3.0371-54.3442,30.9463-142.9653,68.6357-256.5381,72.4463-6.198.208-12.4783.3135-18.6663.3135-58.7292,0-117.0786-9.3242-173.4277-27.7144-35.7986-11.6831-70.2068-26.8428-102.2695-45.0571-3.5513-2.0176-7.5012-3.0254-11.4497-3.0254h0Z"/>
  </g>
  <rect class="cls-5" x="869.8202" y="835.9198" width="357.9472" height="137.065" rx="26.9543" ry="26.9543"/>
  <rect class="cls-1" x="869.8202" y="829.0838" width="357.9472" height="126.5122" rx="25.8959" ry="25.8959"/>
  <path class="cls-9" d="M977.9211,656.3481c233.1,204.0779,376.153,283.9195,429.1673,239.5362,37.627-31.5012,29.8972-125.5808-23.187-282.2351"/>
  <path class="cls-8" d="M984.2487,678.5103c233.0999,204.0778,376.153,283.9197,429.1674,239.5364,37.627-31.5014,29.8972-125.5809-23.1871-282.2351"/>
  <path d="M1376.633,622.2977c-43.8168,0-71.3713-15.9281-100.5545,0-42.774,23.3457-3.5707,135.4836-43.5419,152.3662-1.5317.647-9.891,3.9929-18.1829.6808-38.5482-15.3979-10.8857-148.8303-29.1901-153.0473-14.0883-3.2457-34.0037,74.632-61.482,73.5729-25.5882-.9864-35.1033-71.9322-54.2249-70.3968-14.7134,1.1813-24.394,42.8409-31.5438,73.7979-13.3798,57.9309-9.2122,90.8755-32.2678,104.3075-1.7537,1.0217-12.975,7.559-24.464,4.8533-53.2954-12.5517-38.9789-207.717-68.8939-210.5629-29.1778-2.7758-53.4869,135.3592-89.4402,131.7695-29.7448-2.9697-48.3362-101.0339-87.9627-107.3413-4.0193-.6397-18.0064-1.9563-27.8844-13.1922-7.1561-8.1398-11.598-19.3672-11.598-31.7174v-4.7285c0-24.7003,17.7672-44.9098,39.4824-44.9098,65.2741-15.7862,99.7451-16.2337,119.3394-12.8454,5.5528.9601,27.1258,5.2054,55.352,1.6568,10.4425-1.3127,17.9525-3.2092,20.8107-3.8866,105.8888-25.0967,185.0246,15.075,185.025,15.0752,17.3814,8.8233,40.8172,24.1192,59.3741,12.7851,7.0901-4.3306,10.6538-10.83,11.8751-12.7848,10.3397-16.5519,52.3163-26.7843,189.9725-.0002,2.6573.009,16.6028.3599,27.8844,13.1924,7.1563,8.1398,11.5979,19.3674,11.5979,31.7174v4.7285c0,24.7003-17.7668,44.9096-39.4823,44.9096Z"/>
  <path class="cls-3" d="M1374.199,611.9823c-44.8972,0-73.3901-16.6437-100.5545,0-42.4939,26.0359-5.0613,140.742-43.4334,155.379-.7725.2947-8.3737,3.071-16.1339,0-36.1216-14.2944-13.2725-130.5712-31.3476-134.7561-14.1835-3.2839-32.6078,67.3059-58.1392,65.9992-25.84-1.3225-33.2075-74.9707-54.7803-74.6474-19.7194.2956-35.758,62.1652-39.7719,77.649-13.872,53.512-8.1993,88.5466-31.5173,101.3059-1.3473.7373-12.156,6.4745-23.0339,3.752-53.731-13.4474-36.3663-215.0811-65.634-219.11-24.4605-3.3671-54.3036,135.2775-89.4402,131.7695-29.7448-2.9697-48.3362-101.0339-87.9627-107.3413-4.0193-.6397-18.0064-1.9563-27.8844-13.1922-7.1561-8.1398-11.598-19.3672-11.598-31.7174v-4.7285c0-24.7003,17.7672-44.9098,39.4824-44.9098,65.2741-15.7862,99.7451-16.2337,119.3394-12.8454,5.5528.9601,27.1258,5.2054,55.352,1.6568,10.4425-1.3127,17.9525-3.2092,20.8107-3.8866,105.8888-25.0967,185.0247,15.075,185.0252,15.0752,17.3814,8.8233,40.8172,24.1192,59.3741,12.7851,6.4974-3.9686,10.0922-9.7484,11.8751-12.7848,9.4448-16.086,49.9354-26.6809,179.7175-7.2673,6.4456,1.6307,15.9755,4.7679,26.1992,11.193,3.97,2.495,8.1756,4.9844,11.9403,9.2664,7.1563,8.1398,11.5979,19.3674,11.5979,31.7174v4.7285c0,24.7003-17.7668,44.9096-39.4823,44.9096Z"/>
  <path d="M962.2322,819.6594c-12.5651-.7706-32.1366,32.7966-23.3354,59.1806,3.8969,11.6822,14.4331,25.1844,23.84,23.9159,11.72-1.5804,18.1491-25.6117,17.5789-42.9526-.5497-16.7159-8.0084-39.5261-18.0835-40.1439Z"/>
  <path d="M1046.0276,781.6898c-6.7484-.4138-17.2597,17.6141-12.5328,31.7843,2.0929,6.2742,7.7516,13.5259,12.8038,12.8446,6.2945-.8488,9.7474-13.7554,9.4411-23.0687-.2952-8.9777-4.3011-21.2284-9.7122-21.5602Z"/>
  <path class="cls-3" d="M959.7981,814.4506c-12.5651-.7706-32.1366,32.7966-23.3354,59.1806,3.8969,11.6822,14.4331,25.1844,23.84,23.9159,11.72-1.5804,18.1491-25.6117,17.5789-42.9526-.5497-16.7159-8.0084-39.5261-18.0835-40.1439Z"/>
  <path class="cls-3" d="M1043.5935,776.481c-6.7484-.4138-17.2597,17.6141-12.5328,31.7843,2.0929,6.2742,7.7516,13.5259,12.8038,12.8446,6.2945-.8488,9.7474-13.7554,9.4411-23.0687-.2952-8.9777-4.3011-21.2284-9.7122-21.5602Z"/>
  <path class="cls-2" d="M967.7013,784.3398c-4.3722-10.585-8.9137-24.5672-11.0963-41.3532-8.6762-66.7303,27.3779-120.3422,30.7767-119.204,3.5521,1.1894-32.0991,101.2954-3.7517,132.2044,1.1807,1.2872,7.2217,6.5505,9.2597,15.2036,2.2674,9.627-.3108,23.4154-7.7681,25.2552-5.4057,1.3338-12.5997-3.8022-17.4203-12.1062Z"/>
  <ellipse class="cls-2" cx="957.5247" cy="881.2468" rx="5.3467" ry="7.5979"/>
  <ellipse class="cls-2" cx="1040.7737" cy="787.4173" rx="2.6733" ry="3.799"/>
  <path class="cls-2" d="M1228.1037,748.573c1.7043.4823,4.1144.8553,6.5662-.0095,2.9927-1.0558,7.6874-4.5345,10.0464-19.8808,4.4825-29.1606-5.5464-61.5406-7.5042-61.1589-1.8402.3589,9.3275,52.3582-6.7538,65.8489-.9025.7572-4.9825,2.9938-5.5858,6.9412-.4952,3.2403,1.5028,6.25,3.2312,8.2591Z"/>
  <path class="cls-2" d="M898.5235,530.2951c-.6699-3.3067,59.7415-30.8308,131.3537-21.394,60.8583,8.0196,105.5913,39.5422,104.2761,42.7735-1.322,3.2483-48.6353-23.4294-121.5671-29.266-67.8547-5.4302-113.4861,10.7334-114.0628,7.8865Z"/>
  <path class="cls-2" d="M1294.8268,514.9043c-4.9642-.7263-6.0137-1.022-6.0003-1.1555.0981-.9796,58.7405-7.0556,97.0364,23.6679,5.0786,4.0744,25.4103,20.386,21.6284,35.457-4.8749,19.4265-46.2625,22.6369-46.8737,20.8239-.482-1.4298,24.6957-5.0767,29.0703-20.2611,3.9447-13.6927-11.2366-29.0947-15.6568-33.5791-25.8276-26.203-64.7143-25.8361-79.2043-24.9531Z"/>
  <ellipse class="cls-2" cx="1280.2963" cy="577.3763" rx="15.7587" ry="5.0653"/>
  <path class="cls-2" d="M759.8846,602.7027c-6.4865,7.2366-41.0463-2.3527-48.4016-25.3264-5.8743-18.3477,7.2226-40.1743,23.4012-49.6266,20.0319-11.7038,35.5085.9847,98.1657,8.5413,29.3724,3.5423,56.3305,4.4153,56.2811,5.6283-.1079,2.6495-128.3217-11.5198-139.577,22.1666-5.0498,15.1139,16.0753,31.9846,10.1306,38.6168Z"/>
  <path class="cls-6" d="M755.5177,592.5859c-3.5481,5.9368-28.9942,3.9335-37.2541-11.1161-6.5967-12.0194-.413-29.0467,9.6049-37.8484,10.5805-9.2961,30.1609-8.809,69.738-7.3712,16.3834.5952,41.8155,2.2921,41.822,2.2921h0c-.0018,0-24.2739.3606-49.5272,3.0955-21.4037,2.3181-28.2777,4.6917-34.6128,9.2864-3.8832,2.8164-11.1331,8.0744-12.0949,16.0609-1.5543,12.9063,14.9952,21.1317,12.3242,25.6008Z"/>
  <path class="cls-6" d="M964.6884,783.5536c-3.2476-8.4829-6.7757-19.7249-8.9152-33.2246-8.4424-53.2696,11.9301-96.3093,14.356-95.7867,3.3449.7207-12.0009,87.5804,7.3568,106.2317,1.0584,1.0198,5.8097,5.2947,7.4396,12.215,1.8217,7.7347-.2496,18.8129-6.2411,20.2911-4.3432,1.0716-10.123-3.0549-13.9961-9.7265Z"/>
  <path class="cls-6" d="M982.0792,517.392c-.225-1.0371,21.4855-9.3411,47.0383-6.0346,21.7156,2.81,37.5656,12.8873,37.0816,13.8909-.4866,1.0089-17.28-7.5666-43.32-9.7542-24.2273-2.0353-40.6061,2.7907-40.7998,1.8979Z"/>
  <path class="cls-6" d="M1240.6372,738.6016c1.5481-4.0436,3.2298-9.4024,4.2497-15.8375,4.0243-25.3925-5.6868-45.9087-6.8432-45.6595-1.5945.3436,5.7206,41.7478-3.5068,50.6385-.5045.4861-2.7693,2.5239-3.5463,5.8226-.8684,3.687.119,8.9677,2.975,9.6723,2.0703.5108,4.8254-1.4562,6.6716-4.6364Z"/>
  <ellipse class="cls-6" cx="1272.1542" cy="577.3763" rx="7.8793" ry="3.4547"/>
  <path class="cls-6" d="M839.9923,666.188c1.6588.2601,4.7783,11.9818.3021,22.2874-4.4812,10.3173-15.1819,16.0076-16.5323,14.9502-1.1639-.9115,5.0876-6.4665,10.3722-19.1638,4.6615-11.2004,4.5429-18.28,5.858-18.0738Z"/>
  <path class="cls-2" d="M1354.5637,921.7692c-.0479.247,38.0314,20.2473,63.3161,1.6884,26.0597-19.1277,17.1761-63.5417,16.603-63.5977-.5791-.0565,5.3791,45.0084-19.1117,62.5054-23.1971,16.5726-60.76-.8402-60.8075-.5961Z"/>
  <path class="cls-2" d="M1105.7524,776.4739c-1.2069,1.4865,51.3712,53.021,127.9873,99.0946,34.4906,20.741,68.2485,37.0053,68.9381,35.7885.7416-1.3086-37.1304-22.1746-88.8072-56.5868-70.7708-47.127-107.1352-79.5072-108.1182-78.2962Z"/>
  <path class="cls-7" d="M996.7903,905.1222c7.1884-.6324,14.3762-1.2725,21.5653-1.8972,3.7715-.3277,7.2419-.5964,10.9492.3087,3.1885.7785,6.3173,1.801,9.5041,2.5948,11.9462,2.9756,24.2968,4.469,36.5546,2.6645,5.6452-.831,10.9515-2.4548,16.1505-4.7746,2.5445-1.1353,5.2181-2.5791,7.6018-.4904,1.643,1.4397,1.8559,2.6202,4.247,3.2009,5.5827,1.3559,12.1844-.8603,17.6724-1.8404,6.8104-1.2163,13.6207-2.4326,20.4311-3.6489,1.5795-.2821,6.569-1.3534,6.6581-3.573.0922-2.2993-3.2418-2.141-4.822-1.8588-6.8104,1.2163-13.6207,2.4326-20.4311,3.6489-2.827.5049-6.4069,1.7553-9.2868,1.6586-1.86-.0624-1.4602.1349-3.2174-1.4391-.6054-.5422-1.0209-1.0216-1.7358-1.4499-9.4994-5.6914-20.6006,3.0965-29.7159,4.8522-12.8289,2.4709-26.0431-.6229-38.3655-4.1062-12.6355-3.5718-26.1671-.6717-39.0348.4604-2.2267.1959-6.4577.7162-7.6731,2.9749-1.1349,2.1091.9648,2.889,2.9483,2.7145h0Z"/>
</svg>