<?xml version="1.0" encoding="UTF-8"?>
<svg id="Layer_1" data-name="Layer 1" xmlns="http://www.w3.org/2000/svg" viewBox="0 0 1621.4173 1264.252">
  <defs>
    <style>
      .cls-1 {
        fill: #231f20;
      }

      .cls-2 {
        fill: #b5886b;
      }

      .cls-3 {
        fill: #c19979;
      }

      .cls-4 {
        fill: #aa8163;
      }

      .cls-5 {
        fill: #a7763d;
      }

      .cls-6 {
        fill: #cfb9ac;
      }

      .cls-7 {
        fill: #9f775c;
      }

      .cls-8 {
        fill: #8b5f3b;
      }

      .cls-9 {
        fill: #a17759;
      }

      .cls-10 {
        fill: #bfa392;
      }
    </style>
  </defs>
  <g>
    <g>
      <ellipse class="cls-1" cx="820.2629" cy="499.3442" rx="14.4818" ry="10.0903" transform="translate(-132.7707 381.4341) rotate(-24.2786)"/>
      <path class="cls-1" d="M828.417,494.2057c-1.961-13.5554-3.922-27.1107-5.883-40.6661-.017-.0899-.0391-.2231-.0552-.3861-.01-.1015-.0241-.2451-.0184-.2941.033-.2814,1.0896-.5791,2.4635-.5148.7179.0336,1.8171.18,3.1253.7537,1.9425.6262,17.0401,5.7683,22.2818,20.9581,2.7767,8.0464,1.5021,15.1867.6618,18.5314-.8234,1.1992-2.4382,1.5292-3.6033.8089-1.2509-.7734-1.6322-2.5405-.7354-3.8239.1764-.9766,1.0287-6.2425-2.4267-10.957-4.638-6.3279-12.6682-5.7024-13.0896-5.6624.8824,7.3537,1.7649,14.7074,2.6473,22.0612-1.7894-.2696-3.5788-.5393-5.3682-.8089Z"/>
    </g>
    <g>
      <ellipse class="cls-1" cx="844.757" cy="516.0304" rx="5.4298" ry="7.7929" transform="translate(167.6809 1238.159) rotate(-78.2634)"/>
      <path class="cls-1" d="M849.9321,516.3738c3.4356-6.5207,6.8711-13.0413,10.3067-19.562.0211-.0445.0536-.1095.0982-.1855.0278-.0473.0671-.1143.0851-.1338.1034-.1121.6575.0927,1.2351.5554.3018.2418.734.6533,1.1219,1.317.6474.8872,5.5918,7.9025,3.067,16.1726-1.3374,4.3809-4.1515,7.0855-5.5755,8.2755-.7378.2614-1.5451-.1059-1.8243-.7881-.2998-.7324.0934-1.6222.8899-1.8971.3858-.3693,2.423-2.3917,2.4107-5.5371-.0165-4.2218-3.7097-6.4905-3.9058-6.6064-1.9427,3.48-3.8855,6.9601-5.8282,10.4401-.6935-.6836-1.3871-1.3671-2.0806-2.0507Z"/>
    </g>
    <g>
      <path class="cls-1" d="M784.5554,497.9316l-10.5171-20.8464c-.0888-.165-.2072-.4336-.2348-.7747,0,0-.0466-.5765.2817-1.1973.4077-.7709,7.0631-7.9324,16.2921-17.5598.1807-.1931.4571-.4219.8217-.4695,1.9426-.2537,4.0924,4.9362,5.2116,7.6061,1.8127,4.3244,4.3734,10.2715,8.0522,18.4049-1.8781-.7512-3.7561-1.5024-5.6342-2.2537l-7.1366-15.0244-11.6439,13.3342,8.2634,18.5927-3.7561.1878Z"/>
      <ellipse class="cls-1" cx="798.9547" cy="487.884" rx="8.4277" ry="5.4815" transform="translate(36.7865 1031.4454) rotate(-66.9061)"/>
      <ellipse class="cls-1" cx="783.6664" cy="503.931" rx="8.3744" ry="5.4469" transform="translate(12.7338 1027.135) rotate(-66.9061)"/>
    </g>
  </g>
  <g>
    <path class="cls-3" d="M799.5999,811.5043l-3.5982.3531c-6.7056.6586-12.7308-4.2893-13.3892-10.9948l-23.0122-234.3641c.7997-2.8923,1.7064-5.8848,2.736-8.9622,1.8038-5.3924,3.7595-10.3729,5.7587-14.9306.2051-.2593,1.2968-1.5848,3.218-1.7967,1.6102-.1778,2.7943.5381,3.1298.7578,2.9055,4.2311,5.8424,8.8698,8.7128,13.9251,1.597,2.8127,3.069,5.5705,4.4268,8.259l23.0122,234.3641c.6586,6.7058-4.2893,12.7308-10.9948,13.3893Z"/>
    <g>
      <circle class="cls-5" cx="774.5748" cy="599.2115" r="8.214"/>
      <circle class="cls-5" cx="777.8236" cy="627.2588" r="8.214"/>
      <circle class="cls-5" cx="781.2635" cy="656.955" r="8.214"/>
      <circle class="cls-5" cx="787.05" cy="706.9099" r="8.214"/>
      <circle class="cls-5" cx="790.2989" cy="734.9573" r="8.214"/>
      <circle class="cls-5" cx="793.7388" cy="764.6534" r="8.214"/>
      <circle class="cls-8" cx="787.6669" cy="706.7925" r="7.2382"/>
      <circle class="cls-8" cx="791.4788" cy="734.8023" r="7.2382"/>
      <circle class="cls-8" cx="794.5907" cy="764.9329" r="7.2382"/>
      <circle class="cls-8" cx="775.2411" cy="598.9772" r="7.2382"/>
      <circle class="cls-8" cx="779.053" cy="626.987" r="7.2382"/>
      <circle class="cls-8" cx="782.1649" cy="657.1177" r="7.2382"/>
    </g>
    <rect class="cls-4" x="763.6219" y="677.3266" width="43.5738" height="8.6826" rx="4.0241" ry="4.0241" transform="translate(-76.6037 99.884) rotate(-6.9392)"/>
    <rect class="cls-4" x="773.3692" y="787.1038" width="43.5738" height="8.6826" rx="4.0241" ry="4.0241" transform="translate(-89.7952 101.8657) rotate(-6.9392)"/>
    <rect class="cls-4" x="754.7434" y="576.6156" width="40.141" height="8.6826" rx="4.3413" ry="4.3413" transform="translate(-64.5137 97.8662) rotate(-6.9392)"/>
    <ellipse class="cls-2" cx="771.2697" cy="542.2128" rx="3.236" ry="1.378" transform="translate(-77.9147 132.6552) rotate(-9.3599)"/>
    <rect class="cls-7" x="781.2652" y="786.3244" width="28.165" height=".7274" transform="translate(1679.9144 1471.5221) rotate(173.0608)"/>
    <rect class="cls-7" x="770.4468" y="676.7052" width="28.165" height=".7274" transform="translate(1645.113 1254.3938) rotate(173.0608)"/>
    <rect class="cls-7" x="760.5866" y="575.9133" width="28.165" height=".7274" transform="translate(1613.2875 1054.7396) rotate(173.0608)"/>
    <ellipse class="cls-9" cx="771.2134" cy="541.876" rx="2.8112" ry=".9899" transform="translate(-77.8607 132.6415) rotate(-9.3599)"/>
    <path class="cls-10" d="M757.7401,583.1439c.4918,1.8211,2.4118,2.5152,2.2789,2.7654-.159.2992-3.2374-.0683-3.8566-2.17-.6205-2.1059,1.7815-4.0753,2.0569-3.9183.2201.1255-.9461,1.5935-.4791,3.323Z"/>
    <path class="cls-10" d="M766.7716,684.2068c.4918,1.8211,2.4118,2.5152,2.2789,2.7654-.159.2992-3.2374-.0683-3.8566-2.17-.6205-2.1059,1.7815-4.0753,2.0569-3.9183.2201.1255-.9461,1.5935-.4791,3.323Z"/>
    <path class="cls-10" d="M776.8117,793.6873c.4918,1.8211,2.4118,2.5152,2.2789,2.7654-.159.2992-3.2374-.0683-3.8566-2.17-.6205-2.1059,1.7815-4.0753,2.0569-3.9183.2201.1255-.9461,1.5935-.4791,3.323Z"/>
    <ellipse class="cls-10" cx="796.9485" cy="793.7332" rx="15.0669" ry=".553" transform="translate(-90.0585 102.099) rotate(-6.9392)"/>
    <ellipse class="cls-10" cx="789.1464" cy="683.7655" rx="15.0669" ry=".553" transform="translate(-76.8298 100.3509) rotate(-6.9392)"/>
    <ellipse class="cls-10" cx="777.1859" cy="583.9312" rx="15.0669" ry=".553" transform="translate(-64.8557 98.1746) rotate(-6.9392)"/>
    <path class="cls-6" d="M796.2798,810.0834c7.3645,1.1796,12.0246-5.8898,11.8011-6.2925-.2221-.4003-5.2518,5.8163-12.738,4.2418-7.0232-1.4771-12.0543-8.9379-12.1863-8.7147-.1433.2423,5.4891,9.5427,13.1231,10.7654Z"/>
    <path class="cls-6" d="M783.7602,570.5216c-1.1448,1.0287-3.937-2.0017-10.2412-2.4838-1.4358-.1098-2.6315-.1911-4.1602.1859-4.2886,1.058-6.3798,4.5363-6.7965,4.2047-.364-.2896.6361-3.4171,3.3221-5.2136,2.4491-1.638,3.7907-.4914,8.3912-1.7827,4.0128-1.1262,4.7795-2.5003,6.4734-1.9252,2.8066.953,4.2269,5.9225,3.0112,7.0147Z"/>
    <ellipse class="cls-6" cx="766.7726" cy="553.582" rx="6.6024" ry=".9044" transform="translate(8.1697 1118.3075) rotate(-72.493)"/>
  </g>
</svg>