<?xml version="1.0" encoding="UTF-8"?>
<svg id="Layer_1" data-name="Layer 1" xmlns="http://www.w3.org/2000/svg" viewBox="0 0 1621.4173 1264.252">
  <defs>
    <style>
      .cls-1 {
        fill: #b5886b;
      }

      .cls-2 {
        fill: #c19979;
      }

      .cls-3 {
        fill: #aa8163;
      }

      .cls-4 {
        fill: #a7763d;
      }

      .cls-5 {
        fill: #cfb9ac;
      }

      .cls-6 {
        fill: #9f775c;
      }

      .cls-7 {
        fill: #8b5f3b;
      }

      .cls-8 {
        fill: #a17759;
      }

      .cls-9 {
        fill: #bfa392;
      }
    </style>
  </defs>
  <path class="cls-2" d="M824.0264,763.0935l-3.4864.3422c-6.4972.6381-12.3351-4.1559-12.973-10.6531l-22.2969-227.0794c.7748-2.8024,1.6534-5.7018,2.651-8.6836,1.7478-5.2247,3.6427-10.0505,5.5797-14.4665.1987-.2512,1.2565-1.5355,3.118-1.7409,1.5602-.1722,2.7074.5214,3.0326.7343,2.8152,4.0996,5.6608,8.5941,8.442,13.4923,1.5474,2.7252,2.9736,5.3974,4.2892,8.0023l22.2969,227.0794c.6381,6.4973-4.1559,12.3351-10.653,12.9731Z"/>
  <g>
    <circle class="cls-4" cx="799.7791" cy="557.3994" r="7.9587"/>
    <circle class="cls-4" cx="802.927" cy="584.5749" r="7.9587"/>
    <circle class="cls-4" cx="806.2599" cy="613.348" r="7.9587"/>
    <circle class="cls-4" cx="811.8666" cy="661.7503" r="7.9587"/>
    <circle class="cls-4" cx="815.0145" cy="688.9258" r="7.9587"/>
    <circle class="cls-4" cx="818.3474" cy="717.6989" r="7.9587"/>
    <circle class="cls-7" cx="812.4643" cy="661.6365" r="7.0132"/>
    <circle class="cls-7" cx="816.1577" cy="688.7756" r="7.0132"/>
    <circle class="cls-7" cx="819.1729" cy="717.9698" r="7.0132"/>
    <circle class="cls-7" cx="800.4247" cy="557.1724" r="7.0132"/>
    <circle class="cls-7" cx="804.1181" cy="584.3116" r="7.0132"/>
    <circle class="cls-7" cx="807.1334" cy="613.5057" r="7.0132"/>
  </g>
  <rect class="cls-3" x="789.1667" y="633.0864" width="42.2194" height="8.4128" rx="3.899" ry="3.899" transform="translate(-71.0603 102.5633) rotate(-6.9392)"/>
  <rect class="cls-3" x="798.611" y="739.4514" width="42.2194" height="8.4128" rx="3.899" ry="3.899" transform="translate(-83.8418 104.4835) rotate(-6.9392)"/>
  <rect class="cls-3" x="780.5642" y="535.5058" width="38.8934" height="8.4128" rx="4.2064" ry="4.2064" transform="translate(-59.3461 100.6083) rotate(-6.9392)"/>
  <ellipse class="cls-1" cx="796.5767" cy="502.1723" rx="3.1354" ry="1.3352" transform="translate(-71.0658 136.2379) rotate(-9.3599)"/>
  <rect class="cls-6" x="806.2615" y="738.6963" width="27.2896" height=".7048" transform="translate(1723.0962 1373.6252) rotate(173.0608)"/>
  <rect class="cls-6" x="795.7794" y="632.4843" width="27.2896" height=".7048" transform="translate(1689.3765 1163.2458) rotate(173.0608)"/>
  <rect class="cls-6" x="786.2257" y="534.8253" width="27.2896" height=".7048" transform="translate(1658.5402 969.7974) rotate(173.0608)"/>
  <ellipse class="cls-8" cx="796.5222" cy="501.8461" rx="2.7239" ry=".9591" transform="translate(-71.0135 136.2247) rotate(-9.3599)"/>
  <path class="cls-9" d="M783.4677,541.8312c.4765,1.7645,2.3368,2.437,2.208,2.6794-.1541.2899-3.1367-.0662-3.7368-2.1026-.6012-2.0405,1.7261-3.9486,1.9929-3.7965.2132.1216-.9167,1.544-.4642,3.2197Z"/>
  <path class="cls-9" d="M792.2184,639.7528c.4765,1.7645,2.3368,2.437,2.208,2.6794-.1541.2899-3.1367-.0662-3.7368-2.1026-.6012-2.0405,1.7261-3.9486,1.9929-3.7965.2132.1216-.9167,1.544-.4642,3.2197Z"/>
  <path class="cls-9" d="M801.9465,745.8304c.4765,1.7645,2.3368,2.437,2.208,2.6794-.1541.2899-3.1367-.0662-3.7368-2.1026-.6012-2.0405,1.7261-3.9486,1.9929-3.7965.2132.1216-.9167,1.544-.4642,3.2197Z"/>
  <ellipse class="cls-9" cx="821.4574" cy="745.8748" rx="14.5986" ry=".5359" transform="translate(-84.0969 104.7096) rotate(-6.9392)"/>
  <ellipse class="cls-9" cx="813.8978" cy="639.3252" rx="14.5986" ry=".5359" transform="translate(-71.2793 103.0157) rotate(-6.9392)"/>
  <ellipse class="cls-9" cx="802.3091" cy="542.594" rx="14.5986" ry=".5359" transform="translate(-59.6774 100.9071) rotate(-6.9392)"/>
  <path class="cls-5" d="M820.8095,761.7168c7.1356,1.1429,11.6508-5.7068,11.4343-6.0969-.2152-.3879-5.0886,5.6355-12.342,4.11-6.8049-1.4312-11.6797-8.6601-11.8075-8.4438-.1389.2348,5.3185,9.2461,12.7152,10.4308Z"/>
  <path class="cls-5" d="M808.6791,529.6013c-1.1092.9967-3.8146-1.9395-9.9229-2.4066-1.3911-.1064-2.5498-.1852-4.0308.1801-4.1553,1.0251-6.1815,4.3953-6.5852,4.074-.3526-.2806.6163-3.3109,3.2188-5.0516,2.373-1.5871,3.6729-.4761,8.1304-1.7273,3.888-1.0912,4.631-2.4226,6.2722-1.8654,2.7194.9234,4.0955,5.7384,2.9176,6.7967Z"/>
  <ellipse class="cls-5" cx="792.2195" cy="513.1881" rx="6.3972" ry=".8763" transform="translate(64.4843 1114.3332) rotate(-72.493)"/>
</svg>