<?xml version="1.0" encoding="UTF-8"?>
<svg id="Layer_1" data-name="Layer 1" xmlns="http://www.w3.org/2000/svg" viewBox="0 0 1621.4173 1264.252">
  <defs>
    <style>
      .cls-1 {
        fill: #f5b4d1;
      }

      .cls-2 {
        fill: #a9a8a8;
      }

      .cls-3 {
        fill: #737274;
      }

      .cls-4 {
        fill: #231f20;
      }

      .cls-5 {
        fill: #a7aeb3;
      }

      .cls-6 {
        fill: #52565d;
      }

      .cls-7 {
        stroke: #010101;
        stroke-width: 1.7395px;
      }

      .cls-7, .cls-8 {
        fill: none;
        stroke-linecap: round;
        stroke-linejoin: round;
      }

      .cls-9 {
        fill: #5e6065;
      }

      .cls-10 {
        fill: #979da2;
      }

      .cls-11 {
        fill: #7f8080;
      }

      .cls-12 {
        stroke-width: .1484px;
      }

      .cls-12, .cls-13 {
        fill: #fff;
        stroke-miterlimit: 10;
      }

      .cls-12, .cls-13, .cls-8 {
        stroke: #fff;
      }

      .cls-13 {
        stroke-width: .2373px;
      }

      .cls-14 {
        fill: #6e6f6f;
      }

      .cls-15 {
        fill: #575858;
      }

      .cls-16 {
        fill: #b3b3b3;
      }

      .cls-17 {
        fill: #d89bb8;
      }

      .cls-8 {
        stroke-width: 2.5305px;
      }

      .cls-18 {
        fill: #959595;
      }

      .cls-19 {
        fill: #c0bebe;
      }

      .cls-20 {
        fill: #c8c8c8;
      }

      .cls-21 {
        fill: #838486;
      }
    </style>
  </defs>
  <ellipse class="cls-4" cx="1366.146" cy="608.7583" rx=".301" ry=".602" transform="translate(-43.9833 110.2837) rotate(-4.5496)"/>
  <path class="cls-21" d="M1268.1822,231.4623c2.0759-13.6902,12.2328-89.5837-39.323-152.671-54.7953-67.052-137.3691-68.323-161.2656-68.6907-66.067-1.0169-112.5764,27.1344-122.3536,33.287-20.7044,13.029-59.3489,37.3466-74.9939,82.0558,0,.0004-8.3287,23.8012,1.0269,126.7321-.0015-.0004-21.7878,38.9944-25.4475,67.2436-2.5786,19.9109,2.1194,47.8201,32.0792,84.4055-14.3523,31.1162-42.1346,80.7982-93.1586,126.9802-40.7769,36.9071-81.6272,58.2097-110.3439,70.3757-74.2482,14.5448-163.5936,39.232-259.7632,82.2651-51.6379,23.1069-97.4089,47.9973-137.3473,72.5245-164.4577,116.3725-206.2469,300.7697-140.5092,397.057,76.742,112.406,304.3576,111.0812,333.658,49.5384,19.4491-40.8518-45.986-113.4818-109.7373-172.4307.6273-8.02,2.8609-19.059,10.9863-26.9919,21.2839-20.7789,66.0169-3.6746,112.2184,10.0928,89.4264,26.6477,154.1242,45.9268,201.4626,27.4481.0008-.0004,14.8366-7.5692,85.1684-119.249-11.5246,72.2533-20.4729,95.7395-20.4729,95.7399-6.3812,16.7479-11.4184,29.6439-22.7902,43.5744-13.9328,17.068-30.3602,24.3904-56.5235,39.0701-66.0884,37.0794-121.0678,40.8583-126.565,73.3268-1.036,6.121.1536,10.5019.4691,11.5872,10.3274,35.4818,101.3184,34.1643,110.0413,33.9679,69.9452-1.5728,123.2078-13.4755,130.9872-15.8578,121.5629-37.2284,208.9967-123.8809,246.5815-165.2492,10.6803,3.5283,35.7297,10.139,65.3809,2.0442,17.144-4.6804,29.7986-12.6317,37.707-18.6075,17.0386,28.4638,64.0477,97.8356,151.4478,127.444,101.8441,34.5016,221.5466,2.4812,227.3402-34.3946,5.0388-32.0723-79.3626-46.98-149.2803-145.7325-26.7501-37.7823-41.3637-73.6908-49.4272-97.5182,13.4675-46.3024,28.2843-118.4349,21.6182-206.4341-8.6641-114.3608-49.3898-199.7897-75.7189-245.7907,10.6612-8.3168,32.5025-27.905,42.1262-60.2237,20.0496-67.3341-32.5476-124.067-35.2782-126.9187Z"/>
  <ellipse class="cls-4" cx="944.5953" cy="190.8202" rx="31.7484" ry="36.4265" transform="translate(-12.1599 75.5286) rotate(-4.5496)"/>
  <path class="cls-5" d="M1331.9356,619.0592c-5.0931-8.3901-17.7775-26.7302-41.7082-39.4054-5.7211-3.0302-28.9211-14.94-58.9442-12.2181-7.7793.7053-52.7316,4.7808-70.8218,35.8293-12.0672,20.7112-12.6,54.1427-12.6002,54.1436,1.1754,28.5734.5758,108.8017-54.4657,180.6656-22.1047,28.8606-46.7514,48.227-66.416,60.8414,6.8687,10.6889,18.1692,31.4794,21.0656,59.9762,3.8891,38.2638-9.7164,67.3777-15.7789,78.7025,3.5263,1.2908,8.7322,2.9857,15.1833,4.3108,18.3706,3.7733,33.3023,1.7653,42.5767.4367,10.722-1.5358,17.618-3.7565,19.6507-4.4322,8.7699-2.9158,14.636-6.2076,16.0484-7.0138,4.6821-2.6723,8.3659-5.3903,11.0159-7.5438.1403-.0159.3455-.0416.5918-.0816,1.1194-.1811,1.9416-.4694,2.4395-.647,2.1474-.7661,3.3526-1.3153,5.9434-2.2655l.002-.0008c7.4673-2.5699,11.201-3.8548,14.4938-5.6823,56.9154-31.589,89.6295-62.2356,89.6297-62.2358,3.7383-3.6129,36.7599-35.6578,52.9945-57.8108,65.8421-89.8457,32.6171-258.5861,29.0997-275.5692Z"/>
  <path class="cls-5" d="M758.6333,992.0359c7.8474-46.5347,11.9059-70.6009,11.906-70.601-.0012,0-125.6824-35.8808-225.0361,9.2217-.0003.0001-124.0295,56.3166-145.5104,61.586-.078.0191-6.7447,1.656-6.7447,1.656,107.6644,26.9063,127.9932,32.5645,138.6317,36.3787.1723.0619,1.9747.8248,4.4882,1.6937,2.1515.7438,4.8681,1.5288,5.9274,1.812,35.6717,9.5371,53.3242,12.7407,53.3245,12.7407s96.9558,17.5953,136.5714,3.0974c2.3004-.8419,3.8881-1.7607,4.4382-2.0894,3.5112-2.0971,10.281-7.3281,16.7903-29.9446,1.8049-6.271,3.896-14.9428,5.2133-25.5513Z"/>
  <ellipse class="cls-4" cx="1192.344" cy="185.941" rx="31.1134" ry="36.4265" transform="translate(-10.9922 95.1651) rotate(-4.5496)"/>
  <path class="cls-1" d="M1027.8322,386.7463c-.9031,36.969,24.7048,62.7798,46.0854,62.3244,23.5878-.5023,43.9446-33.0071,43.477-58.22-.0336-1.8127-.1322-3.6043-.2926-5.3719-.379-1.3195-.9764-2.098-1.3814-2.5301-5.6821-6.061-27.3682-1.3837-35.3439,9.1305-.9436,1.2442-2.8613,4.107-5.8907,4.418-3.0913.3175-5.6477-2.197-6.7746-3.2399-13.2834-12.2901-35.133-11.7442-37.7666-10.5581-1.01.455-1.5418,1.2247-1.5433,1.2266-.6578.9516-.6578,2.0759-.5692,2.8204Z"/>
  <line class="cls-8" x1="1181.8218" y1="183.0041" x2="1181.2217" y2="183.0518"/>
  <line class="cls-8" x1="951.8143" y1="190.5122" x2="951.2142" y2="190.5599"/>
  <path class="cls-6" d="M1009.9931,249.7637c-.0176,23.8756,36.979,46.9316,68.3927,40.8675,24.1323-4.6584,49.7417-27.4231,45.9218-49.9638-3.9046-23.0403-36.5918-34.2479-60.0938-32.3565-25.2561,2.0325-54.2051,20.3429-54.2206,41.4528Z"/>
  <path class="cls-9" d="M1009.9581,252.4596c.0458,21.2226,37.1653,45.6126,68.7416,38.9792,23.7618-4.9918,48.4646-28.4087,45.1148-48.0391-3.4948-20.4801-36.4316-30.4415-59.5601-28.546-24.3731,1.9975-54.3375,18.5132-54.2963,37.6059Z"/>
  <path class="cls-12" d="M1053.2381,229.1914c-.6217-1.1649-15.7885-.8161-23.9599,9.8824-6.732,8.8138-6.1921,21.3476-5.1712,21.8412.8679.4196,1.7455-8.025,8.0017-16.4688,9.0397-12.2005,21.7171-14.1536,21.1294-15.2548Z"/>
  <ellipse class="cls-13" cx="1067.69" cy="268.4213" rx="12.8698" ry="3.4067" transform="translate(-17.9275 85.5372) rotate(-4.5496)"/>
  <ellipse class="cls-15" cx="1189.5044" cy="93.4132" rx="18.4622" ry="10.5498" transform="translate(-3.6617 94.6483) rotate(-4.5496)"/>
  <ellipse class="cls-15" cx="1167.6781" cy="80.5285" rx="10.8355" ry="6.3207" transform="translate(-2.7084 92.8764) rotate(-4.5496)"/>
  <ellipse class="cls-15" cx="1195.1532" cy="301.9603" rx="11.4247" ry="7.6165" transform="translate(-20.1862 95.7535) rotate(-4.5496)"/>
  <ellipse class="cls-15" cx="1182.7871" cy="319.9233" rx="11.8478" ry="6.7702" transform="translate(-21.6501 94.8292) rotate(-4.5496)"/>
  <ellipse class="cls-15" cx="1201.2331" cy="337.0262" rx="11.0016" ry="6.3471" transform="translate(-22.9486 96.3463) rotate(-4.5496)"/>
  <line class="cls-7" x1="1384.5673" y1="346.0739" x2="1242.2168" y2="346.0739"/>
  <line class="cls-7" x1="1381.1377" y1="298.2224" x2="1240.3905" y2="319.3586"/>
  <line class="cls-7" x1="1369.1761" y1="251.2647" x2="1233.7797" y2="298.3718"/>
  <ellipse class="cls-15" cx="958.7516" cy="304.4015" rx="11.4247" ry="7.6165" transform="translate(-21.1248 77.0094) rotate(-4.5496)"/>
  <ellipse class="cls-15" cx="973.8028" cy="320.1828" rx="11.8478" ry="6.7702" transform="translate(-22.3292 78.253) rotate(-4.5496)"/>
  <ellipse class="cls-15" cx="958.2937" cy="339.9877" rx="11.0016" ry="6.3471" transform="translate(-23.949 77.0852) rotate(-4.5496)"/>
  <ellipse class="cls-5" cx="356.1798" cy="772.3071" rx="20.6273" ry="4.6396" transform="translate(-212.1944 139.6357) rotate(-17.177)"/>
  <ellipse class="cls-5" cx="442.753" cy="761.0325" rx="65.4139" ry="14.7131" transform="translate(-140.7658 101.7098) rotate(-11.3198)"/>
  <ellipse class="cls-5" cx="355.5509" cy="796.625" rx="44.7052" ry="9.8972" transform="translate(-175.9917 104.8951) rotate(-13.4873)"/>
  <ellipse class="cls-19" cx="1303.8519" cy="677.6637" rx="13.1069" ry="14.838" transform="translate(-49.6453 105.5596) rotate(-4.5496)"/>
  <ellipse class="cls-19" cx="1312.0949" cy="707.947" rx="8.8929" ry="10.0674" transform="translate(-52.0215 106.3088) rotate(-4.5496)"/>
  <ellipse class="cls-19" cx="1295.1449" cy="699.3314" rx="4.7868" ry="5.4191" transform="translate(-51.3915 104.9372) rotate(-4.5496)"/>
  <ellipse class="cls-3" cx="1191.2647" cy="1032.1995" rx="9.5145" ry="28.2529" transform="translate(-352.8168 1348.9957) rotate(-52.5024)"/>
  <ellipse class="cls-3" cx="1189.1707" cy="1055.5199" rx="6.4555" ry="19.1694" transform="translate(-372.138 1356.4589) rotate(-52.5024)"/>
  <ellipse class="cls-3" cx="1165.3203" cy="1029.1924" rx="3.4749" ry="10.3184" transform="translate(-360.5823 1327.2353) rotate(-52.5024)"/>
  <ellipse class="cls-12" cx="945.2475" cy="201.8696" rx="3.6118" ry="4.0633" transform="translate(-13.0343 75.6151) rotate(-4.5496)"/>
  <ellipse class="cls-12" cx="1188.3711" cy="194.7709" rx="3.6118" ry="4.0633" transform="translate(-11.7051 94.8778) rotate(-4.5496)"/>
  <path class="cls-16" d="M1131.3517,254.732c2.0013.9367,23.6759-18.0861,59.3198-21.4092,37.5728-3.5029,64.996,12.8325,67.1355,11.3468,2.3137-1.6066-24.9461-24.0468-65.2839-20.809-40.4124,3.2439-63.436,29.8114-61.1715,30.8714Z"/>
  <path class="cls-16" d="M875.5754,264.1566c2.0013.9367,23.6759-18.0861,59.3198-21.4092,37.5728-3.5029,64.996,12.8325,67.1355,11.3468,2.3137-1.6066-24.9461-24.0468-65.2839-20.809-40.4124,3.2439-63.436,29.8114-61.1715,30.8714Z"/>
  <path class="cls-11" d="M1185.2452,302.3605c.1409,1.8354,3.4366,3.0255,3.4876,2.5633.0372-.3368-1.6728-1.3358-1.7661-2.9372-.0895-1.5351,1.3727-2.4899,1.3168-2.709-.0801-.3138-3.1796,1.2431-3.0383,3.0828Z"/>
  <path class="cls-11" d="M1173.1416,320.0971c.1726,2.1021,3.4678,3.3679,3.5138,2.87.029-.3141-1.2573-1.0967-1.4268-2.771-.1797-1.7734,1.0432-3.0719.9287-3.4888-.1714-.6245-3.1879,1.2933-3.0157,3.3898Z"/>
  <path class="cls-11" d="M1191.7568,337.0126c.1726,2.1021,3.4678,3.3679,3.5138,2.87.029-.3141-1.2573-1.0967-1.4268-2.771-.1797-1.7734,1.0432-3.0719.9287-3.4888-.1714-.6245-3.1879,1.2933-3.0157,3.3898Z"/>
  <ellipse class="cls-11" cx="1201.7587" cy="341.061" rx="4.329" ry="1.082" transform="translate(-23.267 96.4007) rotate(-4.5496)"/>
  <ellipse class="cls-11" cx="1197.35" cy="305.0751" rx="4.2891" ry="1.5802" transform="translate(-20.4264 95.9376) rotate(-4.5496)"/>
  <ellipse class="cls-11" cx="1183.5484" cy="323.7235" rx="3.7247" ry=".7901" transform="translate(-21.9491 94.9016) rotate(-4.5496)"/>
  <path class="cls-11" d="M968.6812,302.8733c.1511,1.8346-2.9149,3.5309-3.0383,3.0826-.09-.3267,1.4404-1.5836,1.2793-3.1795-.1544-1.5299-1.7492-2.2415-1.7286-2.4667.0295-.3225,3.3362.7247,3.4876,2.5635Z"/>
  <path class="cls-11" d="M983.4375,318.4726c.162,2.103-2.8916,3.874-3.0157,3.3896-.0783-.3056,1.068-1.2817.9707-2.9618-.1031-1.7795-1.5158-2.8683-1.4688-3.298.0705-.6438,3.3523.7729,3.5138,2.8702Z"/>
  <path class="cls-11" d="M967.7316,338.1192c.162,2.103-2.8916,3.874-3.0157,3.3896-.0783-.3056,1.068-1.2817.9707-2.9618-.1031-1.7795-1.5158-2.8683-1.4688-3.298.0705-.6438,3.3523.7729,3.5138,2.8702Z"/>
  <ellipse class="cls-11" cx="958.4958" cy="343.6983" rx="4.329" ry="1.082" transform="translate(-24.2427 77.1129) rotate(-4.5496)"/>
  <ellipse class="cls-11" cx="957.158" cy="307.4681" rx="4.2891" ry="1.5802" transform="translate(-21.373 76.8926) rotate(-4.5496)"/>
  <ellipse class="cls-11" cx="973.7352" cy="323.6991" rx="3.7247" ry=".7901" transform="translate(-22.6083 78.2587) rotate(-4.5496)"/>
  <path class="cls-2" d="M1164.9017,162.4905c.5824,1.401,8.2112-7.8778,19.8763-11.3473,23.2702-6.9212,43.1976,15.0462,43.6742,13.2137.5063-1.9465-21.1886-29.7663-42.7451-22.6023-12.6144,4.1922-21.4726,19.1313-20.8054,20.7359Z"/>
  <path class="cls-2" d="M972.6095,165.2079c-.5279,1.4359-9.4556-7.3268-22.3259-10.0299-25.6745-5.3923-45.6285,17.8257-46.2776,16.0281-.6894-1.9094,20.7501-31.0825,44.5886-25.3365,13.9497,3.3625,24.6196,17.6937,24.0149,19.3383Z"/>
  <path class="cls-20" d="M1168.4772,202.5971c-4.0659-7.3692-3.3569-15.393-2.6155-15.3626.672.0275,1.0479,6.659,5.7363,14.7969,4.1576,7.2164,8.7485,10.4835,8.4531,11.001-.354.6201-7.5143-3.0773-11.574-10.4353Z"/>
  <path class="cls-20" d="M967.0638,207.5376c2.8493-7.9195.8803-15.7301.153-15.5829-.6592.1335.0184,6.741-3.3241,15.5179-2.964,7.7831-6.9805,11.7352-6.607,12.1993.4476.5563,6.9331-4.2269,9.778-12.1344Z"/>
  <path class="cls-20" d="M736.0296,1098.6284c1.1835,1.5418-32.8781,41.7943-89.3144,61.4557-48.0273,16.7318-92.0736,11.5194-92.2207,9.7537-.138-1.6559,38.384.3228,86.8471-16.5725,59.8708-20.8725,93.5437-56.1277,94.688-54.6368Z"/>
  <path class="cls-20" d="M755.3249,1127.6613c1.1835,1.5418-32.8781,41.7943-89.3144,61.4557-48.0273,16.7318-92.0736,11.5194-92.2207,9.7537-.138-1.6559,38.384.3228,86.8471-16.5725,59.8708-20.8725,93.5437-56.1277,94.688-54.6368Z"/>
  <path class="cls-20" d="M1327.1318,1040.2863c-1.1132,1.5933,34.7182,40.2788,91.9791,57.3908,48.729,14.5624,92.4973,7.381,92.5652,5.6106.0637-1.6604-38.331,2.0428-87.5026-12.6634-60.7462-18.1681-95.9653-51.8787-97.0417-50.338Z"/>
  <path class="cls-20" d="M1309.1571,1070.1548c-1.1132,1.5933,34.7182,40.2788,91.9791,57.3908,48.729,14.5624,92.4973,7.381,92.5652,5.6106.0637-1.6604-38.331,2.0428-87.5026-12.6634-60.7462-18.1681-95.9653-51.8787-97.0417-50.338Z"/>
  <ellipse class="cls-18" cx="892.7444" cy="199.492" rx="6.2754" ry="3.586" transform="translate(-13.0111 71.443) rotate(-4.5496)"/>
  <ellipse class="cls-18" cx="900.4278" cy="205.2844" rx="3.4433" ry="1.9676" transform="translate(-13.4464 72.0707) rotate(-4.5496)"/>
  <ellipse class="cls-18" cx="1242.8559" cy="180.9668" rx="6.2754" ry="3.586" transform="translate(-10.4385 99.1562) rotate(-4.5496)"/>
  <ellipse class="cls-18" cx="1236.1853" cy="187.9014" rx="3.4433" ry="1.9676" transform="translate(-11.0096 98.6489) rotate(-4.5496)"/>
  <path class="cls-17" d="M1042.2519,428.3246c-.5886,1.8491,14.7294,20.1489,32.8582,18.7272,17.6659-1.3854,29.7545-20.8511,28.9265-22.5547-.7378-1.5181-11.336,11.8856-29.007,13.4146-18.7537,1.6227-32.2407-11.2738-32.7776-9.5871Z"/>
  <path class="cls-10" d="M770.5393,921.4349c-.6794,4.651-1.7165,11.6536-3.0347,20.1722-3.0679,19.8254-3.4943,20.9509-7.0284,43.057-2.8896,18.075-2.8853,19.4024-4.2259,24.6799-3.2018,12.6053-7.5449,22.4951-10.8093,29.0218-1.4987,2.4286-4.2422,6.1538-8.8113,9.1659-3.9947,2.6335-7.5069,3.8587-12.4406,4.7477-8.4006,1.5136-12.7561,2.0137-15.1898,2.1523-.3146.018-4.8096.2695-4.8096.2695,0,0-9.6955.2765-10.4852-1.8077-1.0074-2.6586,13.2673-7.0723,25.7666-18.1662,13.5271-12.0061,19.7637-27.2106,26.6534-44.0072,2.1781-5.3101,2.7355-7.348,6.6764-19.0324,4.1547-12.3185,10.0818-29.4641,17.7383-50.2528Z"/>
  <path class="cls-10" d="M1026.9796,898.9156c11.2053,11.3453,24.0848,26.6725,35.6322,46.4965,16.5275,28.3736,7.6376,43.9347,23.1759,55.0553,11.9199,8.5309,45.1795,21.2136,52.9865,21.7663.2339.0166.8664.0521.9983.3899.7604,1.9481-15.9128,11.9265-35.227,17.2043-4.3932,1.2006-7.607,1.7982-11.6482,2.5497-11.2555,2.0932-21.7663,4.048-33.6584,2.9424-6.3337-.5888-15.872-2.3072-26.9728-7.7257,5.411-11.9446,11.4412-29.1721,13.2802-50.5155,3.587-41.6294-10.9322-73.83-18.567-88.1632Z"/>
  <path class="cls-20" d="M306.3352,1084.9268c-.7037,1.1377,36.0499,14.6787,79.216,47.9777,43.6173,33.647,65.9153,65.9708,66.8289,65.0146.9627-1.0074-22.0803-38.6912-64.5615-71.0247-40.5206-30.8411-80.7589-43.1392-81.4835-41.9676Z"/>
  <path class="cls-20" d="M285.5378,1108.9466c-.7037,1.1377,36.0499,14.6787,79.216,47.9777,43.6173,33.647,65.9153,65.9708,66.8289,65.0146.9627-1.0074-22.0803-38.6912-64.5615-71.0247-40.5206-30.8411-80.7589-43.1392-81.4835-41.9676Z"/>
  <path class="cls-14" d="M1261.6948,419.7865c-15.8063,8.1736-53.8973,24.9953-101.687,17.9046-20.4874-3.0397-37.1011-9.635-49.1484-15.7528-1.9304,4.4905-5.6833,11.4122-12.7661,17.4336-2.6194,2.2269-7.1516,5.9989-14.2968,8.1577-7.0176,2.1203-12.8272,1.5533-14.3839,1.371-12.7674-1.495-20.9298-10.0802-25.1601-14.529-3.0519-3.2095-7.605-8.7812-11.0827-17.101-24.3646,8.8303-45.3594,12.0063-59.8782,13.2365-21.6943,1.8381-44.2498,3.4886-69.6185-6.9152-12.5855-5.1614-21.9099-11.6743-27.7967-16.3573,3.7158,6.0046,10.737,15.6117,22.5641,23.6427,3.0859,2.0955,13.7301,8.9938,31.3356,12.4525,15.8396,3.1117,29.8754,1.2008,57.3005-2.748,32.1358-4.627,41.7294-8.6426,50.8974-1.6345,5.6391,4.3106,7.8032,10.2586,17.1196,14.0366,7.8329,3.1764,15.0134,2.5041,17.9887,2.1918,20.3645-2.138,28.6251-17.9879,38.1335-14.0551,4.2115,1.742,3.2215,5.1124,8.0246,9.7783,7.5521,7.3364,19.1612,7.9038,37.6209,6.0645,18.4462-1.838,30.4063-3.0296,49.7005-9.0877,32.2861-10.1372,40.1712-19.7913,53.1115-15.5489,8.2925,2.7186,16.5385,10.4481,22.9043,27.9183-2.5388-5.849-5.3737-11.9301-8.5431-18.1913-4.0628-8.0258-8.2199-15.4481-12.3397-22.2674Z"/>
  <path class="cls-2" d="M953.0309,155.1353c.0704.9991-7.6129-1.835-16.0229.0077-16.7766,3.6757-22.4544,22.8964-23.3246,21.9975-.9244-.9548,4.041-24.1298,19.8164-27.1013,9.2314-1.7388,19.4504,3.9519,19.5311,5.0962Z"/>
  <path class="cls-2" d="M1180.7007,151.3858c-.0042,1.0015,7.4748-2.3348,15.9882-1.0528,16.983,2.5574,23.9204,21.3601,24.7293,20.4056.8592-1.0139-5.6291-23.8095-21.5666-25.7304-9.3263-1.1241-19.1462,5.2304-19.151,6.3776Z"/>
  <path class="cls-2" d="M894.4538,412.6393c-.6308,1.4308,25.0303,16.3804,58.2641,16.5275,37.7116.1668,66.8204-18.8079,66.1191-20.2154-.6481-1.3008-26.4467,13.017-64.8606,13.4079-35.0108.3563-58.9248-11.0757-59.5225-9.7199Z"/>
  <line class="cls-7" x1="785.043" y1="374.1309" x2="925.6021" y2="351.619"/>
  <line class="cls-7" x1="780.8619" y1="326.3392" x2="923.1805" y2="324.9511"/>
  <line class="cls-7" x1="785.2469" y1="278.0808" x2="926.3891" y2="303.1829"/>
  <path class="cls-2" d="M1257.9637,408.3339c.7971,1.3453-22.8967,19.2504-55.8754,23.3622-37.4222,4.6659-68.5873-10.6995-68.059-12.1807.4882-1.3688,27.8111,9.768,65.9971,5.572,34.8031-3.8242,57.182-18.0283,57.9373-16.7535Z"/>
  <path class="cls-17" d="M1079.2268,412.4318c.0665,8.8906-2.4327,16.8499-3.2754,16.736-.7113-.0963.7533-5.8081-.4882-15.3657-.8213-6.3216-3.1822-17.0707-2.3074-17.311.1024-.0283.3553.0584.9909.0283.4095-.0195.6914-.0737.735-.0787.7419-.0875,4.2671,5.6198,4.345,15.9911Z"/>
</svg>