<?xml version="1.0" encoding="UTF-8"?>
<svg id="Layer_1" data-name="Layer 1" xmlns="http://www.w3.org/2000/svg" viewBox="0 0 1621.4173 1264.252">
  <defs>
    <style>
      .cls-1 {
        fill: #f5b4d1;
      }

      .cls-2 {
        fill: #a9a8a8;
      }

      .cls-3 {
        fill: #737274;
      }

      .cls-4 {
        fill: #231f20;
      }

      .cls-5 {
        fill: #a7aeb3;
      }

      .cls-6 {
        fill: #52565d;
      }

      .cls-7 {
        stroke: #010101;
        stroke-width: 1.1902px;
      }

      .cls-7, .cls-8 {
        fill: none;
        stroke-linecap: round;
        stroke-linejoin: round;
      }

      .cls-9 {
        fill: #5e6065;
      }

      .cls-10 {
        fill: #979da2;
      }

      .cls-11 {
        fill: #7f8080;
      }

      .cls-12 {
        stroke-width: .1624px;
      }

      .cls-12, .cls-8, .cls-13 {
        stroke: #fff;
      }

      .cls-12, .cls-13 {
        fill: #fff;
        stroke-miterlimit: 10;
      }

      .cls-14 {
        fill: #6e6f6f;
      }

      .cls-15 {
        fill: #575858;
      }

      .cls-16 {
        fill: #b3b3b3;
      }

      .cls-17 {
        fill: #d89bb8;
      }

      .cls-8 {
        stroke-width: 1.7313px;
      }

      .cls-18 {
        fill: #959595;
      }

      .cls-19 {
        fill: #c0bebe;
      }

      .cls-13 {
        stroke-width: .1015px;
      }

      .cls-20 {
        fill: #c8c8c8;
      }

      .cls-21 {
        fill: #838486;
      }
    </style>
  </defs>
  <ellipse class="cls-4" cx="1190.7348" cy="603.7173" rx=".2059" ry=".4119" transform="translate(-44.1362 96.3539) rotate(-4.5496)"/>
  <path class="cls-21" d="M1123.7087,345.5742c1.4203-9.3668,8.3696-61.2925-26.9045-104.4564-37.4905-45.8765-93.9869-46.7461-110.3367-46.9976-45.2025-.6958-77.0239,18.5652-83.7135,22.7747-14.1658,8.9143-40.6061,25.5523-51.3103,56.142,0,.0003-5.6984,16.2846.7026,86.7092-.001-.0003-14.907,26.6797-17.411,46.0076-1.7643,13.6229,1.4501,32.7182,21.9484,57.7497-9.8197,21.2894-28.8282,55.2815-63.7384,86.8789-27.8993,25.2516-55.8487,39.8267-75.4965,48.1505-50.8001,9.9514-111.9295,26.8423-177.7281,56.2852-35.3303,15.8095-66.6465,32.8394-93.972,49.6208-112.5207,79.6212-141.1126,205.7844-96.1354,271.6635,52.5063,76.9074,208.2392,76.0009,228.2864,33.8938,13.3069-27.9505-31.4633-77.6434-75.0814-117.9758.4292-5.4872,1.9574-13.0401,7.5168-18.4677,14.5623-14.2168,45.1683-2.5141,76.779,6.9054,61.1849,18.2322,105.4506,31.4228,137.8392,18.7798.0005-.0003,10.1511-5.1788,58.2716-81.5893-7.885,49.4352-14.0074,65.5043-14.0074,65.5045-4.3659,11.4588-7.8124,20.2821-15.5929,29.8133-9.5327,11.6778-20.7722,16.6878-38.673,26.7315-45.2172,25.3695-82.8337,27.9549-86.5948,50.1696-.7088,4.1879.1051,7.1853.321,7.9279,7.0659,24.2764,69.3213,23.3749,75.2895,23.2406,47.856-1.0761,84.2979-9.2199,89.6204-10.8498,83.1724-25.4714,142.994-84.7584,168.7092-113.0623,7.3074,2.414,24.446,6.937,44.7331,1.3986,11.7298-3.2023,20.388-8.6425,25.7989-12.7311,11.6577,19.4748,43.8209,66.9384,103.6195,87.1962,69.681,23.6057,151.5805,1.6976,155.5445-23.5325,3.4475-21.9437-54.2993-32.1434-102.1365-99.7091-18.3022-25.8504-28.3007-50.4187-33.8177-66.7212,9.2144-31.6797,19.3519-81.0323,14.791-141.2407-5.9279-78.2448-33.7921-136.6947-51.8063-168.1682,7.2943-5.6903,22.238-19.0924,28.8224-41.2046,13.7178-46.0695-22.2688-84.8857-24.1371-86.8368Z"/>
  <ellipse class="cls-4" cx="902.3129" cy="317.7671" rx="21.722" ry="24.9228" transform="translate(-22.3628 72.5746) rotate(-4.5496)"/>
  <path class="cls-5" d="M1167.3283,610.7651c-3.4847-5.7404-12.1633-18.2886-28.5364-26.9609-3.9143-2.0732-19.7876-10.2219-40.3292-8.3595-5.3225.4825-36.0786,3.271-48.4557,24.5141-8.2563,14.1705-8.6208,37.044-8.6209,37.0447.8042,19.5497.394,74.4413-37.265,123.6101-15.1239,19.7462-31.987,32.9965-45.4413,41.6272,4.6995,7.3133,12.4313,21.538,14.4129,41.0353,2.6609,26.1798-6.6479,46.0994-10.7958,53.8477,2.4127.8831,5.9745,2.0428,10.3883,2.9494,12.569,2.5817,22.7852,1.2078,29.1306.2988,7.3359-1.0508,12.0541-2.5702,13.4449-3.0325,6.0003-1.9949,10.0139-4.2472,10.9802-4.7988,3.2034-1.8284,5.7239-3.688,7.537-5.1614.096-.0109.2364-.0285.4049-.0558.7659-.1239,1.3284-.3211,1.6691-.4427,1.4692-.5242,2.2939-.8999,4.0664-1.5501l.0014-.0005c5.1091-1.7583,7.6636-2.6374,9.9165-3.8878,38.9411-21.613,61.3238-42.5811,61.324-42.5813,2.5577-2.4719,25.1508-24.3968,36.2584-39.5537,45.0487-61.4718,22.3164-176.9227,19.9098-188.5424Z"/>
  <path class="cls-5" d="M775.0791,865.953c5.3692-31.8387,8.1459-48.3046,8.146-48.3047-.0008,0-85.991-24.5494-153.968,6.3094-.0002,0-84.8601,38.5314-99.5571,42.1367-.0534.0131-4.6146,1.133-4.6146,1.133,73.6632,18.4091,87.572,22.2804,94.8508,24.8901.1179.0423,1.351.5644,3.0708,1.1588,1.472.5089,3.3307,1.046,4.0555,1.2398,24.4063,6.5252,36.484,8.7171,36.4842,8.7171s66.3364,12.0386,93.4411,2.1192c1.5739-.576,2.6602-1.2047,3.0366-1.4295,2.4023-1.4348,7.0342-5.0138,11.4878-20.4879,1.2349-4.2906,2.6656-10.2238,3.5669-17.482Z"/>
  <ellipse class="cls-4" cx="1071.8208" cy="314.4288" rx="21.2876" ry="24.9228" transform="translate(-21.5639 86.0098) rotate(-4.5496)"/>
  <path class="cls-1" d="M959.263,451.8184c-.6179,25.2939,16.9029,42.9534,31.5313,42.6419,16.1386-.3437,30.0665-22.5832,29.7466-39.8337-.023-1.2402-.0904-2.466-.2002-3.6754-.2593-.9028-.6681-1.4354-.9451-1.7311-3.8876-4.1469-18.7251-.9467-24.182,6.247-.6456.8513-1.9577,2.81-4.0303,3.0228-2.115.2172-3.8641-1.5031-4.6352-2.2167-9.0884-8.4088-24.0378-8.0353-25.8397-7.2238-.6911.3113-1.0549.838-1.0559.8393-.4501.6511-.4501,1.4203-.3894,1.9297Z"/>
  <line class="cls-8" x1="1064.6215" y1="312.4194" x2="1064.2109" y2="312.4521"/>
  <line class="cls-8" x1="907.2521" y1="317.5564" x2="906.8415" y2="317.5891"/>
  <path class="cls-6" d="M947.0576,358.0959c-.012,16.3355,25.3007,32.1102,46.7938,27.9613,16.5111-3.1873,34.0329-18.7627,31.4193-34.1849-2.6715-15.764-25.0358-23.4321-41.1157-22.1381-17.28,1.3906-37.0867,13.9184-37.0974,28.3617Z"/>
  <path class="cls-9" d="M947.0337,359.9404c.0314,14.5204,25.4282,31.2078,47.0325,26.6693,16.2577-3.4153,33.1591-19.437,30.8672-32.868-2.3911-14.0123-24.9262-20.8279-40.7506-19.531-16.6759,1.3667-37.1773,12.6666-37.1491,25.7297Z"/>
  <path class="cls-13" d="M976.6455,344.0204c-.4254-.797-10.8024-.5584-16.3932,6.7614-4.606,6.0304-4.2366,14.6059-3.5381,14.9436.5938.2871,1.1943-5.4906,5.4747-11.2678,6.1849-8.3475,14.8587-9.6838,14.4566-10.4372Z"/>
  <ellipse class="cls-12" cx="986.5334" cy="370.8612" rx="8.8054" ry="2.3308" transform="translate(-26.309 79.4225) rotate(-4.5496)"/>
  <ellipse class="cls-15" cx="1069.8779" cy="251.122" rx="12.6317" ry="7.2181" transform="translate(-16.5484 85.6562) rotate(-4.5496)"/>
  <ellipse class="cls-15" cx="1054.9445" cy="242.3064" rx="7.4136" ry="4.3246" transform="translate(-15.8962 84.4439) rotate(-4.5496)"/>
  <ellipse class="cls-15" cx="1073.7428" cy="393.8084" rx="7.8167" ry="5.2111" transform="translate(-27.8544 86.4124) rotate(-4.5496)"/>
  <ellipse class="cls-15" cx="1065.282" cy="406.0985" rx="8.1062" ry="4.6321" transform="translate(-28.8559 85.78) rotate(-4.5496)"/>
  <ellipse class="cls-15" cx="1077.9026" cy="417.8002" rx="7.5272" ry="4.3426" transform="translate(-29.7444 86.818) rotate(-4.5496)"/>
  <line class="cls-7" x1="1203.3385" y1="423.9906" x2="1105.9434" y2="423.9906"/>
  <line class="cls-7" x1="1200.992" y1="391.251" x2="1104.6938" y2="405.7122"/>
  <line class="cls-7" x1="1192.8079" y1="359.1229" x2="1100.1708" y2="391.3532"/>
  <ellipse class="cls-15" cx="911.9986" cy="395.4786" rx="7.8167" ry="5.2111" transform="translate(-28.4965 73.5878) rotate(-4.5496)"/>
  <ellipse class="cls-15" cx="922.2965" cy="406.2761" rx="8.1062" ry="4.6321" transform="translate(-29.3206 74.4387) rotate(-4.5496)"/>
  <ellipse class="cls-15" cx="911.6852" cy="419.8265" rx="7.5272" ry="4.3426" transform="translate(-30.4288 73.6396) rotate(-4.5496)"/>
  <ellipse class="cls-5" cx="499.7234" cy="715.6162" rx="14.1131" ry="3.1744" transform="translate(-189.0497 179.499) rotate(-17.177)"/>
  <ellipse class="cls-5" cx="558.9561" cy="707.9022" rx="44.7557" ry="10.0666" transform="translate(-128.0767 123.4851) rotate(-11.3198)"/>
  <ellipse class="cls-5" cx="499.2931" cy="732.2543" rx="30.5869" ry="6.7716" transform="translate(-157.0143 136.6449) rotate(-13.4873)"/>
  <ellipse class="cls-19" cx="1148.1136" cy="650.8619" rx="8.9676" ry="10.152" transform="translate(-48.0101 93.1216) rotate(-4.5496)"/>
  <ellipse class="cls-19" cx="1153.7534" cy="671.5815" rx="6.0845" ry="6.8881" transform="translate(-49.6358 93.6343) rotate(-4.5496)"/>
  <ellipse class="cls-19" cx="1142.1564" cy="665.6868" rx="3.2751" ry="3.7077" transform="translate(-49.2048 92.6958) rotate(-4.5496)"/>
  <ellipse class="cls-3" cx="1071.0823" cy="893.4327" rx="6.5098" ry="19.3304" transform="translate(-289.7461 1199.3498) rotate(-52.5024)"/>
  <ellipse class="cls-3" cx="1069.6496" cy="909.3883" rx="4.4168" ry="13.1155" transform="translate(-302.9655 1204.4561) rotate(-52.5024)"/>
  <ellipse class="cls-3" cx="1053.3313" cy="891.3752" rx="2.3775" ry="7.0598" transform="translate(-295.0592 1184.4616) rotate(-52.5024)"/>
  <ellipse class="cls-13" cx="902.7592" cy="325.3271" rx="2.4712" ry="2.7801" transform="translate(-22.9611 72.6338) rotate(-4.5496)"/>
  <ellipse class="cls-13" cx="1069.1025" cy="320.4702" rx="2.4712" ry="2.7801" transform="translate(-22.0517 85.8133) rotate(-4.5496)"/>
  <path class="cls-16" d="M1030.0902,361.4951c1.3693.6409,16.1989-12.3744,40.5862-14.648,25.7071-2.3967,44.4698,8.7799,45.9336,7.7634,1.583-1.0992-17.0679-16.4526-44.6667-14.2373-27.6498,2.2194-43.4025,20.3967-41.8531,21.122Z"/>
  <path class="cls-16" d="M855.09,367.9434c1.3693.6409,16.1989-12.3744,40.5862-14.648,25.7071-2.3967,44.4698,8.7799,45.9336,7.7634,1.583-1.0992-17.0679-16.4526-44.6667-14.2373-27.6498,2.2194-43.4025,20.3967-41.8531,21.122Z"/>
  <path class="cls-11" d="M1066.9638,394.0822c.0964,1.2558,2.3513,2.07,2.3862,1.7538.0254-.2305-1.1445-.914-1.2083-2.0096-.0612-1.0503.9392-1.7036.9009-1.8535-.0548-.2147-2.1755.8506-2.0788,2.1092Z"/>
  <path class="cls-11" d="M1058.6826,406.2175c.1181,1.4382,2.3727,2.3043,2.4041,1.9636.0199-.2149-.8602-.7503-.9762-1.8959-.1229-1.2133.7137-2.1018.6354-2.387-.1173-.4273-2.1811.8849-2.0633,2.3193Z"/>
  <path class="cls-11" d="M1071.419,417.7909c.1181,1.4382,2.3727,2.3043,2.4041,1.9636.0199-.2149-.8602-.7503-.9762-1.8959-.1229-1.2133.7137-2.1018.6354-2.387-.1173-.4273-2.1811.8849-2.0633,2.3193Z"/>
  <ellipse class="cls-11" cx="1078.2622" cy="420.5608" rx="2.9618" ry=".7403" transform="translate(-29.9622 86.8552) rotate(-4.5496)"/>
  <ellipse class="cls-11" cx="1075.2458" cy="395.9395" rx="2.9345" ry="1.0811" transform="translate(-28.0187 86.5384) rotate(-4.5496)"/>
  <ellipse class="cls-11" cx="1065.8028" cy="408.6986" rx="2.5484" ry=".5406" transform="translate(-29.0605 85.8295) rotate(-4.5496)"/>
  <path class="cls-11" d="M918.7923,394.4331c.1034,1.2552-1.9943,2.4158-2.0788,2.1091-.0616-.2235.9855-1.0835.8753-2.1754-.1057-1.0468-1.1968-1.5336-1.1827-1.6877.0202-.2207,2.2826.4958,2.3862,1.7539Z"/>
  <path class="cls-11" d="M928.8884,405.106c.1108,1.4388-1.9784,2.6505-2.0633,2.3191-.0536-.2091.7307-.8769.6641-2.0264-.0705-1.2175-1.0371-1.9625-1.0049-2.2565.0482-.4405,2.2936.5288,2.4041,1.9638Z"/>
  <path class="cls-11" d="M918.1426,418.548c.1108,1.4388-1.9784,2.6505-2.0633,2.3191-.0536-.2091.7307-.8769.6641-2.0264-.0705-1.2175-1.0371-1.9625-1.0049-2.2565.0482-.4405,2.2936.5288,2.4041,1.9638Z"/>
  <ellipse class="cls-11" cx="911.8235" cy="422.3652" rx="2.9618" ry=".7403" transform="translate(-30.6298 73.6586) rotate(-4.5496)"/>
  <ellipse class="cls-11" cx="910.9082" cy="397.5768" rx="2.9345" ry="1.0811" transform="translate(-28.6664 73.5079) rotate(-4.5496)"/>
  <ellipse class="cls-11" cx="922.2502" cy="408.6819" rx="2.5484" ry=".5406" transform="translate(-29.5115 74.4426) rotate(-4.5496)"/>
  <path class="cls-2" d="M1053.0449,298.3842c.3985.9585,5.6181-5.3899,13.5992-7.7637,15.9213-4.7354,29.5555,10.2945,29.8816,9.0407.3464-1.3318-14.4971-20.3659-29.2459-15.4644-8.6307,2.8683-14.6914,13.0895-14.2349,14.1874Z"/>
  <path class="cls-2" d="M921.48,300.2434c-.3612.9824-6.4694-5.013-15.2752-6.8624-17.5663-3.6894-31.2187,12.1962-31.6628,10.9663-.4717-1.3064,14.1971-21.2664,30.5072-17.335,9.5443,2.3006,16.8445,12.1059,16.4308,13.2311Z"/>
  <path class="cls-20" d="M1055.4912,325.8248c-2.7818-5.042-2.2968-10.5318-1.7895-10.511.4598.0188.717,4.5561,3.9247,10.1239,2.8446,4.9374,5.9857,7.1728,5.7836,7.5268-.2422.4242-5.1412-2.1055-7.9188-7.1398Z"/>
  <path class="cls-20" d="M917.6857,329.2051c1.9495-5.4185.6023-10.7624.1047-10.6617-.451.0913.0126,4.6121-2.2743,10.6172-2.0279,5.3251-4.776,8.0291-4.5205,8.3467.3062.3806,4.7435-2.892,6.6901-8.3022Z"/>
  <path class="cls-20" d="M759.6138,938.8828c.8097,1.0549-22.4949,28.5954-61.1082,42.0475-32.8599,11.4478-62.9961,7.8815-63.0967,6.6734-.0944-1.133,26.262.2208,59.4201-11.3388,40.9632-14.2808,64.0019-38.4022,64.7848-37.3821Z"/>
  <path class="cls-20" d="M772.8155,958.747c.8097,1.0549-22.4949,28.5954-61.1082,42.0475-32.8599,11.4478-62.9961,7.8815-63.0967,6.6734-.0944-1.133,26.262.2208,59.4201-11.3388,40.9632-14.2808,64.0019-38.4022,64.7848-37.3821Z"/>
  <path class="cls-20" d="M1164.0416,898.9656c-.7616,1.0901,23.754,27.5584,62.9314,39.2664,33.34,9.9635,63.286,5.0501,63.3324,3.8387.0436-1.1361-26.2258,1.3977-59.8686-8.6642-41.5621-12.4305-65.6587-35.495-66.3952-34.4409Z"/>
  <path class="cls-20" d="M1151.7434,919.4015c-.7616,1.0901,23.754,27.5584,62.9314,39.2664,33.34,9.9635,63.286,5.0501,63.3324,3.8387.0436-1.1361-26.2258,1.3977-59.8686-8.6642-41.5621-12.4305-65.6587-35.495-66.3952-34.4409Z"/>
  <ellipse class="cls-18" cx="866.8369" cy="323.7004" rx="4.2936" ry="2.4535" transform="translate(-22.9452 69.7793) rotate(-4.5496)"/>
  <ellipse class="cls-18" cx="872.0938" cy="327.6635" rx="2.3559" ry="1.3462" transform="translate(-23.243 70.2088) rotate(-4.5496)"/>
  <ellipse class="cls-18" cx="1106.3806" cy="311.0255" rx="4.2936" ry="2.4535" transform="translate(-21.185 88.7405) rotate(-4.5496)"/>
  <ellipse class="cls-18" cx="1101.8166" cy="315.7701" rx="2.3559" ry="1.3462" transform="translate(-21.5758 88.3934) rotate(-4.5496)"/>
  <path class="cls-17" d="M969.1288,480.2659c-.4027,1.2651,10.0777,13.7857,22.4813,12.813,12.0869-.9479,20.3578-14.2662,19.7913-15.4318-.5048-1.0387-7.756,8.132-19.8464,9.1782-12.8311,1.1102-22.0589-7.7134-22.4262-6.5594Z"/>
  <path class="cls-10" d="M783.2251,817.6484c-.4649,3.1822-1.1744,7.9733-2.0763,13.8017-2.099,13.5644-2.3908,14.3345-4.8088,29.4593-1.9771,12.3668-1.9741,13.275-2.8913,16.8858-2.1907,8.6244-5.1622,15.391-7.3956,19.8565-1.0254,1.6616-2.9025,4.2104-6.0286,6.2712-2.7331,1.8018-5.1362,2.6401-8.5118,3.2483-5.7476,1.0356-8.7277,1.3777-10.3927,1.4726-.2152.0123-3.2907.1844-3.2907.1844,0,0-6.6336.1892-7.1739-1.2368-.6893-1.819,9.0774-4.8388,17.6293-12.4292,9.2551-8.2145,13.5222-18.6173,18.2361-30.1094,1.4902-3.6331,1.8716-5.0274,4.568-13.0219,2.8426-8.4282,6.8979-20.1591,12.1364-34.3826Z"/>
  <path class="cls-10" d="M958.6796,802.2408c7.6666,7.7624,16.4786,18.2492,24.3793,31.8126,11.308,19.413,5.2256,30.0598,15.8568,37.6684,8.1555,5.8368,30.9115,14.5142,36.253,14.8923.1601.0114.5928.0356.683.2668.5203,1.3329-10.8874,8.16-24.102,11.771-3.0058.8214-5.2047,1.2303-7.9696,1.7445-7.7009,1.4321-14.8923,2.7696-23.0288,2.0132-4.3335-.4029-10.8595-1.5785-18.4546-5.2859,3.7022-8.1724,7.828-19.9594,9.0862-34.5623,2.4542-28.4825-7.4797-50.5139-12.7034-60.3206Z"/>
  <path class="cls-20" d="M465.6201,929.5083c-.4815.7784,24.6651,10.043,54.199,32.826,29.8426,23.021,45.0987,45.1367,45.7239,44.4825.6587-.6893-15.1072-26.4722-44.1725-48.5946-27.7239-21.1013-55.2546-29.5155-55.7504-28.714Z"/>
  <path class="cls-20" d="M451.3906,945.9425c-.4815.7784,24.6651,10.043,54.199,32.826,29.8426,23.021,45.0987,45.1367,45.7239,44.4825.6587-.6893-15.1072-26.4722-44.1725-48.5946-27.7239-21.1013-55.2546-29.5155-55.7504-28.714Z"/>
  <path class="cls-14" d="M1119.2701,474.4242c-10.8146,5.5923-36.8762,17.1016-69.5735,12.2502-14.0174-2.0798-25.3843-6.5922-33.6269-10.778-1.3208,3.0724-3.8885,7.8082-8.7345,11.928-1.7922,1.5236-4.8931,4.1044-9.7818,5.5814-4.8014,1.4507-8.7763,1.0628-9.8414.938-8.7354-1.0229-14.32-6.8968-17.2144-9.9406-2.0881-2.1959-5.2033-6.0081-7.5827-11.7004-16.67,6.0416-31.0346,8.2147-40.9682,9.0563-14.8431,1.2576-30.2754,2.3869-47.6325-4.7313-8.6109-3.5314-14.9906-7.9875-19.0183-11.1915,2.5423,4.1083,7.3462,10.6814,15.4382,16.1762,2.1114,1.4337,9.3941,6.1535,21.4396,8.5199,10.8373,2.129,20.4405.8216,39.2046-1.8801,21.9871-3.1658,28.551-5.9132,34.8236-1.1183,3.8582,2.9493,5.3389,7.0188,11.7131,9.6037,5.3592,2.1733,10.2721,1.7133,12.3078,1.4996,13.9332-1.4628,19.5851-12.3072,26.0907-9.6164,2.8815,1.1919,2.2041,3.4979,5.4904,6.6902,5.1671,5.0195,13.1099,5.4077,25.7399,4.1493,12.6207-1.2575,20.8037-2.0729,34.0047-6.2177,22.0899-6.9358,27.4848-13.5411,36.3385-10.6385,5.6737,1.86,11.3155,7.1485,15.6709,19.1015-1.737-4.0018-3.6766-8.1625-5.8451-12.4463-2.7797-5.4912-5.624-10.5695-8.4427-15.2352Z"/>
  <path class="cls-2" d="M908.0845,293.3518c.0482.6835-5.2087-1.2555-10.9627.0052-11.4784,2.5149-15.3631,15.6655-15.9585,15.0505-.6325-.6533,2.7648-16.5094,13.5582-18.5425,6.3161-1.1897,13.3078,2.7038,13.363,3.4868Z"/>
  <path class="cls-2" d="M1063.8545,290.7864c-.0029.6852,5.1142-1.5974,10.939-.7203,11.6197,1.7497,16.3662,14.6144,16.9196,13.9613.5878-.6937-3.8514-16.2903-14.7557-17.6045-6.381-.7691-13.0997,3.5786-13.103,4.3635Z"/>
  <path class="cls-2" d="M868.0064,469.5341c-.4316.979,17.1255,11.2074,39.8638,11.308,25.802.1141,45.718-12.8682,45.2382-13.8312-.4434-.89-18.0946,8.9062-44.3772,9.1736-23.9541.2438-40.3159-7.5779-40.7249-6.6503Z"/>
  <line class="cls-7" x1="793.1484" y1="443.187" x2="889.3179" y2="427.7845"/>
  <line class="cls-7" x1="790.2877" y1="410.4883" x2="887.6611" y2="409.5385"/>
  <line class="cls-7" x1="793.2879" y1="377.4702" x2="889.8564" y2="394.6449"/>
  <path class="cls-2" d="M1116.7173,466.5884c.5453.9205-15.6658,13.171-38.2296,15.9843-25.604,3.1924-46.9269-7.3205-46.5654-8.334.334-.9365,19.0281,6.6832,45.1548,3.8123,23.812-2.6165,39.1235-12.3348,39.6402-11.4626Z"/>
  <path class="cls-17" d="M994.4268,469.3922c.0455,6.0829-1.6644,11.5286-2.241,11.4507-.4867-.0659.5154-3.9739-.334-10.5131-.5619-4.3252-2.1772-11.6796-1.5787-11.844.07-.0193.2431.04.678.0193.2802-.0133.4731-.0504.5029-.0538.5076-.0599,2.9195,3.845,2.9728,10.941Z"/>
</svg>