<?xml version="1.0" encoding="UTF-8"?>
<svg id="Layer_1" data-name="Layer 1" xmlns="http://www.w3.org/2000/svg" viewBox="0 0 1621.4173 1264.252">
  <defs>
    <style>
      .cls-1 {
        fill: #b5886b;
      }

      .cls-2 {
        fill: #c19979;
      }

      .cls-3 {
        fill: #aa8163;
      }

      .cls-4 {
        fill: #a7763d;
      }

      .cls-5 {
        fill: #cfb9ac;
      }

      .cls-6 {
        fill: #9f775c;
      }

      .cls-7 {
        fill: #8b5f3b;
      }

      .cls-8 {
        fill: #a17759;
      }

      .cls-9 {
        fill: #bfa392;
      }
    </style>
  </defs>
  <path class="cls-2" d="M873.9114,1253.6657l-16.5456,1.6238c-30.8339,3.0283-58.5393-19.723-61.5668-50.5569L689.9833,127.0696c3.6771-13.2994,7.8466-27.0595,12.5808-41.2104,8.2945-24.7953,17.2873-47.6971,26.4801-68.6543.9432-1.1924,5.9632-7.2871,14.7972-8.2618,7.4041-.8174,12.8487,2.4745,14.3918,3.4847,13.3604,19.4555,26.8648,40.7854,40.0636,64.031,7.3435,12.9333,14.1122,25.6145,20.3555,37.9768l105.8157,1077.663c3.0282,30.8347-19.723,58.5393-50.5566,61.5673Z"/>
  <g>
    <circle class="cls-4" cx="758.8397" cy="277.492" r="37.77"/>
    <circle class="cls-4" cx="773.7788" cy="406.4604" r="37.77"/>
    <circle class="cls-4" cx="789.596" cy="543.0104" r="37.77"/>
    <circle class="cls-4" cx="816.204" cy="772.7155" r="37.77"/>
    <circle class="cls-4" cx="831.143" cy="901.6839" r="37.77"/>
    <circle class="cls-4" cx="846.9603" cy="1038.2339" r="37.77"/>
    <circle class="cls-7" cx="819.0403" cy="772.1755" r="33.2831"/>
    <circle class="cls-7" cx="836.5683" cy="900.9712" r="33.2831"/>
    <circle class="cls-7" cx="850.8777" cy="1039.5194" r="33.2831"/>
    <circle class="cls-7" cx="761.9037" cy="276.4147" r="33.2831"/>
    <circle class="cls-7" cx="779.4317" cy="405.2105" r="33.2831"/>
    <circle class="cls-7" cx="793.7411" cy="543.7587" r="33.2831"/>
  </g>
  <rect class="cls-3" x="708.4759" y="636.684" width="200.3629" height="39.9249" rx="18.5036" ry="18.5036" transform="translate(-73.4104 102.5095) rotate(-6.9392)"/>
  <rect class="cls-3" x="753.2964" y="1141.4662" width="200.3629" height="39.9249" rx="18.5036" ry="18.5036" transform="translate(-134.0683 111.6222) rotate(-6.9392)"/>
  <rect class="cls-3" x="667.6504" y="173.5903" width="184.5783" height="39.9249" rx="19.9624" ry="19.9624" transform="translate(-17.8177 93.2313) rotate(-6.9392)"/>
  <ellipse class="cls-1" cx="743.642" cy="15.3978" rx="14.8799" ry="6.3364" transform="translate(7.3965 121.148) rotate(-9.3599)"/>
  <rect class="cls-6" x="789.6038" y="1137.8823" width="129.5095" height="3.3449" transform="translate(1840.1361 2167.5412) rotate(173.0608)"/>
  <rect class="cls-6" x="739.8581" y="633.8266" width="129.5095" height="3.3449" transform="translate(1680.1107 1169.1322) rotate(173.0608)"/>
  <rect class="cls-6" x="694.5186" y="170.3611" width="129.5095" height="3.3449" transform="translate(1533.7694 251.0739) rotate(173.0608)"/>
  <ellipse class="cls-8" cx="743.3831" cy="13.8495" rx="12.9268" ry="4.5518" transform="translate(7.6449 121.0853) rotate(-9.3599)"/>
  <path class="cls-9" d="M681.4295,203.6093c2.2615,8.3738,11.0898,11.5656,10.4787,12.716-.7311,1.3757-14.8862-.3141-17.7338-9.9784-2.8533-9.6835,8.1916-18.7391,9.458-18.0174,1.012.5771-4.3505,7.3273-2.203,15.2798Z"/>
  <path class="cls-9" d="M722.9586,668.3211c2.2615,8.3738,11.0898,11.5656,10.4787,12.716-.7311,1.3757-14.8862-.3141-17.7338-9.9784-2.8533-9.6835,8.1916-18.7391,9.458-18.0174,1.012.5771-4.3505,7.3273-2.203,15.2798Z"/>
  <path class="cls-9" d="M769.1254,1171.7389c2.2615,8.3738,11.0898,11.5656,10.4787,12.716-.7311,1.3757-14.8862-.3141-17.7338-9.9784-2.8533-9.6835,8.1916-18.7391,9.458-18.0174,1.012.5771-4.3505,7.3273-2.203,15.2798Z"/>
  <ellipse class="cls-9" cx="861.7195" cy="1171.9498" rx="69.2814" ry="2.543" transform="translate(-135.279 112.695) rotate(-6.9392)"/>
  <ellipse class="cls-9" cx="825.8436" cy="666.2919" rx="69.2814" ry="2.543" transform="translate(-74.4498 104.6565) rotate(-6.9392)"/>
  <ellipse class="cls-9" cx="770.8462" cy="207.2293" rx="69.2814" ry="2.543" transform="translate(-19.3902 94.6492) rotate(-6.9392)"/>
  <path class="cls-5" d="M858.6448,1247.1323c33.8638,5.4239,55.2918-27.0828,54.2645-28.9345-1.0213-1.8407-24.1492,26.7447-58.5722,19.505-32.2944-6.792-55.4288-41.0988-56.0356-40.0723-.659,1.1143,25.2401,43.8798,60.3434,49.5018Z"/>
  <path class="cls-5" d="M801.0766,145.569c-5.264,4.73-18.1031-9.2042-47.0918-11.4209-6.602-.5051-12.1005-.8789-19.1294.8549-19.72,4.865-29.3359,20.8589-31.2518,19.3341-1.6735-1.3318,2.9248-15.7127,15.2758-23.9734,11.2616-7.5321,17.4307-2.2596,38.5847-8.1974,18.4516-5.1787,21.9775-11.497,29.7662-8.8527,12.9056,4.3821,19.4363,27.233,13.8462,32.2554Z"/>
  <ellipse class="cls-5" cx="722.9636" cy="67.6763" rx="30.3595" ry="4.1588" transform="translate(440.9379 736.7936) rotate(-72.493)"/>
</svg>