<?xml version="1.0" encoding="UTF-8"?>
<svg id="Layer_1" data-name="Layer 1" xmlns="http://www.w3.org/2000/svg" viewBox="0 0 1621.4173 1264.252">
  <defs>
    <style>
      .cls-1 {
        fill: #b5886b;
      }

      .cls-2 {
        fill: #c19979;
      }

      .cls-3 {
        fill: #aa8163;
      }

      .cls-4 {
        fill: #a7763d;
      }

      .cls-5 {
        fill: #cfb9ac;
      }

      .cls-6 {
        fill: #9f775c;
      }

      .cls-7 {
        fill: #8b5f3b;
      }

      .cls-8 {
        fill: #a17759;
      }

      .cls-9 {
        fill: #bfa392;
      }
    </style>
  </defs>
  <path class="cls-2" d="M873.7397,1251.9768l-16.5006,1.6194c-30.7502,3.0201-58.3802-19.6694-61.3995-50.4195l-105.5281-1074.7346c3.6671-13.2633,7.8253-26.986,12.5466-41.0985,8.2719-24.728,17.2403-47.5674,26.4081-68.4678.9406-1.1891,5.947-7.2673,14.757-8.2394,7.384-.8152,12.8138,2.4678,14.3527,3.4752,13.3241,19.4026,26.7918,40.6746,39.9547,63.857,7.3236,12.8982,14.0739,25.5449,20.3002,37.8736l105.5281,1074.7346c3.02,30.7509-19.6694,58.3802-50.4192,61.4Z"/>
  <g>
    <circle class="cls-4" cx="758.9806" cy="278.4557" r="37.6674"/>
    <circle class="cls-4" cx="773.8791" cy="407.0736" r="37.6674"/>
    <circle class="cls-4" cx="789.6534" cy="543.2526" r="37.6674"/>
    <circle class="cls-4" cx="816.189" cy="772.3335" r="37.6674"/>
    <circle class="cls-4" cx="831.0875" cy="900.9514" r="37.6674"/>
    <circle class="cls-4" cx="846.8618" cy="1037.1304" r="37.6674"/>
    <circle class="cls-7" cx="819.0176" cy="771.7949" r="33.1926"/>
    <circle class="cls-7" cx="836.498" cy="900.2406" r="33.1926"/>
    <circle class="cls-7" cx="850.7686" cy="1038.4123" r="33.1926"/>
    <circle class="cls-7" cx="762.0363" cy="277.3813" r="33.1926"/>
    <circle class="cls-7" cx="779.5167" cy="405.8271" r="33.1926"/>
    <circle class="cls-7" cx="793.7872" cy="543.9988" r="33.1926"/>
  </g>
  <rect class="cls-3" x="708.7537" y="636.6717" width="199.8184" height="39.8164" rx="18.4533" ry="18.4533" transform="translate(-73.4023 102.5097) rotate(-6.9392)"/>
  <rect class="cls-3" x="753.4524" y="1140.0821" width="199.8184" height="39.8164" rx="18.4533" ry="18.4533" transform="translate(-133.8953 111.5976) rotate(-6.9392)"/>
  <rect class="cls-3" x="668.0391" y="174.8363" width="184.0767" height="39.8164" rx="19.9081" ry="19.9081" transform="translate(-17.9607 93.2567) rotate(-6.9392)"/>
  <ellipse class="cls-1" cx="743.8243" cy="17.0737" rx="14.8395" ry="6.3192" transform="translate(7.1264 121.1999) rotate(-9.3599)"/>
  <rect class="cls-6" x="789.6611" y="1136.508" width="129.1576" height="3.3358" transform="translate(1839.7332 2164.8078) rotate(173.0608)"/>
  <rect class="cls-6" x="740.0506" y="633.822" width="129.1576" height="3.3358" transform="translate(1680.1426 1169.1119) rotate(173.0608)"/>
  <rect class="cls-6" x="694.8343" y="171.6159" width="129.1576" height="3.3358" transform="translate(1534.1989 253.5484) rotate(173.0608)"/>
  <ellipse class="cls-8" cx="743.5661" cy="15.5296" rx="12.8917" ry="4.5395" transform="translate(7.3741 121.1374) rotate(-9.3599)"/>
  <path class="cls-9" d="M681.7808,204.7738c2.2553,8.351,11.0597,11.5341,10.4502,12.6815-.7291,1.3719-14.8458-.3132-17.6856-9.9513-2.8455-9.6572,8.1694-18.6881,9.4323-17.9684,1.0093.5755-4.3387,7.3073-2.197,15.2383Z"/>
  <path class="cls-9" d="M723.197,668.2228c2.2553,8.351,11.0597,11.5341,10.4502,12.6815-.7291,1.3719-14.8458-.3132-17.6856-9.9513-2.8455-9.6572,8.1694-18.6881,9.4323-17.9684,1.0093.5755-4.3387,7.3073-2.197,15.2383Z"/>
  <path class="cls-9" d="M769.2384,1170.2726c2.2553,8.351,11.0597,11.5341,10.4502,12.6815-.7291,1.3719-14.8458-.3132-17.6856-9.9513-2.8455-9.6572,8.1694-18.6881,9.4323-17.9684,1.0093.5755-4.3387,7.3073-2.197,15.2383Z"/>
  <ellipse class="cls-9" cx="861.5808" cy="1170.4829" rx="69.0931" ry="2.5361" transform="translate(-135.1028 112.6675) rotate(-6.9392)"/>
  <ellipse class="cls-9" cx="825.8024" cy="666.199" rx="69.0931" ry="2.5361" transform="translate(-74.4389 104.6509) rotate(-6.9392)"/>
  <ellipse class="cls-9" cx="770.9545" cy="208.3839" rx="69.0931" ry="2.5361" transform="translate(-19.5289 94.6707) rotate(-6.9392)"/>
  <path class="cls-5" d="M858.5145,1245.4611c33.7718,5.4092,55.1416-27.0093,54.117-28.8558-1.0186-1.8357-24.0835,26.6721-58.4131,19.452-32.2067-6.7736-55.2782-40.9871-55.8833-39.9635-.6572,1.1112,25.1715,43.7606,60.1794,49.3673Z"/>
  <path class="cls-5" d="M801.1028,146.8911c-5.2497,4.7172-18.0539-9.1792-46.9638-11.3899-6.5841-.5037-12.0676-.8765-19.0774.8526-19.6665,4.8518-29.2562,20.8022-31.1669,19.2815-1.669-1.3282,2.9169-15.67,15.2343-23.9083,11.231-7.5117,17.3834-2.2535,38.4799-8.1751,18.4015-5.1646,21.9178-11.4657,29.6853-8.8286,12.8706,4.3702,19.3835,27.159,13.8086,32.1678Z"/>
  <ellipse class="cls-5" cx="723.202" cy="69.2101" rx="30.277" ry="4.1475" transform="translate(439.6418 738.0934) rotate(-72.493)"/>
</svg>