<?xml version="1.0" encoding="UTF-8"?>
<svg id="Layer_1" data-name="Layer 1" xmlns="http://www.w3.org/2000/svg" viewBox="0 0 1621.4173 1264.252">
  <defs>
    <style>
      .cls-1 {
        fill: #ca6628;
      }

      .cls-2 {
        fill: #884b34;
      }

      .cls-3 {
        fill: #e2b199;
      }

      .cls-4 {
        fill: #ab474b;
      }

      .cls-5 {
        fill: #b6765f;
      }

      .cls-6 {
        fill: #c79a6f;
      }

      .cls-7 {
        fill: #a76b55;
      }

      .cls-8 {
        fill: #dc7427;
      }

      .cls-9 {
        fill: #9f3134;
      }

      .cls-10 {
        fill: #f68720;
      }

      .cls-11 {
        fill: #d7ad8a;
      }

      .cls-12 {
        fill: #663818;
      }

      .cls-13 {
        fill: #852328;
      }

      .cls-14 {
        fill: #8f5540;
      }

      .cls-15 {
        fill: #5e3518;
      }

      .cls-16 {
        fill: #b88d5e;
      }
    </style>
  </defs>
  <g>
    <g>
      <path class="cls-9" d="M766.2471,518.0075c-82.6231-41.1562-99.3081-164.7082-101.3962-181.7946-3.6011-29.4675-3.6323-68.329,6.029-72.865,12.0845-5.674,29.6195,46.9182,43.2988,41.9526,14.5585-5.2848,3.5499-68.065,17.5389-134.6901,21.6225-102.9797,93.3438-169.3215,105.781-158.2422,7.1757,6.392-7.8875,36.3237-4.3845,98.6254,1.4951,26.594,3.5561,63.2528,18.0869,71.3928,18.8122,10.5387,36.9362-38.8187,63.578-32.3845,23.6312,5.7072,43.0968,52.6835,41.6548,92.7376-1.6153,44.8805-29.2461,74.5686-24.1157,81.6971,6.1856,8.5953,41.9424-40.6936,56.4529-28.7044,14.8911,12.3037,5.48,87.5484-24.1159,141.3142-28.245,51.3114-67.5275,69.7135-84.4056,77.281-19.086,8.5578-63.8849,28.6446-114.0023,3.6802Z"/>
      <path class="cls-10" d="M771.9895,505.9189c-21.6939-20.5772-41.0692-57.9972-40.7351-98.7303.405-49.3817,29.3932-56.7899,40.7351-130.0838,5.8062-37.521,1.4821-56.7293,9.9354-61.3729,13.825-7.5945,47.9519,31.3899,54.6446,77.3832,3.5583,24.4532-1.4206,45.5119,4.4709,48.698,7.8239,4.2312,18.8705-32.3037,32.7869-30.0193,17.4098,2.8578,24.3966,63.9761,24.8384,68.0438,4.0744,37.5154-3.3809,73.4116-5.4692,83.1434-.2408,1.1222-.3451,1.6905-.4921,2.245-8.0349,30.2969-29.5722,54.5105-54.1478,62.04-33.304,10.2038-59.0824-14.2476-66.5671-21.3471Z"/>
    </g>
    <path class="cls-13" d="M971.7518,371.5653c.1045,13.6482-5.8692,32.6544-32.6699,56.0562,12.9684-8.5276,32.5987-25.3628,40.1532-54.5281,2.9877-11.5342,6.8058-35.4957.548-40.5507-2.5832-2.0864-6.796-.8812-9.1678,2.2098-5.6192,7.3238,1.0285,22.714,1.1366,36.8128Z"/>
    <path class="cls-13" d="M927.5618,206.4688c22.8968,35.1996-3.7027,93.3708-5.5933,92.8621-1.7847-.4802,15.0041-54.1809-3.6154-83.7394-16.9624-26.9277-53.061-17.5483-53.0126-19.9569.0519-2.5717,41.3682-21.2238,62.2213,10.8343Z"/>
    <path class="cls-13" d="M747.5083,234.5525c-6.1418-2.0656-6.4368-49.3534,6.4828-92.6864,6.1183-20.5208,15.8034-42.1784,32.0318-58.3774,7.4478-7.4344,20.0756-17.5141,23.2615-13.3139,4.4948,5.9254-18.8728,29.6614-16.588,61.4496,2.581,35.9083,30.9942,57.1026,26.8839,65.2904-3.6763,7.3231-24.245-13.9366-44.6159-3.8406-19.493,9.661-22.2545,43.2278-27.4561,41.4783Z"/>
    <path class="cls-13" d="M723.3484,467.2932c-.6447.713-17.0994-18.4503-30.0846-50.1836-3.9812-9.7294-8.2606-27.1403-16.8195-61.962-1.3267-5.3977-4.727-19.7351-4.7666-38.6623-.024-11.5074-.0368-17.6533,2.86-20.4833,9.7704-9.5451,46.7604,24.3733,43.4722,40.9666-1.2202,6.1572-8.1454,10.7296-13.7281,9.9854-8.7396-1.165-11.9129-15.0547-15.0355-13.826-4.4056,1.7335-5.1823,32.1727,3.2141,65.0341,10.9999,43.0508,31.6201,68.3214,30.8881,69.131Z"/>
    <path class="cls-13" d="M829.1828,234.6186c-3.6768,5.7102,7.7923,18.342,11.8476,44.9971,3.4273,22.5269-.6964,40.2413,2.6693,41.4787,2.9918,1.1002,4.9805-13.3647,14.8721-18.9471,9.3769-5.2921,17.2233,2.2698,19.8293-2.8131,2.4539-4.7863-1.5404-17.272-7.2455-19.2064-7.5929-2.5743-14.2204,14.895-18.6853,12.2901-6.1955-3.6144,5.4143-37.921-5.7199-53.1308-5.3183-7.265-14.8669-8.863-17.5676-4.6684Z"/>
    <path class="cls-13" d="M873.5329,509.284c1.0433,2.0174,15.4557-4.6243,25.2582-20.8702,10.6495-17.6496,10.5365-37.8151,10.4979-44.676-.0796-14.2023-3.1347-26.8009-4.1946-26.6282-1.3868.2258,3.5346,21.8425-2.0953,44.5508-7.7861,31.4052-30.8203,45.0051-29.4661,47.6236Z"/>
    <path class="cls-8" d="M810.1063,354.5775c-4.8069,7.526-1.5251,20.5756,1.8218,27.4617,7.8113,16.0716,27.3664,22.0029,36.879,11.9829,5.2167-5.4947,7.3966-15.769,5.5772-17.9199-2.2088-2.6112-9.0097,10.1498-17.4756,7.9342-5.984-1.5661-11.2571-10.1854-12.6375-18.446-1.3403-8.0215,1.5011-12.6441-.7478-15.5067-2.6498-3.3726-9.8403-1.1062-13.4172,4.4938Z"/>
    <path class="cls-4" d="M760.8028,192.2206c-2.5978-.8737-2.7226-20.8753,2.7421-39.2041,2.5879-8.6798,6.6844-17.8404,13.5487-24.6923,3.1502-3.1446,8.4915-7.4081,9.8391-5.6315,1.9012,2.5063-7.9827,12.5461-7.0163,25.9917,1.0917,15.1883,13.1098,24.153,11.3712,27.6163-1.555,3.0975-10.2551-5.8948-18.8715-1.6245-8.2451,4.0864-9.4131,18.2843-11.6133,17.5443Z"/>
    <path class="cls-4" d="M837.8032,256.0144c-2.3157,3.5964,4.9078,11.5523,7.462,28.3404,2.1586,14.1881-.4386,25.3451,1.6812,26.1244,1.8843.6929,3.1369-8.4175,9.3668-11.9334,5.9058-3.3331,10.8477,1.4296,12.489-1.7718,1.5455-3.0146-.9702-10.8784-4.5634-12.0967-4.7822-1.6214-8.9564,9.3813-11.7685,7.7406-3.9021-2.2765,3.4101-23.8837-3.6026-33.4632-3.3496-4.5757-9.3635-5.5822-11.0645-2.9403Z"/>
    <path class="cls-4" d="M710.884,451.2409c-.3702.3238-13.1964-19.4807-23.0474-49.0837-4.796-14.4128-9.1024-31.7028-13.8631-51.0709-1.0935-4.4489-3.8961-16.2662-3.9288-31.8665-.0198-9.4847-.0302-14.5503,2.3575-16.8828,8.0529-7.8674,38.5411,20.0891,35.8308,33.766-1.0055,5.0749-6.7136,8.8434-11.315,8.23-7.2034-.9601-9.8191-12.4083-12.3927-11.3958-3.4639,1.3629-3.5358,25.2115,2.649,53.6031,8.5673,39.3284,24.1228,64.3397,23.7096,64.7007Z"/>
    <path class="cls-4" d="M924.6705,210.8068c21.9551,35.2624-3.6775,93.3795-5.5933,92.8621-1.7897-.4832,14.8238-52.7636-3.6154-83.7394-16.3158-27.4086-50.3086-21.7296-50.1212-24.295.2015-2.7586,39.9908-15.8886,59.3299,15.1723Z"/>
    <path class="cls-4" d="M972.0218,373.9621c.3573,10.6231-3.3816,26.0351-22.6129,45.9398,20.1147-16.7987,26.2769-35.9632,28.4077-44.7562,1.9189-7.9186,5.4063-27.3776.4242-31.4016-2.0004-1.6159-5.2627-.6824-7.0994,1.7114-4.3355,5.6507.5148,17.6344.8804,28.5067Z"/>
    <path class="cls-1" d="M809.4,364.8223c-3.1028,7.8129,4.1976,18.9836,4.7923,19.8729,7.5521,11.2929,21.6039,14.2351,29.911,7.4902,4.2307-3.4351,5.9989-9.8566,4.5233-11.2012-1.7076-1.5555-7.0256,6.2724-14.1734,4.9593-4.3838-.8053-8.7142-4.9743-10.1423-9.845-1.3144-4.4825.9771-7.1621-.7142-11.3769-1.1868-2.9579-3.6545-5.2356-6.3795-5.5322-3.361-.3656-6.513,2.3485-7.8172,5.6328Z"/>
    <ellipse class="cls-3" cx="820.9791" cy="372.2507" rx="2.0458" ry="2.7473"/>
    <path class="cls-3" d="M974.4395,351.2775c-2.1818,1.6378-2.3639,4.931-3.0722,4.7819-.9757-.2054-2.1305-6.7704-.0985-9.0412,2.5374-2.8358,8.4411,2.8209,8.2323,3.6812-.1339.5524-2.708-1.1878-5.0615.5781Z"/>
    <path class="cls-3" d="M919.3231,215.4622c-2.7074-3.352-5.1171-3.0523-5.5251-4.2654-.562-1.6709,3.1469-4.8095,6.1839-1.825,3.7932,3.7273,4.1394,14.6492,3.3935,14.4576-.4787-.1227-1.1321-4.7512-4.0523-8.3672Z"/>
    <ellipse class="cls-3" cx="910.3759" cy="207.325" rx="1.0767" ry="1.4459"/>
    <path class="cls-3" d="M702.2082,331.9373c.3141,2.3057-.8445,4.6063-2.243,5.6076-2.5474,1.8238-5.8169-.7173-5.7424-1.6657.0917-1.1693,5.2879-.1949,6.1013-3.0575.5673-1.9962-1.4017-4.434-1.0512-4.8262.3299-.3693,2.5677,1.242,2.9354,3.9418Z"/>
  </g>
  <rect class="cls-6" x="801.2071" y="434.3649" width="19.663" height="818.8226"/>
  <rect class="cls-16" x="816.6758" y="434.3649" width="14.0258" height="818.8226"/>
  <ellipse class="cls-14" cx="814.6724" cy="434.1755" rx="52.4346" ry="98.3149"/>
  <path class="cls-2" d="M870.97,432.0556c.4038,14.8245,1.2211,44.8292-17.5642,72.3735-6.1262,8.9819-21.2524,31.1621-38.734,28.1637-11.4016-1.9552-22.6648-14.4261-22.1274-25.8223.5926-12.5741,15.1517-15.3649,39.7942-45.4121,4.3306-5.2803,8.2581-9.5782,11.2358-16.3862,5.5086-12.5936,4.5425-24.2119,3.8704-31.292-3.1909-33.6116-28.7867-71.8537-32.773-77.717.0012.0024,4.5347.2113,7.3558.7202.0018,0,3.8485.6934,8.654,3.5643,12.2305,7.306,20.3823,22.7947,20.3835,22.7959,19.0088,36.1121,19.905,69.0096,19.905,69.012Z"/>
  <path class="cls-7" d="M789.4879,401.3284c6.1954-32.9655,12.3701-48.0365,10.0657-48.974-2.6766-1.0893-15.7407,17.3201-21.3016,40.263-7.1171,29.366.1245,57.6365,3.2771,57.5843,2.2953-.0376,1.6061-15.071,7.9587-48.8732Z"/>
  <circle class="cls-12" cx="808.846" cy="355.084" r="2.7756"/>
  <ellipse class="cls-12" cx="808.846" cy="346.1179" rx="2.7756" ry="2.019"/>
  <ellipse class="cls-12" cx="824.0656" cy="346.6446" rx="3.0723" ry="2.5457"/>
  <circle class="cls-12" cx="826.6242" cy="357.6426" r="2.5586"/>
  <ellipse class="cls-12" cx="818.6231" cy="352.1371" rx="2.3701" ry="2.9469"/>
  <ellipse class="cls-12" cx="817.8325" cy="337.7303" rx="3.1607" ry="1.2774"/>
  <ellipse class="cls-12" cx="811.1927" cy="337.5446" rx="1.7723" ry=".5267" transform="translate(-56.9594 202.3343) rotate(-13.7402)"/>
  <circle class="cls-12" cx="800.0574" cy="345.1085" r="1.0095"/>
  <ellipse class="cls-12" cx="833.0192" cy="344.3184" rx="2.5457" ry="1.2728"/>
  <ellipse class="cls-12" cx="827.2825" cy="340.2366" rx="1.9003" ry=".5267"/>
  <ellipse class="cls-12" cx="837.6551" cy="354.0929" rx="2.0902" ry="3.5497"/>
  <ellipse class="cls-15" cx="808.8075" cy="345.834" rx="2.3852" ry="1.735"/>
  <ellipse class="cls-15" cx="800.0402" cy="345.803" rx=".5572" ry=".315"/>
  <ellipse class="cls-15" cx="810.08" cy="355.397" rx="1.5814" ry="2.1667"/>
  <ellipse class="cls-15" cx="817.9603" cy="352.5999" rx="1.6546" ry="2.2117"/>
  <circle class="cls-15" cx="824.9891" cy="346.72" r="2.0159"/>
  <circle class="cls-15" cx="826.8588" cy="358.2626" r="1.8696"/>
  <ellipse class="cls-15" cx="837.9271" cy="354.5356" rx="1.6028" ry="2.9247"/>
  <ellipse class="cls-15" cx="833.2674" cy="344.7041" rx="1.8011" ry=".7601"/>
  <ellipse class="cls-15" cx="827.2859" cy="340.4999" rx="1.3054" ry=".2633"/>
  <ellipse class="cls-15" cx="817.9501" cy="338.1216" rx="2.5777" ry=".8861"/>
  <ellipse class="cls-15" cx="811.278" cy="337.4653" rx="1.3715" ry=".2885" transform="translate(-48.6431 156.9367) rotate(-10.7294)"/>
  <path class="cls-5" d="M778.6496,418.1699c-1.7117,8.167.2933,16.0462,1.1707,16.0061.4761-.0219.7463-3.2036,1.2855-9.5684.4931-5.8195,1.1179-13.185.2356-13.3429-.6479-.1154-2.0141,3.6736-2.6918,6.9052Z"/>
  <path class="cls-11" d="M816.6759,1249.3396h-5.6374c-.2295-239.0591-.4591-478.1194-.6886-717.1785,2.1088.2356,4.2171.4724,6.3259.708v716.4705Z"/>
</svg>