<?xml version="1.0" encoding="UTF-8"?>
<svg id="Layer_1" data-name="Layer 1" xmlns="http://www.w3.org/2000/svg" viewBox="0 0 1621.4173 1264.252">
  <defs>
    <style>
      .cls-1 {
        fill: #ca6628;
      }

      .cls-2 {
        fill: #884b34;
      }

      .cls-3 {
        fill: #e2b199;
      }

      .cls-4 {
        fill: #ab474b;
      }

      .cls-5 {
        fill: #b6765f;
      }

      .cls-6 {
        fill: #c79a6f;
      }

      .cls-7 {
        fill: #a76b55;
      }

      .cls-8 {
        fill: #dc7427;
      }

      .cls-9 {
        fill: #9f3134;
      }

      .cls-10 {
        fill: #f68720;
      }

      .cls-11 {
        fill: #d7ad8a;
      }

      .cls-12 {
        fill: #663818;
      }

      .cls-13 {
        fill: #852328;
      }

      .cls-14 {
        fill: #8f5540;
      }

      .cls-15 {
        fill: #5e3518;
      }

      .cls-16 {
        fill: #b88d5e;
      }
    </style>
  </defs>
  <g>
    <g>
      <path class="cls-9" d="M797.2329,607.6804c-17.6912-8.8123-21.2638-35.2672-21.7109-38.9257-.7711-6.3096-.7777-14.6306,1.2909-15.6018,2.5875-1.2149,6.3421,10.0461,9.2711,8.9828,3.1173-1.1316.7601-14.574,3.7554-28.8397,4.6298-22.0499,19.9867-36.255,22.6497-33.8827,1.5365,1.3686-1.6889,7.7776-.9388,21.1176.3201,5.6943.7614,13.5436,3.8727,15.2866,4.0281,2.2565,7.9087-8.3118,13.6133-6.9342,5.0599,1.222,9.2278,11.2806,8.9191,19.8569-.3459,9.6098-6.2621,15.9666-5.1636,17.4929,1.3245,1.8404,8.9807-8.7133,12.0877-6.1462,3.1885,2.6345,1.1734,18.7458-5.1637,30.2581-6.0478,10.9867-14.4589,14.927-18.0729,16.5473-4.0867,1.8324-13.679,6.1334-24.4101.788Z"/>
      <path class="cls-10" d="M798.4625,605.092c-4.6451-4.406-8.7937-12.4183-8.7222-21.14.0867-10.5736,6.2936-12.1598,8.7222-27.8534,1.2432-8.034.3174-12.1468,2.1274-13.1411,2.9602-1.6261,10.2674,6.7212,11.7005,16.5692.7619,5.2359-.3042,9.745.9573,10.4272,1.6753.906,4.0405-6.9168,7.0203-6.4277,3.7278.6119,5.2238,13.6985,5.3184,14.5695.8724,8.0328-.7239,15.7188-1.1711,17.8026-.0516.2403-.0739.362-.1054.4807-1.7204,6.4872-6.332,11.6717-11.5941,13.284-7.131,2.1848-12.6507-3.0507-14.2533-4.5708Z"/>
    </g>
    <path class="cls-13" d="M841.2354,576.3243c.0224,2.9223-1.2567,6.9919-6.9953,12.0027,2.7768-1.8259,6.98-5.4307,8.5976-11.6755.6397-2.4697,1.4573-7.6003.1173-8.6827-.5531-.4467-1.4552-.1887-1.963.4732-1.2032,1.5682.2202,4.8635.2434,7.8823Z"/>
    <path class="cls-13" d="M831.7735,540.974c4.9026,7.5369-.7928,19.9925-1.1976,19.8836-.3821-.1028,3.2127-11.6012-.7741-17.9302-3.632-5.7657-11.3614-3.7574-11.351-4.2732.0111-.5506,8.8577-4.5444,13.3228,2.3198Z"/>
    <path class="cls-13" d="M793.2206,546.9873c-1.3151-.4423-1.3782-10.5675,1.3881-19.8459,1.31-4.3939,3.3838-9.0312,6.8586-12.4997,1.5947-1.5918,4.2986-3.7501,4.9807-2.8508.9624,1.2687-4.041,6.3511-3.5518,13.1575.5526,7.6887,6.6364,12.2268,5.7564,13.9799-.7872,1.568-5.1913-2.9841-9.5531-.8223-4.1738,2.0686-4.7651,9.2559-5.8789,8.8813Z"/>
    <path class="cls-13" d="M788.0475,596.8215c-.138.1527-3.6613-3.9506-6.4417-10.7453-.8525-2.0833-1.7688-5.8113-3.6014-13.2672-.2841-1.1558-1.0121-4.2257-1.0206-8.2783-.0051-2.464-.0079-3.7799.6124-4.3859,2.092-2.0438,10.0123,5.2188,9.3082,8.7717-.2613,1.3184-1.7441,2.2974-2.9394,2.1381-1.8713-.2494-2.5508-3.2235-3.2194-2.9604-.9433.3712-1.1096,6.8888.6882,13.925,2.3553,9.218,6.7705,14.6289,6.6137,14.8023Z"/>
    <path class="cls-13" d="M810.7087,547.0014c-.7873,1.2227,1.6685,3.9274,2.5368,9.6347.7338,4.8235-.1491,8.6164.5715,8.8814.6406.2356,1.0664-2.8616,3.1844-4.0569,2.0078-1.1331,3.6878.486,4.2458-.6023.5254-1.0248-.3298-3.6983-1.5514-4.1125-1.6258-.5512-3.0449,3.1893-4.0009,2.6315-1.3266-.7739,1.1593-8.1196-1.2247-11.3763-1.1388-1.5556-3.1833-1.8977-3.7616-.9996Z"/>
    <path class="cls-13" d="M820.2049,605.8125c.2234.432,3.3094-.9901,5.4083-4.4687,2.2803-3.7791,2.2561-8.0969,2.2478-9.566-.0171-3.041-.6712-5.7386-.8981-5.7016-.2969.0484.7568,4.6769-.4486,9.5392-1.6671,6.7245-6.5992,9.6364-6.3093,10.1971Z"/>
    <path class="cls-8" d="M806.624,572.6869c-1.0293,1.6115-.3265,4.4056.3901,5.8801,1.6725,3.4412,5.8597,4.7112,7.8965,2.5658,1.117-1.1765,1.5838-3.3765,1.1942-3.837-.473-.5591-1.9291,2.1733-3.7419,1.6989-1.2813-.3353-2.4104-2.1809-2.7059-3.9496-.287-1.7176.3214-2.7073-.1601-3.3203-.5674-.7221-2.107-.2369-2.8729.9622Z"/>
    <path class="cls-4" d="M796.0672,537.9232c-.5562-.1871-.583-4.4698.5871-8.3944.5541-1.8585,1.4313-3.82,2.901-5.2871.6745-.6733,1.8182-1.5862,2.1067-1.2058.4071.5366-1.7093,2.6864-1.5023,5.5653.2338,3.2521,2.8071,5.1716,2.4348,5.9132-.333.6632-2.1958-1.2622-4.0407-.3478-1.7654.875-2.0155,3.915-2.4866,3.7566Z"/>
    <path class="cls-4" d="M812.5545,551.5827c-.4958.7701,1.0508,2.4736,1.5977,6.0682.4622,3.0379-.0939,5.4269.36,5.5937.4035.1484.6717-1.8023,2.0056-2.5552,1.2646-.7137,2.3227.3061,2.6741-.3794.3309-.6455-.2077-2.3293-.9771-2.5901-1.024-.3472-1.9177,2.0087-2.5199,1.6574-.8355-.4874.7302-5.114-.7714-7.1651-.7172-.9797-2.0049-1.1952-2.3691-.6296Z"/>
    <path class="cls-4" d="M785.3786,593.3844c-.0793.0693-2.8256-4.1712-4.9349-10.5098-1.0269-3.0861-1.949-6.7882-2.9684-10.9353-.2341-.9526-.8342-3.4829-.8412-6.8232-.0042-2.0308-.0065-3.1155.5048-3.6149,1.7243-1.6846,8.2524,4.3015,7.6721,7.2299-.2153,1.0866-1.4375,1.8935-2.4228,1.7622-1.5424-.2056-2.1025-2.6569-2.6535-2.4401-.7417.2918-.7571,5.3983.5672,11.4774,1.8344,8.421,5.1652,13.7764,5.0767,13.8537Z"/>
    <path class="cls-4" d="M831.1544,541.9029c4.701,7.5504-.7874,19.9943-1.1976,19.8836-.3832-.1035,3.1741-11.2977-.7741-17.9302-3.4935-5.8687-10.772-4.6527-10.7319-5.202.0432-.5907,8.5628-3.402,12.7037,3.2487Z"/>
    <path class="cls-4" d="M841.2932,576.8375c.0765,2.2746-.7241,5.5746-4.8419,9.8366,4.3069-3.5969,5.6264-7.7004,6.0826-9.5832.4109-1.6955,1.1576-5.8621.0908-6.7237-.4283-.346-1.1269-.1461-1.5201.3664-.9283,1.2099.1102,3.7759.1885,6.1038Z"/>
    <path class="cls-1" d="M806.4728,574.8805c-.6644,1.6729.8988,4.0648,1.0261,4.2552,1.6171,2.418,4.6258,3.048,6.4045,1.6038.9059-.7355,1.2845-2.1105.9685-2.3984-.3656-.3331-1.5043,1.343-3.0348,1.0619-.9387-.1724-1.8659-1.0651-2.1717-2.108-.2814-.9598.2092-1.5335-.1529-2.436-.2541-.6333-.7825-1.1211-1.366-1.1845-.7197-.0783-1.3946.5029-1.6738,1.2061Z"/>
    <ellipse class="cls-3" cx="808.9521" cy="576.4711" rx=".438" ry=".5882"/>
    <path class="cls-3" d="M841.8109,571.9803c-.4672.3507-.5062,1.0558-.6578,1.0239-.2089-.044-.4562-1.4497-.0211-1.9359.5433-.6072,1.8074.604,1.7627.7882-.0287.1183-.5798-.2543-1.0838.1238Z"/>
    <path class="cls-3" d="M830.0094,542.8997c-.5797-.7177-1.0957-.6536-1.183-.9133-.1203-.3578.6738-1.0298,1.3241-.3908.8122.7981.8863,3.1367.7266,3.0956-.1025-.0263-.2424-1.0173-.8677-1.7916Z"/>
    <ellipse class="cls-3" cx="828.0937" cy="541.1573" rx=".2305" ry=".3096"/>
    <path class="cls-3" d="M783.521,567.8392c.0672.4937-.1808.9863-.4803,1.2007-.5454.3905-1.2455-.1536-1.2296-.3567.0196-.2504,1.1322-.0417,1.3064-.6547.1215-.4274-.3001-.9494-.2251-1.0334.0706-.0791.5498.2659.6285.844Z"/>
  </g>
  <rect class="cls-6" x="804.7185" y="589.7709" width="4.2102" height="175.3256"/>
  <rect class="cls-16" x="808.0307" y="589.7709" width="3.0032" height="175.3256"/>
  <ellipse class="cls-14" cx="807.6017" cy="589.7304" rx="11.2273" ry="21.0511"/>
  <path class="cls-2" d="M819.6561,589.2765c.0865,3.1742.2615,9.5988-3.7608,15.4966-1.3117,1.9232-4.5505,6.6724-8.2937,6.0304-2.4413-.4187-4.853-3.0889-4.7379-5.529.1269-2.6924,3.2443-3.2899,8.5207-9.7236.9273-1.1306,1.7682-2.0509,2.4058-3.5086,1.1795-2.6965.9726-5.1842.8287-6.7002-.6832-7.1969-6.1638-15.3853-7.0173-16.6407.0003.0005.971.0452,1.575.1542.0004,0,.824.1485,1.853.7632,2.6188,1.5643,4.3642,4.8808,4.3645,4.881,4.0701,7.7323,4.262,14.7763,4.262,14.7768Z"/>
  <path class="cls-7" d="M802.2092,582.6972c1.3265-7.0585,2.6487-10.2855,2.1553-10.4863-.5731-.2332-3.3704,3.7086-4.5611,8.6211-1.5239,6.2878.0267,12.3411.7017,12.3299.4915-.0081.3439-3.227,1.7041-10.4647Z"/>
  <circle class="cls-12" cx="806.3542" cy="572.7954" r=".5943"/>
  <ellipse class="cls-12" cx="806.3542" cy="570.8756" rx=".5943" ry=".4323"/>
  <ellipse class="cls-12" cx="809.613" cy="570.9883" rx=".6578" ry=".5451"/>
  <circle class="cls-12" cx="810.1608" cy="573.3432" r=".5479"/>
  <ellipse class="cls-12" cx="808.4476" cy="572.1644" rx=".5075" ry=".631"/>
  <ellipse class="cls-12" cx="808.2783" cy="569.0796" rx=".6768" ry=".2735"/>
  <ellipse class="cls-12" cx="806.8566" cy="569.0399" rx=".3795" ry=".1128" transform="translate(-112.0683 207.9292) rotate(-13.7402)"/>
  <circle class="cls-12" cx="804.4724" cy="570.6594" r=".2161"/>
  <ellipse class="cls-12" cx="811.5301" cy="570.4903" rx=".5451" ry=".2725"/>
  <ellipse class="cls-12" cx="810.3018" cy="569.6163" rx=".4069" ry=".1128"/>
  <ellipse class="cls-12" cx="812.5227" cy="572.5831" rx=".4476" ry=".7601"/>
  <ellipse class="cls-15" cx="806.3459" cy="570.8148" rx=".5107" ry=".3715"/>
  <ellipse class="cls-15" cx="804.4687" cy="570.8081" rx=".1193" ry=".0674"/>
  <ellipse class="cls-15" cx="806.6184" cy="572.8624" rx=".3386" ry=".4639"/>
  <ellipse class="cls-15" cx="808.3057" cy="572.2635" rx=".3543" ry=".4736"/>
  <circle class="cls-15" cx="809.8107" cy="571.0045" r=".4316"/>
  <circle class="cls-15" cx="810.211" cy="573.476" r=".4003"/>
  <ellipse class="cls-15" cx="812.581" cy="572.678" rx=".3432" ry=".6262"/>
  <ellipse class="cls-15" cx="811.5833" cy="570.5728" rx=".3856" ry=".1627"/>
  <ellipse class="cls-15" cx="810.3025" cy="569.6726" rx=".2795" ry=".0564"/>
  <ellipse class="cls-15" cx="808.3035" cy="569.1634" rx=".5519" ry=".1897"/>
  <ellipse class="cls-15" cx="806.8749" cy="569.0229" rx=".2937" ry=".0618" transform="translate(-91.8295 160.1652) rotate(-10.7294)"/>
  <path class="cls-5" d="M799.8885,586.3033c-.3665,1.7487.0628,3.4358.2507,3.4272.1019-.0047.1598-.686.2752-2.0488.1056-1.2461.2394-2.8232.0504-2.857-.1387-.0247-.4313.7866-.5764,1.4785Z"/>
  <path class="cls-11" d="M808.0307,764.2726h-1.2071c-.0491-51.1871-.0983-102.3745-.1474-153.5617.4515.0504.903.1012,1.3545.1516v153.4101Z"/>
</svg>