<?xml version="1.0" encoding="UTF-8"?>
<svg id="Layer_1" data-name="Layer 1" xmlns="http://www.w3.org/2000/svg" viewBox="0 0 1621.4173 1264.252">
  <defs>
    <style>
      .cls-1 {
        fill: #9b6a41;
      }

      .cls-2 {
        fill: #dbebef;
      }

      .cls-3 {
        fill: #aa7a4e;
      }

      .cls-4 {
        fill: #91612d;
      }

      .cls-5 {
        fill: #a57242;
      }

      .cls-6 {
        fill: #c7e9f1;
      }

      .cls-7 {
        fill: #a5d4e2;
      }

      .cls-8 {
        fill: #f2fafe;
      }

      .cls-9 {
        fill: #b0815c;
      }

      .cls-10 {
        fill: #8b5b2d;
      }

      .cls-11 {
        fill: #edeced;
      }

      .cls-12 {
        fill: #94673b;
      }

      .cls-13 {
        fill: #c8c8c8;
      }
    </style>
  </defs>
  <g>
    <path class="cls-4" d="M188.4788,794.5331c7.2516,35.0993,24.1956,95.7199,66.363,152.8861,75.9639,102.9842,177.603,118.5905,204.2938,121.685h655.8221c15.4685-2.9499,125.5035-26.1244,178.269-143.526,13.9195-30.9703,37.5586-74.5503,26.0371-124.4405-.614-2.6587-1.2087-4.8363-1.6267-6.2972.0857-.8702.0512-2.0547-.6162-3.0811-3.3065-5.0853-18.3782-.4953-25.1117,1.2325-26.1538,6.7106-32.364-2.602-54.5371,1.5412-36.5,6.8203-40.2457,35.5237-64.0886,33.8924-18.5138-1.2666-22.1623-19.1387-43.1366-33.2768-30.4562-20.5294-66.9743-14.8524-91.2031-11.7085-105.266,13.6593-251.3791,14.9062-309.9672,15.4061-84.0713.7173-72.6305-7.9452-205.8231-9.8599-111.0738-1.5967-113.4516,4.5078-169.73-2.0091-77.3591-8.9581-172.2654-32.0027-175.979-20.1755-.5261,1.6756.9844,5.5848,4.0056,13.4032,2.2701,5.8746,4.8235,10.6779,7.0289,14.3281Z"/>
    <rect class="cls-4" x="739.3947" y="10.992" width="53.3767" height="852.4242" rx="7.5182" ry="7.5182"/>
    <g>
      <path class="cls-13" d="M436.2625,675.7278c-67.5957-.0029-160.3147-36.8184-275.5818-109.4229-.7561-.4766-1.1912-1.3281-1.134-2.2197.0574-.8916.5977-1.6807,1.4084-2.0566,128.8596-59.7051,245.5186-139.7656,346.7361-237.959,42.3928-41.127,77.6775-82.2871,94.9368-103.1611.0034-.0039.0066-.0078.01-.0117.1301-.1572,2.0959-2.5361,4.0669-4.9443,34.0164-41.5605,80.0107-109.3311,136.7051-201.4307.4524-.7344,1.2463-1.1611,2.0769-1.1611.228,0,.4585.0322.6855.0986,1.0549.3096,1.7727,1.2861,1.7529,2.3848l-10.9431,605.9258c-.0142.7832-.4033,1.5117-1.0459,1.958-.4143.2881-.9011.4365-1.3928.4365-.2715,0-.5442-.0449-.8071-.1367-30.0413-10.54-59.5466-15.8838-87.6963-15.8838-16.1948,0-32.2078,1.7705-47.5933,5.2607-36.4641,8.2744-61.0981,24.5371-79.0852,36.4111-5.9663,3.9385-11.1189,7.3408-16.0247,10.0723-18.8738,10.5098-41.4404,15.8398-67.0647,15.8398h-.0098Z"/>
      <path class="cls-13" d="M745.4869,15.8h.005M745.4869,15.8c-3.6477,201.9753-7.2954,403.9508-10.9431,605.9261-22.6108-7.9326-53.4104-16.0208-88.5026-16.0208-15.3331,0-31.4889,1.5449-48.1339,5.3218-48.5115,11.0076-75.6011,35.5066-95.757,46.7305-16.3573,9.1086-37.6022,15.5315-65.887,15.5315-57.0278,0-142.6407-26.1292-274.2827-109.0474,89.7429-41.5815,219.644-114.4751,347.4088-238.4225,44.8059-43.4672,80.9983-86.2798,95.1182-103.3567.0001-.0001,2.0397-2.4674,4.0846-4.9658,43.1764-52.7509,98.4264-139.2056,136.8947-201.6968M745.487,10.922c-.1648,0-.3286.0084-.4913.0249-.8795.0879-1.6899.4094-2.3688.9016-.3594.2599-.686.571-.9681.9286h-.0001c-.002.0027-.0039.0051-.006.0077-.1327.1686-.2545.3461-.3645.5315-56.6194,91.9744-102.5322,159.6271-136.4703,201.0911-1.9253,2.3522-3.8457,4.6766-4.052,4.9264-.0057.007-.0114.0138-.0171.0208h0c-17.2294,20.8375-52.4501,61.9225-94.7555,102.9639-57.1855,55.4769-120.1791,105.7806-187.231,149.5139-50.5524,32.9717-103.9912,62.5737-158.8321,87.9839-1.6217.7512-2.7025,2.3296-2.817,4.113-.1145,1.7837.7557,3.4871,2.268,4.4395,61.8601,38.9644,117.7127,67.9182,166.0061,86.0571,41.9417,15.7532,79.2457,23.741,110.876,23.741,26.0523,0,49.0183-5.4329,68.2601-16.1477,4.986-2.7766,10.1738-6.2014,16.181-10.1672,17.8308-11.7712,42.2507-27.8923,78.2821-36.0681,15.2091-3.4512,31.0406-5.2009,47.0548-5.2009,27.8733,0,57.1067,5.2976,86.8877,15.7458.5258.1843,1.0715.2749,1.6144.2749.9832,0,1.957-.2971,2.7852-.873,1.2855-.894,2.0636-2.3508,2.0919-3.9163l5.4716-302.9631,5.4686-302.8037c.0042-.082.0062-.1643.0062-.2474,0-2.5984-2.0293-4.7222-4.5907-4.8693-.0966-.0057-.1931-.0087-.2892-.0087h0ZM745.4869,20.6775h.005-.005Z"/>
    </g>
    <path class="cls-11" d="M163.514,563.1963c19.8074,10.7068,190.6542,101.4299,289.3305,74.9854,25.1737-6.7463,99.7457-35.6167,130.3342-48.0667,19.2416-7.8315,26.6301-11.427,34.201-15.7139,34.2505-19.3945,44.3102-38.5017,54.8535-34.532,11.6757,4.3962,3.1825,29.0613,22.7421,49.8042,9.1686,9.7234,24.2234,18.29,30.5037,13.8652,6.0331-4.2505,4.4944-20.8599-3.6973-30.5037-6.1111-7.1943-12.2197-6.1504-17.5629-11.0923-12.1007-11.1919-2.9186-36.9744,0-52.6882,11.3208-60.9521-49.0388-90.3085-37.8986-147.5887,3.7477-19.2701,9.8395-12.145,29.5793-50.5314,42.1541-81.9733,43.6979-171.4885,44.6177-224.8275v-.0059s-10.5424-24.4392-14.1139-23.5103c-3.7842.9841,7.6594,28.5206-5.5461,44.369-7.2073,8.6497-14.8142,5.4862-18.4871,12.941-6.2396,12.6647,13.703,25.8777,14.0411,49.7552.0454,3.2035-.64,10.3677-10.064,30.312-16.9342,35.8384-45.7928,51.8976-80.7643,123.0203-29.3712,59.7333-27.1047,84.5287-19.2957,100.5428,8.0918,16.5936,22.2098,23.9139,19.2957,30.8849-5.238,12.5288-52.2528-7.7637-101.5632,3.3162-44.7372,10.0522-69.4431,40.9932-86.8895,57.3101-38.0306,35.5681-112.5157,67.9595-273.6165,47.9541Z"/>
    <path class="cls-5" d="M792.7357,794.7251h-32.8239c10.2158-41.8346,17.3138-95.6561,8.9205-156.9306-3.1592-23.0634-5.0277-21.7387-9.3491-52.3846-7.2323-51.2899-3.4239-65.1101-7.2454-159.3115-2.3287-57.4056-4.0743-60.4396-.7904-76.1616,5.0698-24.2721,14.1767-40.7223,12.6324-69.8994-.9589-18.1184-5.4915-31.0658-6.9738-35.7569-8.2992-26.2635-10.7401-77.7679,12.9729-187.6491.7416-2.7988,1.6014-7.2667,1.0907-12.634-1.07-11.2454-7.2313-16.7159-4.8303-20.0294,2.1815-3.0107,9.8329-2.0344,14.8805.6162,12.0314,6.3182,12.0164,23.5928,11.998,24.8058-.1607,248.445-.3214,496.89-.4821,745.3351Z"/>
    <path class="cls-10" d="M1277.2424,833.395c-.0024.0044-.0048.0052-.0062.0054-.2272.0208,1.026-16.9215-2.7744-20.0342-11.9613-9.7971-92.8931,101.9117-139.5702,85.9663-20.98-7.167-16.7017-33.8141-36.9741-49.2991-46.5744-35.5756-152.5444,42.9464-214.4505,73.9485-241.1485,120.7651-569.6045-100.9756-583.8845-69.9428-4.6216,10.0435,26.2889,40.8603,179.0168,130.9502,25.1826,13.6747,65.0477,32.4735,116.4689,44.3691,107.8484,24.9495,143.1502-9.0094,284.7014-5.5461,123.3323,3.0176,149.5672,30.0949,229.2401,5.5461,26.9236-8.2957,79.202-25.1791,120.1662-75.7971,37.6519-46.5253,45.8297-96.9412,48.0667-120.1662Z"/>
    <path class="cls-1" d="M762.9925,431.9167c0,30.9707,5.2903,56.0774,11.8162,56.0774,7.0453,0,11.039-46.9571,11.8161-56.0774.6418-7.531,4.9578-58.1785-4.8446-60.3924-1.0334-.2334-2.966-.0961-6.9715,4.3148-10.8563,11.9549-11.8162,29.5546-11.8162,56.0776Z"/>
    <path class="cls-3" d="M767.5211,425.4364c-2.5438,17.6944,4.471,36.8285,8.5615,36.7415,1.9648-.0418,1.5123-5.0577,6.9919-37.0722,2.2175-12.9558,4.0617-22.4892-1.336-30.905-1.7686-2.7572-5.0436-6.5315-7.2255-5.8368-2.6506.844-1.3801,7.7686-3.2813,19.0042-1.9023,11.2434-2.9709,12.9224-3.7107,18.0683Z"/>
    <path class="cls-9" d="M785.2251,723.7674c3.9912.8314,4.2505,15.7954.579,33.423-3.6716,17.6279-9.8834,31.244-13.8747,30.4126-3.9913-.8312-4.2505-15.7952-.579-33.423.4859-2.333,5.5483,1.6005,7.0937,4.2495,4.6031,7.8901-4.7477,20.8257-4.3761,21.0111.3.1497,7.5796-7.6941,9.1335-20.0202.98-7.7736-1.1868-10.4315-.3811-22.002.3712-5.3299,1.471-13.8454,2.4048-13.6509Z"/>
    <path class="cls-3" d="M783.2897,32.4937c3.0377,5.764,2.0567,12.3571.8907,12.5943-1.4231.2894-3.5104-8.7911-7.2529-8.7196-1.2816.0245-1.7162,1.1024-2.633.866-2.6654-.6874-3.8994-11.0087-.8907-12.5944,2.4839-1.3091,6.91,2.2072,9.8858,7.8537Z"/>
    <path class="cls-3" d="M775.6179,79.7361c-3.2142-.4766-13.6739,47.4209-16.3303,88.7381-.2029,3.1555-.4583,7.798-.3081,13.8653.6813,27.5213,9.0596,58.1801,15.714,57.9263,4.4039-.168,9.1344-13.9167,7.3948-25.8818-1.147-7.8897-4.5626-11.2578-7.3793-17.8712-6.0041-14.0977-2.6522-27.3648-.6318-38.5145,6.4294-35.4809,4.5048-77.8227,1.5406-78.2622Z"/>
    <path class="cls-10" d="M854.9997,868.4819c.4093,19.6353-67.1172,36.9698-150.8254,38.7173-83.7092,1.7472-151.9005-12.7536-152.3098-32.3894-.4103-19.6356,67.1163-36.9696,150.8254-38.7173,11.0789-.2312-1.446,27.7745-11.8306,37.8841-30.9314,30.1112-99.3238.1389-99.7751,2.0832-.3641,1.5699,42.7909,27.3012,100.2636,21.3214,36.2456-3.7714,46.0208-16.8079,99.2867-25.4873,24.5366-3.9979,64.2691-8.0055,64.3652-3.4119Z"/>
    <path class="cls-4" d="M682.5661,862.0489c-4.1658,4.7946-6.8823,7.9209-10.63,10.168-13.6126,8.1618-36.2337,1.9658-37.1283-4.6217-1.4707-10.8304,54.8138-29.8797,58.8507-23.109,1.6959,2.8446-5.3845,10.9936-11.0923,17.5627Z"/>
    <path class="cls-4" d="M1014.2927,882.9958c-10.6279,14.7217-10.0227,31.6491-9.6538,41.966.2838,7.9353.7812,21.8477,6.2856,23.4349,9.1251,2.6311,16.8487-32.9809,40.7467-38.4594,21.0128-4.8172,36.3674,17.8265,44.4855,11.8436,9.2089-6.7868,4.174-46.7759-22.1331-59.0715-22.0853-10.3224-48.029,4.0774-59.7308,20.2864Z"/>
    <path class="cls-4" d="M1230.4008,893.7853c-2.632-1.9182-24.1198,41.5351-76.7215,75.7971-57.6472,37.5484-112.4947,37.8941-111.8469,41.5958.672,3.8406,60.7773,9.5338,114.1578-23.1088,54.844-33.5377,77.3753-92.1234,74.4106-94.2842Z"/>
    <path class="cls-4" d="M385.5399,904.8774c1.0864-2.0821,50.051,21.5111,55.2821,24.0373,32.2721,15.5852,54.1795,27.6929,61.4599,31.5613,78.5396,41.7315,167.2734,33.3893,167.0352,40.5344-.138,4.1372-29.9254,8.2613-58.5425,6.7785-46.6563-2.4178-81.2326-19.2749-110.8683-34.089-4.7907-2.3948-24.1867-13.8176-62.9105-36.7783-45.5495-27.008-51.8612-31.2672-51.4558-32.0443Z"/>
    <path class="cls-10" d="M397.2484,1038.2927c7.3778-4.1921,8.1689-15.4283,8.3192-17.5627,2.2872-32.4817-48.2072-45.5338-108.5744-104.3019-36.6496-35.6787-52.7924-64.7014-56.8082-62.1386-4.5471,2.9019,13.0782,42.0706,35.2488,76.4585,37.9554,58.8712,99.7677,120.0721,121.8146,107.5447Z"/>
    <path class="cls-4" d="M405.3843,1041.3279c3.0826-1.7516,3.4132-6.4463,3.476-7.3381.9556-13.5716-20.1421-19.0251-45.365-43.5799-15.3131-14.9074-22.0579-27.0338-23.7359-25.963-1.8999,1.2125,5.4644,17.5781,14.7278,31.9462,15.8587,24.5978,41.6854,50.169,50.8971,44.9348Z"/>
    <path class="cls-4" d="M893.6273,954.4846c-1.8594-3.2522-14.0531-.4512-22.4927,3.6974-10.9163,5.3658-13.3327,11.8952-20.0276,17.2546-20.4675,16.3848-55.2388,1.2752-55.7695,3.5433-.4709,2.0121,25.966,17.8806,54.9992,10.6301,26.3764-6.5869,46.1764-30.0779,43.2906-35.1254Z"/>
    <path class="cls-11" d="M412.3847,472.1251c.573.2909,3.3896-12.3232,16.6384-25.882,20.4847-20.964,49.7893-27.6897,71.1754-32.3524,21.9518-4.786,29.4055-3.209,36.9742-11.0923,11.2667-11.7349,8.7136-29.7736,8.3192-40.6717-2.3788-65.7307,64.8505-118.1521,59.1588-122.9393-4.4699-3.7595-40.4795,33.1577-60.0831,55.4614-25.0292,28.4764-28.2393,38.7343-29.5161,43.7834-4.6482,18.3814.2555,31.2852-9.3068,40.3328-8.089,7.6537-17.7736,4.2626-29.2021,6.3595-43.3135,7.9468-65.6053,86.2656-64.1578,87.0006Z"/>
    <path class="cls-12" d="M1031.4489,875.4042c-8.594,8.6113-9.9907,19.8743-10.8419,26.739-.6546,5.28-1.8025,14.5369,1.6706,16.1713,5.7576,2.7094,14.648-20.0308,31.04-21.1183,14.413-.9562,22.1674,15.6544,28.1733,12.558,6.8129-3.5124,7.7272-30.5028-8.3718-41.4301-13.5154-9.1737-32.2079-2.4012-41.6703,7.0801Z"/>
    <ellipse class="cls-12" cx="658.3788" cy="865.6694" rx="5.8928" ry="2.3109"/>
    <path class="cls-12" d="M840.0532,984.6417c.1218.3848,3.2728-.2993,17.1776-3.8514,13.2104-3.3747,16.2977-4.2722,19.7833-7.1847,4.0536-3.3871,8.4293-9.3186,6.792-12.0728-1.5648-2.6324-8.5133-2.18-13.6068.2692-6.8476,3.2925-6.4006,8.2983-13.6617,14.4822-7.9644,6.7827-16.6836,7.728-16.4843,8.3577Z"/>
    <ellipse class="cls-12" cx="1064.8257" cy="956.2947" rx="7.6259" ry="5.5461"/>
    <ellipse class="cls-12" cx="693.928" cy="1003.6679" rx="12.941" ry="6.2394"/>
    <ellipse class="cls-12" cx="324.9802" cy="867.961" rx="5.5461" ry="16.1762" transform="translate(-593.927 747.2217) rotate(-61.9877)"/>
    <ellipse class="cls-4" cx="803.4042" cy="884.5973" rx="16.1762" ry="3.3831" transform="translate(-203.7847 241.5255) rotate(-15.1963)"/>
    <ellipse class="cls-12" cx="832.5043" cy="876.338" rx="4.9299" ry="2.9271"/>
  </g>
  <g>
    <path class="cls-7" d="M71.7177,1104.4202c-2.7993-39.9262,79.3981-84.8618,151.9375-100.3083,86.654-18.4521,105.9882,16.5774,238.9694,23.6018,78.4353,4.1431,70.8586-8.0882,231.6041-14.0718,111.4571-4.1488,167.1859-6.2235,208.7439-.1731,116.2153,16.9192,163.485,55.427,232.3065,26.046,31.1672-13.3058,33.7058-26.4258,79.6566-45.7288,7.4936-3.148,67.6894-27.8985,128.1895-27.0283,120.9525,1.7396,244.5082,105.9012,230.4454,148.9788-23.1515,70.9189-423.9375-9.4911-430.9158,29.987-3.4441,19.4841,93.5505,42.6351,89.9823,60.4798-5.5445,27.7284-248.7785,17.0431-258.1461-35.4029-2.6061-14.5898,14.1318-25.44,8.8508-33.9278-12.1588-19.542-111.6769,20.6296-162.2632,41.3035-117.8251,48.1536-118.7114,62.223-165.2134,69.3304-97.6058,14.9184-195.3616-31.5279-193.2408-53.1041,2.6651-27.1121,163.0486-15.1281,165.2134-38.3533,2.5446-27.3013-213.6466-102.1323-280.2726-28.0271-36.4296,40.5191-3.2719,97.9009-38.3533,119.4846-38.1984,23.5014-105.0631-27.5785-207.9918-106.2084-17.0155-12.9985-28.5062-22.6668-29.5025-36.878Z"/>
    <path class="cls-6" d="M46.819,1098.5058c-2.7993-39.9262,79.3981-84.8618,151.9375-100.3083,86.654-18.4523,105.9882,16.5774,238.9694,23.6018,78.4353,4.1431,70.8586-8.0882,231.6041-14.0718,111.4571-4.1488,167.1859-6.2235,208.7439-.1731,116.2153,16.9192,163.485,55.427,232.3065,26.046,31.1672-13.3058,33.7058-26.4258,79.6566-45.7288,7.4936-3.148,67.6894-27.8986,128.1895-27.0284,120.9525,1.7396,244.5082,105.9013,230.4454,148.9789-23.1515,70.9189-423.9375-9.4911-430.9158,29.987-3.4441,19.4841,93.5505,42.6351,89.9823,60.4798-5.5445,27.7284-248.7785,17.0431-258.1461-35.4029-2.6061-14.5898,14.1318-25.44,8.8508-33.9278-12.1588-19.542-111.6769,20.6296-162.2632,41.3035-117.8251,48.1536-118.7114,62.223-165.2134,69.3304-97.6058,14.9184-195.3616-31.5279-193.2408-53.1041,2.6651-27.1121,163.0486-15.1281,165.2134-38.3533,2.5446-27.3013-213.6466-102.1323-280.2726-28.0271-36.4296,40.5191-3.2719,97.9009-38.3533,119.4846-38.1984,23.5014-105.0631-27.5785-207.9918-106.2084-17.0155-12.9985-28.5062-22.6668-29.5025-36.878Z"/>
    <path class="cls-2" d="M1126.7973,1160.4746c32.8112,3.2821,66.6682,19.8727,65.2739,29.8713-1.4584,10.4582-41.6118,14.6223-70.2526,13.2761-64.7155-3.0418-117.8423-36.4356-115.6124-43.1474,1.3639-4.1053,22.473,4.6781,67.4868,3.319,30.2752-.914,33.5526-5.2748,53.1043-3.319Z"/>
    <path class="cls-2" d="M248.9865,1193.6611c33.2733-6.2305,43.523-57.1691,51.9653-54.7614,10.094,2.8788,14.5383,81.1443-19.497,94.1995-34.4951,13.2316-82.1748-50.6253-79.1069-54.7337,1.914-2.5633,22.2974,19.8537,46.6386,15.2956Z"/>
    <circle class="cls-2" cx="195.0747" cy="1133.5537" r="14.9356"/>
    <path class="cls-2" d="M672.4605,1163.978c5.302,4.5066-11.1302,48.8285-46.4664,65.6429-58.601,27.8848-134.9509-36.1763-132.7607-41.3033,1.8288-4.2816,57.7135,34.2112,117.2719,14.3825,38.3452-12.7663,57.2438-42.7265,61.9552-38.7221Z"/>
    <path class="cls-2" d="M1080.6997,1063.8544c.2334,1.4098-23.2945,8.0289-49.4166,11.801-84.9108,12.2619-119.9358-16.7168-202.8289-18.439-77.354-1.6071-125.1628,22.0012-126.8603,16.2261-1.8855-6.4148,55.0085-42.6559,124.6476-44.2535,60.8182-1.3952,140.7764,23.417,146.0368,25.0769,8.8107,2.7804,24.0735,7.9215,45.7288,10.3259,35.3381,3.9238,62.443-2.2442,62.6925-.7376Z"/>
    <path class="cls-2" d="M1497.3856,1099.9223c14.399-33.2448-72.1209-95.1126-67.8199-100.2358,5.032-5.9939,131.5219,69.0968,118.6454,105.3678-11.5131,32.4309-128.8725,18.1314-128.9713,15.5921-.0746-1.9175,66.8227,5.4192,78.1459-20.7241Z"/>
    <ellipse class="cls-2" cx="1306.5415" cy="990.4686" rx="28.7648" ry="12.7229" transform="translate(-182.51 304.3167) rotate(-12.425)"/>
    <ellipse class="cls-2" cx="1441.3665" cy="1128.944" rx="7.7444" ry="2.3971"/>
    <ellipse class="cls-8" cx="1292.9673" cy="996.6361" rx="11.9305" ry="5.3916"/>
    <path class="cls-8" d="M1489.815,1091.0519c12.6068-35.2515-76.9896-93.2154-74.2046-96.6951,3.2176-4.0202,127.9236,66.9657,115.1391,104.8082-11.366,33.6439-125.4531,23.4691-125.754,19.9141-.2437-2.8789,74.3515,1.2446,84.8195-28.0271Z"/>
    <ellipse class="cls-8" cx="1150.9062" cy="1188.041" rx="15.8575" ry="6.2693"/>
    <ellipse class="cls-8" cx="1176.0755" cy="1187.2112" rx="5.1629" ry="4.7941"/>
    <ellipse class="cls-8" cx="196.5037" cy="1138.2557" rx="4.4254" ry="3.8722"/>
    <path class="cls-8" d="M295.5212,1208.1394c4.4318-8.5959-1.0427-19.3138-2.4877-19.1565-.997.1086.3437,5.3475-2.3064,12.5185-3.7655,10.1896-11.8458,14.1531-10.9729,15.4687.9308,1.4029,11.6355-.8172,15.7669-8.8308Z"/>
  </g>
</svg>