<?xml version="1.0" encoding="UTF-8"?>
<svg id="Layer_1" data-name="Layer 1" xmlns="http://www.w3.org/2000/svg" viewBox="0 0 1621.4173 1264.252">
  <defs>
    <style>
      .cls-1 {
        fill: #e9c3a2;
      }

      .cls-2 {
        fill: #f9dfca;
      }

      .cls-3 {
        fill: #d6b19a;
      }

      .cls-4 {
        fill: #d1af9c;
      }

      .cls-5 {
        fill: #f0e6de;
      }
    </style>
  </defs>
  <path class="cls-1" d="M65.6749,307.2998c-13.9717-5.3396-38.042-14.5441-47.0316-10.3733-56.5905,26.2555,166.0897,662.5947,732.4213,684.8602,366.2986,14.4014,802.5987-230.9885,853.1776-596.8009,13.8163-62.7026,4.8679-77.7872-5.5397-80.2648-29.6519-7.0583-85.6661,84.7541-147.3141,79.317-48.8249-4.3063-56.4057-65.6638-92.5761-64.768-29.5003.7305-53.1511,42.255-96.5626,120.4343-32.3683,58.2922-41.1892,84.5328-59.6157,84.9735-14.9125.3566-23.7327-16.4815-62.6536-70.4609-58.1909-80.7049-72.8662-90.7616-89.3597-91.8524-42.1871-2.7902-67.9816,54.9468-99.4946,50.9657-44.8714-5.6688-30.6801-127.5452-67.3611-131.3771-33.8267-3.5338-59.1144,98.7339-130.8758,105.3706-70.9624,6.563-123.0116-86.341-172.8215-77.0661-58.7689,10.9431-30.9921,148.5953-83.821,157.4235-52.0827,8.7039-113.7331-119.2949-206.6965-114.044-53.9452,3.047-74.0142,48.4534-114.5112,41.8358-42.7669-6.9885-36.2044-60.2132-109.364-88.173Z"/>
  <path class="cls-2" d="M237.9268,664.9863c17.9638,35.3652,126.7184,249.4721,424.3464,288.9396,219.7547,29.1411,421.3313-52.9898,416.3821-64.3949-5.2281-12.0483-236.0626,66.0404-457.207,8.6983-249.915-64.8022-361.8326-269.9928-387.8512-261.2721-8.2968,2.7806,2.2456,23.926,4.3297,28.0291Z"/>
  <path class="cls-3" d="M1123.4973,839.3557c1.6542-12.5332,14.6446-22.1052,29.0149-21.3796,14.3703.7256,24.6788,11.474,23.0246,24.0072-1.6542,12.5332-14.6446,22.1052-29.0149,21.3796-14.3703-.7256-24.6788-11.474-23.0246-24.0072Z"/>
  <path class="cls-4" d="M1052.3152,806.2954c1.0788-8.1738,9.8095-14.4033,19.5006-13.914,9.6911.4893,16.6727,7.5122,15.5939,15.686-1.0788,8.1738-9.8095,14.4033-19.5006,13.914-9.6911-.4893-16.6727-7.5122-15.5939-15.686Z"/>
  <path class="cls-4" d="M1234.1323,784.5294c2.2888-17.3414-13.0324-32.2666-34.2208-33.3364-21.1884-1.0699-40.2204,12.1208-42.5091,29.4622-2.2888,17.3414,13.0324,32.2666,34.2208,33.3364,21.1884,1.0699,40.2204-12.1208,42.5091-29.4622Z"/>
  <path class="cls-5" d="M76.9658,315.3204c1.6727-2.0224,16.5435,6.9464,28.0086,15.839,20.8203,16.1495,30.6367,33.6273,32.0111,36.1334,5.3076,9.6906,4.4486,12.2449,10.4011,17.3242,9.7109,8.2816,25.2388,12.7859,35.2119,13.8589,37.9395,4.0816,55.8002-34.9934,94.4299-40.5873,76.1533-11.028,159.073,118.7494,219.2193,109.7927,55.2396-8.2266,34.6754-125.0448,92.8807-133.5516,50.1581-7.3307,96.9887,74.7948,163.2533,69.2959,65.1826-5.4085,86.2229-90.3776,121.6398-87.1151,37.2433,3.4306,34.9226,99.3268,78.4259,102.4598,13.2282.9524,31.7037-6.6028,41.6135-13.8596,13.3186-9.7546,11.5434-19.2553,27.2069-25.7383.006-.0015,10.5789-4.3793,26.4082-4.4546,53.0002-.2539,98.6223,148.4549,154.9589,149.9603,68.6366,1.834,150.649-194.6888,177.1476-182.6292,5.9676,2.7156,14.7382,18.7113,31.4957,28.8193,4.4637,2.693,9.2166,5.0031,9.2166,5.0031,0,0,9.4216,4.5804,20.2778,7.6358,72.8501,20.5039,129.473-7.8001,129.473-7.8001,12.9328-6.7369,20.6063-13.9237,25.8355-20.525,9.717-12.2683,12.4265-24.3368,12.4235-24.3384-.009-.0038-4.973,62.2229-40.9083,86.0873-47.551,31.5779-99.647-31.223-168.6061-19.4445-105.6357,18.043-96.9737,173.0954-158.4521,176.211-58.8051,2.9793-101.7719-137.1126-183.8355-135.6102-48.2985.8838-73.1032,51.2702-112.399,44.684-42.2043-7.0745-40.857-65.2933-74.9267-68.2071-39.0939-3.3432-63.4918,71.3762-108.9933,70.5549-47.2466-.8522-62.6358-81.5747-108.9872-82.3191-45.182-.7256-51.7826,75.818-119.8857,85.2668-62.886,8.7254-92.076-51.7118-210.4939-59.4026-37.7858-2.4534-58.1631,2.1836-108.0077-5.4394-31.342-4.7929-82.3078-13.0202-99.7525-36.899-4.6053-6.3089-3.466-9.0479-4.9218-15.9325-.865-4.0967-1.938-7.4407-4.961-13.99-7.8754-17.0619-28.6053-38.4278-26.4082-41.0831Z"/>
</svg>