<?xml version="1.0" encoding="UTF-8"?>
<svg id="Layer_1" data-name="Layer 1" xmlns="http://www.w3.org/2000/svg" viewBox="0 0 1621.4173 1264.252">
  <defs>
    <style>
      .cls-1, .cls-2, .cls-3, .cls-4, .cls-5, .cls-6 {
        fill: none;
      }

      .cls-7 {
        fill: #a7cada;
      }

      .cls-8 {
        fill: #bfdce7;
      }

      .cls-9 {
        fill: #8eb3c1;
      }

      .cls-10 {
        fill: #74929d;
      }

      .cls-11 {
        fill: #cce5f1;
      }

      .cls-12 {
        fill: #cce9f4;
      }

      .cls-13 {
        fill: #ebf7fe;
      }

      .cls-14 {
        stroke: #fff;
        stroke-miterlimit: 10;
        stroke-width: 1.3422px;
      }

      .cls-14, .cls-15 {
        fill: #fff;
      }

      .cls-16 {
        fill: #f3fafe;
      }

      .cls-17, .cls-18 {
        fill: #ddedf8;
      }

      .cls-17, .cls-2 {
        stroke-width: 7.8815px;
      }

      .cls-17, .cls-2, .cls-3, .cls-4, .cls-5, .cls-6 {
        stroke: #93b6d3;
        stroke-linecap: round;
        stroke-linejoin: round;
      }

      .cls-19 {
        fill: #97bece;
      }

      .cls-3 {
        stroke-width: 9.0111px;
      }

      .cls-4 {
        stroke-width: 8.538px;
      }

      .cls-5 {
        stroke-width: 8.0905px;
      }

      .cls-6 {
        stroke-width: 8.2975px;
      }
    </style>
  </defs>
  <g>
    <path class="cls-17" d="M77.8359,1053.756c-4.4528-24.3862-75.7682-456.2059,241.7762-735.9464,228.6991-201.4686,503.9225-187.3616,556.7139-183.5922,56.3488,4.0239,347.8976,31.1555,524.8117,263.4061,87.3676,114.6913,114.409,236.8698,130.1838,308.1407,31.5576,142.5666,23.3374,263.9132,12.1936,340.759-25.0686,1.0161-50.2877,1.9451-75.6613,2.782-37.4959,1.237-74.6828,2.2531-111.5448,3.0593"/>
    <path class="cls-2" d="M617.7873,161.0805c41.9767,19.4731,125.8146,51.3485,234.1475,45.3059,78.0957-4.356,139.338-26.7671,177.3823-44.3092"/>
    <path class="cls-2" d="M313.9326,322.7207c132.9959,26.6528,306.17,48.6387,508.2634,41.8436,185.9128-6.2511,345.0589-35.1363,469.5515-66.7608"/>
    <path class="cls-2" d="M149.0484,542.2933c37.0127,16.4668,80.5299,32.4518,130.1592,44.8072,114.8249,28.586,215.7098,26.1272,287.0717,17.8029"/>
    <path class="cls-2" d="M1161.0074,569.854c30.7959,2.2714,78.3956,2.0833,133.5218-13.5042,50.7894-14.3612,88.9751-36.4238,113.4934-53.2567"/>
    <path class="cls-2" d="M78.9495,798.2101c46.8197,22.1663,116.0423,48.5435,203.2875,60.3846,99.8954,13.5581,183.1797,2.5978,237.3097-8.9015"/>
    <path class="cls-2" d="M631.0003,169.3986c-8.517,16.4133-18.555,39.9829-24.479,69.667-5.5455,27.7876-5.6831,51.8999-4.4508,69.667"/>
    <path class="cls-2" d="M992.4363,182.9485c20.194,19.7763,42.5229,44.4026,64.5355,74.3764,19.3925,26.4061,34.6886,51.7187,46.7326,74.3764"/>
    <path class="cls-2" d="M1212.7471,313.5541c20.194,19.7763,42.5229,44.4026,64.5355,74.3764,19.3925,26.4061,34.6886,51.7187,46.7326,74.3764"/>
    <path class="cls-2" d="M355.501,475.2176c-5.6282,17.4804-10.2182,34.1-13.9833,49.5728"/>
    <path class="cls-2" d="M415.8997,340.1763c-15.0836,25.5825-31.1566,56.8973-45.7522,94.0187-5.5377,14.0841-10.3891,27.7996-14.6465,41.0226"/>
    <path class="cls-2" d="M895.4822,361.7254c4.0317,12.1996,8.0602,28.6743,9.0045,48.4052,1.3999,29.2484-4.5848,52.9618-9.7012,67.9271"/>
    <path class="cls-2" d="M479.0208,609.916c-11.5845,36.9658-22.5886,81.1069-29.71,131.3674-6.2738,44.2782-8.2885,84.5129-8.0909,119.4222"/>
    <path class="cls-5" d="M266.983,857.9423c-4.7351,28.3092-8.3369,61.9742-8.5141,100.0402-.1562,33.5351,2.3764,63.8266,5.9854,90.0129"/>
    <line class="cls-2" x1="1017.657" y1="540.2159" x2="1035.4599" y2="704.8593"/>
    <line class="cls-4" x1="1282.1652" y1="688.3399" x2="1167.324" y2="778.4816"/>
    <line class="cls-2" x1="688.3034" y1="920.7194" x2="818.4871" y2="931.8462"/>
    <path class="cls-2" d="M635.1046,612.0214c38.2948,21.9754,76.5896,43.9509,114.8844,65.9263"/>
    <path class="cls-6" d="M983.3738,545.8169c-26.2268-21.3501-52.4537-42.7001-78.6804-64.0502"/>
    <path class="cls-2" d="M847.7462,1129.3578c-48.0787.8-96.1575,1.6002-144.2362,2.4002-44.635-26.457-89.2701-52.9142-133.9051-79.3712-16.4304-35.9911-50.6646-124.2622-32.6263-235.8885,3.4823-21.5499,29.2152-161.7521,156.8881-259.6257,24.3549-18.6704,96.0679-72.1409,200.9187-78.8148,83.4166-5.3096,146.9927,21.5981,186.2943,38.7584,65.6571,28.6679,111.7347,66.5571,139.4561,93.0999"/>
    <path class="cls-2" d="M704.5545,1126.2656c-15.0603-50.2764-34.034-137.3787-19.4719-243.399,10.3355-75.2476,24.525-178.5552,111.1508-255.8783,90.4688-80.7533,201.3665-80.8849,228.4705-80.5007,20.5811.2918,116.6825,2.1403,195.8319,63.4285,72.0623,55.8004,94.9194,133.7242,114.447,200.2972,3.6286,12.3704,12.5775,44.6085,17.8029,89.0145,10.6443,90.4577-1.7901,166.5902-15.0475,218.4362-43.6949-.1169-87.3898-.2338-131.0847-.3507"/>
    <path class="cls-2" d="M847.9316,1128.6624c-8.9678-27.4989-14.1931-51.4241-17.3857-69.6816-10.7935-61.7253-7.1926-109.2205-5.9806-122.8122.9788-10.9767,3.329-32.6938,9.4993-59.5855,15.5892-67.9417,38.918-96.1247,47.3695-105.7096,1.0457-1.1859,1.9538-2.167,2.7012-2.9623,58.7374-62.5032,142.0349-58.826,145.7612-58.6013,55.2084,3.3305,92.4682,31.6679,106.2501,42.4505,36.3304,28.4239,53.1255,61.6125,62.321,80.2906,55.9149,113.5756,15.6376,255.3826,6.4907,285.6129"/>
    <path class="cls-2" d="M77.8367,1053.7559c70.8624.7601,143.6897.4262,218.3789-1.187,93.3947-2.0173,183.8429-5.9087,271.1639-11.309"/>
    <path class="cls-13" d="M394.1529,632.4059c.204,7.3142-88.0586,4.5898-94.9101,30.8512-8.0986,31.0414,94.0994,56.2478,114.5901,141.9841,4.5299,18.9541,3.3357,33.6245,4.8603,33.5895,3.5503-.0815,22.6746-79.9298-14.6282-126.8636-30.5515-38.4396-84.3981-36.4878-82.948-49.6687,1.344-12.2161,48.5476-22.5448,82.3816-22.7306,11.7678-.0645,20.2731-.1502,20.3478-1.0756.2768-3.4323-116.5989-13.2964-116.426-15.5092.1485-1.8996,86.5311,2.2038,86.7324,9.4229Z"/>
    <path class="cls-7" d="M977.9647,544.63c-9.5331,1.162-22.5547,3.1202-37.7847,6.5834-15.679,3.5653-53.2841,12.3784-92.0744,34.0294-47.9045,26.7381-79.279,62.8206-97.6378,88.4582-36.4403-20.9555-72.8806-41.911-109.3209-62.8665,19.5785-23.6179,57.2765-62.9108,116.8315-92.3525,59.1762-29.2545,112.9399-35.4386,143.5358-36.7185,25.4835,20.9555,50.967,41.911,76.4505,62.8665Z"/>
    <path class="cls-18" d="M662.8289,607.5707c-1.012-1.0892,36.4329-49.7121,103.1084-86.0474,53.8688-29.3563,119.1963-46.5384,142.3405-26.0056,5.206,4.6186,12.9409,15.2824,30.4961,27.4892,9.3361,6.4918,18.7254,11.5256,17.8028,14.094-.8745,2.4346-10.4397,1.0548-12.6103.7418-26.5112-3.8241-45.0976-24.012-58.6012-31.8969-29.8836-17.4496-72.5234,3.3703-114.2353,23.7372-69.4322,33.9021-107.3068,78.9578-108.301,77.8877Z"/>
    <ellipse class="cls-18" cx="791.0807" cy="591.3163" rx="17.2466" ry="8.3451"/>
    <path class="cls-7" d="M910.3425,481.3277c24.8538,20.9246,49.7075,41.8492,74.5613,62.7738,23.2976-2.044,52.872-2.4752,86.5726,2.3366,44.0583,6.2907,79.5664,19.3148,104.6384,30.8306-29.3309-24.6684-81.1836-61.4758-154.709-81.6429-43.1917-11.8469-81.6576-14.6039-111.0633-14.298Z"/>
    <path class="cls-7" d="M635.8464,615.5448l109.7845,64.5356c-16.4466,27.6173-26.8066,52.142-33.3804,70.2843-10.4435,28.8219-15.129,52.0188-21.141,81.7821-2.9963,14.8337-7.3639,36.7224-10.5705,65.6482-1.551,13.9913-5.1429,47.4164-3.8943,86.7892,1.0524,33.1861,5.9104,82.1689,24.0153,140.8468-42.4056-24.788-84.811-49.5762-127.2165-74.3642-15.5127-33.7146-46.336-112.742-34.7713-215.0256,13.1577-116.3731,73.2861-192.9883,97.1742-220.4964Z"/>
    <line class="cls-2" x1="538.3013" y1="849.6715" x2="619.5271" y2="889.7281"/>
    <path class="cls-18" d="M1035.9605,526.8417c10.6938,1.7383,20.8791,4.455,41.2495,9.8883,41.4478,11.0552,59.6261,18.235,60.0848,17.0611.7035-1.8007-40.9467-21.568-91.356-38.8181-14.8434-5.0794-93.3448-31.9429-97.4289-22.7503-2.1603,4.8624,16.1962,20.4981,36.7185,27.817,16.3438,5.8286,22.2597,2.1737,50.7322,6.8019Z"/>
    <path class="cls-18" d="M579.2413,1048.8537c-1.7216.596-16.3388-29.7283-25.9234-68.0914-8.1693-32.6983-18.9777-95.3961-2.4062-102.4393,10.5733-4.4938,20.4425,18.7023,58.2303,37.0894,34.3854,16.7315,64.698,16.2502,64.5355,17.2466-.1666,1.0211-32.1059,2.1077-68.9862-11.6831-30.6209-11.4503-41.4566-24.4846-49.3289-19.2865-5.541,3.6586-6.1607,14.1959,6.206,71.2501,10.5513,48.6789,19.2501,75.3682,17.6729,75.9142Z"/>
    <path class="cls-18" d="M684.837,1098.5414c-2.3952.8198-19.7793-28.464-23.4546-66.1002-3.2729-33.5149,5.4145-62.4983,7.8024-62.2816,2.123.1926-1.407,23.4047,2.753,61.1155,4.6727,42.3577,15.0239,66.5391,12.8992,67.2663Z"/>
    <path class="cls-18" d="M577.5234,831.5906c-1.4298.0901-11.0498-36.9506-1.4836-80.855,1.8359-8.4262,8.1473-24.162,20.77-55.6339,19.1905-47.8472,23.4669-53.4952,30.4132-55.6342,11.7263-3.6109,18.2303,6.7295,54.8923,25.2208,29.1131,14.6839,50.8306,21.1856,50.4416,22.2536-.3615.9923-18.8527-5.3345-51.9252-14.0939-25.6422-6.7915-38.5842-10.1616-44.5073-8.9015-32.5495,6.9245-47.1346,59.2259-51.9252,76.4042-14.1113,50.602-5.182,91.1457-6.676,91.2399Z"/>
    <path class="cls-12" d="M1028.6594,559.1761c3.4501,49.0932,6.9002,98.1863,10.3503,147.2795,7.8934.807,18.8234,2.4543,31.4333,6.1198,29.9998,8.7203,50.2293,23.2592,61.522,31.526,9.3311,6.8309,21.3558,16.731,33.8441,30.4132,20.5848-16.4946,41.4779-33.0339,62.6811-49.607,17.8822-13.9774,35.6871-27.7459,53.4087-41.3084-15.2814-21.3779-28.986-34.2388-38.3876-41.8646-6.6998-5.4344-10.4079-7.5562-24.1168-18.502-2.6141-2.0873-10.9821-8.783-19.4522-14.26-1.2521-.8096-3.7394-2.3908-6.4587-4.0824-4.7541-2.9574-7.1599-4.454-10.2344-6.1965-5.4404-3.0835-9.7988-5.137-13.8369-7.0397-1.5652-.7376-4.808-2.2471-9.2429-4.1457-3.0858-1.321-11.9191-5.0842-21.9154-8.4677-5.284-1.7884-11.8617-3.8123-33.3497-8.7425-20.6496-4.7377-30.9745-7.1067-39.5264-8.3405-8.8705-1.2798-21.4055-2.6377-36.7185-2.7817Z"/>
    <path class="cls-15" d="M1076.3775,643.6373c-6.1292,2.5574-46.6971-49.1668-33.0683-66.8207,16.6201-21.5287,109.812,12.8238,114.259,14.463,2.127.7841,4.2207,1.596,4.2211,1.5961,8.4213,3.2606,27.4888,11.2125,48.553,24.906,21.7434,14.1351,28.3847,23.1011,32.1816,30.5971,7.4538,14.7157,7.6524,31.0841,5.5382,31.6179-1.872.4727-5.1084-11.5826-12.0094-23.4317-13.5341-23.2381-34.9122-34.9491-50.9134-43.4698-30.5661-16.2765-93.4698-39.448-111.1299-19.0686-13.4613,15.534,7.0855,47.6423,2.3681,49.6106Z"/>
    <ellipse class="cls-13" cx="1177.6833" cy="728.5673" rx="10.385" ry="16.6902"/>
    <g>
      <path class="cls-12" d="M798.6053,922.6701c-5.8879,0-11.6133-.8381-17.0171-2.4912-8.4045-2.5712-12.3932-5.9385-15.9122-8.9094-3.4299-2.8958-6.139-5.183-12.0985-5.889-1.0275-.1217-2.0605-.1835-3.0707-.1835-5.4613,0-10.0319,1.7435-15.3241,3.7622-6.7427,2.5721-14.385,5.4873-25.8843,5.4875-.9808,0-1.9883-.0212-3.0269-.0659-2.1552-.0927-4.3246-.2811-6.4481-.5599-.4955-.0651-.8694-.4817-.8806-.9812-.3716-16.3917.3075-33.0011,2.0183-49.3671,2.2113-21.1521,6.1837-42.2316,11.8066-62.6526,10.4611-37.9927,26.5532-73.8385,47.8293-106.5417.1567-.2408.4083-.4038.6921-.4482.0522-.0083.1047-.0123.1569-.0123.2313,0,.4573.0792.6392.2272l99.8474,81.2257c.3916.3186.4888.8771.2278,1.3092-13.0303,21.5769-23.6466,44.6508-31.554,68.5804-8.0031,24.2192-13.2534,49.3794-15.6053,74.7816-.0403.4358-.3561.7965-.7828.8939-5.3278,1.2172-10.5808,1.8344-15.613,1.8344Z"/>
      <path class="cls-11" d="M761.4462,694.8304c33.2823,27.0752,66.5649,54.1504,99.8474,81.2261-10.4475,17.2998-22.2501,40.3438-31.6487,68.7861-9.528,28.834-13.7725,54.7041-15.6521,75.0059-4.1528.9487-9.4346,1.8091-15.3872,1.8091-5.1667,0-10.8385-.6475-16.7211-2.4473-16.4899-5.0444-15.7239-13.3589-28.1879-14.8354-1.0992-.1304-2.1598-.1904-3.1902-.1904-12.7657,0-20.9224,9.2495-41.2084,9.2495-.9668,0-1.9594-.021-2.983-.0649-2.7246-.1172-4.9459-.3667-6.3597-.5522-.306-13.501.0232-30.2031,2.0132-49.2388,1.9738-18.8799,5.5746-39.9683,11.7758-62.4888,13.0319-47.3291,32.613-83.0659,47.7019-106.2588M761.4462,692.805c-.1044,0-.2092.0078-.3138.0244-.5676.0889-1.0707.4146-1.384.8965-21.3329,32.7905-37.4679,68.7319-47.9569,106.8257-5.6377,20.4741-9.6204,41.6084-11.8374,62.8159-1.7153,16.4077-2.3962,33.0605-2.0237,49.4951.0227.999.7706,1.8325,1.7615,1.9624,2.1548.2827,4.3539.4736,6.5363.5674,1.0314.0444,2.0643.0669,3.0701.0669,11.6854,0,19.4209-2.9507,26.2458-5.5537,5.1987-1.9829,9.6886-3.6958,14.9625-3.6958.9706,0,1.9637.0596,2.9519.1763,5.6576.6704,8.2643,2.8711,11.5645,5.6572,3.4154,2.8833,7.6661,6.4722,16.2692,9.104,5.5001,1.6826,11.3252,2.5356,17.3136,2.5356,5.1082,0,10.4369-.6255,15.8384-1.8599.8535-.1948,1.485-.916,1.5658-1.7881,2.3447-25.3257,7.5793-50.4102,15.5583-74.5566,7.8839-23.8589,18.4684-46.8633,31.4594-68.375.522-.8643.3276-1.981-.4557-2.6182l-72.501-58.98-27.3464-22.2461c-.3635-.2959-.8158-.4541-1.2782-.4541h0Z"/>
    </g>
    <path class="cls-18" d="M864.8171,777.1689c.4482-1.0739.8195-3.9279-16.5975-19.4719-11.3403-10.1208-17.6955-14.7175-31.9895-25.5917-13.8617-10.5453-15.0091-12.3805-29.486-23.0881-14.7113-10.8808-22.1375-16.3156-25.5917-16.0412-23.5273,1.8697-41.5928,87.9218-26.7044,94.9487,12.6292,5.9607,36.6505-50.6215,74.3977-47.1155,21.6365,2.0096,42.4979,23.2705,39.8375,30.4254-1.69,4.5451-13.0047,3.5655-12.9812,5.1924.0357,2.4864,26.4795,7.0561,29.1151.7418Z"/>
    <ellipse class="cls-18" cx="823.0452" cy="786.4876" rx="2.9208" ry="4.868"/>
    <g>
      <path class="cls-12" d="M708.3926,1128.9544c-.4518,0-.8502-.2998-.9741-.7361-9.3364-32.8667-16.0856-66.7373-20.0599-100.671-4.0012-34.1631-5.2511-68.9086-3.7148-103.2715.0123-.2755.1364-.5341.3436-.7161.1855-.1627.4232-.2516.6681-.2516.0287,0,.0575.0012.0864.0038l134.2635,11.4978c.2677.0229.5154.1512.6885.3569.173.2056.2572.4716.2341.7393-2.5073,29.0231-2.2583,58.4082.7402,87.3394,3.5737,34.4827,11.0724,68.639,22.2877,101.5204.1042.3057.0564.6427-.1288.9073-.1851.2648-.4854.4252-.8082.4321,0,0-133.6191,2.8492-133.6263,2.8492Z"/>
      <path class="cls-11" d="M684.6554,924.3211l134.2635,11.4976c-2.1112,24.4385-2.7224,54.1055.7418,87.5312,4.2222,40.7388,13.2626,75.1396,22.3365,101.7427-44.5349.9497-89.0697,1.8994-133.6046,2.8491-8.0143-28.2124-15.5172-61.9961-20.0283-100.5122-4.5448-38.8042-5.0261-73.646-3.709-103.1084M684.6553,922.2957c-.4896,0-.9651.1772-1.3361.5029-.4144.3638-.6627.8809-.6874,1.4321-1.5386,34.417-.2867,69.2173,3.7207,103.4346,3.9808,33.9873,10.7406,67.9116,20.0917,100.8301.2479.8721,1.0447,1.4717,1.9481,1.4717.0145,0,.0289,0,.0436-.0005l67.4521-1.438,66.1525-1.4111c.6458-.0137,1.2463-.3345,1.6166-.8638s.4658-1.2036.2573-1.8149c-11.1907-32.8086-18.673-66.8901-22.2389-101.2979-2.9918-28.8677-3.2404-58.1885-.7385-87.1479.0463-.5356-.1222-1.0674-.4683-1.4785-.3462-.4111-.8414-.668-1.377-.7139l-67.1318-5.749-67.1317-5.7485c-.0577-.0049-.1155-.0073-.173-.0073h0Z"/>
    </g>
    <path class="cls-16" d="M721.003,1078.6129c-1.8985,18.168-6.549,37.2974-8.1597,37.0894-2.5102-.3245,11.49-46.4275.6492-101.1612-9.7771-49.3631-33.7417-75.364-23.8285-84.9608,7.2662-7.0344,21.9006,5.1089,61.0106,11.0602,35.5774,5.4137,59.1826.3758,59.3429,2.2253.1899,2.1907-32.5861,13.2023-71.3364,8.1271-23.809-3.1183-36.1684-10.5148-41.1411-4.6879-5.9503,6.9723,8.9049,20.892,18.4274,52.4686,9.9357,32.947,6.9498,61.5211,5.0356,79.8395Z"/>
    <path class="cls-16" d="M810.1102,1031.2312c-2.6347,34.7488,19.9117,60.6908,16.4121,62.5883-2.6515,1.4376-12.254-10-17.9995-20.2827-3.28-5.8702-13.2564-23.7246-9.6432-44.878,3.2578-19.0729,16.0705-32.0877,10.0253-40.0805-2.1455-2.8367-5.4147-3.386-5.9343-6.676-.899-5.6918,6.9924-13.2076,10.3851-11.8687,1.9082.7531,2.6186,4.4041.6491,26.6116-1.8553,20.9187-3.3606,27.5458-3.8945,34.586Z"/>
    <path class="cls-18" d="M1022.2615,620.4663c4.9166,43.4611,9.8286,85.1198,9.8287,85.1201-.001-.0004-3.0088-.0983-8.1487.0285-.0004,0-10.7729.2251-20.9421,1.3775-28.393,3.2174-58.2428,15.5043-58.2431,15.5045-10.329,4.2516-21.5256,8.8604-34.9335,18.058-13.7054,9.4016-23.5769,19.3829-30.1583,27.0056-6.4989-3.3927-11.578-6.3758-14.7199-8.2755-7.5073-4.5393-46.4478-28.2079-60.641-52.6669-.3073-.5295-.7039-1.2364-1.4836-2.0399-9.7307-10.0275-44.2903.7948-61.6031,22.8911-9.7862,12.4901-11.9046,25.8268-11.5905,25.9509.0481.019,8.9411-44.7311,38.3876-84.9231,32.1134-43.8321,75.625-64.4351,104.0356-77.8876,35.586-16.8502,67.6285-32.0225,92.3525-28.3735,3.3563.4954,23.9936,3.9079,37.2748-3.8943.0004-.0002.4493-.264,12.7959-7.7888,2.5962,23.3045,5.1926,46.609,7.7888,69.9135Z"/>
    <line class="cls-3" x1="797.2565" y1="684.5498" x2="877.9259" y2="771.6171"/>
    <path class="cls-12" d="M1171.3723,780.6808c37.9548-29.7333,75.9097-59.4667,113.8644-89.2,1.5401,2.7702,3.907,7.0907,6.6761,12.425,8.3654,16.1144,40.9734,81.1058,54.1023,173.8146.7242,5.1137,3.9554,28.4337,5.4707,59.5748,1.5912,32.7003.4778,57.3284.2335,62.3984-1.3338,27.6865-5.4037,66.8704-17.5247,114.0498-41.3546-.0928-82.7093-.1854-124.0639-.2783,7.1668-25.0826,30.7675-113.6048,17.5247-197.2227-6.6527-42.0063-21.4191-75.9401-21.4192-75.9404-15.1989-45.5967,82.8424-60.883,80.1577-70.2799-1.4704-5.147-24.1345-6.2493-115.0217,10.6587Z"/>
    <path class="cls-18" d="M1196.7785,806.8288c-5.7469-6.5786-11.3056-11.2378-10.9413-18.1738.5959-11.3443,16.5297-19.1248,33.1023-26.9825,32.3427-15.3349,55.4117-19.0209,60.0847-30.0424,1.6899-3.9857-2.3779-9.0513.7418-15.5776.1609-.3366,3.1558-6.474,6.3052-7.047,11.4552-2.0844,27.3116,69.0149,52.7116,140.7587.0001.0004,2.734,7.7226,8.345,54.7068.904,7.5699,2.0281,18.1022-3.9389,22.9909-4.2058,3.4458-9.1758.902-17.1538,1.3908-18.2393,1.1176-32.2432,5.8856-50.9051,12.2396-21.8436,7.4373-21.4108,9.8545-25.4062,8.6233-15.9669-4.9205-6.2642-38.4052-26.9825-90.2199-11.28-28.2104-16.9201-42.3155-25.9626-52.6669Z"/>
    <path class="cls-15" d="M1207.2778,804.3829c-1.6504,1.2529-16.5999-5.4473-15.7875-15.2901.8103-9.8186,16.584-14.0327,18.1161-12.4437,1.1948,1.2394-6.5062,5.7679-6.8834,14.2082-.3462,7.7462,5.7522,12.6167,4.5548,13.5256Z"/>
    <ellipse class="cls-15" cx="1218.8913" cy="782.7252" rx="2.1326" ry="4.1726"/>
    <path class="cls-15" d="M1296.573,724.9558c-.3412.3058-5.0701-6.6252-8.6954-5.5144-3.6071,1.1052-3.6666,9.42-4.0912,9.3592-.5138-.0736-1.339-12.3755,2.869-13.6435,4.2067-1.2676,10.3284,9.4306,9.9177,9.7987Z"/>
    <path class="cls-14" d="M1247.8211,943.6004c2.5823,4.1382,47.4882-21.709,50.4892-23.7626.4157-.2845.8095-.5698.8098-.57,2.2181-1.6516,3.7078-3.0687,3.9222-3.2723,1.6573-1.5739,11.5973-7.8504,19.5138-5.3119,7.7594,2.4881,8.3262,11.762,13.074,11.405,3.3785-.2541,6.9484-5.2404,6.1198-8.9015-1.4874-6.5714-17.6939-11.2899-30.5987-7.2325-8.0627,2.5351-8.7058,6.5684-13.5512,10.3832-.0004.0002-1.9452,1.5084-5.2712,3.0966-10.9026,5.2062-49.1396.3477-49.5149,1.9123-.2052.8554,11.2298,2.2815,12.7958,8.067,1.6549,6.1143-9.0465,12.171-7.7887,14.1867Z"/>
    <path class="cls-18" d="M1253.2917,973.8282c9.3582-6.3067,21.7468-12.4266,31.7115-8.067,5.0446,2.2071,6.2325,5.6843,9.6432,7.7888,7.2451,4.4703,22.6067,1.5656,57.6276-28.4198.8915,23.4136.5378,49.9854-2.179,79.0468-3.1584,33.7843-8.8438,63.8001-15.2067,89.3854-32.5486-9.4952-56.5369-8.3561-72.695-5.3781-11.0835,2.0425-31.6498,7.3822-36.5331-.3709-1.3329-2.1161-1.0957-4.5661-.7418-7.7887,1.3254-12.0674,8.6559-20.5901,10.5706-22.9953,17.0667-21.4392-7.4939-53.7495,10.5705-91.2399,2.7191-5.6432,5.6235-9.796,7.2323-11.9614Z"/>
    <path class="cls-2" d="M1291.8646,952.7777c6.3771-3.7216,16.8115-8.7753,30.5988-11.1267,12.7911-2.1816,23.5547-1.1993,30.5987,0"/>
    <path class="cls-15" d="M1351.6184,945.3905c.1713.0239.3527.0572.3531.0574.2064.038.431.0874.4311.0869h0s-2.5371,7.9908-2.7017,8.4969c-2.3046,7.0863-20.6601,26.3563-45.4345,26.7971-23.2272.4132-30.4794-15.9719-44.2291-10.8486-16.0421,5.9775-18.6271,32.9237-18.9156,32.8241-.35-.1207,4.6397-39.3665,24.0153-44.3219,14.5771-3.7281,21.2716,16.1249,38.573,13.3521,16.4567-2.6374,47.3931-26.5158,47.9083-26.444Z"/>
    <path class="cls-15" d="M1256.6867,1104.1136c-.8229,1.9017-17.1363,3.4026-21.2601-5.5716-4.1136-8.952,7.5603-20.3664,9.6751-19.734,1.6493.4933-2.8371,8.2189.9773,15.7575,3.5008,6.9186,11.2047,8.1685,10.6076,9.5481Z"/>
    <ellipse class="cls-15" cx="1256.1737" cy="1079.544" rx="2.1326" ry="4.1726" transform="translate(-368.1618 755.6276) rotate(-29.3978)"/>
    <path class="cls-10" d="M859.4934,1121.927c-5.3837-25.3746-11.5399-60.8986-14.4952-103.7485-3.1098-45.1208-5.4273-78.7285,2.2898-117.8625,7.6497-38.7953,20.5603-105.0004,76.6675-143.036,50.3867-34.1593,118.9053-34.3108,168.9513-11.1022,120.3909,55.8328,117.2336,239.1487,116.8335,262.593-.8121,47.1026-10.8902,85.8107-20.0295,112.3807-110.0711.2585-220.1462.517-330.2173.7755Z"/>
    <path class="cls-9" d="M858.9581,1122.0983c-5.0592-23.8507-10.8469-57.2412-13.6238-97.5179-2.9241-42.411-5.1019-74.0002,2.1511-110.7834,6.7-33.9788,19.0243-96.4806,72.063-134.4459,48.6475-34.8221,118.4241-39.6091,170.2982-14.3408,108.8567,53.0251,104.1897,221.5058,103.2544,255.2677-1.1825,42.6882-9.6464,77.7537-17.2091,101.8204h-316.9338Z"/>
    <path class="cls-8" d="M1351.6701,848.4624c.0595-.6106.2467-1.5306.9272-2.2253,2.2162-2.2625,7.7247-.1574,8.716.1854,10.0462,3.4749,40.7817-6.4077,62.0599-11.0443,29.1331-6.3482,43.6995-9.5221,57.7389-2.6787,20.2567,9.8741,22.3269,31.7584,30.0422,31.155,7.3795-.5771,15.2137-21.3579,20.4003-96.2432,7.094,66.0966,7.058,114.5564,6.0259,143.9031-1.8388,52.2849-6.9771,47.7951-5.1924,80.1131,1.0181,18.4376,6.1401,40.3643-4.8216,48.2163-4.8216,3.4537-11.0725,3.0756-15.5776,2.2253-51.6779,2.1017-103.3558,4.2034-155.0337,6.3051,2.8984-30.8314,4.4509-65.7587,3.2581-104.0436-1.0951-35.1523-4.3221-67.2812-8.5433-95.8681Z"/>
    <path class="cls-2" d="M1345.1146,835.796c16.8496.0625,40.2822-1.7509,66.7608-10.0142,36.9078-11.5181,62.9231-30.3216,77.8879-43.0705"/>
    <path class="cls-15" d="M1363.6675,836.2527c6.1861,12.9448,14.4303,33.4993,18.0577,59.8617,1.6955,12.3215,1.8951,25.8139,2.2253,52.296.6487,52.0274-1.2727,61.4511,7.0998,69.7791,14.5276,14.4505,44.1787,9.8581,44.1063,12.7538-.0298,1.1947-5.5212,1.9454-6.4097,2.063-18.5294,2.4529-40.1101,5.2608-53.2413-5.3055-6.7468-5.4289-5.4159-13.1148-1.5692-74.4688,1.0726-17.1079,1.6089-25.6618,1.669-27.0752.8821-20.7458-.5488-51.0559-11.938-89.9041Z"/>
    <g>
      <path class="cls-12" d="M296.4487,1043.0845c-9.6176,0-16.3203-.9507-22.1208-5.8104-9.3411-7.826-8.5504-20.4504-5.223-73.5833.2477-3.9558.5097-8.1378.7827-12.5612,2.1159-34.2773,3.2815-53.1591,10.9977-62.1649,9.2673-10.8163,20.9453-12.7952,40.6055-12.7952,4.4741,0,9.4408.1011,14.6992.2081,6.3972.1304,13.6481.2778,21.6148.2778,11.8694,0,23.0937-.3348,34.3139-1.0239,28.1787-1.7305,56.2504-5.6587,78.8064-8.8151,17.1967-2.4065,30.7797-4.3071,38.0349-4.3071,3.0159,0,6.159.2644,6.6035,2.2261.3681,1.6243-1.3813,3.1053-3.5963,4.9803-2.2783,1.9288-5.1136,4.3291-4.5747,6.287.4131,1.501,2.6583,2.2854,3.9997,2.754.2976.1039.5629.1971.7786.2834,9.0146,3.6111,8.6369,25.0586,8.2371,47.7654-.1804,10.2422-.3668,20.833.3696,29.4932,1.9888,23.3868,10.9932,37.1567,17.5679,47.2111,5.8324,8.9191,10.0463,15.3633,6.064,23.2448-3.3323,6.5951-9.7654,9.2852-22.2049,9.2852-6.1098,0-13.4469-.6129-21.9425-1.3225-11.8444-.9894-26.5851-2.2207-43.7515-2.2207-19.5909,0-38.5771,1.575-58.0436,4.8147-19.8445,3.3027-44.116,4.0625-92.4712,5.576-3.8917.1218-6.838.197-9.5469.1971Z"/>
      <path class="cls-11" d="M508.9601,863.5223c3.4155,0,5.3872.4287,5.6156,1.437.5518,2.4351-9.3866,6.855-8.1597,11.3125.6533,2.3735,4.0359,3.1709,5.3781,3.7085,12.3275,4.9385,5.6687,49.292,7.9742,76.4043,3.7377,43.9551,31.7837,53.9883,23.7371,69.9136-3.4263,6.7808-10.4374,8.729-21.3008,8.729-14.6564,0-36.3282-3.5435-65.6941-3.5435-16.8339,0-36.1943,1.1646-58.21,4.8286-19.7799,3.292-43.9708,4.0488-92.3527,5.5635-3.5078.1099-6.6516.1958-9.4978.1958-9.7673,0-16.0298-1.0146-21.4717-5.5737-9.6201-8.0601-7.9929-21.9126-4.0798-85.3057,2.1736-35.2134,3.4104-52.9951,10.7559-61.5684,9.1062-10.6284,20.751-12.4414,39.8367-12.4414,9.8806,0,21.7614.4858,36.3119.4858,10.0975,0,21.4762-.2334,34.3778-1.0259,49.9016-3.0645,100.2449-13.1196,116.7793-13.1201M508.9611,861.4969h0c-7.3256,0-20.9382,1.9048-38.1725,4.3164-22.5397,3.1543-50.5909,7.0796-78.7319,8.8071-11.2.688-22.4043,1.0225-34.2537,1.0225-7.9564,0-15.2012-.1475-21.5929-.2778-5.2633-.1069-10.2346-.208-14.719-.208-19.9695,0-31.8513,2.0337-41.3748,13.1489-7.6162,8.8892-8.9497,25.6646-11.2395,62.7612-.2729,4.4238-.5349,8.6064-.7827,12.5625-3.3533,53.5439-4.1499,66.2656,5.5835,74.4209,6.0364,5.0571,12.9209,6.0469,22.7722,6.0469,2.7212,0,5.676-.0757,9.5613-.1973,48.4213-1.5156,72.712-2.2764,92.6219-5.5898,19.4114-3.2305,38.3431-4.8008,57.8774-4.8008,17.1239,0,31.8413,1.229,43.667,2.2168,8.5183.7119,15.875,1.3262,22.0271,1.3262,9.4196,0,18.7386-1.1924,23.1086-9.8408,4.246-8.4033-.3286-15.3989-6.1202-24.2559-6.5157-9.9639-15.4393-23.6104-17.4064-46.7432-.7321-8.6084-.546-19.1724-.3662-29.3892.4238-24.0674.7898-44.8525-8.873-48.7236-.2277-.0913-.5073-.1899-.8213-.2993-1.0781-.3765-3.085-1.0776-3.3572-2.0664-.3672-1.334,2.5248-3.7822,4.2526-5.2451,2.379-2.0142,4.4336-3.7534,3.9297-5.9775-.6003-2.6494-4.0027-3.0146-7.5901-3.0146h0Z"/>
    </g>
    <path class="cls-13" d="M333.0802,884.0428c2.8973,1.6724-17.608,5.7498-24.7214,21.1585-8.5982,18.6252,9.344,38.6994,5.2085,38.2152-4.4335-.519-32.033-24.4075-26.2691-41.5264,5.7552-17.0932,42.2345-19.8951,45.782-17.8473Z"/>
    <ellipse class="cls-13" cx="358.1513" cy="892.4055" rx="9.736" ry="5.5634"/>
    <path class="cls-12" d="M78.5438,812.2923c-4.4756,37.0244-6.1942,68.4175-6.8123,92.4499-.3175,12.3464-.6815,26.4958-.0813,45.6657,1.2227,39.0491,2.1661,54.668,4.0593,67.1165,1.2991,8.542,2.6967,15.5452,3.7089,20.2616.6883,4.7807,1.1306,7.852,1.1307,7.8527h0s5.4938.2019,8.7505.3166c.0014,0,5.0703.5028,11.4976.371,8.3395-.171,64.0942-.7294,140.938-1.5165,1.4598.3766,3.4624.6209,5.1941-.3381,10.4234-5.7726-12.3258-42.2141-10.7959-87.045,1.5185-44.4992,26.2703-77.1162,12.6504-88.3875-1.6628-1.3761-3.3942-2.0173-4.4508-2.3298-21.9116-4.2842-54.8098-11.8291-90.076-24.5657-14.8739-5.3717-56.8151-20.5189-64.9575-30.9639-.6359-.8157-3.7495-5.0456-6.6762-4.4506-2.1572.4385-3.3921,3.3315-4.0798,5.5633Z"/>
    <path class="cls-16" d="M115.8115,1004.4572c-1.8985,18.168-6.549,37.2974-8.1597,37.0894-2.5102-.3245,11.49-46.4275.6492-101.1612-9.7771-49.3631-33.7417-75.364-23.8285-84.9608,7.2662-7.0344,21.9006,5.1089,61.0106,11.0602,35.5774,5.4137,59.1826.3758,59.3429,2.2253.1899,2.1907-32.5861,13.2023-71.3364,8.1271-23.809-3.1183-36.1684-10.5148-41.1411-4.6879-5.9503,6.9723,8.9049,20.892,18.4274,52.4686,9.9357,32.947,6.9498,61.5211,5.0356,79.8395Z"/>
    <ellipse class="cls-13" cx="222.2651" cy="1032.6033" rx="7.4179" ry="3.1526"/>
    <g>
      <path class="cls-12" d="M740.031,773.744c-.8179,0-1.5481-.1804-2.1702-.5363-5.7865-3.3098-.7738-21.1376,3.1958-29.9468,5.8154-12.9054,15.8354-22.3385,18.2877-22.3385.293,0,.5623.0883.7791.2555,1.2365.954.1952,2.5524-3.6786,8.4991-3.8507,5.9113-11.0182,16.9143-8.7107,19.436.3104.3394.8333.5043,1.5983.5043,2.349,0,6.0573-1.59,9.3289-2.9928,3.0183-1.2942,5.6249-2.4117,7.3015-2.4117,1.0441,0,1.5901.4382,1.8644.8059.6788.9103.5072,2.3068-.5404,4.3947-1.9417,3.8704-6.8225,9.8901-12.1453,14.9792-3.6527,3.4924-10.473,9.3513-15.1105,9.3513Z"/>
      <path class="cls-11" d="M759.3444,721.9354c.0679,0,.1217.0146.1604.0444,1.4227,1.0977-16.8741,23.0562-12.5178,27.8169.54.5903,1.3514.8335,2.3455.8335,4.6826,0,13.3947-5.4048,16.6302-5.4048.4839,0,.8455.1211,1.0526.3989,2.4734,3.3164-18.4447,27.1069-26.9843,27.1069-.6272,0-1.1879-.1284-1.6674-.4028-4.6382-2.6528-.9467-18.5254,3.6163-28.6514,5.9779-13.2661,15.7377-21.7417,17.3644-21.7417M759.3444,719.9095c-2.4023,0-6.785,4.5938-8.5579,6.5688-3.0031,3.3457-7.2889,8.9009-10.6532,16.3667-3.8376,8.5161-9.5654,27.3579-2.7753,31.2417.7771.4443,1.6765.6699,2.673.6699,4.741,0,11.2146-5.2378,15.8104-9.6318,5.3986-5.1616,10.3618-11.293,12.3506-15.2573.7794-1.5532,1.6738-3.8091.447-5.4541-.4127-.5532-1.212-1.2134-2.6763-1.2134-1.7937,0-4.095.9478-7.701,2.4937-3.0243,1.2969-6.7882,2.9106-8.9293,2.9106-.5453,0-.7915-.1099-.8511-.1748-.0093-.0103-.8536-1.1646,1.8086-6.542,1.8698-3.7769,4.7163-8.1465,7.0035-11.6577,1.2783-1.9624,2.3823-3.6572,3.1359-4.9624.7667-1.3281,2.05-3.5508.3127-4.8911-.3954-.3052-.8788-.4668-1.3977-.4668h0Z"/>
    </g>
    <path class="cls-19" d="M575.8216,925.5929c-5.396,3.6881-2.5147,16.5353,2.2625,37.836,2.6427,11.7834,7.6759,16.9128,8.7933,29.7616.7737,8.8961-.2379,16.7506-.9469,16.7748-.7261.0247-.7494-8.1755-3.7879-19.4804-2.1051-7.8321-4.5825-13.1551-5.6818-15.6924-6.6435-15.3356-17.2059-54.177-7.662-60.1314,6.6822-4.1691,16.1573,12.3485,43.6465,19.0063,18.8141,4.5567,33.5164,1.8035,33.5494,2.7056.0358.9778-17.1812,5.8675-36.6507,1.3971-20.1261-4.6212-28.0302-15.931-33.5224-12.1771Z"/>
    <path class="cls-19" d="M666.2999,796.8052c12.6208-60.7541,60.7498-100.5366,64.4606-97.9136,3.2407,2.2908-28.8877,35.8681-44.5908,97.9136-13.4118,52.992-5.92,91.4983-9.9349,91.7982-4.3291.3234-19.8778-43.9347-9.9349-91.7982Z"/>
    <path class="cls-8" d="M752.4271,734.0185c-.6925-.5342-8.1074,5.653-12.5768,15.5712-3.2747,7.267-5.924,18.6581-2.5953,20.562,5.0291,2.8766,22.4674-16.6098,20.562-19.1646-1.3541-1.8156-11.8874,5.7115-14.3734,2.9945-3.1264-3.4167,10.0046-19.1753,8.9835-19.9631Z"/>
    <g>
      <path class="cls-12" d="M874.2396,760.1462c-.425-.0001-.8453-.1095-1.2489-.3253-.0571-.0305-.1113-.0662-.1621-.1066-8.4957-6.7686-20.6727-17.5193-30.4369-30.2982-5.7375-7.5092-9.0179-13.5881-10.9686-20.3264-.7704-2.6608-1.0095-4.3486-1.2206-5.8379-.1699-1.1986-.3165-2.2338-.7078-3.6074-2.2324-7.8403-9.0515-14.7064-20.2677-20.4077-.2629-.1337-.459-.37-.5416-.6531-1.3275-4.5438-1.1565-8.1805.5083-10.8092,2.4377-3.8491,7.2079-4.3427,11.0911-4.3427,3.0192,0,6.4557.3518,10.0939.7244,4.2725.4376,8.6904.89,13.2339.8899,9.9221-.0002,17.271-2.2754,23.1273-7.1602,2.5135-2.0962,4.1429-3.6847,5.5526-6.0712,2.4456-4.1399,2.9573-8.7649,3.4989-13.6616.8268-7.4733,1.7638-15.9436,9.6111-25.0616,14.6738-17.05,38.8484-19.6743,62.2271-22.2122,17.2788-1.8757,33.5994-3.6473,44.64-11.166l.3567-.2445c2.3048-1.5848,8.4271-5.7947,12.6643-5.7947,1.1671,0,2.1426.3113,2.899.925,1.434,1.1635,1.9946,3.3405,1.6678,6.4731,3.4402,10.0466,4.9221,19.9734,4.4049,29.5085-.2454,4.5227-.8987,8.5286-1.5305,12.4025-1.3198,8.0917-2.4596,15.0801.3364,24.3853.2358.7844.2888.8967.5833,1.5198.4132.8748,1.1825,2.5028,3.2365,7.5258,4.1501,10.149,4.5551,12.158,6.2594,20.6132.8136,4.0364,1.9279,9.5645,3.9098,18.21.2408,1.0507.7408,3.2317-.5762,4.261-.3685.288-.8209.4338-1.3447.4338-.9607,0-2.1687-.5017-3.6934-1.5339-1.2271-.8137-7.2479-2.4042-18.438-2.4042-12.2307,0-36.96,2.0586-65.1614,15.8458-33.0338,16.1495-58.8585,42.8052-60.0208,45.1312-1.2545,2.6007-2.614,3.1576-3.5375,3.1748-.0067.0001-.0389.0005-.0457.0005Z"/>
      <path class="cls-11" d="M1005.2905,574.743c.8672,0,1.6315.2041,2.2257.686,1.5298,1.2412,1.4659,3.9419,1.2526,5.7637,4.3607,12.6289,4.7886,22.6514,4.4263,29.3301-.7479,13.7881-5.3906,23.042-1.1504,37.1533.5927,1.9717.2268.272,3.854,9.1426,6.1106,14.9434,4.0485,12.1855,10.1167,38.6572.1703.7427.5898,2.5688-.1926,3.1802-.1874.1465-.4236.207-.6865.207-1.1786,0-2.8948-1.2188-3.1676-1.3994-1.6932-1.1221-8.5883-2.5386-18.964-2.5386-15.8219,0-39.7362,3.2949-65.6305,15.9546-33.4667,16.3608-59.1794,42.9556-60.5074,45.6133-.1307.2617-1.157,2.5571-2.6013,2.584h-.0254c-.3087,0-.5669-.103-.7454-.1987-5.9489-4.7393-19.488-16.0215-30.2537-30.1108-6.0588-7.9297-9.0142-13.8364-10.7913-19.9751-1.3595-4.6958-1.0109-6.2231-1.927-9.4404-1.708-5.9985-6.561-13.8247-20.8114-21.0679-1.5493-5.3032-.6919-8.2368.3854-9.938,1.8899-2.9839,5.5131-3.8457,10.1877-3.8457,6.3962,0,14.7577,1.6147,23.3278,1.6147,8.2683,0,16.7328-1.5034,23.8123-7.4087,2.472-2.0615,4.2543-3.751,5.7883-6.3481,6.3357-10.7251.1862-23.6807,12.9998-38.5698,25.2244-29.3091,80.4193-15.3228,106.6586-33.1919,1.7327-1.1797,8.266-5.854,12.4194-5.8535M1005.2909,572.6053h-.0001c-4.0499-.0005-9.2194,3.1968-13.2703,5.9824l-.3525.2422c-10.8199,7.3682-27.0117,9.126-44.1541,10.9868-23.5848,2.5601-47.9725,5.2075-62.9215,22.5771-8.0631,9.3691-9.0195,18.0142-9.8633,25.6416-.5516,4.9868-1.0281,9.2935-3.3568,13.2354-1.3306,2.2529-2.8951,3.7744-5.3169,5.7939-5.6539,4.7158-12.7854,6.9126-22.4432,6.9126-4.4888,0-8.8789-.4497-13.1244-.8843-3.6665-.3755-7.1296-.73-10.2034-.73-4.157,0-9.2769.5498-11.9935,4.8394-1.8363,2.8994-2.0487,6.8296-.6313,11.6812.1654.5659.5574,1.0386,1.0833,1.3062,10.9402,5.5605,17.5763,12.2046,19.7241,19.7476.3711,1.3032.5131,2.3047.6774,3.4644.2161,1.5244.4608,3.252,1.2522,5.9849,1.9897,6.8735,5.3232,13.0581,11.146,20.6787,9.8311,12.8662,22.0776,23.6792,30.6202,30.4849.101.0806.209.1514.3229.2124.5602.3003,1.1505.4521,1.7544.4521.014,0,.0533-.0005.0673-.0005,1.2213-.0229,2.988-.689,4.4564-3.7344,1.5137-2.6206,26.9917-28.7632,59.5493-44.6797,28.0079-13.6929,52.5532-15.7373,64.6917-15.7373,11.0548,0,16.9037,1.6001,17.7834,2.1826l.057.0386c1.7308,1.1714,3.0944,1.7168,4.2911,1.7168.7572,0,1.4497-.2285,2.0026-.6602,1.8531-1.4478,1.2277-4.1758.9604-5.3403-1.979-8.6338-3.0917-14.1538-3.9042-18.1841-1.6782-8.3257-2.1294-10.5635-6.3179-20.8066-2.0648-5.0498-2.842-6.6943-3.2595-7.5781-.2836-.6001-.3132-.6631-.526-1.3706-2.7249-9.0688-1.6035-15.9443-.3051-23.9053.6364-3.9019,1.2944-7.937,1.5428-12.5171.521-9.603-.9545-19.5903-4.3857-29.6929.3109-3.3901-.3881-5.8032-2.0807-7.1768-.9517-.772-2.1536-1.1631-3.5721-1.1636h0Z"/>
    </g>
    <path class="cls-15" d="M791.8591,666.1373c-2.7688-1.6125,27.2354-52.2003,93.2239-81.6803,53.8549-24.0593,110.262-24.4926,111.0148-21.9056.727,2.4982-50.7874,6.6518-108.8161,34.5866-64.7778,31.1839-92.9188,70.4576-95.4227,68.9993Z"/>
    <path class="cls-18" d="M947.2065,614.9695c-.1224,1.2126,12.6558,5.4317,27.6802,3.4196,11.0083-1.4742,26.4358-6.7238,26.2385-12.0636-.2981-8.0676-36.1887-14.3575-37.8091-10.2226-1.1516,2.9385,15.507,9.8609,14.1223,14.8021-1.7414,6.2139-30.0512,2.2765-30.2318,4.0645Z"/>
    <path class="cls-15" d="M957.3173,616.8393c.0488.564,9.9948,1.1261,22.324-1.8977,5.284-1.2959,18.9788-4.6384,18.8303-8.6576-.2139-5.7898-25.9712-10.3038-27.1342-7.3364-.7807,1.9924,10.8679,6.2076,10.135,10.6229-1.0044,6.0514-24.23,6.4042-24.1552,7.2688Z"/>
    <ellipse class="cls-18" cx="869.7106" cy="727.02" rx="5.1925" ry="8.3451" transform="translate(88.8135 1548.6977) rotate(-86.3511)"/>
    <path class="cls-15" d="M1522.7682,812.7342c1.3986,3.7811-3.9078,41.7989-13.7841,41.8642-9.8516.0653-15.4895-37.6924-14.0471-41.777,1.1251-3.1855,6.3383,14.7324,14.7782,13.8941,7.7454-.7695,12.0385-16.7245,13.053-13.9814Z"/>
    <g>
      <path class="cls-12" d="M1187.921,539.6387c-8.2393.0002-16.9609-1.9598-25.9229-5.8254-.0994-.0428-.1918-.1006-.2738-.1713-41.0762-35.3486-85.4297-55.8536-131.8285-60.9452-5.0005-.5488-10.0907-.9213-15.1294-1.1071-5.536-.2042-10.7251-.3034-15.864-.3034-3.8163,0-6.9854.0535-9.7815.1008-2.1348.0361-4.0206.0679-5.7501.0679-4.0358,0-7.5255-.1701-11.4396-1.0005-12.5463-2.6618-24.0789-11.704-34.2775-26.8754-7.7812-10.9688-10.2051-17.0679-7.8436-19.754.6542-.7441,1.5798-1.1057,2.8302-1.1057.8341,0,1.7362.1589,2.6088.3126.8347.147,1.698.2991,2.4429.2991h.0005c.6949,0,1.1887-.1268,1.5541-.3991,2.1184-1.5787,3.4351-8.9764-11.5477-40.7841-.0442-.094-.0746-.194-.09-.2968-.656-4.3692-.0227-7.8255,1.8824-10.2729,1.9473-2.5016,4.9911-3.7178,9.3055-3.7178,5.3414,0,12.4167,1.8315,20.6091,3.9522,12.0892,3.1294,27.1349,7.0241,43.8285,7.0241,7.5906,0,15.0219-.8246,22.0875-2.451,2.3354-.5375,2.9434-.7634,7.674-2.5213,2.571-.9553,6.3375-2.3549,12.23-4.489,1.8336-.6632,46.1791-16.4897,158.2504-38.6166.4066-.0802,1.3585-.268,2.6067-.268.8676,0,1.7279.0916,2.5569.2723,2.9258.6376,4.9269,2.3287,6.002,3.2372.14.1184.2646.2239.3741.3118,23.2191,18.6489,43.2604,40.6943,59.5669,65.5239,14.5964,22.2252,25.995,46.4001,33.8792,71.8529.0336.1085.0497.2215.0476.335-.2131,12.117,2.6219,20.726,8.4264,25.5881,3.7657,3.1544,8.6375,4.6877,14.8936,4.6877,5.705,0,11.402-1.2795,15.9796-2.3076,3.0745-.6905,5.5028-1.2359,7.1948-1.2359,1.4799,0,2.4342.4633,2.8367,1.377.4357.9891.1042,2.3027-1.0132,4.0159-6.6677,10.2229-39.8242,34.44-67.1981,34.4411-6.1495.0002-11.6774-1.2433-16.4301-3.696-6.5792-3.3954-10.0671-8.249-13.1445-12.5313-3.3745-4.6958-6.2888-8.7512-12.4753-9.6135-.73-.1018-1.4624-.1534-2.177-.1534-6.8087,0-12.3485,4.6757-18.7629,10.0897-7.0948,5.9884-15.1365,12.7758-27.2539,15.637-3.6978.8732-7.5551,1.3159-11.4646,1.316Z"/>
      <path class="cls-11" d="M1206.0836,331.5599c.6921,0,1.4821.063,2.3287.2476,3.0461.6641,5.0084,2.5942,5.9343,3.3379,16.6686,13.3882,39.1588,34.5439,59.3429,65.2773,17.7487,27.0254,27.8481,52.5244,33.7515,71.5825-.1593,9.0571,1.2572,20.1011,8.8087,26.4263,4.4761,3.7495,10.0305,4.9375,15.5802,4.9375,9.5883,0,19.1667-3.5435,23.1742-3.5435.9798,0,1.6262.2114,1.8584.7388,2.264,5.1406-36.328,36.9575-67.233,36.9575-5.6729,0-11.0852-1.0718-15.9399-3.5771-13.6139-7.0259-13.5162-20.519-25.9625-22.2539-.7935-.1108-1.5675-.1636-2.3243-.1636-14.8232,0-23.1854,20.3062-46.2627,25.7554-3.8402.9067-7.6023,1.2871-11.2188,1.2871-10.1151,0-19.0962-2.9756-25.4998-5.7378-31.0061-26.6826-75.6903-54.9731-132.4091-61.1973-5.1587-.5664-10.23-.9292-15.2065-1.1128-6.3267-.2334-11.5286-.3042-15.906-.3042-6.7581,0-11.556.1685-15.5287.1685-4.2233,0-7.5104-.1904-11.2181-.9771-9.0692-1.9243-21.1827-7.936-33.6123-26.4263-5.7528-8.1094-10.176-15.8945-7.9279-18.4517.4932-.561,1.2036-.7427,2.0275-.7427,1.5126,0,3.4088.6118,5.0518.6118.821,0,1.5782-.1528,2.1931-.6108,3.1144-2.3213,3.2605-11.3564-11.2195-42.0967-.777-5.1753.4768-7.9263,1.6689-9.458,1.8541-2.3818,4.7198-3.3052,8.4618-3.3052,12.9025-.0005,36.2267,10.9761,64.438,10.9761,7.1584,0,14.6296-.7061,22.3273-2.478,3.7155-.8555,3.3579-1.0093,20.0282-7.0469.0004-.0005,44.6708-16.1797,158.0934-38.5732.4338-.0854,1.2913-.2476,2.4003-.2476M1206.0836,329.4222c-1.1967,0-2.1318.1538-2.813.2881-58.6521,11.5796-98.5675,21.4644-121.7245,27.7173-13.1271,3.5449-22.3866,6.3262-27.8429,8.0352-5.5521,1.7388-7.8148,2.4819-8.8339,2.9282l-.0073-.02c-5.8955,2.1353-9.7114,3.5532-12.2365,4.4912-4.6746,1.7368-5.2751,1.96-7.5435,2.4824-6.9871,1.6084-14.3378,2.4238-21.8477,2.4238-16.5563,0-31.5287-3.876-43.5592-6.9902-8.2638-2.1392-15.4006-3.9863-20.8785-3.9863-4.666,0-7.9857,1.3511-10.1488,4.1299-2.0919,2.688-2.7971,6.4185-2.0961,11.0884.0309.2056.0916.4053.1801.5933,16.0353,34.042,12.7061,38.8535,11.876,39.4722-.2076.1548-.6127.187-.9158.187-.6516,0-1.4681-.1436-2.2577-.2827-.9176-.1616-1.8666-.3291-2.7941-.3291-1.5537,0-2.776.4941-3.6328,1.4692-2.7828,3.165-.4578,9.4692,7.7736,21.0767,10.355,15.396,22.1071,24.583,34.9282,27.3032,4.005.8496,7.5585,1.0239,11.6619,1.0239,1.7418,0,3.6069-.0312,5.7664-.0679,2.7911-.0474,5.9547-.1006,9.7623-.1006,5.1281,0,10.3052.0991,15.8273.3027,5.0164.1851,10.0806.5557,15.052,1.1016,46.1803,5.0674,90.3385,25.4873,131.248,60.6924.1642.1411.3489.2568.5477.3428,9.0962,3.9233,17.9604,5.9126,26.3463,5.9126,3.9919,0,7.9318-.4521,11.71-1.3442,12.366-2.9199,20.5112-9.7949,27.6978-15.8608,6.2542-5.2788,11.6556-9.8374,18.0736-9.8374.6655,0,1.3484.0479,2.0294.1431,5.7332.7988,8.3905,4.4971,11.7549,9.1787,3.1476,4.3799,6.7151,9.3442,13.5223,12.8574,4.9052,2.5317,10.598,3.8154,16.9203,3.8154,27.7267,0,61.3307-24.5586,68.093-34.9258.489-.7495,1.9771-3.0312,1.0963-5.0312-.4048-.9189-1.3953-2.0146-3.8146-2.0146-1.8106,0-4.29.5566-7.429,1.2617-4.5261,1.0166-10.1588,2.2817-15.7452,2.2817-5.9949,0-10.6421-1.4517-14.2076-4.4385-5.5448-4.6445-8.2512-12.9717-8.0441-24.75.004-.2271-.0282-.4531-.0953-.6699-7.9136-25.5483-19.3551-49.814-34.0066-72.1235-16.3674-24.9219-36.4841-47.0503-59.791-65.7705-.1036-.083-.2214-.1831-.3538-.2949-1.1459-.9683-3.2788-2.7705-6.4639-3.4648-.9034-.1968-1.8401-.2969-2.7841-.2969h0Z"/>
    </g>
    <path class="cls-18" d="M1265.0663,490.55c11.6052,2.8054,10.0353,9.5783,28.9297,18.3592,15.0333,6.9865,23.9399,6.3764,24.479,10.5705.6758,5.2569-12.1998,14.9047-23.3662,12.7959-15.1692-2.8646-14.0406-24.9428-30.5988-30.5988-12.8309-4.3828-27.5706,4.071-39.9397,11.1651-16.9892,9.744-17.8359,16.8683-29.0465,18.8773-13.9811,2.5054-31.8382-5.139-35.3296-16.4607-6.1293-19.8757,32.2549-50.311,47.4455-43.578,8.9105,3.9494,4.7561,18.4342,15.5248,24.0938,12.343,6.4871,23.0582-9.7796,41.9018-5.2244Z"/>
    <path class="cls-15" d="M1227.439,354.8942c-.5675,1.1583-14.0388-8.7444-34.7728-9.2786-20.6862-.5331-34.6342,8.619-35.1447,7.4229-.5571-1.3052,15.2019-14.1917,35.1447-13.7324,20.1321.4637,35.3954,14.3174,34.7728,15.5881Z"/>
    <ellipse class="cls-13" cx="965.1693" cy="399.7941" rx="6.8321" ry="10.498"/>
    <path class="cls-15" d="M1197.8202,513.123c-2.2476,6.1932-9.6018,9.4672-15.394,10.0046-7.4357.69-16.9501-2.6978-18.7239-8.7238-3.26-11.0745,21.0321-26.2729,25.1451-23.0955,2.1007,1.6228-1.0268,8.0661,2.4695,10.792,1.9674,1.5339,3.9877.2969,5.7583,1.9772,2.1999,2.0878,1.6813,6.4654.745,9.0454Z"/>
    <ellipse class="cls-15" cx="1301.7848" cy="525.2286" rx="3.338" ry=".9736"/>
    <path class="cls-8" d="M1245.9653,595.7447c.2452-2.0217.9002-5.162,2.9671-8.1597,11.6628-16.9137,46.6495,2.0885,80.8548-2.9671,60.2811-8.9095,89.9882-88.3775,110.6192-78.5368,2.5597,1.221,5.4931,4.0616,7.2323,11.1268,13.1868,29.8586,26.754,66.6496,37.1822,109.6919,11.3407,46.8086,16.0331,88.8934,17.6175,123.5075-1.7796,5.4874-5.3019,13.3188-12.6105,16.783-19.0589,9.0339-44.9326-20.6053-56.1904-12.7958-8.8125,6.1132,5.5128,25.336-4.4508,43.1163-12.1168,21.6227-53.4798,29.3637-75.2914,14.3722-2.6319-1.809-4.4567-3.7672-5.5635-5.0998-6.9394-33.9827-20.0186-79.2101-45.9908-127.9583-18.3036-34.3546-38.4605-61.918-56.3758-83.0802Z"/>
    <path class="cls-15" d="M1439.7892,504.2878c-.7916-1.316-4.3513-.5235-5.5953-.2465-18.0907,4.0275-47.3272,39.5081-78.0898,58.1437-15.7331,9.5309-32.6063,19.7526-54.3193,18.0749-18.9734-1.466-32.2382-11.2915-43.3946-3.8943-6.472,4.2912-11.6256,13.975-8.9013,20.0282,7.2434,16.0945,74.8968,17.0125,117.8955-15.732,21.7595-16.5703,28.9779-35.496,58.4644-60.4866,3.3814-2.8658,15.6299-13.0784,13.9404-15.8874Z"/>
    <path class="cls-15" d="M1439.7892,504.2879c2.2121-.8152,26.5981,38.6374,32.7792,92.072,6.4251,55.545-9.651,101.7322-11.8765,101.4221-1.9718-.2748,7.5467-36.9644,2.7203-90.9679-5.5169-61.7322-25.8128-101.7193-23.6231-102.5263Z"/>
    <path class="cls-12" d="M1371.791,386.0971c21.1057,28.4732,29.0892,46.4709,31.9896,53.4087,3.7881,9.0613,13.9208,33.2985,7.6032,37.8311-6.3061,4.5244-19.7629-14.5722-37.3403-12.6391-15.3577,1.689-20.5449,15.1854-30.1623,12.6391-4.7156-1.2484-6.1377-5.3402-15.763-28.3734-14.8132-35.4474-16.1536-37.3842-15.6703-43.8582.7283-9.755,4.7195-18.0497,0-22.8099-2.6037-2.6262-6.2149-2.5189-8.9015-2.7818-14.2448-1.394-21.5155-15.0541-35.6057-28.9297-20.744-20.428-39.5733-24.8817-38.0167-29.0224,1.4094-3.7489,15.8697,2.7509,38.1094-2.5035,12.5135-2.9564,15.0222-6.5877,20.1493-8.0132.0004-.0001,2.1178-.5058,4.515-.6101,15.4478-.6719,49.0505,39.4998,49.0508,39.5001,18.9569,22.6629,28.4355,33.9944,30.0424,36.1621Z"/>
    <path class="cls-15" d="M1285.5719,323.2972c-1.5537-.7167-4.974-2.2582-3.1079-4.5548,1.6371-2.0148,6.9674-4.4019,12.048-4.6057,9.0883-.3645,12.3769,7.2998,10.1931,7.742-1.6977.3438-7.1726-3.5282-11.2899-2.8957-3.7927.5827-3.4565,4.5304-6.0855,4.7347-.5684.0442-1.0687-.1027-1.7577-.4206Z"/>
    <path class="cls-15" d="M1336.8204,463.5761c1.1981-1.5579,5.8457,3.2685,13.3814,2.7332,6.0512-.4299,10.2833-4.0556,10.8118-3.0973.5177.9387-3.4228,4.635-4.2223,5.385-1.8721,1.7562-2.865,2.6876-4.3392,3.4067-3.883,1.8943-9.0113,1.295-12.3807-1.7801-2.1752-1.9851-4.1458-5.4841-3.2511-6.6475Z"/>
    <path class="cls-18" d="M1376.1306,414.312c-.9734.844,6.9518,9.4874,14.0644,21.9272,9.8731,17.2676,6.9344,31.7347,15.0503,34.006.34.0951,3.5006,1.0019,4.7477-.4189,1.4962-1.7045-.6219-5.7734-2.7817-9.8287-4.9026-9.2051-9.9442-18.336-15.0212-27.4461-2.447-4.3909-5.4918-10.0443-11.6831-15.3921-1.0228-.8834-3.8374-3.3147-4.3765-2.8473Z"/>
    <g>
      <path class="cls-12" d="M1128.875,326.0837c-3.2468,0-6.1598-.7834-8.9055-2.395-2.9562-1.7352-5.4542-4.2948-7.4244-7.6079-.0634-.1064-.1077-.223-.131-.3446-5.1769-26.9323-15.7397-48.0771-31.3953-62.8471-5.2203-4.925-9.6849-7.3317-14.4116-9.8798-5.8806-3.1702-11.9614-6.4482-19.4065-14.8533-4.7765-5.3923-7.9127-10.2281-10.6798-14.4947-4.4575-6.8731-8.3071-12.8088-17.3953-18.8917-1.8018-1.2059-3.6422-2.3089-5.4222-3.3755-5.3033-3.178-9.1351-5.4741-8.4689-8.3262.439-1.879,2.375-2.3263,5.5826-3.0675,2.8965-.6693,6.8634-1.5859,12.1887-3.8832,1.7401-.7507,2.9507-1.3604,3.9232-1.8504,1.7782-.8958,2.953-1.4876,5.2971-1.9275,1.5779-.2961,3.2765-.4463,5.0487-.4463,1.8947,0,4.9026.1789,8.4724,1.0312.9977.2382,1.9938.5214,2.9606.8417,40.0024,12.1589,76.8297,28.0408,109.4333,47.1965,25.6367,15.0623,40.7994,27.5086,52.9828,37.5093,12.7045,10.4285,22.7394,18.6655,38.8638,25.29,6.2919,2.5827,9.0704,4.8686,8.816,7.2232-.3668,3.393-5.8711,3.5132-16.837,3.7526-13.0178.2843-32.6904.7139-53.8187,7.3517-12.8706,4.0436-23.3834,9.4521-32.6587,14.2239-10.6105,5.4587-18.9912,9.7704-26.6144,9.7704Z"/>
      <path class="cls-11" d="M1037.274,172.9617c3.9177,0,7.1743.7515,8.2251,1.002,1.2173.2905,2.2073.5962,2.8726.8169,50.0566,15.2153,85.9886,33.4492,109.2281,47.1035,52.1022,30.6113,60.0332,49.7407,91.9818,62.8662,1.6401.6738,8.4503,3.4297,8.1595,6.1196-.6284,5.8135-33.0366-1.3857-69.9135,10.1997-27.6572,8.689-45.0964,23.9453-58.9528,23.9453-2.9279,0-5.6938-.6807-8.3645-2.248-3.5422-2.0791-5.735-5.0264-7.0469-7.2324-6.4994-33.8125-20.155-52.52-31.7114-63.4229-12.0355-11.3545-20.6288-9.8496-33.7515-24.6641-12.3121-13.8999-13.2396-23.499-28.2806-33.5659-6.6615-4.459-14.118-7.689-13.4448-10.5708.5682-2.4326,6.1965-1.4854,17.1539-6.2124,4.8771-2.104,5.5487-3.062,8.9941-3.709,1.6562-.311,3.3052-.4277,4.8507-.4277M1037.2745,170.824h0c-1.8385,0-3.6033.1562-5.2455.4644-2.4929.4683-3.7883,1.1206-5.5811,2.0239-.96.4834-2.1547,1.0854-3.8655,1.8232-5.2368,2.2593-9.1494,3.1636-12.0062,3.8232-3.3625.7773-5.7921,1.3384-6.3826,3.8657-.8435,3.6113,3.483,6.2041,8.9607,9.4868,1.7684,1.0596,3.5973,2.1558,5.3766,3.3467,8.9058,5.9604,12.7,11.811,17.0933,18.585,2.7875,4.2983,5.9469,9.1694,10.7764,14.6221,7.5709,8.5469,13.7366,11.8706,19.6995,15.085,4.663,2.5137,9.0673,4.8882,14.1852,9.7163,15.489,14.6133,25.9456,35.5645,31.0792,62.2715.0468.2432.1354.4766.2618.6895,2.0635,3.4697,4.6885,6.1558,7.8021,7.9829,2.9142,1.7109,6.0043,2.5425,9.4465,2.5425,7.882,0,16.3643-4.3643,27.1031-9.8892,9.2372-4.752,19.7068-10.1382,32.4904-14.1548,20.983-6.5918,40.5641-7.0195,53.5212-7.3027,4.9116-.1074,8.7911-.1919,11.6292-.5742,1.61-.2168,5.8865-.7925,6.2474-4.1323.4072-3.7661-4.8103-6.4126-9.4012-8.2974l-.0712-.0288c-15.9762-6.5635-25.9564-14.7559-38.5917-25.1274-12.2123-10.0244-27.4108-22.5-53.1196-37.6045-32.6685-19.1943-69.5629-35.1074-109.6643-47.2983-.9856-.3262-2.0024-.6147-3.0229-.8584-3.6735-.8765-6.77-1.0605-8.7208-1.0605h0Z"/>
    </g>
    <path class="cls-13" d="M1139.0006,312.6774c1.2532,1.2652-6.3543,10.5321-14.1387,7.9908-7.8267-2.5549-8.227-14.5636-6.7803-14.7576.9818-.1316,2.5169,5.2187,7.9905,7.2888,6.1444,2.3238,11.9807-1.4789,12.9285-.5221Z"/>
    <path class="cls-18" d="M1025.7189,188.6824c1.1941.6893,1.7311,1.9945,1.1995,2.9153-.5316.9206-1.9303,1.1082-3.1244.4189-1.194-.6895-1.7311-1.9945-1.1995-2.9153s1.9304-1.1082,3.1244-.4189Z"/>
    <path class="cls-18" d="M1096.4801,229.6856c1.5675,3.8227-.9501,9.5829-4.8887,11.9843-10.507,6.4063-34.1282-9.261-45.6177-28.0515-5.4368-8.8916-7.9179-18.0912-6.7321-18.7297,1.6395-.8828,6.9114,16.4188,22.6409,25.0223,15.9772,8.739,31.5707,2.3926,34.5975,9.7745Z"/>
    <path class="cls-15" d="M1093.5413,233.4797c.9879,1.1953.0555,3.5509-1.7665,4.8613-4.8607,3.4958-17.4416.5516-24.1752-4.8935-3.1863-2.5766-4.9231-5.5998-4.3699-5.964.7649-.5035,4.3318,5.1133,12.6089,6.4166,8.4074,1.3238,15.7951-2.7286,17.7027-.4205Z"/>
    <ellipse class="cls-18" cx="1236.4148" cy="286.6976" rx="4.6629" ry="8.5306" transform="translate(735.1923 1452.7563) rotate(-79.7948)"/>
    <g>
      <path class="cls-12" d="M838.4742,193.0885c-3.5811,0-6.1901-.049-7.8409-.0858-36.0225-.8026-77.7251-4.9453-114.4149-11.3657-34.7-6.0722-58.4281-13.0317-63.4729-18.6167-.8611-.9532-1.259-1.923-1.1828-2.8822.493-6.2051,19.9811-9.2607,77.231-12.1096,3.3646-.1675,6.5895-.2488,9.8586-.2488,7.2889,0,13.5767.4195,19.6575.8253,6.1326.4092,12.474.8323,19.9008.8323,5.7837,0,11.6733-.2544,18.0055-.7776,9.5474-.789,15.1285-1.6627,20.0526-2.4334,5.6801-.8892,10.5856-1.657,19.8088-2.0923,3.4451-.1626,6.6902-.2416,9.9205-.2416,15.845,0,30.1329,1.9984,52.1331,5.2591,85.8805,12.7284,85.9373,14.3945,86.0315,17.1548.106,3.1074-3.5577,8.0327-36.4565,14.8993-16.5768,3.4599-34.1633,6.0423-40.9551,6.992-30.4318,4.2556-55.8398,4.891-68.2767,4.891Z"/>
      <path class="cls-11" d="M845.9969,144.9612c15.7252-.0005,29.5337,1.9209,51.9774,5.2476,82.3807,12.2095,85.0573,14.293,85.12,16.1338.3431,10.0518-69.797,19.8604-76.4915,20.7964-30.4072,4.252-55.3954,4.8809-68.1304,4.8809-3.689,0-6.3486-.0527-7.8154-.0854-83.5944-1.8628-178.886-20.9248-178.0289-31.7114.585-7.3633,45.8696-9.6167,76.2186-11.127,3.5173-.1753,6.7604-.2476,9.8058-.2476,14.5756,0,24.7045,1.6577,39.5588,1.6577,5.2936,0,11.184-.2104,18.0927-.7812,20.3478-1.6816,22.4939-3.7056,39.8237-4.5234,3.4257-.1616,6.6876-.2402,9.8691-.2402M845.9987,142.8235h-.0017c-3.248,0-6.5092.0796-9.9698.2427-9.2811.438-14.213,1.21-19.9238,2.104-4.906.7681-10.4667,1.6387-19.9752,2.4243-6.3022.521-12.1627.7739-17.9166.7739-7.3911,0-13.7146-.4219-19.83-.8301-6.0984-.4067-12.4044-.8276-19.7289-.8276-3.287,0-6.5292.082-9.912.2505-15.2147.7568-34.1481,1.6992-49.3993,3.3789-16.9988,1.8716-28.4092,4.2402-28.844,9.7134-.1003,1.2642.3892,2.5034,1.4551,3.6831,2.7494,3.0439,9.8881,6.1973,21.8242,9.6406,11.0551,3.1895,25.6675,6.4097,42.2574,9.3125,36.7405,6.4292,78.5016,10.5776,114.5754,11.3818,1.6559.0366,4.2725.0859,7.863.0859,12.4648,0,37.9297-.6367,68.4264-4.9014,6.8018-.9512,24.4152-3.5376,41.0255-7.0044,33.1188-6.9126,37.4436-11.958,37.3063-15.9819-.0956-2.8003-2.5989-3.959-13.3928-6.1987-12.3811-2.5693-35.7522-6.375-73.5502-11.9766-22.0483-3.2681-36.3698-5.271-52.2891-5.271h0Z"/>
    </g>
    <path class="cls-7" d="M986.8034,166.3426c.2859,7.9872-34.9613,16.6638-36.533,13.3521-.9005-1.8976,9.4915-7.2356,8.345-10.5705-1.1932-3.4709-13.4539-.6098-25.5916-.5563-35.716.1574-58.03-24.0488-84.0538-22.4853-1.0246.0616-4.7199.2541-15.3408,1.0211-4.5279.327-10.6437.7394-19.3841,1.2505-11.6094.6788-34.4112,2.0119-34.4931,1.1127-.0793-.87,21.1377-3.5046,33.0095-4.8216,15.1425-1.6798,25.1241-2.7556,36.3476-2.9671,18.2292-.3436,31.8028,1.7968,48.6799,4.6361,59.2217,9.9629,88.8362,15.0461,89.0145,20.0282Z"/>
    <ellipse class="cls-7" cx="675.9017" cy="157.3484" rx="10.0141" ry="3.6162"/>
    <path class="cls-13" d="M836.9623,182.1982c.0491.3799-47.2204,7.6499-73.9933-.5563-3.7481-1.1489-11.0884-3.8252-15.8557-5.5633-21.3413-7.7811-21.7541-9.1251-21.6972-9.7361.2305-2.4776,9.3386-5.2783,15.5776-1.9472,4.0242,2.1487,5.6295,6.1943,6.1197,7.2325,8.1831,17.33,89.7849,10.0734,89.849,10.5705Z"/>
    <path class="cls-12" d="M618.135,347.1533c7.6053.5929,19.6772,1.629,34.4931,3.338,35.3261,4.075,51.0807,7.9185,53.5942,2.7817,3.3364-6.8189-21.2968-19.9824-18.5447-27.4461,4.2633-11.5621,63.1104,20.7509,137.9724,10.3851,43.6263-6.0408,70.126-23.4508,107.7446-8.9015,18.1725,7.0284,16.1137,12.6866,31.155,15.5775,35.3751,6.7988,79.5427-18.1984,94.578-11.6831,1.1507.4986,6.0171,2.866,11.6831,1.669,3.4874-.7367,6.0548-2.5654,7.6033-3.8943.1741-.1732.4908-.5064.8113-.9736,7.628-11.1193-18.317-46.0161-44.2059-69.1253-17.3247-15.4646-29.514-21.0885-34.864-32.2678-.9918-2.0725-4.5721-10.2359-12.9812-15.902-2.2358-1.5065-4.2503-2.4574-5.5635-3.0135-40.1223-6.2901-68.7227-.7189-87.7379,5.82-14.8597,5.1099-24.5809,11.0568-43.0021,12.9102-21.5856,2.1718-31.1342-3.6899-58.4158-9.8287-62.2203-14.0005-117.7663-6.7859-132.0381-25.2207-.954-1.2323-6.3046-8.7126-12.6105-8.1597-4.0727.3572-7.0843,3.9375-8.9015,6.676-.9061,8.1409-2.77,20.1349-7.047,34.1223-4.3624,14.2664-6.6683,15.6719-11.4977,28.9297-10.211,28.0317-3.1346,27.1045-12.9812,66.7609-1.8798,7.5707-4.641,17.6735.6723,23.4127,2.8191,3.045,6.9726,3.8479,10.0836,4.0335Z"/>
    <path class="cls-13" d="M893.1527,230.6927c.8533,2.2408-21.5263,18.953-49.6998,18.9156-28.1095-.0373-50.5349-16.7328-49.6997-18.9156.7276-1.9012,18.7681,8.0827,47.4744,8.5304,31.098.485,51.1413-10.5891,51.9252-8.5304Z"/>
    <path class="cls-13" d="M671.451,332.4102c-.3352,2.934-.7583,6.6388.6491,9.9214,3.5687,8.3237,18.1072,12.0669,23.5518,7.3252,1.1153-.9712,2.5716-2.9278,2.0399-4.4507-1.0507-3.0097-8.527-.4891-15.0212-5.1926-1.0013-.7252-4.5078-3.2648-5.3779-7.3252-1.6093-7.5106,7.1153-14.0951,5.9342-15.2994-.8606-.8774-6.295,1.7991-9.2723,6.5834-1.8858,3.0305-2.2258,6.0067-2.5035,8.4378Z"/>
    <ellipse class="cls-13" cx="649.4219" cy="212.9969" rx="2.0404" ry="3.1352"/>
    <path class="cls-13" d="M657.1794,203.7913c0,2.462-1.299,4.4579-2.9013,4.4579s-2.9012-1.9959-2.9012-4.4579,1.299-4.458,2.9012-4.458,2.9013,1.9959,2.9013,4.458Z"/>
    <path class="cls-13" d="M720.133,306.7258c-.1109,1.4601,9.9531,2.544,28.2783,8.7624,14.5416,4.9345,23.3017,9.3749,27.7494,11.2659,35.1055,14.9255,72.0762-13.9,129.5096-10.107,19.8179,1.3088,29.9209,5.5167,34.2149,7.5106,16.5102,7.6668,23.5867,18.1051,27.2607,15.8557,5.1476-3.1516,2.7862-23.6704-9.319-36.2549-6.482-6.7387-14.0122-9.3725-17.1071-10.3387-33.9498-10.599-86.9119,6.9257-138.7143,11.8687-44.4167,4.2383-81.6588-1.3763-81.8725,1.4371Z"/>
    <path class="cls-7" d="M953.6084,212.0089c-.8789,2.0832,7.0551,6.3058,23.6444,18.9156,13.6554,10.3796,20.4477,15.6158,23.3664,19.1937,9.4158,11.5427,12.1381,22.8247,21.6045,24.2936,3.1415.4874,3.559-.6438,6.3052.1854,7.6079,2.2972,9.8426,12.0463,14.2795,22.4854,6.2076,14.6053,18.3959,33.9908,26.4493,32.5691,3.8025-.6713,5.8275-5.8302,6.3052-7.047,2.1478-5.4715.7884-12.8137-3.0023-14.6273-2.3695-1.1336-4.3008.5569-6.8263.9041-11.6182,1.5971-17.4278-27.763-38.6889-45.9676-2.7233-2.3319-10.3155-8.8613-19.6292-19.1516-1.2753-1.409-2.538-2.933-4.108-4.9564-10.4777-13.5034-12.8973-26.5781-19.1937-26.148-2.4423.1668-2.5617,2.167-6.0269,3.8016-10.1999,4.8112-23.9359-5.7381-24.479-4.4507Z"/>
    <path class="cls-12" d="M581.4397,337.904c-3.4826,1.2174-6.3114-1.5066-12.2396-4.8216-34.1422-19.0919-59.3422,4.7005-105.7046-3.338-37.9192-6.5745-38.7765-25.5616-66.7609-21.8828-13.042,1.7145-45.6816,10.1536-49.3521,6.4212-1.7511-1.7807-1.53-3.2681-1.5299-3.2685.1862-1.2518,1.3397-2.0601,1.924-2.4109,39.8965-31.3452,92.8648-66.3519,159.4844-95.3196,31.9246-13.8815,62.283-24.3322,90.1271-32.2678,5.5696-1.541,12.7953-2.8494,15.2067.3709,3.9974,5.3383-7.9313,19.5205-13.7926,28.3734-32.9421,49.7554-.8137,122.359-17.3624,128.1438Z"/>
    <path class="cls-1" d="M736.2183,168.962c.1854.1854.3709.3709.5563.5563"/>
    <path class="cls-1" d="M680.0279,343.6529l.5563-.5563"/>
    <path class="cls-1" d="M1062.1657,584.453c.5234,1.4733,1.0468,2.9466,1.5702,4.42"/>
    <path class="cls-15" d="M470.695,322.3609c-8.8444-.8611-18.5654-4.6937-19.4855-8.1565-.9136-3.4384,7.0801-5.647,9.9531-4.9152,3.2678.8323-1.3421,5.1497,4.1554,7.2807,6.676,2.5879,20.9263-.8899,23.2344.3628,2.1059,1.143-4.8644,6.6931-17.8575,5.4281Z"/>
    <ellipse class="cls-13" cx="365.3656" cy="304.445" rx="3.1352" ry="2.0404" transform="translate(-109.4003 276.587) rotate(-36.445)"/>
    <path class="cls-13" d="M377.3793,305.2168c-1.9805,1.4626-4.3577,1.6033-5.3096.3143s-.1179-3.5195,1.8626-4.982c1.9806-1.4626,4.3578-1.6034,5.3096-.3145.9519,1.289.118,3.5196-1.8626,4.9822Z"/>
    <path class="cls-18" d="M522.9081,232.9412c-.4936-1.0572-6.47-14.1817-3.8945-24.479,6.272-25.0766,66.1497-26.7231,66.8333-24.032.3521,1.3861-15.1725,2.7047-21.932,14.8756-2.2696,4.0865-2.4912,7.4884-6.3052,10.385-5.2083,3.9555-9.3866,1.099-13.875,3.5326-10.7415,5.8241-4.0837,32.0891-9.6999,33.07-4.5245.7902-10.0284-10.9993-11.1268-13.3521Z"/>
    <path class="cls-13" d="M525.8752,224.9669c3.6328,7.2585,9.8579,9.2141,9.7823,15.3921-.0213,1.7404-.5525,4.6161-1.9935,5.007-3.059.8298-10.099-9.571-11.6832-20.77-1.2249-8.6592,1.0477-16.1295,1.7154-16.0875.6994.0439-1.9371,8.234,2.179,16.4584Z"/>
    <ellipse class="cls-13" cx="531.3687" cy="222.6123" rx="1.7846" ry="4.136"/>
    <path class="cls-12" d="M311.2485,336.7229c.478-.4599.8924-.7795,1.1335-.9568,12.9083-9.4947,38.3201,14.3344,56.0736,8.8454.754-.2332,4.545-1.4624,9.6432-1.4836,3.6574-.0152,9.4009.0004,11.4977,3.338,1.4645,2.3312.4358,5.1532,2.7354,6.7688.9402.6606,1.7344.6258,2.3644,1.53.9969,1.4305.3622,3.4595.1391,4.1725-5.3466,17.0926-35.6536,52.0558-35.6539,52.056-25.8841,29.8606-5.6497,56.4746-26.7043,105.8902-4.8639,11.4158-21.1292,45.6757-22.7172,51.4615-.0436.1589-.6109,2.2445-2.0847,4.598-1.069,1.7071-2.141,3.3691-4.1726,4.1725-1.811.7162-3.5614.4244-4.5898.1391-8.2356-1.3837-19.9651-3.5415-33.9367-6.7688-18.2106-4.2065-19.82-5.5153-64.5355-19.2865-26.672-8.2142-34.0955-10.2111-35.6074-16.3275-1.9114-7.7327,7.5215-14.3818,18.5447-25.9626,35.2116-36.9928,25.277-59.8307,63.0519-96.4324,10.4881-10.1624,11.0836-8.2368,22.9954-20.0282,20.8552-20.6446,33.9585-41.3249,41.8232-55.7257Z"/>
    <path class="cls-13" d="M179.1499,538.84c-1.8239-.0202-3.5995-.9912-4.5168-2.3491-2.9323-4.3409,2.9083-12.6323,3.5832-13.5904,10.5-14.9059,38.0216-14.219,38.5152-11.9309.3456,1.6022-13.0767,1.6005-23.4861,12.9567-6.3221,6.8972-8.7726,14.9726-14.0955,14.9137Z"/>
    <ellipse class="cls-13" cx="300.5357" cy="554.0737" rx="4.868" ry="5.9807"/>
    <ellipse class="cls-13" cx="292.0276" cy="562.6384" rx="2.4796" ry="2.7013"/>
    <path class="cls-18" d="M179.9523,535.7307c-1.3952-.0393-2.3855-1.5189-2.6526-1.9089-1.9019-2.776-.0465-6.851.3942-7.7496.0002-.0004.0298-.061.0652-.1308,2.8171-5.5669,12.0342-9.8213,17.5819-11.0896.7255-.1658,2.9119-.6658,3.0598-.2782.0667.1746-.3049.4661-.4172.5563-1.7408,1.3961-8.9035,8.6865-12.1211,13.0347-3.2612,4.407-3.8263,7.6247-5.9102,7.5661Z"/>
    <path class="cls-18" d="M291.2634,388.0061c-1.4194,1.484-2.1757,2.7968-2.5963,2.5962-1.9457-.9279,4.2928-33.3397,21.8827-39.3147,7.9738-2.7085,17.2139.3777,19.2865-4.0798,1.3929-2.9959-1.8864-6.3132-.7418-7.4179,2.6559-2.5633,16.2734,13.7999,35.9767,15.9485,13.5222,1.4745,21.8144-4.6812,24.3862-.8345,3.6316,5.4315-10.6269,21.1066-11.6831,22.2536-5.2209,5.6695-8.1971,7.0089-12.2395,10.5705-17.0365,15.0099-16.4037,37.2368-20.8628,36.9966-5.2641-.2836-.1463-30.9355-16.1338-40.891-10.0977-6.2878-28.9517-4.5292-37.2748,4.1725Z"/>
    <path class="cls-8" d="M291.0316,401.4046c-.7237-2.3248,18.2678-18.2407,33.3804-10.0141,16.001,8.7101,10.7136,35.2632,8.9015,35.6058-1.4635.2767-1.2691-16.4266-12.7958-23.9227-12.3004-7.9991-28.8387.4103-29.486-1.669Z"/>
    <g>
      <path class="cls-12" d="M480.2547,596.626c-32.6022-.0001-67.878-.3348-102.0139-.968-.0983-.0018-.1959-.0172-.29-.0457-14.0261-4.2491-23.7216-11.1602-28.8173-20.5411-7.6689-14.1178-1.2592-26.502,8.4429-45.2479,7.9629-15.3853,17.8729-34.5328,24.092-62.3131,2.9894-13.3533,4.4523-25.637,5.8672-37.5163,3.3234-27.9046,5.9484-49.9453,26.2096-66.5561,2.2049-1.8076,4.5516-3.4883,6.9748-4.9954.0422-.0263.0862-.0496.1318-.0698,5.5688-2.4649,11.3964-4.2067,17.3208-5.1771,3.3188-.5436,6.4079-.7968,9.7217-.7968,5.0365,0,10.5358.5609,18.8601,1.4099,2.5784.263,5.4223.5531,8.5981.8614,3.2235.313,6.5104.578,9.6891.8344,3.7869.3054,7.7027.621,11.5518,1.0208,106.7498,11.0866,160.328,16.6509,188.084,18.1697,25.0938,1.3731,62.3678,1.7814,136.6276,2.5947,14.741.1615,29.6511.2863,44.316.3708.3998-.0226.9037-.0381,1.4437-.0381,4.3102,0,8.2123.9805,11.598,2.9142,5.3309,3.0448,9.5215,9.5715,12.4553,19.3989,4.8502,16.2471,2.3153,28.16-.1361,39.6807-1.5358,7.2175-2.9865,14.0348-2.6023,21.6761l.0063.123c.0936,1.8182.3427,6.6479-2.798,9.2803-1.1266.9442-2.3779,1.3934-9.6309,1.7322-2.5115.1172-4.1805.147-6.1133.1815-1.2432.0221-2.6042.0464-4.3838.0974-2.0306.0581-5.0994.1459-8.5856.369-.0519.0034-5.1807.3338-10.6932,1.0142-25.1704,3.1061-52.9646,13.9194-53.2424,14.0283-.7136.2796-4.4768,1.7631-8.4946,3.5088-23.4573,10.1915-47.9354,25.889-73.8508,42.5082-11.1949,7.1791-22.771,14.6028-34.3228,21.5906-28.4808,17.2282-44.1694,26.7183-67.4009,33.1252-23.5705,6.5005-42.6693,6.881-52.9298,7.0853-22.9858.4578-48.45.6899-75.6854.6899Z"/>
      <path class="cls-11" d="M447.8949,353.4676c6.5415,0,14.0283.9722,27.3545,2.2661,7.0717.6865,14.1669,1.1206,21.2338,1.8545,106.9021,11.1025,160.3533,16.6538,188.1359,18.1738,25.1172,1.3745,62.3029,1.7817,136.6743,2.5962,18.4865.2026,33.8123.3105,44.3217.3711.4446-.0229.9297-.0381,1.4501-.0381,2.972,0,7.0724.4912,11.0676,2.7734,2.4833,1.418,7.9197,5.2378,11.9613,18.7764,7.7802,26.0615-3.7933,40.9795-2.7816,61.105.0782,1.5571.3927,6.1807-2.4108,8.5303-.8605.7212-1.9254,1.1533-8.9943,1.4839-4.1034.1914-5.9227.1475-10.4778.2778-2.2407.0645-5.1871.1509-8.6233.3711-.0004,0-5.176.3311-10.7559,1.02-25.6013,3.1592-53.5011,14.0938-53.5015,14.0938-.5348.2095-4.3794,1.7202-8.5305,3.5234-33.9346,14.7437-70.642,41.3848-108.3009,64.1646-29.3417,17.749-44.4724,26.7603-67.1318,33.0098-22.9729,6.3354-41.4065,6.8228-52.667,7.0469-25.5345.5088-51.5249.6895-75.6619.6895-46.3175,0-85.792-.667-101.9961-.9678-9.0177-2.7314-21.7689-8.2109-28.188-20.0278-13.5233-24.896,18.8412-45.1846,32.6387-106.8174,10.0223-44.7695,3.2644-80.1577,31.7114-103.4795,2.7395-2.2461,5.1869-3.873,6.8616-4.9146,3.6686-1.6235,9.5559-3.8701,17.061-5.0996,3.344-.5479,6.3317-.7827,9.5494-.7827M447.8949,351.3299c-3.3733,0-6.5175.2578-9.8949.811-6.0134.9849-11.9283,2.7529-17.5807,5.2544-.0911.04-.1792.0869-.2638.1396-2.4625,1.5312-4.8472,3.2393-7.088,5.0767-20.5939,16.8833-23.374,40.2266-26.5931,67.2559-1.4117,11.853-2.8715,24.1094-5.8489,37.4097-6.1888,27.645-16.0636,46.7241-23.998,62.0547-9.5049,18.3647-16.3723,31.6338-8.433,46.25,5.235,9.6372,15.1422,16.7202,29.4467,21.0532.1881.0566.3833.0874.58.0913,34.1309.6333,69.4143.9683,102.0358.9683,27.243,0,52.7136-.2319,75.7045-.6899,10.3066-.2051,29.4912-.5869,53.1927-7.1235,23.3744-6.4468,39.1078-15.9639,67.6699-33.2412,11.5649-6.9956,23.1483-14.4238,34.3502-21.6074,25.877-16.5947,50.3187-32.269,73.6959-42.4258,4.0123-1.7427,7.7501-3.2163,8.4586-3.4937,1.1338-.4434,28.0546-10.8862,52.9834-13.9624,5.4651-.6748,10.5787-1.0049,10.6298-1.0083,3.4476-.2212,6.3962-.3057,8.5491-.3677,1.7766-.0508,3.1351-.0752,4.3761-.0972,1.9397-.0347,3.615-.0645,6.1399-.1821,7.2167-.3374,8.8214-.769,10.2677-1.981,3.5487-2.9741,3.28-8.1904,3.1788-10.1538l-.0062-.1221c-.3772-7.502,1.0593-14.2529,2.5802-21.4004,2.4794-11.6519,5.043-23.7002.1147-40.2085-3.0151-10.1006-7.3721-16.8364-12.9496-20.0215-3.5483-2.0269-7.6287-3.0547-12.1276-3.0547-.4926,0-.9963.0127-1.4985.0381-14.6132-.0845-29.5011-.209-44.2498-.3711-74.2443-.813-111.5105-1.2207-136.5809-2.5928-27.7316-1.5171-81.3031-7.0811-188.0319-18.1655-3.8612-.4014-7.7831-.7173-11.5759-1.0234-3.1744-.2559-6.4572-.5205-9.6721-.8325-3.1721-.3081-6.0129-.5977-8.5887-.8604-8.3589-.8525-13.8812-1.416-18.9723-1.416h0Z"/>
    </g>
    <path class="cls-13" d="M876.787,396.3112c.6474,5.8138-109.5583,60.5655-228.5331,28.9297-58.6952-15.6073-141.8806-58.1846-180.0992-31.5259-12.2607,8.5522-22.958,20.7698-22.9582,20.77-15.2843,17.4564-21.8871,34.1998-29.3158,53.0378-.0001.0004-34.3106,87.0054-33.9075,87.1601.4338.1664,10.0458-130.3826,85.2888-172.2626,48.5145-27.003,81.4029,6.7403,206.81,18.6879,121.9727,11.6203,202.1696-9.6957,202.7151-4.797Z"/>
    <path class="cls-7" d="M845.5868,412.8979c1.3889,4.2398-42.4232,25.0724-91.2399,37.8311-14.1266,3.6922-25.1595,5.79-30.0424,6.676-85.1972,15.4578-130.4518-5.6079-153.55,21.141-8.8226,10.217-2.6055,13.7366-11.6244,30.0424-29.4632,53.2679-125.3947,69.1904-145.2636,42.2819-4.4233-5.9904-3.6907-15.1205-2.2253-33.3805,2.5411-31.6663,14.2725-55.0176,21.141-66.7608,10.9434-18.7104,28.1694-48.1628,44.5073-45.6199,18.8382,2.9319,17.3069,45.4145,41.1691,52.2959,14.2213,4.1012,26.5337-7.5942,40.6716-15.9904,47.0146-27.9212,82.4807-.5122,167.3998-5.1505,72.3178-3.95,117.6347-27.7079,119.0569-23.3662Z"/>
    <path class="cls-18" d="M500.638,525.5126c.6367,2.4592-16.0638,20.7996-37.088,20.7585-20.9764-.0409-37.7112-18.3631-37.0879-20.7585.543-2.0865,14.0055,8.8702,35.4273,9.3616,23.2066.5323,38.1637-11.6208,38.7486-9.3616Z"/>
    <ellipse class="cls-13" cx="616.536" cy="557.7536" rx="4.868" ry="5.9807"/>
    <ellipse class="cls-13" cx="608.0279" cy="566.3182" rx="2.4796" ry="2.7013"/>
    <path class="cls-7" d="M670.4053,249.363c1.2204-7.3056,4.8862-29.2493,20.3149-36.7677,8.8242-4.3,12.7988.3568,42.2709,4.8363,26.6362,4.0485,36.9387,2.3039,38.6197,7.5616,1.7982,5.6243-7.1754,16.4287-17.6294,18.2755-15.6411,2.7632-22.2669-16.7041-38.2388-14.6685-11.5661,1.4741-21.4626,13.3869-30.9488,24.8057-7.0386,8.4726-10.5323,15.2486-13.1552,14.3674-3.1192-1.048-2.3014-12.0159-1.2332-18.4103Z"/>
    <path class="cls-8" d="M525.1346,840.3065c.0313.2253.0677.6976-.1854,1.1127-.8349,1.3686-4.0342.8281-4.6362.7418-3.1819-.4563-15.9679,1.983-41.54,6.8616-19.6414,3.7471-26.698,6.6802-30.2278,2.5962-1.7652-2.0423-2.0252-5.1034-2.4109-9.6432-.4875-5.7394.4447-10.4789,1.2981-13.5376,2.5432-40.9993,6.6988-73.3093,10.1997-95.8761,3.0157-19.4396,4.5235-29.1594,7.2323-39.5001,5.5014-21.0012,13.8809-42.3351,14.2795-53.5942.0108-.3043.1598-4.5867,1.8544-9.8287,1.1004-3.4039,1.9849-6.0239,4.4508-7.9742,3.2918-2.6036,7.3507-2.3914,8.9015-2.2253,24.2318-1.4836,48.4634-2.9672,72.6952-4.4508,4.0324-.7699,10.6899-2.0544,18.9156-3.7089,28.1774-5.6674,33.6791-7.4134,35.6058-4.8217,3.4292,4.6128-8.5521,17.4693-21.6974,35.7913-.0002.0004-6.339,8.8354-32.824,56.1905-10.257,18.3396-28.4038,58.3923-41.911,141.8668Z"/>
    <path class="cls-19" d="M312.6125,502.6077c1.6293,8.4294-12.9482,21.6972-27.817,21.6972-17.4472,0-29.863-18.5135-27.817-21.6972,2.0641-3.2118,24.0785,10.818,30.4133,3.8943,3.0067-3.2862.4872-9.0834,4.8216-12.2395,2.9424-2.1425,6.7969-1.4321,8.5305-1.1127,5.1947.9573,10.9868,4.8955,11.8686,9.4578Z"/>
    <path class="cls-12" d="M144.9685,575.8593c7.7467-20.3787,245.7709,54.8391,277.7067,49.1434,2.1341-.3806,14.0198-3.0257,21.1409,3.3381,2.117,1.8918,3.2357,4.0641,3.8016,5.3779-.8687,1.708-2.4105,4.8003-4.1725,8.716-41.6141,92.4846,3.4471,179.0004-27.0752,197.6864-4.3083,2.6376-4.8614.7029-31.1551-.3709-51.0113-2.0832-61.6409,4.6794-93.0943,3.709-52.2771-1.6128-43.8604-20.9403-106.4465-26.7044-26.8247-2.4705-52.4898-13.4566-79.3712-15.2067-3.1385-.2043-14.6759-.7209-19.2865-8.1597-.7872-1.2701-1.1872-2.4429-1.3908-3.1526.1695-.9957.4556-2.6588.8235-4.7065,7.9416-44.2062,16.9606-94.41,42.8493-141.6111,9.8509-17.9604,25.2632-41.2971,17.1538-62.8665-1.1784-3.1343-1.9783-3.891-1.4836-5.1926Z"/>
    <path class="cls-2" d="M265.6017,677.2987c-7.3854,20.676-14.521,45.2529-19.6214,73.297-7.0059,38.5216-8.2034,72.7628-7.1973,100.3866"/>
    <ellipse class="cls-18" cx="479.6074" cy="828.9942" rx="17.2466" ry="8.3451"/>
    <path class="cls-16" d="M512.7023,772.7509c-3.0258,18.7704-9.0924,39.1037-10.8311,39.2394-2.7098.2113,14.9442-49.393,6.0695-102.3841-8.0038-47.7914-32.6593-68.9228-21.3811-80.7519,8.2668-8.6706,23.521.4589,65.6929-1.9276,38.3628-2.171,64.2737-12.3337,64.3497-10.4988.0901,2.1734-36.1003,20.3438-77.928,23.5385-25.6998,1.963-38.7343-2.8577-44.4454,4.0997-6.8339,8.3252,8.5661,19.2028,17.2365,49.072,9.0467,31.1655,4.2877,60.687,1.2368,79.6128Z"/>
    <path class="cls-16" d="M161.2181,731.3321c-5.1705,17.5199-13.222,35.4847-14.768,34.9872-2.4094-.7755,19.7408-43.564,19.0335-99.3566-.6379-50.318-19.475-80.2432-7.9819-87.8773,11.282-7.4939,34.0271,9.3131,57.9823,21.9699,92.7752,49.0182,192.5475,22.6438,192.5408,24.3182-.0073,1.8596-123.0543,32.0353-206.2169-16.3192-8.1575-4.7431-31.16-18.9387-39.6028-12.0909-7.119,5.774,4.9575,22.1629,8.5793,54.9447,3.779,34.2045-4.353,61.7592-9.5664,79.4241Z"/>
    <path class="cls-15" d="M410.1966,783.8529c2.6663,3.0238,11.4061,40.402,2.2159,44.0194-9.1672,3.6085-28.0233-29.586-28.1486-33.916-.0975-3.3769,11.2183,11.4617,18.79,7.6404,6.9487-3.507,5.2084-19.9376,7.1427-17.7438Z"/>
    <path class="cls-8" d="M402.0072,875.0659c2.4424-2.5454,7.0269-1.7445,8.9849-1.4716,2.8094.3916.3875-.2794,28.9297-4.4508,31.5949-4.6176,75.5484-11.0414,77.0052-5.3982.7206,2.791-9.3747,6.9883-8.1597,11.4609.6533,2.4048,4.0359,3.2128,5.378,3.7576,12.3275,5.0029,5.6687,49.9389,7.9742,77.4072,3.6237,43.1732,32.7555,56.3681,23.7371,70.8311-8.1602,13.0867-36.9901,11.3744-79.6016,8.8436-14.0579-.8349-28.6567-2.6568-48.9116.1393-14.7612,2.0377-21.7897,3.0135-21.79,3.0135-25.7307,3.572-29.0512,4.0435-29.8569,2.5034-3.0913-5.9082,41.3706-21.2722,51.6006-57.9521,5.1817-18.5792,1.323-41.7036-8.9015-45.9908-6.8022-2.8523-12.8648,4.1244-16.7365.8345-7.5603-6.4242,13.3988-34.858,9.3187-54.2432-.3321-1.5778-1.5638-6.582,1.0292-9.2842Z"/>
  </g>
  <path class="cls-18" d="M1202.5421,1120.8624l-12.8314.2892c4.326-12.4253,8.4341-26.4145,11.7816-41.8546,2.0323-9.3819,3.5812-18.3528,4.7538-26.8305,3.3475.0277,6.695.0565,10.0425.0842-.8636,4.7509-1.747,9.5196-2.6542,14.3051-3.4822,18.3577-7.1902,36.3609-11.0923,54.0066Z"/>
  <path class="cls-18" d="M858.9586,1122.0984c-2.888.1476-5.7719.2951-8.6599.4427-4.7697-13.8416-9.2185-29.4084-12.7126-46.5797-1.6322-8.0162-2.9276-15.755-3.9496-23.175,4.7182-.0248,9.4403-.0495,14.1585-.0743.8082,6.6415,1.6995,13.3741,2.682,20.1939,2.4601,17.0554,5.3203,33.4611,8.4816,49.1923Z"/>
</svg>