<?xml version="1.0" encoding="UTF-8"?>
<svg id="Layer_1" xmlns="http://www.w3.org/2000/svg" version="1.1" viewBox="0 0 3361.0998 2620.7177">
  <!-- Generator: Adobe Illustrator 29.4.0, SVG Export Plug-In . SVG Version: 2.1.0 Build 152)  -->
  <g>
    <path d="M56.0219,2244.9683c-9.8702-54.0558-167.9522-1011.2522,535.935-1631.3411C1098.9046,167.0403,1708.9806,198.3107,1826.0009,206.6662c124.906,8.9197,771.1699,69.061,1163.3278,583.8812,193.664,254.2312,253.6056,525.0593,288.5729,683.0424,69.9523,316.0213,51.731,585.0052,27.029,755.3459-55.5684,2.2524-111.4705,4.3116-167.7151,6.1667-83.1155,2.742-165.5461,4.9944-247.2567,6.7814" style="fill: #ddedf8; stroke: #93b6d3; stroke-linecap: round; stroke-linejoin: round; stroke-width: 17.4706px;"/>
    <path d="M1252.9093,266.2122c93.048,43.1652,278.888,113.822,519.0248,100.4277,173.1114-9.6558,308.8647-59.3336,393.1958-98.2183" style="fill: none; stroke: #93b6d3; stroke-linecap: round; stroke-linejoin: round; stroke-width: 17.4706px;"/>
    <path d="M579.3673,624.5132c294.8063,59.0801,678.6742,107.8155,1126.646,92.7529,412.1051-13.8566,764.8774-77.8852,1040.8349-147.9859" style="fill: none; stroke: #93b6d3; stroke-linecap: round; stroke-linejoin: round; stroke-width: 17.4706px;"/>
    <path d="M213.8755,1111.2306c82.0445,36.5012,178.5072,71.9346,288.5185,99.3222,254.5275,63.3653,478.1547,57.9151,636.3397,39.4629" style="fill: none; stroke: #93b6d3; stroke-linecap: round; stroke-linejoin: round; stroke-width: 17.4706px;"/>
    <path d="M2457.0423,1172.3231c68.264,5.0349,173.7762,4.618,295.9721-29.9343,112.5827-31.8339,197.2273-80.7392,251.5761-118.0519" style="fill: none; stroke: #93b6d3; stroke-linecap: round; stroke-linejoin: round; stroke-width: 17.4706px;"/>
    <path d="M58.4903,1678.5105c103.7833,49.135,257.2261,107.6043,450.6189,133.8521,221.4338,30.0537,406.0467,5.7584,526.0344-19.7315" style="fill: none; stroke: #93b6d3; stroke-linecap: round; stroke-linejoin: round; stroke-width: 17.4706px;"/>
    <path d="M1282.1981,284.6506c-18.8792,36.3826-41.1301,88.6283-54.2616,154.4278-12.2925,61.5955-12.5975,115.0443-9.8659,154.4278" style="fill: none; stroke: #93b6d3; stroke-linecap: round; stroke-linejoin: round; stroke-width: 17.4706px;"/>
    <path d="M2083.3778,314.6861c44.7631,43.8373,94.2588,98.4254,143.0531,164.8671,42.9866,58.5333,76.8927,114.6426,103.5902,164.8671" style="fill: none; stroke: #93b6d3; stroke-linecap: round; stroke-linejoin: round; stroke-width: 17.4706px;"/>
    <path d="M2571.7315,604.1941c44.7631,43.8373,94.2588,98.4254,143.0531,164.8671,42.9866,58.5333,76.8927,114.6426,103.5902,164.8671" style="fill: none; stroke: #93b6d3; stroke-linecap: round; stroke-linejoin: round; stroke-width: 17.4706px;"/>
    <path d="M671.5104,962.5466c-12.4758,38.748-22.6503,75.5881-30.9961,109.8859" style="fill: none; stroke: #93b6d3; stroke-linecap: round; stroke-linejoin: round; stroke-width: 17.4706px;"/>
    <path d="M805.3937,663.2064c-33.4351,56.7077-69.0635,126.1218-101.4169,208.4072-12.2752,31.2197-23.0291,61.6222-32.4664,90.933" style="fill: none; stroke: #93b6d3; stroke-linecap: round; stroke-linejoin: round; stroke-width: 17.4706px;"/>
    <path d="M1868.4637,710.9734c8.9368,27.0424,17.8667,63.561,19.9599,107.2978,3.103,64.8337-10.1628,117.3982-21.5042,150.5712" style="fill: none; stroke: #93b6d3; stroke-linecap: round; stroke-linejoin: round; stroke-width: 17.4706px;"/>
    <path d="M945.3115,1261.127c-25.6788,81.9405-50.0711,179.7862-65.8569,291.1965-13.907,98.1495-18.3728,187.3362-17.9348,264.7182" style="fill: none; stroke: #93b6d3; stroke-linecap: round; stroke-linejoin: round; stroke-width: 17.4706px;"/>
    <path d="M475.2963,1810.9163c-10.4962,62.7518-18.48,137.3755-18.8729,221.7548-.3462,74.3359,5.2677,141.4816,13.2675,199.5278" style="fill: none; stroke: #93b6d3; stroke-linecap: round; stroke-linejoin: round; stroke-width: 17.9339px;"/>
    <line x1="2139.2835" y1="1106.6255" x2="2178.7465" y2="1471.5836" style="fill: none; stroke: #93b6d3; stroke-linecap: round; stroke-linejoin: round; stroke-width: 17.4706px;"/>
    <line x1="2725.6077" y1="1434.9658" x2="2471.044" y2="1634.7792" style="fill: none; stroke: #93b6d3; stroke-linecap: round; stroke-linejoin: round; stroke-width: 18.9259px;"/>
    <line x1="1409.2193" y1="1950.0716" x2="1697.792" y2="1974.736" style="fill: none; stroke: #93b6d3; stroke-linecap: round; stroke-linejoin: round; stroke-width: 17.4706px;"/>
    <path d="M1291.2958,1265.7938c84.8864,48.7119,169.773,97.4242,254.6593,146.1361" style="fill: none; stroke: #93b6d3; stroke-linecap: round; stroke-linejoin: round; stroke-width: 17.4706px;"/>
    <path d="M2063.2894,1119.0411c-58.1358-47.3258-116.2718-94.6516-174.4076-141.9774" style="fill: none; stroke: #93b6d3; stroke-linecap: round; stroke-linejoin: round; stroke-width: 18.3926px;"/>
    <path d="M1762.6494,2412.5515c-106.574,1.7733-213.1482,3.5471-319.7222,5.3204-98.9405-58.6461-197.8812-117.2926-296.8217-175.9387-36.4205-79.78-112.306-275.4467-72.3214-522.8841,7.7191-47.7688,64.7601-358.5491,347.7673-575.5012,53.9865-41.3858,212.9496-159.9116,445.3679-174.7055,184.9059-11.7695,325.8325,47.8757,412.9507,85.914,145.5392,63.5469,247.6776,147.5343,309.1265,206.3707" style="fill: none; stroke: #93b6d3; stroke-linecap: round; stroke-linejoin: round; stroke-width: 17.4706px;"/>
    <path d="M1445.2424,2405.6972c-33.3836-111.4455-75.4417-304.5216-43.1625-539.5323,22.9102-166.7982,54.3634-395.7957,246.3833-567.1946,200.5385-179.0025,446.3607-179.2942,506.4409-178.4424,45.6212.6467,258.6452,4.7443,434.0924,140.5992,159.7376,123.6903,210.4038,296.4207,253.6898,443.9902,8.0433,27.421,27.88,98.8818,39.4629,197.3147,23.5948,200.5137-3.968,369.2734-33.3551,484.1983-96.8566-.2591-193.7132-.5182-290.5698-.7773" style="fill: none; stroke: #93b6d3; stroke-linecap: round; stroke-linejoin: round; stroke-width: 17.4706px;"/>
    <path d="M1763.0605,2411.0101c-19.8786-60.9557-31.4613-113.9897-38.5382-154.4603-23.9256-136.8239-15.9436-242.1045-13.257-272.2326,2.1697-24.3316,7.3792-72.4709,21.0566-132.0807,34.556-150.6035,86.2678-213.0755,105.002-234.3219,2.3179-2.6287,4.3309-4.8035,5.9877-6.5664,130.2007-138.5482,314.8427-130.3972,323.1027-129.899,122.3782,7.3827,204.9704,70.197,235.5202,94.0983,80.532,63.006,117.761,136.5739,138.1443,177.9767,123.9441,251.7581,34.6632,566.0957,14.3876,633.106" style="fill: none; stroke: #93b6d3; stroke-linecap: round; stroke-linejoin: round; stroke-width: 17.4706px;"/>
    <path d="M56.0238,2244.9679c157.0776,1.6848,318.5108.9448,484.0714-2.6311,207.0241-4.4716,407.5168-13.0976,601.0776-25.0681" style="fill: none; stroke: #93b6d3; stroke-linecap: round; stroke-linejoin: round; stroke-width: 17.4706px;"/>
    <path d="M757.1883,1310.9793c.4523,16.2131-195.1957,10.1741-210.3831,68.3866-17.9517,68.8081,208.5862,124.6821,254.0071,314.7302,10.0413,42.0147,7.3941,74.5339,10.7736,74.4563,7.8698-.1807,50.2618-177.1769-32.4257-281.2132-67.7222-85.2074-187.0818-80.8809-183.8672-110.0985,2.9792-27.0789,107.6133-49.9742,182.6118-50.3859,26.0851-.1431,44.9386-.333,45.104-2.3843.6135-7.6082-258.4599-29.4736-258.0767-34.3785.3291-4.2107,191.8098,4.8852,192.2561,20.8874Z" style="fill: #ebf7fe;"/>
    <path d="M2051.2993,1116.4103c-21.1316,2.5757-49.9961,6.9164-83.7558,14.5931-34.7549,7.903-118.1126,27.4386-204.0973,75.4316-106.188,59.2693-175.7345,139.2517-216.4296,196.0815-80.7757-46.4511-161.5514-92.9024-242.3271-139.3535,43.3987-52.3529,126.9623-139.4516,258.9755-204.7139,131.1735-64.8472,250.349-78.5553,318.1697-81.3923,56.4881,46.4511,112.9764,92.9024,169.4645,139.3535Z" style="fill: #a7cada;"/>
    <path d="M1352.7511,1255.9282c-2.2433-2.4144,80.7592-110.1947,228.5561-190.7376,119.4088-65.0728,264.2173-103.1596,315.5201-57.6456,11.54,10.2377,28.6856,33.876,67.5994,60.9341,20.6949,14.39,41.5079,25.5483,39.4627,31.2416-1.9386,5.3967-23.1413,2.3382-27.9528,1.6443-58.7663-8.4767-99.966-53.2265-129.8987-70.7045-66.2417-38.6797-160.7596,7.4709-253.2206,52.6173-153.9074,75.1492-237.8624,175.0225-240.0662,172.6504Z" style="fill: #ddedf8;"/>
    <ellipse cx="1637.0414" cy="1219.8976" rx="38.2297" ry="18.4982" style="fill: #ddedf8;"/>
    <path d="M1901.4039,976.0907c55.0923,46.3826,110.1846,92.7654,165.2768,139.148,51.6427-4.5308,117.1991-5.4868,191.9018,5.1794,97.6622,13.9443,176.3714,42.8144,231.9475,68.3408-65.0165-54.6815-179.9563-136.2708-342.9368-180.9744-95.7412-26.2606-181.0069-32.3719-246.1893-31.6937Z" style="fill: #a7cada;"/>
    <path d="M1292.9401,1273.6041l243.3547,143.0534c-36.4565,61.218-59.421,115.5809-73.9928,155.7962-23.1496,63.8884-33.5358,115.308-46.8624,181.2828-6.6418,32.8813-16.3232,81.4011-23.4311,145.5195-3.4381,31.0139-11.4,105.1059-8.6324,192.3819,2.3328,73.5623,13.1014,182.1404,53.2337,312.2092-93.9986-54.9465-187.9969-109.8934-281.9955-164.8399-34.3865-74.7336-102.711-249.9105-77.0761-476.638,29.166-257.9593,162.4503-427.7891,215.4019-488.765Z" style="fill: #a7cada;"/>
    <line x1="1076.7161" y1="1792.5829" x2="1256.7657" y2="1881.3745" style="fill: none; stroke: #93b6d3; stroke-linecap: round; stroke-linejoin: round; stroke-width: 17.4706px;"/>
    <path d="M2179.856,1076.9796c23.7046,3.8532,46.2818,9.8752,91.436,21.919,91.8756,24.5057,132.1708,40.4208,133.1875,37.8187,1.5595-3.9915-90.7647-47.8088-202.505-86.0465-32.9027-11.2593-206.9135-70.8064-215.9665-50.4295-4.7886,10.7784,35.9014,45.4373,81.3923,61.6608,36.2285,12.9201,49.3421,4.8184,112.4558,15.0775Z" style="fill: #ddedf8;"/>
    <path d="M1167.4661,2234.1016c-3.8161,1.3212-36.2176-65.8976-57.4632-150.9353-18.1085-72.481-42.0672-211.4605-5.3337-227.0728,23.4375-9.9613,45.3141,41.4567,129.0766,82.2144,76.2206,37.088,143.4132,36.0211,143.0531,38.2297-.3692,2.2635-71.1679,4.6721-152.9187-25.8975-67.8761-25.3814-91.895-54.2739-109.3454-42.7515-12.2824,8.1099-13.6561,31.4674,13.7566,157.9371,23.3887,107.9045,42.671,167.0656,39.1748,168.2759Z" style="fill: #ddedf8;"/>
    <path d="M1401.5354,2344.242c-5.3094,1.8172-43.844-63.095-51.9909-146.5214-7.2549-74.291,12.0021-138.5373,17.2953-138.057,4.7059.4269-3.1188,51.8801,6.1025,135.4721,10.3577,93.8926,33.3028,147.4944,28.593,149.1063Z" style="fill: #ddedf8;"/>
    <path d="M1163.658,1752.5035c-3.1694.1997-24.4937-81.9068-3.2885-179.2278,4.0696-18.6779,18.0597-53.5589,46.04-123.3214,42.5387-106.0608,52.0181-118.5805,67.4157-123.3219,25.9932-8.0041,40.4104,14.917,121.6774,55.9059,64.5337,32.5492,112.6741,46.9613,111.8118,49.3285-.8013,2.1996-41.7899-11.8247-115.1003-31.2413-56.84-15.0543-85.528-22.5247-98.6574-19.7315-72.151,15.3492-104.4813,131.2836-115.1003,169.3619-31.28,112.1674-11.4867,202.0388-14.7984,202.2475Z" style="fill: #ddedf8;"/>
    <path d="M2163.672,1148.6539c7.6477,108.8229,15.2953,217.6455,22.943,326.4683,17.497,1.7888,41.7251,5.4404,69.6769,13.5655,66.4992,19.33,111.3412,51.5577,136.3731,69.8824,20.684,15.1418,47.3385,37.0869,75.0208,67.4157,45.6295-36.5628,91.9422-73.2248,138.9424-109.9617,39.6386-30.983,79.1061-61.5033,118.3888-91.5666-33.8736-47.3876-64.252-75.8957-85.0922-92.7995-14.8512-12.0462-23.0707-16.7495-53.4587-41.0126-5.7947-4.6268-24.3436-19.4689-43.1188-31.6095-2.7754-1.7946-8.289-5.2996-14.3167-9.0493-10.5382-6.5555-15.8711-9.8731-22.6862-13.7355-12.0596-6.8351-21.7207-11.387-30.6717-15.6045-3.4695-1.6349-10.6576-4.9811-20.4883-9.1896-6.8402-2.9281-26.4205-11.2699-48.5789-18.7699-11.7127-3.9643-26.2933-8.4506-73.9248-19.3791-45.7732-10.5019-68.6599-15.753-87.6164-18.4881-19.663-2.8369-47.4486-5.8469-81.3923-6.166Z" style="fill: #cce9f4;"/>
    <path d="M2269.4468,1335.8754c-13.5862,5.669-103.5115-108.9859-73.3011-148.1187,36.8411-47.7217,243.4155,28.426,253.2731,32.0596,4.7149,1.738,9.3559,3.5379,9.3566,3.5381,18.6671,7.2277,60.9333,24.8542,107.6254,55.208,48.1976,31.3327,62.9191,51.2071,71.3355,67.8233,16.5225,32.6196,16.9629,68.9028,12.2764,70.0861-4.1496,1.0479-11.3235-25.6746-26.6208-51.94-30.0005-51.511-77.3885-77.4702-112.8575-96.3576-67.7547-36.0795-207.1906-87.4427-246.337-42.2686-29.8391,34.4336,15.706,105.6067,5.2494,109.9697Z" style="fill: #fff;"/>
    <ellipse cx="2494.0071" cy="1524.1363" rx="23.02" ry="36.9965" style="fill: #ebf7fe;"/>
    <g>
      <path d="M1653.7208,1954.3955c-13.0513,0-25.7423-1.8577-37.7207-5.522-18.63-5.6992-27.4714-13.1633-35.272-19.7493-7.603-6.4187-13.6083-11.4888-26.8185-13.0537-2.2775-.2698-4.5676-.4067-6.8068-.4067-12.106,0-22.2371,3.8647-33.968,8.3394-14.9459,5.7014-31.8861,12.1633-57.3765,12.1638-2.196,0-4.4536-.0491-6.71-.146-4.7764-.2053-9.5852-.6228-14.2932-1.2412-1.0981-.1443-1.927-1.0676-1.952-2.175-.8234-36.3372.682-73.1545,4.4742-109.4296,4.9016-46.8864,13.7068-93.6121,26.171-138.8794,23.1888-84.2167,58.8595-163.6747,106.0214-236.1667.3473-.5337.9049-.8949,1.5341-.9937.1158-.0181.2321-.0271.3478-.0271.5126,0,1.0137.1757,1.4167.5034l221.3278,180.0496c.8682.7063,1.0835,1.9441.505,2.9021-28.884,47.8295-52.4167,98.9763-69.9445,152.0197-17.7399,53.6849-29.3782,109.4563-34.5916,165.7649-.0895.9661-.7896,1.7654-1.7355,1.9817-11.8094,2.698-23.4536,4.0659-34.6089,4.0659Z" style="fill: #cce9f4;"/>
      <path d="M1571.3519,1449.3533l221.3276,180.0498c-23.1587,38.3486-49.3213,89.4287-70.1543,152.4756-21.1206,63.915-30.5288,121.2603-34.6953,166.2622-9.2056,2.103-20.9146,4.0098-34.1094,4.0098-11.4531,0-24.0244-1.4351-37.064-5.4238-36.5522-11.1816-34.8545-29.6128-62.4829-32.8857-2.4346-.2886-4.7886-.4219-7.0708-.4224-28.3008-.0024-46.374,20.5034-91.3442,20.5034-2.1431,0-4.3447-.0464-6.6138-.144-6.0396-.2598-10.9634-.8125-14.0972-1.2241-.6782-29.9268.0513-66.9502,4.4624-109.1455,4.375-41.8501,12.3569-88.5957,26.103-138.5166,28.8867-104.9126,72.292-184.1279,105.7388-235.5386M1571.3519,1444.8631c-.2314,0-.4639.0181-.6958.0547-1.2578.1973-2.373.9194-3.0679,1.9868-47.2886,72.687-83.0542,152.3564-106.3042,236.7954-12.4971,45.3853-21.3252,92.2329-26.2397,139.2417-3.8018,36.3691-5.311,73.2822-4.4854,109.7139.0503,2.2148,1.708,4.0615,3.9043,4.3501,4.7695.6265,9.644,1.0498,14.4888,1.2583,2.2871.0981,4.5771.1479,6.8066.1479,25.9028,0,43.0479-6.5405,58.1748-12.311,11.5239-4.3965,21.4766-8.1929,33.1689-8.1919,2.1533,0,4.3545.1313,6.543.3911,12.541,1.4854,18.3193,6.3638,25.6343,12.5396,7.5713,6.3921,16.9937,14.3472,36.0635,20.1807,12.1914,3.7295,25.1035,5.6206,38.3774,5.6206,11.3228,0,23.1353-1.3872,35.1094-4.123,1.8921-.4321,3.292-2.0308,3.4707-3.9629,5.1978-56.1401,16.8013-111.7441,34.4878-165.2676,17.4746-52.8833,40.9365-103.8765,69.7344-151.563,1.1572-1.916.7266-4.3921-1.0098-5.8042l-152.7896-124.2939-68.5381-55.7559c-.8062-.6558-1.8086-1.0073-2.8335-1.0073h0Z" style="fill: #cce5f1;"/>
    </g>
    <path d="M1800.4897,1631.8693c.9935-2.3806,1.8165-8.7068-36.791-43.1625-25.1375-22.4343-39.2249-32.6236-70.9098-56.728-30.7266-23.3754-33.27-27.4434-65.3604-51.1783-32.61-24.1191-49.0713-36.1661-56.728-35.5578-52.1519,4.1445-92.197,194.8926-59.1944,210.4688,27.9947,13.2128,81.2417-112.2106,164.9143-104.4389,47.9607,4.4546,94.2033,51.5827,88.306,67.4427-3.7463,10.0749-28.8269,7.9036-28.7749,11.5099.0792,5.5115,58.6959,15.6411,64.5383,1.6443Z" style="fill: #ddedf8;"/>
    <ellipse cx="1707.8957" cy="1652.5257" rx="6.4744" ry="10.7906" style="fill: #ddedf8;"/>
    <g>
      <path d="M1453.7498,2411.657c-1.0013,0-1.8844-.6646-2.1591-1.6313-20.6954-72.8535-35.6559-147.9329-44.4659-223.1531-8.8693-75.7268-11.6398-152.7458-8.2346-228.918.0273-.6106.3025-1.1836.762-1.5869.4111-.3608.9381-.5576,1.4808-.5576.0637,0,.1276.0027.1915.0081l297.6163,25.4868c.5935.0508,1.1426.3354,1.5261.7913s.5703,1.0454.5189,1.6389c-5.5577,64.3337-5.0056,129.4707,1.6407,193.6013,7.9218,76.436,24.5437,152.1489,49.4042,225.0359.2311.6775.1251,1.4248-.2852,2.0115-.4104.5867-1.0759.9424-1.7917.9575,0,0-296.188,6.3157-296.2041,6.3157Z" style="fill: #cce9f4;"/>
      <path d="M1401.1331,1958.055c99.2051,8.4956,198.4106,16.9912,297.6162,25.4868-4.6797,54.1714-6.0347,119.9331,1.644,194.0264,9.3594,90.3042,29.3989,166.5586,49.5127,225.5288-98.7188,2.105-197.437,4.2104-296.1558,6.3154-17.7646-62.5371-34.3965-137.4243-44.3955-222.8008-10.0747-86.0161-11.1416-163.2485-8.2217-228.5566M1401.1331,1953.5647c-1.0854,0-2.1392.394-2.9619,1.1157-.9185.8062-1.4688,1.9526-1.5234,3.1738-3.4111,76.291-.6362,153.4316,8.2476,229.2798,8.8232,75.3354,23.8071,150.5337,44.5361,223.5054.5493,1.9341,2.3154,3.2627,4.3179,3.2627.0322,0,.0645,0,.0967-.001l148.0781-3.1577,148.0776-3.1577c1.4316-.0303,2.7627-.7417,3.5835-1.915s1.0327-2.668.5703-4.0234c-24.8062-72.7266-41.3916-148.2734-49.2964-224.542-6.6313-63.9893-7.1821-128.9834-1.6367-193.1772.1025-1.1865-.271-2.3657-1.0381-3.2773s-1.8647-1.481-3.0518-1.5825l-182.4692-15.626-115.147-9.8608c-.1279-.0107-.2559-.0166-.3833-.0166h0Z" style="fill: #cce5f1;"/>
    </g>
    <path d="M1481.7031,2300.0674c-4.2082,40.2723-14.5169,82.6756-18.0872,82.2144-5.5643-.7192,25.4693-102.9138,1.439-224.2399-21.6724-109.4211-74.7939-167.0563-52.8197-188.3291,16.1068-15.5928,48.5461,11.3246,135.2396,24.5166,78.863,12.0004,131.1876.8331,131.543,4.9328.4209,4.856-72.2323,29.2649-158.1285,18.015-52.7765-6.9122-80.1729-23.3076-91.1958-10.3916-13.1899,15.4553,19.7392,46.3103,40.8473,116.305,22.0241,73.0323,15.4054,136.3713,11.1622,176.9768Z" style="fill: #f3fafe;"/>
    <path d="M1679.2234,2195.0385c-5.8402,77.0262,44.1374,134.5308,36.3799,138.7369-5.8776,3.1867-27.1629-22.1667-39.8988-44.9598-7.2707-13.0123-29.3849-52.5894-21.3757-99.4792,7.2214-42.278,35.6229-71.1273,22.2227-88.8448-4.7558-6.2881-12.0025-7.5056-13.1544-14.7984-1.9927-12.6167,15.4998-29.2766,23.0203-26.3088,4.2298,1.6693,5.8045,9.7624,1.4387,58.9889-4.1125,46.3695-7.4493,61.0597-8.6327,76.6653Z" style="fill: #f3fafe;"/>
    <path d="M2149.4902,1284.5134c10.8983,96.3384,21.7865,188.6815,21.7868,188.682-.0021-.0008-6.6696-.2178-18.0629.0632-.0008,0-23.8797.499-46.4215,3.0534-62.9375,7.1318-129.1043,34.3678-129.1051,34.3681-22.8958,9.4244-47.7149,19.6406-77.4357,40.0284-30.3803,20.8402-52.262,42.9653-66.8506,59.8622-14.4057-7.5205-25.6645-14.133-32.6289-18.3439-16.641-10.0621-102.9589-62.5272-134.4204-116.7446-.6811-1.1738-1.5603-2.7407-3.2885-4.5217-21.5695-22.2275-98.1764,1.7618-136.5531,50.7417-21.6927,27.6862-26.3885,57.2492-25.6922,57.5243.1066.0421,19.8194-99.1535,85.0922-188.2454,71.1844-97.1608,167.6347-142.8305,230.6114-172.6502,78.8819-37.3511,149.9093-70.9829,204.7139-62.8943,7.4397,1.098,53.1857,8.6625,82.6255-8.6324.0008-.0005.9959-.5851,28.3641-17.2651,5.7549,51.6582,11.5101,103.3161,17.2651,154.9743Z" style="fill: #ddedf8;"/>
    <line x1="1650.731" y1="1426.5645" x2="1829.5474" y2="1619.5629" style="fill: none; stroke: #93b6d3; stroke-linecap: round; stroke-linejoin: round; stroke-width: 19.9744px;"/>
    <path d="M2480.0177,1639.654c84.1327-65.9085,168.2657-131.8173,252.3985-197.7258,3.4138,6.1407,8.6604,15.7176,14.7987,27.542,18.5433,35.7202,90.8239,179.7839,119.9262,385.2874,1.6053,11.3353,8.7678,63.0278,12.1267,132.0569,3.5271,72.4853,1.0591,127.0775.5177,138.316-2.9566,61.3716-11.9783,148.2288-38.8463,252.8093-91.669-.2058-183.3382-.4111-275.0071-.6169,15.8863-55.5996,68.2011-251.8229,38.8463-437.1751-14.7467-93.1136-47.4787-168.3332-47.479-168.334-33.6907-101.0723,183.6333-134.9568,177.6821-155.7866-3.2595-11.4091-53.4979-13.8526-254.9638,23.6267Z" style="fill: #cce9f4;"/>
    <path d="M2536.3346,1697.6152c-12.7388-14.5825-25.0607-24.9103-24.2532-40.2851,1.3209-25.1465,36.6407-42.3932,73.3765-59.811,71.6928-33.9922,122.8287-42.1629,133.1872-66.5936,3.746-8.835-5.2711-20.0636,1.6443-34.5301.3567-.7462,6.9953-14.3505,13.9765-15.6208,25.3923-4.6204,60.5404,152.9824,116.8435,312.0138.0003.0008,6.0604,17.1185,18.498,121.2663,2.0039,16.7799,4.4956,40.1265-8.7313,50.9629-9.3228,7.6381-20.3395,1.9994-38.0242,3.083-40.4304,2.4773-71.472,13.0464-112.8392,27.1309-48.4198,16.4859-47.4603,21.8441-56.3169,19.1149-35.3931-10.9071-13.8856-85.1311-59.811-199.9866-25.0039-62.5328-37.506-93.7989-57.5501-116.7446Z" style="fill: #ddedf8;"/>
    <path d="M2559.6078,1692.1935c-3.6584,2.7772-36.7963-12.0747-34.9955-33.893,1.7963-21.7644,36.7611-31.1058,40.1572-27.5834,2.6485,2.7473-14.4219,12.7855-15.2581,31.4947-.7673,17.1706,12.7507,27.9669,10.0965,29.9817Z" style="fill: #fff;"/>
    <ellipse cx="2585.3511" cy="1644.1858" rx="4.7273" ry="9.2491" style="fill: #fff;"/>
    <path d="M2757.5448,1516.1308c-.7563.6779-11.2388-14.6859-19.2748-12.2235-7.9958,2.4499-8.1275,20.881-9.0688,20.7461-1.1388-.1631-2.9681-27.4322,6.3595-30.243,9.3247-2.8098,22.8944,20.9044,21.9841,21.7204Z" style="fill: #fff;"/>
    <path d="M2649.4785,2000.7911c5.724,9.173,105.2651-48.1215,111.9173-52.6736.9216-.6307,1.7944-1.2631,1.7952-1.2636,4.9168-3.6609,8.2189-6.8023,8.6942-7.2536,3.6737-3.4887,25.7071-17.4016,43.2553-11.7746,17.2,5.5153,18.4564,26.0723,28.9805,25.2809,7.489-.5633,15.4022-11.6162,13.5655-19.7315-3.2971-14.5665-39.2214-25.0258-67.8268-16.0319-17.8723,5.6195-19.2977,14.5598-30.0383,23.016-.0008.0005-4.3119,3.3437-11.6845,6.8642-24.1674,11.5403-108.9258.7707-109.7575,4.2389-.4548,1.8962,24.8927,5.0573,28.3639,17.8817,3.6684,13.5532-20.053,26.979-17.2648,31.4471Z" style="fill: #fff; stroke: #fff; stroke-miterlimit: 10; stroke-width: 2.9752px;"/>
    <path d="M2661.605,2067.7957c20.7439-13.9797,48.2052-27.5455,70.2935-17.8817,11.1822,4.8923,13.8153,12.6002,21.3757,17.2651,16.0599,9.9091,50.1112,3.4703,127.7407-62.9969,1.9762,51.9,1.1921,110.8006-4.8302,175.2197-7.0012,74.8883-19.6038,141.423-33.708,198.1368-72.1491-21.0476-125.3228-18.5225-161.14-11.9215-24.5683,4.5276-70.1567,16.3638-80.9815-.8221-2.9545-4.6907-2.4288-10.1215-1.6443-17.2648,2.938-26.7492,19.1871-45.6412,23.4313-50.9728,37.8309-47.5233-16.6114-119.1443,23.4311-202.2475,6.0274-12.509,12.4653-21.7143,16.0316-26.5143Z" style="fill: #ddedf8;"/>
    <path d="M2747.1079,2021.1338c14.136-8.2496,37.2653-19.4518,67.8271-24.664,28.3535-4.8358,52.2127-2.6583,67.8268,0" style="fill: none; stroke: #93b6d3; stroke-linecap: round; stroke-linejoin: round; stroke-width: 17.4706px;"/>
    <path d="M2879.5615,2004.7591c.3796.053.7819.1269.7827.1272.4575.0842.9554.1938.9557.1927h0s-5.6238,17.7129-5.9887,18.8347c-5.1085,15.708-45.7964,58.4229-100.7127,59.3999-51.4868.916-67.5624-35.4043-98.0408-24.0477-35.5599,13.2501-41.2898,72.9806-41.9293,72.7599-.7757-.2676,10.2847-87.2621,53.2337-98.2466,32.3125-8.264,47.1519,35.7433,85.5032,29.5971,36.4788-5.8461,105.0542-58.7764,106.1962-58.6173Z" style="fill: #fff;"/>
    <path d="M2669.1305,2356.5938c-1.824,4.2154-37.9853,7.5423-47.1263-12.3504-9.1185-19.8436,16.7586-45.1453,21.4464-43.7435,3.656,1.0935-6.2888,18.2184,2.1664,34.929,7.76,15.3363,24.8369,18.1067,23.5135,21.1649Z" style="fill: #fff;"/>
    <ellipse cx="2667.9934" cy="2302.1313" rx="4.7273" ry="9.2491" transform="translate(-786.4972 1606.0765) rotate(-29.3978)" style="fill: #fff;"/>
    <path d="M1788.6889,2396.0801c-11.9339-56.2468-25.5801-134.9914-32.131-229.9749-6.8934-100.0175-12.0305-174.5141,5.0756-261.2607,16.9568-85.9958,45.5752-232.7499,169.9456-317.0619,111.6901-75.7194,263.5724-76.0553,374.5073-24.6098,266.8654,123.7622,259.8667,530.1107,258.9798,582.0788-1.8002,104.4103-24.1399,190.213-44.3985,249.1095-243.99.573-487.9888,1.146-731.9787,1.719Z" style="fill: #74929d;"/>
    <path d="M1787.5024,2396.4598c-11.2146-52.8689-24.0439-126.8842-30.1993-216.1639-6.4816-94.0106-11.3092-164.033,4.7683-245.5689,14.8516-75.3194,42.1704-213.8645,159.7389-298.0206,107.8348-77.1887,262.5058-87.7998,377.4927-31.7887,241.298,117.5386,230.9529,491.0026,228.8798,565.8412-2.6212,94.6252-21.3827,172.3533-38.1466,225.7009h-702.5338Z" style="fill: #8eb3c1;"/>
    <path d="M2879.6761,1789.9026c.132-1.3534.5468-3.3928,2.0553-4.9328,4.9125-5.0152,17.123-.349,19.3204.4111,22.269,7.7026,90.399-14.2037,137.5655-24.4814,64.578-14.0717,96.8667-21.1073,127.9873-5.9378,44.9022,21.8876,49.4912,70.3974,66.5933,69.06,16.3579-1.2793,33.7235-47.3431,45.2205-213.3383,15.725,146.5136,15.6451,253.9324,13.3573,318.9838-4.076,115.8976-15.4659,105.9454-11.5099,177.5832,2.2569,40.87,13.6105,89.4739-10.6877,106.879-10.6877,7.6557-24.544,6.8175-34.5301,4.9328-114.5522,4.6588-229.1044,9.3175-343.6566,13.9763,6.4249-68.3426,9.8661-145.7645,7.2222-230.629-2.4275-77.9206-9.5806-149.1394-18.9376-212.5069Z" style="fill: #bfdce7;"/>
    <path d="M2865.145,1761.8255c37.3498.1386,89.2919-3.8811,147.9859-22.1981,81.8119-25.5317,139.4791-67.2126,172.6507-95.4725" style="fill: none; stroke: #93b6d3; stroke-linecap: round; stroke-linejoin: round; stroke-width: 17.4706px;"/>
    <path d="M2906.2704,1762.8378c13.7124,28.6942,31.987,74.2565,40.0278,132.693,3.7582,27.3125,4.2008,57.2207,4.9328,115.9224,1.4379,115.3269-2.8212,136.2161,15.7378,154.6763,32.2026,32.0318,97.9291,21.8521,97.7686,28.2708-.0661,2.6482-12.2387,4.3122-14.2082,4.5729-41.0734,5.4372-88.9104,11.6613-118.0177-11.7605-14.9554-12.034-12.0052-29.0711-3.4783-165.0718,2.3776-37.9224,3.5663-56.8834,3.6996-60.0165,1.9554-45.9864-1.2164-113.1735-26.4624-199.2866Z" style="fill: #fff;"/>
    <g>
      <path d="M540.6107,2221.3133c-21.3181.0002-36.1755-2.1072-49.0331-12.8799-20.706-17.3477-18.9535-45.3315-11.5775-163.1091.5492-8.7686,1.1298-18.0386,1.735-27.8435,4.6901-75.981,7.2738-117.835,24.378-137.7982,20.5423-23.9758,46.4286-28.3624,90.0087-28.3624,9.9175,0,20.9268.2242,32.5823.4614,14.1801.2887,30.2522.6158,47.9118.6158,26.311,0,51.1915-.7424,76.0634-2.2699,62.4628-3.8359,124.6883-12.5435,174.6874-19.54,38.119-5.3342,68.2277-9.5475,84.3099-9.5475,6.6852,0,13.6522.5863,14.6375,4.9344.8159,3.6005-3.0621,6.8835-7.9718,11.04-5.05,4.2753-11.335,9.5959-10.1404,13.9359.9156,3.3271,5.8922,5.0658,8.8656,6.1045.6597.2306,1.2479.4371,1.7261.6288,19.9822,8.0044,19.145,55.5461,18.2588,105.8794-.3998,22.7031-.8131,46.1794.8193,65.3762,4.4083,51.8406,24.368,82.3638,38.942,104.6509,12.9282,19.7705,22.2692,34.0549,13.4419,51.5256-9.1398,18.0884-29.0579,20.5818-49.2208,20.5818-13.5435,0-29.8074-1.3584-48.6393-2.9314-26.255-2.1931-58.9303-4.9226-96.9822-4.9226-43.4263,0-85.5121,3.491-128.6624,10.6726-43.9882,7.321-97.7887,9.0051-204.9738,12.3601-8.6299.2703-15.1608.4368-21.1664.437Z" style="fill: #cce9f4;"/>
      <path d="M1011.6766,1823.2849c7.5708,0,11.9414.9507,12.4478,3.1855,1.2231,5.3975-20.8066,15.1948-18.0869,25.0757,1.4478,5.2612,8.9463,7.0293,11.9209,8.2212,27.3262,10.9463,12.5659,109.2632,17.6763,169.3618,8.2852,97.4326,70.4536,119.6733,52.6172,154.9741-7.5947,15.0312-23.1367,19.3496-47.2173,19.3496-32.4883,0-80.5278-7.854-145.6221-7.8545-37.3149,0-80.229,2.5811-129.0303,10.7031-43.8452,7.2974-97.4683,8.9751-204.7139,12.332-7.7759.2432-14.748.4346-21.0571.4346-21.6514,0-35.5293-2.249-47.5918-12.3555-21.3242-17.8657-17.7178-48.5723-9.0435-189.0933,4.8184-78.0566,7.5596-117.4722,23.8418-136.4761,20.1851-23.5591,45.998-27.5781,88.3047-27.5781,21.9019,0,48.2422,1.0771,80.4961,1.0771,22.3823,0,47.5996-.5176,76.1982-2.2739,110.6147-6.793,222.2085-29.0825,258.8599-29.0835M1011.6785,1818.7952v4.4897l-.001-4.4897h-.0015c-16.2373.0005-46.4116,4.2227-84.6138,9.5684-49.9624,6.9917-112.1421,15.6924-174.521,19.5234-24.8252,1.5244-49.6602,2.2656-75.9229,2.2656-17.6367,0-33.6973-.3271-47.8672-.6157-11.668-.2373-22.689-.4619-32.6289-.4619-24.9766,0-40.519,1.4829-53.646,5.1177-15.6348,4.3286-27.731,11.9644-38.0684,24.0293-16.8818,19.7041-19.8374,56.8896-24.9136,139.1211-.605,9.8027-1.1855,19.0713-1.7349,27.8384-7.4331,118.6943-9.1997,146.8965,12.3765,164.9727,13.3804,11.2109,28.6396,13.4038,50.4746,13.4038,6.0317,0,12.583-.167,21.1982-.4365,107.3237-3.3594,161.1743-5.0449,205.3105-12.3906,43.0278-7.1611,84.9927-10.6421,128.293-10.6421,37.958,0,70.5815,2.7251,96.7949,4.9146,18.8823,1.5776,35.1899,2.9395,48.8271,2.9395,13.5781,0,23.5474-1.3745,31.375-4.3267,9.1558-3.4526,15.6484-9.1729,19.8496-17.4878,9.4121-18.627-.7285-34.1343-13.5664-53.7666-14.4434-22.0869-34.2241-52.3364-38.5845-103.6128-1.6226-19.082-1.21-42.499-.811-65.1455.4214-23.9355.8569-48.686-1.1733-67.8896-2.4634-23.2998-8.3403-36.0464-18.4961-40.1143-.5449-.2183-1.1646-.4351-1.8203-.6641-2.3896-.835-6.8379-2.3892-7.4409-4.5806-.814-2.9575,5.5962-8.3843,9.4263-11.627,5.2734-4.4644,9.8276-8.3203,8.7104-13.2495-1.3311-5.8735-8.873-6.6831-16.8247-6.6831h0Z" style="fill: #cce5f1;"/>
    </g>
    <path d="M621.8111,1868.7722c6.4223,3.7072-39.0309,12.7453-54.7988,46.9011-19.0593,41.2857,20.7123,85.7832,11.5455,84.7101-9.8275-1.1505-71.0061-54.103-58.2296-92.0499,12.7574-37.8898,93.6194-44.1006,101.4829-39.5613Z" style="fill: #ebf7fe;"/>
    <ellipse cx="677.3852" cy="1887.3093" rx="21.5813" ry="12.3322" style="fill: #ebf7fe;"/>
    <path d="M57.5911,1709.726c-9.9209,82.0704-13.7304,151.6582-15.1005,204.9298-.7038,27.3677-1.5107,58.7321-.1801,101.2252,2.7103,86.5584,4.8016,121.1803,8.9981,148.7744,2.8797,18.9347,5.9777,34.4583,8.2214,44.913,1.5258,10.5971,2.5062,17.4052,2.5064,17.4067h0c.001,0,12.1779.4476,19.3969.7019.0031,0,11.239,1.1145,25.4863.8223,18.4859-.379,142.075-1.6167,312.4114-3.3616,3.2359.8348,7.675,1.3764,11.5135-.7494,23.1051-12.7958-27.3221-93.5742-23.9308-192.9491,3.3659-98.6394,58.2322-170.9402,28.0417-195.9249-3.6859-3.0502-7.5239-4.4717-9.866-5.1645-48.5706-9.4966-121.4945-26.2211-199.6677-54.4537-32.9704-11.9073-125.9396-45.4834-143.9885-68.6365-1.4095-1.8082-8.3114-11.1843-14.7988-9.8655-4.7819.972-7.5191,7.3847-9.0435,12.3319Z" style="fill: #cce9f4;"/>
    <path d="M140.2009,2135.6897c-4.2082,40.2723-14.5169,82.6756-18.0872,82.2144-5.5643-.7192,25.4693-102.9138,1.439-224.2399-21.6724-109.4211-74.7939-167.0563-52.8197-188.3291,16.1068-15.5928,48.5461,11.3246,135.2396,24.5166,78.863,12.0004,131.1876.8331,131.543,4.9328.4209,4.856-72.2323,29.2649-158.1285,18.015-52.7765-6.9122-80.1729-23.3076-91.1958-10.3916-13.1899,15.4553,19.7392,46.3103,40.8473,116.305,22.0241,73.0323,15.4054,136.3713,11.1622,176.9768Z" style="fill: #f3fafe;"/>
    <ellipse cx="376.172" cy="2198.0799" rx="16.4429" ry="6.9882" style="fill: #ebf7fe;"/>
    <g>
      <path d="M1523.8818,1624.2776c-1.8129,0-3.4314-.4-4.8105-1.1888-12.8267-7.3367-1.7153-46.8547,7.084-66.3817,12.8909-28.6068,35.1018-49.517,40.5375-49.517.6494,0,1.2465.1959,1.7268.5664,2.741,2.1147.433,5.6577-8.1541,18.84-8.5355,13.1031-24.4235,37.4929-19.3085,43.0829.6881.7521,1.8469,1.1176,3.5426,1.1176,5.2072,0,13.4269-3.5244,20.6791-6.6339,6.6903-2.8687,12.4683-5.3461,16.1849-5.3461,2.3143,0,3.5247.9716,4.1324,1.7865,1.5049,2.0178,1.1243,5.1133-1.1976,9.7415-4.3042,8.5795-15.1233,21.923-26.9219,33.204-8.0968,7.7415-23.215,20.7288-33.4948,20.7288Z" style="fill: #cce9f4;"/>
      <path d="M1566.6927,1509.4348c.1504,0,.27.0332.3555.0991,3.1538,2.4336-37.4038,51.1074-27.7476,61.6606,1.1973,1.3081,2.9956,1.8472,5.1992,1.8472,10.3799,0,29.6914-11.98,36.8638-11.98,1.0728,0,1.8735.2681,2.333.8838,5.4824,7.3511-40.8857,60.0869-59.8149,60.0869-1.3901,0-2.6328-.2847-3.6958-.8926-10.2812-5.8809-2.0986-41.0649,8.0161-63.5107,13.252-29.4077,34.8872-48.1943,38.4907-48.1943M1566.6927,1504.9451c-5.3237,0-15.0386,10.1821-18.9683,14.5601-6.6572,7.416-16.1582,19.73-23.6162,36.2793-5.4941,12.1929-9.978,26.8042-11.9937,39.085-2.6709,16.2729-.7051,26.4229,5.8418,30.168,1.7231.9854,3.7168,1.4849,5.9253,1.4849,5.8008,0,16.5898-3.7041,35.0464-21.3511,11.9668-11.4419,22.9688-25.0332,27.3774-33.8198,1.7275-3.4438,3.7095-8.4438.9902-12.0898-.915-1.2271-2.687-2.6895-5.9321-2.6895-3.9756,0-9.0767,2.1006-17.0698,5.5278-6.7041,2.8745-15.0479,6.4517-19.7939,6.4517-1.209,0-1.7549-.2437-1.8867-.3882-.0205-.022-1.8921-2.5811,4.0088-14.5005,4.1445-8.3711,10.4541-18.0576,15.5244-25.8408,2.8335-4.3501,5.2808-8.1069,6.9512-11,1.6997-2.9443,4.5444-7.8716.6938-10.8428-.8779-.6768-1.9492-1.0342-3.0986-1.0342h0Z" style="fill: #cce5f1;"/>
    </g>
    <path d="M1159.8857,1960.8745c-11.9612,8.1753-5.5742,36.6532,5.0153,83.8696,5.8581,26.1198,17.0147,37.4898,19.4916,65.9712,1.715,19.7196-.5274,37.1304-2.0991,37.1841-1.6096.0548-1.6611-18.1222-8.3964-43.1814-4.6662-17.3611-10.1579-29.1605-12.5945-34.7848-14.7265-33.9937-38.1397-120.0918-16.984-133.2908,14.8122-9.2414,35.8153,27.3723,96.7494,42.1305,41.7044,10.1007,74.2945,3.9978,74.3676,5.9973.0793,2.1675-38.0849,13.0062-81.2421,3.0969-44.6127-10.2437-62.1334-35.3135-74.3077-26.9926Z" style="fill: #97bece;"/>
    <path d="M1360.445,1675.3963c27.976-134.671,134.6614-222.8552,142.887-217.0409,7.1835,5.0778-64.0342,79.5073-98.8426,217.0409-29.7293,117.4651-13.1227,202.8204-22.0222,203.4852-9.5961.7168-44.0623-97.3882-22.0222-203.4852Z" style="fill: #97bece;"/>
    <path d="M1551.3597,1536.2197c-1.5351-1.1842-17.9714,12.5309-27.8784,34.5161-7.2588,16.1084-13.1314,41.3586-5.7528,45.579,11.1479,6.3765,49.8026-36.8181,45.579-42.4814-3.0015-4.0247-26.3502,12.6604-31.861,6.6378-6.9301-7.5737,22.1767-42.5051,19.9133-44.2514Z" style="fill: #bfdce7;"/>
    <g>
      <path d="M1821.377,1594.1356c-.9424,0-1.874-.2426-2.7689-.7208-.1268-.0677-.2471-.147-.3595-.2365-18.8322-15.0033-45.8241-38.8339-67.4683-67.1608-12.7181-16.6451-19.9895-30.12-24.3137-45.0566-1.7075-5.8979-2.2377-9.6394-2.7054-12.9406-.3766-2.6569-.7018-4.9514-1.5688-7.9965-4.9487-17.3793-20.0642-32.5992-44.9266-45.2369-.5828-.2961-1.0172-.8201-1.2006-1.4475-2.9425-10.0719-2.5635-18.1333,1.1267-23.9603,5.4037-8.5322,15.9773-9.6265,24.5852-9.6265,6.6923,0,14.3097.7802,22.3745,1.606,9.4706.9698,19.2635,1.9727,29.335,1.9725,21.994-.0006,38.2841-5.0438,51.2654-15.8716,5.5719-4.647,9.1837-8.168,12.3085-13.4579,5.4208-9.1765,6.5551-19.4287,7.7557-30.2828,1.8326-16.5657,3.9098-35.3416,21.3044-55.5533,32.5267-37.7941,86.1134-43.6112,137.9359-49.2367,38.3013-4.1577,74.4783-8.0848,98.9517-24.7511l.79-.5419c5.1091-3.5131,18.6804-12.845,28.073-12.845,2.5874,0,4.7495.6899,6.4265,2.0504,3.1782,2.5787,4.4211,7.4043,3.697,14.3485,7.6257,22.2705,10.9106,44.2748,9.7639,65.4106-.5439,10.0254-1.9922,18.905-3.3926,27.4924-2.9255,17.9364-5.4521,33.427.7458,54.0529.5225,1.7394.6401,1.9883,1.293,3.3698.9163,1.9391,2.6216,5.5485,7.1741,16.6814,9.1995,22.4973,10.0972,26.9506,13.875,45.6929,1.8035,8.9473,4.2734,21.201,8.6665,40.3651.5337,2.3273,1.6431,7.1628-1.2776,9.4449-.8164.6381-1.8193.9615-2.9805.9615-2.1301,0-4.8086-1.1125-8.1882-3.4012l-.1414-.0953c-2.5771-1.7074-15.9231-5.2329-40.7278-5.2329-27.1113,0-81.9277,4.5634-144.4406,35.1249-73.2255,35.7985-130.4695,94.8843-133.0454,100.0404l-.0482.0994c-2.7314,5.6653-5.7457,6.9-7.7933,6.9382-.0146.0002-.0858.0009-.1005.0009Z" style="fill: #cce9f4;"/>
      <path d="M2111.8709,1183.1604c1.9233,0,3.6162.4517,4.9341,1.521,3.3911,2.751,3.2495,8.7378,2.7764,12.7764,9.6665,27.9932,10.6147,50.21,9.8115,65.0146-1.6577,30.5625-11.9492,51.0752-2.5503,82.3555,1.314,4.3711.5029.603,8.5435,20.2656,13.5449,33.125,8.9741,27.0122,22.4253,85.6909.3774,1.646,1.3076,5.6934-.4272,7.0488-.4155.3247-.939.459-1.522.459-2.6123,0-6.416-2.7017-7.021-3.1025-3.7534-2.4868-19.0361-5.627-42.0361-5.627-35.0718,0-88.082,7.3042-145.481,35.3657-74.1841,36.2671-131.1807,95.2178-134.1245,101.1099-.2896.5801-2.5645,5.668-5.7661,5.7275-.019.0005-.0381.0005-.0566.0005-.6846,0-1.2563-.2295-1.6519-.4409-13.1865-10.5054-43.1982-35.5146-67.062-66.7461-13.4307-17.5771-19.9814-30.6699-23.9204-44.2773-3.0137-10.4092-2.2407-13.7949-4.2715-20.9268-3.7861-13.2964-14.5439-30.644-46.1318-46.7002-3.4346-11.7554-1.5337-18.2578.854-22.0283,4.1895-6.6147,12.2222-8.5249,22.584-8.5249,14.1787,0,32.7129,3.5781,51.7095,3.5781,18.3281,0,37.0898-3.3315,52.7827-16.4209,5.4795-4.5703,9.4302-8.3154,12.8311-14.0723,14.0439-23.7744.4126-52.4922,28.8159-85.4956,55.9136-64.9688,178.2617-33.9658,236.4253-73.5752,3.8403-2.6152,18.3223-12.9761,27.5293-12.9756M2111.8709,1178.4221h0c-8.978,0-20.4365,7.0874-29.416,13.2627l-.7803.5347c-23.9839,16.333-59.875,20.2295-97.8735,24.354-25.5547,2.7739-51.9795,5.6426-76.1123,12.5337-27.7266,7.917-48.4531,20.1875-63.3638,37.5132-17.873,20.7676-19.9932,39.9307-21.8633,56.8379-1.2231,11.0537-2.2793,20.6001-7.4409,29.3384-2.9497,4.9932-6.418,8.3662-11.7866,12.8438-12.5322,10.4531-28.3398,15.3213-49.7476,15.3213-9.9497,0-19.6812-.9961-29.0918-1.96-8.1274-.832-15.8037-1.6182-22.6177-1.6182-9.2148,0-20.5645,1.2192-26.5869,10.728-4.0703,6.4272-4.541,15.1387-1.3989,25.8921.3662,1.2554,1.2354,2.3027,2.4009,2.8955,24.251,12.3267,38.9609,27.0542,43.7217,43.7739.8228,2.8887,1.1372,5.1089,1.5015,7.6792.479,3.3789,1.0215,7.2085,2.7759,13.2676,4.4102,15.2358,11.7993,28.9438,24.7065,45.8364,21.792,28.5195,48.939,52.4893,67.8745,67.5752.2246.1787.4648.3369.7178.4722,1.2422.6641,2.5498,1.001,3.8867,1.001l.1455-.0015c2.7119-.0503,6.6284-1.5273,9.8828-8.2783l.0161-.0332c1.6284-2.7515,16.2114-18.5303,39.8716-38.2734,20.7271-17.2959,53.5327-41.8721,92.1123-60.7329,62.0845-30.3521,116.4932-34.8843,143.4004-34.8843,24.5039,0,37.4688,3.5469,39.4185,4.8389l.1211.0811c3.8369,2.5991,6.8613,3.8096,9.5171,3.8096,1.6787,0,3.2134-.5059,4.439-1.4634,4.1079-3.2095,2.7217-9.2549,2.1299-11.8364-4.3872-19.1382-6.8535-31.3745-8.6548-40.3086-3.7202-18.4561-4.7197-23.4165-14.0044-46.1221-4.5771-11.1934-6.2998-14.8389-7.2256-16.7979-.6284-1.3301-.6943-1.4692-1.166-3.0381-6.04-20.1021-3.5542-35.3428-.6763-52.9897,1.4111-8.6489,2.8696-17.5928,3.4204-27.7451,1.1548-21.2876-2.1157-43.4263-9.7222-65.8188.6899-7.5161-.8599-12.8647-4.6123-15.9087-2.1094-1.7114-4.7744-2.5796-7.9189-2.5796h0Z" style="fill: #cce5f1;"/>
    </g>
    <path d="M1638.767,1385.7502c-6.1374-3.5745,60.3715-115.7101,206.6456-181.0574,119.3778-53.3312,244.4132-54.2917,246.0818-48.5573,1.6114,5.5376-112.5782,14.7448-241.208,76.6668-143.5902,69.124-205.9691,156.1804-211.5194,152.9479Z" style="fill: #fff;"/>
    <path d="M1983.1189,1272.3288c-.2713,2.6879,28.0536,12.0401,61.3575,7.58,24.4016-3.2679,58.5991-14.9044,58.1617-26.7409-.6607-17.883-80.218-31.8256-83.8099-22.66-2.5526,6.5136,34.3738,21.8583,31.3042,32.8112-3.8602,13.774-66.6133,5.0462-67.0135,9.0096Z" style="fill: #ddedf8;"/>
    <path d="M2005.5309,1276.4736c.1082,1.2503,22.155,2.4963,49.4848-4.2066,11.7127-2.8727,42.0696-10.2817,41.7403-19.1908-.4742-12.834-57.5693-22.8401-60.1472-16.2622-1.7306,4.4164,24.0903,13.7601,22.4658,23.5473-2.2265,13.4138-53.7095,14.1959-53.5437,16.1124Z" style="fill: #fff;"/>
    <ellipse cx="1811.3369" cy="1520.7064" rx="11.51" ry="18.4982" transform="translate(178.4346 3231.589) rotate(-86.3511)" style="fill: #ddedf8;"/>
    <path d="M3258.9421,1710.7053c3.1002,8.3814-8.6623,92.6539-30.5546,92.7987-21.8377.1449-34.3349-83.5511-31.1376-92.6053,2.4939-7.0611,14.0499,32.6568,32.7581,30.7984,17.1689-1.7058,26.6852-37.0724,28.934-30.9919Z" style="fill: #fff;"/>
    <g>
      <path d="M2516.7002,1105.3462c-18.2634.0005-37.5964-4.3441-57.4617-12.913-.2205-.0951-.425-.2231-.6072-.3796-91.052-78.356-189.3687-123.8083-292.2185-135.0946-11.0867-1.2164-22.3699-2.0421-33.5366-2.4539-12.2717-.4525-23.7747-.6725-35.166-.6725-8.4595,0-15.4841.1188-21.6819.2235-4.7778.0807-8.9043.1505-12.7456.1505-8.9458,0-16.6816-.3772-25.3577-2.2179-27.8108-5.9008-53.3748-25.9442-75.9811-59.5736-17.2488-24.3138-22.6216-37.8336-17.3868-43.7877,1.4501-1.6492,3.5021-2.451,6.2736-2.451,1.8489,0,3.8486.3522,5.7825.6929,1.8503.326,3.7638.663,5.4152.6631h.001c1.5405,0,2.6353-.2811,3.4452-.8847,4.6959-3.4994,7.6144-19.8975-25.5974-90.4041-.0981-.2086-.1654-.4302-.1997-.6579-1.4539-9.6851-.0499-17.3466,4.173-22.7717,4.3163-5.5453,11.0635-8.2409,20.627-8.2409,11.8401,0,27.5237,4.0598,45.6836,8.7606,26.7976,6.9369,60.1484,15.57,97.1526,15.57,16.8259,0,33.2986-1.828,48.9607-5.4331,5.1775-1.1917,6.5249-1.6924,17.0129-5.5895,5.5938-2.0786,14.0471-5.2197,27.1077-9.95.9944-.3599,102.2458-36.5291,350.7869-85.5997.9006-.1777,3.0093-.5941,5.7773-.5941,1.9233,0,3.8306.2031,5.6682.6036,6.4858,1.4131,10.9214,5.162,13.3044,7.176.3103.2622.5867.4961.8291.6909,51.4688,41.338,95.8933,90.2051,132.0396,145.2438,32.3552,49.2661,57.6218,102.8535,75.0979,159.2734.0747.2404.1101.491.106.7427-.4722,26.8594,5.8123,45.9427,18.6785,56.72,8.3477,6.9922,19.1465,10.3911,33.0142,10.3911,12.646,0,25.2742-2.8363,35.4211-5.1152,6.8149-1.5306,12.1978-2.7396,15.9485-2.7396,3.2803,0,5.3958,1.027,6.2878,3.0522.9656,2.1926.231,5.1044-2.2458,8.9017-6.5271,10.0077-27.1125,28.7554-56.885,46.2692-19.0933,11.2314-56.4431,30.0737-92.0703,30.0751-13.6313.0006-25.8848-2.7557-36.4194-8.1926-14.5842-7.5264-22.3159-18.2854-29.1375-27.7777-7.48-10.4089-13.9399-19.3984-27.6533-21.3099-1.6182-.2256-3.2417-.34-4.8257-.34-15.0925,0-27.3723,10.3644-41.5911,22.3655-15.7271,13.2742-33.5525,28.3195-60.4126,34.6617-8.1968,1.9354-16.7468,2.9169-25.4133,2.917Z" style="fill: #cce9f4;"/>
      <path d="M2556.9593,644.1067c1.5347,0,3.2866.1396,5.1636.5488,6.752,1.4712,11.1021,5.751,13.1543,7.3994,36.9487,29.6758,86.8018,76.5713,131.543,144.6973,39.3428,59.9058,61.7295,116.4287,74.8154,158.6738-.353,20.0767,2.7866,44.5566,19.5259,58.5781,9.9219,8.3105,22.2334,10.9438,34.5347,10.9438,21.2544,0,42.4873-7.855,51.3701-7.855,2.1719,0,3.605.4692,4.1196,1.6382,5.0186,11.394-80.5269,81.9219-149.0327,81.9219-12.5747,0-24.5718-2.375-35.333-7.9287-30.1772-15.5737-29.9609-45.4834-57.5503-49.3291-1.7588-.2451-3.4746-.3623-5.1523-.3623-32.8579-.0005-51.394,45.0117-102.5483,57.0903-8.5122,2.0103-16.8525,2.854-24.8691,2.854-22.4219,0-42.3286-6.5967-56.5229-12.7192-68.73-59.1465-167.7798-121.8574-293.5059-135.6538-11.4351-1.2549-22.6763-2.0601-33.7075-2.4668-14.0205-.5171-25.5469-.6738-35.2485-.6738-14.9844,0-25.6245.374-34.4321.374-9.3613,0-16.6475-.4229-24.8662-2.1665-20.1035-4.2651-46.9551-17.5918-74.5068-58.5776-12.752-17.9766-22.5566-35.2334-17.5732-40.9019,1.0933-1.2432,2.668-1.646,4.4941-1.646,3.3525,0,7.5562,1.356,11.1978,1.356,1.8198,0,3.4985-.3384,4.8613-1.354,6.9038-5.145,7.2275-25.1729-24.8696-93.3135-1.7222-11.4717,1.0571-17.5698,3.6997-20.9648,4.1099-5.2803,10.4629-7.3271,18.7573-7.3271,28.6001-.0005,80.3018,24.3306,142.8364,24.3306,15.8677,0,32.4287-1.5654,49.4917-5.4932,8.2363-1.896,7.4438-2.2373,44.396-15.6211.0005,0,99.0195-35.8638,350.439-85.5029.9614-.1895,2.8613-.5488,5.3188-.5488M2556.9593,639.3684c-2.6592,0-4.7295.3413-6.2363.6387-248.375,49.0381-347.0513,84.2207-351.1304,85.6948-13.0732,4.7349-21.5322,7.8779-27.1294,9.958-10.3613,3.8501-11.6924,4.3447-16.7207,5.502-15.4878,3.5649-31.7812,5.3726-48.4287,5.3726-36.6997,0-69.8877-8.5908-96.5552-15.4937-18.3179-4.7417-34.1377-8.8369-46.2798-8.8369-10.3442,0-17.7031,2.9951-22.498,9.1548-4.6372,5.958-6.2002,14.2275-4.6465,24.5791.0688.4556.2031.8984.3994,1.3154,35.5449,75.46,28.165,86.1235,26.3252,87.4951-.4604.3433-1.3584.415-2.0303.415-1.4443,0-3.2544-.3188-5.0044-.627-2.0342-.3584-4.1377-.729-6.1934-.729-3.4443,0-6.1538,1.0952-8.0527,3.2559-6.168,7.0161-1.0137,20.9917,17.2319,46.7222,22.9541,34.1279,49.0034,54.4912,77.4233,60.521,8.8774,1.8833,16.7544,2.2695,25.8496,2.2695,3.8623,0,7.9985-.0703,12.7876-.1509,6.1885-.105,13.2026-.2231,21.6445-.2231,11.3628,0,22.8359.2192,35.0742.6704,11.1069.4097,22.3325,1.2314,33.3652,2.4419,56.6938,6.2212,112.7148,23.1582,166.5059,50.3398,42.7378,21.5957,84.6006,49.9233,124.4258,84.1953.3643.3135.7734.5693,1.2144.7593,20.1621,8.6973,39.8105,13.1069,58.3994,13.1069,8.8491,0,17.5825-1.0029,25.958-2.981,27.4111-6.4722,45.4663-21.7114,61.3965-35.1567,13.8633-11.7017,25.8364-21.8071,40.063-21.8066,1.4751,0,2.9888.1064,4.498.3169,12.709,1.7715,18.5996,9.9688,26.0571,20.3462,6.9771,9.709,14.8853,20.7134,29.9746,28.5005,10.873,5.6113,23.4917,8.4565,37.5059,8.4565,36.188,0,73.9697-19.0469,93.2705-30.4004,25.7954-15.1743,49.5093-34.5088,57.6685-47.0181,1.084-1.6616,4.3823-6.7188,2.4302-11.1519-.8975-2.0371-3.0928-4.4663-8.4561-4.4663-4.0132,0-9.5093,1.2344-16.4678,2.7974-10.0327,2.2534-22.519,5.0576-34.9023,5.0576-13.2876,0-23.5889-3.2183-31.4922-9.8379-12.2905-10.2954-18.29-28.7539-17.8311-54.8623.0093-.5034-.0625-1.0049-.2109-1.4854-17.5435-56.6338-42.9053-110.4229-75.3813-159.873-36.2827-55.2461-80.874-104.2974-132.5361-145.7905-.2295-.1841-.4902-.4058-.7842-.6538-2.54-2.1465-7.2686-6.1426-14.3286-7.6807-2.0024-.4365-4.0796-.6577-6.1724-.6577h0Z" style="fill: #cce5f1;"/>
    </g>
    <path d="M2687.7053,996.5334c25.7247,6.2185,22.2448,21.2318,64.1272,40.6961,33.3236,15.4867,53.0665,14.1344,54.2616,23.4311,1.4979,11.6528-27.0427,33.0386-51.7949,28.3641-33.6248-6.3499-31.1232-55.2895-67.8271-67.8271-28.4417-9.7153-61.1146,9.024-88.5326,24.7493-37.6593,21.5991-39.536,37.3913-64.3861,41.8446-30.9913,5.5537-70.5745-11.3915-78.3135-36.4876-13.5865-44.0577,71.4982-111.5223,105.1704-96.5975,19.7515,8.7545,10.5427,40.8622,34.4131,53.4078,27.3602,14.3796,51.1122-21.678,92.8819-11.5808Z" style="fill: #ddedf8;"/>
    <path d="M2604.2984,695.8309c-1.2579,2.5676-31.1192-19.3833-77.0794-20.5676-45.8542-1.1816-76.7721,19.1054-77.9037,16.4541-1.2348-2.8932,33.6975-31.4581,77.9037-30.44,44.6259,1.0278,78.4595,31.7367,77.0794,34.5534Z" style="fill: #fff;"/>
    <ellipse cx="2022.9363" cy="795.3585" rx="15.1443" ry="23.2705" style="fill: #ebf7fe;"/>
    <path d="M2538.6435,1046.5701c-4.9821,13.7282-21.2838,20.9855-34.1233,22.1769-16.4824,1.5295-37.5726-5.98-41.5046-19.3378-7.2262-24.5485,46.6209-58.238,55.7381-51.1947,4.6565,3.5971-2.276,17.8798,5.4741,23.9223,4.361,3.4001,8.8395.6581,12.7642,4.3828,4.8764,4.6279,3.7268,14.3316,1.6514,20.0505Z" style="fill: #fff;"/>
    <ellipse cx="2769.0977" cy="1073.4039" rx="7.3993" ry="2.1581" style="fill: #fff;"/>
    <path d="M2645.3649,1229.7141c.5436-4.4815,1.9954-11.4424,6.5771-18.0872,25.8524-37.4918,103.4059,4.6294,179.2275-6.5771,133.6226-19.7493,199.4729-195.9026,245.2048-174.0892,5.6739,2.7066,12.1763,9.0032,16.0316,24.6643,29.2305,66.1863,59.3045,147.7393,82.4202,243.1495,25.1385,103.7586,35.5399,197.0463,39.0519,273.7739-3.9449,12.1638-11.7525,29.5232-27.9531,37.2021-42.2471,20.025-99.6002-45.6748-124.5548-28.3639-19.5342,13.5508,12.22,56.1613-9.8659,95.5741-26.8588,47.9301-118.5464,65.0893-166.8952,31.8582-5.8341-4.0099-9.8789-8.3506-12.3323-11.3046-15.3822-75.3281-44.3744-175.5818-101.9459-283.6398-40.5727-76.1524-85.2537-137.251-124.9659-184.1603Z" style="fill: #bfdce7;"/>
    <path d="M3075.0062,1026.9854c-1.7546-2.9172-9.6454-1.1604-12.4029-.5465-40.1009,8.9275-104.9081,87.5759-173.0983,128.8846-34.8748,21.1268-72.2771,43.7847-120.4074,40.0659-42.0576-3.2496-71.4611-25.0295-96.191-8.6324-14.3463,9.5121-25.77,30.9777-19.7312,44.3957,16.0561,35.6759,166.0206,37.711,261.334-34.8724,48.2334-36.7308,64.2341-78.6825,129.5956-134.0781,7.4954-6.3526,34.6461-28.9903,30.9012-35.2169Z" style="fill: #fff;"/>
    <path d="M3075.006,1026.9855c4.9034-1.8071,58.9589,85.6458,72.6603,204.0922,14.2423,123.1243-21.393,225.5055-26.3261,224.8181-4.3708-.6091,16.7285-81.9375,6.0301-201.6446-12.2291-136.8391-57.2181-225.4768-52.3643-227.2657Z" style="fill: #fff;"/>
    <path d="M2924.2774,764.997c46.784,63.1153,64.4807,103.0101,70.9101,118.3888,8.397,20.0858,30.8577,73.8113,16.8537,83.8587-13.9784,10.029-43.8077-32.3015-82.7708-28.0165-34.0428,3.7439-45.541,33.6608-66.8594,28.0165-10.4529-2.7674-13.6052-11.8375-34.9412-62.894-32.8358-78.5748-35.8071-82.8681-34.7357-97.2186,1.6144-21.6234,10.4614-40.01,0-50.5617-5.7715-5.8213-13.7763-5.5835-19.7315-6.1663-31.5759-3.0899-47.6925-33.3697-78.9256-64.1272-45.9824-45.2819-87.7204-55.1541-84.27-64.3327,3.1241-8.3101,35.1777,6.0978,84.4756-5.5494,27.7382-6.5533,33.2991-14.6027,44.6642-17.7625.0008-.0003,4.6945-1.1212,10.0082-1.3524,34.2425-1.4894,108.7282,87.5575,108.7288,87.5583,42.021,50.236,63.0318,75.354,66.5936,80.1591Z" style="fill: #cce9f4;"/>
    <path d="M2733.1592,625.7912c-3.444-1.5888-11.0256-5.0057-6.8892-10.0965,3.629-4.4662,15.4443-9.7575,26.7062-10.2092,20.1457-.8081,27.4354,16.1811,22.5947,17.1614-3.7632.7621-15.8991-7.8209-25.0258-6.4187-8.4072,1.2917-7.6619,10.0423-13.4895,10.4952-1.26.098-2.3689-.2277-3.8962-.9322Z" style="fill: #fff;"/>
    <path d="M2846.7596,936.7414c2.6558-3.4532,12.9579,7.2452,29.6621,6.0585,13.4134-.9529,22.7946-8.9899,23.9662-6.8656,1.1475,2.0807-7.5871,10.2743-9.3593,11.9366-4.1499,3.8929-6.3507,5.9574-9.6185,7.5515-8.6073,4.1991-19.9749,2.8705-27.4437-3.9458-4.8217-4.4003-9.1898-12.1564-7.2067-14.7353Z" style="fill: #fff;"/>
    <path d="M2933.8967,827.5399c-2.1577,1.8709,15.4097,21.0303,31.176,48.605,21.8852,38.2764,15.3713,70.3449,33.3615,75.3796.7536.2109,7.7596,2.2209,10.5241-.9285,3.3165-3.7782-1.3785-12.7977-6.166-21.7868-10.8674-20.4046-22.043-40.6447-33.2969-60.8387-5.4241-9.7331-12.1734-22.2648-25.8975-34.1191-2.2673-1.9583-8.5063-7.3475-9.7011-6.3116Z" style="fill: #ddedf8;"/>
    <g>
      <path d="M2385.8157,631.9679c-7.197,0-13.6543-1.7365-19.7405-5.3089-6.5527-3.846-12.0898-9.52-16.4578-16.864-.1401-.2358-.2385-.4943-.2903-.7638-11.4751-59.7-34.8894-106.5709-69.5925-139.3107-11.5715-10.917-21.468-16.252-31.9453-21.9001-13.0354-7.0272-26.5146-14.2936-43.0176-32.9246-10.5879-11.9531-17.54-22.6725-23.6738-32.1301-9.8809-15.2351-18.4141-28.3926-38.5591-41.8761-3.9934-2.6731-8.0732-5.1178-12.0186-7.482-11.7561-7.0448-20.25-12.1347-18.7729-18.4569.9727-4.1649,5.2644-5.1566,12.3745-6.7995,6.4207-1.4836,15.2136-3.5155,27.0181-8.6078,3.8574-1.664,6.5408-3.0157,8.6965-4.1018,3.9419-1.9857,6.5459-3.2975,11.7419-4.2727,3.4973-.6564,7.2625-.9891,11.1907-.9891,4.2,0,10.8677.3966,18.781,2.2859,2.2087.5272,4.4167,1.1549,6.5625,1.8658,88.6726,26.9525,170.3059,62.1572,242.5764,104.6185,56.8276,33.3882,90.4382,60.9773,117.4448,83.1456,28.1614,23.1163,50.405,41.375,86.1475,56.0593l.1587.0652c13.7883,5.6599,19.9475,10.7269,19.3833,15.9463-.813,7.5209-13.7805,7.8041-37.3218,8.3182-28.856.6301-72.4631,1.5824-119.2974,16.2964-28.53,8.9631-51.8335,20.952-72.3936,31.5295-23.5195,12.1002-42.0969,21.6576-58.9949,21.6576Z" style="fill: #cce9f4;"/>
      <path d="M2182.7693,292.5486c8.6836,0,15.9019,1.665,18.231,2.2212,2.6978.644,4.8926,1.3218,6.3672,1.8105,110.9585,33.7271,190.6074,74.146,242.1216,104.4121,115.4927,67.8555,133.0728,110.2583,203.8921,139.3535,3.6353,1.4937,18.7314,7.6021,18.0869,13.5654-1.3931,12.8862-73.231-3.0723-154.9741,22.6089-61.3066,19.2607-99.9634,53.0786-130.6782,53.0786-6.4897,0-12.6211-1.5083-18.541-4.9829-7.8521-4.6089-12.7124-11.1421-15.6206-16.0322-14.4067-74.9512-44.6768-116.4189-70.2935-140.5864-26.6787-25.1694-45.7271-21.8335-74.8154-54.6724-27.292-30.811-29.3477-52.0884-62.6885-74.4043-14.7666-9.8838-31.2949-17.043-29.8027-23.4312,1.2598-5.3921,13.7358-3.293,38.0244-13.771,10.811-4.6636,12.2998-6.7881,19.937-8.2212,3.6724-.689,7.3276-.9487,10.7539-.9487M2182.7703,287.8103h-.0005c-4.0752.0005-7.9878.3467-11.6284,1.0303-5.5254,1.0366-8.3965,2.4829-12.3706,4.4849-2.1279,1.0723-4.7764,2.4062-8.5693,4.0425-11.6079,5.0073-20.2803,7.0117-26.6128,8.4746-7.4541,1.7227-12.8398,2.9668-14.1484,8.5688-1.8701,8.0049,7.7202,13.7524,19.8623,21.0283,3.9204,2.3491,7.9741,4.7783,11.9185,7.4185,19.7407,13.2129,28.1509,26.1812,37.8896,41.1968,6.1787,9.5273,13.1821,20.3257,23.8877,32.4116,16.7817,18.9458,30.4492,26.314,43.6665,33.439,10.3364,5.5723,20.0996,10.8354,31.4443,21.5381,14.9424,14.0972,27.8804,30.9512,38.4546,50.0942,13.7729,24.9341,24.0137,54.5215,30.4375,87.9404.1035.5386.2998,1.0557.5806,1.5273,4.5737,7.6914,10.3926,13.6455,17.2944,17.6968,6.46,3.7915,13.3091,5.6348,20.9395,5.6348,17.4717,0,36.2739-9.6733,60.0786-21.9199,20.4756-10.5342,43.6831-22.4741,72.02-31.3765,46.5127-14.6128,89.917-15.5605,118.6392-16.188,10.8867-.2378,19.4863-.4253,25.7769-1.2725,3.5688-.4805,13.0483-1.7568,13.8486-9.1597.9023-8.3486-10.6621-14.2144-20.8379-18.3921l-.1592-.0654c-35.4146-14.5493-57.5371-32.7085-85.5449-55.6992-27.0703-22.2207-60.7603-49.875-117.7476-83.3569-72.415-42.5459-154.2051-77.8213-243.0854-104.8423-2.1899-.7241-4.4448-1.3647-6.7036-1.9038-8.1401-1.9429-15.0049-2.3506-19.3301-2.3506h0Z" style="fill: #cce5f1;"/>
    </g>
    <path d="M2408.2608,602.2506c2.7779,2.8046-14.0853,23.346-31.3407,17.713-17.3492-5.6634-18.2365-32.2826-15.0296-32.7126,2.1762-.2918,5.5792,11.5681,17.7122,16.1568,13.6199,5.1511,26.557-3.2783,28.6582-1.1572Z" style="fill: #ebf7fe;"/>
    <path d="M2157.1541,327.3961c2.6469,1.528,3.8372,4.4212,2.6589,6.4622-1.1783,2.0407-4.2789,2.4565-6.9258.9285-2.6466-1.5283-3.8372-4.4212-2.6589-6.4622,1.1783-2.0409,4.2791-2.4565,6.9258-.9285Z" style="fill: #ddedf8;"/>
    <path d="M2314.0074,418.2863c3.4745,8.4736-2.1061,21.2421-10.8365,26.5651-23.2903,14.2005-75.6505-20.5285-101.1187-62.1805-12.0515-19.7096-17.5512-40.1019-14.9227-41.5173,3.6342-1.9569,15.3202,36.3948,50.1871,55.4659,35.4159,19.3713,69.9815,5.3035,76.6909,21.6668Z" style="fill: #ddedf8;"/>
    <path d="M2307.493,426.6965c2.1898,2.6495.1231,7.8711-3.9158,10.7758-10.7745,7.749-38.6621,1.2227-53.5882-10.8472-7.063-5.7114-10.9129-12.4128-9.6866-13.2201,1.6955-1.1161,9.6022,11.3345,27.9497,14.2235,18.6364,2.9344,35.0123-6.0484,39.2409-.932Z" style="fill: #fff;"/>
    <ellipse cx="2624.1947" cy="544.6623" rx="10.3361" ry="18.9093" transform="translate(1623.21 3030.8409) rotate(-79.7948)" style="fill: #ddedf8;"/>
    <g>
      <path d="M1742.0961,337.163c-7.9377,0-13.7208-.1084-17.3802-.19-79.8495-1.7791-172.2898-10.9619-253.6185-25.1938-76.9178-13.46-129.5153-28.8869-140.6978-41.2669-1.9087-2.1131-2.7908-4.2626-2.6218-6.3889.8867-11.161,31.7562-16.0521,61.8363-19.3646,33.7369-3.7152,75.6666-5.8017,109.3578-7.4783,7.4587-.3712,14.6069-.5516,21.8536-.5516,16.1569,0,30.0947.93,43.5737,1.8293,13.5939.907,27.6508,1.8449,44.1134,1.8449,12.8206,0,25.8759-.5638,39.9122-1.7238,21.1633-1.7489,33.5347-3.6854,44.4498-5.394,12.5907-1.9708,23.4644-3.6729,43.9089-4.6377,7.6371-.3604,14.8306-.5356,21.9915-.5356,35.1232,0,66.7943,4.4298,115.5602,11.6576,82.5922,12.2411,135.8777,20.9174,162.9016,26.5247,24.8809,5.1627,27.667,7.5767,27.8008,11.5015.2351,6.8879-7.8862,17.8056-80.8113,33.0266-36.7463,7.6697-75.7291,13.3939-90.7837,15.499-67.457,9.4331-123.7782,10.8416-151.3466,10.8416Z" style="fill: #cce9f4;"/>
      <path d="M1758.7742,230.4812c34.8574-.001,65.4639,4.2583,115.2139,11.6318,182.6099,27.0649,188.543,31.6831,188.6821,35.7632.7603,22.2817-154.7163,44.0239-169.5557,46.0986-67.3975,9.4253-122.7837,10.8188-151.0151,10.8188-8.1807,0-14.0781-.1172-17.3306-.1895-185.3003-4.1284-396.5288-46.3823-394.6294-70.2935,1.2969-16.3213,101.6772-21.3164,168.9507-24.6641,7.7969-.3882,14.9849-.5488,21.7358-.5488,32.3091,0,54.7588,3.6743,87.686,3.6743,11.7339,0,24.7935-.4663,40.1079-1.7319,45.104-3.7271,49.8613-8.2134,88.2754-10.0264,7.5933-.3584,14.8267-.5327,21.8789-.5327M1758.7815,225.7429v4.7383l-.0034-4.7383c-7.2041,0-14.4336.1763-22.106.5381-20.5723.9707-31.5044,2.6821-44.1626,4.6636-10.8755,1.7021-23.2017,3.6318-44.2798,5.3735-13.9707,1.1548-26.9624,1.7158-39.7178,1.7158-16.3838,0-30.4004-.9351-43.9551-1.8394-13.5176-.9023-27.4951-1.835-43.731-1.835-7.2861,0-14.4727.1816-21.9712.5547-33.7227,1.6782-75.6919,3.7666-109.5,7.4897-18.7471,2.064-32.7935,4.373-42.9419,7.0576-9.4385,2.4966-20.355,6.3984-20.9971,14.4736-.2222,2.8022.8628,5.5488,3.2261,8.165,6.0947,6.7471,21.9189,13.7373,48.377,21.3701,24.5054,7.0693,56.8965,14.2075,93.6704,20.6426,81.4409,14.2515,174.0107,23.4468,253.9741,25.2285,3.6719.0815,9.4746.1904,17.436.1904,27.6299,0,84.0742-1.4116,151.6714-10.8647,15.0747-2.1074,54.1133-7.8394,90.9395-15.5259,23.4946-4.9038,42.1523-9.7778,55.4556-14.4873,19.1021-6.7622,27.5034-13.2202,27.2397-20.9395-.2114-6.207-5.7607-8.7754-29.687-13.7402-27.4453-5.6943-79.251-14.1304-163.0356-26.5483-48.874-7.2437-80.6191-11.6831-115.9014-11.6831h0Z" style="fill: #cce5f1;"/>
    </g>
    <path d="M2070.8916,277.8764c.6337,17.7049-77.4973,36.9379-80.9812,29.5971-1.9962-4.2064,21.0393-16.0388,18.498-23.4311-2.645-7.6938-29.8226-1.3518-56.7277-1.2332-79.1701.349-128.6327-53.3081-186.3185-49.8422-2.2713.1365-10.4625.5633-34.0052,2.2635-10.0367.7248-23.5934,1.6389-42.9679,2.7719-25.7341,1.5046-76.2779,4.4596-76.4595,2.4664-.1757-1.9284,46.8549-7.7684,73.1707-10.6877,33.5657-3.7236,55.6915-6.1082,80.5702-6.5771,40.408-.7616,70.4958,3.983,107.9066,10.2767,131.2743,22.0843,196.9194,33.3521,197.3147,44.3957Z" style="fill: #a7cada;"/>
    <ellipse cx="1381.729" cy="257.9394" rx="22.1979" ry="8.0159" style="fill: #a7cada;"/>
    <path d="M1738.7451,313.023c.1088.8421-104.6714,16.9572-164.0178-1.2332-8.3082-2.5466-24.5792-8.4791-35.1467-12.332-47.3063-17.248-48.2214-20.2273-48.0953-21.5815.511-5.4921,20.7005-11.7002,34.5301-4.3162,8.9203,4.763,12.4786,13.7307,13.5652,16.0319,18.1392,38.4147,199.0224,22.3293,199.1645,23.4311Z" style="fill: #ebf7fe;"/>
    <path d="M1253.68,678.6719c16.8583,1.3142,43.6176,3.6108,76.4595,7.3992,78.3058,9.0328,113.2284,17.5527,118.7999,6.166,7.3957-15.1151-47.2076-44.2942-41.1072-60.8387,9.4503-25.6293,139.8941,45.9976,305.8377,23.0203,96.7047-13.3903,155.4453-51.9824,238.833-19.7315,40.2821,15.5795,35.7186,28.1218,69.06,34.5299,78.4146,15.0706,176.3188-40.3397,209.647-25.8975,2.5506,1.1052,13.3378,6.3529,25.8975,3.6996,7.7303-1.6331,13.4215-5.6867,16.854-8.6324.386-.3839,1.0879-1.1226,1.7984-2.1582,16.9087-24.6477-40.6026-102.0019-97.9893-153.2271-38.403-34.2798-65.4225-46.7459-77.2816-71.5267-2.1985-4.594-10.1348-22.6894-28.7749-35.2494-4.956-3.3395-9.4215-5.4473-12.3323-6.68-88.9373-13.9429-152.3346-1.5936-194.485,12.9009-32.9389,11.327-54.4874,24.5091-95.3208,28.6174-47.848,4.8142-69.0139-8.1792-129.4879-21.7868-137.9212-31.0342-261.0477-15.0421-292.6833-55.9056-2.1148-2.7316-13.9752-19.3129-27.9531-18.0872-9.0277.7917-15.7034,8.7281-19.7315,14.7984-2.0084,18.0456-6.1401,44.6322-15.6208,75.6374-9.6699,31.6236-14.7813,34.7391-25.4864,64.1272-22.6343,62.1367-6.9484,60.0813-28.7749,147.9862-4.1669,16.7818-10.2876,39.1761,1.4902,51.8978,6.2489,6.7498,15.4558,8.5295,22.352,8.9408Z" style="fill: #cce9f4;"/>
    <path d="M1863.3001,420.5186c1.8914,4.9672-47.7165,42.0122-110.1675,41.9293-62.3091-.0826-112.0186-37.0909-110.1672-41.9293,1.6128-4.2144,41.6025,17.9166,105.2344,18.9091,68.9337,1.0751,113.3627-23.4724,115.1003-18.9091Z" style="fill: #ebf7fe;"/>
    <path d="M1371.8633,645.9915c-.743,6.5038-1.6808,14.716,1.4387,21.9923,7.9105,18.4508,40.1374,26.7481,52.2063,16.2374,2.4723-2.1529,5.7003-6.4899,4.5217-9.8656-2.3291-6.6714-18.9013-1.0842-33.2969-11.5101-2.2195-1.6075-9.9922-7.2369-11.9209-16.2374-3.5674-16.6485,15.7722-31.244,13.1541-33.9135-1.9076-1.945-13.9539,3.988-20.5536,14.5931-4.1802,6.7176-4.9339,13.3149-5.5494,18.7038Z" style="fill: #ebf7fe;"/>
    <ellipse cx="1323.0323" cy="381.2932" rx="4.5228" ry="6.9497" style="fill: #ebf7fe;"/>
    <path d="M1340.2282,360.8874c0,5.4574-2.8793,9.8816-6.4312,9.8816s-6.431-4.4242-6.431-9.8816,2.8793-9.8819,6.431-9.8819,6.4312,4.4242,6.4312,9.8819Z" style="fill: #ebf7fe;"/>
    <path d="M1479.7747,589.058c-.2458,3.2366,22.0627,5.6392,62.6834,19.4233,32.2338,10.9381,51.6518,20.781,61.511,24.9727,77.8169,33.0847,159.7682-30.8116,287.0784-22.4037,43.9295,2.9012,66.3244,12.2286,75.8426,16.6485,36.5975,16.9948,52.2836,40.1329,60.4276,35.1467,11.4104-6.986,6.1761-52.4691-20.657-80.3646-14.3684-14.9373-31.0603-20.7757-37.9205-22.9174-75.2551-23.4943-192.6538,15.3518-307.4822,26.3088-98.4566,9.3948-181.0096-3.0507-181.4833,3.1856Z" style="fill: #ebf7fe;"/>
    <path d="M1997.3096,379.1031c-1.9482,4.6177,15.6387,13.9779,52.4115,41.9293,30.2694,23.008,45.3256,34.6149,51.7952,42.5459,20.8716,25.5861,26.9059,50.5945,47.8898,53.8505,6.9636,1.0804,7.8892-1.427,13.9765.4111,16.8641,5.0922,21.8177,26.7025,31.6527,49.8425,13.7601,32.3748,40.7774,75.346,58.629,72.1945,8.4287-1.4881,12.9177-12.9235,13.9765-15.6208,4.7609-12.1283,1.7477-28.4036-6.6552-32.4236-5.2524-2.5128-9.5334,1.2345-15.1316,2.0042-25.7535,3.5402-38.6315-61.5411-85.7599-101.8944-6.0367-5.169-22.8659-19.6424-43.5112-42.4526-2.8268-3.1233-5.6259-6.5014-9.1061-10.9866-23.2255-29.9324-28.5889-58.9145-42.5459-57.9612-5.4137.3697-5.6784,4.8035-13.3597,8.4269-22.6097,10.6648-53.0577-12.7193-54.2616-9.8656Z" style="fill: #a7cada;"/>
    <path d="M1172.3391,658.1694c-7.7196,2.6986-13.9901-3.3397-27.1309-10.6877-75.6816-42.3201-131.5414,10.4193-234.311-7.3992-84.0538-14.5734-85.9543-56.6614-147.986-48.5067-28.9096,3.8004-101.2605,22.5071-109.3967,14.2335-3.8817-3.9473-3.3914-7.2443-3.3913-7.2451.4127-2.7748,2.9697-4.5665,4.2649-5.3441,88.4369-69.4815,205.8495-147.0795,353.5222-211.291,70.7659-30.7706,138.0601-53.9361,199.7808-71.5267,12.3459-3.416,28.3628-6.3161,33.708.8221,8.8609,11.8332-17.581,43.2702-30.5736,62.894-73.0214,110.2907-1.8037,271.2281-38.4865,284.0509Z" style="fill: #cce9f4;"/>
    <path d="M1515.4302,283.6828c.4111.4111.8221.8221,1.2332,1.2332" style="fill: none;"/>
    <path d="M1390.8753,670.9128c.4111-.4111.8221-.8221,1.2332-1.2332" style="fill: none;"/>
    <path d="M2237.9441,1204.6842c1.1602,3.2659,2.3203,6.5317,3.4805,9.7976" style="fill: none;"/>
    <path d="M926.8559,623.7158c-19.6051-1.9088-41.153-10.4043-43.1926-18.0802-2.0252-7.6217,15.6942-12.5174,22.0626-10.8953,7.2435,1.845-2.975,11.415,9.2111,16.1389,14.7984,5.7365,46.3865-1.9726,51.5028.8043,4.668,2.5335-10.7827,14.8364-39.5839,12.0323Z" style="fill: #fff;"/>
    <ellipse cx="693.3769" cy="584.0022" rx="6.9497" ry="4.5228" transform="translate(-211.3216 526.1162) rotate(-36.445)" style="fill: #ebf7fe;"/>
    <path d="M720.007,585.713c-4.3901,3.242-9.6595,3.554-11.7695.6967-2.1099-2.857-.2614-7.8014,4.1287-11.0434,4.3903-3.2422,9.6597-3.5541,11.7696-.6971,2.11,2.8573.2616,7.8017-4.1287,11.0438Z" style="fill: #ebf7fe;"/>
    <path d="M1042.5945,425.5027c-1.094-2.3435-14.3418-31.4359-8.6327-54.2616,13.903-55.5862,146.6311-59.236,148.1466-53.2707.7805,3.0726-33.6323,5.9954-48.6157,32.9741-5.0309,9.0584-5.5222,16.5992-13.9765,23.02-11.5451,8.7681-20.8069,2.436-30.7562,7.8305-23.8101,12.9099-9.0523,71.1305-21.5013,73.3048-10.0293,1.7517-22.2296-24.3817-24.6643-29.5971Z" style="fill: #ddedf8;"/>
    <path d="M1049.1716,407.8266c8.0526,16.0897,21.8516,20.4246,21.6839,34.1191-.0472,3.8579-1.2247,10.2324-4.4188,11.0988-6.7807,1.8394-22.3861-21.2155-25.8977-46.04-2.7151-19.1946,2.3224-35.7535,3.8025-35.6604,1.5504.0973-4.2938,18.252,4.8302,36.4826Z" style="fill: #ebf7fe;"/>
    <ellipse cx="1061.3488" cy="402.6071" rx="3.9558" ry="9.168" style="fill: #ebf7fe;"/>
    <path d="M573.4178,655.5514c1.0597-1.0194,1.9782-1.728,2.5125-2.1209,28.6134-21.0465,84.9425,31.7745,124.296,19.6072,1.6715-.5169,10.0746-3.2416,21.3757-3.2885,8.1072-.0336,20.8386.0008,25.4864,7.3992,3.2463,5.1674.9661,11.423,6.0634,15.0042,2.0841,1.4643,3.8445,1.3873,5.2411,3.3914,2.2097,3.171.8028,7.6684.3084,9.249-11.8516,37.8885-79.0319,115.3898-79.0324,115.3903-57.3762,66.1908-12.5234,125.1848-59.1943,234.7223-10.7817,25.3049-46.8363,101.2474-50.3563,114.0726-.0966.3522-1.3541,4.9752-4.621,10.1922-2.3696,3.7841-4.7459,7.4682-9.2491,9.249-4.0144,1.5875-7.8944.9408-10.174.3084-18.2554-3.0673-44.2558-7.8503-75.2262-15.0042-40.3666-9.3244-43.9342-12.2256-143.0531-42.7515-59.1227-18.208-75.578-22.6345-78.9295-36.1925-4.237-17.1408,16.6726-31.8795,41.1072-57.5501,78.0522-82.0004,56.0304-132.6242,139.7646-213.7576,23.2486-22.5266,24.5686-18.2581,50.9729-44.3957,46.2289-45.762,75.2743-91.6031,92.7077-123.5248Z" style="fill: #cce9f4;"/>
    <path d="M280.6003,1103.5758c-4.043-.0447-7.979-2.197-10.0122-5.2071-6.4999-9.6222,6.4468-28.0015,7.9428-30.1253,23.2749-33.0413,84.281-31.5186,85.375-26.4467.7661,3.5515-28.9865,3.5478-52.0606,28.7206-14.014,15.2887-19.4458,33.1891-31.2449,33.0585Z" style="fill: #ebf7fe;"/>
    <ellipse cx="549.6711" cy="1137.3437" rx="10.7906" ry="13.2571" style="fill: #ebf7fe;"/>
    <ellipse cx="530.8115" cy="1156.3285" rx="5.4965" ry="5.9878" style="fill: #ebf7fe;"/>
    <path d="M282.3789,1096.6836c-3.0927-.0872-5.2878-3.3669-5.88-4.2314-4.2158-6.1535-.103-15.1863.8739-17.1782.0004-.0008.0661-.1352.1445-.29,6.2446-12.34,26.6758-21.7705,38.9731-24.5819,1.6083-.3676,6.4546-1.4758,6.7826-.6166.1478.3871-.6758,1.0333-.9249,1.2332-3.8587,3.0947-19.736,19.2551-26.8684,28.8936-7.229,9.7688-8.4815,16.9015-13.1008,16.7714Z" style="fill: #ddedf8;"/>
    <path d="M529.1175,769.2285c-3.1463,3.2896-4.8228,6.1996-5.7551,5.7549-4.313-2.0569,9.5157-73.9027,48.5065-87.1472,17.6752-6.0039,38.1574.8373,42.7515-9.0435,3.0877-6.6408-4.1816-13.9941-1.6443-16.4429,5.8872-5.6819,36.0726,30.5896,79.748,35.3523,29.974,3.2685,48.355-10.3766,54.0559-1.8498,8.0499,12.0398-23.5562,46.7862-25.8975,49.3285-11.5729,12.5674-18.1701,15.5363-27.1308,23.4311-37.7642,33.2719-36.3613,82.5412-46.2457,82.0089-11.6686-.6286-.3243-68.5735-35.7632-90.6413-22.3831-13.9379-64.176-10.0397-82.6255,9.249Z" style="fill: #ddedf8;"/>
    <path d="M528.6037,798.9286c-1.6043-5.1533,40.4935-40.4333,73.9929-22.1979,35.4688,19.3073,23.7484,78.1664,19.7315,78.9259-3.2441.6134-2.8132-36.4122-28.364-53.0284-27.2657-17.7313-63.9255.9096-65.3604-3.6996Z" style="fill: #bfdce7;"/>
    <g>
      <path d="M948.0508,1231.6675c-72.2814-.0001-150.4772-.7422-226.134-2.1458-.2178-.004-.4341-.0382-.6428-.1014-31.0907-9.4183-52.5823-24.7377-63.878-45.5322-16.9992-31.2944-2.7912-58.7461,18.7151-100.2992,17.6508-34.1039,39.618-76.5474,53.4037-138.1267,6.6263-29.5996,9.8691-56.8285,13.0053-83.1606,3.545-29.766,6.8935-57.8813,14.855-82.516,8.8682-27.4405,22.6089-48.0999,43.2429-65.0162,4.8867-4.0063,10.0883-7.732,15.4605-11.0734.0937-.0582.1913-.1098.2923-.1545,12.3444-5.4638,25.262-9.3248,38.3943-11.476,7.3565-1.205,14.204-1.7662,21.5497-1.7662,11.164,0,23.354,1.2433,41.8058,3.1252,5.7155.583,12.0198,1.226,19.0598,1.9095,7.1473.694,14.4353,1.2817,21.4833,1.8499,8.3922.6768,17.0702,1.3765,25.6002,2.2623,236.6276,24.5752,355.3925,36.9095,416.9177,40.276,55.6248,3.0438,138.2483,3.9487,302.8566,5.7516,32.6581.3578,65.6842.6342,98.1663.8215,1.0967-.0558,2.1959-.0843,3.2681-.0843,9.5538,0,18.2034,2.1735,25.7084,6.4601,11.817,6.7488,21.106,21.2166,27.6094,43.0007,10.7511,36.0143,5.1321,62.4212-.3019,87.9587-3.4042,15.9987-6.6196,31.11-5.7683,48.048l.0138.2723c.2079,4.0304.76,14.7366-6.2019,20.5717-2.4971,2.093-5.2711,3.0887-21.3484,3.8397-5.5653.26-9.2643.3259-13.5475.4023-2.7567.0492-5.7743.103-9.7211.2159-4.4973.1285-11.2935.3229-19.0312.8184-.1149.0073-11.4921.7407-23.7034,2.2478-55.7943,6.8853-117.4042,30.8545-118.02,31.0957-1.579.6187-9.9062,3.9009-18.8298,7.7777-51.9967,22.5913-106.2565,57.3875-163.7021,94.2267-24.8152,15.9136-50.4752,32.3691-76.0815,47.8586-63.132,38.1888-97.9081,59.2253-149.4048,73.4272-52.2483,14.4094-94.5834,15.2527-117.3271,15.7057-50.9519,1.0146-107.3959,1.5292-167.7642,1.5292Z" style="fill: #cce9f4;"/>
      <path d="M876.3152,692.6682c14.501,0,31.0942,2.1558,60.6362,5.0239,15.6753,1.522,31.4033,2.4839,47.0679,4.1108,236.9658,24.6099,355.4487,36.915,417.0327,40.2847,55.6763,3.0469,138.1045,3.9497,302.9604,5.7549,40.978.4492,74.9502.688,98.2461.8223.9849-.0513,2.0605-.0845,3.2134-.0845,6.5879,0,15.6772,1.0894,24.5342,6.1479,5.5044,3.1436,17.5547,11.6108,26.5137,41.6211,17.2461,57.7695-8.4082,90.8374-6.166,135.4482.1738,3.4526.8711,13.7007-5.3438,18.9092-1.9072,1.5986-4.2681,2.5566-19.937,3.2891-9.0957.4248-13.1289.3276-23.2256.6162-4.9668.1421-11.498.335-19.1147.8223-.001,0-11.4736.7344-23.8423,2.2607-56.7495,7.0034-118.5938,31.2412-118.5942,31.2417-1.1855.4644-9.7075,3.8125-18.9097,7.8105-75.2212,32.6816-156.5889,91.7349-240.0659,142.231-65.0405,39.3433-98.5801,59.3184-148.8081,73.1704-50.9229,14.0439-91.7842,15.1235-116.7446,15.6211-56.6016,1.127-114.2139,1.5283-167.7173,1.5283-102.6699,0-190.1709-1.4785-226.0898-2.145-19.9888-6.0557-48.2539-18.2012-62.4829-44.396-29.9766-55.1851,41.7642-100.1582,72.3486-236.7773,22.2163-99.2383,7.2363-177.6821,70.2935-229.3784,6.0723-4.9785,11.4976-8.5845,15.21-10.8936,8.1318-3.5991,21.1821-8.5791,37.8184-11.3042,7.4111-1.2139,14.0356-1.7354,21.167-1.7354M876.3152,687.9304c-7.4775,0-14.4468.5708-21.9331,1.7974-13.3296,2.1836-26.4414,6.1021-38.9697,11.647-.2021.0894-.3975.1929-.585.3096-5.4609,3.3965-10.7471,7.1826-15.7119,11.2529-21.001,17.2173-34.9805,38.2271-43.9946,66.1196-8.0322,24.854-11.394,53.0801-14.9531,82.9639-3.1294,26.2734-6.3652,53.4414-12.9653,82.9238-13.7188,61.2803-35.6074,103.5728-53.1953,137.5557-10.5029,20.2925-19.5732,37.8174-23.8042,53.979-4.7158,18.0142-3.0918,33.438,5.1113,48.5396,11.603,21.3608,33.564,37.063,65.2725,46.6689.4175.1265.8501.1948,1.2861.2026,75.6787,1.4038,153.8896,2.146,226.1777,2.146,60.3896,0,116.8496-.5146,167.8115-1.5293,22.8486-.4556,65.3784-1.3032,117.9102-15.7905,51.8115-14.2891,86.6875-35.3857,150.0005-73.6841,25.6333-15.5054,51.3066-31.9697,76.1348-47.8916,57.3633-36.7861,111.5449-71.5327,163.3672-94.0479,8.9219-3.876,17.1836-7.1313,18.7495-7.7441.0015-.0005.0029-.0015.0044-.002h0c.6123-.2402,61.8633-24.0903,117.4424-30.9492,12.1284-1.4966,23.4487-2.2275,23.562-2.2349h.0024c7.6997-.4927,14.4683-.6865,18.9473-.8145,3.9263-.1123,6.9854-.1665,9.6841-.2148,4.3052-.0767,8.0229-.1431,13.6274-.4043,15.9966-.748,19.5542-1.7046,22.7598-4.3911,7.8672-6.5938,7.2705-18.1567,7.0459-22.5098l-.0137-.269c-.8359-16.6284,2.3481-31.5928,5.7192-47.4355,5.4961-25.8281,11.1792-52.5361.2544-89.1299-6.6831-22.3877-16.3408-37.3193-28.7041-44.3804-7.8667-4.4932-16.9121-6.7715-26.8838-6.7715h-.0093c-1.0864,0-2.1997.0283-3.3115.0835-32.4399-.187-65.4419-.4634-98.0869-.8208-164.5703-1.8022-247.1748-2.7065-302.7534-5.748-61.4634-3.3633-180.1968-15.6943-416.7456-40.2607l-.0566-.0059c-8.5596-.8892-17.2534-1.5898-25.6616-2.2681-7.0361-.5674-14.312-1.1543-21.4375-1.8457-7.0322-.6831-13.4146-1.334-19.0459-1.9082-18.5254-1.8896-30.7637-3.1377-42.0483-3.1377h0Z" style="fill: #cce5f1;"/>
    </g>
    <path d="M1827.0229,787.6382c1.4351,12.8873-242.8532,134.253-506.5797,64.1272-130.1073-34.596-314.5007-128.9753-399.2182-69.8821-27.1778,18.9573-50.89,46.0395-50.8905,46.04-33.88,38.6949-48.5161,75.8093-64.9831,117.5667-.0003.0008-76.0549,192.8612-75.1613,193.204.9616.3689,22.268-289.0135,189.056-381.8472,107.54-59.8563,180.4423,14.941,458.4269,41.4247,270.3717,25.7583,448.1408-21.492,449.35-10.6334Z" style="fill: #ebf7fe;"/>
    <path d="M1757.8627,824.4052c3.0787,9.3983-94.0378,55.5769-202.2475,83.8587-31.3139,8.1843-55.7699,12.8345-66.5936,14.7984-188.8529,34.2646-289.1671-12.4309-340.3678,46.8624-19.5566,22.6476-5.7755,30.4493-25.7674,66.5936-65.3098,118.0767-277.9571,153.3714-321.9998,93.7246-9.805-13.2786-8.1809-33.5169-4.9328-73.9931,5.6328-70.1932,31.6373-121.9551,46.8623-147.9859,24.2577-41.4746,62.4419-106.7603,98.6574-101.1238,41.7579,6.499,38.3636,100.6684,91.2579,115.9222,31.5236,9.0909,58.8161-16.8337,90.155-35.4453,104.2153-61.8917,182.8314-1.1354,371.068-11.4168,160.3038-8.7558,260.7557-61.419,263.9083-51.7949Z" style="fill: #a7cada;"/>
    <path d="M993.2294,1074.0335c1.4114,5.4511-35.608,46.1055-82.2114,46.0145-46.4976-.0907-83.5928-40.7047-82.2112-46.0145,1.2035-4.625,31.0455,19.6622,78.5301,20.7514,51.441,1.1799,84.5958-25.7593,85.8924-20.7514Z" style="fill: #ddedf8;"/>
    <ellipse cx="1250.1356" cy="1145.5006" rx="10.7906" ry="13.2571" style="fill: #ebf7fe;"/>
    <ellipse cx="1231.276" cy="1164.4854" rx="5.4965" ry="5.9878" style="fill: #ebf7fe;"/>
    <path d="M1369.5453,461.9044c2.7052-16.194,10.831-64.8356,45.0312-81.5013,19.5603-9.5316,28.3705.7909,93.7002,10.7204,59.0434,8.9741,81.8804,5.1071,85.6066,16.7614,3.986,12.4671-15.9054,36.4168-39.0783,40.5105-34.6711,6.125-49.3582-37.0273-84.7624-32.5151-25.6382,3.2677-47.5753,29.6742-68.603,54.9857-15.6021,18.7808-23.3465,33.801-29.1607,31.8476-6.9141-2.3231-5.1015-26.6352-2.7336-40.8092Z" style="fill: #a7cada;"/>
    <path d="M1047.53,1771.8237c.0693.4993.1501,1.5464-.4111,2.4664-1.8506,3.0337-8.9424,1.8357-10.2769,1.6443-7.0532-1.0114-35.3955,4.3956-92.08,15.2097-43.5382,8.3061-59.1803,14.8077-67.0047,5.7549-3.9129-4.5271-4.4892-11.3126-5.3441-21.3757-1.0807-12.7223.9858-23.2282,2.8775-30.0081,5.6374-90.8815,14.8491-162.5017,22.6092-212.5244,6.6848-43.0908,10.0271-64.6364,16.0316-87.5583,12.1947-46.5524,30.7692-93.8424,31.6527-118.7999.024-.6744.3543-10.1671,4.1107-21.7868,2.4392-7.5453,4.3999-13.353,9.8659-17.6761,7.2968-5.7712,16.2939-5.3009,19.7315-4.9328,53.7135-3.2885,107.4268-6.5773,161.1403-9.8659,8.9384-1.7066,23.6958-4.554,41.9293-8.2213,62.4598-12.5626,74.655-16.4331,78.9259-10.688,7.6013,10.225-18.9571,38.7234-48.0956,79.337-.0005.0008-14.0514,19.5851-72.7596,124.5551-22.7364,40.6527-62.9615,129.4356-92.9024,314.4701Z" style="fill: #bfdce7;"/>
    <path d="M576.4412,1023.2612c3.6116,18.6851-28.7016,48.0953-61.6608,48.0953-38.6745,0-66.196-41.0382-61.6608-48.0953,4.5753-7.1196,53.3738,23.9797,67.4159,8.6324,6.6648-7.2843,1.08-20.1348,10.6879-27.1307,6.5223-4.7491,15.0664-3.1744,18.9092-2.4664,11.5148,2.122,24.354,10.8517,26.3087,20.9647Z" style="fill: #97bece;"/>
    <path d="M204.8319,1185.6347c17.1718-45.1726,544.79,121.5595,615.5807,108.934,4.7305-.8437,31.0771-6.7069,46.8621,7.3995,4.6926,4.1936,7.1723,9.0088,8.4269,11.9209-1.9255,3.786-5.3433,10.6406-9.249,19.3204-92.2442,205.0066,7.641,396.7826-60.0165,438.203-9.55,5.8466-10.7761,1.5582-69.0601-.8221-113.0747-4.6177-136.6368,10.3726-206.3582,8.2216-115.8804-3.5751-97.2234-46.4175-235.9555-59.1944-59.4613-5.4764-116.352-29.8287-175.9388-33.708-6.9571-.4529-32.5315-1.5979-42.7516-18.0872-1.7449-2.8154-2.6315-5.415-3.083-6.9881.3757-2.207,1.0099-5.8936,1.8254-10.4326,17.6038-97.9901,37.5958-209.2746,94.9821-313.9033,21.836-39.8122,55.9998-91.5415,38.0241-139.3535-2.6121-6.9476-4.3852-8.6249-3.2885-11.5101Z" style="fill: #cce9f4;"/>
    <path d="M472.2345,1410.4912c-16.3708,45.8315-32.1881,100.3102-43.4939,162.4743-15.5296,85.3891-18.1842,161.2901-15.954,222.5228" style="fill: none; stroke: #93b6d3; stroke-linecap: round; stroke-linejoin: round; stroke-width: 17.4706px;"/>
    <ellipse cx="946.6118" cy="1746.7483" rx="38.2297" ry="18.4982" style="fill: #ddedf8;"/>
    <path d="M1019.9717,1622.0761c-6.7072,41.6076-20.1546,86.6795-24.0088,86.9804-6.0067.4684,33.1261-109.4873,13.4541-226.9505-17.7418-105.9373-72.3945-152.7782-47.3946-178.9993,18.3246-19.2198,52.138,1.0172,145.6188-4.2729,85.0372-4.8124,142.4727-27.3396,142.6413-23.2723.1998,4.8176-80.0221,45.0952-172.7396,52.1769-56.9677,4.3512-85.8607-6.3346-98.5203,9.0877-15.1485,18.4542,18.9882,42.5659,38.2075,108.7758,20.0533,69.0833,9.5044,134.5224,2.7416,176.4743Z" style="fill: #f3fafe;"/>
    <path d="M240.8517,1530.2649c-11.4612,38.8357-29.3086,78.6574-32.7355,77.5546-5.3408-1.7189,43.7586-96.5666,42.1909-220.2395-1.4139-111.5377-43.1693-177.8717-17.6932-194.7939,25.0083-16.6114,75.4265,20.644,128.5269,48.6997,205.6508,108.6565,426.8118,50.1936,426.7971,53.9052-.0163,4.1221-272.7692,71.0114-457.1122-36.1741-18.0824-10.5139-69.0711-41.9805-87.7858-26.8014-15.7804,12.7991,10.989,49.1275,19.0173,121.7936,8.3768,75.8197-9.6491,136.8991-21.2054,176.056Z" style="fill: #f3fafe;"/>
    <path d="M792.7517,1646.6854c5.9103,6.7027,25.2834,89.5575,4.9119,97.5759-20.3205,7.9989-62.1182-65.582-62.3957-75.1801-.2161-7.4855,24.867,25.4066,41.651,16.9361,15.4029-7.7738,11.5453-44.1947,15.8328-39.3319Z" style="fill: #fff;"/>
    <path d="M774.5986,1848.8734c5.414-5.6422,15.5762-3.867,19.9165-3.2621,6.2276.868.8591-.6193,64.1273-9.8659,70.0352-10.2356,167.4649-24.475,170.6943-11.966,1.5973,6.1868-20.7805,15.4907-18.0872,25.4048,1.4481,5.3305,8.9462,7.1217,11.9212,8.3293,27.3258,11.0897,12.5655,110.6975,17.6761,171.5852,8.0326,95.7002,72.6077,124.9488,52.6171,157.0083-18.0883,29.0087-81.9945,25.2132-176.4495,19.6032-31.1616-1.8506-63.5221-5.8893-108.4202.3087-32.7205,4.5169-48.3002,6.68-48.301,6.68-57.0362,7.918-64.3965,8.963-66.1825,5.5491-6.8523-13.0966,91.7045-47.1532,114.3808-128.46,11.4861-41.1837,2.9326-92.4426-19.7315-101.9459-15.078-6.3225-28.5168,9.1424-37.0992,1.8498-16.7586-14.2402,29.7006-77.2683,20.6564-120.2386-.7362-3.4975-3.4665-14.5899,2.2814-20.58Z" style="fill: #bfdce7;"/>
  </g>
  <path d="M2549.1105,2393.7201l-28.4428.641c9.5892-27.5427,18.6955-58.5519,26.1158-92.7772,4.5048-20.7964,7.9383-40.6818,10.5376-59.4739,7.4202.0615,14.8405.1251,22.2607.1866-1.9143,10.531-3.8726,21.1016-5.8835,31.7095-7.7188,40.6928-15.9382,80.5997-24.5878,119.714Z" style="fill: #ddedf8;"/>
  <path d="M1787.5034,2396.4598c-6.4016.3271-12.7944.6542-19.196.9813-10.5728-30.6821-20.4342-65.1884-28.1794-103.2512-3.6179-17.7691-6.4894-34.9235-8.755-51.3709,10.4586-.0549,20.926-.1098,31.3846-.1647,1.7914,14.7219,3.7672,29.6459,5.945,44.763,5.4532,37.8059,11.7934,74.1717,18.8009,109.0425Z" style="fill: #ddedf8;"/>
</svg>