<?xml version="1.0" encoding="UTF-8"?>
<svg id="Layer_1" data-name="Layer 1" xmlns="http://www.w3.org/2000/svg" viewBox="0 0 1621.4173 1264.252">
  <defs>
    <style>
      .cls-1 {
        fill: #a26e2e;
      }

      .cls-2, .cls-3 {
        fill: #bc8e5b;
      }

      .cls-4 {
        fill: #2d201a;
      }

      .cls-5, .cls-6 {
        fill: #3a2216;
      }

      .cls-7 {
        fill: #b17d53;
      }

      .cls-7, .cls-8, .cls-9, .cls-3, .cls-10, .cls-6, .cls-11, .cls-12, .cls-13 {
        fill-rule: evenodd;
      }

      .cls-14, .cls-12 {
        fill: #dcb79d;
      }

      .cls-8, .cls-15 {
        fill: #8a5c3e;
      }

      .cls-16 {
        fill: #ca6628;
      }

      .cls-9 {
        fill: #af804b;
      }

      .cls-17 {
        fill: #e2b199;
      }

      .cls-18 {
        fill: #5f514e;
      }

      .cls-19 {
        fill: #afafb0;
      }

      .cls-20 {
        fill: #281811;
      }

      .cls-10, .cls-21 {
        fill: #4b2b19;
      }

      .cls-22 {
        fill: #ab474b;
      }

      .cls-23 {
        fill: #895623;
      }

      .cls-24 {
        fill: #7d7c7c;
      }

      .cls-25 {
        fill: #90673b;
      }

      .cls-26 {
        fill: #fff;
      }

      .cls-11 {
        fill: #d5a87b;
      }

      .cls-27 {
        fill: #dc7427;
      }

      .cls-28 {
        fill: #9f3134;
      }

      .cls-29 {
        fill: #fff9c9;
      }

      .cls-30 {
        fill: #f68720;
      }

      .cls-31 {
        fill: #61381c;
      }

      .cls-32 {
        fill: #e5e3da;
      }

      .cls-33 {
        fill: #3e2d27;
      }

      .cls-13 {
        fill: #653f19;
      }

      .cls-34 {
        fill: #d8d4d4;
      }

      .cls-35 {
        fill: #852328;
      }

      .cls-36 {
        fill: #73471e;
      }

      .cls-37 {
        fill: #4b2a17;
      }

      .cls-38 {
        fill: #472c17;
      }
    </style>
  </defs>
  <g>
    <path class="cls-20" d="M443.6608,637.0763c219.5527,1.1974,439.1055,2.3946,658.6582,3.592,2.5336-.025,6.1507.1423,10.3352,1.0824,40.5259,9.1052,61.7591,74.4134,66.2011,117.3531,6.9256,66.949-19.6313,150.4307-67.877,163.7917-4.6687,1.2929-8.7925,1.7221-11.8715,1.8506-218.482,1.6821-436.964,3.3643-655.446,5.0464v-292.7163Z"/>
    <ellipse class="cls-38" cx="443.6609" cy="783.4345" rx="99.1739" ry="146.3581"/>
    <ellipse class="cls-36" cx="438.3323" cy="790.5358" rx="76.9459" ry="113.5547"/>
    <ellipse class="cls-25" cx="440.5348" cy="790.2062" rx="47.7446" ry="70.4601"/>
    <path class="cls-10" d="M1041.1461,701.0733c-.0478,2.5715-44.3529.5404-134.916,6.7039-37.3933,2.5449-64.6312,5.259-108.9384,5.0279-22.9195-.1196-39.6187-.9708-53.6312-1.676-151.4078-7.6194-190.2486-8.2914-190.2232-10.0558.0408-2.8312,100.0869-4.1934,160.8936-4.19,43.3852.0024,52.7297.6993,88.8267,0,61.3359-1.1883,70.9524-3.9094,113.1283-4.1899,64.4519-.4287,124.9161,5.3744,124.8602,8.3799Z"/>
    <path class="cls-10" d="M793.6545,806.7991c.0362,2.1,33.53.4413,101.9942,5.4746,28.2687,2.0782,48.8601,4.2946,82.3555,4.106,17.3268-.0976,29.951-.7928,40.5443-1.3687,114.4616-6.2222,143.8246-6.771,143.8054-8.2118-.0308-2.312-75.6639-3.4245-121.6328-3.4216-32.7985.002-39.8627.5711-67.1514,0-46.3688-.9704-53.6388-3.1925-85.523-3.4216-48.7245-.3501-94.4344,4.3889-94.3921,6.8432Z"/>
    <path class="cls-10" d="M1004.2593,898.5182c-.0478,2.5715-44.3529.5404-134.916,6.7039-37.3933,2.5449-64.6312,5.259-108.9384,5.0279-22.9195-.1196-39.6187-.9708-53.6312-1.676-151.4078-7.6194-190.2486-8.2914-190.2232-10.0558.0408-2.8312,100.0869-4.1934,160.8936-4.19,43.3852.0024,52.7297.6993,88.8267,0,61.3359-1.1883,70.9524-3.9094,113.1283-4.1899,64.4519-.4287,124.9161,5.3744,124.8602,8.3799Z"/>
    <path class="cls-21" d="M600.4515,846.3178c2.4177-11.0014,34.1841-12.7944,52.2346-13.6871,55.2003-2.7299,94.6812,8.8577,94.6926,8.7988.0143-.0736-63.6705-8.6764-92.7373-5.4469-.0003,0-14.6075,1.623-29.6089,8.9385-3.4774,1.6958-6.235,3.0406-9.2178,5.8659-4.6426,4.3975-5.1644,7.9619-7.5419,8.1005-3.5471.207-8.9699-7.3428-7.8213-12.5697Z"/>
    <path class="cls-21" d="M1111.5982,670.3516c-4.0278-10.4953-21.6935-12.1767-52.2346-13.6871-55.2002-2.7299-94.6812,8.8577-94.6926,8.7988-.0143-.0736,63.6705-8.6764,92.7373-5.4469,6.8428-.3074,12.1248.4966,15.7558,1.3224,2.8662.6518,3.1953.974,6.5991,1.676,7.1475,1.4739,12.8614,1.5305,12.8841,2.3045.0149.5058-2.4247.5065-2.6187,1.4665-.2996,1.4829,5.3181,2.4865,9.0083,6.9134,2.1412,2.5686,2.7707,5.2547,3.2822,7.4371,2.0936,8.9333-1.7811,15.9229-1.1174,16.2012,1.0581.4435,14.7192-15.7217,10.3965-26.9857Z"/>
    <path class="cls-13" d="M478.3435,671.3495c.0333,1.9773-16.1563-11.9389-39.2271-11.1317-23.9911.8386-39.4054,17.0382-39.5714,14.9977-.1721-2.1157,16.0947-23.2788,38.3-24.3393,22.1627-1.059,40.4632,18.3748,40.4985,20.4732Z"/>
    <path class="cls-13" d="M404.9214,872.9837c-7.2131-5.3376-11.1101-9.4414-10.4127-9.6692,1.7102-.5587,23.6371,24.5361,46.2478,22.9561,26.4266-1.8466,46.8995-40.1768,46.9035-40.1814,1.3417-1.9179,2.2135-2.7436,2.6505-2.7076,1.0487.0865-20.5904,47.8536-47.1564,48.8811-11.5751.4477-23.0032-8.009-38.2327-19.2789Z"/>
    <path class="cls-8" d="M480.7098,785.2035c1.9897,30.5202-19.6857,61.7616-32.667,60.8241-.4546-.0328-3.5847-.2589-4.3994-2.0949-1.6522-3.7233,8.1951-9.6102,15.7123-18.2263,14.4027-16.5083,15.3352-37.4005,15.5236-41.6214.7939-17.7883-6.3486-30.4567-5.5243-30.7403.8794-.3025,10.1721,13.7166,11.3548,31.8588Z"/>
    <ellipse class="cls-15" cx="447.3625" cy="744.9122" rx="4.5058" ry="3.4878" transform="translate(-355.2881 1077.7475) rotate(-81.5351)"/>
    <path class="cls-13" d="M380.6762,748.3575c.5187.5828-5.4758,19.873-1.6262,38.0256,2.1716,10.2404,5.9253,12.8058,8.6669,19.9159,1.1548,2.995,1.5908,4.9604,2.0642,7.617,1.9092,10.7131-.1421,23.5296-2.9261,23.9099-3.7321.5097-10.8228-21.0499-12.4281-41.5977-2.1544-27.5769,6.0407-48.105,6.2492-47.8707Z"/>
    <path class="cls-11" d="M389.244,822.3546c-.1513,4.2583-2.7174,8.3242-3.7709,8.1005-.7199-.1529-.8964-2.3436-.838-3.6312.0977-2.1541.9237-3.3401,1.3966-4.609,1.7626-4.7291-1.7789-9.5353-1.257-9.7766.52-.2404,4.6711,4.2353,4.4693,9.9162Z"/>
    <path class="cls-11" d="M455.3025,658.6793c.0028.6143-6.8657-3.6161-16.7737-3.2308-10.3033.4004-17.0144,5.5245-17.0738,4.8914-.0616-.6565,7.0445-7.328,16.5825-7.787,9.5197-.4582,17.2622,5.4745,17.2651,6.1264Z"/>
    <path class="cls-13" d="M532.1209,747.4943c6.9897,26.7421,1.5561,50.4529-1.2725,62.796-4.5514,19.8612-12.1474,35.4342-12.694,35.2485-.4539-.1542,3.6758-11.2706,7.5419-29.0502,2.4368-11.2065,4.2876-19.718,5.0393-31.5176,1.6145-25.3435-3.3455-42.0513-4.9554-47.0125-.421-1.2975-.7677-2.2961-.9926-2.9438-7.1583-20.6157-16.9169-32.7825-17.094-32.671-.2181.1374,17.0718,17.0097,24.4272,45.1507Z"/>
    <path class="cls-5" d="M856.0699,806.5743c.1672-1.7242,36.39,1.6254,103.3688.5712,62.1652-.9784,95.3424-4.8771,95.6692-2.613.3214,2.2262-31.3442,8.8334-64.9334,10.7469-12.3397.703-22.1044.611-30.6198.4153-50.4403-1.159-103.6875-7.0281-103.4848-9.1204Z"/>
    <path class="cls-6" d="M931.7712,899.687c-.033,1.5474-30.6115.3252-93.1164,4.034-25.8081,1.5314-44.6072,3.1645-75.1871,3.0255-15.8186-.0719-27.344-.5842-37.0152-1.0085-104.4986-4.5849-131.3058-4.9892-131.2882-6.0509.0281-1.7036,69.078-2.5233,111.0456-2.5213,29.9436.0015,36.393.4208,61.3064,0,42.3328-.715,48.9699-2.3524,78.0789-2.5212,44.4834-.258,86.2146,3.234,86.176,5.0425Z"/>
    <path class="cls-6" d="M956.7128,704.4099c-.027,1.452-25.043.3051-76.1778,3.7852-21.1134,1.4369-36.4928,2.9694-61.51,2.8389-12.9411-.0675-22.3699-.5482-30.2819-.9463-85.4895-4.3022-107.4203-4.6816-107.4059-5.6778.023-1.5986,56.5122-2.3677,90.8455-2.3658,24.4966.0014,29.7728.3949,50.1543,0,34.6321-.671,40.0619-2.2074,63.8757-2.3657,36.3916-.242,70.5315,3.0345,70.5,4.7315Z"/>
  </g>
  <g>
    <path class="cls-37" d="M1122.0437,623.2741c-206.331,75.0492-412.662,150.0982-618.9929,225.1474-2.3941.8295-5.7437,2.2049-9.3674,4.499-35.0942,22.2183-33.0989,90.8626-22.824,132.7908,16.0199,65.372,69.134,135.0381,119.0614,131.375,4.8315-.3545,8.859-1.3389,11.8015-2.2545,206.2922-71.9773,412.5845-143.9545,618.8767-215.9318-32.8518-91.8753-65.7035-183.7507-98.5553-275.626Z"/>
    <ellipse class="cls-23" cx="1171.3213" cy="761.0871" rx="99.1739" ry="146.3581" transform="translate(-187.8642 438.811) rotate(-19.6755)"/>
    <ellipse class="cls-1" cx="1178.7297" cy="765.9798" rx="76.9459" ry="113.5547" transform="translate(-189.079 441.591) rotate(-19.6755)"/>
    <ellipse class="cls-2" cx="1176.5449" cy="766.4109" rx="47.7446" ry="70.4601" transform="translate(-189.3517 440.8805) rotate(-19.6755)"/>
    <path class="cls-10" d="M580.99,884.7032c.9108,2.4053,41.9453-14.4245,129.2961-39.1127,36.0669-10.1937,62.6284-16.8089,104.2709-31.9443,21.5411-7.8294,36.9786-14.2535,49.9356-19.6354,140.0024-58.1524,176.3492-71.8625,175.7312-73.5154-.9916-2.6522-95.6552,29.7499-152.9105,50.2263-40.8513,14.6098-49.4156,18.4121-83.6405,29.9073-58.1548,19.5324-68.1261,20.208-107.934,34.1442-60.8332,21.2968-115.8133,47.1189-114.7488,49.9301Z"/>
    <path class="cls-10" d="M849.6288,900.9277c.673,1.9895-31.4238,11.7048-94.196,39.4956-25.9185,11.4747-44.5614,20.4947-76.1647,31.5947-16.348,5.7419-28.4693,9.3377-38.6379,12.3621-109.8737,32.6794-137.7071,42.049-138.1741,40.6858-.7494-2.1874,70.0933-28.7,113.3792-44.1747,30.8842-11.0411,37.7276-12.8837,63.2308-22.6094,43.3349-16.5258,49.4322-21.0659,79.3777-32.0167,45.7619-16.7348,90.3985-27.6627,91.1851-25.3374Z"/>
    <path class="cls-10" d="M678.8917,1062.6135c.9108,2.4053,41.9453-14.4245,129.2961-39.1127,36.0669-10.1937,62.6284-16.8089,104.2709-31.9443,21.5411-7.8294,36.9786-14.2535,49.9356-19.6354,140.0024-58.1524,176.3492-71.8625,175.7312-73.5154-.9916-2.6522-95.6552,29.7499-152.9105,50.2263-40.8513,14.6098-49.4156,18.4121-83.6405,29.9073-58.1548,19.5324-68.1261,20.208-107.934,34.1442-60.8332,21.2968-115.8133,47.1189-114.7488,49.9301Z"/>
    <path class="cls-21" d="M1044.8573,873.0891c-5.9806-9.5451-36.4961-.5379-53.7932,4.699-52.8965,16.015-86.1709,40.219-86.2015,40.1674-.0383-.0645,57.0319-29.6072,85.4889-36.3529.0003,0,14.3011-3.39,30.8897-1.5524,3.8454.426,6.8947.7638,10.6547,2.4199,5.8521,2.5776,7.5435,5.7582,9.8289,5.0883,3.4097-.9994,5.974-9.9342,3.1325-14.4692Z"/>
    <path class="cls-21" d="M504.3075,879.4959c.2589-11.2386,16.3271-18.7698,44.5765-30.475,51.0582-21.156,92.1355-23.5379,92.1265-23.5971-.0113-.0742-62.8744,13.2676-89.1568,26.095-6.5468,2.0145-11.2496,4.5499-14.3907,6.55-2.4794,1.5787-2.6808,1.993-5.6495,3.8-6.234,3.7943-11.5952,5.7715-11.356,6.508.1563.4813,2.4537-.3395,2.9596.4991.7814,1.2954-4.1704,4.1319-6.1547,9.5428-1.1514,3.1396-.8397,5.8808-.5865,8.108,1.0364,9.1166,7.0382,14.3936,6.507,14.879-.847.7739-19.1532-9.8479-18.8753-21.9097Z"/>
    <path class="cls-9" d="M1100.9255,667.2236c.6343,1.873,11.1933-16.6815,33.1889-23.6892,22.8727-7.2879,42.8413,2.7759,42.3106.7987-.5503-2.0502-22.9928-16.5007-44.2587-10.0229-21.2253,6.4649-31.9141,30.9256-31.2408,32.9134Z"/>
    <path class="cls-7" d="M1237.9495,832.3647c4.9949-7.4545,7.2826-12.6309,6.5492-12.6106-1.7985.0498-13.9959,31.0619-35.8185,37.187-25.5054,7.1588-57.6885-22.0404-57.6938-22.0434-1.9091-1.3542-3.008-1.8381-3.4074-1.6571-.9584.4345,35.5001,38.1271,60.8611,30.1499,11.05-3.4757,18.9636-15.2864,29.5094-31.0259Z"/>
    <path class="cls-12" d="M1137.0311,775.227c8.4023,29.4082,39.331,51.5277,51.2387,46.2742.417-.1839,3.2882-1.4507,3.4372-3.4539.3021-4.0622-10.9523-6.2899-20.9316-11.8719-19.12-10.6952-27.0323-30.0537-28.6308-33.9647-6.7368-16.4825-4.2766-30.816-5.1483-30.8055-.9299.0112-4.9599,16.3406.0347,33.8218Z"/>
    <ellipse class="cls-14" cx="1154.8656" cy="726.0603" rx="3.4878" ry="4.5058" transform="translate(-205.9231 630.4972) rotate(-28.1404)"/>
    <path class="cls-3" d="M1218.8185,706.8517c-.2922.7234,11.8472,16.8691,14.3342,35.2579,1.403,10.3737-1.2678,14.0532-1.4554,21.6711-.079,3.2089.1722,5.2064.6209,7.8673,1.8093,10.7304,8.056,22.108,10.8055,21.5287,3.6858-.7767,3.1036-23.4648-2.3032-43.3534-7.2563-26.6922-21.8846-43.2625-22.002-42.9717Z"/>
    <path class="cls-11" d="M1235.6651,779.4131c1.5762,3.9587,5.3615,6.9233,6.2782,6.3579.6264-.3863.055-2.5085-.4336-3.7014-.8173-1.9954-1.9944-2.8341-2.8669-3.8696-3.2519-3.8595-1.5354-9.5775-2.1081-9.629-.5706-.0513-2.9724,5.5607-.8696,10.842Z"/>
    <path class="cls-11" d="M1118.3553,647.5355c.2042.5793,5.2473-5.7165,14.7066-8.6897,9.8365-3.092,17.8811-.5267,17.7238-1.1428-.1631-.6389-9.1005-4.5284-18.2361-1.7491-9.1182,2.7737-14.4111,10.9669-14.1943,11.5817Z"/>
    <path class="cls-9" d="M1075.9252,757.0292c2.4222,27.5341,15.5219,48.0312,22.3411,58.7012,10.9728,17.1691,23.3686,29.2754,23.8207,28.9166.3754-.298-7.2559-9.3749-16.8825-24.8148-6.0677-9.7318-10.6762-17.1231-15.3568-27.9807-10.0532-23.3203-11.0081-40.7225-11.1627-45.9361-.0404-1.3635-.0502-2.4205-.0565-3.1061-.2008-21.8221,4.8916-36.5643,5.0959-36.5189.2516.056-10.3481,21.7645-7.7992,50.739Z"/>
    <path class="cls-5" d="M1057.7534,814.7216c-.7379-1.5673-33.7181,13.7828-97.1413,35.3413-58.865,20.0093-91.4179,27.5087-90.9634,29.7506.4469,2.2044,32.4882-2.2357,64.7607-11.7432,11.8559-3.4927,21.0196-6.8671,28.9719-9.9184,47.1051-18.0742,95.2674-41.5285,94.372-43.4304Z"/>
    <path class="cls-6" d="M814.8357,1012.8314c.5521,1.4459,28.9337-10.0005,89.0379-27.5531,24.8169-7.2474,43.0683-12.0391,71.816-22.4661,14.8708-5.3937,25.5508-9.7566,34.5145-13.4124,96.8538-39.5011,121.9596-48.9075,121.5856-49.9014-.6001-1.5947-65.8944,20.882-105.411,35.0141-28.1948,10.0832-34.1265,12.6495-57.727,20.6414-40.1019,13.5798-46.9028,14.2727-74.3691,23.9146-41.9731,14.7343-80.0921,32.0729-79.4469,33.7629Z"/>
    <path class="cls-6" d="M792.0644,782.4375c.5143,1.3581,23.6836-8.1445,73.0046-22.0842,20.3645-5.7557,35.3619-9.4908,58.8746-18.0368,12.1628-4.4207,20.8793-8.0479,28.1952-11.0868,79.0497-32.8346,99.5722-40.5758,99.2233-41.5091-.5599-1.4975-54.0099,16.7977-86.338,28.3593-23.0659,8.2491-27.9016,10.3961-47.226,16.8866-32.836,11.0286-38.4661,11.4101-60.9429,19.2788-34.3483,12.0248-65.3918,26.6048-64.7907,28.1921Z"/>
  </g>
  <g>
    <g>
      <path class="cls-28" d="M720.7861,886.6191c-119.5133-44.3319-143.6479-177.4174-146.6684-195.8223-5.209-31.7413-5.254-73.6014,8.7209-78.4874,17.4802-6.1118,42.8442,50.5385,62.6312,45.1897,21.0587-5.6926,5.1349-73.317,25.3698-145.0831,31.2766-110.9258,135.0207-182.3867,153.011-170.4525,10.3796,6.8852-11.4091,39.1265-6.3422,106.2355,2.1627,28.646,5.1439,68.1335,26.1625,76.9016,27.2116,11.3519,53.4277-41.814,91.9648-34.8834,34.1823,6.1476,62.339,56.7487,60.2532,99.8934-2.3366,48.3436-42.3041,80.3224-34.883,88.001,8.9474,9.2586,60.6692-43.8336,81.6585-30.9193,21.5398,13.2531,7.9268,94.3038-34.8834,152.2183-40.8561,55.2706-97.6777,75.0927-122.0917,83.2442-27.6076,9.2182-92.4087,30.8549-164.903,3.9641Z"/>
      <path class="cls-30" d="M729.0925,873.5977c-31.38-22.165-59.4061-62.4724-58.9228-106.3485.5859-53.1921,42.5169-61.1719,58.9228-140.1213,8.3986-40.4162,2.1439-61.1066,14.3714-66.1085,19.9976-8.1805,69.3618,33.812,79.0428,83.3543,5.147,26.3401-2.0548,49.0237,6.4671,52.4556,11.3172,4.5577,27.296-34.7963,47.4258-32.3357,25.1831,3.0783,35.2894,68.9127,35.9285,73.2942,5.8936,40.4102-4.8904,79.0761-7.9111,89.5589-.3483,1.2088-.4991,1.821-.7118,2.4182-11.6224,32.6347-42.7759,58.7166-78.3242,66.8271-48.1739,10.9911-85.4619-15.3469-96.2885-22.9942Z"/>
      <path class="cls-29" d="M778.8704,698.9135c-1.9458,6.4355-8.2096,27.1526,0,43.8327,9.1638,18.6189,34.8764,29.1912,53.1742,23.713,14.745-4.4144,17.2848-17.0391,25.15-15.8087,12.6237,1.9747,22.7458,37.1043,17.2457,67.5457-5.8776,32.5306-32.6471,76.5995-73.2942,78.3243-45.2468,1.9201-74.6824-50.0301-82.6357-84.0728-9.486-40.6033,6.1821-78.872,25.15-101.3186,14.4662-17.1192,36.7007-31.9572,40.24-28.7428,1.7458,1.5856-2.0479,6.6641-5.0299,16.5271Z"/>
    </g>
    <path class="cls-24" d="M640.2987,585.4326c3.5053-2.6702-.1316-10.7638-3.4857-24.3769-24.3696-98.9073,28.5079-236.2423,90.7064-246.8089,29.4909-5.0099,52.4952,19.9368,63.9909,8.3733,10.7516-10.8149,3.2326-45.3157-16.1008-55.5113-33.3134-17.5683-93.1696,41.5276-100.0837,33.6329-7.1743-8.1918,67.5231-60.1165,65.7355-128.2473-.8831-33.6578-20.312-66.6818-31.5069-65.3152-11.4372,1.396-10.5303,38.2294-20.2934,78.5638-24.4602,101.0534-108.5171,193.5995-149.5139,181.815-22.4073-6.4411-37.89-45.7554-28.6748-69.9512,9.18-24.1031,38.3414-21.3172,51.3864-48.3493,12.4417-25.7824,3.2852-64.3136-11.1012-68.2084-24.2483-6.5648-91.8368,77.5578-93.3126,164.6923-2.3657,139.6822,165.7567,252.2579,182.2539,239.6912Z"/>
    <path class="cls-19" d="M628.992,576.5389c10.4304-6.0499-30.1169-54.2118-17.6511-127.9699,11.7218-69.3547,67.0421-141.9706,121.3108-143.1192,27.7002-.5863,48.1984,16.8048,58.1559,7.6099,9.651-8.912,2.4886-37.7526-15.1568-46.4431-30.4056-14.9755-84.1467,33.7108-90.4989,27.0603-6.5915-6.9006,60.6889-49.4618,58.3981-106.2863-1.1321-28.0726-19.0884-55.7983-29.2348-54.7688-10.366,1.0517-9.1813,31.772-17.6458,65.3069-21.2064,84.0175-96.5821,160.3569-133.9036,150.1285-20.3983-5.5906-34.8355-38.5227-26.7097-58.6066,8.0946-20.0066,34.5869-17.3979,46.1602-39.809,11.0382-21.3749,2.3501-53.5919-10.7445-56.9805-21.3016-5.5123-73.5592,65.1942-83.0671,136.4033-18.2274,136.5138,123.031,257.6579,140.5874,247.4747Z"/>
    <path class="cls-24" d="M620.7178,141.607c5.1707-14.2944,20.7782-14.4325,22.3396-25.6493,1.4741-10.5884-10.5635-23.8974-18.4785-22.6152-9.3831,1.5201-13.6813,23.6612-13.2381,38.6114.6614,22.3174,12.1964,39.0056,13.2381,38.6118.9694-.3667-8.9678-14.8417-3.8611-28.9587Z"/>
    <path class="cls-19" d="M618.8369,141.6881c4.0038-11.0685,16.0891-11.1754,17.2981-19.8609,1.1414-8.1988-8.1796-18.5044-14.3084-17.5115-7.2655,1.177-10.5937,18.3214-10.2506,29.8978.5121,17.2809,9.444,30.203,10.2506,29.898.7506-.2839-6.944-11.4923-2.9897-22.4234Z"/>
    <path class="cls-24" d="M762.8555,222.4659c13.1543-7.6177,25.1925,2.317,33.6038-5.2663,7.9401-7.1583,7.2857-25.0917.401-29.2018-8.1617-4.8723-25.6958,9.3141-34.9741,21.0453-13.8505,17.512-15.7547,37.7092-14.7038,38.0778.978.3429,2.6819-17.132,15.6731-24.655Z"/>
    <path class="cls-19" d="M761.3632,221.3179c10.1857-5.8985,19.5072,1.7941,26.0202-4.0778,6.1482-5.5428,5.6415-19.4291.3105-22.6116-6.3198-3.7728-19.8969,7.2121-27.0813,16.2959-10.7248,13.56-12.1992,29.1991-11.3855,29.4845.7573.2655,2.0766-13.2657,12.136-19.0909Z"/>
    <path class="cls-24" d="M760.7855,252.5294c6.1348-3.5987,4.8663-10.7906,9.8933-12.4662,4.7453-1.5818,11.8954,2.8202,11.981,6.5709.1015,4.4463-9.7176,8.3133-16.6332,9.3853-10.3234,1.6004-18.9851-2.282-18.8929-2.7949.0859-.4773,7.5932,2.8589,13.6518-.6951Z"/>
    <path class="cls-19" d="M760.9087,253.4017c4.7503-2.7865,3.7681-8.3554,7.6606-9.6529,3.6744-1.2248,9.2109,2.1837,9.2772,5.088.0786,3.4429-7.5245,6.4372-12.8795,7.2673-7.9937,1.2392-14.7007-1.767-14.6292-2.1641.0665-.3695,5.8796,2.2137,10.5709-.5383Z"/>
    <path class="cls-24" d="M866.522,489.9384c1.1003,2.1817,3.1353,6.0589,5.1714,5.792,2.1294-.279,1.78-4.7114,4.4127-6.8952,4.5375-3.7638,13.5747,2.7662,20.3268,4.2846,19.435,4.3712,31.3342-30.7358,50.5374-31.4408,23.8377-.8753,54.3148,45.8236,59.2505,92.6677,4.2517,40.3556-11.6066,69.8612,1.7424,77.7748,11.8724,7.0379,29.052-13.5511,47.0523-6.619,22.5489,8.6837,16.1881,48.9267,27.8827,51.2983,21.2318,4.3057,81.8373-120.3028,54.0222-140.6568-18.3977-13.4631-60.334,29.7689-74.9346,18.2027-25.3426-20.0764,52.1418-189.0469,137.6706-190.2999,32.3043-.4732,57.2684,23.104,62.7357,16.548,6.8093-8.1651-22.1003-56.5058-60.9933-61.2272-50.1028-6.0825-101.2723,62.1032-116.7583,82.7391-20.2606,26.9984-30.0071,49.9311-36.5957,47.9888-11.5461-3.404,19.9122-73.38-15.6841-124.1085-16.8545-24.0194-45.3482-38.8865-54.0226-33.0959-9.6606,6.4491,13.144,33.2558,3.4852,69.501-7.1213,26.7226-28.3831,45.4215-37.1302,52.3403-.9343.739-1.605,1.2505-2.9507,2.2675-28.3309,21.4071-45.4426,25.8115-65.0847,43.1525-2.1151,1.8676-7.4997,6.7453-10.1357,14.6864-1.0166,3.0631-2.9622,9.2264,0,15.0996Z"/>
    <path class="cls-19" d="M873.7066,497.6707c1.1035-.0497-.1434-6.0127,3.2269-8.5596,6.2781-4.7443,19.9144,8.9127,30,3.0727,1.0059-.5823,1.5113-1.1475,2.2843-1.7649,6.8426-5.4654,26.4436-15.7234,34.2839-17.1031,21.7254-3.8228,63.8607,41.0464,67.5519,93.0282,2.828,39.8251-17.9716,69.0331-6.5589,77.4142,10.1579,7.4597,28.5362-13.7496,47.0519-6.619,22.5489,8.6837,16.1885,48.9267,27.8827,51.2983,21.2318,4.3057,81.8373-120.3028,54.0226-140.6568-18.3977-13.4631-60.3344,29.7689-74.9346,18.2027-25.3429-20.0764,52.1418-189.0469,137.6703-190.2999,32.3047-.4732,57.2688,23.104,62.736,16.548,6.8093-8.1651-22.1003-56.5058-60.9933-61.2272-50.1028-6.0825-101.2723,62.1032-116.7583,82.7391-20.2606,26.9984-30.0071,49.9311-36.5957,47.9888-11.5461-3.404,19.9122-73.38-15.6841-124.1085-16.8545-24.0194-45.3482-38.8865-54.0226-33.0959-9.6606,6.4491,13.144,33.2558,3.4852,69.501-7.1216,26.7237-28.3856,45.4229-37.1309,52.3414-.9433.7462-1.6104,1.2548-2.95,2.2664-40.8543,30.8545-63.6128,30.2224-68.8224,47.7652-2.9779,10.028,2.7333,21.3377,4.2553,21.269Z"/>
    <path class="cls-24" d="M1068.2124,344.2321c6.9404-13.5239,22.4396-11.6831,25.4099-22.6116,2.804-10.3162-7.45-25.0434-15.4637-24.7746-9.5.3188-16.5694,21.7367-18.0243,36.6226-2.172,22.2213,7.1552,40.2367,8.2384,39.9781,1.008-.2409-7.0147-15.8585-.1603-29.2145Z"/>
    <path class="cls-19" d="M1066.3364,344.0742c5.3741-10.4719,17.3755-9.0465,19.6755-17.5087,2.1712-7.9881-5.7687-19.3917-11.9739-19.1835-7.3561.2468-12.8301,16.8313-13.9566,28.3578-1.6819,17.2065,5.5405,31.1563,6.3792,30.956.7805-.1865-5.4316-12.2796-.1241-22.6215Z"/>
    <path class="cls-24" d="M1082.7389,370.6345c3.2119-6.3458-1.7464-11.7076,1.5745-15.8368,3.1347-3.8979,11.5295-4.0649,13.631-.957,2.4912,3.6843-3.6738,12.2493-8.9095,16.8928-7.8157,6.9318-17.2006,8.3537-17.4004,7.8725-.186-.4479,7.9325-1.7044,11.1045-7.9715Z"/>
    <path class="cls-19" d="M1083.3145,371.3013c2.487-4.9137-1.3523-9.0655,1.2191-12.2628,2.4273-3.0182,8.9276-3.1475,10.5548-.741,1.929,2.8528-2.8447,9.4849-6.8988,13.0805-6.0519,5.3675-13.3188,6.4685-13.4736,6.0959-.144-.3468,6.1423-1.3197,8.5984-6.1725Z"/>
    <path class="cls-24" d="M1115.605,491.8694c15.1812.7735,19.8685,15.6612,31.0527,13.8808,10.5576-1.6804,19.7738-17.0784,16.2373-24.2745-4.1925-8.5309-26.624-6.1797-40.794-1.3924-21.1527,7.1463-33.7476,23.0498-33.0669,23.9311.6336.8202,11.5781-12.9091,26.5709-12.145Z"/>
    <path class="cls-19" d="M1114.9785,490.094c11.7551.599,15.3847,12.1269,24.0448,10.7483,8.175-1.3012,15.3114-13.2242,12.573-18.7964-3.2463-6.6056-20.6156-4.7851-31.5878-1.0782-16.379,5.5335-26.1316,17.848-25.6045,18.5304.4906.6351,8.9652-9.9958,20.5745-9.4042Z"/>
    <path class="cls-24" d="M1097.4986,515.958c7.1051.3221,9.9573-6.4008,15.086-5.0689,4.8414,1.2572,8.4416,8.8427,6.471,12.0352-2.336,3.7846-12.6773,1.6813-19.0615-1.1852-9.5302-4.279-14.6811-12.2519-14.3245-12.6317.332-.3535,4.812,6.5325,11.8289,6.8506Z"/>
    <path class="cls-19" d="M1097.127,516.7567c5.5016.2494,7.7102-4.9563,11.6815-3.925,3.7488.9735,6.5365,6.8471,5.0107,9.3191-1.8088,2.9305-9.8164,1.3019-14.7598-.9177-7.3794-3.3134-11.368-9.4869-11.0918-9.7811.257-.2737,3.726,5.0583,9.1594,5.3046Z"/>
    <path class="cls-24" d="M897.9767,384.4558c19.185-51.9279-.2801-68.1353,16.5476-100.9415,27.4291-53.4732,97.8426-46.8631,100.9418-77.7748,3.5063-34.9696-85.8633-50.8461-89.3581-99.2871-3.3353-46.2299,74.6202-79.4811,66.1911-95.9774-5.7437-11.2408-47.5842-6.8462-77.7748,13.2383-36.746,24.4455-61.1521,75.4053-47.9884,114.1799,15.0685,44.3849,71.8569,50.6873,69.5007,77.7748-1.8959,21.793-38.6118,17.2294-57.9173,49.6435-23.5734,39.5794,14.0089,75.195-6.619,143.9659-7.9343,26.4518-20.1973,43.5292-18.2027,44.6792,2.7483,1.5846,29.6272-28.7601,44.6792-69.501Z"/>
    <path class="cls-19" d="M888.3955,388.1806c18.8448-54.6282,1.5542-71.712,16.5476-100.9415,27.4291-53.4732,97.8426-46.8631,100.9418-77.7748,3.5063-34.9696-85.8633-50.8461-89.3581-99.2871-3.3353-46.2299,74.6202-79.4811,66.1911-95.9774-5.7437-11.2408-47.5842-6.8462-77.7748,13.2383-36.746,24.4455-61.1521,75.4053-47.9884,114.1799,15.0685,44.3849,71.8569,50.6873,69.5007,77.7748-1.9216,22.091-42.685,17.6007-57.9173,49.6435-15.9098,33.4679,18.5694,58.3849,9.0296,119.5563-4.476,28.7025-16.206,49.7569-14.4793,50.4709,1.8443.7626,15.7098-23.0618,25.3072-50.883Z"/>
    <path class="cls-24" d="M980.5941,105.9635c11.4532-9.9945,25.1702-2.5475,31.9746-11.6004,6.4233-8.5456,2.3487-26.0223-5.1953-28.7387-8.9433-3.2202-23.4382,14.0599-30.2996,27.35-10.2428,19.8391-8.2462,40.0274-7.1443,40.188,1.0256.1494-.6466-17.3285,10.6646-27.1989Z"/>
    <path class="cls-19" d="M978.9097,105.1223c8.8685-7.739,19.4899-1.9726,24.7587-8.9825,4.9737-6.6171,1.8187-20.1497-4.0229-22.2531-6.925-2.4935-18.1488,10.8869-23.4617,21.1777-7.9313,15.3619-6.3853,30.9942-5.532,31.1186.7941.1157-.5007-13.4179,8.2578-21.0608Z"/>
    <path class="cls-24" d="M838.6802,168.0933c2.646,10.4165,11.9646,12.62,38.0602,31.4408,25.7783,18.5923,25.887,23.079,25.6491,24.8218-1.6126,11.8123-34.3272,8.756-42.1971,27.3039-6.0256,14.201,7.4192,29.5042,3.3095,32.2682-4.6506,3.1278-27.3415-12.7902-25.6491-27.3039,1.7871-15.3271,29.2695-16.2403,31.4412-32.2682,1.7224-12.7126-13.6384-26.3703-23.9944-35.5781-14.3227-12.7344-22.761-13.6051-23.9944-21.5119-2.1062-13.5028,19.6858-29.0245,23.167-26.4765,2.8059,2.0536-9.2557,13.6673-5.792,27.3039Z"/>
    <path class="cls-19" d="M834.6501,168.6308c2.646,10.4165,11.9646,12.62,38.0602,31.4408,25.7783,18.5923,25.887,23.079,25.6491,24.8218-1.6126,11.8123-34.3272,8.756-42.1971,27.3039-6.0256,14.201,7.4192,29.5042,3.3095,32.2682-4.6506,3.1278-27.3415-12.7902-25.6491-27.3039,1.7871-15.3271,29.2695-16.2403,31.4412-32.2682,1.7224-12.7126-13.6384-26.3703-23.9944-35.5781-14.3227-12.7344-22.761-13.6051-23.9944-21.5119-2.1062-13.5028,19.6858-29.0245,23.167-26.4765,2.8059,2.0536-9.2557,13.6673-5.792,27.3039Z"/>
    <path class="cls-34" d="M1014.4181,410.9227c6.9095-7.8818,11.7439-22.9685,2.4821-54.6078,5.8804,13.6806,12.8171,36.6769,4.1373,58.7447-3.4326,8.7274-12.4325,25.2532-19.8575,23.9944-3.0648-.5198-5.758-4.0521-6.0675-7.4464-.7326-8.042,12.1678-12.5431,19.3055-20.6849Z"/>
    <path class="cls-34" d="M1037.9506,582.8044c-6.9095-7.8818-11.7439-22.9685-2.4821-54.6078-5.8804,13.6806-12.8171,36.6769-4.1373,58.7447,3.4326,8.7274,12.4325,25.2532,19.8575,23.9944,3.0648-.5198,5.758-4.0521,6.0675-7.4464.7326-8.042-12.1678-12.5431-19.3055-20.6849Z"/>
    <path class="cls-34" d="M530.5071,270.9459c-6.9095,7.8818-11.7439,22.9685-2.4821,54.6078-5.8804-13.6806-12.8171-36.6769-4.1373-58.7447,3.4326-8.7274,12.4325-25.2532,19.8575-23.9944,3.0648.5198,5.758,4.0521,6.0675,7.4464.7326,8.042-12.1678,12.5431-19.3055,20.6849Z"/>
    <path class="cls-34" d="M729.2977,195.0497c2.4376,10.1942-.3199,25.7947-23.2653,49.4661,11.5807-9.3608,28.4394-26.4703,31.05-50.0395,1.0326-9.3211.776-28.1369-6.3794-30.4853-2.9537-.9692-6.9832.9-8.8395,3.7585-4.3977,6.7728,4.916,16.7695,7.4342,27.3002Z"/>
    <path class="cls-34" d="M894.9093,98.1373c-2.4376,10.1942.3199,25.7947,23.2653,49.4661-11.5807-9.3608-28.4394-26.4703-31.05-50.0395-1.0326-9.3211-.776-28.1369,6.3794-30.4853,2.9537-.9692,6.9832.9,8.8395,3.7585,4.3977,6.7728-4.916,16.7695-7.4342,27.3002Z"/>
    <path class="cls-34" d="M591.8394,474.6992c-3.1237-.828-4.5166,1.7333-8.3088,1.4687-15.7339-1.0982-22.1504-47.3144-25.8159-46.7657-2.7402.4105-5.7806,27.2731,5.6092,56.4344,10.9722,28.0924,26.2503,48.3725,34.1247,45.2969,10.1688-3.9717,7.1194-53.0599-5.6092-56.4344Z"/>
    <path class="cls-34" d="M961.6229,207.8372c2.5241-1.046,4.8167-.45,8.176-1.4515,13.9372-4.155,1.3933-22.4427,4.9607-23.119,2.667-.5055,16.143,8.5076,17.3511,21.7995,1.1638,12.8048-4.7176,23.8053-13.1367,24.5705-10.8721.9881-27.6361-17.5368-17.3511-21.7995Z"/>
    <path class="cls-34" d="M601.2224,394.0922c-1.7371-.1463,1.6573-40.3205,29.0686-62.2627,11.3459-9.082,26.7947-15.0139,28.087-12.3873.8983,1.826-4.7337,8.4236-10.0223,12.6352-4.9835,3.9687-9.4345,5.4425-10.5743,6.0984-24.581,14.1476-35.2534,56.0263-36.559,55.9164Z"/>
    <path class="cls-34" d="M1095.3733,426.602c-1.6996-.3874,7.2712-39.6941,37.4778-57.5937,12.5029-7.4088,28.6287-11.1254,29.5415-8.3441.6345,1.9335-5.8635,7.6801-11.6884,11.112-5.4889,3.234-10.102,4.0718-11.3222,4.5621-26.3157,10.5767-42.7312,50.5549-44.0086,50.2637Z"/>
    <ellipse class="cls-34" cx="1218.9217" cy="358.6592" rx="4.5507" ry="13.652" transform="translate(481.3259 1393.2407) rotate(-70.9095)"/>
    <ellipse class="cls-34" cx="987.3632" cy="322.505" rx="5.1022" ry="7.0328"/>
    <ellipse class="cls-34" cx="771.8547" cy="291.0889" rx="8.6876" ry="7.5844"/>
    <ellipse class="cls-34" cx="509.7096" cy="388.5831" rx="3.3096" ry="9.1013"/>
    <ellipse class="cls-34" cx="625.4065" cy="117.0609" rx="3.9991" ry="5.9296"/>
    <path class="cls-34" d="M888.1033,221.864c.0021,4.813-6.8022,7.4117-7.4468,6.7568-.5022-.5101,2.8077-2.9189,2.7583-6.8948-.0479-3.8658-3.2333-6.1315-2.7583-6.619.6249-.6414,7.4446,1.9395,7.4468,6.7571Z"/>
    <path class="cls-34" d="M1132.9099,578.4655c-.9684.1446-.5308-8.7831-6.9076-13.9236-7.0277-5.665-16.9741-2.4124-17.147-3.6429-.1961-1.3945,12.1566-8.5621,20.3224-2.5758,8.1984,6.0101,4.9258,19.9642,3.7323,20.1424Z"/>
    <ellipse class="cls-34" cx="1122.6686" cy="569.0923" rx="2.0685" ry="3.0338"/>
    <path class="cls-34" d="M1132.8132,498.0568c-.0316-.6818,5.8533-1.2299,9.6809-6.308,4.2182-5.5963,2.7224-12.428,3.549-12.671.9368-.2757,4.8665,7.9066.3601,14.3515-4.5243,6.4707-13.5511,5.4678-13.59,4.6275Z"/>
    <path class="cls-34" d="M1110.0466,519.4573c-.154-.0253.0029-1.3674-.951-2.4645-1.0513-1.209-2.6501-1.1989-2.6652-1.3953-.0172-.2226,1.9992-.7129,3.2266.6009,1.2323,1.319.5794,3.2901.3896,3.2589Z"/>
    <path class="cls-34" d="M1068.9043,312.7842c-.0273.5889,5.0561,1.0624,8.3624,5.4488,3.6437,4.8341,2.3516,10.7353,3.0656,10.9453.8092.2381,4.2037-6.8297.3111-12.3969-3.9081-5.5894-11.7055-4.7231-11.7391-3.9972Z"/>
    <path class="cls-34" d="M1092.4113,360.1699c-.1131.1075-1.0883-.8278-2.5388-.7298-1.5985.1081-2.5557,1.3887-2.7214,1.2822-.1878-.1207.6387-2.0242,2.427-2.2094,1.7955-.186,2.9726,1.5245,2.8332,1.657Z"/>
    <ellipse class="cls-34" cx="1090.6323" cy="363.6998" rx=".7268" ry=".623"/>
    <ellipse class="cls-34" cx="1073.0851" cy="325.2309" rx=".8306" ry="2.5438"/>
    <path class="cls-34" d="M903.3628,469.0915c.4886,1.1404,5.9784-.0483,9.3773-1.1032,5.435-1.687,10.6136-4.6119,22.6151-15.4444,4.603-4.1548,7.7269-6.9742,12.1353-11.5837,8.2974-8.6759,19.4425-21.9125,18.2027-23.167-1.0935-1.1068-11.6863,7.2518-19.3059,14.3416-9.4632,8.8054-8.937,10.6261-16.548,17.6508-13.8855,12.816-27.2585,17.4809-26.4765,19.3059Z"/>
    <path class="cls-34" d="M989.3982,80.012c-.0273.5889,5.0561,1.0624,8.3624,5.4488,3.6437,4.8341,2.3516,10.7353,3.0656,10.9453.8092.2381,4.2037-6.8297.3111-12.3969-3.9081-5.5894-11.7055-4.7231-11.7391-3.9972Z"/>
    <path class="cls-34" d="M780.9351,196.2428c-.3458.4775,3.6454,3.6611,4.0047,9.1423.3959,6.0405-3.9207,10.2667-3.4388,10.8338.5461.6429,7.2606-3.4058,7.0585-10.1959-.2028-6.8172-7.1982-10.3688-7.6244-9.7802Z"/>
    <ellipse class="cls-34" cx="769.3762" cy="247.6946" rx="1.3763" ry="1.8971"/>
    <path class="cls-35" d="M1018.0462,728.8771c.1511,14.7013-8.4897,35.1741-47.2567,60.3816,18.7586-9.1856,47.1536-27.3199,58.0811-58.7356,4.3217-12.4242,9.8445-38.2346.7927-43.6796-3.7365-2.2474-9.8303-.9492-13.2612,2.3803-8.128,7.8889,1.4877,24.4667,1.644,39.6533Z"/>
    <path class="cls-35" d="M954.1259,551.0415c33.1199,37.9157-5.356,100.5755-8.0907,100.0275-2.5816-.5172,21.7033-58.3616-5.2297-90.2009-24.536-29.0055-76.7521-18.9024-76.682-21.4969.0751-2.7701,59.8386-22.8615,90.0024,11.6702Z"/>
    <path class="cls-35" d="M693.6807,581.2922c-8.8841-2.2249-9.3108-53.1616,9.3773-99.8383,8.8501-22.1043,22.8594-45.4329,46.3336-62.882,10.7731-8.008,29.0391-18.8656,33.6475-14.3413,6.5017,6.3826-27.2993,31.9502-23.9944,66.1911,3.7334,38.679,44.8327,61.5087,38.8872,70.3284-5.3177,7.8882-35.0701-15.012-64.5364-4.1369-28.1964,10.4065-32.1909,46.5633-39.715,44.6789Z"/>
    <path class="cls-35" d="M658.7337,831.9916c-.9325.768-24.7341-19.8739-43.517-54.0559-5.7588-10.4801-11.9489-29.2345-24.3292-66.7431-1.9191-5.8142-6.8376-21.2579-6.8948-41.6455-.0347-12.3953-.0533-19.0154,4.1369-22.0638,14.1327-10.2816,67.6384,26.254,62.882,44.1277-1.7649,6.6323-11.7822,11.5576-19.8575,10.7559-12.6418-1.2548-17.2319-16.2164-21.7487-14.8928-6.3726,1.8672-7.4961,34.6552,4.6491,70.0522,15.9112,46.3726,45.7381,73.5932,44.6792,74.4653Z"/>
    <path class="cls-35" d="M811.8219,581.3634c-5.3184,6.1508,11.2714,19.7573,17.1375,48.4692,4.9575,24.2652-1.0073,43.3464,3.8611,44.6792,4.3276,1.1851,7.2043-14.396,21.5122-20.4091,13.5636-5.7004,24.9133,2.4449,28.6829-3.0302,3.5495-5.1557-2.2282-18.6048-10.4805-20.6884-10.9831-2.773-20.5697,16.0443-27.0281,13.2384-8.9617-3.8933,7.8317-40.8471-8.2738-57.2305-7.6929-7.8256-21.5047-9.5469-25.4113-5.0287Z"/>
    <path class="cls-35" d="M875.9737,877.2224c1.5092,2.1731,22.3564-4.9811,36.5356-22.4806,15.4044-19.0115,15.2409-40.733,15.1851-48.1233-.1152-15.2981-4.5343-28.8689-6.0675-28.6829-2.006.2432,5.1127,23.5279-3.0309,47.9884-11.2625,33.8285-44.5812,48.4778-42.6224,51.2983Z"/>
    <path class="cls-27" d="M784.2279,710.5785c-6.9531,8.1068-2.206,22.1633,2.6352,29.5807,11.2989,17.3117,39.5851,23.7007,53.3451,12.9076,7.5459-5.9186,10.6991-16.9858,8.0674-19.3027-3.1951-2.8127-13.0324,10.933-25.2782,8.5464-8.6558-1.687-16.2833-10.9713-18.28-19.8693-1.9388-8.6405,2.1713-13.6198-1.0817-16.7032-3.8328-3.6329-14.2339-1.1915-19.4078,4.8405Z"/>
    <path class="cls-32" d="M820.2064,869.654c-1.663,9.6109-27.7611,17.9845-45.7889,8.6741-17.7538-9.1691-21.1091-33.8518-19.5105-34.6523,1.5957-.7991,13.8287,27.5865,21.9823,25.5304,5.7208-1.4426,2.7823-16.1802,10.5696-20.2646,10.3532-5.43,34.4817,10.6891,32.7475,20.7124Z"/>
    <ellipse class="cls-32" cx="743.1352" cy="832.0123" rx="6.4385" ry="10.2556"/>
    <path class="cls-22" d="M712.9109,535.6938c-3.7577-.9411-3.9382-22.4861,3.9664-42.2292,3.7434-9.3496,9.669-19.217,19.598-26.5976,4.5568-3.3872,12.2829-7.9797,14.2321-6.066,2.7501,2.6997-11.5469,13.5142-10.1491,27.9973,1.5791,16.3603,18.9632,26.0167,16.4484,29.7472-2.2493,3.3365-14.8338-6.3497-27.2973-1.7498-11.9264,4.4017-13.616,19.6952-16.7985,18.8981Z"/>
    <path class="cls-22" d="M824.2912,604.41c-3.3497,3.8739,7.099,12.4437,10.7936,30.5272,3.1224,15.2829-.6344,27.3007,2.4318,28.1402,2.7256.7464,4.5374-9.067,13.549-12.8542,8.5427-3.5903,15.6911,1.5399,18.0652-1.9085,2.2356-3.2472-1.4034-11.7178-6.6009-13.0301-6.9174-1.7465-12.9553,10.1051-17.023,8.3379-5.6443-2.4521,4.9326-25.7266-5.2111-36.0453-4.8452-4.9288-13.5443-6.0129-16.0047-3.1672Z"/>
    <path class="cls-22" d="M640.7041,814.7007c-.5355.3488-19.0884-20.9839-33.3377-52.8711-6.9374-15.5249-13.1665-34.149-20.0528-55.0117-1.5818-4.7922-5.6357-17.5213-5.6829-34.3254-.0286-10.2165-.0436-15.673,3.41-18.1856,11.6484-8.4745,55.7493,21.6392,51.8288,36.3715-1.4544,5.4665-9.7111,9.5258-16.367,8.8651-10.4197-1.0341-14.2032-13.3658-17.9259-12.2751-5.0104,1.468-5.1145,27.1569,3.8318,57.7392,12.3925,42.3631,34.8934,69.3043,34.2957,69.6931Z"/>
    <path class="cls-22" d="M949.9436,555.7142c31.7577,37.9833-5.3195,100.5848-8.0907,100.0275-2.5887-.5205,21.4425-56.8349-5.2297-90.2009-23.6005-29.5235-72.7708-23.4063-72.4997-26.1696.2915-2.9715,57.8461-17.1146,85.82,16.343Z"/>
    <path class="cls-22" d="M1018.4367,731.4589c.5168,11.4428-4.8915,28.044-32.7093,49.4846,29.0957-18.0949,38.0092-38.7382,41.0914-48.2097,2.7757-8.5297,7.8202-29.4901.6136-33.8246-2.8936-1.7406-7.6125-.7351-10.2692,1.8434-6.2713,6.0867.7446,18.9951,1.2734,30.7063Z"/>
    <path class="cls-16" d="M783.2063,721.6138c-4.4882,8.4158,6.0717,20.4484,6.932,21.4064,10.9241,12.1642,31.2498,15.3335,43.2659,8.0681,6.1197-3.7001,8.6773-10.6172,6.5428-12.0655-2.47-1.6755-10.1625,6.7564-20.5017,5.342-6.3411-.8674-12.6049-5.3581-14.6707-10.6046-1.9012-4.8284,1.4133-7.7147-1.0331-12.2547-1.7166-3.1861-5.2862-5.6396-9.2278-5.9591-4.8616-.3938-9.421,2.5297-11.3075,6.0675Z"/>
    <circle class="cls-17" cx="799.9553" cy="729.6154" r="2.9593"/>
    <circle class="cls-26" cx="742.7076" cy="835.7226" r="3.7103"/>
    <path class="cls-26" d="M808.4301,869.1872c.2933,5.8471-12.0816,12.9065-22.6598,11.4173-9.8427-1.3858-16.3144-9.9175-15.8129-10.6408.5823-.8403,11.2947,7.8163,15.1261,4.7736,3.287-2.6102-2.1323-10.938,1.1905-14.244,4.359-4.3369,21.8156,1.908,22.1561,8.6938Z"/>
    <path class="cls-17" d="M833.4099,611.0746c-1.9505,1.6852-1.6249,4.2-2.3633,4.2351-1.0172.0484-3.1996-4.6499-1.4987-6.78,2.1242-2.6606,8.9629.3676,8.8851,1.0581-.0497.4433-2.919-.3307-5.0231,1.4868Z"/>
    <path class="cls-17" d="M859.9564,642.2891c-.2723-2.1578-1.4453-2.9744-1.2856-3.5376.2199-.7758,2.7844-.4192,3.3097,1.7405.6562,2.6974-2.2838,6.5018-2.5663,6.1534-.1814-.2235.8357-2.0286.5422-4.3562Z"/>
    <path class="cls-17" d="M1021.9339,707.0239c-3.156,1.7641-3.4194,5.3115-4.444,5.1509-1.4114-.2213-3.0817-7.2929-.1425-9.7389,3.6703-3.0546,12.21,3.0386,11.9079,3.9653-.1937.5951-3.9171-1.2794-7.3215.6227Z"/>
    <path class="cls-17" d="M942.2086,560.7288c-3.9162-3.6106-7.4018-3.2879-7.9919-4.5945-.8129-1.7998,4.5519-5.1806,8.9449-1.9658,5.4868,4.0149,5.9876,15.7796,4.9086,15.5732-.6925-.1322-1.6376-5.1178-5.8616-9.0129Z"/>
    <circle class="cls-17" cx="929.2667" cy="551.9637" r="1.5574"/>
    <circle class="cls-17" cx="838.5968" cy="613.507" r="1.0123"/>
    <path class="cls-17" d="M628.1546,686.1913c.4543,2.4836-1.2216,4.9618-3.2444,6.0403-3.6848,1.9645-8.414-.7727-8.3064-1.7943.1327-1.2595,7.6489-.21,8.8254-3.2934.8206-2.1502-2.0275-4.7761-1.5206-5.1986.4772-.3978,3.7141,1.3378,4.246,4.246Z"/>
  </g>
  <g>
    <path class="cls-31" d="M1198.837,976.3704c-210.8286-61.2874-421.6572-122.5748-632.4858-183.8622-2.4219-.7445-5.9372-1.6127-10.2163-1.9013-41.442-2.7953-80.3706,53.7784-96.8401,93.6821-25.6783,62.2154-23.9579,149.8026,18.4963,176.3318,4.1083,2.5672,7.9398,4.1513,10.8551,5.1501,208.9832,63.7435,417.9664,127.487,626.9496,191.2305,27.7471-93.5436,55.4941-187.0873,83.2412-280.6309Z"/>
    <ellipse class="cls-23" cx="1157.2164" cy="1116.6859" rx="146.3581" ry="99.1739" transform="translate(-242.4484 1908.5669) rotate(-73.4785)"/>
    <ellipse class="cls-1" cx="1160.3055" cy="1125.0094" rx="113.5547" ry="76.9459" transform="translate(-248.2176 1917.485) rotate(-73.4785)"/>
    <ellipse class="cls-2" cx="1158.2877" cy="1124.067" rx="70.4601" ry="47.7446" transform="translate(-248.7581 1914.8761) rotate(-73.4785)"/>
    <path class="cls-10" d="M607.821,867.8153c-.6854,2.479,42.368,13.1309,127.4393,44.7939,35.1257,13.0736,60.4673,23.4214,103.0108,35.7997,22.0073,6.4031,38.259,10.3358,51.8936,13.6445,147.3234,35.7518,184.7517,46.1529,185.2291,44.4541.766-2.7259-94.7621-32.4825-153.0593-49.7711-41.5947-12.3353-50.7515-14.3246-85.1593-25.2601-58.4656-18.5816-66.9113-23.9251-107.2661-36.1877-61.669-18.7395-121.2871-30.3705-122.0882-27.4732Z"/>
    <path class="cls-10" d="M815.0287,1039.5564c-.6318,2.003-32.2711-9.112-99.34-23.756-27.6926-6.0465-48.0641-9.7773-80.123-19.4834-16.5836-5.0209-28.489-9.2774-38.4811-12.842-107.9664-38.5153-135.961-47.3915-135.5329-48.7675.687-2.2078,73.5138,18.2339,117.584,31.3089,31.4437,9.329,38.0545,11.8835,64.379,19.0962,44.7304,12.2558,52.3321,12.1928,82.965,21.0403,46.8124,13.5204,89.2874,31.0624,88.5489,33.4034Z"/>
    <path class="cls-10" d="M587.0364,1067.5979c-.6854,2.479,42.368,13.1309,127.4393,44.7939,35.1257,13.0736,60.4673,23.4214,103.0108,35.7997,22.0073,6.4031,38.259,10.3358,51.8936,13.6445,147.3234,35.7518,184.7517,46.1529,185.2291,44.4541.766-2.7259-94.7621-32.4825-153.0593-49.7711-41.5947-12.3353-50.7515-14.3246-85.1593-25.2601-58.4656-18.5816-66.9113-23.9251-107.2661-36.1877-61.669-18.7395-121.2871-30.3705-122.0882-27.4732Z"/>
    <path class="cls-21" d="M989.0168,1132.3856c.8107-11.2347-29.1344-21.9873-46.1857-27.9762-52.1449-18.3147-93.291-18.433-93.2852-18.4926.0072-.0747,63.5091,9.7881,90.4575,21.1501.0003,0,13.5429,5.71,25.8445,16.9895,2.8516,2.6147,5.1129,4.6882,7.1691,8.2451,3.2004,5.5361,2.687,9.1018,4.9269,9.9108,3.3418,1.2071,10.6877-4.4888,11.0729-9.8266Z"/>
    <path class="cls-21" d="M549.014,818.3271c6.8461-8.9166,24.2606-5.5049,53.9703,1.7322,53.6975,13.0804,88.2532,35.417,88.2809,35.3638.0347-.0665-58.5744-26.4245-87.3595-31.5942-6.4729-2.2406-11.7654-2.9719-15.4813-3.2128-2.9332-.1902-3.3404.0251-6.8033-.2699-7.2716-.6195-12.7656-2.1902-13.0075-1.4545-.1581.4807,2.1806,1.1751,2.0936,2.1506-.1344,1.5068-5.8056.8715-10.6024,4.0662-2.7833,1.8537-4.1506,4.2499-5.2616,6.1967-4.5475,7.9691-2.8205,15.772-3.5359,15.85-1.1405.1243-9.6406-19.2583-2.2932-28.828Z"/>
    <path class="cls-9" d="M1155.8399,999.3657c-.5942,1.8861,18.8844-6.8515,40.7731.4831,22.7621,7.6265,32.9332,27.5407,33.6726,25.6316.7667-1.9794-8.8103-26.8946-29.7972-34.2259-20.9466-7.3178-44.018,6.1094-44.6485,8.1112Z"/>
    <path class="cls-7" d="M1168.8909,1213.5544c8.4332-3.066,13.3363-5.8922,12.7325-6.3089-1.4808-1.0219-29.6386,16.8012-50.8665,8.8566-24.8103-9.2855-33.5379-51.8551-33.5404-51.8607-.7409-2.2203-1.3419-3.2598-1.7711-3.3495-1.03-.2154,6.1319,51.7333,31.3089,60.273,10.9699,3.7209,24.3311-1.1368,42.1366-7.6105Z"/>
    <path class="cls-12" d="M1121.194,1107.8461c-10.5868,28.6943,1.3095,64.8098,14.0214,67.6026.4451.0978,3.5103.7712,4.8135-.7574,2.6428-3.0998-5.1239-11.5439-9.8805-21.9419-9.1136-19.9225-4.0663-40.2173-3.0466-44.3175,4.2974-17.2797,14.7476-27.3939,14.038-27.9002-.7571-.5401-13.6528,10.2576-19.9459,27.3144Z"/>
    <ellipse class="cls-14" cx="1164.6224" cy="1078.7014" rx="4.5058" ry="3.4878" transform="translate(-66.6555 2080.6478) rotate(-81.9434)"/>
    <path class="cls-3" d="M1227.5757,1100.9684c-.663.4112-.4017,20.6097-9.2544,36.9181-4.9941,9.2001-9.3223,10.5921-13.9727,16.6289-1.9589,2.5429-2.9357,4.3032-4.1451,6.7155-4.8769,9.7278-6.555,22.5985-3.9941,23.7548,3.4331,1.5499,16.362-17.1031,23.7443-36.346,9.9077-25.8257,7.8885-47.8367,7.622-47.6714Z"/>
    <path class="cls-11" d="M1198.3187,1169.4739c-1.0659,4.1255.238,8.7533,1.3117,8.8384.7337.0582,1.5258-1.9919,1.836-3.243.5189-2.0929.0643-3.4649-.0283-4.8158-.345-5.035,4.417-8.6357,3.9853-9.0155-.4302-.3783-5.6827,2.732-7.1047,8.2359Z"/>
    <path class="cls-11" d="M1181.5327,993.7709c-.1774.5881,7.6105-1.5143,17,1.6727,9.764,3.3139,14.7409,10.1349,14.9779,9.5448.2457-.6119-4.6697-9.0288-13.6834-12.1811-8.9964-3.1465-18.1063.3395-18.2944.9637Z"/>
    <path class="cls-9" d="M1082.6291,1057.0738c-14.3059,23.6503-15.8394,47.9274-16.6376,60.5652-1.2845,20.3355,1.5693,37.4257,2.1461,37.4031.479-.0188-.319-11.8505,1.0307-29.9955.8507-11.4368,1.4967-20.1232,4.1316-31.6494,5.6592-24.7563,15.1657-39.3637,18.12-43.6624.7726-1.1242,1.389-1.983,1.7887-2.54,12.7253-17.7289,25.541-26.6183,25.679-26.461.17.1937-21.2041,11.4526-36.2584,36.34Z"/>
    <path class="cls-5" d="M755.254,1021.5915c.3301-1.7006-35.3498-8.7901-99.2635-28.8479-59.3203-18.6162-90.019-31.7887-90.9763-29.7111-.9412,2.0429,27.5381,17.3822,59.1964,28.7686,11.6303,4.1831,21.0181,6.8717,29.2375,9.1057,48.6873,13.2328,101.4052,22.7482,101.8058,20.6847Z"/>
    <path class="cls-6" d="M656.1994,1089.3323c-.4084,1.4929,29.2552,9.0169,88.1247,30.3474,24.3071,8.8073,41.8656,15.719,71.2225,24.2819,15.186,4.4294,26.3812,7.2159,35.7738,9.5593,101.488,25.3212,127.3034,32.5569,127.5885,31.534.4575-1.6413-65.5084-22.0632-105.7439-33.9957-28.7078-8.5138-35.0101-9.9458-58.7753-17.434-40.3817-12.7239-46.2791-16.1811-74.1383-24.6208-42.5735-12.8973-83.5747-21.4168-84.0521-19.672Z"/>
    <path class="cls-6" d="M687.8194,895.0248c-.387,1.3997,23.9223,7.4141,71.9562,25.292,19.8331,7.3817,34.1417,13.2244,58.1631,20.2136,12.426,3.6154,21.6022,5.8359,29.3007,7.7041,83.1834,20.1866,104.3165,26.0594,104.5861,25.1002.4325-1.5391-53.5056-18.3406-86.422-28.1023-23.4856-6.9649-28.6559-8.0881-48.0836-14.2626-33.0115-10.4918-37.7802-13.5088-60.5658-20.4327-34.8202-10.5809-68.4824-17.1481-68.9348-15.5122Z"/>
  </g>
  <path class="cls-4" d="M666.6295,821.8595l107.5609,33.0959,102.5966,28.1313c31.6329,34.5064,46.5272,52.7102,44.6792,54.6078-1.4924,1.5324-13.902-7.568-37.2325-27.3039-25.8051,5.2665-46.0736,4.5662-58.7451,3.3095-85.8816-8.517-138.713-83.3393-177.0615-63.7093-1.1919.6099-27.0785,13.9578-37.7841,9.7908-5.1746-2.0139-7.7208-5.7899-7.7222-5.7917-2.0089-2.9783-2.3902-6.0481-2.4696-7.6721-.3706-6.7335-1.9166-14.714-7.4589-17.8389-8.9706-5.058-19.5366,7.606-32.2689,4.1369-12.3023-3.3521-22.0785-20.5278-18.2024-28.1313,3.615-7.0909,21.1756-9.9211,77.7752,4.9643,15.4444,4.1369,30.8889,8.2738,46.3333,12.4107Z"/>
  <path class="cls-33" d="M672.2262,818.5865l104.7528,34.291c35.0161,10.4834,70.0322,20.9667,105.0483,31.4501,25.6162,27.1061,37.5773,41.5815,35.8767,43.4198-1.4738,1.5929-13.2052-6.3028-35.1992-23.6921-26.0154,1.6251-46.1258-.7068-58.6435-2.7755-88.7382-14.6646-164.7349-73.2945-171.8211-63.3327-.8592,1.208.0129,2.1874-1.3307,4.4596-5.9108,9.9937-34.4044,10.18-43.3006-3.3095-1.9567-2.9665-2.5991-6.0396-2.8345-8.1726-.3327-3.498-.5172-10.9327-6.2234-13.9735-10.3693-5.5259-23.8484-6.4262-32.3683.2053-7.6521,5.9562-7.2021,13.8888-11.3394,14.1488-6.3028.3963-17.2609-17.3896-12.3223-26.8206,8.3976-16.0372,60.9586-4.466,84.4579.7075,19.3613,4.2625,34.9016,9.5097,45.2473,13.3944Z"/>
  <path class="cls-18" d="M844.7877,887.3037c-14.1495,4.261-35.6106,4.8165-49.0211,2.0103-16.441-3.4404-11.6935-10.2047-41.1508-26.7165-25.2349-14.1452-41.394-23.2031-57.5103-19.0877-3.723.9508-10.5009,3.3854-17.3753.4135-6.7056-2.8989-9.6775-9.2886-11.1698-11.9972-12.072-21.9068-50.8283-26.9694-50.4705-28.1313.3234-1.0509,31.4676,4.97,89.3578,25.2356,36.1257,12.6464,35.0275,13.8541,61.2268,22.7531,57.7907,19.6293,108.5617,29.184,108.1124,31.3031-.1445.6829-5.3778-.4922-15.0309.5516-8.4698.9161-14.4307,2.901-16.9683,3.6654Z"/>
  <path class="cls-33" d="M881.6446,884.1688c35.9812-21.5512,71.9624-43.1021,107.9436-64.6533,22.1422,9.4442,28.8807,31.629,22.0635,42.7483-5.0387,8.2184-18.4456,11.9636-32.2682,8.8257-16.094,2.2074-31.5635,5.8442-32.2682,12.1349-.3599,3.2137,3.4333,4.4417,4.9643,9.1012,4.4735,13.6137-15.9896,39.4055-32.3369,36.957-2.353-.3523-5.865-1.4763-14.88-11.3272-7.3402-8.0213-15.8079-19.0727-23.2182-33.7867Z"/>
  <path class="cls-18" d="M991.2419,822.361c9.3999,4.6989,10.732,23.7501,5.807,26.5917-4.138,2.3873-8.4269-9.1284-18.4771-10.1675-20.8952-2.1602-48.5675,42.8353-68.2057,51.6099-1.1282.504-6.0438,2.7003-7.9991.8274-2.3645-2.2654,1.903-8.277-.1374-10.4805-3.2616-3.5216-19.1381,6.4631-19.3749,6.0678-.2633-.44,19.6554-12.3717,31.9234-20.4091,30.1384-19.7452,64.1314-48.7621,75.6375-44.4031.4099.1552.8242.3624.8263.3634Z"/>
  <path class="cls-4" d="M543.6392,791.4489c-.3312.0401-5.8235.7923-7.7229,5.3091-1.6676,3.9652.1867,9.0411,2.2757,9.5151,1.6118.3659,4.329-1.7885,4.329-1.7885h0s6.858-3.395,7.2543-3.5896c10.7105-5.2597,40.7466-1.2412,40.7487-1.2409,8.6136,1.1525,19.4508,2.8377,31.9455,5.3592-3.7974-2.5616-6.2499-5.1914-7.748-7.0472-1.7549-2.1745-3.1149-4.5941-5.7627-9.3448-1.7728-3.1804-3.1636-5.8328-4.0879-7.6314-3.5935,3.6007-8.9885,7.7358-15.7256,7.9769-9.6295.3448-13.9471-7.5548-23.4428-8.2738-5.1882-.3928-12.5835,1.3078-22.0635,10.7559Z"/>
  <path class="cls-33" d="M552.8889,789.709c-2.7751,1.9774-5.0566,3.5141-6.5611,4.5107-5.508,3.6483-9.0307,5.6404-9.1666,8.2237-.02.3767-.0744,1.4183.6231,2.0246.7712.67,1.9588.3709,2.1799.3116,4.0307-2.3376,10.1954-5.347,18.138-7.0454,4.2975-.919,11.7257-2.0125,33.4136,1.1271,7.6249,1.1039,17.6787,2.8273,29.4358,5.6067-3.4633-3.5231-5.9587-6.7621-7.6729-9.2221-2.0382-2.9243-3.5664-5.5552-4.8956-7.9393-1.5067-2.7018-2.6878-4.9553-3.4734-6.4831-7.2565,8.4119-13.0864,9.9779-16.9761,9.9393-7.5627-.0748-10.9938-6.2449-19.4679-6.697-6.6126-.3527-12.1378,2.998-15.5768,5.6432Z"/>
  <path class="cls-18" d="M559.5809,790.1604c-.3942.4582-1.3579,1.6802-3.057,2.2815-1.5868.5612-2.5576.137-3.8926.1377-4.0128.0025-4.1888,3.8468-10.4866,7.0605-.7469.381-2.8338,1.3933-3.6858,3.4784-.171.4178-.3534.8807-.156,1.1422.6145.812,4.4005-.9819,8.203-3.0631,6.9617-2.6542,12.1993-4.4964,14.1202-5.0877.6954-.2139,1.7478-.5079,3.1149-.6228,1.1304-.0952,1.9982-.0275,2.3366,0,23.1373,1.8955,27.8884,2.6306,27.8905,2.6309,7.1155,1.1007,15.981,2.6549,26.2043,4.8749-3.0827-3.0631-5.3041-5.8793-6.8301-8.018-1.815-2.5426-3.175-4.8301-4.3583-6.9031-1.3414-2.3491-2.3931-4.3082-3.092-5.6368-1.5832,1.9542-7.1842,8.3883-15.1132,8.6419-3.6658.1173-7.298-1.1032-8.3482-1.4562-5.6711-1.9059-5.3714-3.8303-8.9828-4.3665-4.6831-.695-11.0804,1.6666-13.8669,4.9063Z"/>
</svg>