<?xml version="1.0" encoding="UTF-8"?>
<svg id="Layer_1" data-name="Layer 1" xmlns="http://www.w3.org/2000/svg" viewBox="0 0 1621.4173 1264.252">
  <defs>
    <style>
      .cls-1 {
        stroke: #231f20;
        stroke-linecap: round;
        stroke-linejoin: round;
        stroke-width: 15.2603px;
      }

      .cls-1, .cls-2 {
        fill: #231f20;
      }

      .cls-3 {
        fill: #808184;
      }

      .cls-4 {
        fill: #fff;
      }

      .cls-5 {
        fill: #522b14;
      }

      .cls-6 {
        fill: #929497;
      }

      .cls-7 {
        fill: #754d29;
      }
    </style>
  </defs>
  <path class="cls-7" d="M843.4714,962.7335c-3.1701,14.7444-13.8548,24.9889-25.8534,24.8456-11.8171-.1411-22.2311-10.326-25.3519-24.8456V77.6272c-.7049-37.3341,10.6347-68.4897,24.1491-70.3763,14.5031-2.0247,27.7487,30.1842,27.0562,70.3763v885.1063Z"/>
  <g>
    <path class="cls-2" d="M736.3279,873.7481h155.2227c5.6172,0,10.1777,4.5605,10.1777,10.1777v88.353c0,5.6178-4.5609,10.1787-10.1787,10.1787h-155.2207c-5.6178,0-10.1787-4.5609-10.1787-10.1787v-88.353c0-5.6172,4.5605-10.1777,10.1777-10.1777Z"/>
    <path class="cls-2" d="M890.0354,885.4396v85.3265h-152.1924v-85.3265h152.1924M891.5496,862.056h-155.2207c-12.0781,0-21.8696,9.7914-21.8696,21.8698v88.3542c0,12.0783,9.7915,21.8698,21.8696,21.8698h155.2207c12.0786,0,21.8696-9.7914,21.8696-21.8698v-88.3542c0-12.0783-9.791-21.8698-21.8696-21.8698h0Z"/>
  </g>
  <ellipse class="cls-4" cx="749.8422" cy="937.9123" rx="19.9599" ry="3.1743"/>
  <path class="cls-5" d="M843.0919,66.579h0s.7668,795.4843.767,795.7944c-11.6589.0181-23.3178.0359-34.9768.054,6.7779-1.6962,16.5213-6.5013,21.741-22.0959,4.1677-12.4515,3.7007-26.561,3.6097-30.6138-.7585-33.7629,3.0702-329.2425,8.859-743.1386Z"/>
  <path class="cls-4" d="M737.7993,910.5917c-.1171-.6438,115.484-40.1094,147.0362,2.3715,8.1777,11.0102,12.1377,29.4479,9.4863,30.8302-2.6749,1.3945-11.4124-14.9187-21.3441-24.9014-40.952-41.1619-135.0725-7.7188-135.1784-8.3003Z"/>
  <path class="cls-1" d="M549.6057,1254.0263c-7.8877-172.6954,143.1043-302.8124,289.5203-288.247,129.4712,12.8793,241.9204,137.5522,232.4204,288.247"/>
  <line class="cls-1" x1="1071.5465" y1="1254.0263" x2="549.6057" y2="1254.0263"/>
  <path class="cls-3" d="M709.4522,1219.6638c78.0122,5.6732,128.1174.5849,191.0298-6.8096,53.6129-6.3015,71.5515-24.2829,112.0214-18.2795,3.8435.57,41.5462,6.3392,41.6512,14.9739.2063,16.9522-144.4428,49.6183-294.783,31.4096-97.156-11.767-186.1224-43.5431-185.9191-43.8193.9028-1.2271,52.8508,16.4786,135.9997,22.5249Z"/>
  <path class="cls-6" d="M665.7059,1077.3811c1.7043,8.3311-14.5134,22.5569-28.1994,19.4443-6.2192-1.4144-13.9239-6.8659-13.8777-13.8777.0596-9.0427,12.9635-13.5699,13.8777-13.8776,11.5076-3.873,26.7308,1.1331,28.1994,8.311Z"/>
</svg>