<?xml version="1.0" encoding="UTF-8"?>
<svg id="Layer_1" data-name="Layer 1" xmlns="http://www.w3.org/2000/svg" viewBox="0 0 1621.4173 1264.252">
  <defs>
    <style>
      .cls-1 {
        fill: #154b25;
      }

      .cls-2 {
        fill: #a45f31;
      }

      .cls-3 {
        fill: #5c9d6d;
      }

      .cls-4 {
        fill: #593626;
      }

      .cls-5 {
        fill: #1b3b21;
      }

      .cls-6 {
        fill: #42a270;
      }

      .cls-7 {
        fill: #046938;
      }
    </style>
  </defs>
  <rect class="cls-6" x="848.6531" y="114.7493" width="36.1862" height="987.3667"/>
  <rect class="cls-6" x="1003.981" y="446.8296" width="31.9489" height="795.8883"/>
  <rect class="cls-4" x="967.576" y="407.9484" width="100.9426" height="255.2179" rx="36.6407" ry="36.6407"/>
  <rect class="cls-4" x="798.5812" y="13.2096" width="122.851" height="310.61" rx="44.5932" ry="44.5932"/>
  <circle class="cls-2" cx="876.7293" cy="49.8123" r="19.0994"/>
  <circle class="cls-2" cx="893.6657" cy="75.3405" r="9.5497"/>
  <circle class="cls-2" cx="1043.9339" cy="440.1144" r="15.6933"/>
  <circle class="cls-2" cx="1030.0178" cy="461.0901" r="7.8467"/>
  <path class="cls-7" d="M778.0621,1250.8844h270.9248c-.0682-49.4607,6.5411-143.3595,58.7552-244.8119,67.7385-131.6178,171.9258-197.6342,215.4343-221.9631-34.3296,5.3353-122.8613,23.7964-202.3778,97.9245-93.1038,86.7946-112.7823,192.9772-117.5098,225.2272-6.2483-88.264-29.3346-250.2305-127.3021-424.3409-101.3227-180.0738-233.4763-285.5775-306.8311-336.2082,63.7793,56.4655,208.3417,201.0123,248.0765,427.6045,12.5435,71.5339,11.9764,136.0552,6.5282,189.3219-15.8367-41.0193-63.4614-147.9925-179.529-225.2277-151.3399-100.7059-309.5617-78.0013-346.0011-71.8111,58.2322,17.0709,200.61,67.2915,319.8876,205.642,131.8077,152.8825,154.6236,319.6814,159.9444,378.6428Z"/>
  <path class="cls-3" d="M1017.6412,1250.8849c-.0037-.0259-19.4783-157.6152-23.6592-188.0728-35.5904-259.2385-227.9687-520.1371-226.1647-521.1685.4946-.2826,15.7944,19.7847,37.479,62.0746,37.6634,73.4532,149.8687,292.2378,65.0488,504.7872-14.0814,35.2864-40.4378,87.5538-92.2835,142.3789,59.4003.1567,118.7907.1968,178.1723.1208,20.465-.0262,40.9336-.0663,61.4073-.1202Z"/>
  <path class="cls-5" d="M298.2301,666.5996c1.1298-7.8021,222.6062-32.383,386.793,101.0277,98.7408,80.2323,144.8022,191.6373,138.7371,196.0111-5.8639,4.229-57.4695-93.7569-165.7937-173.8607-172.0096-127.1982-360.7834-115.9481-359.7364-123.1781Z"/>
  <path class="cls-5" d="M1046.1072,1046.9583c-2.5657-1.2013,15.0651-68.3799,59.4485-127.9441,82.8158-111.1419,215.9869-138.3527,217.6206-134.9048,1.6097,3.3971-125.0437,35.3231-213.743,152.9976-41.7144,55.3407-60.951,110.9631-63.3262,109.8512Z"/>
  <path class="cls-5" d="M884.8252,323.3256s-8.4927,111.4158-24.8178,325.584c8.3283,17.0883,16.6565,34.1761,24.9848,51.2642-.0486-109.6939-.1669-376.8364-.1669-376.8482h0Z"/>
  <path class="cls-5" d="M1035.4463,663.0371c-1.774-.1166-2.5788.7249-2.5788.7251-.6877.7196-.6478,1.7798-.6441,2.0332.4024,30.9005-9.3423,62.2529-3.6951,92.6356,4.8151,25.9074,5.6037,96.2468-10.8124,287.1559,6.3051-15.1949,12.6089-30.3897,18.9139-45.5846,1.5211-246.5123.7674-336.8369-1.1835-336.9652Z"/>
  <path class="cls-1" d="M568.3705,346.7461c4.005-4.1402,169.9987,103.9315,291.6364,302.1635,139.5098,227.3582,149.2212,456.8753,143.2818,458.3515-5.7499,1.4292-23.9853-211.4433-167.0593-446.5768-123.6474-203.2076-271.7193-309.9478-267.859-313.9382Z"/>
</svg>