<?xml version="1.0" encoding="UTF-8"?>
<svg id="Layer_1" data-name="Layer 1" xmlns="http://www.w3.org/2000/svg" viewBox="0 0 1621.4173 1264.252">
  <defs>
    <style>
      .cls-1 {
        fill: #191412;
      }

      .cls-2 {
        fill: #010101;
      }

      .cls-3 {
        fill: #0a0909;
      }

      .cls-4 {
        fill: #362a28;
      }

      .cls-5 {
        fill: #302218;
      }

      .cls-6 {
        fill: #191513;
      }

      .cls-7 {
        fill: #281e14;
      }

      .cls-8 {
        fill: #b5ada2;
      }

      .cls-9 {
        fill: #36281a;
      }

      .cls-10 {
        fill: #110f0e;
      }

      .cls-11 {
        fill: #161211;
      }

      .cls-12 {
        fill: #fff;
      }

      .cls-13 {
        fill: #221918;
      }

      .cls-14 {
        fill: #191516;
      }

      .cls-15 {
        fill: #1b1c1c;
      }

      .cls-16 {
        fill: #221c1a;
      }

      .cls-17 {
        fill: #a79885;
      }

      .cls-18 {
        fill: #070606;
      }

      .cls-19 {
        fill: #241911;
      }
    </style>
  </defs>
  <g>
    <path class="cls-6" d="M806.2499,890.986c-5.7381,51.0673-19.7895,88.3084-32.1833,113.5621-15.0379,30.6424-31.3127,51.1292-37.5445,88.3607-4.4271,26.4495-1.7666,49.2849,1.3543,64.883,6.6504,5.5245,14.4992,13.1164,21.9944,23.1874,11.289,15.169,17.286,29.9298,20.5713,40.4412,24.6009-9.7475,49.2019-19.4946,73.8028-29.2421-2.7393-7.2668-7.142-18.4268-13.2565-31.7683-12.7654-27.854-18.3861-33.3832-20.8589-44.3249-4.8188-21.323,7.5639-40.5993,23.466-64.6045,29.4636-44.4756,53.8801-80.2053,73.0062-107.7707,8.112-48.0913,16.2241-96.182,24.3356-144.2738l-140.7971,15.6442c2.0362,25.3019,4.0729,50.6037,6.1097,75.9056Z"/>
    <path class="cls-1" d="M1265.3961,455.6274c-21.9099,170.5239-79.7617,254.1103-130.3676,298.977-.0008.0008-6.0368,5.3518-125.1529,100.8176-7.0836,29.2438-13.1242,63.7127-15.6443,102.5561-4.3414,66.913,3.2329,124.1482,12.5613,167.1632,12.6158,27.7145,25.2319,55.4286,37.8477,83.1431-31.0744,2.1384-62.1489,4.2771-93.2233,6.4155-15.8581-18.9415-31.7158-37.883-47.5739-56.8245-.1965-46.2145-3.7564-83.5902-7.0092-109.3489-6.449-51.0699-13.7742-72.9888-12.1115-111.4073,1.6623-38.4098,11.2725-69.3779,19.1207-89.5192-35.9235-4.3455-71.8473-8.6911-107.7708-13.0366-47.1963,17.7019-124.888,40.1206-222.4944,38.2411-83.3422-1.6048-150.5047-20.334-194.6826-36.5029-15.8209,29.6237-40.0631,67.6866-76.4822,106.0322-30.1441,31.7384-60.2495,54.8466-85.1736,71.2679-9.4922,19.6039-20.3126,48.8053-22.5972,85.1736-4.0626,64.6743,21.4996,110.1421,22.5972,111.2472.0068.0068.0271.0263.0334.0586.3938,1.9704-60.8717,15.5853-60.8717,15.5853l-29.5504-205.1119c7.8975-23.2307,18.2956-56.5525,27.8118-97.3411,7.9294-33.9872,17.8578-76.5415,19.1207-109.509,3.2033-83.6349-49.692-97.009-83.4354-204.0136-38.2482-121.2902-10.0949-230.3449,22.5972-254.881.2254-.1691,1.0961-.8049,38.2411-27.8118,17.4975-7.3632,44.3959-17.334,78.2208-24.3354,92.2182-19.0884,167.1861-1.8791,192.9444,3.4764,70.9038,14.7418,187.3687,26.6609,387.627,13.9057,13.4713-10.0317,32.6011-21.6792,57.3618-29.55,58.6818-18.6533,110.0467-3.7139,130.3676,3.4768,17.5813-5.9481,42.1282-15.6815,69.2881-31.5937,33.1238-19.4063,100.5305-58.8975,95.8449-95.8772-4.7652-37.6125-80.399-43.3238-79.9594-76.4826.242-18.2413,23.3817-35.4213,43.4561-39.9793,26.3528-5.9834,37.3209,12.0783,76.4822,20.8588,46.1592,10.3498,58.9257-8.4649,96.6892-.319,35.2445,7.6023,45.7662,28.6589,84.0873,61.1574,92.8521,78.7431,156.4971,61.483,173.8237,112.9854,11.7722,34.9912-4.3196,82.4525-33.0261,107.7708-53.6953,47.3575-130.2736-1.5-207.6366,49.2498-26.5354,17.4069-42.5806,39.5908-51.3611,53.8854Z"/>
    <path class="cls-1" d="M125.1128,663.6367c-.8691,7.822-6.0841,183.3839-6.0841,183.3839l-24.335,6.0837,6.0837-228.5782,24.3354,39.1106Z"/>
    <path class="cls-18" d="M90.3478,929.5869c-23.349,38.3343-29.4937,71.1469-31.2882,91.2574,0,.0011-5.3033,43.6214,15.3937,110.5472,1.3982,4.521,3.5587,10.973,6.1893,10.9121,4.152-.0962-2.0114-26.1995,10.6468-51.9296,6.9683-14.1646,11.5092-11.835,17.5997-26.0736,7.0945-16.5859,2.8715-24.279,7.9298-44.5334,4.1798-16.7355,7.2719-12.3201,14.7128-34.0365,8.525-24.8806,10.8738-49.3772,12.7161-68.5907.4054-4.2268.6797-7.7389.8545-10.1501.2514-3.467.3014-15.0397-3.4764-26.9427-5.3958-17.0008-16.8444-28.1154-22.5972-33.0264-1.5612-1.1186-8.2901-5.699-15.0645-3.4764-4.4057,1.4451-7.4184,4.9629-9.2709,9.5602-3.8108,9.458-8.5021,24.5323-8.6911,43.4561-.1345,13.4759,2.055,24.7776,4.3455,33.0264Z"/>
    <path class="cls-6" d="M307.9289,929.5143c37.3404,97.5016,65.7234,167.7892,86.9118,212.0651,4.2753,8.9338,14.103,29.0232,5.7944,44.0351-.0008.0011-67.2121,26.653-67.2121,26.653h0l-30.1294-37.0823-16.2233-5.794c-3.5888-18.6713-7.4451-37.6034-11.5885-56.7824-8.9699-41.521-18.6991-81.498-28.9706-119.8876,20.4727-21.069,40.945-42.138,61.4177-63.207Z"/>
    <path class="cls-2" d="M1042.6968,1204.015c11.9018,14.7737,23.8041,29.5474,35.7059,44.3211h-110.8125c-5.3912-11.212-10.7821-22.4243-16.1734-33.6363,30.4266-3.5617,60.8533-7.1231,91.2799-10.6848Z"/>
    <path class="cls-2" d="M400.6352,1185.6146c12.5057,18.5887,25.011,37.1777,37.5166,55.7664h-96.7884c-2.6468-9.7045-5.2935-19.4089-7.9403-29.1134,22.404-8.8842,44.8081-17.7688,67.2121-26.653Z"/>
    <path class="cls-2" d="M217.2393,1210.0225c9.7574,16.8272,19.5145,33.6539,29.272,50.4811-29.3422-.5711-58.6845-1.1423-88.0267-1.7134-.6944-11.0414-1.3891-22.0824-2.0835-33.1238,20.2795-5.2146,40.5587-10.4293,60.8382-15.6439Z"/>
    <path class="cls-2" d="M852.9313,1188.7656c11.9049,16.8272,23.809,33.6539,35.7138,50.4811-35.7995-.5711-71.5993-1.1423-107.3992-1.7134-1.8893-9.7556-3.7789-19.5115-5.6682-29.2671,25.7846-6.5001,51.5689-13.0005,77.3535-19.5006Z"/>
    <path class="cls-15" d="M90.3478,929.5869c-6.9979,11.0842-14.6794,25.5742-20.7481,43.3588-9.6947,28.4115-11.3183,53.6408-10.9752,70.9403,6.9337-5.7816,16.1775-15.3197,20.5452-29.2705,3.8067-12.1585,1.7254-20.6936,1.7382-34.3299.0113-11.841,1.6029-29.184,9.4399-50.6987Z"/>
    <path class="cls-15" d="M92.1951,902.7671c.4094,9.9835.6985,12.6661.0343,12.8112-1.1829.2585-4.9493-7.622-5.4769-16.414-.5877-9.7908,2.9576-18.7586,4.2797-18.5818.8537.1145.4173,3.9969,1.1629,22.1847Z"/>
    <path class="cls-15" d="M98.5966,858.3843c-1.1309-1.42,3.5775-10.774,10.7942-10.7942,7.1916-.0202,11.9782,9.2415,10.7942,10.7942-.9217,1.2091-5.1444-2.6771-12.4792-2.1586-5.6296.3977-8.3925,3.0585-9.1093,2.1586Z"/>
    <circle class="cls-2" cx="1312.5869" cy="186.0917" r="22.5176"/>
    <path class="cls-12" d="M1297.8504,183.7491c1.0537.3281,1.872-4.6913,6.9053-8.0756,5.7139-3.8418,11.6571-2.0772,11.8642-3.3647.2619-1.6307-8.7866-7.5311-15.1049-3.6646-6.3344,3.8763-5.1441,14.6443-3.6646,15.1049Z"/>
    <path class="cls-19" d="M1472.7074,187.5767c-2.8545,28.0638-7.6532,59.634-15.5459,93.7715-8.2246,35.5717-18.2518,67.1962-28.4624,94.4978,7.7029,2.1974,41.7041,10.9755,77.5908-7.373,5.3659-2.7435,40.2589-21.3029,52.5585-62.443,11.3318-37.9028-3.7896-70.7723-8.7257-77.3191-1.5007-1.9902-2.7694-3.3651-2.7699-3.3662-.9822-1.0646-4.3933-4.6417-17.128-12.6015,0-.0005-.0122-.0074-.0122-.0079-9.0413-5.7973-16.4614-8.4292-23.3032-11.0046-8.1522-3.068-19.742-7.6585-34.2021-14.154Z"/>
    <path class="cls-9" d="M1121.5036,81.2384c7.635-12.9337,30.7714-12.0744,45.0374-4.8016,15.1571,7.7274,27.8072,26.5213,22.7577,37.9518-6.3117,14.2883-41.1806,19.1125-58.6364,2.3122-8.8394-8.5081-15.4838-24.7468-9.1587-35.4624Z"/>
    <path class="cls-7" d="M1133.3664,87.468c6.3181-10.7029,25.4639-9.9918,37.2693-3.9734,12.5428,6.3945,23.011,21.9469,18.8324,31.4058-5.223,11.8238-34.0777,15.816-48.5227,1.9134-7.3148-7.0406-12.8131-20.4784-7.579-29.3458Z"/>
    <ellipse class="cls-12" cx="1298.6849" cy="192.9536" rx="1.358" ry="3.0962"/>
    <path class="cls-3" d="M886.7227,980.6639c-1.5725-10.7832-2.9632-25.7722-2.0005-43.5448,2.4394-45.0343,18.9603-88.9202,19.1207-89.5192h0c-16.7325-6.8334-41.1528-14.3318-71.1687-15.3189-14.1379-.4648-26.8164.6038-37.6346,2.2699,6.5722,1.3775,6.7819,1.4215,6.7819,1.4215h0s2.5652,35.9505.1439,73.9496c-.6361,9.9825-1.4827,18.0074-2.0279,22.7422,17.5666,11.564,29.1333,23.1645,36.5029,31.7226,8.0666,9.3674,13.17,17.4881,23.4663,20.4246,10.1133,2.8842,20.0556-.7102,26.8161-4.1475Z"/>
    <polygon class="cls-3" points="307.7535 934.0709 246.5113 992.7213 262.6356 1056.2681 307.7535 934.0709"/>
    <path class="cls-14" d="M424.5494,1241.381c-2.8192-7.1554-5.77-14.4073-8.8598-21.7483-4.943-11.7444-9.975-23.0845-15.0544-34.018,12.5057,18.5887,25.011,37.1777,37.5166,55.7664h-13.6025Z"/>
    <path class="cls-16" d="M396.1916,1187.3401c-20.9228,8.3093-41.8456,16.6182-62.7685,24.9276h0l1.3234,4.8528c20.4817-9.9269,40.9634-19.8534,61.4451-29.7804Z"/>
    <polygon class="cls-16" points="217.2728 1210.0811 156.876 1233.2176 156.4011 1225.6664 217.2728 1210.0811"/>
    <path class="cls-16" d="M852.9313,1188.7656c.2717.9334-25.1481,9.3486-76.2421,25.2406-.3705-1.9133-.741-3.8266-1.1115-5.7399,51.3047-13.9324,77.0826-20.4306,77.3535-19.5006Z"/>
    <polygon class="cls-16" points="1042.6968 1204.015 954.7174 1221.5639 951.417 1214.6998 1042.6968 1204.015"/>
    <path class="cls-17" d="M1281.1249,106.604c-3.9717,2.6513-10.1122,4.0164-14.8458,1.7679-13.2008-6.2697-15.0623-40.4486-3.0924-64.9578,14.0387-28.7446,47.034-44.0483,52.7687-38.5627,5.6798,5.4326-21.8017,25.1115-25.5397,66.0865-1.2873,14.1105.3818,29.2096-9.2908,35.6661Z"/>
    <path class="cls-8" d="M1261.8325,92.4876c-1.6733.8775,1.7444,13.5047,9.1655,14.5493,7.5331,1.0601,12.4299-10.7686,11.3036-11.6583-.7089-.5598-3.4818,3.4609-8.5748,3.3059-6.439-.1959-10.582-6.8844-11.8943-6.1969Z"/>
    <ellipse class="cls-8" cx="1261.0625" cy="84.9484" rx="1.521" ry="2.2452"/>
    <path class="cls-13" d="M1348.1916,102.39c5.8286-2.6828,11.903,11.3439,45.035,37.2585,13.1061,10.2512,28.6779,22.4307,51.437,34.4569,15.2051,8.0346,20.2852,8.9556,19.9898,11.0087-1.3414,9.3231-61.4966,23.6602-80.7657.7042-6.7778-8.0741-9.6951-22.3097-15.5613-21.8524-3.6921.2878-4.4556,6.0755-7.1017,6.1946-8.7775.3945-24.7972-62.3555-13.0332-67.7704Z"/>
    <path class="cls-4" d="M1386.2038,134.1569c-1.4038,1.2276,5.3867,14.7917,18.1562,23.4599,10.8103,7.338,23.3889,9.4599,24.0802,7.8926.5291-1.199-6.0721-4.1671-18.9671-13.4691-16.3098-11.7658-22.1587-18.8547-23.2694-17.8834Z"/>
    <path class="cls-4" d="M1353.8406,154.9847c-1.2866.7849,3.8807,14.1143,7.0641,13.6615,1.0356-.1473,1.9975-1.7724,1.9569-3.1368-.0428-1.4399-1.1986-2.4488-1.9569-3.1371-5.2222-4.7401-6.4486-7.763-7.0641-7.3876Z"/>
    <path class="cls-4" d="M1437.2412,195.2537c.0436-.1117,1.9051-.4526,6.1274-1.619,2.5625-.708,4.8421-1.4016,5.8365-1.7228,7.3646-2.3791,12.7618-6.4703,12.9277-6.3963.1721.0766-5.0495,4.7221-13.2409,7.5568-6.3033,2.1814-11.7271,2.3776-11.6506,2.1812Z"/>
    <path class="cls-5" d="M1530.2126,212.7354c-11.7444-6.5508-21.7626-11.1143-28.9988-14.1533-1.9043-.7996-3.369-1.3955-28.5066-11.0057-5.15,37.4163-6.6515,48.7793-6.5741,48.7902.133.0188,2.6889-34.0846,14.5001-36.5668,2.1523-.4524,4.7187.1811,9.8499,1.4485,6.9018,1.7044,11.7151,4.1438,13.3271,4.9249,5.268,2.5536,13.5059,5.413,26.4024,6.5621Z"/>
    <path class="cls-10" d="M94.6937,853.1043c1.9099-71.7673,3.8202-143.5349,5.7302-215.3022,2.7674,9.1393,5.8854,16.1655,8.197,20.8563.0004.0011,3.4047,6.9085,14.7752,25.2045-4.329-3.3592-10.6773-7.3053-15.4267-5.215-8.4837,3.7338-6.7759,24.4857-6.3013,31.5058,1.6319,24.1464.8315,65.7609-6.9743,142.9506Z"/>
  </g>
  <circle class="cls-2" cx="1501.5223" cy="267.0175" r="19.8869"/>
  <circle class="cls-11" cx="1504.9069" cy="267.8404" r="17.6602"/>
</svg>