<?xml version="1.0" encoding="UTF-8"?>
<svg id="Layer_1" data-name="Layer 1" xmlns="http://www.w3.org/2000/svg" viewBox="0 0 1621.4173 1264.252">
  <defs>
    <style>
      .cls-1 {
        fill: #e5e0e4;
      }

      .cls-2 {
        fill: #010101;
      }

      .cls-3 {
        fill: #cccbca;
      }

      .cls-4 {
        fill: #cc2128;
      }

      .cls-5 {
        fill: #fff;
      }

      .cls-6 {
        fill: #eb2127;
      }

      .cls-7 {
        stroke-width: 14.0035px;
      }

      .cls-7, .cls-8, .cls-9, .cls-10, .cls-11, .cls-12, .cls-13, .cls-14, .cls-15 {
        fill: none;
        stroke: #929497;
        stroke-linecap: round;
        stroke-linejoin: round;
      }

      .cls-8 {
        stroke-width: 5.4277px;
      }

      .cls-9 {
        stroke-width: 5.7416px;
      }

      .cls-10 {
        stroke-width: 4.3588px;
      }

      .cls-11 {
        stroke-width: 4.1205px;
      }

      .cls-12 {
        stroke-width: 10.7019px;
      }

      .cls-13 {
        stroke-width: 7.5129px;
      }

      .cls-14 {
        stroke-width: 7.1021px;
      }

      .cls-15 {
        stroke-width: 8.1245px;
      }
    </style>
  </defs>
  <circle class="cls-1" cx="810.7087" cy="632.126" r="616.1543"/>
  <circle class="cls-6" cx="742.3762" cy="490.4813" r="434.5061"/>
  <circle class="cls-2" cx="722.3191" cy="456.0938" r="217.253"/>
  <circle class="cls-5" cx="767.0349" cy="431.4627" r="44.8541"/>
  <path class="cls-3" d="M659.6209,1225.8531c.6288,8.424,315.3978,77.0684,541.7905-103.2827,228.7434-182.2227,230.0532-509.3296,222.2056-511.6911-7.5996-2.2872-23.1991,300.1661-245.8127,478.6411-221.7876,177.8128-518.7954,128.1337-518.1834,136.3327Z"/>
  <path class="cls-4" d="M878.9623,162.5898c4.1667-3.6411,187.284,114.0168,189.117,290.135,1.3739,131.9913-99.741,232.7895-105.4061,229.7424-5.4792-2.9472,81.4977-101.346,76.1564-233.3241-6.9131-170.8091-163.8161-283.1024-159.8674-286.5533Z"/>
  <path class="cls-7" d="M929.571,1232.0867c-16.0395-66.9544,3.1-130.9708,47.447-160.7933,22.0164-14.8057,45.894-18.2566,63.2629-18.4514"/>
  <path class="cls-14" d="M923.5893,1159.1527c8.1347-33.9571-1.5722-66.4241-24.0636-81.5491-11.166-7.509-23.2759-9.2591-32.0849-9.358"/>
  <path class="cls-7" d="M1286.1822,1032.5377c16.0395-66.9544-3.1-130.9708-47.447-160.7933-22.0164-14.8057-45.894-18.2566-63.2629-18.4514"/>
  <path class="cls-14" d="M1293.8512,966.9546c-8.1347-33.9571,1.5722-66.4241,24.0636-81.5491,11.166-7.509,23.2759-9.2591,32.0849-9.358"/>
  <path class="cls-13" d="M1286.1822,1018.8843c7.8313-39.4711-1.5136-77.2101-23.1662-94.791-10.7496-8.7283-22.4079-10.7626-30.8883-10.8775"/>
  <path class="cls-12" d="M396.688,1086.0606c14.3711-50.6155,51.0828-86.1073,91.7931-89.3811,20.211-1.6253,37.4125,5.0117,49.0586,11.3824"/>
  <path class="cls-8" d="M416.1232,1039.4915c18.1291-19.5816,23.8123-44.8477,14.4868-63.3433-4.6298-9.1823-12.0437-14.8808-17.8763-18.2435"/>
  <path class="cls-9" d="M401.7979,1076.9631c9.5544-29.231,29.9052-50.8796,50.9125-54.4903,10.4292-1.7926,18.9587,1.2151,24.6523,4.3125"/>
  <path class="cls-15" d="M1358.4431,355.8335c-34.3177-20.4414-73.0802-20.8899-97.2537-1.4737-12.0012,9.6393-18.0342,22.2695-21.1402,31.8566"/>
  <path class="cls-11" d="M1323.4402,340.2652c-20.2131-1.3556-36.5211-12.3364-41.0166-27.4052-2.2319-7.481-1.111-14.4908.3548-19.3872"/>
  <path class="cls-10" d="M1350.8804,353.4767c-20.5114-11.1509-43.0281-12.489-56.5038-3.5302-6.6901,4.4476-9.8293,10.554-11.3568,15.2316"/>
</svg>