<?xml version="1.0" encoding="UTF-8"?>
<svg id="Layer_1" data-name="Layer 1" xmlns="http://www.w3.org/2000/svg" viewBox="0 0 1621.4173 1264.252">
  <defs>
    <style>
      .cls-1 {
        fill: #372416;
      }

      .cls-2 {
        fill: #8c5d37;
      }

      .cls-3 {
        fill: #4e341e;
      }

      .cls-4 {
        fill: #a27a5b;
      }

      .cls-5 {
        fill: #795333;
      }

      .cls-6 {
        fill: #503520;
      }

      .cls-7 {
        fill: #452e1a;
      }
    </style>
  </defs>
  <ellipse class="cls-1" cx="810.7087" cy="715.2831" rx="247.69" ry="32.8892"/>
  <path class="cls-7" d="M669.4332,699.3621c46.1537,10.4828,107.5237,19.1136,179.2886,14.7729,38.5675-2.3326,73.064-7.9841,102.7385-14.7729,1.478-5.5963,35.9025-139.4045-3.5116-158.9832-4.7898-2.3794-11.5401-3.5037-21.3336-.832-43.5475,4.7225-77.8503,1.017-101.3955-3.3577-54.4708-10.1207-88.552-30.7321-127.5837-13.4297-6.6807,2.9614-18.4507,8.3377-28.071,20.3739-21.7914,27.2638-15.5222,67.3917-7.5181,118.6251,2.4855,15.9095,5.3186,28.8997,7.3865,37.6037Z"/>
  <path class="cls-5" d="M664.6116,676.6343c53.3813,7.3878,99.8508,9.9561,137.1883,10.4833,77.77,1.0981,133.95-6.4062,148.2308-8.4038,2.714-.3794,4.9546-.7058,6.456-.9267h0c-1.6751,7.1916-3.3512,14.3833-5.0262,21.5749-22.0221,5.6598-41.1208,8.9685-55.9878,11.0006,0,0-44.7922,6.123-92.2093,4.085-1.4406-.0619-4.3608-.1969-7.2191-.336-21.9255-1.0674-40.2816-2.3938-46.8364-2.9376-30.3236-2.5153-70.4771-10.0448-79.774-11.8121-1.2028-5.3599-2.3753-10.7891-3.5119-16.2863-.4462-2.155-.8826-4.3022-1.3103-6.4414Z"/>
  <path class="cls-6" d="M795.0847,557.087c-1.2084,2.8076-23.3196-11.7299-58.6437-9.163-27.3388,1.9866-44.0165,12.8685-46.1093,9.163-2.1333-3.7772,12.1766-20.4319,31.3364-26.1882,36.5269-10.9737,75.0664,22.3549,73.4166,26.1882Z"/>
  <ellipse class="cls-6" cx="678.0211" cy="576.7843" rx="5.5958" ry="9.1771"/>
  <path class="cls-6" d="M937.4268,553.8551c1.5925,3.1237-11.4747,10.2803-24.4049,12.9719-23.5294,4.8977-46.5344-5.006-46.0357-5.8563.5462-.9312,29.443,8.7149,45.768.8733,7.3141-3.5133,10.5605-9.7952,18.2963-9.8674,2.4186-.0226,5.703.5579,6.3763,1.8786Z"/>
  <path class="cls-2" d="M866.9783,696.3968c.1231,1.9904-36.6143,8.2758-78.7985,7.8592-55.4998-.5484-101.1796-12.5074-100.8698-14.7729.2662-1.9468,34.4277,3.7705,100.8698,5.6784,50.6879,1.4553,78.6914-.4973,78.7985,1.2353Z"/>
  <path class="cls-2" d="M895.4725,696.6803c0-2.0975-3.7073-3.7979-8.2819-3.7979s-8.2808,1.7004-8.2808,3.7979,3.7073,3.7978,8.2808,3.7978,8.2819-1.7003,8.2819-3.7978Z"/>
  <path class="cls-3" d="M598.1181,718.2235c0,7.9398,19.4623,12.9408,17.6737,13.8051-2.1634,1.0456-36.0055-3.6741-36.0055-13.8051s33.8422-14.8507,36.0055-13.8051c1.7886.8643-17.6737,5.8653-17.6737,13.8051Z"/>
  <circle class="cls-3" cx="618.9217" cy="716.7026" r="3.0137"/>
  <path class="cls-3" d="M938.5734,724.0874c-.0813-1.0665-54.7029,10.7685-134.1813,9.6173-67.141-.9724-114.1951-10.6645-114.2712-9.6856-.0782,1.0085,49.7142,13.0888,113.7061,14.3491,76.4259,1.5052,134.8305-13.1763,134.7464-14.2808Z"/>
  <circle class="cls-4" cx="678.5974" cy="582.2458" r="2.8814"/>
  <path class="cls-4" d="M750.8781,539.964c-.2873,1.32-6.8464-.3562-20.3126.8393-11.5492,1.0251-16.6832,3.142-17.1231,2.0147-.5944-1.523,7.6862-8.1786,17.7946-9.0652,10.4362-.9153,19.9992,4.566,19.6411,6.2112Z"/>
  <ellipse class="cls-4" cx="892.4372" cy="696.7429" rx="2.0254" ry="2.5876" transform="translate(-17.9655 1369.8415) rotate(-74.4569)"/>
  <ellipse class="cls-4" cx="809.978" cy="699.7866" rx="13.9335" ry="1.6787"/>
  <circle class="cls-4" cx="618.4206" cy="716.6998" r=".8813"/>
  <path class="cls-4" d="M587.6579,718.2234c.0129,2.8053,4.0501,4.6098,3.861,4.8975-.2494.3791-7.8071-1.9372-7.5543-5.5397.2383-3.3966,7.2155-5.0177,7.5543-4.4487.2743.4607-3.8742,2.2415-3.861,5.0909Z"/>
  <path class="cls-4" d="M600.8359,709.7331c0-.3475-.669-.6294-1.4944-.6294s-1.4944.2819-1.4944.6294c0,.3478.669.6297,1.4944.6297s1.4944-.2819,1.4944-.6297Z"/>
</svg>