<?xml version="1.0" encoding="UTF-8"?>
<svg id="Layer_1" data-name="Layer 1" xmlns="http://www.w3.org/2000/svg" viewBox="0 0 1621.4173 1264.252">
  <defs>
    <style>
      .cls-1 {
        fill: #6e6f71;
      }

      .cls-2 {
        stroke: #929497;
      }

      .cls-2, .cls-3 {
        stroke-width: 47.3247px;
      }

      .cls-2, .cls-3, .cls-4 {
        fill: none;
        stroke-linecap: round;
        stroke-linejoin: round;
      }

      .cls-3 {
        stroke: #414142;
      }

      .cls-5 {
        fill: #2e1d10;
      }

      .cls-6 {
        fill: #d0d2d3;
      }

      .cls-4 {
        stroke: #e6e7e7;
        stroke-width: 10.0448px;
      }

      .cls-7 {
        fill: #d3d3d1;
      }
    </style>
  </defs>
  <path class="cls-5" d="M227.6852,736.8664C391.1077,409.6209,660.9881,201.5324,871.3251,238.8006c209.6224,37.1408,417.1528,328.075,501.8593,446.8266,12.3697,17.3381,22.3392,32.0415,29.2574,42.424,96.0302-58.1422,184.0704-79.4173,207.0464-52.892,24.022,27.7344-15.2453,116.7815-107.6508,208.6189-18.3889,40.7496-48.2514,90.1663-91.7139,95.4249-65.4416,7.918-100.214-91.7215-206.352-176.8166-146.6069-117.5375-323.5689-122.5064-359.4506-122.8197-37.1408-.3245-237.3613-2.073-375.834,130.0257-101.5135,96.8404-119.7957,217.8717-196.1779,220.1296-38.6996,1.1439-70.7693-28.8383-89.6336-50.4347C42.3701,815.8424-14.8279,718.5078,11.0756,687.2801c20.4433-24.6442,92.6446-8.1177,216.6097,49.5864Z"/>
  <path class="cls-3" d="M242.3135,755.5985c-.1335,1.7901-1.3088,21.7986,13.5031,33.0578,14.397,10.944,37.9926,9.1332,54.0115-6.6114,94.6227-85.1458,204.9428-182.1196,330.8224-288.7024,47.2006-39.965,92.5076-77.2896,157.5346-81.5414,72.7471-4.757,129.4264,34.5427,213.7969,99.1725,84.384,64.6406,189.0122,148.9082,306.0669,253.4401,5.813,3.6909,17.17,9.5884,31.5068,8.8159,23.0019-1.2391,44.0581-19.1289,52.8866-45.1787"/>
  <path class="cls-2" d="M240.663,736.8896c-.1335,1.7901-1.3088,21.7986,13.5031,33.0578,14.397,10.944,37.9926,9.1332,54.0115-6.6114,94.6227-85.1458,204.9428-182.1196,330.8224-288.7024,47.2006-39.965,92.5076-77.2896,157.5346-81.5414,72.7471-4.757,129.4264,34.5427,213.7969,99.1725,84.384,64.6406,189.0122,148.9082,306.0669,253.4401,5.813,3.6909,17.17,9.5884,31.5068,8.8159,23.0019-1.2391,44.0581-19.1289,52.8866-45.1787"/>
  <path class="cls-3" d="M242.3135,733.5602c-.1335,1.7901-1.3088,21.7986,13.5031,33.0578,14.397,10.944,37.9926,9.1332,54.0115-6.6114,94.6227-85.1458,204.9428-182.1196,330.8224-288.7024,47.2006-39.965,92.5076-77.2896,157.5346-81.5414,72.7471-4.757,129.4264,34.5427,213.7969,99.1725,84.384,64.6406,189.0122,148.9082,306.0669,253.4401,5.813,3.6909,17.17,9.5884,31.5068,8.8159,23.0019-1.2391,44.0581-19.1289,52.8866-45.1787"/>
  <path class="cls-2" d="M240.6629,714.8513c-.1325,1.79-1.3081,21.7986,13.5021,33.0577,14.3982,10.944,37.9937,9.133,54.0112-6.6115,5.878-5.7788,10.8743-9.5366,11.6984-10.5192,24.8374-29.635,182.0045-182.3576,319.1258-278.1832,74.9069-52.3481,112.3589-78.5873,157.533-81.5414,72.7488-4.7571,129.4281,34.5427,213.7975,99.1725,84.3837,64.6406,189.0119,148.9082,306.0675,253.4402,5.8117,3.6909,17.1701,9.5883,31.5078,8.8159,23.002-1.2392,44.0561-19.129,52.8846-45.1788"/>
  <path class="cls-7" d="M939.5817,312.5961c-2.49,3.7194-74.7253-66.49-138.2024-46.0508-17.0382,5.4861-23.4511,14.2765-51.8294,22.0922-30.0347,8.2718-69.912,11.3872-72.3714,3.4759-3.4695-11.1609,62.7207-59.8263,135.9332-54.2941,77.1734,5.8314,129.993,69.5141,126.47,74.7768Z"/>
  <path class="cls-4" d="M265.1557,726.2864c1.2515,2.4359,3.8895,6.7161,8.598,8.4197,12.6758,4.5866,30.1952-13.1786,35.8566-18.864,64.0767-64.351,248.3183-218.8455,330.8226-288.7029,47.2004-39.9649,92.5074-77.2894,157.5344-81.5411,72.7465-4.7571,129.4259,34.5425,213.7962,99.1723,84.384,64.6404,189.0121,148.908,306.0669,253.4405,7.8,6.9661,19.606,10.2999,31.5074,8.8159,12.5829-1.5689,21.959-9.4372,27.8397-15.8232"/>
  <path class="cls-4" d="M939.8366,432.3196c.6406-.9786-9.9189-8.7164-23.5835-17.2817-13.6646-8.5653-25.2612-14.7148-25.9005-13.7362-.6406.9792,9.9189,8.717,23.5835,17.2823,13.6646,8.5653,25.2612,14.7148,25.9005,13.7356Z"/>
  <path class="cls-1" d="M1453.3447,889.8114c4.0324,7.8105-20.1847,73.1734-55.8037,73.9294-12.0123.255-21.8937-6.9106-27.0828-10.6737-23.2752-16.878-40.2344-50.8099-37.5547-57.3202,2.9046-7.0567,24.8292,27.9513,57.459,29.6017,37.7579,1.9096,59.447-42.3851,62.9823-35.5372Z"/>
  <ellipse class="cls-6" cx="623.012" cy="668.1967" rx="16.7185" ry="7.9521"/>
  <path class="cls-1" d="M345.4848,902.5489c1.8177,1.0265-46.131,112.4711-79.7721,105.7155-18.694-3.7542-27.9847-43.0056-25.3169-44.438,2.0705-1.1115,9.4753,21.5717,24.8399,24.792,34.0017,7.1269,78.5615-87.022,80.2492-86.0695Z"/>
</svg>