<?xml version="1.0" encoding="UTF-8"?>
<svg id="Layer_1" data-name="Layer 1" xmlns="http://www.w3.org/2000/svg" viewBox="0 0 1621.4173 1264.252">
  <defs>
    <style>
      .cls-1 {
        fill: #372416;
      }

      .cls-2 {
        fill: #8c5d37;
      }

      .cls-3 {
        fill: #4e341e;
      }

      .cls-4 {
        fill: #a27a5b;
      }

      .cls-5 {
        fill: #795333;
      }

      .cls-6 {
        fill: #503520;
      }

      .cls-7 {
        fill: #452e1a;
      }
    </style>
  </defs>
  <ellipse class="cls-1" cx="810.7087" cy="901.4974" rx="802.3435" ry="106.5381"/>
  <path class="cls-7" d="M353.0743,849.9244c149.506,33.9569,348.302,61.9149,580.7705,47.8541,124.932-7.5561,236.6767-25.8628,332.8015-47.8541,4.7876-18.1281,116.2991-451.5738-11.3751-514.9952-15.5156-7.7075-37.3818-11.3497-69.1061-2.6952-141.0636,15.2975-252.1811,3.2942-328.4512-10.8767-176.4475-32.7842-286.847-99.5506-413.2827-43.5028-21.6409,9.593-59.7675,27.0083-90.9304,65.9972-70.5891,88.3157-50.2812,218.3023-24.3535,384.2629,8.0512,51.5357,17.2286,93.6148,23.927,121.8098Z"/>
  <path class="cls-5" d="M337.4555,776.3021c172.9184,23.9313,323.4471,32.251,444.3947,33.9587,251.9209,3.557,433.9049-20.7515,480.1649-27.2224,8.7913-1.229,16.0495-2.2862,20.9128-3.0018h0c-5.426,23.2957-10.8555,46.5919-16.2815,69.8876-71.3364,18.3339-133.2027,29.0518-181.3616,35.6343,0,0-145.0956,19.8341-298.6942,13.2327-4.6664-.2004-14.1259-.6378-23.3849-1.0884-71.0234-3.4576-130.4844-7.7544-151.7173-9.5157-98.2273-8.1478-228.2968-32.538-258.4124-38.2629-3.8963-17.3624-7.6942-34.9491-11.376-52.7563-1.4453-6.9808-2.8589-13.936-4.2445-20.8658Z"/>
  <path class="cls-6" d="M760.0978,389.0517c-3.9144,9.0946-75.5394-37.9968-189.9648-29.6818-88.5588,6.4351-142.5828,41.6851-149.3621,29.6818-6.9105-12.2355,39.4436-66.1853,101.508-84.8315,118.3219-35.5471,243.1631,72.4145,237.8188,84.8315Z"/>
  <ellipse class="cls-6" cx="380.893" cy="452.8572" rx="18.1264" ry="29.7273"/>
  <path class="cls-6" d="M1221.1874,378.5827c5.1584,10.1185-37.17,33.3012-79.055,42.0198-76.2189,15.8651-150.7393-16.216-149.1236-18.9705,1.7692-3.0165,95.3749,28.2301,148.2565,2.8288,23.6925-11.3807,34.2087-31.7295,59.2674-31.9634,7.8346-.0732,18.4738,1.8072,20.6547,6.0853Z"/>
  <path class="cls-2" d="M992.9833,840.319c.3987,6.4474-118.605,26.8079-255.2524,25.4585-179.7807-1.7764-327.7515-40.5152-326.7481-47.8541.8623-6.3063,111.5219,12.2139,326.7481,18.3942,164.1936,4.7142,254.9054-1.6109,255.2524,4.0014Z"/>
  <path class="cls-2" d="M1085.2847,841.2371c0-6.7944-12.009-12.3026-26.8276-12.3026s-26.8241,5.5082-26.8241,12.3026,12.009,12.3021,26.8241,12.3021,26.8276-5.5078,26.8276-12.3021Z"/>
  <path class="cls-3" d="M122.0629,911.022c0,25.7194,63.0444,41.9191,57.2506,44.719-7.0078,3.387-116.6329-11.9017-116.6329-44.719s109.6252-48.106,116.6329-44.719c5.7938,2.7999-57.2506,18.9996-57.2506,44.719Z"/>
  <circle class="cls-3" cx="189.4521" cy="906.0955" r="9.7624"/>
  <path class="cls-3" d="M1224.9016,930.0171c-.2633-3.4546-177.1993,34.8826-434.6542,31.1532-217.4902-3.1499-369.9129-34.5456-370.1593-31.3746-.2534,3.2668,161.0395,42.3986,368.3288,46.4811,247.567,4.8759,436.7574-42.6821,436.4846-46.2598Z"/>
  <circle class="cls-4" cx="382.76" cy="470.5487" r="9.3337"/>
  <path class="cls-4" d="M616.8991,333.5851c-.9305,4.276-22.1774-1.1539-65.7988,2.7187-37.4114,3.3205-54.0419,10.1779-55.4671,6.5264-1.9255-4.9333,24.898-26.4929,57.6422-29.3649,33.8059-2.9651,64.7836,14.7906,63.6236,20.1198Z"/>
  <ellipse class="cls-4" cx="1075.4522" cy="841.4398" rx="6.561" ry="8.3821" transform="translate(-23.3969 1652.087) rotate(-74.4569)"/>
  <ellipse class="cls-4" cx="808.3418" cy="851.2995" rx="45.1348" ry="5.4379"/>
  <circle class="cls-4" cx="187.829" cy="906.0866" r="2.8549"/>
  <path class="cls-4" d="M88.1792,911.0219c.0418,9.0871,13.1195,14.9326,12.5068,15.8645-.8078,1.2282-25.2897-6.2753-24.4706-17.9447.7721-11.0027,23.3731-16.2539,24.4706-14.4107.8887,1.4924-12.5496,7.2608-12.5068,16.4908Z"/>
  <path class="cls-4" d="M130.8667,883.519c0-1.1257-2.1671-2.0388-4.8407-2.0388s-4.8407.9131-4.8407,2.0388c0,1.1266,2.1671,2.0397,4.8407,2.0397s4.8407-.9131,4.8407-2.0397Z"/>
</svg>