<?xml version="1.0" encoding="UTF-8"?>
<svg id="Layer_1" data-name="Layer 1" xmlns="http://www.w3.org/2000/svg" viewBox="0 0 1621.4173 1264.252">
  <defs>
    <style>
      .cls-1 {
        fill: #6e6f71;
      }

      .cls-2 {
        stroke: #414142;
      }

      .cls-2, .cls-3 {
        stroke-width: 15.3863px;
      }

      .cls-2, .cls-3, .cls-4 {
        fill: none;
        stroke-linecap: round;
        stroke-linejoin: round;
      }

      .cls-5 {
        fill: #2e1d10;
      }

      .cls-3 {
        stroke: #929497;
      }

      .cls-6 {
        fill: #d0d2d3;
      }

      .cls-4 {
        stroke: #e6e7e7;
        stroke-width: 3.2658px;
      }

      .cls-7 {
        fill: #d3d3d1;
      }
    </style>
  </defs>
  <path class="cls-5" d="M621.1554,666.1793c53.1321-106.3944,140.8759-174.0484,209.2609-161.9317,68.1527,12.0753,135.6252,106.6641,163.1651,145.2728,4.0217,5.637,7.263,10.4174,9.5122,13.7929,31.2215-18.9033,59.8452-25.8203,67.3152-17.1963,7.81,9.017-4.9566,37.9681-34.9995,67.8264-5.9786,13.2485-15.6875,29.315-29.8181,31.0247-21.2765,2.5743-32.5817-29.8206-67.0894-57.4868-47.665-38.2139-105.1991-39.8294-116.865-39.9313-12.0753-.1055-77.1712-.674-122.1916,42.2741-33.0042,31.4849-38.9481,70.8347-63.7816,71.5688-12.5821.3719-23.0086-9.376-29.1418-16.3974-45.6162-53.1394-64.2125-84.785-55.7907-94.9378,6.6465-8.0123,30.1207-2.6392,70.4244,16.1216Z"/>
  <path class="cls-2" d="M625.9114,672.2695c-.0434.582-.4255,7.0872,4.3902,10.7478,4.6808,3.5581,12.3522,2.9694,17.5603-2.1495,30.7638-27.6827,66.6312-59.2109,107.5574-93.8633,15.3459-12.9935,30.0762-25.1285,51.2178-26.5108,23.6516-1.5466,42.0793,11.2306,69.5099,32.2431,27.435,21.016,61.4519,48.4132,99.5088,82.3988,1.8899,1.2,5.5823,3.1174,10.2435,2.8662,7.4784-.4029,14.3242-6.2192,17.1946-14.6885"/>
  <path class="cls-3" d="M625.3748,666.1868c-.0434.582-.4255,7.0872,4.3902,10.7478,4.6808,3.5581,12.3522,2.9694,17.5603-2.1495,30.7638-27.6827,66.6312-59.2109,107.5574-93.8633,15.3459-12.9935,30.0762-25.1285,51.2178-26.5108,23.6516-1.5466,42.0793,11.2306,69.5099,32.2431,27.435,21.016,61.4519,48.4132,99.5088,82.3988,1.8899,1.2,5.5823,3.1174,10.2435,2.8662,7.4784-.4029,14.3242-6.2192,17.1946-14.6885"/>
  <path class="cls-2" d="M625.9114,665.1044c-.0434.582-.4255,7.0872,4.3902,10.7478,4.6808,3.5581,12.3522,2.9694,17.5603-2.1495,30.7638-27.6827,66.6312-59.2109,107.5574-93.8633,15.3459-12.9935,30.0762-25.1285,51.2178-26.5108,23.6516-1.5466,42.0793,11.2306,69.5099,32.2431,27.435,21.016,61.4519,48.4132,99.5088,82.3988,1.8899,1.2,5.5823,3.1174,10.2435,2.8662,7.4784-.4029,14.3242-6.2192,17.1946-14.6885"/>
  <path class="cls-3" d="M625.3747,659.0217c-.0431.582-.4253,7.0872,4.3898,10.7478,4.6812,3.5581,12.3526,2.9693,17.5602-2.1495,1.9111-1.8788,3.5355-3.1006,3.8034-3.42,8.0752-9.635,59.1735-59.2883,103.7546-90.4433,24.3538-17.0195,36.5303-25.5504,51.2173-26.5108,23.6522-1.5466,42.0798,11.2306,69.5101,32.2431,27.4349,21.016,61.4518,48.4132,99.509,82.3988,1.8895,1.2,5.5824,3.1174,10.2438,2.8662,7.4784-.4029,14.3236-6.2193,17.1939-14.6886"/>
  <path class="cls-7" d="M852.608,528.2401c-.8095,1.2093-24.2948-21.6173-44.9325-14.9721-5.5395,1.7836-7.6244,4.6416-16.8508,7.1826-9.7649,2.6893-22.7299,3.7022-23.5295,1.1301-1.128-3.6286,20.3918-19.4508,44.1948-17.6522,25.0907,1.8959,42.2635,22.6005,41.1181,24.3115Z"/>
  <path class="cls-4" d="M633.3379,662.7395c.4069.792,1.2646,2.1836,2.7954,2.7374,4.1212,1.4912,9.8171-4.2847,11.6577-6.1331,20.8327-20.9219,80.7335-71.1513,107.5574-93.8634,15.3458-12.9934,30.0761-25.1284,51.2178-26.5107,23.6514-1.5466,42.0791,11.2305,69.5097,32.243,27.435,21.016,61.4518,48.4132,99.5088,82.3989,2.536,2.2648,6.3743,3.3487,10.2437,2.8662,4.091-.5101,7.1393-3.0682,9.0513-5.1445"/>
  <path class="cls-4" d="M852.6909,567.1647c.2083-.3182-3.2248-2.8339-7.6675-5.6187-4.4427-2.7848-8.2129-4.7841-8.4208-4.4659-.2083.3184,3.2248,2.8341,7.6675,5.6189,4.4427,2.7848,8.2129,4.7841,8.4208,4.4657Z"/>
  <path class="cls-1" d="M1019.6432,715.905c1.311,2.5393-6.5625,23.7902-18.143,24.036-3.9054.0829-7.1181-2.2468-8.8052-3.4702-7.5672-5.4874-13.081-16.5194-12.2098-18.636.9443-2.2943,8.0725,9.0876,18.6811,9.6241,12.2759.6209,19.3275-13.7803,20.4769-11.5539Z"/>
  <ellipse class="cls-6" cx="749.6845" cy="643.8533" rx="5.4356" ry="2.5854"/>
  <path class="cls-1" d="M659.4545,720.0462c.591.3337-14.9982,36.5667-25.9356,34.3704-6.0778-1.2206-9.0984-13.982-8.2311-14.4477.6732-.3614,3.0806,7.0134,8.076,8.0604,11.0547,2.3171,25.542-28.2927,26.0907-27.983Z"/>
</svg>