<?xml version="1.0" encoding="UTF-8"?>
<svg id="Layer_1" data-name="Layer 1" xmlns="http://www.w3.org/2000/svg" viewBox="0 0 1621.4173 1264.252">
  <defs>
    <style>
      .cls-1 {
        fill: #b7b7b7;
      }

      .cls-2 {
        fill: #939598;
      }
    </style>
  </defs>
  <path class="cls-1" d="M803.9371,603.1132c-4.4614-5.3388-11.4627-15.4687-12.5474-29.1874-2.1253-26.8781,19.438-55.1706,34.0066-53.0291,14.0442,2.0644,26.4022,33.8883,17.1448,58.3385-5.4555,14.4087-16.9391,22.3648-22.5647,25.6941-1.0586,2.7348-2.7499,7.3675-4.361,13.2493-2.5061,9.1493-3.5604,16.7297-4.2233,22.7336-1.4651,13.2706-4.156,47.265-6.6419,92.6449-2.6193,7.0051-9.9513,11.0699-17.0874,9.6206-6.7682-1.3745-11.8088-7.394-11.9922-14.4727,13.1593-43.431,21.6414-76.4053,24.1454-89.2944,2.2617-11.642,3.2468-22.0361,3.2468-22.0364.5792-6.1122.7875-11.1095.8743-14.2612Z"/>
  <path class="cls-2" d="M817.5205,528.7134c-.3561-.2778-14.5096,10.6372-18.7995,28.9027-4.1081,17.4916,2.9039,32.8908,3.3414,32.8121.424-.0763-5.5227-14.6545-1.3685-32.2789,4.352-18.4636,17.1724-29.1661,16.8266-29.4359Z"/>
  <path class="cls-2" d="M830.4734,532.5671c.0726-.0393,8.4028,12.6958,5.9715,14.9016-.5439.4934-1.8373.6558-2.1851.2088-.2924-.3758.3433-1.0634.628-2.0455.4635-1.599-.2401-3.0801-.7896-4.289-1.755-3.8612-3.6674-8.7529-3.6247-8.776Z"/>
</svg>