<?xml version="1.0" encoding="UTF-8"?>
<svg id="Layer_1" data-name="Layer 1" xmlns="http://www.w3.org/2000/svg" viewBox="0 0 1621.4173 1264.252">
  <defs>
    <style>
      .cls-1 {
        fill: #231f20;
      }

      .cls-2 {
        fill: #e6e7e7;
        stroke: #231f20;
        stroke-miterlimit: 10;
        stroke-width: 35.8267px;
      }
    </style>
  </defs>
  <path class="cls-2" d="M774.6174,477.4942c-23.7781-28.4544-61.0936-82.4446-66.875-155.5625-11.3272-143.2546,103.6006-294.0474,181.2482-282.6338,74.8529,11.0028,140.718,180.6173,91.378,310.9315-29.0765,76.7955-90.2816,119.1996-120.2652,136.9442-5.6419,14.5761-14.6564,39.2673-23.2432,70.616-13.3569,48.7636-18.9762,89.1658-22.5091,121.1653-7.8088,70.7295-22.1507,251.9126-35.4001,493.7778-13.9605,37.3358-53.0382,59.0003-91.0723,51.276-36.0729-7.326-62.9382-39.4086-63.9158-77.1364,70.1363-231.4778,115.3441-407.2241,128.6899-475.9199,12.0546-62.0491,17.3046-117.4478,17.3047-117.4494,3.0872-32.5766,4.1971-59.2115,4.6599-76.0089Z"/>
  <path class="cls-1" d="M847.0145,80.9592c-1.8978-1.4806-77.3332,56.6941-100.1973,154.0454-21.8954,93.2266,15.4774,175.301,17.809,174.8813,2.2597-.4068-29.4349-78.1056-7.294-172.0397,23.1952-98.4073,91.5251-155.4492,89.6823-156.8869Z"/>
  <path class="cls-1" d="M916.0503,101.4982c.3872-.2095,44.785,67.6658,31.8266,79.4226-2.8986,2.6298-9.7925,3.4953-11.6463,1.1129-1.5586-2.0029,1.8299-5.6678,3.3472-10.9022,2.4704-8.5226-1.2798-16.4163-4.2083-22.8594-9.3536-20.5794-19.5464-46.651-19.3191-46.774Z"/>
</svg>