<?xml version="1.0" encoding="UTF-8"?>
<svg id="Layer_1" data-name="Layer 1" xmlns="http://www.w3.org/2000/svg" viewBox="0 0 1621.4173 1264.252">
  <defs>
    <style>
      .cls-1 {
        fill: #69903d;
      }

      .cls-2 {
        fill: #7b4b3f;
      }

      .cls-3 {
        fill: #5e392c;
      }

      .cls-4 {
        fill: #50281a;
      }

      .cls-5 {
        fill: #4b7438;
      }

      .cls-6 {
        fill: #734f44;
      }

      .cls-7 {
        fill: #40622f;
      }

      .cls-8 {
        fill: #85a87d;
      }
    </style>
  </defs>
  <g>
    <path class="cls-1" d="M783.2118,783.0661c1.2644-1.0933,3.1847-2.855,5.2763-5.2368,8.4523-9.6248,19.4308-29.0656,11.9196-43.2774-1.2153-2.2995-3.7509-6.0444-9.3359-9.3487,2.6016-.1312,6.8577-.6214,11.4766-2.6619,35.8622-15.8434,40.8852-101.8656,17.7602-113.6052-5.6676-2.8772-12.9287-1.2432-20.3977,2.4478,1.8487-2.9765,10.5556-17.6789,5.7114-35.0842-2.1312-7.6574-6.1236-13.1013-8.9751-16.3181,3.7124-5.2862,30.0087-43.7802,15.0943-73.9757-5.6276-11.3936-18.8558-25.1149-26.653-22.5735-4.6383,1.5118-5.9291,8.3139-11.6946,8.9751-3.8259.4387-7.2695-2.0964-9.519-4.2156,2.604-3.2602,5.9376-8.0723,8.6073-14.408,17.348-41.1701-12.1833-101.9419-34.5804-101.859-20.4756.0758-45.2017,51.0501-35.6709,92.6227,1.8439,8.0429,4.7674,14.8501,7.7941,20.3807-2.6199-4.7591-6.5409-10.034-11.3706-10.1508-10.1998-.2467-17.8282,22.6727-20.3139,30.1406-4.6781,14.0552-10.1528,39.5817-1.6318,75.8795-3.4855,1.5627-8.4369,4.4728-12.2386,9.7909-7.0923,9.9209-7.1923,24.0374-.8159,36.7159-6.8013-5.44-11.9689-7.3441-15.5022-5.7114-19.3309,8.9328-23.0236,97.5109,14.2141,116.998,5.0438,2.6395,9.837,3.4562,12.8469,3.7566-4.3852.0434-8.9338.9442-11.3966,4.1323-7.0474,9.1228,7.1449,31.5869,15.3402,40.7427,29.3857,32.8298,92.6717,18.5695,104.0555,15.8436Z"/>
    <path class="cls-5" d="M783.2118,783.0661c1.6976-.8758,4.0542-2.2532,6.5571-4.3181,11.7998-9.7352,19.8146-29.0351,12.7596-43.0372-1.1703-2.3227-3.6326-6.1162-9.1522-9.5287,2.4906-.0828,6.7939-.4757,11.5263-2.438,35.643-14.7797,45.0197-97.6059,19.9678-113.2381-4.8934-3.0534-10.5411-3.1942-15.0674-2.6367,1.6273-4.5993,5.0936-16.4237,1.019-30.2793-2.2228-7.5586-5.9109-13.0732-8.6558-16.4897,19.7618-24.8066,27.0702-53.3342,16.5312-73.668-7.1003-13.6992-24.4052-27.7381-33.6089-24-5.1605,2.0958-8.5198,10.0831-11.6946,8.9751-1.3254-.4625-1.9158-2.265-2.2074-3.7173,2.6142-3.0858,6.1104-7.8347,8.8861-14.2377,9.2379-21.3104,2.3089-42.06-2.2853-55.818-11.2997-33.8384-31.86-46.0128-35.1861-46.3028-.0578-.005-4.6982-.4065-4.6994-.4066-.1898,5.29-22.8257,92.6099,14.3537,133.2895,10.1747,11.1324,19.6716,13.1791,23.186,26.109,4.5885,16.8816-8.779,23.9699-9.7909,50.0425-.3346,8.6217,1.1508,7.2357,7.6151,44.6031,3.3772,19.5221,5.0658,29.2831,5.4394,34.8121,1.4912,22.0669-6.0595,37.7826-19.5818,67.4485-15.3409,33.6557-33.9346,60.6314-46.1669,60.4536-1.8278-.0265-7.4934-.7173-12.8564,2.451-3.5264,2.0832-8.1063,6.5346-8.1063,6.5346,1.8678,1.1775,4.579,2.7782,7.9762,4.409,13.147,6.3109,24.6973,7.3717,35.968,8.3029,11.3047.934,18.5365,1.5857,28.3528-.4838,8.172-1.7228,14.6006-4.564,18.9212-6.8305Z"/>
    <path class="cls-4" d="M736.2833,491.2722c-.9682.053-6.102,29.6355.0447,62.6761.9508,5.1107,2.484,11.9841.1934,13.1698-5.2386,2.7115-25.3397-26.9861-26.4233-26.194-.4968.3632,3.0376,7.112,8.6123,14.5733,9.2382,12.3646,15.9831,15.8497,17.1993,24.9968.4456,3.3513-.0758,5.7715-.4897,8.0868-4.599,25.7292,2.929,45.0002-1.7374,47.0127-7.4973,3.2333-33.928-43.4936-34.9311-42.8767-.5265.3237,6.0228,13.6465,17.4898,30.1887,12.7771,18.4321,13.7692,15.2703,17.0665,22.8226,6.9318,15.8769-1.8682,21.7019-.4764,56.0486.1407,3.47.5138,10.4025-2.0828,11.3578-2.9867,1.0987-8.2921-6.3032-8.796-7.0062-2.5818-3.6021-3.6649-6.8099-5.1674-11.4228-4.3018-13.2072-4.0898-13.52-5.1343-16.1917-4.2134-10.7772-13.0118-19.3674-14.8032-18.3484-3.4156,1.9428,14.5695,41.1365,14.5696,41.1357h0c-9.0047-4.3155-13.3978-5.7796-13.398-5.7797-2.5018-.8338-7.6811-2.56-8.0388-1.8017-.7513,1.5924,20.0481,13.5391,21.1613,14.1764,3.8297,2.1921,7.2845,4.9859,11.0148,7.3432,2.5218,1.5936,5.0989,3.1615,6.6633,6.2553,1.233,2.4386,1.2757,4.7156,1.2918,5.5754.1099,5.8592-2.7166,79.6273-6.863,180.3159h24.0803l-1.8834-220.2954c10.9431-12.5106,21.8862-25.0211,32.8293-37.5318-11.431,9.8815-22.8618,19.7631-34.2928,29.6447l-.272-123.7462c4.8675-9.6096,9.7351-19.2192,14.6027-28.8288-5.5021,7.4338-11.0043,14.8677-16.5064,22.3015-3.4477-45.7764-4.9037-57.6915-5.5231-57.6575Z"/>
    <path class="cls-3" d="M736.2834,491.2722c-1.3776-.0657-10.0683,29.9526-4.9345,62.6761.8158,5.2,2.2612,12.256.1934,13.1698-4.5373,2.0051-21.7921-27.4196-22.1839-27.1634-.1219.0796,1.405,3.0169,7.0712,11.9667,9.8356,15.5353,13.8406,20.278,14.501,28.5728.255,3.2037-.117,5.328-.4897,8.0868-3.7063,27.4362,2.2639,45.5466-1.7374,47.0127-6.5315,2.393-27.8912-43.8648-29.9519-42.8767-1.1139.5341,3.2349,14.9579,12.5106,30.1887,9.7126,15.9481,12.7726,12.9876,17.0665,22.8226,6.9318,15.8769-1.8682,21.7019-.4764,56.0486.1407,3.47.5138,10.4025-2.0828,11.3578-2.9867,1.0987-8.2921-6.3032-8.796-7.0062-2.5058-3.4961-3.58-6.5931-5.1674-11.4228-3.5081-10.6735-3.835-12.5043-5.1343-16.1917-3.9286-11.1491-9.4438-18.5425-9.824-18.3484-.5081.2594,5.2899,15.5336,9.7909,33.7242.4853,1.9612,1.5067,6.2542-.2004,7.4115-1.9135,1.2972-6.7525-1.6847-13.398-5.7797-2.114-1.3027-2.9572-1.9277-3.0596-1.8017-.3179.3912,6.5667,7.9587,16.1822,14.1764,3.7055,2.3961,7.2845,4.9859,11.0148,7.3432,2.5218,1.5936,5.0989,3.1615,6.6633,6.2553,1.233,2.4386,1.2757,4.7156,1.2918,5.5754.1099,5.8592-2.7166,79.6273-6.863,180.3159h24.0803l-1.8834-220.2954,37.8085-37.5318c.0511-.0955.2136-.4247.0753-.6797-.1504-.2772-.5673-.302-.7471-.3128-2.0462-.1221-4.5553,2.7876-4.5555,2.7877-2.4129,2.7981-5.8486,4.5679-8.363,7.2752-2.9748,3.2029-9.7563,9.0671-25.6816,20.5742-.0907-41.2487-.1813-82.4975-.272-123.7462l19.5818-28.8288c-7.1619,7.4338-14.3237,14.8677-21.4856,22.3015.8661-45.6284.3197-57.6163-.5439-57.6575Z"/>
    <path class="cls-2" d="M721.9826,815.478s-.4298,12.0298-3.7131,91.9078h0c.0085-.0459,13.4168-45.6836,15.011-91.6974,1.5804-45.6185-8.4526-91.5746-8.4567-91.6127h0c0,.0065-1.2086,45.7105-2.8412,91.4023Z"/>
    <path class="cls-8" d="M651.2192,665.4702c5.2189,26.3668,18.7151,41.9362,17.6781,42.5636-1.1673.7062-20.1527-17.881-24.5248-45.2791-3.9804-24.9428,5.8791-46.3561,7.2972-46.1027,1.3888.2482-5.9234,21.1681-.4505,48.8183Z"/>
    <path class="cls-8" d="M666.0686,579.0135c-2.8407,6.2235-2.5682,12.4442.6087,13.8943,3.5227,1.6079,10.9643-3.9462,10.896-8.6429-.0357-2.4605-2.124-3.1849-2.4208-6.5569-.3687-4.1881,2.5383-6.6414,1.812-7.3374-.9964-.9548-7.9763,2.2465-10.8959,8.6429Z"/>
    <path class="cls-8" d="M708.1289,466.0487c-.6266,2.3495-7.7295,3.5431-9.9949,1.02-1.0606-1.1813-.5265-2.5818-1.2878-2.9577-2.4216-1.1955-10.1525,11.8256-11.0528,11.3207-.9004-.505,2.4336-15.9946,11.1175-16.9302,5.6086-.6043,11.8891,5.0308,11.218,7.5471Z"/>
    <path class="cls-8" d="M673.1305,730.4031c-4.29,1.8341-4.0626,9.6945-4.9348,9.6128-1.021-.0957-3.4686-11.0661,1.2943-13.6588,4.8007-2.6133,12.5478,5.6688,12.2662,6.1465-.2106.3573-4.8833-3.7005-8.6256-2.1005Z"/>
    <path class="cls-8" d="M713.0009,400.5295c4.3962-22.7593,15.9734-36.2399,15.0766-36.7768-1.0095-.6044-17.3086,15.5005-20.9704,39.1458-3.3337,21.5264,5.2541,39.954,6.4761,39.7299,1.1967-.2195-5.1923-18.2318-.5822-42.0989Z"/>
    <ellipse class="cls-8" cx="732.786" cy="360.2641" rx="2.9955" ry="1.93" transform="translate(-52.1738 585.2169) rotate(-42.1716)"/>
    <path class="cls-6" d="M729.6485,682.3666c-2.3578,15.8144.4729,28.839.9519,28.8288.4235-.0089-1.3398-10.1967,1.0879-24.6133,2.8006-16.6314,8.4688-22.7976,5.1674-33.3163-1.8488-5.8907-5.7361-10.6785-6.5273-10.3349-.8311.3609,2.0464,6.2565,2.9587,14.1425,1.1562,9.9938-1.9274,13.8157-3.6386,25.2931Z"/>
    <ellipse class="cls-6" cx="736.9916" cy="725.8138" rx="2.0398" ry="5.9153"/>
    <path class="cls-6" d="M730.8487,571.73c-.5602-.564-1.3873-1.2196-2.5771-2.6388-2.7192-3.2434-4.121-6.6436-3.8926-6.7822.1646-.0999,1.0657,1.5605,3.1616,3.8245,2.2882,2.4718,3.9262,3.4226,4.8511,4.2625,5.2155,4.736.9292,17.9072.6393,17.8691-.2688-.0353,2.9008-11.4177-2.1823-16.5351Z"/>
    <ellipse class="cls-6" cx="737.8386" cy="571.8229" rx=".9319" ry="1.6184"/>
    <ellipse class="cls-6" cx="708.9212" cy="613.7974" rx=".5862" ry="4.7201" transform="translate(-211.9213 436.6939) rotate(-30)"/>
    <path class="cls-6" d="M730.6174,613.4563c-.2246,8.2887,1.0606,10.8767-.204,18.205-.3953,2.2909-.7928,3.6136-.612,3.6715.402.1289,3.8485-5.9379,4.0796-13.3605.1407-4.5217-1.0758-4.2739-.8159-8.516.2937-4.7943,1.8822-5.675,3.4676-13.6155.9117-4.5663.8762-6.7288-.4079-8.3631-.8409-1.0702-2.4321-2.1875-3.4676-1.7337-1.6159.7082-.8094,4.7744-.8159,10.8107-.0073,6.7696-1.0261,5.605-1.2238,12.9016Z"/>
    <path class="cls-6" d="M724.8692,906.0362c-.3653.2156-.6743.3829-.8959.499-.0003.0002-.4243.2224-1.719.8257h0c9.4055-.0264,11.3205-.0248,11.3207-.0248s4.0144.0033,8.7749.0248h0s-.0213-3.2977-.4797-5.4628c-.8149-3.8485-1.1853-5.7848-1.3599-6.2538-1.0996-2.9523-1.5253-20.2806-.4079-65.5966-.2353-19.3179-.4534-23.3834-.6119-23.3837-.2552-.0004-.3512,10.5307-1.1559,31.5407-.7582,19.7996-1.1527,29.743-1.9038,31.8806-1.1387,3.2411-3.5433,8.8072-1.7679,15.0906.9969,3.5283,2.4801,4.5132,2.5838,7.0695.1323,3.2631-2.063,7.8835-12.3775,13.7906Z"/>
    <path class="cls-6" d="M702.5525,702.8142c2.5299,1.2972,4.4724,1.5053,4.4287,1.7348-.0478.2504-2.4394.4103-4.7185-.5988-3.203-1.4182-4.844-4.5519-4.6382-4.7424.1768-.1636,1.6365,1.9187,4.928,3.6065Z"/>
    <ellipse class="cls-6" cx="744.8834" cy="678.5789" rx="3.2381" ry="1.1166" transform="translate(-253.0877 539.3877) rotate(-34.393)"/>
    <path class="cls-7" d="M803.0536,499.101c6.0132,18.004,3.2321,29.5223,5.3491,29.7525,2.3022.2504,9.38-12.9574,5.2847-28.353-5.0983-19.1664-25.4869-34.1053-27.6393-33.5334-1.8328.487,10.2893,12.025,17.0055,32.1338Z"/>
    <ellipse class="cls-7" cx="804.9319" cy="541.2771" rx="1.6318" ry="4.3515"/>
    <path class="cls-7" d="M824.1978,677.2327c-5.7059,17.2339-19.8609,30.7496-23.7003,28.8601-2.809-1.3824,7.1382-13.5121,8.409-36.3854.7376-13.2763-1.9164-21.1992,3.9235-30.146,2.6954-4.1294,8.4075-10.3265,12.3136-9.0068,6.7605,2.284,5.8143,26.26-.9458,46.678Z"/>
    <path class="cls-7" d="M780.8435,452.5787c-1.7465,5.8362-2.7423,7.6475-3.6525,9.0113-2.2202,3.3266-6.0049,7.0976-6.0046,7.1,0-.0003-.0013-.0097-.0013-.01-3.5162-26.4934.0883-39.9728-.5214-56.4525-.8864-23.9614-10.0135-36.1972-8.1591-36.9879,3.4372-1.4655,24.2478,45.0039,21.8935,62.2811-.31,2.2748-1.579,8.4559-3.5547,15.058Z"/>
    <ellipse class="cls-7" cx="804.4337" cy="587.1778" rx="4.0338" ry="11.8929" transform="translate(-127.7559 236.5869) rotate(-15.5157)"/>
    <ellipse class="cls-7" cx="803.6177" cy="605.598" rx=".8159" ry="2.1758"/>
  </g>
  <g>
    <path class="cls-1" d="M946.7191,816.7746c.9262-.8009,2.3328-2.0914,3.865-3.836,6.1915-7.0503,14.2334-21.2911,8.7313-31.7015-.8902-1.6844-2.7476-4.4276-6.8387-6.8481,1.9057-.0961,5.0234-.4552,8.4068-1.9499,26.2697-11.6056,29.9492-74.6184,13.0096-83.2178-4.1516-2.1076-9.4705-.9106-14.9417,1.793,1.3542-2.1803,7.7322-12.9501,4.1837-25.6998-1.5611-5.6092-4.4856-9.5969-6.5744-11.9533,2.7194-3.8723,21.9819-32.0698,11.0568-54.1886-4.1223-8.346-13.8122-18.3971-19.5238-16.5355-3.3977,1.1074-4.3432,6.0901-8.5665,6.5744-2.8025.3214-5.3251-1.5357-6.9728-3.088,1.9075-2.3882,4.3494-5.9131,6.305-10.5541,12.7077-30.1578-8.9245-74.6742-25.3308-74.6135-14.9987.0555-33.1111,37.3951-26.1296,67.8478,1.3507,5.8916,3.4922,10.878,5.7093,14.9292-1.9191-3.4862-4.7914-7.3501-8.3292-7.4357-7.4715-.1807-13.0595,16.6082-14.8803,22.0785-3.4268,10.2957-7.4371,28.9943-1.1953,55.5831-2.5532,1.1447-6.1801,3.2764-8.965,7.172-5.1952,7.2673-5.2685,17.6078-.5977,26.8951-4.9821-3.9849-8.7674-5.3797-11.3557-4.1837-14.1602,6.5434-16.8652,71.4285,10.4121,85.7031,3.6947,1.9335,7.2058,2.5317,9.4106,2.7517-3.2123.0318-6.5442.6917-8.3482,3.027-5.1623,6.6826,5.2338,23.1379,11.237,29.8448,21.5256,24.0485,67.8837,13.6025,76.2225,11.6057Z"/>
    <path class="cls-5" d="M946.7191,816.7746c1.2435-.6415,2.9698-1.6505,4.8032-3.1631,8.6436-7.1312,14.5146-21.2687,9.3466-31.5255-.8573-1.7014-2.6609-4.4803-6.7042-6.9799,1.8244-.0607,4.9766-.3484,8.4432-1.7859,26.1091-10.8264,32.9778-71.4981,14.6268-82.9489-3.5845-2.2367-7.7215-2.3398-11.0371-1.9314,1.192-3.3691,3.7312-12.0307.7464-22.1802-1.6283-5.5368-4.3299-9.5764-6.3405-12.079,14.4759-18.1713,19.8294-39.0682,12.1094-53.9631-5.2011-10.0349-17.8772-20.3186-24.6191-17.5805-3.7801,1.5352-6.2409,7.3861-8.5665,6.5744-.9709-.3388-1.4033-1.6591-1.617-2.723,1.9149-2.2604,4.476-5.7391,6.5092-10.4294,6.767-15.6102,1.6913-30.8097-1.6741-40.8877-8.2773-24.7873-23.338-33.7052-25.7744-33.9177-.0423-.0037-3.4415-.2978-3.4424-.2979-.139,3.875-16.7203,67.8384,10.5143,97.6369,7.4531,8.1547,14.4098,9.6539,16.9842,19.1253,3.3612,12.3661-6.4308,17.5584-7.172,36.657-.2451,6.3155.843,5.3003,5.5782,32.6725,2.4738,14.3003,3.7108,21.4504,3.9845,25.5005,1.0924,16.1644-4.4387,27.6764-14.344,49.4072-11.2375,24.6534-24.8577,44.4136-33.8181,44.2834-1.3389-.0194-5.489-.5254-9.4175,1.7954-2.5831,1.526-5.938,4.7867-5.938,4.7867,1.3682.8625,3.3542,2.0351,5.8427,3.2296,9.6304,4.6228,18.0912,5.3999,26.3472,6.082,8.2809.6842,13.5783,1.1615,20.7689-.3544,5.9862-1.262,10.6952-3.3432,13.8601-5.0035Z"/>
    <path class="cls-4" d="M912.3432,603.0303c-.7092.0388-4.4699,21.7085.0328,45.9114.6965,3.7437,1.8196,8.7786.1417,9.6471-3.8374,1.9863-18.5618-19.7678-19.3555-19.1876-.3639.266,2.2251,5.2097,6.3086,10.6752,6.7672,9.0573,11.7079,11.6102,12.5988,18.3106.3264,2.4549-.0556,4.2277-.3587,5.9237-3.3688,18.8471,2.1456,32.9635-1.2727,34.4376-5.4919,2.3685-24.8529-31.8598-25.5876-31.408-.3856.2371,4.4118,9.9963,12.8116,22.1137,9.3595,13.5018,10.0862,11.1858,12.5015,16.7179,5.0777,11.6301-1.3685,15.897-.349,41.0566.103,2.5419.3763,7.62-1.5257,8.3198-2.1878.8048-6.0741-4.6172-6.4432-5.1322-1.8912-2.6386-2.6846-4.9884-3.7852-8.3674-3.1512-9.6745-2.9959-9.9036-3.761-11.8607-3.0864-7.8945-9.5314-14.187-10.8436-13.4406-2.502,1.4232,10.6724,30.1333,10.6725,30.1327h0c-6.5961-3.1612-9.8141-4.2337-9.8143-4.2337-1.8326-.6108-5.6265-1.8752-5.8886-1.3198-.5503,1.1664,14.6856,9.9177,15.501,10.3844,2.8054,1.6058,5.336,3.6522,8.0685,5.379,1.8472,1.1673,3.7351,2.3158,4.881,4.5821.9032,1.7863.9345,3.4542.9463,4.0841.0805,4.292-1.9899,58.3284-5.0273,132.0846h17.6392l-1.3796-161.3704c8.016-9.1643,16.032-18.3284,24.0481-27.4927-8.3734,7.2384-16.7467,14.4768-25.1201,21.7152l-.1992-90.6463c3.5655-7.0392,7.1312-14.0784,10.6967-21.1176-4.0304,5.4454-8.0609,10.8908-12.0912,16.3362-2.5255-33.532-3.592-42.26-4.0458-42.2352Z"/>
    <path class="cls-3" d="M912.3432,603.0303c-1.0091-.0481-7.3752,21.9408-3.6146,45.9114.5976,3.8091,1.6564,8.9778.1417,9.6471-3.3236,1.4688-15.9631-20.0854-16.2501-19.8976-.0893.0583,1.0292,2.21,5.1798,8.7658,7.2047,11.3799,10.1385,14.854,10.6222,20.9301.1868,2.3468-.0857,3.9029-.3587,5.9237-2.7149,20.0975,1.6584,33.3637-1.2727,34.4376-4.7844,1.7529-20.4308-32.1318-21.9403-31.408-.8159.3913,2.3696,10.9569,9.1643,22.1137,7.1146,11.6823,9.3562,9.5137,12.5015,16.7179,5.0777,11.6301-1.3685,15.897-.349,41.0566.103,2.5419.3763,7.62-1.5257,8.3198-2.1878.8048-6.0741-4.6172-6.4432-5.1322-1.8356-2.5609-2.6224-4.8295-3.7852-8.3674-2.5698-7.8185-2.8092-9.1596-3.761-11.8607-2.8778-8.1669-6.9177-13.5827-7.1963-13.4406-.3722.19,3.875,11.3787,7.172,24.7036.3555,1.4366,1.1037,4.5813-.1468,5.4291-1.4016.9502-4.9463-1.2341-9.8143-4.2337-1.5485-.9542-2.1662-1.412-2.2412-1.3198-.2329.2866,4.8102,5.8299,11.8537,10.3844,2.7143,1.7552,5.336,3.6522,8.0685,5.379,1.8472,1.1673,3.7351,2.3158,4.881,4.5821.9032,1.7863.9345,3.4542.9463,4.0841.0805,4.292-1.9899,58.3284-5.0273,132.0846h17.6392l-1.3796-161.3704,27.6954-27.4927c.0374-.07.1565-.3111.0552-.4979-.1101-.203-.4156-.2212-.5473-.2291-1.4989-.0895-3.3369,2.0419-3.337,2.0421-1.7675,2.0497-4.2842,3.346-6.1261,5.3292-2.1791,2.3462-7.1467,6.6418-18.8122,15.071-.0664-30.2154-.1328-60.4309-.1992-90.6463l14.344-21.1176c-5.2462,5.4454-10.4924,10.8908-15.7386,16.3362.6344-33.4236.2342-42.205-.3984-42.2352Z"/>
    <path class="cls-2" d="M901.8677,840.5169s-.3149,8.8121-2.7199,67.3241h0c.0062-.0336,9.8281-33.4641,10.9958-67.17,1.1577-33.4164-6.1916-67.08-6.1947-67.108h0c0,.0048-.8853,33.4838-2.0812,66.9538Z"/>
    <path class="cls-8" d="M850.0322,730.6335c3.823,19.3141,13.7092,30.719,12.9495,31.1786-.8551.5173-14.7622-13.0981-17.9649-33.1677-2.9157-18.2711,4.3066-33.9567,5.3453-33.7711,1.0173.1818-4.339,15.506-.33,35.7603Z"/>
    <path class="cls-8" d="M860.9096,667.3024c-2.0809,4.5588-1.8813,9.1156.4459,10.1779,2.5804,1.1778,8.0315-2.8906,7.9815-6.3311-.0262-1.8023-1.5558-2.333-1.7733-4.8031-.2701-3.0679,1.8594-4.8649,1.3273-5.3748-.7299-.6994-5.8428,1.6456-7.9815,6.3311Z"/>
    <path class="cls-8" d="M891.7195,584.5537c-.459,1.721-5.662,2.5954-7.3215.7471-.7769-.8653-.3856-1.8912-.9433-2.1666-1.7739-.8757-7.4369,8.6625-8.0964,8.2926-.6595-.3699,1.7826-11.7163,8.1438-12.4016,4.1084-.4426,8.709,3.6851,8.2174,5.5284Z"/>
    <path class="cls-8" d="M866.0826,778.198c-3.1425,1.3435-2.9759,7.1014-3.6148,7.0415-.7479-.0701-2.5408-8.1061.9481-10.0053,3.5166-1.9143,9.1915,4.1525,8.9852,4.5025-.1543.2618-3.5771-2.7107-6.3184-1.5386Z"/>
    <path class="cls-8" d="M895.2884,536.5597c3.2203-16.6716,11.7008-26.5464,11.0439-26.9397-.7395-.4427-12.6789,11.3544-15.3612,28.675-2.442,15.7685,3.8487,29.267,4.7438,29.1028.8766-.1608-3.8035-13.3551-.4265-30.8382Z"/>
    <ellipse class="cls-8" cx="909.7813" cy="507.0646" rx="2.1942" ry="1.4138" transform="translate(-104.9112 742.0444) rotate(-42.1716)"/>
    <path class="cls-6" d="M907.4831,743.0104c-1.7272,11.5843.3464,21.1251.6973,21.1176.3102-.0065-.9814-7.4693.7969-18.0297,2.0515-12.1828,6.2035-16.6997,3.7852-24.4048-1.3543-4.315-4.2018-7.8222-4.7813-7.5705-.6088.2643,1.499,4.583,2.1673,10.3596.8469,7.3206-1.4119,10.1202-2.6654,18.5277Z"/>
    <ellipse class="cls-6" cx="912.862" cy="774.8362" rx="1.4942" ry="4.3331"/>
    <path class="cls-6" d="M908.3622,661.9671c-.4103-.4131-1.0162-.8934-1.8877-1.933-1.9919-2.3758-3.0187-4.8666-2.8514-4.9681.1205-.0732.7807,1.1431,2.316,2.8015,1.6761,1.8106,2.876,2.5071,3.5535,3.1223,3.8205,3.4692.6807,13.1173.4683,13.0894-.1969-.0258,2.1249-8.3637-1.5986-12.1122Z"/>
    <ellipse class="cls-6" cx="913.4825" cy="662.0352" rx=".6827" ry="1.1855"/>
    <ellipse class="cls-6" cx="892.3" cy="692.7822" rx=".4294" ry="3.4576" transform="translate(-226.8456 538.9652) rotate(-30)"/>
    <path class="cls-6" d="M908.1928,692.5324c-.1645,6.0716.7769,7.9674-.1494,13.3355-.2896,1.6781-.5807,2.647-.4483,2.6895.2945.0944,2.8191-4.3496,2.9884-9.7868.1031-3.3122-.788-3.1307-.5977-6.2382.2152-3.5119,1.3788-4.1571,2.5401-9.9736.6678-3.3449.6418-4.929-.2988-6.1261-.6159-.784-1.7815-1.6024-2.5401-1.27-1.1837.5188-.5929,3.4973-.5977,7.9191-.0054,4.9589-.7517,4.1058-.8965,9.4507Z"/>
    <path class="cls-6" d="M903.9821,906.8524c-.2676.1579-.4939.2805-.6563.3655-.0002.0001-.3108.1629-1.2592.6049h0c6.8897-.0193,8.2924-.0181,8.2926-.0181s2.9406.0024,6.4278.0181h0s-.0156-2.4156-.3514-4.0016c-.5969-2.8191-.8683-4.2375-.9962-4.581-.8055-2.1626-1.1173-14.8559-.2988-48.0507-.1723-14.1507-.3321-17.1288-.4482-17.129-.1869-.0003-.2573,7.7139-.8467,23.1042-.5554,14.5036-.8444,21.7873-1.3945,23.3531-.8342,2.3742-2.5955,6.4514-1.295,11.0541.7303,2.5846,1.8168,3.306,1.8927,5.1785.0969,2.3902-1.5112,5.7748-9.0667,10.1019Z"/>
    <path class="cls-6" d="M887.6348,757.9887c1.8532.9502,3.2761,1.1027,3.2441,1.2707-.035.1834-1.7869.3006-3.4564-.4386-2.3462-1.0388-3.5484-3.3344-3.3976-3.4739.1295-.1199,1.1987,1.4055,3.6099,2.6418Z"/>
    <ellipse class="cls-6" cx="918.6429" cy="740.2359" rx="2.372" ry=".8179" transform="translate(-257.5394 648.3174) rotate(-34.393)"/>
    <path class="cls-7" d="M961.2536,608.765c4.4048,13.1883,2.3675,21.6256,3.9183,21.7943,1.6864.1834,6.871-9.4915,3.8712-20.769-3.7346-14.0398-18.6696-24.9828-20.2463-24.5638-1.3426.3567,7.5371,8.8085,12.4568,23.5386Z"/>
    <ellipse class="cls-7" cx="962.6295" cy="639.6598" rx="1.1953" ry="3.1876"/>
    <path class="cls-7" d="M976.7421,739.2497c-4.1797,12.6241-14.5485,22.5246-17.3609,21.1405-2.0576-1.0126,5.2289-9.8979,6.1598-26.6529.5403-9.7251-1.4038-15.5288,2.874-22.0825,1.9744-3.0249,6.1587-7.5643,9.0199-6.5976,4.9522,1.6731,4.2591,19.2359-.6928,34.1925Z"/>
    <path class="cls-7" d="M944.9843,574.6866c-1.2794,4.2751-2.0088,5.6019-2.6755,6.6009-1.6263,2.4368-4.3987,5.1991-4.3985,5.2009,0-.0002-.001-.0071-.001-.0073-2.5756-19.4069.0647-29.2808-.3819-41.3525-.6493-17.5522-7.3351-26.5151-5.9767-27.0943,2.5178-1.0735,17.7619,32.9662,16.0374,45.622-.2271,1.6664-1.1566,6.1941-2.6039,11.0302Z"/>
    <ellipse class="cls-7" cx="962.2645" cy="673.2829" rx="2.9548" ry="8.7117" transform="translate(-145.0374 281.9451) rotate(-15.5157)"/>
    <ellipse class="cls-7" cx="961.6669" cy="686.776" rx=".5977" ry="1.5938"/>
  </g>
  <g>
    <path class="cls-1" d="M849.6227,839.5822c.7399-.6398,1.8635-1.6706,3.0874-3.0643,4.9458-5.6319,11.3699-17.0076,6.9747-25.3236-.7111-1.3455-2.1948-3.5368-5.4629-5.4703,1.5223-.0768,4.0128-.3636,6.7155-1.5576,20.9846-9.2707,23.9238-59.6061,10.3923-66.4755-3.3164-1.6836-7.5652-.7274-11.9356,1.4323,1.0818-1.7417,6.1766-10.3447,3.342-20.5293-1.2471-4.4807-3.5832-7.6661-5.2517-9.5485,2.1723-3.0932,17.5594-25.6177,8.8323-43.2865-3.293-6.6669-11.0334-14.6958-15.5959-13.2088-2.7141.8846-3.4694,4.8649-6.8431,5.2517-2.2387.2567-4.2537-1.2267-5.57-2.4667,1.5237-1.9077,3.4743-4.7235,5.0365-8.4308,10.1511-24.0904-7.129-59.6508-20.2346-59.6022-11.9812.0443-26.4496,29.8717-20.8727,54.1977,1.0789,4.7063,2.7896,8.6895,4.5607,11.9257-1.533-2.7848-3.8274-5.8713-6.6535-5.9397-5.9684-.1444-10.4321,13.2668-11.8865,17.6366-2.7374,8.2243-5.9408,23.161-.9548,44.4005-2.0395.9144-4.9368,2.6172-7.1614,5.7291-4.15,5.8052-4.2085,14.0654-.4774,21.4841-3.9797-3.1832-7.0035-4.2974-9.0711-3.342-11.3114,5.227-13.4722,57.058,8.3173,68.4608,2.9514,1.5445,5.7561,2.0224,7.5173,2.1981-2.566.0254-5.2276.5525-6.6687,2.418-4.1237,5.3381,4.1808,18.4829,8.9763,23.8404,17.1949,19.2102,54.2264,10.8659,60.8875,9.2708Z"/>
    <path class="cls-5" d="M849.6227,839.5822c.9933-.5125,2.3723-1.3184,3.8368-2.5267,6.9046-5.6965,11.5944-16.9897,7.4662-25.183-.6848-1.3591-2.1256-3.5789-5.3554-5.5757,1.4574-.0485,3.9754-.2783,6.7445-1.4266,20.8563-8.6483,26.3431-57.1136,11.6841-66.2607-2.8633-1.7867-6.1681-1.8691-8.8166-1.5428.9522-2.6913,2.9805-9.6102.5963-17.7178-1.3007-4.4229-3.4588-7.6497-5.0649-9.6488,11.5635-14.5154,15.84-31.2082,9.6731-43.1064-4.1547-8.016-14.2806-16.2308-19.6661-14.0435-3.0196,1.2264-4.9853,5.9001-6.8431,5.2517-.7756-.2707-1.121-1.3253-1.2916-2.1752,1.5297-1.8056,3.5755-4.5844,5.1996-8.3311,5.4055-12.4696,1.351-24.6112-1.3373-32.6616-6.612-19.8004-18.6427-26.9241-20.589-27.0939-.0338-.0029-2.7491-.2379-2.7498-.2379-.111,3.0954-13.3564,54.1902,8.399,77.9936,5.9536,6.5141,11.5107,7.7117,13.5672,15.2776,2.6849,9.8782-5.137,14.0258-5.7291,29.2821-.1958,5.0449.6734,4.2339,4.456,26.0992,1.9761,11.4233,2.9642,17.1348,3.1828,20.3701.8726,12.9123-3.5457,22.1083-11.4582,39.4671-8.9766,19.6935-19.8566,35.4782-27.0143,35.3741-1.0695-.0155-4.3847-.4197-7.5229,1.4342-2.0634,1.219-4.7434,3.8237-4.7434,3.8237,1.0929.689,2.6794,1.6257,4.6672,2.5799,7.6929,3.6928,14.4515,4.3135,21.0465,4.8584,6.6149.5465,10.8465.9278,16.5905-.2831,4.7818-1.0081,8.5435-2.6706,11.0717-3.9969Z"/>
    <path class="cls-4" d="M822.1628,668.8405c-.5665.031-3.5706,17.341.0262,36.6746.5564,2.9905,1.4535,7.0125.1132,7.7062-3.0653,1.5866-14.8274-15.7908-15.4615-15.3273-.2907.2125,1.7774,4.1616,5.0394,8.5275,5.4057,7.2351,9.3524,9.2744,10.0641,14.6267.2607,1.961-.0444,3.3772-.2865,4.7319-2.6911,15.0553,1.7139,26.3317-1.0167,27.5092-4.387,1.892-19.8528-25.45-20.4397-25.0891-.3081.1894,3.5242,7.9852,10.2341,17.6647,7.4765,10.7854,8.057,8.9353,9.9864,13.3545,4.0561,9.2903-1.0932,12.6988-.2788,32.7965.0823,2.0305.3006,6.087-1.2187,6.6459-1.7476.6429-4.8521-3.6883-5.1469-4.0996-1.5107-2.1077-2.1445-3.9848-3.0237-6.684-2.5172-7.7281-2.3931-7.9112-3.0043-9.4745-2.4654-6.3062-7.6138-11.3328-8.662-10.7365-1.9986,1.1368,8.5253,24.0708,8.5253,24.0704h0c-5.269-2.5252-7.8396-3.3819-7.8398-3.382-1.4639-.4879-4.4946-1.4979-4.7039-1.0543-.4396.9318,11.731,7.9224,12.3824,8.2952,2.241,1.2827,4.2625,2.9175,6.4453,4.2968,1.4756.9325,2.9836,1.8499,3.899,3.6603.7215,1.4269.7465,2.7593.7559,3.2624.0643,3.4285-1.5896,46.5935-4.0158,105.5109h14.0905l-1.1021-128.9047c6.4033-7.3205,12.8066-14.641,19.2099-21.9615-6.6888,5.7821-13.3775,11.5643-20.0662,17.3464l-.1591-72.4095c2.8482-5.623,5.6965-11.246,8.5447-16.869-3.2195,4.3499-6.4391,8.6997-9.6586,13.0496-2.0174-26.7858-2.8694-33.7579-3.2318-33.738Z"/>
    <path class="cls-3" d="M822.1628,668.8406c-.8061-.0384-5.8914,17.5266-2.8874,36.6746.4774,3.0427,1.3231,7.1715.1132,7.7062-2.655,1.1733-12.7515-16.0445-12.9808-15.8945-.0713.0466.8221,1.7653,4.1377,7.0022,5.7552,9.0904,8.0988,11.8655,8.4852,16.7192.1492,1.8746-.0685,3.1177-.2865,4.7319-2.1687,16.0542,1.3247,26.6514-1.0167,27.5092-3.8219,1.4003-16.3204-25.6673-17.5262-25.0891-.6518.3126,1.8929,8.7525,7.3205,17.6647,5.6833,9.332,7.4738,7.5996,9.9864,13.3545,4.0561,9.2903-1.0932,12.6988-.2788,32.7965.0823,2.0305.3006,6.087-1.2187,6.6459-1.7476.6429-4.8521-3.6883-5.1469-4.0996-1.4663-2.0457-2.0948-3.8579-3.0237-6.684-2.0528-6.2456-2.244-7.3168-3.0043-9.4745-2.2988-6.5238-5.526-10.8501-5.7485-10.7365-.2973.1518,3.0954,9.0894,5.7291,19.7336.284,1.1476.8817,3.6596-.1173,4.3368-1.1197.7591-3.9512-.9858-7.8398-3.382-1.237-.7623-1.7304-1.128-1.7903-1.0543-.186.2289,3.8425,4.657,9.4689,8.2952,2.1683,1.4021,4.2625,2.9175,6.4453,4.2968,1.4756.9325,2.9836,1.8499,3.899,3.6603.7215,1.4269.7465,2.7593.7559,3.2624.0643,3.4285-1.5896,46.5935-4.0158,105.5109h14.0905l-1.1021-128.9047,22.1234-21.9615c.0299-.0559.125-.2485.0441-.3977-.088-.1622-.332-.1767-.4372-.183-1.1973-.0715-2.6655,1.6311-2.6656,1.6312-1.4119,1.6373-3.4223,2.6729-4.8936,4.257-1.7407,1.8742-5.7088,5.3056-15.0274,12.0389-.053-24.1365-.1061-48.273-.1591-72.4095l11.4582-16.869c-4.1907,4.3499-8.3815,8.6997-12.5722,13.0496.5068-26.6992.1871-33.7139-.3183-33.738Z"/>
    <path class="cls-2" d="M813.7948,858.5479s-.2515,7.0392-2.1727,53.7794h0c.005-.0268,7.8508-26.7315,8.7836-53.6562.9248-26.6934-4.946-53.5844-4.9484-53.6067h0c0,.0038-.7072,26.7473-1.6625,53.4836Z"/>
    <path class="cls-8" d="M772.388,770.7716c3.0538,15.4284,10.9511,24.5388,10.3442,24.9059-.6831.4132-11.7922-10.463-14.3506-26.4948-2.3291-14.5952,3.4401-27.125,4.2699-26.9768.8126.1452-3.466,12.3864-.2636,28.5658Z"/>
    <path class="cls-8" d="M781.077,720.1819c-1.6622,3.6416-1.5028,7.2817.3562,8.1302,2.0613.9409,6.4157-2.3091,6.3757-5.0574-.0209-1.4397-1.2428-1.8636-1.4165-3.8367-.2157-2.4507,1.4853-3.8862,1.0603-4.2935-.583-.5587-4.6673,1.3145-6.3757,5.0574Z"/>
    <path class="cls-8" d="M805.6884,654.0811c-.3666,1.3748-4.5229,2.0733-5.8485.5968-.6206-.6912-.3081-1.5107-.7535-1.7307-1.417-.6995-5.9407,6.9197-6.4675,6.6243-.5269-.2955,1.424-9.3591,6.5054-9.9066,3.2819-.3536,6.9568,2.9437,6.5641,4.4162Z"/>
    <path class="cls-8" d="M785.2093,808.7668c-2.5103,1.0732-2.3772,5.6727-2.8876,5.6249-.5975-.056-2.0296-6.4753.7573-7.9924,2.8091-1.5292,7.3423,3.3171,7.1775,3.5966-.1233.2091-2.8574-2.1653-5.0472-1.2291Z"/>
    <path class="cls-8" d="M808.5392,615.7429c2.5724-13.3175,9.3468-21.2056,8.822-21.5198-.5907-.3537-10.128,9.07-12.2707,22.906-1.9507,12.5961,3.0744,23.3789,3.7894,23.2477.7002-.1285-3.0383-10.6682-.3407-24.634Z"/>
    <ellipse class="cls-8" cx="820.1163" cy="592.1818" rx="1.7528" ry="1.1293" transform="translate(-185.2659 703.8812) rotate(-42.1716)"/>
    <path class="cls-6" d="M818.2805,780.6584c-1.3797,9.2537.2767,16.875.557,16.869.2478-.0052-.784-5.9665.6366-14.4023,1.6388-9.7318,4.9555-13.3399,3.0237-19.4949-1.0818-3.4469-3.3564-6.2484-3.8194-6.0474-.4863.2112,1.1974,3.6609,1.7313,8.2754.6765,5.8478-1.1278,8.0842-2.1291,14.8001Z"/>
    <ellipse class="cls-6" cx="822.5773" cy="806.0813" rx="1.1936" ry="3.4613"/>
    <path class="cls-6" d="M818.9828,715.92c-.3278-.33-.8117-.7137-1.508-1.5441-1.5911-1.8979-2.4114-3.8875-2.2777-3.9686.0963-.0585.6236.9131,1.85,2.2379,1.3389,1.4463,2.2974,2.0027,2.8386,2.4942,3.0518,2.7713.5437,10.4783.3741,10.456-.1573-.0206,1.6974-6.681-1.277-9.6754Z"/>
    <ellipse class="cls-6" cx="823.0729" cy="715.9744" rx=".5453" ry=".947"/>
    <ellipse class="cls-6" cx="806.152" cy="740.5355" rx=".343" ry="2.762" transform="translate(-262.2639 502.289) rotate(-30)"/>
    <path class="cls-6" d="M818.8474,740.336c-.1314,4.8501.6206,6.3644-.1194,10.6525-.2313,1.3405-.4639,2.1145-.3581,2.1484.2353.0754,2.2519-3.4745,2.3871-7.8178.0824-2.6458-.6295-2.5009-.4774-4.9831.1719-2.8054,1.1014-3.3207,2.029-7.967.5335-2.6719.5127-3.9373-.2387-4.8936-.492-.6262-1.4231-1.28-2.029-1.0145-.9455.4144-.4736,2.7937-.4774,6.3258-.0043,3.9612-.6004,3.2798-.7161,7.5493Z"/>
    <path class="cls-6" d="M815.4839,911.5376c-.2137.1261-.3945.2241-.5242.292-.0002.0001-.2483.1302-1.0059.4832h0c5.5036-.0154,6.6241-.0145,6.6243-.0145s2.349.0019,5.1346.0145h0s-.0124-1.9296-.2807-3.1965c-.4769-2.2519-.6936-3.385-.7957-3.6594-.6434-1.7275-.8925-11.8671-.2387-38.3835-.1377-11.3038-.2653-13.6827-.3581-13.6828-.1493-.0003-.2055,6.162-.6763,18.4559-.4437,11.5856-.6745,17.404-1.114,18.6548-.6663,1.8965-2.0734,5.1535-1.0345,8.8302.5834,2.0646,1.4512,2.6409,1.5119,4.1367.0774,1.9094-1.2072,4.613-7.2426,8.0695Z"/>
    <path class="cls-6" d="M802.4254,792.6233c1.4804.7591,2.617.8808,2.5915,1.0151-.0279.1465-1.4274.2401-2.761-.3504-1.8742-.8298-2.8345-2.6635-2.714-2.775.1034-.0958.9576,1.1227,2.8836,2.1103Z"/>
    <ellipse class="cls-6" cx="827.1951" cy="778.4421" rx="1.8948" ry=".6534" transform="translate(-295.1076 603.3407) rotate(-34.393)"/>
    <path class="cls-7" d="M861.2331,673.4215c3.5186,10.535,1.8912,17.2748,3.13,17.4096,1.3471.1465,5.4887-7.5819,3.0923-16.5906-2.9833-11.2151-14.9135-19.9566-16.173-19.6219-1.0724.285,6.0207,7.0364,9.9507,18.8029Z"/>
    <ellipse class="cls-7" cx="862.3321" cy="698.1007" rx=".9548" ry="2.5463"/>
    <path class="cls-7" d="M873.6055,777.6544c-3.3388,10.0843-11.6215,17.9929-13.8681,16.8873-1.6437-.8089,4.1769-7.9065,4.9205-21.2907.4316-7.7685-1.1213-12.4046,2.2958-17.6398,1.5772-2.4163,4.9196-6.0425,7.2053-5.2703,3.9559,1.3365,3.4022,15.3659-.5535,27.3134Z"/>
    <path class="cls-7" d="M848.2369,646.1992c-1.022,3.415-1.6047,4.4749-2.1372,5.2729-1.2991,1.9465-3.5137,4.1531-3.5136,4.1546,0-.0002-.0008-.0057-.0008-.0058-2.0575-15.5025.0517-23.3899-.3051-33.0329-.5187-14.0209-5.8594-21.1806-4.7742-21.6433,2.0113-.8575,14.1884,26.3338,12.8109,36.4435-.1814,1.3311-.9239,4.9479-2.08,8.8111Z"/>
    <ellipse class="cls-7" cx="862.0406" cy="724.9592" rx="2.3604" ry="6.9591" transform="translate(-162.5134 257.0181) rotate(-15.5157)"/>
    <ellipse class="cls-7" cx="861.5632" cy="735.7377" rx=".4774" ry="1.2731"/>
  </g>
</svg>