<?xml version="1.0" encoding="UTF-8"?>
<svg id="Layer_1" data-name="Layer 1" xmlns="http://www.w3.org/2000/svg" viewBox="0 0 1621.4173 1264.252">
  <defs>
    <style>
      .cls-1 {
        fill: #f8ceaa;
      }

      .cls-2 {
        fill: #faaf43;
      }

      .cls-3 {
        fill: #c06728;
      }

      .cls-4 {
        fill: #fed1a6;
      }

      .cls-5 {
        fill: #d77c28;
      }
    </style>
  </defs>
  <g>
    <g>
      <g>
        <path class="cls-2" d="M641.6438,758.3202c-.0659,0-.1318-.0164-.1914-.0486-.105-.0571-.1787-.158-.2017-.2749l-44.9751-230.0156c-.0352-.1797.0562-.3604.2217-.4387.0547-.0261.1133-.0386.1714-.0386.1162,0,.2305.0508.3086.145l128.9482,155.6743,82.7461-156.2683c.0669-.1265.1968-.2075.3398-.2126.0044-.0002.0093-.0002.0142-.0002.1377,0,.2661.0708.3398.1882l95.3882,152.7192,120.8315-154.4087c.0776-.0994.1953-.1536.3154-.1536.0527,0,.106.0103.1567.032.167.0708.2651.2451.2397.4246l-31.7358,224.3113c-.0166.1187-.0859.2236-.188.2859-.0635.0386-.1357.0583-.2085.0583-.0444,0-.0894-.0073-.1323-.0225-52.0127-18.189-106.2119-27.6526-161.0913-28.1277-1.4404-.0125-2.8901-.0186-4.3203-.0186-64.1265,0-126.9849,12.1663-186.8281,36.1609-.0479.0193-.0986.0288-.1489.0288Z"/>
        <path class="cls-2" d="M1025.9006,525.5878h.0049M1025.9006,525.5878l-31.7358,224.311c-36.9761-12.9307-92.5952-27.5562-161.2202-28.1504-1.4414-.0127-2.8921-.0186-4.3232-.0186-82.6084,0-147.8442,20.499-186.9775,36.1899l-44.9751-230.0156,129.3306,156.1357,83.0264-156.7979,95.6909,153.2046,121.1841-154.8589M1025.9011,524.787c-.019,0-.0381.0005-.0566.002-.1509.0103-.2905.0625-.4067.145-.0439.0312-.0854.0674-.1235.1079t-.0005.001l-.0024.0024c-.0166.0181-.0322.0371-.0474.0566l-120.4736,153.9512-95.0854-152.2354c-.1465-.2349-.4038-.3765-.6792-.3765-.0093,0-.019,0-.0283.0005-.2866.0103-.5454.1724-.6797.4253l-82.4658,155.7397-128.5664-155.2134c-.1558-.1885-.3843-.29-.6172-.29-.1157,0-.2324.0249-.3423.0771-.3311.1567-.5137.5181-.4434.8774l20.4849,104.7651,24.4902,125.2505c.0459.2339.1938.4355.4033.5498.1191.0645.2505.0972.3828.0972.1011,0,.2021-.019.2979-.0576,59.7954-23.9756,122.6035-36.1323,186.6797-36.1323,1.4287,0,2.877.0063,4.3164.0186,54.8354.4751,108.9912,9.9312,160.9629,28.1055.0859.0303.1753.0449.2642.0449.1455,0,.2896-.0396.4165-.1167.2046-.1245.3428-.3345.3765-.5718l31.7271-224.2485c.0127-.0562.019-.1147.019-.1748,0-.4399-.3525-.7974-.792-.8008h-.0107ZM1025.9006,526.3885h.0049-.0049Z"/>
      </g>
      <g>
        <path class="cls-2" d="M900.4499,687.0399c-.1299-.002-.251-.0667-.3242-.1738-24.855-36.24-48.1714-74.7021-69.3013-114.3181-21.9844-41.22-22.9487-45.1155-21.9961-45.6543.0601-.0339.1865-.0659.2559-.0659.7461,0,2.728,0,49.9189,76.6201,16.125,26.1812,46.6318,76.3196,46.6318,76.6401,0,.0847-.0269.1675-.0767.2361l-4.7788,6.5515c-.0757.1033-.1958.1643-.3237.1643h-.0059Z"/>
        <path class="cls-2" d="M809.0842,527.2279c4.0073,0,96.1504,152.8594,96.1504,152.8599-1.5928,2.1841-3.1855,4.3677-4.7788,6.5518-18.2539-26.6152-43.1021-65.2036-69.2778-114.2798-6.5781-12.334-23.6211-44.2871-22.1523-45.1177.0171-.0093.0361-.0142.0586-.0142M809.0842,526.4271c-.1597,0-.3164.0405-.4526.1177-1.2002.6787-2.1479,1.2148,21.8257,46.166,21.1514,39.6558,44.4751,78.1304,69.3379,114.3818.147.2144.3892.3438.6489.3477h.0117c.2559,0,.4961-.1221.647-.3286l4.7788-6.5522c.1001-.1367.1538-.3022.1538-.4717q0-.293-14.5762-24.3003c-7.939-13.0752-19.9546-32.8057-32.1152-52.5498-47.3081-76.8105-49.228-76.8105-50.2598-76.8105h0Z"/>
      </g>
      <g>
        <path class="cls-2" d="M721.9719,691.8612c-.1245,0-.2427-.0579-.3188-.158l-124.7852-164.0415c-.1313-.1731-.1011-.4197.0688-.5554.0737-.0588.1621-.0874.25-.0874.1143,0,.228.0488.3071.1433l129.8066,154.9111c.106.1265.1235.3054.0439.45l-5.0215,9.1304c-.0654.1189-.1865.1965-.3218.2065-.0098.0007-.0195.001-.0293.001Z"/>
        <path class="cls-2" d="M597.1867,527.4193c43.269,51.6367,86.5381,103.2739,129.8066,154.9111l-5.0215,9.1304c-41.5952-54.6807-83.1899-109.3608-124.7852-164.0415M597.1863,526.6185c-.1753,0-.3521.0571-.4995.1748-.3398.2715-.4009.7646-.1372,1.1108l74.9199,98.4897,49.8652,65.5518c.1519.2002.3882.3159.6372.3159.0195,0,.0391-.0005.0591-.002.27-.02.5122-.1753.6426-.4131l5.0215-9.1304c.1592-.2891.1245-.647-.0879-.8999l-129.8066-154.9111c-.1582-.189-.3853-.2866-.6143-.2866h0Z"/>
      </g>
      <g>
        <path class="cls-2" d="M923.8962,726.9899c-2.5654,0-8.5132-1.5242-16.7456-3.6335-10.0991-2.5876-23.9297-6.1316-38.3423-8.5334-14.627-2.4377-29.7109-3.6736-44.834-3.6736-27.29,0-48.1426,3.9756-58.1636,5.886-3.1914.6084-5.2993,1.0103-6.2021,1.0105h-.0044c-.1899,0-.7495-.0032-.8394-.4553-.022-.1121-.0156-.2859.1401-.4761,2.0171-2.4553,40.292-14.2654,82.8408-14.2654,23.3638,0,43.9946,3.5413,61.3193,10.5259,7.167,2.8894,21.5996,9.697,22.4834,12.3394.1118.335.0303.5803-.0581.7268-.2964.4919-1.0518.5488-1.5942.5488Z"/>
        <path class="cls-2" d="M841.7463,703.2494c20.3667,0,41.8623,2.7134,61.1689,10.4966,9.2642,3.7349,23.2764,10.7549,22.2319,12.4888-.1465.2427-.5723.355-1.251.355-5.686,0-29.1514-7.8501-55.022-12.1616-16.1919-2.6982-31.3433-3.6792-44.8999-3.6792-35.9707,0-60.7651,6.8965-64.3662,6.8965-.2808,0-.4321-.042-.4502-.1323-.3042-1.5361,38.4873-14.2637,82.5884-14.2637M841.7463,702.4486c-42.6621,0-81.1133,11.9312-83.1504,14.4116-.269.3276-.2554.647-.2236.8086.0703.3545.3418.7778,1.2358.7778.9414,0,2.9507-.3833,6.2803-1.0181,10.0093-1.9082,30.8364-5.8789,58.0859-5.8789,15.1011,0,30.1631,1.2344,44.7681,3.6685,14.3955,2.3989,28.2168,5.9404,38.3086,8.5264,8.2607,2.1167,14.2295,3.646,16.8452,3.646.6396,0,1.5361-.0771,1.937-.7427.1865-.3096.2202-.686.0947-1.0605-1.0103-3.0225-17.0024-10.2817-22.7134-12.584-17.3721-7.0039-38.0532-10.5547-61.4683-10.5547h0Z"/>
      </g>
    </g>
    <g>
      <path class="cls-2" d="M808.2463,529.5167c-6.7627,0-12.2642-5.4683-12.2642-12.1899s5.5015-12.1902,12.2642-12.1902,12.2642,5.4685,12.2642,12.1902-5.5015,12.1899-12.2642,12.1899Z"/>
      <path class="cls-2" d="M808.2463,505.5389c6.5508,0,11.8618,5.2778,11.8618,11.7876s-5.311,11.7881-11.8618,11.7881-11.8618-5.2778-11.8618-11.7881,5.3105-11.7876,11.8618-11.7876M808.2463,504.7342c-6.9844,0-12.6665,5.6489-12.6665,12.5923s5.6821,12.5928,12.6665,12.5928,12.6665-5.6489,12.6665-12.5928-5.6821-12.5923-12.6665-12.5923h0Z"/>
    </g>
    <ellipse class="cls-4" cx="808.0607" cy="519.7164" rx="9.9388" ry="9.8768"/>
    <path class="cls-3" d="M719.9327,693.1413c2.4596-4.2426,4.9192-8.4851,7.3788-12.7277-83.1805-102.0045-125.6685-152.318-127.455-150.9291-1.8112,1.4081,38.2115,55.9569,120.0762,163.6568Z"/>
    <path class="cls-3" d="M909.7716,688.4208c-1.9763-3.722-3.9534-7.4439-5.9306-11.1659,21.6688-30.1805,51.5757-70.088,89.5288-115.8004,15.7059-18.9169,30.9745-37.3067,32.0463-36.4929,1.3606,1.0326-20.0568,33.0463-115.6444,163.4593Z"/>
    <path class="cls-5" d="M641.0281,758.974c-.908-2.9986,75.0246-43.1812,174.4202-46.0832,101.4587-2.9622,180.1898,34.2971,179.3828,37.553-.7956,3.2096-78.6014-27.7511-189.6164-22.7606-97.7338,4.3935-163.351,34.0499-164.1866,31.2907Z"/>
    <path class="cls-1" d="M823.6781,580.5647c-1.6308-3.4717-2.2092-4.4992-2.0157-4.6226,1.2904-.8232,30.6869,42.5124,49.54,93.7624,3.6859,10.0198,4.9755,14.9227,2.7909,19.8773-11.1677,25.3288-95.0585,10.5991-94.971,7.4733.0714-2.5507,55.8552,9.9733,73.1858-15.4088,11.9814-17.5477-7.1539-55.5756-28.53-101.0816Z"/>
    <g>
      <path class="cls-2" d="M594.362,531.8663c-6.7627,0-12.2642-5.4685-12.2642-12.1902s5.5015-12.1901,12.2642-12.1901,12.2642,5.4684,12.2642,12.1901-5.5015,12.1902-12.2642,12.1902Z"/>
      <path class="cls-2" d="M594.362,507.8885c6.5508,0,11.8618,5.2773,11.8618,11.7876s-5.311,11.7876-11.8618,11.7876-11.8618-5.2773-11.8618-11.7876,5.3105-11.7876,11.8618-11.7876M594.362,507.0839c-6.9844,0-12.6665,5.6489-12.6665,12.5923s5.6821,12.5923,12.6665,12.5923,12.6665-5.6489,12.6665-12.5923-5.6821-12.5923-12.6665-12.5923h0Z"/>
    </g>
    <ellipse class="cls-4" cx="595.0412" cy="521.9519" rx="9.9388" ry="9.8768"/>
    <g>
      <path class="cls-2" d="M1027.0554,529.0748c-6.7627,0-12.2642-5.4683-12.2642-12.1899s5.5015-12.1902,12.2642-12.1902,12.2642,5.4685,12.2642,12.1902-5.5015,12.1899-12.2642,12.1899Z"/>
      <path class="cls-2" d="M1027.0554,505.097c6.5508,0,11.8618,5.2778,11.8618,11.7876s-5.311,11.7881-11.8618,11.7881-11.8618-5.2778-11.8618-11.7881,5.3105-11.7876,11.8618-11.7876M1027.0554,504.2924c-6.9844,0-12.6665,5.6489-12.6665,12.5923s5.6821,12.5928,12.6665,12.5928,12.6665-5.6489,12.6665-12.5928-5.6821-12.5923-12.6665-12.5923h0Z"/>
    </g>
    <ellipse class="cls-4" cx="1026.1682" cy="519.0534" rx="9.9388" ry="9.8768"/>
  </g>
  <path class="cls-1" d="M1011.36,600.9732c1.4061.3062-4.6177,21.7151-8.8381,58.9386-3.6383,32.0896-5.2595,69.9617-15.5283,72.3198-.1963.0451-.3622.0738-.3648.0743-6.4768,1.123-9.182-7.8076-19.9389-11.2224-.3924-.1246-.8512-.2458-1.7688-.4882-7.6544-2.0224-13.8239-2.6576-17.9334-2.8687-.9492-.1303-2.2759-.3269-3.8527-.6091-4.1905-.7499-10.6199-2.1886-10.5428-2.7628.0735-.5466,6.021-.135,8.8381,0,2.597.1244,25.9773,1.1138,36.5929-4.7767,10.6992-5.9369,9.1349-19.2526,15.4279-50.3595,6.4483-31.8741,16.3239-58.5904,17.9088-58.2452Z"/>
  <path class="cls-1" d="M628.1503,608.1867c-1.4061.3062,4.6177,21.7151,8.8381,58.9386,3.6383,32.0896,5.2595,69.9617,15.5283,72.3198.1963.0451.3622.0738.3648.0743,6.4768,1.123,9.182-7.8076,19.9389-11.2224.3924-.1246.8512-.2458,1.7688-.4882,7.6544-2.0224,13.8239-2.6576,17.9334-2.8687.9492-.1303,2.2759-.3269,3.8527-.6091,4.1905-.7499,10.6199-2.1886,10.5428-2.7628-.0735-.5466-6.021-.135-8.8381,0-2.597.1244-25.9773,1.1138-36.5929-4.7767-10.6992-5.9369-9.1349-19.2526-15.4279-50.3595-6.4483-31.8741-16.3239-58.5904-17.9088-58.2452Z"/>
</svg>