<?xml version="1.0" encoding="UTF-8"?>
<svg id="Layer_1" data-name="Layer 1" xmlns="http://www.w3.org/2000/svg" viewBox="0 0 1621.4173 1264.252">
  <defs>
    <style>
      .cls-1 {
        fill: #f8ceaa;
      }

      .cls-2 {
        fill: #faaf43;
      }

      .cls-3 {
        fill: #c06728;
      }

      .cls-4 {
        fill: #fed1a6;
      }

      .cls-5 {
        fill: #d77c28;
      }
    </style>
  </defs>
  <g>
    <g>
      <g>
        <path class="cls-2" d="M217.4748,1074.931c-.2319,0-.4629-.0574-.6714-.1709-.3677-.2002-.6274-.5537-.7075-.9646L58.2815,266.6904c-.1235-.6306.1968-1.2644.7773-1.5394.1929-.0913.3979-.1355.6011-.1355.4087,0,.8091.1783,1.0825.5089l452.4697,546.2477,290.3496-548.3317c.2349-.444.6895-.7288,1.1914-.7466.0171-.0006.0337-.001.0508-.001.4829,0,.9341.2489,1.1914.6608l334.709,535.8796,423.9878-541.8075c.2725-.3484.6846-.5392,1.1074-.5392.1846,0,.3711.0365.5488.1122.5859.249.9307.86.8418,1.4899l-111.3589,787.0886c-.0586.4163-.3013.7844-.6602,1.0034-.2227.1355-.4761.2048-.731.2048-.1562,0-.313-.0259-.4639-.0786-182.5088-63.824-372.688-97.0308-565.2554-98.698-5.0537-.0437-10.1411-.0657-15.1587-.0657-129.0381,0-258.5508,14.4043-384.9419,42.8127-92.0239,20.6838-183.0742,48.9705-270.6226,84.074-.1685.0676-.3457.1011-.5229.1011Z"/>
        <path class="cls-2" d="M1565.7986,258.2919h.0049M1565.7986,258.2919l-111.3584,787.0886c-129.7466-45.3728-324.9092-96.6917-565.707-98.7766-5.0581-.0439-10.1499-.0654-15.1714-.0654-289.8652,0-518.7715,71.9287-656.0869,126.9873-52.6045-269.0352-105.2095-538.0698-157.8142-807.105l453.8098,547.8662,291.333-550.189,335.7715,537.5806,425.2236-543.3867M1565.7995,255.4813c-.041,0-.0825.001-.1235.0029-.5591.0239-1.0762.2114-1.5044.5161-.1758.1245-.3394.271-.4854.438-.002.002-.0029.0034-.0049.0054s-.0039.0044-.0059.0063c-.0361.042-.0713.085-.1055.1294l-422.7363,540.2085-333.6465-534.1787c-.5146-.8237-1.417-1.3218-2.3833-1.3218-.0337,0-.0669.0005-.1006.002-1.0044.0361-1.9131.6055-2.3833,1.4932l-289.3662,546.4751L61.8249,264.6278c-.5476-.6606-1.3481-1.0176-2.1655-1.0176-.4062,0-.8164.0884-1.2019.2705-1.1611.5503-1.8013,1.8184-1.5547,3.0791l78.907,403.5527,78.9072,403.5525c.1606.822.6792,1.5293,1.415,1.9294.417.2268.8794.3416,1.3428.3416.3545,0,.7095-.0669,1.0459-.2019,87.4785-35.0757,178.4565-63.3394,270.4077-84.0073,126.29-28.3853,255.6992-42.7778,384.6333-42.7778,5.0322,0,10.1284.022,15.147.0649,108.3872.9385,217.3892,12.0757,323.978,33.1025,81.4038,16.0581,162.4292,38.1016,240.8257,65.5168.3018.1055.6152.1575.9277.1575.5098,0,1.0161-.1387,1.4614-.4099.7188-.4375,1.2031-1.1738,1.3213-2.0068l111.3403-786.9631c.0317-.168.0483-.3418.0483-.519,0-1.5298-1.2207-2.7749-2.7427-2.8096h-.0117c-.019-.0005-.0386-.001-.0576-.001h0ZM1565.7986,261.1024h.0049-.0049Z"/>
      </g>
      <g>
        <path class="cls-2" d="M1125.6037,824.8138c-.4561-.0066-.8804-.2341-1.1382-.6104-87.2104-127.1548-169.0249-262.115-243.1709-401.1312-11.291-21.1696-32.2837-60.5286-49.4771-94.3368-32.2012-63.3195-29.7085-64.7285-27.7056-65.8606.272-.1537.5737-.2317.8965-.2317,2.6182,0,9.5732,0,175.1611,268.8533,81.9634,133.0784,162.9604,267.4128,163.4316,268.2065.2866.4834.2583,1.0913-.0732,1.5454l-16.7686,22.9885c-.2646.3628-.687.5771-1.1353.5771-.0068,0-.0137-.0002-.0205-.0002Z"/>
        <path class="cls-2" d="M805.0085,264.0482c14.0615,0,337.3828,536.3696,337.3843,536.3721-5.5894,7.6631-11.1792,15.3257-16.7686,22.9888-64.0527-93.3906-151.2422-228.793-243.0898-400.998-23.083-43.2783-82.8853-155.3994-77.731-158.313.0591-.0332.1265-.0498.2051-.0498M805.0085,261.2382c-.5596,0-1.1079.1426-1.5864.4126-2.9741,1.6812-1.4639,6.0435-.3618,9.2285,1.1641,3.3628,3.1504,8.1572,5.9043,14.2495,4.7729,10.5591,12.0405,25.4448,21.6011,44.2441,17.1997,33.8208,38.1963,73.1875,49.4766,94.3369,74.1831,139.0854,156.0249,274.0908,243.2642,401.2886.5161.7524,1.3652,1.2075,2.2769,1.2207h.041c.897,0,1.7412-.4282,2.2705-1.1538l8.3843-11.4946,8.3843-11.4941c.6626-.9087.7202-2.1245.146-3.0908-.4712-.7939-81.4756-135.1411-163.4434-268.2261-47.9604-77.8701-86.7681-139.9185-115.3442-184.4219-54.6445-85.0996-58.1758-85.0996-61.0132-85.0996h0Z"/>
      </g>
      <g>
        <path class="cls-2" d="M499.3396,841.7321c-.437,0-.8516-.2036-1.1182-.5544L60.3611,265.5701c-.4624-.6074-.355-1.4724.2412-1.9487.2588-.2065.5684-.3071.876-.3071.4019,0,.8003.1715,1.0781.5027l455.48,543.5695c.3721.4441.4336,1.0715.1543,1.5793l-17.6196,32.0386c-.2295.4165-.6538.689-1.1279.7241-.0347.0024-.0693.0037-.1035.0037Z"/>
        <path class="cls-2" d="M61.4795,264.7191c151.8264,181.1899,303.6531,362.3799,455.4797,543.5698-5.873,10.6792-11.7461,21.3584-17.6196,32.0381C353.386,648.4579,207.4328,456.5887,61.4795,264.7191M61.478,261.9086c-.6157,0-1.2349.2017-1.7522.6147-1.1926.9521-1.4072,2.6826-.4832,3.8975l437.8601,575.6079c.5337.7012,1.3628,1.1089,2.2363,1.1089.0688,0,.1382-.0029.2075-.0078.9487-.0703,1.7974-.6152,2.2554-1.4482l17.6196-32.0386c.5586-1.0156.4365-2.2705-.3081-3.1592L63.6335,262.9139c-.5552-.6621-1.3521-1.0054-2.1555-1.0054h0Z"/>
      </g>
      <g>
        <path class="cls-2" d="M1207.8747,964.9947c-9.002,0-29.8735-5.3481-58.7612-12.7498-35.4355-9.0798-83.9663-21.5149-134.5381-29.9429-51.3242-8.5535-104.2534-12.8904-157.3179-12.8904-95.7583,0-168.9282,13.95-204.0918,20.6538-11.1978,2.1348-18.5947,3.5452-21.7632,3.5457h-.0142c-.668,0-2.6313-.011-2.9453-1.5972-.0781-.3943-.0562-1.0042.4917-1.6711,3.3843-4.1196,39.7559-16.7476,91.3037-27.9548,46.3745-10.0825,118.6094-22.1016,199.3784-22.1016,81.9805,0,154.3711,12.4265,215.1616,36.9341,25.1494,10.1387,75.792,34.0254,78.8931,43.2981.3931,1.1758.106,2.0361-.2041,2.551-1.0396,1.7256-3.6895,1.925-5.5928,1.925Z"/>
        <path class="cls-2" d="M919.6174,881.6918c71.4644,0,146.8911,9.521,214.6357,36.832,32.5083,13.1055,81.6748,37.7378,78.0107,43.8208-.5132.8521-2.0093,1.2451-4.3892,1.2451-19.9541,0-102.29-27.5449-193.0684-42.6738-56.8154-9.4688-109.98-12.9097-157.5483-12.9097-126.2178,0-213.2207,24.1997-225.856,24.1997-.9863,0-1.5176-.147-1.5806-.4648-1.0674-5.3896,135.0483-50.0493,289.7959-50.0493M919.6174,878.8817c-80.894,0-153.2354,12.0361-199.6777,22.1333-23.501,5.1099-46.3057,11.062-64.2129,16.7607-11.2954,3.5952-25.3013,8.5386-27.8779,11.6753-.9434,1.1489-.896,2.27-.7842,2.8359.2466,1.2451,1.1992,2.7295,4.3374,2.7295,3.3022,0,10.354-1.3447,22.0371-3.5718,35.1211-6.6958,108.2026-20.6279,203.8188-20.6279,52.9873,0,105.8384,4.3306,157.0864,12.8711,50.5117,8.4185,99.0083,20.8447,134.4189,29.918,28.9878,7.4272,49.9321,12.7939,59.1113,12.7939,2.2437,0,5.3896-.27,6.7964-2.605.6543-1.0859.7725-2.4077.333-3.7217-.5952-1.7808-2.1768-6.5103-29.9619-21.1367-14.8477-7.8159-33.9062-16.6362-49.7383-23.019-60.9585-24.5752-133.5259-37.0356-215.6865-37.0356h0Z"/>
      </g>
    </g>
    <g>
      <path class="cls-2" d="M802.0686,272.08c-23.729,0-43.0337-19.1885-43.0337-42.7743s19.3047-42.7743,43.0337-42.7743,43.0337,19.1885,43.0337,42.7743-19.3047,42.7743-43.0337,42.7743Z"/>
      <path class="cls-2" d="M802.0686,187.9437c22.9868,0,41.6216,18.5181,41.6216,41.3618s-18.6348,41.3623-41.6216,41.3623-41.6216-18.5186-41.6216-41.3623,18.6343-41.3618,41.6216-41.3618M802.0686,185.1195c-24.5078,0-44.4458,19.8218-44.4458,44.186s19.938,44.1865,44.4458,44.1865,44.4458-19.8218,44.4458-44.1865-19.938-44.186-44.4458-44.186h0Z"/>
    </g>
    <ellipse class="cls-4" cx="801.4174" cy="237.6906" rx="34.8743" ry="34.6569"/>
    <path class="cls-3" d="M492.1839,846.2234c8.6304-14.8868,17.261-29.7735,25.8915-44.6603C226.2022,443.6382,77.1157,267.0927,70.8471,271.9662c-6.3552,4.9407,134.0809,196.3478,421.3368,574.2572Z"/>
    <path class="cls-3" d="M1158.3118,829.6596c-6.9347-13.0602-13.8723-26.1202-20.8099-39.1803,76.0339-105.9007,180.9746-245.9326,314.1486-406.3334,55.1107-66.3776,108.6867-130.9058,112.4475-128.0505,4.7741,3.6231-70.3777,115.9566-405.7862,573.5642Z"/>
    <path class="cls-5" d="M215.3145,1077.2245c-3.1862-10.5217,263.2547-151.5189,612.0252-161.7018,356.0095-10.3941,632.2703,120.3457,629.4385,131.7703-2.7916,11.2621-275.8053-97.3763-665.3474-79.8649-342.9394,15.4164-573.1842,119.4782-576.1163,109.7964Z"/>
    <path class="cls-1" d="M856.2172,451.202c-5.7224-12.182-7.7521-15.7872-7.073-16.2204,4.5279-2.8885,107.6777,149.1721,173.8315,329.0042,12.9334,35.1585,17.4585,52.3624,9.7932,69.7478-39.1865,88.8765-333.5518,37.1913-333.2448,26.223.2505-8.9502,195.9909,34.9955,256.8025-54.0681,42.0416-61.5733-25.1026-195.01-100.1093-354.6865Z"/>
    <g>
      <path class="cls-2" d="M51.5671,280.324c-23.729,0-43.0337-19.1885-43.0337-42.7743s19.3047-42.7743,43.0337-42.7743,43.0337,19.1885,43.0337,42.7743-19.3047,42.7743-43.0337,42.7743Z"/>
      <path class="cls-2" d="M51.5671,196.1874c22.9868,0,41.6216,18.5186,41.6216,41.3623s-18.6348,41.3623-41.6216,41.3623-41.6216-18.5186-41.6216-41.3623,18.6345-41.3623,41.6216-41.3623M51.5671,193.3632c-24.5076,0-44.446,19.8218-44.446,44.1865s19.9385,44.1865,44.446,44.1865,44.446-19.8218,44.446-44.1865-19.9385-44.1865-44.446-44.1865h0Z"/>
    </g>
    <ellipse class="cls-4" cx="53.9505" cy="245.5349" rx="34.8743" ry="34.6569"/>
    <g>
      <path class="cls-2" d="M1569.8503,270.5292c-23.7295,0-43.0342-19.1885-43.0342-42.7743s19.3047-42.7743,43.0342-42.7743,43.0332,19.1885,43.0332,42.7743-19.3047,42.7743-43.0332,42.7743Z"/>
      <path class="cls-2" d="M1569.8503,186.3929c22.9868,0,41.6216,18.5186,41.6216,41.3618s-18.6348,41.3623-41.6216,41.3623-41.6216-18.5186-41.6216-41.3623,18.6348-41.3618,41.6216-41.3618M1569.8503,183.5687c-24.5078,0-44.4458,19.8218-44.4458,44.186s19.938,44.1865,44.4458,44.1865,44.4458-19.8218,44.4458-44.1865-19.938-44.186-44.4458-44.186h0Z"/>
    </g>
    <ellipse class="cls-4" cx="1566.7373" cy="235.3642" rx="34.8743" ry="34.6569"/>
  </g>
  <path class="cls-1" d="M1514.7764,522.8136c4.934,1.0743-16.2031,76.1963-31.0121,206.8103-12.7665,112.5995-18.4552,245.4894-54.4874,253.7639-.6887.1581-1.2709.2591-1.2801.2607-22.7266,3.9406-32.2188-27.3962-69.9637-39.3785-1.3767-.4371-2.9867-.8624-6.2067-1.7132-26.8586-7.0964-48.5069-9.3254-62.9268-10.0661-3.3307-.4572-7.986-1.1471-13.5187-2.1373-14.7043-2.6315-37.2643-7.6795-36.9937-9.6943.2579-1.9181,21.1272-.4735,31.0121,0,9.1126.4365,91.1519,3.9083,128.4014-16.7611,37.5427-20.8321,32.0537-67.5558,54.1353-176.7072,22.6264-111.8436,57.279-205.5884,62.8404-204.3773Z"/>
  <path class="cls-1" d="M170.1275,548.1251c-4.934,1.0743,16.2031,76.1963,31.0121,206.8103,12.7665,112.5995,18.4552,245.4894,54.4874,253.7639.6887.1581,1.2709.2591,1.2801.2607,22.7266,3.9406,32.2188-27.3962,69.9637-39.3785,1.3767-.4371,2.9867-.8624,6.2067-1.7132,26.8586-7.0964,48.5069-9.3254,62.9268-10.0661,3.3307-.4572,7.986-1.1471,13.5187-2.1373,14.7043-2.6315,37.2643-7.6795,36.9937-9.6943-.2579-1.9181-21.1272-.4735-31.0121,0-9.1126.4365-91.1519,3.9083-128.4014-16.7611-37.5427-20.8321-32.0537-67.5558-54.1353-176.7072-22.6264-111.8436-57.279-205.5884-62.8404-204.3773Z"/>
</svg>