<?xml version="1.0" encoding="UTF-8"?>
<svg id="Layer_1" data-name="Layer 1" xmlns="http://www.w3.org/2000/svg" viewBox="0 0 1621.4173 1264.252">
  <defs>
    <style>
      .cls-1 {
        fill: #572e7f;
      }

      .cls-2 {
        fill: #72459b;
      }

      .cls-3 {
        fill: #65308f;
      }
    </style>
  </defs>
  <path class="cls-3" d="M172.6207,921.7452h-60.6809c-59.8257,0-108.3241,49.2222-108.3241,109.9409v.0002c0,60.7187,48.4983,109.9409,108.3241,109.9409h1397.5377c59.8257,0,108.3241-49.2222,108.3241-109.9409v-.0002c0-60.7187-48.4983-109.9409-108.3241-109.9409h-60.5056"/>
  <path class="cls-3" d="M1435.5078,918.1683c23.7997-385.0742-312.9265-691.1665-668.8447-669.3082-328.4667,20.1724-608.8808,315.7026-584.5259,669.3082h1253.3706Z"/>
  <path class="cls-3" d="M641.0331,288.6794c2.802-94.72,76.9412-168.7605,161.4563-165.9788,79.6902,2.6228,147.264,72.8441,151.9951,161.9101"/>
  <path class="cls-2" d="M682.1975,280.1655c-4.0296-1.0086-5.4364-5.1738-7.1888-10.3651-9.9555-29.4912,21.2125-58.3733,25.5851-62.4253,5.2702-4.8833,39.8637-35.8587,95.3856-34.3287,44.3692,1.2227,72.205,22.3801,80.6463,29.0042,33.2493,26.091,42.8394,62.8696,35.8825,65.9933-9.4291,4.2339-42.1659-56.5437-104.6281-59.1466-15.3242-.6385-27.1764,2.4438-32.5665,3.8894-58.0374,15.5677-77.0524,71.3991-93.1162,67.3788Z"/>
  <ellipse class="cls-2" cx="849.7779" cy="294.3724" rx="28.9349" ry="8.5653"/>
  <ellipse class="cls-2" cx="1073.1961" cy="1011.9899" rx="448.1127" ry="24.7097"/>
  <path class="cls-2" d="M322.1427,665.0262c33.1565-134.6361,118.6924-201.0583,111.696-207.505-8.458-7.7934-144.4469,79.1636-155.927,207.505-4.799,53.6496,12.6226,109.3489,22.1158,109.0038,8.8724-.3226,7.4562-49.4796,22.1153-109.0038Z"/>
  <path class="cls-2" d="M135.6487,961.805c-15.5358-2.9186-103.9672,36.1778-83.5897,76.6273,11.6213,23.0686,53.6513,36.6885,67.5144,41.0504,112.1072,35.2722,279.6952,12.2744,279.704,12.3151.0063.0302-91.7245,13.9165-176.8242-5.4734-11.2799-2.5701-67.7099-16.0388-93.2345-43.7871-37.0318-40.258,20.9467-78.0052,6.4299-80.7323Z"/>
  <rect class="cls-1" x="182.1372" y="918.1683" width="1253.3382" height="11.4551"/>
</svg>