<?xml version="1.0" encoding="UTF-8"?>
<svg id="Layer_1" data-name="Layer 1" xmlns="http://www.w3.org/2000/svg" viewBox="0 0 1621.4173 1264.252">
  <defs>
    <style>
      .cls-1 {
        fill: #aeb2aa;
      }

      .cls-2 {
        fill: #d3d3d1;
      }
    </style>
  </defs>
  <g>
    <ellipse class="cls-1" cx="767.7797" cy="651.3056" rx="17.298" ry="5.8748"/>
    <ellipse class="cls-1" cx="785.0777" cy="641.6045" rx="3.2562" ry="8.5402" transform="translate(76.9557 1367.2535) rotate(-84.9578)"/>
    <ellipse class="cls-1" cx="797.1379" cy="635.3272" rx="2.3965" ry="6.2855" transform="translate(94.2089 1373.5415) rotate(-84.9578)"/>
    <path class="cls-1" d="M817.0223,632.2602c-.0947,1.0731-2.4529,1.7416-5.2674,1.4933-2.8143-.2483-5.0191-1.3195-4.9244-2.3926.0947-1.0731,2.4529-1.7416,5.2673-1.4933,2.8145.2483,5.0192,1.3195,4.9245,2.3926Z"/>
    <path class="cls-1" d="M872.5112,657.0812c-12.0734-4.2813-21.2457-3.156-27.3654-1.3598-9.3347,2.7401-13.5023,7.6097-27.5169,10.6616-7.2832,1.5861-13.9282,1.9629-18.7477-3.699-.8617-1.0123-3.4072-4.0027-3.326-7.8331.1092-5.1765,4.9561-9.0637,9.9785-12.1846,16.2479-10.097,32.1396-10.8138,33.4129-10.8556,19.2703-.6317,33.9961,4.6243,40.3067,6.7935,16.9701,5.833,42.1027,12.0138,76.8661,12.7015,1.0549.0456,1.94.1348,2.597.2161,3.637.4503,13.1952,1.634,16.7556,8.7689.0452.0911.0749.1545.1138.2359.6444,1.3498,3.0075,6.683,1.7004,11.2961-2.4786,8.7485-16.2508,8.177-29.7845,7.6154-9.9562-.4131-18.2805-1.9885-24.3418-3.4813-16.8826-6.2919-33.7657-12.5836-50.6489-18.8755Z"/>
  </g>
  <g>
    <ellipse class="cls-1" cx="985.7678" cy="607.5875" rx="17.298" ry="5.8748"/>
    <ellipse class="cls-1" cx="1003.0657" cy="597.8864" rx="3.2562" ry="8.5402" transform="translate(319.3337 1544.5222) rotate(-84.9578)"/>
    <ellipse class="cls-1" cx="1015.126" cy="591.6091" rx="2.3965" ry="6.2855" transform="translate(336.587 1550.8103) rotate(-84.9578)"/>
    <path class="cls-1" d="M1035.0103,588.5421c-.0947,1.0731-2.4529,1.7416-5.2674,1.4933-2.8143-.2483-5.0191-1.3195-4.9244-2.3926.0947-1.0731,2.4529-1.7416,5.2673-1.4933,2.8145.2483,5.0192,1.3195,4.9245,2.3926Z"/>
    <path class="cls-1" d="M1090.4991,613.3631c-12.0734-4.2813-21.2457-3.1562-27.3654-1.3599-9.3347,2.7402-13.5017,7.6098-27.5169,10.6617-7.2832,1.5859-13.9277,1.9629-18.7477-3.699-.8617-1.0125-3.4072-4.0027-3.326-7.8331.1092-5.1765,4.9561-9.0637,9.9785-12.1848,16.2479-10.0968,32.1396-10.8137,33.4129-10.8554,18.7311-.6139,32.9018,4.3483,40.3067,6.7935,16.2016,5.3497,40.4405,11.304,73.6556,12.4911,1.2476.0354,2.3317.1199,3.2105.2104,4.4992.4634,15.7265,1.5859,19.3526,8.9849.3802.7759,3.2202,6.5703,1.8142,11.532-2.4786,8.7486-16.2502,8.1771-29.7845,7.6155-9.9556-.4131-18.2805-1.9886-24.3418-3.4815-16.8826-6.2917-33.7657-12.5836-50.6489-18.8753Z"/>
  </g>
  <g>
    <ellipse class="cls-1" cx="294.2961" cy="634.5624" rx="17.298" ry="5.8748"/>
    <ellipse class="cls-1" cx="311.5941" cy="624.8612" rx="3.2562" ry="8.5402" transform="translate(-338.235 880.3305) rotate(-84.9578)"/>
    <ellipse class="cls-1" cx="323.6543" cy="618.5839" rx="2.3965" ry="6.2855" transform="translate(-320.9818 886.6185) rotate(-84.9578)"/>
    <path class="cls-1" d="M343.5387,615.517c-.0947,1.0731-2.4529,1.7416-5.2674,1.4933-2.8143-.2483-5.0191-1.3195-4.9244-2.3926.0947-1.0731,2.4529-1.7416,5.2673-1.4933,2.8145.2483,5.0192,1.3195,4.9245,2.3926Z"/>
    <path class="cls-1" d="M399.0279,640.338c-12.074-4.2813-21.2463-3.1562-27.3659-1.3598-9.3347,2.7401-13.5017,7.6097-27.5169,10.6616-7.2832,1.5859-13.9277,1.9629-18.7471-3.699-.8622-1.0125-3.4077-4.0027-3.3265-7.8331.1098-5.1765,4.9561-9.0637,9.9785-12.1848,16.2479-10.0968,32.1402-10.8137,33.4135-10.8554,19.2703-.6317,33.9961,4.6245,40.3062,6.7935,16.9701,5.833,42.1032,12.0138,76.8667,12.7015.3179-.0267.8771-.0663,1.5724-.0726,5.8257-.0525,14.4257,2.3016,17.7802,9.0575.0475.0956.0806.1644.1138.234.6427,1.3477,3.0075,6.6831,1.7004,11.298-2.4792,8.7486-16.2508,8.1771-29.7851,7.6155-9.9556-.4131-18.2805-1.9886-24.3413-3.4815-16.8831-6.2917-33.7663-12.5836-50.6489-18.8753Z"/>
  </g>
  <g>
    <ellipse class="cls-1" cx="512.2842" cy="590.8443" rx="17.298" ry="5.8748"/>
    <ellipse class="cls-1" cx="529.5821" cy="581.1431" rx="3.2562" ry="8.5402" transform="translate(-95.857 1057.5992) rotate(-84.9578)"/>
    <ellipse class="cls-1" cx="541.6424" cy="574.8658" rx="2.3965" ry="6.2855" transform="translate(-78.6037 1063.8873) rotate(-84.9578)"/>
    <path class="cls-1" d="M561.5267,571.7989c-.0947,1.0731-2.4529,1.7416-5.2674,1.4933-2.8143-.2483-5.0191-1.3195-4.9244-2.3926.0947-1.0731,2.4529-1.7416,5.2673-1.4933,2.8145.2483,5.0192,1.3195,4.9245,2.3926Z"/>
    <path class="cls-1" d="M617.0158,596.6198c-12.074-4.2813-21.2463-3.156-27.3659-1.3598-9.3347,2.7401-13.5017,7.6097-27.5163,10.6616-7.2837,1.5861-13.9282,1.9629-18.7477-3.699-.8622-1.0123-3.4072-4.0027-3.3265-7.8331.1098-5.1765,4.9567-9.0637,9.9791-12.1846,16.2473-10.097,32.1396-10.8138,33.4129-10.8556,19.1548-.6279,33.7691,4.5653,40.3062,6.7935,16.8763,5.7526,41.7682,11.8556,75.9616,12.6376.1361.008.4763.0286.9051.0639,4.262.3505,15.5675,1.261,19.3526,8.985.3802.7759,3.2196,6.5703,1.8142,11.532-2.4786,8.7485-16.2508,8.177-29.7845,7.6154-9.9562-.4131-18.2811-1.9885-24.3418-3.4813-16.8831-6.2919-33.7663-12.5836-50.6489-18.8755Z"/>
  </g>
  <path class="cls-2" d="M814.897,651.3056c1.2059,2.4709,15.5869-4.2011,44.304-7.1407,6.9784-.7143,10.835-.802,15.4297,0,10.9385,1.9094,11.6961,6.3542,24.1383,9.666,7.0047,1.8645,6.9258.4984,21.0473,3.3494,7.8967,1.5942,11.6841,2.7809,11.9025,2.1936.3539-.9508-8.9447-5.7477-18.7351-9.2576-5.3752-1.9269-7.6491-2.3012-22.0422-5.731-19.1285-4.5581-19.6631-4.9818-27.1115-6.3921-12.3284-2.3344-18.4927-3.5015-23.8055-2.6662-14.8374,2.333-26.3099,13.5562-25.1275,15.9785Z"/>
  <ellipse class="cls-2" cx="773.8497" cy="651.7954" rx="7.941" ry="2.9465"/>
  <ellipse class="cls-2" cx="800.0906" cy="636.2791" rx="2.5624" ry=".7609"/>
  <path class="cls-2" d="M815.0674,632.7822c0,.3226-.8079.5841-1.8045.5841-.996,0-1.8039-.2614-1.8039-.5841s.8079-.5841,1.8039-.5841c.9966,0,1.8045.2616,1.8045.5841Z"/>
  <path class="cls-2" d="M963.2829,655.7694c.6435-.4781,9.8412,4.3563,7.947,11.5229-1.9368,7.3277-13.1356,8.2612-13.3952,7.7113-.2241-.4748,7.4438-2.6085,9.0963-8.006,1.7131-5.5951-4.2323-10.7942-3.6481-11.2281Z"/>
  <path class="cls-2" d="M1032.4449,607.1466c1.2059,2.4709,15.5869-4.2011,44.304-7.1407,6.9784-.7143,10.835-.802,15.4297,0,10.9385,1.9094,11.6961,6.3542,24.1383,9.666,7.0047,1.8645,6.9258.4984,21.0473,3.3494,7.8967,1.5942,11.6841,2.7809,11.9025,2.1936.3539-.9508-8.9447-5.7477-18.7351-9.2576-5.3752-1.9269-7.6491-2.3012-22.0422-5.731-19.1285-4.5581-19.6631-4.9818-27.1115-6.3921-12.3284-2.3344-18.4927-3.5015-23.8055-2.6662-14.8374,2.333-26.3099,13.5562-25.1275,15.9785Z"/>
  <ellipse class="cls-2" cx="991.3975" cy="607.6364" rx="7.941" ry="2.9465"/>
  <ellipse class="cls-2" cx="1340.7445" cy="693.8995" rx=".9886" ry="3.6772" transform="translate(596.2215 2007.2075) rotate(-87.8145)"/>
  <path class="cls-2" d="M1180.8307,611.6103c.6435-.4781,9.8412,4.3563,7.947,11.5229-1.9368,7.3277-13.1356,8.2612-13.3952,7.7113-.2241-.4748,7.4438-2.6085,9.0963-8.006,1.7131-5.5951-4.2323-10.7942-3.6481-11.2281Z"/>
  <path class="cls-2" d="M559.4093,590.9271c1.2059,2.4709,15.5869-4.2011,44.304-7.1407,6.9784-.7143,10.835-.802,15.4297,0,10.9385,1.9094,11.6961,6.3542,24.1383,9.666,7.0047,1.8645,6.9258.4984,21.0473,3.3494,7.8967,1.5942,11.6841,2.7809,11.9025,2.1936.3539-.9508-8.9447-5.7477-18.7351-9.2576-5.3752-1.9269-7.6491-2.3012-22.0422-5.731-19.1285-4.5581-19.6631-4.9818-27.1115-6.3921-12.3284-2.3344-18.4927-3.5015-23.8055-2.6662-14.8374,2.333-26.3099,13.5562-25.1275,15.9785Z"/>
  <path class="cls-2" d="M707.7952,595.3909c.6435-.4781,9.8412,4.3563,7.947,11.5229-1.9368,7.3277-13.1356,8.2612-13.3952,7.7113-.2241-.4748,7.4438-2.6085,9.0963-8.006,1.7131-5.5951-4.2323-10.7942-3.6481-11.2281Z"/>
  <path class="cls-2" d="M340.2794,633.2775c1.2059,2.4709,15.5869-4.2011,44.304-7.1407,6.9784-.7143,10.835-.802,15.4297,0,10.9385,1.9094,11.6961,6.3542,24.1383,9.666,7.0047,1.8645,6.9258.4984,21.0473,3.3494,7.8967,1.5942,11.6841,2.7809,11.9025,2.1936.3539-.9508-8.9447-5.7477-18.7351-9.2576-5.3752-1.9269-7.6491-2.3012-22.0422-5.731-19.1285-4.5581-19.6631-4.9818-27.1115-6.3921-12.3284-2.3344-18.4927-3.5015-23.8055-2.6662-14.8374,2.333-26.3099,13.5562-25.1275,15.9785Z"/>
  <ellipse class="cls-2" cx="299.232" cy="633.7673" rx="7.941" ry="2.9465"/>
  <ellipse class="cls-2" cx="314.1347" cy="624.5743" rx=".9886" ry="3.6772" transform="translate(-321.9645 914.6628) rotate(-87.8145)"/>
  <ellipse class="cls-2" cx="325.4729" cy="618.251" rx="2.5624" ry=".7609"/>
  <path class="cls-2" d="M340.4498,614.7541c0,.3226-.8079.5841-1.8045.5841-.996,0-1.8039-.2614-1.8039-.5841s.8079-.5841,1.8039-.5841c.9966,0,1.8045.2616,1.8045.5841Z"/>
  <path class="cls-2" d="M488.6652,637.7412c.6435-.4781,9.8412,4.3563,7.947,11.5229-1.9368,7.3277-13.1356,8.2612-13.3952,7.7113-.2241-.4748,7.4438-2.6085,9.0963-8.006,1.7131-5.5951-4.2323-10.7942-3.6481-11.2281Z"/>
</svg>