<?xml version="1.0" encoding="UTF-8"?>
<svg id="Layer_1" data-name="Layer 1" xmlns="http://www.w3.org/2000/svg" viewBox="0 0 1621.4173 1264.252">
  <defs>
    <style>
      .cls-1 {
        fill: #d1d3d6;
      }

      .cls-2 {
        fill: #2f2e31;
      }

      .cls-3 {
        fill: #9fa2a3;
      }

      .cls-4 {
        fill: #bbbdbf;
      }

      .cls-5 {
        fill: #b2b2b3;
      }

      .cls-6 {
        fill: #d4d6d7;
      }

      .cls-7 {
        fill: #a7a9ac;
      }
    </style>
  </defs>
  <g>
    <g>
      <g>
        <path class="cls-4" d="M171.9233,520.4034c-4.4994-8.1463-151.5538,12.8789-161.1712,96.4342-8.2949,72.0653,93.9959,118.1057,135.629,128.8194,1.3263.3414,23.7402,5.9977,26.0027,1.1192,3.1665-6.8284-38.2458-23.2988-71.254-65.8112-14.7234-18.9631-25.7334-33.1428-26.8726-51.0738-3.728-58.6698,101.7304-102.1294,97.6662-109.4877Z"/>
        <path class="cls-3" d="M177.4311,519.637c-2.6764-3.4605-99.7931,26.5936-108.4983,102.6083-7.3456,64.1393,53.3819,116.2213,98.67,128.771,10.2801,2.8488,24.2522,4.894,26.0026,1.119,3.1665-6.8283-38.2457-23.2988-71.2538-65.8111-13.821-17.8008-24.8657-32.3372-26.8727-51.0737-6.48-60.4954,84.7496-111.9967,81.9523-115.6134Z"/>
      </g>
      <g>
        <path class="cls-4" d="M1449.494,504.986c4.4994-8.1463,151.5538,12.8789,161.1712,96.4342,8.2949,72.0653-93.9959,118.1057-135.629,128.8194-1.3263.3414-23.7402,5.9977-26.0027,1.1192-3.1665-6.8284,38.2458-23.2988,71.254-65.8112,14.7234-18.9631,25.7334-33.1428,26.8726-51.0738,3.728-58.6698-101.7304-102.1294-97.6662-109.4877Z"/>
        <path class="cls-3" d="M1443.9862,504.2196c2.6764-3.4605,99.7931,26.5936,108.4983,102.6083,7.3456,64.1393-53.3819,116.2213-98.67,128.771-10.2801,2.8488-24.2522,4.894-26.0026,1.119-3.1665-6.8283,38.2457-23.2988,71.2538-65.8111,13.821-17.8008,24.8657-32.3372,26.8727-51.0737,6.48-60.4954-84.7496-111.9967-81.9523-115.6134Z"/>
      </g>
      <path class="cls-4" d="M314.1118,290.9154h980.9866c96.3641,0,174.5995,78.2354,174.5995,174.5995v268.8597c0,199.0746-161.6233,360.6979-360.6979,360.6979H500.2102c-199.0746,0-360.6979-161.6233-360.6979-360.6979v-268.8597c0-96.3641,78.2354-174.5995,174.5995-174.5995Z"/>
      <path class="cls-5" d="M1454.1691,416.8949H164.6066c-41.5683,0-75.5786-33.3629-75.5786-74.1397s34.0103-74.1397,75.5786-74.1397h1289.5625c41.5683,0,75.5788,33.3629,75.5788,74.1397s-34.0105,74.1397-75.5788,74.1397Z"/>
      <path class="cls-6" d="M1389.5005,559.62c13.3947,6.3812-25.0101,260.9649-221.6974,378.9355-187.5622,112.4975-422.2861,42.7197-423.2408,19.3589-1.0244-25.0761,267.5925,10.445,473.6265-164.7551,127.3712-108.3098,161.5086-238.2094,171.3117-233.5393Z"/>
      <ellipse class="cls-6" cx="427.1314" cy="534.9066" rx="58.7835" ry="31.3035"/>
      <path class="cls-6" d="M197.0359,347.9099c-7.961,7.7686-8.9772,20.6528-7.5578,26.3609,10.8128,43.4794,244.3977-1.9045,494.6209,0,121.3018.9231,645.8983,15.9993,743.6108-15.2396,11.6934-3.7384,50.4478-16.128,49.1261-24.3015-.5359-3.3153-7.4935-4.8705-9.6572-5.3545-18.5339-4.1434-36.282,8.3765-38.6292,9.8851-39.0251,25.0788-466.3889-8.4892-727.6555,5.3545-182.1166,9.6501-337.735,45.2086-419.8815,11.5332-10.5176-4.3117-63.9037-27.8252-83.9766-8.2382Z"/>
    </g>
    <path class="cls-2" d="M1413.7291,384.3691c-87.1483,0-142.4549-30.3849-195.1828,0-82.4834,47.5315-9.8244,256.9407-84.3069,283.6622-1.4996.5379-16.2538,5.6064-31.317,0-70.1143-26.0961-25.7627-238.3726-60.8477-246.0126-27.531-5.9951-63.2937,122.8746-112.852,120.4892-50.1571-2.4143-64.458-136.8677-106.3321-136.2773-38.2766.5397-69.4086,113.4897-77.1997,141.7571-26.9264,97.6923-15.9154,161.652-61.1771,184.9456-2.6151,1.346-23.5955,11.82-44.7103,6.8497-104.2953-24.5498-70.5894-392.6552-127.3998-400.0104-47.4794-6.147-105.4068,246.9646-173.6092,240.5604-57.7366-5.4216-93.8236-184.4489-170.7411-195.9638-7.8017-1.1678-34.9516-3.5715-54.1254-24.0838-13.8904-14.8602-22.5125-35.357-22.5125-57.9038v-8.6324c0-45.0932,34.4873-81.9881,76.6379-81.9881,126.7013-28.8195,193.6117-29.6364,231.6455-23.4508,10.7784,1.7529,52.653,9.503,107.4417,3.0246,20.2696-2.3965,34.847-5.8587,40.3949-7.0954,205.5369-45.8168,359.1447,27.5211,359.1457,27.5216,33.7385,16.108,79.2287,44.0324,115.2489,23.3406,12.6119-7.2451,19.5897-17.7969,23.0503-23.3402,18.3329-29.3668,96.9278-48.7091,348.8431-13.2673,12.5113,2.9771,31.0095,8.7043,50.8542,20.4342,7.7061,4.5549,15.8694,9.0997,23.1768,16.9169,13.8909,14.8602,22.5123,35.3574,22.5123,57.9038v8.6324c0,45.0932-34.4866,81.9876-76.6377,81.9876Z"/>
  </g>
  <path class="cls-7" d="M490.2121,230.767c-1.225-4.8677,109.2536-45.3843,240.216-31.493,111.2961,11.8053,193.1024,58.2079,190.6973,62.9645-2.4176,4.7817-88.943-34.4892-222.3185-43.0808-124.0908-7.9935-207.5402,15.8-208.5948,11.6093Z"/>
  <path class="cls-7" d="M1214.9606,208.1111c-9.0785-1.0692-10.9977-1.5044-10.9732-1.701.1793-1.442,107.423-10.3862,177.4574,34.8402,9.2876,5.9977,46.4697,30.0091,39.5533,52.1944-8.9152,28.5967-84.6035,33.3226-85.7213,30.6538-.8815-2.1047,45.1628-7.4731,53.163-29.8253,7.214-20.1562-20.5492-42.8287-28.6327-49.4299-47.2328-38.5721-118.3477-38.0319-144.8466-36.7321Z"/>
  <path class="cls-7" d="M236.673,337.3543c-11.8623,10.6526-75.0643-3.4632-88.5156-37.2815-10.7427-27.0086,13.2086-59.1384,42.7955-73.0526,36.6338-17.2285,64.937,1.4496,179.5228,12.5732,53.7155,5.2144,103.0157,6.4995,102.9253,8.2851-.1973,3.9002-234.6711-16.9577-255.2545,32.6302-9.2349,22.2484,29.398,47.0828,18.5265,56.8457Z"/>
  <path class="cls-1" d="M228.687,322.4619c-6.4887,8.7392-53.0238,5.7903-68.1293-16.3635-12.0638-17.693-.7554-42.7581,17.5651-55.7146,19.3493-13.6843,55.1574-12.9672,127.5349-10.8507,29.9616.8761,76.4711,3.3741,76.4829,3.3741h0c-.0033,0-44.3914.5308-90.574,4.5568-39.1424,3.4124-51.7135,6.9064-63.299,13.6699-7.1014,4.1459-20.3598,11.8859-22.1188,23.6424-2.8425,18.9986,27.4228,31.1069,22.5382,37.6856Z"/>
  <path class="cls-1" d="M643.0165,211.7731c-.4115-1.5267,39.2921-13.7505,86.0223-8.8831,39.7128,4.1365,68.699,18.9707,67.8137,20.4481-.8899,1.4852-31.6012-11.1384-79.2225-14.3587-44.3062-2.9961-74.2593,4.1081-74.6135,2.7937Z"/>
  <path class="cls-1" d="M406.2403,454.5677c2.4419.3829,7.0339,17.6378.4447,32.8081-6.5966,15.1875-22.3484,23.5639-24.3363,22.0073-1.7132-1.3417,7.4892-9.519,15.2683-28.2099,6.8619-16.4875,6.6874-26.909,8.6233-26.6054Z"/>
  <path class="cls-1" d="M1161.5438,575.4416c5.5167,2.7942-6.0463,70.7893-35.8914,73.4975-30.5796,2.7737-53.7629-65.4017-47.9225-69.7016,4.3163-3.1773,23.2786,29.415,47.9235,26.3483,22.0781-2.7471,32.1252-32.0494,35.8904-30.1443Z"/>
  <path class="cls-7" d="M634.8427,641.9597c24.3008,38.5617,55.8135,49.0707,51.1735,63.0622-4.2763,12.8956-35.9969,18.8998-58.9119,8.6961-34.6254-15.4173-39.8185-63.685-41.7943-82.0522-4.8591-45.1683,10.4855-89.177,19.412-88.6547,9.3598.549-1.1636,49.3063,30.1207,98.9486Z"/>
  <path class="cls-1" d="M643.8512,653.9621c21.1563,24.6603,45.0259,32.0986,42.1651,43.0255-3.0912,11.8078-35.1683,19.1641-58.9119,8.6961-35.5401-15.6672-41.0363-66.2518-42.7592-82.1075-4.9319-45.3854,11.3714-89.2364,20.3768-88.5993,11.1318.7887-4.2138,68.4622,39.1292,118.9853Z"/>
</svg>