<?xml version="1.0" encoding="UTF-8"?>
<svg id="Layer_1" data-name="Layer 1" xmlns="http://www.w3.org/2000/svg" viewBox="0 0 1621.4173 1264.252">
  <defs>
    <style>
      .cls-1 {
        fill: #9fa2a3;
      }

      .cls-2 {
        fill: #bbbdbf;
      }

      .cls-3 {
        fill: #b2b2b3;
      }

      .cls-4 {
        fill: #d4d6d7;
      }
    </style>
  </defs>
  <g>
    <path class="cls-2" d="M169.727,470.1303c-4.5148-8.1743-152.0749,12.9232-161.7254,96.7657-8.3234,72.3131,94.3191,118.5118,136.0954,129.2624,1.3309.3425,23.8218,6.0183,26.0921,1.123,3.1774-6.8518-38.3773-23.3789-71.499-66.0375-14.7741-19.0283-25.8218-33.2568-26.965-51.2494-3.7408-58.8716,102.0802-102.4806,98.002-109.8642Z"/>
    <path class="cls-1" d="M175.2537,469.3612c-2.6856-3.4724-100.1362,26.6851-108.8714,102.9611-7.3708,64.3598,53.5654,116.621,99.0092,129.2137,10.3154,2.8585,24.3355,4.9108,26.092,1.1229,3.1774-6.8518-38.3772-23.3789-71.4988-66.0374-13.8685-17.862-24.9512-32.4484-26.9651-51.2493-6.5023-60.7034,85.041-112.3818,82.2341-116.011Z"/>
  </g>
  <g>
    <path class="cls-2" d="M1451.6904,454.6598c4.5148-8.1743,152.0749,12.9232,161.7254,96.7657,8.3234,72.3131-94.3191,118.5118-136.0954,129.2624-1.3309.3425-23.8218,6.0183-26.0921,1.123-3.1774-6.8518,38.3773-23.3789,71.499-66.0375,14.7741-19.0283,25.8218-33.2568,26.965-51.2494,3.7408-58.8716-102.0802-102.4806-98.002-109.8642Z"/>
    <path class="cls-1" d="M1446.1636,453.8908c2.6856-3.4724,100.1362,26.6851,108.8714,102.9611,7.3708,64.3598-53.5654,116.621-99.0092,129.2137-10.3154,2.8585-24.3355,4.9108-26.092,1.1229-3.1774-6.8518,38.3772-23.3789,71.4988-66.0374,13.8685-17.862,24.9512-32.4484,26.9651-51.2493,6.5023-60.7034-85.041-112.3818-82.2341-116.011Z"/>
  </g>
  <path class="cls-2" d="M312.4044,239.8532h984.3596c96.6954,0,175.1999,78.5044,175.1999,175.1999v269.7841c0,199.7591-162.179,361.9381-361.9381,361.9381H499.1426c-199.7591,0-361.9381-162.179-361.9381-361.9381v-269.7841c0-96.6954,78.5044-175.1999,175.1999-175.1999Z"/>
  <path class="cls-3" d="M1456.3815,366.2659H162.3851c-41.7112,0-75.8384-33.4776-75.8384-74.3946s34.1272-74.3946,75.8384-74.3946h1293.9964c41.7112,0,75.8387,33.4776,75.8387,74.3946s-34.1275,74.3946-75.8387,74.3946Z"/>
  <path class="cls-4" d="M1391.4906,509.4817c13.4407,6.4032-25.0961,261.8622-222.4597,380.2384-188.2071,112.8843-423.7381,42.8666-424.696,19.4255-1.0279-25.1624,268.5125,10.4809,475.255-165.3216,127.8091-108.6822,162.0639-239.0285,171.9008-234.3423Z"/>
  <ellipse class="cls-4" cx="425.8125" cy="484.6834" rx="58.9856" ry="31.4111"/>
  <path class="cls-4" d="M194.9259,297.0437c-7.9884,7.7953-9.0081,20.7238-7.5838,26.4516,10.8499,43.6289,245.238-1.911,496.3215,0,121.7189.9263,648.1191,16.0543,746.1676-15.292,11.7336-3.7513,50.6212-16.1835,49.295-24.3851-.5377-3.3267-7.5193-4.8872-9.6904-5.3729-18.5976-4.1576-36.4067,8.4053-38.762,9.9191-39.1593,25.165-467.9925-8.5184-730.1574,5.3729-182.7428,9.6833-338.8962,45.3641-421.3252,11.5729-10.5538-4.3265-64.1234-27.9209-84.2654-8.2665Z"/>
</svg>