<?xml version="1.0" encoding="UTF-8"?>
<svg id="Layer_1" data-name="Layer 1" xmlns="http://www.w3.org/2000/svg" viewBox="0 0 1621.4173 1264.252">
  <defs>
    <style>
      .cls-1 {
        fill: #696a6a;
      }

      .cls-2 {
        fill: #dfcfb0;
      }

      .cls-3 {
        fill: #838384;
      }

      .cls-4 {
        fill: #fff;
      }

      .cls-5 {
        fill: #ece2be;
      }

      .cls-6 {
        fill: #f4eada;
      }

      .cls-7 {
        fill: #bf9d5a;
      }

      .cls-8 {
        fill: #d0d2d3;
      }

      .cls-9 {
        fill: #eeca84;
      }

      .cls-10 {
        fill: #fbf8c8;
      }

      .cls-11 {
        fill: #ffeac3;
      }
    </style>
  </defs>
  <path class="cls-3" d="M780.8534,680.0376c2.9444-140.5568,5.8888-281.1139,8.8333-421.6707,26.6-118.2213,117.4365-208.9458,228.1955-228.1952,172.6609-30.0075,317.7657,126.8827,324.8289,223.7786,1.8531,25.4241-.9388,113.3607-.9388,113.3617v223.7786h-82.4446v-19.139h33.8611v-48.5835l-27.2362-27.2362v-245.1259c-37.6855-99.9272-138.8609-158.2892-236.2927-141.334-82.282,14.3189-149.6797,80.2274-169.3062,166.3618v307.6958l-28.7084,28.7084v53.7363h34.5972v24.7815l-85.3891-10.9181Z"/>
  <path class="cls-8" d="M769.6425,680.0376c2.9444-140.5568,5.8888-281.1139,8.8333-421.6707,26.6-118.2213,117.4365-208.9458,228.1955-228.1952,172.6609-30.0075,317.7657,126.8827,324.8289,223.7786,1.8531,25.4241-.9388,113.3607-.9388,113.3617v223.7786h-82.4446v-19.139h33.8611v-48.5835l-27.2362-27.2362v-245.1259c-37.6855-99.9272-138.8609-158.2892-236.2927-141.334-82.282,14.3189-149.6797,80.2274-169.3062,166.3618v307.6958l-28.7084,28.7084v53.7363h34.5972v24.7815l-85.3891-10.9181Z"/>
  <path class="cls-4" d="M1159.4113,89.2592c-.9634,2.7335-48.8426-24.7054-116.8336-20.2119-59.6703,3.9436-99.0302,30.1162-100.1993,27.4986-1.2394-2.7744,41.0584-36.4832,98.2822-41.1051,66.2139-5.348,119.785,30.8834,118.7507,33.8185Z"/>
  <ellipse class="cls-4" cx="1189.1513" cy="111.1442" rx="14.2315" ry="5.3982"/>
  <ellipse class="cls-4" cx="808.3349" cy="477.2383" rx="6.3797" ry="63.3058"/>
  <g>
    <path class="cls-1" d="M1252.1194,589.7868v-16.5317h32.5576c.3486,0,.6826-.1396.9277-.3882.2451-.248.3804-.584.3755-.9326l-.5669-43.4302c-.0039-.3179-.124-.623-.3374-.8584l-22.3877-24.6904,31.896,21.1128v65.7188h-42.4648Z"/>
    <path class="cls-1" d="M1270.635,509.7787l3.4233,2.2662,19.2227,12.7239v63.7147h-39.8584v-13.9249h31.2544c.6973,0,1.3657-.2794,1.8555-.7756.4897-.4963.7607-1.1682.7515-1.8654l-.3135-24.001-.2534-19.4294c-.0083-.6356-.2485-1.2463-.6758-1.7172l-14.1919-15.6517-1.2144-1.3394M1254.7414,496.1318c9.7896,10.7965,19.5791,21.5927,29.3687,32.3892.189,14.4767.3779,28.9538.5669,43.4305h-33.8613v19.139h45.0723v-67.7225c-13.7158-9.0786-27.4307-18.1576-41.1465-27.2362h0Z"/>
  </g>
  <g>
    <rect class="cls-7" x="278.0729" y="695.853" width="697.836" height="568.3989"/>
    <path class="cls-10" d="M977.7468,697.7162c.4598,15.1819-176.0539,38.7689-349.8354,38.7689s-350.2953-23.587-349.8393-38.7689c.5135-17.0208,223.4597-23.5558,349.8393-23.5558s349.3258,6.535,349.8354,23.5558Z"/>
    <path class="cls-9" d="M896.6977,1018.2342c-15.8382,26.4842-32.1719,32.465-41.3886,63.3059-18.8685,63.1382,22.1143,130.0063,32.0497,127.7159,11.7681-2.7131-22.0434-101.9885,25.7926-201.6955,6.3299-13.1939,7.4568-12.5704,11.3525-22.5147,33.4464-85.3782-29.9171-181.6342-37.1451-179.1805-8.0185,2.7223,62.3152,123.7827,9.3389,212.3688Z"/>
    <path class="cls-11" d="M859.6032,1125.3388c-.7597,20.1937,9.155,39.8219,13.7473,39.082,4.5898-.7393,4.6372-21.9488,4.6696-36.5137.0306-13.6719.0796-35.727-4.6696-36.514-4.3504-.7208-13.0853,16.3448-13.7473,33.9458Z"/>
    <path class="cls-2" d="M290.3414,759.7355c-13.3156,2.8104,27.1736,94.3643,6.8703,241.4454-9.6486,69.8962-31.4062,140.5959,8.0854,202.8049,8.0064,12.6121,16.5172,21.7038,22.353,27.338,3.2978,2.1708,8.54,5.3806,15.3234,8.4806,39.0293,17.8371,71.7215,5.8354,127.3478.7361,51.1425-4.6884,80.6567.2177,81.0953-3.803.9127-8.3673-134.0728,4.4647-177.6489-67.7226-25.8009-42.7412-2.8141-79.8474-4.9075-165.8711-3.2504-133.5697-63.5959-246.5581-78.5188-243.4084Z"/>
    <path class="cls-6" d="M334.8762,943.6413c-6.5944-.0423,10.1409,85.3219-14.6371,174.9863-4.2147,15.2517-16.4771,55.7559,3.476,87.1887,3.442,5.4223,7.1009,9.3307,9.6099,11.7532,1.5222.9341,3.775,2.2497,6.5877,3.6458,20.0697,9.9614,38.6014,9.0977,53.1166,8.7769,41.4468-.9162,61.5985,2.3378,61.8334-.0025.4525-4.5073-76.095,1.4054-101.7111-39.208-12.2616-19.4401-6.0814-38.8032-2.1098-71.3102,11.3485-92.8873-9.6683-175.7886-16.1657-175.8303Z"/>
    <path class="cls-5" d="M947.2308,701.4386c.1037,4.9088-40.0164,12.5351-79.5153,12.5351s-79.6191-7.6263-79.5154-12.5351c.1163-5.5033,50.7905-7.6162,79.5154-7.6162s79.399,2.1129,79.5153,7.6162Z"/>
  </g>
</svg>