<?xml version="1.0" encoding="UTF-8"?>
<svg id="Layer_1" data-name="Layer 1" xmlns="http://www.w3.org/2000/svg" viewBox="0 0 1621.4173 1264.252">
  <defs>
    <style>
      .cls-1 {
        fill: #696a6a;
      }

      .cls-2 {
        fill: #dfcfb0;
      }

      .cls-3 {
        fill: #838384;
      }

      .cls-4 {
        fill: #fff;
      }

      .cls-5 {
        fill: #ece2be;
      }

      .cls-6 {
        fill: #f4eada;
      }

      .cls-7 {
        fill: #bf9d5a;
      }

      .cls-8 {
        fill: #d0d2d3;
      }

      .cls-9 {
        fill: #eeca84;
      }

      .cls-10 {
        fill: #fbf8c8;
      }

      .cls-11 {
        fill: #ffeac3;
      }
    </style>
  </defs>
  <path class="cls-3" d="M807.8717,635.4235c.2798-13.3561.5596-26.7122.8394-40.0683,2.5276-11.2337,11.1591-19.8546,21.6838-21.6837,16.4067-2.8514,30.195,12.0567,30.8661,21.2641.1761,2.4159-.0892,10.7718-.0892,10.7719v21.2641h-7.8341v-1.8186h3.2176v-4.6165l-2.5881-2.5881v-23.2925c-3.581-9.4954-13.1949-15.0411-22.4532-13.4299-7.8187,1.3606-14.223,7.6234-16.0879,15.8082v29.2381l-2.7279,2.7279v5.1062h3.2875v2.3548l-8.1139-1.0375Z"/>
  <path class="cls-8" d="M806.8064,635.4235c.2798-13.3561.5596-26.7122.8394-40.0683,2.5276-11.2337,11.1591-19.8546,21.6838-21.6837,16.4067-2.8514,30.195,12.0567,30.8661,21.2641.1761,2.4159-.0892,10.7718-.0892,10.7719v21.2641h-7.8341v-1.8186h3.2176v-4.6165l-2.5881-2.5881v-23.2925c-3.581-9.4954-13.1949-15.0411-22.4532-13.4299-7.8187,1.3606-14.223,7.6234-16.0879,15.8082v29.2381l-2.7279,2.7279v5.1062h3.2875v2.3548l-8.1139-1.0375Z"/>
  <path class="cls-4" d="M843.8433,579.2861c-.0915.2597-4.6412-2.3476-11.1018-1.9206-5.67.3747-9.4101,2.8617-9.5212,2.613-.1178-.2636,3.9015-3.4667,9.339-3.9059,6.2918-.5082,11.3823,2.9346,11.284,3.2135Z"/>
  <ellipse class="cls-4" cx="846.6693" cy="581.3657" rx="1.3523" ry=".5129"/>
  <ellipse class="cls-4" cx="810.4831" cy="616.1529" rx=".6062" ry="6.0155"/>
  <g>
    <path class="cls-1" d="M852.6531,626.8473v-1.5703h3.0933c.0332,0,.0649-.0137.0884-.0371.0229-.0234.0361-.0552.0356-.0884l-.0537-4.127-1.4277-1.6206-.7319-.8071,3.0308,2.0059v6.2446h-4.0347Z"/>
    <path class="cls-1" d="M854.4123,619.245l.3076.2039,1.8442,1.2206v6.0543h-3.7876v-1.3232h2.9697c.0664,0,.1299-.0266.1763-.0737s.0723-.111.0713-.1772l-.0264-2.0421-.0273-2.0847c-.0005-.0604-.0234-.1184-.064-.1631l-1.3955-1.5389-.0684-.0757M852.9021,617.9482c.9302,1.0259,1.8604,2.0518,2.7905,3.0778.0181,1.3756.0356,2.7512.0537,4.1268h-3.2173v1.8187h4.2827v-6.4352c-1.3032-.8627-2.6064-1.7254-3.9097-2.5881h0Z"/>
  </g>
  <g>
    <rect class="cls-7" x="760.0962" y="636.9263" width="66.3103" height="54.0108"/>
    <path class="cls-10" d="M826.5811,637.1033c.0437,1.4426-16.7291,3.6839-33.2423,3.6839s-33.286-2.2413-33.2427-3.6839c.0488-1.6174,21.2337-2.2383,33.2427-2.2383s33.1939.621,33.2423,2.2383Z"/>
    <path class="cls-9" d="M818.8796,667.5598c-1.505,2.5166-3.0571,3.0849-3.9329,6.0155-1.7929,5.9996,2.1014,12.3536,3.0454,12.1359,1.1182-.2578-2.0946-9.6912,2.4509-19.1657.6015-1.2537.7086-1.1945,1.0787-2.1394,3.1782-8.1129-2.8428-17.2594-3.5296-17.0262-.7619.2587,5.9214,11.7622.8874,20.1799Z"/>
    <path class="cls-11" d="M815.3547,677.7372c-.0722,1.9189.8699,3.784,1.3063,3.7137.4361-.0702.4406-2.0856.4437-3.4696.0029-1.2991.0076-3.3949-.4437-3.4697-.4134-.0685-1.2434,1.5531-1.3063,3.2256Z"/>
    <path class="cls-2" d="M761.262,642.9966c-1.2653.2671,2.5821,8.9667.6528,22.9428-.9168,6.6417-2.9843,13.3598.7683,19.2711.7608,1.1984,1.5695,2.0624,2.124,2.5977.3134.2063.8115.5113,1.4561.8059,3.7087,1.6949,6.8152.5545,12.1009.0699,4.8597-.4455,7.6642.0207,7.7059-.3614.0867-.7951-12.74.4242-16.8807-6.4352-2.4517-4.0614-.2674-7.5873-.4663-15.7615-.3089-12.6922-6.0431-23.4286-7.4611-23.1293Z"/>
    <path class="cls-6" d="M765.4938,660.4718c-.6266-.004.9636,8.1075-1.3909,16.6277-.4005,1.4493-1.5657,5.2981.3303,8.2849.3271.5152.6747.8866.9132,1.1168.1446.0888.3587.2138.626.3464,1.9071.9466,3.668.8645,5.0473.834,3.9384-.0871,5.8533.2221,5.8756-.0002.043-.4283-7.2308.1335-9.6649-3.7256-1.1651-1.8473-.5779-3.6872-.2005-6.7761,1.0784-8.8264-.9187-16.7039-1.5361-16.7079Z"/>
    <path class="cls-5" d="M823.6814,637.457c.0099.4664-3.8025,1.1911-7.5558,1.1911s-7.5656-.7247-7.5558-1.1911c.0111-.5229,4.8263-.7237,7.5558-.7237s7.5447.2008,7.5558.7237Z"/>
  </g>
</svg>