<?xml version="1.0" encoding="UTF-8"?>
<svg id="Layer_1" data-name="Layer 1" xmlns="http://www.w3.org/2000/svg" viewBox="0 0 1621.4173 1264.252">
  <defs>
    <style>
      .cls-1 {
        fill: #aeb2aa;
      }

      .cls-2 {
        fill: #d3d3d1;
      }
    </style>
  </defs>
  <g>
    <ellipse class="cls-1" cx="873.0672" cy="665.532" rx="30.1286" ry="10.2324"/>
    <ellipse class="cls-1" cx="903.1958" cy="648.6351" rx="5.6714" ry="14.8748" transform="translate(177.689 1491.3273) rotate(-84.9578)"/>
    <ellipse class="cls-1" cx="924.2017" cy="637.7017" rx="4.1741" ry="10.9478" transform="translate(207.7398 1502.2794) rotate(-84.9578)"/>
    <path class="cls-1" d="M958.8352,632.3598c-.1649,1.8691-4.2724,3.0335-9.1745,2.6009-4.9018-.4325-8.7419-2.2982-8.577-4.1672.1649-1.8691,4.2724-3.0335,9.1742-2.6009,4.9021.4325,8.7422,2.2982,8.5772,4.1672Z"/>
    <path class="cls-1" d="M1055.4827,675.5916c-21.0288-7.4568-37.0046-5.497-47.6635-2.3684-16.2586,4.7725-23.5175,13.2541-47.9274,18.5698-12.6854,2.7626-24.2595,3.4188-32.6537-6.4428-1.5008-1.7632-5.9344-6.9716-5.793-13.6432.1902-9.0161,8.6322-15.7866,17.38-21.2225,28.2997-17.5864,55.979-18.8349,58.1968-18.9076,33.5639-1.1002,59.2126,8.0544,70.2041,11.8325,29.5575,10.1596,73.3321,20.925,133.8812,22.1228,1.8374.0794,3.379.2348,4.5233.3764,6.3347.7842,22.9828,2.846,29.1841,15.2732.0787.1586.1305.2691.1982.4108,1.1223,2.351,5.2383,11.64,2.9617,19.675-4.3171,15.2376-28.3047,14.2422-51.877,13.264-17.3411-.7195-31.84-3.4634-42.3973-6.0636-29.4051-10.9588-58.8113-21.9174-88.2174-32.8762Z"/>
  </g>
  <g>
    <ellipse class="cls-1" cx="1252.7468" cy="589.3862" rx="30.1286" ry="10.2324"/>
    <ellipse class="cls-1" cx="1282.8755" cy="572.4893" rx="5.6714" ry="14.8748" transform="translate(599.8498 1800.0843) rotate(-84.9578)"/>
    <ellipse class="cls-1" cx="1303.8814" cy="561.5559" rx="4.1741" ry="10.9478" transform="translate(629.9005 1811.0364) rotate(-84.9578)"/>
    <path class="cls-1" d="M1338.5148,556.214c-.1649,1.8691-4.2724,3.0335-9.1745,2.6009-4.9018-.4325-8.7419-2.2982-8.577-4.1672.1649-1.8691,4.2724-3.0335,9.1742-2.6009,4.9021.4325,8.7422,2.2982,8.5772,4.1672Z"/>
    <path class="cls-1" d="M1435.1622,599.4459c-21.0288-7.4568-37.0046-5.4972-47.6635-2.3687-16.2586,4.7727-23.5165,13.2543-47.9274,18.57-12.6854,2.7623-24.2585,3.4188-32.6537-6.4428-1.5008-1.7634-5.9344-6.9716-5.793-13.6432.1902-9.0161,8.6322-15.7866,17.38-21.2228,28.2997-17.5861,55.979-18.8347,58.1968-18.9074,32.6248-1.0693,57.3065,7.5736,70.2041,11.8325,28.2191,9.3179,70.4371,19.6887,128.2893,21.7563,2.173.0617,4.0612.2089,5.5918.3665,7.8365.8072,27.3915,2.7623,33.7073,15.6494.6623,1.3514,5.6088,11.4438,3.1599,20.0858-4.3171,15.2378-28.3037,14.2425-51.877,13.2643-17.3401-.7195-31.84-3.4636-42.3973-6.0639-29.4051-10.9586-58.8113-21.9174-88.2174-32.876Z"/>
  </g>
  <g>
    <ellipse class="cls-1" cx="48.3795" cy="636.3695" rx="30.1286" ry="10.2324"/>
    <ellipse class="cls-1" cx="78.5081" cy="619.4726" rx="5.6714" ry="14.8748" transform="translate(-545.4673 643.2315) rotate(-84.9578)"/>
    <ellipse class="cls-1" cx="99.514" cy="608.5392" rx="4.1741" ry="10.9478" transform="translate(-515.4165 654.1837) rotate(-84.9578)"/>
    <path class="cls-1" d="M134.1474,603.1973c-.1649,1.8691-4.2724,3.0335-9.1745,2.6009-4.9018-.4325-8.7419-2.2982-8.577-4.1672.1649-1.8691,4.2724-3.0335,9.1742-2.6009,4.9021.4325,8.7422,2.2982,8.5772,4.1672Z"/>
    <path class="cls-1" d="M230.7955,646.4292c-21.0298-7.4568-37.0056-5.4972-47.6645-2.3684-16.2586,4.7725-23.5165,13.2541-47.9274,18.5698-12.6854,2.7623-24.2585,3.4188-32.6527-6.4428-1.5018-1.7634-5.9354-6.9716-5.794-13.6432.1912-9.0161,8.6322-15.7866,17.38-21.2228,28.2997-17.5861,55.98-18.8347,58.1978-18.9074,33.5639-1.1002,59.2126,8.0546,70.2031,11.8325,29.5575,10.1596,73.3331,20.925,133.8821,22.1228.5537-.0466,1.5277-.1155,2.7387-.1265,10.1469-.0914,25.1259,4.0089,30.9687,15.7759.0827.1666.1404.2863.1982.4076,1.1194,2.3473,5.2383,11.6403,2.9617,19.6782-4.3181,15.2378-28.3047,14.2425-51.878,13.2643-17.3401-.7195-31.84-3.4636-42.3963-6.0639-29.4061-10.9586-58.8123-21.9174-88.2174-32.876Z"/>
  </g>
  <g>
    <ellipse class="cls-1" cx="428.0591" cy="560.2237" rx="30.1286" ry="10.2324"/>
    <ellipse class="cls-1" cx="458.1878" cy="543.3268" rx="5.6714" ry="14.8748" transform="translate(-123.3066 951.9885) rotate(-84.9578)"/>
    <ellipse class="cls-1" cx="479.1937" cy="532.3934" rx="4.1741" ry="10.9478" transform="translate(-93.2558 962.9407) rotate(-84.9578)"/>
    <path class="cls-1" d="M513.8271,527.0515c-.1649,1.8691-4.2724,3.0335-9.1745,2.6009-4.9018-.4325-8.7419-2.2982-8.577-4.1672.1649-1.8691,4.2724-3.0335,9.1742-2.6009,4.9021.4325,8.7422,2.2982,8.5772,4.1672Z"/>
    <path class="cls-1" d="M610.475,570.2833c-21.0298-7.4568-37.0056-5.497-47.6645-2.3684-16.2586,4.7725-23.5165,13.2541-47.9264,18.5698-12.6864,2.7626-24.2595,3.4188-32.6537-6.4428-1.5018-1.7632-5.9344-6.9716-5.794-13.6432.1912-9.0161,8.6332-15.7866,17.381-21.2225,28.2987-17.5864,55.979-18.8349,58.1968-18.9076,33.3627-1.0937,58.8172,7.9515,70.2031,11.8325,29.3942,10.0195,72.7495,20.6494,132.3057,22.0115.237.0139.8296.0498,1.5765.1113,7.4232.6105,27.1146,2.1964,33.7073,15.6496.6623,1.3514,5.6078,11.4438,3.1599,20.0858-4.3171,15.2376-28.3047,14.2422-51.877,13.264-17.3411-.7195-31.841-3.4634-42.3973-6.0636-29.4061-10.9588-58.8123-21.9174-88.2174-32.8762Z"/>
  </g>
  <path class="cls-2" d="M955.1336,665.532c2.1003,4.3037,27.1485-7.3172,77.1662-12.4372,12.1546-1.2441,18.8718-1.397,26.8746,0,19.052,3.3257,20.3716,11.0674,42.0428,16.8357,12.2004,3.2475,12.063.8682,36.6591,5.8338,13.754,2.7767,20.3507,4.8437,20.7311,3.8207.6164-1.6561-15.5794-10.011-32.6318-16.1244-9.3622-3.3561-13.3228-4.0081-38.3919-9.9819-33.3169-7.9391-34.2481-8.677-47.2213-11.1334-21.473-4.0659-32.2095-6.0987-41.4632-4.6438-25.8429,4.0634-45.8251,23.6114-43.7656,27.8304Z"/>
  <ellipse class="cls-2" cx="883.6396" cy="666.3851" rx="13.8311" ry="5.1321"/>
  <ellipse class="cls-2" cx="929.3445" cy="639.3597" rx="4.463" ry="1.3254"/>
  <path class="cls-2" d="M955.4304,633.269c0,.5619-1.4072,1.0173-3.143,1.0173-1.7348,0-3.142-.4554-3.142-1.0173s1.4072-1.0173,3.142-1.0173c1.7358,0,3.143.4556,3.143,1.0173Z"/>
  <path class="cls-2" d="M1213.5839,673.3068c1.1208-.8327,17.1409,7.5876,13.8417,20.0699-3.3734,12.7629-22.8789,14.3889-23.331,13.4311-.3904-.8269,12.9652-4.5433,15.8434-13.9444,2.9837-9.7453-7.3717-18.8007-6.3541-19.5566Z"/>
  <path class="cls-2" d="M1334.0464,588.6182c2.1003,4.3037,27.1485-7.3172,77.1662-12.4372,12.1546-1.2441,18.8718-1.397,26.8746,0,19.052,3.3257,20.3716,11.0674,42.0428,16.8357,12.2004,3.2475,12.063.8682,36.6591,5.8338,13.754,2.7767,20.3507,4.8437,20.7311,3.8207.6164-1.6561-15.5794-10.011-32.6318-16.1244-9.3622-3.3561-13.3228-4.0081-38.3919-9.9819-33.3169-7.9391-34.2481-8.677-47.2213-11.1334-21.473-4.0659-32.2095-6.0987-41.4632-4.6438-25.8429,4.0634-45.8251,23.6114-43.7656,27.8304Z"/>
  <ellipse class="cls-2" cx="1262.5524" cy="589.4713" rx="13.8311" ry="5.1321"/>
  <path class="cls-2" d="M1592.4968,596.393c1.1208-.8327,17.1409,7.5876,13.8417,20.0699-3.3734,12.7629-22.8789,14.3889-23.331,13.4311-.3904-.8269,12.9652-4.5433,15.8434-13.9444,2.9837-9.7453-7.3717-18.8007-6.3541-19.5566Z"/>
  <path class="cls-2" d="M510.1391,560.368c2.1003,4.3037,27.1485-7.3172,77.1662-12.4372,12.1546-1.2441,18.8718-1.397,26.8746,0,19.052,3.3257,20.3716,11.0674,42.0428,16.8357,12.2004,3.2475,12.063.8682,36.6591,5.8338,13.754,2.7767,20.3507,4.8437,20.7311,3.8207.6164-1.6561-15.5794-10.011-32.6318-16.1244-9.3622-3.3561-13.3228-4.0081-38.3919-9.9819-33.3169-7.9391-34.2481-8.677-47.2213-11.1334-21.473-4.0659-32.2095-6.0987-41.4632-4.6438-25.8429,4.0634-45.8251,23.6114-43.7656,27.8304Z"/>
  <path class="cls-2" d="M768.5894,568.1428c1.1208-.8327,17.1409,7.5876,13.8417,20.0699-3.3734,12.7629-22.8789,14.3889-23.331,13.4311-.3904-.8269,12.9652-4.5433,15.8434-13.9444,2.9837-9.7453-7.3717-18.8007-6.3541-19.5566Z"/>
  <path class="cls-2" d="M128.4706,634.1316c2.1003,4.3037,27.1485-7.3172,77.1662-12.4372,12.1546-1.2441,18.8718-1.397,26.8746,0,19.052,3.3257,20.3716,11.0674,42.0428,16.8357,12.2004,3.2475,12.063.8682,36.6591,5.8338,13.754,2.7767,20.3507,4.8437,20.7311,3.8207.6164-1.6561-15.5794-10.011-32.6318-16.1244-9.3622-3.3561-13.3228-4.0081-38.3919-9.9819-33.3169-7.9391-34.2481-8.677-47.2213-11.1334-21.473-4.0659-32.2095-6.0987-41.4632-4.6438-25.8429,4.0634-45.8251,23.6114-43.7656,27.8304Z"/>
  <ellipse class="cls-2" cx="56.9766" cy="634.9847" rx="13.8311" ry="5.1321"/>
  <ellipse class="cls-2" cx="82.9332" cy="618.9728" rx="1.7219" ry="6.4047" transform="translate(-538.7519 678.2417) rotate(-87.8145)"/>
  <ellipse class="cls-2" cx="102.6815" cy="607.9592" rx="4.463" ry="1.3254"/>
  <path class="cls-2" d="M128.7673,601.8685c0,.5619-1.4072,1.0173-3.143,1.0173-1.7348,0-3.142-.4554-3.142-1.0173s1.4072-1.0173,3.142-1.0173c1.7358,0,3.143.4556,3.143,1.0173Z"/>
  <path class="cls-2" d="M386.9209,641.9063c1.1208-.8327,17.1409,7.5876,13.8417,20.0699-3.3734,12.7629-22.8789,14.3889-23.331,13.4311-.3904-.8269,12.9652-4.5433,15.8434-13.9444,2.9837-9.7453-7.3717-18.8007-6.3541-19.5566Z"/>
</svg>