<?xml version="1.0" encoding="UTF-8"?>
<svg id="Layer_1" data-name="Layer 1" xmlns="http://www.w3.org/2000/svg" viewBox="0 0 1621.4173 1264.252">
  <defs>
    <style>
      .cls-1 {
        fill: #e76128;
      }

      .cls-2 {
        fill: #d65428;
      }

      .cls-3 {
        fill: #f9ab8c;
      }

      .cls-4 {
        fill: #fff;
      }

      .cls-5, .cls-6, .cls-7 {
        fill: #f16a24;
      }

      .cls-6 {
        stroke-width: 8.4282px;
      }

      .cls-6, .cls-7 {
        stroke: #f16b24;
        stroke-miterlimit: 10;
      }

      .cls-7 {
        stroke-width: 8.2969px;
      }

      .cls-8 {
        fill: #e25d2c;
      }
    </style>
  </defs>
  <path class="cls-5" d="M648.5032,225.3737c4.5398,51.657,9.0796,103.3141,13.6193,154.9711,37.2124,21.6509,74.4248,43.3017,111.6372,64.9526v779.4308c-1.8029,18.9663,13.5822,33.4856,27.9093,32.4763,13.2434-.9329,25.775-15.1477,23.8497-32.4763-6.5967-260.1486-13.1935-520.2971-19.7902-780.4456,39.073-19.9594,78.1461-39.9188,117.2191-59.8782,7.5968-87.0427,15.1933-174.0854,22.7895-261.1282"/>
  <path class="cls-5" d="M945.7371,123.2762c.1828-2.0949.3656-4.1898.5485-6.2847.3398-3.8934.6795-7.7868,1.0193-11.6802.1668-1.311.322-3.0681.3032-5.1384-.377-41.2924-68.8904-84.2357-129.9051-91.847-83.1025-10.3666-176.0669,41.8445-179.7515,90.8321-.1693,2.2508-.1367,4.316,0,6.1533.2935,3.3393.5869,6.6785.8804,10.0177,3.2238,36.6816,6.4476,73.3631,9.6713,110.0447"/>
  <path class="cls-4" d="M805.7499,425.9716c36.1799-18.4815,72.3599-36.9631,108.5398-55.4446,7.2037-82.5376,14.407-165.0752,21.6099-247.6128.3146-3.6051.6292-7.2102.9438-10.8154.1545-1.2139.2982-2.8409.2807-4.7579-.349-38.235-63.7895-77.9987-120.2866-85.0464-76.9494-9.599-163.0304,38.7462-166.4421,84.1066-.1568,2.0841-.1265,3.9965,0,5.6977.2717,3.092.5435,6.184.8152,9.276,7.1889,81.7977,14.3776,163.5954,21.5662,245.3932,34.4571,20.0478,68.9142,40.0955,103.3713,60.1433"/>
  <path class="cls-8" d="M773.7598,445.2974c-.011,261.8221-.0221,523.6443-.0331,785.4664.2582,2.7953,1.0871,7.5588,4.0752,12.5549.0002.0003,4.2679,7.1362,11.9816,11.1765,2.6864,1.407,5.9057,2.4816,7.8717,2.5991.1663.0099,2.6458.1517,2.6458.1517h0c-11.6273-10.3564-12.5184-13.89-12.5185-13.8905-.7175-2.8455-.4998-6.9192,3.1235-12.5916-5.7154-261.8221-11.4308-523.6443-17.1463-785.4664Z"/>
  <path class="cls-1" d="M831.1443,899.3096c.0628,1.1118-16.9633,3.7826-35.497,3.839-19.2262.0585-36.7811-2.7065-36.7174-3.839.0505-.8981,12.2728-.8958,36.7174-.8915,23.6313.0043,35.447.0063,35.497.8915Z"/>
  <path class="cls-1" d="M831.779,911.2971c.0625,1.1169-17.2511,3.8119-36.1318,3.839-19.2131.0276-36.7803-2.7123-36.7174-3.839.0499-.8946,12.2724-.8935,36.7174-.8915,24.0547.002,36.0821.003,36.1318.8915Z"/>
  <path class="cls-1" d="M831.779,924.7519c.0632,1.1222-17.2371,3.8405-36.1318,3.839-18.8765-.0015-36.163-2.7173-36.0998-3.839.0502-.8913,12.0667-.8915,36.0998-.8915,24.0544,0,36.0815-.0003,36.1318.8915Z"/>
  <path class="cls-1" d="M831.779,937.1022c.0625,1.1169-17.2511,3.8119-36.1318,3.839-19.2131.0276-36.7803-2.7123-36.7174-3.839.0499-.8946,12.2724-.8935,36.7174-.8915,24.0547.002,36.0821.003,36.1318.8915Z"/>
  <path class="cls-1" d="M831.779,949.4525c.0625,1.1169-17.2511,3.8119-36.1318,3.839-19.2131.0276-36.7803-2.7123-36.7174-3.839.0499-.8946,12.2724-.8935,36.7174-.8915,24.0547.002,36.0821.003,36.1318.8915Z"/>
  <path class="cls-1" d="M831.779,961.4362c.0625,1.1169-17.251,3.8122-36.1318,3.8393-19.2133.0276-36.7803-2.7125-36.7174-3.8393.0499-.8943,12.2724-.8933,36.7174-.8913,24.0547.002,36.0821.003,36.1318.8913Z"/>
  <path class="cls-1" d="M831.779,975.5131c.0625,1.1169-17.251,3.8119-36.1318,3.839-19.2133.0276-36.7803-2.7123-36.7174-3.839.0499-.8943,12.2724-.8933,36.7174-.8913,24.0548.002,36.0821.003,36.1318.8913Z"/>
  <path class="cls-1" d="M831.779,989.59c.0625,1.1169-17.2511,3.8119-36.1318,3.839-19.2131.0276-36.7803-2.7123-36.7174-3.839.0499-.8946,12.2724-.8935,36.7174-.8915,24.0547.002,36.0821.003,36.1318.8915Z"/>
  <path class="cls-1" d="M831.779,1000.8273c.0625,1.1169-17.2511,3.8119-36.1318,3.839-19.2131.0276-36.7803-2.7123-36.7174-3.839.0499-.8946,12.2724-.8935,36.7174-.8915,24.0547.002,36.0821.003,36.1318.8915Z"/>
  <path class="cls-1" d="M831.779,1012.1691c.0625,1.1169-17.2511,3.8119-36.1318,3.839-19.2131.0276-36.7803-2.7123-36.7174-3.839.0499-.8946,12.2724-.8935,36.7174-.8915,24.0547.002,36.0821.003,36.1318.8915Z"/>
  <path class="cls-1" d="M831.779,1025.6338c.0625,1.1169-17.2511,3.8119-36.1318,3.839-19.2131.0276-36.7803-2.7123-36.7174-3.839.0499-.8946,12.2724-.8935,36.7174-.8915,24.0547.002,36.0821.003,36.1318.8915Z"/>
  <path class="cls-1" d="M831.3406,1039.3404c.0532,1.1232-17.2289,3.5734-35.6933,3.597-18.7771.0241-36.2986-2.4641-36.2451-3.597.0539-1.1404,17.9347-1.1371,36.2451-1.1336,18.1338.0035,35.64.0068,35.6933,1.1336Z"/>
  <path class="cls-1" d="M831.1443,1051.3151c.0628,1.1118-16.9631,3.7826-35.497,3.839-19.2263.0585-36.7811-2.7065-36.7174-3.839.0505-.8978,12.2728-.8956,36.7174-.8913,23.6314.0043,35.447.0063,35.497.8913Z"/>
  <path class="cls-1" d="M831.1445,1063.532c.0628,1.1118-16.9633,3.7826-35.4972,3.839-19.2263.0585-36.7811-2.7065-36.7174-3.839.0505-.8978,12.2728-.8956,36.7174-.8913,23.6315.0043,35.4472.0063,35.4972.8913Z"/>
  <path class="cls-1" d="M831.779,1075.7489c.0625,1.1169-17.2511,3.8119-36.1318,3.839-19.2131.0276-36.7803-2.7123-36.7174-3.839.0499-.8946,12.2724-.8935,36.7174-.8915,24.0547.002,36.0821.003,36.1318.8915Z"/>
  <path class="cls-1" d="M831.779,1089.7896c.0625,1.1169-17.2511,3.8119-36.1318,3.839-19.2131.0276-36.7803-2.7123-36.7174-3.839.0499-.8946,12.2724-.8935,36.7174-.8915,24.0547.002,36.0821.003,36.1318.8915Z"/>
  <path class="cls-1" d="M831.779,1101.4224c.0625,1.1169-17.2511,3.8119-36.1318,3.839-19.2131.0276-36.7803-2.7123-36.7174-3.839.0499-.8946,12.2724-.8935,36.7174-.8915,24.0547.002,36.0821.003,36.1318.8915Z"/>
  <path class="cls-1" d="M831.779,1115.0187c.0625,1.1169-17.251,3.8119-36.1318,3.839-19.2133.0276-36.7803-2.7123-36.7174-3.839.0499-.8943,12.2724-.8933,36.7174-.8913,24.0548.002,36.0821.003,36.1318.8913Z"/>
  <path class="cls-1" d="M831.779,1127.6602c.0625,1.1169-17.251,3.8119-36.1318,3.839-19.2133.0276-36.7803-2.7123-36.7174-3.839.0499-.8943,12.2724-.8933,36.7174-.8913,24.0548.002,36.0821.003,36.1318.8913Z"/>
  <path class="cls-1" d="M831.779,1140.3017c.0625,1.1169-17.251,3.8119-36.1318,3.839-19.2133.0276-36.7803-2.7123-36.7174-3.839.0499-.8943,12.2724-.8933,36.7174-.8913,24.0548.002,36.0821.003,36.1318.8913Z"/>
  <path class="cls-1" d="M831.779,1152.9432c.0625,1.1169-17.251,3.8119-36.1318,3.839-19.2133.0276-36.7803-2.7123-36.7174-3.839.0499-.8943,12.2724-.8933,36.7174-.8913,24.0548.002,36.0821.003,36.1318.8913Z"/>
  <path class="cls-1" d="M831.779,1166.7386c.0625,1.1169-17.2511,3.8119-36.1318,3.839-19.2131.0276-36.7803-2.7123-36.7174-3.839.0499-.8946,12.2724-.8935,36.7174-.8915,24.0547.002,36.0821.003,36.1318.8915Z"/>
  <path class="cls-1" d="M831.779,1178.407c.0625,1.1169-17.2511,3.8119-36.1318,3.839-19.2131.0276-36.7803-2.7123-36.7174-3.839.0499-.8946,12.2724-.8935,36.7174-.8915,24.0547.002,36.0821.003,36.1318.8915Z"/>
  <path class="cls-1" d="M831.779,1191.9677c.0632,1.1219-17.2373,3.84-36.1318,3.839-18.883-.001-36.1749-2.7173-36.1117-3.839.0502-.8915,12.0707-.8915,36.1117-.8915,24.0544,0,36.0816,0,36.1318.8915Z"/>
  <path class="cls-1" d="M831.779,1203.3209c.0625,1.1169-17.2511,3.8119-36.1318,3.839-19.2131.0276-36.7803-2.7123-36.7174-3.839.0499-.8946,12.2724-.8935,36.7174-.8915,24.0547.002,36.0821.003,36.1318.8915Z"/>
  <path class="cls-1" d="M831.779,1216.4258c.0625,1.1169-17.2511,3.8119-36.1318,3.839-19.2131.0276-36.7803-2.7123-36.7174-3.839.0499-.8946,12.2724-.8935,36.7174-.8915,24.0547.002,36.0821.003,36.1318.8915Z"/>
  <ellipse class="cls-2" cx="795.3544" cy="899.3095" rx="36.4246" ry="2.3652"/>
  <ellipse class="cls-2" cx="795.3544" cy="911.2971" rx="36.4246" ry="2.3652"/>
  <path class="cls-2" d="M831.779,924.7519c0,1.3063-16.3078,2.3651-36.4246,2.3651s-36.4246-1.0589-36.4246-2.3651,16.3078-2.3654,36.4246-2.3654,36.4246,1.0591,36.4246,2.3654Z"/>
  <path class="cls-2" d="M831.779,937.1022c0,1.3063-16.3078,2.3651-36.4246,2.3651s-36.4246-1.0589-36.4246-2.3651,16.3078-2.3654,36.4246-2.3654,36.4246,1.0591,36.4246,2.3654Z"/>
  <ellipse class="cls-2" cx="795.3544" cy="949.4525" rx="36.4246" ry="2.3652"/>
  <ellipse class="cls-2" cx="795.3544" cy="961.4363" rx="36.4246" ry="2.3652"/>
  <ellipse class="cls-2" cx="795.3544" cy="975.5132" rx="36.4246" ry="2.3652"/>
  <ellipse class="cls-2" cx="795.3544" cy="989.59" rx="36.4246" ry="2.3652"/>
  <ellipse class="cls-2" cx="795.3544" cy="1000.8273" rx="36.4246" ry="2.3652"/>
  <ellipse class="cls-2" cx="795.3544" cy="1012.1691" rx="36.4246" ry="2.3652"/>
  <ellipse class="cls-2" cx="795.3544" cy="1025.6337" rx="36.4246" ry="2.3652"/>
  <ellipse class="cls-2" cx="795.3544" cy="1039.0983" rx="36.4246" ry="2.3652"/>
  <ellipse class="cls-2" cx="795.3544" cy="1051.3152" rx="36.4246" ry="2.3652"/>
  <ellipse class="cls-2" cx="795.3544" cy="1063.532" rx="36.4246" ry="2.3652"/>
  <ellipse class="cls-2" cx="795.3544" cy="1075.7489" rx="36.4246" ry="2.3652"/>
  <ellipse class="cls-2" cx="795.3544" cy="1089.7896" rx="36.4246" ry="2.3652"/>
  <ellipse class="cls-2" cx="795.3544" cy="1101.4224" rx="36.4246" ry="2.3652"/>
  <ellipse class="cls-2" cx="795.3544" cy="1115.0188" rx="36.4246" ry="2.3652"/>
  <ellipse class="cls-2" cx="795.3544" cy="1127.6603" rx="36.4246" ry="2.3652"/>
  <ellipse class="cls-2" cx="795.3544" cy="1140.3018" rx="36.4246" ry="2.3652"/>
  <ellipse class="cls-2" cx="795.3544" cy="1152.9433" rx="36.4246" ry="2.3652"/>
  <ellipse class="cls-2" cx="795.3544" cy="1166.7385" rx="36.4246" ry="2.3652"/>
  <ellipse class="cls-2" cx="795.3544" cy="1178.407" rx="36.4246" ry="2.3652"/>
  <ellipse class="cls-2" cx="795.3544" cy="1191.9677" rx="36.4246" ry="2.3652"/>
  <ellipse class="cls-2" cx="795.3544" cy="1203.3208" rx="36.4246" ry="2.3652"/>
  <ellipse class="cls-2" cx="795.3544" cy="1216.4257" rx="36.4246" ry="2.3652"/>
  <line class="cls-7" x1="654.8216" y1="86.7403" x2="924.6672" y2="275.8868"/>
  <line class="cls-7" x1="647.5726" y1="105.3944" x2="923.9259" y2="299.7738"/>
  <line class="cls-7" x1="642.7569" y1="125.4235" x2="920.7948" y2="321.0017"/>
  <line class="cls-7" x1="645.0995" y1="151.1925" x2="921.4529" y2="345.5719"/>
  <line class="cls-7" x1="648.9224" y1="179.096" x2="918.768" y2="368.2426"/>
  <line class="cls-7" x1="650.6829" y1="204.0872" x2="907.3442" y2="384.6158"/>
  <line class="cls-7" x1="657.9739" y1="233.9936" x2="888.6562" y2="394.8874"/>
  <line class="cls-7" x1="658.9108" y1="257.4121" x2="870.7627" y2="406.4229"/>
  <line class="cls-7" x1="710.5939" y1="28.7171" x2="932.8231" y2="184.4873"/>
  <line class="cls-7" x1="694.6404" y1="41.3284" x2="931.018" y2="207.5899"/>
  <line class="cls-7" x1="677.6933" y1="52.8246" x2="932.8945" y2="232.3261"/>
  <line class="cls-7" x1="668.0929" y1="70.1931" x2="930.4589" y2="254.8908"/>
  <line class="cls-7" x1="831.1288" y1="20.0906" x2="939.8295" y2="98.5648"/>
  <line class="cls-7" x1="793.2464" y1="17.4833" x2="938.6109" y2="120.0268"/>
  <line class="cls-7" x1="760.7305" y1="18.0288" x2="939.7236" y2="143.9276"/>
  <line class="cls-7" x1="742.5874" y1="28.5495" x2="938.2454" y2="167.0091"/>
  <line class="cls-7" x1="658.2448" y1="281.2631" x2="850.7719" y2="416.2138"/>
  <line class="cls-7" x1="659.756" y1="306.2382" x2="826.8331" y2="422.9906"/>
  <line class="cls-7" x1="663.0061" y1="331.9405" x2="808.394" y2="433.7887"/>
  <line class="cls-6" x1="938.5944" y1="79.1421" x2="667.4615" y2="267.0013"/>
  <line class="cls-6" x1="944.9689" y1="98.6582" x2="668.5956" y2="291.2811"/>
  <line class="cls-6" x1="940.6756" y1="123.763" x2="670.8205" y2="313.7114"/>
  <line class="cls-6" x1="940.2175" y1="151.232" x2="671.8387" y2="337.8493"/>
  <line class="cls-6" x1="933.0958" y1="182.0484" x2="669.8993" y2="367.7244"/>
  <line class="cls-6" x1="930.503" y1="208.2788" x2="676.0622" y2="385.2043"/>
  <line class="cls-6" x1="932.7627" y1="206.7075" x2="930.503" y2="208.2788"/>
  <line class="cls-6" x1="932.071" y1="231.2381" x2="700.9063" y2="391.9785"/>
  <line class="cls-6" x1="931.1636" y1="256.7237" x2="717.138" y2="405.4654"/>
  <line class="cls-6" x1="865.4428" y1="30.1637" x2="646.884" y2="181.9396"/>
  <line class="cls-6" x1="885.1563" y1="40.8954" x2="650.891" y2="203.7918"/>
  <line class="cls-6" x1="903.5428" y1="52.1599" x2="655.6214" y2="225.499"/>
  <line class="cls-6" x1="924.8475" y1="62.1193" x2="657.467" y2="248.0424"/>
  <line class="cls-6" x1="749.3859" y1="21.0448" x2="655.8245" y2="85.8705"/>
  <line class="cls-6" x1="780.6444" y1="17.8452" x2="643.9559" y2="112.8916"/>
  <line class="cls-6" x1="815.1173" y1="17.924" x2="644.7744" y2="136.372"/>
  <line class="cls-6" x1="847.344" y1="20.2888" x2="646.0639" y2="160.249"/>
  <line class="cls-6" x1="928.5893" y1="283.386" x2="732.9452" y2="418.9415"/>
  <line class="cls-6" x1="926.5023" y1="309.5619" x2="755.6146" y2="428.2468"/>
  <line class="cls-6" x1="922.2739" y1="336.4097" x2="770.6144" y2="437.8498"/>
  <path class="cls-3" d="M804.1647,698.8273c-.4511,20.8662-1.2406,57.3916-2.3426,57.3946-3.099.0086-7.6893-288.841-4.6853-288.9252,1.5082-.0423,4.8506,72.7067,6.247,119.4745,1.7867,59.8363,1.0537,99.4363.7809,112.056Z"/>
  <ellipse class="cls-3" cx="798.3081" cy="795.8515" rx="4.6853" ry="14.6415"/>
  <ellipse class="cls-3" cx="801.5293" cy="898.83" rx="9.9562" ry=".5857"/>
  <ellipse class="cls-3" cx="789.084" cy="911.5192" rx="1.3177" ry="1.0737"/>
  <ellipse class="cls-3" cx="781.2264" cy="924.6966" rx="9.8586" ry=".7809"/>
  <ellipse class="cls-3" cx="813.1937" cy="937.0442" rx="6.4911" ry=".5369"/>
  <ellipse class="cls-3" cx="787.9615" cy="937.2394" rx="1.2689" ry=".7321"/>
  <ellipse class="cls-3" cx="799.333" cy="949.7091" rx="8.4921" ry=".6589"/>
  <ellipse class="cls-3" cx="810.7534" cy="949.0502" rx=".7321" ry=".5857"/>
  <ellipse class="cls-3" cx="788.6448" cy="962.0079" rx="15.3736" ry=".6589"/>
  <ellipse class="cls-3" cx="812.6313" cy="961.4895" rx="4.2206" ry=".8725"/>
  <ellipse class="cls-3" cx="782.2025" cy="975.9906" rx="8.1992" ry=".5857"/>
  <ellipse class="cls-3" cx="814.6334" cy="975.5513" rx="10.6151" ry=".7321"/>
  <ellipse class="cls-3" cx="797.8689" cy="989.0215" rx="15.8128" ry=".7321"/>
  <ellipse class="cls-3" cx="822.6862" cy="989.6803" rx="2.8551" ry=".6589"/>
  <ellipse class="cls-3" cx="791.2802" cy="1000.5882" rx="20.0588" ry="1.0249"/>
  <ellipse class="cls-3" cx="781.5437" cy="1011.6426" rx="4.4657" ry="1.0981"/>
  <ellipse class="cls-3" cx="805.3361" cy="1025.1127" rx="13.0309" ry=".9517"/>
  <ellipse class="cls-3" cx="772.6856" cy="1025.3323" rx="2.6355" ry=".4392"/>
  <ellipse class="cls-3" cx="792.4516" cy="1039.2417" rx="12.2988" ry=".8785"/>
  <ellipse class="cls-3" cx="816.1708" cy="1038.7293" rx="2.4891" ry=".8053"/>
  <ellipse class="cls-3" cx="802.9934" cy="1051.7358" rx="5.7102" ry=".7321"/>
  <ellipse class="cls-3" cx="790.841" cy="1064.1079" rx="11.1275" ry=".9517"/>
  <ellipse class="cls-3" cx="775.6139" cy="1063.5222" rx="1.757" ry=".6589"/>
  <ellipse class="cls-3" cx="807.0198" cy="1075.821" rx="13.5434" ry=".9517"/>
  <ellipse class="cls-3" cx="826.4198" cy="1075.5282" rx="1.3177" ry=".2196"/>
  <ellipse class="cls-3" cx="781.9829" cy="1075.5282" rx="3.88" ry=".6589"/>
  <ellipse class="cls-3" cx="778.6886" cy="1089.2912" rx="6.1494" ry=".9517"/>
  <ellipse class="cls-3" cx="809.2893" cy="1088.9984" rx="12.006" ry="1.2445"/>
  <ellipse class="cls-3" cx="800.8948" cy="1102.2001" rx="20.4005" ry=".5857"/>
  <ellipse class="cls-3" cx="774.4425" cy="1101.8585" rx="1.9522" ry=".5369"/>
  <ellipse class="cls-3" cx="791.2802" cy="1114.7918" rx="21.0349" ry="1.2689"/>
  <ellipse class="cls-3" cx="818.9038" cy="1114.4501" rx="2.001" ry=".6345"/>
  <ellipse class="cls-3" cx="796.8928" cy="1127.7251" rx="18.3507" ry="1.2201"/>
  <ellipse class="cls-3" cx="780.4943" cy="1140.2192" rx="7.9064" ry="1.2201"/>
  <ellipse class="cls-3" cx="804.5552" cy="1139.2919" rx="3.8556" ry=".488"/>
  <ellipse class="cls-3" cx="803.1886" cy="1152.9084" rx="20.7421" ry="1.1225"/>
  <ellipse class="cls-3" cx="774.1985" cy="1152.9572" rx="1.513" ry=".7809"/>
  <ellipse class="cls-3" cx="785.326" cy="1052.0286" rx="4.5389" ry=".5857"/>
  <ellipse class="cls-3" cx="816.1708" cy="1012.033" rx="10.5419" ry=".8053"/>
  <ellipse class="cls-3" cx="802.481" cy="1012.2526" rx=".366" ry=".2928"/>
  <ellipse class="cls-3" cx="799.5771" cy="1215.9156" rx="14.8367" ry=".8785"/>
  <ellipse class="cls-3" cx="779.4694" cy="1215.818" rx="1.9522" ry=".3904"/>
  <ellipse class="cls-3" cx="785.6189" cy="1202.5431" rx="11.6156" ry=".5857"/>
  <ellipse class="cls-3" cx="805.5557" cy="1203.2019" rx="4.3924" ry=".366"/>
  <ellipse class="cls-3" cx="815.2923" cy="1192.2574" rx="10.0294" ry=".6955"/>
  <ellipse class="cls-3" cx="790.4017" cy="1192.2574" rx="10.1758" ry="1.0615"/>
  <ellipse class="cls-3" cx="775.9311" cy="1192.0256" rx="1.8546" ry=".5857"/>
  <ellipse class="cls-3" cx="773.2956" cy="1178.653" rx="6.247" ry=".6833"/>
  <ellipse class="cls-3" cx="804.6284" cy="1177.6769" rx="4.1972" ry=".8785"/>
  <ellipse class="cls-3" cx="796.4292" cy="1166.0614" rx="10.6395" ry="1.1713"/>
  <ellipse class="cls-3" cx="817.7081" cy="1166.7446" rx="2.8307" ry=".2928"/>
  <ellipse class="cls-3" cx="771.3434" cy="1166.2566" rx="4.8805" ry=".1952"/>
  <ellipse class="cls-3" cx="796.3315" cy="1242.9779" rx="9.5658" ry="13.0797" transform="translate(-289.6689 243.1073) rotate(-14.7183)"/>
  <ellipse class="cls-3" cx="817.0248" cy="1238.0974" rx="1.5618" ry="2.7331"/>
  <path class="cls-3" d="M890.9979,391.3528c-.382-.5905-13.3962,8.401-33.4539,18.5955-32.3348,16.4344-55.1318,21.8441-54.8679,22.6725.2843.8923,27.2413-3.7917,56.5806-19.5913,18.0831-9.7381,32.1482-21.0475,31.7411-21.6767Z"/>
  <ellipse class="cls-3" cx="903.861" cy="386.6146" rx="3.6604" ry="4.6853"/>
  <ellipse class="cls-3" cx="654.8721" cy="242.9354" rx="3.4139" ry="42.7531" transform="translate(-22.2193 71.406) rotate(-6.1373)"/>
  <path class="cls-3" d="M870.3686,27.9791c-.4534,1.1761-14.768-5.5241-39.8248-9.761-25.5321-4.3173-41.7302-2.6128-41.777-3.9043-.0515-1.4201,19.4391-5.9736,41.777-2.3427,22.9072,3.7233,40.3381,14.6767,39.8248,16.0081Z"/>
  <ellipse class="cls-3" cx="775.1398" cy="16.4699" rx="5.5046" ry="1.3753"/>
  <path class="cls-3" d="M942.9361,91.8193c4.5339,14.3191,2.4246,26.379.8839,36.1611-7.8106,49.5892-7.8488,84.0504-8.7849,83.9445-.9097-.1029-.6124-32.6228,4.0996-69.5958,2.8367-22.2579,5.7484-34.1649.488-50.7084-5.7974-18.2324-17.4436-29.2742-16.8377-29.7223.641-.474,14.2959,11.4292,20.151,29.9208Z"/>
</svg>