<?xml version="1.0" encoding="UTF-8"?>
<svg id="Layer_1" xmlns="http://www.w3.org/2000/svg" version="1.1" viewBox="0 0 1621.4173 1264.252">
  <!-- Generator: Adobe Illustrator 29.4.0, SVG Export Plug-In . SVG Version: 2.1.0 Build 152)  -->
  <path d="M750.7368,481.934c1.6785,19.0742,3.357,38.1484,5.0354,57.2226,13.7585,7.9945,27.5169,15.989,41.2754,23.9835v287.8024c-.6666,7.0032,5.0217,12.3645,10.3188,11.9918,4.8965-.3445,9.5297-5.5932,8.8179-11.9918-2.439-96.059-4.878-192.1181-7.317-288.1771,14.4464-7.3699,28.8928-14.7399,43.3391-22.1098,2.8088-32.1402,5.6174-64.2805,8.4259-96.4208" style="fill: #f16a24;"/>
  <path d="M860.6324,444.2348c.0676-.7735.1352-1.5471.2028-2.3206.1256-1.4376.2512-2.8753.3769-4.3129.0617-.4841.1191-1.1329.1121-1.8973-.1394-15.2471-25.4707-31.1038-48.0295-33.9142-30.7253-3.8278-65.0968,15.451-66.4591,33.5395-.0626.8311-.0505,1.5937,0,2.2721.1085,1.233.217,2.466.3255,3.699,1.1919,13.5445,2.3838,27.0891,3.5758,40.6336" style="fill: #f16a24;"/>
  <path d="M808.8753,556.0041c13.3767-6.8242,26.7535-13.6485,40.1302-20.4728,2.6634-30.4767,5.3267-60.9535,7.9898-91.4302.1163-1.3312.2326-2.6624.349-3.9935.0571-.4482.1103-1.049.1038-1.7569-.1291-14.1182-23.5847-28.8008-44.4733-31.4031-28.4503-3.5444-60.2768,14.3069-61.5382,31.0561-.058.7695-.0468,1.4757,0,2.1039.1005,1.1417.2009,2.2834.3014,3.4251,2.6579,30.2035,5.3158,60.4071,7.9736,90.6107,12.7397,7.4026,25.4795,14.8051,38.2192,22.2077" style="fill: #fff;"/>
  <path d="M797.0476,563.1401c-.0041,96.677-.0082,193.354-.0122,290.031.0955,1.0322.4019,2.7911,1.5067,4.6359,0,0,1.578,2.635,4.4299,4.1269.9932.5195,2.1835.9163,2.9104.9597.0615.0036.9782.056.9782.056h0c-4.2989-3.8241-4.6284-5.1289-4.6284-5.129-.2653-1.0507-.1848-2.5549,1.1549-4.6494-2.1131-96.677-4.2263-193.354-6.3394-290.031Z" style="fill: #e25d2c;"/>
  <path d="M818.2643,730.7827c.0232.4105-6.2718,1.3967-13.1242,1.4175-7.1084.0216-13.599-.9993-13.5754-1.4175.0187-.3316,4.5376-.3308,13.5754-.3292,8.7372.0016,13.1057.0023,13.1242.3292Z" style="fill: #e76128;"/>
  <path d="M818.499,735.209c.0231.4124-6.3782,1.4075-13.3589,1.4175-7.1036.0102-13.5987-1.0015-13.5754-1.4175.0185-.3303,4.5374-.3299,13.5754-.3292,8.8937.0007,13.3405.0011,13.3589.3292Z" style="fill: #e76128;"/>
  <path d="M818.499,740.1772c.0234.4144-6.373,1.4181-13.3589,1.4175-6.9792-.0006-13.3704-1.0034-13.3471-1.4175.0186-.3291,4.4614-.3292,13.3471-.3292,8.8936,0,13.3403,0,13.3589.3292Z" style="fill: #e76128;"/>
  <path d="M818.499,744.7375c.0231.4124-6.3782,1.4075-13.3589,1.4175-7.1036.0102-13.5987-1.0015-13.5754-1.4175.0185-.3303,4.5374-.3299,13.5754-.3292,8.8937.0007,13.3405.0011,13.3589.3292Z" style="fill: #e76128;"/>
  <path d="M818.499,749.2978c.0231.4124-6.3782,1.4075-13.3589,1.4175-7.1036.0102-13.5987-1.0015-13.5754-1.4175.0185-.3303,4.5374-.3299,13.5754-.3292,8.8937.0007,13.3405.0011,13.3589.3292Z" style="fill: #e76128;"/>
  <path d="M818.499,753.7228c.0231.4124-6.3782,1.4076-13.3589,1.4176-7.1037.0102-13.5987-1.0016-13.5754-1.4176.0185-.3302,4.5374-.3298,13.5754-.3291,8.8937.0007,13.3405.0011,13.3589.3291Z" style="fill: #e76128;"/>
  <path d="M818.499,758.9206c.0231.4124-6.3782,1.4075-13.3589,1.4175-7.1037.0102-13.5987-1.0015-13.5754-1.4175.0185-.3302,4.5374-.3298,13.5754-.3291,8.8937.0007,13.3405.0011,13.3589.3291Z" style="fill: #e76128;"/>
  <path d="M818.499,764.1185c.0231.4124-6.3782,1.4075-13.3589,1.4175-7.1036.0102-13.5987-1.0015-13.5754-1.4175.0185-.3303,4.5374-.3299,13.5754-.3292,8.8937.0007,13.3405.0011,13.3589.3292Z" style="fill: #e76128;"/>
  <path d="M818.499,768.2678c.0231.4124-6.3782,1.4075-13.3589,1.4175-7.1036.0102-13.5987-1.0015-13.5754-1.4175.0185-.3303,4.5374-.3299,13.5754-.3292,8.8937.0007,13.3405.0011,13.3589.3292Z" style="fill: #e76128;"/>
  <path d="M818.499,772.4557c.0231.4124-6.3782,1.4075-13.3589,1.4175-7.1036.0102-13.5987-1.0015-13.5754-1.4175.0185-.3303,4.5374-.3299,13.5754-.3292,8.8937.0007,13.3405.0011,13.3589.3292Z" style="fill: #e76128;"/>
  <path d="M818.499,777.4275c.0231.4124-6.3782,1.4075-13.3589,1.4175-7.1036.0102-13.5987-1.0015-13.5754-1.4175.0185-.3303,4.5374-.3299,13.5754-.3292,8.8937.0007,13.3405.0011,13.3589.3292Z" style="fill: #e76128;"/>
  <path d="M818.3369,782.4886c.0197.4147-6.37,1.3195-13.1968,1.3282-6.9424.0089-13.4206-.9099-13.4008-1.3282.0199-.4211,6.6309-.4199,13.4008-.4186,6.7046.0013,13.1771.0025,13.1968.4186Z" style="fill: #e76128;"/>
  <path d="M818.2643,786.9103c.0232.4105-6.2717,1.3967-13.1242,1.4175-7.1085.0216-13.599-.9993-13.5754-1.4175.0187-.3315,4.5376-.3307,13.5754-.3291,8.7372.0016,13.1057.0023,13.1242.3291Z" style="fill: #e76128;"/>
  <path d="M818.2644,791.4213c.0232.4105-6.2718,1.3967-13.1243,1.4175-7.1085.0216-13.599-.9993-13.5754-1.4175.0187-.3315,4.5376-.3307,13.5754-.3291,8.7372.0016,13.1058.0023,13.1243.3291Z" style="fill: #e76128;"/>
  <path d="M818.499,795.9324c.0231.4124-6.3782,1.4075-13.3589,1.4175-7.1036.0102-13.5987-1.0015-13.5754-1.4175.0185-.3303,4.5374-.3299,13.5754-.3292,8.8937.0007,13.3405.0011,13.3589.3292Z" style="fill: #e76128;"/>
  <path d="M818.499,801.1168c.0231.4124-6.3782,1.4075-13.3589,1.4175-7.1036.0102-13.5987-1.0015-13.5754-1.4175.0185-.3303,4.5374-.3299,13.5754-.3292,8.8937.0007,13.3405.0011,13.3589.3292Z" style="fill: #e76128;"/>
  <path d="M818.499,805.4122c.0231.4124-6.3782,1.4075-13.3589,1.4175-7.1036.0102-13.5987-1.0015-13.5754-1.4175.0185-.3303,4.5374-.3299,13.5754-.3292,8.8937.0007,13.3405.0011,13.3589.3292Z" style="fill: #e76128;"/>
  <path d="M818.499,810.4326c.0231.4124-6.3782,1.4075-13.3589,1.4175-7.1037.0102-13.5987-1.0015-13.5754-1.4175.0185-.3302,4.5374-.3298,13.5754-.3291,8.8937.0007,13.3405.0011,13.3589.3291Z" style="fill: #e76128;"/>
  <path d="M818.499,815.1004c.0231.4124-6.3782,1.4075-13.3589,1.4175-7.1037.0102-13.5987-1.0015-13.5754-1.4175.0185-.3302,4.5374-.3298,13.5754-.3291,8.8937.0007,13.3405.0011,13.3589.3291Z" style="fill: #e76128;"/>
  <path d="M818.499,819.7683c.0231.4124-6.3782,1.4075-13.3589,1.4175-7.1037.0102-13.5987-1.0015-13.5754-1.4175.0185-.3302,4.5374-.3298,13.5754-.3291,8.8937.0007,13.3405.0011,13.3589.3291Z" style="fill: #e76128;"/>
  <path d="M818.499,824.4361c.0231.4124-6.3782,1.4075-13.3589,1.4175-7.1037.0102-13.5987-1.0015-13.5754-1.4175.0185-.3302,4.5374-.3298,13.5754-.3291,8.8937.0007,13.3405.0011,13.3589.3291Z" style="fill: #e76128;"/>
  <path d="M818.499,829.53c.0231.4124-6.3782,1.4075-13.3589,1.4175-7.1036.0102-13.5987-1.0015-13.5754-1.4175.0185-.3303,4.5374-.3299,13.5754-.3292,8.8937.0007,13.3405.0011,13.3589.3292Z" style="fill: #e76128;"/>
  <path d="M818.499,833.8385c.0231.4124-6.3782,1.4075-13.3589,1.4175-7.1036.0102-13.5987-1.0015-13.5754-1.4175.0185-.3303,4.5374-.3299,13.5754-.3292,8.8937.0007,13.3405.0011,13.3589.3292Z" style="fill: #e76128;"/>
  <path d="M818.499,838.8458c.0234.4143-6.3731,1.4179-13.3589,1.4175-6.9816-.0004-13.3748-1.0034-13.3515-1.4175.0186-.3292,4.4629-.3292,13.3515-.3292,8.8936,0,13.3403,0,13.3589.3292Z" style="fill: #e76128;"/>
  <path d="M818.499,843.0379c.0231.4124-6.3782,1.4075-13.3589,1.4175-7.1036.0102-13.5987-1.0015-13.5754-1.4175.0185-.3303,4.5374-.3299,13.5754-.3292,8.8937.0007,13.3405.0011,13.3589.3292Z" style="fill: #e76128;"/>
  <path d="M818.499,847.8768c.0231.4124-6.3782,1.4075-13.3589,1.4175-7.1036.0102-13.5987-1.0015-13.5754-1.4175.0185-.3303,4.5374-.3299,13.5754-.3292,8.8937.0007,13.3405.0011,13.3589.3292Z" style="fill: #e76128;"/>
  <ellipse cx="805.0318" cy="730.7827" rx="13.4672" ry=".8734" style="fill: #d65428;"/>
  <ellipse cx="805.0318" cy="735.209" rx="13.4672" ry=".8734" style="fill: #d65428;"/>
  <path d="M818.499,740.1772c0,.4823-6.0295.8733-13.4672.8733s-13.4672-.391-13.4672-.8733,6.0295-.8734,13.4672-.8734,13.4672.3911,13.4672.8734Z" style="fill: #d65428;"/>
  <path d="M818.499,744.7375c0,.4823-6.0295.8733-13.4672.8733s-13.4672-.391-13.4672-.8733,6.0295-.8734,13.4672-.8734,13.4672.3911,13.4672.8734Z" style="fill: #d65428;"/>
  <ellipse cx="805.0318" cy="749.2978" rx="13.4672" ry=".8734" style="fill: #d65428;"/>
  <ellipse cx="805.0318" cy="753.7228" rx="13.4672" ry=".8734" style="fill: #d65428;"/>
  <ellipse cx="805.0318" cy="758.9206" rx="13.4672" ry=".8734" style="fill: #d65428;"/>
  <ellipse cx="805.0318" cy="764.1184" rx="13.4672" ry=".8734" style="fill: #d65428;"/>
  <ellipse cx="805.0318" cy="768.2678" rx="13.4672" ry=".8734" style="fill: #d65428;"/>
  <ellipse cx="805.0318" cy="772.4557" rx="13.4672" ry=".8734" style="fill: #d65428;"/>
  <ellipse cx="805.0318" cy="777.4275" rx="13.4672" ry=".8734" style="fill: #d65428;"/>
  <ellipse cx="805.0318" cy="782.3992" rx="13.4672" ry=".8734" style="fill: #d65428;"/>
  <ellipse cx="805.0318" cy="786.9103" rx="13.4672" ry=".8734" style="fill: #d65428;"/>
  <ellipse cx="805.0318" cy="791.4213" rx="13.4672" ry=".8734" style="fill: #d65428;"/>
  <ellipse cx="805.0318" cy="795.9324" rx="13.4672" ry=".8734" style="fill: #d65428;"/>
  <ellipse cx="805.0318" cy="801.1168" rx="13.4672" ry=".8734" style="fill: #d65428;"/>
  <ellipse cx="805.0318" cy="805.4122" rx="13.4672" ry=".8734" style="fill: #d65428;"/>
  <ellipse cx="805.0318" cy="810.4326" rx="13.4672" ry=".8734" style="fill: #d65428;"/>
  <ellipse cx="805.0318" cy="815.1005" rx="13.4672" ry=".8734" style="fill: #d65428;"/>
  <ellipse cx="805.0318" cy="819.7683" rx="13.4672" ry=".8734" style="fill: #d65428;"/>
  <ellipse cx="805.0318" cy="824.4361" rx="13.4672" ry=".8734" style="fill: #d65428;"/>
  <ellipse cx="805.0318" cy="829.53" rx="13.4672" ry=".8734" style="fill: #d65428;"/>
  <ellipse cx="805.0318" cy="833.8385" rx="13.4672" ry=".8734" style="fill: #d65428;"/>
  <ellipse cx="805.0318" cy="838.8458" rx="13.4672" ry=".8734" style="fill: #d65428;"/>
  <ellipse cx="805.0318" cy="843.0379" rx="13.4672" ry=".8734" style="fill: #d65428;"/>
  <ellipse cx="805.0318" cy="847.8768" rx="13.4672" ry=".8734" style="fill: #d65428;"/>
  <line x1="753.0729" y1="430.744" x2="852.8423" y2="500.5858" style="fill: #f16a24; stroke: #f16b24; stroke-miterlimit: 10; stroke-width: 3.0656px;"/>
  <line x1="750.3928" y1="437.632" x2="852.5682" y2="509.406" style="fill: #f16a24; stroke: #f16b24; stroke-miterlimit: 10; stroke-width: 3.0656px;"/>
  <line x1="748.6123" y1="445.0277" x2="851.4105" y2="517.2443" style="fill: #f16a24; stroke: #f16b24; stroke-miterlimit: 10; stroke-width: 3.0656px;"/>
  <line x1="749.4784" y1="454.5428" x2="851.6539" y2="526.3168" style="fill: #f16a24; stroke: #f16b24; stroke-miterlimit: 10; stroke-width: 3.0656px;"/>
  <line x1="750.8918" y1="464.8461" x2="850.6612" y2="534.6879" style="fill: #f16a24; stroke: #f16b24; stroke-miterlimit: 10; stroke-width: 3.0656px;"/>
  <line x1="751.5427" y1="474.074" x2="846.4375" y2="540.7336" style="fill: #f16a24; stroke: #f16b24; stroke-miterlimit: 10; stroke-width: 3.0656px;"/>
  <line x1="754.2384" y1="485.1169" x2="839.528" y2="544.5264" style="fill: #f16a24; stroke: #f16b24; stroke-miterlimit: 10; stroke-width: 3.0656px;"/>
  <line x1="754.5848" y1="493.764" x2="832.9123" y2="548.7858" style="fill: #f16a24; stroke: #f16b24; stroke-miterlimit: 10; stroke-width: 3.0656px;"/>
  <line x1="773.6935" y1="409.3192" x2="855.8577" y2="466.8368" style="fill: #f16a24; stroke: #f16b24; stroke-miterlimit: 10; stroke-width: 3.0656px;"/>
  <line x1="767.795" y1="413.9758" x2="855.1903" y2="475.3674" style="fill: #f16a24; stroke: #f16b24; stroke-miterlimit: 10; stroke-width: 3.0656px;"/>
  <line x1="761.5292" y1="418.2208" x2="855.8841" y2="484.5011" style="fill: #f16a24; stroke: #f16b24; stroke-miterlimit: 10; stroke-width: 3.0656px;"/>
  <line x1="757.9797" y1="424.6341" x2="854.9836" y2="492.8331" style="fill: #f16a24; stroke: #f16b24; stroke-miterlimit: 10; stroke-width: 3.0656px;"/>
  <line x1="818.2586" y1="406.1339" x2="858.4482" y2="435.1102" style="fill: #f16a24; stroke: #f16b24; stroke-miterlimit: 10; stroke-width: 3.0656px;"/>
  <line x1="804.2524" y1="405.1711" x2="857.9976" y2="443.035" style="fill: #f16a24; stroke: #f16b24; stroke-miterlimit: 10; stroke-width: 3.0656px;"/>
  <line x1="792.2304" y1="405.3725" x2="858.409" y2="451.8603" style="fill: #f16a24; stroke: #f16b24; stroke-miterlimit: 10; stroke-width: 3.0656px;"/>
  <line x1="785.5224" y1="409.2573" x2="857.8625" y2="460.383" style="fill: #f16a24; stroke: #f16b24; stroke-miterlimit: 10; stroke-width: 3.0656px;"/>
  <line x1="754.3386" y1="502.571" x2="825.5211" y2="552.4011" style="fill: #f16a24; stroke: #f16b24; stroke-miterlimit: 10; stroke-width: 3.0656px;"/>
  <line x1="754.8973" y1="511.7929" x2="816.6703" y2="554.9034" style="fill: #f16a24; stroke: #f16b24; stroke-miterlimit: 10; stroke-width: 3.0656px;"/>
  <line x1="756.099" y1="521.2835" x2="809.8529" y2="558.8906" style="fill: #f16a24; stroke: #f16b24; stroke-miterlimit: 10; stroke-width: 3.0656px;"/>
  <line x1="857.9915" y1="427.9384" x2="757.7462" y2="497.3048" style="fill: #f16a24; stroke: #f16b24; stroke-miterlimit: 10; stroke-width: 3.1141px;"/>
  <line x1="860.3484" y1="435.1447" x2="758.1656" y2="506.2701" style="fill: #f16a24; stroke: #f16b24; stroke-miterlimit: 10; stroke-width: 3.1141px;"/>
  <line x1="858.761" y1="444.4146" x2="758.9882" y2="514.5524" style="fill: #f16a24; stroke: #f16b24; stroke-miterlimit: 10; stroke-width: 3.1141px;"/>
  <line x1="858.5916" y1="454.5574" x2="759.3646" y2="523.4652" style="fill: #f16a24; stroke: #f16b24; stroke-miterlimit: 10; stroke-width: 3.1141px;"/>
  <line x1="855.9586" y1="465.9363" x2="758.6476" y2="534.4965" style="fill: #f16a24; stroke: #f16b24; stroke-miterlimit: 10; stroke-width: 3.1141px;"/>
  <line x1="854.9999" y1="475.6218" x2="760.9262" y2="540.9509" style="fill: #f16a24; stroke: #f16b24; stroke-miterlimit: 10; stroke-width: 3.1141px;"/>
  <line x1="855.8354" y1="475.0415" x2="854.9999" y2="475.6218" style="fill: #f16a24; stroke: #f16b24; stroke-miterlimit: 10; stroke-width: 3.1141px;"/>
  <line x1="855.5796" y1="484.0994" x2="770.1117" y2="543.4523" style="fill: #f16a24; stroke: #f16b24; stroke-miterlimit: 10; stroke-width: 3.1141px;"/>
  <line x1="855.2442" y1="493.5099" x2="776.113" y2="548.4323" style="fill: #f16a24; stroke: #f16b24; stroke-miterlimit: 10; stroke-width: 3.1141px;"/>
  <line x1="830.9454" y1="409.8533" x2="750.1382" y2="465.8961" style="fill: #f16a24; stroke: #f16b24; stroke-miterlimit: 10; stroke-width: 3.1141px;"/>
  <line x1="838.234" y1="413.8159" x2="751.6197" y2="473.9649" style="fill: #f16a24; stroke: #f16b24; stroke-miterlimit: 10; stroke-width: 3.1141px;"/>
  <line x1="845.032" y1="417.9753" x2="753.3686" y2="481.9802" style="fill: #f16a24; stroke: #f16b24; stroke-miterlimit: 10; stroke-width: 3.1141px;"/>
  <line x1="852.9089" y1="421.6528" x2="754.051" y2="490.3043" style="fill: #f16a24; stroke: #f16b24; stroke-miterlimit: 10; stroke-width: 3.1141px;"/>
  <line x1="788.0359" y1="406.4862" x2="753.4437" y2="430.4229" style="fill: #f16a24; stroke: #f16b24; stroke-miterlimit: 10; stroke-width: 3.1141px;"/>
  <line x1="799.5931" y1="405.3047" x2="749.0556" y2="440.4003" style="fill: #f16a24; stroke: #f16b24; stroke-miterlimit: 10; stroke-width: 3.1141px;"/>
  <line x1="812.3387" y1="405.3338" x2="749.3582" y2="449.0704" style="fill: #f16a24; stroke: #f16b24; stroke-miterlimit: 10; stroke-width: 3.1141px;"/>
  <line x1="824.2537" y1="406.207" x2="749.8349" y2="457.8869" style="fill: #f16a24; stroke: #f16b24; stroke-miterlimit: 10; stroke-width: 3.1141px;"/>
  <line x1="854.2924" y1="503.3548" x2="781.9574" y2="553.4083" style="fill: #f16a24; stroke: #f16b24; stroke-miterlimit: 10; stroke-width: 3.1141px;"/>
  <line x1="853.5208" y1="513.0202" x2="790.3388" y2="556.8442" style="fill: #f16a24; stroke: #f16b24; stroke-miterlimit: 10; stroke-width: 3.1141px;"/>
  <line x1="851.9574" y1="522.9337" x2="795.8847" y2="560.3901" style="fill: #f16a24; stroke: #f16b24; stroke-miterlimit: 10; stroke-width: 3.1141px;"/>
  <path d="M808.2892,656.7552c-.1668,7.7048-.4587,21.1917-.8661,21.1928-1.1458.0032-2.843-106.6536-1.7323-106.6847.5576-.0156,1.7934,26.8467,2.3097,44.1156.6606,22.0944.3896,36.7165.2887,41.3763Z" style="fill: #f9ab8c;"/>
  <ellipse cx="806.1238" cy="692.5811" rx="1.7323" ry="5.4063" style="fill: #f9ab8c;"/>
  <ellipse cx="807.3148" cy="730.6056" rx="3.6811" ry=".2163" style="fill: #f9ab8c;"/>
  <ellipse cx="802.7134" cy="735.2911" rx=".4872" ry=".3965" style="fill: #f9ab8c;"/>
  <ellipse cx="799.8083" cy="740.1568" rx="3.645" ry=".2883" style="fill: #f9ab8c;"/>
  <ellipse cx="811.6274" cy="744.7161" rx="2.3999" ry=".1982" style="fill: #f9ab8c;"/>
  <ellipse cx="802.2984" cy="744.7882" rx=".4692" ry=".2703" style="fill: #f9ab8c;"/>
  <ellipse cx="806.5028" cy="749.3925" rx="3.1397" ry=".2433" style="fill: #f9ab8c;"/>
  <ellipse cx="810.7252" cy="749.1493" rx=".2707" ry=".2163" style="fill: #f9ab8c;"/>
  <ellipse cx="802.551" cy="753.9339" rx="5.684" ry=".2433" style="fill: #f9ab8c;"/>
  <ellipse cx="811.4195" cy="753.7424" rx="1.5605" ry=".3222" style="fill: #f9ab8c;"/>
  <ellipse cx="800.1692" cy="759.0969" rx="3.0315" ry=".2163" style="fill: #f9ab8c;"/>
  <ellipse cx="812.1597" cy="758.9347" rx="3.9247" ry=".2703" style="fill: #f9ab8c;"/>
  <ellipse cx="805.9614" cy="763.9085" rx="5.8464" ry=".2703" style="fill: #f9ab8c;"/>
  <ellipse cx="815.1371" cy="764.1518" rx="1.0556" ry=".2433" style="fill: #f9ab8c;"/>
  <ellipse cx="803.5254" cy="768.1795" rx="7.4163" ry=".3784" style="fill: #f9ab8c;"/>
  <ellipse cx="799.9256" cy="772.2613" rx="1.6511" ry=".4055" style="fill: #f9ab8c;"/>
  <ellipse cx="808.7223" cy="777.2351" rx="4.8179" ry=".3514" style="fill: #f9ab8c;"/>
  <ellipse cx="796.6505" cy="777.3162" rx=".9744" ry=".1622" style="fill: #f9ab8c;"/>
  <ellipse cx="803.9585" cy="782.4522" rx="4.5472" ry=".3244" style="fill: #f9ab8c;"/>
  <ellipse cx="812.7281" cy="782.263" rx=".9203" ry=".2973" style="fill: #f9ab8c;"/>
  <ellipse cx="807.8561" cy="787.0656" rx="2.1112" ry=".2703" style="fill: #f9ab8c;"/>
  <ellipse cx="803.363" cy="791.6339" rx="4.1142" ry=".3514" style="fill: #f9ab8c;"/>
  <ellipse cx="797.7331" cy="791.4177" rx=".6496" ry=".2433" style="fill: #f9ab8c;"/>
  <ellipse cx="809.3448" cy="795.959" rx="5.0074" ry=".3514" style="fill: #f9ab8c;"/>
  <ellipse cx="816.5175" cy="795.8509" rx=".4872" ry=".0811" style="fill: #f9ab8c;"/>
  <ellipse cx="800.088" cy="795.8509" rx="1.4345" ry=".2433" style="fill: #f9ab8c;"/>
  <ellipse cx="798.8699" cy="800.9328" rx="2.2736" ry=".3514" style="fill: #f9ab8c;"/>
  <ellipse cx="810.1839" cy="800.8247" rx="4.439" ry=".4595" style="fill: #f9ab8c;"/>
  <ellipse cx="807.0802" cy="805.6994" rx="7.5426" ry=".2163" style="fill: #f9ab8c;"/>
  <ellipse cx="797.3001" cy="805.5732" rx=".7218" ry=".1982" style="fill: #f9ab8c;"/>
  <ellipse cx="803.5254" cy="810.3488" rx="7.7772" ry=".4685" style="fill: #f9ab8c;"/>
  <ellipse cx="813.7386" cy="810.2227" rx=".7398" ry=".2343" style="fill: #f9ab8c;"/>
  <ellipse cx="805.6006" cy="815.1244" rx="6.7847" ry=".4505" style="fill: #f9ab8c;"/>
  <ellipse cx="799.5376" cy="819.7378" rx="2.9232" ry=".4505" style="fill: #f9ab8c;"/>
  <ellipse cx="808.4335" cy="819.3954" rx="1.4255" ry=".1802" style="fill: #f9ab8c;"/>
  <ellipse cx="807.9283" cy="824.4233" rx="7.6689" ry=".4145" style="fill: #f9ab8c;"/>
  <ellipse cx="797.2099" cy="824.4413" rx=".5594" ry=".2883" style="fill: #f9ab8c;"/>
  <ellipse cx="801.324" cy="787.1737" rx="1.6781" ry=".2163" style="fill: #f9ab8c;"/>
  <ellipse cx="812.7281" cy="772.4055" rx="3.8976" ry=".2973" style="fill: #f9ab8c;"/>
  <ellipse cx="807.6667" cy="772.4865" rx=".1353" ry=".1081" style="fill: #f9ab8c;"/>
  <ellipse cx="806.593" cy="847.6885" rx="5.4855" ry=".3244" style="fill: #f9ab8c;"/>
  <ellipse cx="799.1587" cy="847.6524" rx=".7218" ry=".1442" style="fill: #f9ab8c;"/>
  <ellipse cx="801.4323" cy="842.7507" rx="4.2946" ry=".2163" style="fill: #f9ab8c;"/>
  <ellipse cx="808.8035" cy="842.994" rx="1.624" ry=".1352" style="fill: #f9ab8c;"/>
  <ellipse cx="812.4033" cy="838.9528" rx="3.7082" ry=".2568" style="fill: #f9ab8c;"/>
  <ellipse cx="803.2006" cy="838.9528" rx="3.7623" ry=".392" style="fill: #f9ab8c;"/>
  <ellipse cx="797.8504" cy="838.8672" rx=".6857" ry=".2163" style="fill: #f9ab8c;"/>
  <ellipse cx="796.876" cy="833.9294" rx="2.3097" ry=".2523" style="fill: #f9ab8c;"/>
  <ellipse cx="808.4606" cy="833.569" rx="1.5518" ry=".3244" style="fill: #f9ab8c;"/>
  <ellipse cx="805.4291" cy="829.2799" rx="3.9337" ry=".4325" style="fill: #f9ab8c;"/>
  <ellipse cx="813.2965" cy="829.5322" rx="1.0466" ry=".1081" style="fill: #f9ab8c;"/>
  <ellipse cx="796.1542" cy="829.352" rx="1.8045" ry=".0721" style="fill: #f9ab8c;"/>
  <ellipse cx="805.393" cy="857.6811" rx="3.5364" ry="4.8301" transform="translate(-192.1416 233.8226) rotate(-14.7789)" style="fill: #f9ab8c;"/>
  <ellipse cx="813.0439" cy="855.879" rx=".5774" ry="1.0092" style="fill: #f9ab8c;"/>
  <path d="M840.3938,543.2212c-.1412-.218-4.953,3.1021-12.3688,6.8663-11.9551,6.0684-20.3837,8.0659-20.2862,8.3718.1051.3295,10.0719-1.4001,20.9194-7.234,6.6858-3.5958,11.8861-7.7717,11.7356-8.0041Z" style="fill: #f9ab8c;"/>
  <ellipse cx="845.1497" cy="541.4717" rx="1.3533" ry="1.73" style="fill: #f9ab8c;"/>
  <ellipse cx="753.0916" cy="488.4186" rx="1.2622" ry="15.7867" transform="translate(-47.9582 83.4261) rotate(-6.1454)" style="fill: #f9ab8c;"/>
  <path d="M832.7666,409.0467c-.1676.4343-5.4601-2.0397-14.7243-3.6042-9.4399-1.5942-15.4288-.9648-15.4461-1.4417-.019-.5244,7.1872-2.2057,15.4461-.865,8.4694,1.3748,14.9141,5.4193,14.7243,5.9109Z" style="fill: #f9ab8c;"/>
  <ellipse cx="797.5579" cy="404.7969" rx="2.0352" ry=".5078" style="fill: #f9ab8c;"/>
  <path d="M859.5968,432.6194c1.6763,5.2873.8965,9.7404.3268,13.3524-2.8878,18.3107-2.9019,31.0353-3.248,30.9962-.3364-.038-.2264-12.0459,1.5157-25.698,1.0488-8.2187,2.1253-12.6153.1804-18.7239-2.1435-6.7323-6.4494-10.8094-6.2254-10.9748.237-.175,5.2856,4.2202,7.4504,11.0481Z" style="fill: #f9ab8c;"/>
</svg>