<?xml version="1.0" encoding="UTF-8"?>
<svg id="Layer_1" data-name="Layer 1" xmlns="http://www.w3.org/2000/svg" viewBox="0 0 1621.4173 1264.252">
  <defs>
    <style>
      .cls-1 {
        fill: #6a818b;
      }

      .cls-2 {
        fill: #ababab;
      }

      .cls-3 {
        fill: #b5c0d2;
      }

      .cls-4 {
        fill: #475564;
      }

      .cls-5 {
        fill: #1c303c;
      }

      .cls-6 {
        fill: #566475;
      }

      .cls-7 {
        fill: #9facc8;
      }

      .cls-8 {
        fill: #446370;
      }

      .cls-9 {
        fill: #f3f1ec;
      }

      .cls-10 {
        fill: #2a424e;
      }

      .cls-11 {
        fill: #fff;
      }

      .cls-12 {
        fill: #1a2431;
      }

      .cls-13 {
        fill: #495866;
      }

      .cls-14 {
        fill: #2e3b4d;
      }

      .cls-15 {
        fill: #54616e;
      }

      .cls-16 {
        fill: #566675;
      }

      .cls-17 {
        fill: #c8c7c6;
      }

      .cls-18 {
        fill: #7d8c9d;
      }

      .cls-19 {
        fill: #232f40;
      }

      .cls-20 {
        fill: #374454;
      }

      .cls-21 {
        fill: #f0efef;
      }

      .cls-22 {
        fill: #b7b7b8;
      }
    </style>
  </defs>
  <g>
    <path class="cls-5" d="M877.6664,1025.3136c17.2285,22.5621,47.6631,33.5795,71.278,26.436,20.1935-6.1085,20.6553-21.0364,43.8001-44.5874,46.3241-47.1372,99.5121-43.3411,100.6611-67.0442.5939-12.252-13.6228-13.14-32.7163-43.5377-18.6983-29.7685-13.9915-43.13-24.9885-47.4074-20.1885-7.8527-37.2673,36.7054-95.8813,64.9349-36.6669,17.6594-52.8039,11.2131-66.3284,30.3685-14.7651,20.9125-14.8374,55.9389,4.1752,80.8374Z"/>
    <path class="cls-4" d="M1030.3321,801.171c-24.9257,33.1143-50.8272,97.2677-20.4145,135.0403,33.5002,41.6073,110.5187,20.391,145.1853,4.3549,50.3716-23.301,95.8995-74.7868,85.4935-105.2308-4.7015-13.7548-17.2534-12.7775-34.5697-37.0619-19.432-27.2516-13.2203-41.9383-25.2872-52.7871-26.3732-23.7112-108.1745-.4229-150.4075,55.6847Z"/>
    <path class="cls-19" d="M1192.2117,699.6822c-21.4033,18.5302-10.8641,67.016,9.8223,95.9664,19.7529,27.644,60.755,54.2663,85.9678,40.2205,26.0517-14.5131,27.6408-68.2089,5.6401-101.7322-23.7858-36.2434-78.62-54.2031-101.4303-34.4548Z"/>
    <circle class="cls-13" cx="1282.9221" cy="790.2273" r="35.0933"/>
    <circle class="cls-18" cx="1296.7973" cy="780.7729" r="13.1493"/>
    <circle class="cls-13" cx="1231.7791" cy="722.3223" r="35.0933"/>
    <circle class="cls-18" cx="1245.6543" cy="712.8679" r="13.1493"/>
    <path class="cls-19" d="M1220.8823,890.1232c19.4794,8.4993,38.9589,16.9985,58.4383,25.4977,40.628-22.3827,81.2559-44.7654,121.8839-67.1481,6.2891-1.7864,12.9725,1.5263,15.3503,7.5759,2.4003,6.1069-.3153,13.1488-6.2313,16.0747-42.5334,23.2357-85.0666,46.4715-127.6,69.7072-21.8094-5.6773-43.6187-11.3547-65.4282-17.032-1.2877-3.262-3.5675-10.3415-2.282-19.2732,1.0479-7.281,4.0016-12.5734,5.869-15.4023Z"/>
    <path class="cls-19" d="M1120.5489,740.2036c-1.4143-21.2057-2.8285-42.4116-4.2428-63.6173,34.7987-30.6704,69.5973-61.3406,104.396-92.011,3.8071-5.3151,2.9487-12.7248-1.9411-17.0076-4.936-4.3233-12.4814-4.148-17.2348.4307-36.2456,32.1752-72.4911,64.3503-108.7367,96.5255-2.0292,22.4447-4.0582,44.8894-6.0874,67.3341,2.6347,2.3146,8.5268,6.8533,17.3673,8.6626,7.2066,1.475,13.1859.4842,16.4795-.317Z"/>
    <path class="cls-19" d="M1208.1324,1005.5702l41.5334,54.2997c-8.5725,11.7128-20.5772,31.0908-27.9829,57.5765-6.8951,24.6591-7.1471,45.9787-6.2229,60.0176-.7247,5.226-4.5725,9.3498-9.3153,10.2059-5.7397,1.036-11.8312-2.8872-13.4024-9.2592-1.2769-14.8419-1.4853-40.3401,8.8318-69.3688,7.5235-21.1683,18.0372-36.8798,26.1599-47.1078-11.0525-12.5475-22.1052-25.0949-33.1577-37.6423-6.081-3.8691-8.2928-10.8872-6.1906-15.4801,2.569-5.6128,12.0467-8.6217,19.7467-3.2414Z"/>
    <path class="cls-19" d="M1011.9784,724.031l-37.0637-57.4436c-16.7308,2.7971-38.6056,4.8465-64.0405,3.0389-23.182-1.6475-42.8829-6.0414-58.194-10.5972-5.1633-1.0845-10.345,1.1429-12.754,5.3171-2.9152,5.0516-1.2821,12.1107,4.1837,15.7434,17.443,4.3731,39.3628,8.2984,64.7944,9.2951,21.6307.8477,40.7727-.6204,56.6541-2.8543,8.0728,14.6434,16.1454,29.2868,24.2182,43.9301,1.5858,7.0309,7.4431,11.4848,12.4762,11.0589,6.1508-.5205,12.1863-8.4231,9.7256-17.4886Z"/>
    <path class="cls-17" d="M1223.1382,887.0227c3.1358,17.4487,4.1269,33.7307,3.7161,48.6946-3.8626,140.6963-133.6239,236.2765-170.3259,261.566-8.596-1.8879-65.7295-15.2993-86.2633-62.089-21.1375-48.1652,8.9277-111.7216,52.2377-148.6341,10.9826-9.3604,22.817-17.0075,34.8841-22.2558,46.5159-20.2311,71.5256-12.6669,108.2459-28.9524,15.2531-6.7647,36.6131-19.9229,57.5055-48.3293Z"/>
    <path class="cls-22" d="M1040.1704,973.323h0c-6.1193,3.048-6.2624,3.1192-6.2986,3.1373-6.0222,3.0085-15.5401,9.4306-18.6872,11.7102-47.5964,34.478-72.1335,77.8501-72.1337,77.8503-10.0689,17.7979-18.9929,33.3235-22.2023,55.7028-9.125,63.6302,33.1505,132.1844,55.8186,129.2263,3.0508-.3981,5.609-2.0736,7.7131-4.1725,24.5007-16.8155,49.0012-33.631,73.5019-50.4465-5.9541-1.2007-63.9108-13.827-84.4629-63.9817-21.8403-53.2982,15.4916-105.6397,25.1647-119.1686,14.3454-20.0636,30.7173-32.6826,41.5863-39.8577Z"/>
    <path class="cls-17" d="M1129.5647,738.1068c-15.3495-8.4314-30.3035-14.5826-44.506-19.0531-133.7295-42.094-265.2874,44.5252-303.7443,71.8821-1.1289,8.7281-7.82,67.0319,29.2743,102.1734,38.1848,36.1746,108.163,29.3633,157.5428,1.0804,12.5218-7.1721,23.7192-15.725,32.7376-25.3076,34.6663-36.8352,36.1917-62.774,63.8386-92.0871,11.4958-12.1886,31.0838-28.1251,64.8569-38.6881Z"/>
    <path class="cls-22" d="M980.9447,886.6545c-21.864,18.385-60.4993,45.2376-114.4536,55.4495-18.5317,3.5075-36.8823,6.7952-59.9289,2.0661-62.9692-12.9211-113.1974-75.8816-102.7509-96.2154,1.406-2.7367,3.8476-4.5779,6.5341-5.8487,24.1077-17.3742,48.2153-34.7484,72.323-52.1227-.8826,6.0095-8.5908,64.8226,31.6643,101.1188,42.3115,38.1503,104.0542,21.167,120.6601,16.5994,20.186-5.5525,35.669-14.213,45.9519-21.047Z"/>
    <ellipse class="cls-6" cx="1288.2357" cy="732.6296" rx="1.8785" ry="7.5139" transform="translate(-186.9467 874.5248) rotate(-35.1215)"/>
    <ellipse class="cls-3" cx="1297.0342" cy="785.0429" rx="6.3186" ry="6.233" transform="translate(-215.4988 889.1294) rotate(-35.1215)"/>
    <ellipse class="cls-3" cx="1243.0072" cy="708.8251" rx="6.3186" ry="6.233" transform="translate(-181.4863 844.1703) rotate(-35.1215)"/>
    <ellipse class="cls-3" cx="1291.5865" cy="775.5908" rx="1.7931" ry="1.8571" transform="translate(-211.0528 884.2743) rotate(-35.1215)"/>
    <ellipse class="cls-3" cx="1244.1588" cy="719.6087" rx="1.7931" ry="1.8571" transform="translate(-187.4805 846.7962) rotate(-35.1215)"/>
    <ellipse class="cls-14" cx="1248.7873" cy="816.9138" rx="6.305" ry="10.0755" transform="translate(-242.6187 867.175) rotate(-35.1215)"/>
    <ellipse class="cls-14" cx="1242.9911" cy="803.1845" rx="2.0113" ry="3.2141" transform="translate(-235.7753 861.3407) rotate(-35.1215)"/>
    <ellipse class="cls-14" cx="1239.2009" cy="807.5203" rx=".9615" ry="1.5365" transform="translate(-238.9598 859.9496) rotate(-35.1215)"/>
    <ellipse class="cls-15" cx="1022.0406" cy="888.3433" rx="10.7096" ry="17.1141" transform="translate(-83.9799 107.037) rotate(-5.7589)"/>
    <ellipse class="cls-15" cx="1024.8949" cy="863.191" rx="3.4164" ry="5.4595" transform="translate(-81.4416 107.1965) rotate(-5.7589)"/>
    <ellipse class="cls-15" cx="1015.6727" cy="866.4529" rx="1.6332" ry="2.6099" transform="translate(-81.8155 106.2876) rotate(-5.7589)"/>
    <ellipse class="cls-2" cx="732.8193" cy="855.5688" rx="23.3148" ry="14.5899" transform="translate(-350.2748 1165.2936) rotate(-65.3776)"/>
    <ellipse class="cls-2" cx="753.5035" cy="827.9755" rx="7.4375" ry="4.6543" transform="translate(-313.1239 1168.0002) rotate(-65.3776)"/>
    <ellipse class="cls-2" cx="740.4178" cy="825.4551" rx="3.5555" ry="2.225" transform="translate(-318.4664 1154.634) rotate(-65.3776)"/>
    <path class="cls-20" d="M1226.2415,911.4336c2.2419-1.0623,5.5872-2.2021,9.3271-1.5671,6.0223,1.0226,9.4207,6.074,12.0092,8.9112,4.3404,4.7574,12.367,9.861,28.5787,10.7889h0s25.2189-13.3482,48.5277-26.4279c52.5348-29.4797,54.5485-34.207,67.2706-34.7197,5.2231-.2105,13.6951.1573,17.1893-5.0963,2.7658-4.1586,1.2676-10.1105-.5867-14.724.6942.2077,1.6829.556,2.7887,1.1432,4.5423,2.412,7.2304,6.8203,8.0119,9.7718,1.7407,6.5742-3.1785,14.407-6.2313,16.0747-42.5334,23.2357-85.0666,46.4715-127.6,69.7072-19.5358-5.9571-39.0717-11.9141-58.6074-17.8712-.1377-2.3206-.2602-4.6708-.3657-7.0502-.1343-3.0248-.2375-6.0056-.3122-8.9407Z"/>
    <path class="cls-16" d="M1362.6861,894.3676c5.5887-4.7971,4.6405-8.709,9.4374-11.7444,5.5545-3.5147,13.8263-2.6995,14.6132-.3777,1.2492,3.6859-15.8914,12.5689-22.9458,16.2248-14.0494,7.281-28.4653,12.3107-28.9037,11.3505-.3536-.7745,8.16-5.9397,15.9715-9.6251,7.2228-3.4077,8.6454-3.0969,11.8274-5.8281Z"/>
    <path class="cls-16" d="M1415.3375,856.0295c.1849-.1108,2.1454,1.6473,2.3631,4.1282.2174,2.4773-1.4015,4.5555-1.5915,4.4826-.1644-.0631.827-1.706.6787-4.1277-.1651-2.6974-1.623-4.3797-1.4504-4.4831Z"/>
    <ellipse class="cls-16" cx="1414.2067" cy="854.7338" rx=".5089" ry="1.3448" transform="translate(-234.2597 969.2285) rotate(-35.1215)"/>
    <ellipse class="cls-16" cx="1235.0853" cy="917.3051" rx="2.9458" ry="5.2512" transform="translate(-302.8697 877.5699) rotate(-35.1215)"/>
    <ellipse class="cls-16" cx="1237.2603" cy="923.2915" rx="1.2808" ry=".8325" transform="translate(-305.9177 879.9111) rotate(-35.1215)"/>
    <ellipse class="cls-16" cx="1235.1483" cy="922.515" rx=".5123" ry=".8965" transform="translate(-305.8555 878.5547) rotate(-35.1215)"/>
    <path class="cls-10" d="M873.8695,967.1196c2.6027-1.4818.7777,24.6147,19.8677,49.7102,16.5192,21.7161,37.812,28.3699,35.6685,30.2064-2.3125,1.9814-31.076-2.353-46.9283-21.9062-18.4729-22.7856-11.4371-56.3996-8.6078-58.0104Z"/>
    <path class="cls-10" d="M1039.3776,973.5822c.6968-.9403-26.3758-8.0563-42.878-33.2277-16.7603-25.5651-12.391-54.1565-13.5138-53.879-1.1726.2898-7.7459,31.9292,8.8596,57.1322,16.2975,24.7356,46.8061,30.9542,47.5322,29.9745Z"/>
    <path class="cls-10" d="M1020.1035,984.7051c.7031-.9345-26.1158-7.6376-42.2254-32.2536-16.3616-25.0011-11.6935-53.2257-12.8123-52.9394-1.1685.299-8.0612,31.5523,8.1506,56.1983,15.9111,24.189,46.1545,29.9684,46.8871,28.9947Z"/>
    <path class="cls-10" d="M999.5796,1000.2361c.5415-1.0378-26.2865-8.1522-42.7236-32.9983-16.8825-25.5194-12.3577-53.9552-13.5138-53.879-1.2158.0802-8.1097,31.6569,8.8596,57.1322,16.4586,24.7088,46.8103,30.833,47.3778,29.7452Z"/>
    <path class="cls-10" d="M981.9047,1016.9536c.6854-.9596-27.1564-9.1172-44.7045-35.7783-17.8225-27.0782-14.1525-56.7217-15.2913-56.4639-1.1894.2693-7.0256,33.0248,10.6288,59.7217,17.3269,26.2018,48.6527,33.5203,49.367,32.5205Z"/>
    <path class="cls-10" d="M959.7205,1040.4903c.6571-.9999-28.8343-11.5026-48.7015-41.4608-20.1779-30.4269-18.1169-62.3581-19.2881-62.1462-1.2231.2213-5.3558,35.3988,14.6243,65.4021,19.6095,29.447,52.6806,39.2467,53.3652,38.2049Z"/>
    <path class="cls-8" d="M1039.9897,973.1516c.2257-.3939-26.489-8.3508-42.878-33.2277-16.7617-25.4426-13.0659-53.9252-13.5138-53.879-.4558.0471-5.0724,29.6262,11.7634,55.1106,16.4265,24.8649,44.3991,32.3964,44.6284,31.9961Z"/>
    <path class="cls-8" d="M1020.7156,984.2745c.2119-.3772-26.229-7.9416-42.2254-32.2537-16.372-24.883-12.3751-52.98-12.8122-52.9394-.444.0412-5.3506,29.0881,11.0447,54.0146,16.0521,24.4045,43.7774,31.5622,43.9929,31.1785Z"/>
    <path class="cls-8" d="M1000.1918,999.8055c.269-.4765-26.3631-8.258-42.7236-32.9983-16.8103-25.4205-12.9803-53.9314-13.5138-53.879-.5456.0535-5.4746,29.9722,11.46,55.4369,16.3961,24.6549,44.5034,31.9259,44.7774,31.4404Z"/>
    <path class="cls-8" d="M982.5169,1016.523c.3015-.5084-27.2552-9.3754-44.7045-35.7782-17.8192-26.9626-14.735-56.5325-15.2913-56.4639-.5711.0704-4.7608,31.3543,13.2867,58.3592,17.4316,26.0832,46.4026,34.3998,46.7091,33.883Z"/>
    <path class="cls-8" d="M960.3326,1040.0597c.2768-.4204-28.9624-11.7312-48.7014-41.4609-20.0858-30.2521-18.8176-62.23-19.2881-62.1462-.4807.0856-2.5881,33.6119,17.6753,63.8421,19.6414,29.3025,50.0341,40.1903,50.3142,39.765Z"/>
    <path class="cls-21" d="M878.6482,757.2056c-18.2451,12.8331-48.5019,43.0739-40.2256,69.8034,12.1939,39.3822,98.5339,40.517,104.4798,26.139,3.4745-8.4018-22.5963-17.0391-25.188-40.4011-3.7558-33.8552,48.3968-58.1861,40.2256-69.8033-10.7879-15.3374-46.288-8.9521-79.2919,14.2619Z"/>
    <circle class="cls-9" cx="968.8166" cy="773.9111" r="11.9174"/>
    <circle class="cls-11" cx="970.019" cy="778.5795" r="6.4286"/>
    <path class="cls-11" d="M856.7337,792.247c8.8475-10.6107,23.0951-14.21,24.6148-11.885,2.1778,3.332-23.7567,15.814-23.0954,33.7824.5412,14.708,18.5511,23.5543,17.0898,25.4843-1.4348,1.8949-20.8464-3.9274-25.75-19.3931-4.373-13.792,5.6588-26.2114,7.1407-27.9886Z"/>
    <path class="cls-21" d="M1108.6686,1108.9352c35.0243-24.6352,57.1208-53.5574,49.3539-64.5998-5.2965-7.5302-46.5459,37.5163-77.4803,24.6119-19.5697-8.1636-19.8477-32.6638-30.0293-32.3265-18.0443.5978-43.6021,78.4259-19.3245,96.9262,21.0191,16.0173,70.1909-19.4847,77.4802-24.6118Z"/>
    <circle class="cls-7" cx="1178.4086" cy="822.3399" r="6.4286"/>
    <path class="cls-7" d="M1115.7123,931.8033c19.4382-7.362,32.0336-25.4575,29.6199-28.641-3.4592-4.5621-34.6113,25.633-59.1799,16.4025-20.1106-7.5555-22.7689-36.6274-26.2255-35.4935-3.3939,1.1133-5.6777,30.7302,13.1558,44.6866,16.7953,12.4462,39.374,4.2785,42.6298,3.0454Z"/>
    <path class="cls-20" d="M1212.4013,1011.1512c38.5099,28.5025,39.4267,42.2388,37.4431,48.219-.0556.1677-.1152.3343-.1787.4996-.134.1831-.3332.4562-.5729.7876-17.3422,23.9797-24.6918,47.0731-27.41,56.7889-6.8883,24.6215-7.147,45.9489-6.2229,60.0176-.7247,5.226-4.5725,9.3498-9.3153,10.2059-5.7397,1.036-11.8312-2.8872-13.4024-9.2592,2.9236,2.4522,7.5538,5.6651,11.2746,4.2646,10.2234-3.8482-.2842-37.3095,8.7988-71.6422,5.7808-21.8508,18.0538-38.5998,30.0202-50.8669-6.4714-14.1174-13.9313-19.5361-19.7548-21.8068-4.3209-1.6847-10.8748-2.8585-13.638-8.2583-1.4237-2.7821-1.3369-5.7009-1.0457-7.7201"/>
    <path class="cls-20" d="M1001.1329,707.7468c-2.4133-11.7106-10.1889-45.0801-24.8306-46.5163-.4968-.0488-1.0014-.0607-1.5143-.034-.3135.0925-.7795.2293-1.3441.3911-28.1589,8.0711-52.1331,7.2161-62.3022,6.482-25.5254-1.8427-45.686-8.8161-58.5882-14.4313-.6738-.0368-8.6231-.3513-12.754,5.3171-4.141,5.6822-2.8469,15.1836,4.3104,21.1343-3.7858-10.7153-2.3907-15.2753-.3291-17.4434,7.9329-8.3422,30.009,14.2341,70.3992,15.9365,10.3004.4341,23.8066-5.8426,54.5602-9.5319.8496-.1019,1.5498-.1837,2.0129-.2374.6591-.0271,1.6921-.0034,2.8674.339,7.6441,2.2273,9.6086,14.9385,12.4253,24.3353.0001.0003.1852.9552,2.0915,15.068"/>
    <path class="cls-16" d="M1222.4469,1031.1788c-.0684.5993-6.301,2.2588-9.0497-1.2031-2.5711-3.2383-.5543-9.0184,1.5093-9.5173,1.0596-.2562,2.5596.7767,2.9226,2.0156.5955,2.0322-2.209,3.4555-1.7857,5.3272.5786,2.5585,6.4712,2.7844,6.4034,3.3776Z"/>
    <path class="cls-16" d="M1212.5702,1170.5367c-.3932.0626.9842,3.8001-.6513,7.5046-2.2777,5.159-8.7258,6.4648-8.6235,6.6919.1162.258,8.6632-.9358,10.5361-6.6591,1.1987-3.6629-.8531-7.6023-1.2613-7.5373Z"/>
    <circle class="cls-16" cx="1199.4413" cy="1184.4297" r=".9286"/>
    <path class="cls-16" d="M989.4517,681.9607c.5263.138.0016-5.3503-3.6392-10.2319-2.5888-3.471-6.5538-6.3683-7.3373-5.3735-.9387,1.1918,2.6926,7.9673,4.2712,8.6588,1.012.4433.7293-1.8112,1.7532-1.3585,1.7501.7738,4.3636,8.1509,4.9521,8.3052Z"/>
    <path class="cls-16" d="M930.5632,673.02c-23.4679.7117-40.3265-4.1496-40.4635-3.4305-.152.797,20.4152,7.5094,41.2134,5.0465,2.3476-.278,9.1557-1.2008,9.1205-1.6094-.0348-.4029-6.702-.1027-9.8704-.0066Z"/>
    <ellipse class="cls-16" cx="883.8484" cy="668.271" rx="1.0887" ry="2.0492" transform="translate(73.8528 1424.3671) rotate(-80.1215)"/>
    <ellipse class="cls-16" cx="885.6586" cy="669.8243" rx=".587" ry=".2135" transform="translate(-82.9694 126.8551) rotate(-7.8272)"/>
    <ellipse class="cls-16" cx="884.1994" cy="670.1503" rx=".5304" ry=".3697" transform="translate(-10.8388 14.5463) rotate(-.9368)"/>
    <path class="cls-16" d="M1220.7085,1094.2919c-8.6027,21.8459-9.7263,39.3554-10.4494,39.2413-.8015-.1264-.1664-21.7519,9.1819-40.4932,1.0552-2.1154,4.225-8.2109,4.5977-8.0396.3674.1689-2.1688,6.3422-3.3303,9.2916Z"/>
    <ellipse class="cls-16" cx="1213.4986" cy="1132.1442" rx="3.3514" ry=".5764" transform="translate(-58.3481 2198.3221) rotate(-82.9864)"/>
    <path class="cls-16" d="M1245.0214,1060.8591c-.5148,1.3574-1.8333,1.9092-1.7382,2.0525.1015.1528,1.7418-.2613,2.3793-1.5096.9329-1.8266-.9254-4.1792-1.0486-4.1319-.1054.0405,1.0739,1.8318.4076,3.5889Z"/>
    <path class="cls-12" d="M846.1949,666.7808c-.4882.9466.3809,2.7726,1.6356,3.5097,1.7517,1.0291,3.4157-.5565,6.0075-.8666,5.01-.5995,8.296,4.1881,8.5046,3.8832.183-.2675-2.439-3.823-7.0346-5.8348-3.3894-1.4839-8.2768-2.3135-9.1132-.6916Z"/>
    <path class="cls-16" d="M984.6775,675.7006c-.147.1034.0039.5712.3371,1.0451.3332.4737.7225.7739.8695.6705.147-.1034-.0039-.5712-.3371-1.045-.3333-.4738-.7226-.774-.8696-.6706Z"/>
    <ellipse class="cls-12" cx="850.1779" cy="675.8037" rx=".951" ry="1.7077" transform="translate(-234.0095 612.1587) rotate(-35.1215)"/>
    <path class="cls-12" d="M965.6952,673.1143c.1754-.6729,5.5307-2.3019,9.3795.2615,5.6221,3.7444,4.9061,14.3538,4.4229,14.6234-.4122.2299-.4366-7.1888-5.3705-11.4586-3.9163-3.3893-8.6001-2.7816-8.432-3.4262Z"/>
    <ellipse class="cls-12" cx="963.5137" cy="674.8864" rx=".9392" ry="1.6097" transform="translate(-212.8472 677.1952) rotate(-35.1215)"/>
    <path class="cls-12" d="M1203.5808,1178.8284c-1.0559.1395-2.4806-1.2957-2.7502-2.7258-.3764-1.9965,1.6783-3.0265,2.8463-5.361,2.2577-4.5125-1.1372-9.2234-.7798-9.3166.3136-.0819,2.7735,3.5877,3.1134,8.5928.2508,3.6915-.6205,8.5716-2.4297,8.8105Z"/>
    <ellipse class="cls-12" cx="1196.5134" cy="1176.1049" rx=".951" ry="2.6579" transform="translate(-278.4576 1975.6845) rotate(-72.9692)"/>
    <path class="cls-12" d="M1232.5422,1065.4562c.6926.0623,4.0359-4.427,2.9245-8.9158-1.6236-6.5569-11.8505-9.4693-12.2675-9.1057-.3557.3102,6.618,2.8409,8.9687,8.9277,1.8659,4.8315-.2892,9.0341.3743,9.0938Z"/>
    <path class="cls-12" d="M1212.3488,1094.4652c-6.6582,13.91-9.6492,24.2091-9.8881,24.2902-.248.0843,2.5752-10.8606,8.7847-24.0149,7.1091-15.06,15.1502-25.5874,15.2405-25.3397.0845.2319-6.8299,9.7987-14.1371,25.0644Z"/>
    <path class="cls-1" d="M874.0189,996.3209c.7068-.307,2.2743,9.7591,10.4196,21.6455,7.0483,10.2858,14.3766,15.1554,13.8452,15.6505-.5732.5342-10.0895-4.2143-16.7473-13.5792-7.7585-10.913-8.2858-23.383-7.5175-23.7168Z"/>
    <ellipse class="cls-1" cx="903.2972" cy="1037.001" rx="1.3448" ry="2.2448" transform="translate(-466.2105 1162.5616) rotate(-54.1804)"/>
    <circle class="cls-1" cx="908.3378" cy="1038.9422" r=".9819"/>
    <path class="cls-7" d="M1095.0146,759.5859c-9.4319,5.6999-37.2236,22.495-40.8013,49.89-.4609,3.5288-1.8958,14.5164,3.5743,18.1422,7.8691,5.2159,21.7088-10.3173,40.931-19.5773,44.9124-21.636,93.9459,3.1443,98.2693-8.7038,2.0464-5.6082-9.3649-9.9949-15.3027-29.6221-4.1656-13.7692-.4424-17.8672-4.4173-23.1997-10.7779-14.4588-53.1833-4.4967-82.2532,13.0708Z"/>
    <path class="cls-3" d="M1099.8606,759.4107c-8.4203,5.0886-33.231,20.0822-36.425,44.5388-.4114,3.1503-1.6925,12.9594,3.1909,16.1963,7.0251,4.6565,19.3803-9.2107,36.5408-17.4775,40.0952-19.3154,83.8693,2.8071,87.729-7.7703,1.8269-5.0067-8.3604-8.9228-13.6614-26.4449-3.7188-12.2923-.3949-15.9508-3.9435-20.7113-9.6218-12.908-47.4789-4.0144-73.4308,11.6688Z"/>
    <circle class="cls-9" cx="1081.3524" cy="1039.3339" r="11.9174"/>
    <circle class="cls-11" cx="1082.5548" cy="1044.0023" r="6.4286"/>
    <path class="cls-11" d="M1066.9567,1129.5543c12.9769-4.74,21.1804-16.9322,19.5059-19.1484-2.3997-3.1759-22.9136,17.0126-39.6008,10.3163-13.6593-5.4812-15.8969-25.4212-18.2073-24.6983-2.2684.7098-3.3505,20.9469,9.5473,30.7897,11.5019,8.7777,26.5813,3.5346,28.7549,2.7407Z"/>
    <ellipse class="cls-2" cx="976.3463" cy="1217.605" rx="23.3148" ry="14.5899" transform="translate(-99.7542 87.1972) rotate(-4.8654)"/>
    <ellipse class="cls-2" cx="1009.3074" cy="1207.4657" rx="7.4375" ry="4.6543" transform="translate(-98.7754 89.9563) rotate(-4.8654)"/>
    <ellipse class="cls-2" cx="1007.256" cy="1220.6331" rx="3.5555" ry="2.225" transform="translate(-99.8996 89.8297) rotate(-4.8654)"/>
    <path class="cls-2" d="M943.8032,1099.1314c-2.2467-.7473-19.2899,22.845-17.8991,51.2372,1.6058,32.7801,26.8943,53.798,27.2896,53.5374.4054-.2673-22.5985-24.7483-18.7965-53.0389.3487-2.5946.4372-1.6073,2.8114-12.6254,4.8937-22.7097,8.3051-38.5411,6.5945-39.1102Z"/>
    <path class="cls-2" d="M847.6896,928.0272c-.0561,2.367-28.0208,10.432-54.2715-.4743-30.3077-12.5919-41.5401-43.4966-41.1611-43.7806.3886-.2912,15.6525,29.6339,43.563,35.6189,2.5597.5489,1.6605.1319,12.8326,1.6218,23.0271,3.071,39.0798,5.2119,39.0371,7.0142Z"/>
    <path class="cls-3" d="M1261.1199,796.2668c-1.7072.9509.6947,16.4584,11.7675,22.6578,11.2473,6.297,25.9749-.0702,25.8683-2.0236-.0883-1.6179-10.3109.5844-21.6236-5.71-11.0918-6.1715-14.602-15.7097-16.0122-14.9242Z"/>
    <path class="cls-3" d="M1216.2796,696.1357c-1.6748-1.0069-13.9259,8.7995-13.7868,21.4889.1413,12.8893,12.9977,22.4891,14.6385,21.4238,1.359-.8824-5.6421-8.65-5.8183-21.5947-.1727-12.692,6.3501-20.4863,4.9666-21.318Z"/>
    <path class="cls-14" d="M1189.1798,744.4745c-4.6302,6.6418,3.3469,20.7068,5.6178,24.779,11.1149,19.9319,30.1946,30.2639,30.9762,29.0403.8937-1.3992-16.9097-11.6236-23.5724-32.2368-3.7667-11.6531-2.6089-22.4721-7.0323-24.2592-2.1989-.8883-4.7343.8765-5.9892,2.6766Z"/>
    <path class="cls-20" d="M1102.7915,725.4048c1.5883-1.6861,3.5728-4.3318,4.1747-7.869,1.0335-6.0734-2.6695-11.0186-4.4249-14.2846-3.0489-5.6724-5.2024-14.9371-.7021-30.5394.0004-.0003,20.9553-19.3659,41.024-37.0189,45.2319-39.7874,50.3594-40.1198,55.0616-51.9521,3.7383-9.4068,7.1019-13.4203,10.5078-14.5268,6.0809-1.9756,13.4568,5.6778,14.5994,6.8899-.1433-1.1153-.4298-2.6802-1.0569-4.4641-1.4795-4.2092-4.3101-8.0889-7.1297-9.9878-5.5905-3.765-13.428-1.2861-16.6641-.2625-21.2868,6.7329-103.4876,92.4652-108.0743,97.2667-.8578,20.4057-1.7157,40.8117-2.5735,61.2175,1.4813.538,5.226,1.8969,6.7076,2.4341,2.2389.8118,6.3109,2.2868,8.5504,3.0971Z"/>
    <path class="cls-16" d="M1163.7391,602.7495c6.3789-3.6819,9.755-1.4901,14.2092-5.0091,5.1577-4.0748,7.1314-12.1489,5.2019-13.6612-3.0631-2.4008-17.1272,10.8246-22.9154,16.2676-11.5277,10.8402-21.053,22.7727-20.2925,23.5047.6134.5904,8.3094-5.7288,14.3765-11.8763,5.6099-5.6842,5.7885-7.1294,9.4202-9.2257Z"/>
    <path class="cls-16" d="M1217.3668,565.7894c.1658-.1377-.8427-2.5703-3.111-3.5983-2.2651-1.0265-4.7625-.1883-4.7567.015.005.1761,1.8837-.2145,4.1192.7284,2.49,1.0502,3.5937,2.9835,3.7485,2.8549Z"/>
    <ellipse class="cls-16" cx="1218.2143" cy="567.286" rx=".5089" ry="1.3448" transform="translate(-102.9209 813.1748) rotate(-35.5132)"/>
    <ellipse class="cls-16" cx="1099.7882" cy="715.5253" rx="2.9458" ry="5.2512" transform="translate(-211.0611 771.9574) rotate(-35.5132)"/>
    <ellipse class="cls-16" cx="1094.8618" cy="711.4884" rx="1.2808" ry=".8325" transform="translate(-209.6325 768.3448) rotate(-35.5132)"/>
    <ellipse class="cls-16" cx="1094.8939" cy="713.7383" rx=".5123" ry=".8965" transform="translate(-210.9335 768.782) rotate(-35.5132)"/>
  </g>
  <g>
    <path class="cls-5" d="M361.6822,219.294c15.7292-20.5986,43.5152-30.6572,65.0749-24.1354,18.4361,5.5769,18.8577,19.2057,39.9884,40.7071,42.2927,43.035,90.8519,39.5693,91.901,61.2096.5422,11.1857-12.4373,11.9965-29.8691,39.7488-17.071,27.1779-12.7739,39.3765-22.8138,43.2817-18.4315,7.1693-34.024-33.5111-87.5371-59.2838-33.4759-16.1226-48.2086-10.2373-60.5561-27.7256-13.4802-19.0926-13.5462-51.0707,3.8118-73.8024Z"/>
    <path class="cls-4" d="M501.062,423.9303c-22.7565-30.2325-46.4039-88.8028-18.6379-123.2882,30.5848-37.9864,100.9006-18.6165,132.5504-3.9759,45.9879,21.2732,87.5537,68.2784,78.0534,96.073-4.2924,12.5578-15.7519,11.6655-31.5612,33.8365-17.7409,24.88-12.0698,38.2885-23.0865,48.1932-24.0781,21.6477-98.7605.3861-137.3181-50.8386Z"/>
    <path class="cls-19" d="M648.8537,516.5869c-19.5406-16.9176-9.9186-61.1838,8.9675-87.6148,18.0338-25.2382,55.4677-49.5437,78.4864-36.7203,23.7846,13.2501,25.2353,62.2729,5.1493,92.8788-21.7158,33.0892-71.778,49.486-92.6032,31.4563Z"/>
    <circle class="cls-13" cx="731.67" cy="433.9216" r="32.0393"/>
    <circle class="cls-18" cx="744.3376" cy="442.5533" r="12.005"/>
    <circle class="cls-13" cx="684.9778" cy="495.9171" r="32.0393"/>
    <circle class="cls-18" cx="697.6454" cy="504.5487" r="12.005"/>
    <path class="cls-19" d="M675.0293,342.7193c17.7842-7.7596,35.5684-15.5192,53.3526-23.2788,37.0923,20.4348,74.1845,40.8696,111.2768,61.3044,5.7418,1.6309,11.8435-1.3934,14.0144-6.9166,2.1914-5.5754-.2879-12.0045-5.689-14.6758-38.8319-21.2136-77.6636-42.4272-116.4954-63.6408-19.9114,5.1832-39.8228,10.3665-59.7342,15.5497-1.1757,2.9781-3.257,9.4415-2.0834,17.5959.9567,6.6474,3.6534,11.4792,5.3582,14.0619Z"/>
    <path class="cls-19" d="M583.4275,479.592c-1.2912,19.3603-2.5824,38.7206-3.8736,58.0809,31.7703,28.0012,63.5405,56.0024,95.3108,84.0036,3.4758,4.8525,2.6921,11.6174-1.7722,15.5275-4.5064,3.947-11.3952,3.787-15.735-.3932-33.0913-29.3751-66.1825-58.7501-99.2737-88.1253-1.8526-20.4914-3.7051-40.9828-5.5576-61.4742,2.4054-2.1132,7.7848-6.2568,15.8559-7.9087,6.5795-1.3466,12.0384-.442,15.0454.2894Z"/>
    <path class="cls-19" d="M663.3889,237.3192l37.9189-49.5742c-7.8265-10.6935-18.7864-28.3851-25.5477-52.5658-6.295-22.5131-6.5251-41.9773-5.6813-54.7945-.6616-4.7712-4.1745-8.5361-8.5047-9.3177-5.2402-.9458-10.8016,2.6359-12.236,8.4534-1.1658,13.5502-1.356,36.8295,8.0632,63.3319,6.8687,19.3261,16.4675,33.6702,23.8833,43.0082-10.0907,11.4555-20.1814,22.911-30.2721,34.3665-5.5518,3.5324-7.5711,9.9397-5.6518,14.1329,2.3454,5.1243,10.9983,7.8714,18.0282,2.9593Z"/>
    <path class="cls-19" d="M484.3055,494.3571l-33.8382,52.4445c-15.2748-2.5537-35.2459-4.4247-58.4672-2.7745-21.1645,1.5041-39.1509,5.5157-53.1296,9.6749-4.714.9901-9.4447-1.0434-11.644-4.8544-2.6615-4.612-1.1706-11.0567,3.8196-14.3733,15.925-3.9925,35.9372-7.5762,59.1556-8.4862,19.7483-.7739,37.2244.5664,51.7237,2.6059,7.3702-13.369,14.7403-26.7381,22.1106-40.1071,1.4478-6.4191,6.7954-10.4854,11.3905-10.0965,5.6155.4752,11.1258,7.6901,8.8792,15.9666Z"/>
    <path class="cls-17" d="M677.0888,345.5499c2.8629-15.9302,3.7677-30.7952,3.3927-44.4569-3.5265-128.452-121.9951-215.7142-155.5031-238.8028-7.8479,1.7236-60.0093,13.9678-78.7562,56.6856-19.298,43.9735,8.1508,101.9989,47.6917,135.699,10.0268,8.5458,20.8313,15.5274,31.8483,20.319,42.4678,18.4705,65.301,11.5645,98.8256,26.4328,13.9256,6.176,33.4268,18.1891,52.501,44.1234Z"/>
    <path class="cls-22" d="M510.0441,266.7601h0c-5.5868-2.7827-5.7174-2.8478-5.7504-2.8643-5.4981-2.7466-14.1877-8.6099-17.0609-10.6911-43.4542-31.4775-65.856-71.0751-65.8561-71.0753-9.1927-16.2491-17.3401-30.4234-20.2701-50.8552-8.3309-58.0927,30.2655-120.6809,50.9609-117.9802,2.7853.3635,5.1208,1.8932,7.0419,3.8093,22.3685,15.3521,44.7368,30.7042,67.1053,46.0564-5.4359,1.0962-58.3489,12.6237-77.1124,58.4136-19.9396,48.6598,14.1434,96.4462,22.9747,108.7977,13.0969,18.3176,28.0441,29.8383,37.9672,36.389Z"/>
    <path class="cls-17" d="M591.6587,481.5063c-14.0137,7.6976-27.6663,13.3135-40.6328,17.395-122.0915,38.4307-242.2004-40.6503-277.3106-65.6265-1.0307-7.9685-7.1394-61.1984,26.7267-93.2817,34.8617-33.0264,98.7499-26.8079,143.8324-.9864,11.4321,6.5479,21.655,14.3565,29.8886,23.1052,31.6494,33.6296,33.0421,57.311,58.283,84.0731,10.4953,11.1278,28.3787,25.6775,59.2127,35.3212Z"/>
    <path class="cls-22" d="M455.9725,345.8861c-19.9612-16.785-55.2343-41.3008-104.4931-50.624-16.919-3.2022-33.6726-6.2038-54.7135-1.8863-57.4892,11.7967-103.3463,69.2779-93.8088,87.8421,1.2836,2.4985,3.5127,4.1795,5.9655,5.3397,22.0097,15.8622,44.0193,31.7244,66.0289,47.5866-.8058-5.4865-7.8432-59.1814,28.9086-92.3188,38.6293-34.8302,94.9988-19.3249,110.1595-15.1548,18.4293,5.0693,32.5649,12.9761,41.9528,19.2154Z"/>
    <ellipse class="cls-6" cx="736.5211" cy="486.5068" rx="6.86" ry="1.715" transform="translate(-85.1389 809.039) rotate(-54.8785)"/>
    <ellipse class="cls-3" cx="744.554" cy="438.6548" rx="5.6906" ry="5.7687" transform="translate(-42.5877 795.2872) rotate(-54.8785)"/>
    <ellipse class="cls-3" cx="695.2288" cy="508.2397" rx="5.6906" ry="5.7687" transform="translate(-120.4513 784.4943) rotate(-54.8785)"/>
    <ellipse class="cls-3" cx="739.5803" cy="447.2843" rx="1.6955" ry="1.637" transform="translate(-51.7583 794.884) rotate(-54.8785)"/>
    <ellipse class="cls-3" cx="696.2801" cy="498.3945" rx="1.6955" ry="1.637" transform="translate(-111.9521 781.1731) rotate(-54.8785)"/>
    <ellipse class="cls-14" cx="700.5058" cy="409.5575" rx="9.1986" ry="5.7563" transform="translate(-37.4947 746.9015) rotate(-54.8785)"/>
    <ellipse class="cls-14" cx="695.214" cy="422.0921" rx="2.9344" ry="1.8363" transform="translate(-49.9945 747.8964) rotate(-54.8785)"/>
    <ellipse class="cls-14" cx="691.7537" cy="418.1335" rx="1.4028" ry=".8778" transform="translate(-48.2263 743.385) rotate(-54.8785)"/>
    <ellipse class="cls-15" cx="493.492" cy="344.3443" rx="15.6248" ry="9.7776" transform="translate(101.3676 800.7935) rotate(-84.2411)"/>
    <ellipse class="cls-15" cx="496.0979" cy="367.3077" rx="4.9844" ry="3.1191" transform="translate(80.8646 824.0455) rotate(-84.2411)"/>
    <ellipse class="cls-15" cx="487.6784" cy="364.3296" rx="2.3828" ry="1.4911" transform="translate(76.2529 812.9891) rotate(-84.2411)"/>
    <ellipse class="cls-2" cx="229.4406" cy="374.2665" rx="13.3202" ry="21.2858" transform="translate(-135.0709 129.6243) rotate(-24.6224)"/>
    <ellipse class="cls-2" cx="248.3248" cy="399.4585" rx="4.2492" ry="6.7903" transform="translate(-143.8497 139.7828) rotate(-24.6224)"/>
    <ellipse class="cls-2" cx="236.3779" cy="401.7596" rx="2.0313" ry="3.2461" transform="translate(-145.8947 135.0145) rotate(-24.6224)"/>
    <path class="cls-20" d="M679.9221,323.2634c2.0468.9698,5.101,2.0105,8.5154,1.4307,5.4982-.9336,8.6008-5.5454,10.9641-8.1357,3.9627-4.3433,11.2907-9.0029,26.0916-9.85h0s23.0242,12.1866,44.3046,24.1279c47.9628,26.9142,49.8014,31.23,61.4163,31.6981,4.7685.1922,12.5033-.1436,15.6933,4.6528,2.5251,3.7967,1.1573,9.2307-.5357,13.4426.6337-.1896,1.5364-.5076,2.546-1.0437,4.147-2.2021,6.6012-6.2268,7.3147-8.9214,1.5892-6.002-2.9018-13.1532-5.689-14.6758-38.8319-21.2136-77.6636-42.4272-116.4954-63.6408-17.8357,5.4387-35.6714,10.8773-53.507,16.3159-.1258,2.1186-.2375,4.2643-.3339,6.4366-.1226,2.7616-.2168,5.483-.285,8.1627Z"/>
    <path class="cls-16" d="M804.4924,338.8443c5.1024,4.3796,4.2366,7.9511,8.6161,10.7223,5.0711,3.2089,12.623,2.4645,13.3414.3449,1.1405-3.3651-14.5084-11.4751-20.9489-14.8128-12.8267-6.6473-25.988-11.2394-26.3883-10.3627-.3228.7071,7.4498,5.4228,14.5815,8.7874,6.5942,3.1111,7.8931,2.8274,10.7981,5.3209Z"/>
    <path class="cls-16" d="M852.5618,373.8459c.1688.1012,1.9587-1.5039,2.1575-3.7689.1985-2.2617-1.2796-4.1591-1.453-4.0925-.1501.0576.7551,1.5576.6197,3.7685-.1508,2.4626-1.4818,3.9986-1.3242,4.093Z"/>
    <ellipse class="cls-16" cx="851.5293" cy="375.0289" rx="1.2278" ry=".4646" transform="translate(54.8852 855.7649) rotate(-54.8785)"/>
    <ellipse class="cls-16" cx="687.9962" cy="317.9029" rx="4.7942" ry="2.6894" transform="translate(32.16 697.7449) rotate(-54.8785)"/>
    <ellipse class="cls-16" cx="689.9819" cy="312.4375" rx=".7601" ry="1.1693" transform="translate(37.4736 697.048) rotate(-54.8785)"/>
    <ellipse class="cls-16" cx="688.0537" cy="313.1464" rx=".8185" ry=".4677" transform="translate(36.0749 695.7719) rotate(-54.8785)"/>
    <path class="cls-10" d="M358.2157,272.4236c2.3762,1.3528.71-22.4725,18.1387-45.3841,15.0816-19.8262,34.5213-25.9009,32.5644-27.5777-2.1112-1.8089-28.3716,2.1482-42.8443,19.9998-16.8653,20.8026-10.4418,51.4913-7.8587,52.9619Z"/>
    <path class="cls-10" d="M509.3202,266.5235c.6361.8584-24.0804,7.3552-39.1465,30.336-15.3017,23.3403-11.3126,49.4435-12.3377,49.1901-1.0706-.2646-7.0718-29.1505,8.0886-52.1602,14.8792-22.583,42.7328-28.2604,43.3956-27.3659Z"/>
    <path class="cls-10" d="M491.7235,256.3685c.6419.8532-23.843,6.973-38.5507,29.4467-14.9377,22.8253-10.6758,48.5937-11.6973,48.3323-1.0668-.273-7.3597-28.8064,7.4413-51.3076,14.5264-22.0839,42.1378-27.3604,42.8067-26.4714Z"/>
    <path class="cls-10" d="M472.9858,242.1891c.4944.9475-23.9989,7.4427-39.0055,30.1266-15.4132,23.2986-11.2823,49.2596-12.3377,49.1901-1.11-.0732-7.4039-28.9019,8.0885-52.1602,15.0263-22.5585,42.7365-28.1497,43.2547-27.1565Z"/>
    <path class="cls-10" d="M456.849,226.9265c.6258.876-24.7931,8.3238-40.814,32.6646-16.2715,24.7216-12.9208,51.7854-13.9605,51.55-1.0859-.2458-6.4141-30.1507,9.7038-54.5243,15.819-23.9216,44.4187-30.6031,45.0708-29.6904Z"/>
    <path class="cls-10" d="M436.5954,205.4381c.5999.9129-26.3249,10.5016-44.4632,37.8526-18.4219,27.7789-16.5403,56.9313-17.6095,56.7378-1.1167-.2021-4.8897-32.3181,13.3516-59.7104,17.9029-26.8843,48.096-35.8312,48.7211-34.8801Z"/>
    <path class="cls-8" d="M509.8791,266.9166c.206.3596-24.1838,7.624-39.1465,30.336-15.303,23.2284-11.9288,49.2323-12.3377,49.1901-.4161-.043-4.631-27.0479,10.7396-50.3145,14.997-22.701,40.5352-29.577,40.7446-29.2116Z"/>
    <path class="cls-8" d="M492.2824,256.7616c.1935.3444-23.9464,7.2505-38.5507,29.4468-14.9472,22.7175-11.2981,48.3694-11.6972,48.3323-.4053-.0376-4.885-26.5567,10.0836-49.3139,14.6552-22.2807,39.9676-28.8154,40.1644-28.4651Z"/>
    <path class="cls-8" d="M473.5446,242.5822c.2456.435-24.0689,7.5394-39.0055,30.1266-15.3474,23.2083-11.8507,49.2379-12.3377,49.1901-.4981-.0489-4.9982-27.3638,10.4627-50.6124,14.9692-22.5092,40.6304-29.1475,40.8806-28.7043Z"/>
    <path class="cls-8" d="M457.4079,227.3196c.2752.4642-24.8833,8.5595-40.814,32.6646-16.2684,24.6161-13.4526,51.6126-13.9606,51.5501-.5214-.0643-4.3465-28.6256,12.1304-53.2804,15.9146-23.8133,42.3644-31.4061,42.6441-30.9343Z"/>
    <path class="cls-8" d="M437.1543,205.8312c.2527.3838-26.4419,10.7102-44.4631,37.8527-18.3378,27.6194-17.18,56.8144-17.6095,56.7378-.4389-.0781-2.3628-30.6868,16.137-58.2862,17.9321-26.7524,45.6798-36.6927,45.9356-36.3044Z"/>
    <path class="cls-21" d="M362.5786,464.0695c-16.6573-11.7163-44.2809-39.3253-36.7249-63.7287,11.1327-35.9549,89.9589-36.991,95.3873-23.8642,3.1721,7.6706-20.6298,15.5562-22.9959,36.8851-3.4289,30.9089,44.185,53.1223,36.7249,63.7285-9.8491,14.0026-42.2598,8.173-72.3914-13.0207Z"/>
    <circle class="cls-9" cx="444.9" cy="448.8179" r="10.8803"/>
    <circle class="cls-11" cx="445.9977" cy="444.5558" r="5.8692"/>
    <path class="cls-11" d="M342.5712,432.0776c8.0776,9.6873,21.0852,12.9733,22.4727,10.8507,1.9883-3.042-21.6892-14.4378-21.0855-30.8425.4941-13.4281,16.9367-21.5045,15.6026-23.2665-1.3099-1.73-19.0322,3.5856-23.509,17.7054-3.9924,12.5917,5.1663,23.9303,6.5193,25.5529Z"/>
    <path class="cls-21" d="M572.5811,142.9497c31.9763,22.4913,52.1498,48.8965,45.0588,58.9779-4.8356,6.8748-42.4952-34.2514-70.7375-22.47-17.8666,7.4531-18.1204,29.8212-27.416,29.5133-16.474-.5458-39.8075-71.6008-17.6428-88.4911,19.1899-14.6234,64.0825,17.789,70.7374,22.4699Z"/>
    <circle class="cls-7" cx="636.2519" cy="404.6036" r="5.8692"/>
    <path class="cls-7" d="M579.0118,304.6664c17.7466,6.7213,29.2458,23.242,27.0422,26.1485-3.1581,4.1651-31.5992-23.4022-54.0297-14.9751-18.3605,6.898-20.7874,33.4398-23.9432,32.4047-3.0985-1.0164-5.1836-28.0559,12.0109-40.7977,15.3337-11.363,35.9474-3.9062,38.9199-2.7804Z"/>
    <path class="cls-20" d="M667.2864,232.2239c35.1585-26.0221,35.9955-38.563,34.1846-44.0227-.0508-.1531-.1051-.3052-.1631-.4561-.1223-.1672-.3042-.4165-.5231-.719-15.833-21.8928-22.543-42.9765-25.0246-51.8467-6.2888-22.4788-6.525-41.9502-5.6813-54.7945-.6616-4.7712-4.1745-8.5361-8.5047-9.3177-5.2402-.9458-10.8016,2.6359-12.236,8.4534,2.6692-2.2388,6.8965-5.1721,10.2934-3.8935,9.3337,3.5133-.2595,34.0626,8.033,65.4074,5.2777,19.9492,16.4826,35.2406,27.4076,46.4402-5.9082,12.8888-12.7189,17.836-18.0356,19.9091-3.9449,1.5381-9.9284,2.6098-12.4512,7.5396-1.2998,2.54-1.2205,5.2048-.9547,7.0483"/>
    <path class="cls-20" d="M474.4038,509.2241c-2.2033,10.6915-9.3022,41.157-22.6696,42.4682-.4536.0445-.9143.0554-1.3826.031-.2862-.0845-.7116-.2093-1.2271-.3571-25.7083-7.3687-47.5961-6.5881-56.8802-5.9179-23.304,1.6823-41.7101,8.0489-53.4895,13.1754-.6151.0336-7.8726.3207-11.644-4.8544-3.7806-5.1877-2.5992-13.8622,3.9353-19.295-3.4564,9.7828-2.1826,13.9459-.3004,15.9253,7.2425,7.6163,27.3974-12.9954,64.2726-14.5496,9.404-.3963,21.7348,5.3341,49.8121,8.7024.7756.093,1.4149.1678,1.8377.2168.6018.0247,1.5448.0031,2.6179-.3095,6.9789-2.0335,8.7724-13.6384,11.344-22.2175,0-.0003.1691-.8721,1.9095-13.7567"/>
    <path class="cls-16" d="M676.4577,213.9392c-.0625-.5472-5.7526-2.0623-8.2621,1.0984-2.3474,2.9565-.5061,8.2335,1.378,8.689.9674.2339,2.3369-.7091,2.6683-1.8402.5436-1.8553-2.0167-3.1548-1.6303-4.8636.5282-2.3359,5.9081-2.5421,5.8462-3.0836Z"/>
    <path class="cls-16" d="M667.4405,86.7091c-.3589-.0572.8986-3.4694-.5946-6.8515-2.0794-4.71-7.9664-5.9022-7.873-6.1095.1061-.2355,7.9093.8544,9.6192,6.0796,1.0944,3.3442-.7788,6.9407-1.1515,6.8813Z"/>
    <circle class="cls-16" cx="655.4542" cy="74.0252" r=".8478"/>
    <path class="cls-16" d="M463.7393,532.7661c.4805-.126.0015,4.8847-3.3224,9.3415-2.3635,3.169-5.9835,5.8141-6.6988,4.9059-.857-1.0881,2.4583-7.2739,3.8995-7.9052.9239-.4047.6658,1.6535,1.6006,1.2403,1.5978-.7065,3.9839-7.4415,4.5212-7.5824Z"/>
    <path class="cls-16" d="M409.9756,540.9288c-21.4256-.6498-36.817,3.7885-36.9422,3.132-.1388-.7277,18.6386-6.8559,37.6267-4.6074,2.1433.2538,8.3589,1.0963,8.3268,1.4693-.0317.3678-6.1188.0938-9.0114.006Z"/>
    <ellipse class="cls-16" cx="367.3262" cy="545.2645" rx="1.8709" ry=".9939" transform="translate(-88.0992 71.1025) rotate(-9.8785)"/>
    <ellipse class="cls-16" cx="368.9788" cy="543.8464" rx=".1949" ry=".5359" transform="translate(-220.0505 835.3231) rotate(-82.1728)"/>
    <ellipse class="cls-16" cx="367.6466" cy="543.5487" rx=".3375" ry=".4842" transform="translate(-181.8405 902.2591) rotate(-89.0632)"/>
    <path class="cls-16" d="M674.8706,156.3186c-7.8541-19.9447-8.8798-35.9304-9.54-35.8262-.7317.1154-.1519,19.8589,8.3829,36.9693.9634,1.9313,3.8573,7.4963,4.1976,7.34.3354-.1542-1.9801-5.7903-3.0405-8.483Z"/>
    <ellipse class="cls-16" cx="668.2882" cy="121.7605" rx=".5262" ry="3.0597" transform="translate(-9.8669 82.5124) rotate(-7.0136)"/>
    <path class="cls-16" d="M697.0676,186.8419c-.47-1.2393-1.6738-1.7431-1.587-1.8739.0927-.1395,1.5902.2386,2.1722,1.3782.8517,1.6676-.8449,3.8155-.9574,3.7723-.0962-.037.9805-1.6723.3721-3.2766Z"/>
    <path class="cls-12" d="M332.9496,546.625c-.4457-.8642.3478-2.5313,1.4933-3.2043,1.5993-.9396,3.1184.5081,5.4847.7911,4.574.5473,7.5741-3.8236,7.7645-3.5453.1671.2442-2.2268,3.4903-6.4224,5.327-3.0945,1.3547-7.5565,2.1122-8.3201.6314Z"/>
    <path class="cls-16" d="M459.3805,538.4815c-.1342-.0944.0035-.5215.3078-.9541.3042-.4325.6596-.7065.7938-.6121.1342.0944-.0035.5215-.3077.954-.3043.4326-.6597.7066-.7939.6122Z"/>
    <ellipse class="cls-12" cx="336.5859" cy="538.3874" rx="1.5591" ry=".8682" transform="translate(-297.4214 503.9515) rotate(-54.8785)"/>
    <path class="cls-12" d="M442.0502,540.8427c.1602.6143,5.0494,2.1015,8.5633-.2388,5.1329-3.4186,4.4791-13.1047,4.038-13.3507-.3763-.2099-.3986,6.5631-4.9031,10.4614-3.5755,3.0943-7.8516,2.5395-7.6982,3.1281Z"/>
    <ellipse class="cls-12" cx="440.0585" cy="539.2248" rx="1.4696" ry=".8575" transform="translate(-254.1628 588.9409) rotate(-54.8785)"/>
    <path class="cls-12" d="M659.2334,79.139c-.964-.1273-2.2647,1.1829-2.5109,2.4886-.3437,1.8227,1.5323,2.7631,2.5986,4.8944,2.0612,4.1198-1.0383,8.4207-.7119,8.5058.2863.0747,2.5321-3.2755,2.8425-7.845.229-3.3703-.5665-7.8257-2.2182-8.0438Z"/>
    <ellipse class="cls-12" cx="652.7811" cy="81.6255" rx="2.4266" ry=".8682" transform="translate(4.7191 194.7695) rotate(-17.0308)"/>
    <path class="cls-12" d="M685.6744,182.6449c.6323-.0569,3.6847,4.0418,2.6699,8.1399-1.4823,5.9863-10.8192,8.6452-11.1999,8.3133-.3248-.2832,6.0421-2.5937,8.1882-8.1508,1.7036-4.411-.264-8.2479.3417-8.3024Z"/>
    <path class="cls-12" d="M667.2384,156.1605c-6.0787-12.6994-8.8094-22.1022-9.0276-22.1763-.2264-.0769,2.3511,9.9155,8.0202,21.925,6.4904,13.7494,13.8317,23.3606,13.9142,23.1344.0771-.2117-6.2356-8.9459-12.9068-22.8831Z"/>
    <path class="cls-1" d="M358.3521,245.7636c.6453.2803,2.0764-8.9098,9.5128-19.7618,6.4349-9.3906,13.1254-13.8364,12.6403-14.2885-.5234-.4877-9.2114,3.8476-15.2899,12.3975-7.0833,9.9633-7.5647,21.3481-6.8632,21.6528Z"/>
    <ellipse class="cls-1" cx="385.0824" cy="208.6238" rx="2.0494" ry="1.2278" transform="translate(-49.2608 264.8223) rotate(-35.8196)"/>
    <circle class="cls-1" cx="389.6844" cy="206.8514" r=".8965"/>
    <path class="cls-7" d="M560.1154,461.8964c-8.6111-5.2039-33.9842-20.5373-37.2505-45.5482-.4208-3.2217-1.7308-13.2531,3.2632-16.5633,7.1843-4.762,19.8196,9.4194,37.3689,17.8736,41.0039,19.7531,85.7701-2.8707,89.7172,7.9464,1.8683,5.1202-8.5499,9.1251-13.971,27.0442-3.8031,12.5709-.4039,16.3123-4.0329,21.1807-9.8399,13.2005-48.5549,4.1054-75.095-11.9333Z"/>
    <path class="cls-3" d="M564.5397,462.0564c-7.6875-4.6457-30.3391-18.3345-33.2551-40.6628-.3756-2.8762-1.5452-11.8316,2.9132-14.7868,6.4137-4.2512,17.6937,8.4091,33.3608,15.9565,36.6058,17.6344,76.5705-2.5628,80.0943,7.0941,1.6679,4.571-7.6328,8.1463-12.4725,24.1435-3.3952,11.2226-.3605,14.5626-3.6003,18.9089-8.7845,11.7847-43.347,3.6651-67.0404-10.6533Z"/>
    <circle class="cls-9" cx="547.6422" cy="206.4938" r="10.8803"/>
    <circle class="cls-11" cx="548.7399" cy="202.2317" r="5.8692"/>
    <path class="cls-11" d="M534.4993,124.125c11.8475,4.3275,19.3371,15.4586,17.8084,17.4819-2.1909,2.8995-20.9195-15.532-36.1545-9.4185-12.4706,5.0042-14.5135,23.2089-16.6227,22.5489-2.071-.648-3.0589-19.1239,8.7164-28.1102,10.501-8.0138,24.268-3.227,26.2524-2.5022Z"/>
    <ellipse class="cls-2" cx="451.7744" cy="43.7371" rx="13.3202" ry="21.2858" transform="translate(369.8772 490.1739) rotate(-85.1346)"/>
    <ellipse class="cls-2" cx="481.8669" cy="52.994" rx="4.2492" ry="6.7903" transform="translate(388.1939 528.6298) rotate(-85.1346)"/>
    <ellipse class="cls-2" cx="479.9941" cy="40.9725" rx="2.0313" ry="3.2461" transform="translate(398.4581 515.7619) rotate(-85.1346)"/>
    <path class="cls-2" d="M422.0633,151.9003c-2.0512.6823-17.6111-20.8569-16.3414-46.7782,1.466-29.9274,24.5538-49.1162,24.9147-48.8782.3701.244-20.6318,22.5945-17.1607,48.4231.3183,2.3688.3992,1.4674,2.5668,11.5267,4.4678,20.7333,7.5824,35.187,6.0206,35.7066Z"/>
    <path class="cls-2" d="M334.3142,308.1139c-.0512-2.161-25.5823-9.5242-49.5485.433-27.6701,11.4961-37.925,39.7112-37.579,39.9705.3548.2659,14.2903-27.055,39.7719-32.5191,2.337-.5012,1.516-.1204,11.7158-1.4807,21.0231-2.8037,35.6788-4.7583,35.6399-6.4038Z"/>
    <path class="cls-3" d="M711.7651,428.4077c-1.5587-.8681.6342-15.0261,10.7435-20.686,10.2685-5.749,23.7144.0641,23.6171,1.8475-.0807,1.4771-9.4135-.5335-19.7418,5.2131-10.1265,5.6344-13.3313,14.3425-14.6187,13.6254Z"/>
    <path class="cls-3" d="M670.8271,519.8247c-1.5291.9192-12.714-8.0337-12.587-19.6188.129-11.7676,11.8666-20.532,13.3646-19.5594,1.2407.8056-5.1511,7.8972-5.3119,19.7154-.1577,11.5874,5.7974,18.7035,4.5344,19.4628Z"/>
    <path class="cls-14" d="M646.0857,475.6927c-4.2272-6.0638,3.0557-18.9047,5.1289-22.6226,10.1476-18.1973,27.5669-27.6301,28.2804-26.513.8159,1.2775-15.4381,10.612-21.521,29.4313-3.4389,10.639-2.3819,20.5164-6.4203,22.148-2.0075.811-4.3223-.8002-5.468-2.4436Z"/>
    <path class="cls-20" d="M567.2155,493.1028c1.4501,1.5394,3.2619,3.9548,3.8114,7.1841.9435,5.5449-2.4372,10.0597-4.0399,13.0414-2.7836,5.1787-4.7496,13.6372-.641,27.8816.0003.0002,19.1317,17.6805,37.4538,33.7973,41.2956,36.3248,45.9768,36.6283,50.2698,47.4309,3.413,8.5881,6.4839,12.2524,9.5933,13.2626,5.5517,1.8036,12.2857-5.1837,13.3288-6.2903-.1308,1.0183-.3924,2.4469-.9649,4.0756-1.3508,3.8429-3.935,7.3849-6.5092,9.1186-5.104,3.4374-12.2594,1.1742-15.2138.2397-19.4342-6.1469-94.4814-84.4183-98.669-88.8019-.7831-18.6299-1.5663-37.26-2.3495-55.89,1.3524-.4912,4.7712-1.7318,6.1239-2.2222,2.0441-.7412,5.7616-2.0877,7.8063-2.8275Z"/>
    <path class="cls-16" d="M622.859,605.0839c5.8238,3.3614,8.906,1.3604,12.9727,4.5732,4.7088,3.7202,6.5108,11.0916,4.7492,12.4723-2.7965,2.1918-15.6367-9.8826-20.9212-14.8519-10.5244-9.8968-19.2208-20.7909-18.5265-21.4592.56-.539,7.5863,5.2302,13.1254,10.8428,5.1217,5.1896,5.2847,6.509,8.6004,8.4228Z"/>
    <path class="cls-16" d="M671.8197,638.8275c.1514.1257-.7694,2.3466-2.8403,3.2851-2.0679.9372-4.348.1719-4.3427-.0137.0045-.1607,1.7198.1959,3.7607-.665,2.2733-.9588,3.281-2.7238,3.4223-2.6065Z"/>
    <ellipse class="cls-16" cx="672.5935" cy="637.4612" rx="1.2278" ry=".4646" transform="translate(-236.9915 814.6447) rotate(-54.4868)"/>
    <ellipse class="cls-16" cx="564.4736" cy="502.1226" rx="4.7942" ry="2.6894" transform="translate(-172.1424 669.9154) rotate(-54.4868)"/>
    <ellipse class="cls-16" cx="559.9758" cy="505.8082" rx=".7601" ry="1.1693" transform="translate(-177.0274 667.799) rotate(-54.4868)"/>
    <ellipse class="cls-16" cx="560.0052" cy="503.754" rx=".8185" ry=".4677" transform="translate(-175.3431 666.962) rotate(-54.4868)"/>
  </g>
</svg>