<?xml version="1.0" encoding="UTF-8"?>
<svg id="Layer_1" xmlns="http://www.w3.org/2000/svg" version="1.1" viewBox="0 0 1621.4173 1264.252">
  <!-- Generator: Adobe Illustrator 29.4.0, SVG Export Plug-In . SVG Version: 2.1.0 Build 152)  -->
  <path d="M782.6845,646.3387c2.6325,2.6728,7.2827,3.978,10.891,3.1318,3.0855-.7236,3.156-2.4921,6.6925-5.2821,7.0781-5.5841,15.205-5.1344,15.3806-7.9424.0907-1.4514-2.0815-1.5566-4.9989-5.1577-2.857-3.5265-2.1378-5.1094-3.8181-5.6161-3.0847-.9303-5.6943,4.3483-14.6503,7.6925-5.6025,2.092-8.0682,1.3284-10.1347,3.5976-2.256,2.4774-2.2671,6.6268.6379,9.5764Z" style="fill: #1c303c;"/>
  <path d="M806.0112,619.7855c-3.8085,3.9229-7.7662,11.5229-3.1193,15.9976,5.1187,4.929,16.8868,2.4156,22.1837.5159,7.6966-2.7604,14.653-8.8596,13.0631-12.4662-.7184-1.6295-2.6362-1.5137-5.2821-4.3906-2.9691-3.2284-2.02-4.9682-3.8638-6.2534-4.0297-2.809-16.5286-.0501-22.9816,6.5967Z" style="fill: #475564;"/>
  <path d="M830.7457,607.7626c-3.2703,2.1952-1.66,7.9391,1.5008,11.3687,3.0182,3.2749,9.2831,6.4287,13.1355,4.7647,3.9806-1.7193,4.2234-8.0804.8618-12.0517-3.6344-4.2936-12.0128-6.4212-15.4981-4.0817Z" style="fill: #232f40;"/>
  <path d="M841.521,615.0886c-2.4222,1.3209-3.0047,3.9142-1.301,5.7922,1.7037,1.878,5.0485,2.3296,7.4707,1.0087,2.4222-1.3209,3.0047-3.9142,1.301-5.7922-1.7037-1.878-5.0485-2.3296-7.4707-1.0087Z" style="fill: #495866;"/>
  <path d="M845.57,616.0949c-.9076.495-1.1258,1.4666-.4875,2.1703s1.8917.8729,2.7993.3779c.9076-.495,1.1258-1.4666.4875-2.1703-.6384-.7037-1.8917-.8729-2.7993-.3779Z" style="fill: #7d8c9d;"/>
  <path d="M833.7065,607.0442c-2.4222,1.3209-3.0047,3.9142-1.301,5.7922,1.7037,1.878,5.0485,2.3296,7.4707,1.0087,2.4222-1.3209,3.0047-3.9142,1.301-5.7922-1.7037-1.878-5.0485-2.3296-7.4707-1.0087Z" style="fill: #495866;"/>
  <path d="M837.7556,608.0505c-.9076.495-1.1258,1.4666-.4875,2.1703.6384.7037,1.8917.8729,2.7993.3779.9076-.495,1.1258-1.4666.4875-2.1703-.6384-.7037-1.8917-.8729-2.7993-.3779Z" style="fill: #7d8c9d;"/>
  <path d="M835.1264,630.3233c2.9764,1.0069,5.9528,2.0137,8.9291,3.0206,6.2078-2.6516,12.4156-5.3032,18.6234-7.9547.961-.2116,1.9821.1808,2.3455.8975.3667.7235-.0482,1.5577-.9521,1.9043-6.4989,2.7526-12.9978,5.5053-19.4967,8.2579-3.3324-.6726-6.6648-1.3451-9.9972-2.0177-.1968-.3864-.5451-1.2251-.3487-2.2832.1601-.8625.6114-1.4895.8968-1.8246Z" style="fill: #232f40;"/>
  <path d="M819.7959,612.563c-.2161-2.5121-.4322-5.0243-.6483-7.5365,5.3171-3.6334,10.6342-7.2667,15.9513-10.9001.5817-.6297.4505-1.5074-.2966-2.0148-.7542-.5122-1.9071-.4914-2.6334.051-5.5382,3.8117-11.0763,7.6233-16.6145,11.4349-.31,2.6589-.6201,5.3178-.9301,7.9768.4026.2742,1.3029.8119,2.6536,1.0262,1.1011.1747,2.0148.0574,2.518-.0376Z" style="fill: #232f40;"/>
  <path d="M833.1783,643.9998l6.3461,6.4326c-1.3098,1.3876-3.1441,3.6832-4.2757,6.8208-1.0535,2.9213-1.0921,5.4469-.9508,7.11-.1107.6191-.6987,1.1076-1.4233,1.209-.877.1227-1.8078-.342-2.0478-1.0969-.1951-1.7582-.2269-4.7789,1.3495-8.2178,1.1496-2.5077,2.756-4.369,3.9971-5.5806-1.6888-1.4864-3.3776-2.9729-5.0664-4.4593-.9292-.4584-1.2671-1.2898-.9459-1.8339.3925-.6649,1.8407-1.0214,3.0172-.384Z" style="fill: #232f40;"/>
  <path d="M803.2068,610.6471l-5.6632-6.8051c-2.5564.3314-5.8988.5741-9.7851.36-3.5421-.1952-6.5523-.7157-8.8918-1.2554-.7889-.1285-1.5807.1354-1.9488.6299-.4454.5984-.1959,1.4347.6393,1.865,2.6652.5181,6.0145.9831,9.9003,1.1011,3.3051.1004,6.2299-.0735,8.6565-.3381,1.2335,1.7347,2.467,3.4695,3.7004,5.2042.2423.8329,1.1373,1.3606,1.9063,1.3101.9398-.0617,1.862-.9978,1.486-2.0718Z" style="fill: #232f40;"/>
  <path d="M835.4711,629.956c.4791,2.0671.6306,3.9959.5678,5.7686-.5902,16.6676-20.4172,27.9906-26.0251,30.9865-1.3134-.2237-10.0432-1.8124-13.1807-7.3554-3.2297-5.7059,1.3641-13.2352,7.9817-17.608,1.6781-1.1089,3.4863-2.0148,5.3302-2.6365,7.1074-2.3967,10.9288-1.5006,16.5395-3.4299,2.3306-.8014,5.5943-2.3602,8.7866-5.7253Z" style="fill: #c8c7c6;"/>
  <path d="M807.5144,640.1796h0c-.935.3611-.9569.3695-.9624.3717-.9202.3564-2.3745,1.1172-2.8553,1.3873-7.2725,4.0845-11.0217,9.2225-11.0217,9.2226-1.5385,2.1084-2.902,3.9477-3.3924,6.5989-1.3943,7.538,5.0653,15.6593,8.5289,15.3088.4662-.0472.857-.2457,1.1785-.4943,3.7436-1.9921,7.4872-3.9841,11.2308-5.9762-.9098-.1422-9.7653-1.638-12.9056-7.5796-3.3371-6.314,2.3671-12.5146,3.8451-14.1174,2.1919-2.3768,4.6935-3.8718,6.3542-4.7218Z" style="fill: #b7b7b8;"/>
  <path d="M821.1735,612.3146c-2.3453-.9988-4.6303-1.7275-6.8003-2.2571-20.4333-4.9867-40.5348,5.2747-46.4109,8.5155-.1725,1.034-1.1949,7.941,4.473,12.104,5.8345,4.2854,16.5269,3.4785,24.0719.128,1.9133-.8496,3.6242-1.8629,5.0022-2.9981,5.2969-4.3637,5.5299-7.4365,9.7543-10.9091,1.7565-1.4439,4.7495-3.3319,9.9099-4.5832Z" style="fill: #c8c7c6;"/>
  <path d="M798.465,629.9124c-3.3407,2.178-9.244,5.3591-17.488,6.5689-2.8316.4155-5.6355.805-9.1569.2448-9.6214-1.5307-17.2961-8.9893-15.6999-11.3982.2148-.3242.5879-.5423.9984-.6929,3.6836-2.0582,7.3671-4.1165,11.0506-6.1747-.1349.7119-1.3126,7.6792,4.8382,11.9791,6.465,4.5195,15.8991,2.5076,18.4364,1.9665,3.0843-.6578,5.4501-1.6837,7.0213-2.4933Z" style="fill: #b7b7b8;"/>
  <ellipse cx="845.4178" cy="611.6657" rx=".2593" ry=".9852" transform="translate(-189.4586 745.4456) rotate(-43.2519)" style="fill: #566475;"/>
  <path d="M846.2142,617.2709c-.4361.2378-.5444.701-.2418,1.0346.3026.3336.9015.4112,1.3376.1733.4361-.2378.5444-.701.2418-1.0346-.3026-.3336-.9015-.4112-1.3376-.1733Z" style="fill: #b5c0d2;"/>
  <path d="M837.9591,608.2418c-.4361.2378-.5444.701-.2418,1.0346.3026.3336.9015.4112,1.3376.1733.4361-.2378.5444-.701.2418-1.0346s-.9015-.4112-1.3376-.1733Z" style="fill: #b5c0d2;"/>
  <path d="M845.7665,616.5752c-.1238.0675-.151.2028-.0608.3022s.2636.1252.3873.0577c.1238-.0675.151-.2028.0608-.3022s-.2636-.1252-.3873-.0577Z" style="fill: #b5c0d2;"/>
  <path d="M838.5198,609.9433c-.1238.0675-.151.2028-.0608.3022.0902.0994.2636.1252.3873.0577s.151-.2028.0608-.3022-.2636-.1252-.3873-.0577Z" style="fill: #b5c0d2;"/>
  <path d="M838.5045,620.6742c-.4352.2373-.3914.8668.0977,1.406.4892.5392,1.2385.7839,1.6737.5466s.3914-.8668-.0977-1.406-1.2385-.7839-1.6737-.5466Z" style="fill: #2e3b4d;"/>
  <ellipse cx="838.5046" cy="620.024" rx=".2723" ry=".4297" transform="translate(-165.6593 901.4038) rotate(-52.1343)" style="fill: #2e3b4d;"/>
  <ellipse cx="837.9255" cy="620.5377" rx=".1302" ry=".2054" transform="translate(-166.2885 901.145) rotate(-52.1343)" style="fill: #2e3b4d;"/>
  <ellipse cx="804.7443" cy="630.1124" rx="1.6271" ry="2.039" transform="translate(-118.2613 191.1185) rotate(-12.6244)" style="fill: #54616e;"/>
  <ellipse cx="805.1804" cy="627.1327" rx=".5191" ry=".6504" transform="translate(-117.5995 191.1418) rotate(-12.6244)" style="fill: #54616e;"/>
  <ellipse cx="803.7713" cy="627.5192" rx=".2481" ry=".3109" transform="translate(-117.7181 190.8431) rotate(-12.6244)" style="fill: #54616e;"/>
  <path d="M762.0367,623.7189c-1.1192-.3977-2.6911.404-3.5108,1.7907-.8197,1.3867-.5769,2.8333.5423,3.231s2.6911-.404,3.5108-1.7907.5769-2.8333-.5423-3.231Z" style="fill: #ababab;"/>
  <path d="M764.1864,622.1599c-.357-.1269-.8585.1289-1.12.5713s-.184.9038.173,1.0307.8585-.1289,1.12-.5713c.2615-.4424.184-.9038-.173-1.0307Z" style="fill: #ababab;"/>
  <ellipse cx="761.7135" cy="622.6623" rx=".4536" ry=".3157" transform="translate(-210.0999 775.9418) rotate(-48.2274)" style="fill: #ababab;"/>
  <path d="M835.9453,632.8478c.3426-.1258.8537-.2609,1.4251-.1856.9202.1211,1.4394.7196,1.835,1.0557.6632.5636,1.8896,1.1682,4.3667,1.2781h0s3.8533-1.5813,7.4148-3.1308c8.0271-3.4923,8.3348-4.0523,10.2787-4.1131.7981-.0249,2.0926.0186,2.6264-.6037.4226-.4926.1937-1.1978-.0896-1.7443.1061.0246.2571.0659.4261.1354.694.2857,1.1048.808,1.2242,1.1576.266.7788-.4857,1.7067-.9521,1.9043-6.4989,2.7526-12.9978,5.5053-19.4967,8.2579-2.985-.7057-5.97-1.4114-8.955-2.1171-.021-.2749-.0398-.5533-.0559-.8352-.0205-.3583-.0363-.7115-.0477-1.0592Z" style="fill: #374454;"/>
  <path d="M856.7935,630.8261c.8539-.5683.709-1.0317,1.442-1.3913.8487-.4164,2.1126-.3198,2.2328-.0447.1909.4366-2.4281,1.489-3.506,1.9221-2.1467.8625-4.3494,1.4584-4.4164,1.3446-.054-.0917,1.2468-.7037,2.4404-1.1402,1.1036-.4037,1.321-.3669,1.8072-.6904Z" style="fill: #566675;"/>
  <path d="M864.8384,626.2844c.0282-.0131.3278.1951.3611.489.0332.2935-.2141.5397-.2432.531-.0251-.0075.1264-.2021.1037-.489-.0252-.3195-.248-.5188-.2216-.5311Z" style="fill: #566675;"/>
  <ellipse cx="864.6656" cy="626.1309" rx=".07" ry=".1769" transform="translate(-190.0016 791.55) rotate(-44.8234)" style="fill: #566675;"/>
  <path d="M836.835,633.0346c-.2033.1109-.1615.4286.0935.7096.2549.281.6264.4189.8298.3081.2033-.1109.1615-.4286-.0935-.7096s-.6264-.4189-.8298-.3081Z" style="fill: #566675;"/>
  <ellipse cx="837.6289" cy="634.2526" rx=".185" ry=".1043" transform="translate(-176.0337 357.8711) rotate(-21.8817)" style="fill: #566675;"/>
  <ellipse cx="837.3062" cy="634.1606" rx=".0697" ry=".1192" transform="translate(-187.6915 863.5534) rotate(-49.7545)" style="fill: #566675;"/>
  <path d="M782.1043,639.4447c.3977-.1755.1188,2.916,3.0357,5.8889,2.5241,2.5726,5.7775,3.3608,5.45,3.5784-.3533.2347-4.7483-.2787-7.1705-2.5951-2.8226-2.6993-1.7475-6.6814-1.3152-6.8722Z" style="fill: #2a424e;"/>
  <path d="M807.3933,640.2103c.1065-.1114-4.0301-.9544-6.5516-3.9363-2.5609-3.0286-1.8933-6.4157-2.0648-6.3828-.1792.0343-1.1835,3.7825,1.3537,6.7682,2.4902,2.9303,7.1518,3.667,7.2627,3.5509Z" style="fill: #2a424e;"/>
  <path d="M804.4483,641.528c.1074-.1107-3.9904-.9048-6.4519-3.8209-2.5-2.9618-1.7867-6.3054-1.9577-6.2715-.1785.0354-1.2317,3.7379,1.2454,6.6576,2.4312,2.8656,7.0522,3.5502,7.1641,3.4349Z" style="fill: #2a424e;"/>
  <path d="M801.3123,643.3678c.0827-.1229-4.0165-.9657-6.528-3.9092-2.5796-3.0232-1.8882-6.3918-2.0648-6.3828-.1858.0095-1.2391,3.7502,1.3537,6.7682,2.5148,2.9271,7.1524,3.6526,7.2391,3.5238Z" style="fill: #2a424e;"/>
  <path d="M798.6117,645.3483c.1047-.1137-4.1494-1.0801-6.8307-4.2385-2.7232-3.2078-2.1624-6.7196-2.3364-6.689-.1817.0319-1.0735,3.9123,1.624,7.075,2.6475,3.104,7.4339,3.971,7.5431,3.8526Z" style="fill: #2a424e;"/>
  <path d="M795.222,648.1366c.1004-.1185-4.4058-1.3627-7.4414-4.9117-3.0831-3.6045-2.7682-7.3873-2.9471-7.3622-.1869.0262-.8183,4.1935,2.2345,7.7479,2.9962,3.4884,8.0494,4.6494,8.154,4.526Z" style="fill: #2a424e;"/>
  <path d="M807.4868,640.1593c.0345-.0467-4.0474-.9893-6.5516-3.9363-2.5611-3.0141-1.9964-6.3883-2.0648-6.3828-.0696.0056-.775,3.5097,1.7974,6.5287,2.5099,2.9456,6.784,3.8378,6.819,3.7904Z" style="fill: #446370;"/>
  <path d="M804.5418,641.477c.0324-.0447-4.0077-.9408-6.4519-3.8209-2.5016-2.9478-1.8909-6.2763-1.9577-6.2715-.0678.0049-.8176,3.4459,1.6876,6.3989,2.4527,2.8911,6.689,3.739,6.7219,3.6936Z" style="fill: #446370;"/>
  <path d="M801.4059,643.3168c.0411-.0564-4.0282-.9783-6.528-3.9092-2.5686-3.0115-1.9833-6.389-2.0648-6.3828-.0834.0063-.8365,3.5507,1.751,6.5674,2.5053,2.9207,6.7999,3.7821,6.8418,3.7246Z" style="fill: #446370;"/>
  <path d="M798.7052,645.2973c.0461-.0602-4.1645-1.1107-6.8307-4.2385-2.7227-3.1941-2.2514-6.6971-2.3364-6.689-.0873.0083-.7274,3.7144,2.0302,6.9135,2.6635,3.09,7.0901,4.0752,7.137,4.014Z" style="fill: #446370;"/>
  <path d="M795.3155,648.0856c.0423-.0498-4.4253-1.3897-7.4414-4.9117-3.069-3.5838-2.8753-7.3721-2.9471-7.3622-.0734.0101-.3954,3.9819,2.7007,7.5631,3.0011,3.4713,7.645,4.7612,7.6878,4.7108Z" style="fill: #446370;"/>
  <path d="M782.8345,614.5771c-2.7878,1.5203-7.4109,5.1028-6.1463,8.2693,1.8632,4.6654,15.0556,4.7999,15.9641,3.0966.5309-.9953-3.4526-2.0185-3.8486-4.7861-.5739-4.0107,7.3948-6.893,6.1463-8.2693-1.6483-1.817-7.0726-1.0605-12.1155,1.6895Z" style="fill: #f0efef;"/>
  <path d="M795.5643,615.4014c.8226-.4486,1.9584-.2952,2.537.3425.5786.6378.3808,1.5184-.4418,1.967-.8226.4486-1.9584.2952-2.537-.3425-.5786-.6378-.3808-1.5184.4418-1.967Z" style="fill: #f3f1ec;"/>
  <path d="M796.2305,616.4863c-.4437.242-.5504.717-.2383,1.0611s.9248.4268,1.3685.1848c.4437-.242.5504-.717.2383-1.0611s-.9248-.4268-1.3685-.1848Z" style="fill: #fff;"/>
  <path d="M779.4861,618.7283c1.3519-1.257,3.5288-1.6834,3.761-1.408.3328.3947-3.6299,1.8734-3.5289,4.0021.0827,1.7424,2.8345,2.7904,2.6113,3.019-.2192.2245-3.1852-.4653-3.9345-2.2974-.6682-1.6339.8646-3.1051,1.0911-3.3157Z" style="fill: #fff;"/>
  <path d="M817.9807,656.2449c5.3516-2.9184,8.7278-6.3447,7.5411-7.6528-.8093-.8921-7.112,4.4444-11.8387,2.9157-2.9902-.9671-3.0326-3.8695-4.5884-3.8296-2.7571.0708-6.6622,9.2908-2.9527,11.4824,3.2116,1.8975,10.7249-2.3083,11.8387-2.9156Z" style="fill: #f0efef;"/>
  <path d="M829.2018,622.9162c-.4437.242-1.0564.1593-1.3685-.1848-.3121-.344-.2054-.8191.2383-1.0611.4437-.242,1.0564-.1593,1.3685.1848.3121.344.2054.8191-.2383,1.0611Z" style="fill: #9facc8;"/>
  <path d="M819.0569,635.2609c2.9701-.8721,4.8946-3.0158,4.5258-3.393-.5285-.5405-5.2885,3.0366-9.0424,1.9431-3.0728-.8951-3.479-4.3391-4.0072-4.2048-.5186.1319-.8675,3.6405,2.0101,5.2938,2.5663,1.4744,6.0162.5069,6.5137.3608Z" style="fill: #9facc8;"/>
  <path d="M833.8306,644.6609c5.8842,3.3766,6.0242,5.0038,5.7212,5.7123-.0085.0199-.0176.0396-.0273.0592-.0205.0217-.0509.054-.0875.0933-2.6498,2.8408-3.7728,5.5765-4.1881,6.7275-1.0525,2.9168-1.092,5.4434-.9508,7.11-.1107.6191-.6987,1.1076-1.4233,1.209-.877.1227-1.8078-.342-2.0478-1.0969.4467.2905,1.1542.6711,1.7227.5052,1.5621-.4559-.0434-4.4199,1.3444-8.4871.8833-2.5886,2.7585-4.5727,4.587-6.026-.9888-1.6724-2.1286-2.3144-3.0185-2.5834-.6602-.1996-1.6616-.3386-2.0838-.9783-.2175-.3296-.2043-.6754-.1598-.9146" style="fill: #374454;"/>
  <path d="M801.5496,608.718c-.3687-1.3873-1.5568-5.3404-3.794-5.5106-.0759-.0058-.153-.0072-.2314-.004-.0479.011-.1191.0272-.2054.0463-4.3026.9561-7.9657.8549-9.5195.7679-3.9002-.2183-6.9806-1.0444-8.952-1.7096-.1029-.0044-1.3176-.0416-1.9488.6299-.6327.6731-.435,1.7987.6586,2.5037-.5785-1.2694-.3653-1.8096-.0503-2.0664,1.2121-.9883,4.5852,1.6863,10.7567,1.8879,1.5739.0514,3.6375-.6921,8.3366-1.1292.1298-.0121.2368-.0218.3076-.0281.1007-.0032.2585-.0004.4381.0402,1.168.2639,1.4681,1.7697,1.8985,2.8829,0,0,.0283.1132.3196,1.785" style="fill: #374454;"/>
  <path d="M835.3655,647.0335c-.0105.071-.9628.2676-1.3828-.1425-.3929-.3836-.0847-1.0684.2306-1.1275.1619-.0303.3911.092.4466.2388.091.2407-.3375.4094-.2728.6311.0884.3031.9888.3299.9784.4001Z" style="fill: #566675;"/>
  <path d="M833.8564,663.5426c-.0601.0074.1504.4502-.0995.889-.348.6112-1.3333.7659-1.3176.7928.0178.0306,1.3237-.1109,1.6099-.7889.1832-.4339-.1303-.9006-.1927-.8929Z" style="fill: #566675;"/>
  <ellipse cx="831.8504" cy="665.1884" rx=".1419" ry=".11" style="fill: #566675;"/>
  <path d="M799.7648,605.6632c.0804.0163.0003-.6338-.556-1.2121-.3956-.4112-1.0014-.7544-1.1211-.6366-.1434.1412.4114.9439.6526,1.0258.1546.0525.1114-.2146.2679-.1609.2674.0917.6667.9656.7567.9839Z" style="fill: #566675;"/>
  <path d="M790.7669,604.6041c-3.5858.0843-6.1617-.4916-6.1827-.4064-.0232.0944,3.1194.8896,6.2972.5978.3587-.0329,1.399-.1422,1.3936-.1907-.0053-.0477-1.024-.0122-1.5082-.0008Z" style="fill: #566675;"/>
  <ellipse cx="783.6291" cy="604.0415" rx=".1296" ry=".3115" transform="translate(92.9777 1312.5196) rotate(-83.3559)" style="fill: #566675;"/>
  <ellipse cx="783.9057" cy="604.2255" rx=".0894" ry=".0254" transform="translate(-56.4535 81.3555) rotate(-5.7348)" style="fill: #566675;"/>
  <ellipse cx="783.6827" cy="604.2641" rx=".081" ry=".0438" transform="translate(-5.5307 7.2415) rotate(-.5276)" style="fill: #566675;"/>
  <path d="M835.0999,654.5102c-1.3145,2.588-1.4861,4.6622-1.5966,4.6487-.1225-.015-.0254-2.5768,1.403-4.797.1612-.2506.6456-.9727.7025-.9524.0561.02-.3314.7513-.5089,1.1007Z" style="fill: #566675;"/>
  <ellipse cx="833.9983" cy="658.9944" rx=".399" ry=".0876" transform="translate(50.1729 1376.939) rotate(-80.8026)" style="fill: #566675;"/>
  <path d="M838.8148,650.5496c-.0787.1608-.2801.2262-.2656.2432.0155.0181.2661-.031.3635-.1788.1425-.2164-.1414-.4951-.1602-.4895-.0161.0048.1641.217.0623.4252Z" style="fill: #566675;"/>
  <path d="M777.8758,603.8649c-.0746.1121.0582.3285.2499.4158.2677.1219.5219-.0659.9179-.1027.7655-.071,1.2676.4961,1.2995.46.028-.0317-.3727-.4529-1.0749-.6912-.5179-.1758-1.2647-.2741-1.3925-.0819Z" style="fill: #1a2431;"/>
  <path d="M799.0353,604.9216c-.0225.0123.0006.0677.0515.1238s.1104.0917.1329.0794-.0006-.0677-.0515-.1238-.1104-.0917-.1329-.0794Z" style="fill: #566675;"/>
  <ellipse cx="778.4844" cy="604.9338" rx=".1296" ry=".2268" transform="translate(-188.077 799.2068) rotate(-49.2142)" style="fill: #1a2431;"/>
  <path d="M796.1349,604.6152c.0268-.0797.8451-.2727,1.4332.031.859.4436.7496,1.7004.6758,1.7324-.063.0272-.0667-.8516-.8206-1.3575-.5984-.4015-1.3141-.3295-1.2884-.4059Z" style="fill: #1a2431;"/>
  <ellipse cx="795.8016" cy="604.8252" rx=".1277" ry=".2143" transform="translate(-178.1569 829.5882) rotate(-50.2304)" style="fill: #1a2431;"/>
  <path d="M832.4828,664.5249c-.1613.0165-.379-.1535-.4202-.3229-.0575-.2365.2564-.3585.4349-.6351.345-.5346-.1738-1.0927-.1192-1.1037.0479-.0097.4238.425.4757,1.018.0383.4373-.0948,1.0154-.3712,1.0437Z" style="fill: #1a2431;"/>
  <ellipse cx="831.403" cy="664.2022" rx=".1145" ry=".3995" transform="translate(1.609 1330.4136) rotate(-77.3808)" style="fill: #1a2431;"/>
  <path d="M836.908,651.0942c.1058.0074.6167-.5244.4468-1.0562-.2481-.7768-1.8107-1.1218-1.8744-1.0787-.0544.0367,1.0112.3365,1.3704,1.0576.2851.5724-.0442,1.0702.0572,1.0773Z" style="fill: #1a2431;"/>
  <path d="M833.8226,654.5307c-1.0173,1.6479-1.4744,2.8679-1.5109,2.8775-.0379.01.3935-1.2866,1.3423-2.8449,1.0862-1.7841,2.3149-3.0312,2.3287-3.0019.0129.0275-1.0436,1.1608-2.1601,2.9693Z" style="fill: #1a2431;"/>
  <path d="M782.1272,642.904c.108-.0364.3475,1.1561,1.5921,2.5642,1.077,1.2185,2.1967,1.7954,2.1155,1.854-.0876.0633-1.5416-.4993-2.5589-1.6087-1.1855-1.2928-1.266-2.7701-1.1486-2.8096Z" style="fill: #6a818b;"/>
  <ellipse cx="786.6008" cy="647.7232" rx=".1694" ry=".3225" transform="translate(-122.9595 1107.0556) rotate(-66.2636)" style="fill: #6a818b;"/>
  <ellipse cx="787.3709" cy="647.9532" rx=".15" ry=".1163" style="fill: #6a818b;"/>
  <path d="M815.8944,614.8591c-1.4412.6752-5.6876,2.6649-6.2343,5.9102-.0704.418-.2897,1.7197.5461,2.1492,1.2024.6179,3.317-1.2222,6.2541-2.3192,6.8624-2.5631,14.3545.3725,15.0151-1.0311.3127-.6644-1.4309-1.184-2.3382-3.5092-.6365-1.6312-.0676-2.1166-.6749-2.7484-1.6468-1.7129-8.1262-.5327-12.5679,1.5484Z" style="fill: #9facc8;"/>
  <path d="M816.6348,614.8384c-1.2866.6028-5.0776,2.379-5.5656,5.2763-.0629.3732-.2586,1.5352.4876,1.9187,1.0734.5516,2.9612-1.0911,5.5833-2.0705,6.1264-2.2882,12.8149.3325,13.4046-.9205.2791-.5931-1.2774-1.057-2.0874-3.1328-.5682-1.4562-.0603-1.8896-.6025-2.4536-1.4702-1.5292-7.2546-.4756-11.2199,1.3824Z" style="fill: #b5c0d2;"/>
  <path d="M812.7593,646.8448c.8226-.4486,1.9584-.2952,2.537.3425.5786.6378.3808,1.5184-.4418,1.967s-1.9584.2952-2.537-.3425c-.5786-.6378-.3808-1.5184.4418-1.967Z" style="fill: #f3f1ec;"/>
  <path d="M813.4255,647.9297c-.4437.242-.5504.717-.2383,1.0611.3121.344.9248.4268,1.3685.1848.4437-.242.5504-.717.2383-1.0611-.3121-.344-.9248-.4268-1.3685-.1848Z" style="fill: #fff;"/>
  <path d="M811.6073,658.6876c1.9828-.5615,3.2363-2.0059,2.9804-2.2684-.3667-.3762-3.5011,2.0154-6.0508,1.2221-2.0871-.6493-2.429-3.0115-2.782-2.9259-.3466.0841-.5119,2.4815,1.4588,3.6475,1.7574,1.0399,4.0615.4187,4.3936.3247Z" style="fill: #fff;"/>
  <ellipse cx="797.7624" cy="669.1185" rx="3.5583" ry="1.7304" transform="translate(-33.9671 42.7237) rotate(-3.0038)" style="fill: #ababab;"/>
  <ellipse cx="802.7987" cy="667.9174" rx="1.1351" ry=".552" transform="translate(-33.8973 42.986) rotate(-3.0038)" style="fill: #ababab;"/>
  <ellipse cx="802.4852" cy="669.4773" rx=".5426" ry=".2639" transform="translate(-33.9794 42.9717) rotate(-3.0038)" style="fill: #ababab;"/>
  <path d="M792.7899,655.0835c-.3433-.0885-2.9474,2.7063-2.7349,6.0698.2454,3.8833,4.1093,6.3732,4.1697,6.3423.0619-.0317-3.453-2.9318-2.872-6.2833.0533-.3074.0668-.1904.4296-1.4957.7477-2.6903,1.269-4.5658,1.0076-4.6332Z" style="fill: #ababab;"/>
  <path d="M778.1042,634.8136c-.0086.2804-4.2815,1.2358-8.2925-.0562-4.6309-1.4917-6.3472-5.1528-6.2893-5.1865.0594-.0345,2.3916,3.5106,6.6562,4.2196.3911.065.2537.0156,1.9608.1921,3.5184.3638,5.9712.6174,5.9647.8309Z" style="fill: #ababab;"/>
  <path d="M841.2746,619.2045c-.2609.1126.1061,1.9498,1.798,2.6842,1.7185.746,3.9689-.0083,3.9526-.2397-.0135-.1917-1.5755.0692-3.304-.6764-1.6948-.7311-2.2311-1.8611-2.4466-1.768Z" style="fill: #b5c0d2;"/>
  <path d="M834.4232,607.3425c-.2559-.1193-2.1278,1.0424-2.1066,2.5457.0216,1.5269,1.986,2.6642,2.2367,2.538.2076-.1045-.8621-1.0247-.889-2.5582-.0264-1.5036.9703-2.4269.7589-2.5254Z" style="fill: #b5c0d2;"/>
  <path d="M830.2824,613.0689c-.7075.7868.5114,2.453.8584,2.9355,1.6983,2.3612,4.6136,3.5852,4.733,3.4403.1366-.1658-2.5837-1.377-3.6018-3.8189-.5755-1.3805-.3986-2.6622-1.0745-2.8739-.336-.1052-.7234.1038-.9151.3171Z" style="fill: #2e3b4d;"/>
  <path d="M817.0827,610.8098c.2427-.1997.5459-.5132.6379-.9322.1579-.7195-.4079-1.3053-.6761-1.6922-.4659-.672-.7949-1.7695-.1073-3.6179,0,0,3.2019-2.2942,6.2683-4.3855,6.9113-4.7134,7.6947-4.7528,8.4132-6.1545.5712-1.1144,1.0851-1.5898,1.6055-1.7209.9291-.234,2.0561.6726,2.2307.8162-.0219-.1321-.0657-.3175-.1615-.5288-.2261-.4986-.6586-.9582-1.0894-1.1832-.8542-.446-2.0517-.1524-2.5462-.0311-3.2525.7976-15.8125,10.9539-16.5133,11.5227-.1311,2.4174-.2621,4.8348-.3932,7.2522.2263.0637.7985.2247,1.0249.2884.3421.0962.9643.2709,1.3065.3669Z" style="fill: #374454;"/>
  <path d="M826.3952,596.2794c.9747-.4362,1.4905-.1765,2.1711-.5934.7881-.4827,1.0896-1.4392.7948-1.6184-.468-.2844-2.617,1.2823-3.5014,1.9271-1.7614,1.2842-3.2168,2.6978-3.1006,2.7845.0937.0699,1.2696-.6787,2.1967-1.4069.8572-.6734.8845-.8446,1.4394-1.0929Z" style="fill: #566675;"/>
  <path d="M834.5893,591.9009c.0253-.0163-.1288-.3045-.4753-.4263-.3461-.1216-.7277-.0223-.7268.0018.0008.0209.2878-.0254.6294.0863.3805.1244.5491.3534.5728.3382Z" style="fill: #566675;"/>
  <ellipse cx="834.7188" cy="592.0782" rx=".0699" ry=".1772" transform="translate(-173.4892 767.6593) rotate(-45.2277)" style="fill: #566675;"/>
  <path d="M817.0899,610.1458c-.2023.112-.575-.024-.8325-.3036-.2574-.2797-.3021-.5971-.0997-.7091s.575.024.8325.3036.3021.5971.0997.7091Z" style="fill: #566675;"/>
  <ellipse cx="815.871" cy="609.1612" rx=".1848" ry=".1045" transform="translate(-169.4437 352.4945) rotate(-22.1458)" style="fill: #566675;"/>
  <ellipse cx="815.876" cy="609.4278" rx=".0696" ry=".1194" transform="translate(-174.9016 844.8329) rotate(-50.1237)" style="fill: #566675;"/>
</svg>