<?xml version="1.0" encoding="UTF-8"?>
<svg id="Layer_1" data-name="Layer 1" xmlns="http://www.w3.org/2000/svg" viewBox="0 0 1621.4173 1264.252">
  <defs>
    <style>
      .cls-1 {
        fill: #6a4426;
      }

      .cls-2 {
        fill: #9b6a41;
      }

      .cls-3 {
        fill: #dbebef;
      }

      .cls-4 {
        fill: #aa7a4e;
      }

      .cls-5 {
        fill: #7d4f29;
      }

      .cls-6 {
        fill: #91612d;
      }

      .cls-7 {
        fill: #a57242;
      }

      .cls-8 {
        fill: #c7e9f1;
      }

      .cls-9 {
        fill: #a5d4e2;
      }

      .cls-10 {
        fill: #f2fafe;
      }

      .cls-11 {
        fill: #b0815c;
      }

      .cls-12 {
        fill: #8b5b2d;
      }

      .cls-13 {
        fill: #edeced;
      }

      .cls-14 {
        fill: #94673b;
      }

      .cls-15 {
        fill: #c8c8c8;
      }
    </style>
  </defs>
  <path class="cls-5" d="M660.0026,1098.8259c6.7704-2.3986,15.0378-2.3652,18.6972-7.1277,7.3466-9.5607-15.6761-23.0942-9.4979-28.6882,6.6189-5.9931,35.4389,7.3705,52.7669-1.4344,8.9792-4.5627,6.6302-10.8895,13.7194-12.1925,12.0876-2.2216,35.441,13.1355,35.8814,28.6882.2836,10.0083-9.0295,16.2872-6.0442,20.6652"/>
  <g>
    <g>
      <path class="cls-6" d="M149.0097,624.4431c-.4064,33.9881,2.986,93.5867,30.4467,155.1048,49.47,110.8241,140.4614,145.9124,164.5597,154.1968,202.5192,44.3723,405.0384,88.7447,607.5577,133.117,14.9288.407,121.5699,1.2726,194.282-96.7788,19.1814-25.8657,49.9265-61.4403,49.3795-109.9975-.0292-2.5877-.1381-4.7257-.2288-6.1639.256-.7888.4644-1.8931.0545-2.9795-2.031-5.3822-16.9251-4.1892-23.5138-3.9554-25.5911.9081-29.4541-8.9797-50.8363-9.642-35.1982-1.0903-44.4944,24.7404-66.2515,18.3896-16.8942-4.9313-16.6465-22.2286-33.2076-39.5836-24.0478-25.2005-59.0307-27.3537-82.1145-29.359-100.2917-8.7125-235.9048-37.2151-290.2827-48.644-78.0298-16.4-65.6726-22.1029-188.6745-50.9117-102.5753-24.0247-106.0173-18.852-156.8311-36.3126-69.8477-24.001-153.092-64.6135-158.9329-54.4105-.8275,1.4455-.2216,5.3736.9903,13.2298.9106,5.903,2.3012,10.8711,3.6033,14.7004Z"/>
      <rect class="cls-6" x="731.3249" y="6.44" width="50.6215" height="808.4239" rx="7.1302" ry="7.1302" transform="translate(105.4223 -152.4233) rotate(12.3583)"/>
      <g>
        <path class="cls-15" d="M690.129,577.3792c-.4131,0-.8247-.1104-1.189-.3291-41.2188-24.7002-83.2012-37.2246-124.7808-37.2246-1.2334,0-2.4756.0107-3.7192.0332-35.5195.6367-60.4956,10.1064-80.564,17.7148-6.0781,2.3047-11.8193,4.4814-17.0059,6.043-10.4419,3.1436-21.6045,4.7373-33.1758,4.7373h-.0068c-30.6294-.002-65.9751-11.1572-105.0562-33.1562-47.105-26.5156-101.0059-69.5234-160.2051-127.8291-.6035-.5947-.834-1.4717-.5996-2.2861.2339-.8145.8945-1.4355,1.7222-1.6191,131.4961-29.1562,255.8198-79.6465,369.519-150.0684,47.6177-29.4922,88.6597-60.4609,108.8862-76.2959.0015-.001,2.3193-1.8154,4.7861-3.7666,39.7358-31.4229,97.5503-84.6777,171.8379-158.2852.4443-.4404,1.0332-.6699,1.6289-.6699.3867,0,.7759.0967,1.1304.2949.9004.5049,1.3569,1.5459,1.1196,2.5498l-132.0776,558.377c-.1694.7178-.6714,1.3115-1.3511,1.5986-.2886.1221-.5942.1816-.8994.1816Z"/>
        <path class="cls-15" d="M822.2062,16.6897h.0049M822.2062,16.6897c-44.0256,186.1257-88.0515,372.2515-132.0771,558.3772-28.3467-16.9878-72.2871-37.554-125.968-37.554-1.2473,0-2.5049.0112-3.7625.0337-47.1775.8457-76.7803,17.4087-98.1951,23.855-9.5186,2.8652-20.2815,4.6389-32.5159,4.6389-53.6812,0-135.5642-34.1792-263.6379-160.3192,91.5786-20.3059,226.7156-61.4678,370.2361-150.3601,50.3279-31.1714,92.5447-63.4847,109.0942-76.4407,0-.0001,2.3228-1.819,4.7949-3.774,49.2122-38.917,118.4009-105.317,172.0312-158.4568M822.2076,12.0639c-.0728,0-.1453.0017-.2178.0051-.9666.0444-1.8555.3854-2.5784.9342-.001.0009-.0022.0017-.0032.0026-.0022.0016-.0042.0031-.0061.0046-.0024.0017-.0046.0035-.0068.0052-.0007.0006-.0017.0013-.0027.002-.1538.118-.3018.2468-.4424.3862-74.2241,73.5452-131.9736,126.7426-171.6445,158.1144-2.3003,1.8191-4.4707,3.5197-4.7488,3.7375-.0095.0074-.019.015-.0283.0225h-.0002c-20.1902,15.8062-61.1572,46.7175-108.6785,76.1505-113.4763,70.2837-237.5591,120.6759-368.8018,149.7765-1.6548.3669-2.9763,1.6096-3.4443,3.2386-.468,1.6292-.0078,3.3838,1.2,4.5732,59.3457,58.4497,113.4106,101.5815,160.6929,128.1975,39.4326,22.197,75.1602,33.4519,106.1909,33.4519,11.8022,0,23.1907-1.627,33.8494-4.8354,5.2639-1.5847,11.0417-3.7754,17.1589-6.0945,19.9009-7.5452,44.668-16.9355,79.7856-17.5649,1.2207-.022,2.4587-.033,3.6794-.033,41.156,0,82.7378,12.4136,123.5903,36.896.7283.4365,1.5513.658,2.3779.658.6096,0,1.2212-.1204,1.7983-.364,1.3591-.5735,2.3633-1.7612,2.7029-3.197l66.0386-279.1886L826.6668,17.927c.1091-.3938.1675-.8088.1675-1.2373,0-2.5068-1.9917-4.548-4.4802-4.6235-.0027-.0001-.0054-.0002-.0081-.0002-.0002,0-.0007,0-.0007-.0001-.0461-.0013-.0918-.002-.1377-.002h0ZM822.2062,21.3155h.0049-.0049Z"/>
      </g>
      <path class="cls-13" d="M170.8387,404.2086c15.6287,13.4171,157.6948,133.5853,254.8169,129.0497,24.4431-1.1416,99.1284-12.6621,130.4988-18.0742,19.4153-3.3496,26.9897-5.1807,34.8738-7.6155,35.6665-11.0151,48.864-26.6743,57.8257-20.8564,9.9243,6.4426-2.9504,27.5686,10.9595,50.7549,6.52,10.8689,18.7283,21.8608,25.4443,19.0366,6.4519-2.7131,8.3977-18.4126,2.7664-29.0095-4.2009-7.9053-10.072-8.178-14.0188-13.8408-8.9385-12.8242,4.801-34.8457,10.6946-48.8105,22.8596-54.1688-27.0994-93.6162-5.1523-144.4198,7.3833-17.0913,11.5806-9.2539,37.6592-40.8086,55.6904-67.3843,75.2903-149.9984,86.969-199.2253l.0012-.0052s-4.8059-24.7806-8.3032-24.645c-3.7053.1437,1.3066,27.9764-14.1438,39.9781-8.4326,6.55-14.8376,2.0753-19.7534,8.2361-8.3511,10.4662,7.4421,26.7546,2.9087,48.9437-.6082,2.9768-2.6973,9.4746-15.4761,26.0383-22.9622,29.7637-52.9568,38.7834-99.7908,97.5736-39.3342,49.3755-42.2673,72.8062-38.2834,89.2269,4.1279,17.0148,15.7212,26.6621,11.6067,32.5283-7.3958,10.5438-46.8315-17.7983-94.762-17.5427-43.5637.2323-72.8606,23.9625-92.1277,35.4558-42.5447,25.3789-118.5408,40.1619-265.2131-11.9684Z"/>
      <path class="cls-7" d="M708.7581,747.2715l-30.4082-6.6625c17.9555-36.6823,35.4556-85.1022,40.1174-143.5708,1.7547-22.0073-.2453-21.1593,1.9718-50.4271,3.7106-48.9832,10.0439-61.0133,25.6245-149.0579,9.4947-53.6536,8.4934-56.8186,14.7269-70.717,9.6234-21.4568,21.399-34.8478,25.8907-62.1912,2.7893-16.9796,1.2183-29.8942.7972-34.5409-2.3576-26.0152,5.8354-74.2247,50.1067-171.2061,1.2551-2.4423,2.9585-6.4068,3.5748-11.4828,1.2913-10.635-3.3062-16.9535-.4093-19.5358,2.632-2.3463,9.5222.1112,13.6603,3.5913,9.8635,8.2954,6.3432,24.2956,6.08,25.4156-50.5775,230.1284-101.1552,460.2568-151.7327,690.3853Z"/>
      <path class="cls-12" d="M1149.7591,881.4395c-.0031.0036-.0055.0038-.0068.0037-.2147-.0269,4.3852-15.4679,1.4962-19.123-9.0924-11.504-106.7425,75.5565-146.748,51.3101-17.9812-10.898-8.6091-34.7156-24.2465-53.1759-35.9258-42.411-150.0353,8.8227-213.6782,24.9777-247.9141,62.9298-507.1894-209.1613-526.7175-183.3108-6.3201,8.3663,16.0605,43.1893,139.2623,157.6495,20.5536,17.7798,53.6692,43.2869,98.8916,64.7443,94.8473,45.0041,134.444,20.7098,264.8749,52.65,113.6433,27.8292,132.4514,58.2389,211.2438,51.6685,26.6261-2.2203,78.484-7.2498,126.7079-45.8279,44.3245-35.4588,62.1338-80.5045,68.9203-101.5663Z"/>
      <path class="cls-2" d="M754.8458,405.1263c-6.2864,28.6914-6.4815,53.0243-.4358,54.3489,6.5268,1.43,19.7578-41.2607,22.329-49.5521,2.1232-6.8465,16.4019-52.8906,7.7702-56.9313-.91-.426-2.7282-.6911-7.3343,2.5822-12.484,8.8715-16.9456,24.9811-22.3291,49.5522Z"/>
      <path class="cls-4" d="M760.3565,400.0421c-5.9482,15.8759-3.3334,35.0256.4737,35.7754,1.8287.3601,2.4276-4.3785,14.0022-32.9248,4.6841-11.5522,8.3276-20.0097,5.0354-28.9017-1.0787-2.9133-3.3467-7.0746-5.509-6.8739-2.6269.2439-2.8554,6.9167-6.8972,16.9396-4.0445,10.0298-5.3753,11.3684-7.105,15.9854Z"/>
      <path class="cls-11" d="M716.2031,680.0114c3.5287,1.5804.7316,15.4957-6.2478,31.0808-6.9794,15.5853-15.4979,26.9386-19.0267,25.3582-3.5288-1.5802-.7316-15.4955,6.2478-31.0808.9237-2.0627,4.8151,2.6089,5.7091,5.3766,2.6629,8.2438-8.6254,18.3294-8.3189,18.5766.2476.1995,8.5835-5.5894,12.525-16.693,2.4857-7.0026,1.0179-9.9047,4.1128-20.4602,1.4257-4.8623,4.1731-12.5278,4.9986-12.1582Z"/>
      <path class="cls-4" d="M854.723,39.2182c1.6442,5.9563-.6029,11.8652-1.7312,11.8483-1.3771-.0207-1.4677-8.8566-4.9492-9.5501-1.1923-.2375-1.8137.6729-2.615.2678-2.3298-1.1778-1.3779-10.99,1.7313-11.8483,2.5668-.7086,5.9535,3.4473,7.5642,9.2823Z"/>
      <path class="cls-4" d="M838.0267,81.4266c-2.8809-1.0939-22.293,41.1556-33.1403,78.8928-.8285,2.8821-2.0074,7.1311-3.0998,12.7824-4.9551,25.6342-3.4164,55.7373,2.7999,56.8529,4.1139.7382,11.287-11.0384,12.1041-22.4761.5388-7.5419-1.9417-11.3554-3.2087-18.0538-2.7007-14.2789,3.0974-25.8893,7.2323-35.8083,13.1581-31.5647,19.9695-71.181,17.3126-72.1899Z"/>
      <path class="cls-12" d="M751.4689,828.2384c-3.6064,18.2734-69.6818,20.6258-147.5843,5.2538-77.9034-15.3724-138.1329-42.6474-134.5265-60.9212,3.6055-18.2738,69.681-20.6258,147.5843-5.2538,10.3105,2.0346-6.9772,25.437-18.6495,32.6947-34.7669,21.6168-92.0423-20.0318-92.8551-18.3222-.656,1.3804,34.1002,33.9776,88.5571,40.1035,34.3437,3.8632,46.0456-6.2297,97.1531-3.4586,23.5424,1.2767,61.1642,5.6288,60.3209,9.9039Z"/>
      <path class="cls-6" d="M593.0311,787.2787c-4.8324,3.5961-7.9836,5.941-11.9116,7.262-14.2675,4.7981-33.9662-5.5335-33.4578-11.8178.8358-10.3318,56.8448-16.5548,59.2102-9.463.9937,2.9795-7.2197,9.0916-13.8408,14.0187Z"/>
      <path class="cls-6" d="M896.093,874.0171c-12.8339,11.4811-15.7092,27.2855-17.4615,36.918-1.3478,7.4089-3.7109,20.3984,1.0663,22.9861,7.9195,4.2897,22.3031-27.1338,45.5544-27.3584,20.4442-.1976,30.0726,23.8963,38.8076,20.0015,9.9088-4.4181,13.3613-42.4862-8.5141-59.2167-18.3648-14.0456-45.322-5.9715-59.4527,6.6695Z"/>
      <path class="cls-6" d="M1094.1069,927.8776c-2.0489-2.3113-30.7755,33.5826-86.4604,54.6462-61.0262,23.084-111.9075,12.2714-112.0587,15.8323-.157,3.6944,54.3693,21.1685,110.4471,1.7633,57.6152-19.9375,90.3799-69.6383,88.072-72.2418Z"/>
      <path class="cls-6" d="M309.1709,766.6657c1.4291-1.7083,42.0013,30.0872,46.3346,33.4893,26.7336,20.9887,44.5712,36.6521,50.5306,41.7136,64.289,54.6021,148.1858,64.8847,146.5149,71.4557-.9676,3.8047-29.3999,1.5792-55.6101-5.6031-42.7319-11.71-71.342-34.3448-95.7898-54.084-3.952-3.1909-19.602-17.7101-50.8155-46.8411-36.7153-34.2659-41.698-39.4928-41.1647-40.1304Z"/>
      <path class="cls-12" d="M292.9375,892.6391c7.6857-2.3861,10.6993-12.6348,11.2718-14.5816,8.7119-29.627-35.4171-51.9678-79.4131-118.6641-26.7105-40.492-35.7743-70.6555-40.0148-69.0964-4.8015,1.7654,3.5763,41.6291,17.1354,77.9864,23.2126,62.2428,68.0535,131.4862,91.0207,124.3557Z"/>
      <path class="cls-6" d="M299.8585,897.1023c3.2113-.997,4.4704-5.2791,4.7096-6.0925,3.64-12.3789-14.7981-21.7134-33.1807-49.5807-11.1603-16.9186-14.9473-29.5216-16.7191-28.8701-2.0062.7376,1.4943,17.3936,7.1596,32.5846,9.6988,26.0065,28.4344,54.9381,38.0306,51.9588Z"/>
      <path class="cls-6" d="M769.7971,915.7524c-1.0624-3.3903-12.9273-3.2704-21.5878-1.1402-11.2021,2.7552-14.766,8.3135-22.056,11.9196-22.287,11.0245-51.4324-10.0309-52.3844-8.0374-.8446,1.7685,20.4257,21.8352,48.794,21.0114,25.7722-.7483,48.8832-18.4916,47.2343-23.7534Z"/>
      <path class="cls-13" d="M421.8791,371.2101c.4717.3858,5.6414-10.7283,20.6674-20.6,23.2324-15.2632,51.7455-15.5459,72.5042-15.5245,21.3077.022,27.8928,2.9958,36.5047-2.7711,12.8194-8.5844,14.1157-25.8138,15.9624-35.9899,11.1381-61.3762,84.0601-96.2937,79.7589-101.8838-3.3778-4.3901-44.2307,22.5011-66.9188,39.1843-28.9673,21.3004-34.0233,30.1518-36.231,34.5701-8.0371,16.0851-6.1135,29.0347-16.8085,35.4755-9.0472,5.4486-17.3308.3413-28.3439-.0359-41.7389-1.4297-78.2871,66.6007-77.0954,67.5753Z"/>
      <path class="cls-14" d="M913.5275,870.4665c-9.7095,6.2332-13.2895,16.3838-15.4714,22.5705-1.6782,4.7585-4.6206,13.1012-1.7348,15.3203,4.784,3.6787,17.6358-15.5835,33.0422-13.2637,13.5464,2.0397,17.3586,19.0018,23.551,17.3524,7.0245-1.871,13.3499-26.6896.6537-40.0804-10.6587-11.2419-29.3502-8.762-40.0407-1.8991Z"/>
      <ellipse class="cls-14" cx="569.889" cy="785.7233" rx="2.1916" ry="5.5886" transform="translate(-319.5981 1174.2426) rotate(-77.6417)"/>
      <path class="cls-14" d="M714.0446,932.8158c.0347.3812,3.0927.387,16.6952-.0813,12.9231-.4449,15.9655-.6498,19.7857-2.6404,4.4428-2.315,9.7004-6.9218,8.7427-9.8057-.9154-2.7563-7.4443-3.7476-12.66-2.5125-7.0119,1.6603-7.6139,6.3884-15.5959,10.6434-8.755,4.667-17.0244,3.7729-16.9676,4.3966Z"/>
      <ellipse class="cls-14" cx="928.029" cy="952.1787" rx="5.2599" ry="7.2323" transform="translate(-200.7073 1654.9137) rotate(-77.6417)"/>
      <ellipse class="cls-14" cx="574.8114" cy="920.7817" rx="5.9173" ry="12.273" transform="translate(-447.6581 1285.2035) rotate(-77.6417)"/>
      <ellipse class="cls-14" cx="260.5612" cy="720.1739" rx="5.2599" ry="15.3412" transform="translate(-456.8913 452.2103) rotate(-49.6294)"/>
      <ellipse class="cls-6" cx="700.3994" cy="832.6951" rx="15.3412" ry="3.2084" transform="translate(-40.3695 35.6995) rotate(-2.838)"/>
      <ellipse class="cls-14" cx="729.0344" cy="830.9503" rx="2.776" ry="4.6754" transform="translate(-238.6928 1365.2476) rotate(-77.6417)"/>
    </g>
    <path class="cls-5" d="M393.2656,896.4727c-.7733,10.369-11.3864,14.2692-9.4834,20.0251,1.2337,3.7316,6.0701,3.2294,7.464,7.9174,1.1733,3.9463-.9814,8.5813-2.5655,8.6366-1.9373.0675-2.5297-6.7327-5.417-7.0201-2.1349-.2125-2.6965,3.4175-5.2871,4.6748-6.6373,3.2213-15.3617-14.5842-28.8215-15.1805-11.0628-.4901-16.6884,11.0275-22.7603,7.9174-6.0511-3.0995-3.0054-15.8402-10.1833-19.0582-4.2361-1.8991-7.5868,1.5119-9.5338-.5185-3.1513-3.2861,1.0891-16.9527,10.3747-24.0925,2.9432-2.263,5.9402-3.522,7.6006-7.3464,1.6657-3.8368.1517-6.0303.7052-9.7888,1.1668-7.9228,10.5982-16.5293,17.2601-15.2887,6.3408,1.1809,7.4177,10.7692,18.5448,13.3705.4305.1007.2806.0531.959.2018,9.6768,2.1202,12.5426,6.1263,19.1013,8.4624,8.2543,2.9399,13.2122.0188,14.503,2.8385,1.1287,2.4656-2.6793,4.6617-3.9836,10.6583-1.3634,6.2677,1.9666,7.6419,1.5229,13.5908Z"/>
    <path class="cls-1" d="M390.143,899.3778c-.7733,10.369-11.3864,14.2692-9.4834,20.0251,1.2337,3.7316,6.0701,3.2294,7.464,7.9174,1.1733,3.9463-.9814,8.5813-2.5655,8.6366-1.9373.0675-2.5297-6.7327-5.417-7.0201-2.1349-.2125-2.6965,3.4175-5.2871,4.6748-6.6373,3.2213-15.3617-14.5842-28.8215-15.1805-11.0628-.4901-16.6884,11.0275-22.7603,7.9174-6.0511-3.0995-3.0054-15.8402-10.1833-19.0582-4.2361-1.8991-7.5868,1.5119-9.5338-.5185-3.1513-3.2861,1.0891-16.9527,10.3747-24.0925,2.9432-2.263,5.9402-3.522,7.6006-7.3464,1.6657-3.8368.1517-6.0303.7052-9.7888,1.1668-7.9228,10.5982-16.5293,17.2601-15.2887,6.3408,1.1809,7.4177,10.7692,18.5448,13.3705.4305.1007.2806.0531.959.2018,9.6768,2.1202,12.5426,6.1263,19.1013,8.4624,8.2543,2.9399,13.2122.0188,14.503,2.8385,1.1287,2.4656-2.6793,4.6617-3.9836,10.6583-1.3634,6.2677,1.9666,7.6419,1.5229,13.5908Z"/>
    <path class="cls-5" d="M872.9168,1011.5354c-2.4755-9.5916,16.9489-14.2292,10.9756-19.3209-3.8725-3.301-13.2161-2.3577-17.7736-6.5203-3.8362-3.504-1.3754-7.972,1.7271-8.1808,3.7943-.2552,7.5861,5.9254,13.3908,5.9012,4.2921-.018,3.999-3.4049,8.6227-4.817,11.846-3.6179,35.9199,11.8498,62.6928,11.0541,22.005-.6539,28.6552-11.7836,41.8289-9.5355,13.1286,2.2404,12.038,14.235,27.4342,16.4717,9.0863,1.32,14.3779-2.1442,19.0008-.4754,7.4822,2.7009,4.3927,15.6643-11.164,23.142-4.9309,2.3701-10.3553,3.8244-12.1541,7.4992-1.8046,3.6868,2.0275,5.5485,2.3859,9.0524.7557,7.3863-14.5226,16.2244-28.1385,15.7506-12.9597-.451-18.7826-9.1417-41.7288-10.4186-.8879-.0495-.5739-.0208-1.9691-.0895-19.9007-.9801-27.0976-4.3702-40.9327-5.8594-17.4117-1.8742-26.0619,1.3008-29.695-1.1578-3.1771-2.1498,3.4851-4.5448,3.7438-10.1774.2705-5.8872-6.8263-6.8159-8.2466-12.3188Z"/>
    <path class="cls-1" d="M877.9538,1008.5582c-2.4755-9.5916,16.9489-14.2292,10.9756-19.3209-3.8725-3.301-13.2161-2.3577-17.7736-6.5203-3.8362-3.504-1.3754-7.972,1.7271-8.1808,3.7943-.2552,7.5861,5.9254,13.3908,5.9012,4.2921-.018,3.999-3.4049,8.6227-4.817,11.846-3.6179,35.9199,11.8498,62.6928,11.0541,22.005-.6539,28.6552-11.7836,41.8289-9.5355,13.1286,2.2404,12.038,14.235,27.4342,16.4717,9.0863,1.32,14.3779-2.1442,19.0008-.4754,7.4822,2.7009,4.3927,15.6643-11.164,23.142-4.9309,2.3701-10.3553,3.8244-12.1541,7.4992-1.8046,3.6868,2.0275,5.5485,2.3859,9.0524.7557,7.3863-14.5226,16.2244-28.1385,15.7506-12.9597-.451-18.7826-9.1417-41.7288-10.4186-.8879-.0495-.5739-.0208-1.9691-.0895-19.9007-.9801-27.0976-4.3702-40.9327-5.8594-17.4117-1.8742-26.0619,1.3008-29.695-1.1578-3.1771-2.1498,3.4851-4.5448,3.7438-10.1774.2705-5.8872-6.8263-6.8159-8.2466-12.3188Z"/>
  </g>
  <path class="cls-1" d="M656.7457,1099.0836c6.7704-2.3986,15.0378-2.3652,18.6972-7.1277,7.3466-9.5607-15.6761-23.0942-9.4979-28.6882,6.6189-5.9931,35.4389,7.3705,52.7669-1.4344,8.9792-4.5627,6.6302-10.8895,13.7194-12.1925,12.0876-2.2216,35.441,13.1355,35.8814,28.6882.2836,10.0083-9.0295,16.2872-6.0442,20.6652"/>
  <path class="cls-10" d="M393.6387,1107.4571c-30.6037-.1825-51.2074,11.8377-51.9093,10.6329-.7629-1.3095,22.3794-17.5644,51.7308-16.9225,23.4926.5137,41.7914,11.6514,41.1489,12.9363-.5885,1.1773-16.7864-6.5024-40.9704-6.6467Z"/>
  <g>
    <path class="cls-9" d="M78.4231,1084.9373c-2.7753-39.5846,78.7187-84.1357,150.6374-99.45,85.9125-18.2943,105.0813,16.4356,236.9246,23.3999,77.7641,4.1076,70.2523-8.019,229.6224-13.9514,110.5034-4.1133,165.7554-6.1702,206.9578-.1717,115.2209,16.7744,162.0861,54.9527,230.3188,25.8231,30.9005-13.1919,33.4174-26.1997,78.975-45.3375,7.4295-3.121,67.1102-27.6598,127.0926-26.797,119.9175,1.7247,242.416,104.9951,228.4736,147.704-22.9534,70.3121-420.3101-9.4098-427.2286,29.7304-3.4146,19.3174,92.75,42.2703,89.2124,59.9623-5.4971,27.4912-246.6498,16.8972-255.9373-35.1-2.5838-14.465,14.0109-25.2223,8.7751-33.6375-12.0548-19.3748-110.7213,20.4531-160.8748,40.9501-116.8169,47.7416-117.6956,61.6906-163.7997,68.7372-96.7706,14.7908-193.6899-31.2581-191.5873-52.6497,2.6423-26.8802,161.6534-14.9987,163.7997-38.0251,2.5228-27.0677-211.8185-101.2584-277.8745-27.7873-36.1179,40.1724-3.2439,97.0632-38.0251,118.4622-37.8715,23.3003-104.1641-27.3425-206.2121-105.2996-16.87-12.8873-28.2623-22.4728-29.25-36.5624Z"/>
    <path class="cls-8" d="M53.7374,1079.0736c-10.9814-53.7895,89.7474-113.7686,116.086-129.4522,48.7624-29.0358,105.4808-62.8087,172.5493-51.8946,44.2815,7.206,44.5615,25.9974,124.5472,48.0026,22.1293,6.0879,26.4124,5.8338,98.6002,20.7575,72.7817,15.0463,84.8608,18.7022,105.4016,22.5852,96.2882,18.2024,109.1217-14.415,206.9575-.1719,115.2215,16.7743,162.0861,54.953,230.3195,25.8235,30.8999-13.1923,33.4171-26.1997,78.9742-45.3378,7.4302-3.1212,67.1103-27.6596,127.0934-26.7971,119.9173,1.7245,242.4156,104.995,228.4729,147.7044-22.9534,70.3117-420.3098-9.4099-427.2278,29.7304-3.4152,19.317,92.7494,42.27,89.2117,59.9621-5.4969,27.4912-246.6499,16.8974-255.9367-35.0998-2.584-14.4653,14.0104-25.2226,8.7746-33.6379-12.0542-19.3743-110.7211,20.4536-160.8743,40.9505-116.817,47.7415-117.696,61.6906-163.8001,68.7372-96.7705,14.7907-193.6895-31.2581-191.5868-52.65,2.6418-26.8803,161.6536-14.9985,163.7991-38.0252,2.5233-27.0677-211.8186-101.2584-277.8746-27.7872-36.1178,40.1722-3.2438,97.063-38.0252,118.4623-37.8712,23.3002-104.1639-27.3427-206.2116-105.2999-15.3039-11.6915-26.1409-21.3325-29.2501-36.5622Z"/>
    <path class="cls-3" d="M1124.4748,1140.5121c32.5304,3.2541,66.0977,19.7027,64.7154,29.6157-1.4459,10.3687-41.2557,14.4972-69.6515,13.1625-64.1617-3.0158-116.834-36.1238-114.6232-42.7782,1.3522-4.0702,22.2807,4.6381,66.9093,3.2906,30.0161-.9062,33.2655-5.2296,52.6499-3.2906Z"/>
    <path class="cls-3" d="M254.1751,1173.4145c32.9886-6.1771,43.1506-56.68,51.5206-54.2929,10.0076,2.8541,14.4139,80.4499-19.3302,93.3935-34.1999,13.1183-81.4716-50.1921-78.43-54.2654,1.8976-2.5414,22.1066,19.6838,46.2395,15.1647Z"/>
    <circle class="cls-3" cx="200.7246" cy="1113.8216" r="14.8078"/>
    <path class="cls-3" d="M674.0255,1143.9855c5.2567,4.4681-11.035,48.4107-46.0688,65.0812-58.0996,27.6462-133.7961-35.8668-131.6247-40.9499,1.8132-4.2449,57.2197,33.9184,116.2685,14.2594,38.0171-12.657,56.754-42.3609,61.425-38.3908Z"/>
    <path class="cls-3" d="M1078.7716,1044.7186c.2314,1.3977-23.0952,7.9602-48.9937,11.7001-84.1843,12.157-118.9096-16.5738-201.0934-18.2812-76.6921-1.5934-124.0918,21.8129-125.7748,16.0873-1.8694-6.3599,54.5378-42.2909,123.5811-43.8748,60.2978-1.3833,139.5718,23.2166,144.7873,24.8624,8.7353,2.7566,23.8675,7.8537,45.3375,10.2376,35.0357,3.8902,61.9087-2.225,62.156-.7312Z"/>
    <path class="cls-3" d="M1491.8921,1080.4779c14.2758-32.9603-71.5038-94.2988-67.2396-99.3781,4.989-5.9426,130.3965,68.5055,117.6302,104.4662-11.4146,32.1534-127.7698,17.9763-127.8677,15.4587-.074-1.9011,66.2509,5.3729,77.4772-20.5468Z"/>
    <ellipse class="cls-3" cx="1302.6809" cy="971.9607" rx="28.5187" ry="12.614" transform="translate(-178.6182 303.0526) rotate(-12.425)"/>
    <ellipse class="cls-3" cx="1436.3524" cy="1109.2512" rx="7.6781" ry="2.3766"/>
    <ellipse class="cls-10" cx="1289.2229" cy="978.0754" rx="11.8284" ry="5.3455"/>
    <path class="cls-10" d="M1484.3863,1071.6834c12.4989-34.9499-76.3308-92.4178-73.5697-95.8677,3.19-3.9858,126.829,66.3927,114.1539,103.9114-11.2688,33.356-124.3797,23.2683-124.6779,19.7437-.2416-2.8543,73.7153,1.2339,84.0937-27.7873Z"/>
    <ellipse class="cls-10" cx="1148.3774" cy="1167.8426" rx="15.7219" ry="6.2156"/>
    <ellipse class="cls-10" cx="1173.3313" cy="1167.0199" rx="5.1187" ry="4.7531"/>
    <ellipse class="cls-10" cx="202.1414" cy="1118.4833" rx="4.3875" ry="3.8391"/>
    <path class="cls-10" d="M300.3115,1187.769c4.3938-8.5224-1.0338-19.1486-2.4664-18.9925-.9885.1076.3407,5.3017-2.2867,12.4114-3.7333,10.1024-11.7444,14.032-10.879,15.3363.9228,1.3909,11.536-.8102,15.632-8.7552Z"/>
  </g>
</svg>