<?xml version="1.0" encoding="UTF-8"?>
<svg id="Layer_1" data-name="Layer 1" xmlns="http://www.w3.org/2000/svg" viewBox="0 0 1621.4173 1264.252">
  <defs>
    <style>
      .cls-1 {
        fill: #572e7f;
      }

      .cls-2 {
        fill: #72459b;
      }

      .cls-3 {
        fill: #65308f;
      }
    </style>
  </defs>
  <path class="cls-3" d="M656.4375,702.1475h-14.6709c-14.4641,0-26.1896,11.9005-26.1896,26.5805h0c0,14.6801,11.7255,26.5806,26.1896,26.5806h337.884c14.4641,0,26.1896-11.9005,26.1896-26.5805h0c0-14.6801-11.7255-26.5806-26.1896-26.5806h-14.6285"/>
  <path class="cls-3" d="M961.7669,701.2827c5.7541-93.0998-75.6565-167.104-161.7072-161.8193-79.4137,4.8771-147.2097,76.3277-141.3214,161.8193h303.0286Z"/>
  <path class="cls-3" d="M769.686,549.0906c.6774-22.9006,18.6022-40.8014,39.0354-40.1289,19.2668.6341,35.6042,17.6116,36.748,39.1452"/>
  <path class="cls-2" d="M779.6384,547.0322c-.9742-.2438-1.3144-1.2509-1.738-2.506-2.4069-7.1301,5.1286-14.113,6.1857-15.0926,1.2742-1.1806,9.6379-8.6696,23.0615-8.2997,10.7272.2956,17.4571,5.4109,19.4979,7.0124,8.0387,6.3081,10.3573,15.2,8.6754,15.9553-2.2797,1.0236-10.1945-13.6706-25.296-14.2999-3.7049-.1544-6.5705.5908-7.8736.9403-14.0318,3.7638-18.629,17.2622-22.5128,16.2902Z"/>
  <ellipse class="cls-2" cx="820.1545" cy="550.467" rx="6.9956" ry="2.0708"/>
  <ellipse class="cls-2" cx="874.1705" cy="723.9661" rx="108.3406" ry="5.9741"/>
  <path class="cls-2" d="M692.5876,640.0803c8.0163-32.5511,28.6964-48.6101,27.0048-50.1687-2.0449-1.8842-34.9231,19.1395-37.6986,50.1687-1.1603,12.9709,3.0518,26.4374,5.347,26.354,2.1451-.078,1.8027-11.9627,5.3468-26.354Z"/>
  <path class="cls-2" d="M647.4988,711.8328c-3.7561-.7056-25.1362,8.7467-20.2096,18.5263,2.8097,5.5773,12.9713,8.8702,16.323,9.9248,27.1043,8.5278,67.6222,2.9676,67.6243,2.9774.0015.0073-22.1763,3.3646-42.7509-1.3233-2.7272-.6214-16.3703-3.8777-22.5414-10.5864-8.9532-9.7332,5.0643-18.8594,1.5546-19.5187Z"/>
  <rect class="cls-1" x="658.7383" y="701.2827" width="303.0208" height="2.7695"/>
</svg>