<?xml version="1.0" encoding="UTF-8"?>
<svg id="Layer_1" data-name="Layer 1" xmlns="http://www.w3.org/2000/svg" viewBox="0 0 1621.4173 1264.252">
  <defs>
    <style>
      .cls-1 {
        fill: #555655;
      }

      .cls-2 {
        fill: #ca8a4f;
      }

      .cls-3 {
        fill: #010101;
      }

      .cls-4 {
        fill: #a06428;
      }

      .cls-5 {
        fill: #282827;
      }

      .cls-6 {
        fill: #512f15;
      }

      .cls-7 {
        fill: #4a4a4b;
      }

      .cls-8 {
        fill: #fff;
      }

      .cls-9 {
        fill: #f3b260;
      }

      .cls-10 {
        fill: #30302f;
      }

      .cls-11 {
        fill: #414142;
      }

      .cls-12 {
        fill: #65c3a5;
      }

      .cls-13 {
        fill: #f9ac5f;
      }
    </style>
  </defs>
  <path class="cls-3" d="M875.09,479.0656c10.432-6.6459,25.1825-15.6815,24.2177-26.2208-2.131-23.2806-80.6791-51.0072-136.3219-26.8228-80.7975,35.1176-95.5769,171.9878-67.956,188.7498,22.2269,13.4886,59.0428-58.6096,180.0602-135.7062Z"/>
  <path class="cls-4" d="M805.3157,445.4033c4.4906-5.9813,11.877-14.2811,23.0363-21.2575,7.4572-4.662,19.5966-12.2511,24.43-8.4888,7.0987,5.5257-12.5978,27.6385-5.9769,48.5433,4.9172,15.5253,19.3424,20.2379,51.1835,36.417,55.3616,28.1303,93.3088,47.9377,95.2927,74.7007.8707,11.7463-5.4993,20.6107-6.8677,22.4252-10.155,13.4652-29.0378,15.4911-68.8953,14.7881-23.0756-.407-53.0674-1.7267-88.3117-5.3978-11.2248,35.5773-22.4496,71.1547-33.6743,106.7321-37.2781-19.6474-74.5562-39.2947-111.8342-58.9421"/>
  <circle class="cls-8" cx="861.3591" cy="528.9295" r="20.1527"/>
  <circle class="cls-3" cx="867.9381" cy="529.7395" r="9.8499" transform="translate(-142.1857 646.3168) rotate(-37.9808)"/>
  <path class="cls-12" d="M667.7873,850.8553c65.6607-59.6131,98.9147-64.3524,117.214-56.5211,9.5548,4.0891,24.2147,15.1493,44.8663,13.1099,13.3206-1.3155,23.6226-7.5704,29.9799-12.3358,11.3063-4.1753,43.6472-17.8391,63.4056-52.1953,22.3631-38.8853,19.8083-88.9777-5.7347-130.3817,3.3308,8.2541,23.9559,61.8983-4.3906,115.8131-17.7996,33.8546-45.7431,50.3833-57.5472,56.4853-6.902,3.3538-17.5437,7.4892-30.7948,8.3001-30.7521,1.8818-36.4323-16.5558-61.6867-16.8917-30.497-.4057-59.0092,26.2285-91.3641,56.4524-2.2398,2.0923-4.0522,3.8453-5.2358,5.0019"/>
  <path class="cls-10" d="M745.3766,549.0751c.1336,1.3853.2004,2.078.2004,2.078-.0381-.4263-.1061-1.1647-.2004-2.078-4.0042-38.7663-21.4257-61.985-17.0456-74.6487,0-.0002,3.143-9.0871,2.1196-15.7267-.0225-.1461-.1211-.7633-.2176-1.6258-.2769-2.4774-.5835-7.3766.0181-7.5069,1.7361-.3761,4.2904,26.5025,22.2746,47.0025,5.4712,6.2365,11.1049,10.4401,15.2281,13.1136"/>
  <g>
    <path class="cls-9" d="M812.7604,451.0496c8.1183-14.1926,17.1437-22.4736,23.7428-27.3261,3.2724-2.4063,9.8847-7.1942,12.2917-5.331,1.663,1.2873.2052,4.8873-1.8296,13.0072-2.5774,10.285-3.6972,20.8818-5.6788,31.298h0c-4.0653.0103-11.4914-.5511-19.3178-4.774-4.0448-2.1825-7.0738-4.7372-9.2083-6.8741Z"/>
    <rect class="cls-6" x="679.1885" y="670.6648" width="19.6998" height="192.9091" rx="9.8499" ry="9.8499" transform="translate(454.9603 -237.0985) rotate(28.8096)"/>
    <path class="cls-13" d="M785.801,719.3135l-101.8882-50.7217c-3.0938-1.5401-4.365-5.3316-2.8248-8.4254,1.5401-3.0938,5.3316-4.365,8.4254-2.8248l101.8882,50.7217c3.0938,1.5401,4.365,5.3316,2.8248,8.4254-1.5401,3.0938-5.3316,4.365-8.4254,2.8248Z"/>
    <rect class="cls-2" x="626.8718" y="828.2861" width="47.5513" height="17.2775" rx="7.4426" ry="7.4426" transform="translate(441.1579 -202.2572) rotate(26.4649)"/>
    <path class="cls-11" d="M973.0039,592.0075c1.0961-.1869,3.9915-.8233,12.2206-8.3622,3.1633-2.8981,3.4685-3.4756,3.6667-4.0641,1.996-5.9281-6.39-14.3146-8.3958-13.3662-1.7798.8416,3.9766,9.6715-.0781,16.6004-3.6993,6.3219-13.284,7.1622-12.9475,8.6002.1887.8062,3.1132,1.0047,5.5342.592Z"/>
    <path class="cls-5" d="M867.8333,476.3469c12.5344-2.1568,30.6077-11.991,30.1406-23.324-.3689-8.9497-12.1512-15.2199-21.6847-20.2933-9.2974-4.9478-18.9329-7.4684-19.3981-6.4387-.3073.6804,16.2495,4.3306,17.0278,11.7926.5308,5.0885-6.8672,6.0521-9.1702,14.2572-2.6197,9.3337,4.5984,16.4773.5819,21.2154-2.5522,3.0107-7.6665,2.696-7.574,3.1472.1559.7608,6.3641.2825,10.0766-.3564Z"/>
    <path class="cls-10" d="M716.7806,586.8532c-2.8109-1.1176-12.536,28.6331-21.7508,27.9186-7.2607-.563-12.2499-19.8882-13.6449-33.4776-3.0914-30.1157,8.5964-60.0468,8.5998-60.062,4.1994,2.6809,9.5498,7.1098,11.2539,13.7764,2.8507,11.1517-6.98,18.8701-4.3873,26.288,1.7491,5.0046,9.2458,10.1385,34.5502,10.635-.0351.0782-.0838.1859-.1417.3141-1.3154,2.9157-11.4103,25.1209-14.2282,24.2044-1.4776-.4806,1.2467-9.0014-.2511-9.5969Z"/>
    <path class="cls-10" d="M773.567,497.8152c17.9783-31.2142,20.0045-41.9403,16.8085-44.61-4.794-4.0045-20.5884,10.7439-26.0666,6.0305-6.7119-5.7749,7.5312-36.0583,7.7172-36.6324h0c.2162-.0477,13.0167-3.3428,25.2746-5.4461.0002,0,26.6894-4.5796,39.3068,1.4866.0075.0036.5522.2667.5533.266h0c-14.3656,8.8655-18.8112,12.5883-18.8114,12.5884-2.486,2.0818-5.8637,5.1829-9.4836,9.4816-11.7663,18.9452-23.5326,37.8903-35.2989,56.8354Z"/>
    <path class="cls-7" d="M727.5823,560.5787c7.8181-3.4719,8.4111-25.2775.3928-40.9413-5.3196-10.3918-13.7018-16.6589-13.9046-16.4792-.1788.1584,6.6425,4.7563,9.6828,12.8493,6.713,17.8693-11.3021,36.0207-4.4443,43.0903,2.1202,2.1857,5.8748,2.546,8.2733,1.4809Z"/>
    <path class="cls-1" d="M758.6051,505.2935l.1217,1.2616c-.0232-.2588-.0644-.7071-.1217-1.2616-2.431-23.5355-13.0078-37.6319-10.3486-45.3202,0-.0001,1.9082-5.5169,1.2868-9.5479-.0137-.0887-.0735-.4634-.1321-.9871-.1681-1.504-.3542-4.4784.011-4.5575,1.054-.2283,2.6047,16.09,13.5232,28.5358,3.3216,3.7863,6.7419,6.3383,9.2452,7.9614"/>
  </g>
</svg>