<?xml version="1.0" encoding="UTF-8"?>
<svg id="Layer_1" data-name="Layer 1" xmlns="http://www.w3.org/2000/svg" viewBox="0 0 1621.4173 1264.252">
  <defs>
    <style>
      .cls-1 {
        fill: #555655;
      }

      .cls-2 {
        fill: #ca8a4f;
      }

      .cls-3 {
        fill: #010101;
      }

      .cls-4 {
        fill: #a06428;
      }

      .cls-5 {
        fill: #282827;
      }

      .cls-6 {
        fill: #512f15;
      }

      .cls-7 {
        fill: #4a4a4b;
      }

      .cls-8 {
        fill: #fff;
      }

      .cls-9 {
        fill: #f3b260;
      }

      .cls-10 {
        fill: #30302f;
      }

      .cls-11 {
        fill: #414142;
      }

      .cls-12 {
        fill: #65c3a5;
      }

      .cls-13 {
        fill: #f9ac5f;
      }
    </style>
  </defs>
  <path class="cls-3" d="M992.508,199.9153c29.4579-18.7667,71.1101-44.2813,68.3858-74.042-6.0176-65.7396-227.821-144.0338-384.9446-75.7421-228.1552,99.1647-269.8891,485.6576-191.8936,532.9901,62.7642,38.089,166.7245-165.5012,508.4524-383.206Z"/>
  <path class="cls-4" d="M795.4801,104.8601c12.6806-16.89,33.5381-40.3269,65.0496-60.0266,21.0577-13.1645,55.3367-34.5946,68.9852-23.9706,20.0453,15.6034-35.5736,78.0454-16.8774,137.0762,13.8851,43.8402,54.619,57.1476,144.5314,102.8339,156.3295,79.434,263.4845,135.3659,269.0866,210.9392,2.4588,33.1692-15.5289,58.2003-19.393,63.3239-28.6756,38.023-81.9966,43.7437-194.5459,41.7586-65.1608-1.1493-149.8512-4.8759-249.3738-15.2424-31.6964,100.4629-63.3929,200.9261-95.0893,301.389-105.2655-55.4801-210.531-110.9601-315.7965-166.4402"/>
  <circle class="cls-8" cx="953.7349" cy="340.7206" r="56.907"/>
  <circle class="cls-3" cx="972.3128" cy="343.0079" r="27.8141" transform="translate(-5.1668 671.0021) rotate(-37.9808)"/>
  <path class="cls-12" d="M407.1285,1249.7718c185.412-168.3349,279.3144-181.7177,330.9878-159.6037,26.9808,11.5467,68.3773,42.7786,126.693,37.0196,37.6147-3.7146,66.7052-21.3772,84.6569-34.8338,31.9268-11.7903,123.2505-50.3738,179.0441-147.3885,63.1488-109.8041,55.9345-251.2543-16.1937-368.1706,9.4056,23.308,67.6465,174.7879-12.3983,327.0319-50.2624,95.5982-129.1688,142.272-162.5012,159.5028-19.4899,9.4704-49.5398,21.1479-86.958,23.4376-86.8376,5.3139-102.8773-46.7502-174.1902-47.6988-86.1171-1.1455-166.6295,74.0638-257.9932,159.4099-6.3247,5.9081-11.4425,10.8584-14.7848,14.1244"/>
  <path class="cls-10" d="M626.2245,397.6075c.3773,3.9118.566,5.8677.566,5.8677-.1077-1.2037-.2996-3.2889-.566-5.8677-11.3069-109.4678-60.5017-175.0327-48.1332-210.7923.0003-.0006,8.8753-25.6601,5.9852-44.4089-.0637-.4127-.3421-2.1555-.6143-4.5911-.7818-6.9956-1.6476-20.8299.0511-21.198,4.9025-1.0621,12.1151,74.8375,62.8989,132.7253,15.4495,17.6107,31.3578,29.4807,43.0009,37.03"/>
  <g>
    <path class="cls-9" d="M816.5022,120.8042c22.9245-40.077,48.4101-63.4607,67.0446-77.1631,9.2406-6.7949,27.9122-20.315,34.7093-15.0536,4.696,3.6351.5794,13.8006-5.1665,36.7295-7.278,29.0426-10.4401,58.9658-16.0356,88.3791h0c-11.4795.0292-32.4493-1.5561-54.5494-13.4807-11.4217-6.163-19.9748-13.3767-26.0025-19.4112Z"/>
    <rect class="cls-6" x="439.3233" y="740.9516" width="55.6282" height="544.7348" rx="27.8141" ry="27.8141" transform="translate(546.1385 -99.6911) rotate(28.8096)"/>
    <path class="cls-13" d="M740.3747,878.3252l-287.7111-143.2275c-8.7362-4.349-12.3257-15.0553-7.9767-23.7915,4.349-8.7362,15.0553-12.3257,23.7915-7.9767l287.7111,143.2275c8.7362,4.349,12.3257,15.0553,7.9767,23.7915-4.349,8.7362-15.0553,12.3257-23.7915,7.9767Z"/>
    <rect class="cls-2" x="291.5917" y="1186.0411" width="134.2749" height="48.7882" rx="21.0163" ry="21.0163" transform="translate(577.0217 -33.023) rotate(26.4649)"/>
    <path class="cls-11" d="M1268.9966,518.8397c3.0951-.5278,11.2712-2.3249,34.5084-23.6132,8.9326-8.1837,9.7942-9.8142,10.3539-11.4762,5.6363-16.7398-18.0441-40.4216-23.7081-37.7434-5.0257,2.3764,11.229,27.3102-.2207,46.8762-10.446,17.8516-37.5112,20.2246-36.561,24.2851.5327,2.2765,8.7909,2.837,15.6275,1.6716Z"/>
    <path class="cls-5" d="M972.0167,192.2384c35.3945-6.0905,86.4298-33.8602,85.1107-65.8622-1.0416-25.2722-34.3125-42.9778-61.2331-57.3041-26.2538-13.9714-53.4626-21.0893-54.7761-18.1815-.8678,1.9213,45.8851,12.2288,48.083,33.2999,1.4987,14.3689-19.3917,17.0897-25.8946,40.2595-7.3975,26.3565,12.9851,46.5284,1.6433,59.9077-7.2068,8.5015-21.6486,7.6129-21.3875,8.8871.4403,2.1484,17.9708.7976,28.4543-1.0064Z"/>
    <path class="cls-10" d="M545.4754,504.2851c-7.9373-3.1558-35.399,80.8539-61.4198,78.8362-20.5026-1.5898-34.5912-56.1602-38.5303-94.5339-8.7296-85.0404,24.2743-169.5597,24.284-169.6025,11.8582,7.5703,26.9667,20.0765,31.7788,38.9016,8.0497,31.49-19.7101,53.2852-12.3889,74.2319,4.9392,14.1318,26.1081,28.629,97.5626,30.031-.0992.2207-.2368.525-.4.887-3.7145,8.2332-32.2203,70.936-40.1774,68.3483-4.1724-1.357,3.5204-25.418-.709-27.0996Z"/>
    <path class="cls-10" d="M705.8284,252.8605c50.767-88.1424,56.4886-118.4306,47.4637-125.9692-13.5373-11.3078-58.1372,30.3385-73.6066,17.0287-18.9529-16.307,21.2665-101.8211,21.7917-103.4424h0c.6105-.1348,36.7564-9.4393,71.3703-15.3787.0006-.0001,75.3653-12.9318,110.9943,4.1978.0211.0101,1.5592.7531,1.5624.7512h0c-40.5656,25.0343-53.119,35.5468-53.1194,35.5471-7.02,5.8785-16.5577,14.6355-26.7796,26.7741-33.2256,53.4972-66.4512,106.9942-99.6767,160.4914Z"/>
    <path class="cls-7" d="M575.9771,430.0915c22.0766-9.8039,23.7513-71.3784,1.1091-115.6097-15.0214-29.3443-38.691-47.0412-39.2637-46.5337-.5049.4474,18.757,13.4307,27.3423,36.2838,18.9561,50.4592-31.9148,101.7148-12.5499,121.6779,5.9871,6.1721,16.5892,7.1895,23.3622,4.1816Z"/>
    <path class="cls-1" d="M663.5791,273.9777c.2291,2.3749.3436,3.5624.3436,3.5624-.0654-.7308-.1819-1.9968-.3436-3.5624-6.8646-66.4593-36.7314-106.2646-29.2223-127.9747.0002-.0004,5.3883-15.5786,3.6337-26.9612-.0387-.2505-.2077-1.3086-.373-2.7873-.4747-4.2471-1.0003-12.6461.031-12.8696,2.9764-.6448,7.3552,45.4348,38.1867,80.5792,9.3796,10.6917,19.0377,17.8981,26.1064,22.4814"/>
  </g>
</svg>