<?xml version="1.0" encoding="UTF-8"?>
<svg id="Layer_1" data-name="Layer 1" xmlns="http://www.w3.org/2000/svg" viewBox="0 0 1621.4173 1264.252">
  <defs>
    <style>
      .cls-1 {
        fill: #a26e2e;
      }

      .cls-2, .cls-3 {
        fill: #bc8e5b;
      }

      .cls-4 {
        fill: #2d201a;
      }

      .cls-5, .cls-6 {
        fill: #3a2216;
      }

      .cls-7 {
        fill: #b17d53;
      }

      .cls-7, .cls-8, .cls-9, .cls-3, .cls-10, .cls-6, .cls-11, .cls-12, .cls-13 {
        fill-rule: evenodd;
      }

      .cls-14, .cls-12 {
        fill: #dcb79d;
      }

      .cls-8, .cls-15 {
        fill: #8a5c3e;
      }

      .cls-16 {
        fill: #ca6628;
      }

      .cls-9 {
        fill: #af804b;
      }

      .cls-17 {
        fill: #e2b199;
      }

      .cls-18 {
        fill: #5f514e;
      }

      .cls-19 {
        fill: #afafb0;
      }

      .cls-20 {
        fill: #281811;
      }

      .cls-10, .cls-21 {
        fill: #4b2b19;
      }

      .cls-22 {
        fill: #ab474b;
      }

      .cls-23 {
        fill: #895623;
      }

      .cls-24 {
        fill: #7d7c7c;
      }

      .cls-25 {
        fill: #90673b;
      }

      .cls-26 {
        fill: #fff;
      }

      .cls-11 {
        fill: #d5a87b;
      }

      .cls-27 {
        fill: #dc7427;
      }

      .cls-28 {
        fill: #9f3134;
      }

      .cls-29 {
        fill: #fff9c9;
      }

      .cls-30 {
        fill: #f68720;
      }

      .cls-31 {
        fill: #61381c;
      }

      .cls-32 {
        fill: #e5e3da;
      }

      .cls-33 {
        fill: #3e2d27;
      }

      .cls-13 {
        fill: #653f19;
      }

      .cls-34 {
        fill: #d8d4d4;
      }

      .cls-35 {
        fill: #852328;
      }

      .cls-36 {
        fill: #73471e;
      }

      .cls-37 {
        fill: #4b2a17;
      }

      .cls-38 {
        fill: #472c17;
      }
    </style>
  </defs>
  <g>
    <path class="cls-20" d="M612.3224,634.8016c118.6664.6472,237.3328,1.2943,355.9992,1.9415,1.3694-.0135,3.3244.0769,5.5861.585,21.9039,4.9213,33.3803,40.2198,35.7811,63.4284,3.7432,36.1854-10.6106,81.3065-36.6869,88.528-2.5234.6988-4.7523.9308-6.4165,1.0002-118.0877.9092-236.1753,1.8184-354.263,2.7276v-158.2107Z"/>
    <ellipse class="cls-38" cx="612.3224" cy="713.907" rx="53.6026" ry="79.1053"/>
    <ellipse class="cls-36" cx="609.4424" cy="717.7452" rx="41.5886" ry="61.3754"/>
    <ellipse class="cls-25" cx="610.6328" cy="717.567" rx="25.8055" ry="38.0831"/>
    <path class="cls-10" d="M935.2581,669.3914c-.0258,1.3899-23.9724.2921-72.921,3.6234-20.2108,1.3755-34.9326,2.8424-58.8803,2.7176-12.3878-.0646-21.4136-.5247-28.9872-.9059-81.8346-4.1182-102.8277-4.4814-102.814-5.4351.022-1.5302,54.0961-2.2665,86.9616-2.2646,23.4493.0013,28.4999.378,48.0101,0,33.1515-.6423,38.3492-2.113,61.1449-2.2646,34.8357-.2317,67.5161,2.9048,67.4859,4.5292Z"/>
    <path class="cls-10" d="M801.491,726.5353c.0195,1.135,18.1227.2385,55.127,2.959,15.279,1.1233,26.4085,2.3212,44.5125,2.2192,9.365-.0528,16.1883-.4285,21.9138-.7398,61.8655-3.3631,77.736-3.6596,77.7256-4.4384-.0167-1.2496-40.8957-1.8509-65.7415-1.8494-17.7273.0011-21.5455.3087-36.2948,0-25.062-.5245-28.9913-1.7255-46.2245-1.8493-26.3352-.1892-51.041,2.3721-51.0182,3.6987Z"/>
    <path class="cls-10" d="M915.3212,776.1087c-.0258,1.3899-23.9724.2921-72.921,3.6234-20.2108,1.3755-34.9326,2.8424-58.8803,2.7176-12.3878-.0646-21.4136-.5247-28.9872-.9059-81.8346-4.1182-102.8277-4.4814-102.814-5.4351.022-1.5302,54.0961-2.2665,86.9616-2.2646,23.4493.0013,28.4999.378,48.0101,0,33.1515-.6423,38.3492-2.113,61.1449-2.2646,34.8357-.2317,67.5161,2.9048,67.4859,4.5292Z"/>
    <path class="cls-21" d="M697.0664,747.8948c1.3067-5.9462,18.4762-6.9153,28.2324-7.3978,29.8353-1.4755,51.1744,4.7875,51.1806,4.7557.0077-.0398-34.4134-4.6895-50.1237-2.944-.0001,0-7.8952.8772-16.0033,4.8312-1.8795.9166-3.37,1.6434-4.9822,3.1705-2.5093,2.3768-2.7913,4.3033-4.0763,4.3783-1.9172.1119-4.8482-3.9687-4.2273-6.7938Z"/>
    <path class="cls-21" d="M973.3369,652.7866c-2.177-5.6726-11.7251-6.5814-28.2324-7.3978-29.8352-1.4755-51.1744,4.7875-51.1806,4.7557-.0077-.0398,34.4134-4.6895,50.1237-2.944,3.6985-.1661,6.5533.2684,8.5159.7147,1.5491.3523,1.727.5264,3.5668.9058,3.8632.7966,6.9515.8272,6.9638,1.2456.008.2734-1.3105.2737-1.4154.7926-.1619.8015,2.8744,1.3439,4.8689,3.7366,1.1573,1.3883,1.4975,2.8401,1.774,4.0197,1.1316,4.8283-.9627,8.6062-.6039,8.7566.5719.2397,7.9556-8.4974,5.6192-14.5855Z"/>
    <path class="cls-13" d="M631.0681,653.326c.018,1.0687-8.7323-6.4529-21.2019-6.0166-12.967.4533-21.2983,9.209-21.388,8.1061-.093-1.1435,8.6991-12.582,20.7008-13.1552,11.9788-.5724,21.87,9.9314,21.8891,11.0656Z"/>
    <path class="cls-13" d="M591.3841,762.3075c-3.8986-2.8849-6.0049-5.103-5.628-5.2261.9244-.302,12.7757,13.2615,24.9965,12.4076,14.2833-.9981,25.3488-21.7152,25.351-21.7177.7252-1.0366,1.1964-1.4829,1.4326-1.4634.5668.0467-11.1289,25.8645-25.4877,26.4198-6.2563.242-12.4331-4.3288-20.6644-10.4201Z"/>
    <path class="cls-8" d="M632.3471,714.8631c1.0754,16.4959-10.64,33.3816-17.6562,32.8749-.2457-.0177-1.9375-.1399-2.3779-1.1323-.893-2.0124,4.4294-5.1942,8.4924-9.8511,7.7846-8.9226,8.2885-20.2147,8.3904-22.496.4291-9.6144-3.4314-16.4616-2.9858-16.6149.4753-.1635,5.4979,7.4137,6.1372,17.2194Z"/>
    <ellipse class="cls-15" cx="614.3231" cy="693.086" rx="2.4354" ry="1.8851" transform="translate(-161.643 1198.6921) rotate(-81.5351)"/>
    <path class="cls-13" d="M578.2798,694.9481c.2803.315-2.9596,10.7412-.879,20.5525,1.1738,5.5349,3.2026,6.9214,4.6844,10.7644.6242,1.6187.8598,2.6811,1.1157,4.1169,1.0319,5.7903-.0768,12.7175-1.5815,12.9231-2.0172.2755-5.8496-11.3773-6.7173-22.4832-1.1645-14.9051,3.265-26.0003,3.3776-25.8737Z"/>
    <path class="cls-11" d="M582.9106,734.9429c-.0818,2.3016-1.4688,4.4992-2.0382,4.3783-.3891-.0826-.4845-1.2667-.4529-1.9626.0528-1.1643.4993-1.8053.7549-2.4911.9527-2.556-.9615-5.1537-.6794-5.2842.281-.1299,2.5247,2.2891,2.4156,5.3596Z"/>
    <path class="cls-11" d="M618.6146,646.4778c.0015.332-3.7108-1.9544-9.0661-1.7462-5.5688.2164-9.1962,2.9859-9.2282,2.6437-.0333-.3548,3.8075-3.9607,8.9627-4.2088,5.1453-.2477,9.3301,2.9589,9.3316,3.3113Z"/>
    <path class="cls-13" d="M660.1344,694.4816c3.7779,14.4539.841,27.2694-.6878,33.9407-2.46,10.7348-6.5656,19.1519-6.861,19.0515-.2453-.0834,1.9867-6.0916,4.0763-15.7014,1.3171-6.057,2.3174-10.6574,2.7237-17.035.8726-13.698-1.8082-22.7283-2.6783-25.4099-.2276-.7013-.4149-1.241-.5365-1.5911-3.869-11.1426-9.1435-17.7187-9.2391-17.6584-.1179.0743,9.2272,9.1936,13.2027,24.4035Z"/>
    <path class="cls-5" d="M835.226,726.4138c.0903-.9319,19.6685.8785,55.87.3087,33.5997-.5288,51.5317-2.636,51.7084-1.4123.1737,1.2032-16.9413,4.7744-35.096,5.8086-6.6695.38-11.9473.3302-16.5498.2245-27.2625-.6264-56.0422-3.7986-55.9326-4.9295Z"/>
    <path class="cls-6" d="M876.1419,776.7404c-.0178.8363-16.5452.1757-50.3286,2.1803-13.9491.8277-24.1098,1.7104-40.638,1.6353-8.5498-.0389-14.7792-.3158-20.0064-.5451-56.4806-2.4781-70.9697-2.6966-70.9602-3.2705.0152-.9208,37.3361-1.3638,60.0192-1.3627,16.1843.0008,19.6701.2274,33.1356,0,22.8805-.3865,26.4678-1.2715,42.201-1.3627,24.0429-.1394,46.5983,1.7479,46.5774,2.7254Z"/>
    <path class="cls-6" d="M889.6227,671.1948c-.0146.7848-13.5355.1649-41.1734,2.0459-11.4116.7766-19.7241,1.6049-33.2456,1.5344-6.9945-.0365-12.0908-.2963-16.3671-.5115-46.2064-2.3253-58.0597-2.5303-58.052-3.0688.0124-.864,30.5443-1.2797,49.1012-1.2787,13.2402.0007,16.0919.2134,27.108,0,18.7184-.3626,21.6531-1.1931,34.5243-1.2787,19.6693-.1308,38.1217,1.6401,38.1046,2.5574Z"/>
  </g>
  <g>
    <path class="cls-37" d="M978.9826,627.3416c-111.5201,40.5634-223.0403,81.1268-334.5604,121.6903-1.294.4483-3.1044,1.1917-5.063,2.4317-18.9681,12.0088-17.8897,49.1105-12.3362,71.7723,8.6586,35.333,37.3663,72.9869,64.3517,71.0071,2.6114-.1916,4.7882-.7236,6.3786-1.2185,111.4992-38.9031,222.9984-77.8062,334.4976-116.7093-17.7561-49.6578-35.5122-99.3157-53.2683-148.9735Z"/>
    <ellipse class="cls-23" cx="1005.6167" cy="701.8284" rx="53.6026" ry="79.1053" transform="translate(-177.587 379.5597) rotate(-19.6755)"/>
    <ellipse class="cls-1" cx="1009.6209" cy="704.4728" rx="41.5886" ry="61.3754" transform="translate(-178.2435 381.0623) rotate(-19.6755)"/>
    <ellipse class="cls-2" cx="1008.44" cy="704.7059" rx="25.8055" ry="38.0831" transform="translate(-178.391 380.6783) rotate(-19.6755)"/>
    <path class="cls-10" d="M686.5477,768.6418c.4923,1.3,22.6711-7.7963,69.8834-21.1401,19.4939-5.5096,33.8501-9.0851,56.3575-17.2656,11.6428-4.2317,19.9866-7.7039,26.9898-10.6128,75.6701-31.4309,95.3153-38.8411,94.9812-39.7344-.536-1.4335-51.7008,16.0796-82.6469,27.1469-22.0798,7.8965-26.7087,9.9516-45.207,16.1646-31.4322,10.5571-36.8216,10.9222-58.3374,18.4546-32.8798,11.5107-62.5961,25.4674-62.0208,26.9868Z"/>
    <path class="cls-10" d="M831.7447,777.411c.3638,1.0753-16.9843,6.3263-50.9121,21.347-14.0087,6.202-24.0851,11.0772-41.1664,17.0767-8.836,3.1034-15.3874,5.047-20.8835,6.6816-59.3858,17.6629-74.4295,22.7271-74.682,21.9903-.4051-1.1823,37.8848-15.5121,61.2805-23.876,16.6926-5.9676,20.3914-6.9635,34.1757-12.2202,23.4221-8.932,26.7177-11.3859,42.903-17.3048,24.7339-9.045,48.8596-14.9515,49.2848-13.6947Z"/>
    <path class="cls-10" d="M739.4627,864.8008c.4923,1.3,22.6711-7.7963,69.8834-21.1401,19.4939-5.5096,33.8501-9.0851,56.3575-17.2656,11.6428-4.2317,19.9866-7.7039,26.9898-10.6128,75.6701-31.4309,95.3153-38.8411,94.9812-39.7344-.536-1.4335-51.7008,16.0796-82.6469,27.1469-22.0798,7.8965-26.7087,9.9516-45.207,16.1646-31.4322,10.5571-36.8216,10.9222-58.3374,18.4546-32.8798,11.5107-62.5961,25.4674-62.0208,26.9868Z"/>
    <path class="cls-21" d="M937.264,762.3645c-3.2325-5.159-19.7258-.2907-29.0748,2.5398-28.5901,8.656-46.5746,21.738-46.5912,21.7101-.0207-.0349,30.8252-16.0024,46.206-19.6484.0001,0,7.7296-1.8323,16.6956-.8391,2.0784.2302,3.7265.4128,5.7588,1.3079,3.163,1.3932,4.0772,3.1123,5.3125,2.7502,1.8429-.5402,3.2289-5.3693,1.6931-7.8205Z"/>
    <path class="cls-21" d="M645.1014,765.8273c.1399-6.0744,8.8246-10.1449,24.0932-16.4715,27.5965-11.4346,49.7985-12.722,49.7936-12.7541-.0061-.0401-33.9831,7.171-48.1885,14.1041-3.5385,1.0888-6.0803,2.4592-7.778,3.5402-1.3401.8533-1.449,1.0772-3.0535,2.0539-3.3694,2.0508-6.2671,3.1194-6.1378,3.5175.0845.2601,1.3262-.1835,1.5996.2698.4223.7002-2.2541,2.2332-3.3266,5.1578-.6223,1.6969-.4539,3.1785-.317,4.3823.5602,4.9274,3.8041,7.7796,3.517,8.042-.4578.4183-10.3521-5.3227-10.202-11.842Z"/>
    <path class="cls-9" d="M967.5684,651.096c.3429,1.0124,6.0499-9.0162,17.9383-12.8038,12.3625-3.9391,23.1554,1.5004,22.8685.4317-.2974-1.1081-12.4274-8.9185-23.9214-5.4173-11.4721,3.4942-17.2493,16.715-16.8854,17.7894Z"/>
    <path class="cls-7" d="M1041.6287,740.3533c2.6997-4.0291,3.9362-6.8269,3.5398-6.8159-.9721.0269-7.5647,16.7887-19.3596,20.0993-13.7854,3.8693-31.1801-11.9126-31.183-11.9143-1.0319-.7319-1.6258-.9935-1.8417-.8956-.518.2348,19.1875,20.6074,32.8949,16.2958,5.9725-1.8786,10.2497-8.2622,15.9496-16.7693Z"/>
    <path class="cls-12" d="M987.0832,709.4709c4.5414,15.8949,21.2581,27.8503,27.6941,25.0108.2254-.0994,1.7773-.7841,1.8578-1.8668.1633-2.1956-5.9196-3.3996-11.3133-6.4167-10.3342-5.7806-14.6107-16.2438-15.4747-18.3576-3.6412-8.9086-2.3115-16.6558-2.7826-16.6501-.5026.0061-2.6808,8.832.0188,18.2804Z"/>
    <ellipse class="cls-14" cx="996.7226" cy="682.8967" rx="1.8851" ry="2.4354" transform="translate(-204.259 550.8095) rotate(-28.1404)"/>
    <path class="cls-3" d="M1031.2885,672.5146c-.1579.391,6.4033,9.1176,7.7475,19.0566.7583,5.6069-.6852,7.5956-.7866,11.7131-.0427,1.7344.0931,2.814.3356,4.2522.9779,5.7997,4.3542,11.9492,5.8403,11.6361,1.9921-.4198,1.6774-12.6825-1.2448-23.4321-3.922-14.4269-11.8284-23.383-11.8919-23.2258Z"/>
    <path class="cls-11" d="M1040.394,711.7334c.8519,2.1396,2.8978,3.742,3.3933,3.4364.3386-.2088.0297-1.3558-.2343-2.0006-.4417-1.0785-1.0779-1.5318-1.5495-2.0915-1.7576-2.086-.8299-5.1766-1.1394-5.2044-.3084-.0277-1.6066,3.0055-.47,5.86Z"/>
    <path class="cls-11" d="M976.9891,640.4547c.1104.3131,2.8361-3.0897,7.9488-4.6967,5.3166-1.6712,9.6646-.2847,9.5796-.6177-.0881-.3453-4.9187-2.4475-9.8565-.9454-4.9283,1.4992-7.7891,5.9275-7.6719,6.2598Z"/>
    <path class="cls-9" d="M954.056,699.6351c1.3092,14.882,8.3894,25.9604,12.0752,31.7275,5.9307,9.2798,12.6306,15.8231,12.8749,15.6292.2029-.1611-3.9217-5.0671-9.1249-13.4122-3.2795-5.2599-5.7704-9.2549-8.3002-15.1234-5.4337-12.6044-5.9498-22.0102-6.0334-24.8281-.0219-.737-.0271-1.3083-.0305-1.6788-.1085-11.7947,2.6439-19.7627,2.7543-19.7382.136.0302-5.593,11.7635-4.2154,27.424Z"/>
    <path class="cls-5" d="M944.2342,730.8173c-.3988-.8471-18.2243,7.4495-52.504,19.1017-31.8161,10.8148-49.4106,14.8682-49.1649,16.0799.2415,1.1915,17.5596-1.2084,35.0026-6.3471,6.408-1.8878,11.3609-3.7116,15.6591-5.3608,25.4599-9.7689,51.4912-22.4458,51.0073-23.4738Z"/>
    <path class="cls-6" d="M812.9393,837.894c.2984.7815,15.6384-5.4052,48.1243-14.8922,13.4133-3.9172,23.278-6.507,38.8159-12.1427,8.0376-2.9153,13.81-5.2734,18.6548-7.2493,52.3486-21.35,65.9181-26.4341,65.716-26.9713-.3243-.8619-35.6154,11.2866-56.9738,18.9248-15.2391,5.4499-18.4451,6.8369-31.201,11.1565-21.6748,7.3398-25.3506,7.7143-40.1959,12.9256-22.6861,7.9638-43.2891,17.3351-42.9404,18.2485Z"/>
    <path class="cls-6" d="M800.6316,713.3681c.278.734,12.8008-4.402,39.4584-11.9363,11.0068-3.1109,19.1128-5.1297,31.8212-9.7487,6.5739-2.3894,11.2851-4.3498,15.2393-5.9923,42.7257-17.7468,53.818-21.9309,53.6294-22.4353-.3026-.8094-29.1919,9.079-46.665,15.328-12.4669,4.4586-15.0806,5.619-25.5253,9.127-17.7476,5.9609-20.7906,6.167-32.9391,10.4201-18.565,6.4993-35.3437,14.3797-35.0188,15.2376Z"/>
  </g>
  <g>
    <g>
      <path class="cls-28" d="M762.1063,769.6773c-64.5959-23.961-77.6405-95.8926-79.273-105.8403-2.8154-17.1559-2.8398-39.7809,4.7136-42.4218,9.4479-3.3034,23.1569,27.3156,33.8516,24.4246,11.382-3.0768,2.7754-39.6272,13.7121-78.4162,16.9047-59.9545,72.9776-98.5785,82.7011-92.1281,5.6101,3.7214-6.1665,21.1476-3.4279,57.4194,1.1689,15.4829,2.7802,36.8256,14.1406,41.5647,14.7076,6.1356,28.8772-22.6001,49.7062-18.8542,18.4752,3.3227,33.6937,30.6722,32.5663,53.9915-1.2629,26.1293-22.865,43.4136-18.854,47.5638,4.836,5.0042,32.7912-23.6917,44.1357-16.7116,11.6421,7.1632,4.2844,50.9704-18.8542,82.2727-22.0824,29.8733-52.794,40.587-65.9895,44.9928-14.9217,4.9823-49.9461,16.6768-89.1287,2.1426Z"/>
      <path class="cls-30" d="M766.5958,762.6394c-16.9606-11.98-32.1085-33.7658-31.8473-57.4805.3167-28.7499,22.98-33.0629,31.8473-75.7344,4.5394-21.8446,1.1587-33.0276,7.7676-35.7311,10.8086-4.4215,37.4895,18.2751,42.7219,45.0523,2.7819,14.2366-1.1106,26.4969,3.4954,28.3518,6.1169,2.4634,14.7533-18.8071,25.6332-17.4772,13.6113,1.6638,19.0736,37.2467,19.419,39.6149,3.1855,21.8414-2.6432,42.74-4.2759,48.4058-.1882.6533-.2698.9842-.3847,1.307-6.2818,17.6388-23.12,31.7358-42.3336,36.1195-26.0376,5.9406-46.1915-8.2949-52.0431-12.4282Z"/>
      <path class="cls-29" d="M793.5004,668.2241c-1.0517,3.4783-4.4372,14.6758,0,23.6912,4.9529,10.0634,18.8504,15.7776,28.7402,12.8167,7.9696-2.386,9.3423-9.2095,13.5934-8.5445,6.823,1.0673,12.2939,20.0545,9.3212,36.5079-3.1768,17.5825-17.6455,41.4014-39.6149,42.3336-24.4555,1.0378-40.3652-27.0408-44.6639-45.4407-5.1271-21.9458,3.3414-42.6297,13.5934-54.7618,7.8188-9.2528,19.8364-17.2726,21.7494-15.5352.9436.857-1.1069,3.6019-2.7186,8.9328Z"/>
    </g>
    <path class="cls-24" d="M718.6035,606.8886c1.8946-1.4432-.0711-5.8178-1.884-13.1755-13.1716-53.4586,15.4083-127.687,49.026-133.3981,15.9396-2.7078,28.3732,10.7757,34.5865,4.5257,5.8111-5.8454,1.7472-24.4928-8.7023-30.0034-18.0056-9.4955-50.3574,22.4453-54.0944,18.1783-3.8776-4.4276,36.4957-32.4925,35.5295-69.3166-.4773-18.1917-10.9785-36.0409-17.0292-35.3023-6.1817.7545-5.6915,20.6626-10.9684,42.4631-13.2206,54.6185-58.6526,104.6389-80.811,98.2695-12.111-3.4814-20.4792-24.7304-15.4985-37.8081,4.9617-13.0275,20.7232-11.5218,27.7739-26.1324,6.7246-13.9352,1.7756-34.7609-6.0001-36.866-13.106-3.5482-49.637,41.9193-50.4347,89.0148-1.2786,75.4971,89.5901,136.3433,98.5067,129.5511Z"/>
    <path class="cls-19" d="M712.4923,602.0817c5.6376-3.2699-16.2779-29.301-9.5403-69.1667,6.3355-37.4856,36.2357-76.7339,65.5675-77.3547,14.9717-.3169,26.0508,9.0828,31.4328,4.1131,5.2163-4.8168,1.3451-20.4049-8.1921-25.1021-16.434-8.0941-45.4806,18.2204-48.9139,14.6259-3.5626-3.7297,32.8018-26.7337,31.5637-57.4469-.6119-15.173-10.3171-30.1585-15.8012-29.6021-5.6028.5684-4.9624,17.1725-9.5374,35.2978-11.4619,45.4108-52.2018,86.6715-72.3738,81.1432-11.0251-3.0217-18.8283-20.8212-14.4364-31.6764,4.3751-10.8134,18.6939-9.4034,24.9492-21.5164,5.966-11.5529,1.2702-28.966-5.8073-30.7975-11.5133-2.9793-39.7581,35.2369-44.8971,73.7248-9.8518,73.7845,66.4972,139.2619,75.9863,133.758Z"/>
    <path class="cls-24" d="M708.0202,367.0047c2.7947-7.726,11.2305-7.8006,12.0744-13.8632.7967-5.7229-5.7095-12.9164-9.9875-12.2233-5.0715.8216-7.3946,12.7887-7.1551,20.8692.3575,12.0624,6.5921,21.0822,7.1551,20.8693.5239-.1982-4.847-8.0218-2.0869-15.6519Z"/>
    <path class="cls-19" d="M707.0036,367.0485c2.164-5.9824,8.696-6.0402,9.3495-10.7346.6169-4.4314-4.421-10.0015-7.7335-9.4648-3.927.6362-5.7258,9.9026-5.5403,16.1595.2768,9.3402,5.1044,16.3245,5.5403,16.1596.4057-.1534-3.7531-6.2115-1.6159-12.1197Z"/>
    <path class="cls-24" d="M784.8444,410.7082c7.1098-4.1173,13.6163,1.2523,18.1625-2.8464,4.2916-3.869,3.9379-13.5619.2168-15.7833-4.4113-2.6335-13.8884,5.0342-18.9032,11.3748-7.4861,9.4651-8.5153,20.3815-7.9473,20.5807.5286.1853,1.4495-9.2597,8.4712-13.3258Z"/>
    <path class="cls-19" d="M784.0379,410.0877c5.5053-3.1881,10.5435.9697,14.0637-2.204,3.3231-2.9959,3.0492-10.5013.1678-12.2214-3.4158-2.0392-10.7541,3.8981-14.6372,8.8078-5.7966,7.329-6.5936,15.7819-6.1538,15.9361.4093.1435,1.1224-7.17,6.5594-10.3185Z"/>
    <path class="cls-24" d="M783.7256,426.9573c3.3158-1.945,2.6302-5.8322,5.3472-6.7379,2.5648-.8549,6.4293,1.5243,6.4756,3.5515.0548,2.4032-5.2523,4.4933-8.9901,5.0727-5.5797.865-10.2613-1.2334-10.2114-1.5106.0465-.258,4.104,1.5452,7.3787-.3757Z"/>
    <path class="cls-19" d="M783.7922,427.4287c2.5675-1.5061,2.0366-4.516,4.1405-5.2173,1.986-.662,4.9784,1.1803,5.0142,2.75.0425,1.8609-4.067,3.4792-6.9612,3.9279-4.3205.6698-7.9456-.9551-7.907-1.1697.036-.1997,3.1779,1.1965,5.7135-.2909Z"/>
    <path class="cls-24" d="M840.8753,555.2748c.5947,1.1792,1.6946,3.2748,2.7951,3.1305,1.1509-.1508.9621-2.5465,2.385-3.7268,2.4525-2.0343,7.337,1.4951,10.9865,2.3158,10.5045,2.3626,16.9359-16.6124,27.3151-16.9935,12.8841-.4731,29.3567,24.7672,32.0244,50.0861,2.298,21.8119-6.2733,37.7594.9418,42.0366,6.4169,3.8039,15.7024-7.3242,25.4314-3.5775,12.1875,4.6935,8.7495,26.4445,15.0704,27.7263,11.4756,2.3272,44.2324-65.0226,29.1986-76.0238-9.9438-7.2767-32.61,16.0898-40.5015,9.8384-13.6975-10.8511,28.1822-102.1782,74.4098-102.8555,17.4602-.2558,30.9531,12.4875,33.9081,8.944,3.6804-4.4131-11.945-30.5409-32.9663-33.0928-27.0802-3.2875-54.7368,33.5663-63.1068,44.7198-10.9507,14.5924-16.2186,26.9873-19.7797,25.9375-6.2406-1.8398,10.7624-39.6613-8.4771-67.0796-9.1097-12.9823-24.5103-21.0178-29.1988-17.8881-5.2215,3.4857,7.1042,17.9745,1.8837,37.5647-3.849,14.4434-15.3408,24.5499-20.0685,28.2895-.505.3994-.8675.6759-1.5948,1.2256-15.3126,11.5703-24.5613,13.9509-35.1777,23.3236-1.1432,1.0094-4.0535,3.6458-5.4782,7.9379-.5495,1.6556-1.601,4.9868,0,8.1612Z"/>
    <path class="cls-19" d="M844.7585,559.454c.5964-.0269-.0775-3.2498,1.7441-4.6264,3.3933-2.5642,10.7635,4.8172,16.2147,1.6608.5437-.3148.8169-.6202,1.2347-.9539,3.6984-2.954,14.2925-8.4984,18.5301-9.2441,11.7424-2.0662,34.5161,22.1852,36.5112,50.281,1.5285,21.5251-9.7135,37.3118-3.5451,41.8417,5.4902,4.0319,15.4236-7.4315,25.4312-3.5775,12.1875,4.6935,8.7497,26.4445,15.0704,27.7263,11.4756,2.3272,44.2324-65.0226,29.1988-76.0238-9.9438-7.2767-32.6102,16.0898-40.5015,9.8384-13.6976-10.8511,28.1822-102.1782,74.4096-102.8555,17.4604-.2558,30.9533,12.4875,33.9083,8.944,3.6804-4.4131-11.945-30.5409-32.9663-33.0928-27.0802-3.2875-54.7368,33.5663-63.1068,44.7198-10.9507,14.5924-16.2186,26.9873-19.7797,25.9375-6.2406-1.8398,10.7624-39.6613-8.4771-67.0796-9.1097-12.9823-24.5103-21.0178-29.1988-17.8881-5.2215,3.4857,7.1042,17.9745,1.8837,37.5647-3.8492,14.4439-15.3422,24.5507-20.0689,28.2901-.5098.4033-.8704.6782-1.5945,1.225-22.0814,16.6766-34.3822,16.335-37.1979,25.8167-1.6095,5.4201,1.4773,11.5328,2.3,11.4957Z"/>
    <path class="cls-24" d="M949.8873,476.5218c3.7512-7.3096,12.1284-6.3146,13.7338-12.2214,1.5155-5.5758-4.0267-13.5358-8.358-13.3904-5.1347.1723-8.9556,11.7485-9.742,19.7942-1.174,12.0104,3.8673,21.7476,4.4528,21.6078.5448-.1302-3.7914-8.5714-.0866-15.7902Z"/>
    <path class="cls-19" d="M948.8733,476.4365c2.9047-5.66,9.3913-4.8895,10.6344-9.4633,1.1735-4.3175-3.1179-10.4811-6.4718-10.3685-3.9759.1334-6.9345,9.0972-7.5434,15.3271-.909,9.3,2.9946,16.8397,3.4479,16.7314.4219-.1008-2.9358-6.637-.0671-12.2267Z"/>
    <path class="cls-24" d="M957.7387,490.792c1.736-3.4299-.9439-6.3279.851-8.5596,1.6943-2.1068,6.2316-2.197,7.3674-.5173,1.3465,1.9913-1.9857,6.6206-4.8155,9.1304-4.2243,3.7466-9.2968,4.5151-9.4048,4.255-.1005-.2421,4.2874-.9212,6.0019-4.3085Z"/>
    <path class="cls-19" d="M958.0498,491.1525c1.3442-2.6558-.7309-4.8998.6589-6.6279,1.3119-1.6313,4.8253-1.7012,5.7048-.4005,1.0426,1.5419-1.5375,5.1265-3.7288,7.0699-3.271,2.9011-7.1987,3.4961-7.2824,3.2948-.0778-.1874,3.3199-.7133,4.6474-3.3362Z"/>
    <path class="cls-24" d="M975.5026,556.3185c8.2053.4181,10.7388,8.4648,16.7837,7.5025,5.7063-.9083,10.6876-9.2307,8.7761-13.1202-2.266-4.6109-14.3901-3.3401-22.0488-.7526-11.4329,3.8625-18.2403,12.4582-17.8724,12.9346.3425.4433,6.2579-6.9772,14.3613-6.5643Z"/>
    <path class="cls-19" d="M975.1639,555.3589c6.3536.3237,8.3153,6.5545,12.996,5.8093,4.4185-.7033,8.2757-7.1476,6.7956-10.1593-1.7546-3.5703-11.1426-2.5863-17.0729-.5827-8.8527,2.9908-14.1239,9.6467-13.839,10.0155.2652.3433,4.8456-5.4026,11.1203-5.0829Z"/>
    <path class="cls-24" d="M965.7162,569.3382c3.8402.1741,5.3818-3.4596,8.1539-2.7397,2.6167.6795,4.5626,4.7794,3.4975,6.5049-1.2626,2.0455-6.852.9087-10.3026-.6406-5.151-2.3128-7.935-6.622-7.7423-6.8273.1794-.1911,2.6008,3.5308,6.3934,3.7027Z"/>
    <path class="cls-19" d="M965.5154,569.7698c2.9736.1348,4.1673-2.6788,6.3137-2.1214,2.0262.5262,3.5329,3.7008,2.7082,5.0369-.9777,1.5839-5.3057.7037-7.9775-.496-3.9885-1.7908-6.1443-5.1276-5.995-5.2866.1389-.1479,2.0139,2.734,4.9506,2.8671Z"/>
    <path class="cls-24" d="M857.8763,498.2624c10.3693-28.0666-.1514-36.8265,8.9438-54.558,14.8252-28.9018,52.8831-25.3291,54.5582-42.0366,1.8951-18.9008-46.4084-27.4819-48.2973-53.6638-1.8027-24.9869,40.3316-42.9588,35.7757-51.8749-3.1044-6.0756-25.7189-3.7003-42.0366,7.1552-19.8609,13.2126-33.0522,40.756-25.9373,61.7133,8.1444,23.9896,38.838,27.3961,37.5645,42.0366-1.0247,11.779-20.8693,9.3123-31.3038,26.8319-12.7412,21.3923,7.5717,40.6423-3.5775,77.8124-4.2884,14.297-10.9165,23.5272-9.8384,24.1488,1.4854.8565,16.0133-15.5446,24.1488-37.5647Z"/>
    <path class="cls-19" d="M852.6978,500.2756c10.1855-29.5261.8401-38.7597,8.9438-54.558,14.8252-28.9018,52.8831-25.3291,54.5582-42.0366,1.8951-18.9008-46.4084-27.4819-48.2973-53.6638-1.8027-24.9869,40.3316-42.9588,35.7757-51.8749-3.1044-6.0756-25.7189-3.7003-42.0366,7.1552-19.8609,13.2126-33.0522,40.756-25.9373,61.7133,8.1444,23.9896,38.838,27.3961,37.5645,42.0366-1.0386,11.94-23.0709,9.513-31.3038,26.8319-8.5991,18.0891,10.0366,31.5565,4.8804,64.6191-2.4192,15.5135-8.7592,26.8932-7.826,27.2791.9969.4122,8.491-12.4647,13.6783-27.5018Z"/>
    <path class="cls-24" d="M902.5303,347.7396c6.1904-5.4019,13.6043-1.3769,17.282-6.2699,3.4717-4.6188,1.2695-14.0648-2.808-15.533-4.8338-1.7405-12.6681,7.5992-16.3767,14.7824-5.5361,10.7229-4.457,21.6345-3.8614,21.7213.5543.0807-.3495-9.3659,5.7641-14.7008Z"/>
    <path class="cls-19" d="M901.6199,347.285c4.7934-4.1828,10.5341-1.0661,13.3819-4.855,2.6883-3.5765.983-10.8907-2.1743-12.0276-3.7429-1.3477-9.8093,5.8843-12.6809,11.4464-4.2868,8.303-3.4512,16.7521-2.99,16.8193.4292.0625-.2706-7.2523,4.4633-11.3832Z"/>
    <path class="cls-24" d="M825.827,381.3202c1.4301,5.63,6.4668,6.821,20.5712,16.9935,13.9329,10.049,13.9917,12.474,13.8631,13.416-.8716,6.3844-18.5535,4.7325-22.8072,14.7575-3.2568,7.6755,4.01,15.9468,1.7888,17.4407-2.5136,1.6906-14.7778-6.913-13.8631-14.7575.9659-8.2842,15.8199-8.7778,16.9937-17.4407.9309-6.8711-7.3714-14.2529-12.9688-19.2296-7.7413-6.8829-12.3021-7.3534-12.9688-11.627-1.1384-7.2981,10.64-15.6875,12.5216-14.3103,1.5165,1.11-5.0026,7.3871-3.1305,14.7575Z"/>
    <path class="cls-19" d="M823.6488,381.6108c1.4301,5.63,6.4668,6.821,20.5712,16.9935,13.9329,10.049,13.9917,12.474,13.8631,13.416-.8716,6.3844-18.5535,4.7325-22.8072,14.7575-3.2568,7.6755,4.01,15.9468,1.7888,17.4407-2.5136,1.6906-14.7778-6.913-13.8631-14.7575.9659-8.2842,15.8199-8.7778,16.9937-17.4407.9309-6.8711-7.3714-14.2529-12.9688-19.2296-7.7413-6.8829-12.3021-7.3534-12.9688-11.627-1.1384-7.2981,10.64-15.6875,12.5216-14.3103,1.5165,1.11-5.0026,7.3871-3.1305,14.7575Z"/>
    <path class="cls-34" d="M920.8119,512.5675c3.7345-4.26,6.3475-12.4143,1.3416-29.5151,3.1783,7.3942,6.9275,19.8236,2.2362,31.751-1.8553,4.7171-6.7197,13.6491-10.7328,12.9688-1.6565-.2809-3.1122-2.1901-3.2794-4.0247-.396-4.3466,6.5766-6.7794,10.4345-11.18Z"/>
    <path class="cls-34" d="M933.531,605.4681c-3.7345-4.26-6.3475-12.4143-1.3416-29.5151-3.1783,7.3942-6.9275,19.8236-2.2362,31.751,1.8553,4.7171,6.7197,13.6491,10.7328,12.9688,1.6565-.2809,3.1122-2.1901,3.2794-4.0247.396-4.3466-6.5766-6.7794-10.4345-11.18Z"/>
    <path class="cls-34" d="M659.2621,436.9112c-3.7345,4.26-6.3475,12.4143-1.3416,29.5151-3.1783-7.3942-6.9275-19.8236-2.2362-31.751,1.8553-4.7171,6.7197-13.6491,10.7328-12.9688,1.6565.2809,3.1122,2.1901,3.2794,4.0247.396,4.3466-6.5766,6.7794-10.4345,11.18Z"/>
    <path class="cls-34" d="M766.7067,395.89c1.3175,5.5099-.1729,13.9418-12.5747,26.736,6.2593-5.0594,15.3713-14.307,16.7823-27.0459.5581-5.038.4194-15.2078-3.448-16.477-1.5964-.5238-3.7743.4864-4.7777,2.0314-2.3769,3.6606,2.6571,9.0638,4.0181,14.7555Z"/>
    <path class="cls-34" d="M856.2184,343.5096c-1.3175,5.5099.1729,13.9418,12.5747,26.736-6.2593-5.0594-15.3713-14.307-16.7823-27.0459-.5581-5.038-.4194-15.2078,3.448-16.477,1.5964-.5238,3.7743.4864,4.7777,2.0314,2.3769,3.6606-2.6571,9.0638-4.0181,14.7555Z"/>
    <path class="cls-34" d="M692.4117,547.0382c-1.6883-.4475-2.4412.9369-4.4909.7938-8.504-.5936-11.9721-25.5731-13.9533-25.2764-1.4811.2219-3.1243,14.7409,3.0317,30.5023,5.9304,15.1837,14.1881,26.1449,18.4441,24.4826,5.4962-2.1467,3.848-28.6784-3.0317-30.5023Z"/>
    <path class="cls-34" d="M892.2765,402.8015c1.3642-.5654,2.6034-.2432,4.4191-.7845,7.533-2.2458.7531-12.1301,2.6812-12.4956,1.4415-.2732,8.7252,4.5983,9.3781,11.7825.629,6.9209-2.5498,12.8666-7.1003,13.2801-5.8763.5341-14.9371-9.4785-9.3781-11.7825Z"/>
    <path class="cls-34" d="M697.4831,503.4707c-.9389-.0791.8958-21.7929,15.7113-33.6524,6.1324-4.9087,14.4823-8.1149,15.1808-6.6952.4855.9869-2.5585,4.5529-5.417,6.8292-2.6936,2.1451-5.0993,2.9416-5.7153,3.2961-13.2858,7.6467-19.0542,30.2818-19.7598,30.2223Z"/>
    <path class="cls-34" d="M964.5675,521.042c-.9186-.2094,3.93-21.4543,20.2564-31.1289,6.7577-4.0044,15.4735-6.0132,15.9669-4.5099.343,1.0451-3.1692,4.151-6.3175,6.0059-2.9667,1.7479-5.4601,2.2008-6.1196,2.4658-14.2234,5.7166-23.0959,27.3245-23.7863,27.1671Z"/>
    <ellipse class="cls-34" cx="1031.3444" cy="484.3195" rx="2.4596" ry="7.3788" transform="translate(236.3484 1300.5412) rotate(-70.9095)"/>
    <ellipse class="cls-34" cx="906.1889" cy="464.7784" rx="2.7577" ry="3.8012"/>
    <ellipse class="cls-34" cx="789.7084" cy="447.7983" rx="4.6956" ry="4.0993"/>
    <ellipse class="cls-34" cx="648.0212" cy="500.4931" rx="1.7888" ry="4.9192"/>
    <ellipse class="cls-34" cx="710.5544" cy="353.7377" rx="2.1615" ry="3.2049"/>
    <path class="cls-34" d="M852.5398,410.3829c.0012,2.6014-3.6765,4.006-4.0249,3.652-.2714-.2757,1.5175-1.5776,1.4908-3.7266-.0259-2.0894-1.7476-3.314-1.4908-3.5775.3378-.3467,4.0238,1.0483,4.0249,3.6522Z"/>
    <path class="cls-34" d="M984.8557,603.123c-.5234.0781-.2869-4.7472-3.7335-7.5256-3.7984-3.0619-9.1744-1.3039-9.2678-1.969-.106-.7537,6.5706-4.6278,10.9841-1.3922,4.4312,3.2484,2.6624,10.7905,2.0173,10.8868Z"/>
    <ellipse class="cls-34" cx="979.3203" cy="598.0568" rx="1.118" ry="1.6397"/>
    <path class="cls-34" d="M984.8034,559.6627c-.0171-.3685,3.1636-.6648,5.2325-3.4094,2.2799-3.0248,1.4715-6.7172,1.9182-6.8486.5063-.149,2.6303,4.2734.1946,7.7569-2.4454,3.4974-7.3243,2.9553-7.3453,2.5011Z"/>
    <path class="cls-34" d="M972.4983,571.2295c-.0832-.0137.0015-.7391-.514-1.332-.5682-.6535-1.4323-.648-1.4405-.7541-.0093-.1203,1.0806-.3853,1.7439.3248.666.7129.3132,1.7783.2106,1.7614Z"/>
    <path class="cls-34" d="M950.2612,459.5244c-.0148.3183,2.7328.5742,4.5198,2.9451,1.9694,2.6128,1.271,5.8023,1.6569,5.9158.4374.1287,2.272-3.6914.1681-6.7004-2.1123-3.021-6.3267-2.5528-6.3449-2.1605Z"/>
    <path class="cls-34" d="M962.9665,485.136c-.0611.0581-.5882-.4474-1.3722-.3944-.864.0584-1.3813.7506-1.4709.693-.1015-.0652.3452-1.094,1.3118-1.1942.9704-.1005,1.6067.824,1.5313.8956Z"/>
    <ellipse class="cls-34" cx="962.005" cy="487.0439" rx=".3928" ry=".3367"/>
    <ellipse class="cls-34" cx="952.5209" cy="466.2518" rx=".449" ry="1.3749"/>
    <path class="cls-34" d="M860.7874,544.0072c.2641.6164,3.2313-.0261,5.0684-.5963,2.9376-.9118,5.7365-2.4927,12.2232-8.3476,2.4879-2.2456,4.1763-3.7695,6.559-6.2609,4.4847-4.6892,10.5085-11.8435,9.8384-12.5216-.591-.5982-6.3164,3.9196-10.4347,7.7515-5.1148,4.7592-4.8304,5.7433-8.944,9.5401-7.505,6.9269-14.733,9.4483-14.3103,10.4347Z"/>
    <path class="cls-34" d="M907.2888,333.7131c-.0148.3183,2.7328.5742,4.5198,2.9451,1.9694,2.6128,1.271,5.8023,1.6569,5.9158.4374.1287,2.272-3.6914.1681-6.7004-2.1123-3.021-6.3267-2.5528-6.3449-2.1605Z"/>
    <path class="cls-34" d="M794.6163,396.5348c-.1869.2581,1.9703,1.9788,2.1645,4.9414.214,3.2649-2.1191,5.5491-1.8587,5.8556.2951.3475,3.9243-1.8408,3.8151-5.5108-.1096-3.6846-3.8906-5.6042-4.1209-5.2861Z"/>
    <ellipse class="cls-34" cx="788.3688" cy="424.3441" rx=".7439" ry="1.0254"/>
    <path class="cls-35" d="M922.7729,684.4192c.0817,7.9459-4.5886,19.0113-25.5418,32.6357,10.1388-4.9647,25.4861-14.7662,31.3924-31.7461,2.3359-6.7152,5.3209-20.6655.4284-23.6085-2.0196-1.2147-5.3132-.513-7.1676,1.2865-4.3931,4.2639.8041,13.224.8886,21.4323Z"/>
    <path class="cls-35" d="M888.2245,588.3005c17.901,20.4931-2.8949,54.3602-4.3729,54.064-1.3953-.2796,11.7304-31.544-2.8266-48.7528-13.2615-15.6772-41.4839-10.2166-41.446-11.6189.0406-1.4972,32.3422-12.3565,48.6455,6.3077Z"/>
    <path class="cls-35" d="M747.4561,604.6507c-4.8018-1.2026-5.0324-28.7334,5.0684-53.9617,4.7834-11.9472,12.3553-24.5561,25.0429-33.9872,5.8228-4.3283,15.6954-10.1967,18.1862-7.7513,3.5141,3.4497-14.755,17.2688-12.9688,35.7757,2.0179,20.9057,24.2317,33.2449,21.0182,38.0119-2.8742,4.2635-18.9551-8.1138-34.8814-2.236-15.2399,5.6246-17.3989,25.1671-21.4656,24.1486Z"/>
    <path class="cls-35" d="M728.5675,740.1516c-.504.4151-13.3686-10.7417-23.5206-29.2167-3.1126-5.6644-6.4583-15.801-13.1497-36.0741-1.0373-3.1425-3.6957-11.4897-3.7266-22.509-.0188-6.6996-.0288-10.2777,2.236-11.9253,7.6386-5.5571,36.558,14.1901,33.9872,23.8506-.9539,3.5847-6.3682,6.2468-10.7328,5.8135-6.8328-.6782-9.3137-8.7648-11.755-8.0495-3.4443,1.0092-4.0516,18.7308,2.5128,37.8626,8.5999,25.064,24.721,39.7765,24.1488,40.2479Z"/>
    <path class="cls-35" d="M811.3104,604.6892c-2.8746,3.3245,6.0921,10.6787,9.2627,26.1972,2.6795,13.1151-.5444,23.4284,2.0869,24.1488,2.339.6405,3.8938-7.7809,11.6272-11.0309,7.331-3.081,13.4654,1.3215,15.5028-1.6378,1.9185-2.7866-1.2043-10.0557-5.6646-11.1819-5.9363-1.4988-11.1177,8.6718-14.6085,7.1553-4.8437-2.1043,4.233-22.0775-4.4719-30.9326-4.1579-4.2297-11.6231-5.16-13.7346-2.718Z"/>
    <path class="cls-35" d="M845.9839,764.5985c.8157,1.1745,12.0835-2.6922,19.7472-12.1506,8.3259-10.2756,8.2376-22.0158,8.2074-26.0102-.0623-8.2685-2.4508-15.6034-3.2794-15.5028-1.0842.1315,2.7634,12.7166-1.6382,25.9373-6.0873,18.284-24.0958,26.2018-23.0371,27.7263Z"/>
    <path class="cls-27" d="M796.396,674.5289c-3.7581,4.3816-1.1923,11.9791,1.4243,15.9881,6.107,9.3568,21.3954,12.81,28.8326,6.9764,4.0785-3.199,5.7828-9.1807,4.3604-10.4329-1.7269-1.5202-7.0439,5.9092-13.6627,4.6192-4.6784-.9118-8.801-5.9299-9.8802-10.7392-1.0479-4.6701,1.1736-7.3614-.5847-9.0279-2.0716-1.9635-7.6933-.644-10.4898,2.6163Z"/>
    <path class="cls-32" d="M815.8421,760.5078c-.8988,5.1946-15.0046,9.7205-24.7485,4.6883-9.5958-4.9558-11.4093-18.2966-10.5453-18.7293.8625-.4319,7.4743,14.9103,11.8812,13.799,3.0921-.7797,1.5038-8.7453,5.7128-10.9528,5.5958-2.9349,18.6371,5.7773,17.6998,11.1949Z"/>
    <ellipse class="cls-32" cx="774.1858" cy="740.1628" rx="3.48" ry="5.5431"/>
    <path class="cls-22" d="M757.8498,580.0052c-2.031-.5087-2.1286-12.1535,2.1438-22.8245,2.0233-5.0534,5.226-10.3867,10.5926-14.3758,2.4629-1.8308,6.6388-4.3129,7.6923-3.2786,1.4864,1.4592-6.241,7.3043-5.4855,15.1323.8535,8.8426,10.2494,14.0618,8.8902,16.0781-1.2157,1.8034-8.0176-3.432-14.754-.9458-6.4461,2.3791-7.3593,10.6451-9.0794,10.2143Z"/>
    <path class="cls-22" d="M818.0499,617.1458c-1.8105,2.0938,3.837,6.7257,5.8339,16.4997,1.6876,8.2603-.3429,14.7558,1.3144,15.2095,1.4732.4034,2.4524-4.9006,7.3231-6.9476,4.6173-1.9405,8.4809.8323,9.7641-1.0315,1.2083-1.7551-.7585-6.3334-3.5677-7.0427-3.7388-.944-7.0022,5.4617-9.2008,4.5066-3.0507-1.3253,2.666-13.905-2.8165-19.4822-2.6188-2.664-7.3206-3.2499-8.6504-1.7118Z"/>
    <path class="cls-22" d="M718.8226,730.806c-.2894.1885-10.3171-11.3416-18.0188-28.5764-3.7496-8.3911-7.1164-18.4573-10.8384-29.7333-.8549-2.5902-3.046-9.4701-3.0716-18.5526-.0155-5.5219-.0236-8.4711,1.8431-9.8291,6.2959-4.5804,30.132,11.6958,28.013,19.6585-.7861,2.9546-5.2488,5.1486-8.8462,4.7915-5.6318-.5589-7.6767-7.2241-9.6888-6.6346-2.7081.7935-2.7644,14.6781,2.071,31.2075,6.698,22.8969,18.8596,37.4584,18.5365,37.6685Z"/>
    <path class="cls-22" d="M885.964,590.8261c17.1648,20.5296-2.8751,54.3652-4.3729,54.064-1.3992-.2813,11.5895-30.7188-2.8266-48.7528-12.7559-15.9572-39.332-12.6509-39.1855-14.1445.1576-1.6061,31.2654-9.2503,46.385,8.8332Z"/>
    <path class="cls-22" d="M922.9839,685.8146c.2793,6.1847-2.6438,15.1576-17.6791,26.746,15.726-9.7802,20.5436-20.9377,22.2096-26.0569,1.5002-4.6102,4.2268-15.9391.3317-18.2819-1.5639-.9408-4.1145-.3973-5.5504.9963-3.3896,3.2898.4024,10.2667.6883,16.5965Z"/>
    <path class="cls-16" d="M795.8439,680.4934c-2.4258,4.5487,3.2817,11.0522,3.7467,11.57,5.9044,6.5747,16.8902,8.2876,23.3849,4.3608,3.3076-1.9999,4.69-5.7385,3.5364-6.5213-1.335-.9056-5.4927,3.6518-11.081,2.8873-3.4273-.4688-6.8129-2.896-7.9294-5.7317-1.0276-2.6097.7639-4.1697-.5584-6.6236-.9278-1.7221-2.8572-3.0482-4.9876-3.2208-2.6277-.2129-5.092,1.3673-6.1116,3.2794Z"/>
    <circle class="cls-17" cx="804.8966" cy="684.8182" r="1.5995"/>
    <circle class="cls-26" cx="773.9547" cy="742.1682" r="2.0054"/>
    <path class="cls-26" d="M809.4771,760.2556c.1585,3.1603-6.53,6.9758-12.2474,6.171-5.3199-.749-8.8178-5.3603-8.5467-5.7512.3148-.4542,6.1047,4.2246,8.1755,2.5801,1.7766-1.4108-1.1525-5.9119.6434-7.6987,2.356-2.344,11.7911,1.0313,11.9752,4.6989Z"/>
    <path class="cls-17" d="M822.9785,620.7479c-1.0542.9109-.8782,2.2701-1.2774,2.289-.5498.0262-1.7294-2.5132-.81-3.6645,1.1481-1.4381,4.8444.1987,4.8023.5719-.0269.2396-1.5777-.1788-2.7149.8036Z"/>
    <path class="cls-17" d="M837.3267,637.6191c-.1472-1.1663-.7812-1.6077-.6949-1.9121.1189-.4193,1.505-.2266,1.7889.9407.3547,1.4579-1.2344,3.5141-1.3871,3.3258-.098-.1208.4517-1.0965.2931-2.3545Z"/>
    <path class="cls-17" d="M924.8741,672.6077c-1.7058.9535-1.8482,2.8708-2.4019,2.784-.7629-.1196-1.6656-3.9417-.077-5.2638,1.9837-1.651,6.5994,1.6423,6.4361,2.1432-.1047.3216-2.1172-.6915-3.9572.3365Z"/>
    <path class="cls-17" d="M881.7833,593.5364c-2.1167-1.9515-4.0006-1.7771-4.3196-2.4833-.4394-.9728,2.4603-2.8001,4.8347-1.0625,2.9656,2.17,3.2362,8.5287,2.6531,8.4172-.3743-.0714-.8851-2.7661-3.1682-4.8714Z"/>
    <circle class="cls-17" cx="874.7883" cy="588.7989" r=".8418"/>
    <circle class="cls-17" cx="825.782" cy="622.0626" r=".5472"/>
    <path class="cls-17" d="M712.0397,661.3478c.2455,1.3423-.6603,2.6818-1.7536,3.2647-1.9916,1.0618-4.5477-.4176-4.4895-.9698.0717-.6807,4.1342-.1135,4.77-1.7801.4435-1.1622-1.0958-2.5815-.8219-2.8098.2579-.215,2.0074.7231,2.2949,2.2949Z"/>
  </g>
  <g>
    <path class="cls-31" d="M1020.4888,818.1872c-113.9511-33.1253-227.9021-66.2507-341.8532-99.376-1.309-.4024-3.209-.8716-5.5218-1.0277-22.3991-1.5108-43.4396,29.0668-52.3413,50.6344-13.8789,33.6269-12.9491,80.967,9.9971,95.3058,2.2205,1.3876,4.2914,2.2438,5.8671,2.7836,112.9537,34.4528,225.9073,68.9057,338.861,103.3585,14.9971-50.5595,29.9941-101.1191,44.9912-151.6786Z"/>
    <ellipse class="cls-23" cx="997.9932" cy="894.0265" rx="79.1053" ry="53.6026" transform="translate(-142.9261 1596.5769) rotate(-73.4785)"/>
    <ellipse class="cls-1" cx="999.6628" cy="898.5253" rx="61.3754" ry="41.5886" transform="translate(-146.0443 1601.397) rotate(-73.4785)"/>
    <ellipse class="cls-2" cx="998.5722" cy="898.0159" rx="38.0831" ry="25.8055" transform="translate(-146.3364 1599.9869) rotate(-73.4785)"/>
    <path class="cls-10" d="M701.0496,759.5141c-.3705,1.3399,22.8996,7.0971,68.8799,24.2107,18.9852,7.0661,32.6821,12.6591,55.6765,19.3494,11.8947,3.4608,20.6787,5.5864,28.048,7.3748,79.627,19.3235,99.8567,24.9452,100.1147,24.0271.414-1.4733-51.2181-17.5565-82.7273-26.9009-22.4816-6.6671-27.4307-7.7423-46.0279-13.6529-31.6001-10.0432-36.165-12.9313-57.9764-19.5592-33.3316-10.1285-65.5546-16.415-65.9876-14.8491Z"/>
    <path class="cls-10" d="M813.0436,852.3387c-.3415,1.0826-17.4423-4.925-53.6924-12.8399-14.9676-3.2681-25.9782-5.2845-43.3058-10.5306-8.9633-2.7138-15.398-5.0144-20.7987-6.941-58.3549-20.8172-73.4858-25.6147-73.2544-26.3584.3713-1.1933,39.7336,9.8552,63.5531,16.9222,16.9951,5.0422,20.5681,6.4229,34.7963,10.3213,24.1764,6.6242,28.285,6.5901,44.8419,11.3721,25.3017,7.3077,48.2591,16.789,47.86,18.0543Z"/>
    <path class="cls-10" d="M689.8157,867.4949c-.3705,1.3399,22.8996,7.0971,68.8799,24.2107,18.9852,7.0661,32.6821,12.6591,55.6765,19.3494,11.8947,3.4608,20.6787,5.5864,28.048,7.3748,79.627,19.3235,99.8567,24.9452,100.1147,24.0271.414-1.4733-51.2181-17.5565-82.7273-26.9009-22.4816-6.6671-27.4307-7.7423-46.0279-13.6529-31.6001-10.0432-36.165-12.9313-57.9764-19.5592-33.3316-10.1285-65.5546-16.415-65.9876-14.8491Z"/>
    <path class="cls-21" d="M907.0827,902.5121c.4382-6.0723-15.7469-11.884-24.963-15.1209-28.1839-9.899-50.423-9.9629-50.4199-9.9951.0039-.0404,34.3262,5.2904,48.8915,11.4315.0001,0,7.3198,3.0862,13.9687,9.1827,1.5413,1.4132,2.7635,2.5339,3.8749,4.4564,1.7298,2.9922,1.4523,4.9194,2.663,5.3567,1.8062.6524,5.7766-2.4262,5.9848-5.3112Z"/>
    <path class="cls-21" d="M669.2649,732.7661c3.7002-4.8193,13.1126-2.9754,29.1705.9362,29.023,7.0699,47.7001,19.1426,47.7151,19.1138.0187-.036-31.659-14.2822-47.2171-17.0764-3.4985-1.211-6.3591-1.6063-8.3675-1.7365-1.5854-.1028-1.8054.0136-3.6771-.1459-3.9302-.3349-6.8997-1.1838-7.0305-.7862-.0854.2598,1.1786.6351,1.1316,1.1624-.0727.8144-3.1379.471-5.7305,2.1978-1.5043,1.0019-2.2434,2.297-2.8438,3.3492-2.4579,4.3072-1.5245,8.5246-1.9111,8.5668-.6164.0672-5.2107-10.409-1.2394-15.5813Z"/>
    <path class="cls-9" d="M997.2492,830.6159c-.3212,1.0194,10.2068-3.7032,22.0375.2611,12.3027,4.122,17.8001,14.8855,18.1998,13.8537.4144-1.0699-4.7619-14.5363-16.1051-18.4988-11.3214-3.9552-23.7913,3.3021-24.1321,4.384Z"/>
    <path class="cls-7" d="M1004.3031,946.3831c4.5581-1.6571,7.2082-3.1847,6.8818-3.4099-.8003-.5524-16.0194,9.0809-27.4929,4.7869-13.4098-5.0187-18.1269-28.0272-18.1283-28.0302-.4005-1.2-.7253-1.7619-.9573-1.8104-.5567-.1164,3.3142,27.9614,16.9222,32.5771,5.9291,2.0111,13.1507-.6144,22.7745-4.1134Z"/>
    <path class="cls-12" d="M978.5234,889.2487c-5.7221,15.509.7078,35.0292,7.5785,36.5386.2406.0529,1.8973.4168,2.6017-.4093,1.4284-1.6754-2.7694-6.2394-5.3403-11.8594-4.9258-10.7679-2.1978-21.7371-1.6466-23.9532,2.3227-9.3395,7.971-14.8062,7.5874-15.0798-.4092-.2919-7.3792,5.5441-10.7806,14.7632Z"/>
    <ellipse class="cls-14" cx="1001.996" cy="873.4962" rx="2.4354" ry="1.8851" transform="translate(-3.3098 1743.1811) rotate(-81.9434)"/>
    <path class="cls-3" d="M1036.0218,885.5313c-.3583.2223-.2171,11.1394-5.0019,19.9539-2.6993,4.9726-5.0386,5.7249-7.5521,8.9878-1.0587,1.3744-1.5867,2.3259-2.2404,3.6297-2.6359,5.2578-3.5429,12.2143-2.1588,12.8393,1.8555.8377,8.8435-9.2441,12.8336-19.6447,5.355-13.9586,4.2637-25.8553,4.1196-25.766Z"/>
    <path class="cls-11" d="M1020.2086,922.558c-.5761,2.2298.1287,4.7311.7089,4.7771.3965.0314.8247-1.0766.9923-1.7528.2804-1.1312.0347-1.8728-.0153-2.6029-.1865-2.7214,2.3874-4.6675,2.154-4.8728-.2325-.2045-3.0714,1.4766-3.84,4.4514Z"/>
    <path class="cls-11" d="M1011.1359,827.592c-.0959.3179,4.1134-.8185,9.1883.9041,5.2774,1.7911,7.9673,5.4778,8.0954,5.1589.1328-.3307-2.5239-4.88-7.3958-6.5838-4.8625-1.7007-9.7863.1835-9.888.5209Z"/>
    <path class="cls-9" d="M957.6793,861.8067c-7.7322,12.7828-8.5611,25.9043-8.9925,32.735-.6943,10.9912.8482,20.2283,1.1599,20.2161.2589-.0102-.1724-6.4051.5571-16.2123.4598-6.1815.809-10.8764,2.2331-17.1062,3.0588-13.3806,8.1969-21.2758,9.7937-23.5991.4176-.6076.7507-1.0718.9668-1.3728,6.8779-9.5823,13.8047-14.387,13.8793-14.302.0919.1047-11.4606,6.19-19.5974,19.6415Z"/>
    <path class="cls-5" d="M780.7359,842.6288c.1784-.9192-19.1063-4.751-53.6511-15.592-32.0621-10.0619-48.6545-17.1815-49.1719-16.0586-.5087,1.1042,14.8841,9.3949,31.9952,15.5492,6.2861,2.2609,11.3601,3.7141,15.8026,4.9215,26.3151,7.1522,54.8086,12.2952,55.0252,11.1799Z"/>
    <path class="cls-6" d="M727.1977,879.2421c-.2207.8069,15.8122,4.8735,47.6307,16.4025,13.1378,4.7603,22.628,8.496,38.4952,13.1242,8.2079,2.3941,14.2588,3.9001,19.3354,5.1667,54.8534,13.6859,68.8064,17.5967,68.9605,17.0438.2473-.8871-35.4067-11.925-57.1537-18.3744-15.5163-4.6016-18.9227-5.3756-31.7675-9.4229-21.8259-6.8772-25.0135-8.7458-40.0711-13.3073-23.0106-6.9709-45.1714-11.5756-45.4294-10.6326Z"/>
    <path class="cls-6" d="M744.288,774.2206c-.2092.7565,12.9298,4.0073,38.8917,13.6701,10.7196,3.9898,18.4533,7.1477,31.4367,10.9253,6.7161,1.9541,11.6758,3.1543,15.8368,4.164,44.9599,10.9107,56.3822,14.0849,56.5279,13.5664.2338-.8319-28.9193-9.913-46.7104-15.1891-12.6938-3.7645-15.4883-4.3715-25.9888-7.7088-17.8424-5.6707-20.4199-7.3014-32.7353-11.0437-18.82-5.7189-37.0142-9.2684-37.2587-8.3842Z"/>
  </g>
  <path class="cls-4" d="M732.8351,734.6753l58.1357,17.8881,55.4526,15.2047c17.0973,18.6504,25.1475,28.4894,24.1488,29.5151-.8066.8283-7.5139-4.0905-20.1238-14.7575-13.9474,2.8465-24.9024,2.468-31.7512,1.7888-46.4183-4.6034-74.9732-45.0442-95.7002-34.4344-.6442.3296-14.6357,7.5441-20.422,5.2919-2.7968-1.0885-4.173-3.1294-4.1738-3.1303-1.0858-1.6097-1.2919-3.269-1.3348-4.1467-.2003-3.6394-1.0359-7.9528-4.0315-9.6418-4.8485-2.7338-10.5594,4.111-17.4411,2.236-6.6493-1.8118-11.9332-11.0951-9.8382-15.2047,1.9539-3.8325,11.4453-5.3622,42.0368,2.6832,8.3476,2.236,16.6952,4.4719,25.0428,6.7079Z"/>
  <path class="cls-33" d="M735.8601,732.9063l56.618,18.534c18.9259,5.6662,37.8518,11.3323,56.7777,16.9985,13.8454,14.6506,20.3102,22.4744,19.3911,23.468-.7966.8609-7.1373-3.4066-19.0249-12.8054-14.0611.8783-24.9306-.382-31.6963-1.5001-47.9623-7.9261-89.0378-39.6151-92.8678-34.2308-.4644.6529.007,1.1823-.7192,2.4104-3.1947,5.4015-18.5953,5.5022-23.4036-1.7888-1.0576-1.6034-1.4048-3.2643-1.532-4.4172-.1798-1.8907-.2796-5.909-3.3637-7.5526-5.6045-2.9867-12.8899-3.4733-17.4948.111-4.1359,3.2193-3.8927,7.5068-6.1288,7.6473-3.4066.2142-9.3294-9.399-6.6601-14.4963,4.5388-8.6679,32.9476-2.4138,45.6488.3824,10.4646,2.3038,18.864,5.1399,24.4558,7.2396Z"/>
  <path class="cls-18" d="M829.1281,770.0474c-7.6477,2.303-19.2472,2.6033-26.4955,1.0866-8.8862-1.8595-6.3202-5.5156-22.2417-14.4401-13.6393-7.6454-22.3731-12.5411-31.0838-10.3167-2.0123.5139-5.6756,1.8298-9.3912.2235-3.6243-1.5668-5.2306-5.0204-6.0372-6.4844-6.5248-11.8404-27.4722-14.5768-27.2789-15.2047.1748-.568,17.008,2.6862,48.2971,13.6396,19.5256,6.8353,18.9321,7.488,33.0926,12.2979,31.2354,10.6095,58.6767,15.7737,58.4339,16.9191-.0781.3691-2.9067-.266-8.1241.2981-4.5779.4951-7.7997,1.568-9.1712,1.9811Z"/>
  <path class="cls-33" d="M849.0489,768.353c19.4475-11.6483,38.8951-23.2963,58.3426-34.9446,11.9677,5.1045,15.6098,17.0952,11.9251,23.1051-2.7234,4.442-9.9697,6.4662-17.4407,4.7702-8.6987,1.1931-17.0598,3.1588-17.4407,6.5588-.1945,1.737,1.8557,2.4007,2.6832,4.9191,2.4179,7.3581-8.6422,21.2984-17.4778,19.975-1.2718-.1904-3.17-.7979-8.0425-6.1223-3.9673-4.3354-8.544-10.3086-12.5492-18.2614Z"/>
  <path class="cls-18" d="M908.2853,734.9464c5.0805,2.5397,5.8005,12.8367,3.1387,14.3726-2.2365,1.2903-4.5547-4.9338-9.9867-5.4955-11.2937-1.1676-26.2503,23.1521-36.8646,27.8947-.6098.2724-3.2666,1.4595-4.3234.4472-1.278-1.2244,1.0286-4.4737-.0742-5.6646-1.7629-1.9034-10.344,3.4932-10.472,3.2796-.1423-.2378,10.6236-6.6868,17.2543-11.0309,16.2895-10.6721,34.6625-26.3555,40.8814-23.9995.2216.0839.4455.1959.4466.1964Z"/>
  <path class="cls-4" d="M666.3599,718.2387c-.179.0217-3.1476.4282-4.1742,2.8695-.9013,2.1432.1009,4.8866,1.23,5.1428.8712.1978,2.3398-.9667,2.3398-.9667h0s3.7067-1.835,3.9209-1.9402c5.7889-2.8428,22.0232-.6709,22.0243-.6707,4.6556.6229,10.513,1.5338,17.2663,2.8966-2.0525-1.3845-3.378-2.8059-4.1877-3.809-.9485-1.1753-1.6836-2.483-3.1147-5.0508-.9582-1.719-1.7099-3.1526-2.2095-4.1247-1.9423,1.9461-4.8582,4.1811-8.4995,4.3114-5.2047.1864-7.5383-4.0833-12.6706-4.4719-2.8042-.2123-6.8013.7068-11.9251,5.8135Z"/>
  <path class="cls-33" d="M671.3592,717.2983c-1.4999,1.0688-2.733,1.8994-3.5462,2.438-2.977,1.9719-4.881,3.0486-4.9545,4.4449-.0108.2036-.0402.7666.3368,1.0943.4168.3621,1.0587.2005,1.1782.1684,2.1785-1.2635,5.5105-2.89,9.8034-3.808,2.3228-.4967,6.3376-1.0877,18.0598.6092,4.1212.5966,9.5552,1.5281,15.9098,3.0304-1.8719-1.9042-3.2206-3.6549-4.1471-4.9845-1.1016-1.5805-1.9276-3.0025-2.646-4.2911-.8143-1.4603-1.4527-2.6783-1.8773-3.5041-3.9221,4.5465-7.0731,5.393-9.1755,5.3721-4.0876-.0404-5.9421-3.3753-10.5223-3.6197-3.5741-.1906-6.5604,1.6204-8.4191,3.0501Z"/>
  <path class="cls-18" d="M674.9762,717.5423c-.2131.2477-.7339.9081-1.6523,1.2331-.8576.3033-1.3824.074-2.1039.0744-2.1689.0014-2.264,2.0792-5.6679,3.8161-.4037.2059-1.5316.7531-1.9922,1.88-.0924.2258-.191.476-.0843.6173.3322.4389,2.3785-.5307,4.4336-1.6556,3.7628-1.4346,6.5936-2.4303,7.6318-2.7499.3759-.1156.9447-.2745,1.6836-.3366.6109-.0514,1.08-.0149,1.2629,0,12.5055,1.0245,15.0734,1.4218,15.0746,1.422,3.8459.5949,8.6376,1.435,14.1632,2.6348-1.6662-1.6556-2.8668-3.1777-3.6916-4.3337-.981-1.3743-1.7161-2.6106-2.3556-3.731-.725-1.2697-1.2934-2.3286-1.6712-3.0466-.8557,1.0562-3.883,4.5338-8.1686,4.6709-1.9813.0634-3.9445-.5963-4.5121-.7871-3.0652-1.0301-2.9032-2.0703-4.8551-2.3601-2.5312-.3757-5.9889.9008-7.495,2.6518Z"/>
</svg>