<?xml version="1.0" encoding="UTF-8"?>
<svg id="Layer_1" data-name="Layer 1" xmlns="http://www.w3.org/2000/svg" viewBox="0 0 1621.4173 1264.252">
  <defs>
    <style>
      .cls-1 {
        fill: #f5a03b;
      }

      .cls-2 {
        fill: #f9ac59;
      }

      .cls-3 {
        fill: #fcd4aa;
      }

      .cls-4 {
        fill: #d97b32;
      }

      .cls-5 {
        fill: #de884e;
      }

      .cls-6 {
        fill: #d98e3f;
      }

      .cls-7 {
        fill: #b86f32;
      }

      .cls-8 {
        fill: #864f20;
      }

      .cls-9 {
        fill: #fabb80;
      }

      .cls-10 {
        fill: #a26328;
      }

      .cls-11 {
        fill: #ac6b29;
      }
    </style>
  </defs>
  <path class="cls-10" d="M803.2259,271.9152c3.7214-3.5507,2.2456-11.5432,1.5332-15.1792-23.3091-118.9728-34.964-178.4591-72.4329-211.3233-55.7194-48.8716-130.3802-39.5142-130.4125-25.4159-.0291,12.642,59.9713,19.2348,95.2397,73.8756,36.0455,55.8444,8.3495,103.1468,48.328,147.7727,18.6381,20.8049,49.4433,38.1906,57.7445,30.2701Z"/>
  <g>
    <ellipse class="cls-4" cx="803.1864" cy="734.0776" rx="361.0687" ry="511.7171"/>
    <path class="cls-1" d="M1012.8021,317.4259c-64.3782,6.3097-135.4876,10.3444-212.3684,10.2459-74.7429-.0959-143.9923-4.0839-206.8623-10.2459,1.737-14.5192,3.474-29.0383,5.2109-43.5575,1.1832-8.5466,4.6397-23.1327,16.4969-33.6228,10.7441-9.5054,23.4479-11.6067,29.2815-12.0491,51.0345-3.8713,106.1239-6.1246,164.7875-5.8363,51.1274.251,99.4646,2.4054,144.6894,5.8363,6.1488.8168,17.9754,3.2829,29.2815,12.0491,20.3806,15.8026,22.814,39.4749,23.1905,43.9787,2.0974,11.0671,4.1952,22.1345,6.2926,33.2016Z"/>
    <path class="cls-1" d="M1029.8113,420.4032c-61.1735,11.8957-137.8546,21.7887-226.3495,21.7887s-165.1757-9.893-226.3492-21.7887c-27.6676,0-50.4342-21.9549-50.4342-48.6355,0-26.7493,22.6954-48.6352,50.4342-48.6352,64.988,8.082,138.7753,13.7215,219.8937,14.0068,86.326.3038,164.5125-5.514,232.805-14.0068,27.6672,0,50.4342,21.9549,50.4342,48.6352,0,26.7496-22.6954,48.6355-50.4342,48.6355Z"/>
    <path class="cls-1" d="M1094.8205,553.4878c-81.7413,13.0332-174.5867,22.2435-276.6921,23.0146-113.3475.8562-215.6663-8.8571-304.4685-23.0146-28.7172,0-52.3472-28.2817-52.3472-62.6514,0-34.4585,23.5559-62.6517,52.3472-62.6517,74.911,17.9164,174.9768,34.5046,293.3844,34.2391,115.8221-.2597,213.8806-16.5653,287.7762-34.2391,28.7172,0,52.3472,28.282,52.3472,62.6517,0,34.4582-23.5559,62.6514-52.3472,62.6514Z"/>
    <path class="cls-1" d="M1157.0017,692.9357c-97.1946,15.2257-207.5926,25.9854-329.0011,26.8862-134.7759,1.0002-256.4382-10.3471-362.0287-26.8862-34.1462,0-62.2435-33.0394-62.2435-73.1909,0-40.2552,28.0091-73.1913,62.2435-73.1913,89.073,20.9304,208.0564,40.3091,348.8491,39.999,137.7185-.3034,254.3149-19.352,342.1807-39.999,34.1462,0,62.2435,33.0398,62.2435,73.1913,0,40.2549-28.0091,73.1909-62.2435,73.1909Z"/>
    <path class="cls-1" d="M1185.8957,857.1985c-105.5414,16.5173-225.4202,28.1898-357.255,29.1671-146.3502,1.0851-278.4606-11.2249-393.1189-29.1671-37.0786,0-67.5888-35.8422-67.5888-79.3999,0-43.6702,30.4145-79.4003,67.5888-79.4003,96.7224,22.706,225.9238,43.7286,378.8075,43.3922,149.5454-.3292,276.155-20.9937,371.5664-43.3922,37.0786,0,67.5888,35.8426,67.5888,79.4003,0,43.6698-30.4145,79.3999-67.5888,79.3999Z"/>
    <path class="cls-1" d="M516.7267,1134.9595c76.6523,13.0431,172.7361,23.8902,283.6231,23.8902s206.9703-10.8472,283.6226-23.8902c34.6683,0,63.1956-24.0725,63.1956-53.3265,0-29.3293-28.4381-53.3262-63.1956-53.3262-81.432,8.8615-173.8897,15.045-275.5337,15.3578-108.1692.3331-206.1393-6.0459-291.712-15.3578-34.6679,0-63.1956,24.0725-63.1956,53.3262,0,29.3297,28.4381,53.3265,63.1956,53.3265Z"/>
    <path class="cls-1" d="M475.8096,1005.881c93.1137,13.5674,198.8769,23.1552,315.1878,23.9579,129.1174.8912,245.672-9.2201,346.8293-23.9579,32.7123,0,59.63-29.4407,59.63-65.219,0-35.8708-26.8331-65.2197-59.63-65.2197-92.2938,14.5373-204.3695,25.9193-331.8853,25.8668-126.7638-.0521-238.2307-11.3914-330.1318-25.8668-32.7127,0-59.6304,29.4414-59.6304,65.2197,0,35.8705,26.8331,65.219,59.6304,65.219Z"/>
    <path class="cls-1" d="M1002.8538,1160.2951c-61.2747,8.3703-132.1176,14.1317-210.7362,13.5528-69.7954-.5139-133.2161-5.9335-188.9876-13.5528v43.3008c1.3546,5.1204,6.0514,20.1961,20.6978,31.6062,11.087,8.6374,22.4577,10.953,27.919,11.6942,48.5033,5.7127,103.4555,9.3345,163.7442,8.5597,47.5131-.6106,91.4769-3.864,131.3327-8.5597,5.8627-.7928,17.139-3.1862,27.919-11.6942,19.4323-15.3372,21.7525-38.3122,22.1114-42.6833,1.9998-10.7411,4-21.4826,5.9998-32.2237Z"/>
    <path class="cls-2" d="M581.9265,1128.4742c61.8309,10.5211,139.3362,19.2709,228.7823,19.2709s166.951-8.7498,228.7819-19.2709c27.9649,0,50.9762-19.4179,50.9762-43.0154,0-23.6583-22.9394-43.0151-50.9762-43.0151-65.6865,7.1481-140.2668,12.1359-222.2571,12.3882-87.2538.2687-166.2807-4.8769-235.3072-12.3882-27.9646,0-50.9762,19.4179-50.9762,43.0151,0,23.6586,22.9394,43.0154,50.9762,43.0154Z"/>
    <path class="cls-2" d="M1091.1231,841.552c-83.7409,10.7938-178.8576,18.4217-283.4608,19.0603-116.1202.7091-220.942-7.3353-311.9167-19.0603-29.4197,0-53.6278-23.4224-53.6278-51.8867,0-28.5379,24.1321-51.887,53.6278-51.887,76.7435,14.838,179.2572,28.576,300.5614,28.3562,118.6555-.2151,219.1127-13.7191,294.816-28.3562,29.4197,0,53.6278,23.4226,53.6278,51.887,0,28.5376-24.1321,51.8867-53.6278,51.8867Z"/>
    <ellipse class="cls-9" cx="658.985" cy="798.506" rx="87.6917" ry="17.3508"/>
    <path class="cls-9" d="M1006.3983,625.2384c.546-6.5196-134.4653-31.329-292.5666-31.5397-146.0576-.1945-272.1396,20.6576-271.7127,26.9854.3546,5.257,87.9316-.87,284.7146.6789,196.1225,1.5435,279.1382,8.9678,279.5647,3.8753Z"/>
    <path class="cls-9" d="M1109.8142,934.561c.8432,2.0017-56.4752,10.9909-122.3416,13.5732-65.8925,2.5834-123.7183-1.8969-123.0276-3.989.5304-1.6066,35.4113-1.3164,128.9326-5.0362,85.0387-3.3824,115.8273-5.9941,116.4366-4.5481Z"/>
    <path class="cls-9" d="M715.1708,555.8386c.5273,1.1417-47.2006.2966-101.4115-4.7741-54.2324-5.0727-101.2727-13.0949-100.5351-14.1345.5665-.7983,29.1392,2.7642,106.1156,9.9358,69.9945,6.5211,95.4499,8.1481,95.831,8.9728Z"/>
    <path class="cls-9" d="M946.0526,288.2643c.906-6.6441-67.4138-28.7493-145.5169-28.7921-78.1583-.0427-146.4315,22.0188-145.5168,28.7921.7107,5.2627,42.9756-.3055,155.6896,0,98.9407.2681,134.6971,4.744,135.3441,0Z"/>
    <ellipse class="cls-9" cx="810.7087" cy="1111.9161" rx="64.6596" ry="12.7936"/>
    <path class="cls-9" d="M948.3467,1210.2001c.906,6.6441-67.4138,28.7493-145.5169,28.7921-78.1583.0427-146.4315-22.0188-145.5168-28.7921.7107-5.2627,42.9756.3055,155.6896,0,98.9407-.2681,134.6971-4.744,135.3441,0Z"/>
    <g>
      <ellipse class="cls-8" cx="893.0229" cy="799.217" rx="91.5641" ry="181.6063"/>
      <ellipse class="cls-11" cx="884.9944" cy="807.5164" rx="91.5641" ry="181.6063"/>
      <path class="cls-6" d="M824.9369,831.3212c3.9692,55.8367,33.3782,90.7073,29.9134,92.6421-4.1909,2.3398-54.204-44.7703-54.4994-108.0932-.2961-63.4349,49.453-110.797,54.4994-108.0932,4.9546,2.6544-34.9557,52.6107-29.9134,123.5442Z"/>
    </g>
    <path class="cls-2" d="M577.259,407.3806c45.787,7.7911,103.1812,14.2705,169.4178,14.2705s123.6305-6.4794,169.4175-14.2705c20.7086,0,37.7489-14.3793,37.7489-31.8538,0-17.5194-16.9871-31.8535-37.7489-31.8535-48.6421,5.2933-103.8703,8.9869-164.5857,9.1737-64.6132.199-123.1341-3.6114-174.2496-9.1737-20.7083,0-37.7489,14.3793-37.7489,31.8535,0,17.5196,16.9871,31.8538,37.7489,31.8538Z"/>
    <ellipse class="cls-9" cx="608.708" cy="377.9291" rx="37.4147" ry="7.4029"/>
    <path class="cls-3" d="M1162.6985,570.1189c3.0036-1.7965,43.5911,34.7879,34.7582,67.9047-10.8,40.4916-87.2724,45.0152-87.6334,43.8875-.3196-.9978,58.7293-7.07,71.5512-42.021,11.6023-31.6265-21.5639-68.044-18.676-69.7712Z"/>
    <path class="cls-3" d="M495.0331,889.4216c.5422,3.48-18.1827,4.2817-32.9424,17.3791-14.0956,12.508-22.4306,34.3273-18.4165,52.6558,5.6831,25.9499,34.6817,38.3217,34.2393,38.9081-.7371.977-45.8573-14.9165-50.3213-49.2838-3.5549-27.368,19.8831-57.1336,46.171-62.253,9.8842-1.925,20.8618-.0259,21.2699,2.5938Z"/>
    <ellipse class="cls-3" cx="504.1302" cy="919.8333" rx="9.0855" ry="4.2135"/>
    <ellipse class="cls-3" cx="1187.3405" cy="770.0523" rx="17.6384" ry="11.103"/>
    <ellipse class="cls-3" cx="634.6026" cy="1185.1243" rx="20.4072" ry="7.0035"/>
    <ellipse class="cls-3" cx="847.2824" cy="1111.9161" rx="15.8916" ry="8.1526"/>
    <ellipse class="cls-3" cx="1034.042" cy="513.416" rx="38.1301" ry="11.0463"/>
    <circle class="cls-3" cx="951.3217" cy="396.7697" r="11.4376"/>
    <path class="cls-9" d="M655.0189,273.868c0,7.9508-5.2133,14.3964-11.6441,14.3964s-11.6441-6.4456-11.6441-14.3964,5.2131-14.396,11.6441-14.396,11.6441,6.4456,11.6441,14.396Z"/>
    <path class="cls-3" d="M1043.8111,1043.1057c-.4209,3.6065,22.187,2.8468,32.9422,17.3791,8.667,11.7107,7.5511,30.5321.3472,43.2786-14.8976,26.3594-55.8646,26.7987-55.6658,27.6539.2355,1.0126,57.9222,1.4231,75.12-32.2949,1.1893-2.3314,8.7582-17.7563,2.3345-33.8354-8.0117-20.0544-31.074-24.3152-33.8082-24.7751-10.1258-1.7033-20.9806.1144-21.2699,2.5938Z"/>
    <ellipse class="cls-3" cx="665.514" cy="795.8161" rx="19.3913" ry="3.4009"/>
  </g>
  <path class="cls-7" d="M777.468,200.8063c2.428-2.3166,1.4651-7.5313,1.0003-9.9036-15.2079-77.6233-22.8121-116.4348-47.2585-137.877-36.3539-31.886-85.066-25.7809-85.0871-16.5825-.019,8.2482,39.128,12.5496,62.1387,48.1998,23.5177,36.4355,5.4476,67.2977,31.5314,96.4137,12.1603,13.574,32.2591,24.9173,37.6752,19.7496Z"/>
  <path class="cls-5" d="M751.2784,118.6389c5.6055,16.277,2.1663,32.7141.3933,32.808-1.4201.075-1.2572-10.3626-6.6946-27.2041-6.5761-20.3689-15.0652-30.6575-13.6983-31.614,1.5072-1.0544,14.3718,9.6686,19.9995,26.0101Z"/>
</svg>