<?xml version="1.0" encoding="UTF-8"?>
<svg id="Layer_1" data-name="Layer 1" xmlns="http://www.w3.org/2000/svg" viewBox="0 0 1621.4173 1264.252">
  <defs>
    <style>
      .cls-1 {
        fill: #d2a980;
      }

      .cls-2 {
        fill: #dec09e;
      }

      .cls-3 {
        fill: #af8361;
      }

      .cls-4 {
        fill: #ffecdd;
      }

      .cls-5 {
        stroke-width: 1.7076px;
      }

      .cls-5, .cls-6, .cls-7 {
        fill: none;
        stroke: #c08f54;
        stroke-miterlimit: 10;
      }

      .cls-6 {
        stroke-width: 1.7171px;
      }

      .cls-7 {
        stroke-width: 1.6693px;
      }

      .cls-8 {
        fill: #e3c2a2;
      }

      .cls-9 {
        fill: #d3ab84;
      }

      .cls-10 {
        fill: #c2987a;
      }

      .cls-11 {
        fill: #c2966b;
      }
    </style>
  </defs>
  <g>
    <path class="cls-6" d="M717.2925,569.4664c.3033,5.8043.558,11.7009.7593,17.6873.1565,4.6566.2771,9.2609.364,13.8111-13.697,41.5369-27.394,83.074-41.0911,124.6108"/>
    <path class="cls-7" d="M718.4388,599.9513c-.2502,41.5024-.5004,83.0048-.7505,124.5071"/>
    <path class="cls-5" d="M718.4387,599.9569c14.0533,42.0798,28.1068,84.1597,42.1601,126.2395"/>
    <path class="cls-3" d="M674.6724,724.5982c12.2588,2.6029,27.9152,4.8,46.1069,4.6437,16.3547-.1403,30.557-2.1467,41.9667-4.5422-3.7569,3.4611-18.9148,16.6173-42.2942,17.2245-25.605.665-42.4047-14.2071-45.7794-17.326Z"/>
    <path class="cls-1" d="M674.6724,724.5982c12.2588,2.6029,27.9152,4.8,46.1069,4.6437,16.3547-.1403,30.557-2.1467,41.9667-4.5422-14.1115-.6242-28.7963-.9811-44.0153-.999-15.2336-.0178-29.9328.3053-44.0583.8975Z"/>
    <path class="cls-10" d="M726.3524,739.7258c.0227.3299-6.1868,1.6929-13.6246,1.1139-7.5924-.5911-13.6001-2.9828-13.5232-3.3115.0709-.3025,5.2754,1.2231,13.9513,1.8874,8.1504.6241,13.1762.0144,13.1965.3102Z"/>
    <ellipse class="cls-10" cx="694.932" cy="735.9291" rx=".5533" ry="1.3832" transform="translate(-56.5762 1413.9833) rotate(-88.6998)"/>
    <path class="cls-8" d="M762.746,724.6997c-.0299-.2365-18.2422,3.5036-44.1167,3.4657-25.7799-.0377-43.9265-3.8034-43.9569-3.5672-.0312.2415,18.9055,4.6106,43.9323,4.651,25.1429.0405,44.172-4.3074,44.1413-4.5495Z"/>
  </g>
  <circle class="cls-11" cx="717.5328" cy="566.028" r="4.0312"/>
  <path class="cls-11" d="M717.5328,566.028c9.035,4.2147,23.9125,9.8102,43.0781,11.1449,18.0163,1.2548,32.7107-1.7504,42.0506-4.4263-.7447,7.6476,5.3201,13.3292,10.5918,12.963,4.9026-.3406,9.8418-5.9624,9.0107-12.963,8.711,1.8892,19.7711,3.4196,32.5656,3.1305,20.6782-.4673,37.3406-5.4939,48.3307-9.8491-14.4787,1.5739-30.4479,2.5923-47.6983,2.6085-12.1912.0115-23.7059-.479-34.4626-1.3042.187-5.3562-4.1129-9.7078-9.0108-9.7222-5.1539-.0152-9.6112,4.7759-9.0108,10.3941-12.4514,1.4929-26.9184,2.4381-42.9991,2.0551-15.911-.3789-30.1776-1.9813-42.4457-4.0312Z"/>
  <ellipse class="cls-11" cx="812.937" cy="552.9128" rx="5.9282" ry="11.3228"/>
  <ellipse class="cls-11" cx="813.0556" cy="540.7147" rx="1.7785" ry="4.6833"/>
  <circle class="cls-11" cx="813.0556" cy="530.9332" r="9.1294"/>
  <circle class="cls-9" cx="812.937" cy="530.9332" r="4.8611"/>
  <circle class="cls-11" cx="809.6172" cy="555.1794" r=".1482"/>
  <path class="cls-9" d="M816.6521,550.906c.9516,3.2623.305,4.145.0577,4.4216-.6338.709-1.8796,1.0584-2.5871.5977-.8898-.5792-.4529-2.1295-.4742-5.0193-.0323-4.3779-1.0763-6.4139-.5928-6.5999.6378-.2454,2.6147,3.2342,3.5964,6.5999Z"/>
  <ellipse class="cls-9" cx="811.8304" cy="570.9828" rx="3.0036" ry="5.2563"/>
  <path class="cls-9" d="M818.0748,581.9302c.1736.2965-2.327,3.2053-5.5335,3.0827-3.4052-.1304-5.7359-3.608-5.5325-3.8731.178-.2321,2.2103,2.1088,5.5264,2.2923,3.1916.1767,5.3851-1.766,5.5396-1.5019Z"/>
  <path class="cls-9" d="M794.9944,571.6681c.1061.5679-9.9207,4.2137-22.29,4.5711-15.7555.4552-28.3495-4.6262-28.2182-5.2563.1208-.5794,10.965,2.7852,27.8624,2.6204,13.597-.1327,22.5464-2.467,22.6457-1.9351Z"/>
  <path class="cls-9" d="M880.2812,569.7444c.1061.5679-9.9207,4.2137-22.29,4.5711-15.7555.4552-28.3495-4.6262-28.2182-5.2563.1208-.5794,10.965,2.7852,27.8624,2.6204,13.597-.1327,22.5464-2.467,22.6457-1.9351Z"/>
  <path class="cls-2" d="M816.6478,554.2714c.1065.0804-.1421.9579-.8034,1.2273-.7526.3065-1.642-.3367-1.6069-.4675.0291-.1081.6774.1792,1.4506-.1236.6261-.2452.8769-.6986.9597-.6362Z"/>
  <ellipse class="cls-2" cx="811.8304" cy="571.8976" rx="2.4809" ry="4.3415"/>
  <path class="cls-4" d="M817.1914,531.0908c-.0081,1.9316-2.2571,3.0882-2.4213,2.9465-.1242-.1069.9695-.9337,1.1372-2.3963.221-1.9261-1.3499-3.3277-1.1372-3.4966.2248-.178,2.4295,1.0296,2.4213,2.9465Z"/>
  <ellipse class="cls-4" cx="813.1621" cy="527.5437" rx=".9374" ry=".5833"/>
  <path class="cls-9" d="M719.8871,566.0266c-.2269,1.3914-1.4321,2.4982-2.7246,2.7247-.9433.1653-1.9967-.1271-2.0232-.4399-.035-.4123,1.7595-.3287,2.8246-1.6132,1.169-1.4098.5526-3.3741.9616-3.4395.3531-.0565,1.1933,1.3468.9616,2.7679Z"/>
  <ellipse class="cls-4" cx="841.7221" cy="571.6682" rx=".279" ry="1.7631" transform="translate(212.3242 1371.1423) rotate(-85.9709)"/>
  <ellipse class="cls-4" cx="812.3837" cy="572.8931" rx=".5533" ry=".9955"/>
  <path class="cls-4" d="M813.9046,584.2727c.0217.0818-.9054.6157-2.0081.5356-1.1721-.0853-2.0463-.8281-2.009-.9075.0341-.073.8225.4457,2.0978.5356,1.1402.0804,1.9001-.2364,1.9193-.1636Z"/>
  <path class="cls-4" d="M776.1182,574.9153c.0233.1583-2.6513.9729-5.9061.9729s-5.9292-.8146-5.906-.9729c.0208-.1417,2.1979.2809,5.906.2809s5.8853-.4226,5.9061-.2809Z"/>
  <circle class="cls-9" cx="717.4307" cy="563.4588" r=".5107"/>
  <g>
    <path class="cls-6" d="M904.0676,569.9682c-.3011,5.8044-.5536,11.7011-.7527,17.6876-.1548,4.6567-.2737,9.261-.359,13.8113,13.7123,41.5318,27.4247,83.0639,41.137,124.5957"/>
    <path class="cls-7" d="M902.9325,600.4537c.2655,41.5023.531,83.0046.7965,124.5069"/>
    <path class="cls-5" d="M902.9326,600.4592c-14.0378,42.0849-28.0757,84.1701-42.1135,126.255"/>
    <path class="cls-3" d="M946.7449,725.0843c-12.2578,2.6074-27.9134,4.8103-46.1051,4.6607-16.3548-.1343-30.5578-2.1355-41.9684-4.5268,3.7582,3.4597,18.921,16.6103,42.3005,17.2089,25.6053.6555,42.3995-14.2227,45.773-17.3428Z"/>
    <path class="cls-1" d="M946.7449,725.0843c-12.2578,2.6074-27.9134,4.8103-46.1051,4.6607-16.3548-.1343-30.5578-2.1355-41.9684-4.5268,14.1113-.6294,28.7959-.9917,44.015-1.0152,15.2336-.0234,29.9329.2942,44.0586.8813Z"/>
    <path class="cls-10" d="M895.0705,740.231c-.0225.3299,6.1874,1.6906,13.625,1.1089,7.5922-.5939,13.599-2.9878,13.5219-3.3165-.071-.3025-5.275,1.2251-13.9506,1.8926-8.1502.6271-13.1762.0193-13.1964.315Z"/>
    <ellipse class="cls-10" cx="926.4895" cy="736.4227" rx="1.3832" ry=".5533" transform="translate(-16.7352 21.5602) rotate(-1.3213)"/>
    <path class="cls-8" d="M858.6714,725.2183c.0298-.2365,18.2435,3.4968,44.1179,3.4495,25.7799-.0472,43.925-3.8196,43.9556-3.5834.0313.2415-18.9038,4.6176-43.9306,4.6672-25.1428.0498-44.1736-4.2911-44.1429-4.5332Z"/>
  </g>
  <circle class="cls-11" cx="904.2191" cy="567.2678" r="4.0312"/>
  <path class="cls-9" d="M900.6751,568.0288c.2269,1.3914,1.4321,2.4982,2.7246,2.7247.9433.1653,1.9967-.1271,2.0232-.4399.035-.4123-1.7595-.3287-2.8246-1.6132-1.169-1.4098-.5526-3.3741-.9616-3.4395-.3531-.0565-1.1933,1.3468-.9616,2.7679Z"/>
  <circle class="cls-9" cx="903.3438" cy="565.0877" r=".3144"/>
</svg>