<?xml version="1.0" encoding="UTF-8"?>
<svg id="Layer_1" data-name="Layer 1" xmlns="http://www.w3.org/2000/svg" viewBox="0 0 1621.4173 1264.252">
  <defs>
    <style>
      .cls-1 {
        fill: #d2a980;
      }

      .cls-2 {
        fill: #dec09e;
      }

      .cls-3 {
        fill: #af8361;
      }

      .cls-4 {
        fill: #ffecdd;
      }

      .cls-5 {
        fill: #e3c2a2;
      }

      .cls-6 {
        fill: #d3ab84;
      }

      .cls-7 {
        fill: #c2987a;
      }

      .cls-8 {
        stroke-width: 9.5097px;
      }

      .cls-8, .cls-9, .cls-10 {
        fill: none;
        stroke: #c08f54;
        stroke-miterlimit: 10;
      }

      .cls-9 {
        stroke-width: 9.5625px;
      }

      .cls-10 {
        stroke-width: 9.2963px;
      }

      .cls-11 {
        fill: #c2966b;
      }

      .cls-12 {
        fill: #d3d3d1;
      }
    </style>
  </defs>
  <g>
    <g>
      <path class="cls-9" d="M290.4621,283.1664c1.6889,32.3251,3.1074,65.1637,4.2284,98.5027.8717,25.9333,1.5432,51.5753,2.0274,76.9161-76.2805,231.3243-152.561,462.6497-228.8415,693.974"/>
      <path class="cls-10" d="M296.846,452.9412c-1.3933,231.1322-2.7866,462.2643-4.1799,693.3965"/>
      <path class="cls-8" d="M296.8453,452.972c78.2648,234.3477,156.5302,468.6965,234.795,703.0442"/>
      <path class="cls-3" d="M53.1049,1147.1157c68.2706,14.496,155.4635,26.7316,256.7751,25.8615,91.0815-.7813,170.176-11.9554,233.7183-25.2963-20.9228,19.2755-105.3391,92.5437-235.5418,95.9253-142.5979,3.7033-236.1574-79.1211-254.9516-96.4906Z"/>
      <path class="cls-1" d="M53.1049,1147.1157c68.2706,14.496,155.4635,26.7316,256.7751,25.8615,91.0815-.7813,170.176-11.9554,233.7183-25.2963-78.5889-3.4764-160.3703-5.4639-245.1271-5.5636-84.8379-.0992-166.6995,1.7-245.3662,4.9983Z"/>
      <path class="cls-7" d="M340.9175,1231.3634c.1262,1.8372-34.455,9.4278-75.8773,6.2033-42.2831-3.292-75.7409-16.6118-75.3122-18.4421.3946-1.6849,29.3795,6.8117,77.6966,10.5113,45.3908,3.4756,73.3801.0802,73.4929,1.7274Z"/>
      <ellipse class="cls-7" cx="165.9334" cy="1210.2191" rx="3.0814" ry="7.7035" transform="translate(-1047.7393 1348.6488) rotate(-88.6998)"/>
      <path class="cls-5" d="M543.5982,1147.681c-.1666-1.3173-101.5931,19.5118-245.6914,19.3011-143.5718-.2102-244.6321-21.1818-244.8019-19.8664-.1739,1.345,105.2875,25.6773,244.6649,25.9019,140.0239.2256,245.9994-23.9884,245.8284-25.3367Z"/>
    </g>
    <circle class="cls-11" cx="291.8002" cy="264.0178" r="22.4501"/>
    <path class="cls-11" d="M291.8003,264.0176c50.3172,23.4723,133.172,54.634,239.9074,62.0676,100.3352,6.9883,182.1703-9.7482,234.1854-24.6507-4.1473,42.5907,29.6282,74.232,58.9868,72.1926,27.3033-1.8966,54.8104-33.2056,50.1819-72.1926,48.5124,10.5212,110.1079,19.0441,181.3619,17.4341,115.1595-2.6023,207.9549-30.5965,269.1598-54.851-80.6339,8.765-169.5686,14.4367-265.6383,14.5269-67.8946.0639-132.021-2.6674-191.9265-7.2634,1.0414-29.8291-22.9054-54.0642-50.1824-54.1442-28.7027-.0845-53.5258,26.5976-50.1824,57.8861-69.3436,8.314-149.9118,13.578-239.4677,11.445-88.6104-2.1102-168.063-11.0339-236.3858-22.4504Z"/>
    <ellipse class="cls-11" cx="823.1187" cy="190.9776" rx="33.0148" ry="63.0583"/>
    <ellipse class="cls-11" cx="823.779" cy="123.0445" rx="9.9044" ry="26.0817"/>
    <circle class="cls-11" cx="823.779" cy="68.57" r="50.8428"/>
    <circle class="cls-6" cx="823.1187" cy="68.57" r="27.0722"/>
    <circle class="cls-11" cx="804.6304" cy="203.6006" r=".8254"/>
    <path class="cls-6" d="M843.8082,179.8011c5.2994,18.1683,1.6985,23.0841.3214,24.6245-3.5295,3.9486-10.4675,5.8943-14.4081,3.3286-4.9552-3.2258-2.5224-11.8595-2.6412-27.953-.1798-24.3813-5.9943-35.72-3.3012-36.7557,3.5518-1.3668,14.5617,18.0119,20.029,36.7557Z"/>
    <ellipse class="cls-6" cx="816.9559" cy="291.6117" rx="16.7275" ry="29.2731"/>
    <path class="cls-6" d="M851.7316,352.5789c.9666,1.6511-12.9591,17.8509-30.8168,17.168-18.9642-.7262-31.9439-20.0935-30.8111-21.57.9911-1.2926,12.3094,11.7442,30.7775,12.7661,17.7744.9843,29.9901-9.8349,30.8505-8.3642Z"/>
    <path class="cls-6" d="M723.1939,295.4282c.5909,3.163-55.2495,23.4666-124.1358,25.4569-87.7443,2.535-157.8821-25.7641-157.1507-29.273.6726-3.2269,61.0656,15.5112,155.1696,14.5931,75.7233-.7388,125.5637-13.739,126.1169-10.777Z"/>
    <path class="cls-6" d="M1198.1674,284.715c.5909,3.163-55.2495,23.4666-124.1358,25.4569-87.7443,2.535-157.8821-25.7641-157.1507-29.273.6726-3.2269,61.0656,15.5112,155.1696,14.5931,75.7233-.7388,125.5637-13.739,126.1169-10.777Z"/>
    <path class="cls-2" d="M843.7848,198.5438c.5932.4476-.7913,5.3348-4.4744,6.8352-4.1912,1.7071-9.1447-1.875-8.9489-2.6035.1621-.6018,3.7727.998,8.0787-.6885,3.4867-1.3657,4.8838-3.8904,5.3445-3.5432Z"/>
    <ellipse class="cls-2" cx="816.9559" cy="296.7063" rx="13.8163" ry="24.1785"/>
    <path class="cls-4" d="M846.8119,69.4478c-.0452,10.7572-12.5699,17.1987-13.4848,16.4092-.6917-.5953,5.3991-5.1997,6.3333-13.3455,1.2311-10.7265-7.5179-18.5325-6.3333-19.4728,1.2517-.9914,13.53,5.7338,13.4848,16.4092Z"/>
    <ellipse class="cls-4" cx="824.372" cy="49.6935" rx="5.2202" ry="3.2486"/>
    <path class="cls-6" d="M304.9116,264.0098c-1.2634,7.7488-7.9753,13.913-15.1738,15.1741-5.2536.9207-11.1199-.7077-11.2677-2.4497-.1949-2.2961,9.799-1.8307,15.7306-8.9844,6.51-7.8514,3.0775-18.7907,5.3554-19.155,1.9665-.3149,6.6459,7.5002,5.3554,15.4149Z"/>
    <ellipse class="cls-4" cx="983.4265" cy="295.4285" rx="1.5536" ry="9.819" transform="translate(619.6288 1255.6664) rotate(-85.9709)"/>
    <ellipse class="cls-4" cx="820.0373" cy="302.2502" rx="3.0814" ry="5.5439"/>
    <path class="cls-4" d="M828.5071,365.6248c.121.4556-5.0425,3.429-11.1835,2.9826-6.5275-.475-11.3959-4.612-11.1886-5.0539.1901-.4065,4.5806,2.4824,11.6831,2.9826,6.35.4476,10.5817-1.3166,10.6891-.9112Z"/>
    <path class="cls-4" d="M618.0697,313.5121c.1296.8815-14.7655,5.4182-32.8916,5.4182s-33.0207-4.5367-32.8911-5.4182c.1159-.789,12.2403,1.5644,32.8911,1.5644s32.7757-2.3534,32.8916-1.5644Z"/>
    <circle class="cls-6" cx="291.2317" cy="249.7096" r="2.844"/>
    <g>
      <path class="cls-9" d="M1330.6367,285.9614c-1.6769,32.3257-3.0833,65.1649-4.1921,98.5043-.8621,25.9336-1.5242,51.5758-1.999,76.9168,76.3658,231.2962,152.7316,462.5934,229.0973,693.8896"/>
      <path class="cls-10" d="M1324.3153,455.7386c1.4785,231.1316,2.957,462.2633,4.4356,693.3949"/>
      <path class="cls-8" d="M1324.3161,455.7695c-78.1784,234.3765-156.3573,468.7542-234.5357,703.1307"/>
      <path class="cls-3" d="M1568.3124,1149.8232c-68.2653,14.5211-155.4536,26.7889-256.7655,25.9562-91.0818-.7477-170.1804-11.8927-233.7276-25.2101,20.9299,19.2677,105.3733,92.5049,235.5771,95.8384,142.5992,3.6507,236.1282-79.2082,254.916-96.5846Z"/>
      <path class="cls-1" d="M1568.3124,1149.8232c-68.2653,14.5211-155.4536,26.7889-256.7655,25.9562-91.0818-.7477-170.1804-11.8927-233.7276-25.2101,78.5877-3.5054,160.3683-5.5231,245.125-5.654,84.8378-.1305,166.7001,1.6385,245.3681,4.9078Z"/>
      <path class="cls-7" d="M1280.5309,1234.177c-.1255,1.8372,34.4585,9.4151,75.8796,6.1753,42.2819-3.3076,75.7348-16.6397,75.3054-18.4698-.3952-1.6847-29.377,6.8225-77.6927,10.54-45.3895,3.4923-73.38.1072-73.4922,1.7545Z"/>
      <ellipse class="cls-7" cx="1455.5072" cy="1212.9682" rx="7.7035" ry="3.0814" transform="translate(-27.5834 33.8858) rotate(-1.3213)"/>
      <path class="cls-5" d="M1077.8193,1150.5693c.1661-1.3173,101.6003,19.4744,245.6985,19.2105,143.5717-.2631,244.6243-21.2719,244.7946-19.9567.1744,1.3449-105.278,25.7161-244.6553,25.9921-140.0238.2772-246.0083-23.8977-245.8378-25.246Z"/>
    </g>
    <circle class="cls-11" cx="1331.4804" cy="270.9224" r="22.4501"/>
    <path class="cls-6" d="M1311.7433,275.1603c1.2634,7.7488,7.9753,13.913,15.1738,15.1741,5.2536.9207,11.1199-.7077,11.2677-2.4497.1949-2.2961-9.799-1.8307-15.7306-8.9844-6.51-7.8514-3.0775-18.7907-5.3554-19.155-1.9665-.3149-6.6459,7.5002-5.3554,15.4149Z"/>
    <circle class="cls-6" cx="1326.6056" cy="258.7812" r="1.7509"/>
  </g>
  <ellipse class="cls-12" cx="227.7919" cy="739.7197" rx="1.7219" ry="6.4047" transform="translate(-520.0765 939.1373) rotate(-87.8145)"/>
</svg>