<?xml version="1.0" encoding="UTF-8"?>
<svg id="Layer_1" data-name="Layer 1" xmlns="http://www.w3.org/2000/svg" viewBox="0 0 1621.4173 1264.252">
  <defs>
    <style>
      .cls-1 {
        fill: #f5a03b;
      }

      .cls-2 {
        fill: #f9ac59;
      }

      .cls-3 {
        fill: #fcd4aa;
      }

      .cls-4 {
        fill: #d97b32;
      }

      .cls-5 {
        fill: #de884e;
      }

      .cls-6 {
        fill: #d98e3f;
      }

      .cls-7 {
        fill: #b86f32;
      }

      .cls-8 {
        fill: #864f20;
      }

      .cls-9 {
        fill: #fabb80;
      }

      .cls-10 {
        fill: #a26328;
      }

      .cls-11 {
        fill: #ac6b29;
      }
    </style>
  </defs>
  <path class="cls-10" d="M807.0548,456.2338c1.8172-1.7338,1.0965-5.6366.7487-7.4121-11.3819-58.0949-17.073-87.1422-35.3692-103.1899-27.208-23.8642-63.6651-19.2949-63.6809-12.4107-.0142,6.1731,29.2842,9.3924,46.5059,36.0737,17.6011,27.269,4.0771,50.367,23.5987,72.1579,9.101,10.1591,24.1434,18.6486,28.1969,14.781Z"/>
  <g>
    <ellipse class="cls-4" cx="807.0355" cy="681.9093" rx="176.3111" ry="249.8733"/>
    <path class="cls-1" d="M909.3916,478.4568c-31.4361,3.081-66.1591,5.0512-103.7003,5.0031-36.4972-.0468-70.312-1.9942-101.0116-5.0031.8482-7.0898,1.6963-14.1795,2.5445-21.2693.5778-4.1733,2.2656-11.2958,8.0555-16.4181,5.2464-4.6415,11.4497-5.6676,14.2982-5.8836,24.9204-1.8904,51.8207-2.9907,80.4663-2.8499,24.9657.1226,48.5689,1.1746,70.6524,2.8499,3.0025.3989,8.7775,1.603,14.2982,5.8836,9.9519,7.7165,11.1402,19.2758,11.324,21.4749,1.0242,5.4041,2.0485,10.8084,3.0727,16.2125Z"/>
    <path class="cls-1" d="M917.6973,528.741c-29.8712,5.8087-67.3149,10.6395-110.5273,10.6395s-80.6559-4.8308-110.5271-10.6395c-13.5102,0-24.6272-10.7206-24.6272-23.7489,0-13.0618,11.0823-23.7487,24.6272-23.7487,31.7339,3.9465,67.7645,6.7003,107.3749,6.8396,42.1533.1483,80.332-2.6925,113.6795-6.8396,13.51,0,24.6272,10.7206,24.6272,23.7487,0,13.0619-11.0823,23.7489-24.6272,23.7489Z"/>
    <path class="cls-1" d="M949.4415,593.7267c-39.9146,6.3641-85.2513,10.8616-135.1098,11.2381-55.348.4181-105.3106-4.325-148.6731-11.2381-14.0227,0-25.5613-13.8101-25.5613-30.5929,0-16.8262,11.5024-30.5931,25.5613-30.5931,36.5793,8.7486,85.4418,16.8487,143.2607,16.7191,56.5564-.1268,104.4386-8.0889,140.5222-16.7191,14.0227,0,25.5613,13.8102,25.5613,30.5931,0,16.826-11.5024,30.5929-25.5613,30.5929Z"/>
    <path class="cls-1" d="M979.8048,661.8196c-47.4605,7.4347-101.3682,12.6888-160.6524,13.1286-65.8116.4884-125.2197-5.0525-176.7799-13.1286-16.6737,0-30.3937-16.1332-30.3937-35.7394,0-19.6568,13.677-35.7395,30.3937-35.7395,43.4947,10.2204,101.5947,19.6831,170.3443,19.5317,67.2484-.1482,124.1829-9.4496,167.088-19.5317,16.6737,0,30.3937,16.1334,30.3937,35.7395,0,19.6566-13.677,35.7394-30.3937,35.7394Z"/>
    <path class="cls-1" d="M993.9138,742.0297c-51.5363,8.0655-110.0735,13.7652-174.4489,14.2424-71.4633.5299-135.9733-5.4811-191.9614-14.2424-18.1056,0-33.0039-17.5019-33.0039-38.7712,0-21.3243,14.8515-38.7715,33.0039-38.7715,47.2299,11.0874,110.3194,21.3529,184.9731,21.1886,73.0236-.1607,134.8475-10.2513,181.4372-21.1886,18.1056,0,33.0039,17.5021,33.0039,38.7715,0,21.3241-14.8515,38.7712-33.0039,38.7712Z"/>
    <path class="cls-1" d="M667.1562,877.6614c37.4296,6.369,84.3477,11.6657,138.4941,11.6657s101.0644-5.2967,138.4939-11.6657c16.9287,0,30.8586-11.7547,30.8586-26.0395,0-14.3216-13.8864-26.0394-30.8586-26.0394-39.7635,4.3271-84.911,7.3465-134.5441,7.4993-52.8194.1627-100.6586-2.9522-142.444-7.4993-16.9284,0-30.8586,11.7547-30.8586,26.0394,0,14.3218,13.8864,26.0395,30.8586,26.0395Z"/>
    <path class="cls-1" d="M647.1763,814.6319c45.4677,6.625,97.1123,11.3068,153.9073,11.6987,63.0485.4352,119.9625-4.5022,169.358-11.6987,15.9735,0,29.1175-14.376,29.1175-31.8467,0-17.5158-13.1027-31.847-29.1175-31.847-45.0674,7.0986-99.7943,12.6565-162.0608,12.6309-61.8992-.0255-116.3289-5.5625-161.2045-12.6309-15.9737,0-29.1177,14.3763-29.1177,31.847,0,17.5157,13.1027,31.8467,29.1177,31.8467Z"/>
    <path class="cls-1" d="M904.5338,890.0329c-29.9206,4.0872-64.5135,6.9005-102.9032,6.6179-34.0813-.251-65.0499-2.8973-92.2833-6.6179v21.1439c.6615,2.5003,2.9549,9.8618,10.1068,15.4334,5.4138,4.2177,10.9662,5.3484,13.6329,5.7103,23.6843,2.7896,50.5177,4.5581,79.9569,4.1797,23.2008-.2982,44.6685-1.8868,64.1302-4.1797,2.8628-.3871,8.3691-1.5558,13.6329-5.7103,9.4889-7.4892,10.6218-18.708,10.7971-20.8424.9765-5.2449,1.9532-10.49,2.9297-15.7349Z"/>
    <path class="cls-2" d="M698.9935,874.4946c30.1923,5.1375,68.0384,9.41,111.7152,9.41s81.5228-4.2725,111.715-9.41c13.6554,0,24.8919-9.4818,24.8919-21.0046,0-11.5524-11.2014-21.0044-24.8919-21.0044-32.075,3.4904-68.4928,5.926-108.5289,6.0492-42.6064.1312-81.1954-2.3814-114.9013-6.0492-13.6552,0-24.8919,9.4818-24.8919,21.0044,0,11.5526,11.2014,21.0046,24.8919,21.0046Z"/>
    <path class="cls-2" d="M947.636,734.3895c-40.891,5.2707-87.3368,8.9954-138.4149,9.3072-56.7019.3463-107.8868-3.5818-152.31-9.3072-14.3658,0-26.1866-11.4372-26.1866-25.3365,0-13.9351,11.7838-25.3366,26.1866-25.3366,37.4741,7.2455,87.5319,13.9538,146.7652,13.8464,57.9399-.105,106.9935-6.6991,143.9597-13.8464,14.3658,0,26.1866,11.4374,26.1866,25.3366,0,13.935-11.7838,25.3365-26.1866,25.3365Z"/>
    <ellipse class="cls-9" cx="736.6214" cy="713.37" rx="42.8202" ry="8.4724"/>
    <path class="cls-9" d="M906.2646,628.7627c.2666-3.1835-65.6599-15.2981-142.8613-15.4009-71.3204-.095-132.8868,10.0872-132.6783,13.1771.1731,2.567,42.9373-.4248,139.0271.3315,95.7673.7537,136.3042,4.379,136.5125,1.8923Z"/>
    <path class="cls-9" d="M956.763,779.8061c.4117.9775-27.577,5.3669-59.7399,6.6279-32.1756,1.2615-60.4121-.9263-60.0748-1.9478.259-.7845,17.2915-.6428,62.9583-2.4592,41.5247-1.6516,56.5589-2.9269,56.8564-2.2208Z"/>
    <path class="cls-9" d="M764.0572,594.8746c.2575.5575-23.0482.1448-49.5196-2.3312-26.4819-2.477-49.4518-6.3943-49.0916-6.9019.2766-.3898,14.2288,1.3498,51.8166,4.8517,34.1786,3.1843,46.6085,3.9788,46.7946,4.3815Z"/>
    <path class="cls-9" d="M876.7976,464.2171c.4424-3.2443-32.9184-14.0384-71.0564-14.0593-38.165-.0209-71.503,10.7518-71.0564,14.0593.347,2.5698,20.9852-.1492,76.0238,0,48.3131.1309,65.7731,2.3165,66.089,0Z"/>
    <ellipse class="cls-9" cx="810.7087" cy="866.4092" rx="31.5735" ry="6.2472"/>
    <path class="cls-9" d="M877.9178,914.4017c.4424,3.2443-32.9184,14.0384-71.0564,14.0593-38.165.0209-71.503-10.7518-71.0564-14.0593.347-2.5698,20.9852.1492,76.0238,0,48.3131-.1309,65.7731-2.3165,66.089,0Z"/>
    <g>
      <ellipse class="cls-8" cx="850.903" cy="713.7171" rx="44.7111" ry="88.679"/>
      <ellipse class="cls-11" cx="846.9826" cy="717.7697" rx="44.7111" ry="88.679"/>
      <path class="cls-6" d="M817.6564,729.3937c1.9382,27.2653,16.2987,44.2927,14.6068,45.2375-2.0464,1.1426-26.468-21.8615-26.6123-52.7823-.1446-30.9755,24.1481-54.1026,26.6123-52.7823,2.4193,1.2962-17.069,25.69-14.6068,60.3271Z"/>
    </g>
    <path class="cls-2" d="M696.7144,522.382c22.358,3.8044,50.3837,6.9683,82.7273,6.9683s60.3692-3.1639,82.7272-6.9683c10.1121,0,18.4329-7.0215,18.4329-15.5543,0-8.5548-8.2948-15.5542-18.4329-15.5542-23.7521,2.5847-50.7202,4.3883-80.3678,4.4796-31.5508.0972-60.1268-1.7635-85.0867-4.4796-10.1119,0-18.4329,7.0215-18.4329,15.5542,0,8.5549,8.2948,15.5543,18.4329,15.5543Z"/>
    <ellipse class="cls-9" cx="712.071" cy="508.0008" rx="18.2697" ry="3.6149"/>
    <path class="cls-3" d="M982.5866,601.8477c1.4667-.8772,21.2857,16.987,16.9726,33.1581-5.2737,19.7722-42.6154,21.9811-42.7917,21.4304-.1561-.4872,28.6777-3.4523,34.9387-20.519,5.6655-15.4433-10.5297-33.2261-9.1196-34.0695Z"/>
    <path class="cls-3" d="M656.5632,757.7644c.2647,1.6993-8.8787,2.0908-16.0859,8.4863-6.8829,6.1077-10.9529,16.7621-8.9928,25.712,2.7751,12.6714,16.9352,18.7126,16.7192,18.9989-.3599.4771-22.3923-7.2838-24.5721-24.0655-1.7358-13.3639,9.709-27.8986,22.5455-30.3984,4.8265-.94,10.1869-.0126,10.3862,1.2666Z"/>
    <ellipse class="cls-3" cx="661.0053" cy="772.6145" rx="4.4365" ry="2.0575"/>
    <ellipse class="cls-3" cx="994.6193" cy="699.4759" rx="8.6129" ry="5.4216"/>
    <ellipse class="cls-3" cx="724.7154" cy="902.157" rx="9.9649" ry="3.4198"/>
    <ellipse class="cls-3" cx="828.5678" cy="866.4092" rx="7.7599" ry="3.981"/>
    <ellipse class="cls-3" cx="919.7631" cy="574.1595" rx="18.6191" ry="5.3939"/>
    <circle class="cls-3" cx="879.3705" cy="517.2007" r="5.585"/>
    <path class="cls-9" d="M734.6848,457.1874c0,3.8824-2.5457,7.0298-5.6858,7.0298s-5.6858-3.1474-5.6858-7.0298,2.5456-7.0296,5.6858-7.0296,5.6858,3.1474,5.6858,7.0296Z"/>
    <path class="cls-3" d="M924.5334,832.8088c-.2055,1.7611,10.834,1.3901,16.0858,8.4863,4.2321,5.7184,3.6872,14.9089.1695,21.1331-7.2746,12.8714-27.2789,13.0859-27.1818,13.5035.115.4945,28.2836.6949,36.6814-15.7697.5807-1.1384,4.2767-8.6704,1.1399-16.522-3.9121-9.7926-15.1736-11.8732-16.5087-12.0978-4.9444-.8317-10.2449.0559-10.3862,1.2666Z"/>
    <ellipse class="cls-3" cx="739.8096" cy="712.0565" rx="9.4688" ry="1.6607"/>
  </g>
  <path class="cls-7" d="M794.4771,421.5111c1.1856-1.1312.7154-3.6776.4885-4.836-7.4261-37.9037-11.1392-56.8555-23.0765-67.3258-17.7517-15.5701-41.538-12.5889-41.5483-8.0973-.0093,4.0276,19.1063,6.128,30.3426,23.5361,11.4838,17.7916,2.6601,32.8617,15.3969,47.0791,5.9379,6.6282,15.7522,12.1672,18.3969,9.6438Z"/>
  <path class="cls-5" d="M781.6886,381.3884c2.7372,7.9481,1.0578,15.9744.192,16.0203-.6934.0366-.6139-5.0601-3.269-13.2839-3.2111-9.9462-7.3564-14.9702-6.6889-15.4372.736-.5148,7.0178,4.7212,9.7659,12.7008Z"/>
</svg>