<?xml version="1.0" encoding="UTF-8"?>
<svg id="Layer_1" data-name="Layer 1" xmlns="http://www.w3.org/2000/svg" viewBox="0 0 1621.4173 1264.252">
  <defs>
    <style>
      .cls-1 {
        fill: #154b25;
      }

      .cls-2 {
        fill: #a45f31;
      }

      .cls-3 {
        fill: #5c9d6d;
      }

      .cls-4 {
        fill: #593626;
      }

      .cls-5 {
        fill: #1b3b21;
      }

      .cls-6 {
        fill: #42a270;
      }

      .cls-7 {
        fill: #046938;
      }
    </style>
  </defs>
  <rect class="cls-6" x="830.5499" y="361.5885" width="18.9219" height="516.2963"/>
  <rect class="cls-6" x="911.7712" y="535.2341" width="16.7061" height="416.1719"/>
  <rect class="cls-4" x="892.7349" y="514.903" width="52.7831" height="133.454" rx="19.1595" ry="19.1595"/>
  <rect class="cls-4" x="804.3672" y="308.4932" width="64.2391" height="162.4187" rx="23.3179" ry="23.3179"/>
  <circle class="cls-2" cx="845.231" cy="327.6328" r="9.9871"/>
  <circle class="cls-2" cx="854.0871" cy="340.9816" r="4.9936"/>
  <circle class="cls-2" cx="932.6627" cy="531.7227" r="8.2061"/>
  <circle class="cls-2" cx="925.3859" cy="542.6909" r="4.103"/>
  <path class="cls-7" d="M793.6377,955.6762h141.6672c-.0356-25.8631,3.4203-74.963,30.7232-128.0127,35.4206-68.8232,89.9004-103.3434,112.6511-116.065-17.951,2.7899-64.2445,12.4432-105.8238,51.205-48.6842,45.3851-58.9741,100.9082-61.4461,117.7718-3.2673-46.1535-15.3391-130.8461-66.5666-221.8888-52.9819-94.161-122.0853-149.3292-160.4427-175.804,33.3503,29.5259,108.9424,105.1098,129.7198,223.5954,6.559,37.4053,6.2625,71.1436,3.4136,98.9969-8.2811-21.4491-33.1841-77.3856-93.8762-117.7721-79.136-52.6593-161.8705-40.787-180.9248-37.5502,30.4497,8.9264,104.8994,35.1869,167.27,107.5307,68.9226,79.9426,80.853,167.1622,83.6353,197.9932Z"/>
  <path class="cls-3" d="M918.9142,955.6765c-.002-.0135-10.1852-82.4173-12.3715-98.3437-18.6103-135.5564-119.2053-271.9809-118.2621-272.5202.2586-.1478,8.2589,10.3455,19.5979,32.459,19.6943,38.4089,78.3667,152.8118,34.0142,263.9544-7.3632,18.4513-21.145,45.7821-48.2553,74.4502,31.0606.0819,62.1159.1029,93.1667.0632,10.7012-.0137,21.4043-.0347,32.11-.0629Z"/>
  <path class="cls-5" d="M542.7325,650.1523c.5908-4.0798,116.4013-16.9331,202.255,52.8276,51.6318,41.9536,75.7174,100.2076,72.546,102.4946-3.0662,2.2114-30.0509-49.0257-86.6939-90.9122-89.9442-66.5122-188.6545-60.6295-188.107-64.4101Z"/>
  <path class="cls-5" d="M933.7991,849.0427c-1.3416-.6281,7.8776-35.756,31.0858-66.9023,43.3046-58.1164,112.94-72.345,113.7943-70.542.8417,1.7763-65.3856,18.4705-111.7667,80.0028-21.8126,28.9378-31.8714,58.0229-33.1134,57.4415Z"/>
  <path class="cls-5" d="M849.4644,470.6536s-4.4409,58.2596-12.9773,170.2486c4.3549,8.9355,8.7097,17.8707,13.0646,26.8062-.0254-57.3592-.0873-197.0486-.0873-197.0548h0Z"/>
  <path class="cls-5" d="M928.4774,648.2398s-.0051,0-1.6553.1118h0c-.1089.2705-.2024.5845-.2499.9399-.0312.2334-.0333.4082-.033.4404.2104,16.1577-4.8851,32.5518-1.9321,48.439,2.5177,13.5474,2.9301,50.3276-5.6539,150.1548,3.297-7.9453,6.5933-15.8911,9.8901-23.8364.9585-131.8984.5881-176.2314-.366-176.2495Z"/>
  <path class="cls-1" d="M683.9895,482.9002c2.0942-2.1649,88.8927,54.346,152.4974,158.002,72.95,118.8861,78.0281,238.9012,74.9224,239.6731-3.0066.7474-12.5419-110.5642-87.3557-233.516-64.6555-106.2577-142.0827-162.0724-140.0641-164.159Z"/>
</svg>