<?xml version="1.0" encoding="UTF-8"?>
<svg id="Layer_1" data-name="Layer 1" xmlns="http://www.w3.org/2000/svg" viewBox="0 0 1621.4173 1264.252">
  <defs>
    <style>
      .cls-1 {
        fill: #eee25b;
      }

      .cls-2 {
        fill: #d7c527;
      }

      .cls-3 {
        fill: #f4d738;
      }

      .cls-4 {
        fill: #f2e376;
      }

      .cls-5 {
        fill: #d49729;
      }

      .cls-6 {
        fill: #e4b028;
      }
    </style>
  </defs>
  <g>
    <path class="cls-6" d="M833.1994,1258.0091c-2.6128,0-4.9087-1.7324-5.6255-4.2449l-116.8613-409.4841-413.0552,103.5371c-.4731.1187-.9507.176-1.4229.176-2.0542,0-4.0039-1.0857-5.0659-2.9255-1.3066-2.2627-.9541-5.1174.8633-6.9946l296.1929-305.947-296.1929-305.9473c-1.8174-1.8772-2.1699-4.7318-.8633-6.9945,1.062-1.8397,3.0117-2.9257,5.0659-2.9257.4722,0,.9492.0574,1.4229.176l413.0552,103.5372L827.5739,10.4877c.7168-2.5123,3.0127-4.2449,5.6255-4.2449s4.9087,1.7324,5.6255,4.2449l116.8618,409.4843,413.0547-103.5372c.4731-.1187.9507-.176,1.4229-.176,2.0542,0,4.0039,1.0857,5.0659,2.9257,1.3066,2.2627.9541,5.1173-.8633,6.9945l-296.1929,305.9473,296.1929,305.947c1.8174,1.8772,2.1699,4.7319.8633,6.9946-1.062,1.8398-3.0117,2.9255-5.0659,2.9255-.4722,0-.9492-.0571-1.4229-.176l-413.0547-103.5371-116.8618,409.4841c-.7168,2.5125-3.0127,4.2449-5.6255,4.2449Z"/>
    <path class="cls-6" d="M833.1994,12.0931l118.4158,414.9307,418.5486-104.9141-300.1328,310.0161,300.1328,310.0166-418.5486-104.9146-118.4158,414.9309-118.4158-414.9309-418.5483,104.9146,300.1328-310.0166-300.1328-310.0161,418.5483,104.9141L833.1994,12.0931M1370.1638,322.1097h.0051M833.1994.3925c-5.2253,0-9.8174,3.4648-11.2515,8.4897l-115.3071,404.0376-407.5608-102.1597c-.9468-.2373-1.9021-.3521-2.8459-.3521-4.1082,0-8.0073,2.1714-10.1318,5.8511-2.6128,4.5254-1.9082,10.2349,1.7266,13.9893l292.2537,301.8774-292.2537,301.8779c-3.6348,3.7544-4.3394,9.4634-1.7266,13.9888,2.1243,3.6797,6.0239,5.8516,10.1318,5.8516.9441,0,1.8987-.1147,2.8459-.3521l407.5608-102.1602,115.3071,404.0378c1.4341,5.0249,6.0261,8.4897,11.2515,8.4897s9.8174-3.4648,11.2515-8.4897l115.3071-404.0378,407.5608,102.1602c.947.2373,1.9023.3521,2.8462.3521,4.1082,0,8.0073-2.1714,10.1318-5.8516,2.6128-4.5254,1.908-10.2344-1.7266-13.9888l-292.2537-301.8779,292.1484-301.769c2.1025-2.1152,3.4021-5.0293,3.4021-8.2471,0-6.1733-4.7776-11.2295-10.8381-11.6694-.2866-.0215-.575-.0322-.864-.0322-.3352,0-.6714.0142-1.0083.0435-.0039.0005-.0073.001-.0112.001-.0007,0-.002.0005-.0024.0005-.7129.0615-1.4072.187-2.0776.3706l-407.3074,102.0962L844.4509,8.8822c-1.4341-5.0249-6.0261-8.4897-11.2515-8.4897h0Z"/>
  </g>
  <g>
    <path class="cls-4" d="M1120.7273,1174.9405c-1.4829,0-2.9512-.5627-4.0713-1.647l-305.9473-296.1934-305.9473,296.1934c-1.1201,1.0842-2.5884,1.647-4.0713,1.647-1.002,0-2.0107-.2571-2.9233-.7839-2.2627-1.3062-3.3848-3.9546-2.7495-6.489l103.5376-413.0547-409.4844-116.8613c-2.5122-.7168-4.2446-3.0129-4.2446-5.6255s1.7319-4.9087,4.2446-5.6257l409.4844-116.8615-103.5376-413.0547c-.6353-2.5344.4868-5.1827,2.7495-6.489.9126-.5269,1.9214-.7839,2.9233-.7839,1.4829,0,2.9512.5627,4.0713,1.6471l305.9473,296.1932,305.9473-296.1932c1.1201-1.0842,2.5884-1.6471,4.0713-1.6471,1.002,0,2.0107.2571,2.9233.7839,2.2627,1.3063,3.3848,3.9546,2.7495,6.489l-103.5376,413.0547,409.4844,116.8615c2.5127.717,4.2446,3.0129,4.2446,5.6257s-1.7324,4.9087-4.2446,5.6255l-409.4844,116.8613,103.5376,413.0547c.6353,2.5344-.4868,5.1829-2.7495,6.489-.9126.5269-1.9214.7839-2.9233.7839Z"/>
    <path class="cls-4" d="M1120.7251,95.162l-104.9143,418.5483,414.9307,118.4155-414.9307,118.416,104.9143,418.5483-310.0164-300.1328-310.0166,300.1328,104.9146-418.5483-414.9309-118.416,414.9309-118.4155-104.9146-418.5483,310.0166,300.1323,310.0164-300.1323M1120.7285,83.4613c-2.9656,0-5.9016,1.1255-8.1418,3.2939l-301.8779,292.2534L508.8308,86.7552c-2.2402-2.1685-5.1768-3.2939-8.1421-3.2939-2.0044-.0005-4.0217.5137-5.8469,1.5674-4.5251,2.6128-6.7695,7.9097-5.4993,12.978l102.1604,407.561-404.0381,115.3066c-5.0249,1.4341-8.4897,6.0259-8.4897,11.2515s3.4648,9.8174,8.4897,11.2515l404.0381,115.3071-102.1604,407.5608c-1.2703,5.0686.9741,10.3652,5.4993,12.978,1.825,1.0537,3.8428,1.5679,5.8469,1.5679,2.9656,0,5.9016-1.1255,8.1421-3.2944l301.8779-292.2537,301.8779,292.2537c2.24,2.1687,5.1765,3.2944,8.1418,3.2944,2.0044,0,4.0217-.5142,5.8469-1.5679,4.5254-2.6128,6.7698-7.9094,5.4993-12.978l-102.1602-407.5608,404.0381-115.3071c5.0247-1.4341,8.4895-6.0259,8.4895-11.2515s-3.4648-9.8174-8.4895-11.2515l-404.0381-115.3066,102.1602-407.561c1.2705-5.0684-.9739-10.3652-5.4993-12.978-1.825-1.0532-3.8428-1.5674-5.8469-1.5674h0ZM1120.7251,106.8627h.0051-.0051Z"/>
  </g>
  <g>
    <circle class="cls-3" cx="835.8178" cy="632.126" r="351.255"/>
    <circle class="cls-1" cx="835.8178" cy="644.6197" r="270.0365"/>
  </g>
  <path class="cls-5" d="M794.3262,253.8056h0c15.5117-48.9399,31.0248-97.8799,46.5365-146.8199,10.8166,48.1737,21.6333,96.3474,32.4499,144.5211-6.7043-3.3273-20.8085-9.2113-39.4932-8.7315-19.0091.4881-32.9812,7.3122-39.4932,11.0303Z"/>
  <path class="cls-5" d="M1147.8314,408.5537h0c49.5002-13.6183,99.0013-27.2353,148.5016-40.8536-34.53,35.2899-69.0601,70.5799-103.5901,105.8698-.8568-7.4353-3.5955-22.4703-14.1659-37.8851-10.7539-15.6824-24.0824-23.6911-30.7455-27.1311Z"/>
  <path class="cls-5" d="M1200.3222,794.7299h0c37.1688,35.4149,74.3369,70.8311,111.5057,106.246-48.034-11.4208-96.0681-22.8417-144.1021-34.2625,5.9318-4.5641,17.4085-14.6556,25.1769-31.6556,7.9033-17.2952,7.9029-32.8447,7.4195-40.3278Z"/>
  <path class="cls-5" d="M880.0017,1024.4108h0c-13.1496,49.6268-26.3007,99.2537-39.4504,148.8805-13.1118-47.6003-26.2235-95.2006-39.3353-142.8008,6.8559,3.0023,21.2258,8.204,39.8661,6.8298,18.9639-1.3981,32.5931-8.8836,38.9195-12.9094Z"/>
  <path class="cls-5" d="M527.0775,863.2601h0c-50.0887,11.2631-100.1781,22.5249-150.2668,33.788,36.1597-33.6182,72.3193-67.2364,108.479-100.8546.5044,7.4675,2.5293,22.6151,12.3592,38.5124,10.0005,16.1732,22.9355,24.803,29.4286,28.5542Z"/>
  <path class="cls-5" d="M486.7417,473.3148h0c-34.5234-37.9982-69.0461-75.9978-103.5695-113.996,47.0875,14.8485,94.1749,29.6969,141.2624,44.5454-6.245,4.1253-18.4181,13.3646-27.39,29.7614-9.1276,16.6815-10.2464,32.1907-10.3029,39.6892Z"/>
  <path class="cls-2" d="M979.7529,265.2908h0c36.6542-35.9472,73.3096-71.8938,109.9638-107.841-13.0421,47.6194-26.0842,95.2388-39.1264,142.8582-4.3605-6.0831-14.0572-17.8951-30.7842-26.2352-17.0174-8.4848-32.558-9.0114-40.0532-8.782Z"/>
  <path class="cls-2" d="M1222.3129,592.6791h0c49.3467,14.1645,98.6935,28.3306,148.0402,42.4951-47.8591,12.1329-95.7183,24.2658-143.5774,36.3987,3.1423-6.7929,8.6375-21.0531,7.6458-39.7177-1.0089-18.9886-8.2133-32.7684-12.1086-39.1761Z"/>
  <path class="cls-2" d="M1056.9548,961.8893h0c10.921,50.1643,21.8408,100.3295,32.7619,150.4938-33.3707-36.3882-66.7414-72.7764-100.112-109.1646,7.4708-.4534,22.6318-2.3749,38.5958-12.0961,16.2411-9.8899,24.959-22.7657,28.7543-29.2331Z"/>
  <path class="cls-2" d="M662.2092,988.7414h0c-37.4933,35.0711-74.9879,70.1416-112.4812,105.2127,14.1637-47.2979,28.3273-94.5959,42.491-141.8938,4.2155,6.1844,13.6304,18.2223,30.1557,26.9553,16.8122,8.8846,32.336,9.7782,39.8345,9.7259Z"/>
  <path class="cls-2" d="M449.3227,671.6077h0c-49.0729-15.0858-98.1459-30.1731-147.2188-45.2589,48.0779-11.2349,96.1558-22.4697,144.2336-33.7046-3.2689,6.7329-9.0301,20.8877-8.388,39.5676.6533,19.0042,7.5985,32.9164,11.3731,39.3959Z"/>
  <path class="cls-2" d="M594.6659,328.1236h0c-13.4544-49.545-26.9075-99.0909-40.3619-148.636,35.1755,34.6467,70.3509,69.2933,105.5264,103.94-7.4381.8322-22.482,3.5211-37.9318,14.0405-15.7179,10.7019-23.7707,24.0038-27.2327,30.6555Z"/>
</svg>