<?xml version="1.0" encoding="UTF-8"?>
<svg id="Layer_1" data-name="Layer 1" xmlns="http://www.w3.org/2000/svg" viewBox="0 0 1621.4173 1264.252">
  <defs>
    <style>
      .cls-1 {
        fill: #eee25b;
      }

      .cls-2 {
        fill: #d7c527;
      }

      .cls-3 {
        fill: #f4d738;
      }

      .cls-4 {
        fill: #f2e376;
      }

      .cls-5 {
        fill: #d49729;
      }

      .cls-6 {
        fill: #e4b028;
      }
    </style>
  </defs>
  <g>
    <path class="cls-6" d="M821.8269,941.5323c-1.2915,0-2.4268-.8564-2.7812-2.0984l-57.7705-202.4292-204.1943,51.1838c-.2339.0586-.4702.0869-.7036.0869-1.0151,0-1.979-.5366-2.5044-1.4463-.6455-1.1187-.4712-2.5298.4268-3.4578l146.4238-151.2454-146.4238-151.2456c-.8979-.9281-1.0723-2.3392-.4268-3.4578.5254-.9095,1.4893-1.4463,2.5044-1.4463.2334,0,.4692.0283.7036.087l204.1943,51.184,57.7705-202.4294c.3545-1.2421,1.4897-2.0985,2.7812-2.0985s2.4268.8564,2.7812,2.0985l57.7705,202.4294,204.1943-51.184c.2339-.0587.4702-.087.7036-.087,1.0151,0,1.979.5367,2.5044,1.4463.6455,1.1185.4712,2.5297-.4268,3.4578l-146.4238,151.2456,146.4238,151.2454c.8979.928,1.0723,2.3391.4268,3.4578-.5254.9094-1.4893,1.4463-2.5044,1.4463-.2334,0-.4692-.0283-.7036-.0869l-204.1943-51.1838-57.7705,202.4292c-.3545,1.2419-1.4897,2.0984-2.7812,2.0984Z"/>
    <path class="cls-6" d="M821.8271,325.6117l58.5391,205.1216,206.9102-51.8643-148.3711,153.2568,148.3711,153.2573-206.9102-51.8647-58.5391,205.1221-58.5391-205.1221-206.9102,51.8647,148.3711-153.2573-148.3711-153.2568,206.9102,51.8643,58.5391-205.1216M1087.2763,478.869h.0049M821.8271,319.8275c-2.5833,0-4.8533,1.7129-5.5623,4.1968l-57.0022,199.7368-201.4783-50.5029c-.4683-.1172-.9407-.1738-1.4072-.1738-2.031,0-3.9583,1.0732-5.0085,2.8926-1.2915,2.2368-.9431,5.0596.8535,6.9155l144.4761,149.2334-144.4761,149.2339c-1.7966,1.856-2.145,4.6782-.8535,6.9155,1.0503,1.8188,2.9778,2.8926,5.0085,2.8926.4668,0,.939-.0566,1.4072-.1738l201.4783-50.5034,57.0022,199.7373c.709,2.4839,2.979,4.1968,5.5623,4.1968s4.8533-1.7129,5.5623-4.1968l57.0022-199.7373,201.4783,50.5034c.4683.1172.9407.1738,1.4072.1738,2.031,0,3.9583-1.0732,5.0085-2.8926,1.2915-2.2373.9431-5.0596-.8535-6.9155l-144.4761-149.2339,144.4062-149.1616c1.0505-1.0469,1.7007-2.4951,1.7007-4.0952,0-3.0859-2.4143-5.6079-5.4583-5.7754-.1089-.0063-.218-.0093-.3276-.0093-.155,0-.3105.0063-.4663.019-.3669.0288-.7246.0928-1.0691.187l-201.3501,50.4707-57.0022-199.7368c-.709-2.4839-2.979-4.1968-5.5623-4.1968h0Z"/>
  </g>
  <g>
    <path class="cls-4" d="M963.967,900.4674c-.7329,0-1.459-.2781-2.0127-.8142l-151.2456-146.4238-151.2456,146.4238c-.5537.5361-1.2798.8142-2.0127.8142-.4951.0002-.9941-.127-1.4453-.3875-1.1182-.6458-1.6733-1.9548-1.3589-3.2078l51.1836-204.1946-202.4292-57.7705c-1.2422-.3542-2.0986-1.4895-2.0986-2.781s.8564-2.4268,2.0986-2.781l202.4292-57.7708-51.1836-204.1945c-.3145-1.2528.2407-2.562,1.3589-3.2078.4512-.2604.9502-.3876,1.4453-.3876.7329,0,1.459.2782,2.0127.8143l151.2456,146.4236,151.2456-146.4236c.5537-.536,1.2798-.8143,2.0127-.8143.4956,0,.9941.1271,1.4453.3876,1.1182.6458,1.6733,1.955,1.3589,3.2078l-51.1836,204.1945,202.4287,57.7708c1.2422.3542,2.0986,1.4895,2.0986,2.781s-.8564,2.4268-2.0986,2.781l-202.4287,57.7705,51.1836,204.1946c.3145,1.2529-.2407,2.562-1.3589,3.2078-.4512.2605-.9502.3875-1.4453.3875Z"/>
    <path class="cls-4" d="M963.9658,366.6766l-51.8645,206.9102,205.1218,58.5391-205.1218,58.5391,51.8645,206.9102-153.2571-148.3711-153.2573,148.3711,51.8647-206.9102-205.1218-58.5391,205.1218-58.5391-51.8647-206.9102,153.2573,148.3711,153.2571-148.3711M963.9675,360.8925c-1.4661,0-2.9175.5562-4.0249,1.6284l-149.2339,144.4761-149.2341-144.4761c-1.1074-1.0723-2.5591-1.6284-4.0249-1.6284-.991,0-1.988.2539-2.8904.7749-2.2373,1.2915-3.3467,3.9102-2.7185,6.4155l50.5032,201.4785-199.7371,57.0024c-2.4839.7085-4.1968,2.979-4.1968,5.562s1.7129,4.8535,4.1968,5.562l199.7371,57.0024-50.5032,201.4785c-.6282,2.5054.4812,5.124,2.7185,6.4155.9021.521,1.8997.7749,2.8904.7749,1.4661,0,2.9175-.5562,4.0249-1.6284l149.2341-144.4761,149.2339,144.4761c1.1074,1.0723,2.5591,1.6284,4.0249,1.6284.991,0,1.988-.2539,2.8904-.7749,2.2373-1.2915,3.3467-3.9102,2.7185-6.4155l-50.5029-201.4785,199.7371-57.0024c2.4839-.7085,4.1968-2.979,4.1968-5.562s-1.7129-4.8535-4.1968-5.562l-199.7371-57.0024,50.5029-201.4785c.6282-2.5054-.4812-5.124-2.7185-6.4155-.9021-.521-1.8997-.7749-2.8904-.7749h0ZM963.9658,372.4608h.0051-.0051Z"/>
  </g>
  <g>
    <circle class="cls-3" cx="823.1214" cy="632.126" r="173.6435"/>
    <circle class="cls-1" cx="823.1214" cy="638.3023" r="133.493"/>
  </g>
  <path class="cls-5" d="M802.61,445.1026h0c7.6682-24.1936,15.3372-48.3871,23.0054-72.5807,5.3472,23.8148,10.6945,47.6295,16.0417,71.4443-3.3143-1.6448-10.2867-4.5536-19.5235-4.3164-9.3972.2413-16.3043,3.6148-19.5235,5.4529Z"/>
  <path class="cls-5" d="M977.3659,521.6026h0c24.4705-6.7322,48.9415-13.4638,73.412-20.1961-17.07,17.4457-34.14,34.8913-51.21,52.337-.4236-3.6757-1.7775-11.1082-7.0029-18.7286-5.3162-7.7526-11.9052-11.7117-15.1991-13.4123Z"/>
  <path class="cls-5" d="M1003.3148,712.5095h0c18.3744,17.5074,36.7486,35.0155,55.123,52.5229-23.7457-5.6459-47.4914-11.2918-71.2371-16.9377,2.9324-2.2563,8.6059-7.245,12.4462-15.649,3.907-8.5499,3.9068-16.2368,3.6679-19.9361Z"/>
  <path class="cls-5" d="M844.9638,826.0527h0c-6.5005,24.5331-13.0018,49.0662-19.5024,73.5993-6.4818-23.5313-12.9636-47.0626-19.4455-70.5939,3.3892,1.4842,10.493,4.0557,19.7079,3.3763,9.3748-.6912,16.1125-4.3916,19.2399-6.3818Z"/>
  <path class="cls-5" d="M670.4951,746.3876h0c-24.7614,5.5679-49.5232,11.1352-74.2846,16.7032,17.8756-16.6192,35.7512-33.2384,53.6268-49.8577.2494,3.6916,1.2504,11.1798,6.1098,19.0387,4.9438,7.9953,11.3382,12.2614,14.5481,14.1158Z"/>
  <path class="cls-5" d="M650.555,553.6174h0c-17.0667-18.7845-34.1331-37.5696-51.1998-56.3541,23.2778,7.3404,46.5555,14.6807,69.8333,22.0211-3.0872,2.0394-9.105,6.6068-13.5403,14.7126-4.5122,8.2465-5.0653,15.9135-5.0932,19.6204Z"/>
  <path class="cls-2" d="M894.276,450.7803h0c18.1201-17.7706,36.2408-35.5408,54.3608-53.3114-6.4474,23.5407-12.8948,47.0815-19.3422,70.6222-2.1556-3.0072-6.9492-8.8465-15.2182-12.9694-8.4126-4.1945-16.0951-4.4548-19.8004-4.3414Z"/>
  <path class="cls-2" d="M1014.186,612.6253h0c24.3946,7.0023,48.7893,14.0053,73.1839,21.0075-23.6593,5.9979-47.3185,11.9958-70.9778,17.9938,1.5534-3.3581,4.27-10.4076,3.7797-19.6345-.4988-9.387-4.0603-16.1991-5.9859-19.3668Z"/>
  <path class="cls-2" d="M932.4409,795.1451h0c5.3988,24.7988,10.7971,49.5981,16.1959,74.3969-16.4969-17.9886-32.9937-35.9772-49.4906-53.9657,3.6932-.2242,11.1881-1.1741,19.0799-5.9797,8.0288-4.8891,12.3385-11.2543,14.2148-14.4514Z"/>
  <path class="cls-2" d="M737.2977,808.4194h0c-18.5349,17.3375-37.0704,34.6746-55.6053,52.0121,7.0018-23.3818,14.0037-46.7637,21.0055-70.1455,2.0839,3.0573,6.7382,9.0082,14.9075,13.3254,8.3111,4.3921,15.9854,4.8339,19.6923,4.808Z"/>
  <path class="cls-2" d="M632.0568,651.6439h0c-24.2593-7.4577-48.5186-14.9161-72.7779-22.3738,23.7674-5.554,47.5348-11.108,71.3022-16.6619-1.616,3.3284-4.4641,10.3259-4.1466,19.5603.323,9.3947,3.7563,16.2723,5.6223,19.4754Z"/>
  <path class="cls-2" d="M703.9075,481.8418h0c-6.6512-24.4927-13.3018-48.9858-19.953-73.4785,17.3891,17.1276,34.7781,34.2553,52.1672,51.3829-3.677.4114-11.114,1.7407-18.7516,6.9409-7.7702,5.2905-11.7511,11.8663-13.4626,15.1546Z"/>
</svg>