<?xml version="1.0" encoding="UTF-8"?>
<svg id="Layer_1" data-name="Layer 1" xmlns="http://www.w3.org/2000/svg" viewBox="0 0 2367.4471 1514.657">
  <defs>
    <style>
      .cls-1 {
        fill: #eee25b;
      }

      .cls-2 {
        fill: #d7c527;
      }

      .cls-3 {
        fill: #f4d738;
      }

      .cls-4 {
        fill: #f2e376;
      }

      .cls-5 {
        fill: #d49729;
      }

      .cls-6 {
        fill: #e4b028;
      }
    </style>
  </defs>
  <g>
    <path class="cls-6" d="M1175.2783,1181.2173c-1.6035,0-3.0127-1.0625-3.4521-2.6045l-71.71-251.2754-253.4663,63.5352c-.2905.0723-.584.1074-.8735.1074-1.2603.001-2.4565-.666-3.1084-1.7949-.8018-1.3887-.5854-3.1396.5298-4.292l181.7549-187.7412-181.7549-187.7402c-1.1152-1.1523-1.3315-2.9033-.5298-4.292.6519-1.1289,1.8481-1.7949,3.1084-1.7949.2896,0,.5825.0352.8735.1074l253.4663,63.5342,71.71-251.2754c.4395-1.542,1.8486-2.6045,3.4521-2.6045s3.0127,1.0625,3.4521,2.6045l71.71,251.2754,253.4668-63.5342c.291-.0723.584-.1074.874-.1074,1.2598,0,2.4561.666,3.1084,1.7949.8018,1.3887.585,3.1396-.5303,4.292l-181.7549,187.7402,181.7549,187.7412c1.1152,1.1523,1.332,2.9033.5303,4.292-.6523,1.1289-1.8486,1.7949-3.1084,1.7949-.29.001-.583-.0352-.874-.1074l-253.4668-63.5352-71.71,251.2754c-.4395,1.542-1.8486,2.6045-3.4521,2.6045Z"/>
    <path class="cls-6" d="M1175.2783,416.6763l72.6646,254.6174,256.8374-64.3794-184.1729,190.2378,184.1729,190.2378-256.8374-64.3794-72.6646,254.6174-72.6646-254.6174-256.8369,64.3794,184.1729-190.2378-184.1729-190.2378,256.8369,64.3794,72.6646-254.6174M1504.7803,606.9143h.0049M1175.2783,409.4963c-3.2065,0-6.0244,2.1262-6.9043,5.2096l-70.7568,247.933-250.0947-62.6892c-.5811-.1455-1.167-.2161-1.7461-.2161-2.521,0-4.9136,1.3325-6.2173,3.5906-1.6035,2.7771-1.1709,6.2805,1.0591,8.5842l179.3379,185.2437-179.3379,185.2437c-2.23,2.3037-2.6626,5.8071-1.0591,8.5842,1.3032,2.2578,3.6963,3.5906,6.2173,3.5906.5791,0,1.165-.0703,1.7461-.2161l250.0947-62.6892,70.7568,247.9331c.8799,3.0833,3.6978,5.2095,6.9043,5.2095s6.0244-2.1262,6.9043-5.2095l70.7568-247.9331,250.0952,62.6892c.5811.1455,1.167.2161,1.7466.2161,2.521,0,4.9136-1.3325,6.2173-3.5906,1.603-2.7771,1.1709-6.2805-1.0596-8.5842l-179.3379-185.2437,179.2578-185.1609c1.2998-1.2993,2.104-3.0942,2.104-5.0769,0-3.812-2.9688-6.9302-6.7212-7.1658-.1528-.0098-.3066-.0149-.4604-.0149-.2061,0-.4131.009-.6201.0271-.0015,0-.0024,0-.0034.0002-.0015,0-.0034.0002-.0049.0005-.437.0376-.8623.1147-1.2734.2273l-249.9399,62.6501-70.7568-247.933c-.8799-3.0834-3.6978-5.2096-6.9043-5.2096h0Z"/>
  </g>
  <g>
    <path class="cls-4" d="M1351.7158,1130.2436c-.9102,0-1.8105-.3447-2.498-1.0107l-187.7402-181.7549-187.7412,181.7549c-.6875.666-1.5884,1.0107-2.498,1.0107-.6152,0-1.2339-.1572-1.7939-.4805-1.3887-.8018-2.0771-2.4268-1.6875-3.9824l63.5347-253.4658-251.2754-71.7109c-1.5415-.4395-2.6045-1.8486-2.6045-3.4521s1.063-3.0127,2.6045-3.4521l251.2754-71.71-63.5347-253.4668c-.3896-1.5557.2988-3.1807,1.6875-3.9824.5596-.3232,1.1787-.4805,1.7939-.4805.9097,0,1.8105.3447,2.498,1.0107l187.7412,181.7559,187.7402-181.7559c.6875-.666,1.5879-1.0107,2.498-1.0107.6152,0,1.2344.1572,1.7939.4805,1.3887.8018,2.0771,2.4268,1.6875,3.9824l-63.5342,253.4668,251.2754,71.71c1.542.4395,2.6045,1.8486,2.6045,3.4521s-1.0625,3.0127-2.6045,3.4521l-251.2754,71.7109,63.5342,253.4658c.3896,1.5557-.2988,3.1807-1.6875,3.9824-.5596.3232-1.1787.4805-1.7939.4805Z"/>
    <path class="cls-4" d="M1351.7148,467.6504l-64.3794,256.8372,254.6177,72.6646-254.6177,72.6643,64.3794,256.8374-190.2378-184.1729-190.2378,184.1729,64.3794-256.8374-254.6172-72.6643,254.6172-72.6646-64.3794-256.8372,190.2378,184.1729,190.2378-184.1729M1351.7168,460.4703c-1.8198,0-3.6211.6906-4.9961,2.0215l-185.2437,179.338-185.2437-179.338c-1.3745-1.3307-3.1768-2.0215-4.9966-2.0215-1.2295-.0001-2.4678.3154-3.5874.962-2.7769,1.6033-4.1543,4.8535-3.375,7.9639l62.6895,250.0945-247.9331,70.7571c-3.083.8799-5.2095,3.6978-5.2095,6.9043s2.1265,6.0244,5.2095,6.9043l247.9331,70.7568-62.6895,250.0947c-.7793,3.1104.5981,6.3606,3.375,7.9639,1.1196.6465,2.3579.9622,3.5874.9622,1.8203,0,3.6216-.6907,4.9966-2.0217l185.2437-179.3379,185.2437,179.3379c1.3745,1.3308,3.1768,2.0217,4.9961,2.0217,1.23,0,2.4683-.3157,3.5879-.9622,2.7769-1.6033,4.1543-4.8535,3.3745-7.9639l-62.689-250.0947,247.9331-70.7568c3.0835-.8799,5.21-3.6978,5.21-6.9043s-2.1265-6.0244-5.21-6.9043l-247.9331-70.7571,62.689-250.0945c.7798-3.1104-.5977-6.3606-3.3745-7.9639-1.1196-.6465-2.3579-.962-3.5879-.962h0ZM1351.7148,474.8304h.0049-.0049Z"/>
  </g>
  <g>
    <circle class="cls-3" cx="1176.8851" cy="797.1521" r="215.5434"/>
    <circle class="cls-1" cx="1176.8851" cy="804.8187" r="165.7047"/>
  </g>
  <path class="cls-5" d="M1151.4243,565.0003h0c9.5186-30.0314,19.038-60.0629,28.5566-90.0943,6.6375,29.5612,13.275,59.1224,19.9125,88.6836-4.114-2.0417-12.7689-5.6524-24.2345-5.358-11.6647.2995-20.2385,4.487-24.2345,6.7686Z"/>
  <path class="cls-5" d="M1368.3485,659.9596h0c30.3752-8.3567,60.751-16.7126,91.1262-25.0693-21.189,21.6553-42.3779,43.3105-63.5669,64.9658-.5258-4.5626-2.2064-13.7886-8.6927-23.2477-6.599-9.6233-14.7779-14.5378-18.8666-16.6487Z"/>
  <path class="cls-5" d="M1400.5589,896.932h0c22.8082,21.7319,45.616,43.4647,68.4241,65.1966-29.4755-7.0083-58.951-14.0165-88.4265-21.0248,3.64-2.8007,10.6825-8.9932,15.4495-19.4251,4.8497-10.613,4.8495-20.1547,4.5529-24.7467Z"/>
  <path class="cls-5" d="M1203.998,1037.873h0c-8.0691,30.4529-16.1391,60.9058-24.2083,91.3587-8.0459-29.2093-16.0918-58.4187-24.1376-87.628,4.2071,1.8423,13.025,5.0343,24.4634,4.191,11.637-.8579,20.0004-5.4513,23.8825-7.9217Z"/>
  <path class="cls-5" d="M987.4303,938.9847h0c-30.7363,6.9115-61.4731,13.8222-92.2094,20.7336,22.1889-20.6294,44.3779-41.2588,66.5668-61.8882.3095,4.5823,1.5521,13.8775,7.5841,23.6327,6.1367,9.9245,14.0741,15.2201,18.0585,17.5219Z"/>
  <path class="cls-5" d="M962.6787,699.6994h0c-21.1849-23.3172-42.3693-46.6351-63.5542-69.9523,28.8947,9.1116,57.7893,18.2232,86.684,27.3347-3.8321,2.5315-11.3021,8.201-16.8075,18.2627-5.601,10.2364-6.2876,19.7534-6.3222,24.3548Z"/>
  <path class="cls-2" d="M1265.2091,572.048h0c22.4924-22.0586,44.9856-44.1168,67.478-66.1754-8.0031,29.2211-16.0063,58.4422-24.0094,87.6632-2.6757-3.7328-8.626-10.9811-18.8904-16.0989-10.4425-5.2066-19.9788-5.5297-24.5782-5.3889Z"/>
  <path class="cls-2" d="M1414.0532,772.9459h0c30.281,8.6919,60.5621,17.3847,90.8431,26.0766-29.3682,7.4452-58.7364,14.8904-88.1046,22.3356,1.9282-4.1684,5.3003-12.919,4.6918-24.3723-.6191-11.6521-5.04-20.108-7.4303-24.0399Z"/>
  <path class="cls-2" d="M1312.5832,999.5074h0c6.7016,30.7828,13.4024,61.566,20.1039,92.3487-20.4775-22.3292-40.955-44.6584-61.4326-66.9876,4.5843-.2782,13.8878-1.4573,23.6839-7.4226,9.9662-6.0688,15.3158-13.9699,17.6448-17.9385Z"/>
  <path class="cls-2" d="M1070.3522,1015.9848h0c-23.0073,21.521-46.0154,43.0415-69.0228,64.5625,8.6914-29.0238,17.3827-58.0476,26.0741-87.0715,2.5868,3.795,8.3641,11.1819,18.5047,16.5408,10.3166,5.4519,19.8426,6.0003,24.444,5.9682Z"/>
  <path class="cls-2" d="M939.717,821.3796h0c-30.113-9.2572-60.226-18.5153-90.339-27.7726,29.5024-6.8941,59.0048-13.7883,88.5072-20.6824-2.0059,4.1316-5.5412,12.8175-5.1472,24.2802.4009,11.6617,4.6627,20.1988,6.979,24.1748Z"/>
  <path class="cls-2" d="M1028.9051,610.6046h0c-8.2561-30.4027-16.5115-60.806-24.7676-91.2087,21.585,21.2605,43.17,42.521,64.755,63.7815-4.5643.5107-13.7958,2.1607-23.2764,8.6158-9.6451,6.5671-14.5866,14.7297-16.711,18.8114Z"/>
</svg>