<?xml version="1.0" encoding="UTF-8"?>
<svg id="Layer_1" data-name="Layer 1" xmlns="http://www.w3.org/2000/svg" viewBox="0 0 1621.4173 1264.252">
  <defs>
    <style>
      .cls-1 {
        fill: #717272;
      }

      .cls-2 {
        fill: #030303;
      }

      .cls-3 {
        fill: #838384;
      }

      .cls-4 {
        fill: #0d0d0d;
      }

      .cls-5 {
        fill: #212120;
      }

      .cls-6 {
        fill: #333;
      }

      .cls-7 {
        fill: #0f0d0e;
      }
    </style>
  </defs>
  <path class="cls-7" d="M887.5713,633.151c.0447-.1232.1432-.3841.2994-.695,4.1518-8.2656,23.7195-1.6954,26.8587-6.7241,4.1448-6.6395-19.5659-34.7572-52.8276-50.7096-8.8037-4.2222-23.9685-11.2571-44.9359-12.1525-4.9451-.2111-24.6835-.7116-48.3278,9.0436-1.9447.8025-3.3354,1.4085-5.0365,2.1715-15.3449,6.8829-41.1391,18.7739-59.7046,42.8233-6.7202,8.7049-15.1436,19.6165-11.3048,26.2106,3.6682,6.3008,18.7852,9.0925,26.4701,2.7687.1268-.1041.2273-.1935.3519-.3016,9.1783-7.9357,9.4493-17.231,13.954-26.4515,4.3383-8.8799,10.5854-14.0669,25.282-23.5245,25.5105-16.4168,51.0307-15.8723,55.7608-15.7047,17.2601.6114,30.8177,5.881,39.1986,10.0524,5.0624,2.5962,13.413,7.702,20.9378,16.9104,8.3706,10.2435,11.6552,20.5896,13.0239,26.2829Z"/>
  <g>
    <circle class="cls-5" cx="936.5061" cy="641.4596" r="52.0796"/>
    <circle class="cls-2" cx="932.3174" cy="638.9753" r="50.8799"/>
    <path class="cls-1" d="M960.8007,674.339c-11.3756,9.4249-24.8656,9.0085-24.5021,7.7086.3032-1.0843,10.1198-2.3318,20.598-10.7805,11.1887-9.0215,14.7432-19.4898,16-19.588,1.4298-.1117-.734,13.2463-12.0958,22.6598Z"/>
    <ellipse class="cls-1" cx="976.1166" cy="640.8858" rx="1.1165" ry="2.2329"/>
  </g>
  <path class="cls-4" d="M988.3894,605.896c3.2858,7.7441,7.7619,20.9938,7.9726,37.9667.2212,17.8062-4.3515,31.7133-7.6182,39.6138-2.3794,3.3454-6.4311,5.0677-10.4221,4.4275-5.8343-.9359-8.1158-6.3717-8.2247-6.6444.7145-.5889,1.7045-1.4472,2.8107-2.5546,6.8729-6.8814,9.4226-14.5722,10.9216-19.2695,3.5338-11.0734,2.8327-20.4171,2.5436-23.3158-1.7238-17.2906-11.0819-28.9392-14.9752-33.2836.4445-.5264,3.1081-3.5805,7.348-3.6739,4.067-.0899,7.9327,2.581,9.6438,6.7338Z"/>
  <path class="cls-6" d="M993.7372,642.2734c.392-9.2362-5.1508-16.8283-5.9673-16.5331-.7422.2683,2.7377,6.9386,2.2932,17.3786-.3526,8.2827-2.9363,13.3235-2.2932,13.5679.7588.2884,5.6207-6.2471,5.9673-14.4134Z"/>
  <ellipse class="cls-6" cx="985.1172" cy="616.9085" rx=".9185" ry="4.0979" transform="translate(-127.185 279.5425) rotate(-15.1832)"/>
  <path class="cls-6" d="M853.9634,581.2846c-.4887,1.3084-17.088-8.0725-41.9688-8.1957-27.604-.1368-45.9513,11.218-46.4906,9.8916-.5845-1.4379,20.04-17.0516,46.4906-16.6743,23.87.3407,42.4981,13.5615,41.9688,14.9784Z"/>
  <ellipse class="cls-6" cx="756.9181" cy="588.5021" rx="5.0871" ry="1.2578" transform="translate(-201.6672 569.1639) rotate(-36.7093)"/>
  <ellipse class="cls-3" cx="758.4082" cy="587.7005" rx="1.7198" ry=".3046" transform="translate(-201.0561 589.4805) rotate(-37.8789)"/>
  <path class="cls-3" d="M821.5033,570.8739c.0963-.1926.0308-.4013-.0193-.5542-.7346-2.237-6.3959-2.8875-10.0812-2.7663-6.0406.1984-10.9407,2.606-10.8258,3.0321.1073.3983,4.3908-1.693,10.8258-1.064,5.0015.4887,9.5514,2.45,10.1005,1.3523Z"/>
  <ellipse class="cls-3" cx="984.8254" cy="615.833" rx=".6183" ry="1.7896" transform="translate(-108.6921 224.2325) rotate(-12.3157)"/>
  <ellipse class="cls-3" cx="989.6578" cy="629.6494" rx=".4123" ry="1.0773" transform="translate(-162.0902 407.4841) rotate(-21.5478)"/>
  <ellipse class="cls-3" cx="976.4247" cy="640.9496" rx=".3813" ry=".6738"/>
  <g>
    <circle class="cls-5" cx="684.9113" cy="649.3835" r="52.0796"/>
    <circle class="cls-2" cx="689.0999" cy="646.8993" r="50.8799"/>
    <path class="cls-1" d="M660.6166,682.2629c11.3756,9.4249,24.8656,9.0085,24.5021,7.7086-.3032-1.0843-10.1198-2.3318-20.598-10.7805-11.1887-9.0215-14.7432-19.4898-16-19.588-1.4298-.1117.734,13.2463,12.0958,22.6598Z"/>
    <ellipse class="cls-1" cx="645.3008" cy="648.8097" rx="1.1165" ry="2.2329"/>
  </g>
  <path class="cls-4" d="M633.0279,613.8199c-3.2858,7.7441-7.7619,20.9938-7.9726,37.9667-.2212,17.8062,4.3515,31.7133,7.6182,39.6138,2.3794,3.3454,6.4311,5.0677,10.4221,4.4275,5.8343-.9359,8.1158-6.3717,8.2247-6.6444-.7145-.5889-1.7045-1.4472-2.8107-2.5546-6.8729-6.8814-9.4226-14.5722-10.9216-19.2695-3.5338-11.0734-2.8327-20.4171-2.5436-23.3158,1.7238-17.2906,11.0819-28.9392,14.9752-33.2836-.4445-.5264-3.1081-3.5805-7.348-3.6739-4.067-.0899-7.9327,2.581-9.6438,6.7338Z"/>
  <path class="cls-6" d="M627.6802,650.1973c-.392-9.2362,5.1508-16.8283,5.9673-16.5331.7422.2683-2.7377,6.9386-2.2932,17.3786.3526,8.2827,2.9363,13.3235,2.2932,13.5679-.7588.2884-5.6207-6.2471-5.9673-14.4134Z"/>
  <ellipse class="cls-6" cx="636.3001" cy="624.8324" rx="4.0979" ry=".9185" transform="translate(-133.3724 1075.2739) rotate(-74.8168)"/>
  <ellipse class="cls-3" cx="637.7224" cy="633.4108" rx="1.7896" ry=".6183" transform="translate(-117.1363 1121.3527) rotate(-77.6843)"/>
  <ellipse class="cls-3" cx="631.7595" cy="637.5733" rx="1.0773" ry=".4123" transform="translate(-193.2857 991.0139) rotate(-68.4522)"/>
</svg>