<?xml version="1.0" encoding="UTF-8"?>
<svg id="Layer_1" data-name="Layer 1" xmlns="http://www.w3.org/2000/svg" viewBox="0 0 1621.4173 1264.252">
  <defs>
    <style>
      .cls-1 {
        fill: #2d2e2d;
      }

      .cls-2 {
        stroke-linecap: round;
        stroke-linejoin: round;
        stroke-width: 17.9121px;
      }

      .cls-2, .cls-3 {
        fill: #4c4a4c;
        stroke: #4c4a4c;
      }

      .cls-4 {
        fill: #353635;
      }

      .cls-3 {
        stroke-miterlimit: 10;
        stroke-width: 21.1894px;
      }

      .cls-5 {
        fill: #4a4a4b;
      }
    </style>
  </defs>
  <g>
    <path class="cls-5" d="M944.347,147.665c22.7358,89.2931-33.0543,186.7996-56.5501,184.5863-4.7028-.443-10.8907-9.3805-23.2667-27.2553-5.9539-8.5994-20.7953-30.0351-26.8379-45.1141-14.0983-35.1818,12.5054-60.9898,15.1777-101.6961,5.4638-83.2269-57.3767-135.4536-46.0866-144.6608,13.2224-10.7829,113.8476,40.9976,137.5635,134.14Z"/>
    <path class="cls-1" d="M850.2989,230.9545c-2.8362-1.3607,15.0082-26.9898,17.2839-69.1355,2.4339-45.0744-14.7735-75.0842-11.3009-76.4479,3.6725-1.4422,28.6217,29.8841,28.5849,69.1355-.041,43.7919-31.1648,78.0805-34.5678,76.4479Z"/>
    <path class="cls-4" d="M876.4606,142.3893c.6244,9.6599-.7743,18.4935-1.537,18.4867-.7048-.0063-.6391-7.5688-2.2977-21.4092-1.9842-16.5549-4.255-23.9236-3.5827-24.1035.8831-.236,6.4455,11.995,7.4174,27.0261Z"/>
    <ellipse class="cls-4" cx="867.1591" cy="109.3154" rx=".9538" ry="4.0502" transform="translate(7.9735 269.6741) rotate(-17.757)"/>
  </g>
  <g>
    <path class="cls-5" d="M320.8609,147.665c-22.7358,89.2931,33.0543,186.7996,56.5501,184.5863,4.7028-.443,10.8907-9.3805,23.2667-27.2553,5.9539-8.5994,20.7953-30.0351,26.8379-45.1141,14.0983-35.1818-12.5054-60.9898-15.1777-101.6961-5.4638-83.2269,57.3767-135.4536,46.0866-144.6608-13.2224-10.7829-113.8476,40.9976-137.5635,134.14Z"/>
    <path class="cls-1" d="M416.3977,229.1975c2.8362-1.3607-15.0082-26.9898-17.2839-69.1355-2.4339-45.0744,14.7735-75.0842,11.3009-76.4479-3.6725-1.4422-28.6217,29.8841-28.5849,69.1355.041,43.7919,31.1648,78.0805,34.5678,76.4479Z"/>
    <path class="cls-4" d="M395.6874,166.9203c1.0111-.509-3.2043-13.2302-1.3019-32.9591,2.0346-21.0999,9.5339-34.3197,8.4862-35.1076-1.1081-.8332-11.2168,12.6593-13.6682,30.9418-2.735,20.3973,5.2709,37.7356,6.484,37.1249Z"/>
    <ellipse class="cls-4" cx="397.4266" cy="179.4725" rx="1.2107" ry="4.742" transform="translate(-21.4334 58.1687) rotate(-8.152)"/>
  </g>
  <g>
    <path class="cls-2" d="M990.7265,1245.1343c-1.8279-3.639,179.6339-46.6401,244.7521-193.9984,49.7956-112.6843,6.4985-229.6837,10.3172-230.1174,3.9672-.4505,56.8666,125.1265,6.3019,241.4184-65.1462,149.8273-259.5002,186.4222-261.3712,182.6975Z"/>
    <path class="cls-3" d="M1298.8962,814.5657l-109.3026,25.0264c-4.9912,1.1428-9.3845-3.4764-7.9929-8.4041l29.2352-103.5243c1.3915-4.9275,7.5518-6.5665,11.208-2.982l80.0674,78.4979c3.8064,3.7318,1.981,10.1963-3.2151,11.3861Z"/>
    <path class="cls-1" d="M1305.3978,818.9435c-1.2501,2.2823-4.407,2.5239-10.5538,3.2473-8.6304,1.0157-20.8275,2.692-35.9867,5.5797,1.4579-.5066,3.6855-1.2687,6.4157-2.1525,5.1545-1.6677,8.9624-2.7073,11.2567-3.4131,11.9449-3.6732,18.0082-5.2621,18.5702-6.3471,2.2962-4.433-5.9928-12.225-20.8256-27.3023-18.3717-18.6741-35.4563-38.5735-53.3179-57.7358-1.7454-1.8717-2.721-2.9227-2.5986-3.0565.6733-.7421,33.1211,29.1428,61.2806,56.8485,18.9727,18.6685,28.6269,29.0941,25.7594,34.3318Z"/>
    <path class="cls-1" d="M1002.5655,1252.1001c-.5806-1.2246,184.5613-38.6692,251.0075-181.7926,53.6499-115.5593,3.1068-242.257,5.2843-242.5371,2.159-.2775,56.6287,123.5792,5.0803,241.6322-66.4647,152.2112-260.7823,183.9416-261.3721,182.6975Z"/>
  </g>
</svg>