<?xml version="1.0" encoding="UTF-8"?>
<svg id="Layer_1" data-name="Layer 1" xmlns="http://www.w3.org/2000/svg" viewBox="0 0 1621.4173 1264.252">
  <defs>
    <style>
      .cls-1 {
        fill: #2d2e2d;
      }

      .cls-2 {
        stroke-linecap: round;
        stroke-linejoin: round;
        stroke-width: 8.794px;
      }

      .cls-2, .cls-3 {
        fill: #4c4a4c;
        stroke: #4c4a4c;
      }

      .cls-4 {
        fill: #353635;
      }

      .cls-3 {
        stroke-miterlimit: 10;
        stroke-width: 10.403px;
      }

      .cls-5 {
        fill: #4a4a4b;
      }
    </style>
  </defs>
  <g>
    <path class="cls-5" d="M876.3185,394.2794c11.1622,43.8385-16.2281,91.7094-27.7633,90.6228-2.3088-.2175-5.3468-4.6053-11.4228-13.381-2.9231-4.2219-10.2095-14.7458-13.1761-22.1488-6.9216-17.2725,6.1395-29.943,7.4515-49.9278,2.6824-40.8603-28.1692-66.5011-22.6262-71.0213,6.4916-5.2939,55.8936,20.1278,67.5369,65.8562Z"/>
    <path class="cls-1" d="M830.1455,435.1705c-1.3924-.668,7.3683-13.2507,8.4855-33.9421,1.1949-22.1293-7.253-36.8626-5.5482-37.5322,1.803-.7081,14.0518,14.6716,14.0338,33.9421-.0201,21.4997-15.3004,38.3337-16.9711,37.5322Z"/>
    <path class="cls-4" d="M842.9896,391.6893c.3065,4.7425-.3802,9.0794-.7546,9.0761-.346-.0031-.3138-3.7159-1.1281-10.5109-.9741-8.1276-2.089-11.7453-1.7589-11.8337.4336-.1159,3.1644,5.889,3.6416,13.2685Z"/>
    <ellipse class="cls-4" cx="838.4231" cy="375.4517" rx=".4683" ry="1.9885" transform="translate(-74.5617 273.5892) rotate(-17.757)"/>
  </g>
  <g>
    <path class="cls-5" d="M570.2175,394.2794c-11.1622,43.8385,16.2281,91.7094,27.7633,90.6228,2.3088-.2175,5.3468-4.6053,11.4228-13.381,2.9231-4.2219,10.2095-14.7458,13.1761-22.1488,6.9216-17.2725-6.1395-29.943-7.4515-49.9278-2.6824-40.8603,28.1692-66.5011,22.6262-71.0213-6.4916-5.2939-55.8936,20.1278-67.5369,65.8562Z"/>
    <path class="cls-1" d="M617.1213,434.3079c1.3924-.668-7.3683-13.2507-8.4855-33.9421-1.1949-22.1293,7.253-36.8626,5.5482-37.5322-1.803-.7081-14.0518,14.6716-14.0338,33.9421.0201,21.4997,15.3004,38.3337,16.9711,37.5322Z"/>
    <path class="cls-4" d="M606.9536,403.7328c.4964-.2499-1.5732-6.4954-.6392-16.1813.9989-10.359,4.6807-16.8493,4.1663-17.2361-.544-.4091-5.5069,6.2151-6.7104,15.1909-1.3428,10.0141,2.5877,18.5263,3.1833,18.2265Z"/>
    <ellipse class="cls-4" cx="607.8075" cy="409.8954" rx=".5944" ry="2.3281" transform="translate(-51.9816 90.3292) rotate(-8.152)"/>
  </g>
  <g>
    <path class="cls-2" d="M899.0886,933.083c-.8974-1.7866,88.1914-22.898,120.1612-95.2437,24.4472-55.3225,3.1904-112.7634,5.0652-112.9764,1.9477-.2212,27.9187,61.431,3.0939,118.5246-31.9836,73.5579-127.4018,91.5241-128.3204,89.6955Z"/>
    <path class="cls-3" d="M1050.3848,721.6949l-53.6622,12.2867c-2.4505.5611-4.6073-1.7068-3.9241-4.126l14.353-50.8253c.6832-2.4192,3.7076-3.2238,5.5026-1.464l39.3092,38.5386c1.8688,1.8321.9726,5.0059-1.5785,5.59Z"/>
    <path class="cls-1" d="M1053.5767,723.8442c-.6138,1.1205-2.1636,1.2391-5.1814,1.5943-4.2371.4987-10.2253,1.3216-17.6677,2.7394.7157-.2487,1.8094-.6229,3.1498-1.0568,2.5306-.8188,4.4001-1.3292,5.5265-1.6756,5.8643-1.8034,8.8411-2.5834,9.1171-3.1161,1.1273-2.1764-2.9422-6.0019-10.2244-13.4041-9.0196-9.1681-17.4073-18.9377-26.1765-28.3454-.8569-.9189-1.3359-1.4349-1.2758-1.5006.3306-.3644,16.2608,14.3077,30.0857,27.9098,9.3147,9.1653,14.0544,14.2838,12.6466,16.8552Z"/>
    <path class="cls-1" d="M904.9009,936.5028c-.285-.6012,90.6105-18.9847,123.2323-89.2512,26.3395-56.7339,1.5253-118.9363,2.5943-119.0738,1.06-.1363,27.8019,60.6713,2.4942,118.6295-32.6309,74.7282-128.0313,90.3063-128.3208,89.6955Z"/>
  </g>
</svg>