<?xml version="1.0" encoding="UTF-8"?>
<svg id="Layer_1" data-name="Layer 1" xmlns="http://www.w3.org/2000/svg" viewBox="0 0 1621.4173 1264.252">
  <defs>
    <style>
      .cls-1 {
        stroke-miterlimit: 10;
        stroke-width: 21.2842px;
      }

      .cls-1, .cls-2, .cls-3 {
        fill: #eb2127;
      }

      .cls-1, .cls-3 {
        stroke: #eb2127;
      }

      .cls-4 {
        fill: #bd3b43;
      }

      .cls-5 {
        fill: #a91f24;
      }

      .cls-3 {
        stroke-linecap: round;
        stroke-linejoin: round;
        stroke-width: 17.9922px;
      }
    </style>
  </defs>
  <g>
    <path class="cls-2" d="M944.9449,145.4974c22.8375,89.6926-33.2022,187.6353-56.8031,185.4122-4.7238-.445-10.9394-9.4224-23.3708-27.3773-5.9806-8.6378-20.8884-30.1695-26.958-45.316-14.1614-35.3392,12.5613-61.2627,15.2456-102.1511,5.4882-83.5993-57.6335-136.0596-46.2928-145.308,13.2816-10.8312,114.357,41.181,138.179,134.7402Z"/>
    <path class="cls-5" d="M850.476,229.1597c-2.8489-1.3668,15.0753-27.1106,17.3612-69.4448,2.4448-45.2761-14.8396-75.4201-11.3515-76.7899,3.689-1.4487,28.7497,30.0178,28.7128,69.4448-.0411,43.9879-31.3043,78.4299-34.7225,76.7899Z"/>
    <path class="cls-4" d="M876.7547,140.1982c.6272,9.7031-.7778,18.5763-1.5439,18.5694-.708-.0063-.642-7.6027-2.308-21.505-1.993-16.6289-4.2741-24.0306-3.5987-24.2114.8871-.2371,6.4744,12.0487,7.4506,27.147Z"/>
    <ellipse class="cls-4" cx="867.4117" cy="106.9763" rx=".9581" ry="4.0684" transform="translate(8.6989 269.6397) rotate(-17.757)"/>
  </g>
  <g>
    <path class="cls-2" d="M318.6693,145.4974c-22.8375,89.6926,33.2022,187.6353,56.8031,185.4122,4.7238-.445,10.9394-9.4224,23.3708-27.3773,5.9806-8.6378,20.8884-30.1695,26.958-45.316,14.1614-35.3392-12.5613-61.2627-15.2456-102.1511-5.4882-83.5993,57.6335-136.0596,46.2928-145.308-13.2816-10.8312-114.357,41.181-138.179,134.7402Z"/>
    <path class="cls-5" d="M414.6335,227.3947c2.8489-1.3668-15.0753-27.1106-17.3612-69.4448-2.4448-45.2761,14.8396-75.4201,11.3515-76.7899-3.689-1.4487-28.7497,30.0178-28.7128,69.4448.0411,43.9879,31.3043,78.4299,34.7225,76.7899Z"/>
    <path class="cls-4" d="M393.8306,164.8389c1.0156-.5113-3.2187-13.2894-1.3078-33.1066,2.0437-21.1943,9.5766-34.4733,8.5242-35.2647-1.113-.837-11.267,12.716-13.7294,31.0802-2.7473,20.4886,5.2944,37.9045,6.513,37.291Z"/>
    <ellipse class="cls-4" cx="395.5776" cy="177.4473" rx="1.2162" ry="4.7633" transform="translate(-21.1649 57.8861) rotate(-8.152)"/>
  </g>
  <g>
    <path class="cls-3" d="M991.5319,1247.877c-1.836-3.6553,180.4375-46.8488,245.8471-194.8664,50.0184-113.1885,6.5276-230.7114,10.3633-231.147,3.9849-.4525,57.1211,125.6863,6.3301,242.4985-65.4377,150.4977-260.6612,187.2562-262.5406,183.5149Z"/>
    <path class="cls-1" d="M1301.0804,815.3819l-109.7916,25.1384c-5.0136,1.1479-9.4265-3.492-8.0287-8.4417l29.366-103.9875c1.3978-4.9496,7.5856-6.5959,11.2582-2.9953l80.4256,78.8491c3.8234,3.7485,1.9898,10.242-3.2295,11.437Z"/>
    <path class="cls-5" d="M1307.611,819.7793c-1.2557,2.2925-4.4267,2.5352-10.601,3.2618-8.669,1.0203-20.9207,2.704-36.1477,5.6046,1.4644-.5089,3.702-1.2744,6.4444-2.1621,5.1775-1.6752,9.0025-2.7194,11.3071-3.4283,11.9983-3.6896,18.0888-5.2856,18.6533-6.3755,2.3065-4.4528-6.0197-12.2796-20.9188-27.4245-18.4539-18.7576-35.6149-38.746-53.5565-57.9941-1.7532-1.8801-2.7332-2.9358-2.6102-3.0701.6763-.7455,33.2693,29.2732,61.5547,57.1029,19.0576,18.752,28.755,29.2242,25.8746,34.4854Z"/>
    <path class="cls-5" d="M1003.4238,1254.8739c-.5831-1.2301,185.3871-38.8422,252.1305-182.6059,53.89-116.0763,3.1207-243.3409,5.308-243.6222,2.1686-.2788,56.8821,124.1321,5.103,242.7133-66.7621,152.8922-261.949,184.7646-262.5415,183.5149Z"/>
  </g>
</svg>