<?xml version="1.0" encoding="UTF-8"?>
<svg id="Layer_1" data-name="Layer 1" xmlns="http://www.w3.org/2000/svg" viewBox="0 0 1621.4173 1264.252">
  <defs>
    <style>
      .cls-1 {
        fill: #bd3b43;
      }

      .cls-2 {
        stroke-miterlimit: 10;
        stroke-width: 10.2571px;
      }

      .cls-2, .cls-3, .cls-4 {
        fill: #eb2127;
      }

      .cls-2, .cls-4 {
        stroke: #eb2127;
      }

      .cls-5 {
        fill: #a91f24;
      }

      .cls-4 {
        stroke-linecap: round;
        stroke-linejoin: round;
        stroke-width: 8.6707px;
      }
    </style>
  </defs>
  <g>
    <path class="cls-3" d="M875.3986,397.6142c11.0057,43.2239-16.0005,90.4236-27.374,89.3522-2.2765-.2144-5.2718-4.5408-11.2627-13.1934-2.8821-4.1627-10.0663-14.539-12.9913-21.8383-6.8245-17.0304,6.0535-29.5232,7.347-49.2278,2.6448-40.2874-27.7742-65.5687-22.309-70.0256,6.4005-5.2197,55.1099,19.8456,66.59,64.9328Z"/>
    <path class="cls-5" d="M829.873,437.9319c-1.3729-.6587,7.265-13.0649,8.3666-33.4662,1.1782-21.8191-7.1513-36.3458-5.4704-37.0059,1.7778-.6981,13.8548,14.4659,13.837,33.4662-.0198,21.1983-15.0859,37.7962-16.7332,37.0059Z"/>
    <path class="cls-1" d="M842.537,395.0604c.3023,4.676-.3748,8.9521-.744,8.9488-.3412-.003-.3094-3.6638-1.1123-10.3635-.9605-8.0137-2.0597-11.5806-1.7343-11.6677.4275-.1143,3.1201,5.8064,3.5905,13.0825Z"/>
    <ellipse class="cls-1" cx="838.0345" cy="379.0504" rx=".4617" ry="1.9606" transform="translate(-75.6778 273.6421) rotate(-17.757)"/>
  </g>
  <g>
    <path class="cls-3" d="M573.5893,397.6142c-11.0057,43.2239,16.0005,90.4236,27.374,89.3522,2.2765-.2144,5.2718-4.5408,11.2627-13.1934,2.8821-4.1627,10.0663-14.539,12.9913-21.8383,6.8245-17.0304-6.0535-29.5232-7.347-49.2278-2.6448-40.2874,27.7742-65.5687,22.309-70.0256-6.4005-5.2197-55.1099,19.8456-66.59,64.9328Z"/>
    <path class="cls-5" d="M619.8355,437.0814c1.3729-.6587-7.265-13.0649-8.3666-33.4662-1.1782-21.8191,7.1513-36.3458,5.4704-37.0059-1.7778-.6981-13.8548,14.4659-13.837,33.4662.0198,21.1983,15.0859,37.7962,16.7332,37.0059Z"/>
    <path class="cls-1" d="M609.8104,406.935c.4894-.2464-1.5511-6.4043-.6302-15.9544.9849-10.2138,4.6151-16.6131,4.1079-16.9944-.5364-.4033-5.4297,6.128-6.6164,14.9779-1.3239,9.8737,2.5515,18.2666,3.1387,17.971Z"/>
    <ellipse class="cls-1" cx="610.6523" cy="413.0111" rx=".5861" ry="2.2955" transform="translate(-52.3946 90.764) rotate(-8.152)"/>
  </g>
  <g>
    <path class="cls-4" d="M897.8494,928.8634c-.8848-1.7615,86.9549-22.577,118.4765-93.9083,24.1045-54.5468,3.1457-111.1824,4.9942-111.3924,1.9204-.2181,27.5273,60.5697,3.0506,116.8628-31.5352,72.5265-125.6156,90.2409-126.5213,88.4379Z"/>
    <path class="cls-2" d="M1047.0244,720.4391l-52.9098,12.1145c-2.4161.5532-4.5427-1.6828-3.8691-4.0682l14.1518-50.1127c.6736-2.3853,3.6556-3.1786,5.4254-1.4435l38.758,37.9983c1.8426,1.8064.9589,4.9357-1.5563,5.5116Z"/>
    <path class="cls-5" d="M1050.1716,722.5583c-.6051,1.1048-2.1333,1.2217-5.1087,1.5719-4.1777.4917-10.0819,1.3031-17.42,2.7009.7057-.2452,1.784-.6141,3.1056-1.0419,2.4951-.8073,4.3384-1.3105,5.449-1.6521,5.7821-1.7781,8.7172-2.5472,8.9892-3.0724,1.1115-2.1459-2.9009-5.9177-10.081-13.2162-8.8932-9.0395-17.1632-18.6722-25.8095-27.948-.8449-.906-1.3171-1.4148-1.2579-1.4795.3259-.3593,16.0328,14.1071,29.6639,27.5185,9.1841,9.0368,13.8574,14.0835,12.4693,16.6189Z"/>
    <path class="cls-5" d="M903.5803,932.2353c-.281-.5928,89.3401-18.7185,121.5046-87.9999,25.9702-55.9385,1.5039-117.2688,2.558-117.4043,1.0451-.1343,27.4121,59.8207,2.4592,116.9663-32.1734,73.6805-126.2362,89.0401-126.5217,88.4379Z"/>
  </g>
</svg>