<?xml version="1.0" encoding="UTF-8"?>
<svg id="Layer_1" data-name="Layer 1" xmlns="http://www.w3.org/2000/svg" viewBox="0 0 1621.4173 1264.252">
  <defs>
    <style>
      .cls-1 {
        stroke-width: .1346px;
      }

      .cls-1, .cls-2, .cls-3, .cls-4, .cls-5, .cls-6 {
        stroke: #231f20;
        stroke-miterlimit: 10;
      }

      .cls-1, .cls-5, .cls-6 {
        fill: #ebaacc;
      }

      .cls-2 {
        stroke-width: .0458px;
      }

      .cls-2, .cls-3, .cls-4 {
        fill: #df82b5;
      }

      .cls-3 {
        stroke-width: .0497px;
      }

      .cls-4 {
        stroke-width: .1176px;
      }

      .cls-5 {
        stroke-width: .1067px;
      }

      .cls-7 {
        fill: #a8469a;
      }

      .cls-6 {
        stroke-width: .0833px;
      }

      .cls-8 {
        fill: #fbbd7c;
      }

      .cls-9 {
        fill: #d78763;
      }
    </style>
  </defs>
  <path class="cls-7" d="M802.1158,555.5974c-11.351,23.3869-22.702,46.7738-34.053,70.1607-18.6651,38.4564-37.3302,76.9128-55.9953,115.3692-.1097.226-1.5143,3.2699.6735,6.1004,1.3208,1.7087,3.5702,2.8759,6.2455,2.8512,27.2193-4.3808,60.3667-7.8217,98.1172-7.7767,32.3032.0384,61.0621,2.621,85.3984,6.078.2823-.0026,4.0566-.0957,6.1917-2.9663,1.2889-1.7329,1.6393-3.99.5605-6.1118l-93.4673-183.8312c-2.6329-5.1783-11.1347-5.0996-13.6712.1266Z"/>
  <path class="cls-8" d="M824.5535,522.0123l-2.564,15.9296,14.3576,7.3611c5.8136,2.9806,4.4167,11.6593-2.0386,12.6651l-15.9423,2.484-2.564,15.9296c-1.0382,6.4502-9.7238,7.8035-12.6751,1.9749l-7.2888-14.3944-15.9423,2.484c-6.4553,1.0058-10.4263-6.8364-5.7951-11.4445l11.4375-11.3802-7.2888-14.3944c-2.9514-5.8285,3.2799-12.0286,9.0936-9.048l14.3576,7.3611,11.4375-11.3802c4.6312-4.608,12.4534-.5976,11.4152,5.8525Z"/>
  <polygon class="cls-5" points="817.8953 610.2546 824.401 629.2917 844.8818 629.1021 828.4217 641.0572 834.9274 660.0943 818.2488 648.4459 801.7888 660.401 807.9409 641.2468 791.2624 629.5984 811.7432 629.4088 817.8953 610.2546"/>
  <polygon class="cls-4" points="736.8398 710.6704 748.7374 709.4153 750.9245 696.5468 756.0906 708.6395 767.9882 707.3843 759.2833 716.1132 764.4494 728.206 753.9035 721.508 745.1986 730.2369 747.3857 717.3684 736.8398 710.6704"/>
  <polygon class="cls-2" points="797.178 595.3483 799.9594 603.5583 808.7134 603.4773 801.6784 608.6324 804.4597 616.8424 797.3305 611.8184 790.2954 616.9735 792.9244 608.7134 785.7951 603.6894 794.5491 603.6084 797.178 595.3483"/>
  <polygon class="cls-1" points="885.4456 716.3242 887.6228 723.0809 894.4652 723.0175 888.9683 727.2567 891.1455 734.0133 885.571 729.8766 880.0741 734.1158 882.1258 727.32 876.5514 723.1833 883.3939 723.12 885.4456 716.3242"/>
  <polygon class="cls-3" points="824.827 666.6087 817.7288 672.972 821.8926 681.2031 813.3418 676.9047 806.2435 683.268 808.0571 674.2482 799.5063 669.9498 809.178 668.6736 810.9915 659.6538 815.1554 667.8849 824.827 666.6087"/>
  <path class="cls-9" d="M818.0906,532.0984l-1.6376,10.1742,9.1701,4.7015c3.7131,1.9037,2.8209,7.4467-1.302,8.0891l-10.1823,1.5865-1.6376,10.1742c-.6631,4.1197-6.2105,4.984-8.0955,1.2614l-4.6553-9.1936-10.1823,1.5865c-4.123.6424-6.6592-4.3664-3.7013-7.3095l7.3051-7.2685-4.6553-9.1936c-1.885-3.7227,2.0949-7.6826,5.808-5.7789l9.1701,4.7015,7.3051-7.2685c2.958-2.9431,7.954-.3817,7.2908,3.738Z"/>
  <polygon class="cls-5" points="821.716 690.2728 840.3429 697.8736 853.6542 682.3073 851.855 702.5711 870.4819 710.1719 850.743 715.0949 848.9437 735.3587 838.5437 718.1374 818.8048 723.0604 832.1161 707.4941 821.716 690.2728"/>
  <polygon class="cls-6" points="766.7362 671.9774 779.658 681.2501 792.2927 671.8856 787.6442 686.9809 800.566 696.2536 784.7712 696.3103 780.1227 711.4057 775.0095 696.3454 759.2148 696.4021 771.8494 687.0377 766.7362 671.9774"/>
</svg>