<?xml version="1.0" encoding="UTF-8"?>
<svg id="Layer_1" data-name="Layer 1" xmlns="http://www.w3.org/2000/svg" viewBox="0 0 1621.4173 1264.252">
  <defs>
    <style>
      .cls-1 {
        fill: #be8f8f;
      }

      .cls-2 {
        fill: #e8b1a9;
      }

      .cls-3 {
        stroke-width: 1.6492px;
      }

      .cls-3, .cls-4, .cls-5, .cls-6 {
        fill: none;
      }

      .cls-3, .cls-5, .cls-6 {
        stroke: #414142;
        stroke-linecap: round;
        stroke-linejoin: round;
      }

      .cls-7 {
        fill: #d0adaa;
      }

      .cls-8 {
        fill: #ab8689;
      }

      .cls-9 {
        fill: #595b5b;
      }

      .cls-10 {
        fill: #bca5a5;
      }

      .cls-11 {
        fill: #6e6f6f;
      }

      .cls-12 {
        fill: #575858;
      }

      .cls-13 {
        fill: #fff;
      }

      .cls-4 {
        stroke: #66686c;
        stroke-miterlimit: 10;
        stroke-width: 4.8506px;
      }

      .cls-5 {
        stroke-width: 2.4253px;
      }

      .cls-14 {
        fill: #777677;
      }

      .cls-15 {
        fill: #616366;
      }

      .cls-16 {
        fill: #e0a4a0;
      }

      .cls-17 {
        fill: #282a29;
      }

      .cls-18 {
        fill: #404143;
      }

      .cls-19 {
        fill: #e6b5b4;
      }

      .cls-6 {
        stroke-width: 1.9888px;
      }
    </style>
  </defs>
  <path class="cls-15" d="M871.8987,518.7131c-1.4635-38.4131,32.0733-67.9468,66.087-64.7351,32.2855,3.0485,58.8083,35.0146,53.296,70.9998-.4209,10.3514.1901,25.9478,6.3955,43.1566,14.5318,40.299,45.4152,49.7063,54.7172,84.9214,2.9641,11.2215,4.5732,28.2293-3.5531,51.5096-.0796,19.1367-11.5726,36.4094-29.1351,43.8532-16.0925,6.8212-34.9166,4.3885-49.0323-6.2649-27.7139,1.3924-55.4277,2.7844-83.1417,4.1765-3.053,1.7624-29.7042,16.6578-50.6131,4.7787-15.6694-8.9025-18.9255-27.6217-22.58-48.6313-2.2599-12.9923-8.1775-41.7556,4.9743-73.7845,10.0752-24.5365,25.4227-35.3418,40.1428-70.2561,6.9535-16.4929,10.5405-30.7126,12.4425-39.7238Z"/>
  <path class="cls-17" d="M894.6312,507.3758c2.0702.7034,3.5953-4.0637,12.5545-10.0435,2.9346-1.9587,4.3257-2.4848,4.337-3.6522.03-3.1003-9.6978-8.3252-15.522-4.7938-6.6798,4.0501-4.5705,17.4021-1.3696,18.4895Z"/>
  <path class="cls-17" d="M967.6759,508.2888c-2.0702.7034-3.5953-4.0637-12.5545-10.0435-2.9346-1.9587-4.3257-2.4848-4.337-3.6522-.03-3.1003,9.6978-8.3252,15.522-4.7938,6.6798,4.0501,4.5705,17.4021,1.3696,18.4895Z"/>
  <path class="cls-13" d="M965.6215,495.3919c.9352,2.1328.0887,4.1368.4313,4.223.3428.0862,1.6687-1.7994,1.2808-3.6522-.5775-2.7578-4.6179-3.8431-4.7365-3.6522-.0883.1421,2.0629.8885,3.0245,3.0814Z"/>
  <ellipse class="cls-13" cx="959.7643" cy="494.576" rx=".945" ry="1.7939" transform="translate(72.6638 1110.0479) rotate(-62.0155)"/>
  <path class="cls-13" d="M896.7393,494.2516c-.9352,2.1328-.0887,4.1368-.4313,4.223-.3428.0862-1.6687-1.7994-1.2808-3.6522.5775-2.7578,4.6179-3.8431,4.7365-3.6522.0883.1421-2.0629.8885-3.0245,3.0814Z"/>
  <ellipse class="cls-13" cx="902.5965" cy="493.4357" rx="1.7939" ry=".945" transform="translate(-125.9997 481.2233) rotate(-27.9845)"/>
  <path class="cls-2" d="M931.5992,525.8137c3.0278-5.9585,8.4526-8.4928,11.9839-7.0761,2.881,1.1558,4.2495,4.84,4.2229,7.6469-.0641,6.7753-8.305,13.5628-16.5492,13.3535-6.036-.1534-12.2448-4.0616-14.1524-9.7013-.9436-2.7898-1.4406-7.7938,1.3696-9.8156,3.1359-2.256,8.2991.6869,8.7882,1.0273,2.1401,1.4898,4.3371,4.5649,4.337,4.5652Z"/>
  <path class="cls-13" d="M923.5529,559.3686c-.1723-2.6258.9227-5.4682,3.0878-7.1868.6465-.5131,1.6883-1.34,3.1894-1.3731,1.5595-.0343,2.6937.8085,3.2254,1.2153,3.0673,2.3472,3.0614,6.7425,3.0519,7.3446-.0679,4.305-2.8102,8.2645-4.0307,7.9957-.9418-.2075-.9431-2.9248-1.6366-2.9301-.7247-.0056-.7086,2.9615-1.8832,3.2528-1.3412.3328-3.5831-2.9846-4.5368-6.0775-.214-.694-.4079-1.3376-.4672-2.2409Z"/>
  <path class="cls-4" d="M990.3911,518.764c21.6434-9.3703,35.626-25.1961,31.2309-35.348-4.3951-10.1516-25.5035-10.7851-47.147-1.4149"/>
  <path class="cls-8" d="M990.1014,515.7243c1.4544.8953,4.0851,1.0525,10.1007-2.568,11.0349-6.6412,26.4085-21.75,22.0846-29.9597-3.1148-5.9141-15.6847-6.7922-16.3053-6.8298-1.3814-.0838-2.5617-.013-4.922.1282-8.4678.5066-14.1046,2.303-16.6647,3.2205-3.4808,1.2476-5.2213,1.8714-5.7066,2.7394-2.3934,4.2813,6.4357,9.3072,8.9023,21.4569,1.2979,6.3934-.089,10.2123,2.511,11.8125Z"/>
  <path class="cls-10" d="M1005.5851,501.91c.1086.2706,2.6558.2262,5.2493-1.3346,5.7347-3.4514,13.7243-11.3033,11.4772-15.5698-1.6187-3.0735-8.1512-3.5298-8.4737-3.5494-.7179-.0435-1.3313-.0068-2.5579.0666-4.4007.2633-7.33,1.1969-8.6605,1.6737-1.7348.6217-3.0191,1.0764-2.9657,1.4237.1717,1.1169,13.6485-2.3417,16.546,2.3768,1.6418,2.6736-.7747,6.8954-1.1566,7.5625-3.0854,5.3903-9.6408,6.8949-9.458,7.3505Z"/>
  <ellipse class="cls-10" cx="991.3012" cy="486.0252" rx="4.4512" ry="1.1984"/>
  <path class="cls-4" d="M872.0878,513.9082c-21.6435-9.3703-35.626-25.1961-31.2309-35.3479,4.3951-10.1518,25.5036-10.7854,47.147-1.4151"/>
  <path class="cls-8" d="M872.3467,511.5908c-.3548.2662-2.2146,1.4762-8.1583-2.2347-8.0305-5.0138-26.7786-21.0472-22.0846-29.9597,3.1148-5.9141,15.6847-6.7922,16.3053-6.8298,1.3814-.0838,2.5617-.013,4.922.1282,8.4678.5066,14.1046,2.303,16.6647,3.2205,3.5193,1.2612,5.2905,1.859,5.7066,2.7394,2.0316,4.2988-7.9022,10.2262-10.0458,20.1533-.6194,2.8682-1.6222,5.6577-2.0544,8.56-.3497,2.348-.3534,3.5462-1.2554,4.2227Z"/>
  <path class="cls-10" d="M861.2594,497.6534c-.1086.2706-2.6558.2262-5.2493-1.3346-5.7347-3.4514-13.7243-11.3033-11.4772-15.5698,1.6187-3.0735,8.1512-3.5298,8.4737-3.5494.7179-.0435,1.3313-.0068,2.5579.0666,4.4007.2633,7.33,1.1969,8.6605,1.6737,1.7348.6217,3.0191,1.0764,2.9657,1.4237-.1717,1.1169-13.6485-2.3417-16.546,2.3768-1.6418,2.6736.7747,6.8954,1.1566,7.5625,3.0854,5.3903,9.6408,6.8949,9.458,7.3505Z"/>
  <ellipse class="cls-10" cx="875.5433" cy="481.7686" rx="4.4512" ry="1.1984"/>
  <ellipse class="cls-14" cx="973.8104" cy="532.6483" rx="7.6094" ry="13.9785"/>
  <ellipse class="cls-14" cx="891.2446" cy="527.669" rx="7.6094" ry="13.9785"/>
  <path class="cls-5" d="M845.0153,517.5451c4.8219-1.1158,17.6357-3.3831,31.5006,2.7391,7.3458,3.2436,12.4298,7.7132,15.522,10.9569"/>
  <path class="cls-6" d="M852.2093,528.3161c3.6753-1.7277,13.5628-5.7591,25.742-3.2421,6.4527,1.3335,11.3028,4.041,14.3434,6.109"/>
  <path class="cls-3" d="M861.2179,543.8573c2.1278-2.6093,8.073-9.1678,18.0792-11.6533,5.3014-1.3169,9.8976-1.0321,12.9118-.5765"/>
  <path class="cls-16" d="M814.6302,704.3044c-50.4099,36.9461-90.6176,45.9668-118.6815,47.0062-4.7943.1776-23.397,2.7391-49.3052,2.7391-.0005,0-56.5626,4.5759-77.1536,25.1088-1.1869,1.1836-3.9853,3.9743-3.1957,5.9354.9829,2.4419,6.8237,1.8527,6.8367,1.8385.0001,0,.0111-.0124.0111-.0124,15.5009-5.425,39.2487-12.5961,68.9362-16.892,44.7421-6.4742,69.9292-3.1394,98.1538-7.7609,20.6793-3.386,49.5245-12.1609,82.53-36.6486-1.799-2.8676-3.7849-6.5829-5.4337-11.1158-1.3765-3.7845-2.1981-7.2594-2.6982-10.1984Z"/>
  <path class="cls-11" d="M965.8432,475.8804c-1.9265,1.9208-10.0088-8.3803-25.5085-12.3261-15.5387-3.9556-28.9149.924-29.3592-1.1188-.3514-1.6156,7.9991-4.739,8.8154-5.0443,4.6751-1.7485,8.6856-2.2281,10.9567-2.3969,5.3687-.3988,17.2646-1.2822,26.5358,6.3342,6.1574,5.0585,10.1102,13.0062,8.5599,14.5519Z"/>
  <ellipse class="cls-11" cx="904.6755" cy="465.8871" rx="4.1944" ry="2.2256" transform="translate(-111.74 514.7548) rotate(-30)"/>
  <path class="cls-11" d="M936.0262,505.5263c-2.59,5.7296-1.4098,11.8927-3.9376,12.4976-.8168.1954-1.5751-.3088-1.8832-.5137-2.8775-1.9137-.3819-6.9757-2.0544-11.9839-2.2583-6.762-10.0374-7.2653-9.5871-10.6712.4093-3.0959,7.2634-5.9085,10.6143-3.8807,2.5921,1.5685,2.3418,5.5825,3.9947,5.7068,1.5487.1166,1.8975-3.3973,4.7936-4.9078,3.1914-1.6647,8.317-.2916,8.9023,1.8261.7789,2.8182-7.2843,4.0551-10.8425,11.9267Z"/>
  <path class="cls-18" d="M977.2565,489.1341c-.0366.1782-6.2209-1.3533-13.0851-.6197-.8075.0864-1.4088.1809-1.8404.2567-1.5664.275-4.9525.8997-8.2307,2.9526-2.2794,1.4276-3.4173,2.8635-3.5448,2.7391-.1494-.1457,1.2796-2.248,3.1903-3.8349,3.6303-3.0154,7.9963-3.3378,10.7563-3.5056,7.2625-.4417,12.7895,1.8403,12.7543,2.0117Z"/>
  <path class="cls-18" d="M973.6514,494.5333c-.1303.1495-2.1777-3.333-5.9851-4.9868-.4479-.1942-.8005-.3118-1.0586-.3887-.3955-.1178-.9884-.2887-1.7592-.3899-.2887-.0379-1.7856-.2229-4.1132.2913-1.4069.3109-5.4738,1.8036-4.1124,1.3317h0c-1.5139.8698,2.9856-1.8628,4.6307-2.4475,1.1737-.4171,2.5467-.8985,4.2983-.6735,1.3498.1735,2.3774.7058,3.1533,1.1232,3.8172,2.0538,5.0713,5.9964,4.946,6.1403Z"/>
  <path class="cls-18" d="M884.9195,488.037c.0366.1782,6.2209-1.3533,13.0851-.6197.8075.0864,1.4088.1809,1.8404.2567,1.5664.275,4.9525.8997,8.2307,2.9526,2.2794,1.4276,3.4173,2.8635,3.5448,2.7391.1494-.1457-1.2796-2.248-3.1903-3.8349-3.6303-3.0154-7.9963-3.3378-10.7563-3.5056-7.2625-.4417-12.7895,1.8403-12.7543,2.0117Z"/>
  <path class="cls-18" d="M888.5246,493.4362c.1303.1495,2.1777-3.333,5.9851-4.9868.4479-.1942.8005-.3118,1.0586-.3887.3955-.1178.9884-.2887,1.7592-.3899.2887-.0379,1.7856-.2229,4.1132.2913,1.4069.3109,5.4738,1.8036,4.1124,1.3317h0c1.5139.8698-2.9856-1.8628-4.6307-2.4475-1.1737-.4171-2.5467-.8985-4.2983-.6735-1.3498.1735-2.3774.7058-3.1533,1.1232-3.8172,2.0538-5.0713,5.9964-4.946,6.1403Z"/>
  <path class="cls-18" d="M935.3531,555.0636c.5248-.6131-1.84-6.9241-5.8489-6.7433-3.9588.1785-5.9227,6.5255-5.3226,7.1511.4728.4931,2.457-2.6492,5.8308-2.6449,3.1133.004,4.9577,2.6846,5.3407,2.2371Z"/>
  <ellipse class="cls-19" cx="679.2978" cy="759.6871" rx="28.419" ry="3.424" transform="translate(-59.9591 58.2107) rotate(-4.6997)"/>
  <path class="cls-1" d="M801.7456,713.2975c4.2949-2.9976,8.5898-5.9955,12.8847-8.9931,1.148,4.3269,2.6934,9.0787,4.7936,14.0954,1.0769,2.5725,2.2011,4.9791,3.3384,7.2188,0,0-22.1787-2.791-21.7407-11.8619"/>
  <path class="cls-1" d="M1014.6373,750.3147c13.3156,14.6088,26.6309,29.2181,39.9464,43.8268.5785.7378.8541,1.5952.5563,2.0683-.3846.6111-1.8391.7644-3.2954-.2422-4.4131-2.8155-8.8264-5.6305-13.2395-8.446-1.027-.678-1.9063-.8746-2.4253-.9415-.4112-.0527-.6288-.0278-.813.0853-.7159.4405-.4305,1.9173-.4139,1.9978,2.4348,3.728,4.8696,7.4565,7.3044,11.1845.3203.4607.9512,1.5194.7706,2.7824-.045.3138-.0894.5998-.2996.813-.5465.5548-1.912.3126-3.4384-.6276-3.3478-4.1851-6.6957-8.3696-10.0435-12.5547-.9382-1.562-2.8392-1.8989-3.8947-1.1126-.7588.5655-1.0777,1.7089-.7706,2.8244,2.0878,3.9944,4.1753,7.9895,6.2631,11.9839.7612.7165.6534,1.835.0714,2.2684-.4654.3464-1.2716.2836-1.8403-.2564-2.4253-3.966-4.8506-7.9326-7.276-11.8986-.119-.1676-.3011-.3991-.5566-.6419-.3209-.3049-.9652-.916-1.6263-.9415-.776-.0296-1.5969.7478-2.0117,1.8829-.2258.929-.4454,2.3842-.1434,4.1037.1418.8076.3681,1.4989.6,2.0597.4169,1.7097.3003,3.034-.1434,3.1903-.4346.1534-1.3201-.7653-2.0544-2.2255-.7891-1.6911-1.5783-3.3825-2.3675-5.0736,0,0-30.0986-41.5555-36.0275-49.2643-.4995-.649-.8272-1.0581-.9512-1.1825,5.7305,2.2033,13.8434,4.5475,23.7395,5.0218,5.4436.2605,10.2978-.0983,14.3805-.6845Z"/>
  <path class="cls-1" d="M843.6724,753.8689c-12.4295,12.9588-39.2138,40.9933-41.2936,44.3458-.2475.3988-.9115,1.504-.5563,2.0683.3846.6111,1.8391.7644,3.2954-.2422,4.4131-2.8155,8.8264-5.6305,13.2395-8.446,1.027-.678,1.9063-.8746,2.4253-.9415.4112-.0527.6288-.0278.813.0853.7159.4405.4305,1.9173.4139,1.9978-2.4348,3.728-4.8696,7.4565-7.3044,11.1845-.3203.4607-.9512,1.5194-.7706,2.7824.045.3138.0894.5998.2996.813.5465.5548,1.912.3126,3.4384-.6276,3.3478-4.1851,6.6957-8.3696,10.0435-12.5547.9382-1.562,2.8392-1.8989,3.8947-1.1126.7588.5655,1.0777,1.7089.7706,2.8244-2.0878,3.9944-4.1753,7.9895-6.2631,11.9839-.7612.7165-.6534,1.835-.0714,2.2684.4654.3464,1.2716.2836,1.8403-.2564,2.4253-3.966,4.8506-7.9326,7.276-11.8986.119-.1676.3011-.3991.5566-.6419.3209-.3049.9652-.916,1.6263-.9415.776-.0296,1.5969.7478,2.0117,1.8829.2258.929.4454,2.3842.1434,4.1037-.1418.8076-.3681,1.4989-.6,2.0597-.4169,1.7097-.3003,3.034.1434,3.1903.4346.1534,1.3201-.7653,2.0544-2.2255.7891-1.6911,1.5783-3.3825,2.3675-5.0736,0,0,30.0986-41.5555,36.0275-49.2643.4995-.649.8272-1.0581.9512-1.1825-5.3351,2.2512-13.5389,4.8844-23.7395,5.0218-4.9887.0672-9.3903-.4767-13.0333-1.2035Z"/>
  <path class="cls-14" d="M835.9114,716.4334c7.9369,13.7987,26.7577,15.1576,26.0222,19.5168-.3913,2.319-5.9661,3.4044-9.5871,3.4239-11.0686.0598-21.3929-9.7424-24.5147-20.4944-3.5339-12.1713,2.4589-24.5365,4.239-24.3239,1.6837.201-2.1601,11.4451,3.8406,21.8776Z"/>
  <ellipse class="cls-14" cx="872.7191" cy="740.7437" rx="5.3072" ry="4.1088"/>
  <path class="cls-14" d="M991.2361,553.1102c1.071,24.1425,5.6788,35.8229,5.6791,35.8238,6.0685,18.2056,22.2272,23.6608,31.9817,33.4402,19.7685,19.8191,15.3314,50.2534,14.7355,54.3414-.6214,4.2624-2.2238,15.2536-8.6741,17.3479-3.2544,1.0566-7.2227-.32-9.5871-2.2826-12.8678-10.68,14.345-44.8645,1.0959-66.0428-8.969-14.3367-27.3781-8.0368-37.5693-22.798-9.5504-13.8331-4.0321-34.342,2.3384-49.8297Z"/>
  <path class="cls-12" d="M988.9629,549.3437c1.3594,1.4847-19.909,39.7634-54.4411,41.0877-39.2856,1.5066-63.8701-46.0375-63.0011-46.9085.805-.8068,24.4547,37.4257,59.2347,38.006,33.2587.5551,56.865-33.6516,58.2075-32.1852Z"/>
  <ellipse class="cls-12" cx="863.8803" cy="584.7818" rx="5.2436" ry="7.0191"/>
  <ellipse class="cls-12" cx="857.8248" cy="596.5945" rx="3.7664" ry="3.0816"/>
  <ellipse class="cls-12" cx="1010.5339" cy="736.2925" rx="7.0191" ry="5.2436" transform="translate(-217.0917 499.1411) rotate(-25.1441)"/>
  <ellipse class="cls-12" cx="997.2676" cy="735.83" rx="3.0816" ry="3.7664" transform="translate(-218.1523 493.4604) rotate(-25.1441)"/>
  <path class="cls-7" d="M901.6945,665.8872c-.0226.1451,3.7003.72,3.7007.72,7.2203,1.115,10.6053,1.1333,10.9795,2.5754.1104.4254-.0838.8103-.1284.8988-1.5838,3.1409-14.8004-.4355-14.8515-.1711-.022.114,1.5831.4707,1.5836.4707,6.6724,1.4824,9.5313,1.2734,10.2719,2.9103.2709.5989.2301,1.3752-.1284,1.8406-.7213.9364-2.5996.5972-3.1244.5134-4.2177-.6735-9.1129,1.0762-15.308.7849-9.209-.4328-29.7739-5.7758-29.6744-11.3562.0887-4.9741,17.9489-8.5774,29.2179-9.2447,11.9312-.7064,23.667,1.4528,24.611,4.7091.061.2105.2376.8195-.0644,1.289h0c.0024.1152-.0107.2827-.0966.4509-.6496,1.2707-4.3865.4657-7.7341-.0642-6.0907-.964-10.4081-.9406-10.4089-.9347-.0007.005,3.2235.4077,17.1763,2.1269.0937.0234.6589.1738.9667.7413.2647.4879.1805.9918.0645,1.289-.0002.0006-.1373.3517-.4466.6217-1.218,1.0631-16.597-.2306-16.6062-.1711Z"/>
  <path class="cls-7" d="M953.5558,666.1803c.0226.1451-3.7003.72-3.7007.72-7.2203,1.115-10.6053,1.1333-10.9795,2.5754-.1104.4254.0838.8103.1284.8988,1.5838,3.1409,14.8004-.4355,14.8515-.1711.022.114-1.5831.4707-1.5836.4707-6.6724,1.4824-9.5313,1.2734-10.2719,2.9103-.2709.5989-.2301,1.3752.1284,1.8406.7213.9364,2.5996.5972,3.1244.5134,4.2177-.6735,9.1129,1.0762,15.308.7849,9.209-.4328,29.7739-5.7758,29.6744-11.3562-.0887-4.9741-17.9489-8.5774-29.2179-9.2447-11.9312-.7064-23.667,1.4528-24.611,4.7091-.061.2105-.2376.8195.0644,1.289h0c-.0024.1152.0107.2827.0966.4509.6496,1.2707,4.3865.4657,7.7341-.0642,6.0907-.964,10.4081-.9406,10.4089-.9347.0007.005-3.2235.4077-17.1763,2.1269-.0937.0234-.6589.1738-.9667.7413-.2647.4879-.1805.9918-.0645,1.289.0002.0006.1373.3517.4466.6217,1.218,1.0631,16.597-.2306,16.6062-.1711Z"/>
  <path class="cls-15" d="M981.1448,655.4298h0s-4.5708,4.9184-4.5082,8.1034c.0471,2.3951,2.7486,5.5789,13.8671,9.2447-.0837.061-.2645.177-.3995.114-.1689-.0788-.1705-.3926-.1712-.5137-.004-.7339,4.275-3.6353,6.7338-5.25-3.0816-5.7637-6.1631-11.5274-9.2447-17.291-2.0924,1.8643-4.1849,3.7283-6.2773,5.5926Z"/>
  <path class="cls-15" d="M874.3191,658.0804s4.5708,4.9184,4.5082,8.1034c-.0471,2.3951-2.7486,5.5789-13.8671,9.2447.0837.061.2645.177.3995.114.1689-.0788.1705-.3926.1712-.5137.004-.7339-4.275-3.6353-6.7338-5.25,3.0816-5.7637,6.1631-11.5274,9.2447-17.291,2.0924,1.8643,4.1849,3.7283,6.2773,5.5926Z"/>
  <path class="cls-9" d="M864.416,673.6765c-.1212-.3727,10.3117-1.9608,11.8127-7.9178.875-3.4725-1.7035-6.7694-1.2974-6.9716.479-.2383,4.7005,4.0329,3.9315,8.0567-1.2318,6.4464-14.3131,7.2443-14.4468,6.8328Z"/>
  <path class="cls-9" d="M990.7061,671.4761c.1212-.3727-10.3117-1.9608-11.8127-7.9178-.875-3.4725,1.7035-6.7694,1.2974-6.9716-.479-.2383-4.7005,4.0329-3.9315,8.0567,1.2318,6.4464,14.3131,7.2443,14.4468,6.8328Z"/>
  <path class="cls-9" d="M1012.2803,661.0213c-.1903-.1753-3.7107,5.7416-10.6373,7.466-3.5061.8729-6.5385.3365-6.5476.5392-.01.2214,3.5858,1.2449,7.3038.38,6.5984-1.5349,10.0787-8.2029,9.8812-8.3851Z"/>
  <path class="cls-9" d="M838.4204,665.089c.1773-.1885,4.111,5.4621,11.143,6.6879,3.5595.6205,6.5459-.131,6.5694.0705.0258.2202-3.4878,1.4976-7.258.9002-6.6911-1.0601-10.6384-7.4627-10.4544-7.6586Z"/>
</svg>