<?xml version="1.0" encoding="UTF-8"?>
<svg id="Layer_1" data-name="Layer 1" xmlns="http://www.w3.org/2000/svg" viewBox="0 0 1621.4173 1264.252">
  <defs>
    <style>
      .cls-1 {
        fill: #be8f8f;
      }

      .cls-2 {
        fill: #e8b1a9;
      }

      .cls-3 {
        fill: #d0adaa;
      }

      .cls-4 {
        fill: #ab8689;
      }

      .cls-5 {
        fill: #595b5b;
      }

      .cls-6 {
        fill: #bca5a5;
      }

      .cls-7 {
        fill: #6e6f6f;
      }

      .cls-8 {
        fill: #575858;
      }

      .cls-9 {
        fill: #fff;
      }

      .cls-10 {
        stroke: #66686c;
        stroke-miterlimit: 10;
        stroke-width: 15.489px;
      }

      .cls-10, .cls-11, .cls-12, .cls-13 {
        fill: none;
      }

      .cls-11 {
        stroke-width: 5.2663px;
      }

      .cls-11, .cls-12, .cls-13 {
        stroke: #414142;
        stroke-linecap: round;
        stroke-linejoin: round;
      }

      .cls-12 {
        stroke-width: 7.7445px;
      }

      .cls-13 {
        stroke-width: 6.3505px;
      }

      .cls-14 {
        fill: #777677;
      }

      .cls-15 {
        fill: #616366;
      }

      .cls-16 {
        fill: #e0a4a0;
      }

      .cls-17 {
        fill: #282a29;
      }

      .cls-18 {
        fill: #404143;
      }

      .cls-19 {
        fill: #e6b5b4;
      }
    </style>
  </defs>
  <path class="cls-15" d="M1006.0999,269.9777c-4.6731-122.6602,102.4161-216.9667,211.028-206.7113,103.0934,9.7345,187.7857,111.8082,170.184,226.7154-1.344,33.054.607,82.8562,20.422,137.8069,46.4028,128.6822,145.019,158.7214,174.7222,271.1696,9.4648,35.8324,14.6029,90.1412-11.3456,164.4796-.2541,61.107-36.9534,116.2619-93.0338,140.0314-51.3862,21.7814-111.4953,14.0133-156.5692-20.005-88.4957,4.4461-176.991,8.8912-265.4867,13.3364-9.7489,5.6278-94.851,53.1914-161.617,15.2593-50.0354-28.4273-60.4327-88.2013-72.1022-155.2887-7.2164-41.4867-26.1122-133.3334,15.8838-235.6075,32.172-78.3496,81.1793-112.8529,128.1835-224.3406,22.204-52.6648,33.6578-98.071,39.7313-126.8453Z"/>
  <path class="cls-17" d="M1078.6889,233.7754c6.6105,2.2462,11.4804-12.9762,40.089-32.0708,9.3708-6.2546,13.8128-7.9345,13.849-11.6621.0957-9.8999-30.9668-26.5839-49.5647-15.3075-21.3297,12.9327-14.5944,55.568-4.3733,59.0404Z"/>
  <path class="cls-17" d="M1311.9341,236.691c-6.6105,2.2462-11.4804-12.9762-40.089-32.0708-9.3708-6.2546-13.8128-7.9345-13.849-11.6621-.0957-9.8999,30.9668-26.5839,49.5647-15.3075,21.3297,12.9327,14.5944,55.568,4.3733,59.0404Z"/>
  <path class="cls-9" d="M1305.374,195.5087c2.9862,6.8105.2831,13.2097,1.3772,13.4848,1.0945.2751,5.3286-5.746,4.0897-11.6621-1.8442-8.8061-14.7459-12.2719-15.1245-11.6621-.282.4538,6.5874,2.8371,9.6577,9.8394Z"/>
  <ellipse class="cls-9" cx="1286.671" cy="192.9034" rx="3.0176" ry="5.7281" transform="translate(512.5744 1238.613) rotate(-62.0155)"/>
  <path class="cls-9" d="M1085.4203,191.8676c-2.9862,6.8105-.2831,13.2097-1.3772,13.4848-1.0945.2751-5.3286-5.746-4.0897-11.6621,1.8442-8.8061,14.7459-12.2719,15.1245-11.6621.282.4538-6.5874,2.8371-9.6577,9.8394Z"/>
  <ellipse class="cls-9" cx="1104.1234" cy="189.2623" rx="5.7281" ry="3.0176" transform="translate(40.2922 540.2208) rotate(-27.9845)"/>
  <path class="cls-2" d="M1196.7345,292.6513c9.6683-19.0266,26.9908-27.1189,38.2668-22.5953,9.1994,3.6907,13.5694,15.4549,13.4846,24.418-.2047,21.6348-26.5193,43.3084-52.8447,42.6401-19.274-.4897-39.0999-12.9696-45.1914-30.978-3.0131-8.9082-4.5999-24.8869,4.3735-31.3429,10.0136-7.2037,26.5004,2.1933,28.0622,3.2804,6.8336,4.7571,13.8492,14.5767,13.849,14.5776Z"/>
  <path class="cls-9" d="M1171.0411,399.7981c-.5503-8.3845,2.9464-17.461,9.86-22.9489,2.0645-1.6383,5.391-4.2788,10.1845-4.3846,4.9799-.1097,8.6014,2.5818,10.2994,3.8808,9.7945,7.4949,9.7755,21.5299,9.7451,23.4528-.2167,13.7467-8.9734,26.3901-12.8709,25.5317-3.0073-.6627-3.0114-9.3393-5.226-9.3563-2.3142-.018-2.2626,9.4566-6.0134,10.3868-4.2828,1.0626-11.4416-9.5303-14.4868-19.4066-.6833-2.216-1.3026-4.2712-1.4919-7.1555Z"/>
  <path class="cls-10" d="M1384.4679,270.1401c69.1114-29.921,113.7604-80.4559,99.7259-112.8727-14.0343-32.4159-81.4374-34.439-150.5491-4.5179"/>
  <path class="cls-4" d="M1383.543,260.434c4.6441,2.8588,13.0445,3.3608,32.2535-8.2002,35.2364-21.2066,84.3272-69.4518,70.5203-95.6669-9.946-18.8848-50.0842-21.6887-52.0659-21.8088-4.4111-.2675-8.1798-.0416-15.7168.4093-27.0393,1.6175-45.0385,7.3541-53.2133,10.2838-11.115,3.9838-16.6726,5.9757-18.2223,8.7475-7.6426,13.671,20.5505,29.7197,28.4266,68.5158,4.1445,20.4153-.2843,32.6097,8.0179,37.7194Z"/>
  <path class="cls-6" d="M1432.9851,216.3224c.3469.8642,8.4806.7222,16.7619-4.2616,18.3121-11.0209,43.8242-36.0935,36.6488-49.7174-5.1689-9.8143-26.0283-11.2715-27.0582-11.3339-2.2924-.139-4.251-.0216-8.1679.2127-14.0521.8406-23.4061,3.8218-27.6546,5.3444-5.5396,1.9854-9.6405,3.4372-9.47,4.546.5483,3.5664,43.5822-7.4776,52.8343,7.5896,5.2424,8.5374-2.4737,22.0182-3.6932,24.1485-9.8523,17.2123-30.7848,22.0167-30.2011,23.4715Z"/>
  <ellipse class="cls-6" cx="1387.3739" cy="165.5991" rx="14.2134" ry="3.8267"/>
  <path class="cls-10" d="M1006.7036,254.6347c-69.1116-29.9211-113.7604-80.4558-99.726-112.8724,14.0344-32.4166,81.4376-34.4397,150.5491-4.5186"/>
  <path class="cls-4" d="M1007.5303,247.2347c-1.1328.8499-7.0716,4.7136-26.0509-7.1357-25.643-16.0099-85.5092-67.2075-70.5203-95.6669,9.946-18.8848,50.0842-21.6887,52.0659-21.8088,4.4111-.2675,8.1798-.0416,15.7168.4093,27.0393,1.6175,45.0385,7.3541,53.2133,10.2838,11.2376,4.0273,16.8936,5.936,18.2223,8.7475,6.4874,13.7268-25.2332,32.6541-32.0781,64.3534-1.9777,9.1588-5.1799,18.0661-6.5602,27.3335-1.1167,7.4977-1.1285,11.3237-4.0089,13.4838Z"/>
  <path class="cls-6" d="M972.1264,202.7302c-.3469.8642-8.4806.7222-16.7619-4.2616-18.3121-11.0209-43.8242-36.0935-36.6488-49.7174,5.1689-9.8143,26.0283-11.2715,27.0582-11.3339,2.2924-.139,4.251-.0216,8.1679.2127,14.0521.8406,23.4061,3.8218,27.6546,5.3444,5.5396,1.9854,9.6405,3.4372,9.47,4.546-.5483,3.5664-43.5822-7.4776-52.8343,7.5896-5.2424,8.5374,2.4737,22.0182,3.6932,24.1485,9.8523,17.2123,30.7848,22.0167,30.2011,23.4715Z"/>
  <ellipse class="cls-6" cx="1017.7376" cy="152.0069" rx="14.2134" ry="3.8267"/>
  <ellipse class="cls-14" cx="1331.5226" cy="314.4752" rx="24.2983" ry="44.6361"/>
  <ellipse class="cls-14" cx="1067.8749" cy="298.5754" rx="24.2983" ry="44.6361"/>
  <path class="cls-12" d="M920.2562,266.2481c15.3973-3.5631,56.3142-10.8028,100.5871,8.7466,23.4566,10.3575,39.6907,24.6298,49.5647,34.9873"/>
  <path class="cls-13" d="M943.2278,300.6417c11.7361-5.517,43.3085-18.3898,82.1989-10.3527,20.6048,4.2581,36.0919,12.9038,45.8011,19.5073"/>
  <path class="cls-11" d="M971.994,350.2678c6.7943-8.3319,25.7785-29.2745,57.7301-37.2112,16.9285-4.2051,31.6047-3.2956,41.2298-1.8408"/>
  <path class="cls-16" d="M823.231,862.6051c-160.9681,117.9758-289.3589,146.7804-378.972,150.0996-15.3091.5672-74.7109,8.7466-157.4406,8.7466-.0017,0-180.615,14.6117-246.3656,80.177-3.79,3.7796-12.7257,12.6907-10.2043,18.9528,3.1386,7.7974,21.7894,5.9161,21.831,5.8708.0005,0,.0355-.0397.0355-.0397,49.4973-17.323,125.3285-40.2218,220.1259-53.9392,142.8697-20.6734,223.2967-10.0247,313.4233-24.782,66.0328-10.8122,158.1408-38.8321,263.5337-117.0257-5.7444-9.1569-12.086-21.0204-17.3508-35.4949-4.3955-12.0847-7.0189-23.1805-8.616-32.5652Z"/>
  <path class="cls-7" d="M1306.0821,133.2049c-6.1518,6.1336-31.96-26.7597-81.4535-39.3596-49.6181-12.6311-92.3307,2.9505-93.7495-3.5726-1.1222-5.1589,25.5425-15.1326,28.1492-16.1073,14.9284-5.5834,27.7346-7.1149,34.9868-7.6537,17.1434-1.2734,55.1291-4.0944,84.7337,20.2262,19.6616,16.1526,32.2838,41.5311,27.3333,46.4669Z"/>
  <ellipse class="cls-7" cx="1110.7623" cy="101.2945" rx="13.3934" ry="7.1067" transform="translate(98.1667 568.952) rotate(-30)"/>
  <path class="cls-7" d="M1210.8708,227.8697c-8.2704,18.2958-4.5016,37.9756-12.5735,39.907-2.608.6239-5.0296-.986-6.0133-1.6402-9.1883-6.1109-1.2195-22.2749-6.5602-38.2668-7.2113-21.5923-32.0514-23.1994-30.6135-34.075,1.307-9.8858,23.1935-18.8668,33.8935-12.3919,8.277,5.0086,7.4777,17.8259,12.7557,18.223,4.9452.3725,6.0591-10.8481,15.3068-15.6714,10.1909-5.3158,26.5579-.9312,28.4266,5.8311,2.487,8.999-23.2602,12.9488-34.6221,38.0843Z"/>
  <path class="cls-18" d="M1342.5267,175.5263c-.117.5691-19.8644-4.3213-41.7831-1.9787-2.5785.276-4.4986.5776-5.8767.8196-5.0017.8783-15.8142,2.873-26.2821,9.4282-7.2787,4.5586-10.9122,9.1436-11.3192,8.7466-.4772-.4651,4.0861-7.1782,10.1873-12.2454,11.5922-9.6286,25.5336-10.6581,34.3468-11.1942,23.1905-1.4105,40.8391,5.8764,40.7269,6.4238Z"/>
  <path class="cls-18" d="M1331.0149,192.7671c-.416.4774-6.9539-10.643-19.1114-15.9238-1.4303-.6202-2.5561-.9955-3.3802-1.2413-1.2628-.3763-3.1561-.9217-5.6174-1.2451-.9217-.121-5.7018-.7119-13.1341.9302-4.4926.9926-17.479,5.7592-13.1317,4.2523h0c-4.8342,2.7775,9.5336-5.9483,14.7866-7.8154,3.7477-1.332,8.1321-2.8692,13.7254-2.1507,4.3102.554,7.5916,2.2538,10.0692,3.5867,12.1892,6.558,16.1935,19.1476,15.7936,19.607Z"/>
  <path class="cls-18" d="M1047.6775,172.023c.117.5691,19.8644-4.3213,41.7831-1.9787,2.5785.276,4.4986.5776,5.8767.8196,5.0017.8783,15.8142,2.873,26.2821,9.4282,7.2787,4.5586,10.9122,9.1436,11.3192,8.7466.4772-.4651-4.0861-7.1782-10.1873-12.2454-11.5922-9.6286-25.5336-10.6581-34.3468-11.1942-23.1905-1.4105-40.8391,5.8764-40.7269,6.4238Z"/>
  <path class="cls-18" d="M1059.1893,189.2638c.416.4774,6.9539-10.643,19.1114-15.9238,1.4303-.6202,2.5561-.9955,3.3802-1.2413,1.2628-.3763,3.1561-.9217,5.6174-1.2451.9217-.121,5.7018-.7119,13.1341.9302,4.4926.9926,17.479,5.7592,13.1317,4.2523h0c4.8342,2.7775-9.5336-5.9483-14.7866-7.8154-3.7477-1.332-8.1321-2.8692-13.7254-2.1507-4.3102.554-7.5916,2.2538-10.0692,3.5867-12.1892,6.558-16.1935,19.1476-15.7936,19.607Z"/>
  <path class="cls-18" d="M1208.7214,386.0515c1.6757-1.9576-5.8754-22.1099-18.6768-21.5326-12.6413.5699-18.9123,20.8372-16.996,22.8349,1.5098,1.5745,7.8458-8.4594,18.6189-8.4457,9.9413.0127,15.8307,8.5723,17.0539,7.1434Z"/>
  <ellipse class="cls-19" cx="391.0894" cy="1039.4523" rx="90.747" ry="10.9334" transform="translate(-83.85 35.5377) rotate(-4.6997)"/>
  <path class="cls-1" d="M782.0878,891.3217c13.7144-9.5719,27.4288-19.1447,41.1432-28.7166,3.6659,13.8166,8.6006,28.9898,15.3068,45.0092,3.4388,8.2143,7.0286,15.8993,10.66,23.051,0,0-70.8208-8.912-69.4221-37.8773"/>
  <path class="cls-1" d="M1461.8905,1009.5244c42.5192,46.6484,85.0373,93.2988,127.5564,139.9472,1.8473,2.3559,2.7274,5.0937,1.7764,6.6044-1.228,1.9512-5.8727,2.441-10.5229-.7733-14.0917-8.9905-28.1844-17.9791-42.2761-26.9696-3.2795-2.1649-6.0873-2.7926-7.7445-3.0063-1.3131-.1683-2.008-.0889-2.596.2723-2.2859,1.4067-1.3746,6.1222-1.3216,6.3794,7.7747,11.9041,15.5495,23.8101,23.3242,35.7143,1.0229,1.471,3.0375,4.8517,2.4608,8.8846-.1437,1.0021-.2855,1.9153-.9567,2.596-1.7452,1.7716-6.1052.9983-10.9796-2.0042-10.6903-13.3638-21.3805-26.7257-32.0708-40.0895-2.9959-4.9878-9.0661-6.0636-12.4364-3.5527-2.423,1.8057-3.4412,5.4567-2.4608,9.0189,6.6668,12.755,13.3326,25.5118,19.9993,38.2668,2.4306,2.2878,2.0864,5.8594.2278,7.2434-1.4861,1.1061-4.0604.9057-5.8764-.8187-7.7445-12.6642-15.489-25.3303-23.2335-37.9945-.38-.5351-.9614-1.2744-1.7773-2.0496-1.0248-.9737-3.0819-2.925-5.1929-3.0063-2.4778-.0945-5.0993,2.388-6.4238,6.0126-.7211,2.9666-1.4223,7.6131-.458,13.1038.4528,2.579,1.1753,4.7864,1.9158,6.577,1.3313,5.4595.9588,9.6882-.458,10.1873-1.3878.4897-4.2152-2.4438-6.5599-7.1064-2.5199-5.4-5.0399-10.8009-7.5598-16.2008,0,0-96.1103-132.6943-115.0423-157.3099-1.5948-2.0723-2.6414-3.3788-3.0375-3.7758,18.2986,7.0355,44.2047,14.5209,75.8047,16.0354,17.3826.8319,32.8829-.3139,45.9196-2.1857Z"/>
  <path class="cls-1" d="M915.968,1020.8736c-39.6897,41.3799-125.2168,130.8991-131.8583,141.6045-.7902,1.2734-2.9106,4.8025-1.7764,6.6044,1.228,1.9512,5.8727,2.441,10.5229-.7733,14.0917-8.9905,28.1844-17.9791,42.2761-26.9696,3.2795-2.1649,6.0873-2.7926,7.7445-3.0063,1.3131-.1683,2.008-.0889,2.596.2723,2.2859,1.4067,1.3746,6.1222,1.3216,6.3794-7.7747,11.9041-15.5495,23.8101-23.3242,35.7143-1.0229,1.471-3.0375,4.8517-2.4608,8.8846.1437,1.0021.2855,1.9153.9567,2.596,1.7452,1.7716,6.1052.9983,10.9796-2.0042,10.6903-13.3638,21.3805-26.7257,32.0708-40.0895,2.9959-4.9878,9.0661-6.0636,12.4364-3.5527,2.423,1.8057,3.4412,5.4567,2.4608,9.0189-6.6668,12.755-13.3326,25.5118-19.9993,38.2668-2.4306,2.2878-2.0864,5.8594-.2278,7.2434,1.4861,1.1061,4.0604.9057,5.8764-.8187,7.7445-12.6642,15.489-25.3303,23.2335-37.9945.38-.5351.9614-1.2744,1.7773-2.0496,1.0248-.9737,3.0819-2.925,5.1929-3.0063,2.4778-.0945,5.0993,2.388,6.4238,6.0126.7211,2.9666,1.4223,7.6131.458,13.1038-.4528,2.579-1.1753,4.7864-1.9158,6.577-1.3313,5.4595-.9588,9.6882.458,10.1873,1.3878.4897,4.2152-2.4438,6.5599-7.1064,2.5199-5.4,5.0399-10.8009,7.5598-16.2008,0,0,96.1103-132.6943,115.0423-157.3099,1.5948-2.0723,2.6414-3.3788,3.0375-3.7758-17.036,7.1886-43.2321,15.5968-75.8047,16.0354-15.9299.2146-29.985-1.522-41.6176-3.8429Z"/>
  <path class="cls-14" d="M891.1856,901.3351c25.3441,44.0619,85.4424,48.4012,83.0937,62.3208-1.2494,7.4051-19.0509,10.8708-30.6135,10.9332-35.3442.191-68.3115-31.1094-78.2799-65.4424-11.2843-38.8652,7.8518-78.3496,13.536-77.6708,5.3764.6419-6.8976,36.5462,12.2637,69.8592Z"/>
  <ellipse class="cls-14" cx="1008.7195" cy="978.9624" rx="16.9467" ry="13.12"/>
  <path class="cls-14" d="M1387.1663,379.8139c3.4199,77.0913,18.1334,114.3891,18.1344,114.3919,19.378,58.1338,70.9755,75.5532,102.1234,106.7807,63.1244,63.2861,48.9561,160.4684,47.0531,173.5221-1.9843,13.6105-7.1009,48.7075-27.698,55.395-10.3918,3.374-23.0633-1.0219-30.6133-7.2888-41.0894-34.1034,45.8064-143.2608,3.4993-210.887-28.6398-45.7796-87.4234-25.6631-119.9657-72.7984-30.4963-44.1716-12.8751-109.6603,7.4669-159.1156Z"/>
  <path class="cls-8" d="M1379.9075,367.7869c4.3408,4.741-63.5731,126.972-173.8406,131.2006-125.4462,4.811-203.9492-147.0063-201.1741-149.7876,2.5705-2.5761,78.0885,119.5073,189.1473,121.3603,106.2012,1.7726,181.5806-107.4557,185.8674-102.7733Z"/>
  <ellipse class="cls-8" cx="980.4956" cy="480.9472" rx="16.7439" ry="22.4134"/>
  <ellipse class="cls-8" cx="961.1593" cy="518.6673" rx="12.0267" ry="9.84"/>
  <ellipse class="cls-8" cx="1448.7878" cy="964.749" rx="22.4134" ry="16.7439" transform="translate(-272.6339 707.0013) rotate(-25.1441)"/>
  <ellipse class="cls-8" cx="1406.426" cy="963.2721" rx="9.84" ry="12.0267" transform="translate(-276.0205 688.862) rotate(-25.1441)"/>
  <path class="cls-3" d="M1101.2432,739.9317c-.0721.4632,11.8156,2.2991,11.8172,2.2991,23.0559,3.5603,33.8646,3.6189,35.0596,8.2238.3525,1.3585-.2675,2.5875-.4099,2.8701-5.0575,10.0295-47.2606-1.3906-47.4235-.5464-.0702.364,5.0551,1.5031,5.0567,1.5031,21.3062,4.7335,30.4353,4.066,32.8002,9.293.865,1.9125.7349,4.3913-.4101,5.8774-2.3033,2.9902-8.3011,1.9068-9.9766,1.6393-13.4679-2.1507-29.099,3.4364-48.8813,2.5062-29.406-1.3821-95.0736-18.4433-94.756-36.2626.2831-15.8832,57.3143-27.3893,93.2981-29.5202,38.0984-2.2557,75.5731,4.6389,78.5874,15.0371.1949.6722.7585,2.6168-.2057,4.1162h-.0002c.0076.3677-.034.9028-.3085,1.4398-2.0741,4.0575-14.007,1.4871-24.6965-.2051-19.4487-3.0781-33.2349-3.0034-33.2374-2.9845-.0021.0161,10.2931,1.3018,54.8469,6.7916.2993.0747,2.1039.5549,3.087,2.3672.8452,1.558.5763,3.167.2059,4.1162-.0006.0019-.4385,1.1231-1.4262,1.9853-3.8891,3.3948-52.9972-.7364-53.0268-.5464Z"/>
  <path class="cls-3" d="M1266.846,740.8677c.0721.4632-11.8156,2.2991-11.8172,2.2991-23.0559,3.5603-33.8646,3.6189-35.0596,8.2238-.3525,1.3585.2675,2.5875.4099,2.8701,5.0575,10.0295,47.2606-1.3906,47.4235-.5464.0702.364-5.0551,1.5031-5.0567,1.5031-21.3062,4.7335-30.4353,4.066-32.8002,9.293-.865,1.9125-.7349,4.3913.4101,5.8774,2.3033,2.9902,8.3011,1.9068,9.9766,1.6393,13.4679-2.1507,29.099,3.4364,48.8813,2.5062,29.406-1.3821,95.0736-18.4433,94.756-36.2626-.2831-15.8832-57.3143-27.3893-93.2981-29.5202-38.0984-2.2557-75.5731,4.6389-78.5874,15.0371-.1949.6722-.7585,2.6168.2057,4.1162h.0002c-.0076.3677.034.9028.3085,1.4398,2.0741,4.0575,14.007,1.4871,24.6965-.2051,19.4487-3.0781,33.2349-3.0034,33.2374-2.9845.0021.0161-10.2931,1.3018-54.8469,6.7916-.2993.0747-2.1039.5549-3.087,2.3672-.8452,1.558-.5763,3.167-.2059,4.1162.0006.0019.4385,1.1231,1.4262,1.9853,3.8891,3.3948,52.9972-.7364,53.0268-.5464Z"/>
  <path class="cls-15" d="M1354.9429,706.5393h0s-14.5954,15.7055-14.3955,25.8758c.1503,7.6481,8.7768,17.8146,44.2802,29.5202-.2672.1947-.8445.5653-1.2755.364-.5392-.2515-.5445-1.2536-.5467-1.6402-.0126-2.3436,13.6509-11.6082,21.5023-16.7643-9.84-18.4045-19.68-36.809-29.5201-55.2135-6.6815,5.953-13.3631,11.9051-20.0446,17.8581Z"/>
  <path class="cls-15" d="M1013.8285,715.0032s14.5954,15.7055,14.3955,25.8758c-.1503,7.6481-8.7768,17.8146-44.2802,29.5202.2672.1947.8445.5653,1.2755.364.5392-.2515.5445-1.2536.5467-1.6402.0126-2.3436-13.6509-11.6082-21.5023-16.7643,9.84-18.4045,19.68-36.809,29.5201-55.2135,6.6815,5.953,13.3631,11.9051,20.0446,17.8581Z"/>
  <path class="cls-5" d="M982.2061,764.8045c-.3869-1.1902,32.9271-6.2612,37.7201-25.283,2.794-11.0883-5.4397-21.6159-4.1429-22.2616,1.5296-.761,15.0094,12.8779,12.5541,25.7264-3.9335,20.5845-45.7043,23.1323-46.1313,21.8182Z"/>
  <path class="cls-5" d="M1385.4738,757.7782c.3869-1.1902-32.9271-6.2612-37.7201-25.283-2.794-11.0883,5.4397-21.6159,4.1429-22.2616-1.5296-.761-15.0094,12.8779-12.5541,25.7264,3.9335,20.5845,45.7043,23.1323,46.1313,21.8182Z"/>
  <path class="cls-5" d="M1454.3642,724.3941c-.6078-.5599-11.849,18.334-33.9669,23.8403-11.1957,2.7875-20.8787,1.0746-20.9077,1.7216-.0319.7071,11.4501,3.9752,23.3222,1.2133,21.0698-4.9011,32.1833-26.1934,31.5524-26.7753Z"/>
  <path class="cls-5" d="M899.1974,737.383c.5663-.6018,13.1272,17.4416,35.5817,21.3556,11.3661,1.9814,20.9022-.4182,20.9773.2252.0822.703-11.1372,4.7822-23.1762,2.8745-21.3659-3.385-33.9705-23.8299-33.3827-24.4553Z"/>
</svg>