<?xml version="1.0" encoding="UTF-8"?>
<svg id="Layer_1" data-name="Layer 1" xmlns="http://www.w3.org/2000/svg" viewBox="0 0 1621.4173 1264.252">
  <defs>
    <style>
      .cls-1 {
        fill: #282827;
      }

      .cls-2 {
        fill: #f8b6bb;
      }

      .cls-3 {
        fill: #5a5c5c;
      }

      .cls-4 {
        fill: #ebb1a9;
      }

      .cls-5 {
        fill: #7d7c7c;
      }

      .cls-6 {
        fill: #fff;
      }

      .cls-7 {
        fill: #66686c;
      }

      .cls-8 {
        fill: #edabb3;
      }

      .cls-9 {
        fill: #fac1be;
      }

      .cls-10 {
        fill: #555757;
      }

      .cls-11 {
        fill: #5c5f60;
      }

      .cls-12 {
        fill: none;
        stroke: #414142;
        stroke-linecap: round;
        stroke-linejoin: round;
        stroke-width: 2.2403px;
      }

      .cls-13 {
        fill: #e9abb2;
      }
    </style>
  </defs>
  <path class="cls-2" d="M865.8083,581.4477c-3.4428-2.8099-5.7994-5.6712-7.2347-7.6169h0s13.0267-5.0728,25.9474-3.5581c2.3104.2707,5.446.8494,10.2261.6853,3.1251-.1072,5.6721-.4881,7.3269-.7906,10.1558,8.4338,20.3116,16.8678,30.4674,25.3016,1.4759,5.1658,2.9519,10.3314,4.4278,15.4972-.3617,2.4011-.7547,2.9324-1.0542,2.9521-.3913.026-.5846-.8234-1.4759-1.6868-.7525-.7288-1.6033-1.081-2.2139-1.2653-.738-3.3735-1.4759-6.747-2.2139-10.1205h-3.1627c.7017,1.8823,1.5188,4.7573,1.5813,8.3285.0782,4.4663-1.0593,7.979-1.8976,10.0152-1.1281,4.4053-1.6401,5.3105-1.8976,5.2711-.3141-.0481-.162-1.4885-.738-3.4791-.4745-1.6403-1.2199-2.8813-1.7922-3.6896.4434-1.7062.9436-4.5002.5271-7.9068-.3752-3.0689-1.3497-5.4508-2.1084-6.9579-1.7922-1.1598-3.5844-2.3193-5.3766-3.4791l-2.2139-2.8465c1.1196,2.8687,2.4603,7.3073,2.6356,12.8618.1507,4.7778-.6127,8.7373-1.3705,11.4911-.1139.7091-.6437,3.5822-2.6356,4.4277-.1413.0599-.8299.3522-1.0542.1056-.3971-.4367,1.2876-1.8722,1.1596-3.3738-.0729-.8554-.7507-1.9282-3.1627-3.0571.6353-1.8853,1.4998-5.2714,1.0542-9.4883-.5402-5.113-2.7202-8.74-3.9007-10.4369-.8434,3.1627-1.6868,6.3256-2.5301,9.4883-.7633,2.0179-2.0432,3.28-3.1627,3.1627-.4458-.0468-1.0594-.3325-1.2651-.8434-.1024-.2543-.1235-.6142.5271-1.8976.2763-.545.685-1.279,1.2651-2.1084,1.0857-3.4438.6507-5.7453.1054-7.169-3.4578-9.0283-20.2259-5.9296-34.7897-17.8165Z"/>
  <path class="cls-2" d="M661.8668,735.1418c.1922-9.1792-3.567-14.356-.3163-18.2381,4.3318-5.1735,17.2308-3.4137,18.66.8434.8116,2.4175-2.0819,5.6206-4.7968,8.0252,7.3612.9178,16.1261,2.5999,25.7233,5.6931,12.3686,3.9863,22.3935,9.115,29.9403,13.7049,2.308,2.2766,2.581,2.9023,2.451,3.0705-.1332.1723-.8432.0615-3.927-1.8054-3.0221-.6325-6.0443-1.2651-9.0664-1.8976l2.5301,6.3256-.8434,3.7952c-.5516,1.3862-.9382,2.054-1.1597,2.0032-.3139-.0722-.2964-1.5878.0527-4.5464-.7555-1.1201-1.511-2.2403-2.2666-3.3604l-4.2169-1.8976,2.741,5.9036.6325,3.3735c-.2186.4857-1.3805,3.0399-1.8318,2.899-.4393-.137.0178-2.7596.1186-3.3207-1.1158-2.3193-2.2314-4.6386-3.3472-6.9579-.36,1.3438-1.0332,3.2565-2.3721,5.258-.7998,1.1956-2.1229,2.8504-2.5301,2.6354-.4559-.2407.8831-2.4825.7869-6.019-.0378-1.3906-.0758-2.7869-.9-3.8778-1.5486-2.0496-5.0541-1.3747-6.3705-1.792-4.1877-1.3274-12.3471-1.6679-19.8196-1.2651-10.5784.5702-15.9989,2.6083-17.922-.2108-.0461-.0675-.0932-.1567-.1903-.3325-1.9187-3.4747-1.7847-6.8312-1.76-8.0091Z"/>
  <path class="cls-2" d="M721.186,706.5518c.1922-9.1792-3.567-14.356-.3163-18.2381,4.3318-5.1735,17.2308-3.4137,18.66.8434.8115,2.4175-2.0819,5.6206-4.7968,8.0252,7.3612.9178,16.1261,2.5999,25.7233,5.6931,12.3686,3.9863,22.3934,9.115,29.9403,13.7049,2.308,2.2766,2.581,2.9023,2.451,3.0705-.1332.1723-.8432.0615-3.927-1.8054-3.0221-.6325-6.0443-1.2651-9.0664-1.8976l2.5301,6.3256-.8434,3.7952c-.5516,1.3862-.9382,2.054-1.1597,2.0032-.3139-.0722-.2964-1.5878.0527-4.5464-.7555-1.1201-1.511-2.2403-2.2666-3.3604l-4.2169-1.8976,2.741,5.9036.6325,3.3735c-.2186.4857-1.3805,3.0399-1.8318,2.899-.4393-.137.0178-2.7596.1186-3.3207-1.1158-2.3193-2.2314-4.6386-3.3472-6.9579-.36,1.3438-1.0332,3.2565-2.3721,5.258-.7998,1.1956-2.1229,2.8504-2.5301,2.6354-.4559-.2407.8831-2.4825.7869-6.019-.0378-1.3906-.0758-2.7869-.9-3.8778-1.5486-2.0496-5.0541-1.3747-6.3704-1.792-4.1877-1.3274-12.3472-1.6679-19.8196-1.2651-10.5784.5702-15.9989,2.6083-17.922-.2108-.0461-.0675-.0931-.1567-.1903-.3325-1.9187-3.4747-1.7847-6.8312-1.76-8.0091Z"/>
  <path class="cls-8" d="M922.5404,558.1728c5.8726,9.7658,11.7452,19.5314,17.6178,29.2972l-2.8464,18.9762-4.9022-12.0184c-9.9674-8.0865-19.9347-16.1726-29.9021-24.2591,2.2947-.7756,4.8206-1.797,7.4714-3.1553,5.4181-2.7762,9.5641-6.0406,12.5615-8.8407Z"/>
  <path class="cls-12" d="M1127.5343,478.0417c-5.3689-.7231-20.1955-1.9933-35.844,6.3256-12.1512,6.4599-18.9284,15.5814-21.9281,20.2413"/>
  <path class="cls-12" d="M1134.4491,499.1914c-3.6073-2.7267-13.9172-9.5901-29.4238-7.9714-12.0411,1.2571-21.3994,7.0215-25.8395,10.1442"/>
  <path class="cls-12" d="M1121.9792,511.7603c-1.7646-2.5037-7.0406-9-17.9665-10.299-8.4841-1.0086-16.2769,1.6037-20.0713,3.1182"/>
  <path class="cls-12" d="M1110.2449,535.3921c-.5649-2.3688-2.8692-10.75-10.964-16.4461-4.964-3.493-9.9358-4.4496-12.6105-4.7583"/>
  <path class="cls-12" d="M1127.1777,534.42c-2.2209-3.6611-8.7706-13.4423-21.2188-19.3897-9.6662-4.6181-18.22-4.6938-22.3628-4.4451"/>
  <path class="cls-12" d="M1086.2558,578.5792c1.2814-5.2636,4.0976-19.8756-2.5365-36.3093-5.1516-12.7609-13.5131-20.4563-17.8332-23.9275"/>
  <path class="cls-12" d="M1064.4982,583.2408c3.0895-3.3019,10.995-12.8362,11.0094-28.427.011-12.1065-4.7415-22.0171-7.382-26.7599"/>
  <path class="cls-12" d="M1053.3045,569.523c2.6748-1.4926,9.6879-6.0592,12.1242-16.7889,1.8917-8.3318.11-16.3553-.9987-20.2875"/>
  <path class="cls-12" d="M1031.0318,555.378c2.4149-.3137,10.9914-1.7275,17.504-9.1812,3.9937-4.5708,5.4658-9.4151,6.053-12.0428"/>
  <path class="cls-12" d="M1030.225,572.3194c3.8736-1.8253,14.287-7.3144,21.5055-19.0712,5.6051-9.1294,6.5763-17.6282,6.763-21.7742"/>
  <path class="cls-4" d="M616.9688,635.1755c-.2231.5932-.4908,1.5041-.5271,2.6354-.023.7176-.0987,3.0746,1.5813,5.0605,1.0027,1.1855,2.2108,1.742,2.9519,2.0029-55.8452,34.818-85.6334,63.7052-101.6277,79.6996-.0003.0003-.0004.0005-.0004.0005-2.6668,2.7311-6.1601,6.8438-9.2224,12.4494-6.7014,12.267-7.607,24.8522-6.958,30.0457,3.1806,25.4484,64.2273,37.699,74.374,39.7352,75.8413,15.2193,150.8112-.4211,150.7537-.6766-.0006-.0027-.0697.0115-.2091.044-129.7597,30.2538-227.5249,9.9395-239.7328-29.0967-11.0343-35.2834,45.0172-94.8544,128.6166-141.8999Z"/>
  <path class="cls-7" d="M952.3298,452.0417c-29.88-4.2336-76.4854-6.8386-130.5142,6.9579-15.0702,3.8482-74.5498,20.1655-134.0986,70.0013-38.5883,32.2941-78.6387,65.812-73.3747,107.1101,3.5853,28.1279,26.6256,47.5807,40.4826,57.2448.9334,18.8936,5.6793,31.8632,12.3345,32.8922,1.8919.2926,3.556-.4389,5.3766-1.2651,8.0493-3.6527,12.0556-11.4518,15.181-18.0273,4.178-8.7904,3.2011-11.1113,7.2759-16.8664,3.2389-4.5746,6.9819-7.5228,9.5919-9.2788,4.2015-.7999,9.3236-1.0654,12.0091,1.8582,2.2413,2.4402.8663,5.0129,3.3735,7.8012,3.1508,3.5042,9.0053,3.537,12.6508,2.6357,1.9059-.4712,5.1258-1.2673,6.9114-3.9486,3.0593-4.594-1.402-9.7519-.7969-16.1874.3881-4.1277,2.9785-10.036,13.9251-16.6173,6.2265-4.7578,15.2324-12.168,24.9854-22.3497,14.2852-14.9133,17.8809-22.9402,26.883-31.9433,8.8281-8.8289,23.4816-19.2229,48.7057-24.669,6.8032-2.4325,15.3857-4.582,25.3782-4.868,10.0306-.2871,14.332,1.4458,21.9569.0183,5.5902-1.0466,13.6046-4.0134,22.4552-13.1779,7.9815-5.054,21.562-12.2522,39.8501-15.6025,16.1303-2.9548,29.7369-1.783,38.585-.3164,6.5775,1.2046,16.6954,2.3874,28.7806.9489,21.1928-2.5225,55.1789-13.9086,55.9798-30.9946.607-12.9474-17.9209-27.4781-43.4344-35.0007-2.6254-3.5835-8.3063-10.284-17.922-14.6538-14.4979-6.5884-27.9153-3.3229-31.8379-2.2137-13.5645-3.1627-27.1289-6.3256-40.6934-9.4883Z"/>
  <path class="cls-11" d="M956.6825,454.0353c.6953-6.0223,3.2946-8.2363,4.0812-8.8317,5.2451-3.9705,15.8953-1.0728,24.2473,9.5577,1.3221-5.8161,4.2419-10.464,7.2743-10.6822,3.682-.2647,8.7031,5.9176,9.352,16.0895-3.4367,1.1434-6.8734,2.2867-10.31,3.4301"/>
  <path class="cls-2" d="M982.9553,488.3072c-.0014.0118-.0049.0172-.0092.0191-.1881.0815-5.4257-5.0192-3.3643-9.9288,1.5215-3.6237,5.8619-4.3873,6.1145-4.4277-.033-.7578.0006-1.6941.2108-2.7412.4205-2.0942,1.3464-3.6297,2.003-4.533-8.6644-14.6839-19.7026-22.6008-25.6179-20.136-6.6395,2.7667-7.6397,18.9524-2.3193,30.3621,5.2748,11.3117,15.8506,15.9738,19.187,17.2895,2.1233.6653,4.2521-.4061,4.8495-2.1087.4395-1.2525.0159-2.7497-1.0542-3.7952Z"/>
  <ellipse class="cls-2" cx="1081.3634" cy="513.0475" rx="4.9502" ry="7.9938"/>
  <ellipse class="cls-1" cx="1024.2813" cy="488.8345" rx="10.964" ry="8.1176"/>
  <path class="cls-6" d="M1031.8939,487.5168c-.0082,2.5083-3.5485,3.6508-3.7952,3.3738-.1732-.1947,1.285-1.0807,1.4801-2.7678.2488-2.1506-1.7777-3.6773-1.4801-3.9795.3427-.3479,3.8033.891,3.7952,3.3735Z"/>
  <ellipse class="cls-6" cx="1024.3604" cy="490.7321" rx="1.8186" ry=".6325"/>
  <path class="cls-13" d="M779.1232,710.726c-.1907.4406-9.7271-3.251-12.7036-4.4277-9.2455-3.6552-8.2888-4.0348-10.8129-4.4958-10.4456-1.908-20.7317,5.7076-21.8156,3.8633-.4663-.7936,1.2698-2.4888.369-4.1116-.3253-.586-.7901-.7944-1.2651-1.7923-.0546-.1149-.4033-.9153-.4377-1.9009-.0973-2.7875,2.3961-5.4199,2.3976-5.4223h0c2.1689-.9126,2.3883-1.06,2.7385-1.3173.1315-.0968.4976-.4356,1.2297-1.1138.0368-.0342.6108-.5694.6839-.8144.0025-.0085.0101-.0353.0226-.0361.0518-.0027.1386.4509.1475.8426.0006.0276.007.3968-.0844.787-.3271,1.398-1.2322,2.6349-1.2325,2.6351s-.9144,1.2497-3.4331,3.671h0s3.2519.5349,4.207.6946c4.1098.6878,5.3955,1.0761,8.2354,1.5875,4.1372.7449,6.9397.9169,8.4022,1.0723,10.9594,1.1642,23.6564,9.5744,23.3513,10.2789Z"/>
  <path class="cls-13" d="M665.5863,741.0744c1.4886,3.9833,17.7537,1.2355,17.7861,1.529.0144.1302-3.1703.8472-7.8804.9093-3.7796.0498-10.7324.1414-11.4453-2.234-.4201-1.3996,1.4136-3.3664,1.7755-3.2138.3153.1329-.6923,1.7879-.2358,3.0095Z"/>
  <path class="cls-13" d="M722.1761,751.117c-.0494.1124-.1769.2365-.3278.146-.3287-.1973-.302-1.1346-.9178-2.1815-.8807-1.4971-2.5525-2.3277-2.5387-2.4268.0136-.098,1.3401.4651,2.4385,1.7679.7425.8806,1.5613,2.2039,1.3459,2.6945Z"/>
  <path class="cls-10" d="M676.4265,711.9676c1.1372,1.2325-2.0385,9.3827-7.3796,9.3827-4.0757,0-7.3796-4.2007-7.3796-9.3827,0-5.6745,5.6304-10.176,7.3796-9.3827,1.933.8765-.7804,8.2516,2.1085,9.9099,1.9196,1.1021,4.5043-1.3586,5.2712-.5272Z"/>
  <ellipse class="cls-10" cx="630.6639" cy="630.7389" rx="12.5365" ry="29.4131"/>
  <ellipse class="cls-10" cx="646.7782" cy="593.1867" rx="10.9113" ry="5.2185" transform="translate(-224.792 490.4346) rotate(-35.8015)"/>
  <ellipse class="cls-10" cx="645.4044" cy="607.4602" rx="2.6554" ry="5.5522" transform="translate(-240.5047 634.2908) rotate(-45)"/>
  <path class="cls-10" d="M903.857,448.6228s-13.3346.2811-13.4099.2828c-7.4813.1578-53.999,4.0525-91.2663,15.8015-71.9361,22.6787-131.6182,81.6245-131.1074,82.3066.4361.5822,49.3961-35.0906,104.3692-61.989,7.704-3.7695,16.5703-7.8778,28.7643-10.9568,15.7294-3.9716,47.7695-2.9015,61.689-3.5915,34.0015-1.6857,84.7751-20.2304,88.4993-15.816.1786.2117,1.4058,1.8476,2.8338,1.7051,1.4529-.1449,2.9835-2.1175,2.9917-2.1246h0c.0008-.0025.3641-.9571.3671-1.1311.0518-2.9299-35.3625-3.9937-35.3629-3.9937-7.526-.2262-13.8296-.3859-18.368-.4933Z"/>
  <path class="cls-10" d="M740.4304,685.6613c.6623.9008-.444,2.7374-.9007,3.4957-2.4222,4.0211-7.2764,4.8852-8.1657,5.0436-.245.0435-6.2336,1.0269-10.2261-2.3193-.6081-.5097-1.6454-1.3791-2.3193-2.8597-.5319-1.1685-.3427-1.6312-.8961-3.5843-.7153-2.5247-1.4099-3.0877-1.1069-3.4657.7781-.9711,4.9762,3.2234,10.4369,2.741,3.1115-.2748,5.5018-1.9682,5.7983-1.4759.343.5694-2.909,2.7514-2.5302,3.4791.5733,1.1013,8.5133-2.954,9.9098-1.0545Z"/>
  <path class="cls-10" d="M717.0782,683.0094c-.1408.2579-2.6569-1.7105-6.2807-2.0836-5.2916-.5447-9.6659,2.6491-10.8946,3.6314-1.4768,1.1806-2.4809,2.4207-3.5819,3.7804-2.4324,3.004-3.418,5.2788-3.4926,5.2391-.1179-.0626,1.2539-6.3111,6.3815-10.3532,3.6933-2.9113,9.3497-4.6894,13.9987-2.893,2.2355.8639,3.99,2.4585,3.8696,2.6789Z"/>
  <path class="cls-10" d="M734.2281,671.9774c-4.6586-3.8253-1.213-20.4119,7.5905-31.3107,12.2103-15.1165,33.5673-17.8547,43.8957-28.3835,6.0308-6.1478,7.9357-9.8539,7.9359-9.8542,2.9204-4.7895,2.7879-7.0445,8.8264-11.9683,22.4094-18.2734,59.0046-15.5702,59.0055-15.5705.0001,0-6.3475,2.4049-6.8736,2.6034-7.3203,2.7634-14.0574,3.6401-19.9777,5.3767-9.6556,2.832-16.237,7.6858-20.6103,10.9111-7.0897,5.2287-10.6006,9.8722-16.6042,17.0786-18.8022,22.5693-28.2034,33.8543-36.9641,39.7956-2.5887,1.7557-18.5467,12.3424-20.3994,18.5808-.1571.5292-.8545,3.1875-2.6619,3.6899-.0004,0-1.4705.4406-3.1627-.9489Z"/>
  <path class="cls-5" d="M1042.7831,478.3975c.3805.3768,3.9838,4.0665,3.1645,9.2296-.6736,4.245-4.0594,7.7381-8.5261,8.7368-.3744-.0219-.8513-.0183-.9093.1583-.1892.5773,4.2442,2.5293,5.1657,2.9122,9.3124,3.8685,17.8076-3.8472,27.3046-.8434,2.5152.7955,5.9702,2.6261,9.3827,7.3795,1.693,1.5733,4.0533,1.2287,4.8495.1056.7935-1.1193.3435-3.4498-1.6868-4.5333-3.3347-4.1548-9.1471-10.3508-18.0274-15.4972-8.1226-4.7072-15.6732-6.7175-20.7175-7.6481Z"/>
  <path class="cls-5" d="M984.8284,461.6402h0c.0005.0008,1.7566,3.6508,2.7938,5.113,2.3927,3.3732,7.2289,3.9423,9.8571,4.2169,11.1212,1.162,15.076-5.2525,23.9451-5.0094,12.5933.3454,21.0669,12.7773,21.3588,12.4368.3978-.4638-7.7379-11.7006-21.9527-16.7573-5.7784-2.0557-12.7637-4.5407-19.187-1.8451-2.2245.9336-4.1286,2.3822-7.7487,2.6885-4.0486.3427-9.0664-.8434-9.0664-.8434Z"/>
  <path class="cls-3" d="M640.5705,636.026c0,12.0682-4.1698,21.8512-9.3134,21.8512-6.1993,0-13.5744-16.9513-9.3134-21.8512,1.7894-2.0576,4.4019-.5369,7.0608-2.7167,5.9193-4.8529.4432-18.5161,2.2526-19.1343,1.6192-.5532,9.3134,9.2995,9.3134,21.851Z"/>
  <path class="cls-9" d="M616.9709,815.1425c.0013.6932-30.746,5.8375-67.2601-4.006-20.6818-5.5755-37.0873-14.3076-36.8863-14.819.1969-.501,16.2689,7.0604,38.3622,12.4997,37.7644,9.2974,65.7829,5.6635,65.7842,6.3253Z"/>
  <ellipse class="cls-9" cx="629.938" cy="817.0402" rx="5.5874" ry=".8434"/>
  <path class="cls-9" d="M502.8278,784.0089c2.7601,3.3084,3.6204,7.1394,1.9215,8.5568-1.6989,1.4174-5.3136-.1157-8.0738-3.4241-2.7601-3.3084-3.6204-7.1394-1.9216-8.5568,1.6989-1.4171,5.3137.1157,8.0738,3.4241Z"/>
  <ellipse class="cls-9" cx="594.4868" cy="655.5656" rx="22.9065" ry="3.1335" transform="translate(-265.0023 444.7118) rotate(-34.0135)"/>
  <ellipse class="cls-9" cx="567.4219" cy="676.1154" rx="1.8976" ry="2.4511"/>
</svg>