<?xml version="1.0" encoding="UTF-8"?>
<svg id="Layer_1" data-name="Layer 1" xmlns="http://www.w3.org/2000/svg" viewBox="0 0 1621.4173 1264.252">
  <defs>
    <style>
      .cls-1 {
        fill: #282827;
      }

      .cls-2 {
        fill: #f8b6bb;
      }

      .cls-3 {
        fill: #5a5c5c;
      }

      .cls-4 {
        fill: #ebb1a9;
      }

      .cls-5 {
        fill: #7d7c7c;
      }

      .cls-6 {
        fill: #fff;
      }

      .cls-7 {
        fill: #66686c;
      }

      .cls-8 {
        fill: #edabb3;
      }

      .cls-9 {
        fill: none;
        stroke: #414142;
        stroke-linecap: round;
        stroke-linejoin: round;
        stroke-width: 5.4779px;
      }

      .cls-10 {
        fill: #fac1be;
      }

      .cls-11 {
        fill: #555757;
      }

      .cls-12 {
        fill: #5c5f60;
      }

      .cls-13 {
        fill: #e9abb2;
      }
    </style>
  </defs>
  <path class="cls-2" d="M945.4396,508.2062c-8.4183-6.8708-14.1808-13.8673-17.6904-18.6251h0s31.8531-12.4042,63.4471-8.7003c5.6494.662,13.3166,2.077,25.005,1.6757,7.6416-.2621,13.8697-1.1936,17.9159-1.9332,24.8332,20.6224,49.6664,41.2455,74.4995,61.868,3.6089,12.6316,7.218,25.2625,10.8269,37.8941-.8845,5.8711-1.8454,7.1704-2.5778,7.2185-.9567.0635-1.4295-2.0134-3.6089-4.1245-1.8401-1.7821-3.9204-2.6433-5.4136-3.094-1.8045-8.249-3.6089-16.4979-5.4134-24.7469h-7.7336c1.7159,4.6026,3.7137,11.6326,3.8667,20.365.1912,10.9211-2.5903,19.5104-4.64,24.4895-2.7585,10.7719-4.0103,12.9853-4.64,12.889-.7682-.1177-.3962-3.6397-1.8045-8.5071-1.1603-4.0108-2.983-7.0453-4.3824-9.022,1.0841-4.172,2.3073-11.004,1.2889-19.3339-.9174-7.5041-3.3003-13.3284-5.1556-17.0135-4.3823-2.8359-8.7647-5.6712-13.147-8.5071l-5.4136-6.9604c2.7376,7.0146,6.016,17.8681,6.4447,31.4499.3686,11.6827-1.4982,21.3647-3.3511,28.0984-.2785,1.7339-1.5739,8.7592-6.4447,10.8268-.3455.1464-2.0293.8613-2.5778.2581-.9709-1.0679,3.1485-4.5779,2.8356-8.2496-.1782-2.0917-1.8356-4.7149-7.7334-7.4753,1.5535-4.61,3.6673-12.8897,2.5778-23.2009-1.321-12.5025-6.6515-21.3714-9.538-25.5206-2.0622,7.7334-4.1245,15.4675-6.1867,23.2009-1.8665,4.9343-4.9961,8.0203-7.7336,7.7334-1.0901-.1143-2.5905-.8131-3.0934-2.0622-.2504-.6219-.3021-1.5019,1.2889-4.64.6757-1.3327,1.6751-3.1275,3.0934-5.1556,2.6547-8.4208,1.5912-14.0485.2578-17.5297-8.4551-22.0762-49.4569-14.4992-85.0687-43.5652Z"/>
  <path class="cls-2" d="M446.7569,884.0227c.4699-22.4453-8.7222-35.1036-.7734-44.5963,10.5922-12.6503,42.1331-8.3473,45.6278,2.0622,1.9844,5.9112-5.0907,13.7436-11.7292,19.6234,17.9998,2.2441,39.432,6.3572,62.8993,13.9208,30.244,9.7475,54.757,22.2881,73.2107,33.5115,5.6436,5.5669,6.3111,7.0968,5.9933,7.5081-.3258.4213-2.0619.1505-9.6024-4.4147-7.3897-1.5467-14.7796-3.0934-22.1693-4.64l6.1867,15.4675-2.0622,9.2801c-1.3487,3.3896-2.2941,5.0225-2.8358,4.8982-.7677-.1765-.7247-3.8824.1289-11.117-1.8474-2.739-3.6949-5.4779-5.5423-8.2169l-10.3114-4.64,6.7025,14.4357,1.5467,8.249c-.5345,1.1876-3.3757,7.4332-4.4791,7.0888-1.0743-.335.0436-6.7478.29-8.1199-2.7283-5.6712-5.4564-11.3423-8.1846-17.0135-.8803,3.2859-2.5265,7.9628-5.8002,12.8569-1.9556,2.9235-5.1909,6.9698-6.1867,6.4442-1.1147-.5884,2.1594-6.0704,1.9242-14.7179-.0924-3.4003-.1854-6.8146-2.2007-9.482-3.7866-5.0118-12.3584-3.3615-15.5772-4.3819-10.2398-3.2458-30.1915-4.0783-48.4634-3.0934-25.8666,1.3942-39.1209,6.378-43.8233-.5156-.1128-.1652-.2278-.3832-.4652-.8131-4.6915-8.4964-4.364-16.7039-4.3037-19.584Z"/>
  <path class="cls-2" d="M591.8057,814.1137c.4699-22.4453-8.7221-35.1036-.7733-44.5963,10.5922-12.6503,42.1331-8.3473,45.6278,2.0622,1.9843,5.9112-5.0907,13.7436-11.7292,19.6234,17.9998,2.2441,39.4319,6.3572,62.8993,13.9208,30.2439,9.7475,54.7569,22.2881,73.2106,33.5115,5.6436,5.5669,6.3111,7.0968,5.9933,7.5081-.3258.4213-2.0619.1505-9.6024-4.4147-7.3897-1.5467-14.7796-3.0934-22.1693-4.64l6.1867,15.4675-2.0622,9.2801c-1.3487,3.3896-2.2941,5.0225-2.8358,4.8982-.7677-.1765-.7247-3.8824.1289-11.117-1.8474-2.739-3.6949-5.4779-5.5423-8.2169l-10.3114-4.64,6.7025,14.4357,1.5467,8.249c-.5345,1.1876-3.3757,7.4332-4.4791,7.0888-1.0743-.335.0436-6.7478.29-8.1199-2.7283-5.6712-5.4564-11.3423-8.1846-17.0135-.8803,3.2859-2.5265,7.9628-5.8002,12.8569-1.9556,2.9235-5.1909,6.9698-6.1867,6.4442-1.1147-.5884,2.1594-6.0704,1.9242-14.7179-.0924-3.4003-.1854-6.8146-2.2007-9.482-3.7866-5.0118-12.3584-3.3615-15.5772-4.3819-10.2398-3.2458-30.1916-4.0783-48.4634-3.0934-25.8666,1.3942-39.1209,6.378-43.8233-.5156-.1128-.1652-.2277-.3832-.4652-.8131-4.6915-8.4964-4.3639-16.7039-4.3037-19.584Z"/>
  <path class="cls-8" d="M1084.1623,451.2939c14.3598,23.8796,28.7196,47.7586,43.0794,71.6382l-6.9601,46.4011-11.987-29.3876c-24.3725-19.7732-48.7449-39.5457-73.1174-59.3189,5.611-1.8964,11.7874-4.394,18.2693-7.7154,13.2484-6.7886,23.3863-14.7707,30.7157-21.6174Z"/>
  <path class="cls-9" d="M1585.4183,255.3554c-13.1281-1.768-49.3825-4.8741-87.6465,15.4675-29.7123,15.7958-46.2843,38.1-53.619,49.4945"/>
  <path class="cls-9" d="M1602.3266,307.0712c-8.8207-6.6673-34.0307-23.4499-71.9477-19.4918-29.4431,3.0739-52.3262,17.1692-63.1833,24.8048"/>
  <path class="cls-9" d="M1571.8349,337.805c-4.3148-6.1221-17.2158-22.0069-43.932-25.1835-20.7456-2.4664-39.8006,3.9214-49.0788,7.6246"/>
  <path class="cls-9" d="M1543.1418,395.5899c-1.3813-5.7922-7.0159-26.2862-26.8095-40.2144-12.1381-8.5412-24.2952-10.8803-30.8355-11.6352"/>
  <path class="cls-9" d="M1584.5462,393.213c-5.4307-8.9521-21.446-32.8695-51.8847-47.4122-23.6361-11.2923-44.5521-11.4773-54.6821-10.8693"/>
  <path class="cls-9" d="M1484.4832,501.192c3.1333-12.8707,10.0196-48.6004-6.2024-88.7845-12.5969-31.2033-33.0427-50.0203-43.6062-58.5081"/>
  <path class="cls-9" d="M1431.2809,512.5906c7.5546-8.0739,26.8853-31.3874,26.9203-69.5104.0268-29.6031-11.5941-53.8367-18.0505-65.4338"/>
  <path class="cls-9" d="M1403.9099,479.0476c6.5404-3.6498,23.6891-14.8161,29.6464-41.0527,4.6257-20.3732.2689-39.9924-2.4421-49.6075"/>
  <path class="cls-9" d="M1349.448,444.4599c5.905-.7671,26.8765-4.2241,42.8012-22.45,9.7656-11.1767,13.3651-23.022,14.8009-29.4472"/>
  <path class="cls-9" d="M1347.4752,485.8856c9.4717-4.4631,34.935-17.8853,52.5858-46.6334,13.7058-22.3234,16.0805-43.1049,16.5369-53.2428"/>
  <path class="cls-4" d="M336.9713,639.5826c-.5456,1.4504-1.2001,3.6778-1.2889,6.4442-.0563,1.7546-.2412,7.5181,3.8667,12.3741,2.4518,2.8988,5.4059,4.2596,7.2179,4.8975-136.5539,85.1378-209.3928,155.7736-248.5026,194.8833-.0007.0007-.001.0013-.001.0013-6.5209,6.6782-15.0628,16.7347-22.5508,30.4415-16.3864,29.9955-18.6009,60.7693-17.0138,73.4684,7.7772,62.2271,157.0502,92.1824,181.8612,97.1615,185.449,37.2147,368.7672-1.0298,368.6266-1.6543-.0015-.0067-.1703.0281-.5112.1077-317.2916,73.9773-556.3493,24.3042-586.2005-71.1481-26.9814-86.2759,110.0772-231.9402,314.4963-346.9771Z"/>
  <path class="cls-7" d="M1157.0041,191.7796c-73.0632-10.352-187.024-16.722-319.1363,17.0135-36.8499,9.4098-182.291,49.3093-327.901,171.1689-94.3571,78.9664-192.2893,160.9252-179.4176,261.9083,8.7669,68.7789,65.1056,116.3456,98.989,139.9764,2.2825,46.1992,13.8871,77.9125,30.1607,80.4288,4.6262.7155,8.6953-1.0732,13.147-3.0934,19.6823-8.9317,29.4787-28.0021,37.1209-44.0808,10.2162-21.4944,7.8274-27.1696,17.7911-41.2422,7.9198-11.1859,17.0723-18.395,23.4543-22.6887,10.2736-1.9559,22.7984-2.6052,29.3649,4.5438,5.4806,5.9667,2.1182,12.2578,8.249,19.0758,7.7045,8.5686,22.02,8.6489,30.9342,6.4448,4.6603-1.1522,12.5338-3.0987,16.9-9.6552,7.4806-11.2333-3.4282-23.8455-1.9486-39.5818.949-10.0932,7.2832-24.5403,34.0499-40.633,15.2251-11.6339,37.2466-29.7534,61.0948-54.6501,34.9306-36.4664,43.7227-56.0938,65.7348-78.1085,21.5867-21.5887,57.4178-47.0043,119.0962-60.3213,16.6354-5.948,37.6214-11.2039,62.0554-11.9034,24.5271-.7021,35.0449,3.5354,53.6895.0448,13.6694-2.5591,33.2664-9.8137,54.9079-32.2229,19.5166-12.3581,52.724-29.9594,97.4423-38.1515,39.4422-7.2252,72.7135-4.3599,94.349-.7737,16.0835,2.9456,40.8241,5.8377,70.3749,2.3204,51.8211-6.168,134.9246-34.0096,136.8832-75.7888,1.4842-31.6592-43.8205-67.1901-106.2069-85.5844-6.4198-8.7625-20.3108-25.1468-43.8233-35.8318-35.4507-16.1101-68.2592-8.1253-77.8507-5.4131-33.1682-7.7334-66.3363-15.4675-99.5046-23.2009Z"/>
  <path class="cls-12" d="M1167.6474,196.6543c1.7001-14.7259,8.0561-20.1396,9.9795-21.5954,12.8253-9.7087,38.8677-2.6233,59.2902,23.3708,3.2328-14.2217,10.3724-25.5868,17.7872-26.1204,9.0033-.6473,21.2811,14.4698,22.8677,39.3424-8.4034,2.7958-16.8069,5.5916-25.2103,8.3874"/>
  <path class="cls-2" d="M1231.8903,280.4569c-.0033.0288-.012.0421-.0226.0468-.4599.1993-13.2672-12.2732-8.2264-24.2782,3.7204-8.8608,14.3337-10.7278,14.9514-10.8268-.0807-1.8529.0015-4.1425.5156-6.703,1.0281-5.1208,3.2923-8.8755,4.8978-11.0842-21.1863-35.9054-48.1774-55.264-62.6415-49.2371-16.235,6.7651-18.6809,46.343-5.6712,74.2421,12.898,27.6597,38.7583,39.0596,46.9165,42.2767,5.1921,1.6269,10.3973-.993,11.8581-5.1563,1.0748-3.0626.039-6.7237-2.5778-9.2801Z"/>
  <ellipse class="cls-2" cx="1472.52" cy="340.9525" rx="12.1043" ry="19.5465"/>
  <ellipse class="cls-1" cx="1332.9417" cy="281.7461" rx="26.8095" ry="19.8494"/>
  <path class="cls-6" d="M1351.5562,278.5241c-.0201,6.1332-8.6769,8.927-9.2801,8.2496-.4234-.4761,3.142-2.6427,3.6193-6.7678.6083-5.2586-4.3468-8.9919-3.6193-9.7308.8379-.8506,9.2998,2.1786,9.2801,8.249Z"/>
  <ellipse class="cls-6" cx="1333.135" cy="286.3862" rx="4.4468" ry="1.5467"/>
  <path class="cls-13" d="M733.4751,824.3206c-.4664,1.0773-23.7848-7.9494-31.063-10.8268-22.6073-8.9377-20.2679-9.8659-26.44-10.9933-25.5418-4.6655-50.6936,13.9563-53.344,9.4466-1.1403-1.9405,3.1051-6.0858.9022-10.0538-.7954-1.433-1.932-1.9425-3.0934-4.3826-.1336-.2809-.9862-2.2381-1.0702-4.6481-.2379-6.816,5.8591-13.2528,5.8627-13.2588h0c5.3034-2.2314,5.8398-2.5918,6.6963-3.2211.3216-.2367,1.2169-1.0652,3.0069-2.7236.0899-.0836,1.4935-1.3922,1.6724-1.9914.006-.0207.0247-.0863.0552-.0883.1265-.0067.3389,1.1027.3606,2.0602.0015.0675.0171.9703-.2063,1.9245-.7999,3.4183-3.0131,6.4428-3.0138,6.4435s-2.2359,3.0559-8.3947,8.9765h0c.0005,0,7.9517,1.308,10.2871,1.6985,10.0494,1.6818,13.1933,2.6313,20.1375,3.8818,10.1165,1.8215,16.969,2.2421,20.5454,2.6219,26.7983,2.8466,57.8451,23.4115,57.0992,25.1341Z"/>
  <path class="cls-13" d="M455.8519,898.5293c3.6399,9.7402,43.4118,3.0211,43.4909,3.7387.0351.3183-7.7521,2.0716-19.2693,2.2234-9.2419.1217-26.2431.3457-27.9864-5.4625-1.0273-3.4224,3.4565-8.2316,4.3414-7.8585.7711.325-1.6928,4.3719-.5766,7.3589Z"/>
  <path class="cls-13" d="M594.2267,923.0856c-.1207.2749-.4327.5784-.8015.3571-.8039-.4826-.7385-2.7744-2.2443-5.3343-2.1535-3.6608-6.2414-5.6918-6.2078-5.9341.0333-.2397,3.2768,1.1372,5.9626,4.3228,1.8156,2.1533,3.8178,5.3891,3.2911,6.5885Z"/>
  <path class="cls-11" d="M482.3587,827.3566c2.7807,3.0138-4.9847,22.9428-18.0449,22.9428-9.9659,0-18.0449-10.2718-18.0449-22.9428,0-13.8753,13.7676-24.8827,18.0449-22.9428,4.7266,2.1432-1.9083,20.1771,5.1557,24.232,4.694,2.6948,11.014-3.3221,12.8892-1.2892Z"/>
  <ellipse class="cls-11" cx="370.4588" cy="628.7342" rx="30.6546" ry="71.9217"/>
  <ellipse class="cls-11" cx="409.862" cy="536.9108" rx="26.6806" ry="12.7603" transform="translate(-236.6373 341.2104) rotate(-35.8015)"/>
  <ellipse class="cls-11" cx="406.5028" cy="571.8127" rx="6.493" ry="13.5764" transform="translate(-285.2707 454.9209) rotate(-45)"/>
  <path class="cls-11" d="M1038.4773,183.4196c0,.0007-32.606.6874-32.7901.6914-18.2934.3858-132.0397,9.9093-223.1665,38.6383-175.8999,55.4546-321.836,199.5903-320.5869,201.258,1.0664,1.4236,120.7845-85.8044,255.206-151.5769,18.838-9.2172,40.5182-19.263,70.3353-26.7918,38.4619-9.7114,116.8071-7.0948,150.8433-8.7819,83.1412-4.1218,207.2941-49.4678,216.4006-38.6738.4367.5176,3.4376,4.5177,6.9293,4.1693,3.5528-.3544,7.2954-5.1777,7.3153-5.1951h0c.0018-.006.8902-2.3404.8977-2.7657.1267-7.1644-86.4691-9.7656-86.4703-9.7656-18.4027-.553-33.8165-.9435-44.9138-1.2063Z"/>
  <path class="cls-11" d="M638.8626,763.0317c1.6196,2.2027-1.0856,6.6936-2.2025,8.5479-5.9229,9.8324-17.7925,11.9455-19.9669,12.3327-.599.1063-15.2425,2.5109-25.005-5.6712-1.487-1.2464-4.0233-3.3722-5.6712-6.9925-1.3006-2.8573-.838-3.9887-2.1911-8.7645-1.7491-6.1734-3.4474-7.5502-2.7067-8.4743,1.9026-2.3745,12.168,7.8819,25.5206,6.7023,7.6082-.672,13.4532-4.8126,14.1781-3.6089.8387,1.3922-7.1132,6.7277-6.1869,8.5071,1.4019,2.6928,20.8169-7.2232,24.2317-2.5785Z"/>
  <path class="cls-11" d="M581.7613,756.5474c-.3444.6306-6.4967-4.1827-15.3578-5.0948-12.9392-1.332-23.6352,6.4776-26.6397,8.8795-3.611,2.8867-6.0663,5.9193-8.7585,9.244-5.9477,7.3456-8.3577,12.9077-8.5403,12.8108-.2883-.1531,3.066-15.4321,15.6042-25.316,9.031-7.1189,22.862-11.4667,34.23-7.0741,5.4664,2.1124,9.7565,6.0115,9.4621,6.5505Z"/>
  <path class="cls-11" d="M623.6966,729.5717c-11.3913-9.3537-2.966-49.9118,18.5605-76.5618,29.8569-36.9632,82.0797-43.6588,107.3348-69.4041,14.7466-15.0328,19.4046-24.0949,19.4051-24.0956,7.141-11.7115,6.8171-17.2255,21.5825-29.2653,54.7959-44.6826,144.2795-38.0726,144.2816-38.0733.0003,0-15.5212,5.8805-16.8076,6.3659-17.8999,6.7571-34.3734,8.9009-48.8501,13.1471-23.6101,6.925-39.703,18.7936-50.3967,26.6801-17.3358,12.7854-25.9208,24.1397-40.6009,41.7611-45.9757,55.1871-68.9636,82.7813-90.3855,97.3093-6.33,4.293-45.3508,30.18-49.8812,45.4342-.3842,1.2939-2.0895,7.7943-6.509,9.0226-.001,0-3.5957,1.0773-7.7336-2.3204Z"/>
  <path class="cls-5" d="M1378.1827,256.2254c.9305.9215,9.7413,9.9434,7.7379,22.5683-1.6472,10.3801-9.9262,18.9213-20.8483,21.3633-.9156-.0535-2.0816-.0448-2.2234.3872-.4627,1.4116,10.3779,6.1847,12.6314,7.1209,22.7709,9.4593,43.5435-9.4071,66.766-2.0622,6.1501,1.9452,14.5985,6.4214,22.9428,18.0446,4.1397,3.847,9.9112,3.0044,11.8581.2581,1.9404-2.737.8399-8.4355-4.1247-11.0849-8.154-10.1594-22.3667-25.31-44.081-37.8941-19.8615-11.5102-38.3245-16.4257-50.6589-18.7013Z"/>
  <path class="cls-5" d="M1236.4704,215.25h0c.0012.002,4.2952,8.927,6.8313,12.5025,5.8507,8.2483,17.6763,9.6399,24.1028,10.3112,27.1938,2.8413,36.8643-12.8436,58.5511-12.2491,30.7934.8446,51.5133,31.2433,52.2271,30.4107.9726-1.1341-18.9209-28.6106-53.6792-40.9754-14.1294-5.0266-31.2102-11.1029-46.9165-4.5117-5.4393,2.2829-10.0954,5.825-18.9472,6.5739-9.8998.8379-22.1695-2.0622-22.1695-2.0622Z"/>
  <path class="cls-3" d="M394.6826,641.6624c0,29.5095-10.196,53.4311-22.7734,53.4311-15.1587,0-33.1926-41.4498-22.7734-53.4311,4.3754-5.0313,10.7636-1.3127,17.2652-6.6429,14.4741-11.8664,1.0837-45.2761,5.5082-46.7877,3.9592-1.3526,22.7734,22.7392,22.7734,53.4305Z"/>
  <path class="cls-10" d="M336.9765,1079.6422c.0033,1.6951-75.1809,14.2739-164.4661-9.7957-50.5716-13.6333-90.6866-34.9853-90.1952-36.2357.4815-1.225,39.7811,17.2643,93.8042,30.5645,92.3423,22.7342,160.854,13.8486,160.8571,15.4668Z"/>
  <ellipse class="cls-10" cx="368.684" cy="1084.2826" rx="13.6625" ry="2.0623"/>
  <path class="cls-10" d="M57.8709,1003.5138c6.7491,8.0898,8.8528,17.4575,4.6986,20.9233-4.1542,3.4658-12.993-.2829-19.7422-8.3727-6.7491-8.0898-8.8528-17.4575-4.6986-20.9233,4.1542-3.4652,12.9931.2829,19.7423,8.3727Z"/>
  <ellipse class="cls-10" cx="281.9977" cy="689.4412" rx="56.0115" ry="7.662" transform="translate(-337.4169 275.7052) rotate(-34.0135)"/>
  <ellipse class="cls-10" cx="215.8182" cy="739.6901" rx="4.6401" ry="5.9935"/>
</svg>