<?xml version="1.0" encoding="UTF-8"?>
<svg id="Layer_1" data-name="Layer 1" xmlns="http://www.w3.org/2000/svg" viewBox="0 0 1621.4173 1264.252">
  <defs>
    <style>
      .cls-1 {
        fill: #e5e0e4;
      }

      .cls-2 {
        fill: #010101;
      }

      .cls-3 {
        fill: #cccbca;
      }

      .cls-4 {
        fill: #cc2128;
      }

      .cls-5 {
        fill: #fff;
      }

      .cls-6 {
        fill: #eb2127;
      }

      .cls-7 {
        stroke-width: .322px;
      }

      .cls-7, .cls-8, .cls-9, .cls-10, .cls-11, .cls-12, .cls-13, .cls-14, .cls-15 {
        fill: none;
        stroke: #929497;
        stroke-linecap: round;
        stroke-linejoin: round;
      }

      .cls-8 {
        stroke-width: .8362px;
      }

      .cls-9 {
        stroke-width: 1.0942px;
      }

      .cls-10 {
        stroke-width: .4486px;
      }

      .cls-11 {
        stroke-width: .3406px;
      }

      .cls-12 {
        stroke-width: .4241px;
      }

      .cls-13 {
        stroke-width: .555px;
      }

      .cls-14 {
        stroke-width: .6348px;
      }

      .cls-15 {
        stroke-width: .587px;
      }
    </style>
  </defs>
  <circle class="cls-1" cx="810.7087" cy="632.126" r="48.1453"/>
  <circle class="cls-6" cx="805.3693" cy="621.0581" r="33.9516"/>
  <circle class="cls-2" cx="803.802" cy="618.3711" r="16.9758"/>
  <circle class="cls-5" cx="807.2961" cy="616.4465" r="3.5048"/>
  <path class="cls-3" d="M798.9029,678.5189c.0491.6582,24.6447,6.022,42.3347-8.0704,17.8737-14.2386,17.976-39.7982,17.3628-39.9827-.5938-.1787-1.8127,23.4545-19.2074,37.4003-17.3301,13.894-40.5379,10.0122-40.49,10.6528Z"/>
  <path class="cls-4" d="M816.0419,595.4372c.3256-.2845,14.6341,8.9091,14.7773,22.6707.1074,10.3136-7.7936,18.1898-8.2363,17.9517-.4281-.2303,6.3681-7.919,5.9507-18.2316-.5402-13.3468-12.8003-22.1212-12.4918-22.3908Z"/>
  <path class="cls-9" d="M819.9964,679.006c-1.2533-5.2317.2422-10.2339,3.7074-12.5641,1.7203-1.1569,3.5861-1.4265,4.9433-1.4418"/>
  <path class="cls-13" d="M819.529,673.307c.6356-2.6534-.1229-5.1903-1.8803-6.3721-.8725-.5867-1.8187-.7235-2.5071-.7312"/>
  <path class="cls-9" d="M847.8614,663.4135c1.2533-5.2317-.2422-10.2339-3.7074-12.5641-1.7203-1.1569-3.5861-1.4265-4.9433-1.4418"/>
  <path class="cls-13" d="M848.4607,658.289c-.6356-2.6534.1229-5.1903,1.8803-6.3721.8725-.5867,1.8187-.7235,2.5071-.7312"/>
  <path class="cls-15" d="M847.8614,662.3467c.6119-3.0842-.1183-6.0331-1.8102-7.4068-.84-.682-1.7509-.841-2.4136-.85"/>
  <path class="cls-8" d="M778.3577,667.5957c1.1229-3.955,3.9915-6.7283,7.1726-6.9841,1.5793-.127,2.9234.3916,3.8334.8894"/>
  <path class="cls-12" d="M779.8764,663.9569c1.4166-1.5301,1.8607-3.5043,1.132-4.9495-.3618-.7175-.9411-1.1628-1.3968-1.4255"/>
  <path class="cls-10" d="M778.757,666.8849c.7466-2.2841,2.3367-3.9757,3.9782-4.2578.8149-.1401,1.4814.0949,1.9263.337"/>
  <path class="cls-14" d="M853.5078,610.5369c-2.6815-1.5973-5.7104-1.6323-7.5993-.1152-.9378.7532-1.4092,1.7401-1.6519,2.4892"/>
  <path class="cls-7" d="M850.7727,609.3204c-1.5794-.1059-2.8537-.9639-3.205-2.1414-.1744-.5846-.0868-1.1323.0277-1.5149"/>
  <path class="cls-11" d="M852.9168,610.3528c-1.6027-.8713-3.3622-.9759-4.4151-.2758-.5228.3475-.768.8247-.8874,1.1902"/>
</svg>