<?xml version="1.0" encoding="UTF-8"?>
<svg id="Layer_1" data-name="Layer 1" xmlns="http://www.w3.org/2000/svg" viewBox="0 0 1621.4173 1264.252">
  <defs>
    <style>
      .cls-1 {
        stroke: #231f20;
        stroke-linecap: round;
        stroke-linejoin: round;
        stroke-width: 4.4893px;
      }

      .cls-1, .cls-2 {
        fill: #231f20;
      }

      .cls-3 {
        fill: #808184;
      }

      .cls-4 {
        fill: #fff;
      }

      .cls-5 {
        fill: #522b14;
      }

      .cls-6 {
        fill: #929497;
      }

      .cls-7 {
        fill: #754d29;
      }
    </style>
  </defs>
  <path class="cls-7" d="M820.3469,729.836c-.9326,4.3376-4.0758,7.3513-7.6056,7.3092-3.4764-.0415-6.54-3.0377-7.4581-7.3092v-260.3834c-.2074-10.9831,3.1285-20.1485,7.1043-20.7035,4.2666-.5956,8.1632,8.8797,7.9595,20.7035v260.3834Z"/>
  <g>
    <rect class="cls-2" x="785.8328" y="703.6578" width="51.6523" height="31.981" rx="2.9941" ry="2.9941"/>
    <path class="cls-2" d="M834.0457,707.0974v25.1017h-44.7729v-25.1017h44.7729M834.491,700.2184h-45.6636c-3.5532,0-6.4336,2.8805-6.4336,6.4337v25.9923c0,3.5532,2.8804,6.4337,6.4336,6.4337h45.6636c3.5532,0,6.4336-2.8805,6.4336-6.4337v-25.9923c0-3.5533-2.8804-6.4337-6.4336-6.4337h0Z"/>
  </g>
  <ellipse class="cls-4" cx="792.8028" cy="722.534" rx="5.8719" ry=".9338"/>
  <path class="cls-5" d="M820.2353,466.2024h0s.2256,234.0181.2257,234.1093c-3.4299.0053-6.8597.0106-10.2896.0159,1.9939-.499,4.8603-1.9126,6.3958-6.5002,1.2261-3.663,1.0887-7.8138,1.0619-9.0061-.2231-9.9325.9032-96.8576,2.6062-218.6189Z"/>
  <path class="cls-4" d="M789.2599,714.4968c-.0344-.1894,33.9735-11.7995,43.2556.6977,2.4057,3.239,3.5707,8.6631,2.7907,9.0697-.7869.4102-3.3573-4.3888-6.2791-7.3256-12.0474-12.1091-39.7361-2.2707-39.7672-2.4418Z"/>
  <path class="cls-1" d="M733.8966,815.5295c-2.3204-50.8041,42.0989-89.0823,85.172-84.7974,38.0883,3.7889,71.1689,40.4655,68.3742,84.7974"/>
  <line class="cls-1" x1="887.4428" y1="815.5295" x2="733.8966" y2="815.5295"/>
  <path class="cls-3" d="M780.9207,805.4206c22.9499,1.669,37.69.1721,56.1977-2.0033,15.772-1.8538,21.0492-7.1436,32.9548-5.3775,1.1307.1677,12.2222,1.8649,12.2531,4.4051.0607,4.9871-42.4926,14.5969-86.7202,9.2402-28.5817-3.4617-54.7541-12.8097-54.6943-12.8909.2656-.361,15.5478,4.8477,40.0088,6.6264Z"/>
  <path class="cls-6" d="M768.0513,763.5634c.5014,2.4509-4.2696,6.6359-8.2958,5.7202-1.8296-.4161-4.0962-2.0198-4.0826-4.0826.0175-2.6602,3.8136-3.992,4.0826-4.0825,3.3853-1.1394,7.8638.3333,8.2958,2.4449Z"/>
</svg>