<?xml version="1.0" encoding="UTF-8"?>
<svg id="Layer_1" data-name="Layer 1" xmlns="http://www.w3.org/2000/svg" viewBox="0 0 1621.4173 1264.252">
  <defs>
    <style>
      .cls-1 {
        fill: #a2a5b1;
      }

      .cls-2 {
        fill: #828690;
      }

      .cls-3 {
        fill: #979ba6;
      }

      .cls-4 {
        fill: #44464e;
      }

      .cls-5 {
        fill: #797d86;
      }

      .cls-6 {
        fill: #81848d;
      }

      .cls-7 {
        fill: #54575e;
      }

      .cls-8 {
        fill: #8f929c;
      }

      .cls-9 {
        fill: #7a7f88;
      }

      .cls-10 {
        fill: #8c909a;
      }
    </style>
  </defs>
  <path class="cls-3" d="M564.4398,841.5685c-25.7498,4.5182-62.8409,7.817-105.3945-.6104-34.6615-6.8639-58.8037-18.7081-65.3618-21.7762-42.0546-19.6732-131.2005-38.7205-329.4686-43.1421-44.572-47.5762-49.7823-66.4278-44.6325-74.3707,3.8921-6.0017,11.3161-2.0966,19.1136-9.2939,18.23-16.8322-3.8978-55.2425,14.1217-71.2772,7.595-6.7623,17.4169-4.8591,18.2177-10.5862,1.0856-7.7717-15.3751-12.1049-21.2469-24.8563-4.1986-9.1191-3.5711-24.0842,14.9043-50.0142,91.5872,5.7887,161.2869,23.9129,208.9203,39.9394,33.0269,11.1114,46.461,18.1924,76.6816,27.3271,80.6,24.3615,151.4942,24.3056,199.6719,20.1862,4.8244,72.8248,9.6488,145.6497,14.4732,218.4745Z"/>
  <path class="cls-3" d="M1041.4809,619.8345c15.0972-18.2329,29.1268-30.7231,38.3819-38.2917,23.9986-19.629,51.3713-35.2219,172.6719-80.4494,28.5434-10.6413,26.2619-9.4504,34.4905-12.7137,85.3482-33.8314,144.4017-80.8336,181.6714-116.3183,83.9506,72.3982,97.6653,103.3171,90.5354,117.3066-2.8514,5.595-11.5532,13.4064-8.8614,19.116,3.1481,6.6792,17.7357,1.6739,29.9033,7.4711,9.312,4.4364,19.4444,16.2682,23.0066,48.7195-77.4174,17.1114-176.4085,47.1238-283.3313,101.9684-78.0267,40.0242-141.9313,83.8587-192.2527,123.621-28.7386-56.8098-57.4771-113.6197-86.2157-170.4295Z"/>
  <path class="cls-1" d="M549.9666,623.094c24.3788,17.1875,155.603,106.0971,324.6397,71.3153,104.7581-21.5554,173.0727-80.1283,202.2521-108.5923,9.2785,4.6327,51.5478,26.983,69.2703,77.7914,22.4781,64.4442-13.887,119.1786-17.9164,125.0195-47.476,29.8253-115.7422,64.5009-202.9144,84.314-187.1393,42.5311-342.6512-10.4321-407.9135-37.2277-7.2602-19.7383-21.4816-66.7732-8.8476-124.4428,9.2621-42.2751,28.9895-72.1472,41.4299-88.1774Z"/>
  <path class="cls-3" d="M677.4827,754.3855c1.1487-4.7935,92.8758,41.195,208.6709,10.0772,83.6093-22.4666,135.8653-73.336,147.1447-60.9655,8.5462,9.3726-10.6196,50.4474-41.6373,75.8257-102.2773,83.682-315.9253-17.6422-314.1783-24.9374Z"/>
  <path class="cls-6" d="M1075.6654,585.0898c3.6876-3.2135,63.8066,34.3331,76.7125,97.6123,11.4527,56.1506-19.2472,108.1568-24.1242,107.0038-4.4829-1.0597,15.2861-46.4622,1.7211-105.0194-14.6198-63.1078-57.5873-96.7399-54.3093-99.5967Z"/>
  <path class="cls-6" d="M549.9668,623.0939c-3.3874-2.2621-53.9432,40.2011-62.0253,103.3723-7.6136,59.5061,25.9028,110.4971,29.8625,109.2876,3.689-1.1267-20.1968-46.9804-11.3208-109.0436,9.1046-63.666,46.561-101.5615,43.4836-103.6164Z"/>
  <path class="cls-1" d="M178.0729,581.3626c2.2028-4.8176,80.9585,32.3664,187.2509,61.9093,63.399,17.6212,101.2749,22.707,100.9521,24.614-.9958,5.9169-363.4048-53.9366-363.2323-55.0421.1006-.6337,119.204,21.7172,123.7326,6.1014,3.1369-10.817-50.5032-33.6406-48.7033-37.5826Z"/>
  <path class="cls-1" d="M1522.7046,496.805c-.7269-2.0783-74.2803,18.8731-176.8582,59.5215-17.8567,7.0759-106.8946,42.3559-105.0718,47.5745,1.4662,4.2,59.5472-17.533,145.5109-35.0515,113.8512-23.199,205.6648-24.5492,205.446-28.9694-.2516-5.0686-120.6689,2.4779-123.1146-13.7662-1.7017-11.3036,54.7266-27.4867,54.0878-29.3088Z"/>
  <path class="cls-1" d="M1351.1707,480.5038c-1.4779-4.5405,21.2202-9.0167,62.5024-39.45,35.0182-25.8172,47.5281-43.8588,62.4983-39.4525,11.5181,3.3909,21.3789,19.1488,19.2269,32.0333-6.9655,41.7334-140.6818,57.7593-144.2275,46.8693Z"/>
  <path class="cls-1" d="M138.9384,701.6858c.6869-3.0806,61.5376,6.2546,117.8975,22.1919,39.4389,11.1523,88.5307,28.8877,87.7156,31.5957-1.6465,5.4594-206.8903-48.0653-205.6131-53.7875Z"/>
  <polygon class="cls-8" points="103.6365 645.2356 90.155 660.0373 102.5403 771.5922 103.3778 666.4159 103.6365 645.2356"/>
  <path class="cls-3" d="M1096.5909,719.0065c-9.0839-2.3007-31.2957,30.4091-22.7746,42.7193,4.122,5.9556,15.3937,7.0692,22.2103,3.1274,15.3058-8.8529,9.0241-43.7045.5643-45.8467Z"/>
  <path class="cls-3" d="M553.9589,728.0644c24.7778,18.6956,49.5596,37.3939,74.3374,56.0895"/>
  <path class="cls-6" d="M525.2038,755.9781c-.9925,1.7037,46.7673,42.4384,118.7582,62.3442,55.0072,15.2105,103.0603,12.4265,103.2342,10.6637.168-1.6996-44.2246-1.8885-102.3812-18.9222-74.3463-21.7748-118.6709-55.6984-119.6112-54.0857Z"/>
  <path class="cls-4" d="M1468.697,372.0616c-1.5541,1.4461,22.9867,34.4204,49.1307,65.6652,17.7842,21.253,28.7179,32.6678,26.7766,47.8368-1.9286,15.0708-15.1963,22.3993-11.7444,28.8333,4.7494,8.8535,29.9312-4.8377,47.7729,9.2126,7.6669,6.0381,12.6407,15.7665,15.2538,20.9802,5.483,10.9403,6.8926,20.2052,7.3934,20.0849.5204-.1248.0828-10.3824-4.654-21.3677-2.3396-5.4248-8.8521-20.4791-23.6627-27.4292-12.4822-5.8578-21.5924-1.6748-24.5927-7.3937-2.8628-5.4584,4.2949-10.5192,6.6374-20.8055,4.4492-19.5204-12.8132-39.7918-30.4263-60.4729-5.6807-6.6707-11.9829-12.8862-24.6194-25.2877-6.0735-5.9606-31.8065-31.2139-33.2653-29.8562Z"/>
  <path class="cls-5" d="M64.8553,535.6473c2.5458.6694-8.897,22.1465,1.0295,43.5197,7.7665,16.7235,23.3219,21.9925,21.1478,31.6056-1.2189,5.39-6.3751,4.8907-14.1962,13.2466-9.1172,9.7386-12.9605,22.0073-13.6759,30.3548-1.2147,14.1801,5.9991,23.8998,10.6588,33.1836,17.4294,34.73,9.6376,84.5242-3.0494,88.5245-16.4026,5.1726-54.6291-61.9099-44.8722-71.5654,4.748-4.6989,20.1126,4.9436,26.6953-2.4077,1.6972-1.8953,2.2625-4.3096,2.0577-12.3055-.4432-17.2649-3.5389-23.4527-4.1462-35.6417-.5583-11.19-.93-18.5729,3.4113-25.4704,7.9657-12.6642,23.5113-10.5273,24.9448-18.2362,1.4784-7.9481-14.8232-11.4106-21.4157-25.9996-9.5394-21.1099,8.4454-49.5883,11.4106-48.8084Z"/>
  <path class="cls-7" d="M549.9665,623.094c-.0428.0638,15.4916,10.5495,15.9797,10.8788,166.269,112.1322,306.058,77.1773,306.058,77.1773l147.3192-72.7096h0c19.1434-16.4177,56.8972-53.2454,56.59-53.5775-.0238-.0256-.2693.1662-.3366.2188-113.8561,88.0322-211.6925,107.7005-211.6925,107.7005-39.2637,4.9433-71.7604,4.3665-94.2975,2.8723-109.5815-7.265-184.8071-49.549-202.8579-61.4861-1.8627-1.2321-16.7203-11.1367-16.7624-11.0745Z"/>
  <path class="cls-9" d="M517.2906,835.6936h0c117.5507,48.9252,134.6672,49.8436,168.9032,51.6797.0631.0035,5.8336.311,5.8336.311h0c6.2881.209,12.1287-.0908,43.3616.1795,33.6847.2903,59.8203.9236,80.6974,1.6183,72.3965,2.4091,66.5488,2.9733,78.2736,2.6966,0,0,138.5287-3.2703,235.149-102.7923.0056-.0063,1.5626-1.6106,1.564-1.6109-.0028.0011-11.8973,4.5183-13.5454,5.1467-15.864,6.0454-25.2772,11.0231-52.0314,22.1991-11.0992,4.6368-18.1335,7.4789-18.1335,7.4789-12.1933,4.9692-16.9076,6.7555-28.0699,11.5354-41.3909,17.7285-45.5595,21.7618-60.063,26.9751-33.8418,12.1596-62.3773,8.6042-89.8637,6.368-124.5233-10.1324-135.9352,15.0922-235.9303-2.665-20.6134-3.6606-36.0159-7.5179-60.9102-14.0016-6.03-1.5706-23.2602-6.8516-39.2715-10.9954-1.8206-.4713-15.9636-4.1231-15.9636-4.1231Z"/>
  <path class="cls-2" d="M553.2094,648.0711c-.9737-.9098-35.5779,22.202-32.313,48.2031,1.0561,8.4156,6.0893,17.2095,7.4407,16.8348,1.2831-.3572-1.1384-8.8963-1.1408-17.2277-.01-27.7892,26.8869-46.9945,26.0131-47.8102Z"/>
  <path class="cls-10" d="M742.2644,776.311c.6426-4.8951,73.309,21.3239,164.836-10.3773,66.5341-23.0434,106.6402-64.0904,115.0563-55.3387,6.5786,6.8402-9.5633,40.5953-35.0669,62.7694-81.8972,71.2038-245.79,10.3037-244.8254,2.9465Z"/>
</svg>