<?xml version="1.0" encoding="UTF-8"?>
<svg id="Layer_1" data-name="Layer 1" xmlns="http://www.w3.org/2000/svg" viewBox="0 0 1621.4173 1264.252">
  <defs>
    <style>
      .cls-1 {
        fill: #a26e2e;
      }

      .cls-2, .cls-3 {
        fill: #bc8e5b;
      }

      .cls-4, .cls-5 {
        fill: #3a2216;
      }

      .cls-6 {
        fill: #b17d53;
      }

      .cls-6, .cls-7, .cls-3, .cls-8, .cls-9, .cls-5, .cls-10, .cls-11, .cls-12, .cls-13 {
        fill-rule: evenodd;
      }

      .cls-14, .cls-13 {
        fill: #dcb79d;
      }

      .cls-15 {
        fill: #a46f46;
      }

      .cls-7 {
        fill: #af804b;
      }

      .cls-8 {
        fill: #ba8048;
      }

      .cls-9, .cls-16 {
        fill: #4b2b19;
      }

      .cls-17 {
        fill: #895623;
      }

      .cls-18 {
        fill: #956237;
      }

      .cls-10 {
        fill: #d5a87b;
      }

      .cls-11 {
        fill: #a3723f;
      }

      .cls-12, .cls-19 {
        fill: #61381c;
      }
    </style>
  </defs>
  <path class="cls-19" d="M603.1193,557.8679c143.0739.7749,286.1479,1.5498,429.2218,2.3247,1.651-.0162,4.0082.0921,6.7351.7005,26.4092,5.8927,40.246,48.1592,43.1406,75.9491,4.5132,43.3283-12.793,97.3564-44.2328,106.0034-3.0424.8368-5.7297,1.1145-7.7362,1.1977-142.3762,1.0886-284.7523,2.1773-427.1285,3.266v-189.4414Z"/>
  <ellipse class="cls-17" cx="603.1193" cy="652.5886" rx="64.6277" ry="94.7207"/>
  <path class="cls-12" d="M722.1656,564.3505c0-3.254-25.1197-36.3364-25.1197-36.3364,16.4361-2.4678,32.8715-4.9355,49.3076-7.4033,3.2118,3.7768,7.4393,8.3057,12.7763,13.0284,3.3509,2.965,10.2805,8.79,19.8285,14.4413,15.0814,8.9266,29.1235,13.1035,38.7719,15.1853-31.8551.3616-63.7095.7231-95.5646,1.0847Z"/>
  <ellipse class="cls-17" cx="722.4684" cy="525.321" rx="25.6824" ry="8.1354" transform="translate(-40.5858 60.9171) rotate(-4.6964)"/>
  <ellipse class="cls-1" cx="599.6469" cy="657.1845" rx="50.1426" ry="73.4908"/>
  <ellipse class="cls-2" cx="601.0822" cy="656.9711" rx="31.1133" ry="45.6007"/>
  <ellipse class="cls-18" cx="723.608" cy="525.916" rx="18.3928" ry="5.8263" transform="translate(-40.6307 61.0124) rotate(-4.6964)"/>
  <ellipse class="cls-15" cx="724.3336" cy="526.1168" rx="10.8032" ry="3.4221" transform="translate(-40.6447 61.0725) rotate(-4.6964)"/>
  <path class="cls-9" d="M992.4771,599.2857c-.0312,1.6643-28.903.3497-87.9195,4.3387-24.3678,1.647-42.1177,3.4035-70.9909,3.254-14.9358-.0774-25.8179-.6283-34.9494-1.0847-98.6665-4.9312-123.9775-5.366-123.961-6.508.0266-1.8323,65.2227-2.7139,104.8481-2.7117,28.2724.0016,34.3619.4526,57.8849,0,39.9702-.7691,46.2369-2.5301,73.7213-2.7116,42.0008-.2774,81.4029,3.4782,81.3665,5.4233Z"/>
  <path class="cls-9" d="M831.1965,667.7098c.0236,1.3591,21.8502.2856,66.4656,3.5431,18.4216,1.345,31.8402,2.7794,53.6679,2.6573,11.2912-.0632,19.5179-.5131,26.4211-.8858,74.5902-4.0269,93.7249-4.3821,93.7123-5.3146-.0201-1.4963-49.3072-2.2163-79.2633-2.2144-21.3735.0013-25.977.3696-43.76,0-30.2168-.628-34.9543-2.0661-55.732-2.2144-31.7519-.2266-61.5392,2.8404-61.5117,4.4288Z"/>
  <path class="cls-9" d="M968.4394,727.0689c-.0312,1.6643-28.903.3497-87.9195,4.3387-24.3678,1.647-42.1177,3.4035-70.9909,3.254-14.9358-.0774-25.8179-.6283-34.9494-1.0847-98.6665-4.9312-123.9775-5.366-123.961-6.508.0266-1.8323,65.2227-2.7139,104.8481-2.7117,28.2724.0016,34.3619.4526,57.8849,0,39.9702-.7691,46.2369-2.5301,73.7213-2.7116,42.0008-.2774,81.4029,3.4782,81.3665,5.4233Z"/>
  <path class="cls-9" d="M806.2625,565.5707c-.1506.8243-13.5823-.4697-27.3042-3.9771-12.0344-3.076-18.582-4.8435-22.6853-10.489-1.5267-2.1005-2.5697-4.538-5.7111-6.3233-4.0886-2.3236-6.7979-.7382-10.5576-3.254-3.5473-2.3736-5.3697-6.6181-4.5564-7.4777.9666-1.0216,4.8882,3.5492,12.2016,4.0429,3.2786.2213,4.1996-.582,5.8249.3616,3.3002,1.9158,1.3078,6.2754,4.1866,10.4851,1.1909,1.7414,2.886,2.9756,15.4723,6.8695,5.9185,1.8311,10.4074,3.0629,11.1037,3.254,14.7371,4.046,22.1056,6.069,22.0254,6.508Z"/>
  <path class="cls-16" d="M721.5285,549.0748c1.8591,3.392,5.1285,4.5857,4.9246,4.9085-.2226.3525-4.2279-1.0256-7.3996-4.297-1.6661-1.7184-4.6161-4.6635-3.6783-7.6893.6697-2.1606,3.1775-3.9173,4.3785-3.3621,1.728.7988-.8558,5.6404,1.7748,10.4399Z"/>
  <path class="cls-16" d="M705.2936,693.2857c1.5755-7.1199,22.2765-8.2804,34.0392-8.8581,35.9718-1.7667,61.7,5.7326,61.7075,5.6945.0093-.0477-41.4916-5.6152-60.4333-3.5252-.0002,0-9.5192,1.0504-19.2949,5.7849-2.2661,1.0975-4.0631,1.9678-6.0069,3.7963-3.0254,2.846-3.3654,5.1528-4.9147,5.2425-2.3115.1339-5.8454-4.7521-5.0968-8.1349Z"/>
  <path class="cls-16" d="M1038.388,579.4031c-2.6247-6.7924-14.1368-7.8806-34.0392-8.8581-35.9718-1.7667-61.7,5.7326-61.7075,5.6945-.0093-.0477,41.4916-5.6152,60.4333-3.5252,4.4592-.1989,7.9012.3214,10.2674.8558,1.8678.4218,2.0823.6304,4.3004,1.0847,4.6578.9539,8.3813.9905,8.3961,1.4915.0097.3274-1.5801.3278-1.7065.9491-.1952.9597,3.4656,1.6092,5.8704,4.4742,1.3954,1.6624,1.8056,3.4008,2.1389,4.8132,1.3643,5.7815-1.1607,10.3051-.7282,10.4851.6895.287,9.5919-10.1748,6.775-17.4647Z"/>
  <path class="cls-7" d="M733.46,519.3343c-.0101.109-3.811-.5126-9.4172-.2573-5.8298.2655-9.7195,1.302-9.7411,1.1907-.0223-.1154,4.1199-1.4342,9.5184-1.6956,5.3882-.261,9.6506.6465,9.6399.7622Z"/>
  <path class="cls-11" d="M704.0879,522.975c1.2668-.8565,2.2357-1.3302,2.2867-1.2541.125.1866-5.7942,2.8702-5.495,5.3894.3497,2.9443,9.2255,4.8918,9.2265,4.8922.4431.133.633.2232.6233.2725-.0234.1183-11.0963-1.8746-11.2545-4.8419-.0689-1.2929,1.9382-2.6498,4.6129-4.4581Z"/>
  <path class="cls-7" d="M625.7207,580.049c.0217,1.2797-10.5284-7.7267-25.5628-7.2042-15.634.5428-25.679,11.0269-25.7871,9.7063-.1122-1.3693,10.4883-15.0657,24.9586-15.752,14.4426-.6854,26.3683,11.8919,26.3913,13.2499Z"/>
  <path class="cls-6" d="M577.8743,710.5434c-4.7005-3.4544-7.24-6.1103-6.7856-6.2578,1.1145-.3616,15.4034,15.8794,30.1379,14.8568,17.2212-1.1951,30.5626-26.0018,30.5652-26.0048.8744-1.2412,1.4424-1.7756,1.7272-1.7523.6834.056-13.4179,30.9701-30.73,31.635-7.5431.2897-14.9903-5.1833-24.9147-12.477Z"/>
  <path class="cls-13" d="M627.2627,653.7335c1.2966,19.7522-12.8284,39.9712-21.2878,39.3644-.2962-.0212-2.336-.1675-2.8669-1.3558-1.0767-2.4097,5.3404-6.2196,10.2391-11.7957,9.3857-10.6839,9.9933-24.205,10.1161-26.9367.5174-11.5123-4.1371-19.7111-3.6-19.8946.5731-.1958,6.6288,8.8771,7.3995,20.6185Z"/>
  <path class="cls-8" d="M732.6635,526.3647c-.119-.2947-2.9726,1.195-7.3058,1.6132-4.5907.4431-7.7912-.3855-7.7901-.237.0011.1612,3.5964.8939,7.6973.9277,1.2953.0107,2.4515-.0501,3.8064-.4397,1.9632-.5647,3.6864-1.6309,3.5922-1.8642Z"/>
  <ellipse class="cls-14" cx="605.5316" cy="627.6576" rx="2.9165" ry="2.2725" transform="translate(-106.5002 1131.2777) rotate(-81.2997)"/>
  <path class="cls-3" d="M562.0747,629.8873c.338.3772-3.5684,12.8615-1.0597,24.6096,1.4152,6.6274,3.8613,8.2877,5.6479,12.8892.7526,1.9383,1.0367,3.2103,1.3452,4.9296,1.2441,6.9333-.0926,15.228-1.9068,15.4741-2.432.3298-7.0528-13.6231-8.0989-26.9213-1.404-17.8473,3.9365-31.1328,4.0724-30.9812Z"/>
  <path class="cls-10" d="M567.658,677.7771c-.0986,2.7559-1.7709,5.3873-2.4574,5.2425-.4691-.0989-.5841-1.5167-.5461-2.3501.0637-1.3941.6019-2.1617.9101-2.9828,1.1486-3.0606-1.1592-6.1711-.8191-6.3272.3388-.1556,3.044,2.741,2.9124,6.4176Z"/>
  <path class="cls-10" d="M610.7057,571.849c.0018.3975-4.4741-2.3403-10.9308-2.0909-6.7142.2591-11.0876,3.5754-11.1263,3.1656-.0401-.4249,4.5906-4.7426,10.8061-5.0396,6.2036-.2966,11.2491,3.543,11.251,3.9649Z"/>
  <path class="cls-7" d="M660.7653,629.3287c4.5549,17.307,1.014,32.6523-.8292,40.6406-2.966,12.8538-7.916,22.9325-8.2722,22.8123-.2958-.0998,2.3954-7.2941,4.9147-18.8008,1.588-7.2527,2.7941-12.7612,3.2839-20.3977,1.0521-16.4019-2.1801-27.2149-3.2292-30.4258-.2744-.8397-.5003-1.486-.6468-1.9052-4.6648-13.3421-11.0241-21.2163-11.1395-21.1442-.1421.0889,11.125,11.0084,15.9183,29.2208Z"/>
  <path class="cls-4" d="M871.8702,667.5643c.1089-1.1159,23.7139,1.052,67.3614.3697,40.5106-.6332,62.1309-3.1564,62.3439-1.6911.2094,1.4407-20.4258,5.7168-42.3146,6.9552-8.0413.455-14.4046.3954-19.9538.2688-32.8699-.7501-67.5691-4.5484-67.437-5.9026Z"/>
  <path class="cls-5" d="M921.2017,727.8254c-.0215,1.0014-19.9483.2104-60.6803,2.6107-16.8181.9911-29.0688,2.048-48.9965,1.9581-10.3084-.0466-17.819-.3781-24.1214-.6527-68.0977-2.9673-85.5668-3.2289-85.5554-3.9161.0183-1.1026,45.0154-1.6331,72.3641-1.6317,19.5131.001,23.7159.2723,39.951,0,27.5866-.4628,31.9118-1.5224,50.881-1.6317,28.9881-.1669,56.1827,2.093,56.1576,3.2634Z"/>
  <path class="cls-5" d="M799.8271,564.4369c-.1335.7307-12.0412-.4164-24.2062-3.5259-10.6689-2.727-16.4736-4.294-20.1113-9.2989-1.3535-1.8622-2.2782-4.0231-5.0631-5.6058-3.6247-2.0599-6.0266-.6544-9.3597-2.8848-3.1448-2.1043-4.7604-5.8672-4.0394-6.6293.8569-.9057,4.3336,3.1465,10.8171,3.5842,2.9066.1962,3.7231-.5159,5.164.3205,2.9257,1.6984,1.1594,5.5633,3.7116,9.2955,1.0558,1.5438,2.5585,2.638,13.7168,6.0901,5.247,1.6233,9.2266,2.7153,9.8439,2.8848,13.065,3.5869,19.5974,5.3804,19.5263,5.7695Z"/>
  <path class="cls-5" d="M937.4553,601.4451c-.0176.9397-16.3196.1975-49.6421,2.4497-13.7588.93-23.7809,1.9217-40.0837,1.8373-8.4332-.0437-14.5776-.3548-19.7335-.6125-55.7102-2.7843-70.0016-3.0298-69.9922-3.6746.015-1.0346,36.8268-1.5324,59.2005-1.5311,15.9635.0009,19.4018.2555,32.6836,0,22.5684-.4342,26.1068-1.4286,41.6253-1.5311,23.715-.1566,45.9626,1.9639,45.9421,3.0622Z"/>
</svg>