<?xml version="1.0" encoding="UTF-8"?>
<svg id="Layer_1" data-name="Layer 1" xmlns="http://www.w3.org/2000/svg" viewBox="0 0 1621.4173 1264.252">
  <defs>
    <style>
      .cls-1 {
        fill: #a26e2e;
      }

      .cls-2, .cls-3 {
        fill: #bc8e5b;
      }

      .cls-4, .cls-5 {
        fill: #3a2216;
      }

      .cls-6 {
        fill: #b17d53;
      }

      .cls-6, .cls-7, .cls-3, .cls-8, .cls-9, .cls-5, .cls-10, .cls-11, .cls-12, .cls-13 {
        fill-rule: evenodd;
      }

      .cls-14, .cls-13 {
        fill: #dcb79d;
      }

      .cls-15 {
        fill: #a46f46;
      }

      .cls-7 {
        fill: #af804b;
      }

      .cls-8 {
        fill: #ba8048;
      }

      .cls-9, .cls-16 {
        fill: #4b2b19;
      }

      .cls-17 {
        fill: #895623;
      }

      .cls-18 {
        fill: #956237;
      }

      .cls-10 {
        fill: #d5a87b;
      }

      .cls-11 {
        fill: #a3723f;
      }

      .cls-12, .cls-19 {
        fill: #61381c;
      }
    </style>
  </defs>
  <path class="cls-19" d="M198.3112,413.0615c422.0742,2.286,844.1485,4.5719,1266.2227,6.8579,4.8706-.0477,11.8242.2717,19.8687,2.0666,77.9082,17.3838,118.7274,142.0717,127.2667,224.0531,13.314,127.8204-37.7398,287.2055-130.4886,312.7146-8.9753,2.4685-16.903,3.2878-22.8221,3.5332-420.0158,3.2115-840.0316,6.4232-1260.0474,9.6347V413.0615Z"/>
  <ellipse class="cls-17" cx="198.3113" cy="692.4916" rx="190.6546" ry="279.43"/>
  <path class="cls-12" d="M549.503,432.1854c0-9.5994-74.1041-107.1938-74.1041-107.1938,48.4872-7.28,96.9722-14.56,145.4594-21.8401,9.475,11.1418,21.9462,24.5023,37.6906,38.4344,9.8852,8.7468,30.328,25.9308,58.495,42.6023,44.4908,26.334,85.9156,38.656,114.3786,44.7973-93.9739,1.0668-187.9457,2.133-281.9196,3.1998Z"/>
  <ellipse class="cls-17" cx="550.396" cy="317.0467" rx="75.7642" ry="23.9997" transform="translate(-24.1108 46.1291) rotate(-4.6964)"/>
  <ellipse class="cls-1" cx="188.0676" cy="706.0496" rx="147.923" ry="216.8011"/>
  <ellipse class="cls-2" cx="192.3016" cy="705.4202" rx="91.7855" ry="134.524"/>
  <ellipse class="cls-18" cx="553.758" cy="318.8019" rx="54.2596" ry="17.1877" transform="translate(-24.2432 46.4102) rotate(-4.6964)"/>
  <ellipse class="cls-15" cx="555.8986" cy="319.3944" rx="31.87" ry="10.0954" transform="translate(-24.2845 46.5875) rotate(-4.6964)"/>
  <path class="cls-9" d="M1346.9333,535.2459c-.0919,4.9096-85.2652,1.0317-259.3663,12.7992-71.8859,4.8588-124.2489,10.0406-209.4262,9.5995-44.0612-.2283-76.164-1.8536-103.1021-3.1999-291.0705-14.5471-365.7391-15.8301-365.6902-19.1988.0784-5.4054,192.4098-8.0062,309.3063-7.9996,83.4049.0047,101.369,1.3351,170.7629,0,117.9137-2.2687,136.4008-7.4639,217.4809-7.9994,123.9041-.8184,240.1422,10.2609,240.0347,15.999Z"/>
  <path class="cls-9" d="M871.1486,737.0997c.0695,4.0093,64.459.8425,196.0764,10.4522,54.3445,3.9678,93.93,8.1994,158.3225,7.8392,33.3095-.1864,57.5787-1.5137,77.9434-2.6132,220.0442-11.8796,276.4923-12.9272,276.4554-15.6782-.0592-4.4142-145.4584-6.538-233.8302-6.5327-63.0527.0038-76.6332,1.0903-129.0937,0-89.1407-1.8527-103.1166-6.0952-164.4118-6.5325-93.6694-.6684-181.5433,8.3793-181.4621,13.0652Z"/>
  <path class="cls-9" d="M1276.0212,912.2118c-.0919,4.9096-85.2652,1.0317-259.3663,12.7992-71.8859,4.8588-124.2489,10.0406-209.4262,9.5995-44.0612-.2283-76.164-1.8536-103.1021-3.1999-291.0705-14.5471-365.7391-15.8301-365.6902-19.1988.0784-5.4054,192.4098-8.0062,309.3063-7.9996,83.4049.0047,101.369,1.3351,170.7629,0,117.9137-2.2687,136.4008-7.4639,217.4809-7.9994,123.9041-.8184,240.1422,10.2609,240.0347,15.999Z"/>
  <path class="cls-9" d="M797.5923,435.7851c-.4444,2.4316-40.0683-1.3856-80.5485-11.7326-35.502-9.0745-54.8177-14.2886-66.9225-30.943-4.5038-6.1965-7.5808-13.3873-16.8481-18.6539-12.0616-6.8547-20.054-2.1776-31.1454-9.5995-10.4646-7.0023-15.8408-19.5237-13.4415-22.0596,2.8515-3.0139,14.4204,10.4703,35.9951,11.9268,9.6721.653,12.3891-1.7168,17.1836,1.0666,9.7357,5.6516,3.858,18.5126,12.3508,30.9316,3.5132,5.1372,8.5137,8.7783,45.6441,20.2654,17.46,5.4018,30.7024,9.0356,32.7565,9.5995,43.4751,11.9358,65.2124,17.9037,64.9758,19.1988Z"/>
  <path class="cls-16" d="M547.6234,387.1213c5.4845,10.0065,15.1293,13.5279,14.5278,14.4804-.6568,1.04-12.4725-3.0256-21.8292-12.6765-4.9149-5.0694-13.6177-13.7576-10.8511-22.6837,1.9756-6.3739,9.3738-11.5563,12.9168-9.9183,5.0976,2.3564-2.5246,16.6393,5.2357,30.7981Z"/>
  <path class="cls-16" d="M499.7298,812.5497c4.6478-21.0041,65.7165-24.4274,100.4172-26.1318,106.1185-5.2119,182.0177,16.9113,182.0397,16.7989.0275-.1406-122.402-16.5651-178.2808-10.3994-.0005,0-28.0819,3.0986-56.9209,17.0656-6.6851,3.2376-11.9864,5.8052-17.7206,11.1994-8.925,8.3958-9.9281,15.201-14.4987,15.4657-6.819.3951-17.2441-14.019-15.0359-23.9984Z"/>
  <path class="cls-16" d="M1482.3724,476.5913c-7.7431-20.0378-41.7041-23.2481-100.4172-26.1318-106.1184-5.2119-182.0177,16.9113-182.0397,16.7989-.0275-.1406,122.402-16.5651,178.2808-10.3994,13.1549-.5869,23.309.9481,30.2894,2.5247,5.51,1.2444,6.1427,1.8596,12.6863,3.1998,13.7406,2.814,24.7251,2.9221,24.7688,4.3998.0286.9658-4.6613.967-5.0343,2.7998-.576,2.8311,10.2236,4.7473,17.3179,13.1992,4.1163,4.9041,5.3265,10.0325,6.3097,14.199,4.0248,17.0556-3.4241,30.4004-2.1481,30.9316,2.0341.8468,28.2966-30.0161,19.9864-51.5217Z"/>
  <path class="cls-7" d="M582.8217,299.3858c-.0298.3216-11.2426-1.5122-27.7812-.759-17.1983.7832-28.673,3.841-28.7365,3.5126-.0658-.3405,12.1539-4.2309,28.0797-5.0021,15.8953-.7699,28.4697,1.9072,28.438,2.2485Z"/>
  <path class="cls-11" d="M496.173,310.126c3.7371-2.5266,6.5955-3.9241,6.746-3.6997.3689.5504-17.093,8.4673-16.2104,15.899,1.0316,8.6859,27.2155,14.4311,27.2186,14.4323,1.3073.3924,1.8674.6585,1.8387.8039-.069.349-32.7345-5.5301-33.2012-14.2839-.2034-3.8142,5.7176-7.8172,13.6083-13.1516Z"/>
  <path class="cls-7" d="M264.9862,478.4965c.0641,3.775-31.0593-22.794-75.4113-21.2528-46.1211,1.6011-75.754,32.5297-76.0731,28.6339-.3309-4.0394,30.941-44.4444,73.6289-46.469,42.6063-2.0218,77.7876,35.0815,77.8554,39.0879Z"/>
  <path class="cls-6" d="M123.8375,863.4608c-13.8667-10.1906-21.3584-18.0257-20.0177-18.4607,3.2878-1.0666,45.4406,46.8448,88.908,43.8282,50.8031-3.5257,90.1609-76.7064,90.1686-76.7152,2.5794-3.6617,4.2552-5.2381,5.0954-5.1693,2.0161.1651-39.5835,91.3632-90.6548,93.3247-22.2523.8547-44.2221-15.291-73.4995-36.8077Z"/>
  <path class="cls-13" d="M269.5352,695.8691c3.8251,58.2698-37.8443,117.9166-62.7999,116.1267-.8739-.0626-6.8913-.4942-8.4576-3.9997-3.1762-7.1087,15.7545-18.348,30.2057-34.798,27.6882-31.518,29.4808-71.4059,29.843-79.4645,1.5262-33.9619-12.2047-58.1486-10.62-58.69,1.6906-.5776,19.5551,26.188,21.8289,60.8254Z"/>
  <path class="cls-8" d="M580.472,320.1257c-.3512-.8695-8.7693,3.5252-21.5524,4.759-13.5427,1.3071-22.9843-1.1373-22.9813-.6991.0033.4755,10.6094,2.6371,22.7074,2.7369,3.8213.0315,7.232-.1477,11.2291-1.2973,5.7915-1.6658,10.875-4.8112,10.5971-5.4995Z"/>
  <ellipse class="cls-14" cx="205.4275" cy="618.9439" rx="8.6039" ry="6.704" transform="translate(-437.4686 728.3821) rotate(-81.2997)"/>
  <path class="cls-3" d="M77.2278,625.5218c.9971,1.1126-10.5269,37.942-3.1263,72.5993,4.1748,19.5512,11.391,24.4492,16.6615,38.0238,2.2201,5.718,3.0582,9.4705,3.9683,14.5426,3.6703,20.4536-.2731,44.9232-5.6251,45.6492-7.1746.973-20.806-40.1889-23.892-79.4191-4.1417-52.6504,11.6128-91.843,12.0136-91.3957Z"/>
  <path class="cls-10" d="M93.6989,766.7986c-.2909,8.13-5.2241,15.8928-7.2494,15.4657-1.384-.2919-1.7233-4.4744-1.6109-6.9328.1879-4.1126,1.7758-6.377,2.6849-8.7995,3.3884-9.0288-3.4198-18.205-2.4164-18.6656.9996-.4589,8.9799,8.086,8.5918,18.9323Z"/>
  <path class="cls-10" d="M220.6914,454.3064c.0054,1.1728-13.1987-6.9038-32.2463-6.1682-19.8073.7645-32.709,10.5475-32.8231,9.3387-.1183-1.2534,13.5425-13.9908,31.8786-14.8671,18.301-.8749,33.1853,10.452,33.1908,11.6966Z"/>
  <path class="cls-7" d="M368.3694,623.8739c13.4373,51.0565,2.9915,96.3258-2.4463,119.8914-8.7498,37.9194-23.3526,67.6518-24.4032,67.2973-.8725-.2945,7.0664-21.518,14.4987-55.4633,4.6846-21.3957,8.2426-37.646,9.6876-60.174,3.1038-48.3864-6.4315-80.2852-9.5263-89.7573-.8094-2.4773-1.4758-4.3838-1.9082-5.6203-13.7612-39.3598-32.5216-62.5891-32.8619-62.3762-.4192.2623,32.8193,32.4753,46.9595,86.2026Z"/>
  <path class="cls-4" d="M991.1378,736.6705c.3213-3.292,69.9571,3.1033,198.7191,1.0906,119.508-1.8679,183.2888-9.3115,183.9172-4.9889.6179,4.2503-60.2569,16.8649-124.8298,20.5182-23.7221,1.3422-42.4941,1.1665-58.8644.7929-96.9677-2.2128-199.3317-13.4181-198.942-17.4128Z"/>
  <path class="cls-5" d="M1136.6679,914.4433c-.0635,2.9543-58.8484.6208-179.0095,7.7018-49.6142,2.9237-85.7541,6.0418-144.5418,5.7763-30.4101-.1374-52.5669-1.1154-71.159-1.9255-200.8911-8.7535-252.4258-9.5255-252.3921-11.5526.0541-3.2526,132.7974-4.8176,213.4771-4.8136,57.5644.0028,69.9628.8034,117.8571,0,81.3817-1.3652,94.1411-4.4913,150.101-4.8135,85.5162-.4925,165.7413,6.1743,165.6672,9.6272Z"/>
  <path class="cls-5" d="M778.6076,432.4404c-.3939,2.1557-35.522-1.2284-71.4092-10.4014-31.4738-8.0449-48.5979-12.6674-59.3292-27.4321-3.9928-5.4934-6.7207-11.8684-14.9365-16.5374-10.693-6.0769-17.7786-1.9305-27.6115-8.5103-9.2772-6.2078-14.0435-17.3085-11.9164-19.5566,2.528-2.6719,12.7842,9.2823,31.911,10.5736,8.5747.5789,10.9834-1.522,15.2339.9456,8.631,5.0104,3.4202,16.4121,10.9494,27.422,3.1146,4.5543,7.5477,7.7822,40.4652,17.966,15.4789,4.7889,27.2188,8.0104,29.0398,8.5103,38.5423,10.5816,57.8132,15.8723,57.6034,17.0204Z"/>
  <path class="cls-5" d="M1184.6165,541.6162c-.0519,2.7721-48.1434.5825-146.4463,7.2268-40.589,2.7434-70.1548,5.6692-118.2485,5.4202-24.8783-.1289-43.0046-1.0466-58.2147-1.8068-164.3474-8.2138-206.5076-8.9381-206.4801-10.8402.0442-3.0521,108.6405-4.5205,174.644-4.5168,47.093.0026,57.2361.7539,96.418,0,66.5778-1.281,77.0161-4.2143,122.7965-4.5167,69.9601-.4621,135.5917,5.7936,135.5311,9.0335Z"/>
</svg>