<?xml version="1.0" encoding="UTF-8"?>
<svg id="Layer_1" data-name="Layer 1" xmlns="http://www.w3.org/2000/svg" viewBox="0 0 1621.4173 1264.252">
  <defs>
    <style>
      .cls-1 {
        fill: #8aab5f;
      }

      .cls-2 {
        fill: #2a1a11;
      }

      .cls-3, .cls-4, .cls-5, .cls-6 {
        fill: #861618;
      }

      .cls-7 {
        fill: #432816;
      }

      .cls-8 {
        fill: #563419;
      }

      .cls-9 {
        fill: #99c26e;
      }

      .cls-10 {
        fill: #516936;
      }

      .cls-11 {
        fill: #f48d99;
      }

      .cls-12 {
        fill: #ad2930;
      }

      .cls-13 {
        fill: #734a23;
      }

      .cls-14 {
        fill: #643d1e;
      }

      .cls-15 {
        fill: #ad7a50;
      }

      .cls-16 {
        fill: #693e1c;
      }

      .cls-4, .cls-5, .cls-6 {
        stroke: #7a1217;
      }

      .cls-4, .cls-5, .cls-6, .cls-17 {
        stroke-miterlimit: 10;
      }

      .cls-4, .cls-17 {
        stroke-width: 8.1835px;
      }

      .cls-5 {
        stroke-width: 8.2488px;
      }

      .cls-6 {
        stroke-width: 4.0918px;
      }

      .cls-18 {
        fill: #5a7841;
      }

      .cls-17 {
        fill: #680e14;
        stroke: #571013;
      }
    </style>
  </defs>
  <g>
    <path class="cls-8" d="M777.3869,925.1766c-.1167-.2732-20.0145-46.8303-20.1289-47.0979-.033-.077-11.844-27.7134-11.8601-27.7509-.158-.3696-19.3249-45.2162-19.4797-45.5784,25.796,24.3461,43.1891,32.6257,54.6202,35.4442,3.2576.8032,17.0499,3.8793,18.1825,11.7987.4929,3.4466-1.7632,5.3523-1.5428,8.1776.3803,4.8749,7.9474,10.0851,34.9854,13.5237-18.2589,17.161-36.5179,34.322-54.7768,51.483Z"/>
    <path class="cls-7" d="M832.25,873.7385c-1.0513-1.2618-14.1719,9.246-29.3056,23.4697-15.1338,14.2238-26.5499,26.7773-25.4986,28.0391,1.0513,1.2618,14.1718-9.246,29.3056-23.4698,15.1338-14.2238,26.5499-26.7773,25.4987-28.039Z"/>
    <path class="cls-14" d="M790.9009,846.2701c4.6905,3.1218,3.8513,12.7929,1.2675,14.4753-.4442.2893-1.0206.3948-1.5082.2505-2.8673-.8487.9164-9.2763-2.4357-12.2103-2.8916-2.5311-9.8108-.0792-9.9677-.7939-.0017-.0076-.0003-.0166.0043-.0269.4927-1.1195,8.2915-4.5886,12.6397-1.6945Z"/>
    <ellipse class="cls-14" cx="783.6772" cy="851.7182" rx=".7532" ry="1.3444" transform="translate(-358.9805 667.5793) rotate(-38.2279)"/>
    <path class="cls-14" d="M775.737,907.2585c-4.8595.0293-4.6841-18.7304-14.4456-40.8906-5.7195-12.9842-10.9318-18.2395-10.5474-18.5475,1.039-.8327,37.8039,38.675,28.8448,55.8179-.276.5282-1.8858,3.6083-3.8518,3.6202Z"/>
    <path class="cls-16" d="M813.0328,883.328c-.1271-.148-1.5743,1.0878-3.3681,2.5542-6.966,5.695-10.2556,7.5905-13.801,10.3519-8.591,6.691-16.3294,16.6309-15.4437,17.7456,1.1733,1.4767,18.19-11.3682,17.1471-14.3168-.1636-.4627-.7501-.463-.8407-1.0091-.2481-1.4945,3.6748-3.2031,7.3341-5.8299,5.635-4.0451,9.2002-9.2309,8.9723-9.496Z"/>
    <path class="cls-13" d="M810.3785,885.8251c-.1112-.1295-1.3771.9515-2.9461,2.2342-6.0932,4.9815-8.9706,6.6395-12.0719,9.0549-7.5146,5.8527-14.2834,14.5472-13.5087,15.5222,1.0263,1.2917,15.9109-9.9439,14.9987-12.523-.1431-.4047-.6561-.405-.7354-.8826-.217-1.3073,3.2144-2.8018,6.4152-5.0994,4.929-3.5383,8.0475-8.0744,7.8482-8.3062Z"/>
    <path class="cls-13" d="M775.6399,901.6465c-3.7851.0228-3.6484-14.5892-11.2518-31.8499-4.4549-10.1134-8.5148-14.2068-8.2154-14.4467.8093-.6486,29.4456,30.1241,22.4674,43.4768-.215.4114-1.4689,2.8105-3.0002,2.8198Z"/>
    <path class="cls-13" d="M790.7041,846.5374c3.3103,2.3324,3.0463,9.0015,1.3321,10.0734-.2947.1843-.6858.2366-1.0242.1189-1.9895-.6918.3294-6.3928-2.0588-8.5467-2.0602-1.858-6.7168-.4101-6.8471-.9109-.0014-.0053-.0007-.0115.0021-.0185.3013-.7577,5.5272-2.8784,8.5959-.7162Z"/>
    <ellipse class="cls-13" cx="783.468" cy="851.467" rx=".4591" ry=".8286" transform="translate(-338.7433 569.5803) rotate(-33.2813)"/>
    <path class="cls-15" d="M778.0174,893.9038c-.201-.0785-.8344,2.1883-2.0356,2.334-1.2012.1457-2.0653-1.9395-2.2555-1.8136-.2605.1724.9303,4.3706,2.3817,4.1946,1.4514-.176,2.1847-4.6075,1.9094-4.715Z"/>
    <path class="cls-15" d="M792.6171,854.2497c-.098-.0235-.4261.7705-1.0164.8421-.5902.0716-.9979-.6333-1.0921-.5864-.1291.0642.4224,1.493,1.1356,1.4065.7131-.0865,1.1071-1.6299.9729-1.6622Z"/>
    <path class="cls-15" d="M795.8914,899.9941c-.2927-.1922-1.668,3.1903-4.1775,4.0174-.3786.1248-1.2159.3341-1.4126.9275-.1558.47.2115.8147-.0028,1.2012-.2091.3771-.689.2834-1.2676.5622-.7338.3536-1.0589,1.0329-1.3594,1.5086-1.3139,2.0801-3.8558,2.9588-3.7971,3.0774.0507.1026,1.9043-.6475,3.9038-2.2002.0972-.0755.3627-.3258.7573-.6401.6408-.5106,1.0749-.781,1.4493-1.0431.5925-.4148.9772-.7725,1.7465-1.4875,1.6204-1.5063,2.9251-2.7419,3.7981-4.6685.0792-.1748.5213-1.1504.362-1.255Z"/>
    <path class="cls-15" d="M774.8064,885.9892c.0695-.0437-.0151-.5145-.1076-.9743-.622-3.0938-1.1956-5.946-3.1681-9.0999-1.1752-1.8789-2.7168-3.6574-2.911-3.4939-.2252.1893,1.606,2.781,3.7429,7.7683,1.3035,3.042,2.265,5.912,2.4438,5.7997Z"/>
    <path class="cls-13" d="M739.0605,820.8303c-.3223.2964,3.2076,6.7646,9.9746,11.958,9.303,7.14,20.1206,8.3376,20.3223,7.9269.178-.3623-7.9706-1.8375-17.3104-8.2005-8.4816-5.7783-12.6588-11.9858-12.9865-11.6844Z"/>
    <path class="cls-14" d="M799.5873,869.1464c-.4504,3.4398,8.2659,8.3051,16.7864,8.1172,5.0494-.1114,9.3109-1.979,9.2585-2.5799-.0775-.8918-9.4936,2.8473-17.2094-1.9013-3.4756-2.1391-6.5843-5.9712-8.1792-4.9071-.5369.3583-.637,1.1231-.6563,1.2711Z"/>
    <path class="cls-13" d="M801.7065,871.1478c-.3612,2.7586,6.6289,6.6604,13.4622,6.5097,4.0494-.0894,7.467-1.5871,7.4251-2.069-.0621-.7152-7.6136,2.2835-13.8014-1.5248-2.7873-1.7155-5.2804-4.7887-6.5595-3.9353-.4306.2873-.5108.9007-.5264,1.0194Z"/>
    <path class="cls-15" d="M801.0513,870.9699c.0836-.0667-.2812-.7989.0646-1.3252.3458-.5263,1.1417-.4502,1.1708-.5548.0398-.1434-1.3879-.5233-1.8057.1126-.4178.6359.4559,1.8589.5704,1.7675Z"/>
    <path class="cls-15" d="M806.0651,890.0844c-.0719-.06-.6258.7318-1.7779,1.7528-1.5524,1.3758-2.7194,1.864-2.675,1.968.049.1151,1.5607-.2853,2.8634-1.47,1.0714-.9743,1.6733-2.1809,1.5895-2.2509Z"/>
    <path class="cls-2" d="M819.8517,884.6566c-.6681-.8019-9.0068,5.8762-18.6249,14.9159-9.6181,9.0398-16.8735,17.018-16.2053,17.8199.6681.8019,9.0067-5.8762,18.6248-14.916,9.6181-9.0398,16.8735-17.018,16.2054-17.8199Z"/>
    <path class="cls-13" d="M822.6131,880.834c-.0463.1773,2.508-1.7593,2.8908-1.3092.383.45-1.6941,2.9477-1.5231,2.9169.2344-.0423,4.5197-4.7992,4.0572-5.343-.4626-.5438-5.3613,3.4923-5.4248,3.7353Z"/>
    <path class="cls-13" d="M786.1332,914.4815c.2768-.0701-3.4533,4.0808-2.9234,4.7301.5298.6496,4.9204-2.6918,4.8162-2.4104-.1431.3858-8.6191,7.2942-9.2593,6.5096-.6402-.7846,6.9872-8.7333,7.3665-8.8294Z"/>
    <path class="cls-13" d="M791.7748,914.2075c.1479.1989,9.9932-7.0404,20.097-17.9249,2.9375-3.1645,6.0144-6.7636,5.9071-6.8744-.1262-.1301-4.567,4.6483-10.8476,10.7824-9.6779,9.452-15.2694,13.865-15.1565,14.0168Z"/>
  </g>
  <g>
    <path class="cls-8" d="M827.7875,1058.8041c.1638-.3014,28.095-51.6765,28.2555-51.9717.0463-.085,16.6259-30.5813,16.6484-30.6227.2218-.4078,27.1269-49.8954,27.3441-50.295-32.7824,26.4011-54.1116,35.1195-67.8799,37.9211-3.9236.7984-20.505,3.8163-22.5965,12.6232-.9102,3.8328,1.5728,6.0285,1.0435,9.1758-.9132,5.4308-10.3459,11.019-42.6047,14.0419,19.9299,19.7091,39.8597,39.4183,59.7896,59.1274Z"/>
    <path class="cls-7" d="M767.8916,999.7241c1.3616-1.3769,15.8566,10.7496,32.3753,27.0854,16.5187,16.3358,28.8059,30.6948,27.4443,32.0717-1.3616,1.3769-15.8565-10.7497-32.3753-27.0855-16.5187-16.3358-28.806-30.6947-27.4443-32.0716Z"/>
    <path class="cls-14" d="M819.3393,970.3067c-5.8366,3.3436-5.7662,14.1655-2.875,16.1217.4971.3364,1.1677.4716,1.7573.3251,3.467-.861-.1992-10.3835,4.0389-13.5579,3.6559-2.7384,11.594.2076,11.8473-.5855.0027-.0084.0019-.0185-.0025-.0302-.4753-1.2647-9.3553-5.3728-14.766-2.2732Z"/>
    <ellipse class="cls-14" cx="827.3517" cy="976.6068" rx="1.5838" ry=".8447" transform="translate(-448.8075 878.1719) rotate(-45.319)"/>
    <path class="cls-14" d="M831.4417,1038.8504c5.7362.1793,7.3149-20.7689,20.9528-45.2136,7.9907-14.3227,14.6466-20.0323,14.222-20.3878-1.1478-.961-48.3276,42.0353-39.3791,61.4437.2756.598,1.8836,4.0852,4.2043,4.1577Z"/>
    <path class="cls-16" d="M789.674,1011.0095c.1642-.1614,1.7557,1.2619,3.7345,2.9531,7.6846,6.568,11.3891,8.7834,15.3133,11.9731,9.5089,7.7289,17.7015,19.0592,16.5495,20.2769-1.5262,1.6131-20.3999-13.2401-18.8876-16.5004.2373-.5116.9299-.4942,1.0889-1.1011.4353-1.661-4.035-3.6867-8.1064-6.7297-6.2698-4.6859-9.9866-10.5828-9.6922-10.8719Z"/>
    <path class="cls-13" d="M792.571,1013.8774c.1437-.1412,1.5357,1.1038,3.2666,2.5831,6.7218,5.7451,9.9621,7.6829,13.3947,10.4729,8.3175,6.7605,15.4837,16.6712,14.476,17.7363-1.335,1.411-17.8439-11.5812-16.5211-14.433.2076-.4475.8134-.4323.9525-.9632.3808-1.4529-3.5294-3.2248-7.0908-5.8865-5.4842-4.0988-8.7353-9.2569-8.4779-9.5097Z"/>
    <path class="cls-13" d="M832.0906,1032.5882c4.4679.1397,5.6976-16.177,16.3202-35.2171,6.224-11.156,11.4083-15.6033,11.0776-15.8801-.894-.7485-37.6426,32.7415-30.6725,47.8587.2147.4658,1.4671,3.1819,3.2747,3.2385Z"/>
    <path class="cls-13" d="M819.5463,970.611c-4.1314,2.504-4.4546,9.9572-2.5321,11.2055.3305.2147.7874.2848,1.1982.1636,2.4155-.7122.2195-7.1468,3.245-9.4792,2.6099-2.0121,7.9715-.2551,8.1731-.8103.0021-.0059.0019-.0128-.0007-.0207-.2837-.855-6.2536-3.3802-10.0835-1.059Z"/>
    <ellipse class="cls-13" cx="827.6228" cy="976.3326" rx=".9708" ry=".5178" transform="translate(-452.2859 980.646) rotate(-49.9056)"/>
    <path class="cls-15" d="M830.02,1023.8727c.2448-.0815.777,2.4682,2.1818,2.667,1.4048.1989,2.6238-2.1029,2.8363-1.9567.2912.2004-1.5148,4.8512-3.2121,4.6109-1.6973-.2403-2.1415-5.2096-1.8061-5.3213Z"/>
    <path class="cls-15" d="M816.5529,979.1631c.1179-.0233.4299.8731,1.1201.9708.6902.0977,1.2387-.6769,1.3456-.6217.1463.0755-.641,1.654-1.475,1.5359-.834-.1181-1.1523-1.853-.9907-1.885Z"/>
    <path class="cls-15" d="M808.3312,1030.1324c.364-.2058,1.6662,3.6119,4.5511,4.611.4352.1507,1.4041.4096,1.58,1.0781.1393.5294-.3274.9031-.1111,1.3411.211.4272.7867.3372,1.4434.6659.8329.4169,1.1522,1.185,1.4619,1.7252,1.3537,2.3618,4.272,3.4195,4.1913,3.5502-.0697.113-2.1873-.7803-4.4009-2.574-.1077-.0872-.3974-.3746-.8334-.7375-.7081-.5894-1.1951-.9043-1.6123-1.2082-.6602-.481-1.0805-.8919-1.921-1.7134-1.7702-1.7305-3.1935-3.1493-4.0411-5.3264-.0769-.1975-.5062-1.3-.3081-1.412Z"/>
    <path class="cls-15" d="M834.5655,1015.1339c-.0779-.0509.0668-.5739.2198-1.0844,1.0291-3.4351,1.9781-6.6019,4.6078-10.0633,1.5667-2.0621,3.5567-4.001,3.7705-3.8127.2479.2182-2.1615,3.0562-5.1598,8.5595-1.829,3.3567-3.2377,6.5317-3.4382,6.401Z"/>
    <path class="cls-13" d="M882.9839,943.4703c.3524.3406-4.4321,7.455-12.9182,13.0487-11.6665,7.6903-24.5558,8.7008-24.755,8.2362-.1757-.4098,9.5882-1.8108,21.224-8.6325,10.5667-6.1948,16.0909-12.9988,16.4493-12.6524Z"/>
    <path class="cls-14" d="M806.903,995.5831c.2044,3.8537-10.5525,9.0222-20.5973,8.5553-5.9526-.2767-10.8076-2.4902-10.6886-3.1595.1764-.9933,10.9408,3.4652,20.5051-1.6033,4.3082-2.2832,8.3444-6.4674,10.1267-5.2313.6.4162.6453,1.273.6541,1.4389Z"/>
    <path class="cls-13" d="M804.2098,997.7535c.1639,3.0905-8.4627,7.2355-16.5184,6.8611-4.7738-.2219-8.6673-1.9971-8.5719-2.5339.1415-.7966,8.7742,2.779,16.4444-1.2858,3.4551-1.831,6.692-5.1867,8.1213-4.1954.4812.3338.5175,1.0209.5246,1.1539Z"/>
    <path class="cls-15" d="M805.0005,997.5747c-.0923-.077.4082-.8834.0498-1.4814-.3583-.598-1.3055-.537-1.3298-.6547-.0334-.1613,1.6889-.5424,2.1218.1802.4329.7225-.7154,2.0615-.8419,1.956Z"/>
    <path class="cls-15" d="M797.2596,1018.7625c.0906-.0648.6694.8359,1.9328,2.0105,1.7024,1.5828,3.0341,2.163,2.9718,2.2778-.0689.127-1.816-.3656-3.2417-1.7274-1.1726-1.1201-1.7686-2.4852-1.6629-2.5608Z"/>
    <path class="cls-2" d="M781.4946,1012.2869c.8654-.8751,10.0775,6.8318,20.5758,17.2138,10.4983,10.382,18.3073,19.5077,17.4419,20.3828-.8654.8751-10.0774-6.8318-20.5757-17.2139-10.4983-10.382-18.3073-19.5077-17.4419-20.3827Z"/>
    <path class="cls-13" d="M778.5973,1007.9362c.0378.1993-2.7944-2.0397-3.2894-1.5488-.4951.4908,1.7201,3.3418,1.5211,3.3023-.2727-.0543-4.8809-5.4941-4.2828-6.0872.5981-.5931,5.9992,4.0605,6.0511,4.3337Z"/>
    <path class="cls-13" d="M818.4764,1046.6003c-.3202-.0866,3.6898,4.6599,3.0022,5.3688-.6875.7092-5.5547-3.1536-5.4584-2.8362.1322.435,9.4847,8.4032,10.3154,7.5466.8307-.8566-7.4204-9.9605-7.8592-10.0792Z"/>
    <path class="cls-13" d="M811.8398,1046.1242c-.1936.2176-11.1316-8.1613-22.0279-20.6174-3.1679-3.6214-6.459-7.7323-6.3217-7.8527.1615-.1414,4.951,5.3271,11.7844,12.3646,10.5297,10.8441,16.7131,15.9394,16.5652,16.1055Z"/>
  </g>
  <g>
    <path class="cls-8" d="M757.9452,1177.0934c-.1638-.3014-28.095-51.6765-28.2555-51.9717-.0463-.085-16.6259-30.5813-16.6484-30.6227-.2218-.4078-27.1269-49.8954-27.3441-50.295,32.7824,26.4011,54.1116,35.1195,67.8799,37.9211,3.9236.7984,20.505,3.8163,22.5965,12.6232.9102,3.8328-1.5728,6.0285-1.0435,9.1758.9132,5.4308,10.3459,11.019,42.6047,14.0419-19.9299,19.7091-39.8597,39.4183-59.7896,59.1274Z"/>
    <path class="cls-7" d="M817.841,1118.0134c-1.3616-1.3769-15.8566,10.7496-32.3753,27.0854-16.5187,16.3358-28.8059,30.6948-27.4443,32.0717,1.3616,1.3769,15.8565-10.7497,32.3753-27.0855,16.5187-16.3358,28.806-30.6947,27.4443-32.0716Z"/>
    <path class="cls-14" d="M766.3934,1088.596c5.8366,3.3436,5.7662,14.1655,2.875,16.1217-.4971.3364-1.1677.4716-1.7573.3251-3.467-.861.1992-10.3835-4.0389-13.5579-3.6559-2.7384-11.594.2076-11.8473-.5855-.0027-.0084-.0019-.0185.0025-.0302.4753-1.2647,9.3553-5.3728,14.766-2.2732Z"/>
    <ellipse class="cls-14" cx="758.381" cy="1094.8961" rx=".8447" ry="1.5838" transform="translate(-550.7385 849.6507) rotate(-44.681)"/>
    <path class="cls-14" d="M754.291,1157.1397c-5.7362.1793-7.3149-20.7689-20.9528-45.2136-7.9907-14.3227-14.6466-20.0323-14.222-20.3878,1.1478-.961,48.3276,42.0353,39.3791,61.4437-.2756.598-1.8836,4.0852-4.2043,4.1577Z"/>
    <path class="cls-16" d="M796.0587,1129.2988c-.1642-.1614-1.7557,1.2619-3.7345,2.9531-7.6846,6.568-11.3891,8.7834-15.3133,11.9731-9.5089,7.7289-17.7015,19.0592-16.5495,20.2769,1.5262,1.6131,20.3999-13.2401,18.8876-16.5004-.2373-.5116-.9299-.4942-1.0889-1.1011-.4353-1.661,4.035-3.6867,8.1064-6.7297,6.2698-4.6859,9.9866-10.5828,9.6922-10.8719Z"/>
    <path class="cls-13" d="M793.1617,1132.1667c-.1437-.1412-1.5357,1.1038-3.2666,2.5831-6.7218,5.7451-9.9621,7.6829-13.3947,10.4729-8.3175,6.7605-15.4837,16.6712-14.476,17.7363,1.335,1.411,17.8439-11.5812,16.5211-14.433-.2076-.4475-.8134-.4323-.9525-.9632-.3808-1.4529,3.5294-3.2248,7.0908-5.8865,5.4842-4.0988,8.7353-9.2569,8.4779-9.5097Z"/>
    <path class="cls-13" d="M753.642,1150.8775c-4.4679.1397-5.6976-16.177-16.3202-35.2171-6.224-11.156-11.4083-15.6033-11.0776-15.8801.894-.7485,37.6426,32.7415,30.6725,47.8587-.2147.4658-1.4671,3.1819-3.2747,3.2385Z"/>
    <path class="cls-13" d="M766.1863,1088.9003c4.1314,2.504,4.4546,9.9572,2.5321,11.2055-.3305.2147-.7874.2848-1.1982.1636-2.4155-.7122-.2195-7.1468-3.245-9.4792-2.6099-2.0121-7.9715-.2551-8.1731-.8103-.0021-.0059-.0019-.0128.0007-.0207.2837-.855,6.2536-3.3802,10.0835-1.059Z"/>
    <ellipse class="cls-13" cx="758.1099" cy="1094.622" rx=".5178" ry=".9708" transform="translate(-526.8221 745.5122) rotate(-40.0944)"/>
    <path class="cls-15" d="M755.7127,1142.162c-.2448-.0815-.777,2.4682-2.1818,2.667-1.4048.1989-2.6238-2.1029-2.8363-1.9567-.2912.2004,1.5148,4.8512,3.2121,4.6109,1.6973-.2403,2.1415-5.2096,1.8061-5.3213Z"/>
    <path class="cls-15" d="M769.1798,1097.4524c-.1179-.0233-.4299.8731-1.1201.9708-.6902.0977-1.2387-.6769-1.3456-.6217-.1463.0755.641,1.654,1.475,1.5359.834-.1181,1.1523-1.853.9907-1.885Z"/>
    <path class="cls-15" d="M777.4014,1148.4217c-.364-.2058-1.6662,3.6119-4.5511,4.611-.4352.1507-1.4041.4096-1.58,1.0781-.1393.5294.3274.9031.1111,1.3411-.211.4272-.7867.3372-1.4434.6659-.8329.4169-1.1522,1.185-1.4619,1.7252-1.3537,2.3618-4.272,3.4195-4.1913,3.5502.0697.113,2.1873-.7803,4.4009-2.574.1077-.0872.3974-.3746.8334-.7375.7081-.5894,1.1951-.9043,1.6123-1.2082.6602-.481,1.0805-.8919,1.921-1.7134,1.7702-1.7305,3.1935-3.1493,4.0411-5.3264.0769-.1975.5062-1.3.3081-1.412Z"/>
    <path class="cls-15" d="M751.1671,1133.4232c.0779-.0509-.0668-.5739-.2198-1.0844-1.0291-3.4351-1.9781-6.6019-4.6078-10.0633-1.5667-2.0621-3.5567-4.001-3.7705-3.8127-.2479.2182,2.1615,3.0562,5.1598,8.5595,1.829,3.3567,3.2377,6.5317,3.4382,6.401Z"/>
    <path class="cls-13" d="M702.7488,1061.7597c-.3524.3406,4.4321,7.455,12.9182,13.0487,11.6665,7.6903,24.5558,8.7008,24.755,8.2362.1757-.4098-9.5882-1.8108-21.224-8.6325-10.5667-6.1948-16.0909-12.9988-16.4493-12.6524Z"/>
    <path class="cls-14" d="M778.8296,1113.8724c-.2044,3.8537,10.5525,9.0222,20.5973,8.5553,5.9526-.2767,10.8076-2.4902,10.6886-3.1595-.1764-.9933-10.9408,3.4652-20.5051-1.6033-4.3082-2.2832-8.3444-6.4674-10.1267-5.2313-.6.4162-.6453,1.273-.6541,1.4389Z"/>
    <path class="cls-13" d="M781.5229,1116.0428c-.1639,3.0905,8.4627,7.2355,16.5184,6.8611,4.7738-.2219,8.6673-1.9971,8.5719-2.5339-.1415-.7966-8.7742,2.779-16.4444-1.2858-3.4551-1.831-6.692-5.1867-8.1213-4.1954-.4812.3338-.5175,1.0209-.5246,1.1539Z"/>
    <path class="cls-15" d="M780.7321,1115.864c.0923-.077-.4082-.8834-.0498-1.4814.3583-.598,1.3055-.537,1.3298-.6547.0334-.1613-1.6889-.5424-2.1218.1802-.4329.7225.7154,2.0615.8419,1.956Z"/>
    <path class="cls-15" d="M788.4731,1137.0518c-.0906-.0648-.6694.8359-1.9328,2.0105-1.7024,1.5828-3.0341,2.163-2.9718,2.2778.0689.127,1.816-.3656,3.2417-1.7274,1.1726-1.1201,1.7686-2.4852,1.6629-2.5608Z"/>
    <path class="cls-2" d="M804.2381,1130.5762c-.8654-.8751-10.0775,6.8318-20.5758,17.2138-10.4983,10.382-18.3073,19.5077-17.4419,20.3828.8654.8751,10.0774-6.8318,20.5757-17.2139,10.4983-10.382,18.3073-19.5077,17.4419-20.3827Z"/>
    <path class="cls-13" d="M807.1354,1126.2255c-.0378.1993,2.7944-2.0397,3.2894-1.5488.4951.4908-1.7201,3.3418-1.5211,3.3023.2727-.0543,4.8809-5.4941,4.2828-6.0872-.5981-.5931-5.9992,4.0605-6.0511,4.3337Z"/>
    <path class="cls-13" d="M767.2562,1164.8896c.3202-.0866-3.6898,4.6599-3.0022,5.3688.6875.7092,5.5547-3.1536,5.4584-2.8362-.1322.435-9.4847,8.4032-10.3154,7.5466-.8307-.8566,7.4204-9.9605,7.8592-10.0792Z"/>
    <path class="cls-13" d="M773.8929,1164.4135c.1936.2176,11.1316-8.1613,22.0279-20.6174,3.1679-3.6214,6.459-7.7323,6.3217-7.8527-.1615-.1414-4.951,5.3271-11.7844,12.3646-10.5297,10.8441-16.7131,15.9394-16.5652,16.1055Z"/>
  </g>
  <g>
    <path class="cls-8" d="M834.1951,774.3158c.0729-.1706,12.5013-29.2508,12.5727-29.4179.0206-.0481,7.3979-17.3101,7.4079-17.3336.0987-.2308,12.0706-28.2426,12.1672-28.4688-16.1125,15.2069-26.9764,20.3784-34.1165,22.1389-2.0347.5017-10.6496,2.423-11.357,7.3696-.3079,2.1528,1.1013,3.3431.9636,5.1078-.2376,3.0449-4.9641,6.2993-21.8523,8.4471,11.4048,10.719,22.8095,21.438,34.2143,32.157Z"/>
    <path class="cls-7" d="M799.9269,742.1868c.6566-.7881,8.8519,5.7751,18.3047,14.6595,9.4528,8.8844,16.5834,16.7255,15.9268,17.5136-.6566.7881-8.8519-5.7752-18.3046-14.6595-9.4528-8.8844-16.5834-16.7254-15.9268-17.5135Z"/>
    <path class="cls-14" d="M825.754,725.0298c-2.9298,1.9499-2.4056,7.9906-.7917,9.0414.2775.1807.6375.2466.9421.1564,1.7909-.5301-.5724-5.7941,1.5213-7.6267,1.8061-1.5809,6.128-.0495,6.2259-.4959.001-.0047.0002-.0104-.0027-.0168-.3078-.6993-5.179-2.8661-7.8949-1.0584Z"/>
    <ellipse class="cls-14" cx="830.266" cy="728.4327" rx=".8397" ry=".4705" transform="translate(-255.7197 929.9046) rotate(-51.7721)"/>
    <path class="cls-14" d="M835.2256,763.1239c3.0353.0183,2.9257-11.6993,9.0229-25.5408,3.5725-8.1101,6.8281-11.3926,6.5881-11.585-.649-.5201-23.6128,24.1569-18.0169,34.8646.1724.3299,1.1779,2.2538,2.4059,2.2612Z"/>
    <path class="cls-16" d="M811.9302,748.1765c.0794-.0925.9833.6795,2.1037,1.5954,4.3511,3.5572,6.4058,4.7411,8.6203,6.4659,5.366,4.1793,10.1995,10.3879,9.6463,11.0841-.7328.9223-11.3617-7.1007-10.7103-8.9425.1022-.289.4685-.2892.5251-.6303.155-.9335-2.2953-2.0007-4.5809-3.6414-3.5197-2.5266-5.7466-5.7657-5.6042-5.9313Z"/>
    <path class="cls-13" d="M813.5881,749.7363c.0695-.0809.8601.5943,1.8402,1.3955,3.8059,3.1115,5.6032,4.1471,7.5402,5.6558,4.6937,3.6556,8.9216,9.0864,8.4377,9.6954-.641.8068-9.9381-6.2111-9.3684-7.822.0894-.2528.4098-.2529.4593-.5513.1356-.8165-2.0077-1.75-4.007-3.1852-3.0787-2.2101-5.0266-5.0433-4.9021-5.1882Z"/>
    <path class="cls-13" d="M835.2862,759.6185c2.3642.0142,2.2789-9.1126,7.028-19.8938,2.7826-6.317,5.3184-8.8738,5.1315-9.0236-.5055-.4051-18.3921,18.8159-14.0334,27.1562.1343.257.9175,1.7555,1.8739,1.7613Z"/>
    <path class="cls-13" d="M825.877,725.1967c-2.0676,1.4569-1.9028,5.6225-.832,6.292.1841.1151.4283.1478.6397.0743,1.2427-.4321-.2058-3.993,1.286-5.3384,1.2868-1.1606,4.1954-.2561,4.2768-.5689.0009-.0033.0005-.0072-.0013-.0116-.1882-.4733-3.4524-1.7979-5.3691-.4474Z"/>
    <ellipse class="cls-13" cx="830.3968" cy="728.2758" rx=".5175" ry=".2868" transform="translate(-234.1123 1022.8348) rotate(-56.7187)"/>
    <path class="cls-15" d="M833.8013,754.7824c.1255-.049.5212,1.3668,1.2715,1.4578.7503.091,1.29-1.2115,1.4088-1.1328.1627.1077-.5811,2.7299-1.4876,2.62-.9066-.1099-1.3646-2.8779-1.1926-2.945Z"/>
    <path class="cls-15" d="M824.6821,730.0139c.0612-.0147.2662.4813.6348.526.3687.0447.6233-.3956.6821-.3663.0806.0401-.2638.9325-.7093.8785-.4454-.054-.6915-1.0181-.6077-1.0382Z"/>
    <path class="cls-15" d="M822.6369,758.5864c.1828-.1201,1.0419,1.9927,2.6093,2.5093.2365.0779.7594.2087.8824.5793.0973.2936-.1321.5089.0017.7503.1306.2355.4304.177.7917.3512.4583.2209.6614.6451.8491.9423.8207,1.2992,2.4084,1.8481,2.3717,1.9222-.0317.0641-1.1894-.4044-2.4384-1.3742-.0607-.0471-.2266-.2035-.473-.3998-.4002-.3189-.6714-.4878-.9053-.6515-.3701-.2591-.6104-.4825-1.0909-.9291-1.0121-.9408-1.8271-1.7126-2.3724-2.916-.0495-.1092-.3256-.7185-.2261-.7839Z"/>
    <path class="cls-15" d="M835.8069,749.8388c-.0434-.0273.0094-.3214.0672-.6085.3885-1.9324.7468-3.714,1.9788-5.6839.734-1.1736,1.6969-2.2844,1.8183-2.1823.1406.1183-1.0032,1.737-2.3379,4.8522-.8142,1.9001-1.4147,3.6927-1.5264,3.6226Z"/>
    <path class="cls-13" d="M858.1342,709.1397c.2013.1851-2.0035,4.2252-6.2303,7.4691-5.8108,4.4598-12.5676,5.2078-12.6936,4.9512-.1112-.2263,4.9786-1.1477,10.8123-5.1221,5.2977-3.6092,7.9068-7.4865,8.1116-7.2982Z"/>
    <path class="cls-14" d="M820.3284,739.3185c.2813,2.1485-5.163,5.1874-10.485,5.0701-3.1539-.0696-5.8157-1.2361-5.783-1.6115.0484-.557,5.9299,1.7785,10.7492-1.1876,2.1709-1.3361,4.1127-3.7297,5.1089-3.065.3354.2238.3979.7015.41.794Z"/>
    <path class="cls-13" d="M819.0047,740.5686c.2256,1.7231-4.1405,4.1602-8.4087,4.066-2.5293-.0558-4.664-.9913-4.6378-1.2923.0388-.4467,4.7555,1.4263,8.6205-.9524,1.741-1.0715,3.2982-2.9911,4.0971-2.458.269.1795.3191.5626.3288.6367Z"/>
    <path class="cls-15" d="M819.414,740.4575c-.0522-.0417.1756-.499-.0404-.8278-.216-.3287-.7131-.2812-.7313-.3466-.0249-.0896.8669-.3269,1.1279.0703.261.3972-.2848,1.1611-.3563,1.104Z"/>
    <path class="cls-15" d="M816.2823,752.3967c.0449-.0374.3909.4571,1.1105,1.0948.9696.8593,1.6986,1.1643,1.6708,1.2293-.0306.0719-.9748-.1782-1.7885-.9182-.6692-.6086-1.0452-1.3622-.9928-1.4059Z"/>
    <path class="cls-2" d="M807.671,749.0064c.4173-.5009,5.6257,3.6703,11.6333,9.3167,6.0076,5.6464,10.5394,10.6297,10.1221,11.1306-.4173.5009-5.6257-3.6703-11.6333-9.3167-6.0076-5.6464-10.5394-10.6297-10.1221-11.1305Z"/>
    <path class="cls-13" d="M805.9462,746.6188c.0289.1107-1.5665-1.0989-1.8057-.8177-.2392.2811,1.0582,1.8411.9514,1.8219-.1464-.0264-2.8231-2.9977-2.5341-3.3373.2889-.3396,3.3488,2.1813,3.3884,2.3331Z"/>
    <path class="cls-13" d="M828.732,767.6354c-.1729-.0438,2.157,2.5489,1.826,2.9545-.3309.4057-3.0734-1.6814-3.0083-1.5055.0894.241,5.3836,4.5561,5.7835,4.066.3999-.4901-4.3643-5.4549-4.6012-5.5149Z"/>
    <path class="cls-13" d="M825.2082,767.4643c-.0924.1242-6.2419-4.3975-12.5528-11.1961-1.8348-1.9766-3.7567-4.2247-3.6896-4.2938.0788-.0813,2.8526,2.9034,6.7755,6.7348,6.0449,5.9039,9.5375,8.6603,9.4669,8.7551Z"/>
  </g>
  <g>
    <path class="cls-8" d="M836.4635,631.7037c.0453-.1061,7.7767-18.1961,7.8211-18.3001.0128-.0299,4.602-10.7681,4.6083-10.7827.0614-.1436,7.5088-17.5689,7.5689-17.7097-10.0231,9.4598-16.7813,12.6768-21.2229,13.772-1.2657.3121-6.6248,1.5073-7.0649,4.5844-.1915,1.3392.6851,2.0797.5994,3.1774-.1478,1.8942-3.088,3.9186-13.5937,5.2547,7.0946,6.668,14.1892,13.336,21.2837,20.0039Z"/>
    <path class="cls-7" d="M815.1462,611.7172c.4085-.4903,5.5065,3.5926,11.3868,9.1193,5.8803,5.5267,10.3161,10.4044,9.9076,10.8947-.4085.4903-5.5065-3.5926-11.3868-9.1193-5.8803-5.5267-10.3161-10.4044-9.9076-10.8947Z"/>
    <path class="cls-14" d="M831.2125,601.0443c-1.8225,1.213-1.4964,4.9707-.4925,5.6244.1726.1124.3965.1534.586.0973,1.1141-.3298-.3561-3.6043.9464-4.7444,1.1236-.9835,3.812-.0308,3.873-.3085.0006-.003.0001-.0065-.0017-.0105-.1914-.435-3.2217-1.7829-4.9112-.6584Z"/>
    <ellipse class="cls-14" cx="834.0193" cy="603.1612" rx=".5224" ry=".2927" transform="translate(-155.8812 885.0985) rotate(-51.7721)"/>
    <path class="cls-14" d="M837.1045,624.7416c1.8882.0114,1.82-7.2778,5.6129-15.8882,2.2223-5.0451,4.2476-7.087,4.0982-7.2067-.4037-.3236-14.6889,15.0273-11.2078,21.6883.1072.2052.7327,1.402,1.4966,1.4066Z"/>
    <path class="cls-16" d="M822.6131,615.4433c.0494-.0575.6117.4227,1.3087.9925,2.7067,2.2128,3.9848,2.9493,5.3624,4.0223,3.3381,2.5998,6.3448,6.462,6.0007,6.8951-.4559.5738-7.0678-4.4172-6.6626-5.5629.0636-.1798.2915-.1799.3267-.3921.0964-.5807-1.4279-1.2446-2.8497-2.2652-2.1895-1.5718-3.5748-3.5867-3.4862-3.6897Z"/>
    <path class="cls-13" d="M823.6444,616.4135c.0432-.0503.5351.3697,1.1447.8681,2.3675,1.9356,3.4856,2.5798,4.6906,3.5183,2.9198,2.2741,5.5499,5.6524,5.2489,6.0312-.3988.5019-6.1822-3.8637-5.8278-4.8659.0556-.1573.2549-.1573.2857-.3429.0843-.5079-1.249-1.0886-2.4926-1.9814-1.9152-1.3748-3.1269-3.1373-3.0494-3.2274Z"/>
    <path class="cls-13" d="M837.1423,622.561c1.4707.0089,1.4176-5.6687,4.3719-12.3754,1.731-3.9296,3.3085-5.5201,3.1921-5.6133-.3145-.252-11.4412,11.7048-8.7298,16.8931.0835.1598.5707,1.092,1.1657,1.0956Z"/>
    <path class="cls-13" d="M831.289,601.1482c-1.2862.9063-1.1837,3.4976-.5176,3.9141.1145.0716.2665.0919.3979.0462.773-.2688-.128-2.484.8-3.3208.8005-.7219,2.6098-.1593,2.6605-.3539.0005-.0021.0003-.0045-.0008-.0072-.1171-.2944-2.1476-1.1184-3.34-.2783Z"/>
    <ellipse class="cls-13" cx="834.1006" cy="603.0636" rx=".322" ry=".1784" transform="translate(-127.7652 969.4292) rotate(-56.7187)"/>
    <path class="cls-15" d="M836.2185,619.5526c.0781-.0305.3242.8503.7909.9069.4667.0566.8025-.7536.8764-.7047.1012.067-.3615,1.6982-.9254,1.6298s-.8489-1.7903-.7419-1.832Z"/>
    <path class="cls-15" d="M830.5457,604.1448c.0381-.0091.1656.2994.3949.3272s.3877-.2461.4243-.2279c.0502.0249-.1641.5801-.4412.5465-.2771-.0336-.4302-.6333-.378-.6458Z"/>
    <path class="cls-15" d="M829.2735,621.9189c.1137-.0747.6481,1.2396,1.6232,1.561.1471.0485.4724.1298.5489.3604.0606.1826-.0822.3166.0011.4667.0812.1465.2677.1101.4925.2185.2851.1374.4114.4013.5282.5862.5105.8082,1.4982,1.1497,1.4754,1.1957-.0197.0399-.7399-.2516-1.5168-.8549-.0378-.0293-.1409-.1266-.2942-.2487-.249-.1984-.4177-.3034-.5631-.4053-.2302-.1612-.3797-.3002-.6786-.578-.6296-.5853-1.1366-1.0654-1.4758-1.8139-.0308-.0679-.2026-.447-.1407-.4876Z"/>
    <path class="cls-15" d="M837.4661,616.4773c-.027-.017.0059-.1999.0418-.3786.2417-1.2021.4646-2.3103,1.231-3.5358.4566-.7301,1.0556-1.4211,1.1311-1.3576.0875.0736-.624,1.0806-1.4543,3.0184-.5065,1.182-.8801,2.2971-.9495,2.2535Z"/>
    <path class="cls-13" d="M851.3553,591.1596c.1252.1152-1.2463,2.6284-3.8757,4.6463-3.6147,2.7743-7.8179,3.2396-7.8963,3.08-.0692-.1408,3.097-.714,6.726-3.1863,3.2956-2.2452,4.9186-4.6571,5.046-4.54Z"/>
    <path class="cls-14" d="M827.8374,609.933c.175,1.3365-3.2117,3.227-6.5224,3.154-1.962-.0433-3.6178-.7689-3.5974-1.0024.0301-.3465,3.6888,1.1063,6.6868-.7388,1.3504-.8312,2.5584-2.3201,3.1781-1.9067.2086.1392.2475.4364.255.4939Z"/>
    <path class="cls-13" d="M827.014,610.7106c.1403,1.0719-2.5757,2.5879-5.2308,2.5294-1.5734-.0347-2.9013-.6167-2.885-.8039.0241-.2779,2.9583.8873,5.3626-.5925,1.083-.6666,2.0517-1.8607,2.5487-1.5291.1673.1116.1985.35.2045.3961Z"/>
    <path class="cls-15" d="M827.2686,610.6415c-.0325-.0259.1093-.3104-.0251-.5149-.1344-.2045-.4436-.1749-.4549-.2156-.0155-.0557.5393-.2033.7016.0437.1624.2471-.1771.7223-.2216.6868Z"/>
    <path class="cls-15" d="M825.3204,618.0685c.0279-.0233.2432.2843.6908.6811.6032.5346,1.0566.7243,1.0394.7647-.0191.0447-.6064-.1108-1.1126-.5712-.4163-.3786-.6502-.8474-.6176-.8746Z"/>
    <path class="cls-2" d="M819.9636,615.9595c.2596-.3116,3.4996,2.2832,7.2368,5.7956,3.7372,3.5124,6.5562,6.6124,6.2966,6.924-.2596.3116-3.4996-2.2832-7.2367-5.7957-3.7372-3.5124-6.5563-6.6124-6.2967-6.924Z"/>
    <path class="cls-13" d="M818.8907,614.4742c.018.0689-.9745-.6836-1.1232-.5087-.1488.1749.6583,1.1453.5918,1.1334-.0911-.0164-1.7562-1.8648-1.5764-2.076s2.0832,1.3569,2.1078,1.4514Z"/>
    <path class="cls-13" d="M833.0651,627.5481c-.1076-.0272,1.3418,1.5856,1.1359,1.8379-.2058.2524-1.9119-1.0459-1.8713-.9366.0556.1499,3.349,2.8342,3.5977,2.5293.2487-.3049-2.7149-3.3934-2.8623-3.4307Z"/>
    <path class="cls-13" d="M830.873,627.4416c-.0575.0773-3.8829-2.7356-7.8088-6.9648-1.1414-1.2296-2.3369-2.628-2.2952-2.6711.049-.0506,1.7745,1.8061,4.2149,4.1895,3.7604,3.6726,5.933,5.3873,5.8891,5.4463Z"/>
  </g>
  <g>
    <path class="cls-8" d="M780.6949,564.6319c-.0736-.0889-12.623-15.2392-12.6952-15.3263-.0208-.025-7.47-9.0183-7.4801-9.0306-.0996-.1203-12.188-14.714-12.2857-14.8318,12.2965,6.2246,19.69,7.3905,24.2597,7.1794,1.3023-.0601,6.7801-.4357,8.0758,2.3899.5639,1.2297-.0664,2.1886.3274,3.2169.6795,1.7743,4.0735,2.8806,14.5262,1.1788-4.9094,8.4079-9.8188,16.8158-14.7282,25.2237Z"/>
    <path class="cls-7" d="M795.4602,539.4154c-.5309-.3541-4.2599,5.0082-8.329,11.977-4.0691,6.9688-6.9374,12.9053-6.4065,13.2594.5309.3541,4.2599-5.0082,8.329-11.977,4.0691-6.9688,6.9374-12.9052,6.4066-13.2594Z"/>
    <path class="cls-14" d="M777.0247,533.7434c2.0919.6456,2.8462,4.3413,2.0692,5.2531-.1336.1568-.3367.2597-.5343.2597-1.1619.0001-.682-3.5571-2.2545-4.2804-1.3565-.624-3.6639,1.0528-3.8012.8039-.0015-.0026-.0019-.0062-.0014-.0105.0601-.4715,2.5829-2.6243,4.5222-2.0258Z"/>
    <ellipse class="cls-14" cx="774.9345" cy="536.5701" rx=".2927" ry=".5224" transform="translate(-110.6547 859.3125) rotate(-54.7227)"/>
    <path class="cls-14" d="M778.1035,558.1383c-1.8072.547-3.8115-6.4615-9.893-13.6407-3.5633-4.2065-6.085-5.5894-5.9758-5.7465.2952-.4249,18.351,10.2383,16.9044,17.6135-.0445.2272-.3045,1.5524-1.0357,1.7737Z"/>
    <path class="cls-16" d="M789.3585,545.1082c-.0637-.0411-.4665.579-.973,1.3232-1.967,2.8903-2.9835,3.9594-3.9997,5.3793-2.4625,3.4406-4.249,7.9975-3.796,8.3151.6.4207,5.5228-6.2421,4.8089-7.2256-.112-.1543-.3305-.0897-.4245-.2832-.2573-.5294,1.0157-1.5988,2.0892-2.9811,1.6531-2.1287,2.4093-4.4541,2.2952-4.5277Z"/>
    <path class="cls-13" d="M788.6451,546.3314c-.0557-.036-.4081.5064-.8511,1.1574-1.7205,2.5281-2.6096,3.4633-3.4986,4.7053-2.154,3.0095-3.7166,6.9955-3.3204,7.2733.5248.368,4.8308-5.46,4.2064-6.3203-.098-.135-.2891-.0785-.3713-.2477-.2251-.4631.8885-1.3984,1.8275-2.6076,1.446-1.862,2.1074-3.896,2.0076-3.9604Z"/>
    <path class="cls-13" d="M777.4482,556.0582c-1.4077.4261-2.9688-5.0329-7.7057-10.6248-2.7755-3.2764-4.7396-4.3536-4.6545-4.476.23-.3309,14.2937,7.9747,13.1669,13.7192-.0347.177-.2372,1.2091-.8067,1.3815Z"/>
    <path class="cls-13" d="M776.9809,533.8647c1.4906.5038,2.128,3.0176,1.6076,3.606-.0895.1012-.2294.1638-.3684.1573-.8175-.0382-.5825-2.4181-1.7099-2.957-.9725-.465-2.5477.5882-2.6515.416-.0011-.0018-.0015-.0042-.0013-.0071.0286-.3155,1.7417-1.6822,3.1235-1.2152Z"/>
    <ellipse class="cls-13" cx="774.8288" cy="536.4996" rx=".1784" ry=".322" transform="translate(-135.1693 781.6424) rotate(-49.776)"/>
    <path class="cls-15" d="M777.4798,552.9113c-.0835-.0071-.0694.9073-.5009,1.0941-.4315.1868-.9834-.4948-1.0404-.4269-.078.093.8288,1.5257,1.3501,1.3.5213-.2257.3056-1.9576.1912-1.9673Z"/>
    <path class="cls-15" d="M778.5444,536.527c-.0391.002-.0738.3341-.2858.4259s-.4416-.1259-.4716-.098c-.041.0381.3221.5096.5782.3987.2562-.1109.2326-.7294.1791-.7266Z"/>
    <path class="cls-15" d="M784.8109,553.2084c-.1303-.0393-.2695,1.3726-1.1132,1.9576-.1273.0882-.4161.2586-.424.5014-.0062.1923.1687.2802.1315.4478-.0363.1635-.2254.1816-.4102.3493-.2344.2127-.2806.5016-.34.712-.26.9199-1.1101,1.5277-1.0751,1.5654.0302.0326.638-.4513,1.2117-1.2504.0279-.0388.0992-.1614.2115-.322.1824-.2609.3143-.4095.4249-.5485.175-.2199.2788-.3956.4866-.7469.4375-.7399.7873-1.3443.9-2.1583.0102-.0739.0673-.4861-.0036-.5075Z"/>
    <path class="cls-15" d="M775.4104,550.3168c.0211-.0239-.0624-.19-.1476-.3511-.5731-1.084-1.1014-2.0834-2.1842-3.0408-.6451-.5704-1.4157-1.0629-1.47-.9806-.063.0954.9052.8589,2.2515,2.4813.8212.9895,1.4961,1.9527,1.5503,1.8912Z"/>
    <path class="cls-13" d="M754.9044,529.9845c-.0874.146,1.9413,2.1664,5.0354,3.3547,4.2537,1.6338,8.416.8866,8.4459.7113.0264-.1546-3.1723.1947-7.3539-1.1455-3.7974-1.2171-6.0385-3.0689-6.1273-2.9205Z"/>
    <path class="cls-14" d="M782.7847,541.308c.2117,1.3312,3.9958,2.1823,7.1495,1.1723,1.8689-.5986,3.2506-1.7645,3.1648-1.9826-.1273-.3237-3.2229,2.1082-6.6213,1.1902-1.5309-.4135-3.1118-1.4982-3.5886-.9258-.1605.1927-.1134.4887-.1043.546Z"/>
    <path class="cls-13" d="M783.795,541.8198c.1698,1.0676,3.2045,1.7501,5.7337.9401,1.4988-.48,2.6068-1.4151,2.538-1.59-.1021-.2596-2.5846,1.6907-5.3101.9545-1.2277-.3316-2.4956-1.2015-2.878-.7425-.1287.1545-.0909.3919-.0836.4379Z"/>
    <path class="cls-15" d="M783.5313,541.8258c.0238-.0341-.1929-.2666-.1221-.5009.0708-.2342.3757-.2937.375-.3359-.001-.0578-.5748-.0419-.6603.2411s.3749.6423.4075.5956Z"/>
    <path class="cls-15" d="M787.508,548.3941c-.0334-.0144-.1524.3417-.469.8492-.4266.6838-.8075.9945-.7795,1.0283.031.0375.55-.2785.9046-.8635.2917-.4812.3828-.9971.3439-1.014Z"/>
    <path class="cls-2" d="M792.0455,544.8509c-.3374-.2251-2.7073,3.1829-5.2934,7.6118-2.5861,4.429-4.409,8.2018-4.0716,8.4268.3374.2251,2.7073-3.1829,5.2934-7.6118,2.5861-4.429,4.409-8.2018,4.0716-8.4268Z"/>
    <path class="cls-13" d="M792.6526,543.1221c.0023.0712.7403-.9321.9326-.8067.1923.1254-.306,1.2851-.2457,1.2548.0826-.0416,1.1544-2.2866.9221-2.4382-.2323-.1516-1.6122,1.8926-1.609,1.9901Z"/>
    <path class="cls-13" d="M782.7736,559.6824c.0954-.0566-.8364,1.9013-.5673,2.0848.269.1836,1.5362-1.5457,1.5284-1.4293-.0107.1595-2.4065,3.6684-2.7315,3.4467-.3251-.2217,1.6397-4.0245,1.7704-4.1022Z"/>
    <path class="cls-13" d="M784.8452,558.958c.0771.0578,2.9464-3.7255,5.5099-8.8953.7453-1.503,1.4946-3.1834,1.4424-3.2128-.0614-.0345-1.1887,2.2356-2.8519,5.2138-2.5629,4.5892-4.1592,6.8501-4.1004,6.8942Z"/>
  </g>
  <g>
    <path class="cls-8" d="M795.8306,709.2624c-.0729-.1706-12.5013-29.2508-12.5727-29.4179-.0206-.0481-7.3979-17.3101-7.4079-17.3336-.0987-.2308-12.0706-28.2426-12.1672-28.4688,16.1125,15.2069,26.9764,20.3784,34.1165,22.1389,2.0347.5017,10.6496,2.423,11.357,7.3696.3079,2.1528-1.1013,3.3431-.9636,5.1078.2376,3.0449,4.9641,6.2993,21.8523,8.4471-11.4048,10.719-22.8095,21.438-34.2143,32.157Z"/>
    <path class="cls-7" d="M830.0988,677.1335c-.6566-.7881-8.8519,5.7751-18.3047,14.6595-9.4528,8.8844-16.5834,16.7255-15.9268,17.5136.6566.7881,8.8519-5.7752,18.3046-14.6595,9.4528-8.8844,16.5834-16.7254,15.9268-17.5135Z"/>
    <path class="cls-14" d="M804.2716,659.9764c2.9298,1.9499,2.4056,7.9906.7917,9.0414-.2775.1807-.6375.2466-.9421.1564-1.7909-.5301.5724-5.7941-1.5213-7.6267-1.8061-1.5809-6.128-.0495-6.2259-.4959-.001-.0047-.0002-.0104.0027-.0168.3078-.6993,5.179-2.8661,7.8949-1.0584Z"/>
    <ellipse class="cls-14" cx="799.7596" cy="663.3793" rx=".4705" ry=".8397" transform="translate(-238.9893 637.1426) rotate(-38.2279)"/>
    <path class="cls-14" d="M794.8,698.0705c-3.0353.0183-2.9257-11.6993-9.0229-25.5408-3.5725-8.1101-6.8281-11.3926-6.5881-11.585.649-.5201,23.6128,24.1569,18.0169,34.8646-.1724.3299-1.1779,2.2538-2.4059,2.2612Z"/>
    <path class="cls-16" d="M818.0955,683.1232c-.0794-.0925-.9833.6795-2.1037,1.5954-4.3511,3.5572-6.4058,4.7411-8.6203,6.4659-5.366,4.1793-10.1995,10.3879-9.6463,11.0841.7328.9223,11.3617-7.1007,10.7103-8.9425-.1022-.289-.4685-.2892-.5251-.6303-.155-.9335,2.2953-2.0007,4.5809-3.6414,3.5197-2.5266,5.7466-5.7657,5.6042-5.9313Z"/>
    <path class="cls-13" d="M816.4376,684.6829c-.0695-.0809-.8601.5943-1.8402,1.3955-3.8059,3.1115-5.6032,4.1471-7.5402,5.6558-4.6937,3.6556-8.9216,9.0864-8.4377,9.6954.641.8068,9.9381-6.2111,9.3684-7.822-.0894-.2528-.4098-.2529-.4593-.5513-.1356-.8165,2.0077-1.75,4.007-3.1852,3.0787-2.2101,5.0266-5.0433,4.9021-5.1882Z"/>
    <path class="cls-13" d="M794.7394,694.5652c-2.3642.0142-2.2789-9.1126-7.028-19.8938-2.7826-6.317-5.3184-8.8738-5.1315-9.0236.5055-.4051,18.3921,18.8159,14.0334,27.1562-.1343.257-.9175,1.7555-1.8739,1.7613Z"/>
    <path class="cls-13" d="M804.1486,660.1433c2.0676,1.4569,1.9028,5.6225.832,6.292-.1841.1151-.4283.1478-.6397.0743-1.2427-.4321.2058-3.993-1.286-5.3384-1.2868-1.1606-4.1954-.2561-4.2768-.5689-.0009-.0033-.0005-.0072.0013-.0116.1882-.4733,3.4524-1.7979,5.3691-.4474Z"/>
    <ellipse class="cls-13" cx="799.6289" cy="663.2224" rx=".2868" ry=".5175" transform="translate(-232.7934 547.5739) rotate(-33.2813)"/>
    <path class="cls-15" d="M796.2244,689.729c-.1255-.049-.5212,1.3668-1.2715,1.4578-.7503.091-1.29-1.2115-1.4088-1.1328-.1627.1077.5811,2.7299,1.4876,2.62.9066-.1099,1.3646-2.8779,1.1926-2.945Z"/>
    <path class="cls-15" d="M805.3435,664.9605c-.0612-.0147-.2662.4813-.6348.526-.3687.0447-.6233-.3956-.6821-.3663-.0806.0401.2638.9325.7093.8785.4454-.054.6915-1.0181.6077-1.0382Z"/>
    <path class="cls-15" d="M807.3887,693.533c-.1828-.1201-1.0419,1.9927-2.6093,2.5093-.2365.0779-.7594.2087-.8824.5793-.0973.2936.1321.5089-.0017.7503-.1306.2355-.4304.177-.7917.3512-.4583.2209-.6614.6451-.8491.9423-.8207,1.2992-2.4084,1.8481-2.3717,1.9222.0317.0641,1.1894-.4044,2.4384-1.3742.0607-.0471.2266-.2035.473-.3998.4002-.3189.6714-.4878.9053-.6515.3701-.2591.6104-.4825,1.0909-.9291,1.0121-.9408,1.8271-1.7126,2.3724-2.916.0495-.1092.3256-.7185.2261-.7839Z"/>
    <path class="cls-15" d="M794.2187,684.7854c.0434-.0273-.0094-.3214-.0672-.6085-.3885-1.9324-.7468-3.714-1.9788-5.6839-.734-1.1736-1.6969-2.2844-1.8183-2.1823-.1406.1183,1.0032,1.737,2.3379,4.8522.8142,1.9001,1.4147,3.6927,1.5264,3.6226Z"/>
    <path class="cls-13" d="M771.8914,644.0863c-.2013.1851,2.0035,4.2252,6.2303,7.4691,5.8108,4.4598,12.5676,5.2078,12.6936,4.9512.1112-.2263-4.9786-1.1477-10.8123-5.1221-5.2977-3.6092-7.9068-7.4865-8.1116-7.2982Z"/>
    <path class="cls-14" d="M809.6972,674.2652c-.2813,2.1485,5.163,5.1874,10.485,5.0701,3.1539-.0696,5.8157-1.2361,5.783-1.6115-.0484-.557-5.9299,1.7785-10.7492-1.1876-2.1709-1.3361-4.1127-3.7297-5.1089-3.065-.3354.2238-.3979.7015-.41.794Z"/>
    <path class="cls-13" d="M811.0209,675.5153c-.2256,1.7231,4.1405,4.1602,8.4087,4.066,2.5293-.0558,4.664-.9913,4.6378-1.2923-.0388-.4467-4.7555,1.4263-8.6205-.9524-1.741-1.0715-3.2982-2.9911-4.0971-2.458-.269.1795-.3191.5626-.3288.6367Z"/>
    <path class="cls-15" d="M810.6116,675.4042c.0522-.0417-.1756-.499.0404-.8278.216-.3287.7131-.2812.7313-.3466.0249-.0896-.8669-.3269-1.1279.0703-.261.3972.2848,1.1611.3563,1.104Z"/>
    <path class="cls-15" d="M813.7433,687.3434c-.0449-.0374-.3909.4571-1.1105,1.0948-.9696.8593-1.6986,1.1643-1.6708,1.2293.0306.0719.9748-.1782,1.7885-.9182.6692-.6086,1.0452-1.3622.9928-1.4059Z"/>
    <path class="cls-2" d="M822.3546,683.953c-.4173-.5009-5.6257,3.6703-11.6333,9.3167-6.0076,5.6464-10.5394,10.6297-10.1221,11.1306s5.6257-3.6703,11.6333-9.3167c6.0076-5.6464,10.5394-10.6297,10.1221-11.1305Z"/>
    <path class="cls-13" d="M824.0794,681.5654c-.0289.1107,1.5665-1.0989,1.8057-.8177.2392.2811-1.0582,1.8411-.9514,1.8219.1464-.0264,2.8231-2.9977,2.5341-3.3373-.2889-.3396-3.3488,2.1813-3.3884,2.3331Z"/>
    <path class="cls-13" d="M801.2936,702.5821c.1729-.0438-2.157,2.5489-1.826,2.9545.3309.4057,3.0734-1.6814,3.0083-1.5055-.0894.241-5.3836,4.5561-5.7835,4.066-.3999-.4901,4.3643-5.4549,4.6012-5.5149Z"/>
    <path class="cls-13" d="M804.8174,702.4109c.0924.1242,6.2419-4.3975,12.5528-11.1961,1.8348-1.9766,3.7567-4.2247,3.6896-4.2938-.0788-.0813-2.8526,2.9034-6.7755,6.7348-6.0449,5.9039-9.5375,8.6603-9.4669,8.7551Z"/>
  </g>
  <g>
    <path class="cls-18" d="M845.9329,379.3572c-19.3802,536.6085-15.0418,756.6537,0,810.5888,1.8272,6.5534,11.7504,39.1174,0,49.0148-14.0929,11.8693-53.6189-13.6828-70.1722-29.6573-71.9032-69.3933,4.8283-239.4857,18.1101-418.6014,5.3526-72.1749-1.7419-133.5692-7.432-180.1045-2.1411-17.5127-5.2782-43.165-11.5036-72.9692-9.8833-47.3151-30.1054-117.3398-75.8206-198.6038"/>
    <path class="cls-10" d="M734.5756,398.6392c13.9124,66.0996,32.1585,96.0886,47.3368,110.9722,3.6485,3.5773,11.9566,11.0266,13.5879,22.6476,3.3543,23.8933-24.1515,46.7616-20.8347,49.8215,1.9233,1.7712,12.6819-4.5263,12.6819-4.5263,38.9909-26.5795,57.9118-54.4317,67.9405-74.2822,23.8928-47.2941,29.3889-112.6675,30.0861-116.0719-8.5022,7.5772-24.5936,19.9054-48.1554,26.9651-24.0224,7.1976-43.6816,5.2845-49.2938,4.6212-25.5975-3.0269-44.033-13.7638-53.3493-20.1472Z"/>
    <path class="cls-10" d="M973.9496,356.4446c16.2535,2.3955,41.0412,11.6981,59.6864,23.796,10.8807,7.06,18.4574,14.2876,34.2882,16.9946,16.8388,2.8775,29.3963-1.6842,30.479,0,1.9469,3.0303-35.3423,22.9407-82.5459,29.745-60.5879,8.7354-138.3177-4.0062-143.5016-24.6455-5.0478-20.1014,57.5265-52.3859,101.594-45.8902Z"/>
    <path class="cls-10" d="M647.4678,367.6556c-16.2535,2.3955-41.0412,11.6981-59.6864,23.796-10.8807,7.06-18.4574,14.2876-34.2882,16.9946-16.8388,2.8775-29.3963-1.6842-30.479,0-1.9469,3.0303,35.3423,22.9407,82.5459,29.745,60.5879,8.7354,138.3177-4.0062,143.5016-24.6455,5.0478-20.1014-57.5265-52.3859-101.594-45.8902Z"/>
    <path class="cls-17" d="M688.1927,141.5206s35.5672,20.3769,71.7058,24.0571c31.2342,3.1807,28.3766-9.627,60.0766-5.777,14.3444,1.7422,48.2154,5.8549,68.7416,26.2838,1.9944,1.9849,4.7426,4.9988,6.1097,4.2906,4.1058-2.1268-.7622-39.5331-21.9955-55.125-30.5884-22.4618-84.4764,8.1755-93.6254-8.3933-3.373-6.1087,3.9549-11.3922.2887-18.4849-7.8379-15.1633-54.0663-16.4929-73.8007,4.9269-7.5002,8.1406-23.1718,37.728-17.5009,28.2218Z"/>
    <path class="cls-4" d="M701.9975,307.5385c7.4863,66.7919,39.5139,93.3135,30.3381,100.548-16.2679,12.8257-102.3346-82.0531-131.236-144.4496-6.0185-12.9936-12.0206-29.9011-4.6215-40.8218,8.2577-12.1884,25.2369-5.1567,38.5107-20.7955,8.7694-10.3323,7.6776-20.8464,18.4851-25.4167,6.5977-2.7901,13.272-1.5224,14.6341-1.2387.0015,0,8.0999,1.6843,15.0552,8.9797,25.3023,26.5395,12.6404,67.9337,18.8343,123.1946Z"/>
    <path class="cls-5" d="M656.2083,171.3182s-.3719-20.3144,3.152-37.856c4.1827-20.8209,10.0986-19.0417,10.4352-30.9106.6471-22.8102-21.1559-31.0852-18.5226-47.7356,2.2894-14.4764,21.0312-22.5179,29.8581-26.3047,31.8463-13.6624,63.553-1.9964,87.5996,6.7414,21.3851,7.7705,58.8973,25.1649,56.7898,39.1561-1.0681,7.0915-10.9447,6.4551-22.9805,21.3436-10.3903,12.8524-13.9955,26.935-16.1203,26.2438-1.6273-.5298,1.8408-8.3501-1.913-15.8943-3.3131-6.6581-10.3326-9.4787-16.1745-11.4447-14.7437-4.9621-27.8864-2.7323-30.0032-2.3476-4.2081.7643-26.9109,5.3306-42.3834,25.5009-18.6565,24.3215-12.2988,52.4135-26.15,56.5536-5.1142,1.5285-10.3343-1.0119-13.5872-3.0459Z"/>
    <path class="cls-6" d="M870.4236,398.0329c2.1033,3.0289,22.8067-7.0517,39.5151-18.0943,15.6678-10.3543,29.5145-19.9044,37.8833-37.0037,5.4519-11.1395,5.9556-20.7186,6.5964-29.2348,3.5736-47.4789,3.881-79.6946,18.4851-105.1333,16.8204-29.2997,42.1676-44.1743,36.3926-63.9778-2.1236-7.2825-8.7579-16.2692-17.9075-20.9383-8.9887-4.5873-17.7382-3.6452-20.7957-3.4664-30.7964,1.8031-54.0374-40.3712-86.0715-50.256-46.0389-14.2063-107.032,38.7889-102.0502,53.8473,4.8522,14.6668,70.7436-11.3333,101.7642,23.8943,13.0168,14.7817,14.0637,33.7241,15.1291,53.0022,2.9902,54.108-26.1689,63.829-18.8867,106.6747,4.7826,28.1389,19.5433,39.5591,12.0068,60.7052-6.5305,18.324-24.0037,27.1839-22.0612,29.981Z"/>
    <path class="cls-4" d="M920.7895,373.2375c17.9654-11.8627,59.1541-37.3394,72.7338-83.6065,5.7188-19.4848,3.4015-31.3795,15.0192-42.1684,20.0006-18.5738,52.0557-5.9798,56.6107-17.9075,3.6889-9.66-14.5597-25.1879-23.1063-31.1937-7.214-5.0698-23.7642-17.2422-41.5915-13.8647-24.2789,4.5992-36.0604,35.0487-39.8585,44.8656-19.6175,50.7056,3.9367,72.6389-12.7086,108.5997-21.5977,46.6597-86.3729,58.5295-85.3382,60.7382.6935,1.4795,28.7745-6.0068,58.2395-25.4627Z"/>
    <path class="cls-3" d="M882.4328,298.2323c-.5579,33.1787,15.5279,38.5371,10.7828,62.3875-7.4108,37.2475-55.1782,67.0686-100.3262,69.0546-6.748.2967-57.6931,1.8231-83.7546-32.0848-16.3104-21.221-5.5315-33.7561-17.9135-103.7257-7.4932-42.3442-13.4319-49.0043-14.4356-80.3549-.3359-10.4921-2.2429-70.0645,17.7149-76.2511,13.1094-4.0638,22.0787,19.1132,52.3746,25.4167,18.7893,3.91,28.564-2.2537,46.0142-4.6212,46.669-6.3324,107.9813,19.9444,116.5007,53.9152,6.9039,27.5285-26.1619,38.9657-26.9574,86.2638Z"/>
    <path class="cls-5" d="M649.9366,169.6904c3.844-12.0835,3.897-9.4872,7.1723-20.1192,6.6708-21.6526,10.6352-34.5213,9.0022-48.6227-1.715-14.8087-10.5006-38.7289-26.4429-42.533-25.5433-6.0947-62.6325,41.0825-54.0069,65.3624,3.5343,9.9487,10.6412,8.9907,17.4849,20.0043,19.7905,31.8481-13.6671,87.2977-8.8576,89.4505,2.2821,1.0209,7.0864-12.6849,21.9513-18.6777,9.1226-3.6782,11.5281-.2148,17.5224-3.851,8.6481-5.2456,7.9128-15.0444,16.1743-41.0136Z"/>
    <path class="cls-12" d="M642.1553,156.7487c2.0675-6.4991,2.096-5.1027,3.8576-10.8211,3.5879-11.6459,5.7202-18.5673,4.8418-26.1518-.9224-7.9649-5.6478-20.8304-14.2223-22.8764-13.7385-3.278-33.6869,22.0963-29.0477,35.1552,1.901,5.3509,5.7234,4.8357,9.4043,10.7593,10.6444,17.1295-7.3509,46.9532-4.7641,48.111,1.2275.5491,3.8114-6.8226,11.8065-10.0458,4.9066-1.9783,6.2004-.1155,9.4244-2.0713,4.6514-2.8213,4.2559-8.0917,8.6993-22.0592Z"/>
    <path class="cls-12" d="M862.3134,304.8339c-.4436,28.7457,12.3466,33.3882,8.5737,54.0519-5.8925,32.2709-43.8733,58.1077-79.7715,59.8283-5.3655.2571-45.873,1.5795-66.595-27.798-12.9687-18.3857-4.3982-29.246-14.2434-89.867-5.958-36.6866-10.6799-42.4569-11.478-69.6187-.2671-9.0903-1.7834-60.7033,14.0855-66.0633,10.4236-3.5208,17.5552,16.5595,41.6441,22.0208,14.9398,3.3876,22.7118-1.9526,36.5868-4.0038,37.1075-5.4864,85.8582,17.2796,92.6322,46.7117,5.4894,23.8505-20.8019,33.7595-21.4344,74.7382Z"/>
    <path class="cls-11" d="M820.6879,302.9985c-3.2063-4.1535,16.518-20.145,11.6365-29.1271-3.2833-6.0412-14.59-3.1922-15.7429-7.2498-1.6987-5.98,19.4829-24.0403,32.2195-17.3795,10.0313,5.2461,11.8706,21.5329,4.1073,36.3774-8.31,15.8899-29.3897,21.0458-32.2204,17.379Z"/>
    <circle class="cls-11" cx="804.1623" cy="278.0881" r="5.1893"/>
    <path class="cls-12" d="M801.4761,67.5331c.0297-.0599-61.0206-44.8876-92.4254-24.3508-20.0598,13.1174-18.5728,46.7237-22.0692,46.2132-3.7094-.5414-10.2134-39.0696,7.4351-53.6085,29.1811-24.0391,107.026,31.8131,107.0595,31.7462Z"/>
    <path class="cls-12" d="M810.1115,109.9166c3.1063,8.3976,21.1344,7.8919,20.9933,9.1854-.1629,1.4952-24.5395,4.9467-28.6661-4.4375-4.349-9.8905,17.4271-25.7767,18.0319-25.2505.4998.4345-13.4711,12.0891-10.3591,20.5027Z"/>
    <path class="cls-12" d="M1028.7143,217.2306c2.6879-8.5407-11.8727-19.1829-10.969-20.1189,1.0445-1.0822,22.4278,11.1197,19.9422,21.0653-2.6199,10.482-29.5637,9.7022-29.7194,8.9159-.129-.6496,18.0531-1.3054,20.7463-9.8622Z"/>
    <path class="cls-12" d="M857.7131,85.063c9.0629-10.5301,38.9003-4.86,54.385,11.9387,9.474,10.2784,4.9596,15.3751,13.4788,23.9702,18.6929,18.8605,50.8112,4.799,57.3809,18.7766,1.9717,4.1957-.0976,11.2693-4.2364,25.4167-.6623,2.2647-4.9192,16.5818-7.3169,16.1743-3.0796-.5235,3.6347-24.197-7.702-33.6692-3.5898-2.9989-5.8927-1.9879-16.5596-3.888-14.254-2.5394-32.9199-5.8649-41.2064-17.8975-6.4321-9.3393-.9173-15.6588-6.9321-20.6986-10.8383-9.0816-32.2966,8.4602-41.2913,0-4.7648-4.4814-4.5361-14.8526,0-20.1232Z"/>
    <path class="cls-12" d="M913.7633,258.1689h0c.3404-.5285.6578-.5714.6593-.5714.2305-.031.446.1608.5981.3267,1.5212,1.6623,1.8498,3.2167,1.8501,3.2187.9308,4.4064,3.9899,7.0617,4.9521,17.4699,1.3608,14.7188-3.7484,20.2131-4.0298,39.2474-.1446,9.7769,1.1348,15.8266-.9767,16.5599-2.7869.968-8.4652-8.3733-10.0126-11.1684-3.6894-6.6651-11.3083-25.6435,6.9596-65.0827Z"/>
    <path class="cls-12" d="M666.4779,344.5346c-13.802-9.5202-22.1016-22.3069-30.7802-40.4102-4.3975-9.1735-17.9864-37.5202-12.7084-41.0405,2.2914-1.5284,5.4206,3.4344,12.7084,3.4664,10.4557.046,14.783-10.1235,20.4718-8.9557,6.0103,1.2337,7.4578,13.8727,10.3083,29.7512,7.2033,40.1245,15.7083,58.2757,10.105,61.2327-.7507.3956-2.7374,1.0379-10.105-4.0438Z"/>
    <path class="cls-11" d="M662.7684,188.0901c8.7784-1.8156,18.4723,15.1792,18.3525,16.2961-.123,1.1457-10.5646-14.5137-19.5306-10.7858-7.2289,3.0058-9.4708,16.9403-9.7318,16.4754-.3014-.5372,2.1014-20.1638,10.9099-21.9857Z"/>
    <path class="cls-11" d="M848.3974,183.9133c-.8084,1.0699-7.215-5.3035-21.6052-9.0826-5.9009-1.5494-10.2741-1.909-10.3071-3.1158-.037-1.3476,5.3555-3.2386,10.3071-3.1168,12.7026.3127,22.6908,13.8786,21.6052,15.3152Z"/>
    <path class="cls-9" d="M756.7986,1163.1947c-8.1524-28.0914,11.9213-55.8026,15.6724-54.9743,3.3318.7356-7.8241,23.6299,1.1011,54.9743,6.639,23.3151,19.9702,35.7896,17.5765,37.3201-2.9154,1.8638-27.4634-13.5902-34.3501-37.3201Z"/>
    <path class="cls-1" d="M867.1519,423.7783c1.8236.1968,7.0867,34.1247-9.4387,65.2755-8.3326,15.7078-21.0969,28.6204-36.774,44.48-8.975,9.0796-16.3091,15.471-16.7769,15.0185-.9308-.9001,30.0404-24.3518,47.9704-63.7551,15.1483-33.2906,13.3572-61.1987,15.0192-61.0189Z"/>
    <path class="cls-1" d="M708.8732,424.2848c.1666,5.821-27.6334,12.9376-51.9895,12.7798-30.2237-.1958-52.3066-11.572-51.9895-12.7798.4498-1.7122,47.3715,11.5521,51.988,1.3596,1.1221-2.4774-1.1468-4.3725.0015-6.8459,4.6132-9.9367,51.7737-2.0499,51.9895,5.4863Z"/>
    <ellipse class="cls-9" cx="574.3745" cy="421.288" rx="7.2208" ry="2.4894"/>
    <path class="cls-1" d="M764.7755,457.69c2.0269-11.5511,19.357-18.0363,30.6161-19.8824,27.6267-4.5303,53.5791,13.1514,53.0604,14.514-.2787.7322-7.7787-4.3665-20.1337-4.866-31.0534-1.2557-51.1159,28.2278-60.6545,21.4458-4.2306-3.0079-2.9744-10.7209-2.8883-11.2114Z"/>
    <path class="cls-9" d="M812.4667,502.7246c0,7.9757-2.6725,14.4421-5.9691,14.4421s-5.9693-6.4663-5.9693-14.4421,2.6725-14.4411,5.9693-14.4411,5.9691,6.4653,5.9691,14.4411Z"/>
    <path class="cls-9" d="M660.5508,373.5784c-9.7847-.8666-17.7356,2.8233-18.0803,2.5361-.3867-.3223,8.9801-5.5182,18.7241-4.3654,6.4967.7686,10.5845,4.0545,10.0712,4.3655-.4567.2764-4.2737-1.9658-10.715-2.5362Z"/>
    <path class="cls-1" d="M964.0884,364.7603c.0187.6523,1.46,1.4135,2.0903,1.6903,1.0017.4395,1.8638.4885,2.0017.4985,3.591.2657,8.0519,7.0527,8.0529,7.0537,4.8123,7.3204,16.435,10.7619,20.4106,11.9387,11.3553,3.3615,22.3137.931,22.3364,0,.0182-.7412-6.9281.4615-15.4043-2.6962-16.689-6.2176-19.2788-21.8794-30.8086-21.5657-3.6897.0999-8.7142,1.8481-8.679,3.0808Z"/>
    <path class="cls-1" d="M824.7156,597.6833c-1.06.0319-1.4412,8.3479-2.3913,21.4728-5.9436,82.1226-18.1121,130.9996-22.4926,174.5003-11.2676,111.8928,28.0028,198.0346,27.2785,198.2023-.7766.1797-39.8991-100.2691-14.1525-205.2926,4.4068-17.9756,8.0062-25.0405,12.2684-48.3148,13.5359-73.9171,2.501-140.6569-.5105-140.5681Z"/>
    <path class="cls-1" d="M896.6683,410.0197c-.1552.5926,19.739,8.6059,46.0776,11.8695,32.963,4.0845,59.5116-1.3159,59.4698-1.939-.0371-.5549-21.1353,2.8381-52.0494-.015-31.6745-2.924-53.337-10.5298-53.498-9.9155Z"/>
    <ellipse class="cls-1" cx="816.6091" cy="1107.0912" rx="6.2363" ry="6.6664"/>
  </g>
</svg>