<?xml version="1.0" encoding="UTF-8"?>
<svg id="Layer_1" data-name="Layer 1" xmlns="http://www.w3.org/2000/svg" viewBox="0 0 1621.4173 1264.252">
  <defs>
    <style>
      .cls-1 {
        fill: #8aab5f;
      }

      .cls-2 {
        stroke-width: 2.353px;
      }

      .cls-2, .cls-3, .cls-4 {
        stroke: #7a1217;
      }

      .cls-2, .cls-3, .cls-4, .cls-5 {
        stroke-miterlimit: 10;
      }

      .cls-2, .cls-3, .cls-4, .cls-6 {
        fill: #861618;
      }

      .cls-3, .cls-5 {
        stroke-width: 2.3344px;
      }

      .cls-7 {
        fill: #2a1a11;
      }

      .cls-4 {
        stroke-width: 1.1672px;
      }

      .cls-5 {
        fill: #680e14;
        stroke: #571013;
      }

      .cls-8 {
        fill: #432816;
      }

      .cls-9 {
        fill: #563419;
      }

      .cls-10 {
        fill: #99c26e;
      }

      .cls-11 {
        fill: #516936;
      }

      .cls-12 {
        fill: #f48d99;
      }

      .cls-13 {
        fill: #ad2930;
      }

      .cls-14 {
        fill: #734a23;
      }

      .cls-15 {
        fill: #643d1e;
      }

      .cls-16 {
        fill: #ad7a50;
      }

      .cls-17 {
        fill: #693e1c;
      }

      .cls-18 {
        fill: #5a7841;
      }
    </style>
  </defs>
  <g>
    <path class="cls-9" d="M801.2034,715.7206c-.0333-.0779-5.7093-13.3586-5.7419-13.435-.0094-.022-3.3786-7.9054-3.3832-7.9161-.0451-.1054-5.5125-12.8982-5.5567-13.0015,7.3585,6.9449,12.32,9.3067,15.5808,10.1107.9292.2291,4.8636,1.1066,5.1867,3.3657.1406.9832-.503,1.5268-.4401,2.3327.1085,1.3906,2.2671,2.8768,9.9798,3.8577-5.2085,4.8953-10.417,9.7906-15.6254,14.6859Z"/>
    <path class="cls-8" d="M816.8535,701.0475c-.2999-.3599-4.0426,2.6375-8.3596,6.6949-4.317,4.0574-7.5735,7.6384-7.2736,7.9983.2999.3599,4.0426-2.6375,8.3596-6.6949,4.317-4.0574,7.5735-7.6384,7.2737-7.9983Z"/>
    <path class="cls-15" d="M805.0584,693.212c1.338.8905,1.0986,3.6493.3616,4.1292-.1267.0825-.2911.1126-.4302.0714-.8179-.2421.2614-2.6461-.6948-3.4831-.8249-.722-2.7986-.0226-2.8433-.2265-.0005-.0022,0-.0047.0012-.0077.1405-.3194,2.3652-1.3089,3.6056-.4834Z"/>
    <ellipse class="cls-15" cx="802.9978" cy="694.7661" rx=".2149" ry=".3835" transform="translate(-257.7167 645.8771) rotate(-38.2279)"/>
    <path class="cls-15" d="M800.7328,710.6093c-1.3862.0083-1.3362-5.343-4.1207-11.6643-1.6315-3.7038-3.1184-5.2029-3.0087-5.2908.2964-.2375,10.7838,11.0323,8.2282,15.9224-.0787.1507-.5379,1.0293-1.0987,1.0327Z"/>
    <path class="cls-17" d="M811.3716,703.783c-.0363-.0422-.4491.3103-.9608.7286-1.9871,1.6245-2.9255,2.1652-3.9368,2.9529-2.4506,1.9086-4.6581,4.7441-4.4054,5.0621.3347.4212,5.1888-3.2429,4.8913-4.084-.0467-.132-.214-.1321-.2398-.2878-.0708-.4263,1.0483-.9137,2.0921-1.663,1.6074-1.1539,2.6244-2.6332,2.5594-2.7088Z"/>
    <path class="cls-14" d="M810.6145,704.4953c-.0317-.0369-.3928.2714-.8404.6373-1.7381,1.421-2.5589,1.894-3.4436,2.583-2.1436,1.6695-4.0744,4.1497-3.8535,4.4278.2927.3685,4.5387-2.8366,4.2785-3.5723-.0408-.1154-.1872-.1155-.2098-.2518-.0619-.3729.9169-.7992,1.83-1.4546,1.406-1.0093,2.2956-2.3033,2.2387-2.3694Z"/>
    <path class="cls-14" d="M800.7051,709.0085c-1.0797.0065-1.0407-4.1617-3.2096-9.0854-1.2708-2.8849-2.4289-4.0526-2.3435-4.121.2309-.185,8.3996,8.5931,6.409,12.402-.0613.1174-.419.8017-.8558.8044Z"/>
    <path class="cls-14" d="M805.0022,693.2883c.9443.6653.869,2.5677.38,2.8735-.0841.0526-.1956.0675-.2921.0339-.5675-.1973.094-1.8236-.5873-2.438-.5877-.53-1.916-.117-1.9532-.2598-.0004-.0015-.0002-.0033.0006-.0053.0859-.2161,1.5767-.8211,2.452-.2043Z"/>
    <ellipse class="cls-14" cx="802.9381" cy="694.6945" rx=".131" ry=".2364" transform="translate(-249.5209 554.5517) rotate(-33.2813)"/>
    <path class="cls-16" d="M801.3833,706.7998c-.0573-.0224-.238.6242-.5807.6658-.3427.0416-.5891-.5533-.6434-.5174-.0743.0492.2654,1.2467.6794,1.1965.414-.0502.6232-1.3143.5447-1.345Z"/>
    <path class="cls-16" d="M805.5479,695.4882c-.0279-.0067-.1216.2198-.2899.2402s-.2846-.1806-.3115-.1673c-.0368.0183.1205.4259.3239.4012.2034-.0247.3158-.4649.2775-.4741Z"/>
    <path class="cls-16" d="M806.4819,708.5371c-.0835-.0548-.4758.9101-1.1917,1.146-.108.0356-.3468.0953-.403.2646-.0445.1341.0603.2324-.0008.3427-.0596.1076-.1965.0808-.3616.1604-.2093.1009-.3021.2946-.3878.4303-.3748.5934-1.0999.844-1.0831.8779.0145.0293.5432-.1847,1.1136-.6276.0277-.0215.1035-.0929.216-.1826.1828-.1457.3066-.2228.4134-.2976.169-.1183.2788-.2204.4982-.4243.4622-.4297.8344-.7822,1.0834-1.3317.0226-.0499.1487-.3282.1033-.358Z"/>
    <path class="cls-16" d="M800.4673,704.5421c.0198-.0125-.0043-.1468-.0307-.2779-.1774-.8825-.3411-1.6961-.9037-2.5958-.3352-.536-.775-1.0433-.8304-.9967-.0642.054.4581.7933,1.0677,2.216.3718.8678.6461,1.6864.6971,1.6544Z"/>
    <path class="cls-14" d="M790.2706,685.9551c-.0919.0845.915,1.9296,2.8453,3.4111,2.6538,2.0367,5.7395,2.3784,5.7971,2.2612.0508-.1033-2.2737-.5242-4.9379-2.3392-2.4194-1.6483-3.611-3.419-3.7045-3.3331Z"/>
    <path class="cls-15" d="M807.5362,699.7376c-.1285.9812,2.3579,2.3691,4.7884,2.3155,1.4404-.0318,2.656-.5645,2.6411-.7359-.0221-.2544-2.7081.8122-4.9091-.5424-.9914-.6102-1.8782-1.7033-2.3332-1.3998-.1532.1022-.1817.3204-.1872.3626Z"/>
    <path class="cls-14" d="M808.1407,700.3085c-.103.7869,1.891,1.8999,3.8402,1.8569,1.1551-.0255,2.13-.4527,2.118-.5902-.0177-.204-2.1718.6514-3.9369-.435-.7951-.4894-1.5063-1.366-1.8711-1.1226-.1228.082-.1457.2569-.1501.2908Z"/>
    <path class="cls-16" d="M807.9538,700.2578c.0238-.019-.0802-.2279.0184-.378s.3257-.1284.334-.1583c.0114-.0409-.3959-.1493-.5151.0321-.1192.1814.13.5303.1627.5042Z"/>
    <path class="cls-16" d="M809.3841,705.7103c-.0205-.0171-.1785.2088-.5072.5-.4428.3925-.7757.5317-.7631.5614.014.0328.4452-.0814.8168-.4193.3056-.2779.4773-.6221.4534-.6421Z"/>
    <path class="cls-7" d="M813.3168,704.162c-.1906-.2287-2.5692,1.6762-5.3129,4.2549-2.7436,2.5787-4.8133,4.8545-4.6227,5.0833s2.5692-1.6762,5.3129-4.2549,4.8133-4.8545,4.6227-5.0832Z"/>
    <path class="cls-14" d="M814.1045,703.0716c-.0132.0506.7154-.5018.8246-.3735.1093.1284-.4833.8408-.4345.8321.0669-.0121,1.2893-1.369,1.1573-1.5241s-1.5294.9962-1.5475,1.0655Z"/>
    <path class="cls-14" d="M803.6983,712.6698c.079-.02-.9851,1.1641-.8339,1.3493.1511.1853,1.4036-.7679,1.3739-.6876-.0408.1101-2.4587,2.0807-2.6413,1.8569-.1826-.2238,1.9931-2.4912,2.1013-2.5186Z"/>
    <path class="cls-14" d="M805.3077,712.5916c.0422.0567,2.8506-2.0083,5.7328-5.1132.8379-.9027,1.7156-1.9294,1.685-1.961-.036-.0371-1.3028,1.326-3.0943,3.0758-2.7607,2.6963-4.3557,3.9551-4.3235,3.9984Z"/>
  </g>
  <g>
    <path class="cls-9" d="M815.5805,753.8387c.0467-.086,8.0143-14.741,8.0601-14.8253.0132-.0242,4.7426-8.7235,4.7491-8.7353.0633-.1163,7.7381-14.233,7.8001-14.347-9.3514,7.5311-15.4357,10.0181-19.3632,10.8172-1.1192.2277-5.8492,1.0886-6.4458,3.6009-.2597,1.0933.4486,1.7197.2977,2.6175-.2605,1.5492-2.9512,3.1432-12.1533,4.0055,5.6851,5.6222,11.3703,11.2443,17.0554,16.8665Z"/>
    <path class="cls-8" d="M798.4948,736.9858c.3884-.3928,4.5232,3.0664,9.2353,7.7263,4.7121,4.6599,8.2171,8.7559,7.8287,9.1487-.3884.3928-4.5232-3.0664-9.2353-7.7263-4.7121-4.6599-8.2171-8.7559-7.8287-9.1486Z"/>
    <path class="cls-15" d="M813.1706,728.5942c-1.6649.9538-1.6448,4.0408-.8201,4.5988.1418.0959.3331.1345.5013.0927.989-.2456-.0568-2.962,1.1521-3.8675,1.0429-.7811,3.3073.0592,3.3795-.167.0008-.0024.0005-.0053-.0007-.0086-.1356-.3608-2.6687-1.5326-4.2121-.6484Z"/>
    <ellipse class="cls-15" cx="815.4562" cy="730.3914" rx=".4518" ry=".241" transform="translate(-277.2712 796.6269) rotate(-45.319)"/>
    <path class="cls-15" d="M816.6229,748.1468c1.6363.0511,2.0866-5.9245,5.9769-12.8975,2.2794-4.0856,4.178-5.7144,4.0569-5.8157-.3274-.2741-13.7858,11.9908-11.2331,17.5272.0786.1706.5373,1.1653,1.1993,1.186Z"/>
    <path class="cls-17" d="M804.7084,740.205c.0469-.046.5008.36,1.0653.8424,2.1921,1.8736,3.2488,2.5055,4.3682,3.4154,2.7125,2.2047,5.0495,5.4368,4.7208,5.7841-.4354.4602-5.8192-3.7768-5.3878-4.7069.0677-.1459.2653-.141.3106-.3141.1242-.4738-1.151-1.0517-2.3124-1.9197-1.7885-1.3367-2.8487-3.0188-2.7648-3.1013Z"/>
    <path class="cls-14" d="M805.5348,741.0231c.041-.0403.4381.3149.9318.7369,1.9174,1.6388,2.8418,2.1916,3.8209,2.9875,2.3726,1.9285,4.4168,4.7556,4.1294,5.0594-.3808.4025-5.0901-3.3036-4.7128-4.1171.0592-.1277.232-.1233.2717-.2747.1086-.4144-1.0068-.9199-2.0227-1.6792-1.5644-1.1692-2.4918-2.6406-2.4184-2.7127Z"/>
    <path class="cls-14" d="M816.808,746.3605c1.2745.0398,1.6253-4.6146,4.6554-10.0459,1.7754-3.1823,3.2543-4.4509,3.16-4.5299-.255-.2135-10.7378,9.3397-8.7495,13.652.0612.1329.4185.9077.9341.9238Z"/>
    <path class="cls-14" d="M813.2297,728.6811c-1.1785.7143-1.2707,2.8404-.7223,3.1965.0943.0612.2246.0812.3418.0467.689-.2032.0626-2.0387.9257-2.704.7445-.574,2.2739-.0728,2.3314-.2311.0006-.0017.0006-.0037-.0002-.0059-.0809-.2439-1.7839-.9642-2.8764-.3021Z"/>
    <ellipse class="cls-14" cx="815.5335" cy="730.3132" rx=".2769" ry=".1477" transform="translate(-268.388 883.8269) rotate(-49.9056)"/>
    <path class="cls-16" d="M816.2173,743.8743c.0698-.0233.2217.7041.6224.7608.4007.0567.7484-.5999.8091-.5582.0831.0572-.4321,1.3838-.9163,1.3153-.4842-.0685-.6109-1.4861-.5152-1.5179Z"/>
    <path class="cls-16" d="M812.3758,731.1206c.0336-.0067.1226.249.3195.2769.1969.0279.3534-.1931.3838-.1774.0417.0215-.1828.4718-.4207.4381-.2379-.0337-.3287-.5286-.2826-.5377Z"/>
    <path class="cls-16" d="M810.0305,745.6599c.1038-.0587.4753,1.0303,1.2982,1.3153.1241.043.4005.1168.4507.3075.0397.151-.0934.2576-.0317.3826.0602.1219.2244.0962.4118.19.2376.1189.3287.338.417.4921.3861.6737,1.2186.9754,1.1956,1.0127-.0199.0322-.6239-.2226-1.2554-.7343-.0307-.0249-.1134-.1069-.2377-.2104-.202-.1681-.3409-.258-.4599-.3447-.1883-.1372-.3082-.2544-.548-.4887-.505-.4936-.911-.8984-1.1528-1.5194-.0219-.0563-.1444-.3708-.0879-.4028Z"/>
    <path class="cls-16" d="M817.514,741.3815c-.0222-.0145.019-.1637.0627-.3093.2936-.9799.5643-1.8832,1.3144-2.8706.4469-.5882,1.0146-1.1413,1.0756-1.0876.0707.0622-.6166.8718-1.4719,2.4416-.5217.9575-.9236,1.8632-.9808,1.8259Z"/>
    <path class="cls-14" d="M831.3256,720.939c.1005.0972-1.2643,2.1266-3.685,3.7222-3.3279,2.1937-7.0047,2.482-7.0615,2.3494-.0501-.1169,2.7351-.5166,6.0543-2.4625,3.0142-1.7671,4.59-3.708,4.6923-3.6092Z"/>
    <path class="cls-15" d="M809.6231,735.8045c.0583,1.0993-3.0102,2.5736-5.8755,2.4405-1.698-.0789-3.0829-.7104-3.049-.9013.0503-.2833,3.1209.9885,5.8492-.4574,1.229-.6513,2.3803-1.8449,2.8887-1.4923.1712.1187.1841.3631.1866.4104Z"/>
    <path class="cls-14" d="M808.8548,736.4236c.0468.8816-2.4141,2.064-4.712,1.9572-1.3618-.0633-2.4724-.5697-2.4452-.7228.0404-.2272,2.5029.7927,4.6909-.3668.9856-.5223,1.9089-1.4795,2.3167-1.1968.1373.0952.1476.2912.1496.3292Z"/>
    <path class="cls-16" d="M809.0804,736.3726c-.0263-.022.1164-.252.0142-.4226-.1022-.1706-.3724-.1532-.3793-.1868-.0095-.046.4818-.1547.6053.0514s-.2041.588-.2401.558Z"/>
    <path class="cls-16" d="M806.8722,742.4166c.0258-.0185.191.2384.5514.5735.4856.4515.8655.617.8477.6498-.0196.0362-.518-.1043-.9247-.4928-.3345-.3195-.5045-.7089-.4744-.7305Z"/>
    <path class="cls-7" d="M802.3751,740.5694c.2469-.2496,2.8747,1.9488,5.8694,4.9104,2.9947,2.9615,5.2223,5.5647,4.9754,5.8143-.2469.2496-2.8746-1.9488-5.8694-4.9104-2.9947-2.9615-5.2223-5.5647-4.9754-5.8143Z"/>
    <path class="cls-14" d="M801.5487,739.3283c.0108.0569-.7971-.5818-.9383-.4418-.1412.14.4907.9533.4339.942-.0778-.0155-1.3923-1.5672-1.2217-1.7364s1.7113,1.1583,1.7261,1.2362Z"/>
    <path class="cls-14" d="M812.9245,750.3575c-.0913-.0247,1.0525,1.3293.8564,1.5315-.1961.2023-1.5845-.8996-1.557-.809.0377.1241,2.7056,2.3971,2.9425,2.1527.237-.2443-2.1167-2.8413-2.2419-2.8752Z"/>
    <path class="cls-14" d="M811.0313,750.2217c-.0552.0621-3.1754-2.3281-6.2836-5.8812-.9037-1.033-1.8425-2.2057-1.8033-2.24.0461-.0403,1.4123,1.5196,3.3616,3.5271,3.0037,3.0933,4.7675,4.5468,4.7253,4.5942Z"/>
  </g>
  <g>
    <path class="cls-9" d="M795.6575,787.5815c-.0467-.086-8.0143-14.741-8.0601-14.8253-.0132-.0242-4.7426-8.7235-4.7491-8.7353-.0633-.1163-7.7381-14.233-7.8001-14.347,9.3514,7.5311,15.4357,10.0181,19.3632,10.8172,1.1192.2277,5.8492,1.0886,6.4458,3.6009.2597,1.0933-.4486,1.7197-.2977,2.6175.2605,1.5492,2.9512,3.1432,12.1533,4.0055-5.6851,5.6222-11.3703,11.2443-17.0554,16.8665Z"/>
    <path class="cls-8" d="M812.7432,770.7286c-.3884-.3928-4.5232,3.0664-9.2353,7.7263-4.7121,4.6599-8.2171,8.7559-7.8287,9.1487s4.5232-3.0664,9.2353-7.7263c4.7121-4.6599,8.2171-8.7559,7.8287-9.1486Z"/>
    <path class="cls-15" d="M798.0674,762.337c1.6649.9538,1.6448,4.0408.8201,4.5988-.1418.0959-.3331.1345-.5013.0927-.989-.2456.0568-2.962-1.1521-3.8675-1.0429-.7811-3.3073.0592-3.3795-.167-.0008-.0024-.0005-.0053.0007-.0086.1356-.3608,2.6687-1.5326,4.2121-.6484Z"/>
    <ellipse class="cls-15" cx="795.7818" cy="764.1342" rx=".241" ry=".4518" transform="translate(-307.3529 780.3702) rotate(-44.681)"/>
    <path class="cls-15" d="M794.6151,781.8896c-1.6363.0511-2.0866-5.9245-5.9769-12.8975-2.2794-4.0856-4.178-5.7144-4.0569-5.8157.3274-.2741,13.7858,11.9908,11.2331,17.5272-.0786.1706-.5373,1.1653-1.1993,1.186Z"/>
    <path class="cls-17" d="M806.5297,773.9478c-.0469-.046-.5008.36-1.0653.8424-2.1921,1.8736-3.2488,2.5055-4.3682,3.4154-2.7125,2.2047-5.0495,5.4368-4.7208,5.7841.4354.4602,5.8192-3.7768,5.3878-4.7069-.0677-.1459-.2653-.141-.3106-.3141-.1242-.4738,1.151-1.0517,2.3124-1.9197,1.7885-1.3367,2.8487-3.0188,2.7648-3.1013Z"/>
    <path class="cls-14" d="M805.7033,774.7659c-.041-.0403-.4381.3149-.9318.7369-1.9174,1.6388-2.8418,2.1916-3.8209,2.9875-2.3726,1.9285-4.4168,4.7556-4.1294,5.0594.3808.4025,5.0901-3.3036,4.7128-4.1171-.0592-.1277-.232-.1233-.2717-.2747-.1086-.4144,1.0068-.9199,2.0227-1.6792,1.5644-1.1692,2.4918-2.6406,2.4184-2.7127Z"/>
    <path class="cls-14" d="M794.43,780.1033c-1.2745.0398-1.6253-4.6146-4.6554-10.0459-1.7754-3.1823-3.2543-4.4509-3.16-4.5299.255-.2135,10.7378,9.3397,8.7495,13.652-.0612.1329-.4185.9077-.9341.9238Z"/>
    <path class="cls-14" d="M798.0084,762.4239c1.1785.7143,1.2707,2.8404.7223,3.1965-.0943.0612-.2246.0812-.3418.0467-.689-.2032-.0626-2.0387-.9257-2.704-.7445-.574-2.2739-.0728-2.3314-.2311-.0006-.0017-.0006-.0037.0002-.0059.0809-.2439,1.7839-.9642,2.8764-.3021Z"/>
    <ellipse class="cls-14" cx="795.7045" cy="764.056" rx=".1477" ry=".2769" transform="translate(-305.0863 692.037) rotate(-40.0944)"/>
    <path class="cls-16" d="M795.0207,777.6171c-.0698-.0233-.2217.7041-.6224.7608-.4007.0567-.7484-.5999-.8091-.5582-.0831.0572.4321,1.3838.9163,1.3153.4842-.0685.6109-1.4861.5152-1.5179Z"/>
    <path class="cls-16" d="M798.8623,764.8634c-.0336-.0067-.1226.249-.3195.2769s-.3534-.1931-.3838-.1774c-.0417.0215.1828.4718.4207.4381.2379-.0337.3287-.5286.2826-.5377Z"/>
    <path class="cls-16" d="M801.2076,779.4027c-.1038-.0587-.4753,1.0303-1.2982,1.3153-.1241.043-.4005.1168-.4507.3075-.0397.151.0934.2576.0317.3826-.0602.1219-.2244.0962-.4118.19-.2376.1189-.3287.338-.417.4921-.3861.6737-1.2186.9754-1.1956,1.0127.0199.0322.6239-.2226,1.2554-.7343.0307-.0249.1134-.1069.2377-.2104.202-.1681.3409-.258.4599-.3447.1883-.1372.3082-.2544.548-.4887.505-.4936.911-.8984,1.1528-1.5194.0219-.0563.1444-.3708.0879-.4028Z"/>
    <path class="cls-16" d="M793.724,775.1243c.0222-.0145-.019-.1637-.0627-.3093-.2936-.9799-.5643-1.8832-1.3144-2.8706-.4469-.5882-1.0146-1.1413-1.0756-1.0876-.0707.0622.6166.8718,1.4719,2.4416.5217.9575.9236,1.8632.9808,1.8259Z"/>
    <path class="cls-14" d="M779.9124,754.6818c-.1005.0972,1.2643,2.1266,3.685,3.7222,3.3279,2.1937,7.0047,2.482,7.0615,2.3494.0501-.1169-2.7351-.5166-6.0543-2.4625-3.0142-1.7671-4.59-3.708-4.6923-3.6092Z"/>
    <path class="cls-15" d="M801.6149,769.5473c-.0583,1.0993,3.0102,2.5736,5.8755,2.4405,1.698-.0789,3.0829-.7104,3.049-.9013-.0503-.2833-3.1209.9885-5.8492-.4574-1.229-.6513-2.3803-1.8449-2.8887-1.4923-.1712.1187-.1841.3631-.1866.4104Z"/>
    <path class="cls-14" d="M802.3832,770.1664c-.0468.8816,2.4141,2.064,4.712,1.9572,1.3618-.0633,2.4724-.5697,2.4452-.7228-.0404-.2272-2.5029.7927-4.6909-.3668-.9856-.5223-1.9089-1.4795-2.3167-1.1968-.1373.0952-.1476.2912-.1496.3292Z"/>
    <path class="cls-16" d="M802.1577,770.1154c.0263-.022-.1164-.252-.0142-.4226.1022-.1706.3724-.1532.3793-.1868.0095-.046-.4818-.1547-.6053.0514-.1235.2061.2041.588.2401.558Z"/>
    <path class="cls-16" d="M804.3658,776.1594c-.0258-.0185-.191.2384-.5514.5735-.4856.4515-.8655.617-.8477.6498.0196.0362.518-.1043.9247-.4928.3345-.3195.5045-.7089.4744-.7305Z"/>
    <path class="cls-7" d="M808.8629,774.3122c-.2469-.2496-2.8747,1.9488-5.8694,4.9104-2.9947,2.9615-5.2223,5.5647-4.9754,5.8143.2469.2496,2.8746-1.9488,5.8694-4.9104,2.9947-2.9615,5.2223-5.5647,4.9754-5.8143Z"/>
    <path class="cls-14" d="M809.6894,773.0711c-.0108.0569.7971-.5818.9383-.4418.1412.14-.4907.9533-.4339.942.0778-.0155,1.3923-1.5672,1.2217-1.7364s-1.7113,1.1583-1.7261,1.2362Z"/>
    <path class="cls-14" d="M798.3136,784.1003c.0913-.0247-1.0525,1.3293-.8564,1.5315.1961.2023,1.5845-.8996,1.557-.809-.0377.1241-2.7056,2.3971-2.9425,2.1527-.237-.2443,2.1167-2.8413,2.2419-2.8752Z"/>
    <path class="cls-14" d="M800.2067,783.9645c.0552.0621,3.1754-2.3281,6.2836-5.8812.9037-1.033,1.8425-2.2057,1.8033-2.24-.0461-.0403-1.4123,1.5196-3.3616,3.5271-3.0037,3.0933-4.7675,4.5468-4.7253,4.5942Z"/>
  </g>
  <g>
    <path class="cls-9" d="M817.4083,672.6866c.0208-.0487,3.5661-8.344,3.5865-8.3917.0059-.0137,2.1103-4.9378,2.1132-4.9445.0281-.0659,3.4432-8.0564,3.4708-8.1209-4.5962,4.3379-7.6952,5.8131-9.7319,6.3153-.5804.1431-3.0379.6912-3.2397,2.1022-.0878.6141.3142.9537.2749,1.457-.0678.8686-1.416,1.7969-6.2335,2.4096,3.2533,3.0577,6.5066,6.1153,9.7598,9.173Z"/>
    <path class="cls-8" d="M807.6331,663.5216c.1873-.2248,2.5251,1.6474,5.2215,4.1817,2.6965,2.5343,4.7305,4.771,4.5432,4.9959-.1873.2248-2.5251-1.6474-5.2215-4.1817-2.6965-2.5343-4.7305-4.771-4.5432-4.9959Z"/>
    <path class="cls-15" d="M815.0005,658.6274c-.8357.5562-.6862,2.2794-.2258,2.5791.0792.0515.1818.0704.2687.0446.5109-.1512-.1633-1.6528.434-2.1756.5152-.451,1.748-.0141,1.776-.1415.0003-.0014,0-.003-.0008-.0048-.0878-.1995-1.4773-.8176-2.2521-.3019Z"/>
    <ellipse class="cls-15" cx="816.2875" cy="659.5981" rx=".2395" ry=".1342" transform="translate(-206.975 892.6834) rotate(-51.7721)"/>
    <path class="cls-15" d="M817.7023,669.494c.8658.0052.8346-3.3373,2.5739-7.2857,1.0191-2.3135,1.9478-3.2498,1.8793-3.3047-.1851-.1484-6.7357,6.8909-5.1394,9.9454.0492.0941.336.6429.6863.645Z"/>
    <path class="cls-17" d="M811.0571,665.2302c.0227-.0264.2805.1938.6001.4551,1.2412,1.0147,1.8273,1.3524,2.459,1.8444,1.5307,1.1922,2.9095,2.9632,2.7517,3.1618-.209.2631-3.241-2.0255-3.0552-2.5509.0292-.0824.1336-.0825.1498-.1798.0442-.2663-.6548-.5707-1.3067-1.0387-1.004-.7207-1.6392-1.6447-1.5986-1.6919Z"/>
    <path class="cls-14" d="M811.53,665.6751c.0198-.0231.2454.1695.5249.3981,1.0857.8876,1.5983,1.183,2.1509,1.6134,1.3389,1.0428,2.5449,2.5919,2.4069,2.7657-.1829.2301-2.8349-1.7718-2.6724-2.2313.0255-.0721.1169-.0722.131-.1573.0387-.2329-.5727-.4992-1.143-.9086-.8782-.6304-1.4339-1.4386-1.3983-1.48Z"/>
    <path class="cls-14" d="M817.7196,668.4941c.6744.0041.6501-2.5994,2.0048-5.6748.7938-1.802,1.5171-2.5313,1.4638-2.574-.1442-.1156-5.2465,5.3674-4.0031,7.7465.0383.0733.2617.5008.5346.5024Z"/>
    <path class="cls-14" d="M815.0355,658.675c-.5898.4156-.5428,1.6038-.2373,1.7948.0525.0328.1222.0422.1825.0212.3545-.1233-.0587-1.139.3668-1.5228.3671-.3311,1.1968-.0731,1.22-.1623.0002-.0009.0001-.0021-.0004-.0033-.0537-.135-.9848-.5129-1.5316-.1276Z"/>
    <ellipse class="cls-14" cx="816.3248" cy="659.5533" rx=".1476" ry=".0818" transform="translate(-183.0112 980.0598) rotate(-56.7187)"/>
    <path class="cls-16" d="M817.296,667.1145c.0358-.014.1487.3899.3627.4159s.368-.3456.4019-.3231c.0464.0307-.1658.7787-.4244.7474s-.3893-.8209-.3402-.8401Z"/>
    <path class="cls-16" d="M814.6947,660.0492c.0175-.0042.0759.1373.1811.15s.1778-.1128.1946-.1045c.023.0114-.0753.266-.2023.2506s-.1973-.2904-.1733-.2962Z"/>
    <path class="cls-16" d="M814.1113,668.1996c.0522-.0343.2972.5684.7443.7158.0674.0222.2166.0595.2517.1653.0278.0837-.0377.1452.0005.214.0373.0672.1228.0505.2258.1002.1307.063.1887.184.2422.2688.2341.3706.687.5272.6765.5483-.009.0183-.3393-.1154-.6956-.392-.0173-.0134-.0646-.058-.1349-.1141-.1142-.091-.1915-.1391-.2582-.1859-.1056-.0739-.1741-.1376-.3112-.265-.2887-.2684-.5212-.4885-.6767-.8318-.0141-.0311-.0929-.205-.0645-.2236Z"/>
    <path class="cls-16" d="M817.8681,665.7043c-.0124-.0078.0027-.0917.0192-.1736.1108-.5512.213-1.0594.5645-1.6214.2094-.3348.4841-.6517.5187-.6225.0401.0337-.2862.4955-.6669,1.3841-.2322.542-.4036,1.0534-.4354,1.0334Z"/>
    <path class="cls-14" d="M824.2371,654.0947c.0574.0528-.5715,1.2053-1.7772,2.1306-1.6576,1.2722-3.585,1.4856-3.6209,1.4124-.0317-.0645,1.4202-.3274,3.0843-1.4611,1.5112-1.0295,2.2555-2.1356,2.3139-2.0819Z"/>
    <path class="cls-15" d="M813.4528,662.7034c.0802.6129-1.4728,1.4798-2.9909,1.4463-.8997-.0199-1.659-.3526-1.6496-.4597.0138-.1589,1.6915.5073,3.0663-.3388.6193-.3811,1.1732-1.0639,1.4573-.8743.0957.0638.1135.2001.1169.2265Z"/>
    <path class="cls-14" d="M813.0752,663.06c.0644.4915-1.1811,1.1867-2.3986,1.1599-.7215-.0159-1.3304-.2828-1.323-.3686.0111-.1274,1.3566.4069,2.4591-.2717.4966-.3057.9408-.8532,1.1687-.7012.0767.0512.091.1605.0938.1816Z"/>
    <path class="cls-16" d="M813.1919,663.0283c-.0149-.0119.0501-.1424-.0115-.2361s-.2034-.0802-.2086-.0989c-.0071-.0255.2473-.0932.3217.0201s-.0812.3312-.1016.3149Z"/>
    <path class="cls-16" d="M812.2986,666.434c.0128-.0107.1115.1304.3168.3123.2766.2451.4845.3321.4766.3507-.0087.0205-.2781-.0508-.5102-.2619-.1909-.1736-.2981-.3886-.2832-.4011Z"/>
    <path class="cls-7" d="M809.8422,665.4669c.119-.1429,1.6048,1.047,3.3185,2.6576,1.7137,1.6107,3.0064,3.0322,2.8874,3.1751s-1.6048-1.047-3.3185-2.6576c-1.7137-1.6107-3.0064-3.0322-2.8874-3.1751Z"/>
    <path class="cls-14" d="M809.3501,664.7858c.0083.0316-.4469-.3135-.5151-.2333-.0682.0802.3019.5252.2714.5197-.0418-.0075-.8053-.8551-.7229-.952s.9553.6222.9666.6655Z"/>
    <path class="cls-14" d="M815.8499,670.7809c-.0493-.0125.6153.7271.5209.8428-.0944.1157-.8767-.4796-.8581-.4295.0255.0687,1.5357,1.2996,1.6498,1.1598.1141-.1398-1.2449-1.5561-1.3125-1.5732Z"/>
    <path class="cls-14" d="M814.8447,670.7321c-.0264.0354-1.7805-1.2544-3.5808-3.1938-.5234-.5638-1.0716-1.2051-1.0525-1.2248.0225-.0232.8137.8282,1.9328,1.9212,1.7244,1.6841,2.7206,2.4704,2.7005,2.4975Z"/>
  </g>
  <g>
    <path class="cls-9" d="M818.0554,632.0055c.0129-.0303,2.2184-5.1906,2.231-5.2202.0037-.0085,1.3128-3.0717,1.3145-3.0758.0175-.041,2.1419-5.0117,2.1591-5.0518-2.8592,2.6985-4.787,3.6162-6.054,3.9285-.3611.089-1.8898.43-2.0153,1.3077-.0546.382.1954.5932.171.9064-.0422.5403-.8809,1.1178-3.8777,1.4989,2.0238,1.9021,4.0475,3.8042,6.0713,5.7063Z"/>
    <path class="cls-8" d="M811.9745,626.3043c.1165-.1399,1.5708,1.0248,3.2482,2.6013,1.6774,1.5765,2.9427,2.9679,2.8262,3.1078s-1.5708-1.0248-3.2482-2.6013-2.9427-2.9679-2.8262-3.1078Z"/>
    <path class="cls-15" d="M816.5575,623.2597c-.5199.346-.4269,1.4179-.1405,1.6044.0492.0321.1131.0438.1672.0278.3178-.0941-.1016-1.0282.27-1.3534.3205-.2805,1.0874-.0088,1.1048-.088.0002-.0008,0-.0018-.0005-.003-.0546-.1241-.919-.5086-1.401-.1878Z"/>
    <ellipse class="cls-15" cx="817.3582" cy="623.8636" rx=".149" ry=".0835" transform="translate(-178.4954 879.9021) rotate(-51.7721)"/>
    <path class="cls-15" d="M818.2383,630.0195c.5386.0032.5192-2.076,1.6011-4.5322.6339-1.4391,1.2116-2.0216,1.169-2.0558-.1152-.0923-4.1901,4.2866-3.1971,6.1867.0306.0585.209.3999.4269.4013Z"/>
    <path class="cls-17" d="M814.1045,627.3671c.0141-.0164.1745.1206.3733.2831.7721.6312,1.1367.8413,1.5297,1.1474.9522.7416,1.8099,1.8433,1.7117,1.9669-.13.1637-2.0161-1.26-1.9005-1.5868.0181-.0513.0831-.0513.0932-.1118.0275-.1656-.4073-.355-.8129-.6462-.6246-.4484-1.0197-1.0231-.9945-1.0525Z"/>
    <path class="cls-14" d="M814.3987,627.6439c.0123-.0144.1526.1055.3265.2476.6754.5521.9943.7359,1.338,1.0036.8329.6487,1.5831,1.6124,1.4973,1.7204-.1137.1432-1.7635-1.1022-1.6624-1.388.0159-.0449.0727-.0449.0815-.0978.0241-.1449-.3563-.3105-.711-.5652-.5463-.3922-.892-.8949-.8699-.9206Z"/>
    <path class="cls-14" d="M818.249,629.3975c.4195.0025.4044-1.617,1.2471-3.5302.4938-1.1209.9438-1.5746.9106-1.6012-.0897-.0719-3.2637,3.3389-2.4902,4.8189.0238.0456.1628.3115.3325.3125Z"/>
    <path class="cls-14" d="M816.5793,623.2894c-.3669.2585-.3376.9977-.1476,1.1165.0327.0204.076.0262.1135.0132.2205-.0767-.0365-.7086.2282-.9473.2283-.2059.7445-.0455.7589-.101.0002-.0006,0-.0013-.0002-.0021-.0334-.084-.6126-.319-.9528-.0794Z"/>
    <ellipse class="cls-14" cx="817.3814" cy="623.8357" rx=".0918" ry=".0509" transform="translate(-152.675 964.8255) rotate(-56.7187)"/>
    <path class="cls-16" d="M817.9855,628.5393c.0223-.0087.0925.2425.2256.2587s.2289-.215.25-.201c.0289.0191-.1031.4844-.264.4649s-.2421-.5107-.2116-.5226Z"/>
    <path class="cls-16" d="M816.3673,624.1442c.0109-.0026.0472.0854.1127.0933s.1106-.0702.121-.065c.0143.0071-.0468.1655-.1259.1559s-.1227-.1807-.1078-.1842Z"/>
    <path class="cls-16" d="M816.0044,629.2144c.0324-.0213.1849.3536.463.4453.042.0138.1348.037.1566.1028.0173.0521-.0234.0903.0003.1331.0232.0418.0764.0314.1405.0623.0813.0392.1174.1145.1507.1672.1456.2305.4274.3279.4209.3411-.0056.0114-.2111-.0718-.4327-.2439-.0108-.0084-.0402-.0361-.0839-.0709-.071-.0566-.1191-.0866-.1606-.1156-.0657-.046-.1083-.0856-.1936-.1649-.1796-.167-.3242-.3039-.421-.5174-.0088-.0194-.0578-.1275-.0401-.1391Z"/>
    <path class="cls-16" d="M818.3414,627.6621c-.0077-.0048.0017-.057.0119-.108.0689-.3429.1325-.659.3511-1.0086.1303-.2083.3011-.4054.3226-.3873.025.021-.178.3082-.4149.861-.1445.3372-.251.6553-.2709.6428Z"/>
    <path class="cls-14" d="M822.3034,620.44c.0357.0328-.3555.7498-1.1056,1.3254-1.0311.7914-2.2301.9241-2.2525.8786-.0197-.0402.8834-.2037,1.9186-.9089.9401-.6405,1.4031-1.3285,1.4394-1.2951Z"/>
    <path class="cls-15" d="M815.5948,625.7953c.0499.3813-.9162.9205-1.8606.8997-.5597-.0123-1.032-.2193-1.0262-.286.0086-.0988,1.0523.3156,1.9074-.2107.3852-.2371.7298-.6618.9066-.5439.0595.0397.0706.1245.0727.1409Z"/>
    <path class="cls-14" d="M815.3599,626.0171c.04.3058-.7347.7382-1.4921.7215-.4488-.0099-.8276-.1759-.823-.2293.0069-.0793.8439.2531,1.5297-.169.3089-.1901.5853-.5308.727-.4362.0477.0318.0566.0998.0583.113Z"/>
    <path class="cls-16" d="M815.4325,625.9974c-.0093-.0074.0312-.0886-.0072-.1469s-.1265-.0499-.1298-.0615c-.0044-.0159.1538-.058.2001.0125s-.0505.206-.0632.1959Z"/>
    <path class="cls-16" d="M814.8768,628.116c.008-.0066.0694.0811.1971.1943.1721.1525.3014.2066.2965.2181-.0054.0128-.173-.0316-.3174-.1629-.1188-.108-.1855-.2417-.1762-.2495Z"/>
    <path class="cls-7" d="M813.3487,627.5144c.0741-.0889.9983.6513,2.0643,1.6532,1.066,1.0019,1.8702,1.8862,1.7962,1.9751s-.9983-.6513-2.0643-1.6532c-1.066-1.0019-1.8702-1.8862-1.7962-1.9751Z"/>
    <path class="cls-14" d="M813.0426,627.0907c.0051.0197-.278-.195-.3204-.1451-.0424.0499.1878.3267.1688.3233-.026-.0047-.501-.5319-.4497-.5922s.5942.3871.6013.414Z"/>
    <path class="cls-14" d="M817.086,630.8201c-.0307-.0078.3828.4523.324.5243-.0587.072-.5454-.2984-.5338-.2672.0159.0428.9553.8085,1.0263.7215s-.7744-.968-.8165-.9786Z"/>
    <path class="cls-14" d="M816.4607,630.7897c-.0164.022-1.1076-.7803-2.2275-1.9867-.3256-.3507-.6666-.7497-.6547-.7619.014-.0144.5062.5152,1.2023,1.1951,1.0727,1.0476,1.6924,1.5368,1.6799,1.5536Z"/>
  </g>
  <g>
    <path class="cls-9" d="M802.1471,612.8729c-.021-.0254-3.6008-4.3471-3.6214-4.3719-.0059-.0071-2.1309-2.5725-2.1338-2.576-.0284-.0343-3.4767-4.1973-3.5046-4.2309,3.5077,1.7756,5.6167,2.1082,6.9202,2.048.3715-.0172,1.9341-.1243,2.3037.6817.1608.3508-.0189.6243.0934.9176.1938.5061,1.162.8217,4.1437.3363-1.4004,2.3984-2.8009,4.7968-4.2013,7.1952Z"/>
    <path class="cls-8" d="M806.3589,605.6797c-.1514-.101-1.2152,1.4286-2.3759,3.4165-1.1607,1.9879-1.9789,3.6813-1.8275,3.7823s1.2152-1.4286,2.3759-3.4165c1.1607-1.9879,1.9789-3.6813,1.8275-3.7823Z"/>
    <path class="cls-15" d="M801.1001,604.0617c.5967.1842.8119,1.2384.5902,1.4985-.0381.0447-.096.0741-.1524.0741-.3314,0-.1945-1.0147-.6431-1.221-.387-.178-1.0451.3003-1.0843.2293-.0004-.0008-.0006-.0018-.0004-.003.0171-.1345.7368-.7486,1.29-.5779Z"/>
    <ellipse class="cls-15" cx="800.5038" cy="604.868" rx=".0835" ry=".149" transform="translate(-155.6087 909.0399) rotate(-54.7227)"/>
    <path class="cls-15" d="M801.4078,611.0205c-.5155.156-1.0872-1.8432-2.822-3.8911-1.0165-1.1999-1.7358-1.5944-1.7046-1.6392.0842-.1212,5.2347,2.9205,4.8221,5.0244-.0127.0648-.0869.4428-.2954.506Z"/>
    <path class="cls-17" d="M804.6184,607.3036c-.0182-.0117-.1331.1652-.2776.3774-.5611.8245-.851,1.1294-1.1409,1.5345-.7025.9814-1.212,2.2814-1.0828,2.3719.1712.12,1.5754-1.7806,1.3718-2.0612-.032-.044-.0943-.0256-.1211-.0808-.0734-.151.2897-.4561.596-.8504.4716-.6072.6873-1.2706.6547-1.2916Z"/>
    <path class="cls-14" d="M804.4149,607.6525c-.0159-.0103-.1164.1445-.2428.3302-.4908.7212-.7444.9879-.998,1.3422-.6144.8585-1.0602,1.9955-.9472,2.0748.1497.105,1.378-1.5575,1.1999-1.8029-.0279-.0385-.0825-.0224-.1059-.0707-.0642-.1321.2534-.3989.5213-.7438.4125-.5312.6012-1.1114.5727-1.1297Z"/>
    <path class="cls-14" d="M801.2209,610.4272c-.4015.1215-.8469-1.4357-2.1981-3.0308-.7917-.9346-1.352-1.2419-1.3277-1.2768.0656-.0944,4.0774,2.2748,3.7559,3.9135-.0099.0505-.0677.3449-.2301.3941Z"/>
    <path class="cls-14" d="M801.0876,604.0963c.4252.1437.607.8608.4586,1.0286-.0255.0289-.0654.0467-.1051.0449-.2332-.0109-.1662-.6898-.4878-.8435-.2774-.1326-.7267.1678-.7563.1187-.0003-.0005-.0004-.0012-.0004-.002.0082-.09.4968-.4798.891-.3466Z"/>
    <ellipse class="cls-14" cx="800.4737" cy="604.8479" rx=".0509" ry=".0918" transform="translate(-178.271 825.4335) rotate(-49.776)"/>
    <path class="cls-16" d="M801.2299,609.5295c-.0238-.002-.0198.2588-.1429.3121s-.2805-.1411-.2968-.1218c-.0223.0265.2364.4352.3851.3708s.0872-.5584.0545-.5612Z"/>
    <path class="cls-16" d="M801.5336,604.8557c-.0112.0006-.021.0953-.0815.1215s-.126-.0359-.1345-.028c-.0117.0109.0919.1454.1649.1137s.0664-.2081.0511-.2073Z"/>
    <path class="cls-16" d="M803.3211,609.6142c-.0372-.0112-.0769.3915-.3175.5584-.0363.0252-.1187.0738-.1209.143-.0018.0549.0481.0799.0375.1278-.0104.0467-.0643.0518-.117.0996-.0669.0607-.08.1431-.097.2031-.0742.2624-.3167.4358-.3067.4466.0086.0093.182-.1287.3456-.3567.008-.0111.0283-.046.0603-.0919.052-.0744.0897-.1168.1212-.1565.0499-.0627.0795-.1128.1388-.2131.1248-.2111.2246-.3835.2567-.6157.0029-.0211.0192-.1387-.001-.1448Z"/>
    <path class="cls-16" d="M800.6396,608.7894c.006-.0068-.0178-.0542-.0421-.1002-.1635-.3092-.3142-.5943-.6231-.8674-.184-.1627-.4038-.3032-.4193-.2797-.018.0272.2582.245.6422.7078.2343.2823.4268.557.4422.5395Z"/>
    <path class="cls-14" d="M794.7901,602.9895c-.0249.0416.5538.618,1.4364.957,1.2134.4661,2.4007.2529,2.4092.2029.0075-.0441-.9049.0556-2.0977-.3268-1.0832-.3472-1.7225-.8754-1.7479-.8331Z"/>
    <path class="cls-15" d="M802.7432,606.2195c.0604.3797,1.1398.6225,2.0394.3344.5331-.1707.9272-.5033.9028-.5655-.0363-.0923-.9193.6014-1.8888.3395-.4367-.118-.8877-.4274-1.0237-.2641-.0458.055-.0324.1394-.0298.1557Z"/>
    <path class="cls-14" d="M803.0314,606.3656c.0484.3045.9141.4992,1.6356.2682.4275-.1369.7436-.4037.724-.4536-.0291-.0741-.7373.4823-1.5147.2723-.3502-.0946-.7119-.3427-.821-.2118-.0367.0441-.0259.1118-.0239.1249Z"/>
    <path class="cls-16" d="M802.9561,606.3673c.0068-.0097-.055-.0761-.0348-.1429s.1072-.0838.107-.0958c-.0003-.0165-.164-.0119-.1884.0688s.107.1832.1162.1699Z"/>
    <path class="cls-16" d="M804.0905,608.2409c-.0095-.0041-.0435.0975-.1338.2422-.1217.1951-.2303.2837-.2224.2933.0088.0107.1569-.0794.2581-.2463.0832-.1373.1092-.2844.0981-.2892Z"/>
    <path class="cls-7" d="M805.3849,607.2302c-.0962-.0642-.7723.9079-1.51,2.1713-.7377,1.2634-1.2577,2.3396-1.1615,2.4038s.7723-.9079,1.51-2.1713c.7377-1.2634,1.2577-2.3396,1.1615-2.4038Z"/>
    <path class="cls-14" d="M805.5581,606.737c.0007.0203.2112-.2659.266-.2301.0549.0358-.0873.3666-.0701.3579.0236-.0119.3293-.6523.263-.6955s-.4599.5399-.459.5677Z"/>
    <path class="cls-14" d="M802.74,611.461c.0272-.0162-.2386.5424-.1618.5947.0767.0524.4382-.4409.436-.4077-.0031.0455-.6865,1.0464-.7792.9832s.4677-1.148.505-1.1702Z"/>
    <path class="cls-14" d="M803.3309,611.2543c.022.0165.8405-1.0627,1.5717-2.5374.2126-.4287.4263-.9081.4114-.9165-.0175-.0099-.3391.6377-.8135,1.4873-.7311,1.3091-1.1864,1.954-1.1697,1.9666Z"/>
  </g>
  <g>
    <path class="cls-9" d="M806.4646,654.1297c-.0208-.0487-3.5661-8.344-3.5865-8.3917-.0059-.0137-2.1103-4.9378-2.1132-4.9445-.0281-.0659-3.4432-8.0564-3.4708-8.1209,4.5962,4.3379,7.6952,5.8131,9.7319,6.3153.5804.1431,3.0379.6912,3.2397,2.1022.0878.6141-.3142.9537-.2749,1.457.0678.8686,1.416,1.7969,6.2335,2.4096-3.2533,3.0577-6.5066,6.1153-9.7598,9.173Z"/>
    <path class="cls-8" d="M816.2398,644.9647c-.1873-.2248-2.5251,1.6474-5.2215,4.1817-2.6965,2.5343-4.7305,4.771-4.5432,4.9959.1873.2248,2.5251-1.6474,5.2215-4.1817,2.6965-2.5343,4.7305-4.771,4.5432-4.9959Z"/>
    <path class="cls-15" d="M808.8724,640.0705c.8357.5562.6862,2.2794.2258,2.5791-.0792.0515-.1818.0704-.2687.0446-.5109-.1512.1633-1.6528-.434-2.1756-.5152-.451-1.748-.0141-1.776-.1415-.0003-.0014,0-.003.0008-.0048.0878-.1995,1.4773-.8176,2.2521-.3019Z"/>
    <ellipse class="cls-15" cx="807.5854" cy="641.0412" rx=".1342" ry=".2395" transform="translate(-223.4884 637.1948) rotate(-38.2279)"/>
    <path class="cls-15" d="M806.1706,650.9371c-.8658.0052-.8346-3.3373-2.5739-7.2857-1.0191-2.3135-1.9478-3.2498-1.8793-3.3047.1851-.1484,6.7357,6.8909,5.1394,9.9454-.0492.0941-.336.6429-.6863.645Z"/>
    <path class="cls-17" d="M812.8158,646.6733c-.0227-.0264-.2805.1938-.6001.4551-1.2412,1.0147-1.8273,1.3524-2.459,1.8444-1.5307,1.1922-2.9095,2.9632-2.7517,3.1618.209.2631,3.241-2.0255,3.0552-2.5509-.0292-.0824-.1336-.0825-.1498-.1798-.0442-.2663.6548-.5707,1.3067-1.0387,1.004-.7207,1.6392-1.6447,1.5986-1.6919Z"/>
    <path class="cls-14" d="M812.3429,647.1182c-.0198-.0231-.2454.1695-.5249.3981-1.0857.8876-1.5983,1.183-2.1509,1.6134-1.3389,1.0428-2.5449,2.5919-2.4069,2.7657.1829.2301,2.8349-1.7718,2.6724-2.2313-.0255-.0721-.1169-.0722-.131-.1573-.0387-.2329.5727-.4992,1.143-.9086.8782-.6304,1.4339-1.4386,1.3983-1.48Z"/>
    <path class="cls-14" d="M806.1533,649.9372c-.6744.0041-.6501-2.5994-2.0048-5.6748-.7938-1.802-1.5171-2.5313-1.4638-2.574.1442-.1156,5.2465,5.3674,4.0031,7.7465-.0383.0733-.2617.5008-.5346.5024Z"/>
    <path class="cls-14" d="M808.8374,640.1181c.5898.4156.5428,1.6038.2373,1.7948-.0525.0328-.1222.0422-.1825.0212-.3545-.1233.0587-1.139-.3668-1.5228-.3671-.3311-1.1968-.0731-1.22-.1623-.0002-.0009-.0001-.0021.0004-.0033.0537-.135.9848-.5129,1.5316-.1276Z"/>
    <ellipse class="cls-14" cx="807.5481" cy="640.9965" rx=".0818" ry=".1476" transform="translate(-219.298 548.2743) rotate(-33.2813)"/>
    <path class="cls-16" d="M806.5769,648.5576c-.0358-.014-.1487.3899-.3627.4159s-.368-.3456-.4019-.3231c-.0464.0307.1658.7787.4244.7474.2586-.0314.3893-.8209.3402-.8401Z"/>
    <path class="cls-16" d="M809.1782,641.4923c-.0175-.0042-.0759.1373-.1811.15s-.1778-.1128-.1946-.1045c-.023.0114.0753.266.2023.2506s.1973-.2904.1733-.2962Z"/>
    <path class="cls-16" d="M809.7616,649.6428c-.0522-.0343-.2972.5684-.7443.7158-.0674.0222-.2166.0595-.2517.1653-.0278.0837.0377.1452-.0005.214-.0373.0672-.1228.0505-.2258.1002-.1307.063-.1887.184-.2422.2688-.2341.3706-.687.5272-.6765.5483.009.0183.3393-.1154.6956-.392.0173-.0134.0646-.058.1349-.1141.1142-.091.1915-.1391.2582-.1859.1056-.0739.1741-.1376.3112-.265.2887-.2684.5212-.4885.6767-.8318.0141-.0311.0929-.205.0645-.2236Z"/>
    <path class="cls-16" d="M806.0048,647.1474c.0124-.0078-.0027-.0917-.0192-.1736-.1108-.5512-.213-1.0594-.5645-1.6214-.2094-.3348-.4841-.6517-.5187-.6225-.0401.0337.2862.4955.6669,1.3841.2322.542.4036,1.0534.4354,1.0334Z"/>
    <path class="cls-14" d="M799.6358,635.5378c-.0574.0528.5715,1.2053,1.7772,2.1306,1.6576,1.2722,3.585,1.4856,3.6209,1.4124.0317-.0645-1.4202-.3274-3.0843-1.4611-1.5112-1.0295-2.2555-2.1356-2.3139-2.0819Z"/>
    <path class="cls-15" d="M810.4201,644.1465c-.0802.6129,1.4728,1.4798,2.9909,1.4463.8997-.0199,1.659-.3526,1.6496-.4597-.0138-.1589-1.6915.5073-3.0663-.3388-.6193-.3811-1.1732-1.0639-1.4573-.8743-.0957.0638-.1135.2001-.1169.2265Z"/>
    <path class="cls-14" d="M810.7977,644.5031c-.0644.4915,1.1811,1.1867,2.3986,1.1599.7215-.0159,1.3304-.2828,1.323-.3686-.0111-.1274-1.3566.4069-2.4591-.2717-.4966-.3057-.9408-.8532-1.1687-.7012-.0767.0512-.091.1605-.0938.1816Z"/>
    <path class="cls-16" d="M810.681,644.4714c.0149-.0119-.0501-.1424.0115-.2361s.2034-.0802.2086-.0989c.0071-.0255-.2473-.0932-.3217.0201s.0812.3312.1016.3149Z"/>
    <path class="cls-16" d="M811.5743,647.8771c-.0128-.0107-.1115.1304-.3168.3123-.2766.2451-.4845.3321-.4766.3507.0087.0205.2781-.0508.5102-.2619.1909-.1736.2981-.3886.2832-.4011Z"/>
    <path class="cls-7" d="M814.0307,646.91c-.119-.1429-1.6048,1.047-3.3185,2.6576-1.7137,1.6107-3.0064,3.0322-2.8874,3.1751s1.6048-1.047,3.3185-2.6576c1.7137-1.6107,3.0064-3.0322,2.8874-3.1751Z"/>
    <path class="cls-14" d="M814.5228,646.2289c-.0083.0316.4469-.3135.5151-.2333.0682.0802-.3019.5252-.2714.5197.0418-.0075.8053-.8551.7229-.952s-.9553.6222-.9666.6655Z"/>
    <path class="cls-14" d="M808.023,652.224c.0493-.0125-.6153.7271-.5209.8428.0944.1157.8767-.4796.8581-.4295-.0255.0687-1.5357,1.2996-1.6498,1.1598s1.2449-1.5561,1.3125-1.5732Z"/>
    <path class="cls-14" d="M809.0282,652.1752c.0264.0354,1.7805-1.2544,3.5808-3.1938.5234-.5638,1.0716-1.2051,1.0525-1.2248-.0225-.0232-.8137.8282-1.9328,1.9212-1.7244,1.6841-2.7206,2.4704-2.7005,2.4975Z"/>
  </g>
  <g>
    <path class="cls-18" d="M820.7566,560.022c-5.5283,153.0711-4.2908,215.8404,0,231.2258.5212,1.8694,3.3519,11.1585,0,13.9818-4.0201,3.3858-15.2952-3.9031-20.0171-8.4599-20.5109-19.7949,1.3773-68.3149,5.166-119.4088,1.5269-20.5884-.4969-38.1015-2.12-51.376-.6108-4.9956-1.5057-12.3131-3.2815-20.8149-2.8193-13.4969-8.5878-33.472-21.6283-56.653"/>
    <path class="cls-11" d="M788.9912,565.5224c3.9686,18.8554,9.1734,27.4099,13.5031,31.6556,1.0408,1.0204,3.4107,3.1454,3.8761,6.4604.9568,6.8157-6.8894,13.3391-5.9432,14.2119.5486.5052,3.6176-1.2912,3.6176-1.2912,11.1224-7.582,16.5197-15.527,19.3805-21.1895,6.8156-13.4909,8.3834-32.1391,8.5823-33.1103-2.4253,2.1614-7.0155,5.6781-13.7367,7.692-6.8525,2.0531-12.4605,1.5074-14.0614,1.3182-7.3019-.8634-12.5607-3.9262-15.2182-5.7471Z"/>
    <path class="cls-11" d="M857.2742,553.4861c4.6364.6833,11.7073,3.337,17.0259,6.788,3.1038,2.0139,5.2651,4.0756,9.7809,4.8478,4.8034.8208,8.3855-.4804,8.6943,0,.5554.8644-10.0816,6.544-23.5468,8.485-17.2831,2.4918-39.456-1.1428-40.9348-7.0303-1.4399-5.7341,16.4098-14.9434,28.9804-13.0905Z"/>
    <path class="cls-11" d="M764.1431,556.6841c-4.6364.6833-11.7073,3.337-17.0259,6.788-3.1038,2.0139-5.2651,4.0756-9.7809,4.8478-4.8034.8208-8.3855-.4804-8.6943,0-.5554.8644,10.0816,6.544,23.5468,8.485,17.2831,2.4918,39.456-1.1428,40.9348-7.0303,1.4399-5.7341-16.4098-14.9434-28.9804-13.0905Z"/>
    <path class="cls-5" d="M775.7602,492.1776s10.1458,5.8127,20.4546,6.8625c8.9098.9073,8.0946-2.7462,17.1372-1.6479,4.0918.497,13.7538,1.6702,19.609,7.4976.5689.5662,1.3529,1.4259,1.7428,1.2239,1.1712-.6067-.2174-11.2771-6.2744-15.7248-8.7255-6.4074-24.0974,2.3321-26.7073-2.3942-.9622-1.7425,1.1282-3.2497.0824-5.2729-2.2358-4.3254-15.4228-4.7047-21.0521,1.4054-2.1395,2.3222-6.6099,10.7622-4.9922,8.0505Z"/>
    <path class="cls-3" d="M779.6981,539.5353c2.1355,19.0528,11.2716,26.6183,8.6541,28.682-4.6405,3.6586-29.1916-23.4062-37.4359-41.2052-1.7168-3.7065-3.4289-8.5295-1.3183-11.6447,2.3556-3.4768,7.199-1.471,10.9854-5.932,2.5015-2.9474,2.1901-5.9466,5.273-7.2503,1.882-.7959,3.7859-.4343,4.1745-.3534.0004,0,2.3105.4804,4.2946,2.5615,7.2177,7.5706,3.6058,19.3785,5.3726,35.1421Z"/>
    <path class="cls-2" d="M766.6364,500.6775s-.1061-5.7948.8991-10.7987c1.1931-5.9393,2.8807-5.4318,2.9767-8.8175.1846-6.5068-6.0348-8.8673-5.2837-13.6169.6531-4.1295,5.9993-6.4234,8.5172-7.5036,9.0844-3.8973,18.1289-.5695,24.9884,1.923,6.1002,2.2166,16.8008,7.1785,16.1997,11.1695-.3047,2.0229-3.122,1.8414-6.5553,6.0884-2.9639,3.6662-3.9923,7.6834-4.5984,7.4862-.4642-.1511.5251-2.3819-.5457-4.5339-.9451-1.8993-2.9474-2.7039-4.6139-3.2647-4.2058-1.4155-7.9548-.7794-8.5586-.6697-1.2004.218-7.6765,1.5206-12.0901,7.2743-5.3219,6.9379-3.5083,14.9513-7.4594,16.1323-1.4589.436-2.9479-.2887-3.8758-.8689Z"/>
    <path class="cls-4" d="M827.7427,565.3494c.6.864,6.5057-2.0115,11.2719-5.1615,4.4693-2.9536,8.4192-5.6779,10.8065-10.5556,1.5552-3.1776,1.6989-5.9101,1.8817-8.3394,1.0194-13.5437,1.1071-22.7334,5.273-29.99,4.7981-8.3579,12.0286-12.601,10.3812-18.2501-.6058-2.0774-2.4983-4.6409-5.1082-5.9728-2.5641-1.3085-5.0599-1.0398-5.9321-.9888-8.7849.5144-15.4145-11.5162-24.5525-14.3359-13.1329-4.0524-30.5316,11.0648-29.1105,15.3603,1.3841,4.1838,20.1801-3.2329,29.0289,6.816,3.7131,4.2166,4.0118,9.62,4.3157,15.1192.853,15.4347-7.4649,18.2076-5.3876,30.4296,1.3643,8.0268,5.5749,11.2845,3.425,17.3166-1.8629,5.2271-6.8472,7.7544-6.2931,8.5523Z"/>
    <path class="cls-3" d="M842.1099,558.2763c5.1248-3.3839,16.8741-10.6513,20.7478-23.8493,1.6313-5.5582.9703-8.9512,4.2843-12.0288,5.7053-5.2983,14.8492-1.7058,16.1486-5.1082,1.0523-2.7556-4.1532-7.185-6.5912-8.8982-2.0579-1.4462-6.7789-4.9184-11.8642-3.955-6.9257,1.312-10.2865,9.9979-11.3699,12.7982-5.596,14.4641,1.123,20.7207-3.6252,30.9788-6.1609,13.31-24.6384,16.6959-24.3433,17.326.1978.422,8.2081-1.7135,16.6132-7.2634Z"/>
    <path class="cls-6" d="M831.1684,536.8806c-.1592,9.4644,4.4294,10.993,3.0759,17.7964-2.114,10.6251-15.7399,19.1318-28.6187,19.6983-1.9249.0846-16.4573.5201-23.8916-9.1524-4.6526-6.0534-1.5779-9.6291-5.1099-29.5884-2.1375-12.079-3.8315-13.9788-4.1178-22.9218-.0958-2.993-.6398-19.9864,5.0533-21.7511,3.7396-1.1592,6.2981,5.4522,14.9402,7.2503,5.3598,1.1153,8.1481-.6429,13.1258-1.3182,13.3126-1.8064,30.8024,5.6893,33.2326,15.3797,1.9694,7.8527-7.4629,11.1152-7.6898,24.6073Z"/>
    <path class="cls-2" d="M764.8474,500.2132c1.0965-3.4469,1.1116-2.7063,2.046-5.7391,1.9029-6.1765,3.0338-9.8474,2.5679-13.8699-.4892-4.2243-2.9954-11.0477-7.543-12.1328-7.2864-1.7386-17.8663,11.7191-15.4058,18.6451,1.0082,2.8379,3.0355,2.5647,4.9877,5.7064,5.6454,9.0849-3.8986,24.9022-2.5267,25.5163.651.2912,2.0214-3.6184,6.2618-5.3279,2.6023-1.0492,3.2885-.0613,4.9984-1.0985,2.4669-1.4963,2.2572-4.2915,4.6138-11.6994Z"/>
    <path class="cls-13" d="M762.6277,496.5215c.5898-1.8539.5979-1.4556,1.1004-3.0868,1.0235-3.3221,1.6317-5.2964,1.3812-7.46-.2631-2.272-1.6111-5.942-4.057-6.5257-3.919-.9351-9.6094,6.3031-8.286,10.0283.5423,1.5264,1.6326,1.3794,2.6826,3.0692,3.0364,4.8863-2.0969,13.3937-1.359,13.724.3501.1566,1.0872-1.9462,3.3679-2.8656,1.3996-.5643,1.7687-.033,2.6884-.5908,1.3268-.8048,1.214-2.3082,2.4815-6.2925Z"/>
    <path class="cls-13" d="M825.4292,538.7638c-.1265,8.1999,3.5219,9.5242,2.4457,15.4187-1.6809,9.2055-12.5151,16.5756-22.7553,17.0664-1.5305.0733-13.0856.4506-18.9967-7.9296-3.6994-5.2446-1.2546-8.3426-4.063-25.6352-1.6996-10.4651-3.0465-12.1111-3.2742-19.8592-.0762-2.5931-.5087-17.316,4.018-18.845,2.9734-1.0043,5.0077,4.7237,11.8793,6.2816,4.2617.9663,6.4787-.557,10.4366-1.1421,10.5851-1.565,24.4916,4.9291,26.4239,13.3248,1.5659,6.8035-5.9339,9.6301-6.1143,21.3195Z"/>
    <path class="cls-12" d="M813.5553,538.2402c-.9146-1.1848,4.7119-5.7465,3.3194-8.3087-.9366-1.7233-4.1619-.9106-4.4908-2.068-.4846-1.7058,5.5576-6.8577,9.1908-4.9576,2.8615,1.4965,3.3862,6.1424,1.1716,10.3769-2.3705,4.5327-8.3836,6.0035-9.1911,4.9575Z"/>
    <circle class="cls-12" cx="808.8413" cy="531.1344" r="1.4803"/>
    <path class="cls-13" d="M808.075,471.0722c.0085-.0171-17.4065-12.8045-26.365-6.9462-5.7222,3.7418-5.298,13.3282-6.2954,13.1826-1.0581-.1544-2.9134-11.1449,2.1209-15.2922,8.3241-6.8573,30.5299,9.0749,30.5394,9.0558Z"/>
    <path class="cls-13" d="M810.5383,483.1623c.8861,2.3955,6.0287,2.2512,5.9885,2.6202-.0465.4265-7,1.4111-8.1772-1.2658-1.2406-2.8213,4.9712-7.353,5.1437-7.2029.1426.1239-3.8427,3.4485-2.955,5.8485Z"/>
    <path class="cls-13" d="M872.8962,513.7743c.7667-2.4363-3.3868-5.472-3.129-5.7391.298-.3087,6.3977,3.172,5.6886,6.009-.7473,2.99-8.4332,2.7676-8.4777,2.5433-.0368-.1853,5.1498-.3724,5.918-2.8133Z"/>
    <path class="cls-13" d="M824.117,476.0727c2.5852-3.0038,11.0966-1.3863,15.5137,3.4056,2.7025,2.932,1.4148,4.3858,3.8449,6.8377,5.3323,5.3801,14.4942,1.369,16.3683,5.3561.5624,1.1968-.0279,3.2147-1.2085,7.2503-.1889.646-1.4032,4.7301-2.0872,4.6138-.8785-.1493,1.0368-6.9023-2.1971-9.6044-1.024-.8555-1.6809-.5671-4.7237-1.1091-4.066-.7244-9.3906-1.673-11.7544-5.1054-1.8348-2.6641-.2617-4.4668-1.9774-5.9044-3.0917-2.5906-9.2128,2.4133-11.7786,0-1.3592-1.2783-1.2939-4.2368,0-5.7403Z"/>
    <path class="cls-13" d="M840.1057,525.4523h0c.0971-.1507.1876-.163.1881-.163.0658-.0088.1272.0459.1706.0932.4339.4742.5277.9176.5277.9181.2655,1.257,1.1381,2.0144,1.4126,4.9834.3882,4.1986-1.0692,5.7659-1.1495,11.1956-.0412,2.7889.3237,4.5146-.2786,4.7238-.795.2761-2.4148-2.3885-2.8562-3.1859-1.0524-1.9013-3.2258-7.315,1.9853-18.5653Z"/>
    <path class="cls-13" d="M769.5659,550.0886c-3.9371-2.7157-6.3046-6.3632-8.7802-11.5273-1.2544-2.6168-5.1307-10.7029-3.6251-11.7071.6536-.436,1.5463.9797,3.6251.9888,2.9826.0131,4.2169-2.8878,5.8397-2.5547,1.7145.3519,2.1274,3.9573,2.9405,8.4867,2.0548,11.4458,4.4809,16.6235,2.8825,17.467-.2141.1128-.7809.2961-2.8825-1.1535Z"/>
    <path class="cls-12" d="M768.5077,505.4618c2.5041-.5179,5.2693,4.33,5.2352,4.6486-.0351.3268-3.0136-4.1401-5.5712-3.0767-2.0621.8574-2.7016,4.8323-2.7761,4.6997-.086-.1533.5994-5.7519,3.1121-6.2716Z"/>
    <path class="cls-12" d="M821.4596,504.2704c-.2306.3052-2.0581-1.5129-6.163-2.5909-1.6833-.442-2.9308-.5446-2.9402-.8888-.0105-.3844,1.5277-.9238,2.9402-.8891,3.6235.0892,6.4727,3.959,6.163,4.3687Z"/>
    <path class="cls-10" d="M795.3305,783.6168c-2.3255-8.0132,3.4006-15.9181,4.4707-15.6818.9504.2098-2.2319,6.7406.3141,15.6818,1.8938,6.6508,5.6966,10.2092,5.0138,10.6458-.8316.5317-7.8341-3.8767-9.7986-10.6458Z"/>
    <path class="cls-1" d="M826.8095,572.6934c.5202.0561,2.0215,9.7343-2.6925,18.6203-2.3769,4.4807-6.018,8.1642-10.49,12.6882-2.5602,2.59-4.6523,4.4132-4.7857,4.2841-.2655-.2568,8.5692-6.9465,13.6839-18.1865,4.3212-9.4964,3.8102-17.4573,4.2843-17.406Z"/>
    <path class="cls-1" d="M781.6594,572.8379c.0475,1.6605-7.8826,3.6905-14.8303,3.6455-8.6215-.0559-14.9208-3.301-14.8303-3.6455.1283-.4884,13.513,3.2953,14.8299.3878.3201-.7067-.3271-1.2473.0004-1.9528,1.316-2.8345,14.7688-.5847,14.8303,1.565Z"/>
    <ellipse class="cls-10" cx="743.2928" cy="571.9831" rx="2.0598" ry=".7101"/>
    <path class="cls-1" d="M797.6059,582.367c.5782-3.295,5.5217-5.145,8.7334-5.6716,7.8807-1.2923,15.2838,3.7515,15.1358,4.1402-.0795.2089-2.2189-1.2456-5.7433-1.388-8.8582-.3582-14.5811,8.0522-17.3021,6.1176-1.2068-.858-.8485-3.0582-.8239-3.1981Z"/>
    <path class="cls-10" d="M811.2102,595.2134c0,2.2751-.7623,4.1197-1.7027,4.1197s-1.7028-1.8446-1.7028-4.1197.7623-4.1194,1.7028-4.1194,1.7027,1.8443,1.7027,4.1194Z"/>
    <path class="cls-10" d="M767.8751,558.3736c-2.7911-.2472-5.0592.8054-5.1575.7234-.1103-.0919,2.5616-1.5741,5.3412-1.2453,1.8532.2193,3.0193,1.1566,2.8729,1.2453-.1303.0788-1.2191-.5608-3.0565-.7235Z"/>
    <path class="cls-1" d="M854.4612,555.8582c.0053.1861.4165.4032.5963.4822.2857.1254.5317.1393.571.1422,1.0244.0758,2.2969,2.0118,2.2971,2.0121,1.3727,2.0882,4.6882,3.0699,5.8223,3.4056,3.2392.9589,6.3651.2656,6.3716,0,.0052-.2114-1.9763.1317-4.3942-.7691-4.7606-1.7736-5.4994-6.2412-8.7884-6.1518-1.0525.0285-2.4858.5272-2.4757.8788Z"/>
    <path class="cls-1" d="M814.7042,622.301c-.3024.0091-.4111,2.3813-.6821,6.1253-1.6954,23.426-5.1666,37.3685-6.4162,49.7773-3.2142,31.9182,7.988,56.4907,7.7814,56.5385-.2215.0513-11.3815-28.6024-4.0371-58.5611,1.2571-5.1277,2.2838-7.143,3.4996-13.7821,3.8612-21.0853.7134-40.1233-.1456-40.098Z"/>
    <path class="cls-1" d="M835.2292,568.7687c-.0443.169,5.6307,2.4549,13.144,3.3859,9.4029,1.1651,16.9761-.3754,16.9641-.5531-.0106-.1583-6.029.8096-14.8474-.0043-9.0354-.8341-15.2147-3.0037-15.2607-2.8285Z"/>
    <ellipse class="cls-1" cx="812.3918" cy="767.6129" rx="1.779" ry="1.9016"/>
  </g>
</svg>