<?xml version="1.0" encoding="UTF-8"?>
<svg id="Layer_1" data-name="Layer 1" xmlns="http://www.w3.org/2000/svg" viewBox="0 0 1621.4173 1264.252">
  <defs>
    <style>
      .cls-1 {
        fill: #dd905b;
      }

      .cls-2 {
        fill: #f8984b;
      }

      .cls-3 {
        fill: #c47337;
      }

      .cls-4 {
        fill: #f69320;
      }

      .cls-5 {
        fill: #ee8a22;
      }

      .cls-6 {
        fill: #72459b;
      }

      .cls-7 {
        fill: #f99f4c;
      }

      .cls-8 {
        fill: #d17d35;
      }
    </style>
  </defs>
  <ellipse class="cls-6" cx="816.5002" cy="555.6258" rx="6.834" ry="1.8961"/>
  <ellipse class="cls-6" cx="869.2682" cy="714.4842" rx="105.8375" ry="5.47"/>
  <path class="cls-6" d="M691.8806,637.6771c7.8311-29.8043,28.0334-44.5081,26.3809-45.9352-1.9977-1.7252-34.1162,17.5244-36.8276,45.9352-1.1334,11.8764,2.9813,24.2065,5.2234,24.1301,2.0955-.0714,1.761-10.9533,5.2233-24.1301Z"/>
  <path class="cls-6" d="M647.8336,703.3748c-3.6693-.6461-24.5555,8.0086-19.7426,16.9629,2.7448,5.1067,12.6716,8.1217,15.9459,9.0873,26.478,7.8082,66.0598,2.7172,66.0619,2.7262.0015.0067-21.664,3.0807-41.7632-1.2116-2.6642-.5689-15.9921-3.5505-22.0206-9.6931-8.7464-8.9119,4.9473-17.2679,1.5186-17.8716Z"/>
  <g>
    <rect class="cls-4" x="620.0854" y="684.7177" width="381.2465" height="55.6379" rx="26.6783" ry="26.6783"/>
    <path class="cls-4" d="M660.7308,688.3605c-5.7523-78.2774,60.4773-143.6986,138.0562-148.1642,84.0625-4.8387,163.5922,62.9206,157.9711,148.1642"/>
    <path class="cls-8" d="M802.7385,523.9382c-11.0874.5779-21.95,7.1659-25.5103,15.5299-1.6368,3.8453-.9413,7.3857-.8503,7.9455.8242,5.0722,4.1111,8.4648,6.3775,10.7446,4.9934,5.0226,10.4799,7.5272,11.1607,7.8552,18.9782,9.1443,27.6315,121.2923,31.3563,121.5308,2.7279.1747,6.3775-32.503,6.3776-32.5045,10.7232-96.7688,6.4419-115.6234-7.6531-124.9618-1.6712-1.1072-10.1418-6.7192-21.2585-6.1397Z"/>
  </g>
  <g>
    <path class="cls-3" d="M780.7872,548.6904c-.8796-.2063-1.1867-1.0585-1.5693-2.1207-2.1732-6.0339,4.6305-11.9431,5.585-12.7721,1.1504-.9991,8.7019-7.3366,20.8219-7.0236,9.6854.2502,15.7618,4.5789,17.6044,5.9342,7.2581,5.3382,9.3515,12.863,7.8329,13.5021-2.0583.8662-9.2045-11.5688-22.8395-12.1013-3.3451-.1306-5.9324.5-7.109.7958-12.6691,3.1851-16.8199,14.6082-20.3265,13.7856Z"/>
    <ellipse class="cls-3" cx="817.3686" cy="551.5971" rx="6.3163" ry="1.7525"/>
    <ellipse class="cls-5" cx="871.1687" cy="714.7784" rx="105.8375" ry="5.47"/>
    <path class="cls-5" d="M693.7812,637.9713c7.8311-29.8043,28.0334-44.5081,26.3809-45.9352-1.9977-1.7252-34.1162,17.5244-36.8276,45.9352-1.1334,11.8764,2.9813,24.2065,5.2234,24.1301,2.0955-.0714,1.761-10.9533,5.2233-24.1301Z"/>
    <path class="cls-5" d="M649.7341,703.669c-3.6693-.6461-24.5555,8.0086-19.7426,16.9629,2.7448,5.1067,12.6716,8.1217,15.9459,9.0873,26.478,7.8082,66.0598,2.7172,66.0619,2.7262.0015.0067-21.664,3.0807-41.7632-1.2116-2.6642-.5689-15.9921-3.5505-22.0206-9.6931-8.7464-8.9119,4.9473-17.2679,1.5186-17.8716Z"/>
    <path class="cls-7" d="M643.2803,709.9559c-.7467-.7287-2.8737.1207-3.8465.6556-1.6471.9056-2.838,2.4773-3.1762,3.796-1.3744,5.3557,9.9221,11.9349,10.3713,11.4786.3183-.3228-5.3736-3.5798-5.3379-8.6778.0258-3.6743,3.0115-6.2537,1.9892-7.2525Z"/>
    <path class="cls-2" d="M690.1966,633.158c3.9806-15.1499,14.2497-22.624,13.4098-23.3494-1.0154-.8769-17.3417,8.9079-18.72,23.3494-.5761,6.0369,1.5154,12.3045,2.6551,12.2656,1.0652-.0363.8952-5.5677,2.6551-12.2656Z"/>
    <ellipse class="cls-1" cx="815.336" cy="551.5875" rx="4.1979" ry="1.1647"/>
    <path class="cls-1" d="M786.3793,540.8096c-.6927-.1144-.9319-.5973-1.2298-1.1991-1.6925-3.4187,3.6913-6.7946,4.4466-7.2682.9104-.5708,6.8852-4.1921,16.4387-4.0519,7.6345.112,12.4099,2.5506,13.8579,3.3143,5.7035,3.008,7.3281,7.2735,6.1287,7.641-1.6256.4982-7.2166-6.5392-17.9637-6.7992-2.6366-.0638-4.6784.3022-5.607.4738-9.9984,1.8475-13.3098,8.3453-16.0714,7.8892Z"/>
    <ellipse class="cls-7" cx="873.1176" cy="714.9303" rx="87.6722" ry="2.2656"/>
  </g>
</svg>