<?xml version="1.0" encoding="UTF-8"?>
<svg id="Layer_1" data-name="Layer 1" xmlns="http://www.w3.org/2000/svg" viewBox="0 0 1621.4173 1264.252">
  <defs>
    <style>
      .cls-1 {
        fill: #8aab5f;
      }

      .cls-2 {
        fill: #2a1a11;
      }

      .cls-3 {
        stroke-width: 1.2139px;
      }

      .cls-3, .cls-4, .cls-5, .cls-6 {
        fill: #861618;
      }

      .cls-3, .cls-5, .cls-6 {
        stroke: #7a1217;
      }

      .cls-3, .cls-5, .cls-6, .cls-7 {
        stroke-miterlimit: 10;
      }

      .cls-8 {
        fill: #432816;
      }

      .cls-9 {
        fill: #563419;
      }

      .cls-10 {
        fill: #99c26e;
      }

      .cls-11 {
        fill: #516936;
      }

      .cls-12 {
        fill: #f48d99;
      }

      .cls-13 {
        fill: #ad2930;
      }

      .cls-14 {
        fill: #734a23;
      }

      .cls-15 {
        fill: #643d1e;
      }

      .cls-16 {
        fill: #ad7a50;
      }

      .cls-17 {
        fill: #693e1c;
      }

      .cls-5 {
        stroke-width: 2.4471px;
      }

      .cls-6, .cls-7 {
        stroke-width: 2.4277px;
      }

      .cls-18 {
        fill: #5a7841;
      }

      .cls-7 {
        fill: #680e14;
        stroke: #571013;
      }
    </style>
  </defs>
  <g>
    <path class="cls-9" d="M800.8234,719.0622c-.0346-.081-5.9375-13.8926-5.9714-13.972-.0098-.0228-3.5136-8.2214-3.5184-8.2326-.0469-.1096-5.7329-13.4138-5.7788-13.5213,7.6526,7.2225,12.8124,9.6787,16.2036,10.5148.9664.2383,5.058,1.1508,5.394,3.5002.1462,1.0225-.5231,1.5878-.4577,2.426.1128,1.4462,2.3577,2.9918,10.3787,4.0119-5.4167,5.091-10.8334,10.1819-16.25,15.2729Z"/>
    <path class="cls-8" d="M817.0991,703.8026c-.3119-.3743-4.2042,2.7429-8.6938,6.9625-4.4896,4.2196-7.8763,7.9437-7.5644,8.3181.3119.3743,4.2042-2.7429,8.6938-6.9625,4.4896-4.2196,7.8763-7.9437,7.5644-8.318Z"/>
    <path class="cls-15" d="M804.8325,695.6538c1.3915.9261,1.1425,3.7951.376,4.2942-.1318.0858-.3028.1171-.4474.0743-.8506-.2518.2719-2.7519-.7226-3.6223-.8578-.7509-2.9105-.0235-2.957-.2355-.0005-.0023,0-.0049.0013-.008.1462-.3321,2.4598-1.3612,3.7497-.5027Z"/>
    <ellipse class="cls-15" cx="802.6895" cy="697.2701" rx=".2234" ry=".3988" transform="translate(-259.3322 646.2233) rotate(-38.2279)"/>
    <path class="cls-15" d="M800.334,713.7466c-1.4416.0087-1.3896-5.5566-4.2854-12.1306-1.6967-3.8519-3.243-5.4109-3.129-5.5023.3082-.247,11.2149,11.4733,8.5571,16.5589-.0819.1567-.5594,1.0704-1.1427,1.074Z"/>
    <path class="cls-17" d="M811.3981,706.6474c-.0377-.0439-.467.3227-.9992.7577-2.0665,1.6895-3.0424,2.2518-4.0942,3.071-2.5486,1.9849-4.8443,4.9337-4.5815,5.2644.3481.4381,5.3962-3.3725,5.0868-4.2472-.0485-.1373-.2225-.1373-.2494-.2993-.0736-.4434,1.0902-.9502,2.1757-1.7295,1.6717-1.2,2.7293-2.7384,2.6617-2.8171Z"/>
    <path class="cls-14" d="M810.6107,707.3882c-.033-.0384-.4085.2823-.874.6628-1.8076,1.4778-2.6612,1.9697-3.5812,2.6862-2.2293,1.7362-4.2373,4.3156-4.0075,4.6048.3044.3832,4.7201-2.9499,4.4495-3.7151-.0425-.1201-.1946-.1201-.2182-.2618-.0644-.3878.9536-.8312,1.9031-1.5128,1.4622-1.0497,2.3874-2.3953,2.3282-2.4641Z"/>
    <path class="cls-14" d="M800.3052,712.0817c-1.1229.0068-1.0823-4.328-3.3379-9.4486-1.3216-3.0002-2.526-4.2146-2.4372-4.2857.2401-.1924,8.7353,8.9366,6.6652,12.8978-.0638.122-.4358.8338-.89.8365Z"/>
    <path class="cls-14" d="M804.7741,695.7331c.982.6919.9037,2.6704.3952,2.9884-.0874.0547-.2034.0702-.3038.0353-.5902-.2052.0977-1.8965-.6108-2.5355-.6112-.5512-1.9926-.1217-2.0313-.2702-.0004-.0016-.0002-.0034.0006-.0055.0894-.2248,1.6397-.8539,2.5501-.2125Z"/>
    <ellipse class="cls-14" cx="802.6275" cy="697.1955" rx=".1362" ry=".2458" transform="translate(-250.9443 554.7915) rotate(-33.2813)"/>
    <path class="cls-16" d="M801.0105,709.7848c-.0596-.0233-.2475.6492-.6039.6924-.3564.0432-.6127-.5754-.6691-.538-.0773.0512.276,1.2966.7066,1.2444.4306-.0522.6481-1.3669.5664-1.3987Z"/>
    <path class="cls-16" d="M805.3416,698.021c-.0291-.007-.1264.2286-.3015.2498-.1751.0212-.296-.1879-.324-.174-.0383.019.1253.4429.3369.4173.2116-.0257.3284-.4835.2886-.4931Z"/>
    <path class="cls-16" d="M806.313,711.5915c-.0868-.057-.4948.9464-1.2393,1.1918-.1123.037-.3607.0991-.4191.2751-.0462.1394.0628.2417-.0008.3564-.062.1119-.2044.0841-.376.1668-.2177.1049-.3141.3064-.4033.4475-.3898.6171-1.1439.8778-1.1264.9129.015.0304.5649-.1921,1.1581-.6527.0288-.0224.1076-.0966.2246-.1899.1901-.1515.3189-.2317.43-.3094.1758-.1231.2899-.2292.5181-.4413.4807-.4469.8678-.8134,1.1268-1.3849.0235-.0519.1547-.3413.1074-.3723Z"/>
    <path class="cls-16" d="M800.0579,707.4369c.0206-.013-.0045-.1526-.0319-.289-.1845-.9178-.3547-1.7639-.9399-2.6996-.3486-.5574-.806-1.085-.8636-1.0365-.0668.0562.4764.825,1.1104,2.3045.3867.9024.6719,1.7538.725,1.7205Z"/>
    <path class="cls-14" d="M789.4536,688.1069c-.0956.0879.9516,2.0068,2.9591,3.5475,2.7598,2.1182,5.969,2.4734,6.0288,2.3516.0528-.1075-2.3646-.5451-5.1353-2.4327-2.5161-1.7142-3.7554-3.5557-3.8526-3.4663Z"/>
    <path class="cls-15" d="M807.4094,702.4403c-.1336,1.0204,2.4521,2.4638,4.9799,2.408,1.4979-.0331,2.7622-.5871,2.7466-.7654-.023-.2646-2.8164.8447-5.1053-.564-1.0311-.6346-1.9533-1.7714-2.4264-1.4557-.1593.1063-.189.3332-.1947.3771Z"/>
    <path class="cls-14" d="M808.0381,703.034c-.1071.8184,1.9665,1.9759,3.9937,1.9312,1.2013-.0265,2.2151-.4708,2.2027-.6138-.0184-.2122-2.2586.6774-4.0943-.4523-.8269-.5089-1.5665-1.4206-1.9459-1.1674-.1277.0852-.1515.2672-.1562.3024Z"/>
    <path class="cls-16" d="M807.8437,702.9812c.0248-.0198-.0834-.237.0192-.3931s.3387-.1335.3473-.1646c.0118-.0425-.4117-.1553-.5357.0334-.124.1886.1352.5515.1692.5243Z"/>
    <path class="cls-16" d="M809.3311,708.6518c-.0213-.0178-.1857.2171-.5274.52-.4605.4081-.8067.553-.7936.5838.0145.0342.463-.0846.8495-.4361.3179-.289.4964-.647.4715-.6677Z"/>
    <path class="cls-2" d="M813.421,707.0415c-.1982-.2379-2.6719,1.7432-5.5252,4.4249-2.8533,2.6817-5.0057,5.0486-4.8075,5.2864s2.6719-1.7432,5.5252-4.425,5.0057-5.0485,4.8075-5.2864Z"/>
    <path class="cls-14" d="M814.2402,705.9075c-.0137.0526.744-.5219.8576-.3884.1136.1335-.5026.8745-.4519.8653.0695-.0125,1.3408-1.4237,1.2036-1.585s-1.5905,1.036-1.6093,1.1081Z"/>
    <path class="cls-14" d="M803.4181,715.8894c.0821-.0208-1.0245,1.2106-.8673,1.4032.1572.1927,1.4597-.7986,1.4288-.7151-.0424.1145-2.5569,2.1639-2.7469,1.9311-.1899-.2328,2.0728-2.5908,2.1853-2.6193Z"/>
    <path class="cls-14" d="M805.0918,715.8081c.0439.059,2.9646-2.0886,5.962-5.3176.8714-.9388,1.7842-2.0065,1.7524-2.0394-.0374-.0386-1.3548,1.379-3.218,3.1987-2.871,2.804-4.5298,4.1132-4.4963,4.1582Z"/>
  </g>
  <g>
    <path class="cls-9" d="M815.7753,758.704c.0486-.0894,8.3346-15.3303,8.3823-15.4179.0137-.0252,4.9322-9.0722,4.9389-9.0845.0658-.121,8.0474-14.8019,8.1119-14.9205-9.7252,7.8321-16.0527,10.4185-20.1372,11.2496-1.164.2368-6.083,1.1321-6.7035,3.7448-.27,1.137.4666,1.7884.3096,2.7221-.2709,1.6111-3.0692,3.2689-12.6391,4.1657,5.9124,5.8469,11.8248,11.6938,17.7371,17.5407Z"/>
    <path class="cls-8" d="M798.0066,741.1774c.4039-.4085,4.704,3.189,9.6044,8.0351,4.9004,4.8462,8.5455,9.1059,8.1416,9.5144-.4039.4085-4.704-3.189-9.6044-8.0352-4.9004-4.8462-8.5456-9.1059-8.1416-9.5143Z"/>
    <path class="cls-15" d="M813.269,732.4504c-1.7315.9919-1.7106,4.2023-.8529,4.7826.1475.0998.3464.1399.5213.0964,1.0285-.2554-.0591-3.0804,1.1982-4.0221,1.0846-.8124,3.4395.0616,3.5146-.1737.0008-.0025.0006-.0055-.0007-.009-.141-.3752-2.7753-1.5939-4.3805-.6744Z"/>
    <ellipse class="cls-15" cx="815.646" cy="734.3194" rx=".4699" ry=".2506" transform="translate(-280.0079 797.9278) rotate(-45.319)"/>
    <path class="cls-15" d="M816.8593,752.7846c1.7017.0532,2.17-6.1613,6.2158-13.413,2.3705-4.249,4.3451-5.9428,4.2191-6.0482-.3405-.2851-14.3368,12.4702-11.6822,18.2278.0818.1774.5588,1.2119,1.2472,1.2334Z"/>
    <path class="cls-17" d="M804.4685,744.5253c.0487-.0479.5208.3744,1.1079.8761,2.2797,1.9485,3.3787,2.6057,4.5428,3.5519,2.8209,2.2929,5.2513,5.6541,4.9096,6.0153-.4528.4785-6.0518-3.9278-5.6032-4.895.0704-.1518.2759-.1466.323-.3267.1291-.4927-1.197-1.0937-2.4048-1.9964-1.86-1.3901-2.9626-3.1395-2.8753-3.2252Z"/>
    <path class="cls-14" d="M805.3279,745.3761c.0426-.0419.4556.3275.9691.7663,1.9941,1.7043,2.9554,2.2792,3.9737,3.1069,2.4675,2.0056,4.5934,4.9457,4.2944,5.2616-.396.4186-5.2936-3.4357-4.9011-4.2817.0616-.1328.2413-.1282.2826-.2857.113-.431-1.047-.9567-2.1035-1.7463-1.6269-1.216-2.5914-2.7461-2.515-2.8211Z"/>
    <path class="cls-14" d="M817.0518,750.9268c1.3255.0414,1.6902-4.7991,4.8415-10.4475,1.8464-3.3095,3.3844-4.6289,3.2863-4.711-.2652-.222-11.167,9.7131-9.0993,14.1977.0637.1382.4352.944.9715.9607Z"/>
    <path class="cls-14" d="M813.3304,732.5407c-1.2256.7428-1.3215,2.9539-.7512,3.3242.0981.0637.2336.0845.3555.0485.7166-.2113.0651-2.1202.9627-2.8121.7743-.5969,2.3648-.0757,2.4246-.2404.0006-.0018.0006-.0038-.0002-.0061-.0841-.2536-1.8552-1.0028-2.9914-.3141Z"/>
    <ellipse class="cls-14" cx="815.7264" cy="734.2381" rx=".288" ry=".1536" transform="translate(-271.3218 885.3715) rotate(-49.9056)"/>
    <path class="cls-16" d="M816.4375,748.3413c.0726-.0242.2305.7322.6473.7912.4167.059.7784-.6239.8414-.5805.0864.0594-.4494,1.4392-.9529,1.3679-.5035-.0713-.6353-1.5455-.5358-1.5786Z"/>
    <path class="cls-16" d="M812.4424,735.0778c.035-.0069.1275.259.3323.288.2048.029.3675-.2008.3992-.1844.0434.0224-.1902.4907-.4376.4556-.2474-.035-.3418-.5497-.2939-.5592Z"/>
    <path class="cls-16" d="M810.0034,750.1983c.108-.061.4943,1.0715,1.3501,1.3679.1291.0447.4165.1215.4687.3198.0413.157-.0971.2679-.0329.3979.0626.1267.2334.1.4282.1975.2471.1237.3418.3515.4337.5118.4016.7006,1.2673,1.0144,1.2434,1.0532-.0207.0335-.6489-.2315-1.3056-.7636-.0319-.0259-.1179-.1111-.2472-.2188-.2101-.1748-.3545-.2683-.4783-.3584-.1959-.1427-.3205-.2646-.5699-.5083-.5252-.5134-.9474-.9343-1.1988-1.5801-.0228-.0586-.1502-.3857-.0914-.4189Z"/>
    <path class="cls-16" d="M817.786,745.7488c-.0231-.0151.0198-.1703.0652-.3217.3053-1.019.5868-1.9585,1.3669-2.9854.4648-.6117,1.0551-1.1869,1.1185-1.1311.0735.0647-.6412.9066-1.5307,2.5392-.5426.9958-.9605,1.9377-1.02,1.8989Z"/>
    <path class="cls-14" d="M832.1498,724.4892c.1045.101-1.3148,2.2116-3.8323,3.871-3.461,2.2814-7.2847,2.5812-7.3438,2.4433-.0521-.1216,2.8444-.5372,6.2963-2.5609,3.1347-1.8378,4.7735-3.8562,4.8798-3.7535Z"/>
    <path class="cls-15" d="M809.5797,739.9489c.0606,1.1432-3.1305,2.6765-6.1104,2.538-1.7659-.0821-3.2062-.7388-3.1709-.9373.0523-.2947,3.2457,1.028,6.083-.4756,1.2781-.6773,2.4755-1.9186,3.0042-1.5519.178.1235.1914.3776.1941.4269Z"/>
    <path class="cls-14" d="M808.7807,740.5928c.0486.9168-2.5106,2.1465-4.9003,2.0354-1.4162-.0658-2.5712-.5925-2.5429-.7517.042-.2363,2.6029.8244,4.8784-.3814,1.025-.5432,1.9852-1.5387,2.4093-1.2446.1427.099.1535.3029.1556.3423Z"/>
    <path class="cls-16" d="M809.0153,740.5397c-.0274-.0228.1211-.2621.0148-.4395-.1063-.1774-.3873-.1593-.3945-.1942-.0099-.0478.501-.1609.6295.0534s-.2122.6116-.2497.5803Z"/>
    <path class="cls-16" d="M806.7189,746.8253c.0269-.0192.1986.248.5734.5964.505.4695.9001.6417.8816.6757-.0204.0377-.5387-.1085-.9617-.5125-.3479-.3323-.5247-.7373-.4933-.7597Z"/>
    <path class="cls-2" d="M802.042,744.9043c.2567-.2596,2.9896,2.0267,6.104,5.1066,3.1144,3.0799,5.431,5.7871,5.1743,6.0467-.2567.2596-2.9896-2.0267-6.104-5.1067-3.1144-3.0799-5.431-5.7871-5.1743-6.0467Z"/>
    <path class="cls-14" d="M801.1825,743.6136c.0112.0591-.829-.6051-.9758-.4595-.1469.1456.5103.9914.4513.9797-.0809-.0161-1.448-1.6299-1.2705-1.8058s1.7797,1.2046,1.7951,1.2856Z"/>
    <path class="cls-14" d="M813.013,755.0837c-.095-.0257,1.0946,1.3824.8906,1.5927-.2039.2104-1.6479-.9355-1.6193-.8414.0392.1291,2.8137,2.4929,3.0602,2.2388.2464-.2541-2.2013-2.9549-2.3315-2.9901Z"/>
    <path class="cls-14" d="M811.0442,754.9424c-.0574.0646-3.3023-2.4211-6.5348-6.1163-.9398-1.0743-1.9161-2.2939-1.8754-2.3296.0479-.042,1.4688,1.5803,3.4959,3.6681,3.1237,3.217,4.9581,4.7286,4.9142,4.7778Z"/>
  </g>
  <g>
    <path class="cls-9" d="M795.0559,793.7956c-.0486-.0894-8.3346-15.3303-8.3823-15.4179-.0137-.0252-4.9322-9.0722-4.9389-9.0845-.0658-.121-8.0474-14.8019-8.1119-14.9205,9.7252,7.8321,16.0527,10.4185,20.1372,11.2496,1.164.2368,6.083,1.1321,6.7035,3.7448.27,1.137-.4666,1.7884-.3096,2.7221.2709,1.6111,3.0692,3.2689,12.6391,4.1657-5.9124,5.8469-11.8248,11.6938-17.7371,17.5407Z"/>
    <path class="cls-8" d="M812.8245,776.269c-.4039-.4085-4.704,3.189-9.6044,8.0351-4.9004,4.8462-8.5455,9.1059-8.1416,9.5144.4039.4085,4.704-3.189,9.6044-8.0352,4.9004-4.8462,8.5456-9.1059,8.1416-9.5143Z"/>
    <path class="cls-15" d="M797.5621,767.542c1.7315.9919,1.7106,4.2023.8529,4.7826-.1475.0998-.3464.1399-.5213.0964-1.0285-.2554.0591-3.0804-1.1982-4.0221-1.0846-.8124-3.4395.0616-3.5146-.1737-.0008-.0025-.0006-.0055.0007-.009.141-.3752,2.7753-1.5939,4.3805-.6744Z"/>
    <ellipse class="cls-15" cx="795.1852" cy="769.411" rx=".2506" ry=".4699" transform="translate(-311.2357 781.4755) rotate(-44.681)"/>
    <path class="cls-15" d="M793.9718,787.8762c-1.7017.0532-2.17-6.1613-6.2158-13.413-2.3705-4.249-4.3451-5.9428-4.2191-6.0482.3405-.2851,14.3368,12.4702,11.6822,18.2278-.0818.1774-.5588,1.2119-1.2472,1.2334Z"/>
    <path class="cls-17" d="M806.3626,779.6169c-.0487-.0479-.5208.3744-1.1079.8761-2.2797,1.9485-3.3787,2.6057-4.5428,3.5519-2.8209,2.2929-5.2513,5.6541-4.9096,6.0153.4528.4785,6.0518-3.9278,5.6032-4.895-.0704-.1518-.2759-.1466-.323-.3267-.1291-.4927,1.197-1.0937,2.4048-1.9964,1.86-1.3901,2.9626-3.1395,2.8753-3.2252Z"/>
    <path class="cls-14" d="M805.5032,780.4677c-.0426-.0419-.4556.3275-.9691.7663-1.9941,1.7043-2.9554,2.2792-3.9737,3.1069-2.4675,2.0056-4.5934,4.9457-4.2944,5.2616.396.4186,5.2936-3.4357,4.9011-4.2817-.0616-.1328-.2413-.1282-.2826-.2857-.113-.431,1.047-.9567,2.1035-1.7463,1.6269-1.216,2.5914-2.7461,2.515-2.8211Z"/>
    <path class="cls-14" d="M793.7793,786.0184c-1.3255.0414-1.6902-4.7991-4.8415-10.4475-1.8464-3.3095-3.3844-4.6289-3.2863-4.711.2652-.222,11.167,9.7131,9.0993,14.1977-.0637.1382-.4352.944-.9715.9607Z"/>
    <path class="cls-14" d="M797.5007,767.6323c1.2256.7428,1.3215,2.9539.7512,3.3242-.0981.0637-.2336.0845-.3555.0485-.7166-.2113-.0651-2.1202-.9627-2.8121-.7743-.5969-2.3648-.0757-2.4246-.2404-.0006-.0018-.0006-.0038.0002-.0061.0841-.2536,1.8552-1.0028,2.9914-.3141Z"/>
    <ellipse class="cls-14" cx="795.1047" cy="769.3297" rx=".1536" ry=".288" transform="translate(-308.6238 692.8901) rotate(-40.0944)"/>
    <path class="cls-16" d="M794.3936,783.4329c-.0726-.0242-.2305.7322-.6473.7912-.4167.059-.7784-.6239-.8414-.5805-.0864.0594.4494,1.4392.9529,1.3679.5035-.0713.6353-1.5455.5358-1.5786Z"/>
    <path class="cls-16" d="M798.3887,770.1694c-.035-.0069-.1275.259-.3323.288s-.3675-.2008-.3992-.1844c-.0434.0224.1902.4907.4376.4556.2474-.035.3418-.5497.2939-.5592Z"/>
    <path class="cls-16" d="M800.8278,785.2899c-.108-.061-.4943,1.0715-1.3501,1.3679-.1291.0447-.4165.1215-.4687.3198-.0413.157.0971.2679.0329.3979-.0626.1267-.2334.1-.4282.1975-.2471.1237-.3418.3515-.4337.5118-.4016.7006-1.2673,1.0144-1.2434,1.0532.0207.0335.6489-.2315,1.3056-.7636.0319-.0259.1179-.1111.2472-.2188.2101-.1748.3545-.2683.4783-.3584.1959-.1427.3205-.2646.5699-.5083.5252-.5134.9474-.9343,1.1988-1.5801.0228-.0586.1502-.3857.0914-.4189Z"/>
    <path class="cls-16" d="M793.0451,780.8405c.0231-.0151-.0198-.1703-.0652-.3217-.3053-1.019-.5868-1.9585-1.3669-2.9854-.4648-.6117-1.0551-1.1869-1.1185-1.1311-.0735.0647.6412.9066,1.5307,2.5392.5426.9958.9605,1.9377,1.02,1.8989Z"/>
    <path class="cls-14" d="M778.6814,759.5808c-.1045.101,1.3148,2.2116,3.8323,3.871,3.461,2.2814,7.2847,2.5812,7.3438,2.4433.0521-.1216-2.8444-.5372-6.2963-2.5609-3.1347-1.8378-4.7735-3.8562-4.8798-3.7535Z"/>
    <path class="cls-15" d="M801.2514,775.0405c-.0606,1.1432,3.1305,2.6765,6.1104,2.538,1.7659-.0821,3.2062-.7388,3.1709-.9373-.0523-.2947-3.2457,1.028-6.083-.4756-1.2781-.6773-2.4755-1.9186-3.0042-1.5519-.178.1235-.1914.3776-.1941.4269Z"/>
    <path class="cls-14" d="M802.0504,775.6844c-.0486.9168,2.5106,2.1465,4.9003,2.0354,1.4162-.0658,2.5712-.5925,2.5429-.7517-.042-.2363-2.6029.8244-4.8784-.3814-1.025-.5432-1.9852-1.5387-2.4093-1.2446-.1427.099-.1535.3029-.1556.3423Z"/>
    <path class="cls-16" d="M801.8158,775.6314c.0274-.0228-.1211-.2621-.0148-.4395.1063-.1774.3873-.1593.3945-.1942.0099-.0478-.501-.1609-.6295.0534-.1284.2143.2122.6116.2497.5803Z"/>
    <path class="cls-16" d="M804.1123,781.9169c-.0269-.0192-.1986.248-.5734.5964-.505.4695-.9001.6417-.8816.6757.0204.0377.5387-.1085.9617-.5125.3479-.3323.5247-.7373.4933-.7597Z"/>
    <path class="cls-2" d="M808.7891,779.9959c-.2567-.2596-2.9896,2.0267-6.104,5.1066-3.1144,3.0799-5.431,5.7871-5.1743,6.0467.2567.2596,2.9896-2.0267,6.104-5.1067,3.1144-3.0799,5.431-5.7871,5.1743-6.0467Z"/>
    <path class="cls-14" d="M809.6486,778.7052c-.0112.0591.829-.6051.9758-.4595.1469.1456-.5103.9914-.4513.9797.0809-.0161,1.448-1.6299,1.2705-1.8058s-1.7797,1.2046-1.7951,1.2856Z"/>
    <path class="cls-14" d="M797.8181,790.1753c.095-.0257-1.0946,1.3824-.8906,1.5927.2039.2104,1.6479-.9355,1.6193-.8414-.0392.1291-2.8137,2.4929-3.0602,2.2388-.2464-.2541,2.2013-2.9549,2.3315-2.9901Z"/>
    <path class="cls-14" d="M799.7869,790.034c.0574.0646,3.3023-2.4211,6.5348-6.1163.9398-1.0743,1.9161-2.2939,1.8754-2.3296-.0479-.042-1.4688,1.5803-3.4959,3.6681-3.1237,3.217-4.9581,4.7286-4.9142,4.7778Z"/>
  </g>
  <g>
    <path class="cls-9" d="M817.6761,674.3079c.0216-.0506,3.7086-8.6775,3.7298-8.7271.0061-.0143,2.1947-5.1352,2.1976-5.1422.0293-.0685,3.5808-8.3784,3.6095-8.4455-4.7799,4.5113-8.0028,6.0454-10.121,6.5677-.6036.1488-3.1593.7188-3.3692,2.1863-.0913.6386.3267.9918.2859,1.5153-.0705.9033-1.4726,1.8687-6.4827,2.5059,3.3833,3.1799,6.7667,6.3598,10.15,9.5397Z"/>
    <path class="cls-8" d="M807.5101,664.7766c.1948-.2338,2.626,1.7132,5.4303,4.3489,2.8043,2.6356,4.9196,4.9618,4.7248,5.1956-.1948.2338-2.626-1.7133-5.4302-4.3489-2.8043-2.6356-4.9196-4.9618-4.7248-5.1956Z"/>
    <path class="cls-15" d="M815.172,659.6867c-.8691.5785-.7136,2.3705-.2349,2.6822.0823.0536.1891.0732.2795.0464.5313-.1573-.1698-1.7189.4513-2.2625.5358-.469,1.8179-.0147,1.847-.1471.0003-.0014,0-.0031-.0008-.005-.0913-.2074-1.5364-.8502-2.3421-.314Z"/>
    <ellipse class="cls-15" cx="816.5105" cy="660.6963" rx=".2491" ry=".1396" transform="translate(-207.7527 893.2772) rotate(-51.7721)"/>
    <path class="cls-15" d="M817.9818,670.9877c.9004.0054.8679-3.4707,2.6767-7.5769,1.0598-2.4059,2.0256-3.3797,1.9544-3.4368-.1925-.1543-7.005,7.1664-5.3449,10.3429.0511.0979.3494.6686.7137.6708Z"/>
    <path class="cls-17" d="M811.071,666.5535c.0236-.0274.2917.2016.6241.4733,1.2908,1.0553,1.9003,1.4065,2.5573,1.9182,1.5919,1.2398,3.0258,3.0817,2.8617,3.2882-.2174.2736-3.3705-2.1065-3.1773-2.6529.0303-.0857.139-.0858.1558-.187.046-.2769-.6809-.5935-1.359-1.0803-1.0441-.7496-1.7048-1.7105-1.6625-1.7596Z"/>
    <path class="cls-14" d="M811.5629,667.0162c.0206-.024.2552.1763.5459.414,1.1291.9231,1.6622,1.2303,2.2369,1.6778,1.3924,1.0845,2.6467,2.6956,2.5031,2.8762-.1902.2393-2.9482-1.8426-2.7792-2.3205.0265-.075.1216-.075.1363-.1635.0402-.2422-.5956-.5192-1.1887-.9449-.9133-.6556-1.4912-1.4962-1.4542-1.5391Z"/>
    <path class="cls-14" d="M817.9998,669.9478c.7014.0042.676-2.7033,2.0849-5.9017.8255-1.874,1.5778-2.6325,1.5223-2.6769-.15-.1202-5.4562,5.5819-4.1631,8.0561.0398.0762.2722.5208.5559.5225Z"/>
    <path class="cls-14" d="M815.2085,659.7363c-.6134.4322-.5645,1.668-.2468,1.8666.0546.0342.1271.0438.1898.022.3687-.1282-.061-1.1846.3815-1.5837.3817-.3443,1.2446-.076,1.2688-.1688.0003-.001.0001-.0021-.0004-.0034-.0558-.1404-1.0242-.5334-1.5928-.1327Z"/>
    <ellipse class="cls-14" cx="816.5493" cy="660.6497" rx=".1535" ry=".0851" transform="translate(-183.8264 980.7422) rotate(-56.7187)"/>
    <path class="cls-16" d="M817.5593,668.5131c.0372-.0145.1546.4055.3772.4325.2226.027.3827-.3594.4179-.3361.0483.032-.1724.8099-.4413.7773s-.4048-.8538-.3538-.8737Z"/>
    <path class="cls-16" d="M814.854,661.1653c.0182-.0044.079.1428.1883.156s.1849-.1173.2024-.1087c.0239.0119-.0783.2766-.2104.2606s-.2051-.302-.1803-.308Z"/>
    <path class="cls-16" d="M814.2473,669.6416c.0542-.0356.3091.5912.7741.7444.0701.0231.2253.0619.2618.1719.0289.0871-.0392.151.0005.2226.0387.0699.1277.0525.2349.1042.136.0655.1962.1914.2519.2795.2435.3854.7145.5483.7036.5702-.0094.019-.3529-.12-.7234-.4077-.018-.014-.0672-.0604-.1403-.1186-.1187-.0946-.1992-.1447-.2686-.1933-.1098-.0769-.1811-.1431-.3236-.2756-.3002-.2791-.542-.5081-.7038-.8651-.0147-.0324-.0966-.2132-.0671-.2326Z"/>
    <path class="cls-16" d="M818.1543,667.0466c-.0129-.0081.0028-.0953.0199-.1805.1153-.5733.2215-1.1018.587-1.6862.2178-.3482.5034-.6777.5394-.6474.0417.0351-.2976.5153-.6936,1.4394-.2415.5637-.4197,1.0955-.4528,1.0747Z"/>
    <path class="cls-14" d="M824.7779,654.9728c.0597.0549-.5944,1.2535-1.8483,2.2158-1.7238,1.323-3.7283,1.5449-3.7657,1.4688-.033-.0671,1.4769-.3405,3.2076-1.5195,1.5716-1.0707,2.3456-2.2209,2.4064-2.1651Z"/>
    <path class="cls-15" d="M813.5625,663.9257c.0835.6374-1.5316,1.5389-3.1105,1.5041-.9356-.0206-1.7253-.3667-1.7156-.4781.0144-.1652,1.7591.5276,3.1889-.3523.644-.3964,1.2201-1.1064,1.5156-.9093.0995.0664.118.2081.1216.2355Z"/>
    <path class="cls-14" d="M813.1698,664.2965c.0669.5112-1.2283,1.2342-2.4945,1.2062-.7503-.0166-1.3836-.2941-1.3758-.3834.0115-.1325,1.4108.4231,2.5574-.2825.5165-.3179.9784-.8873,1.2155-.7292.0798.0532.0947.1669.0975.1889Z"/>
    <path class="cls-16" d="M813.2912,664.2635c-.0155-.0124.0521-.148-.012-.2456s-.2116-.0834-.2169-.1028c-.0074-.0266.2572-.097.3346.0209s-.0845.3444-.1057.3275Z"/>
    <path class="cls-16" d="M812.3621,667.8054c.0133-.0111.116.1356.3294.3248.2877.2549.5039.3454.4957.3647-.0091.0213-.2892-.0529-.5306-.2724-.1985-.1805-.3101-.4041-.2945-.4171Z"/>
    <path class="cls-2" d="M809.8075,666.7996c.1238-.1486,1.6689,1.0888,3.4511,2.7639,1.7822,1.675,3.1266,3.1534,3.0028,3.302s-1.6689-1.0888-3.4511-2.7639c-1.7822-1.675-3.1266-3.1534-3.0028-3.302Z"/>
    <path class="cls-14" d="M809.2958,666.0913c.0086.0329-.4647-.326-.5357-.2426-.071.0834.3139.5462.2822.5405-.0434-.0078-.8375-.8893-.7518-.99s.9934.6471,1.0052.6921Z"/>
    <path class="cls-14" d="M816.0555,672.3261c-.0513-.013.6399.7562.5417.8765-.0982.1204-.9117-.4988-.8924-.4466.0265.0715,1.5971,1.3516,1.7157,1.2062.1186-.1454-1.2947-1.6183-1.365-1.6361Z"/>
    <path class="cls-14" d="M815.0101,672.2753c-.0274.0369-1.8517-1.3046-3.7239-3.3214-.5443-.5864-1.1144-1.2533-1.0946-1.2738.0234-.0241.8462.8613,2.01,1.998,1.7933,1.7514,2.8294,2.5691,2.8085,2.5973Z"/>
  </g>
  <g>
    <path class="cls-9" d="M818.3491,632.0007c.0134-.0315,2.307-5.398,2.3202-5.4289.0038-.0089,1.3652-3.1945,1.3671-3.1988.0182-.0426,2.2275-5.212,2.2454-5.2537-2.9735,2.8063-4.9783,3.7607-6.296,4.0856-.3755.0926-1.9653.4472-2.0959,1.36-.0568.3973.2032.617.1778.9426-.0438.5619-.9161,1.1625-4.0327,1.5588,2.1047,1.9781,4.2093,3.9562,6.314,5.9344Z"/>
    <path class="cls-8" d="M812.0251,626.0715c.1212-.1454,1.6336,1.0658,3.378,2.7053,1.7444,1.6395,3.0604,3.0866,2.9392,3.232s-1.6336-1.0658-3.378-2.7053c-1.7444-1.6395-3.0604-3.0866-2.9392-3.232Z"/>
    <path class="cls-15" d="M816.7913,622.9053c-.5407.3598-.4439,1.4746-.1461,1.6685.0512.0333.1176.0455.1738.0289.3305-.0978-.1056-1.0693.2808-1.4075.3333-.2917,1.1309-.0091,1.149-.0915.0002-.0009,0-.0019-.0005-.0031-.0568-.129-.9557-.5289-1.457-.1953Z"/>
    <ellipse class="cls-15" cx="817.624" cy="623.5333" rx=".155" ry=".0868" transform="translate(-178.1347 879.985) rotate(-51.7721)"/>
    <path class="cls-15" d="M818.5392,629.9353c.5601.0034.5399-2.159,1.6651-4.7134.6593-1.4967,1.2601-2.1024,1.2158-2.1379-.1198-.096-4.3576,4.458-3.3249,6.434.0318.0609.2174.4159.444.4173Z"/>
    <path class="cls-17" d="M814.2402,627.1769c.0147-.0171.1815.1254.3882.2944.803.6565,1.1821.8749,1.5908,1.1932.9903.7713,1.8823,1.917,1.7802,2.0455-.1352.1702-2.0967-1.3104-1.9765-1.6503.0189-.0533.0865-.0534.0969-.1163.0286-.1723-.4236-.3692-.8454-.672-.6495-.4663-1.0605-1.064-1.0342-1.0946Z"/>
    <path class="cls-14" d="M814.5462,627.4647c.0128-.0149.1587.1097.3396.2575.7024.5742,1.034.7653,1.3915,1.0437.8662.6746,1.6464,1.6768,1.5571,1.7892-.1183.1489-1.834-1.1462-1.7289-1.4435.0165-.0467.0756-.0467.0848-.1017.025-.1507-.3705-.323-.7395-.5878-.5682-.4079-.9276-.9307-.9046-.9574Z"/>
    <path class="cls-14" d="M818.5504,629.2884c.4363.0026.4205-1.6817,1.297-3.6713.5135-1.1658.9815-1.6376.947-1.6652-.0933-.0748-3.3941,3.4723-2.5898,5.0115.0248.0474.1693.324.3458.325Z"/>
    <path class="cls-14" d="M816.814,622.9361c-.3816.2689-.3511,1.0376-.1535,1.1611.034.0212.079.0273.1181.0137.2293-.0797-.038-.7369.2373-.9852.2375-.2142.7742-.0473.7893-.105.0002-.0006,0-.0013-.0002-.0021-.0347-.0873-.6371-.3318-.9908-.0826Z"/>
    <ellipse class="cls-14" cx="817.6481" cy="623.5044" rx=".0955" ry=".0529" transform="translate(-152.2776 964.899) rotate(-56.7187)"/>
    <path class="cls-16" d="M818.2764,628.396c.0232-.009.0962.2522.2346.269s.2381-.2236.26-.2091c.03.0199-.1072.5038-.2745.4835s-.2518-.5311-.2201-.5435Z"/>
    <path class="cls-16" d="M816.5935,623.8251c.0113-.0027.0491.0888.1172.0971s.115-.073.1259-.0676c.0149.0074-.0487.1721-.1309.1621s-.1276-.1879-.1121-.1916Z"/>
    <path class="cls-16" d="M816.2161,629.098c.0337-.0222.1923.3677.4815.4631.0436.0144.1402.0385.1628.1069.018.0542-.0244.0939.0003.1385.0241.0435.0794.0327.1461.0648.0846.0408.1221.1191.1567.1739.1514.2398.4445.3411.4377.3547-.0058.0118-.2195-.0746-.45-.2536-.0112-.0087-.0418-.0376-.0873-.0738-.0739-.0589-.1239-.09-.1671-.1202-.0683-.0478-.1126-.089-.2013-.1715-.1868-.1736-.3372-.3161-.4378-.5381-.0091-.0201-.0601-.1326-.0417-.1447Z"/>
    <path class="cls-16" d="M818.6465,627.4837c-.008-.005.0017-.0593.0124-.1123.0717-.3566.1378-.6854.3652-1.0489.1355-.2166.3132-.4216.3355-.4027.026.0218-.1851.3206-.4314.8954-.1502.3506-.2611.6815-.2817.6685Z"/>
    <path class="cls-14" d="M822.7669,619.9729c.0371.0342-.3697.7797-1.1498,1.3784-1.0723.823-2.3193.9611-2.3425.9137-.0205-.0418.9188-.2118,1.9953-.9453.9777-.6661,1.4592-1.3816,1.4969-1.3468Z"/>
    <path class="cls-15" d="M815.7901,625.5422c.0519.3965-.9528.9573-1.9349.9356-.582-.0128-1.0732-.2281-1.0672-.2974.0089-.1028,1.0943.3282,1.9837-.2192.4006-.2466.759-.6883.9428-.5656.0619.0413.0734.1295.0757.1465Z"/>
    <path class="cls-14" d="M815.5458,625.7729c.0416.318-.7641.7677-1.5518.7504-.4668-.0103-.8607-.1829-.8559-.2385.0072-.0824.8776.2632,1.5909-.1758.3213-.1977.6087-.552.7561-.4536.0496.0331.0589.1038.0607.1175Z"/>
    <path class="cls-16" d="M815.6213,625.7524c-.0096-.0077.0324-.0921-.0074-.1528s-.1316-.0519-.135-.064c-.0046-.0165.16-.0603.2081.013s-.0526.2143-.0657.2037Z"/>
    <path class="cls-16" d="M815.0434,627.9557c.0083-.0069.0721.0844.2049.202.1789.1586.3135.2149.3083.2269-.0057.0133-.1799-.0329-.3301-.1694-.1235-.1123-.1929-.2514-.1832-.2595Z"/>
    <path class="cls-2" d="M813.4542,627.33c.077-.0924,1.0382.6773,2.1469,1.7193,1.1087,1.042,1.945,1.9616,1.868,2.0541s-1.0382-.6773-2.1468-1.7193c-1.1087-1.042-1.945-1.9616-1.868-2.0541Z"/>
    <path class="cls-14" d="M813.1359,626.8894c.0053.0204-.2891-.2028-.3332-.1509-.0441.0519.1953.3398.1756.3362-.027-.0049-.521-.5532-.4677-.6159s.618.4026.6253.4306Z"/>
    <path class="cls-14" d="M817.3409,630.7679c-.0319-.0081.3981.4704.337.5452-.0611.0749-.5672-.3103-.5552-.2778.0165.0445.9935.8408,1.0673.7504s-.8054-1.0067-.8491-1.0177Z"/>
    <path class="cls-14" d="M816.6906,630.7363c-.0171.0229-1.1519-.8115-2.3165-2.0662-.3386-.3648-.6933-.7796-.6809-.7924.0145-.015.5264.5358,1.2504,1.2429,1.1156,1.0895,1.7601,1.5982,1.7471,1.6157Z"/>
  </g>
  <g>
    <path class="cls-9" d="M801.8048,612.1033c-.0218-.0264-3.7447-4.5209-3.7661-4.5467-.0062-.0074-2.2161-2.6754-2.219-2.679-.0296-.0357-3.6157-4.365-3.6447-4.4,3.6479,1.8466,5.8412,2.1925,7.1969,2.1298.3863-.0178,2.0114-.1293,2.3958.709.1673.3648-.0197.6493.0971.9543.2016.5264,1.2084.8545,4.3093.3497-1.4564,2.4943-2.9128,4.9886-4.3692,7.4828Z"/>
    <path class="cls-8" d="M806.1851,604.6225c-.1575-.1051-1.2637,1.4857-2.4709,3.5531-1.2071,2.0674-2.058,3.8285-1.9006,3.9335s1.2637-1.4857,2.4709-3.5531c1.2071-2.0674,2.0581-3.8285,1.9006-3.9335Z"/>
    <path class="cls-15" d="M800.716,602.9399c.6206.1915.8443,1.2879.6138,1.5584-.0396.0465-.0999.077-.1585.077-.3447,0-.2023-1.0553-.6688-1.2698-.4024-.1851-1.0869.3123-1.1277.2385-.0004-.0008-.0006-.0018-.0004-.0031.0178-.1399.7662-.7785,1.3415-.601Z"/>
    <ellipse class="cls-15" cx="800.0959" cy="603.7784" rx=".0868" ry=".155" transform="translate(-154.8915 908.2466) rotate(-54.7227)"/>
    <path class="cls-15" d="M801.036,610.1769c-.5361.1623-1.1307-1.9169-2.9349-4.0466-1.0571-1.2479-1.8052-1.6581-1.7728-1.7048.0876-.126,5.444,3.0373,5.0149,5.2252-.0132.0674-.0903.4605-.3072.5262Z"/>
    <path class="cls-17" d="M804.3749,606.3113c-.0189-.0122-.1384.1718-.2887.3925-.5835.8574-.8851,1.1746-1.1866,1.5958-.7305,1.0207-1.2605,2.3725-1.1261,2.4668.178.1248,1.6384-1.8518,1.4266-2.1435-.0332-.0458-.0981-.0266-.1259-.084-.0763-.1571.3013-.4743.6198-.8844.4904-.6315.7147-1.3213.6809-1.3432Z"/>
    <path class="cls-14" d="M804.1633,606.6742c-.0165-.0107-.1211.1502-.2525.3434-.5104.75-.7742,1.0274-1.0379,1.3959-.639.8928-1.1026,2.0753-.985,2.1577.1557.1092,1.4331-1.6198,1.2479-1.875-.0291-.04-.0858-.0233-.1102-.0735-.0668-.1374.2636-.4149.5421-.7736.429-.5524.6252-1.1558.5956-1.1749Z"/>
    <path class="cls-14" d="M800.8416,609.5598c-.4176.1264-.8807-1.4931-2.286-3.1519-.8234-.972-1.406-1.2915-1.3808-1.3278.0682-.0982,4.2404,2.3658,3.9061,4.0699-.0103.0525-.0704.3587-.2393.4098Z"/>
    <path class="cls-14" d="M800.703,602.9759c.4422.1495.6313.8952.4769,1.0698-.0265.03-.0681.0486-.1093.0467-.2425-.0113-.1728-.7173-.5073-.8772-.2885-.1379-.7558.1745-.7866.1234-.0003-.0005-.0005-.0013-.0004-.0021.0085-.0936.5167-.499.9266-.3605Z"/>
    <ellipse class="cls-14" cx="800.0646" cy="603.7575" rx=".0529" ry=".0955" transform="translate(-177.5834 824.7349) rotate(-49.776)"/>
    <path class="cls-16" d="M800.851,608.6262c-.0248-.0021-.0206.2692-.1486.3246s-.2917-.1468-.3086-.1266c-.0231.0276.2459.4526.4005.3857s.0907-.5807.0567-.5836Z"/>
    <path class="cls-16" d="M801.1668,603.7656c-.0116.0006-.0219.0991-.0848.1263s-.131-.0373-.1399-.0291c-.0122.0113.0955.1512.1715.1183s.069-.2164.0531-.2156Z"/>
    <path class="cls-16" d="M803.0258,608.7144c-.0386-.0117-.0799.4072-.3302.5807-.0378.0262-.1235.0767-.1258.1487-.0018.057.05.0831.039.1329-.0108.0485-.0669.0539-.1217.1036-.0695.0631-.0832.1488-.1009.2112-.0771.2729-.3293.4532-.319.4644.009.0097.1893-.1339.3595-.3709.0083-.0115.0294-.0479.0627-.0955.0541-.0774.0932-.1215.126-.1627.0519-.0652.0827-.1174.1443-.2216.1298-.2195.2336-.3988.267-.6403.003-.0219.02-.1442-.0011-.1506Z"/>
    <path class="cls-16" d="M800.2371,607.8565c.0063-.0071-.0185-.0564-.0438-.1042-.17-.3216-.3267-.618-.648-.9021-.1914-.1692-.42-.3153-.4361-.2909-.0187.0283.2685.2548.6679.7361.2436.2936.4438.5793.4599.561Z"/>
    <path class="cls-14" d="M794.1538,601.8248c-.0259.0433.5759.6427,1.4938.9952,1.2619.4847,2.4967.263,2.5055.211.0078-.0459-.9411.0578-2.1816-.3398-1.1265-.3611-1.7914-.9104-1.8177-.8664Z"/>
    <path class="cls-15" d="M802.4248,605.184c.0628.3949,1.1854.6474,2.121.3478.5544-.1776.9643-.5234.9389-.5882-.0378-.096-.9561.6254-1.9643.3531-.4541-.1227-.9232-.4445-1.0646-.2747-.0476.0572-.0336.145-.0309.162Z"/>
    <path class="cls-14" d="M802.7245,605.3358c.0504.3167.9506.5192,1.7009.2789.4446-.1424.7733-.4198.7529-.4717-.0303-.077-.7668.5016-1.5753.2832-.3642-.0984-.7403-.3564-.8538-.2203-.0382.0458-.027.1163-.0248.1299Z"/>
    <path class="cls-16" d="M802.6462,605.3376c.0071-.0101-.0572-.0791-.0362-.1486s.1115-.0871.1112-.0996c-.0003-.0172-.1705-.0124-.1959.0715s.1112.1905.1209.1767Z"/>
    <path class="cls-16" d="M803.826,607.2861c-.0099-.0043-.0452.1014-.1391.2519-.1265.2029-.2396.295-.2312.3051.0092.0111.1632-.0826.2684-.2562.0865-.1428.1136-.2958.102-.3008Z"/>
    <path class="cls-2" d="M805.1721,606.235c-.1001-.0668-.8032.9442-1.5703,2.2581-.7672,1.3139-1.308,2.4331-1.2079,2.4999s.8031-.9442,1.5703-2.2581c.7672-1.3139,1.308-2.4331,1.2079-2.4999Z"/>
    <path class="cls-14" d="M805.3522,605.7222c.0007.0211.2196-.2765.2767-.2393.0571.0372-.0908.3812-.0729.3722.0245-.0123.3425-.6784.2736-.7233s-.4783.5614-.4773.5904Z"/>
    <path class="cls-14" d="M802.4215,610.6349c.0283-.0168-.2481.564-.1683.6185.0798.0545.4557-.4585.4534-.424-.0032.0473-.7139,1.0883-.8103,1.0225s.4864-1.1939.5252-1.2169Z"/>
    <path class="cls-14" d="M803.036,610.42c.0229.0171.8741-1.1052,1.6346-2.6389.2211-.4459.4434-.9444.4279-.9531-.0182-.0102-.3526.6632-.846,1.5467-.7603,1.3614-1.2339,2.0322-1.2164,2.0452Z"/>
  </g>
  <g>
    <path class="cls-9" d="M806.2949,655.0092c-.0216-.0506-3.7086-8.6775-3.7298-8.7271-.0061-.0143-2.1947-5.1352-2.1976-5.1422-.0293-.0685-3.5808-8.3784-3.6095-8.4455,4.7799,4.5113,8.0028,6.0454,10.121,6.5677.6036.1488,3.1593.7188,3.3692,2.1863.0913.6386-.3267.9918-.2859,1.5153.0705.9033,1.4726,1.8687,6.4827,2.5059-3.3833,3.1799-6.7667,6.3598-10.15,9.5397Z"/>
    <path class="cls-8" d="M816.4609,645.4779c-.1948-.2338-2.626,1.7132-5.4303,4.3489-2.8043,2.6356-4.9196,4.9618-4.7248,5.1956.1948.2338,2.626-1.7133,5.4302-4.3489,2.8043-2.6356,4.9196-4.9618,4.7248-5.1956Z"/>
    <path class="cls-15" d="M808.799,640.3881c.8691.5785.7136,2.3705.2349,2.6822-.0823.0536-.1891.0732-.2795.0464-.5313-.1573.1698-1.7189-.4513-2.2625-.5358-.469-1.8179-.0147-1.847-.1471-.0003-.0014,0-.0031.0008-.005.0913-.2074,1.5364-.8502,2.3421-.314Z"/>
    <ellipse class="cls-15" cx="807.4605" cy="641.3976" rx=".1396" ry=".2491" transform="translate(-223.7357 637.194) rotate(-38.2279)"/>
    <path class="cls-15" d="M805.9892,651.689c-.9004.0054-.8679-3.4707-2.6767-7.5769-1.0598-2.4059-2.0256-3.3797-1.9544-3.4368.1925-.1543,7.005,7.1664,5.3449,10.3429-.0511.0979-.3494.6686-.7137.6708Z"/>
    <path class="cls-17" d="M812.9,647.2548c-.0236-.0274-.2917.2016-.6241.4733-1.2908,1.0553-1.9003,1.4065-2.5573,1.9182-1.5919,1.2398-3.0258,3.0817-2.8617,3.2882.2174.2736,3.3705-2.1065,3.1773-2.6529-.0303-.0857-.139-.0858-.1558-.187-.046-.2769.6809-.5935,1.359-1.0803,1.0441-.7496,1.7048-1.7105,1.6625-1.7596Z"/>
    <path class="cls-14" d="M812.4082,647.7175c-.0206-.024-.2552.1763-.5459.414-1.1291.9231-1.6622,1.2303-2.2369,1.6778-1.3924,1.0845-2.6467,2.6956-2.5031,2.8762.1902.2393,2.9482-1.8426,2.7792-2.3205-.0265-.075-.1216-.075-.1363-.1635-.0402-.2422.5956-.5192,1.1887-.9449.9133-.6556,1.4912-1.4962,1.4542-1.5391Z"/>
    <path class="cls-14" d="M805.9712,650.6491c-.7014.0042-.676-2.7033-2.0849-5.9017-.8255-1.874-1.5778-2.6325-1.5223-2.6769.15-.1202,5.4562,5.5819,4.1631,8.0561-.0398.0762-.2722.5208-.5559.5225Z"/>
    <path class="cls-14" d="M808.7626,640.4376c.6134.4322.5645,1.668.2468,1.8666-.0546.0342-.1271.0438-.1898.022-.3687-.1282.061-1.1846-.3815-1.5837-.3817-.3443-1.2446-.076-1.2688-.1688-.0003-.001-.0001-.0021.0004-.0034.0558-.1404,1.0242-.5334,1.5928-.1327Z"/>
    <ellipse class="cls-14" cx="807.4217" cy="641.351" rx=".0851" ry=".1535" transform="translate(-219.5133 548.2631) rotate(-33.2813)"/>
    <path class="cls-16" d="M806.4118,649.2145c-.0372-.0145-.1546.4055-.3772.4325s-.3827-.3594-.4179-.3361c-.0483.032.1724.8099.4413.7773.2689-.0326.4048-.8538.3538-.8737Z"/>
    <path class="cls-16" d="M809.117,641.8667c-.0182-.0044-.079.1428-.1883.156s-.1849-.1173-.2024-.1087c-.0239.0119.0783.2766.2104.2606s.2051-.302.1803-.308Z"/>
    <path class="cls-16" d="M809.7238,650.343c-.0542-.0356-.3091.5912-.7741.7444-.0701.0231-.2253.0619-.2618.1719-.0289.0871.0392.151-.0005.2226-.0387.0699-.1277.0525-.2349.1042-.136.0655-.1962.1914-.2519.2795-.2435.3854-.7145.5483-.7036.5702.0094.019.3529-.12.7234-.4077.018-.014.0672-.0604.1403-.1186.1187-.0946.1992-.1447.2686-.1933.1098-.0769.1811-.1431.3236-.2756.3002-.2791.542-.5081.7038-.8651.0147-.0324.0966-.2132.0671-.2326Z"/>
    <path class="cls-16" d="M805.8168,647.7479c.0129-.0081-.0028-.0953-.0199-.1805-.1153-.5733-.2215-1.1018-.587-1.6862-.2178-.3482-.5034-.6777-.5394-.6474-.0417.0351.2976.5153.6936,1.4394.2415.5637.4197,1.0955.4528,1.0747Z"/>
    <path class="cls-14" d="M799.1932,635.6741c-.0597.0549.5944,1.2535,1.8483,2.2158,1.7238,1.323,3.7283,1.5449,3.7657,1.4688.033-.0671-1.4769-.3405-3.2076-1.5195-1.5716-1.0707-2.3456-2.2209-2.4064-2.1651Z"/>
    <path class="cls-15" d="M810.4086,644.627c-.0835.6374,1.5316,1.5389,3.1105,1.5041.9356-.0206,1.7253-.3667,1.7156-.4781-.0144-.1652-1.7591.5276-3.1889-.3523-.644-.3964-1.2201-1.1064-1.5156-.9093-.0995.0664-.118.2081-.1216.2355Z"/>
    <path class="cls-14" d="M810.8013,644.9978c-.0669.5112,1.2283,1.2342,2.4945,1.2062.7503-.0166,1.3836-.2941,1.3758-.3834-.0115-.1325-1.4108.4231-2.5574-.2825-.5165-.3179-.9784-.8873-1.2155-.7292-.0798.0532-.0947.1669-.0975.1889Z"/>
    <path class="cls-16" d="M810.6799,644.9649c.0155-.0124-.0521-.148.012-.2456s.2116-.0834.2169-.1028c.0074-.0266-.2572-.097-.3346.0209s.0845.3444.1057.3275Z"/>
    <path class="cls-16" d="M811.6089,648.5067c-.0133-.0111-.116.1356-.3294.3248-.2877.2549-.5039.3454-.4957.3647.0091.0213.2892-.0529.5306-.2724.1985-.1805.3101-.4041.2945-.4171Z"/>
    <path class="cls-2" d="M814.1635,647.501c-.1238-.1486-1.6689,1.0888-3.4511,2.7639-1.7822,1.675-3.1266,3.1534-3.0028,3.302s1.6689-1.0888,3.4511-2.7639c1.7822-1.675,3.1266-3.1534,3.0028-3.302Z"/>
    <path class="cls-14" d="M814.6752,646.7927c-.0086.0329.4647-.326.5357-.2426.071.0834-.3139.5462-.2822.5405.0434-.0078.8375-.8893.7518-.99s-.9934.6471-1.0052.6921Z"/>
    <path class="cls-14" d="M807.9156,653.0274c.0513-.013-.6399.7562-.5417.8765.0982.1204.9117-.4988.8924-.4466-.0265.0715-1.5971,1.3516-1.7157,1.2062s1.2947-1.6183,1.365-1.6361Z"/>
    <path class="cls-14" d="M808.961,652.9767c.0274.0369,1.8517-1.3046,3.7239-3.3214.5443-.5864,1.1144-1.2533,1.0946-1.2738-.0234-.0241-.8462.8613-2.01,1.998-1.7933,1.7514-2.8294,2.5691-2.8085,2.5973Z"/>
  </g>
  <g>
    <path class="cls-18" d="M821.1583,557.1398c-5.7493,159.1899-4.4623,224.4684,0,240.4687.542,1.9441,3.4859,11.6045,0,14.5407-4.1808,3.5211-15.9066-4.0591-20.8172-8.7981-21.3307-20.5862,1.4323-71.0457,5.3725-124.182,1.5879-21.4114-.5167-39.6246-2.2048-53.4297-.6352-5.1953-1.5658-12.8053-3.4127-21.647-2.932-14.0365-8.9311-34.81-22.4929-58.9177"/>
    <path class="cls-11" d="M788.1231,562.86c4.1272,19.6091,9.5401,28.5056,14.0429,32.9209,1.0824,1.0612,3.547,3.2711,4.031,6.7186.9951,7.0882-7.1648,13.8723-6.1808,14.78.5706.5254,3.7622-1.3428,3.7622-1.3428,11.567-7.8851,17.1801-16.1477,20.1552-22.0365,7.088-14.0302,8.7185-33.4238,8.9253-34.4338-2.5223,2.2478-7.2959,5.9051-14.2858,7.9994-7.1265,2.1352-12.9585,1.5677-14.6235,1.3709-7.5937-.8979-13.0628-4.0831-15.8266-5.9768Z"/>
    <path class="cls-11" d="M859.1356,550.3425c4.8218.7106,12.1753,3.4704,17.7065,7.0593,3.2279,2.0944,5.4755,4.2386,10.1719,5.0416,4.9954.8536,8.7207-.4996,9.0419,0,.5776.899-10.4846,6.8056-24.488,8.8241-17.974,2.5914-41.0332-1.1885-42.5711-7.3113-1.4975-5.9633,17.0658-15.5408,30.1388-13.6138Z"/>
    <path class="cls-11" d="M762.2817,553.6684c-4.8218.7106-12.1753,3.4704-17.7065,7.0593-3.2279,2.0944-5.4755,4.2386-10.1719,5.0416-4.9954.8536-8.7207-.4996-9.0419,0-.5776.899,10.4846,6.8056,24.488,8.8241,17.974,2.5914,41.0332-1.1885,42.5711-7.3113,1.4975-5.9633-17.0658-15.5408-30.1388-13.6138Z"/>
    <path class="cls-7" d="M774.3632,486.5833s10.5513,6.045,21.2722,7.1368c9.2659.9436,8.4182-2.856,17.8223-1.7138,4.2554.5168,14.3035,1.7369,20.3928,7.7973.5917.5889,1.4069,1.4829,1.8125,1.2728,1.218-.6309-.2261-11.7279-6.5252-16.3533-9.0743-6.6635-25.0607,2.4254-27.7748-2.49-1.0006-1.8122,1.1733-3.3796.0856-5.4837-2.3252-4.4983-16.0393-4.8928-21.8937,1.4616-2.225,2.415-6.8741,11.1924-5.1918,8.3723Z"/>
    <path class="cls-6" d="M778.4585,535.8341c2.2209,19.8144,11.7222,27.6823,9.0001,29.8285-4.826,3.8049-30.3585-24.3418-38.9324-42.8523-1.7855-3.8547-3.566-8.8704-1.371-12.1102,2.4497-3.6158,7.4868-1.5298,11.4245-6.1692,2.6015-3.0652,2.2776-6.1843,5.4838-7.5401,1.9573-.8277,3.9373-.4516,4.3413-.3675.0004,0,2.4029.4997,4.4663,2.6639,7.5062,7.8732,3.7499,20.1532,5.5874,36.5468Z"/>
    <path class="cls-5" d="M764.8747,495.4231s-.1103-6.0265.9351-11.2303c1.2408-6.1767,2.9958-5.6489,3.0957-9.1699.192-6.7669-6.2761-9.2217-5.4949-14.1612.6792-4.2946,6.2391-6.6801,8.8577-7.8035,9.4475-4.0531,18.8536-.5923,25.9872,1.9999,6.3441,2.3052,17.4724,7.4654,16.8472,11.616-.3169,2.1038-3.2468,1.915-6.8174,6.3318-3.0824,3.8128-4.1519,7.9905-4.7822,7.7855-.4828-.1572.5461-2.4771-.5675-4.7152-.9829-1.9752-3.0653-2.8119-4.7983-3.3952-4.3739-1.4721-8.2728-.8106-8.9007-.6964-1.2484.2267-7.9834,1.5814-12.5734,7.5651-5.5346,7.2152-3.6485,15.549-7.7576,16.7771-1.5172.4535-3.0658-.3002-4.0308-.9036Z"/>
    <path class="cls-3" d="M828.4236,562.6801c.624.8985,6.7658-2.092,11.7225-5.3678,4.648-3.0717,8.7557-5.9048,11.2384-10.9775,1.6173-3.3046,1.7668-6.1464,1.9569-8.6728,1.0601-14.0851,1.1513-23.6421,5.4838-31.1888,4.9899-8.692,12.5094-13.1047,10.7962-18.9796-.63-2.1604-2.5981-4.8264-5.3124-6.2116-2.6666-1.3609-5.2622-1.0814-6.1692-1.0283-9.136.5349-16.0307-11.9765-25.5339-14.9089-13.6579-4.2144-31.752,11.5071-30.2741,15.9743,1.4395,4.3511,20.9867-3.3621,30.1893,7.0885,3.8616,4.3851,4.1721,10.0046,4.4882,15.7236.8871,16.0516-7.7633,18.9355-5.6029,31.646,1.4188,8.3477,5.7977,11.7356,3.5619,18.0088-1.9373,5.436-7.1209,8.0644-6.5447,8.8941Z"/>
    <path class="cls-6" d="M843.3652,555.3243c5.3296-3.5192,17.5486-11.0771,21.5771-24.8027,1.6965-5.7804,1.0091-9.309,4.4556-12.5096,5.9334-5.5101,15.4428-1.774,16.7941-5.3124,1.0944-2.8657-4.3193-7.4722-6.8547-9.2539-2.1401-1.504-7.0499-5.115-12.3385-4.1131-7.2026,1.3644-10.6977,10.3975-11.8244,13.3098-5.8197,15.0423,1.1679,21.549-3.7701,32.2171-6.4071,13.842-25.6233,17.3633-25.3164,18.0185.2057.4389,8.5362-1.782,17.2773-7.5537Z"/>
    <path class="cls-4" d="M831.9863,533.0733c-.1655,9.8428,4.6065,11.4324,3.1988,18.5078-2.1985,11.0498-16.3691,19.8965-29.7627,20.4857-2.0019.088-17.1152.5408-24.8466-9.5183-4.8386-6.2954-1.641-10.0141-5.3142-30.7712-2.2229-12.5618-3.9847-14.5376-4.2824-23.838-.0996-3.1126-.6654-20.7853,5.2553-22.6206,3.889-1.2056,6.5498,5.6701,15.5374,7.5401,5.574,1.1599,8.4738-.6686,13.6505-1.3709,13.8448-1.8786,32.0337,5.9167,34.561,15.9945,2.0481,8.1666-7.7612,11.5595-7.9972,25.5909Z"/>
    <path class="cls-5" d="M763.0141,494.9402c1.1404-3.5847,1.1561-2.8145,2.1277-5.9685,1.979-6.4234,3.155-10.2411,2.6706-14.4244-.5088-4.3931-3.1151-11.4893-7.8445-12.6178-7.5777-1.808-18.5805,12.1875-16.0216,19.3904,1.0485,2.9514,3.1568,2.6672,5.1871,5.9345,5.871,9.448-4.0545,25.8977-2.6277,26.5363.677.3029,2.1023-3.7631,6.5121-5.5409,2.7063-1.0912,3.4199-.0637,5.1982-1.1424,2.5655-1.5561,2.3474-4.4631,4.7982-12.1671Z"/>
    <path class="cls-13" d="M760.7058,491.1009c.6133-1.928.6218-1.5138,1.1444-3.2102,1.0644-3.4549,1.6969-5.5082,1.4364-7.7582-.2736-2.3629-1.6755-6.1795-4.2192-6.7865-4.0757-.9725-9.9935,6.5551-8.6173,10.4291.5639,1.5874,1.6979,1.4345,2.7899,3.1919,3.1577,5.0816-2.1807,13.9291-1.4133,14.2726.3641.1629,1.1307-2.024,3.5025-2.9802,1.4556-.5869,1.8394-.0343,2.7958-.6145,1.3799-.837,1.2626-2.4005,2.5807-6.5441Z"/>
    <path class="cls-13" d="M826.0177,535.0317c-.1316,8.5277,3.6627,9.9049,2.5435,16.035-1.7481,9.5735-13.0154,17.2382-23.6649,17.7486-1.5917.0763-13.6086.4686-19.756-8.2465-3.8473-5.4543-1.3048-8.6761-4.2254-26.6599-1.7675-10.8834-3.1683-12.5952-3.4051-20.653-.0792-2.6967-.5291-18.0082,4.1786-19.5983,3.0923-1.0445,5.2079,4.9125,12.3541,6.5327,4.432,1.0049,6.7377-.5792,10.8538-1.1878,11.0083-1.6276,25.4706,5.1262,27.4802,13.8575,1.6285,7.0755-6.1711,10.0151-6.3587,22.1718Z"/>
    <path class="cls-12" d="M813.6691,534.4873c-.9512-1.2322,4.9002-5.9762,3.4521-8.6408-.974-1.7922-4.3283-.947-4.6703-2.1507-.5039-1.774,5.7798-7.1318,9.5582-5.1558,2.9759,1.5563,3.5215,6.3879,1.2185,10.7917-2.4652,4.7139-8.7187,6.2434-9.5585,5.1556Z"/>
    <circle class="cls-12" cx="808.7666" cy="527.0974" r="1.5395"/>
    <path class="cls-13" d="M807.9697,464.6343c.0088-.0178-18.1023-13.3163-27.4189-7.2239-5.9509,3.8914-5.5098,13.861-6.547,13.7096-1.1004-.1606-3.0299-11.5904,2.2057-15.9035,8.6568-7.1314,31.7503,9.4376,31.7602,9.4178Z"/>
    <path class="cls-13" d="M810.5315,477.2077c.9215,2.4912,6.2697,2.3412,6.2279,2.7249-.0483.4436-7.2799,1.4675-8.5041-1.3164-1.2902-2.9341,5.1699-7.6469,5.3493-7.4908.1483.1289-3.9963,3.5864-3.0731,6.0823Z"/>
    <path class="cls-13" d="M875.3821,509.0434c.7974-2.5337-3.5222-5.6908-3.2541-5.9685.3099-.321,6.6534,3.2988,5.916,6.2492-.7772,3.1096-8.7703,2.8783-8.8165,2.645-.0383-.1927,5.3556-.3873,6.1546-2.9257Z"/>
    <path class="cls-13" d="M824.653,469.8347c2.6886-3.1239,11.5401-1.4418,16.1338,3.5417,2.8105,3.0492,1.4713,4.5612,3.9986,7.111,5.5454,5.5951,15.0736,1.4237,17.0226,5.5702.5849,1.2447-.029,3.3432-1.2568,7.5401-.1965.6718-1.4593,4.9192-2.1706,4.7982-.9136-.1553,1.0783-7.1783-2.2849-9.9883-1.0649-.8897-1.7481-.5897-4.9126-1.1534-4.2286-.7533-9.766-1.7399-12.2243-5.3095-1.9081-2.7706-.2721-4.6453-2.0565-6.1404-3.2153-2.6941-9.5811,2.5098-12.2494,0-1.4135-1.3294-1.3457-4.4062,0-5.9697Z"/>
    <path class="cls-13" d="M841.2808,521.1881h0c.101-.1568.1951-.1695.1956-.1695.0684-.0092.1323.0477.1774.0969.4513.4931.5488.9543.5488.9548.2761,1.3072,1.1836,2.0949,1.4691,5.1826.4037,4.3665-1.112,5.9964-1.1955,11.6431-.0429,2.9004.3367,4.6951-.2898,4.9126-.8268.2872-2.5113-2.484-2.9703-3.3132-1.0945-1.9773-3.3547-7.6074,2.0646-19.3074Z"/>
    <path class="cls-13" d="M767.9213,546.8093c-4.0945-2.8242-6.5567-6.6176-9.1312-11.9881-1.3045-2.7214-5.3358-11.1307-3.7701-12.1751.6798-.4534,1.6081,1.0189,3.7701,1.0283,3.1018.0136,4.3855-3.0032,6.0732-2.6568,1.783.366,2.2124,4.1155,3.0581,8.826,2.1369,11.9033,4.66,17.288,2.9978,18.1652-.2227.1174-.8121.3079-2.9978-1.1996Z"/>
    <path class="cls-12" d="M766.8208,500.3986c2.6042-.5386,5.48,4.5031,5.4444,4.8344-.0365.3399-3.1341-4.3056-5.7939-3.1997-2.1445.8917-2.8096,5.0255-2.887,4.8876-.0894-.1594.6234-5.9818,3.2365-6.5222Z"/>
    <path class="cls-12" d="M821.8894,499.1595c-.2398.3174-2.1404-1.5733-6.4094-2.6944-1.7506-.4596-3.0479-.5663-3.0577-.9243-.011-.3998,1.5887-.9608,3.0577-.9246,3.7683.0928,6.7314,4.1172,6.4094,4.5434Z"/>
    <path class="cls-10" d="M794.7157,789.6724c-2.4185-8.3336,3.5366-16.5544,4.6494-16.3086.9884.2182-2.3211,7.01.3267,16.3086,1.9695,6.9166,5.9243,10.6173,5.2142,11.0713-.8649.5529-8.1473-4.0317-10.1903-11.0713Z"/>
    <path class="cls-1" d="M827.4531,570.3177c.541.0584,2.1023,10.1234-2.8001,19.3646-2.472,4.6599-6.2586,8.4905-10.9093,13.1954-2.6625,2.6936-4.8383,4.5896-4.977,4.4554-.2761-.267,8.9118-7.2242,14.2309-18.9135,4.4939-9.876,3.9625-18.1552,4.4556-18.1018Z"/>
    <path class="cls-1" d="M780.4982,570.468c.0494,1.7268-8.1977,3.8381-15.4232,3.7912-8.9662-.0581-15.5173-3.433-15.4232-3.7912.1334-.5079,14.0532,3.427,15.4227.4033.3329-.735-.3402-1.2971.0004-2.0309,1.3686-2.9478,15.3591-.6081,15.4232,1.6276Z"/>
    <ellipse class="cls-10" cx="740.5979" cy="569.5789" rx="2.1421" ry=".7385"/>
    <path class="cls-1" d="M797.0821,580.3779c.6013-3.4267,5.7424-5.3506,9.0825-5.8983,8.1957-1.344,15.8947,3.9015,15.7409,4.3057-.0827.2172-2.3076-1.2954-5.9728-1.4435-9.2123-.3725-15.164,8.374-17.9937,6.3621-1.2551-.8923-.8824-3.1805-.8568-3.326Z"/>
    <path class="cls-10" d="M811.2302,593.7379c0,2.3661-.7928,4.2844-1.7708,4.2844s-1.7709-1.9183-1.7709-4.2844.7928-4.2841,1.7709-4.2841,1.7708,1.918,1.7708,4.2841Z"/>
    <path class="cls-10" d="M766.1629,555.4254c-2.9027-.2571-5.2614.8376-5.3637.7524-.1147-.0956,2.664-1.637,5.5547-1.295,1.9273.228,3.14,1.2028,2.9877,1.2951-.1355.082-1.2678-.5832-3.1787-.7524Z"/>
    <path class="cls-1" d="M856.2102,552.8095c.0056.1935.4331.4193.6201.5014.2972.1304.5529.1449.5938.1479,1.0653.0788,2.3887,2.0923,2.389,2.0925,1.4276,2.1717,4.8756,3.1926,6.055,3.5417,3.3686.9972,6.6196.2762,6.6263,0,.0054-.2199-2.0553.1369-4.5698-.7999-4.9509-1.8445-5.7192-6.4907-9.1397-6.3977-1.0946.0296-2.5852.5483-2.5747.914Z"/>
    <path class="cls-1" d="M814.8639,621.9083c-.3145.0095-.4275,2.4765-.7094,6.3701-1.7632,24.3624-5.3731,38.8622-6.6726,51.7671-3.3426,33.194,8.3073,58.7488,8.0924,58.7986-.2304.0533-11.8364-29.7458-4.1985-60.9019,1.3073-5.3326,2.3751-7.4285,3.6395-14.333,4.0156-21.9282.7419-41.7272-.1514-41.7008Z"/>
    <path class="cls-1" d="M836.2094,566.2361c-.046.1758,5.8558,2.553,13.6694,3.5212,9.7788,1.2117,17.6547-.3904,17.6423-.5752-.011-.1646-6.27.8419-15.4409-.0045-9.3965-.8674-15.8229-3.1238-15.8707-2.9415Z"/>
    <ellipse class="cls-1" cx="812.4591" cy="773.0288" rx="1.8501" ry="1.9776"/>
  </g>
</svg>