<?xml version="1.0" encoding="UTF-8"?>
<svg id="Layer_1" data-name="Layer 1" xmlns="http://www.w3.org/2000/svg" viewBox="0 0 1621.4173 1264.252">
  <defs>
    <style>
      .cls-1 {
        fill: #dd905b;
      }

      .cls-2 {
        fill: #f8984b;
      }

      .cls-3 {
        fill: #c47337;
      }

      .cls-4 {
        fill: #f69320;
      }

      .cls-5 {
        fill: #ee8a22;
      }

      .cls-6 {
        fill: #72459b;
      }

      .cls-7 {
        fill: #f99f4c;
      }

      .cls-8 {
        fill: #d17d35;
      }
    </style>
  </defs>
  <ellipse class="cls-6" cx="835.0147" cy="311.0667" rx="28.6812" ry="7.9576"/>
  <ellipse class="cls-6" cx="1056.4738" cy="977.7703" rx="444.1833" ry="22.9566"/>
  <path class="cls-6" d="M312.0061,655.4231c32.8657-125.0838,117.6516-186.7935,110.7165-192.7828-8.3838-7.2404-143.1803,73.547-154.5597,192.7828-4.7569,49.8432,12.5119,101.5907,21.9219,101.2702,8.7946-.2997,7.3908-45.9691,21.9213-101.2702Z"/>
  <path class="cls-6" d="M127.1475,931.1459c-15.3996-2.7115-103.0555,33.611-82.8567,71.1907,11.5194,21.4319,53.1808,34.0855,66.9224,38.1379,111.1242,32.7697,277.2426,11.4035,277.2514,11.4414.0062.028-90.9202,12.9292-175.2736-5.085-11.181-2.3878-67.1161-14.9009-92.417-40.6804-36.7071-37.4018,20.763-72.4708,6.3735-75.0045Z"/>
  <g>
    <rect class="cls-4" x="10.693" y="852.845" width="1600.0314" height="233.5036" rx="111.9648" ry="111.9648"/>
    <path class="cls-4" d="M181.2754,868.1336c-24.1414-328.5177,253.8139-603.0804,579.4003-621.8216,352.7972-20.3075,686.5707,264.068,662.9798,621.8216"/>
    <path class="cls-8" d="M777.2591,178.079c-46.5323,2.4256-92.1209,30.074-107.0625,65.1767-6.8692,16.1382-3.9506,30.9967-3.5687,33.3462,3.4592,21.2872,17.2535,35.5256,26.7656,45.0932,20.9564,21.079,43.9823,31.5903,46.8398,32.9672,79.6484,38.3773,115.965,509.0446,131.5976,510.0455,11.4487.733,26.7653-136.4099,26.7658-136.4163,45.0037-406.1233,27.0358-485.2533-32.1189-524.4449-7.0139-4.6469-42.5635-28.1995-89.2187-25.7675Z"/>
  </g>
  <g>
    <path class="cls-3" d="M685.1329,281.96c-3.6917-.866-4.9805-4.4426-6.5859-8.9002-9.1206-25.3231,19.4336-50.1233,23.4395-53.6026,4.8282-4.1931,36.5206-30.7907,87.3863-29.4769,40.6483,1.0499,66.1497,19.2171,73.8831,24.9049,30.4609,22.4035,39.2468,53.9841,32.8733,56.6663-8.6383,3.6355-38.6298-48.5523-95.8537-50.7873-14.039-.5483-24.8973,2.0984-29.8353,3.3397-53.1702,13.3675-70.5906,61.3081-85.3072,57.856Z"/>
    <ellipse class="cls-3" cx="838.6596" cy="294.159" rx="26.5083" ry="7.3548"/>
    <ellipse class="cls-5" cx="1064.4501" cy="979.0052" rx="444.1833" ry="22.9566"/>
    <path class="cls-5" d="M319.9824,656.658c32.8657-125.0838,117.6516-186.7935,110.7165-192.7828-8.3838-7.2404-143.1803,73.547-154.5597,192.7828-4.7569,49.8432,12.5119,101.5907,21.9219,101.2702,8.7946-.2997,7.3908-45.9691,21.9213-101.2702Z"/>
    <path class="cls-5" d="M135.1238,932.3808c-15.3996-2.7115-103.0555,33.611-82.8567,71.1907,11.5194,21.4319,53.1808,34.0855,66.9224,38.1379,111.1242,32.7697,277.2426,11.4035,277.2514,11.4414.0062.028-90.9202,12.9292-175.2736-5.085-11.181-2.3878-67.1161-14.9009-92.417-40.6804-36.7071-37.4018,20.763-72.4708,6.3735-75.0045Z"/>
    <path class="cls-7" d="M108.0381,958.7659c-3.1337-3.0582-12.0605.5067-16.1431,2.7514-6.9125,3.8005-11.9107,10.3969-13.3298,15.9313-5.7681,22.4772,41.6416,50.089,43.5268,48.1739,1.3359-1.3549-22.552-15.0237-22.4022-36.4192.1082-15.4206,12.639-26.246,8.3483-30.4374Z"/>
    <path class="cls-2" d="M304.9383,636.4572c16.7061-63.5817,59.8038-94.9495,56.2786-97.9939-4.2616-3.6804-72.7804,37.3849-78.5647,97.9939-2.418,25.3359,6.36,51.6399,11.1432,51.4769,4.4704-.1523,3.7568-23.3667,11.1429-51.4769Z"/>
    <ellipse class="cls-1" cx="830.1288" cy="294.1189" rx="17.6177" ry="4.8881"/>
    <path class="cls-1" d="M708.602,248.8856c-2.9073-.4802-3.9111-2.5066-5.1614-5.0323-7.1033-14.3479,15.4919-28.5157,18.6618-30.5034,3.8206-2.3954,28.896-17.5934,68.9908-17.0053,32.0409.47,52.0823,10.7046,58.1594,13.9097,23.9367,12.6243,30.7547,30.5256,25.7211,32.0681-6.8223,2.0907-30.2869-27.4438-75.3909-28.5353-11.0656-.2677-19.6347,1.2685-23.5317,1.9885-41.9618,7.7537-55.8592,35.0241-67.449,33.1099Z"/>
    <ellipse class="cls-7" cx="1072.629" cy="979.6429" rx="367.9465" ry="9.5082"/>
  </g>
</svg>