<?xml version="1.0" encoding="UTF-8"?>
<svg id="Layer_1" data-name="Layer 1" xmlns="http://www.w3.org/2000/svg" viewBox="0 0 1621.4173 1264.252">
  <defs>
    <style>
      .cls-1 {
        fill: #ccb697;
      }

      .cls-2 {
        fill: #ca935c;
      }

      .cls-3 {
        fill: #ac7a36;
      }

      .cls-4 {
        fill: #e0d0be;
      }

      .cls-5 {
        fill: #b3b1b2;
      }
    </style>
  </defs>
  <rect class="cls-2" x="105.7541" y="454.6194" width="1409.9092" height="355.0131" rx="177.5064" ry="177.5064" transform="translate(-160.0372 970.4813) rotate(-57.1604)"/>
  <rect class="cls-1" x="520.4998" y="498.1347" width="561.9246" height="299.7268" rx="83.4478" ry="83.4478" transform="translate(-177.6051 969.9773) rotate(-57.1604)"/>
  <rect class="cls-4" x="541.1191" y="510.9031" width="526.8564" height="281.0217" rx="78.24" ry="78.24" transform="translate(-179.0629 974.1328) rotate(-57.1604)"/>
  <path class="cls-3" d="M383.3713,1026.6037c-9.6946,2.0125-26.7488,117.9348,41.9417,171.941,77.2185,60.7111,201.3003-5.1703,200.0259-13.7544-1.1082-7.4649-97.0707,28.0324-167.5063-22.601-65.4144-47.0239-65.7645-137.391-74.4614-135.5856Z"/>
  <path class="cls-3" d="M979.2644,83.4883c-2.1588-9.6631,96.4523-72.9457,173.9554-32.5933,87.1253,45.3622,78.1928,185.5652,69.8457,187.9391-7.2588,2.0645-14.4334-100.0011-89.5817-143.3327-69.7913-40.2427-152.2829-3.3446-154.2194-12.0131Z"/>
  <path class="cls-5" d="M886.3706,419.9126c2.2076-3.008,104.2559,33.4475,112.3977,108.7629,5.7945,53.6007-38.9163,99.6656-42.1546,98.0443-2.9558-1.4798,30.3821-41.8185,24.3161-91.449-8.9287-73.0524-96.6604-112.4952-94.5591-115.3581Z"/>
  <ellipse class="cls-5" cx="632.814" cy="736.2691" rx="63.2875" ry="15.6986" transform="translate(-328.9616 868.6831) rotate(-57.1604)"/>
</svg>