<?xml version="1.0" encoding="UTF-8"?>
<svg id="Layer_1" data-name="Layer 1" xmlns="http://www.w3.org/2000/svg" viewBox="0 0 2531.7963 2278.93">
  <defs>
    <style>
      .cls-1 {
        fill: #6e6f72;
      }

      .cls-2 {
        fill: #221510;
      }

      .cls-3 {
        fill: #808082;
      }

      .cls-4 {
        fill: #7fc948;
      }

      .cls-5 {
        fill: #595a5a;
      }

      .cls-6 {
        fill: #48782d;
      }

      .cls-7 {
        fill: #939393;
      }

      .cls-8 {
        fill: #7e8080;
      }

      .cls-9 {
        fill: #fff6eb;
      }

      .cls-10 {
        fill: #f9ecd1;
      }

      .cls-11 {
        fill: #53392a;
      }

      .cls-12 {
        fill: #f1dbbb;
      }

      .cls-13 {
        fill: #bee09a;
      }

      .cls-14 {
        fill: #a2d274;
      }

      .cls-15 {
        fill: #a8a9a9;
      }

      .cls-16 {
        fill: #161211;
      }

      .cls-17 {
        fill: #d3d4d3;
      }

      .cls-18 {
        fill: #3a2719;
      }

      .cls-19 {
        fill: #404554;
      }

      .cls-20 {
        fill: #8293a8;
      }

      .cls-21 {
        stroke: #9d9d9d;
        stroke-width: 12.4044px;
      }

      .cls-21, .cls-22 {
        fill: none;
        stroke-miterlimit: 10;
      }

      .cls-23 {
        fill: #ffcc8b;
      }

      .cls-24 {
        fill: #77829a;
      }

      .cls-25 {
        fill: #442d1f;
      }

      .cls-26 {
        fill: #232935;
      }

      .cls-22 {
        stroke: #909294;
        stroke-width: 7.1008px;
      }

      .cls-27 {
        fill: #3a3938;
      }

      .cls-28 {
        fill: #5b6573;
      }

      .cls-29 {
        fill: #acacac;
      }

      .cls-30 {
        fill: #f3e8d8;
      }

      .cls-31 {
        fill: #55a42f;
      }

      .cls-32 {
        fill: #f0d49f;
      }

      .cls-33 {
        fill: #fbfcff;
      }

      .cls-34 {
        fill: #636565;
      }

      .cls-35 {
        fill: #f1f2f3;
      }

      .cls-36 {
        fill: #6b4736;
      }

      .cls-37 {
        fill: #6d6f70;
      }

      .cls-38 {
        fill: #606c7e;
      }

      .cls-39 {
        fill: #555654;
      }
    </style>
  </defs>
  <g>
    <ellipse class="cls-13" cx="2014.3487" cy="1516.5218" rx="3.7587" ry="1.9381"/>
    <g>
      <g>
        <path class="cls-37" d="M634.8263,1546.9161c-.8892,0-1.7421-.3545-2.37-.9839-.6288-.6299-.9812-1.4849-.9786-2.375.0018-.6587.6696-295.1382,1.931-851.6025,0-.0669.0022-.1333.0064-.2002.798-12.8638,7.7884-78.9507,67.1936-116.7808,23.9618-15.2593,52.4969-23.3247,82.5206-23.3247,34.242,0,68.5895,10.6807,97.434,30.1895v-256.4365c0-.1167.006-.2334.0182-.3496,8.6022-81.8726,48.2148-157.5127,111.541-212.9858,62.2593-54.5391,141.1663-84.5752,222.1851-84.5752,7.7089,0,15.5133.2788,23.1964.8291,76.6206,5.4844,149.8407,38.2847,206.1722,92.3589,56.8892,54.6094,92.4286,127.1978,100.0712,204.3931.0109.1094.0162.2197.0162.3296v265.3647c13.9733-5.2891,38.2628-12.3574,68.2491-12.3574,21.6306,0,42.755,3.7192,62.786,11.0552,70.1111,25.6758,97.5614,84.0122,104.3048,101.2798.1516.3882.2292.8008.2292,1.2178v851.606c0,.8882-.3527,1.7397-.9806,2.3677-.6278.6279-1.4794.9805-2.3674.9805H634.8263Z"/>
        <path class="cls-1" d="M1214.3076,30.8393c7.6313,0,15.272.2701,22.9575.8203,155.7861,11.1514,287.4106,134.7612,303.1504,293.7422v270.292c7.647-3.1708,35.0649-13.9365,71.5972-13.9365,18.6436,0,39.6602,2.8036,61.6348,10.8511,72.6597,26.6092,98.52,89.5782,102.3374,99.3538v851.6054c-347.3721-.0002-632.6416-.0003-831.0781-.0003s-310.04,0-310.0811.0003c.0005-.0612.7559-333.1426,1.9312-851.6054.5088-8.2008,5.8936-76.1102,65.6504-114.1642,23.8965-15.2177,51.9971-22.801,80.7222-22.801,34.7974,0,70.5112,11.1274,100.7817,33.2916v-262.8868c17.8013-169.4288,166.5127-294.5625,330.3965-294.5625M1214.3076,24.143c-41.1206,0-81.7197,7.62-120.6699,22.6484-38.0444,14.679-72.9414,35.7933-103.7212,62.7563-63.9624,56.0309-103.9746,132.4408-112.665,215.1544-.0244.2324-.0366.4658-.0366.6996v250.2615c-28.2725-17.7162-61.2246-27.3625-94.0854-27.3625-30.6621,0-59.8188,8.2468-84.3188,23.849-60.7734,38.7014-67.9214,106.2498-68.7373,119.3978-.0078.133-.0122.2662-.0127.3994-1.1904,525.0884-1.9292,850.8826-1.9312,851.6018-.0044,1.7846.7031,3.498,1.9668,4.7584,1.2559,1.253,2.957,1.9567,4.73,1.9567.0107,0,.0215,0,.0322,0,.4189-.0002,109.2456-.0004,310.0483-.0004l630.1157.0002,200.9624.0002c1.7759,0,3.479-.7054,4.7349-1.9612,1.2559-1.2558,1.9614-2.959,1.9614-4.735v-851.6054c0-.8334-.1558-1.6594-.459-2.4358-3.3843-8.6676-11.3071-26.05-26.3354-45.0788-21.2729-26.936-48.1675-46.4926-79.9365-58.127-20.4009-7.4714-41.9126-11.2596-63.9375-11.2596-27.4712,0-50.2534,5.8366-64.9009,10.9298v-260.5891c0-.2203-.0107-.4404-.0327-.6598-3.9282-39.6782-14.9536-77.9404-32.769-113.7238-17.1978-34.5419-40.1826-65.749-68.3149-92.7544-56.8945-54.6145-130.853-87.743-208.252-93.2834-7.7627-.5555-15.6475-.8374-23.4355-.8374h0Z"/>
      </g>
      <path class="cls-8" d="M633.3959,1496.3842c.0005-.0561.7307-307.1651,1.867-785.1993.4921-7.5615,5.699-70.1756,63.4799-105.2623,51.0964-31.0277,122.0706-27.6332,175.5031,9.6728v-242.3878c18.0144-163.4916,174.6482-282.2376,341.6711-270.8369,150.6351,10.2815,277.9081,124.2528,293.1274,270.8369v249.2154c11.1675-4.4154,65.9426-24.8047,128.8268-2.8447,70.2572,24.5344,95.2626,82.593,98.9539,91.6066v785.1993H633.3959Z"/>
      <path class="cls-7" d="M1461.6079,373.3911c-7.2226,3.3651-21.2194-93.0409-107.8497-146.7062-59.3806-36.7847-119.8634-33.0304-118.4804-38.763,1.6369-6.7852,89.0237-23.0486,153.1076,19.2705,77.9114,51.4506,80.7757,162.6794,73.2225,166.1987Z"/>
      <ellipse class="cls-7" cx="1191.9842" cy="175.8551" rx="38.6046" ry="10.0085"/>
      <path class="cls-7" d="M940.4454,356.4763c16.3356-97.138,96.1121-152.8716,94.3668-154.4182-1.9043-1.6875-102.1595,59.998-126.5373,169.4309-12.3539,55.4569,6.3416,71.2684,8.5788,205.8913,1.2606,75.8568,1.8558,140.4445-21.447,147.9847-30.7353,9.9454-63.7025-92.0809-122.2479-90.0776-51.0943,1.7483-104.7902,82.1535-85.788,120.103,13.7563,27.4728,63.1129,27.7041,100.8009,27.8812,24.4249.1145,177.6243.8336,212.3253-79.3538,15.772-36.446-8.44-53.7772-40.7493-195.1679-17.2472-75.4766-25.7394-113.9958-19.3023-152.2735Z"/>
      <path class="cls-7" d="M1461.6076,669.6025c.6842-4.0733,161.4231-12.8212,208.7508,70.0602,22.7754,39.8851,13.9406,91.6265,2.8596,94.3669-13.7013,3.3881-22.758-70.1372-85.788-120.1035-59.1342-46.8782-126.2637-41.6964-125.8224-44.3237Z"/>
      <ellipse class="cls-7" cx="1608.588" cy="864.0427" rx="28.596" ry="22.8768" transform="translate(-164.569 1299.9776) rotate(-42.0545)"/>
      <path class="cls-29" d="M1495.5672,670.277c.5792-3.3857,136.6461-10.6569,176.7094,58.2337,19.2796,33.1523,11.8009,76.1595,2.4207,78.4373-11.5983,2.8162-19.2648-58.2976-72.6203-99.8294-50.0577-38.9649-106.8834-34.6578-106.5098-36.8416Z"/>
      <ellipse class="cls-29" cx="1601.1135" cy="874.4702" rx="21.0525" ry="16.842" transform="translate(-173.4784 1297.656) rotate(-42.0545)"/>
      <path class="cls-29" d="M808.0102,684.7941c-.7802-16.1727-14.6364-33.1288-30.7407-36.4599-28.5059-5.8962-52.0205,33.3857-55.0473,38.6046-10.3652,17.8709-20.5623,50.2333-8.5788,60.0517,18.8946,15.481,96.29-22.3318,94.3668-62.1964Z"/>
      <path class="cls-29" d="M976.7267,681.2197c-11.7783,42.8471-54.532,62.1352-52.9027,64.3411,1.7213,2.3306,52.4861-15.0693,64.341-57.1922,9.7841-34.7649-11.7449-69.2809-14.298-68.6304-2.2748.5795,11.8614,28.7347,2.8596,61.4815Z"/>
      <ellipse class="cls-29" cx="1214.0735" cy="175.964" rx="10.3661" ry="4.1107"/>
      <path class="cls-5" d="M1777.772,1161.8113c.955,160.7113-13.1754,301.8744-17.9675,301.6875-2.6903-.1052-1.6303-44.7303-1.762-304.8164-.1124-221.763-.9228-267.7108,1.762-267.8165,4.4887-.1766,17.117,127.8495,17.9675,270.9454Z"/>
      <ellipse class="cls-5" cx="1762.4018" cy="851.5445" rx="8.2214" ry="35.0301"/>
      <path class="cls-7" d="M1244.0993,1450.9873c-.0807,10.1558,96.9804,20.3797,147.4425,25.6954,223.0102,23.4928,153.1095-19.1481,247.7033,0,32.7242,6.6246,64.0053,16.3668,81.3888-21.0235,13.7244-29.5189,8.8051-70.1283,6.248-164.3856-4.9315-181.7749-7.4688-272.6586-10.9661-272.442-7.6287.4726,18.0948,211.1333-37.7456,327.0368-27.7441,57.5866-106.1595,66.4275-261.858,81.7596-127.819,12.5871-172.1586,16.5016-172.2129,23.3594Z"/>
      <path class="cls-8" d="M1336.5133,809.513c-.5749,17.9219-15.1091,31.5748-27.8049,33.8817-7.1577,1.3004-17.3386-.3505-17.331-.5165.0025-.0561.7691-.0491,1.4129-.0672,6.0309-.1697,11.8601-2.8443,13.0138-3.4196,6.3515-3.1665,12.8122-13.4012,14.298-24.4857,1.6702-12.4587-2.7096-27.743-14.143-35.6722-9.1978-6.3788-20.2872-6.1433-22.8981-5.7919-.4453.0598-.8078.1456-.8041.179.0306.2763,15.4561-3.4465,26.8089-.3574,12.4095,3.3765,28.0618,17.1008,27.4475,36.2499Z"/>
      <path class="cls-8" d="M1192.0456,993.5264c0,2.7719-3.4407,5.0195-7.6851,5.0195s-7.6853-2.2476-7.6853-5.0195,3.4407-5.02,7.6853-5.02,7.6851,2.2476,7.6851,5.02Z"/>
      <rect class="cls-34" x="905.5141" y="866.6167" width="597.3146" height="182.8514" rx="20.4537" ry="20.4537"/>
      <rect class="cls-8" x="933.2926" y="896.5721" width="545.4496" height="164.9066" rx="18.5617" ry="18.5617"/>
    </g>
    <g>
      <path class="cls-18" d="M446.9611,2062.544c-4.2357,0-8.1818-2.1494-10.4791-5.7085-2.2973-3.5586-2.6313-8.0396-.8873-11.8999l228.693-506.1602c2.0187-4.4683,6.4672-7.3374,11.3658-7.3374.0225,0,1082.5467,5.7847,1082.5467,5.7847,4.5303.0244,8.6909,2.5029,10.8694,6.4751l274.4312,500.3755c2.1191,3.8643,2.042,8.5601-.2034,12.3525-2.2454,3.792-6.3254,6.1182-10.7327,6.1182H446.9611Z"/>
      <path class="cls-18" d="M675.6538,1543.9108c360.8267,1.9282,721.6533,3.8563,1082.48,5.7847,91.4771,166.7918,182.9536,333.5839,274.4307,500.376H446.9609c76.231-168.7202,152.4619-337.4408,228.6929-506.1608M675.6528,1518.9654c-9.7979,0-18.6943,5.7377-22.7319,14.6743l-228.6929,506.1608c-3.4878,7.72-2.8198,16.6826,1.7749,23.7998,4.5938,7.1174,12.4868,11.4168,20.958,11.4168h1585.6035c8.8145,0,16.9746-4.6519,21.4653-12.2366s4.6455-16.9763.4067-24.7045l-120.6699-220.0208-153.7612-280.3553c-4.3564-7.9439-12.6782-12.9011-21.7383-12.9495l-1082.48-5.7847c-.0444-.0002-.0898-.0004-.1343-.0004h0Z"/>
    </g>
    <path class="cls-2" d="M785.0708,1582.0757c-58.4392,23.825-74.1226,47.2011-76.3998,65.2125-2.9848,23.6087,17.9345,31.1009,15.6071,59.251-3.2316,39.0852-46.0697,54.9836-38.0714,80.4338,4.8363,15.3886,21.6126,13.1225,24.7757,25.284,9.5652,36.7754-137.3191,82.5591-130.8558,131.0309,1.4511,10.8822,10.2272,18.8692,16.9322,23.7085.2806,0,43.9374.0011,44.2204.0011,124.7186.0016,187.078.0027,187.1996-.0016,135.9162-5.1657,204.7124-34.4332,233.1536.0011,10.1876,12.3342,14.9699,32.5658,26.4308,32.3904,13.8924-.2131,16.2783-30.0844,31.065-32.3904,24.0622-3.7531,35.9175,72.511,83.7512,84.3391,42.326,10.4657,90.4598-35.0488,97.3442-41.559,32.4603-30.6946,26.7432-51.8791,48.7586-68.8005,44.7041-34.3603,132.7407,3.4402,178.3777,19.16,78.6063,27.0769,197.7088,45.9267,373.2479,6.8599-103.6054-117.1277-117.7989-169.0914-108.8299-194.4617,2.115-5.9826,10.2844-23.9702,1.4061-37.5102-9.3531-14.2636-29.2443-10.8072-48.4259-30.8851-5.7327-6.0004-11.5578-12.0973-12.4081-20.9276-1.6985-17.638,19.3683-25.6617,19.8701-38.2322.4484-11.2308-15.2888-26.6339-78.9662-46.6799-9.7222-5.0367-25.7264-12.0779-46.3843-15.1841-27.8776-4.1912-49.7241,1.7579-56.7841,2.4965-78.3036,8.1936-132.5788,18.9351-181.3762,22.1697-131.987,8.7488-168.8066-41.1004-268.0138-11.5583-15.4428,4.5986-29.5087,10.2769-52.6938,11.5583-58.8741,3.254-89.437-26.6582-136.8928-39.7618-30.6746-8.4699-78.2656-12.6385-146.038,14.0559Z"/>
    <g>
      <path class="cls-31" d="M636.8924,1568.0198c-29.5675-107.7664-59.1352-215.5334-88.7027-323.2999,67.6596,26.805,102.256,63.5199,121.4217,93.0377,51.9122,79.9525,78.247,120.5112,84.5616,138.2992.0003.0016.764,2.1523,1.2984,2.0282,3.4256-.7969-22.9731-91.7854-5.6351-186.846,4.048-22.1945,10.5369-58.5722,34.6919-79.209,20.6163-17.6132,43.0433-20.0552,43.0452-20.0552,5.9068-.6431,10.9014-.4095,14.4133-.0604-2.8583,23.2175-4.1241,52.8502,0,86.7514,6.8663,56.4426,25.7269,98.6264,39.0285,123.2128-3.2918-21.7121-14.9623-115.0321,46.0373-198.4674,32.5369-44.5039,72.4417-67.9939,95.9826-79.3892-5.4994,5.8698-53.8055,59.0988-44.4491,130.7557,3.4917,26.7413,13.8074,46.8105,21.6825,59.0918,15.3635,12.243,27.5544,11.9193,32.5237,11.3155,26.6647-3.2406,51.3098-39.5756,54.2061-90.5234,9.6407,16.5632,30.3884,57.2023,30.3552,113.1539-.0194,32.7007-7.1296,58.8803-13.0092,75.4365,18.7907-8.6485,49.9348-26.6118,76.9726-62.8633,52.8017-70.7958,48.9989-156.4395,47.7013-176.0177,10.4012,3.5643,41.088,15.7949,62.8792,51.5478,31.6197,51.8785,18.2288,110.1637,16.2618,118.1836,8.134-6.6851,36.0756-31.3852,45.5331-76.6936,6.0187-28.8331,1.8499-53.0698-1.0842-65.3787,9.0456.4737,25.5818,2.8764,42.2807,15.0875,32.6607,23.8838,39.0976,65.6592,40.1125,72.9221-2.2364-10.8191-4.3472-26.7413-2.1291-45.317,3.8405-32.1546,16.9657-41.3955,21.6436-64.0654,10.2617-49.7354-35.4203-90.0303-27.1033-100.5818,8.751-11.1018,71.6153,17.9115,106.2438,79.2079,39.5389,69.9875,24.8588,151.2484,19.5145,176.0177,10.2974-5.1257,59.7695-31.2169,79.141-94.2949,8.8066-28.6767,8.1575-54.4646,6.5043-70.4073,38.3012,15.0368,56.98,39.8686,65.0474,52.8055,38.6886,62.0372,28.7533,163.8491-29.2713,248.9393,14.515-43.2775,48.2128-124.9507,121.422-189.8475,31.8671-28.2499,63.207-46.2154,88.8978-57.8346-27.4643,114.8303-54.9286,229.6605-82.3934,344.4919-152.463-27.6391-331.2394-49.4592-531.5245-54.3232-243.1253-5.9049-457.4075,14.6456-634.1018,43.1896Z"/>
      <path class="cls-4" d="M670.1054,1568.0198c1.6017-30.1006-.5331-73.9651-22.2244-118.803-11.1852-23.1209-22.3372-36.232-33.3368-50.9186-22.4726-30.0056-49.3653-78.1369-66.3544-156.6337,28.5785,3.1623,74.2419,13.3933,116.8474,50.432,19.1762,16.6706,32.4452,32.7999,41.0683,46.1517,6.8469,10.6011,24.3727,39.5341,41.5574,68.0241,17.5819,29.1488,34.8068,57.8341,39.8732,65.95.924,1.48,1.4436,2.2758,1.4873,2.2656,2.8947-.6771-16.2621-68.3953-9.8797-147.1435.9118-11.2497,2.3449-22.7243,4.4378-34.2605,7.8475-43.2548,27.2258-68.3063,33.5032-76.9013,9.2131-12.6147,18.3308-21.5508,24.9022-27.3235.3707,25.1523,3.2767,59.7236,14.1811,98.6415,14.8212,52.8983,37.9165,90.62,54.0972,113.0001-.3264-39.4936,4.7357-113.2051,47.114-190.421,21.397-38.9864,46.3872-68.0802,67.2711-88.5411-10.3384,20.6784-32.6758,72.7587-20.1574,136.1464,4.6604,23.5973,12.9889,42.8772,20.9395,57.3706,16.7439,14.3418,28.4789,11.7908,31.4092,10.9858,20.7652-5.7052,37.408-44.0669,30.1569-94.4352,8.4294,8.3016,48.6701,49.6766,51.507,116.4068,1.3864,32.6111-6.7023,58.5263-12.5638,73.2389,18.147-8.3965,48.2239-25.837,74.3352-61.0326,9.2914-12.5241,14.8914-22.8835,17.6245-28.0913,26.7923-51.0541,29.449-108.6297,28.4422-142.7996,12.4682,5.2542,41.5736,18.4576,60.7245,50.0462,30.536,50.3678,17.6042,106.9555,15.7045,114.7418,9.2477-8.0722,35.2349-32.8873,43.973-74.4599,6.6149-31.4721.1341-57.2746-3.7941-69.4361,7.1728,1.1983,17.2255,3.7677,27.9777,9.6736,6.4506,3.5432,11.6198,7.4447,15.6014,10.9362.0008.0005,25.8675,23.5061,38.3824,69.5548.3653,1.344.4764,1.8312.3556,1.2426-2.1604-10.504-4.1983-25.9622-2.0557-43.9962,3.7083-31.218,16.3841-40.1902,20.9012-62.1996,9.911-48.2873-34.2066-87.408-26.1742-97.6525,8.451-10.7781,69.1615,17.3898,102.6035,76.9008,38.1841,67.9491,24.0063,146.8435,18.8455,170.8919,11.2043-6.0603,59.0168-33.5267,76.4292-91.5497,9.3763-31.2444,6.0619-58.4352,2.9983-73.4234,15.899,12.277,39.976,34.3026,54.5617,68.2669,41.4549,96.533-19.2,229.6929-17.2079,230.5319.041.0173.1964-.2363.4797-.7753,7.2219-13.7483,64.2656-109.2556,131.6449-179.466,7.2473-7.5516,12.4653-12.6811,15.4722-15.558,22.8646-21.8756,44.4251-37.8275,61.1453-48.9369-27.4643,114.8308-54.9291,229.6611-82.3934,344.4919-11.8135,17.939-19.7007,20.7199-24.7007,19.9904-5.2876-.7716-6.5469-5.3524-16.042-13.532-.0011-.0011-10.879-9.372-24.9511-15.2737-15.0222-6.3004-28.6384-5.5002-33.8272-5.3184-56.6125,1.9818-112.4929-14.8393-169.1044-16.8481-117.1854-4.1578-121.8275-15.7965-195.7281-9.9844-41.5936,3.2713-54.6445,8.1003-91.5202,13.3124-108.2723,15.3033-185.6492.5131-248.3425-5.8649-74.5543-7.5845-183.8655-8.9199-328.1971,22.385Z"/>
      <path class="cls-14" d="M1693.6521,1288.9452c0-29.1219-37.9067-42.0165-40.6546-38.3466-1.3898,1.8561,6.0123,8.1403,7.0469,21.3737.8247,10.5501-3.5334,18.9102-5.4207,22.6306-15.4633,30.4806-67.1298,55.2551-66.1314,58.4631.7277,2.338,29.9588-5.0743,64.5053-25.7741,26.0439-15.6052,40.6546-24.4202,40.6546-38.3466Z"/>
      <path class="cls-14" d="M1006.4543,1318.1075c2.4855-.8251,4.7298,18.8409,19.5141,29.2315,13.5721,9.5387,29.1359,5.2333,30.8974,4.7147,25.6164-7.5407,35.4678-42.1971,38.2153-51.8625,4.7185-16.5995,3.6329-27.8495,4.0656-27.8169,1.0519.0799,11.1582,66.8505-16.6685,94.7665-16.8049,16.8592-48.2148,20.3203-65.0472,2.3576-16.4504-17.5551-14.0899-50.3574-10.9768-51.3908Z"/>
      <path class="cls-14" d="M870.7364,1366.2023c14.014,34.9854,27.7609,63.8757,16.7529,79.8715-11.1179,16.1551-43.9275,14.8551-52.8684-.9821-7.9549-14.0907,8.8806-29.245,11.0437-65.3825,2.7266-45.5522-20.8664-77.6554-16.7529-79.8715,6.9233-3.7302,25.649,25.9824,41.8246,66.3645Z"/>
      <ellipse class="cls-14" cx="978.9446" cy="1241.4139" rx="6.0982" ry="16.0302"/>
      <path class="cls-14" d="M1129.7731,1375.5955c-1.2813,27.322-16.9047,47.2828-18.159,46.551-1.1968-.6979,11.2204-19.9249,12.1964-49.348.8563-25.8153-7.6229-43.5554-6.5048-44.0043,1.2435-.499,13.6932,20.6631,12.4674,46.8013Z"/>
      <path class="cls-14" d="M1315.0719,1263.7301c12.7905,47.2567-24.1281,97.709-31.7609,99.1587-4.183.7945,24.53-47.7968,11.2974-94.1627-8.2542-28.9217-43.8927-30.9613-45.2469-56.7056-.2011-3.8235.4338-5.3984,1.2913-6.2818,7.5566-7.7849,53.228,16.6439,64.4192,57.9914Z"/>
      <path class="cls-14" d="M1257.022,1283.6896c2.4646.9356-.7927,69.5676-41.9775,104.9517-20.3247,17.4621-45.3023,22.8886-46.243,20.4609-.8851-2.2846,19.8688-10.6104,39.8044-30.2846,40.5997-40.0674,46.17-95.9809,48.4161-95.1281Z"/>
      <path class="cls-14" d="M1469.1034,1279.3583c-7.4118-12.4266-1.9738-30.3143,3.2523-47.1474,6.8706-22.1295,11.8229-21.7349,13.5515-34.5749,3.6854-27.3738-16.2317-48.4116-13.5515-50.9196,3.0161-2.8223,32.9187,17.7797,40.6546,53.4341,8.8351,40.7205-13.9451,88.6567-30.6264,88.9519-7.2429.128-12.6797-8.7368-13.2805-9.7441Z"/>
      <path class="cls-14" d="M1437.3927,1302.3036c-2.0614,4.1643-10.2224,4.7025-16.2618,1.5716-9.7909-5.0755-10.1753-17.8074-17.0749-35.2035-11.754-29.6351-30.4768-42.703-28.7294-44.9476,1.5428-1.9821,15.5849,8.9186,26.29,20.1165,7.53,7.8766,13.151,16.5665,24.3928,33.9462,11.3534,17.5522,12.7514,21.7533,11.3833,24.5168Z"/>
      <ellipse class="cls-14" cx="1381.425" cy="1268.8287" rx="9.8746" ry="3.6687" transform="translate(-45.3525 2486.436) rotate(-83.0446)"/>
      <path class="cls-14" d="M1759.0296,1392.5453c-22.8506,41.1127-37.053,55.5038-34.6155,58.7448,3.2557,4.329,35.1639-12.6051,56.5267-46.3137,13.1822-20.8005,9.8006-28.1875,23.9692-55.5254,21.6923-41.8542,47.3063-58.6657,45.5332-61.2919-2.1833-3.234-43.4177,18.7145-70.7391,64.1211-7.9958,13.2884-6.7156,15.1506-20.6745,40.2651Z"/>
      <path class="cls-14" d="M660.8904,1314.021c19.135,19.88,24.0959,61.1178,10.299,84.8658-4.9841,8.579-15.0177,19.3533-23.3085,16.9733-7.9962-2.2956-8.3428-15.0968-19.5143-34.5749-8.8704-15.4662-13.3007-15.5-21.4414-27.5703-19.6906-29.1953-23.2-72.6292-14.2946-78.0973,3.569-2.1912,7.2982,2.841,21.6424,12.6296,28.8101,19.6599,35.4061,14.1258,46.6173,25.7737Z"/>
      <path class="cls-13" d="M634.9836,1307.1217c10.1383,10.533,12.7668,32.3821,5.4567,44.9645-2.6407,4.5454-7.9569,10.254-12.3496,8.993-4.2366-1.2163-4.4203-7.9988-10.3393-18.3188-4.6998-8.1945-7.0471-8.2124-11.3603-14.6076-10.4327-15.4685-12.2921-38.4812-7.5737-41.3783,1.891-1.161,3.8668,1.5053,11.4668,6.6916,15.2644,10.4164,18.7592,7.4843,24.6993,13.6557Z"/>
      <ellipse class="cls-13" cx="977.996" cy="1245.5" rx="3.2524" ry="8.8009"/>
      <path class="cls-13" d="M1091.5578,1341.9953c.7111.7901-6.6224,16.3985-20.8692,23.5739-12.9404,6.5174-26.2219,3.3771-26.29,2.2002-.0652-1.128,12.0345.0554,26.29-7.8578,13.7661-7.6418,20.2474-18.6069,20.8692-17.9163Z"/>
      <ellipse class="cls-13" cx="1032.3377" cy="1361.0117" rx="4.201" ry="2.6717"/>
      <ellipse class="cls-13" cx="1379.3922" cy="1271.1861" rx="1.6262" ry="5.0291"/>
      <path class="cls-13" d="M1274.7745,1223.3406c.1548,4.1321-3.0709,8.8228-5.5562,8.6438-1.948-.1402-2.6707-3.2161-5.5561-8.6438-5.2474-9.8705-9.6373-12.4502-8.9441-13.6728,1.3455-2.373,19.699,4.1387,20.0563,13.6728Z"/>
      <path class="cls-13" d="M1225.5956,1369.2067c-.8732-1.0127-3.5117.4053-5.8932,3.1671-2.3815,2.7618-3.6042,5.8217-2.731,6.8344s3.5117-.4053,5.8932-3.1671c2.3815-2.7618,3.6042-5.8217,2.731-6.8344Z"/>
      <ellipse class="cls-13" cx="1231.4773" cy="1359.2829" rx="1.7617" ry="1.8073"/>
      <path class="cls-13" d="M1503.1176,1257.985c.5345.4468-11.7561,31.1297-23.3763,28.5242-6.476-1.4521-10.7064-12.7857-9.7571-13.7906.779-.8243,4.4802,5.9031,10.3669,6.7184,11.7916,1.6331,22.2922-21.8486,22.7666-21.452Z"/>
      <path class="cls-13" d="M1689.1124,1286.5485c-.2114,13.1335-14.272,19.9126-14.6356,19.4483-.3287-.4199,10.2285-7.155,10.7734-17.9163.6148-12.1424-11.9305-21.2539-11.3833-21.9237.5607-.6861,15.4649,6.7628,15.2455,20.3916Z"/>
      <ellipse class="cls-13" cx="1662.8901" cy="1259.4385" rx="2.8458" ry="2.0038"/>
      <path class="cls-13" d="M1780.952,1379.4369c-5.2469-2.965-15.323,11.0625-16.514,12.7209-5.9266,8.2508-10.3078,19.0924-8.53,20.7545.8813.8239,3.0885-.7831,6.3825-3.1815,4.9056-3.5716,5.9658-5.7367,10.1313-9.5395,6.8952-6.2944,9.7042-5.5786,11.0091-9.634,1.2813-3.9825.1663-9.6255-2.479-11.1204Z"/>
      <path class="cls-13" d="M1434.6673,1295.9904c.4282.5116-1.7856,5.8313-5.6917,6.8362-5.0999,1.3119-9.8651-5.5602-9.5538-6.1289.2666-.4872,4.1777,3.8015,9.1472,2.8288,3.7276-.7297,5.738-3.9666,6.0983-3.5361Z"/>
      <path class="cls-13" d="M1409.771,1264.2835c2.724,5.495,2.6329,11.6398,2.1128,11.7874-.4252.1207-.9802-3.8097-3.7098-9.5476-3.2107-6.7494-6.4973-9.8358-6.1489-10.2553.3835-.4619,5.0119,2.5002,7.7459,8.0156Z"/>
      <path class="cls-13" d="M881.5858,1420.4212c0,7.8517-7.5432,11.9476-11.7898,14.3015-5.7192,3.1704-14.9566,5.5268-17.2106,1.5716-1.6499-2.8953,1.1208-7.9805,5.4207-15.873,5.1084-9.3764,7.6575-14.3015,11.7898-14.3015,6.5113,0,11.7898,6.4033,11.7898,14.3015Z"/>
      <path class="cls-6" d="M879.8065,1350.3514c3.1677,8.001,7.2597,16.9349,12.5751,26.3733,5.9262,10.5229,12.1208,19.4498,17.8837,26.8314.2622-18.9318,1.791-41.368,5.9445-66.2026,1.8887-11.2934,5.5388-30.2711,12.3528-52.9975,16.4121-54.7381,40.1263-92.3773,39.2538-92.8343-.8285-.4343-20.0374,34.6339-21.9226,38.0795-15.5575,28.4339-28.2534,52.1272-37.1976,68.9446h-.0003c-1.9637-.7575-4.324-1.937-6.6762-3.8125-6.7563-5.3864-8.7855-12.7944-9.4133-15.701-1.1897,3.8583-2.5715,8.6172-3.973,14.1077-1.1101,4.3483-2.9934,12.1362-4.7092,21.826-1.6427,9.2771-3.2956,21.2244-4.1179,35.3855Z"/>
      <path class="cls-6" d="M745.0796,1331.0903c.1768-1.7995,3.3121-33.3274,6.8228-50.5168,1.4341-7.0213,2.8057-11.95,2.8061-11.9512s.8846-3.1782,4.7389-14.9831h0c.0097.0167,8.0791,13.9961,9.3801,16.4038,12.4222,22.9877-7.5369,72.9659-4.7917,74.171,1.3662.5997,5.503-12.1314,9.0604-11.4649,3.1632.5928,4.3116,11.4877,4.7772,21.0443-.0417,6.7987.0228,15.2795.3735,25.0338.5995,16.6814.8992,25.0224,2.3037,35.1252.9474,6.8142,7.7633,53.1524,9.1812,58.8557.1443.5805.773,2.9136-.2034,4.2434-.184.2507-.3814.406-.5053.4916-.0925.0705-.1425.0689-.1714.0518-.0069-.0041-.0118-.009-.0893-.1476,0,0-26.2546-43.2476-42.7683-70.4494-.7391-8.356-1.3022-17.1274-1.6262-26.2849-.632-17.8633-.2585-34.4799.7115-49.6228Z"/>
      <path class="cls-6" d="M1130.757,1408.2982l-4.8152,16.0085c11.7258-5.1301,26.5301-13.1985,41.9462-26.0669,10.3108-8.6064,18.6383-17.4756,25.206-25.4599,5.0429-6.1304,8.4526-10.9524,12.3285-16.5038,2.3983-3.4348,4.5897-6.7967,6.8666-11.1159.0599-.1144.1093-.2083.1422-.2714.1182-.2266.2298-.3788.2441-.4003.0631-.095,2.6341-4.0251,4.6663-9.5269.4017-1.0877.9218-2.6147,1.4193-4.4923-3.6431,4.3094-5.5161,6.2599-6.1539,6.5788l-.0011.0005c-.6175.2617-.8735.403-1.2164.5309-.0011.0005-.7117.2536-1.4519.3847-2.2853.4041-11.4164-4.495-11.4153-4.4966.0005,0-7.3811,12.5921-16.421,25.4345-1.7082,2.4264-3.1032,4.3331-3.8492,5.3453-5.2239,6.712-11.517,13.9625-19.0033,21.2233-10.122,9.8177-19.9378,17.2419-28.4919,22.8274Z"/>
      <path class="cls-6" d="M1352.6084,1212.0304c2.3596-.1998,4.2688-.0428,5.61.1488,2.086.2976,8.2366,1.9462,6.1899,1.3922h0c2.8025,10.1355,12.5142,49.3721-3.997,91.7546-11.1645,28.6584-28.9196,44.8958-37.6385,51.8454,1.1628-7.6165,2.3259-15.233,3.4887-22.8495,6.9477-8.6801,16.6673-23.1181,23.1732-43.6117,11.1165-35.0168,5.9542-65.9887,3.1738-78.6798Z"/>
      <path class="cls-6" d="M1638.8163,1180.5984c34.2454,28.4042,48.9639,60.3829,55.1881,76.9817,20.3379,54.2364,11.8345,104.3899,4.0655,146.3153-5.927,31.9858-14.7854,57.7505-21.8999,75.5023,29.2022-52.8859,71.7891-116.2676,133.5641-178.2843,25.5548-25.6546,50.9796-47.649,75.178-66.4518-22.938,9.9957-52.2152,25.7221-83.0377,50.7357-35.2889,28.6389-60.3231,59.4862-76.9726,83.4515,2.265-8.321,18.5401-71.808-15.1776-129.4991-24.3624-41.6831-60.1229-55.1881-70.908-58.7513Z"/>
      <path class="cls-6" d="M670.1054,1568.0198c-6.1504-1.2534-14.0227-2.1517-23.0729-1.4401-3.6792.2892-7.0708.8066-10.1401,1.4401-20.3854-60.2173-38.5821-123.8381-53.7065-190.8413-1.831-8.1116-3.5988-16.192-5.3052-24.2416,4.9178,8.7235,8.8697,14.8415,9.5603,15.2985.5619.3718,1.0834.6086,1.0856.6097.5865.2628.8951.2682,2.1876,1.0257,6.6988,3.9279,7.3546,9.0251,19.7061,25.2181.123.1613-.154-.2045.004.0054,13.0283,17.2641,19.5423,25.8964,24.8672,34.5745,7.8354,12.7701,25.5626,42.3085,32.5237,85.3378,2.0193,12.4825,3.8751,30.6903,2.2901,53.0132Z"/>
      <path class="cls-6" d="M1431.7906,1269.5075c1.6559,3.5832,4.1152,9.0213,6.9381,15.7377,4.5581,10.845,7.0768,17.918,7.6185,17.7475.566-.1781-2.6832-7.748-3.69-19.8183,0-.0016-.9588-11.4099.7651-24.0802.2644-1.9435.6669-4.5652,1.2798-7.6347.5633-2.8224.7942-3.4132,1.4568-6.3732,1.1255-5.0292,1.6888-7.5435,1.3829-7.6622-1.0354-.402-10.4765,16.1823-10.3945,24.0959.0065.6485.0399,2.6551-1.1099,4.6407-1.1126,1.9208-2.8661,2.8537-4.2468,3.3468Z"/>
      <path class="cls-39" d="M764.0396,1242.1085c.0038.0032,4.6059-7.748,11.4512-16.6981,3.7526-4.9062,15.6554-20.1113,35.3018-28.2494,6.3913-2.6476,17.1777-6.0284,31.1942-5.2466.1314,14.3953,1.1498,33.1895,4.6431,54.825.9377,5.8077,3.0941,18.2633,7.1145,33.7107,4.6655,17.9256,12.4928,42.3829,26.062,69.9012,1.2828-23.1053,7.128-80.4068,42.8227-137.042,35.9995-57.1181,81.8083-80.9501,100.4061-89.2873-9.8304,18.934-23.975,52.7774-24.5175,96.2022-.1702,13.6393.893,36.9081,10.0281,62.5492,6.2364,17.5042,14.1155,39.6193,28.4584,41.804,14.9065,2.2704,28.0476-18.3194,33.6076-27.0316,15.0554-23.5892,16.5446-49.703,16.3865-62.8843,9.6167,9.0672,32.8024,33.4096,44.2875,75.1823,12.7,46.1906,3.2524,85.1738-.529,98.4543,15.7517-10.483,50.5933-36.9664,74.9635-88.2783,28.0548-59.0686,25.2006-115.1783,23.2979-135.6489,4.1268,1.6834,10.1859,4.3116,17.3253,8.0124,17.6849,9.1686,37.0144,19.1903,53.4246,40.2566,12.9681,16.6479,18.9262,33.5343,21.1405,40.5468,8.2959,26.2714,6.8197,49.3923,5.3526,61.1351,7.793-9.4039,22.5112-29.7369,28.5439-59.7743,5.6149-27.9569,1.0017-50.8571-2.1971-62.5169,8.6283.3944,28.6127,2.6686,48.7963,18.409,17.274,13.471,26.342,30.2926,30.386,39.0679,2.8704-27.4184,9.3192-45.4233,14.876-56.9843,2.7269-5.6734,8.1866-15.9276,9.4864-30.8031.7753-8.8729-.1964-16.3425-1.3554-22.3164-7.5138-38.7275-32.051-61.6784-27.385-69.3282,4.8365-7.9287,35.9137,8.9922,39.3102,10.8655,10.7241,5.9135,26.498,16.4035,44.178,36.4603,7.1841,8.1494,17.7658,20.3336,27.7967,37.8847,2.3767,4.1583,7.9374,14.3041,13.1289,27.808,20.5203,53.379,13.8374,103.9529,11.1865,122.4255-1.016,7.0778-2.1194,12.7874-2.838,16.2805,5.2736-3.172,9.6089-6.1331,12.905-8.5098,4.5004-3.2454,11.3678-7.9519,18.7414-15.6794.4721-.4948,4.3866-4.6159,4.3876-4.6148v.0005c.1527.3815-18.7797,15.8024-25.182,11.1439-5.6934-4.1421.777-22.5231,3.1229-43.9994,3.4208-31.3183-3.3452-56.2613-7.8661-72.927-19.7654-72.8633-79.5041-106.1149-92.1502-113.1544-17.7313-9.8695-50.2566-23.9194-57.0458-13.1958-7.7027,12.1664,26.6167,41.8396,23.8504,89.2657-.5547,9.5112-1.8032,30.9218-14.0931,40.2334-22.9992,17.4238-58.5579-27.3008-80.2253-11.316-19.3567,14.2803-9.5978,63.7109-18.43,65.3781-6.6551,1.2561-11.0829-27.0219-29.2713-54.0621-20.1798-30.0013-57.6636-59.0206-74.8044-47.7768-20.4169,13.3933,7.2791,71.2846-22.7667,132.0134-2.1774,4.4006-22.6504,45.835-41.6033,42.1185-12.5338-2.4577-15.5232-22.9143-43.9066-74.4933-18.3316-33.312-23.9286-37.2167-28.0519-36.3033-11.9794,2.6524-5.7751,44.6928-31.304,66.0067-3.7059,3.0943-13.3278,11.1272-23.173,8.4861-21.0212-5.6383-33.3411-57.3307-26.8319-99.0095,8.5077-54.4748,50.6594-78.6231,44.3134-90.0524-6.0589-10.9119-45.279,3.3188-73.6589,21.2902-12.9582,8.2055-47.281,30.5791-72.975,78.1866-26.9474,49.9297-27.1754,95.694-35.573,94.8452-7.7857-.7872-12.5724-40.6445-14.0257-61.0563-2.4919-35.0013,3.3185-46.8423-4.6752-55.8701-11.4995-12.9865-38.5815-5.4867-55.7215,7.5883-21.7513,16.5918-31.1168,44.8886-30.1213,45.7724,1.2955,1.1509,28.4846-43.7593,28.456-43.7841-.0283-.0254-28.4649,43.7766-28.456,43.7841Z"/>
    </g>
    <ellipse class="cls-25" cx="1783.4081" cy="1655.5933" rx="9.984" ry="18.72"/>
    <ellipse class="cls-25" cx="1761.7761" cy="1640.6173" rx="5.408" ry="8.528"/>
    <ellipse class="cls-25" cx="1856.0002" cy="1802.6495" rx="16.848" ry="14.976"/>
    <ellipse class="cls-25" cx="1875.5392" cy="1887.3014" rx="7.6829" ry="18.5078"/>
    <ellipse class="cls-25" cx="636.9259" cy="1718.6174" rx="13.2968" ry="26.208"/>
    <ellipse class="cls-11" cx="512.1106" cy="1968.0577" rx="13.728" ry="32.1921"/>
    <path class="cls-25" d="M700.2006,1614.2013c-.0038,10.456,7.1863,16.5281,5.7808,17.7756-1.8482,1.6402-17.764-5.7673-17.7637-17.7637.0003-11.9964,15.9168-19.4034,17.7637-17.7637,1.4034,1.2458-5.777,7.3066-5.7808,17.7518Z"/>
    <circle class="cls-25" cx="664.0038" cy="1722.6532" r="8.8819"/>
    <ellipse class="cls-11" cx="1788.4001" cy="1660.3773" rx="4.992" ry="7.072"/>
    <ellipse class="cls-11" cx="1853.9202" cy="1803.2735" rx="8.528" ry="5.616"/>
    <ellipse class="cls-11" cx="638.1587" cy="1726.6774" rx="9.984" ry="18.148"/>
    <ellipse class="cls-11" cx="666.2585" cy="1725.7623" rx="4.0758" ry="3.1091"/>
    <ellipse class="cls-11" cx="694.4748" cy="1618.0033" rx="1.404" ry="3.79"/>
    <ellipse class="cls-36" cx="516.5826" cy="1974.2329" rx="4.472" ry="11.6961"/>
    <g>
      <path class="cls-31" d="M394.1332,2241.4634c-82.2399.9129-164.4804,1.8258-246.7204,2.7382,36.5773-37.1277,71.1516-52.444,96.6363-59.4657,69.0277-19.0192,104.0446-28.668,118.0026-29.6959.0013,0,1.6891-.1246,1.7463-.4716.3661-2.223-69.4536-.5746-130.3899-26.3377-35.2746-14.9138-42.9408-28.5984-45.3626-33.8548-7.2626-15.763-1.9802-30.8586,1.4851-38.3654,14.7632,5.2364,34.9581,10.9022,59.8399,13.8293,40.7686,4.7961,74.9085-.02,95.4236-4.2393-16.4806-2.6422-81.0278-14.5285-122.2483-61.1184-24.4032-27.5819-29.9708-55.2788-31.4459-70.0776,2.5788,4.3008,26.3814,42.3446,78.3107,48.0423,19.3791,2.1264,35.9803-.9863,46.5569-3.847,12.5521-7.4491,15.5879-14.9607,16.5001-18.0977,4.8929-16.8324-13.5819-37.705-47.9506-47.5993,46.6181-16.1774,71.7761-9.6429,86.1668-.5358,16.3085,10.3206,31.5665,32.0305,42.4525,27.4168,3.4297-1.4536,5.1954-4.999,6.1045-7.4307.5822-1.5318,1.3958-4.0569,1.6955-7.2332,1.5515-16.4369-12.5718-30.0083-19.6562-36.8158-30.0803-28.9054-112.129-63.0192-116.6882-64.8963,7.3064-8.4132,25.56-27.0818,55.5688-35.6811,42.4215-12.1567,77.5464,4.6304,85.8684,8.8897-2.4366-6.043-12.0048-27.078-40.7295-40.0877-18.2795-8.2794-36.112-9.5922-45.3869-9.7589,2.745-5.4597,8.823-15.1949,21.7102-23.4662,25.206-16.1779,55.7428-13.457,61.0239-12.9201-8.0606-.3561-19.6079-1.603-31.8282-5.921-21.1529-7.476-24.0184-16.9808-38.4051-23.457-31.5633-14.2075-71.5706,7.3217-76.6254.5503-5.3184-7.1243,31.5004-40.9655,83.039-52.383,58.8463-13.0367,110.9744,8.8999,126.6311,16.1186-.7829-7.1178-5.5544-41.5488-43.8861-63.4579-17.4262-9.9601-35.3879-13.6739-46.827-15.2041,20.6114-21.0393,42.7336-28.51,53.8139-31.3842,53.1351-13.7839,120.7073,8.526,163.8891,57.5956-25.9719-15.7808-73.3001-49.4203-98.4934-104.562-10.9672-24.0031-14.9812-46.0438-16.128-63.6159,71.866,35.1108,143.7319,70.2217,215.5984,105.3331-59.8237,88.8853-122.6678,194.7995-179.5663,316.5781-69.0687,147.8261-112.1784,282.2205-139.7258,394.8893Z"/>
      <path class="cls-4" d="M403.012,2221.1406c-20.3347-5.7786-51.1623-11.465-87.8896-5.34-19.1725,3.1974-31.3388,8.0884-44.035,12.2818-27.2258,8.9916-67.7103,17.9779-123.6746,16.1191,22.8652-37.9181,49.2377-55.7919,63.917-63.9461,15.6362-8.6857,31.9968-14.8145,42.8135-17.7718,9.143-2.4997,33.7857-8.6113,58.0318-14.5852,24.8065-6.1115,49.198-12.0784,56.1507-13.8848,1.2679-.3291,1.9556-.5201,1.9605-.5487.3067-1.8793-51.5256-.9523-104.1385-17.4114-7.5162-2.3514-15.0481-5.0578-22.4459-8.1775-18.9324-7.9832-30.5794-17.9024-37.418-25.0525-3.3272-3.4785-5.4589-6.0791-6.671-7.707-5.3969-7.2478-8.3882-14.214-10.0823-19.1061,7.9376,1.6392,17.7969,3.3603,29.1919,4.631.8258.0923,20.5551,2.244,40.5328,1.9294,40.4508-.6367,72.6448-8.7548,92.4078-15.088-24.2869-4.4513-74.4887-17.3094-118.7542-59.1851-19.7646-18.6977-33.0203-38.1426-41.8091-53.8932,14.221,10.5277,44.8136,29.9392,87.2416,32.6537,17.8141,1.1395,33.2297-.9512,45.1711-3.6668,14.855-8.0151,15.8742-15.2758,15.9748-17.468.5692-12.4124-20.7747-26.6609-54.9704-33.0206,12.6619-6.4266,48.165-22.2727,91.9576-13.4467,20.759,4.1837,36.6861,12.5624,47.1604,19.3629-1.5161-12.9865-6.1601-34.9538-22.2269-55.2151-40.2579-50.7676-112.5971-40.8425-116.8161-40.1961,5.3842-7.7383,25.0053-33.913,62.0083-44.4133,41.842-11.8734,75.9021,4.8112,83.3452,8.6819-2.1895-4.9482-12.9277-27.7859-39.6056-38.7766-23.603-9.7238-44.584-3.9538-50.4271-2.1302,2.1752-5.4349,6.6643-14.3936,15.6691-22.195,4.1354-3.5826,8.2417-6.071,11.7142-7.803.0005-.0005,23.1295-12.0811,58.2388-12.3978,1.0246-.0092,1.3904.0005.952-.0194-7.823-.3529-19.0306-1.5701-30.8972-5.7559-20.5424-7.2457-23.3427-16.4321-37.3168-22.7049-30.6582-13.7624-69.4372,6.9969-74.3565.4489-5.1751-6.8895,30.4844-39.5476,80.4745-50.5237,57.0782-12.5327,107.7079,8.7197,122.9165,15.7112-1.5129-6.8874-9.7799-41.1511-42.7175-61.3611-20.4315-12.5365-40.535-13.6399-49.8447-13.5395,12.4788-7.9595,33.8534-19.3813,61.6757-22.5031,75.2096-8.4397,153.5043,48.5408,154.4172,47.2788.0183-.0254-.1149-.1608-.4068-.4165-7.6212-6.6775-58.726-55.0986-88.5996-109.1623-7.3026-13.2158-16.4825-32.3025-24.005-57.1634,71.8662,35.1108,143.7322,70.2222,215.5984,105.3331,4.9582,16.2087,1.3974,24.227-2.8329,28.5569-4.1753,4.2738-8.3674,4.3045-15.7838,9.3839-9.8309,6.7331-14.4422,14.8803-17.7378,20.7026-37.0567,65.4698-55.6098,98.2558-56.8292,100.7884-34.1955,71.0429-43.4647,72.0276-59.2118,118.1739-8.863,25.9724-9.0208,34.7283-15.2839,58.1233-18.3888,68.691-49.2765,113.6794-70.4359,151.0245-25.1628,44.4106-55.3066,111.0847-72.2979,204.3911Z"/>
      <path class="cls-14" d="M484.1403,1550.3475c-20.0878-4.6425-39.1161,16.4969-37.3193,18.7634.9088,1.1463,7.2224-2.3812,16.6271-.9047,7.4977,1.1772,12.0993,5.1766,14.1611,6.9246,16.8912,14.321,20.168,49.885,22.6477,49.7855,1.8072-.0725,4.5089-19.1406-.5341-43.5793-3.8018-18.4239-5.9763-28.7693-15.5825-30.9894Z"/>
      <path class="cls-14" d="M320.5443,1975.4903c.0953-1.6524,14.2606.1094,25.3802-7.2807,10.2079-6.7841,11.3989-16.9939,11.5121-18.1544,1.6467-16.8767-19.6251-28.4295-25.5577-31.6515-10.1886-5.5335-18.239-6.6626-18.1008-6.9221.3363-.6309,49.0954,3.8293,60.9123,25.3066,7.1367,12.9705,1.1271,32.7418-15.7631,40.178-16.507,7.2674-38.5024.5938-38.383-1.4758Z"/>
      <path class="cls-14" d="M317.4373,2066.2026c27.8788-2.9979,51.4819-6.8041,59.5727,2.4817,8.1714,9.3784-1.4965,29.2472-14.811,32.1934-11.8461,2.6213-17.7986-10.0961-42.1474-17.1806-30.6923-8.9301-59.1437.3887-59.5727-2.4817-.7222-4.831,24.7791-11.5525,56.9584-15.0128Z"/>
      <path class="cls-14" d="M261.9183,1976.3658c6.1068,1.4113,10.3275,4.2261,9.4271,6.2869-.9004,2.0608-6.5808,2.5873-12.6876,1.176-6.1068-1.4113-10.3275-4.2261-9.4271-6.2869.9004-2.0608,6.5808-2.5873,12.6876-1.176Z"/>
      <path class="cls-14" d="M393.166,1909.1964c18.5038,5.1396,28.0957,17.8815,27.2556,18.5323-.8014.621-10.7443-10.042-30.779-15.3297-17.578-4.6393-32.0817-2.279-32.0924-3.0347-.0118-.8405,17.9138-5.0848,35.6158-.1679Z"/>
      <path class="cls-14" d="M365.5398,1777.9798c36.0162-.293,60.9479,30.3402,59.9073,35.2418-.5702,2.6862-26.4118-22.6294-61.9318-21.9238-22.1564.4402-33.0906,21.9221-51.2107,18.6467-2.6912-.4865-3.6077-1.126-3.9879-1.7916-3.3497-5.8649,25.7104-29.9167,57.223-30.1732Z"/>
      <path class="cls-14" d="M363.7888,1816.6821c1.3042-1.3589,47.7747,11.5752,61.172,42.4168,6.6116,15.2204,3.6773,31.3691,1.7513,31.5577-1.8125.1774-2.0073-13.8491-10.2487-29.184-16.7841-31.2302-53.8633-43.5521-52.6745-44.7905Z"/>
      <path class="cls-14" d="M417.4978,1686.2198c-10.5531,2.5542-21.438-3.6248-31.6521-9.5061-13.4279-7.7319-11.8317-10.6993-20.2264-13.8039-17.8968-6.6189-37.7328,2.2146-38.7463.1748-1.1405-2.2955,21.0645-17.3085,47.7263-16.3582,30.4503,1.0853,57.426,22.6661,53.1701,32.9204-1.848,4.4523-9.4162,6.3659-10.2717,6.5729Z"/>
      <path class="cls-14" d="M424.8477,1709.2813c2.3214,1.9252.5109,7.0047-3.2633,10.2011-6.1184,5.1819-15.0035,3.3875-28.8475,4.8361-23.5841,2.4679-37.6033,11.8412-38.6845,10.4141-.9548-1.26,10.3183-8.1146,20.9042-12.8799,7.4462-3.352,14.943-5.4061,29.9366-9.5143,15.1424-4.149,18.4139-4.3348,19.9545-3.0571Z"/>
      <path class="cls-14" d="M385.3945,1740.3054c3.5437,1.2892,7.0435,1.3879,7.8171.2203.7736-1.1676-1.472-3.1592-5.0157-4.4484s-7.0435-1.3879-7.8171-.2203c-.7736,1.1676,1.472,3.1592,5.0157,4.4484Z"/>
      <path class="cls-14" d="M573.0797,1526.8587c22.2501,20.5362,28.3801,31.5207,31.2673,30.5459,3.8565-1.302.7057-23.5261-16.8349-41.9716-10.8238-11.3821-16.8233-10.4904-31.8928-23.5182-23.0713-19.9457-27.8201-38.2988-30.1056-37.6325-2.8145.8204,1.3019,29.5505,25.3187,53.5069,7.0286,7.011,8.6554,6.5245,22.2472,19.0695Z"/>
      <path class="cls-14" d="M225.3444,2186.2881c18.8284-8.5395,48.5998-5.0011,61.2924,7.2269,4.5852,4.4174,9.3348,12.2745,5.4768,16.9682-3.7211,4.5269-12.6439,2.6983-29.066,6.429-13.0397,2.9622-14.2474,5.6677-24.7496,8.7248-25.4024,7.3944-56.3006,2.6178-57.6917-3.703-.5573-2.5332,3.9108-4.0128,14.4975-11.2296,21.263-14.4947,19.209-19.413,30.2407-24.4163Z"/>
      <path class="cls-13" d="M213.6596,2201.0405c9.9758-4.5245,25.7496-2.6497,32.4746,3.8291,2.4294,2.3405,4.9459,6.5034,2.9018,8.9903-1.9716,2.3985-6.6991,1.4296-15.4001,3.4063-6.9088,1.5695-7.5487,3.0029-13.1131,4.6227-13.459,3.9178-29.8298,1.387-30.5668-1.962-.2953-1.3422,2.072-2.1261,7.6812-5.9498,11.2658-7.6797,10.1775-10.2856,16.0225-12.9365Z"/>
      <path class="cls-13" d="M263.7224,1979.339c3.3528.7749,5.6814,2.294,5.2012,3.3931-.4802,1.0991-3.5874,1.362-6.9402.5871-3.3528-.7749-5.6814-2.294-5.2012-3.3931.4802-1.0991,3.5874-1.362,6.9402-.5871Z"/>
      <path class="cls-13" d="M359.7729,1927.2239c.7351-.3092,9.541,6.6664,10.6818,16.5278,1.0362,8.9572-4.6805,16.5835-5.5106,16.4375-.7955-.1399,3.2555-7.355,1.608-17.3394-1.591-9.6417-7.4219-15.3555-6.7793-15.6259Z"/>
      <path class="cls-13" d="M358.1815,1963.9214c1.0178.2352,1.3401,1.5768.7198,2.9965-.6203,1.4197-1.9482,2.3799-2.966,2.1447-1.0178-.2352-1.3401-1.5768-.7198-2.9965.6203-1.4197,1.9482-2.3799,2.966-2.1447Z"/>
      <path class="cls-13" d="M387.4431,1740.806c1.9159.4428,3.6636.3562,3.9037-.1933.2401-.5496-1.1184-1.354-3.0342-1.7968-1.9159-.4428-3.6636-.3562-3.9037.1933-.2401.5496,1.1184,1.354,3.0342,1.7968Z"/>
      <path class="cls-13" d="M326.9069,1796.1989c2.8917.564,5.2649,3.2856,4.477,4.7778-.6175,1.1696-2.9324,1.1215-7.4477,2.0218-8.2113,1.6374-11.1643,3.9123-11.8224,3.2932-1.2772-1.2016,8.121-11.394,14.7931-10.0927Z"/>
      <path class="cls-13" d="M414.3758,1849.5445c-.932.3729-.6592,2.2134.6092,4.1109,1.2684,1.8975,3.0522,3.1335,3.9842,2.7606s.6592-2.2134-.6092-4.1109c-1.2684-1.8975-3.0522-3.1335-3.9842-2.7606Z"/>
      <path class="cls-13" d="M409.5739,1843.2855c-.6885-.1591-1.4575.1945-1.7176.7899-.2601.5954.0872,1.207.7757,1.3661.6885.1591,1.4575-.1945,1.7176-.7899.2601-.5954-.0872-1.207-.7757-1.3661Z"/>
      <path class="cls-13" d="M411.848,1661.9994c.4511-.2558,18.3299,12.156,13.4263,18.8511-2.7329,3.7311-11.6816,4.513-12.121,3.7719-.3603-.6081,5.2695-1.8004,7.4057-5.2724,4.2788-6.9549-9.1114-17.1235-8.7109-17.3506Z"/>
      <path class="cls-13" d="M481.2735,1552.7433c9.0027,2.2231,9.92,11.9073,9.5025,12.0558-.3775.1342-2.201-7.3994-9.4783-9.4483-8.2113-2.3119-17.85,3.912-18.1657,3.4704-.3234-.4525,8.7992-8.3848,18.1415-6.078Z"/>
      <path class="cls-13" d="M456.3241,1562.7256c.7634.1764,1.0416,1.0991.6214,2.0608-.4202.9617-1.3796,1.5983-2.143,1.4219-.7634-.1764-1.0416-1.0991-.6214-2.0608.4202-.9617,1.3796-1.5983,2.143-1.4219Z"/>
      <path class="cls-13" d="M569.8984,1511.3548c-3.4479,2.7379,3.5344,11.1396,4.3599,12.1328,4.1069,4.9417,10.414,9.3509,12.0357,8.528.8039-.4079.2855-2.0147-.4883-4.4126-1.1522-3.5711-2.3623-4.5649-3.8717-7.7201-2.4985-5.2226-1.2537-6.8273-3.7023-8.2722-2.4045-1.4189-6.5951-1.6362-8.3334-.2559Z"/>
      <path class="cls-13" d="M419.7644,1709.9425c.4674-.1804,3.545,2.0222,3.1939,4.5725-.4585,3.3298-6.4726,5.15-6.7817,4.8689-.2648-.2408,3.7391-1.9503,4.3966-5.1462.4932-2.3972-1.2022-4.1434-.8089-4.2952Z"/>
      <path class="cls-13" d="M391.2378,1720.1219c4.5186-.7908,8.7328.2445,8.6956.5862-.0304.2794-2.8899-.0075-7.5776.748-5.5139.8886-8.5216,2.4077-8.7178,2.1276-.2161-.3083,3.0645-2.6682,7.5998-3.4619Z"/>
      <path class="cls-13" d="M357.737,2068.2072c5.416,1.2517,6.2247,6.5203,6.7131,9.494.658,4.0049-.1861,10.0329-3.5169,10.7816-2.4382.548-5.2052-1.9581-9.4998-5.8473-5.102-4.6205-7.8178-6.9654-6.7131-9.494,1.7407-3.9843,7.5687-6.1934,13.0168-4.9343Z"/>
      <path class="cls-6" d="M310.758,2057.7144c6.0068-.5962,12.6293-1.5609,19.7239-3.0792,8.7577-1.8744,16.5524-4.2322,23.289-6.6656-12.9889-3.1785-28.0562-7.6902-44.0763-14.1908-6.872-2.7884-19.0349-7.7744-33.2548-16.0074l-.0043-.0022c-13.7637-6.882-26.7645-15.3184-39.0024-25.3093.7117.5957,1.8882,1.5982,3.2983,2.8925,2.4469,2.2462,4.14,4.0337,4.461,4.3682,3.9223,4.0903,13.235,10.5828,17.1491,13.4489,10.995,8.0512,19.7244,14.4433,18.5752,19.0203-.3691,1.4697-2.281,4.8414-16.0838,6.0085,5.3221,3.254,11.4164,6.5793,18.2817,9.7049,10.0664,4.583,19.4722,7.6805,27.6434,9.8112Z"/>
      <path class="cls-6" d="M259.6252,2137.4942c-1.194-.3951-22.1033-7.3395-33.0217-12.228-4.4598-1.9968-7.4929-3.6218-7.4936-3.6222s-1.9558-1.0479-9.0682-5.2883h0c.0141-.0033,11.8141-2.7124,13.8227-3.1247,19.1774-3.9365,48.3159,16.2437,49.881,14.756.7789-.7404-6.8969-5.3012-5.4861-7.3717,1.2545-1.8411,9.0767-.807,15.7932.4316,4.6785,1.1093,10.5456,2.4218,17.3677,3.7622,11.6669,2.2924,17.5004,3.4387,24.8447,4.1898,4.9536.5066,38.7391,3.723,43.0521,3.7646.439.0042,2.2164-.0085,2.8727.8009.1237.1526.1781.2981.204.3876.0239.0678.0094.0982-.0101.1131-.0046.0035-.0093.0058-.1257.0311,0,0-36.8503,9.1708-60.0283,14.9391-5.9614-.8798-12.1624-1.9335-18.5656-3.1952-12.4908-2.4609-23.8528-5.3384-34.0388-8.346Z"/>
      <path class="cls-6" d="M339.913,1746.7698c.2042-.6119.4298-1.1665.6593-1.6624.1627-.3512.4516-.9431.9431-1.7471,1.2032-1.9683,2.6149-3.5654,2.6149-3.5654h0c7.7407-.0993,37.4015.2131,62.2223,17.0731,16.7836,11.3997,23.2374,24.8523,25.7002,31.2957-4.9428-1.9257-9.8857-3.8519-14.8285-5.7775-4.13-5.6351-11.4908-13.8838-23.8879-21.1316-21.182-12.3843-43.926-14.1633-53.4235-14.4848Z"/>
      <path class="cls-6" d="M394.7452,1566.6292c28.7476-16.4266,54.7408-20.3348,67.8542-21.4973,42.2069-3.7412,75.4727,9.9301,102.0126,20.8372,21.4709,8.8239,37.4278,18.4244,47.9268,25.5066-29.2983-26.579-62.6292-63.0572-88.9725-110.2187-11.152-19.9649-19.4769-39.0246-25.7398-56.5944.763,15.6293,3.7839,36.0509,12.7982,58.8985,10.3207,26.1585,24.906,46.3944,36.9858,60.4027-5.1341-2.7126-44.5754-22.7919-93.3837-11.3569-35.2654,8.2622-54.1408,27.9909-59.4818,34.0223Z"/>
      <path class="cls-6" d="M403.012,2221.1406c-2.5086,3.5637-5.2329,8.2373-7.1615,13.8886-.784,2.2974-1.3338,4.4556-1.7174,6.4342-47.0104,2.7814-95.7172,3.7369-145.997,2.4404-6.4601-.1667-12.8894-.3691-19.2877-.6059,7.9902-1.6305,13.7618-3.0803,14.2566-3.424.4079-.2833.716-.5714.7173-.5725.3324-.3135.4235-.5034,1.2858-1.1692,4.5001-3.4731,8.1915-3.062,22.6631-8.0383.1441-.0496-.1821.0615.0049-.0016,15.3913-5.2196,23.0872-7.8294,30.4969-9.7044,10.9033-2.7587,36.0173-8.8972,67.5593-6.2971,9.15.7543,22.2056,2.5213,37.1798,7.0498Z"/>
      <path class="cls-6" d="M398.9158,1706.933c3.8788-.6696,8.1278-1.2733,12.7108-1.7368,5.4767-.5536,10.559-.8185,15.156-.9032-4.4864-.2379-9.7565-.7635-15.5343-1.8307-6.4924-1.1989-11.9913-2.7798-16.4056-4.3067-1.2698-.4716-2.9708-1.1358-4.9245-2.0001-5.832-2.5796-8.0963-4.3661-8.3992-4.1324-.6235.4807,7.7733,8.9614,13.3191,10.3589.4478.1128,1.8768.4311,2.9047,1.419,1.0273.9868,1.2021,2.2089,1.173,3.1321Z"/>
    </g>
    <g>
      <path class="cls-31" d="M2138.6265,2233.9425c81.9186-7.318,163.8384-14.6354,245.757-21.9528-40.1076-33.2834-76.0402-45.0645-102.0995-49.5023-70.5837-12.0196-106.39-18.1176-120.3812-17.7443-.0011,0-1.6926.0448-1.7843-.2946-.587-2.1749,69.0476-7.5187,127.1013-39.247,33.606-18.3674,39.8654-32.7503,41.7495-38.2224,5.6491-16.4105-1.1163-30.9018-5.3151-38.0244-14.1654,6.6872-33.6929,14.344-58.1567,19.7449-40.0844,8.8503-74.5349,7.4728-95.3691,5.3265,16.1337-4.2776,79.1685-22.5603,115.522-73.0392,21.5222-29.8847,24.2917-57.9992,24.2793-72.8714-2.1361,4.5371-22.0137,44.771-73.1126,55.6343-19.0694,4.0542-35.8986,2.6174-46.7085.8288-13.2341-6.1563-17.0062-13.3264-18.2272-16.3565-6.5523-16.2583,9.7422-38.8742,42.9489-52.1564-14.2577-1.842-48.29-4.6693-85.7883,8.0852-21.9155,7.4545-37.139,17.5516-46.3146,24.7423-.3502-12.9061,1.5016-35.1233,16.9576-59.1128,30.1836-46.8488,88.8416-64.1285,102.3909-67.8293-5.7926-5.2434-24.0322-20.3222-55.1304-24.8685-45.1244-6.5976-79.816,14.4632-84.549,17.4335,1.8205-6.2561,9.2366-28.1425,36.5158-43.9606,17.3601-10.0659,34.9716-13.1559,44.1834-14.2496-3.2772-5.1576-10.2984-14.2361-23.9486-21.1769-26.6976-13.5751-56.8089-7.8138-62.0102-6.7514,7.9848-1.1606,19.3494-3.5562,31.0761-9.0753,20.2996-9.5544,22.1999-19.2976,35.8668-27.1805,29.984-17.2932,71.9439.1263,76.296-7.1162,4.5792-7.6212-35.4394-37.61-87.8618-43.8154-59.8553-7.0854-109.5275,19.9553-124.3841,28.7042,1.105-8.3604,6.6597-43.0924,37.3192-67.5293,18.2056-14.5107,37.1752-18.9442,47.1197-20.5073-14.2188-10.3805-33.9503-21.1327-58.7314-25.1485-87.1669-14.126-153.364,68.6176-157.3065,73.6991,24.2631-18.2995,67.9896-56.5041,87.5413-113.8893,8.5114-24.9797,10.3006-47.3112,9.6839-64.9103-67.9933,42.1229-135.9872,84.2463-203.9816,126.3697,68.4142,82.456,141.5365,181.5535,210.33,297.0301,83.5082,140.1768,139.8439,269.5853,178.5223,378.9342Z"/>
      <path class="cls-4" d="M2127.7594,2214.6093c19.6548-7.7836,49.7592-16.5249,86.9149-14.1039,19.3958,1.2636,31.9906,4.9132,45.0424,7.8154,27.9887,6.2232,69.169,11.1153,124.6668,3.669-26.5427-35.441-54.5709-50.5874-69.9924-57.2325-16.4272-7.0784-33.3195-11.5405-44.3766-13.4009-9.3472-1.5728-34.4774-5.1889-59.1992-8.7073-25.2937-3.5999-50.1595-7.0973-57.2584-8.199-1.2944-.2013-1.998-.3221-2.005-.3502-.4932-1.8388,51.1717-6.1013,101.8745-27.74,7.243-3.0916,14.4665-6.5372,21.5157-10.381,18.0453-9.8409,28.6427-20.8791,34.731-28.6778,2.9594-3.7909,4.8193-6.5912,5.8595-8.328,4.6439-7.7507,6.9241-14.9801,8.1213-20.0185-7.7339,2.4247-17.3714,5.1231-28.5823,7.5273-.8131.1743-20.2284,4.2884-40.1368,5.9739-40.3116,3.4127-73.1563-1.4449-93.4537-5.7694,23.3923-6.7266,71.256-24.1606,110.9498-69.2893,18.62-21.1693,30.2198-42.4952,37.4984-59.2817-13.0966,11.8971-41.5941,34.2713-83.5378,41.2159-17.611,2.9157-33.1582,2.3773-45.3116.8698-15.0929-6.4822-17.2225-13.894-17.6417-15.783-2.9697-13.3858,17.3018-31.8045,53.4405-39.048-8.3237-3.0172-49.2272-17.0234-94.89-3.4866-22.3154,6.6155-37.0419,17.2225-44.9868,23.9831.3809-13.3253,3.0835-35.3062,16.5929-57.1613,33.5062-54.2051,101.9614-56.6277,108.4808-56.7544-7.3233-7.4577-28.5234-27.0672-62.4111-32.9127-42.364-7.3082-74.4523,12.0876-82.0589,16.9749,1.6834-5.1425,10.0837-28.94,35.529-42.5443,22.5117-12.0358,43.9644-8.3933,49.9609-7.1631-2.708-5.1905-8.0706-13.655-17.8106-20.5159-4.4729-3.151-8.8077-5.2159-12.4361-6.5923-.0005-.0005-24.2216-9.7071-59.1862-6.5108-1.0208.0933-1.384.1392-.9496.0755,7.7485-1.1331,18.778-3.4655,30.1669-8.8174,19.7142-9.2636,21.5816-18.6842,34.8583-26.3231,29.1283-16.7596,69.789.0162,74.0288-6.991,4.4599-7.3724-34.2875-36.3-85.1247-42.2211-58.0451-6.7606-106.2956,19.4492-120.7287,27.9267-.0955-5.6745.0664-40.5922,36.3658-65.3263,18.9027-12.8791,39.403-17.4092,50.289-19.1525-12.837-6.1752-36.0977-15.4717-65.6657-15.5262-79.8629-.1468-154.8057,68.7244-148.5507,62.0318,6.8534-7.3331,52.2152-62.2757,77.2369-117.4768,6.446-14.2204,14.419-34.5481,20.2154-59.9734-68.6769,42.3549-137.3533,84.7103-206.0303,127.0652,14.4713,23.2704,22.3181,35.8883,22.3181,35.8883,0-.0011,18.1441,16.5961,19.7196,18.825,43.4194,61.4345,65.1585,92.2009,66.625,94.5987,41.1301,67.266,50.4514,67.3194,70.7348,111.6588,11.4164,24.9559,12.4491,33.6519,21.021,56.3028,25.1669,66.5074,60.3997,108.1814,85.1883,143.2226,29.4785,41.6713,66.14,104.9958,92.3784,196.1349Z"/>
      <path class="cls-14" d="M1979.945,1555.2944c19.5227-6.6284,40.5699,12.5018,39.0088,14.9366-.7896,1.2314-7.4243-1.6469-16.6342.7629-7.3424,1.9212-11.5209,6.3608-13.3974,8.3062-15.3741,15.9387-15.0774,51.652-17.5546,51.8011-1.8054.1086-6.4007-18.5937-3.8274-43.4142,1.94-18.7117,3.0688-29.2228,12.4048-32.3926Z"/>
      <path class="cls-14" d="M2185.2435,1961.9423c-.2601-1.6346-14.1781,1.5352-25.9812-4.7056-10.8353-5.7291-13.0414-15.7686-13.2702-16.9119-3.3265-16.6274,16.6832-30.2498,22.2637-34.049,9.5841-6.5248,17.4811-8.4534,17.3177-8.6979-.3978-.5941-48.4662,8.7207-58.0757,31.2722-5.8036,13.6192,2.1534,32.6904,19.7027,38.3998,17.1511,5.5799,38.3688-3.2602,38.043-5.3075Z"/>
      <path class="cls-14" d="M2197.408,2051.889c-28.0388-.1944-51.9043-1.6207-59.0257,8.4277-7.1923,10.1486,4.4143,28.9508,17.9567,30.5506,12.0489,1.4233,16.6996-11.8257,40.2177-21.31,29.6452-11.9552,58.886-5.5289,59.0257-8.4277.2354-4.879-25.8103-9.0162-58.1743-9.2406Z"/>
      <path class="cls-14" d="M2243.6632,1956.9496c-5.935,2.0151-9.853,5.2378-8.751,7.1983,1.102,1.9604,6.8066,1.9162,12.7416-.0989,5.935-2.0151,9.853-5.2378,8.751-7.1983s-6.8066-1.9162-12.7416.0989Z"/>
      <path class="cls-14" d="M2106.3553,1903.2445c-17.8969,6.9645-26.1663,20.602-25.2653,21.1655.8595.5378,9.686-11.0663,29.0913-18.3314,17.0259-6.3742,31.6929-5.4764,31.6279-6.2293-.0724-.8374-18.3325-3.2676-35.454,3.3952Z"/>
      <path class="cls-14" d="M2120.7186,1769.9227c-35.8649,3.3108-57.6076,36.284-56.082,41.057.836,2.6157,24.0159-25.1576,59.4284-28.0083,22.0893-1.7781,35.1173,18.5024,52.8189,13.4311,2.629-.7532,3.477-1.4812,3.7887-2.1815,2.7463-6.1705-28.5737-27.1951-59.954-24.2984Z"/>
      <path class="cls-14" d="M2126.3318,1808.2558c-1.4336-1.2216-46.3774,16.2956-56.6227,48.3225-5.0561,15.8053-.5214,31.5796,1.4139,31.5746,1.8212-.0048.612-13.9804,7.2783-30.0627,13.5763-32.7523,49.2371-48.7211,47.9304-49.8344Z"/>
      <path class="cls-14" d="M2059.8433,1683.8197c10.7556,1.4859,20.9679-5.7508,30.5425-12.6243,12.5872-9.0362,10.7023-11.829,18.7443-15.7577,17.145-8.3757,37.7651-1.5705,38.5695-3.7015.9052-2.398-22.69-15.1148-49.1232-11.5026-30.189,4.1255-54.871,28.2962-49.6108,38.0734,2.284,4.2451,10.0057,5.3922,10.8776,5.5126Z"/>
      <path class="cls-14" d="M2054.8368,1707.5007c-2.1172,2.1477.1923,7.0207,4.2672,9.8235,6.606,4.5439,15.2671,1.8698,29.1866,1.9265,23.7127.0967,38.5991,8.0207,39.5321,6.4926.8239-1.3492-11.0782-7.0419-22.0876-10.7244-7.7441-2.5904-15.4088-3.8844-30.7381-6.4723-15.4815-2.6137-18.7552-2.4713-20.1602-1.0459Z"/>
      <path class="cls-14" d="M2097.1952,1734.4231c-3.397,1.6372-6.8694,2.0854-7.7559,1.0011-.8865-1.0843,1.1487-3.2906,4.5456-4.9278,3.397-1.6372,6.8694-2.0854,7.7559-1.0011.8865,1.0843-1.1487,3.2906-4.5456,4.9278Z"/>
      <path class="cls-14" d="M1889.1022,1540.8191c-20.0845,22.6587-25.0851,34.2013-28.0553,33.5201-3.9673-.9098-3.0552-23.3376,12.5525-43.4449,9.6311-12.4076,15.6896-12.1205,29.3805-26.5902,20.9606-22.1532,23.8499-40.8893,26.1906-40.4549,2.8824.5348,1.6603,29.5326-19.84,55.7709-6.2921,7.6788-7.9594,7.3575-20.2283,21.1991Z"/>
      <path class="cls-14" d="M2301.0501,2162.1612c-19.5881-6.6134-48.8563-.1151-60.2622,13.3212-4.1204,4.8538-8.0603,13.1466-3.7521,17.4309,4.1552,4.132,12.8503,1.4201,29.5633,3.4895,13.2706,1.6431,14.7428,4.2143,25.4981,6.2056,26.0146,4.8166,56.2801-3.0265,57.032-9.4548.3012-2.5762-4.2925-3.6016-15.548-9.7232-22.6061-12.2953-21.0544-17.3944-32.5312-21.2691Z"/>
      <path class="cls-13" d="M2314.1519,2175.6709c-10.3784-3.504-25.8856-.061-31.9287,7.058-2.1831,2.5717-4.2706,6.9655-1.988,9.2354,2.2016,2.1893,6.8085.7524,15.6635,1.8489,7.0312.8706,7.8112,2.2328,13.5097,3.2879,13.7833,2.552,29.8189-1.6035,30.2173-5.0094.1596-1.365-2.2743-1.9082-8.2378-5.1517-11.9774-6.5144-11.1552-9.2161-17.236-11.269Z"/>
      <path class="cls-13" d="M2242.1654,1960.0884c-3.2584,1.1063-5.4235,2.8508-4.8358,3.8963.5877,1.0456,3.7057.9963,6.9641-.11,3.2584-1.1063,5.4235-2.8508,4.8358-3.8963-.5877-1.0456-3.7057-.9963-6.9641.11Z"/>
      <path class="cls-13" d="M2141.3841,1917.8416c-.7623-.2341-8.8264,7.5873-8.9751,17.5134-.1351,9.0159,6.3158,16.0322,7.127,15.8039.7775-.2188-3.9748-6.9925-3.3342-17.0916.6187-9.7524,5.8488-16.0209,5.1824-16.2256Z"/>
      <path class="cls-13" d="M2146.6379,1954.1959c-.9892.3358-1.1757,1.7029-.4165,3.0534.7591,1.3505,2.1764,2.1731,3.1656,1.8372.9892-.3358,1.1757-1.7029.4165-3.0534-.7591-1.3505-2.1764-2.1731-3.1656-1.8372Z"/>
      <path class="cls-13" d="M2095.207,1735.1262c-1.862.6322-3.6096.7209-3.9035.1981-.2939-.5228.9773-1.4591,2.8393-2.0912,1.862-.6322,3.6096-.7209,3.9035-.1981.2939.5228-.9773,1.4591-2.8393,2.0912Z"/>
      <path class="cls-13" d="M2160.9801,1784.1864c-2.8208.8504-4.9098,3.7957-3.9767,5.2016.7314,1.102,3.0299.8226,7.6126,1.2667,8.3339.8079,11.4997,2.776,12.0925,2.0942,1.1506-1.3233-9.2199-10.5246-15.7284-8.5625Z"/>
      <path class="cls-13" d="M2079.2855,1846.0132c.9646.2778.8773,2.1364-.195,4.1512-1.0723,2.0149-2.7235,3.423-3.6881,3.1452-.9646-.2778-.8773-2.1364.195-4.1512,1.0723-2.0149,2.7235-3.423,3.6881-3.1452Z"/>
      <path class="cls-13" d="M2083.4373,1839.3053c.6691-.2272,1.4697.0478,1.788.6141.3183.5663.034,1.2096-.6352,1.4368-.6691.2272-1.4697-.0478-1.788-.6141-.3183-.5663-.034-1.2096.6352-1.4368Z"/>
      <path class="cls-13" d="M2063.0422,1659.1557c-.4744-.2094-17.0222,13.9285-11.4734,20.0995,3.0924,3.4391,12.0744,3.322,12.4375,2.5407.2977-.6411-5.4232-1.2643-7.8959-4.5053-4.953-6.4921,7.353-17.949,6.9318-18.1348Z"/>
      <path class="cls-13" d="M1983.037,1557.3915c-8.7352,3.1124-8.6793,12.8398-8.249,12.9458.389.0957,1.4498-7.5825,8.4857-10.349,7.9389-3.1216,18.1518,2.107,18.4218,1.6361.2765-.4825-9.5937-7.4627-18.6584-4.233Z"/>
      <path class="cls-13" d="M2008.8597,1564.8282c-.7419.2519-.9264,1.1977-.4121,2.1126.5143.9149,1.5326,1.4523,2.2744,1.2004.7419-.2519.9264-1.1977.4121-2.1126-.5143-.9149-1.5326-1.4523-2.2744-1.2004Z"/>
      <path class="cls-13" d="M1890.7169,1525.0748c3.7044,2.3793-2.4025,11.4373-3.1245,12.508-3.592,5.3277-9.4265,10.3456-11.1224,9.6891-.8407-.3255-.4856-1.976.0445-4.4393.7892-3.6684,1.8938-4.7783,3.0801-8.0686,1.9636-5.4463.5646-6.9185,2.8563-8.6011,2.2506-1.6523,6.3983-2.2876,8.266-1.0881Z"/>
      <path class="cls-13" d="M2059.9608,1707.6502c-.4831-.1328-3.325,2.3666-2.7205,4.8691.7892,3.2672,6.9553,4.4768,7.2347,4.1662.2393-.2661-3.9154-1.5665-4.8893-4.6806-.7305-2.3359.7817-4.2428.3752-4.3546Z"/>
      <path class="cls-13" d="M2089.3625,1714.9253c-4.575-.3349-8.6646,1.1167-8.5933,1.453.0582.275,2.8747-.2965,7.6144-.0137,5.5752.3327,8.7196,1.5433,8.8869,1.245.1842-.3284-3.316-2.3483-7.9079-2.6844Z"/>
      <path class="cls-13" d="M2157.5109,2057.9143c-5.2636,1.7871-5.5413,7.1102-5.7298,10.1179-.2541,4.0507,1.1887,9.964,4.5777,10.3758,2.4808.3014,4.9833-2.4689,8.8673-6.7682,4.6143-5.1077,7.0819-7.7125,5.7298-10.1179-2.1305-3.7902-8.1502-5.4053-13.445-3.6076Z"/>
      <path class="cls-6" d="M2201.4007,2043.4336c-5.6378-.3475-11.7083-.9027-18.129-1.7492-8.8265-1.1638-16.7984-2.6783-23.8385-4.3024,12.6056-4.4621,27.146-10.4587,42.4358-18.5288,6.5583-3.4618,18.1619-9.6391,31.4867-19.2529l.0022-.0016c10.4457-7.8348,18.9464-18.1586,25.5009-30.9725.1219,1.2291.4214,3.0123,1.248,4.9919.7618,1.8253,1.5577,2.8246,1.7643,3.2049,2.9174,5.3605-36.2935,29.8696-31.5277,37.5707,1.3947,2.2537,5.5725,4.3385,17.0196,4.372-4.9536,3.6765-10.8072,7.5942-17.6347,11.4828-10.1555,5.7835-19.9046,10.0448-28.3276,13.185Z"/>
      <path class="cls-6" d="M2262.0609,2117.0407c1.1485-.5125,21.2583-9.5135,31.6331-15.4695,4.2377-2.4328,7.093-4.3531,7.0937-4.3536s1.8412-1.2383,8.4938-6.1687h0c-.0144-.0018-12.0262-1.5171-14.0659-1.7264-19.475-1.9987-46.4489,20.9948-48.155,19.6711-.849-.6588,6.3321-5.9644,4.7213-7.8835-1.4324-1.7064-9.1119.1049-15.6708,2.0091-4.5441,1.5717-10.2505,3.4644-16.9044,5.4805-11.3791,3.4478-17.0687,5.1719-24.301,6.6538-4.8781.9995-38.1724,7.579-42.4597,8.0518-.4364.0481-2.2062.2132-2.7782,1.0842-.1079.1642-.1474.3144-.1643.406-.017.0699.0005.0987.0214.1115.005.0031.0099.0048.1281.0184,0,0,37.5828,5.439,61.2215,8.8601,5.8435-1.4717,11.908-3.1403,18.153-5.0361,12.182-3.6979,23.1992-7.6974,33.0333-11.7087Z"/>
      <path class="cls-6" d="M2084.1099,1910.1154l-9.1562,6.4465c-.3975-7.9932.1676-18.447,3.75-30.3495,2.3959-7.9607,5.6172-14.8268,8.8205-20.4669,2.4597-4.3308,4.5769-7.4131,7.0301-10.9329,1.5178-2.1777,3.0547-4.2185,5.2053-6.5269.0569-.061.1038-.1112.1352-.1446.0395-.049.1064-.1315.1888-.2332.9407-1.1583,2.4952-3.0653,4.4514-5.1172.5491-.5759,1.6012-1.6577,1.6012-1.6577-1.162,3.249-1.0424,5.1211-1.0424,5.1218.0266.419.0155.6001.0419.8289,0,.0007.0629.4721.2174.9328.4766,1.4222,6.7484,5.6223,6.7494,5.6212h0s-6.0267,7.1627-11.6781,15.3478c-1.0678,1.5465-1.8895,2.7925-2.324,3.4571-2.7902,4.5685-5.5917,9.8819-8.0099,15.8922-3.2696,8.1264-5.0349,15.5298-5.9806,21.7805Z"/>
      <path class="cls-6" d="M2143.0952,1736.3058c-.6381-1.419-1.368-2.4945-1.9353-3.2317-.882-1.1465-3.9997-4.3515-2.9586-3.2862h0c-7.7116.6756-37.1926,3.9531-60.2027,23.2107-15.559,13.0216-20.6349,27.0524-22.441,33.7094,4.7255-2.4105,9.4509-4.821,14.1763-7.2315,3.5457-6.0199,10.0445-14.9637,21.6542-23.4152,19.8373-14.4409,42.2893-18.4854,51.707-19.7556Z"/>
      <path class="cls-6" d="M2072.5685,1561.8576c-30.7669-12.6984-56.6147-14.2059-71.7125-13.907-43.809.8676-76.3898,18.6507-99.4169,30.9358-20.4809,10.927-35.3973,22.0758-45.1352,30.1723,26.4926-29.3759,56.0082-69.005,77.5019-118.565,9.0996-20.98,15.4765-40.7767,19.9505-58.8851.8039,15.6276-.1592,36.2488-6.8431,59.8833-7.6525,27.0596-20.1404,48.6531-30.7588,63.7994,10.1209-6.4223,45.2102-26.9183,91.7795-20.6406,31.9669,4.3094,54.2612,19.2016,64.6346,27.2069Z"/>
      <path class="cls-6" d="M2127.7593,2214.6094c2.8526,3.2948,6.0307,7.6727,8.5147,13.1027,1.0099,2.2075,1.7728,4.2995,2.3524,6.2302,48.5029-4.0584,97.0059-8.1166,145.5088-12.175,12.3319-1.3587,18.4312-2.0306,18.4312-2.0306-4.0743.2553-9.4686.0318-13.8282-2.4818-1.2058-.6952-.8147-.6908-2.1673-1.5331-4.825-3.0053-8.4567-2.2269-23.3535-5.7308-.1484-.0349.1875.0431-.0049-.0011-15.8363-3.6542-23.7546-5.4812-31.3145-6.6055-11.1245-1.6543-36.7268-5.25-67.8504.4919-9.0288,1.6657-21.8421,4.7297-36.2883,10.7332Z"/>
      <path class="cls-6" d="M2078.6558,1703.297c-3.9264-.2783-8.2144-.4539-12.8207-.4566-5.5048-.0031-10.588.2413-15.1705.6173,4.4402-.6859,9.6313-1.7359,15.2734-3.3754,6.3398-1.8423,11.6529-3.9652,15.8925-5.9263,1.2164-.5961,2.8422-1.4272,4.6996-2.4825,5.5448-3.1501,7.6191-5.1537,7.9439-4.9516.6683.4159-6.8381,9.6938-12.2164,11.6389-.4341.157-1.8243.6169-2.7481,1.7022-.9234,1.0849-.9751,2.3181-.8538,3.2339Z"/>
    </g>
    <path class="cls-16" d="M861.3972,1622.9301c-48.1874,21.2384-61.1194,42.0754-62.9971,58.1314-2.4612,21.0452,14.7881,27.7233,12.8691,52.8168-2.6648,34.8405-37.9877,49.013-31.3925,71.6995,3.9878,13.7176,17.8211,11.6975,20.4293,22.5382,7.8872,32.7821-113.2291,73.5944-107.8997,116.8023,1.1965,9.7006,8.4329,16.8205,13.9617,21.1343.2315,0,36.2293.0005,36.4627.0005,102.8392.0022,154.2589.0027,154.3592-.0011,112.0723-4.6045,168.7995-30.6941,192.2515.0011,8.4003,10.9945,12.3436,29.0295,21.7939,28.8731,11.4552-.1899,13.4227-26.8174,25.6153-28.8731,19.841-3.3458,29.6166,64.6368,69.0587,75.1807,34.901,9.3294,74.5904-31.2433,80.2671-37.0462,26.7659-27.3612,22.0518-46.2456,40.205-61.3293,36.8614-30.6293,109.4536,3.0663,147.0847,17.0795,64.8164,24.1363,163.0247,40.9391,307.7688,6.1147-85.43-104.4088-97.1335-150.7299-89.7378-173.3453,1.7438-5.3329,8.4801-21.3674,1.1595-33.4371-7.7124-12.7146-24.1142-9.6337-39.9307-27.5312-4.727-5.3491-9.5301-10.784-10.2315-18.655-1.3872-15.5688,14.8879-22.5484,16.3846-34.0803,1.3694-10.5536-9.3796-26.9086-63.6785-52.1515-12.9056-4.3461-32.4935-9.7961-56.7312-11.9122-52.4137-4.5765-71.4918,11.2448-128.1281,15.8078-55.562,4.4767-54.2431-9.3774-113.1407-5.4883-51.8418,3.4229-51.2988,14.0532-109.0034,22.1287-55.1965,7.7248-110.0007,15.3945-168.0644-6.6565-37.1984-14.1266-50.388-30.8257-89.024-32.4476-34.0374-1.4287-59.6017,10.19-69.7115,14.6462Z"/>
    <g>
      <path class="cls-31" d="M382.5585,2242.2896c0-4.9849-129.6376-427.0491-129.6376-427.0491,102.413,35.4275,154.7798,83.9515,183.7901,122.9636,78.577,105.6688,118.4384,159.2736,127.9966,182.7835.0008.0016,1.1565,2.8443,1.9653,2.68,5.1855-1.0533-34.7728-121.3079-8.5291-246.9455,15.1917-72.7278,41.9589-96.4742,52.5116-104.6855,31.6449-24.6241,68.3058-26.9091,86.972-26.5864-4.1,29.6742-6.3433,69.1276,0,114.6554,10.3936,74.5969,38.9417,130.3494,59.0754,162.8437-2.6213-30.6899-9.4313-152.0602,73.8443-259.2209,49.3004-63.4411,108.6389-94.1886,141.1245-108.0082-8.324,7.7581-81.4431,78.1077-67.2805,172.8136,5.2852,35.3418,20.8994,61.8668,32.8198,78.0986,23.2549,16.1811,41.7075,15.7528,49.2294,14.9548,40.3613-4.2829,77.6653-52.3053,82.0494-119.6403,14.5925,21.8908,45.9977,75.6018,45.9475,149.5505-.0295,43.2179-10.7921,77.8189-19.6918,99.7,28.4431-11.43,75.584-35.1716,116.5099-83.0835,79.9234-93.5669,74.1673-206.7578,72.2031-232.6335,15.744,4.7107,62.1929,20.8751,95.1771,68.1281,47.8611,68.5651,27.5923,145.5979,24.6147,156.1971,12.3123-8.8346,54.6061-41.4798,68.9214-101.3616,9.1099-38.1075,2.7999-70.14-1.641-86.4073,13.6917.6261,38.7217,3.8012,63.998,19.9403,49.4374,31.5659,59.1805,86.7775,60.7166,96.3767-3.3862-14.2991-6.5803-35.3429-3.2229-59.8926,5.8131-42.497,25.6802-54.7105,32.7607-84.6724,15.5333-65.7326-53.6138-118.9884-41.0246-132.9335,13.2453-14.6725,108.4008,23.6726,160.8164,104.6849,59.8477,92.499,37.6267,199.8978,29.5373,232.634,15.587-6.7748,90.4705-41.2583,119.7918-124.6253,13.3304-37.9,12.3476-71.9827,9.8463-93.0539,57.9743,19.8735,86.2473,52.6927,98.4588,69.7903,58.5606,81.9919,43.5222,216.552-44.3065,329.0107,21.971-57.1976,72.9765-165.1411,183.7898-250.9122,48.2365-37.3359,95.6738-61.0801,134.561-76.4369-41.5716,151.7661-83.1431,303.5316-124.7147,455.2976l-1768.9801-14.9548Z"/>
      <path class="cls-4" d="M437.4587,2238.4915c1.1144-40.4994-3.5467-97.2058-33.64-152.9777-16.8748-31.2741-34.3142-48.2263-50.4606-67.2973-32.7916-38.7312-73.4555-101.3539-100.4372-202.9759,96.4226,6.8701,153.1525,44.3027,176.8659,62.6145,29.4515,22.7432,54.9942,51.3039,62.1632,60.9964,10.364,14.0116,36.8916,52.2508,62.9032,89.9046,26.6132,38.524,52.6857,76.4362,60.3546,87.1626,1.3985,1.9564,2.1852,3.008,2.251,2.9945,4.3817-.8946-24.6152-90.395-14.9542-194.472,1.3802-14.8679,3.5492-30.0337,6.7172-45.2809,5.8547-28.1781,15.95-50.5113,25.8206-67.2773,6.4698-10.9896,12.9261-22.467,24.8917-34.3592,6.4501-6.4104,15.4134-13.8983,22.0944-19.48,6.3843-5.3335,11.7987-9.6305,15.599-12.5937.8555,32.7605,5.542,76.8501,21.465,126.3314,22.3499,69.4528,57.1211,119.3355,81.8846,149.3471.9995-50.7859,10.1393-150.1084,71.314-251.671,32.3489-53.7054,69.6209-92.0552,99.3804-117.7757-12.4904,22.959-47.516,94.5107-28.0667,180.6934,7.2599,32.1703,20.1326,57.6161,31.6949,75.8239,25.3447,18.9556,43.107,15.5839,47.5427,14.5194,31.4314-7.5402,56.6228-58.2404,45.6472-124.8098,12.7593,10.9718,73.6697,65.6554,77.9634,153.8491,2.0986,43.1005-10.1449,77.3513-19.0171,96.7957,25.4464-9.3283,73.9192-31.361,112.5177-80.6631,76.205-97.3369,47.6476-216.3142,43.5047-232.4101,11.265,1.6942,76.0764,12.5397,118.1401,72.6955,47.489,67.9146,26.57,142.3124,23.7713,151.6482,6.4806-3.7801,58.5706-35.3563,66.5597-98.4095,5.7835-45.6445-15.0875-79.8165-21.3992-89.378,12.6466-.8185,34.499-.3734,58.0041,10.3934,9.6569,4.4233,17.495,9.6283,23.6157,14.4535.0011.0011,39.1537,31.0669,58.0974,91.9268.553,1.7767.7214,2.4199.5385,1.6424-3.2702-13.8827-6.3548-34.3128-3.1121-58.1476,5.6135-41.2596,24.8-53.1173,31.6377-82.2068,15.0012-63.8183-51.7765-115.5225-39.6188-129.0615,12.7917-14.2453,104.6867,22.9828,155.3059,101.636,57.7969,89.8047,36.3378,194.0754,28.5256,225.8583,12.4615-5.122,88.5891-37.8831,115.6865-120.9957,14.1109-43.2802,8.8039-81.4341,4.5393-101.0787,23.0022,15.5051,60.547,45.3634,82.5866,94.2631,59.5304,132.0798-35.297,320.2411-25.3207,303.658,10.9319-18.1705,97.2759-144.3977,199.2654-237.1916,26.2735-23.9049,64.7506-56.0217,115.972-89.2776.1397.3788.3674.9971.6399,1.7595,26.1424,73.1682-14.5733,125.3359-15.9994,212.6943-.7807,47.8281,11.2502,42.827,8.205,76.7718-6.6581,74.2203-66.9493,129.0588-117.5604,164.072-571.3597-4.9045-1142.7199-9.8096-1714.0798-14.7147Z"/>
      <path class="cls-14" d="M1986.752,1873.6908c0-38.4889-57.3775-55.5311-61.5369-50.6808-2.1036,2.4531,9.1006,10.7587,10.6665,28.2486,1.2483,13.9435-5.3483,24.9926-8.2051,29.9097-23.406,40.2847-101.6111,73.0279-100.1,77.2677,1.1014,3.09,45.3473-6.7064,97.6385-34.0643,39.4214-20.6246,61.5369-32.275,61.5369-50.6808Z"/>
      <path class="cls-14" d="M946.5738,1912.2332c3.7621-1.0905,7.1593,24.901,29.5376,38.6339,20.5434,12.6068,44.1016,6.9165,46.7679,6.2312,38.7744-9.9661,53.6859-55.7698,57.8447-68.5441,7.1422-21.9387,5.4989-36.8073,6.1539-36.7642,1.5923.1056,16.8896,88.3529-25.2303,125.2481-25.4368,22.2819-72.9805,26.8563-98.4588,3.1159-24.9002-23.2017-21.3272-66.5548-16.615-67.9207Z"/>
      <path class="cls-14" d="M741.1442,1975.7977c21.2122,46.2384,42.0204,84.4213,25.358,105.5621-16.8286,21.3514-66.4909,19.6332-80.0243-1.298-12.0409-18.623,13.4422-38.6516,16.7164-86.4127,4.1271-60.204-31.5845-102.6332-25.358-105.5621,10.4795-4.93,38.8236,34.3397,63.3079,87.7107Z"/>
      <ellipse class="cls-14" cx="904.9338" cy="1810.8711" rx="9.2305" ry="21.1863"/>
      <path class="cls-14" d="M1133.2356,1988.2122c-1.9395,36.1101-25.5879,62.4912-27.4864,61.5241-1.8115-.9224,16.9837-26.3337,18.4611-65.2208,1.2962-34.1188-11.5383-57.565-9.846-58.1582,1.8823-.6595,20.7267,27.3094,18.8713,61.8549Z"/>
      <path class="cls-14" d="M1413.7133,1840.3653c19.3603,62.4568-36.5215,129.1371-48.075,131.0531-6.3316,1.0501,37.1299-63.1707,17.1003-124.4501-12.494-38.2244-66.4382-40.92-68.4881-74.945-.3044-5.0534.6566-7.1347,1.9546-8.3023,11.438-10.2889,80.5686,21.9974,97.5082,76.6443Z"/>
      <path class="cls-14" d="M1325.8461,1866.7448c3.7305,1.2365-1.1999,91.944-63.5394,138.7094-30.7646,23.0788-68.5719,30.2507-69.9957,27.0422-1.3398-3.0194,30.0745-14.0233,60.25-40.0256,61.4538-52.9551,69.8853-126.8532,73.2851-125.726Z"/>
      <path class="cls-14" d="M1646.8634,1861.0203c-11.2188-16.4236-2.9877-40.0649,4.9229-62.3124,10.3997-29.2475,17.8957-28.7259,20.5123-45.6959,5.5784-36.1786-24.5692-63.9832-20.5123-67.2978,4.5653-3.7301,49.8274,23.4985,61.5369,70.6211,13.3733,53.8182-21.108,117.1732-46.3577,117.5633-10.9632.1692-19.1927-11.5469-20.102-12.8783Z"/>
      <path class="cls-14" d="M1598.8645,1891.3459c-3.1202,5.5038-15.4731,6.215-24.6147,2.0771-14.82-6.708-15.4018-23.5352-25.8454-46.5267-17.7914-39.1673-46.1313-56.4384-43.4863-59.405,2.3353-2.6196,23.5902,11.7873,39.7938,26.5869,11.3979,10.4101,19.906,21.8951,36.9222,44.865,17.1851,23.1979,19.3013,28.7502,17.2304,32.4027Z"/>
      <ellipse class="cls-14" cx="1514.1488" cy="1847.1039" rx="13.0821" ry="5.5398" transform="translate(-533.5458 3076.4885) rotate(-81.6366)"/>
      <path class="cls-14" d="M2085.7107,2010.6139c-34.5879,54.3366-56.0853,73.3566-52.3958,77.64,4.9279,5.7215,53.2259-16.6596,85.5617-61.2105,19.9533-27.491,14.8346-37.254,36.281-73.3852,32.8347-55.3166,71.6053-77.5355,68.9214-81.0064-3.3048-4.2743-65.7193,24.734-107.0743,84.7457-12.1029,17.5626-10.165,20.0238-31.294,53.2164Z"/>
      <path class="cls-14" d="M423.5104,1906.8323c28.9637,26.2744,36.4728,80.7764,15.5891,112.1629-7.5442,11.3384-22.7316,25.5783-35.2809,22.4328-12.1034-3.034-12.6281-19.9527-29.5378-45.6959-13.4267-20.4409-20.1326-20.4856-32.4547-36.4383-29.8047-38.5859-35.1168-95.9904-21.6371-103.2173,5.4023-2.896,11.047,3.7549,32.7591,16.6919,43.6084,25.9835,53.5925,18.6693,70.5624,34.0638Z"/>
      <path class="cls-13" d="M384.2966,1897.7139c15.3459,13.921,19.3244,42.7978,8.2596,59.4273-3.9972,6.0074-12.0439,13.5522-18.6929,11.8856-6.4128-1.6075-6.6907-10.5716-15.6501-24.2111-7.1139-10.8302-10.6669-10.8539-17.1955-19.3061-15.7914-20.444-18.6059-50.8586-11.464-54.6877,2.8623-1.5344,5.853,1.9894,17.3568,8.8439,23.1051,13.7668,28.3949,9.8916,37.3861,18.048Z"/>
      <ellipse class="cls-13" cx="903.4979" cy="1816.2715" rx="4.9229" ry="11.6317"/>
      <path class="cls-13" d="M1075.3909,1943.8045c1.0764,1.0442-10.024,21.6731-31.5888,31.1564-19.5872,8.6137-39.6909,4.4634-39.7938,2.9079-.0987-1.4909,18.2161.0733,39.7938-10.3853,20.8371-10.0997,30.6475-24.5918,31.5888-23.679Z"/>
      <ellipse class="cls-13" cx="985.7522" cy="1968.9375" rx="6.3588" ry="3.531"/>
      <ellipse class="cls-13" cx="1511.0719" cy="1850.2196" rx="2.4615" ry="6.6467"/>
      <path class="cls-13" d="M1352.7171,1786.9846c.2344,5.4612-4.6483,11.6606-8.4102,11.4241-2.9486-.1853-4.0425-4.2506-8.4099-11.4241-7.9428-13.0453-14.5875-16.4548-13.5382-18.0707,2.0366-3.1363,29.8175,5.4699,30.3583,18.0707Z"/>
      <ellipse class="cls-13" cx="1271.7504" cy="1986.3777" rx="9.289" ry="3.4056" transform="translate(-1036.1647 1499.9898) rotate(-45.4704)"/>
      <ellipse class="cls-13" cx="1287.1803" cy="1966.6527" rx="2.6666" ry="2.3887"/>
      <path class="cls-13" d="M1698.3491,1832.7723c.809.5905-17.7946,41.1425-35.3836,37.6991-9.8024-1.9192-16.2058-16.8983-14.7689-18.2264,1.1791-1.0894,6.7815,7.8018,15.6918,8.8794,17.8484,2.1584,33.7427-28.8763,34.4607-28.352Z"/>
      <path class="cls-13" d="M1979.8804,1870.5233c-.3201,17.3579-21.6028,26.3175-22.1532,25.7038-.4975-.555,15.4825-9.4564,16.3072-23.679.9306-16.0481-18.0586-28.0902-17.2304-28.9754.8487-.9068,23.4084,8.9381,23.0764,26.9506Z"/>
      <ellipse class="cls-13" cx="1940.189" cy="1834.6933" rx="4.3076" ry="2.6483"/>
      <path class="cls-13" d="M2118.8937,1993.2892c-7.942-3.9187-23.1937,14.6208-24.9965,16.8126-8.9707,10.9047-15.6024,25.2335-12.9114,27.4301,1.3339,1.0889,4.6749-1.035,9.6609-4.2048,7.4253-4.7204,9.0301-7.5819,15.3353-12.6078,10.4369-8.319,14.6888-7.3729,16.664-12.7328,1.9395-5.2635.2517-12.7215-3.7523-14.6973Z"/>
      <path class="cls-13" d="M1594.7392,1883.0021c.6481.6762-2.7027,7.7069-8.6153,9.0351-7.7195,1.7338-14.9323-7.3486-14.4611-8.1003.4036-.6439,6.3236,5.0243,13.8457,3.7387,5.6423-.9644,8.6853-5.2425,9.2307-4.6735Z"/>
      <path class="cls-13" d="M1557.0548,1841.0967c4.1232,7.2624,3.9853,15.3837,3.1981,15.5788-.6436.1595-1.4837-5.0351-5.6154-12.6186-4.8598-8.9203-9.8346-12.9995-9.3073-13.554.5805-.6105,7.5863,3.3044,11.7246,10.5938Z"/>
      <path class="cls-13" d="M757.5663,2047.4561c0,10.3772-11.4178,15.7905-17.8457,18.9015-8.6568,4.1902-22.639,7.3045-26.0508,2.0771-2.4974-3.8265,1.6966-10.5475,8.2051-20.9786,7.7323-12.3923,11.5908-18.9015,17.8457-18.9015,9.8559,0,17.8457,8.4629,17.8457,18.9015Z"/>
      <path class="cls-6" d="M756.6479,1961.3194c4.938,9.0103,10.6506,18.5432,17.2594,28.3849,9.0854,13.5297,18.3039,25.318,27.0697,35.462.3972-25.0212,2.7113-54.6738,8.9982-87.4962,2.6969-14.0798,7.5828-39.038,18.6976-70.0446.0005-.0016,6.6333-18.505,39.369-86.819h0c-2.2819,3.7328-6.1834,10.2156-10.7724,18.415-23.2049,41.4625-41.786,87.1579-58.6673,87.1579h-.0003c-5.9546-.2123-13.6052-5.1881-22.1642-24.1079-4.3565,11.6224-8.5709,24.9587-11.9999,39.8801-5.1006,22.1952-7.1773,42.3004-7.7898,59.1679Z"/>
      <path class="cls-6" d="M550.9435,1929.392c.2676-2.3782,5.0133-44.0472,10.3273-66.7655,2.1707-9.2797,4.2469-15.7937,4.2474-15.7954s1.339-4.2005,7.1731-19.8024h0c.0146.0221,12.229,18.498,14.1983,21.6801,18.8029,30.3817-11.4082,96.4354-7.2529,98.0281,2.068.7926,8.3296-16.0335,13.7143-15.1526,4.788.7834,6.5263,15.1827,7.2311,27.8132-.0631,8.9855.0346,20.1941.5653,33.0859.9075,22.047,1.3611,33.0708,3.487,46.4232,1.434,9.006,11.7509,70.2488,13.8971,77.7866.2184.7672,1.1701,3.8508-.3078,5.6083-.2785.3314-.5773.5366-.7649.6498-.1399.0932-.2158.0911-.2594.0684-.0104-.0054-.0178-.0119-.1352-.195,0,0-39.7404-57.1582-64.7363-93.1094-1.1187-11.0437-1.9711-22.6365-2.4614-34.7394-.9567-23.609-.3914-45.5703,1.0769-65.5839Z"/>
      <path class="cls-6" d="M1134.7246,2031.4341l-7.2886,21.1575c17.7489-6.7802,40.1573-17.4441,63.492-34.4512,15.607-11.3745,28.2119-23.0971,38.1529-33.6489,7.6333-8.1024,12.7943-14.4758,18.6614-21.8126,3.6299-4.5394,6.9469-8.9828,10.3933-14.6914.091-.1509.1657-.2753.2155-.3583.0777-.111.2083-.2985.3693-.5296,1.832-2.6353,4.8436-6.9833,7.8738-12.1315.8505-1.4451,2.4327-4.1935,2.4327-4.1935-6.2332,4.9472-10.4098,6.4914-10.4114,6.492-.9346.3459-1.322.5329-1.841.7021-.0016.0005-1.0775.3351-2.1981.5081-3.4588.5345-17.2804-5.9402-17.2785-5.9429h0c.0008.0005-11.1725,16.6429-24.856,33.6161-2.5854,3.2069-4.697,5.7269-5.8261,7.0647-7.9074,8.8707-17.4328,18.4532-28.7644,28.0497-15.321,12.9753-30.1787,22.7873-43.1269,30.1699Z"/>
      <path class="cls-6" d="M1470.5304,1772.0365c3.6414-.4905,6.5809-.1635,8.4915.1964,3.6393.6852,5.4209,1.8404,5.8374,2.1194,1.3203.8832,2.2364,1.8625,2.8192,2.5839,3.4909,9.8911,7.4572,24.2092,8.6512,41.7889.6464,9.515,1.9003,41.0028-13.9884,76.6154-16.8988,37.8766-43.7739,59.3367-56.9714,68.5216,1.76-10.0664,3.5206-20.1329,5.2806-30.1988,10.5164-11.4725,25.2284-30.5543,35.0763-57.6393,16.8265-46.2801,9.0121-87.2143,4.8036-103.9874Z"/>
      <path class="cls-6" d="M1903.7502,1730.4949c51.8355,37.5401,74.1141,79.8049,83.5353,101.7426,30.3221,70.6087,16.8789,138.8964,6.1536,193.3773-8.6768,44.0752-21.962,79.1449-32.4228,102.8013,46.6743-72.2575,111.8046-156.7537,201.444-238.6432,38.9313-35.5654,77.3503-65.9476,113.793-91.8643-35.5004,14.971-79.4893,37.386-125.69,71.0937-52.0186,37.9523-90.0831,77.9935-116.5099,110.2933,3.4288-10.9974,28.0634-94.9047-22.974-171.152-36.8759-55.0909-91.0042-72.9396-107.3292-77.6487Z"/>
      <path class="cls-6" d="M437.4587,2242.5295h-54.9003c-12.5524-41.2968-25.1048-82.5936-37.6573-123.8904-13.0027-42.7784-26.0056-85.5568-39.0083-128.3353-3.0768-10.8008-6.1536-21.6015-9.2304-32.4023,2.4625,6.9818,6.95,15.7048,15.6713,20.5828,2.4118,1.3494,2.1123.7063,4.9544,2.1614,10.1398,5.1916,11.1323,11.9279,29.8281,33.3298.1861.2131-.2334-.2703.0062.007,19.7201,22.8171,29.5804,34.2265,37.6403,45.6958,11.8599,16.8772,38.6929,55.9171,49.2293,112.7864,3.0566,16.4979,5.8655,40.5619,3.4666,70.0647Z"/>
      <path class="cls-6" d="M1590.3846,1848.0008c3.5187,6.2414,7.0813,13.1768,10.5021,20.8002,4.088,9.1105,7.3229,17.7533,9.8992,25.6898-1.7942-7.9893-3.35-17.5605-3.9529-28.4269-.6773-12.2102.0192-22.9818,1.1584-31.8256.3999-2.5684,1.0094-6.0334,1.9365-10.0906,2.7679-12.1111,5.605-17.4096,4.9229-17.7593-1.4036-.7193-16.0981,20.3417-16.358,31.0557-.021.8648.0053,3.5943-1.6795,6.1337-1.6843,2.5383-4.3389,3.7716-6.4287,4.423Z"/>
    </g>
    <ellipse class="cls-25" cx="1344.5819" cy="1582.1655" rx="26.208" ry="13.2968"/>
    <circle class="cls-25" cx="1348.6176" cy="1555.0876" r="8.8819"/>
    <ellipse class="cls-11" cx="1352.6419" cy="1580.9327" rx="18.148" ry="9.984"/>
    <ellipse class="cls-11" cx="1351.7267" cy="1552.8329" rx="3.1091" ry="4.0758"/>
    <ellipse class="cls-25" cx="740.2102" cy="1585.2851" rx="18.72" ry="9.984" transform="translate(-384.3485 244.9837) rotate(-14.9687)"/>
    <ellipse class="cls-25" cx="749.0906" cy="1560.519" rx="8.528" ry="5.408" transform="translate(-377.6503 246.4371) rotate(-14.9687)"/>
    <ellipse class="cls-11" cx="736.8779" cy="1591.3434" rx="7.072" ry="4.992" transform="translate(-386.0264 244.3286) rotate(-14.9687)"/>
  </g>
  <g>
    <ellipse class="cls-27" cx="912.1538" cy="422.7532" rx="6.1574" ry="9.9769" transform="translate(33.7045 911.7027) rotate(-53.9667)"/>
    <path class="cls-38" d="M840.142,371.0236c-10.3315,26.316,37.9342,91.7094,135.6153,155.1997,39.3267,25.561,81.0225,43.7769,162.8116,79.1648,0,.001,107.7161,46.6073,232.9922,76.3103,29.5056,6.9955,82.0144,18.2467,120.8943-9.7797,5.4277-3.9128,9.4262-7.7525,11.9359-10.3594,17.8952-18.5828,25.9443-37.6741,30.3069-49.1777,12.5503-33.0968,11.7472-64.0817,10.0792-81.1853,4.1391,21.7214-3.8502,42.5019-19.2088,51.6026-2.4249,1.4369-17.2827,10.239-29.7156,5.0771-5.289-2.1957-9.432-6.6257-17.7161-7.2295-4.1334-.3014-7.5849.4748-9.8115,1.1566-2.6811.3168-8.2706.7743-15.2834,1.4176-76.1091,6.983-254.8282-69.623-254.8282-69.623h-.0019s-188.2089-84.3017-247.8153-138.3176c-1.198-1.0853-4.0814-3.8271-8.4516-7.7525-2.6888-2.4143-6.6758-5.9814-11.6875-10.1504-.9592-.7974-19.465-16.1791-21.6703-18.2487-.782-.7338-1.4946-1.4966-1.4946-1.4966-.0019-.001-.6279-.6712-1.2192-1.38-3.6557-4.3828-5.3121-7.7409-6.5159-9.6005-1.5216-2.3517-4.3722-5.3064-10.2217-7.5772-3.0721-.8976-8.1801-2.9296-10.3739-7.5801-1.8452-3.908-.8051-7.9133-.3987-9.5745,2.0089-8.2061,3.8156-21.4325,5.5856-41.091l-11.9109,26.031h0c-.965,2.0031-1.6564,3.83-1.9819,4.6948-.7974,2.1216-2.2689,5.5384-5.2178,20.1169v.001c-.2042,1.3126-.7107,3.0933-1.5293,5.4161-2.5713,7.2921-8.1993,19.9378-17.0824,40.2801-4.3086,9.8702-5.4373,12.0101-6.0845,13.6549Z"/>
    <rect class="cls-21" x="1085.4584" y="498.8112" width="132.9937" height="107.5819" rx="22.2903" ry="22.2903" transform="translate(310.8716 -409.1402) rotate(23.2015)"/>
    <ellipse class="cls-3" cx="1131.885" cy="605.1162" rx="28.9044" ry="6.8502" transform="translate(129.7828 1407.064) rotate(-66.7985)"/>
    <ellipse class="cls-22" cx="1114.7052" cy="645.1966" rx="23.5579" ry="27.5678" transform="translate(82.5323 1415.5637) rotate(-66.7985)"/>
    <path class="cls-23" d="M1053.3687,635.4846l128.1889,54.9459c20.9061-20.7886,51.5702-16.8911,62.3637-1.9766,10.1868,14.076,5.6278,42.0461-17.4912,56.7532,4.0303,27.2318-11.8541,49.7194-28.421,52.7519-18.6374,3.4114-45.067-16.5315-45.6565-48.9611-38.5133-16.508-77.0266-33.0161-115.5398-49.5241-21.295,23.0955-54.8446,20.0743-67.7126,3.4432-11.8667-15.3369-8.3122-45.0482,14.8104-61.6616-8.3925-16.2488-5.4184-35.1138,6.3129-45.8237,10.6111-9.6872,25.5122-10.0782,35.9253-6.4737,17.073,5.91,28.6786,24.8453,27.2198,46.5266Z"/>
    <path class="cls-10" d="M1057.6189,626.1239l128.1889,54.9459c20.9061-20.7886,51.5702-16.8911,62.3637-1.9766,10.1868,14.076,5.6278,42.0461-17.4912,56.7532,4.0303,27.2318-11.8541,49.7194-28.421,52.7519-18.6374,3.4114-45.067-16.5315-45.6565-48.9611-38.5133-16.508-77.0266-33.0161-115.5398-49.5241-21.295,23.0955-54.8446,20.0743-67.7126,3.4432-11.8667-15.3369-8.3122-45.0482,14.8104-61.6616-8.3925-16.2488-5.4184-35.1138,6.3129-45.8237,10.6111-9.6872,25.5122-10.0782,35.9253-6.4737,17.073,5.91,28.6786,24.8453,27.2198,46.5266Z"/>
    <path class="cls-9" d="M1241.9575,711.3411c-2.9538,2.1919-7.9125,3.85-11.0604,3.9047-7.8587.1369-2.2446-9.7579-1.9549-22.1709.1125-4.818-.6069-8.7767-1.5657-11.9354-1.9817-6.5284-4.6604-9.0317-3.8958-9.8185,1.4922-1.5356,15.1,4.6004,20.4408,17.1327,2.5622,6.0123,3.6551,14.5141.2779,20.095-.8859,1.464-1.9145,2.5494-2.2418,2.7923Z"/>
    <ellipse class="cls-9" cx="1003.7514" cy="602.0997" rx="14.1253" ry="8.0197" transform="translate(54.9021 1287.4652) rotate(-66.7985)"/>
    <ellipse class="cls-9" cx="1006.2321" cy="622.0758" rx="3.258" ry="5.5136" transform="translate(38.0449 1301.8514) rotate(-66.7985)"/>
    <path class="cls-9" d="M1139.1489,721.1389c10.0143,4.491,13.3149,14.1925,15.8543,13.2496,1.8913-.7022,2.559-7.0114.3446-12.0516-4.8892-11.1286-22.2983-12.5883-36.0588-14.8906-44.9512-7.5207-70.0442-27.2237-71.1457-24.8577-1.6228,3.4857,57.5788,36.0738,79.3061,36.3539,1.8558.024,6.47-.1488,11.6994,2.1964Z"/>
    <ellipse class="cls-9" cx="1011.0286" cy="615.3009" rx="2.8739" ry="1.6982" transform="translate(-111.9313 989.1127) rotate(-49.7358)"/>
    <path class="cls-9" d="M982.4672,665.9285c-4.9361,12.9887,7.3869,27.298,6.2155,28.0143-1.3222.8085-19.7829-15.7349-14.3243-28.4986,3.3476-7.8275,14.405-11.2268,15.3574-9.9592.7214.9602-4.8013,4.0038-7.2486,10.4435Z"/>
    <ellipse class="cls-9" cx="1218.1746" cy="699.8175" rx="5.7642" ry="3.7592" transform="translate(95.0348 1543.7671) rotate(-66.7985)"/>
    <ellipse class="cls-9" cx="1112.7157" cy="663.3028" rx="4.0583" ry="51.7523" transform="translate(64.6848 1424.7081) rotate(-66.7985)"/>
    <path class="cls-33" d="M1241.2567,706.8622c-2.4159,1.7927-6.4714,3.1488-9.046,3.1936-6.4274.112-1.8358-7.9807-1.5989-18.133.092-3.9405-.4964-7.1783-1.2806-9.7616-1.6208-5.3394-3.8116-7.3868-3.1863-8.0303,1.2205-1.2559,12.3499,3.7625,16.718,14.0124,2.0955,4.9173,2.9894,11.8707.2273,16.4352-.7246,1.1973-1.5658,2.0851-1.8335,2.2837Z"/>
    <circle class="cls-33" cx="1216.971" cy="700.4261" r="1.9525"/>
    <ellipse class="cls-33" cx="1114.5623" cy="662.0764" rx="1.8547" ry="19.8013" transform="translate(66.9311 1425.662) rotate(-66.7985)"/>
    <ellipse class="cls-33" cx="1002.8987" cy="601.5445" rx="7.2679" ry="2.4226" transform="translate(54.8955 1286.345) rotate(-66.7985)"/>
    <ellipse class="cls-33" cx="1005.7573" cy="622.8305" rx="1.647" ry="3.5785" transform="translate(37.0635 1301.8724) rotate(-66.7985)"/>
    <circle class="cls-33" cx="1010.889" cy="615.8871" r="1.5973"/>
    <path class="cls-33" d="M977.2605,663.9029c-.8869,2.0002-1.0248,4.489-.4335,4.7222.4749.1873,1.2792-1.1363,3.1209-3.5703,4.0401-5.3394,5.8879-6.5271,5.57-6.9515-.5174-.6905-6.2673,1.3113-8.2574,5.7996Z"/>
    <rect class="cls-15" x="1088.5325" y="528.6084" width="61.8884" height="19.0468" rx="9.5234" ry="9.5234" transform="translate(302.544 -397.515) rotate(23.2015)"/>
    <path class="cls-32" d="M1260.0755,537.9623c2.9642,3.3903,8.9251,11.2211,10.0139,22.4966.3853,3.9898.0738,7.5135-.4392,10.3548-10.329,24.0976-20.6581,48.1953-30.9871,72.2929.7867,1.4055,4.4874,7.6578,12.4916,10.2382,7.836,2.5263,14.3619-.2187,15.8665-.8983,11.2179-26.1714,22.4358-52.3427,33.6537-78.5141-.0665-3.4599-.7223-12.1119-6.9357-19.8783-2.5336-3.1671-5.2996-5.3219-7.5406-6.7524-8.7077-3.1131-17.4153-6.2263-26.1231-9.3393Z"/>
    <path class="cls-12" d="M1286.0815,564.9627c-1.0187,2.7245-5.1187,4.5954-7.2398,3.5317-1.7065-.8557-1.5045-3.2961-2.4347-7.6786-1.8574-8.7509-5.4825-12.3055-4.6174-12.9768,1.6647-1.2919,16.7323,10.597,14.292,17.1236Z"/>
    <ellipse class="cls-12" cx="1276.8731" cy="606.006" rx="22.0542" ry="3.4229" transform="translate(216.8325 1540.8654) rotate(-66.7985)"/>
    <path class="cls-12" d="M1266.173,650.9758c-.0123.346-6.9515,1.8859-13.8261-1.1784-6.5692-2.9282-10.0656-8.7174-9.841-8.9443.2051-.2073,3.4184,4.314,9.8133,7.2965,7.3354,3.4212,13.8656,2.4902,13.8537,2.8262Z"/>
    <ellipse class="cls-30" cx="1247.4497" cy="639.0638" rx="1.7543" ry="2.9725" transform="translate(168.6167 1533.8558) rotate(-66.7985)"/>
    <ellipse class="cls-30" cx="1276.004" cy="608.7237" rx="8.2703" ry="1.629" transform="translate(213.8079 1541.7137) rotate(-66.7985)"/>
    <path class="cls-30" d="M1284.8749,563.2186c.4737.6503-2.3001,4.8019-4.4702,4.1736-1.8343-.5311-2.2254-4.1846-1.9651-4.2963.2569-.1103,1.6362,3.021,2.2888,2.7988.1887-.0643.1833-.3635.2962-.6909.5543-1.6075,3.4785-2.4954,3.8503-1.9852Z"/>
    <ellipse class="cls-35" cx="1247.6041" cy="639.5162" rx=".6265" ry="1.3784" transform="translate(168.2944 1534.2719) rotate(-66.7985)"/>
    <ellipse class="cls-19" cx="1037.5051" cy="502.9961" rx="12.4473" ry="20.1685" transform="translate(64.019 1120.8525) rotate(-58.2674)"/>
    <ellipse class="cls-19" cx="968.9498" cy="454.8713" rx="9.9" ry="16.0412" transform="translate(10.3937 931.2552) rotate(-51.5741)"/>
    <ellipse class="cls-19" cx="919.8088" cy="412.8424" rx="6.1574" ry="9.9769" transform="translate(44.871 913.8124) rotate(-53.9667)"/>
    <ellipse class="cls-26" cx="1032.945" cy="500.1762" rx="12.4473" ry="20.1685" transform="translate(64.2557 1115.6374) rotate(-58.2674)"/>
    <ellipse class="cls-26" cx="966.7261" cy="452.0233" rx="9.9" ry="16.0412" transform="translate(11.7831 928.4352) rotate(-51.5741)"/>
    <path class="cls-17" d="M1140.6338,543.3996c-.2475.3612-7.0723-5.2858-18.9956-10.3105-11.2592-4.7447-19.4819-5.739-19.3956-6.1452.0939-.4424,10.0181-.0485,20.7707,4.5531,10.7763,4.6117,17.881,11.5227,17.6205,11.9026Z"/>
    <ellipse class="cls-17" cx="1133.5952" cy="548.3711" rx="1.441" ry="4.5114" transform="translate(182.975 1374.2465) rotate(-66.7985)"/>
    <path class="cls-17" d="M1212.2263,578.4361c-8.2291,20.8638-15.5038,33.2985-14.8504,33.6519.6643.3592,9.296-11.8944,16.2346-27.8519,9.8821-22.727,12.1941-43.4558,11.354-43.6646-.713-.1771-3.5118,14.4727-12.7381,37.8646Z"/>
    <ellipse class="cls-17" cx="1163.0116" cy="497.1295" rx="1.5512" ry="26.9412" transform="translate(247.8998 1370.2297) rotate(-66.7985)"/>
    <ellipse class="cls-17" cx="1196.5021" cy="515.0526" rx="2.1302" ry="2.8821" transform="translate(251.7225 1411.8736) rotate(-66.7985)"/>
    <path class="cls-17" d="M1094.3027,528.1887c-1.4736,3.9595.5873,7.6239.1192,7.7767-.5614.1833-4.4942-4.7704-2.7857-9.1922,1.7966-4.65,8.5826-5.4789,8.8703-4.9234.2523.487-4.5568,1.9136-6.2037,6.3389Z"/>
    <path class="cls-24" d="M1467.4629,663.7041c-.2919-2.3934-39.7299,8.8523-92.5914-3.6044-42.5173-10.0191-68.4509-29.4176-69.5987-27.3985-1.2159,2.139,25.9418,27.3337,65.0827,37.774,50.7176,13.5282,97.4268-4.1521,97.1074-6.7711Z"/>
    <ellipse class="cls-26" cx="917.8471" cy="411.4154" rx="6.1574" ry="9.9769" transform="translate(45.2173 911.6385) rotate(-53.9667)"/>
    <path class="cls-24" d="M1242.3517,598.5551c-5.4529,12.7216-12.3485,21.9737-15.4018,20.665-3.9096-1.6758,1.1909-25.4659,4.3451-25.4043,1.5926.0312,1.7513,6.1417,3.8112,6.3758,4.4543.5064,10.0337-27.3491,11.5906-27.0411,1.0103.1999,1.2024,12.4622-4.3451,25.4045Z"/>
    <ellipse class="cls-24" cx="1479.5968" cy="664.4748" rx="8.0819" ry="3.74" transform="translate(-129.4295 460.1027) rotate(-16.9457)"/>
    <ellipse class="cls-20" cx="1476.889" cy="664.7356" rx="4.8049" ry="2.2235" transform="translate(-129.623 459.3248) rotate(-16.9457)"/>
    <path class="cls-20" d="M913.7603,466.9023c.3751-.4041,10.973,10.3551,33.4314,27.0375,16.313,12.1174,24.5248,18.2173,37.3498,24.9132,21.3855,11.1653,37.0412,19.3392,54.8661,19.7392,7.5964.1705,18.2019-.8194,20.5888,4.2337,1.3696,2.8995-.2267,7.2307-2.381,9.4079-13.0592,13.1988-73.14-25.938-79.3603-30.036-39.3035-25.8935-64.966-54.7878-64.4947-55.2957Z"/>
    <path class="cls-20" d="M1217.7413,541.2159c-1.4245,6.7095-9.3739,11.4406-10.004,10.9953-.6367-.45,5.7165-6.5313,4.1364-13.1695-1.7014-7.1468-11.3457-9.674-10.9238-10.6081.4749-1.0517,14.0775-.9043,16.639,8.1079.4635,1.631.4654,3.2003.1525,4.6744"/>
    <ellipse class="cls-20" cx="1199.285" cy="535.441" rx="2.0049" ry="2.5897" transform="translate(234.6696 1426.7875) rotate(-66.7985)"/>
    <path class="cls-20" d="M1093.6738,539.1695c.1056-.2209,5.7739,2.4749,21.4223,9.1823,15.6484,6.7074,21.5095,8.9535,21.4223,9.1823-.1148.3012-10.4797-2.9922-21.9654-7.9154-11.4857-4.9231-21.0182-10.1585-20.8793-10.4492Z"/>
    <ellipse class="cls-20" cx="1090.8698" cy="551.256" rx="4.4412" ry=".8742" transform="translate(154.4304 1336.7248) rotate(-66.7985)"/>
    <path class="cls-28" d="M838.9352,373.9504c-.3991,2.6355-.7341,6.4651-.2233,10.9981.9917,8.8003,4.5786,14.9912,8.4275,21.1942,12.6843,20.4423,19.0266,30.6634,24.7859,30.7562,1.6385.0264,8.7673-.2652,16.9013-13.7056-.0774-1.0338-.401-2.3817-1.6113-3.2584-1.322-.9576-2.5801-.5401-3.4814-1.0377-3.0659-1.6926,4.1289-10.588,1.5644-19.8084-2.5651-9.2229-12.7695-11.1307-14.8167-19.5237-1.3763-5.6429,5.2455-6.2951,9.3799-17.6177.9083-2.4875,5.2535-14.3872.2956-19.3173-2.3785-2.365-4.9326-1.1719-8.2487-2.8085-3.8705-1.9104-7.9755-7.2797-8.6002-22.7335"/>
  </g>
</svg>