<?xml version="1.0" encoding="UTF-8"?>
<svg id="Layer_1" data-name="Layer 1" xmlns="http://www.w3.org/2000/svg" viewBox="0 0 1621.4173 1264.252">
  <defs>
    <style>
      .cls-1 {
        stroke-width: .2416px;
      }

      .cls-1, .cls-2, .cls-3, .cls-4, .cls-5, .cls-6 {
        stroke: #231f20;
        stroke-miterlimit: 10;
      }

      .cls-1, .cls-2, .cls-6 {
        fill: #df82b5;
      }

      .cls-2 {
        stroke-width: .2622px;
      }

      .cls-3 {
        stroke-width: .7094px;
      }

      .cls-3, .cls-4, .cls-5 {
        fill: #ebaacc;
      }

      .cls-4 {
        stroke-width: .5627px;
      }

      .cls-5 {
        stroke-width: .4391px;
      }

      .cls-6 {
        stroke-width: .6198px;
      }

      .cls-7 {
        fill: #a8469a;
      }

      .cls-8 {
        fill: #fbbd7c;
      }

      .cls-9 {
        fill: #d78763;
      }
    </style>
  </defs>
  <path class="cls-7" d="M765.415,228.7384c-59.8319,123.274-119.6637,246.5479-179.4956,369.8219-98.385,202.7065-196.77,405.4129-295.1551,608.1193-.5781,1.1911-7.9822,17.2356,3.5502,32.1555,6.9618,9.0069,18.8188,15.1593,32.9206,15.0287,143.475-23.0918,318.1972-41.2286,517.1827-40.9918,170.2724.2026,321.8628,13.8154,450.141,32.0375,1.4882-.0138,21.3829-.5046,32.6368-15.6356,6.7938-9.1341,8.6407-21.0317,2.9543-32.2157L837.477,228.0714c-13.8781-27.2954-58.6916-26.8805-72.062.6671Z"/>
  <path class="cls-8" d="M883.6857,51.7092l-13.5152,83.9661,75.68,38.8007c30.6441,15.711,23.2808,61.4567-10.7455,66.7584l-84.0329,13.0932-13.5152,83.9661c-5.4725,33.9992-51.2546,41.1326-66.8115,10.4099l-38.42-75.874-84.0329,13.0932c-34.0263,5.3016-54.9579-36.0354-30.5463-60.3247l60.2881-59.9859-38.42-75.874c-15.5569-30.7226,17.2888-63.4037,47.9329-47.6926l75.68,38.8007,60.2881-59.9859c24.4116-24.2893,65.643-3.1502,60.1705,30.849Z"/>
  <polygon class="cls-4" points="848.5901 516.8404 882.8819 617.1861 990.8377 616.1868 904.0755 679.2032 938.3674 779.5488 850.4535 718.1494 763.6913 781.1658 796.1198 680.2025 708.2059 618.803 816.1616 617.8037 848.5901 516.8404"/>
  <polygon class="cls-6" points="421.3406 1046.1393 484.0539 1039.5232 495.5822 971.6926 522.8128 1035.4342 585.526 1028.8181 539.6422 1074.8287 566.8728 1138.5702 511.2845 1103.2648 465.4007 1149.2754 476.929 1081.4448 421.3406 1046.1393"/>
  <polygon class="cls-1" points="739.3877 438.2685 754.0485 481.5439 800.1915 481.1167 763.1094 508.2895 777.7701 551.5649 740.1913 525.0832 703.1092 552.256 716.9663 508.7167 679.3875 482.235 725.5305 481.8078 739.3877 438.2685"/>
  <polygon class="cls-3" points="1204.6523 1075.9407 1216.1283 1111.5555 1252.1955 1111.2216 1223.2208 1133.5666 1234.6968 1169.1814 1205.3135 1147.3766 1176.3389 1169.7216 1187.1537 1133.9005 1157.7704 1112.0957 1193.8375 1111.7618 1204.6523 1075.9407"/>
  <polygon class="cls-2" points="885.1276 813.8869 847.7121 847.4283 869.66 890.815 824.5881 868.158 787.1727 901.6993 796.7322 854.1552 751.6603 831.4982 802.6403 824.7713 812.1998 777.2271 834.1476 820.6138 885.1276 813.8869"/>
  <path class="cls-9" d="M849.6196,104.8736l-8.6321,53.6287,48.3364,24.7818c19.5722,10.0346,14.8694,39.2521-6.8631,42.6382l-53.6714,8.3626-8.6321,53.6287c-3.4953,21.7151-32.7361,26.2712-42.6722,6.6488l-24.5386-48.4603-53.6714,8.3626c-21.7324,3.3861-35.1014-23.0156-19.5098-38.5291l38.5057-38.3127-24.5386-48.4603c-9.9361-19.6224,11.0422-40.4956,30.6145-30.461l48.3364,24.7818,38.5057-38.3127c15.5916-15.5134,41.9258-2.012,38.4306,19.7031Z"/>
  <polygon class="cls-4" points="868.729 938.6221 966.9128 978.6863 1037.0775 896.6354 1027.5936 1003.4474 1125.7774 1043.5116 1021.7323 1069.4608 1012.2485 1176.2727 957.4289 1085.4982 853.3839 1111.4474 923.5486 1029.3965 868.729 938.6221"/>
  <polygon class="cls-5" points="578.9269 842.1856 647.0387 891.0625 713.6368 841.7016 689.1341 921.2701 757.2459 970.147 673.9906 970.4462 649.4879 1050.0147 622.536 970.631 539.2807 970.9302 605.8788 921.5692 578.9269 842.1856"/>
</svg>