<?xml version="1.0" encoding="UTF-8"?>
<svg id="Layer_1" data-name="Layer 1" xmlns="http://www.w3.org/2000/svg" viewBox="0 0 1621.4173 1264.252">
  <defs>
    <style>
      .cls-1 {
        fill: #a36f51;
      }

      .cls-2 {
        fill: #68351d;
      }

      .cls-3 {
        fill: #824f20;
      }

      .cls-4 {
        fill: #834e20;
      }
    </style>
  </defs>
  <path class="cls-2" d="M762.7686,1257.8188h0c.696-397.944,1.3921-795.8832,2.0881-1193.8272-1.7891-35.2432,27.6701-60.4526,53.2471-57.291,22.3419,2.7597,42.8457,27.3024,40.336,57.291-31.8904,397.944-63.7808,795.8832-95.6713,1193.8272Z"/>
  <g>
    <path class="cls-3" d="M787.2688,51.6438c-.3262,0-.6133-.1094-.832-.3154-1.1035-1.0439-.2666-4.5068.8848-7.3984,2.9141-7.3193,9.4268-15.8662,18.1934-15.8662h.1045c9.1582.0713,15.6836,9.5254,18.4893,17.5996.5078,1.4609,1.5869,4.9414.6523,5.6924-.1318.1055-.292.1611-.4639.1611h0c-.5654,0-1.1201-.583-2.2256-1.7451-2.208-2.3232-5.9043-6.21-11.6201-7.209-.8809-.1533-1.7832-.2314-2.6826-.2314-6.5674,0-12.2627,4.0996-16.0322,6.8125-2.0908,1.5049-3.4727,2.5-4.4678,2.5Z"/>
    <path class="cls-4" d="M805.5149,28.5702c.0332,0,.0674.0001.1006.0004,13.499.1049,20.2646,21.236,18.8281,22.3898-.042.0338-.0908.05-.1465.05-1.1895,0-5.4434-7.4938-13.7588-8.9463-.9395-.1641-1.8633-.2393-2.7695-.2393-10.085,0-17.9971,9.3121-20.5,9.3121-.1943,0-.3555-.056-.4834-.1766-2.1504-2.0354,5.4736-22.3901,18.7295-22.3901M805.5149,27.5567c-9.0195,0-15.6914,8.7181-18.6631,16.1838-.7549,1.8951-2.3398,6.4639-.7627,7.9559.3135.2971.7217.4541,1.1797.4541,1.1592,0,2.5928-1.0325,4.7637-2.5952,3.7168-2.6748,9.332-6.717,15.7363-6.717.8701,0,1.7432.0754,2.5947.2242,5.5518.9696,9.1758,4.781,11.3408,7.0582,1.2051,1.2671,1.8096,1.9032,2.5928,1.9032.2881,0,.5576-.0945.7803-.2731.3262-.2616,1.3164-1.0566-.4912-6.257-.6875-1.9794-2.6963-7.0535-6.4814-11.4088-3.6816-4.2358-7.998-6.4932-12.4814-6.528l-.1084-.0005h0Z"/>
  </g>
  <g>
    <path class="cls-3" d="M791.7219,614.5403c-12.2021,0-19.4932-105.1152-19.4932-206.7383s7.291-206.7383,19.4932-206.7383,19.4932,105.1152,19.4932,206.7383-7.291,206.7383-19.4932,206.7383Z"/>
    <path class="cls-4" d="M791.7219,201.5708c10.4863,0,18.9863,92.3329,18.9863,206.2313s-8.5,206.2313-18.9863,206.2313-18.9863-92.333-18.9863-206.2313,8.501-206.2313,18.9863-206.2313M791.7219,200.5573c-2.0088,0-5.0625,1.7628-8.3809,17.0046-2.2695,10.4275-4.3057,25.3389-6.0537,44.3197-3.5889,38.9824-5.5654,90.8047-5.5654,145.9205s1.9766,106.9381,5.5654,145.9205c1.748,18.981,3.7842,33.8921,6.0537,44.3196,3.3184,15.2419,6.3721,17.0046,8.3809,17.0046s5.0635-1.7627,8.3809-17.0046c2.2695-10.4272,4.3066-25.3386,6.0537-44.3196,3.5889-38.9814,5.5654-90.8035,5.5654-145.9205s-1.9766-106.9392-5.5654-145.9205c-1.7471-18.981-3.7842-33.8923-6.0537-44.3197-3.3174-15.2418-6.3721-17.0046-8.3809-17.0046h0Z"/>
  </g>
  <path class="cls-1" d="M800.1052,441.266c0,21.2513,0,101.2694-5.0872,101.4967-4.0337.1803-11.6788-49.7818-11.6788-101.4963s7.6451-101.677,11.6788-101.4967c5.0872.2273,5.0872,80.2446,5.0872,101.4963Z"/>
  <ellipse class="cls-1" cx="822.1265" cy="65.2386" rx="11.877" ry="3.1865"/>
  <path class="cls-1" d="M781.5709,830.5884c-1.7764,62.8895-7.5339,100.3323-6.0836,100.5097,1.563.1912,11.1122-42.9577,12.7458-96.2152,1.6186-52.7564-5.1143-96.3095-6.6622-96.2179-1.3661.0812,1.6306,34.1839,0,91.9234Z"/>
  <g>
    <path class="cls-3" d="M824.467,195.886c-.0381,0-.0996-.0059-.1377-.0137-.1543-.0312-.3604-.1758-.4453-.3086-.2891-.4541-.126-1.1885.543-3.9238,1.7578-7.1826,5.8721-24.0049-.5273-41.7627-.8877-2.4639-1.8301-4.5371-2.7412-6.542-2.0469-4.502-3.8145-8.3896-4.2441-14.9082-.6572-9.9658,2.2754-20.5332,5.3193-23.7842.7236-.7725,1.4619-1.165,2.1953-1.165,3.5596.0361,6.0732,9.6162,7.2568,15.3242,1.918,9.25,3,20.7959,2.8955,30.8848-.2578,24.8896-7.8232,46.1992-10.1143,46.1992Z"/>
    <path class="cls-4" d="M824.429,104.0559c.0049,0,.0098.0001.0146.0001,4.8359.0492,9.7803,24.3781,9.5596,45.6249-.2686,25.9828-8.2451,45.6271-9.5361,45.6271-.0088,0-.0156-.0007-.0234-.0022-1.2852-.2589,8.4492-22.1764,0-45.6249-2.8652-7.9517-6.3379-11.9622-6.9521-21.2916-.7725-11.7009,3.4434-24.3319,6.9375-24.3334M824.428,102.9001c-.8994.0004-1.7793.4543-2.6172,1.3494-3.1895,3.4086-6.1504,13.9526-5.4727,24.2161.4355,6.6235,2.3105,10.7457,4.2939,15.1099.9072,1.994,1.8447,4.056,2.7236,6.4974,6.3398,17.5946,2.2549,34.2976.5107,41.4302-.7119,2.908-.9033,3.6896-.4697,4.3706.1875.2961.4785.4969.8184.5654.0752.0151.1748.025.252.025.7246,0,1.4561-.3152,3.0645-4.188,1.0762-2.5901,2.2139-6.0487,3.2031-9.7385,1.9385-7.2229,4.2793-18.7844,4.4248-32.8446.1045-10.1279-.9824-21.7197-2.9082-31.0082-2.165-10.4432-4.7881-15.7539-7.7959-15.7845-.0039,0-.0225-.0001-.0273-.0001h0Z"/>
  </g>
  <path class="cls-1" d="M820.2987,124.7708c-.4563-4.3748.6959-7.1196.2861-7.2386-.483-.1396-2.8678,3.4349-2.4476,7.4636.4202,4.0288,3.4913,7.0346,3.9351,6.7983.3764-.2009-1.3173-2.6486-1.7736-7.0233Z"/>
  <circle class="cls-1" cx="830.4009" cy="146.9388" r="2.7432"/>
</svg>