<?xml version="1.0" encoding="UTF-8"?>
<svg id="Layer_1" data-name="Layer 1" xmlns="http://www.w3.org/2000/svg" viewBox="0 0 1621.4173 1264.252">
  <defs>
    <style>
      .cls-1 {
        fill: #a36f51;
      }

      .cls-2 {
        fill: #a57557;
      }

      .cls-3 {
        fill: #825436;
      }

      .cls-4 {
        fill: #462817;
      }

      .cls-5 {
        fill: #5b341b;
      }

      .cls-6 {
        fill: #824f20;
      }

      .cls-7 {
        fill: #653d20;
      }

      .cls-8 {
        fill: #834e20;
      }
    </style>
  </defs>
  <g>
    <path class="cls-6" d="M830.2431,800.8846c-.0295,0-.0566-.0176-.0684-.0459-4.165-10.0225-7.1663-20.2803-8.9204-30.4893-1.9763-11.5049-2.4307-19.668-3.0596-30.9648l-.0981-1.7578c-.5605-10.0166-1.5332-20.1729-2.4736-29.9951-.5554-5.8037-1.1301-11.8037-1.6135-17.7119-2.0508-25.0566-5.0793-52.7676-9.0022-82.3721l-3.7776,13.6406c-.0081.0303-.0339.0508-.0647.0537-.0022.001-.0044.001-.0066.001-.0281,0-.0542-.0166-.0667-.042-.0142-.0293-1.5771-3.1885-4.0044-8.0928l-5.9871-146.4072c.4656-1.9404,2.2034-3.333,4.1345-3.333.3643,0,.7241.0508,1.0698.1504,1.9644.5693,3.2305,2.666,2.8826,4.7715,4.2432,39.5674,8.7595,79.1582,13.4238,117.6543,1.0657,8.7939,2.0857,17.0967,3.0603,25.0293,5.8225,47.3867,10.0293,81.625,12.6035,128.6387,1.1177,20.4121,1.8047,41.002,2.0422,61.1973.0005.0352-.0244.0664-.0591.0732-.0049.001-.01.002-.0149.002Z"/>
    <path class="cls-8" d="M795.2347,463.4419c.3513,0,.7038.048,1.0493.1481,1.8996.5507,3.1807,2.5659,2.8301,4.6882,5.3286,49.7189,10.0848,90.1198,13.4234,117.6742,7.4357,61.3696,12.6587,98.7881,15.6633,153.6636,1.4287,26.0942,1.8806,47.4543,2.0423,61.1941-5.1907-12.4895-7.6395-23.0447-8.9157-30.4736-2.077-12.0901-2.4739-20.5127-3.1568-32.7134-.892-15.9365-2.7855-31.8013-4.0875-47.7095-1.5307-18.7021-4.176-46-9.0503-82.7363-2.5316,9.1423-3.8744,13.9912-3.8744,13.9912-.0003-.0007-1.5666-3.1663-4.0046-8.0938-1.9932-48.7925-3.9864-97.5847-5.9796-146.377.4773-1.9772,2.2474-3.2557,4.0605-3.2559M795.2347,463.2939c-1.9649.0002-3.7332,1.4171-4.2044,3.3691-.0032.0134-.0046.0271-.004.0409l5.9796,146.377c.0009.0208.006.041.0152.0596l2.571,5.196c.9052,1.8296,1.4268,2.8838,1.4334,2.8972.0251.051.0768.0828.1328.0828.0046,0,.0092-.0002.0139-.0007.0612-.0056.1125-.0486.1288-.1077l3.6804-13.2908c3.8998,29.4695,6.9118,57.0559,8.9541,82.0083.4836,5.9089,1.0582,11.9099,1.6138,17.7134.9404,9.8213,1.9128,19.9771,2.4733,29.9924l.0981,1.7583c.629,11.2991,1.0835,19.4629,3.0606,30.9719,1.7548,10.2148,4.7576,20.4783,8.9249,30.5054.0233.0559.0778.0911.1366.0911.0099,0,.0199-.001.0299-.0029.0695-.0142.119-.0759.1182-.1467-.2377-20.1985-.9249-40.7893-2.0425-61.2004-2.5742-47.0149-6.7809-81.2522-12.6032-128.6384-.9748-7.9343-1.9951-16.2385-3.0609-25.0349-4.6642-38.4956-9.1798-78.0806-13.4211-117.6523.3426-2.1357-.9447-4.2566-2.9382-4.8345-.3523-.1021-.7192-.1539-1.0905-.1539h0Z"/>
  </g>
  <path class="cls-7" d="M797.0207,511.1461c-1.5459.1339-1.9717,15.2624-1.0075,27.296,1.0259,12.8034,3.1051,15.6103,4.5836,32.2024.9409,10.5585.8655,18.0245,1.4433,18.0359.6537.0129,1.4364-9.5313,1.7503-15.5355,1.646-31.4803-4.5453-62.1914-6.7698-61.9988Z"/>
  <ellipse class="cls-3" cx="798.6957" cy="533.2169" rx="1.6142" ry="6.9116" transform="translate(-54.5333 92.4955) rotate(-6.4096)"/>
  <path class="cls-7" d="M816.867,664.7373c.2756-.0048.1456,5.3499,1.5319,13.5531,1.2415,7.3464,2.8924,12.2036,3.6991,14.957,5.3205,18.1603,1.3621,38.4572.4758,38.479-.3207.0079-.3667-4.6627-1.5354-14.0467-1.554-12.477-2.8769-15.4941-4.0462-23.9566-2.2053-15.9603-.5543-28.9783-.1252-28.9858Z"/>
  <path class="cls-3" d="M819.9305,695.0928c.6208-.1821,2.6141,2.8578,3.1816,6.3445.2038,1.2518.0324,1.4346-.3868,7.5912-.2249,3.3024-.2775,4.7472-.4931,4.757-.2624.0119-.5742-2.1117-.7122-3.3065-.5033-4.3591.7151-5.1457-.0616-7.7967-.5231-1.7853-1.2196-2.0266-1.6146-4.1978-.2241-1.2314-.3822-3.2541.0868-3.3917Z"/>
  <g>
    <path class="cls-5" d="M800.8019,622.9978c-.0247,0-.0469-.0156-.0554-.0391l-3.6829-9.8496,1.0413-3.9707c.0066-.0254.0293-.043.0557-.0439h.0015c.0256,0,.0486.0166.0564.042l3.4055,10.6396-.7644,3.1758c-.0063.0254-.0281.0439-.0542.0459h-.0034Z"/>
    <path class="cls-5" d="M798.1621,609.1541c1.1352,3.5466,2.2703,7.0933,3.4055,10.6399-.2552,1.0481-.5104,2.0962-.7656,3.144-2.4202-6.4727-3.6829-9.8494-3.6829-9.8494,0,0,.3476-1.3115,1.0429-3.9346M798.1621,609.0357h-.003c-.0526.0012-.098.0371-.1115.0881l-1.0429,3.9346c-.0063.0237-.005.0488.0036.0718l3.6829,9.8494c.0174.0464.0617.0769.1109.0769.0023,0,.0047,0,.0071-.0002.0519-.0029.0957-.0396.108-.0901l.4493-1.8452.3163-1.2988c.0052-.0212.0044-.0435-.0023-.0642l-3.4055-10.6399c-.0157-.0491-.0614-.0823-.1128-.0823h0Z"/>
  </g>
  <path class="cls-5" d="M806.7408,604.1783c-.5861,1.2473-1.1722,2.4946-1.7583,3.7419,3.9049,36.0829,6.0304,54.1091,6.3759,54.075.3566-.0352-1.1824-19.3063-4.6176-57.8169Z"/>
  <path class="cls-4" d="M800.2055,619.8234c.1399-.5744.2797-1.1488.4196-1.7232-.6222-1.9439-1.2443-3.8877-1.8665-5.8316-.3811,1.4377-.5716,2.1565-.5716,2.1565,0,0,.692,1.8507,2.0185,5.3982Z"/>
  <ellipse class="cls-1" cx="821.1311" cy="698.5469" rx=".6373" ry="1.9697" transform="translate(-166.9522 267.3678) rotate(-16.8128)"/>
  <path class="cls-2" d="M798.5232,530.4572c.1573-.0658,1.0196.9402,1.0474,2.174.0278,1.2359-.7912,2.2754-.9588,2.2145-.1492-.0542.2837-.9558.201-2.471-.0661-1.2113-.4099-1.8672-.2896-1.9175Z"/>
</svg>