<?xml version="1.0" encoding="UTF-8"?>
<svg id="Layer_1" data-name="Layer 1" xmlns="http://www.w3.org/2000/svg" viewBox="0 0 1621.4173 1264.252">
  <defs>
    <style>
      .cls-1 {
        fill: #8dd4e0;
      }

      .cls-2 {
        fill: #fbd8e6;
      }

      .cls-3 {
        fill: #fad2e3;
      }

      .cls-4 {
        fill: #e6a9c7;
      }

      .cls-5 {
        fill: #e582ae;
      }

      .cls-6 {
        fill: #f9c4db;
      }

      .cls-7 {
        fill: #facee1;
      }

      .cls-8 {
        fill: #f6e5f0;
      }

      .cls-9 {
        fill: #fff;
      }

      .cls-10 {
        fill: #f7d1e2;
      }

      .cls-11 {
        fill: #f9e6f0;
      }

      .cls-12 {
        fill: #f2b3cc;
      }

      .cls-13 {
        fill: #f19bc2;
      }

      .cls-14 {
        fill: #f1c1d6;
      }
    </style>
  </defs>
  <circle class="cls-1" cx="810.3623" cy="1232.9898" r="8.0437"/>
  <rect class="cls-13" x="131.9473" y="263.8564" width="1293.8581" height="693.2778" rx="250.5065" ry="250.5065" transform="translate(-111.7829 179.1265) rotate(-12.2478)"/>
  <rect class="cls-5" x="115.486" y="198.2171" width="1293.8581" height="672.8965" rx="148.3692" ry="148.3692" transform="translate(-96.071 173.9085) rotate(-12.2478)"/>
  <path class="cls-12" d="M1320.8985,745.5466l-986.4413,214.1381c-80.1734,17.404-160.0094-33.9526-177.4134-114.1256l-79.4609-366.0416c-17.4042-80.1735,33.9524-160.0095,114.1258-177.4135l986.4413-214.1381c80.1733-17.404,160.0094,33.9526,177.4134,114.1256l79.4608,366.0416c17.4042,80.1734-33.9524,160.0095-114.1257,177.4135Z"/>
  <path class="cls-2" d="M143.3959,365.3429c6.3801.7097-1.6197,58.4074,2.8466,141.0287,9.701,179.4546,68.2083,291.422,60.3938,294.2947-7.7654,2.8545-63.8925-108.3127-82.5341-228.1367-2.5394-16.3228-4.9619-36.5258-5.4236-60.9863-1.4609-77.3938,17.6583-146.9857,24.7173-146.2004Z"/>
  <ellipse class="cls-6" cx="520.8498" cy="329.8418" rx="72.2573" ry="12.0429" transform="translate(-40.1425 74.1705) rotate(-7.8441)"/>
  <path class="cls-6" d="M1361.5488,715.2222c2.4691,11.3743-225.18,70.4483-508.469,131.9448-283.2888,61.4969-514.9414,102.129-517.4107,90.7543-2.469-11.3743,225.1801-70.4484,508.4691-131.9449.0006-.0004,197.5166-60.8829,476.3188-90.1347,16.405-1.7213,40.354-4.0184,41.0919-.6195Z"/>
  <ellipse class="cls-2" cx="550.7896" cy="324.2847" rx="15.8964" ry="7.2251" transform="translate(-48.6527 102.477) rotate(-10.1824)"/>
  <ellipse class="cls-2" cx="271.4098" cy="400.2688" rx="32.279" ry="8.2795" transform="translate(-161.5921 184.8906) rotate(-29.4139)"/>
  <ellipse class="cls-2" cx="939.1622" cy="806.9143" rx="223.4664" ry="7.9031" transform="translate(-149.8031 217.6003) rotate(-12.2478)"/>
  <ellipse class="cls-2" cx="1221.0459" cy="746.8645" rx="27.0965" ry="8.2795" transform="translate(-130.6482 276.0325) rotate(-12.2478)"/>
  <path class="cls-6" d="M1120.9841,437.0594c29.9166,70.4322-4.3616,141.6268,7.0476,144.8257,12.9348,3.6269,74.6789-82.92,52.532-157.759-34.6795-117.1884-251.4099-125.7636-254.1119-117.4074-2.2911,7.0857,149.7652,24.9463,194.5323,130.3408Z"/>
  <ellipse class="cls-2" cx="1157.3697" cy="489.2364" rx="30.3895" ry="14.0187" transform="translate(437.3585 1519.0135) rotate(-77.9536)"/>
  <path class="cls-2" d="M1274.1302,211.8909c15.0205,22.5461,23.235,45.4894,21.8415,46.2263-1.2808.6773-10.2644-17.6243-28.2465-42.6152-27.4158-38.1015-50.2936-56.3763-49.1121-57.637,1.3161-1.4043,32.0407,18.7873,55.5171,54.0259Z"/>
  <circle class="cls-4" cx="308.7904" cy="1030.7838" r="162.1281"/>
  <circle class="cls-3" cx="633.2329" cy="1038.5115" r="128.4587"/>
  <circle class="cls-11" cx="290.9468" cy="1040.8439" r="153.2365"/>
  <circle class="cls-8" cx="614.1461" cy="1040.2801" r="128.4587"/>
  <ellipse class="cls-13" cx="759.442" cy="509.869" rx="258.0094" ry="106.1279" transform="translate(-90.8781 172.7128) rotate(-12.2478)"/>
  <ellipse class="cls-12" cx="754.554" cy="520.7222" rx="224.1495" ry="80.1075" transform="translate(-93.2917 171.9229) rotate(-12.2478)"/>
  <circle class="cls-8" cx="1249.9027" cy="81.5176" r="58.2871"/>
  <circle class="cls-14" cx="1472.0984" cy="772.0311" r="138.1946"/>
  <circle class="cls-10" cx="1446.5526" cy="772.5206" r="138.1946"/>
  <circle class="cls-14" cx="1434.708" cy="551.7016" r="91.8996"/>
  <circle class="cls-10" cx="1416.6831" cy="544.575" r="91.8996"/>
  <circle class="cls-4" cx="1235.7354" cy="931.0117" r="115.6685"/>
  <circle class="cls-10" cx="1224.7317" cy="911.4944" r="115.6685"/>
  <circle class="cls-8" cx="1485.4915" cy="740.0269" r="29.9621"/>
  <circle class="cls-14" cx="1337.522" cy="209.1029" r="78.5842"/>
  <circle class="cls-10" cx="1349.7801" cy="216.9028" r="78.5842"/>
  <circle class="cls-14" cx="1333.5685" cy="103.7035" r="48.3132"/>
  <circle class="cls-8" cx="1339.9178" cy="107.1183" r="48.3132"/>
  <circle class="cls-3" cx="517.9058" cy="896.8865" r="48.8831"/>
  <circle class="cls-11" cx="510.4456" cy="902.4299" r="46.2022"/>
  <circle class="cls-8" cx="1321.1982" cy="229.3848" r="23.8893"/>
  <circle class="cls-8" cx="514.3159" cy="223.6293" r="88.5814"/>
  <circle class="cls-4" cx="300.3427" cy="321.3166" r="119.4278"/>
  <circle class="cls-10" cx="285.4508" cy="337.6197" r="119.4278"/>
  <circle class="cls-3" cx="454.0324" cy="350.726" r="73.4237"/>
  <circle class="cls-8" cx="452.3777" cy="351.6589" r="73.4237"/>
  <circle class="cls-8" cx="274.2648" cy="291.56" r="36.3056"/>
  <circle class="cls-4" cx="357.8096" cy="853.6104" r="91.8996"/>
  <circle class="cls-10" cx="340.9278" cy="851.6858" r="91.8996"/>
  <circle class="cls-4" cx="1219.9578" cy="195.6423" r="83.6971"/>
  <circle class="cls-10" cx="1204.5828" cy="193.8895" r="83.6971"/>
  <circle class="cls-14" cx="1313.6585" cy="800.6065" r="115.6685"/>
  <circle class="cls-8" cx="1306.2194" cy="787.4117" r="115.6685"/>
  <circle class="cls-3" cx="809.4003" cy="1007.8365" r="60.8095"/>
  <circle class="cls-8" cx="798.2298" cy="1006.563" r="60.8095"/>
  <circle class="cls-4" cx="529.7027" cy="1096.881" r="79.8934"/>
  <circle class="cls-10" cx="515.0145" cy="1090.4568" r="79.8934"/>
  <path class="cls-7" d="M900.5228,463.0305c5.4258,11.8053-15.4552,38.2521-40.8513,45.1849-20.4968,5.5955-38.7562-3.4284-46.4751-5.952-81.9105-26.7809-176.7801,22.7419-178.9905,15.8737-2.6272-8.1635,109.0382-51.9361,217.0604-61.7896,27.1531-2.4768,45.2633-2.0053,49.2565,6.683Z"/>
  <ellipse class="cls-2" cx="797.7611" cy="558.9857" rx="18.8457" ry="7.5268" transform="translate(-60.8904 98.9798) rotate(-6.8393)"/>
  <ellipse class="cls-2" cx="850.2927" cy="483.9007" rx="16.3708" ry="11.3814" transform="translate(-128.0437 479.9698) rotate(-29.4139)"/>
  <ellipse class="cls-2" cx="1157.4483" cy="172.3675" rx="15.8063" ry="11.2902" transform="translate(64.5493 590.6603) rotate(-29.4139)"/>
  <path class="cls-8" d="M1446.2417,513.8384c4.9918-1.2857,42.6805,61.3325,20.5037,86.9432-24.3128,28.0774-101.1608-10.749-100.1272-16.2297.5072-2.6881,19.8312,2.2306,47.0486-7.4167,10.4515-3.7049,18.6148-6.5982,24.9147-14.0472,15.9439-18.8523,4.3124-48.3874,7.6602-49.2495Z"/>
  <path class="cls-8" d="M563.0832,1085.4937c4.5725-1.8822,22.6858,26.0761-2.1435,46.0403-27.2207,21.8871-84.3143,16.6856-82.1843,13.2556,1.0449-1.6824,16.5007-3.199,42.0306-14.9994,9.8035-4.5315,17.4607-8.0707,24.5535-13.8433,17.9506-14.6095,14.6771-29.1909,17.7437-30.4531Z"/>
  <ellipse class="cls-8" cx="558.7532" cy="1056.8525" rx="5.0806" ry="12.9781" transform="translate(-447.0105 410.6468) rotate(-29.4139)"/>
  <ellipse class="cls-8" cx="290.5124" cy="880.5029" rx="15.524" ry="20.0401" transform="translate(-394.9802 256.1771) rotate(-29.4139)"/>
  <path class="cls-8" d="M414.5164,850.4452c-11.713-12.9277-49.4827-.0807-51.0263,11.9192-.7186,5.5855,6.8995,7.1971,8.8718,15.736,4.1924,18.1511-24.7237,34.7205-21.3252,40.5367,3.0559,5.2299,31.6962.836,49.7653-18.9528,12.5892-13.7871,23.3224-38.6346,13.7145-49.2391Z"/>
  <circle class="cls-8" cx="173.4743" cy="777.3298" r="88.5814"/>
  <circle class="cls-14" cx="141.8185" cy="544.2521" r="119.4278"/>
  <circle class="cls-10" cx="130.5169" cy="525.2828" r="119.4278"/>
  <circle class="cls-14" cx="204.2008" cy="920.0692" r="73.4237"/>
  <circle class="cls-10" cx="196.339" cy="923.693" r="64.7962"/>
  <circle class="cls-8" cx="177.8436" cy="527.8905" r="36.3056"/>
  <circle class="cls-14" cx="1101.7572" cy="106.4156" r="52.7409"/>
  <circle class="cls-10" cx="1092.0078" cy="106.6024" r="52.7409"/>
  <path class="cls-8" d="M91.9406,436.8663c11.0435,3.7003,17.6558,21.7501,13.5536,34.2091-3.0163,9.161-11.8235,11.5191-18.9696,16.3393-32.2462,21.7507-20.5012,80.0846-27.6607,80.7383-7.2975.6665-33.1257-58.3143-7.9101-101.4035,8.111-13.8601,26.5597-34.7173,40.9868-29.8832Z"/>
  <path class="cls-9" d="M1373.7604,781.0002c6.4113-2.7329,29.6253,32.557-5.7894,60.0845-38.8257,30.1788-117.1093,26.9255-113.9654,22.3276,1.5422-2.2552,22.9147-5.1829,58.7908-22.123,13.7765-6.5052,24.5368-11.5859,34.6577-19.5401,25.6144-20.1307,22.0064-38.9164,26.3063-40.7491Z"/>
  <ellipse class="cls-9" cx="1369.5646" cy="743.9714" rx="7.1714" ry="16.4486" transform="translate(-188.8314 768.517) rotate(-29.4139)"/>
</svg>