<?xml version="1.0" encoding="UTF-8"?>
<svg id="Layer_1" data-name="Layer 1" xmlns="http://www.w3.org/2000/svg" viewBox="0 0 1621.4173 1264.252">
  <defs>
    <style>
      .cls-1 {
        fill: #8dd4e0;
      }

      .cls-2 {
        fill: #fbd8e6;
      }

      .cls-3 {
        fill: #fad2e3;
      }

      .cls-4 {
        fill: #e6a9c7;
      }

      .cls-5 {
        fill: #e582ae;
      }

      .cls-6 {
        fill: #f9c4db;
      }

      .cls-7 {
        fill: #facee1;
      }

      .cls-8 {
        fill: #f6e5f0;
      }

      .cls-9 {
        fill: #fcf6fa;
      }

      .cls-10 {
        fill: #fff;
      }

      .cls-11 {
        fill: #f7d1e2;
      }

      .cls-12 {
        fill: #f9e6f0;
      }

      .cls-13 {
        fill: #ebb7d3;
      }

      .cls-14 {
        fill: #f2b3cc;
      }

      .cls-15 {
        fill: #f19bc2;
      }

      .cls-16 {
        fill: #f1c1d6;
      }
    </style>
  </defs>
  <g>
    <circle class="cls-1" cx="803.1043" cy="703.2327" r=".9011"/>
    <rect class="cls-15" x="727.1063" y="594.6675" width="144.9417" height="77.663" rx="28.0625" ry="28.0625" transform="translate(-116.1917 184.0416) rotate(-12.2478)"/>
    <rect class="cls-5" x="725.2622" y="587.3144" width="144.9417" height="75.3798" rx="16.6208" ry="16.6208" transform="translate(-114.4317 183.4571) rotate(-12.2478)"/>
    <rect class="cls-14" x="723.7997" y="586.1001" width="146.4975" height="75.3798" rx="16.7099" ry="16.7099" transform="translate(-114.1897 183.2843) rotate(-12.2478)"/>
    <path class="cls-2" d="M728.3888,606.0363c.7147.0795-.1814,6.543.3189,15.7984,1.0867,20.103,7.6409,32.6459,6.7655,32.9677-.8699.3198-7.1574-12.1335-9.2457-25.5565-.2845-1.8285-.5558-4.0917-.6076-6.8319-.1637-8.6699,1.9781-16.4658,2.7689-16.3778Z"/>
    <ellipse class="cls-6" cx="770.6722" cy="602.0594" rx="8.0945" ry="1.3491" transform="translate(-74.9565 110.8127) rotate(-7.8441)"/>
    <path class="cls-6" d="M864.8498,645.2308c.2766,1.2742-25.2253,7.8918-56.9602,14.7808-31.7348,6.8891-57.6852,11.4408-57.9618,10.1666-.2766-1.2742,25.2253-7.8918,56.9602-14.7808,0,0,22.1264-6.8203,53.3586-10.0971,1.8377-.1928,4.5206-.4502,4.6032-.0694Z"/>
    <ellipse class="cls-2" cx="774.0262" cy="601.4369" rx="1.7808" ry=".8094" transform="translate(-94.1322 146.3063) rotate(-10.1824)"/>
    <ellipse class="cls-2" cx="742.7293" cy="609.9488" rx="3.616" ry=".9275" transform="translate(-203.8135 443.392) rotate(-29.4139)"/>
    <ellipse class="cls-2" cx="817.5328" cy="655.5025" rx="25.0334" ry=".8853" transform="translate(-120.4509 188.3516) rotate(-12.2478)"/>
    <ellipse class="cls-2" cx="849.1102" cy="648.7755" rx="3.0354" ry=".9275" transform="translate(-118.3051 194.8973) rotate(-12.2478)"/>
    <path class="cls-6" d="M837.901,614.0702c3.3513,7.89-.4886,15.8654.7895,16.2238,1.449.4063,8.3658-9.2889,5.8848-17.6726-3.8849-13.1278-28.1637-14.0884-28.4663-13.1523-.2567.7938,16.7771,2.7946,21.7921,14.6011Z"/>
    <ellipse class="cls-2" cx="841.9771" cy="619.9153" rx="3.4043" ry="1.5704" transform="translate(59.9887 1313.9718) rotate(-77.9536)"/>
    <path class="cls-2" d="M855.0569,588.8462c1.6826,2.5257,2.6028,5.0959,2.4467,5.1784-.1435.0759-1.1498-1.9743-3.1643-4.7739-3.0712-4.2682-5.634-6.3154-5.5017-6.4567.1474-.1573,3.5893,2.1046,6.2192,6.0521Z"/>
    <circle class="cls-4" cx="746.9167" cy="680.581" r="18.1621"/>
    <circle class="cls-3" cx="783.2617" cy="681.4466" r="14.3903"/>
    <circle class="cls-12" cx="744.9179" cy="681.7079" r="17.166"/>
    <circle class="cls-8" cx="781.1236" cy="681.6448" r="14.3903"/>
    <ellipse class="cls-15" cx="797.4" cy="622.2266" rx="28.903" ry="11.8888" transform="translate(-113.8496 183.3225) rotate(-12.2478)"/>
    <ellipse class="cls-14" cx="796.8525" cy="623.4424" rx="25.1099" ry="8.9739" transform="translate(-114.12 183.234) rotate(-12.2478)"/>
    <circle class="cls-8" cx="852.3429" cy="574.2414" r="6.5295"/>
    <circle class="cls-16" cx="877.2339" cy="651.5947" r="15.481"/>
    <circle class="cls-11" cx="874.3722" cy="651.6496" r="15.481"/>
    <circle class="cls-16" cx="873.0453" cy="626.9128" r="10.2949"/>
    <circle class="cls-11" cx="871.0261" cy="626.1144" r="10.2949"/>
    <circle class="cls-4" cx="850.7558" cy="669.4042" r="12.9575"/>
    <circle class="cls-11" cx="849.5231" cy="667.2178" r="12.9575"/>
    <circle class="cls-8" cx="878.7342" cy="648.0095" r="3.3564"/>
    <circle class="cls-16" cx="862.1582" cy="588.5339" r="8.8032"/>
    <circle class="cls-11" cx="863.5314" cy="589.4077" r="8.8032"/>
    <circle class="cls-16" cx="861.7154" cy="576.7267" r="5.4122"/>
    <circle class="cls-8" cx="862.4266" cy="577.1093" r="5.4122"/>
    <circle class="cls-3" cx="770.3425" cy="665.5814" r="5.476"/>
    <circle class="cls-12" cx="769.5067" cy="666.2024" r="5.1757"/>
    <circle class="cls-8" cx="860.3296" cy="590.8059" r="2.6762"/>
    <circle class="cls-8" cx="769.9403" cy="590.1612" r="9.9231"/>
    <circle class="cls-4" cx="745.9704" cy="601.1044" r="13.3787"/>
    <circle class="cls-11" cx="744.3022" cy="602.9307" r="13.3787"/>
    <circle class="cls-3" cx="763.1872" cy="604.3989" r="8.2251"/>
    <circle class="cls-8" cx="763.0018" cy="604.5034" r="8.2251"/>
    <circle class="cls-8" cx="743.0491" cy="597.771" r="4.0671"/>
    <circle class="cls-4" cx="752.408" cy="660.7335" r="10.2949"/>
    <circle class="cls-11" cx="750.5169" cy="660.5179" r="10.2949"/>
    <circle class="cls-4" cx="848.9884" cy="587.026" r="9.376"/>
    <circle class="cls-11" cx="847.266" cy="586.8296" r="9.376"/>
    <circle class="cls-16" cx="859.485" cy="654.7958" r="12.9575"/>
    <circle class="cls-8" cx="858.6516" cy="653.3177" r="12.9575"/>
    <circle class="cls-3" cx="802.9965" cy="678.0103" r="6.8121"/>
    <circle class="cls-8" cx="801.7452" cy="677.8677" r="6.8121"/>
    <circle class="cls-4" cx="771.664" cy="687.9854" r="8.9499"/>
    <circle class="cls-11" cx="770.0186" cy="687.2657" r="8.9499"/>
    <path class="cls-7" d="M813.2043,616.9796c.6078,1.3225-1.7313,4.2851-4.5763,5.0617-2.2961.6268-4.3416-.3841-5.2063-.6668-9.1758-3.0001-19.8034,2.5476-20.051,1.7782-.2943-.9145,12.2148-5.818,24.3157-6.9218,3.0418-.2775,5.0705-.2246,5.5179.7486Z"/>
    <ellipse class="cls-2" cx="801.6927" cy="627.7288" rx="2.1111" ry=".8432" transform="translate(-69.0487 99.9371) rotate(-6.8393)"/>
    <ellipse class="cls-2" cx="807.5774" cy="619.3175" rx="1.8339" ry="1.275" transform="translate(-200.0553 476.4476) rotate(-29.4139)"/>
    <ellipse class="cls-2" cx="841.9859" cy="584.4187" rx="1.7707" ry="1.2648" transform="translate(-178.4805 488.8475) rotate(-29.4139)"/>
    <path class="cls-8" d="M874.3373,622.6712c.5592-.144,4.7812,6.8706,2.2969,9.7396-2.7236,3.1453-11.3323-1.2041-11.2165-1.8181.0568-.3011,2.2216.2499,5.2705-.8308,1.1708-.415,2.0853-.7392,2.791-1.5736,1.7861-2.1119.4831-5.4205.8581-5.5171Z"/>
    <path class="cls-8" d="M775.4034,686.7097c.5122-.2109,2.5413,2.9211-.2401,5.1576-3.0493,2.4519-9.4451,1.8692-9.2065,1.4849.117-.1885,1.8485-.3584,4.7084-1.6803,1.0982-.5076,1.956-.9041,2.7506-1.5508,2.0109-1.6366,1.6442-3.27,1.9877-3.4114Z"/>
    <ellipse class="cls-8" cx="774.9183" cy="683.5013" rx=".5691" ry="1.4538" transform="translate(-235.7869 468.6818) rotate(-29.4139)"/>
    <ellipse class="cls-8" cx="744.8692" cy="663.7461" rx="1.739" ry="2.245" transform="translate(-229.9583 451.3777) rotate(-29.4139)"/>
    <path class="cls-8" d="M758.7605,660.3789c-1.3121-1.4482-5.5432-.009-5.7161,1.3352-.0805.6257.7729.8062.9938,1.7628.4696,2.0333-2.7696,3.8895-2.3889,4.541.3423.5859,3.5507.0936,5.5749-2.1231,1.4103-1.5445,2.6126-4.328,1.5363-5.5159Z"/>
    <circle class="cls-8" cx="731.7582" cy="652.1883" r="9.9231"/>
    <circle class="cls-16" cx="728.2121" cy="626.0783" r="13.3787"/>
    <circle class="cls-11" cx="726.946" cy="623.9533" r="13.3787"/>
    <circle class="cls-16" cx="735.2003" cy="668.1784" r="8.2251"/>
    <circle class="cls-11" cx="734.3196" cy="668.5843" r="7.2587"/>
    <circle class="cls-8" cx="732.2477" cy="624.2454" r="4.0671"/>
    <circle class="cls-16" cx="835.7472" cy="577.0306" r="5.9082"/>
    <circle class="cls-11" cx="834.655" cy="577.0515" r="5.9082"/>
    <path class="cls-8" d="M722.6246,614.0486c1.2371.4145,1.9779,2.4365,1.5183,3.8322-.3379,1.0262-1.3245,1.2904-2.125,1.8304-3.6123,2.4366-2.2966,8.9713-3.0986,9.0445-.8175.0747-3.7108-6.5325-.8861-11.3595.9086-1.5526,2.9753-3.8891,4.5915-3.3476Z"/>
    <path class="cls-10" d="M866.2178,652.5995c.7182-.3061,3.3187,3.6471-.6485,6.7308-4.3494,3.3807-13.1189,3.0163-12.7667,2.5012.1728-.2526,2.567-.5806,6.5859-2.4783,1.5433-.7287,2.7487-1.2979,3.8825-2.1889,2.8694-2.2551,2.4652-4.3595,2.9469-4.5648Z"/>
    <ellipse class="cls-10" cx="865.7477" cy="648.4514" rx=".8034" ry="1.8426" transform="translate(-206.8649 508.7715) rotate(-29.4139)"/>
  </g>
  <g>
    <path class="cls-12" d="M903.0769,689.6985c4.3119,8.5969.2185,19.0613-8.3169,22.4389-8.4229,3.3332-18.4394-1.3157-21.3242-10.3555-6.9467,5.2949-16.1991,6.4945-24.2071,3.1253-12.2011-5.1336-14.4546-17.9035-14.5753-18.666-3.8708,3.104-9.3009,2.972-12.7129-.0902-3.2962-2.9582-3.7976-7.8332-2.0803-11.2816,2.293-4.6044,8.637-6.8564,14.4018-4.2661.5332-1.4157,1.5208-3.5287,3.3445-5.6645,1.9086-2.2353,3.9432-3.5709,5.2936-4.3159-1.1879-1.7144-4.6089-7.1244-4.0137-14.3182,0-.0001.6062-7.3265,6.4583-14.0466.1812-.2082.3796-.4259.3797-.426.0041-.0046.0063-.007.0063-.007.9651-1.0554,4.7994-5.1518,10.5596-6.7534,5.9128-1.644,11.4564.0078,16.829,1.6086,0,0,.0013.0004.0013.0004-.0652-.635-.5792-6.6771,4.1739-10.9781,4.3523-3.9383,9.6904-3.3125,10.4494-3.2104,1.335-12.8358,9.4837-23.6335,20.8561-27.5887,12.3919-4.3098,23.2814,1.3585,25.187,2.3912,6.1044-8.0294,15.9236-11.5635,24.4313-8.9847,7.9633,2.4138,11.7446,9.2641,12.5857,10.8856,10.0365-.3043,18.6168,7.0761,19.8215,16.5819,1.2879,10.1633-6.2109,19.9541-16.8856,21.3139,2.9474,3.1968,3.9912,7.5205,2.6257,11.1897-1.0879,2.9235-3.3551,4.491-4.2953,5.0647,3.0619,3.6799,3.2102,8.6121.7526,11.6231-2.3373,2.8633-6.1316,2.8869-6.7159,2.8814,1.0321,1.858,2.309,4.8384,2.2831,8.5356-.0585,8.3542-6.7334,15.3699-13.4342,17.8862-9.1808,3.4475-20.7735-.6637-27.4309-10.5828-1.0188,2.347-2.8887,5.7684-6.2742,8.8978-7.0511,6.5178-15.5717,7.05-18.1737,7.1114Z"/>
    <path class="cls-13" d="M819.1832,678.2904c-.6243,5.692,3.3869,10.6235,8.341,11.1842,4.0776.4614,8.2631-2.0983,9.9781-6.3461-2.4494,3.171-6.4525,4.7025-10.3032,3.9363-3.3821-.673-6.6312-3.1731-7.6636-6.5165-.273-.8841-.344-1.6742-.3523-2.2579Z"/>
    <path class="cls-11" d="M842.2,700.3018c.005-.0059,2.1133,1.8216,2.7697,2.3422,5.4388,4.3138,18.014,3.6341,27.2175-2.4586,2.3225-1.5375,7.9685-5.266,10.6395-12.6528,4.5001-12.4455-3.6141-23.7309-4.4266-24.8231.8814.6581,2.0432,1.6344,3.2091,2.9905,5.218,6.0691,6.575,15.1588,4.5468,22.294-3.6918,12.9875-18.8025,20.2146-30.88,18.5279-4.5639-.6374-8.0861-2.4626-10.3063-3.8778-1.1616-.8796-2.7741-2.3371-2.7697-2.3422Z"/>
    <path class="cls-11" d="M841.9023,637.2627c-.5856,1.0896-5.1956,9.9827-.8787,17.449.3673.6353,1.5299,2.5239,3.5593,3.9827,5.5854,4.0149,14.8687,2.7116,23.587-2.6027-7.2651,8.7871-18.7692,9.9612-24.6798,5.1364-5.6151-4.5836-5.6243-14.1264-3.4802-20.1136.5959-1.664,1.3261-2.9639,1.8924-3.8517Z"/>
    <path class="cls-11" d="M872.8719,699.5318c3.1435,6.5133,9.5803,10.661,16.4427,10.5992,6.3172-.0569,12.0889-3.6726,15.1141-9.4324-2.5592,8.7945-10.6214,13.9941-18.2751,12.6487-5.7651-1.0133-10.6893-5.6329-12.8062-11.8027-.1585-.671-.317-1.3419-.4755-2.0129Z"/>
    <path class="cls-13" d="M925.3864,662.5475c-.0988.9092-1.087,11.7509,7.4248,18.9309,6.3989,5.3977,15.2423,6.2591,22.3941,3.1592,9.2023-3.9888,11.9695-12.9609,12.3408-14.2405-4.1879,8.3777-12.8123,13.4428-21.6351,12.7899-10.4329-.772-19.2992-9.4028-20.5246-20.6395Z"/>
    <path class="cls-11" d="M958.6146,644.7606c-.9256,3.6034.3228,7.3982,3.1592,9.6312,3.1626,2.4898,7.7236,2.5845,11.137.17-2.486,3.1277-6.5372,4.3675-9.9018,3.159-4.2071-1.5111-6.7405-6.6345-5.1091-11.5727.2382-.4625.4765-.925.7147-1.3875Z"/>
    <path class="cls-13" d="M934.0716,644.7533c13.029-10.3128,16.8153-28.3388,9.3519-42.3359-6.7606-12.679-21.4741-19.6557-36.173-16.9027,15.2657-5.3007,31.8985.5832,39.7021,13.3092,8.9405,14.58,4.4547,35.1455-11.2307,45.4029-.5501.1755-1.1002.351-1.6503.5265Z"/>
    <path class="cls-11" d="M965.7648,627.3651c9.2908.711,17.9094-4.5297,21.2564-12.7557,2.8885-7.0991,1.4325-15.3938-3.7161-21.4188,7.7282,5.3754,10.7106,15.2156,7.4478,23.3453-3.714,9.2539-14.7433,14.3565-24.988,10.8292Z"/>
    <path class="cls-9" d="M931.5052,600.5615c-.476,1.133-6.3035-2.0574-16.4944-1.7831-10.191.2743-15.8384,3.7735-16.3746,2.6677-.6608-1.3627,6.8274-8.9209,16.1996-9.1731,9.3722-.2522,17.2561,6.8923,16.6695,8.2885Z"/>
    <circle class="cls-9" cx="871.9608" cy="692.7372" r="4.0788"/>
    <circle class="cls-9" cx="936.4628" cy="605.9552" r="2.0762"/>
    <path class="cls-9" d="M850.5637,657.7254c5.9549,1.4783,11.9385-.4231,12.2564-1.6723.3354-1.318-6.5484,1.6702-9.3773-6.6791-.6368-1.8794-.9199-3.8958-2.3271-4.3206-2.5143-.7591-6.8404,4.0992-7.4258,7.1464-.7003,3.6453,3.9342,4.7959,6.8738,5.5257Z"/>
    <ellipse class="cls-9" cx="866.9604" cy="656.6235" rx="1.0723" ry=".4537" transform="translate(-158.5571 294.5618) rotate(-17.6941)"/>
    <path class="cls-9" d="M831.597,674.8293c-.0256,1.5172-3.3838,2.5788-5.1469,3.1363-1.6627.5256-5.1683,1.6339-6.0122.4238-.9231-1.3236,1.1897-5.6338,4.6198-6.4733,3.0251-.7404,6.5659,1.3434,6.5394,2.9132Z"/>
    <ellipse class="cls-9" cx="977.6141" cy="598.6635" rx="2.8458" ry="1.6244" transform="translate(-135.7063 325.4513) rotate(-17.6941)"/>
    <path class="cls-9" d="M972.303,618.7312c3.8826,2.4808,9.4321.7324,12.3953-3.9051,2.9632-4.6375,2.2179-10.408-1.6647-12.8888-3.8826-2.4808-14.6132,14.3131-10.7306,16.7939Z"/>
    <path class="cls-9" d="M967.09,590.2309c-.2093.9596-5.7373.5686-12.347-.8732-6.1353-1.3383-11.3229-2.2044-11.589-4.3483-.3862-3.1115,9.6262-7.8763,11.9288-5.6593,1.3133,1.2644-.9178,3.8021.4182,6.5326,2.2296,4.5569,11.6676,3.9877,11.589,4.3483Z"/>
    <path class="cls-9" d="M924.8448,672.377c-.4481-.3552-3.4069,4.2388-10.0261,8.74-6.5936,4.4838-11.7665,5.4394-11.614,5.9339.1824.5917,7.8982.2309,14.2467-4.5451,5.3283-4.0084,7.8672-9.7533,7.3935-10.1288Z"/>
    <ellipse class="cls-9" cx="963.2289" cy="665.4781" rx="2.6179" ry="5.4854" transform="translate(-156.6941 324.24) rotate(-17.6941)"/>
    <circle class="cls-12" cx="866.0797" cy="608.0493" r="7.9768"/>
    <circle class="cls-12" cx="882.1017" cy="598.801" r="3.0424"/>
    <circle class="cls-12" cx="864.1628" cy="716.0456" r="5.1924"/>
    <circle class="cls-12" cx="850.6248" cy="719.4719" r="3.6014"/>
    <circle class="cls-12" cx="812.9257" cy="671.2278" r="1.7356"/>
    <circle class="cls-12" cx="983.3333" cy="663.5064" r="8.0413"/>
    <circle class="cls-12" cx="992.7523" cy="625.5141" r="4.3431"/>
    <circle class="cls-12" cx="821.2041" cy="648.4638" r="12.9649"/>
    <circle class="cls-12" cx="826.2776" cy="626.7214" r="3.4831"/>
    <circle class="cls-12" cx="914.2302" cy="701.1656" r="4.9802"/>
    <circle class="cls-12" cx="923.8067" cy="691.8011" r="3.4542"/>
    <circle class="cls-12" cx="934.0701" cy="695.0728" r="1.6647"/>
    <path class="cls-11" d="M976.288,659.6305c-.9522,3.3128.1008,6.8502,2.6547,8.959,2.9239,2.4143,7.287,2.5198,10.5124.1606-2.2785,3.0237-6.1594,4.1947-9.3464,2.9817-3.8668-1.4717-6.0885-6.2153-4.4908-10.6614.2234-.4799.4468-.9599.6702-1.4399Z"/>
    <path class="cls-11" d="M909.3999,702.2887c.9323,1.8997,2.8779,3.0917,4.9702,3.0462,1.926-.0419,3.7-1.1266,4.6452-2.8297-.8153,2.5923-3.2939,4.151-5.6217,3.7867-1.7534-.2745-3.2361-1.6111-3.8568-3.414l-.1369-.5891Z"/>
    <path class="cls-11" d="M920.5255,692.8565c.6124,1.216,1.9272,1.9611,3.3587,1.9039,1.3177-.0526,2.5452-.7774,3.2142-1.8912-.5919,1.687-2.3075,2.7277-3.8947,2.5229-1.1955-.1543-2.1918-.9989-2.5924-2.1565l-.0858-.3791Z"/>
    <path class="cls-11" d="M868.5193,718.7609c.8152-1.954.4069-4.2232-1.0421-5.7972-1.3339-1.449-3.3583-2.1012-5.293-1.7146,2.5235-1.0662,5.3849-.1833,6.6812,1.8388.9764,1.5231.9618,3.5317.0095,5.1838l-.3556.4893Z"/>
    <path class="cls-11" d="M853.9807,718.2282c-.6185-1.2141-1.9624-1.9499-3.433-1.8802-1.3538.0641-2.6207.8015-3.3173,1.9241.6224-1.6967,2.3934-2.7551,4.0216-2.5634,1.2265.1444,2.2424.9828,2.6438,2.1401l.0849.3794Z"/>
    <path class="cls-4" d="M996.5321,623.4099c.1252.3117.7563,1.9719-.0515,3.7144-.7358,1.5869-2.3797,2.6263-4.235,2.6943,2.1233.3171,4.1177-.7998,4.8107-2.5685.802-2.0467-.5428-3.9346-.6339-4.0582.0366.0727.0731.1453.1098.218Z"/>
    <path class="cls-11" d="M834.1462,649.6857c.0596-.5482.6555-7.0854-4.4769-11.4146-3.8584-3.2546-9.1908-3.7739-13.5032-1.9047-5.5489,2.4052-7.2175,7.815-7.4414,8.5866,2.5253-5.0514,7.7257-8.1056,13.0457-7.712,6.2909.4654,11.637,5.6694,12.3758,12.4447Z"/>
    <path class="cls-9" d="M816.4824,656.0485c.0256-1.5172,3.3838-2.5788,5.1469-3.1363,1.6627-.5256,5.1683-1.6339,6.0122-.4238.9231,1.3236-1.1897,5.6338-4.6198,6.4733-3.0251.7404-6.5659-1.3434-6.5394-2.9132Z"/>
    <path class="cls-11" d="M873.995,607.0636c-.0453-.5901-.3471-3.8433-2.8462-6.0513-3.3541-2.9634-7.4829-1.2295-7.9061-1.0471-3.2605,1.405-4.2582,4.5256-4.3922,4.9706,1.4475-3.0769,4.4616-4.8382,7.6732-4.4876,3.3771.3687,6.3625,3.0061,7.4713,6.6154Z"/>
    <path class="cls-9" d="M860.7675,610.8402c.2338-.3254,1.8533,1.113,5.1119,1.7682,3.2586.6552,5.3082-.0454,5.398.345.1107.4812-2.8195,2.3376-5.8163,1.7351-2.9968-.6026-4.9818-3.4473-4.6936-3.8483Z"/>
    <circle class="cls-9" cx="859.6923" cy="607.9029" r=".6769"/>
    <path class="cls-9" d="M878.7819,702.5153c-.3376.5973,3.2984,4.5363,8.312,5.3516,5.5498.9025,10.6865-2.3641,10.5078-3.0435-.1496-.5689-3.9587.9381-9.9834.0962-5.5281-.7725-8.5496-2.9117-8.8364-2.4043Z"/>
    <path class="cls-9" d="M902.7783,696.8465c.1454.258-.3584.8176-1.1254,1.25-.767.4324-1.5066.5738-1.6521.3158s.3585-.8175,1.1254-1.2499,1.5066-.5738,1.652-.3159Z"/>
    <path class="cls-9" d="M981.7376,668.5227c-2.4862-1.3522-3.8387-4.7089-2.9331-5.8012,1.0791-1.3017,5.2666.7303,5.6593.9244.2886.1426,4.5715,2.2963,4.183,3.9224-.3374,1.412-4.1982,2.4289-6.9092.9545Z"/>
    <path class="cls-9" d="M980.9253,659.4047c.1454.258-.3584.8176-1.1254,1.25-.767.4324-1.5066.5738-1.6521.3158s.3585-.8175,1.1254-1.2499,1.5066-.5738,1.652-.3159Z"/>
    <path class="cls-9" d="M824.7161,627.8968c.0088-.5202,1.1601-.8841,1.7646-1.0753.5701-.1802,1.7719-.5602,2.0613-.1453.3165.4538-.4079,1.9315-1.5839,2.2194-1.0371.2538-2.2511-.4606-2.242-.9988Z"/>
    <path class="cls-9" d="M939.9313,679.8143c-4.6261-2.5679-6.7299-9.7016-4.7952-12.2351,2.3054-3.019,10.1358.7688,10.8697,1.1317.5393.2667,8.5362,4.3059,7.5239,7.926-.8791,3.1436-8.5539,5.9775-13.5984,3.1773Z"/>
    <path class="cls-9" d="M876.1569,625.6327c.4921.2799,1.2462-3.3055,5.0102-6.8039,3.7494-3.4849,7.6122-4.2128,7.3104-4.6005-.3611-.464-6.5055-.2117-9.9505,3.5028-2.8914,3.1176-2.8903,7.6057-2.3701,7.9016Z"/>
    <path class="cls-9" d="M853.544,719.1637c-.1771.3994-1.1866.304-1.7166.2539-.4998-.0472-1.5536-.1468-1.6416-.5623-.0962-.4545.9477-1.3602,1.9513-1.1978.8851.1432,1.5901,1.093,1.4069,1.5063Z"/>
    <path class="cls-9" d="M861.1681,718.7686c-.1198.2121,1.1711,1.6106,2.9512,1.9001,1.9705.3204,3.7943-.8394,3.7308-1.0806-.0531-.202-1.4055.3331-3.5446.0341-1.9627-.2743-3.0356-1.0338-3.1374-.8537Z"/>
    <circle class="cls-9" cx="851.5399" cy="720.6608" r=".4661"/>
    <ellipse class="cls-9" cx="867.4492" cy="717.6052" rx="1.0105" ry=".4949" transform="translate(-56.8392 1360.3466) rotate(-74.4139)"/>
    <path class="cls-9" d="M913.7275,703.9256c1.7826.4426,3.5739-.1267,3.669-.5006.1004-.3946-1.9603.5-2.8072-1.9994-.1906-.5626-.2754-1.1662-.6966-1.2934-.7527-.2272-2.0477,1.2271-2.223,2.1393-.2096,1.0913,1.1777,1.4357,2.0577,1.6541Z"/>
    <path class="cls-9" d="M918.2769,700.2178c.1454.258-.0475.6424-.431.8586s-.8123.1823-.9577-.0756.0476-.6423.4311-.8585.8123-.1823.9576.0755Z"/>
    <path class="cls-9" d="M935.1571,694.6138c.0868.154-.0284.3835-.2573.5126s-.4849.1089-.5718-.0451.0284-.3834.2574-.5125.4849-.1089.5717.0451Z"/>
    <path class="cls-9" d="M993.3756,623.1596c.1454.258-.0475.6424-.431.8586s-.8123.1823-.9577-.0756.0476-.6423.4311-.8585.8123-.1823.9576.0755Z"/>
    <path class="cls-9" d="M974.4895,631.5519c.3402.0352.4194,1.9634.177,4.3068-.225,2.1752-.3234,4.0041-1.055,4.1794-1.0618.2544-3.0994-3.0256-2.4215-3.9086.3866-.5036,1.3514.17,2.2445-.3983,1.4905-.9485.9272-4.1926,1.055-4.1794Z"/>
    <path class="cls-9" d="M926.511,690.2107c-.0185.192-1.0444-.3163-2.5872.0248-1.5369.3398-2.409,1.262-2.4513,1.1011-.0507-.1926,1.1115-1.8406,2.651-2.0503,1.2921-.1761,2.4071.7214,2.3875.9244Z"/>
    <path class="cls-9" d="M927.0491,691.1838c.1017.1804-.0332.4493-.3015.6005s-.5681.1275-.6699-.0529.0333-.4492.3015-.6005.5681-.1275.6698.0528Z"/>
  </g>
  <g>
    <path class="cls-12" d="M694.4474,593.5444c-7.475-6.0518-8.064-17.2729-1.6828-23.8714,6.2971-6.5116,17.3394-6.4099,23.6971.6341,4.143-7.6894,12.0761-12.6,20.7608-12.8351,13.2322-.3582,20.554,10.3442,20.9786,10.9889,2.2451-4.4246,7.246-6.5449,11.6175-5.1634,4.2231,1.3346,6.6913,5.5683,6.55,9.4181-.1889,5.1403-5.0384,9.8093-11.3584,9.8285.0985,1.5096.0707,3.8418-.7092,6.5398-.8162,2.8237-2.1185,4.8798-3.0411,6.1156,1.7894,1.0715,7.1379,4.5879,9.5641,11.3864,0,.0001,2.4709,6.9239-.087,15.46-.0792.2644-.17.5446-.1701.5447-.0019.0059-.0029.009-.0029.009-.4437,1.3596-2.2461,6.6731-6.8322,10.5088-4.7077,3.9373-10.4389,4.7201-15.9934,5.4787,0,0-.0013.0002-.0013.0002.3214.5516,3.2827,5.8432.7277,11.7222-2.3395,5.3832-7.4603,7.0158-8.1937,7.236,4.0802,12.243,1.1129,25.441-7.6143,33.7362-9.5095,9.0389-21.7677,8.3689-23.9296,8.2145-2.2475,9.8328-9.7336,17.1036-18.5473,18.265-8.2498,1.087-14.5207-3.5927-15.9559-4.7227-9.0167,4.4185-19.8779,1.236-24.8974-6.9258-5.3668-8.7264-2.5759-20.739,6.5867-26.3822-4.0039-1.6958-6.7387-5.2037-7.0088-9.1094-.2154-3.1119,1.2031-5.4752,1.8228-6.3858-4.3075-2.0886-6.4777-6.5202-5.4814-10.277.9476-3.5726,4.3941-5.1597,4.9286-5.3958-1.7068-1.2666-4.0997-3.4545-5.6017-6.8331-3.3938-7.634-.2084-16.7789,4.8571-21.8358,6.9404-6.9286,19.1966-7.9669,29.3536-1.6786-.0404-2.5582.2512-6.4464,2.0438-10.6939,3.7336-8.8465,11.2753-12.847,13.6202-13.9766Z"/>
    <path class="cls-13" d="M775.5737,569.32c-1.7799-5.4424-7.4686-8.2795-12.2126-6.7461-3.9047,1.2622-6.6611,5.3209-6.4706,9.8978.9227-3.8992,3.9373-6.946,7.761-7.8369,3.3585-.7825,7.3497.1542,9.6696,2.7737.6134.6927,1.0042,1.3831,1.2526,1.9113Z"/>
    <path class="cls-11" d="M745.5253,558.7669c-.0021.0074-2.6766-.7873-3.4894-.9907-6.7342-1.6853-17.9085,4.1226-23.7781,13.47-1.4812,2.3588-5.0857,8.0848-4.4708,15.9155,1.0361,13.1935,13.0839,20.1253,14.2747,20.785-1.0744-.2358-2.5356-.6457-4.1571-1.3999-7.2573-3.3753-12.244-11.0952-13.3406-18.4316-1.996-13.3536,8.7864-26.1718,20.4838-29.6188,4.4203-1.3025,8.3818-1.0933,10.9881-.7203,1.4211.3219,3.4913.9842,3.4894.9907Z"/>
    <path class="cls-11" d="M771.8076,616.0666c.0839-1.2341.6137-11.2371-6.3993-16.2569-.5967-.4271-2.435-1.6678-4.8855-2.1592-6.7444-1.3525-14.6628,3.6651-20.4116,12.1032,2.9921-11.0019,12.9868-16.8182,20.3615-14.8621,7.0061,1.8584,10.952,10.5471,11.4694,16.8855.1438,1.7616.015,3.247-.1345,4.2894Z"/>
    <path class="cls-11" d="M717.9039,572.124c-5.551-4.6359-13.1256-5.7582-19.3512-2.8703-5.7309,2.6584-9.4964,8.3335-9.8756,14.8283-1.2976-9.067,3.9009-17.1298,11.4278-19.0624,5.6695-1.4557,12.0611.7204,16.5352,5.4671.4212.5458.8425,1.0916,1.2637,1.6373Z"/>
    <path class="cls-13" d="M685.3286,627.4816c-.2852-.869-3.8585-11.1525-14.5745-14.1806-8.056-2.2765-16.4669.5878-21.7024,6.3625-6.7366,7.4305-5.5552,16.745-5.3654,18.0638.358-9.3592,6.124-17.5317,14.4302-20.5774,9.8219-3.6016,21.4594.6019,27.2121,10.3318Z"/>
    <path class="cls-11" d="M662.4001,657.3943c-.6437-3.6643-3.3466-6.6058-6.8517-7.4695-3.9082-.963-8.1019.8327-10.2149,4.4405.974-3.8748,4.1526-6.6757,7.7161-6.9632,4.4558-.3594,8.8774,3.2621,9.429,8.4335-.0262.5196-.0524,1.0392-.0785,1.5587Z"/>
    <path class="cls-13" d="M684.7595,647.2741c-7.6129,14.77-3.624,32.7523,8.9499,42.4227,11.3898,8.7598,27.6711,9.0438,39.9245.4711-11.7184,11.1274-29.2971,12.6307-41.6564,4.2584-14.1599-9.592-18.5595-30.1761-8.504-45.9917.4287-.3868.8574-.7737,1.286-1.1605Z"/>
    <path class="cls-11" d="M663.0647,676.1903c-8.7564,3.1859-14.4447,11.5159-14.0993,20.39.2981,7.6584,5.0469,14.6133,12.2229,17.9772-9.2577-1.7077-16.0346-9.4406-16.4169-18.1923-.4352-9.9619,7.506-19.1608,18.2934-20.1749Z"/>
    <path class="cls-9" d="M705.3315,686.4696c-.0339-1.2284,6.5908-.7269,15.7606-5.1817,9.1698-4.4548,12.8703-9.9725,13.815-9.1865,1.1642.9686-2.5382,10.9432-10.9713,15.0401-8.4331,4.0969-18.5625.842-18.6043-.6719Z"/>
    <circle class="cls-9" cx="721.5374" cy="577.9373" r="4.0788"/>
    <circle class="cls-9" cx="698.59" cy="683.6021" r="2.0762"/>
    <path class="cls-9" d="M755.4746,601.0009c-6.0343,1.1105-10.7003,5.3115-10.4744,6.5805.2383,1.339,5.2758-4.2234,11.2977,2.2148,1.3556,1.4492,2.4454,3.1691,3.9025,2.9755,2.6035-.3459,4.5395-6.5564,3.8155-9.5737-.8663-3.6095-5.5625-2.7453-8.5413-2.1971Z"/>
    <ellipse class="cls-9" cx="740.9935" cy="608.7702" rx="1.0723" ry=".4537" transform="translate(-216.9701 653.2483) rotate(-42.0635)"/>
    <path class="cls-9" d="M765.6941,577.5949c-.6027-1.3926,2.0182-3.7453,3.3943-4.9805,1.2977-1.1649,4.0337-3.6209,5.3017-2.8668,1.387.8248,1.2409,5.6227-1.5372,7.8027-2.4501,1.9226-6.5352,1.4855-7.1588.0446Z"/>
    <ellipse class="cls-9" cx="664.1138" cy="707.2239" rx="2.8458" ry="1.6244" transform="translate(-302.7334 627.1039) rotate(-42.0635)"/>
    <path class="cls-9" d="M660.6715,686.7527c-4.5603-.6578-8.894,3.2247-9.6796,8.6717-.7857,5.447,2.2743,10.3959,6.8345,11.0536,4.5603.6578,7.4054-19.0675,2.8451-19.7253Z"/>
    <path class="cls-9" d="M677.1797,710.5628c-.2053-.9604,4.9915-2.8852,11.6073-4.2992,6.1409-1.3124,11.2236-2.6641,12.3506-.821,1.6356,2.6749-5.5186,11.1465-8.5309,10.0772-1.718-.6098-.7328-3.8421-3.0764-5.778-3.9112-3.2309-12.2735,1.1818-12.3506.821Z"/>
    <path class="cls-9" d="M681.7661,618.3044c.5547.1387,1.3543-5.2669,5.5266-12.0983,4.1561-6.805,8.4737-9.8099,8.1308-10.1974-.4103-.4637-7.2898,3.0486-11.102,10.0186-3.1996,5.8498-3.1419,12.1304-2.5554,12.277Z"/>
    <ellipse class="cls-9" cx="649.6485" cy="640.4266" rx="2.6179" ry="5.4854" transform="translate(-261.7086 600.206) rotate(-42.0635)"/>
    <circle class="cls-12" cx="761.8383" cy="652.6532" r="7.9768"/>
    <circle class="cls-12" cx="751.0598" cy="667.6885" r="3.0424"/>
    <circle class="cls-12" cx="719.0231" cy="553.488" r="5.1924"/>
    <circle class="cls-12" cx="729.9412" cy="544.781" r="3.6014"/>
    <circle class="cls-12" cx="784.1878" cy="573.1714" r="1.7356"/>
    <circle class="cls-12" cx="632.1488" cy="650.5181" r="8.0413"/>
    <circle class="cls-12" cx="639.2454" cy="689.0119" r="4.3431"/>
    <circle class="cls-12" cx="786.0398" cy="597.323" r="12.9649"/>
    <circle class="cls-12" cx="790.3897" cy="619.2217" r="3.4831"/>
    <circle class="cls-12" cx="679.5563" cy="587.701" r="4.9802"/>
    <circle class="cls-12" cx="674.697" cy="600.1826" r="3.4542"/>
    <circle class="cls-12" cx="663.9981" cy="601.4373" r="1.6647"/>
    <path class="cls-11" d="M640.1657,651.1416c-.4996-3.4105-2.9184-6.1983-6.1148-7.0654-3.6595-.9927-7.6774.7114-9.642,4.1913.8279-3.6945,3.8798-6.3624,7.2834-6.5726,4.1295-.2549,8.1106,3.1493,8.4898,7.8585-.0055.5294-.0109,1.0588-.0164,1.5881Z"/>
    <path class="cls-11" d="M683.4928,584.6849c-1.6331-1.3458-3.8972-1.6288-5.7843-.724-1.7371.8329-2.9055,2.5529-3.0638,4.4943-.3269-2.6977,1.2876-5.1403,3.5584-5.7689,1.7104-.4735,3.6125.1322,4.9219,1.5185l.3678.4801Z"/>
    <path class="cls-11" d="M677.2504,597.8674c-1.0596-.855-2.5647-.9911-3.845-.3484-1.1786.5916-1.9977,1.7584-2.1475,3.049-.1569-1.7809.9764-3.4368,2.5067-3.9052,1.1526-.3528,2.4087.0055,3.2512.8947l.2346.3099Z"/>
    <path class="cls-11" d="M713.9344,552.8122c.0637,2.1163,1.3719,4.0148,3.3413,4.8507,1.8129.7695,3.926.5283,5.5289-.6221-1.8587,2.0125-4.8295,2.3889-6.8447,1.0818-1.5179-.9845-2.3333-2.8202-2.1476-4.718l.1221-.5924Z"/>
    <path class="cls-11" d="M727.3975,547.2986c1.0643.8507,2.5921.9664,3.9029.2962,1.2067-.617,2.0565-1.8114,2.2278-3.1215.1331,1.8024-1.0433,3.4972-2.6056,3.9944-1.1768.3745-2.4481.03-3.2913-.8586l-.2339-.3106Z"/>
    <path class="cls-4" d="M636.6706,692.4882c-.2427-.2323-1.5026-1.4841-1.4857-3.4047.0155-1.7491,1.084-3.3742,2.7459-4.2017-2.065.5873-3.4208,2.4276-3.3223,4.3247.114,2.1953,2.1179,3.36,2.2519,3.4351-.0633-.0511-.1266-.1022-.1899-.1533Z"/>
    <path class="cls-11" d="M773.7467,601.5502c.1719.524,2.3264,6.7246,8.7879,8.5503,4.8575,1.3726,9.9291-.3546,13.0861-3.8367,4.0621-4.4805,3.3498-10.0968,3.2354-10.892-.216,5.6434-3.6928,10.5712-8.7013,12.4078-5.9224,2.1718-12.9395-.3627-16.4081-6.2294Z"/>
    <path class="cls-9" d="M787.2113,588.4659c.6027,1.3926-2.0182,3.7453-3.3943,4.9805-1.2977,1.1649-4.0337,3.6209-5.3017,2.8668-1.387-.8248-1.2409-5.6227,1.5372-7.8027,2.4501-1.9226,6.5352-1.4855,7.1588-.0446Z"/>
    <path class="cls-11" d="M755.0349,656.8171c.2848.5188,1.902,3.3577,5.0895,4.3378,4.278,1.3155,7.3235-1.9676,7.6338-2.3084,2.3903-2.6252,2.0114-5.8794,1.9499-6.34-.049,3.4-2.0678,6.2481-5.1379,7.2539-3.2284,1.0576-7.036-.113-9.5353-2.9432Z"/>
    <path class="cls-9" d="M765.5256,647.9191c-.0787.3929-2.1474-.2491-5.386.4986-3.2386.7477-4.8165,2.2316-5.0595,1.913-.2994-.3926,1.6038-3.2927,4.5822-3.9804,2.9784-.6876,5.9603,1.0846,5.8633,1.5687Z"/>
    <circle class="cls-9" cx="767.717" cy="650.1511" r=".6769"/>
    <path class="cls-9" d="M711.2894,571.8449c.061-.6834-4.8763-2.7712-9.7796-1.4451-5.4277,1.4679-8.7589,6.5629-8.3158,7.108.3711.4565,3.2189-2.4879,9.0542-4.2069,5.3543-1.5773,8.9893-.8754,9.0412-1.456Z"/>
    <path class="cls-9" d="M691.77,586.91c-.2389-.175-.0109-.8927.5093-1.603s1.1356-1.1443,1.3745-.9694.0108.8926-.5094,1.6029c-.5202.7103-1.1356,1.1443-1.3744.9694Z"/>
    <path class="cls-9" d="M631.5326,645.2903c2.8226.2059,5.4396,2.7054,5.0654,4.0741-.4459,1.631-5.0987,1.5079-5.5365,1.4931-.3217-.0108-5.1117-.2055-5.4287-1.8469-.2753-1.4254,2.8219-3.9448,5.8998-3.7203Z"/>
    <path class="cls-9" d="M636.0348,653.2608c-.2389-.175-.0109-.8927.5093-1.603s1.1356-1.1443,1.3745-.9694.0108.8926-.5094,1.6029c-.5202.7103-1.1356,1.1443-1.3744.9694Z"/>
    <path class="cls-9" d="M791.3271,617.5067c.2066.4775-.6919,1.2841-1.1637,1.7076-.4449.3994-1.3829,1.2414-1.8177.9829-.4755-.2828-.4255-1.9277.527-2.6752.84-.6592,2.2406-.5093,2.4544-.0153Z"/>
    <path class="cls-9" d="M664.955,617.7547c5.2735.4303,10.1333,6.0604,9.4164,9.1664-.8543,3.7013-9.55,3.4819-10.3682,3.4541-.6013-.0204-9.5524-.4001-10.124-4.1153-.4963-3.2263,5.3254-8.9744,11.0758-8.5052Z"/>
    <path class="cls-9" d="M745.4037,640.7944c-.5637-.0519.2287,3.5252-1.7564,8.265-1.9774,4.7215-5.1957,6.9784-4.7608,7.207.5204.2736,6.0133-2.4914,7.6187-7.2965,1.3475-4.0329-.5054-8.1206-1.1014-8.1755Z"/>
    <path class="cls-9" d="M727.4092,546.2662c-.0035-.4369.9554-.7665,1.4589-.9396.4748-.1632,1.4758-.5073,1.7274-.1651.2752.3743-.302,1.63-1.2832,1.8963-.8654.2348-1.8994-.3395-1.903-.7915Z"/>
    <path class="cls-9" d="M720.6275,549.7719c.0217-.2426-1.7313-.9839-3.4723-.5131-1.9271.5212-3.1099,2.3302-2.9525,2.5237.1317.1621,1.1429-.8834,3.2147-1.4937,1.901-.56,3.1917-.3108,3.2101-.5169Z"/>
    <circle class="cls-9" cx="728.6171" cy="544.0755" r=".4661"/>
    <ellipse class="cls-9" cx="715.386" cy="553.4234" rx=".4949" ry="1.0105" transform="translate(-76.1176 115.7286) rotate(-8.7834)"/>
    <path class="cls-9" d="M678.8754,584.9795c-1.8064.3324-3.2032,1.59-3.1356,1.9699.0713.4008,1.5793-1.2643,3.3821.663.4058.4338.7321.9487,1.1682.8907.7794-.1036,1.3589-1.9627,1.1422-2.866-.2593-1.0805-1.6652-.8218-2.5569-.6577Z"/>
    <path class="cls-9" d="M676.2612,590.2341c-.2389-.175-.2218-.6047.0383-.9599s.6647-.5012.9036-.3263.2217.6047-.0384.9599-.6647.5012-.9035.3263Z"/>
    <path class="cls-9" d="M663.1972,602.3039c-.1426-.1045-.1324-.361.0229-.5731s.3968-.2993.5395-.1948.1323.361-.0229.573-.3968.2993-.5394.1948Z"/>
    <path class="cls-9" d="M639.6491,691.4138c-.2389-.175-.2218-.6047.0383-.9599s.6647-.5012.9036-.3263.2217.6047-.0384.9599c-.2601.3552-.6647.5012-.9035.3263Z"/>
    <path class="cls-9" d="M653.3897,675.9764c-.3244.1083-1.1922-1.6154-1.9383-3.8501-.6925-2.0742-1.3576-3.7808-.7635-4.2423.8622-.6699,4.0717,1.4772,3.8185,2.5612-.1444.6182-1.3012.4027-1.8802,1.2889-.9663,1.4789.8854,4.2016.7635,4.2423Z"/>
    <path class="cls-9" d="M672.8898,602.7472c-.0624-.1825,1.0818-.1428,2.3464-1.0902,1.2597-.9437,1.6736-2.1436,1.7786-2.0145.1256.1545-.253,2.1352-1.5688,2.9615-1.1043.6935-2.4903.3361-2.5562.1431Z"/>
    <path class="cls-9" d="M671.9982,602.0827c-.1671-.1224-.1551-.423.0268-.6714s.4649-.3506.632-.2282.155.4229-.0269.6714-.4649.3506-.6319.2283Z"/>
  </g>
</svg>