<?xml version="1.0" encoding="UTF-8"?>
<svg id="Layer_1" data-name="Layer 1" xmlns="http://www.w3.org/2000/svg" viewBox="0 0 1621.4173 1264.252">
  <defs>
    <style>
      .cls-1 {
        fill: #8dd4e0;
      }

      .cls-2 {
        fill: #fbd8e6;
      }

      .cls-3 {
        fill: #fad2e3;
      }

      .cls-4 {
        fill: #e6a9c7;
      }

      .cls-5 {
        fill: #e582ae;
      }

      .cls-6 {
        fill: #f9c4db;
      }

      .cls-7 {
        fill: #facee1;
      }

      .cls-8 {
        fill: #f6e5f0;
      }

      .cls-9 {
        fill: #fcf6fa;
      }

      .cls-10 {
        fill: #fff;
      }

      .cls-11 {
        fill: #f7d1e2;
      }

      .cls-12 {
        fill: #f9e6f0;
      }

      .cls-13 {
        fill: #ebb7d3;
      }

      .cls-14 {
        fill: #f2b3cc;
      }

      .cls-15 {
        fill: #f19bc2;
      }

      .cls-16 {
        fill: #f1c1d6;
      }
    </style>
  </defs>
  <g>
    <circle class="cls-1" cx="778.7208" cy="931.237" r="3.7904"/>
    <rect class="cls-15" x="459.0343" y="474.5566" width="609.6989" height="326.6901" rx="118.0451" ry="118.0451" transform="translate(-117.9381 176.5698) rotate(-12.2478)"/>
    <rect class="cls-5" x="451.2774" y="443.6257" width="609.6989" height="317.086" rx="69.9154" ry="69.9154" transform="translate(-110.5343 174.1109) rotate(-12.2478)"/>
    <path class="cls-14" d="M1019.2984,701.5413l-464.8362,100.9073c-37.7797,8.2012-75.4005-15.9993-83.6017-53.7789l-37.444-172.4881c-8.2013-37.7798,15.9993-75.4005,53.779-83.6018l464.8362-100.9073c37.7797-8.2012,75.4005,15.9993,83.6017,53.7789l37.444,172.4881c8.2013,37.7798-15.9993,75.4005-53.7789,83.6017Z"/>
    <path class="cls-2" d="M464.4292,522.3796c3.0065.3344-.7632,27.523,1.3414,66.4563,4.5713,84.5636,32.1415,137.3255,28.4591,138.6791-3.6593,1.3451-30.1078-51.0397-38.8922-107.5038-1.1966-7.6917-2.3382-17.2119-2.5557-28.7383-.6884-36.4699,8.321-69.2634,11.6474-68.8933Z"/>
    <ellipse class="cls-6" cx="642.2951" cy="505.6506" rx="34.0495" ry="5.6749" transform="translate(-63.0001 92.3901) rotate(-7.8441)"/>
    <path class="cls-6" d="M1038.4539,687.2517c1.1635,5.3598-106.1105,33.197-239.6035,62.1758-133.4929,28.9789-242.6535,48.1258-243.8171,42.7657-1.1635-5.3599,106.1106-33.1971,239.6036-62.1758.0003-.0002,93.0748-28.6896,224.4535-42.4738,7.7304-.8111,19.0158-1.8936,19.3635-.2919Z"/>
    <ellipse class="cls-2" cx="656.4035" cy="503.032" rx="7.4908" ry="3.4046" transform="translate(-78.5886 123.9629) rotate(-10.1824)"/>
    <ellipse class="cls-2" cx="524.7526" cy="538.8376" rx="15.2107" ry="3.9015" transform="translate(-196.9881 327.1735) rotate(-29.4139)"/>
    <ellipse class="cls-2" cx="839.4145" cy="730.4593" rx="105.3031" ry="3.7242" transform="translate(-135.8542 194.6996) rotate(-12.2478)"/>
    <ellipse class="cls-2" cx="972.2453" cy="702.1623" rx="12.7686" ry="3.9015" transform="translate(-126.8279 222.2344) rotate(-12.2478)"/>
    <path class="cls-6" d="M925.0937,556.1743c14.0975,33.1894-2.0553,66.7382,3.321,68.2455,6.0952,1.7091,35.1906-39.074,24.7544-74.3401-16.3419-55.2222-118.4708-59.263-119.744-55.3254-1.0796,3.3389,70.5732,11.7553,91.6686,61.4199Z"/>
    <ellipse class="cls-2" cx="942.2395" cy="580.7614" rx="14.3203" ry="6.606" transform="translate(177.6175 1381.044) rotate(-77.9536)"/>
    <path class="cls-2" d="M997.26,450.0691c7.078,10.6243,10.9489,21.4358,10.2923,21.783-.6036.3192-4.8368-8.305-13.3105-20.0814-12.919-17.9544-23.6996-26.566-23.1429-27.16.6202-.6618,15.0984,8.8531,26.1611,25.4584Z"/>
    <circle class="cls-4" cx="542.3673" cy="835.9523" r="76.3989"/>
    <circle class="cls-3" cx="695.2529" cy="839.5938" r="60.533"/>
    <circle class="cls-12" cx="533.959" cy="840.6929" r="72.2089"/>
    <circle class="cls-8" cx="686.2587" cy="840.4272" r="60.533"/>
    <ellipse class="cls-15" cx="754.7258" cy="590.484" rx="121.5806" ry="50.0102" transform="translate(-108.0871 173.5471) rotate(-12.2478)"/>
    <ellipse class="cls-14" cx="752.4225" cy="595.5983" rx="105.6249" ry="37.7487" transform="translate(-109.2244 173.1749) rotate(-12.2478)"/>
    <circle class="cls-8" cx="985.8434" cy="388.6339" r="27.4663"/>
    <circle class="cls-16" cx="1090.5476" cy="714.0215" r="65.1208"/>
    <circle class="cls-11" cx="1078.5098" cy="714.2521" r="65.1208"/>
    <circle class="cls-16" cx="1072.9283" cy="610.1966" r="43.3054"/>
    <circle class="cls-11" cx="1064.4346" cy="606.8384" r="43.3054"/>
    <circle class="cls-4" cx="979.1674" cy="788.9372" r="54.5059"/>
    <circle class="cls-11" cx="973.9822" cy="779.7401" r="54.5059"/>
    <circle class="cls-8" cx="1096.8588" cy="698.9403" r="14.1189"/>
    <circle class="cls-16" cx="1027.1318" cy="448.7554" r="37.0309"/>
    <circle class="cls-11" cx="1032.9082" cy="452.4309" r="37.0309"/>
    <circle class="cls-16" cx="1025.2689" cy="399.0885" r="22.7664"/>
    <circle class="cls-8" cx="1028.2608" cy="400.6976" r="22.7664"/>
    <circle class="cls-3" cx="640.9078" cy="772.8565" r="23.035"/>
    <circle class="cls-12" cx="637.3924" cy="775.4687" r="21.7717"/>
    <circle class="cls-8" cx="1019.4396" cy="458.3127" r="11.2573"/>
    <circle class="cls-8" cx="639.2161" cy="455.6006" r="41.7418"/>
    <circle class="cls-4" cx="538.3866" cy="501.6333" r="56.2774"/>
    <circle class="cls-11" cx="531.3691" cy="509.3158" r="56.2774"/>
    <circle class="cls-3" cx="610.809" cy="515.4918" r="34.5991"/>
    <circle class="cls-8" cx="610.0293" cy="515.9314" r="34.5991"/>
    <circle class="cls-8" cx="526.098" cy="487.6113" r="17.1081"/>
    <circle class="cls-4" cx="565.4664" cy="752.4637" r="43.3054"/>
    <circle class="cls-11" cx="557.5113" cy="751.5568" r="43.3054"/>
    <circle class="cls-4" cx="971.7326" cy="442.4124" r="39.4402"/>
    <circle class="cls-11" cx="964.4875" cy="441.5864" r="39.4402"/>
    <circle class="cls-16" cx="1015.8867" cy="727.4869" r="54.5059"/>
    <circle class="cls-8" cx="1012.3812" cy="721.2692" r="54.5059"/>
    <circle class="cls-3" cx="778.2675" cy="825.139" r="28.655"/>
    <circle class="cls-8" cx="773.0036" cy="824.5389" r="28.655"/>
    <circle class="cls-4" cx="646.4668" cy="867.099" r="37.6478"/>
    <circle class="cls-11" cx="639.5453" cy="864.0718" r="37.6478"/>
    <path class="cls-7" d="M821.2067,568.4125c2.5568,5.5629-7.2829,18.0254-19.2502,21.2923-9.6586,2.6367-18.2629-1.6155-21.9002-2.8047-38.5983-12.6199-83.3033,10.7166-84.3449,7.4801-1.238-3.8468,51.3816-24.4736,102.2844-29.1168,12.7952-1.1671,21.3292-.945,23.2109,3.1492Z"/>
    <ellipse class="cls-2" cx="772.7828" cy="613.629" rx="8.8806" ry="3.5468" transform="translate(-67.5753 96.394) rotate(-6.8393)"/>
    <ellipse class="cls-2" cx="797.537" cy="578.2471" rx="7.7143" ry="5.3632" transform="translate(-181.1792 466.2224) rotate(-29.4139)"/>
    <ellipse class="cls-2" cx="942.2765" cy="431.4447" rx="7.4483" ry="5.3202" transform="translate(-90.4245 518.3826) rotate(-29.4139)"/>
    <path class="cls-8" d="M1078.3633,592.3545c2.3523-.6059,20.1121,28.9014,9.6619,40.9699-11.4568,13.2308-47.6696-5.0652-47.1825-7.6479.239-1.2667,9.345,1.0511,22.1705-3.495,4.925-1.7458,8.7718-3.1092,11.7404-6.6194,7.5132-8.8837,2.0321-22.8014,3.6097-23.2076Z"/>
    <path class="cls-8" d="M662.1966,861.733c2.1547-.887,10.6901,12.2877-1.0101,21.6954-12.8271,10.3137-39.731,7.8627-38.7273,6.2464.4924-.7928,7.7755-1.5075,19.8059-7.0681,4.6197-2.1354,8.2279-3.8031,11.5702-6.5233,8.4588-6.8844,6.9162-13.7555,8.3613-14.3503Z"/>
    <ellipse class="cls-8" cx="660.1561" cy="848.2366" rx="2.3941" ry="6.1156" transform="translate(-331.4845 433.5556) rotate(-29.4139)"/>
    <ellipse class="cls-8" cx="533.7542" cy="765.1362" rx="7.3153" ry="9.4434" transform="translate(-306.9665 360.7656) rotate(-29.4139)"/>
    <path class="cls-8" d="M592.1881,750.9722c-5.5194-6.0919-23.3175-.038-24.0449,5.6166-.3386,2.6321,3.2512,3.3915,4.1806,7.4152,1.9756,8.5533-11.6504,16.3612-10.049,19.1019,1.44,2.4645,14.936.3939,23.4507-8.931,5.9323-6.4968,10.9901-18.2056,6.4626-23.2027Z"/>
    <circle class="cls-8" cx="478.6029" cy="716.5184" r="41.7418"/>
    <circle class="cls-16" cx="463.6859" cy="606.6862" r="56.2774"/>
    <circle class="cls-11" cx="458.3603" cy="597.7474" r="56.2774"/>
    <circle class="cls-16" cx="493.082" cy="783.7808" r="34.5991"/>
    <circle class="cls-11" cx="489.3773" cy="785.4884" r="30.5336"/>
    <circle class="cls-8" cx="480.6619" cy="598.9762" r="17.1081"/>
    <circle class="cls-16" cx="916.0334" cy="400.3665" r="24.8528"/>
    <circle class="cls-11" cx="911.4393" cy="400.4545" r="24.8528"/>
    <path class="cls-8" d="M440.1822,556.0833c5.204,1.7437,8.3199,10.2492,6.3868,16.1202-1.4214,4.3169-5.5715,5.4281-8.939,7.6995-15.1952,10.2495-9.6607,37.7379-13.0344,38.046-3.4388.3141-15.6097-27.4792-3.7274-47.7839,3.8221-6.5312,12.5156-16.3597,19.314-14.0817Z"/>
    <path class="cls-10" d="M1044.2083,718.2479c3.0212-1.2878,13.9602,15.3417-2.7281,28.3134-18.2956,14.221-55.1849,12.688-53.7034,10.5213.7267-1.0627,10.798-2.4423,27.7037-10.4249,6.4918-3.0654,11.5623-5.4596,16.3316-9.2078,12.0702-9.4861,10.37-18.3384,12.3962-19.202Z"/>
    <ellipse class="cls-10" cx="1042.2311" cy="700.799" rx="3.3793" ry="7.751" transform="translate(-209.8239 602.1932) rotate(-29.4139)"/>
  </g>
  <g>
    <path class="cls-12" d="M1199.2566,874.3053c18.1381,36.163.919,80.1815-34.9852,94.3894-35.4308,14.021-77.5656-5.5346-89.7005-43.5603-29.2213,22.2729-68.1418,27.3193-101.8273,13.1465-51.324-21.5945-60.8033-75.3113-61.311-78.5189-16.2824,13.0569-39.1244,12.5016-53.4771-.3795-13.8654-12.4437-15.9745-32.9503-8.7508-47.4562,9.6457-19.3685,36.3316-28.8414,60.5815-17.9454,2.2428-5.9552,6.3971-14.8435,14.0687-23.8279,8.0285-9.4029,16.5871-15.021,22.2675-18.155-4.9969-7.2117-19.3875-29.9687-16.8838-60.2298.0001-.0005,2.55-30.8192,27.167-59.0874.7622-.8757,1.5967-1.7914,1.5972-1.7921.0174-.0192.0266-.0293.0267-.0293,4.0599-4.4394,20.1888-21.671,44.4192-28.4082,24.8723-6.9155,48.1914.0326,70.7915,6.7666.0001,0,.0054.0016.0054.0016-.2741-2.6713-2.4366-28.0875,17.5575-46.1795,18.308-16.5663,40.7629-13.9341,43.9553-13.5047,5.6157-53.9938,39.8931-99.4145,87.7312-116.0521,52.1266-18.1291,97.9335,5.7144,105.9495,10.0587,25.6782-33.7756,66.9828-48.6422,102.7704-37.7943,33.4977,10.1537,49.4036,38.9694,52.9417,45.7905,42.2185-1.2802,78.3119,29.7658,83.3792,69.7519,5.4177,42.7522-26.1262,83.9369-71.0295,89.6572,12.3984,13.4474,16.7889,31.6352,11.0449,47.0697-4.5761,12.2979-14.1131,18.8914-18.0681,21.3048,12.8798,15.4795,13.5039,36.2271,3.1656,48.8927-9.8318,12.0444-25.7927,12.1437-28.2506,12.1205,4.3416,7.8156,9.7128,20.3526,9.6039,35.9053-.2462,35.142-28.3243,64.6538-56.5112,75.2386-38.6193,14.5021-87.3841-2.792-115.3885-44.5167-4.2854,9.8725-12.1514,24.2649-26.3927,37.4289-29.6606,27.4171-65.5024,29.656-76.4478,29.9144Z"/>
    <path class="cls-13" d="M846.357,826.3169c-2.6261,23.9433,14.2471,44.6881,35.0864,47.0463,17.1526,1.9411,34.7587-8.8267,41.9731-26.6949-10.3033,13.339-27.1427,19.7811-43.3404,16.5581-14.2269-2.831-27.8944-13.3476-32.237-27.4117-1.1483-3.7189-1.447-7.0427-1.4821-9.4979Z"/>
    <path class="cls-11" d="M943.1774,918.9082c.0209-.0247,8.8894,7.6624,11.6509,9.8527,22.8786,18.1461,75.7762,15.2867,114.4908-10.3422,9.7697-6.4674,33.5197-22.1514,44.7551-53.224,18.9295-52.3521-15.2028-99.8242-18.6206-104.4188,3.7075,2.7682,8.5949,6.8753,13.4992,12.5795,21.9497,25.5297,27.6579,63.7655,19.1263,93.7798-15.5295,54.6319-79.0928,85.0328-129.897,77.9378-19.1981-2.6812-34.0142-10.3588-43.3537-16.3121-4.8864-3.6999-11.6694-9.8309-11.6509-9.8527Z"/>
    <path class="cls-11" d="M941.9248,653.7335c-2.4634,4.5832-21.8555,41.9925-3.6963,73.3992,1.5452,2.6725,6.4357,10.6169,14.9722,16.7532,23.4951,16.8887,62.5453,11.4065,99.2189-10.9483-30.5608,36.9629-78.953,41.902-103.8157,21.6062-23.6198-19.2812-23.6587-59.4227-14.6396-84.608,2.5065-6.9995,5.5781-12.4676,7.9605-16.2023Z"/>
    <path class="cls-11" d="M1072.1988,915.6692c13.2234,27.3983,40.2995,44.8456,69.1664,44.5857,26.5733-.2391,50.8521-15.4489,63.5777-39.6773-10.7655,36.9944-44.679,58.8661-76.8745,53.207-24.2508-4.2625-44.9645-23.6947-53.8694-49.6482-.6667-2.8224-1.3335-5.6448-2.0002-8.4672Z"/>
    <path class="cls-13" d="M1293.1015,760.0943c-.4156,3.8248-4.5725,49.4303,31.2325,79.633,26.9172,22.7056,64.117,26.3289,94.2009,13.289,38.7098-16.779,50.35-54.5201,51.9116-59.9028-17.6163,35.2407-53.895,56.5472-91.0083,53.8009-43.8861-3.2475-81.1821-39.553-86.3368-86.8201Z"/>
    <path class="cls-11" d="M1432.8764,685.2736c-3.8936,15.1577,1.3577,31.1204,13.2893,40.5137,13.3037,10.4733,32.4896,10.8717,46.8479.7152-10.4574,13.1567-27.4987,18.3719-41.652,13.2882-17.6971-6.3566-28.3539-27.9079-21.4916-48.6808,1.0021-1.9455,2.0043-3.8909,3.0064-5.8364Z"/>
    <path class="cls-13" d="M1329.636,685.2429c54.8066-43.3811,70.7337-119.2076,39.3389-178.0863-28.4384-53.3341-90.3309-82.6818-152.1621-71.1014,64.2154-22.2975,134.1815,2.453,167.0073,55.9851,37.6082,61.3311,18.7388,147.84-47.242,190.9879-2.314.7382-4.628,1.4765-6.942,2.2147Z"/>
    <path class="cls-11" d="M1462.9537,612.0993c39.0819,2.9908,75.3362-19.0543,89.4153-53.6569,12.1503-29.8624,6.0258-64.754-15.632-90.0986,32.5089,22.6117,45.0543,64.0047,31.3292,98.2024-15.6231,38.9267-62.0179,60.3909-105.1125,45.5531Z"/>
    <path class="cls-9" d="M1318.8406,499.3498c-2.0022,4.7659-26.5156-8.6544-69.384-7.5006-42.8684,1.1537-66.6245,15.8731-68.8801,11.2218-2.7798-5.732,28.7194-37.5258,68.1436-38.5868,39.4243-1.061,72.5879,28.9924,70.1205,34.8657Z"/>
    <circle class="cls-9" cx="1068.3662" cy="887.0876" r="17.1577"/>
    <circle class="cls-9" cx="1339.6948" cy="522.0385" r="8.7334"/>
    <path class="cls-9" d="M978.3592,739.8101c25.0494,6.2187,50.2195-1.7799,51.5565-7.0345,1.4108-5.5444-27.5458,7.0258-39.4456-28.0957-2.6788-7.9058-3.8697-16.3876-9.7889-18.1748-10.5763-3.1933-28.774,17.2433-31.2367,30.0613-2.9457,15.3342,16.5492,20.174,28.9146,23.2438Z"/>
    <ellipse class="cls-9" cx="1047.3321" cy="735.1749" rx="4.5108" ry="1.9084" transform="translate(-173.8987 353.099) rotate(-17.6941)"/>
    <path class="cls-9" d="M898.5756,811.7579c-.1076,6.3823-14.2339,10.8478-21.6505,13.1927-6.9944,2.2111-21.7405,6.873-25.2906,1.7828-3.883-5.5679,5.0043-23.6986,19.4331-27.2299,12.7251-3.1144,27.6193,5.6509,27.508,12.2545Z"/>
    <ellipse class="cls-9" cx="1512.7983" cy="491.3657" rx="11.971" ry="6.833" transform="translate(-77.7769 483.0362) rotate(-17.6941)"/>
    <path class="cls-9" d="M1490.4568,575.7806c16.332,10.4355,39.6764,3.081,52.141-16.4267,12.4647-19.5077,9.3295-43.7815-7.0025-54.217-16.332-10.4355-61.4705,60.2082-45.1385,70.6437Z"/>
    <path class="cls-9" d="M1468.5284,455.894c-.8805,4.0364-24.134,2.3916-51.9379-3.6732-25.8081-5.6297-47.6299-9.2726-48.7492-18.291-1.6244-13.0884,40.4926-33.1317,50.1788-23.8061,5.5244,5.3187-3.8605,15.9938,1.7591,27.4793,9.3788,19.1686,49.0799,16.7745,48.7492,18.291Z"/>
    <path class="cls-9" d="M1290.8235,801.4425c-1.8848-1.4942-14.3311,17.8305-42.175,36.7649-27.7362,18.8613-49.4959,22.881-48.8546,24.9609.7674,2.4889,33.2241.9713,59.9289-19.1189,22.4135-16.8614,33.0933-41.0272,31.1006-42.6069Z"/>
    <ellipse class="cls-9" cx="1452.2866" cy="772.4221" rx="11.0121" ry="23.0746" transform="translate(-166.0622 477.9405) rotate(-17.6941)"/>
    <circle class="cls-12" cx="1043.6275" cy="530.8473" r="33.5544"/>
    <circle class="cls-12" cx="1111.024" cy="491.944" r="12.7977"/>
    <circle class="cls-12" cx="1035.564" cy="985.1349" r="21.842"/>
    <circle class="cls-12" cx="978.6164" cy="999.5475" r="15.1492"/>
    <circle class="cls-12" cx="820.0348" cy="796.6081" r="7.3009"/>
    <circle class="cls-12" cx="1536.856" cy="764.128" r="33.8257"/>
    <circle class="cls-12" cx="1576.477" cy="604.3128" r="18.2695"/>
    <circle class="cls-12" cx="854.8578" cy="700.8514" r="54.5371"/>
    <circle class="cls-12" cx="876.1995" cy="609.3916" r="14.6518"/>
    <circle class="cls-12" cx="1246.1733" cy="922.5418" r="20.9493"/>
    <circle class="cls-12" cx="1286.4567" cy="883.1501" r="14.53"/>
    <circle class="cls-12" cx="1329.6298" cy="896.9123" r="7.0025"/>
    <path class="cls-11" d="M1507.2201,747.8242c-4.0054,13.9353.4241,28.8156,11.1669,37.6862,12.2993,10.1557,30.6526,10.5997,44.2205.6755-9.5847,12.7194-25.9096,17.645-39.3159,12.5426-16.2656-6.1908-25.6114-26.1445-18.8907-44.8474.9398-2.0188,1.8794-4.038,2.8192-6.0568Z"/>
    <path class="cls-11" d="M1225.8544,927.2661c3.9216,7.9912,12.106,13.0054,20.9071,12.8137,8.1018-.1764,15.564-4.739,19.5402-11.9032-3.4297,10.9044-13.8557,17.4614-23.6478,15.9286-7.3758-1.1545-13.6127-6.7769-16.2236-14.3612-.192-.826-.384-1.6519-.5759-2.4779Z"/>
    <path class="cls-11" d="M1272.6544,887.5893c2.5762,5.1153,8.1069,8.2493,14.1284,8.0088,5.543-.2213,10.7066-3.2703,13.5207-7.9554-2.4898,7.0964-9.7067,11.4742-16.3831,10.6127-5.0289-.6489-9.2197-4.2019-10.9049-9.0714-.1204-.5315-.2407-1.0631-.3611-1.5946Z"/>
    <path class="cls-11" d="M1053.8895,996.5565c3.4291-8.2197,1.7117-17.7647-4.3835-24.3861-5.6109-6.0953-14.1265-8.8387-22.2652-7.2126,10.615-4.4852,22.6515-.7712,28.1045,7.735,4.1074,6.4071,4.0457,14.8561.0401,21.8056-.4987.686-.9973,1.3721-1.496,2.0581Z"/>
    <path class="cls-11" d="M992.7329,994.3158c-2.6017-5.1072-8.2548-8.2021-14.4409-7.9091-5.6946.2697-11.0239,3.3715-13.9544,8.0938,2.6182-7.1373,10.0677-11.5894,16.917-10.783,5.1591.6074,9.4325,4.134,11.1213,9.0024.119.532.2381,1.0639.3571,1.5959Z"/>
    <path class="cls-4" d="M1592.3767,595.4618c.5268,1.3113,3.1816,8.2947-.2168,15.6245-3.0952,6.6753-10.0101,11.0477-17.8145,11.3337,8.9319,1.3339,17.3211-3.3644,20.2363-10.8046,3.3735-8.6095-2.2832-16.5507-2.6666-17.0708.154.3058.3077.6113.4617.9171Z"/>
    <path class="cls-11" d="M909.2989,705.991c.2506-2.3062,2.7575-29.8046-18.8321-48.0155-16.2305-13.6904-38.6612-15.8749-56.8014-8.0121-23.3414,10.1174-30.3605,32.8739-31.3022,36.1195,10.6226-21.249,32.4982-34.0962,54.8768-32.4406,26.4626,1.9578,48.9511,23.8484,52.059,52.3487Z"/>
    <path class="cls-9" d="M834.996,732.7562c.1076-6.3823,14.2339-10.8478,21.6505-13.1927,6.9944-2.2111,21.7405-6.873,25.2906-1.7828,3.883,5.5679-5.0043,23.6986-19.4331,27.2299-12.7251,3.1144-27.6193-5.6509-27.508-12.2545Z"/>
    <path class="cls-11" d="M1076.9233,526.701c-.1907-2.4821-1.4602-16.167-11.9726-25.455-14.1089-12.4657-31.4768-5.1718-33.2572-4.4045-13.7154,5.9102-17.912,19.037-18.4758,20.9089,6.089-12.9429,18.7679-20.3519,32.2774-18.8771,14.2059,1.5509,26.764,12.6452,31.4282,27.8278Z"/>
    <path class="cls-9" d="M1021.2817,542.587c.9834-1.3687,7.796,4.6818,21.5032,7.4379,13.7072,2.7561,22.3289-.1911,22.7069,1.4514.4658,2.0241-11.8603,9.8333-24.4662,7.2986-12.6059-2.5347-20.9558-14.5012-19.7438-16.1879Z"/>
    <circle class="cls-9" cx="1016.7588" cy="530.2312" r="2.8474"/>
    <path class="cls-9" d="M1097.0593,928.2192c-1.4199,2.5127,13.8747,19.0821,34.9647,22.5116,23.3452,3.7963,44.9528-9.9446,44.201-12.8024-.6295-2.3931-16.6523,3.9461-41.9952.4046-23.2539-3.2496-35.9641-12.2482-37.1704-10.1137Z"/>
    <path class="cls-9" d="M1198.0006,904.3735c.6118,1.0851-1.5076,3.4394-4.7338,5.2583-3.2262,1.8189-6.3376,2.4137-6.9494,1.3286s1.5078-3.439,4.7341-5.2579c3.2262-1.8189,6.3375-2.4137,6.9491-1.329Z"/>
    <path class="cls-9" d="M1530.1438,785.2291c-10.4581-5.6879-16.1474-19.8079-12.338-24.4029,4.5394-5.4757,22.1539,3.072,23.8059,3.8884,1.214.5999,19.23,9.6595,17.5958,16.4995-1.4192,5.9397-17.6597,10.2173-29.0637,4.015Z"/>
    <path class="cls-9" d="M1526.7265,746.874c.6118,1.0851-1.5076,3.4394-4.7338,5.2583-3.2262,1.8189-6.3376,2.4137-6.9494,1.3286-.6116-1.0847,1.5078-3.439,4.7341-5.2579,3.2262-1.8189,6.3375-2.4137,6.9491-1.329Z"/>
    <path class="cls-9" d="M869.6311,614.3361c.0369-2.1882,4.88-3.7192,7.4228-4.5231,2.398-.7581,7.4537-2.3564,8.6708-.6112,1.3313,1.9089-1.7157,8.125-6.6626,9.3357-4.3628,1.0678-9.4692-1.9374-9.431-4.2014Z"/>
    <path class="cls-9" d="M1354.2849,832.7273c-19.4597-10.8018-28.3092-40.81-20.1709-51.4671,9.6979-12.6996,42.6365,3.2341,45.7234,4.7607,2.2685,1.1218,35.9078,18.1128,31.6495,33.3409-3.6979,13.2237-35.9822,25.1443-57.202,13.3655Z"/>
    <path class="cls-9" d="M1086.0172,604.8121c2.0699,1.1773,5.2421-13.9046,21.0754-28.6205,15.7719-14.6591,32.0206-17.7212,30.7513-19.3522-1.519-1.9517-27.3656-.8907-41.857,14.7347-12.1629,13.1141-12.1581,31.9933-9.9696,33.238Z"/>
    <path class="cls-9" d="M990.896,998.2511c-.7448,1.6801-4.9912,1.2788-7.2208,1.0682-2.1026-.1987-6.5354-.6175-6.9054-2.3655-.4047-1.912,3.9863-5.7217,8.2082-5.0387,3.7233.6023,6.6887,4.5977,5.9181,6.3361Z"/>
    <path class="cls-9" d="M1022.9666,996.5892c-.5041.8921,4.9262,6.7751,12.4143,7.9928,8.2888,1.3479,15.9606-3.5308,15.6936-4.5455-.2235-.8497-5.9124,1.4011-14.9105.1436-8.2563-1.1538-12.7691-4.3488-13.1974-3.5909Z"/>
    <circle class="cls-9" cx="982.4656" cy="1004.5488" r="1.9608"/>
    <ellipse class="cls-9" cx="1049.3882" cy="991.6954" rx="4.2506" ry="2.0819" transform="translate(-187.7958 1736.0415) rotate(-74.4139)"/>
    <path class="cls-9" d="M1244.0583,934.1517c7.4987,1.8616,15.0336-.5328,15.4338-2.1058.4223-1.6597-8.246,2.1032-11.8083-8.4107-.8019-2.3667-1.1584-4.9057-2.9304-5.4408-3.1661-.9559-8.6137,5.1619-9.3509,8.9991-.8818,4.5904,4.9541,6.0392,8.6558,6.9582Z"/>
    <path class="cls-9" d="M1263.1954,918.5548c.6118,1.0851-.1999,2.7021-1.813,3.6116-1.6131.9095-3.4168.767-4.0286-.3181-.6116-1.0847.2001-2.7017,1.8133-3.6112,1.6131-.9095,3.4168-.767,4.0283.3177Z"/>
    <path class="cls-9" d="M1334.2025,894.9817c.3652.6478-.1194,1.6132-1.0824,2.1562-.9631.543-2.0399.4579-2.4051-.1899s.1195-1.613,1.0825-2.1559,2.0399-.4579,2.405.1897Z"/>
    <path class="cls-9" d="M1579.0989,594.4089c.6118,1.0851-.1999,2.7021-1.813,3.6116-1.6131.9095-3.4168.767-4.0286-.3181-.6116-1.0847.2001-2.7017,1.8133-3.6112,1.6131-.9095,3.4168-.767,4.0283.3177Z"/>
    <path class="cls-9" d="M1499.6544,629.7112c1.4311.1481,1.7644,8.2592.7447,18.1167-.9466,9.1499-1.3603,16.8432-4.4378,17.5806-4.4665,1.0702-13.0375-12.7273-10.1862-16.4414,1.6262-2.1183,5.6848.7152,9.4415-1.6753,6.2696-3.9897,3.9002-17.6361,4.4378-17.5806Z"/>
    <path class="cls-9" d="M1297.8325,876.4598c-.0778.8075-4.3931-1.3305-10.8831.1045-6.4649,1.4294-10.1333,5.3087-10.3115,4.6318-.2132-.81,4.6756-7.7425,11.1514-8.6247,5.4351-.7406,10.1255,3.0346,10.0431,3.8884Z"/>
    <path class="cls-9" d="M1300.0957,880.5535c.4279.759-.1398,1.89-1.2681,2.5261-1.1283.6361-2.3898.5365-2.8178-.2225s.14-1.8897,1.2683-2.5258c1.1283-.6361,2.3898-.5365,2.8176.2222Z"/>
  </g>
  <g>
    <path class="cls-12" d="M321.6546,469.832c-31.4436-25.4569-33.9214-72.6585-7.0786-100.4152,26.4887-27.3912,72.9385-26.9635,99.6823,2.6673,17.4276-32.3457,50.7981-53.0018,87.3305-53.991,55.6615-1.5067,86.4608,43.5128,88.2467,46.2251,9.4442-18.612,30.4802-27.5312,48.8691-21.7199,17.7646,5.6138,28.1471,23.4232,27.5525,39.6173-.7945,21.6228-21.1941,41.2628-47.7794,41.3435.4143,6.3501.2975,16.1606-2.9835,27.5099-3.4334,11.8778-8.9113,20.5269-12.7925,25.7254,7.5273,4.5073,30.0257,19.2989,40.2314,47.897,0,.0005,10.3937,29.1255-.3661,65.0325-.333,1.1122-.7152,2.2907-.7154,2.2914-.0079.0247-.0122.0377-.0122.0377-1.8664,5.7191-9.4482,28.0705-28.7399,44.2053-19.8028,16.5621-43.9112,19.8549-67.2762,23.0462,0,0-.0055.0008-.0056.0008,1.3519,2.3202,13.8089,24.5796,3.0613,49.3096-9.8413,22.6445-31.3816,29.5122-34.4668,30.4382,17.1634,51.5003,4.6814,107.0177-32.0295,141.9119-40.002,38.0223-91.5659,35.2039-100.6603,34.5542-9.4539,41.3616-40.9443,71.9467-78.0194,76.8319-34.7028,4.5727-61.0814-15.1125-67.1188-19.866-37.9287,18.5863-83.6166,5.1992-104.7313-29.1336-22.5754-36.7077-10.8354-87.2386,27.7068-110.9772-16.8424-7.1335-28.3464-21.8892-29.4826-38.3186-.906-13.0904,5.0607-23.0316,7.6675-26.8619-18.1194-8.7859-27.2487-27.4275-23.0576-43.2304,3.9861-15.0281,18.4839-21.7043,20.7324-22.6973-7.1797-5.3279-17.2453-14.5316-23.5634-28.7435-14.276-32.1126-.8766-70.5805,20.4315-91.8527,29.1947-29.145,80.7505-33.513,123.4763-7.0609-.17-10.7612,1.0566-27.1169,8.5974-44.9842,15.7052-37.2128,47.4298-54.0412,57.2934-58.7929Z"/>
    <path class="cls-13" d="M662.9131,367.9321c-7.4873-22.8936-31.4168-34.8279-51.3725-28.3774-16.4253,5.3094-28.0198,22.3823-27.2187,41.6354,3.8814-16.4019,16.5623-29.2183,32.6468-32.9659,14.1274-3.2915,30.9166.6486,40.6754,11.6678,2.5804,2.9137,4.224,5.8182,5.2691,8.0401Z"/>
    <path class="cls-11" d="M536.5142,323.5402c-.0088.0311-11.259-3.3118-14.6783-4.1674-28.3276-7.0892-75.3324,17.3419-100.0227,56.6617-6.2306,9.9224-21.3931,34.0086-18.8064,66.9487,4.3585,55.4984,55.0376,84.6574,60.0467,87.4323-4.5194-.9918-10.666-2.7163-17.487-5.8887-30.5281-14.1982-51.5045-46.6721-56.1175-77.5325-8.3962-56.1722,36.9599-110.0918,86.1652-124.5918,18.594-5.4792,35.2579-4.599,46.2217-3.0298,5.9777,1.3541,14.6861,4.14,14.6783,4.1674Z"/>
    <path class="cls-11" d="M647.071,564.5721c.3528-5.1913,2.5814-47.2692-26.9189-68.3848-2.5102-1.7968-10.243-7.0155-20.5509-9.0828-28.3704-5.6895-61.6793,15.4171-85.8614,50.9124,12.5864-46.2796,54.6291-70.7461,85.651-62.5174,29.4712,7.8173,46.0697,44.3664,48.246,71.0292.605,7.4101.0633,13.6584-.5658,18.0434Z"/>
    <path class="cls-11" d="M420.3245,379.7271c-23.3503-19.5011-55.2131-24.2217-81.4008-12.074-24.1071,11.1825-39.9469,35.055-41.5416,62.3756-5.4582-38.1404,16.4091-72.0568,48.0711-80.1863,23.8489-6.1236,50.7352,3.0304,69.5556,22.9973,1.7719,2.2958,3.5438,4.5916,5.3157,6.8874Z"/>
    <path class="cls-13" d="M283.2963,612.5895c-1.1996-3.6555-16.2307-46.9129-61.3078-59.6509-33.8878-9.5761-69.2682,2.4727-91.2913,26.764-28.3376,31.2564-23.368,70.4379-22.5695,75.9854,1.5058-39.3697,25.7608-73.7471,60.7006-86.5591,41.316-15.1501,90.2694,2.5318,114.468,43.4607Z"/>
    <path class="cls-11" d="M186.8472,738.4176c-2.7076-15.4137-14.0776-27.7875-28.8219-31.4207-16.4399-4.0509-34.0807,3.5027-42.969,18.6788,4.097-16.2994,17.4681-28.0815,32.458-29.2907,18.7432-1.5119,37.343,13.7221,39.6633,35.4757-.1101,2.1856-.2202,4.3713-.3304,6.5569Z"/>
    <path class="cls-13" d="M280.902,695.8466c-32.0237,62.1302-15.2444,137.7727,37.6477,178.4515,47.9113,36.8481,116.3988,38.043,167.9428,1.9817-49.2937,46.8073-123.2386,53.1312-175.2281,17.9132-59.5637-40.3489-78.0707-126.9361-35.7721-193.4646,1.8032-1.6272,3.6065-3.2545,5.4097-4.8818Z"/>
    <path class="cls-11" d="M189.6427,817.4828c-36.8339,13.4016-60.7619,48.4418-59.3089,85.7706,1.254,32.2152,21.2298,61.4711,51.4156,75.6212-38.9425-7.1833-67.4497-39.7119-69.058-76.526-1.8307-41.9049,31.574-80.6,76.9513-84.8658Z"/>
    <path class="cls-9" d="M367.4384,860.7232c-.1427-5.1674,27.7241-3.0575,66.2971-21.7968,38.5729-18.7392,54.139-41.9493,58.1129-38.6432,4.8973,4.0743-10.6768,46.0325-46.1507,63.2662-35.4739,17.2337-78.0834,3.5418-78.2593-2.8263Z"/>
    <circle class="cls-9" cx="435.6089" cy="404.1809" r="17.1577"/>
    <circle class="cls-9" cx="339.0805" cy="848.6607" r="8.7334"/>
    <path class="cls-9" d="M578.3661,501.198c-25.3835,4.6712-45.0107,22.3428-44.0605,27.6809,1.0026,5.6325,22.1926-17.7657,47.5239,9.3165,5.7022,6.0961,10.2868,13.3308,16.416,12.5165,10.9516-1.4552,19.0955-27.5797,16.0498-40.2718-3.6439-15.1834-23.3989-11.548-35.9293-9.2421Z"/>
    <ellipse class="cls-9" cx="517.4509" cy="533.8797" rx="4.5108" ry="1.9084" transform="translate(-224.3808 484.1937) rotate(-42.0635)"/>
    <path class="cls-9" d="M621.3543,402.7403c-2.5354-5.8581,8.4897-15.7545,14.278-20.9507,5.4589-4.9001,16.9676-15.2312,22.3017-12.0593,5.8345,3.4696,5.22,23.652-6.4662,32.8223-10.3063,8.0875-27.4902,6.2488-30.1135.1876Z"/>
    <ellipse class="cls-9" cx="194.056" cy="948.0263" rx="11.971" ry="6.833" transform="translate(-585.1452 374.217) rotate(-42.0635)"/>
    <path class="cls-9" d="M179.5758,861.9139c-19.1828-2.7669-37.4127,13.5647-40.7175,36.4775-3.3049,22.9128,9.5668,43.7303,28.7496,46.4971,19.1828,2.7669,31.1508-80.2077,11.968-82.9746Z"/>
    <path class="cls-9" d="M249.0179,962.0711c-.8634-4.0401,20.9969-12.1367,48.8261-18.0846,25.8316-5.5208,47.2123-11.2065,51.9531-3.4534,6.8802,11.252-23.2141,46.8878-35.8853,42.3897-7.2268-2.5653-3.0827-16.1617-12.9408-24.3052-16.4525-13.5909-51.6286,4.9713-51.9531,3.4534Z"/>
    <path class="cls-9" d="M268.3104,573.9853c2.3334.5834,5.697-22.1551,23.2475-50.8915,17.4825-28.6253,35.6449-41.2653,34.2025-42.8953-1.726-1.9505-30.6647,12.8241-46.7007,42.1433-13.4592,24.6073-13.2163,51.0267-10.7493,51.6435Z"/>
    <ellipse class="cls-9" cx="133.2073" cy="667.0427" rx="11.0121" ry="23.0746" transform="translate(-412.5737 261.0707) rotate(-42.0635)"/>
    <circle class="cls-12" cx="605.1348" cy="718.474" r="33.5544"/>
    <circle class="cls-12" cx="559.7951" cy="781.7202" r="12.7977"/>
    <circle class="cls-12" cx="425.0325" cy="301.3344" r="21.842"/>
    <circle class="cls-12" cx="470.9594" cy="264.7082" r="15.1492"/>
    <circle class="cls-12" cx="699.1485" cy="384.133" r="7.3009"/>
    <circle class="cls-12" cx="59.595" cy="709.4926" r="33.8257"/>
    <circle class="cls-12" cx="89.4467" cy="871.4173" r="18.2695"/>
    <circle class="cls-12" cx="706.939" cy="485.7268" r="54.5371"/>
    <circle class="cls-12" cx="725.2368" cy="577.8439" r="14.6518"/>
    <circle class="cls-12" cx="259.0147" cy="445.2519" r="20.9493"/>
    <circle class="cls-12" cx="238.5741" cy="497.7556" r="14.53"/>
    <circle class="cls-12" cx="193.569" cy="503.0336" r="7.0025"/>
    <path class="cls-11" d="M93.3178,712.1156c-2.1014-14.3464-12.2762-26.0733-25.722-29.7208-15.3939-4.1759-32.2953,2.9925-40.5594,17.6308,3.4825-15.5409,16.3206-26.7636,30.6377-27.6475,17.3709-1.0723,34.1173,13.2474,35.7125,33.0571-.0231,2.2268-.0458,4.4537-.0689,6.6805Z"/>
    <path class="cls-11" d="M275.5739,432.5646c-6.8695-5.6611-16.3937-6.8515-24.3316-3.0454-7.3072,3.5037-12.2219,10.7388-12.8878,18.9053-1.3752-11.348,5.4163-21.6228,14.9685-24.267,7.195-1.9917,15.1961.5563,20.7038,6.3875.5157.6732,1.0314,1.3463,1.547,2.0195Z"/>
    <path class="cls-11" d="M249.315,488.0168c-4.4573-3.5966-10.7884-4.1692-16.1742-1.4657-4.9578,2.4887-8.4033,7.3967-9.0335,12.8255-.6601-7.4915,4.1074-14.4571,10.5444-16.4271,4.8486-1.4839,10.1321.0233,13.6764,3.7636.329.4345.6579.8691.9869,1.3036Z"/>
    <path class="cls-11" d="M403.6269,298.4919c.268,8.9022,5.7709,16.8882,14.0551,20.4047,7.626,3.2371,16.5149,2.2223,23.2575-2.6171-7.8185,8.4655-20.3152,10.0489-28.7921,4.5506-6.3852-4.1414-9.8151-11.8632-9.0339-19.8462.1712-.8307.3423-1.6613.5135-2.492Z"/>
    <path class="cls-11" d="M460.2593,275.2986c4.4772,3.5787,10.9037,4.0652,16.4177,1.2459,5.076-2.5953,8.6506-7.6198,9.3715-13.1305.56,7.5817-4.3887,14.7109-10.9605,16.8025-4.9501,1.5755-10.2979.1263-13.845-3.6115-.3279-.4355-.6558-.8709-.9838-1.3064Z"/>
    <path class="cls-4" d="M78.6157,886.0402c-1.0209-.9771-6.3206-6.2429-6.2494-14.3219.065-7.3577,4.5598-14.1937,11.5508-17.6745-8.6865,2.4704-14.3897,10.2116-13.9751,18.1918.4795,9.2344,8.9089,14.1341,9.4727,14.4496-.2664-.2151-.5325-.4299-.799-.6449Z"/>
    <path class="cls-11" d="M655.2277,503.5085c.7233,2.2041,9.7861,28.287,36.9663,35.967,20.4333,5.7737,41.767-1.4918,55.0466-16.139,17.0872-18.8471,14.0912-42.4723,13.6097-45.8173-.9084,23.7388-15.534,44.4677-36.6019,52.1934-24.9127,9.1356-54.4301-1.5255-69.0207-26.2041Z"/>
    <path class="cls-9" d="M711.8667,448.4692c2.5354,5.8581-8.4897,15.7545-14.278,20.9507-5.4589,4.9001-16.9676,15.2312-22.3017,12.0593-5.8345-3.4696-5.22-23.652,6.4662-32.8223,10.3063-8.0875,27.4902-6.2488,30.1135-.1876Z"/>
    <path class="cls-11" d="M576.5163,735.9893c1.1979,2.1822,8.0009,14.1241,21.4091,18.247,17.9954,5.5335,30.8064-8.2769,32.1115-9.7104,10.0548-11.0429,8.4611-24.7317,8.2023-26.6694-.206,14.3022-8.6982,26.2826-21.6126,30.5135-13.5801,4.4489-29.597-.4752-40.1103-12.3806Z"/>
    <path class="cls-9" d="M620.6456,698.5599c-.3311,1.6526-9.0332-1.0479-22.6564,2.0974-13.6232,3.1453-20.2606,9.3873-21.2827,8.0472-1.2595-1.6515,6.7462-13.8509,19.2749-16.7435,12.5287-2.8926,25.0722,4.5624,24.6642,6.5989Z"/>
    <circle class="cls-9" cx="629.8638" cy="707.9486" r="2.8474"/>
    <path class="cls-9" d="M392.5006,378.5532c.2566-2.8747-20.5121-11.657-41.1382-6.0788-22.8317,6.1746-36.8444,27.6069-34.9804,29.8999,1.5608,1.9202,13.5404-10.4656,38.0867-17.6965,22.5229-6.6349,37.8137-3.6825,38.0318-6.1245Z"/>
    <path class="cls-9" d="M310.392,441.9246c-1.005-.736-.0459-3.755,2.1424-6.743,2.1883-2.9881,4.777-4.8137,5.782-4.0777,1.0047.7358.0455,3.7547-2.1428,6.7428-2.1882,2.988-4.7769,4.8136-5.7816,4.0779Z"/>
    <path class="cls-9" d="M57.0025,687.502c11.8732.8659,22.8818,11.3804,21.3078,17.1378-1.8756,6.8608-21.4477,6.3428-23.2894,6.2808-1.3534-.0455-21.5024-.8643-22.8361-7.7692-1.1581-5.996,11.8705-16.5937,24.8176-15.6494Z"/>
    <path class="cls-9" d="M75.9413,721.0298c-1.005-.736-.0459-3.755,2.1424-6.743s4.777-4.8137,5.782-4.0777c1.0047.7358.0455,3.7547-2.1428,6.7428-2.1882,2.988-4.7769,4.8136-5.7816,4.0779Z"/>
    <path class="cls-9" d="M729.1798,570.6297c.8693,2.0084-2.9107,5.4014-4.8952,7.1829-1.8716,1.68-5.8173,5.222-7.6461,4.1345-2.0003-1.1895-1.7897-8.1091,2.2169-11.2531,3.5335-2.7728,9.425-2.1424,10.3244-.0643Z"/>
    <path class="cls-9" d="M197.5944,571.6731c22.1829,1.81,42.6259,25.4931,39.61,38.5588-3.5938,15.5697-40.1722,14.6466-43.614,14.5298-2.5293-.0858-40.1822-1.6828-42.5867-17.3112-2.0879-13.5713,22.4014-37.751,46.5907-35.7773Z"/>
    <path class="cls-9" d="M536.0026,668.5899c-2.3712-.2183.9622,14.8287-7.3884,34.7666-8.3181,19.8608-21.8556,29.3546-20.0264,30.3165,2.1889,1.1511,25.2949-10.4802,32.0479-30.6929,5.6681-16.9643-2.1262-34.1594-4.6332-34.3903Z"/>
    <path class="cls-9" d="M460.3088,270.9559c-.0148-1.8377,4.0189-3.2243,6.1367-3.9524,1.9972-.6866,6.208-2.1341,7.2662-.6946,1.1575,1.5747-1.2703,6.8567-5.3978,7.9767-3.6401.9877-7.9898-1.4282-8.0052-3.3297Z"/>
    <path class="cls-9" d="M431.7812,285.7027c.0911-1.0207-7.2829-4.1388-14.6062-2.1583-8.1064,2.1923-13.0817,9.8019-12.4198,10.616.5542.6818,4.8075-3.7158,13.5228-6.2832,7.9968-2.3557,13.4258-1.3075,13.5033-2.1745Z"/>
    <circle class="cls-9" cx="465.3895" cy="261.7408" r="1.9608"/>
    <ellipse class="cls-9" cx="409.733" cy="301.0626" rx="2.0819" ry="4.2506" transform="translate(-41.1668 66.0963) rotate(-8.7834)"/>
    <path class="cls-9" d="M256.1508,433.8037c-7.5987,1.3984-13.4743,6.6885-13.1898,8.2865.3001,1.6861,6.6435-5.3183,14.2266,2.789,1.707,1.8249,3.0794,3.9907,4.9142,3.7469,3.2784-.4356,5.7164-8.2562,4.8046-12.0557-1.0908-4.5453-7.0046-3.457-10.7557-2.7667Z"/>
    <path class="cls-9" d="M245.1542,455.9073c-1.005-.736-.9328-2.5439.1613-4.0379s2.7959-2.1085,3.8009-1.3725c1.0047.7358.9325,2.5436-.1617,4.0376-1.0941,1.494-2.7959,2.1085-3.8005,1.3727Z"/>
    <path class="cls-9" d="M190.2003,506.6789c-.6-.4394-.5569-1.5187.0963-2.4107.6532-.892,1.6692-1.2588,2.2692-.8194s.5567,1.5186-.0965,2.4105-1.6692,1.2588-2.269.8195Z"/>
    <path class="cls-9" d="M91.1449,881.5207c-1.005-.736-.9328-2.5439.1613-4.0379,1.0941-1.494,2.7959-2.1085,3.8009-1.3725,1.0047.7358.9325,2.5436-.1617,4.0376-1.0941,1.494-2.7959,2.1085-3.8005,1.3727Z"/>
    <path class="cls-9" d="M148.9449,816.5834c-1.3646.4556-5.0151-6.7953-8.1536-16.1953-2.9132-8.7253-5.7107-15.9038-3.2116-17.8453,3.6269-2.8178,17.1275,6.2138,16.0626,10.7735-.6073,2.6005-5.4734,1.6941-7.909,5.4218-4.0648,6.2212,3.7243,17.6741,3.2116,17.8453Z"/>
    <path class="cls-9" d="M230.9724,508.5437c-.2623-.7677,4.5507-.6008,9.8703-4.5858,5.2991-3.9695,7.04-9.017,7.4816-8.4739.5284.6499-1.0643,8.9819-6.5991,12.4576-4.6453,2.9172-10.4755,1.4137-10.7528.602Z"/>
    <path class="cls-9" d="M227.2216,505.7486c-.703-.5148-.6525-1.7793.1128-2.8243.7653-1.045,1.9556-1.4748,2.6585-.96.7027.5146.6522,1.7791-.1131,2.8241-.7653,1.045-1.9555,1.4748-2.6582.9601Z"/>
  </g>
</svg>