<?xml version="1.0" encoding="UTF-8"?>
<svg id="Layer_1" data-name="Layer 1" xmlns="http://www.w3.org/2000/svg" viewBox="0 0 1621.4173 1264.252">
  <defs>
    <style>
      .cls-1 {
        fill: #8dd4e0;
      }

      .cls-2 {
        fill: #fbd8e6;
      }

      .cls-3 {
        fill: #fad2e3;
      }

      .cls-4 {
        fill: #e6a9c7;
      }

      .cls-5 {
        fill: #e582ae;
      }

      .cls-6 {
        fill: #f9c4db;
      }

      .cls-7 {
        fill: #facee1;
      }

      .cls-8 {
        fill: #f6e5f0;
      }

      .cls-9 {
        fill: #fff;
      }

      .cls-10 {
        fill: #f7d1e2;
      }

      .cls-11 {
        fill: #f9e6f0;
      }

      .cls-12 {
        fill: #f2b3cc;
      }

      .cls-13 {
        fill: #f19bc2;
      }

      .cls-14 {
        fill: #f1c1d6;
      }
    </style>
  </defs>
  <circle class="cls-1" cx="810.6697" cy="699.6563" r=".904"/>
  <rect class="cls-13" x="734.4236" y="590.7367" width="145.415" height="77.9166" rx="28.1541" ry="28.1541" transform="translate(-115.2128 185.5575) rotate(-12.2478)"/>
  <rect class="cls-5" x="732.5735" y="583.3595" width="145.415" height="75.6259" rx="16.675" ry="16.675" transform="translate(-113.447 184.9711) rotate(-12.2478)"/>
  <rect class="cls-12" x="731.1062" y="582.1413" width="146.9758" height="75.6259" rx="16.7644" ry="16.7644" transform="translate(-113.2042 184.7977) rotate(-12.2478)"/>
  <path class="cls-2" d="M735.7103,602.1426c.7171.0798-.182,6.5643.3199,15.85,1.0903,20.1687,7.6658,32.7525,6.7876,33.0754-.8727.3208-7.1808-12.1731-9.2759-25.64-.2854-1.8345-.5577-4.1051-.6096-6.8542-.1642-8.6982,1.9846-16.5195,2.7779-16.4313Z"/>
  <ellipse class="cls-6" cx="778.1318" cy="598.1527" rx="8.1209" ry="1.3535" transform="translate(-74.3535 111.7943) rotate(-7.8441)"/>
  <path class="cls-6" d="M872.6169,641.4651c.2775,1.2783-25.3077,7.9176-57.1461,14.8291-31.8384,6.9116-57.8736,11.4781-58.1511,10.1998-.2775-1.2783,25.3077-7.9176,57.1462-14.8291,0,0,22.1986-6.8426,53.5328-10.1301,1.8437-.1935,4.5353-.4516,4.6183-.0696Z"/>
  <ellipse class="cls-2" cx="781.4967" cy="597.5281" rx="1.7866" ry=".812" transform="translate(-93.3235 147.5654) rotate(-10.1824)"/>
  <ellipse class="cls-2" cx="750.0976" cy="606.0679" rx="3.6278" ry=".9305" transform="translate(-200.9576 446.5104) rotate(-29.4139)"/>
  <ellipse class="cls-2" cx="825.1454" cy="651.7702" rx="25.1151" ry=".8882" transform="translate(-119.4859 189.8815) rotate(-12.2478)"/>
  <ellipse class="cls-2" cx="856.8259" cy="645.0213" rx="3.0453" ry=".9305" transform="translate(-117.3331 196.4487) rotate(-12.2478)"/>
  <path class="cls-6" d="M845.5801,610.2027c3.3623,7.9158-.4902,15.9173.7921,16.2768,1.4537.4076,8.3931-9.3193,5.904-17.7303-3.8976-13.1706-28.2556-14.1344-28.5593-13.1953-.2575.7963,16.8319,2.8037,21.8632,14.6488Z"/>
  <ellipse class="cls-2" cx="849.6694" cy="616.0668" rx="3.4154" ry="1.5755" transform="translate(69.8393 1318.4495) rotate(-77.9536)"/>
  <path class="cls-2" d="M862.792,584.8963c1.6881,2.5339,2.6113,5.1125,2.4547,5.1953-.144.0761-1.1536-1.9808-3.1746-4.7895-3.0812-4.2822-5.6524-6.3361-5.5196-6.4777.1479-.1578,3.601,2.1115,6.2395,6.0719Z"/>
  <circle class="cls-4" cx="754.2987" cy="676.9306" r="18.2214"/>
  <circle class="cls-3" cx="790.7624" cy="677.7991" r="14.4373"/>
  <circle class="cls-11" cx="752.2933" cy="678.0612" r="17.222"/>
  <circle class="cls-8" cx="788.6173" cy="677.9979" r="14.4373"/>
  <ellipse class="cls-13" cx="804.9469" cy="618.3857" rx="28.9973" ry="11.9276" transform="translate(-112.863 184.8361) rotate(-12.2478)"/>
  <ellipse class="cls-12" cx="804.3975" cy="619.6055" rx="25.1919" ry="9.0032" transform="translate(-113.1343 184.7473) rotate(-12.2478)"/>
  <circle class="cls-8" cx="860.0691" cy="570.2438" r="6.5508"/>
  <circle class="cls-14" cx="885.0414" cy="647.8497" r="15.5315"/>
  <circle class="cls-10" cx="882.1703" cy="647.9047" r="15.5315"/>
  <circle class="cls-14" cx="880.8391" cy="623.0872" r="10.3285"/>
  <circle class="cls-10" cx="878.8133" cy="622.2862" r="10.3285"/>
  <circle class="cls-4" cx="858.4768" cy="665.7173" r="12.9998"/>
  <circle class="cls-10" cx="857.2402" cy="663.5238" r="12.9998"/>
  <circle class="cls-8" cx="886.5466" cy="644.2528" r="3.3674"/>
  <circle class="cls-14" cx="869.9165" cy="584.583" r="8.832"/>
  <circle class="cls-10" cx="871.2942" cy="585.4596" r="8.832"/>
  <circle class="cls-14" cx="869.4722" cy="572.7373" r="5.4299"/>
  <circle class="cls-8" cx="870.1858" cy="573.1211" r="5.4299"/>
  <circle class="cls-3" cx="777.8009" cy="661.8821" r="5.4939"/>
  <circle class="cls-11" cx="776.9625" cy="662.5051" r="5.1926"/>
  <circle class="cls-8" cx="868.0819" cy="586.8624" r="2.6849"/>
  <circle class="cls-8" cx="777.3975" cy="586.2156" r="9.9555"/>
  <circle class="cls-4" cx="753.3493" cy="597.1945" r="13.4223"/>
  <circle class="cls-10" cx="751.6756" cy="599.0268" r="13.4223"/>
  <circle class="cls-3" cx="770.6223" cy="600.4998" r="8.252"/>
  <circle class="cls-8" cx="770.4363" cy="600.6047" r="8.252"/>
  <circle class="cls-8" cx="750.4185" cy="593.8502" r="4.0803"/>
  <circle class="cls-4" cx="759.8079" cy="657.0183" r="10.3285"/>
  <circle class="cls-10" cx="757.9106" cy="656.802" r="10.3285"/>
  <circle class="cls-4" cx="856.7036" cy="583.0702" r="9.4066"/>
  <circle class="cls-10" cx="854.9757" cy="582.8732" r="9.4066"/>
  <circle class="cls-14" cx="867.2345" cy="651.0613" r="12.9998"/>
  <circle class="cls-8" cx="866.3984" cy="649.5783" r="12.9998"/>
  <circle class="cls-3" cx="810.5616" cy="674.3516" r="6.8343"/>
  <circle class="cls-8" cx="809.3062" cy="674.2085" r="6.8343"/>
  <circle class="cls-4" cx="779.1268" cy="684.3592" r="8.9791"/>
  <circle class="cls-10" cx="777.476" cy="683.6372" r="8.9791"/>
  <path class="cls-7" d="M820.8028,613.1216c.6098,1.3268-1.737,4.2991-4.5912,5.0783-2.3036.6289-4.3558-.3853-5.2233-.6689-9.2058-3.0099-19.8681,2.5559-20.1165,1.784-.2953-.9175,12.2547-5.837,24.3951-6.9445,3.0517-.2784,5.0871-.2254,5.5359.7511Z"/>
  <ellipse class="cls-2" cx="809.2535" cy="623.9058" rx="2.118" ry=".8459" transform="translate(-68.5396 100.8103) rotate(-6.8393)"/>
  <ellipse class="cls-2" cx="815.1575" cy="615.4671" rx="1.8399" ry="1.2791" transform="translate(-197.1872 479.6739) rotate(-29.4139)"/>
  <ellipse class="cls-2" cx="849.6783" cy="580.4543" rx="1.7764" ry="1.2689" transform="translate(-175.5419 492.1143) rotate(-29.4139)"/>
  <path class="cls-8" d="M882.1354,618.8318c.561-.1445,4.7968,6.8931,2.3044,9.7714-2.7325,3.1556-11.3693-1.2081-11.2532-1.824.057-.3021,2.2288.2507,5.2877-.8336,1.1746-.4164,2.0921-.7416,2.8001-1.5788,1.7919-2.1188.4847-5.4382.8609-5.5351Z"/>
  <path class="cls-8" d="M782.8784,683.0794c.5139-.2115,2.5496,2.9307-.2409,5.1744-3.0593,2.4599-9.476,1.8753-9.2366,1.4898.1174-.1891,1.8545-.3595,4.7238-1.6858,1.1018-.5093,1.9624-.9071,2.7595-1.5558,2.0174-1.6419,1.6495-3.2807,1.9942-3.4226Z"/>
  <ellipse class="cls-8" cx="782.3917" cy="679.8604" rx=".571" ry="1.4586" transform="translate(-233.0354 471.8828) rotate(-29.4139)"/>
  <ellipse class="cls-8" cx="752.2445" cy="660.0407" rx="1.7447" ry="2.2523" transform="translate(-227.1878 454.5222) rotate(-29.4139)"/>
  <path class="cls-8" d="M766.1811,656.6626c-1.3164-1.4529-5.5613-.0091-5.7348,1.3396-.0808.6278.7754.8089.9971,1.7685.4712,2.04-2.7787,3.9022-2.3967,4.5559.3434.5878,3.5623.094,5.5931-2.1301,1.4149-1.5495,2.6212-4.3421,1.5413-5.5339Z"/>
  <circle class="cls-8" cx="739.0907" cy="648.4452" r="9.9555"/>
  <circle class="cls-14" cx="735.533" cy="622.25" r="13.4223"/>
  <circle class="cls-10" cx="734.2628" cy="620.118" r="13.4223"/>
  <circle class="cls-14" cx="742.5441" cy="664.4875" r="8.252"/>
  <circle class="cls-10" cx="741.6605" cy="664.8948" r="7.2824"/>
  <circle class="cls-8" cx="739.5818" cy="620.4111" r="4.0803"/>
  <circle class="cls-14" cx="843.4192" cy="573.0421" r="5.9275"/>
  <circle class="cls-10" cx="842.3235" cy="573.0631" r="5.9275"/>
  <path class="cls-8" d="M729.9273,610.181c1.2412.4159,1.9843,2.4445,1.5233,3.8447-.339,1.0296-1.3288,1.2946-2.132,1.8363-3.6241,2.4445-2.3041,9.0006-3.1087,9.0741-.8202.0749-3.723-6.5539-.889-11.3966.9116-1.5577,2.985-3.9018,4.6065-3.3585Z"/>
  <path class="cls-9" d="M873.9893,648.8578c.7206-.3071,3.3295,3.659-.6507,6.7528-4.3636,3.3918-13.1618,3.0261-12.8084,2.5094.1733-.2535,2.5754-.5825,6.6074-2.4864,1.5483-.7311,2.7577-1.3021,3.8951-2.1961,2.8788-2.2625,2.4733-4.3738,2.9565-4.5797Z"/>
  <ellipse class="cls-9" cx="873.5177" cy="644.6961" rx=".806" ry="1.8486" transform="translate(-204.019 512.1034) rotate(-29.4139)"/>
</svg>