<?xml version="1.0" encoding="UTF-8"?>
<svg id="Layer_1" data-name="Layer 1" xmlns="http://www.w3.org/2000/svg" viewBox="0 0 1621.4173 1264.252">
  <defs>
    <style>
      .cls-1 {
        fill: #010101;
      }

      .cls-2 {
        fill: #5a5358;
      }

      .cls-3 {
        fill: #fff;
        opacity: .79;
      }

      .cls-4 {
        fill: #282828;
      }

      .cls-5 {
        fill: #434343;
      }
    </style>
  </defs>
  <g>
    <ellipse class="cls-1" cx="348.1938" cy="634.9351" rx="344.0209" ry="192.4185"/>
    <ellipse class="cls-1" cx="1273.2235" cy="629.3169" rx="344.0209" ry="192.4185"/>
    <path class="cls-1" d="M1160.1597,682.9978c-74.109-28.7259-196.51-65.772-351.3746-66.0256-156.522-.2561-280.1585,37.1811-354.5713,66.0256-46.1046,0-84.0401-52.8559-84.0401-117.0894,0-64.3993,37.8174-117.0894,84.0401-117.0894h705.9459c46.2194,0,84.0401,52.6901,84.0401,117.0894s-37.8208,117.0894-84.0401,117.0894Z"/>
    <ellipse class="cls-2" cx="384.1004" cy="643.0577" rx="287.2448" ry="160.6624"/>
    <ellipse class="cls-2" cx="1239.2889" cy="635.4087" rx="287.2448" ry="160.6624"/>
    <path class="cls-3" d="M131.5363,630.9209c-3.8921-5.24,52.7662-78.9377,140.7453-104.1515,143.1307-41.0196,283.6909,70.7779,281.4905,76.0024-2.0112,4.7754-122.295-81.8612-264.6011-50.6681-94.853,20.7916-153.8402,83.9258-157.6347,78.8172Z"/>
    <path class="cls-3" d="M1496.7656,616.5582c3.8921-5.24-52.7662-78.9377-140.7453-104.1515-143.1307-41.0196-283.6909,70.7779-281.4905,76.0024,2.0112,4.7754,122.295-81.8612,264.6011-50.6681,94.853,20.7916,153.8402,83.9258,157.6347,78.8172Z"/>
  </g>
  <ellipse class="cls-4" cx="815.1802" cy="470.7161" rx="179.149" ry="8.8834"/>
  <ellipse class="cls-5" cx="713.9337" cy="471.6188" rx="34.7673" ry="3.863"/>
  <path class="cls-4" d="M1582.9326,634.264c-1.9072,39.9584-35.37,73.8381-39.5457,71.7224-3.8719-1.9625,19.8083-33.7075,18.4378-73.2026-2.7545-79.3328-104.5269-130.3473-102.7952-132.5815,1.8971-2.4465,127.7379,53.7872,123.9032,134.0617Z"/>
  <path class="cls-4" d="M35.5863,638.2962c1.6406,38.8693,35.3025,73.828,39.5457,71.7224,3.9529-1.9608-19.6935-35.0329-18.4378-73.2026,2.9638-90.0104,142.3916-147.2934,141.2574-149.0749-1.2254-1.9258-166.1089,61.8651-162.3653,150.5552Z"/>
</svg>