<?xml version="1.0" encoding="UTF-8"?>
<svg id="Layer_1" data-name="Layer 1" xmlns="http://www.w3.org/2000/svg" viewBox="0 0 1621.4173 1264.252">
  <defs>
    <style>
      .cls-1 {
        fill: #010101;
      }

      .cls-2 {
        fill: #5a5358;
      }

      .cls-3 {
        fill: #fff;
        opacity: .79;
      }

      .cls-4 {
        fill: #282828;
      }

      .cls-5 {
        fill: #434343;
      }
    </style>
  </defs>
  <g>
    <ellipse class="cls-1" cx="703.319" cy="632.2782" rx="79.877" ry="44.677"/>
    <ellipse class="cls-1" cx="918.0984" cy="631.9737" rx="79.877" ry="44.677"/>
    <path class="cls-1" d="M891.8465,643.4377c-17.2071-6.6698-45.627-15.2714-81.5844-15.3302-36.3423-.0595-65.049,8.6329-82.3267,15.3302-10.7049,0-19.513-12.2724-19.513-27.1866,0-14.9527,8.7807-27.1866,19.513-27.1866h163.9111c10.7315,0,19.513,12.2339,19.513,27.1866s-8.7815,27.1866-19.513,27.1866Z"/>
    <ellipse class="cls-2" cx="711.656" cy="634.1642" rx="66.6944" ry="37.3036"/>
    <ellipse class="cls-2" cx="910.2192" cy="633.3882" rx="66.6944" ry="37.3036"/>
    <path class="cls-3" d="M653.014,631.3462c-.9037-1.2167,12.2516-18.3283,32.6791-24.1826,33.233-9.5242,65.8692,16.4337,65.3583,17.6467-.467,1.1088-28.3953-19.0071-61.4368-11.7644-22.0236,4.8275-35.7196,19.4864-36.6006,18.3003Z"/>
    <path class="cls-3" d="M970.0018,628.0114c.9037-1.2167-12.2516-18.3283-32.6791-24.1826-33.233-9.5242-65.8692,16.4337-65.3583,17.6467.467,1.1088,28.3953-19.0071,61.4368-11.7644,22.0236,4.8275,35.7196,19.4864,36.6006,18.3003Z"/>
  </g>
  <ellipse class="cls-4" cx="811.7469" cy="594.1488" rx="41.596" ry="2.0626"/>
  <ellipse class="cls-5" cx="788.2388" cy="594.3584" rx="8.0725" ry=".8969"/>
  <path class="cls-4" d="M990.0086,632.1224c-.4428,9.2778-8.2124,17.1442-9.182,16.653-.899-.4557,4.5992-7.8264,4.281-16.9967-.6396-18.42-24.2697-30.2649-23.8677-30.7836.4405-.568,29.659,12.4886,28.7686,31.1273Z"/>
  <path class="cls-4" d="M630.7357,633.0586c.3809,9.0249,8.1968,17.1419,9.182,16.653.9178-.4553-4.5726-8.1342-4.281-16.9967.6882-20.8992,33.0614-34.1995,32.798-34.6132-.2845-.4471-38.5682,14.3642-37.699,34.9569Z"/>
</svg>