<?xml version="1.0" encoding="UTF-8"?>
<svg id="Layer_1" data-name="Layer 1" xmlns="http://www.w3.org/2000/svg" viewBox="0 0 1621.4173 1264.252">
  <defs>
    <style>
      .cls-1 {
        fill: #717272;
      }

      .cls-2 {
        fill: #030303;
      }

      .cls-3 {
        fill: #838384;
      }

      .cls-4 {
        fill: #0d0d0d;
      }

      .cls-5 {
        fill: #212120;
      }

      .cls-6 {
        fill: #333;
      }

      .cls-7 {
        fill: #0f0d0e;
      }
    </style>
  </defs>
  <path class="cls-7" d="M1140.979,636.5305c.1922-.5292.6153-1.6506,1.2863-2.9863,17.84-35.5162,101.9201-7.2851,115.4087-28.8926,17.8095-28.5293-84.0727-149.3478-226.9943-217.8937-37.8284-18.1424-102.99-48.3707-193.0847-52.218-21.2484-.9072-106.0624-3.0577-207.6591,38.8595-8.3561,3.4483-14.3319,6.0524-21.6411,9.3306-65.9355,29.5751-176.7703,80.6696-256.5442,184.0072-28.8758,37.4041-65.0703,84.2901-48.5754,112.6241,15.762,27.074,80.7179,39.0695,113.7392,11.8968.545-.4473.9765-.8316,1.512-1.2957,39.4381-34.0987,40.6025-74.0397,59.9588-113.6594,18.6412-38.156,45.4841-60.4439,108.6339-101.0821,109.6157-70.541,219.2734-68.2015,239.5978-67.4812,74.1646,2.6272,132.4203,25.27,168.4321,43.194,21.7524,11.1555,57.634,33.0948,89.9676,72.662,35.9677,44.0151,50.0812,88.4713,55.9624,112.9349Z"/>
  <g>
    <circle class="cls-5" cx="1351.2463" cy="672.2315" r="223.7802"/>
    <circle class="cls-2" cx="1333.248" cy="661.5569" r="218.6251"/>
    <path class="cls-1" d="M1455.6378,813.5106c-48.8796,40.4978-106.8446,38.7084-105.283,33.1232,1.3028-4.6593,43.4835-10.0196,88.5073-46.3225,48.0765-38.7642,63.3498-83.7455,68.7502-84.1675,6.1437-.4801-3.1539,56.9181-51.9745,97.3668Z"/>
    <ellipse class="cls-1" cx="1521.4482" cy="669.7659" rx="4.7974" ry="9.5947"/>
  </g>
  <path class="cls-4" d="M1574.1833,519.4186c14.1187,33.2754,33.3521,90.208,34.2572,163.1389.9503,76.5114-18.6979,136.2686-32.7347,170.2161-10.2241,14.3749-27.6336,21.7755-44.7827,19.0244-25.0695-4.0216-34.8725-27.3785-35.3408-28.5503,3.0703-2.5306,7.324-6.2183,12.0774-10.977,29.5321-29.5688,40.4881-62.6154,46.929-82.799,15.1845-47.581,12.1719-87.73,10.9298-100.1854-7.4069-74.2959-47.6178-124.3487-64.3469-143.0161,1.91-2.2618,13.3553-15.385,31.5733-15.7861,17.4756-.3864,34.0861,11.0904,41.4384,28.9346Z"/>
  <path class="cls-6" d="M1597.162,675.7281c1.6842-39.6869-22.1325-72.3092-25.6407-71.0408-3.1889,1.1529,11.7635,29.8145,9.8535,74.6739-1.5152,35.5897-12.6172,57.2497-9.8535,58.2997,3.2603,1.239,24.1517-26.843,25.6407-61.9328Z"/>
  <ellipse class="cls-6" cx="1560.123" cy="566.738" rx="3.9467" ry="17.6084" transform="translate(-93.9735 428.3888) rotate(-15.1832)"/>
  <path class="cls-6" d="M996.5695,413.6659c-2.1001,5.6219-73.4254-34.6867-180.3352-35.2159-118.6113-.588-197.4475,48.2026-199.7649,42.5031-2.5117-6.1784,86.1098-73.269,199.7649-71.6477,102.5669,1.4637,182.6096,58.2724,180.3352,64.3605Z"/>
  <ellipse class="cls-6" cx="579.5766" cy="444.6789" rx="21.8588" ry="5.4046" transform="translate(-150.8667 434.6339) rotate(-36.7093)"/>
  <ellipse class="cls-3" cx="585.9795" cy="441.2345" rx="7.3897" ry="1.3086" transform="translate(-147.4557 452.7515) rotate(-37.8789)"/>
  <path class="cls-3" d="M857.092,368.9326c.4137-.8274.1323-1.7241-.083-2.3815-3.1564-9.612-27.4824-12.4071-43.3179-11.8863-25.9557.8526-47.0109,11.1975-46.5174,13.0288.461,1.7115,18.8669-7.2746,46.5174-4.5718,21.491,2.1001,41.0414,10.5276,43.4009,5.8109Z"/>
  <ellipse class="cls-3" cx="1558.8689" cy="562.1168" rx="2.6568" ry="7.6898" transform="translate(-84.0243 345.4383) rotate(-12.3157)"/>
  <ellipse class="cls-3" cx="1579.6335" cy="621.4843" rx="1.7716" ry="4.6289" transform="translate(-117.8588 623.5981) rotate(-21.5478)"/>
  <ellipse class="cls-3" cx="1522.7722" cy="670.0402" rx="1.6382" ry="2.8955"/>
  <g>
    <circle class="cls-5" cx="270.171" cy="706.2798" r="223.7802"/>
    <circle class="cls-2" cx="288.1693" cy="695.6051" r="218.6251"/>
    <path class="cls-1" d="M165.7795,847.5589c48.8796,40.4978,106.8446,38.7084,105.283,33.1232-1.3028-4.6593-43.4835-10.0196-88.5073-46.3225-48.0765-38.7642-63.3498-83.7455-68.7502-84.1675-6.1437-.4801,3.1539,56.9181,51.9745,97.3668Z"/>
    <ellipse class="cls-1" cx="99.9691" cy="703.8142" rx="4.7974" ry="9.5947"/>
  </g>
  <path class="cls-4" d="M47.234,553.4668c-14.1187,33.2754-33.3521,90.208-34.2572,163.1389-.9503,76.5114,18.6979,136.2686,32.7347,170.2161,10.2241,14.3749,27.6336,21.7755,44.7827,19.0244,25.0695-4.0216,34.8725-27.3785,35.3408-28.5503-3.0703-2.5306-7.324-6.2183-12.0774-10.977-29.5321-29.5688-40.4881-62.6154-46.929-82.799-15.1845-47.581-12.1719-87.73-10.9298-100.1854,7.4069-74.2959,47.6178-124.3487,64.3469-143.0161-1.91-2.2618-13.3553-15.385-31.5733-15.7861-17.4756-.3864-34.0861,11.0904-41.4384,28.9346Z"/>
  <path class="cls-6" d="M24.2553,709.7764c-1.6842-39.6869,22.1325-72.3092,25.6407-71.0408,3.1889,1.1529-11.7635,29.8145-9.8535,74.6739,1.5152,35.5897,12.6172,57.2497,9.8535,58.2997-3.2603,1.239-24.1517-26.843-25.6407-61.9328Z"/>
  <ellipse class="cls-6" cx="61.2943" cy="600.7863" rx="17.6084" ry="3.9467" transform="translate(-534.5739 502.5913) rotate(-74.8168)"/>
  <ellipse class="cls-3" cx="67.4059" cy="637.6465" rx="7.6898" ry="2.6568" transform="translate(-569.9442 567.493) rotate(-77.6843)"/>
  <ellipse class="cls-3" cx="41.7838" cy="655.5325" rx="4.6289" ry="1.7716" transform="translate(-583.2808 453.6339) rotate(-68.4522)"/>
</svg>