<?xml version="1.0" encoding="UTF-8"?>
<svg id="Layer_1" data-name="Layer 1" xmlns="http://www.w3.org/2000/svg" viewBox="0 0 1621.4173 1264.252">
  <defs>
    <style>
      .cls-1 {
        fill: #e5e0e4;
      }

      .cls-2 {
        fill: #010101;
      }

      .cls-3 {
        fill: #cccbca;
      }

      .cls-4 {
        fill: #1b5229;
      }

      .cls-5 {
        fill: #fff;
      }

      .cls-6 {
        stroke-width: 14.0773px;
      }

      .cls-6, .cls-7, .cls-8, .cls-9, .cls-10, .cls-11, .cls-12, .cls-13, .cls-14 {
        fill: none;
        stroke: #929497;
        stroke-linecap: round;
        stroke-linejoin: round;
      }

      .cls-7 {
        stroke-width: 5.4563px;
      }

      .cls-8 {
        stroke-width: 5.7719px;
      }

      .cls-9 {
        stroke-width: 4.3818px;
      }

      .cls-10 {
        stroke-width: 4.1422px;
      }

      .cls-11 {
        stroke-width: 10.7583px;
      }

      .cls-12 {
        stroke-width: 7.5525px;
      }

      .cls-13 {
        stroke-width: 7.1396px;
      }

      .cls-14 {
        stroke-width: 8.1673px;
      }

      .cls-15 {
        fill: #04af4b;
      }
    </style>
  </defs>
  <circle class="cls-1" cx="810.7087" cy="632.126" r="619.4013"/>
  <circle class="cls-15" cx="879.4012" cy="489.7349" r="436.7958"/>
  <circle class="cls-2" cx="899.564" cy="455.1661" r="218.3979"/>
  <circle class="cls-5" cx="854.6126" cy="430.4053" r="45.0905"/>
  <path class="cls-3" d="M962.5926,1228.9819c-.6321,8.4684-317.0599,77.4745-544.6457-103.827-229.9489-183.183-231.2655-512.0137-223.3765-514.3876,7.6396-2.2993,23.3214,301.7479,247.1081,481.1634,222.9564,178.7499,521.5294,128.809,520.9141,137.0512Z"/>
  <path class="cls-4" d="M742.0953,160.1154c-4.1887-3.6603-188.271,114.6177-190.1136,291.6639-1.3811,132.6869,100.2666,234.0162,105.9615,230.9531,5.5081-2.9628-81.9271-101.88-76.5578-234.5536,6.9495-171.7093,164.6794-284.5943,160.7099-288.0634Z"/>
  <path class="cls-6" d="M691.22,1235.2484c16.124-67.3073-3.1164-131.661-47.697-161.6406-22.1325-14.8837-46.1358-18.3528-63.5963-18.5487"/>
  <path class="cls-13" d="M697.2332,1161.9301c-8.1776-34.1361,1.5805-66.7742,24.1904-81.9789,11.2249-7.5485,23.3986-9.3079,32.254-9.4073"/>
  <path class="cls-6" d="M332.7295,1034.6478c-16.124-67.3073,3.1164-131.661,47.697-161.6406,22.1325-14.8837,46.1358-18.3528,63.5963-18.5487"/>
  <path class="cls-13" d="M325.02,968.719c8.1776-34.1361-1.5805-66.7742-24.1904-81.9789-11.2249-7.5485-23.3986-9.3079-32.254-9.4073"/>
  <path class="cls-12" d="M332.7295,1020.9224c-7.8726-39.6791,1.5216-77.6169,23.2882-95.2906,10.8062-8.7743,22.526-10.8194,31.0511-10.9348"/>
  <path class="cls-11" d="M1226.9112,1088.4527c-14.4469-50.8823-51.352-86.5611-92.2769-89.8521-20.3175-1.6339-37.6096,5.0381-49.3171,11.4424"/>
  <path class="cls-7" d="M1207.3735,1041.6382c-18.2246-19.6848-23.9378-45.084-14.5631-63.6771,4.6541-9.2307,12.1072-14.9592,17.9705-18.3396"/>
  <path class="cls-8" d="M1221.7743,1079.3073c-9.6047-29.3851-30.0628-51.1477-51.1808-54.7774-10.4842-1.802-19.0586,1.2215-24.7822,4.3352"/>
  <path class="cls-14" d="M260.0878,354.3775c34.4985-20.5491,73.4653-21,97.7663-1.4815,12.0644,9.6901,18.1292,22.3869,21.2516,32.0245"/>
  <path class="cls-10" d="M295.2752,338.7271c20.3196-1.3627,36.7136-12.4014,41.2328-27.5496,2.2436-7.5204,1.1168-14.5672-.3567-19.4894"/>
  <path class="cls-9" d="M267.6903,352.0083c20.6194-11.2097,43.2549-12.5548,56.8015-3.5488,6.7254,4.4711,9.8811,10.6097,11.4166,15.3118"/>
</svg>