<?xml version="1.0" encoding="UTF-8"?>
<svg id="Layer_1" data-name="Layer 1" xmlns="http://www.w3.org/2000/svg" viewBox="0 0 1621.4173 1264.252">
  <defs>
    <style>
      .cls-1 {
        fill: #a2a5b1;
      }

      .cls-2 {
        fill: #828690;
      }

      .cls-3 {
        fill: #979ba6;
      }

      .cls-4 {
        fill: #44464e;
      }

      .cls-5 {
        fill: #797d86;
      }

      .cls-6 {
        fill: #81848d;
      }

      .cls-7 {
        fill: #54575e;
      }

      .cls-8 {
        fill: #8f929c;
      }

      .cls-9 {
        fill: #7a7f88;
      }

      .cls-10 {
        fill: #8c909a;
      }
    </style>
  </defs>
  <path class="cls-3" d="M673.5083,748.8098c-14.3457,2.5172-35.0097,4.355-58.717-.3401-19.3105-3.824-32.7605-10.4226-36.4141-12.1319-23.4293-10.9603-73.094-21.5718-183.5524-24.0352-24.8318-26.5055-27.7345-37.008-24.8655-41.4331,2.1683-3.3437,6.3044-1.1681,10.6485-5.1778,10.1562-9.3775-2.1715-30.7765,7.8674-39.7097,4.2313-3.7674,9.7032-2.7071,10.1494-5.8977.6048-4.3297-8.5657-6.7439-11.837-13.8478-2.3391-5.0804-1.9895-13.4177,8.3034-27.8637,51.0247,3.225,89.8556,13.3223,116.3929,22.2509,18.3998,6.1903,25.8842,10.1353,42.7206,15.2244,44.9036,13.5722,84.3999,13.5411,111.2405,11.2461,2.6878,40.5719,5.3755,81.1439,8.0633,121.7157Z"/>
  <path class="cls-3" d="M939.2756,625.2782c8.4109-10.1578,16.227-17.1163,21.3832-21.3329,13.37-10.9356,28.6198-19.6227,96.1984-44.8197,15.902-5.9285,14.6309-5.265,19.2152-7.083,47.5489-18.848,80.4485-45.0337,101.2121-64.8028,46.7703,40.3342,54.4109,57.5596,50.4388,65.3534-1.5886,3.1171-6.4365,7.4689-4.9368,10.6498,1.7538,3.7211,9.8808.9325,16.6596,4.1623,5.1879,2.4716,10.8328,9.0633,12.8174,27.1424-43.1305,9.533-98.2801,26.2534-157.8485,56.8083-43.47,22.2982-79.0723,46.7191-107.1071,68.8713-16.0107-31.6497-32.0215-63.2994-48.0322-94.9491Z"/>
  <path class="cls-1" d="M665.445,627.0941c13.5818,9.5755,86.689,59.1084,180.8621,39.7309,58.3625-12.0089,96.4216-44.6408,112.678-60.4986,5.1692,2.5809,28.7181,15.0327,38.5916,43.3389,12.5229,35.9029-7.7367,66.3964-9.9815,69.6504-26.4497,16.6161-64.4819,35.9345-113.047,46.9727-104.2584,23.6948-190.8966-5.8119-227.2553-20.7402-4.0448-10.9966-11.9678-37.2005-4.9291-69.3291,5.1601-23.5522,16.1505-40.1944,23.0813-49.1251Z"/>
  <path class="cls-3" d="M736.4863,700.2387c.64-2.6705,51.7426,22.9504,116.254,5.6142,46.5801-12.5165,75.6928-40.8567,81.9767-33.9649,4.7612,5.2217-5.9163,28.1051-23.1968,42.2438-56.9804,46.6206-176.0072-9.8288-175.0339-13.893Z"/>
  <path class="cls-6" d="M958.3204,605.9213c2.0544-1.7903,35.5477,19.1275,42.7378,54.3814,6.3805,31.2824-10.7229,60.2559-13.44,59.6136-2.4975-.5904,8.5161-25.8848.9588-58.508-8.145-35.1584-32.0828-53.8954-30.2566-55.487Z"/>
  <path class="cls-6" d="M665.4451,627.0941c-1.8872-1.2603-30.0526,22.3967-34.5553,57.5904-4.2417,33.1518,14.4309,61.5597,16.6369,60.8859,2.0552-.6277-11.252-26.1736-6.307-60.75,5.0723-35.4694,25.9399-56.5816,24.2254-57.7264Z"/>
  <path class="cls-1" d="M458.2569,603.8449c1.2272-2.684,45.1033,18.0319,104.3205,34.4907,35.3206,9.8171,56.4219,12.6504,56.2421,13.7129-.5548,3.2964-202.4588-30.049-202.3627-30.6649.0561-.3531,66.4105,12.099,68.9335,3.3992,1.7476-6.0263-28.1362-18.7417-27.1334-20.9379Z"/>
  <path class="cls-1" d="M1207.3733,556.7364c-.405-1.1579-41.3828,10.5145-98.5306,33.1604-9.9483,3.9421-59.5527,23.5972-58.5372,26.5045.8168,2.3399,33.1747-9.7679,81.0665-19.5278,63.4284-12.9246,114.5792-13.6768,114.4573-16.1394-.1401-2.8238-67.2267,1.3805-68.5892-7.6694-.948-6.2974,30.4891-15.3133,30.1332-16.3284Z"/>
  <path class="cls-1" d="M1111.8089,547.6548c-.8234-2.5296,11.8221-5.0233,34.8211-21.9783,19.5092-14.3832,26.4787-24.4345,34.8188-21.9797,6.4169,1.8891,11.9106,10.6681,10.7116,17.8463-3.8806,23.2503-78.3761,32.1787-80.3515,26.1116Z"/>
  <path class="cls-1" d="M436.4544,670.8789c.3827-1.7163,34.2836,3.4845,65.6826,12.3634,21.9721,6.2131,49.3219,16.0938,48.8678,17.6025-.9173,3.0415-115.262-26.778-114.5504-29.9659Z"/>
  <polygon class="cls-8" points="416.7872 639.4296 409.2764 647.6759 416.1764 709.8249 416.643 651.2295 416.7872 639.4296"/>
  <path class="cls-3" d="M969.9784,680.5286c-5.0608-1.2818-17.4354,16.9414-12.6881,23.7996,2.2965,3.318,8.5761,3.9383,12.3737,1.7423,8.5271-4.9321,5.0275-24.3485.3144-25.542Z"/>
  <path class="cls-3" d="M667.6692,685.5748c13.8041,10.4156,27.6105,20.8328,41.4146,31.2484"/>
  <path class="cls-6" d="M651.6492,701.126c-.5529.9492,26.0548,23.6432,66.1621,34.733,30.6454,8.474,57.4166,6.923,57.5135,5.9409.0936-.9469-24.6383-1.0521-57.0383-10.5419-41.4196-12.1311-66.1135-31.0305-66.6374-30.132Z"/>
  <path class="cls-4" d="M1177.2848,487.2399c-.8658.8057,12.8062,19.1762,27.3715,36.5831,9.9079,11.8404,15.9992,18.1998,14.9177,26.6506-1.0745,8.3962-8.4661,12.479-6.543,16.0635,2.646,4.9325,16.6752-2.6952,26.6151,5.1325,4.2714,3.3639,7.0423,8.7838,8.4982,11.6884,3.0547,6.095,3.84,11.2567,4.119,11.1896.2899-.0695.0461-5.7842-2.5928-11.9043-1.3034-3.0222-4.9317-11.4092-13.1829-15.2813-6.954-3.2635-12.0295-.933-13.701-4.1192-1.5949-3.041,2.3928-5.8604,3.6978-11.5911,2.4787-10.8751-7.1385-22.1687-16.951-33.6904-3.1648-3.7163-6.6758-7.1791-13.7158-14.0882-3.3836-3.3207-17.7199-17.3898-18.5326-16.6334Z"/>
  <path class="cls-5" d="M395.1815,578.3761c1.4183.3729-4.9567,12.3382.5736,24.2456,4.3268,9.3169,12.993,12.2524,11.7818,17.608-.6791,3.0029-3.5516,2.7247-7.909,7.3799-5.0794,5.4255-7.2205,12.2606-7.619,16.9112-.6767,7.9,3.3422,13.315,5.9382,18.4871,9.7102,19.3487,5.3693,47.0898-1.6989,49.3185-9.1382,2.8818-30.4348-34.491-24.9991-39.8703,2.6452-2.6178,11.2051,2.7542,14.8724-1.3413.9455-1.0559,1.2605-2.401,1.1464-6.8556-.2469-9.6186-1.9716-13.0659-2.3099-19.8566-.311-6.2341-.5181-10.3473,1.9005-14.19,4.4378-7.0554,13.0985-5.8649,13.8971-10.1597.8236-4.428-8.2583-6.357-11.931-14.4848-5.3146-11.7607,4.7051-27.6265,6.357-27.192Z"/>
  <path class="cls-7" d="M665.4449,627.0941c-.0238.0356,8.6306,5.8773,8.9026,6.0608,92.6312,62.4707,170.5099,42.9967,170.5099,42.9967l82.0739-40.5077h0c10.6651-9.1466,31.6984-29.6639,31.5272-29.8489-.0133-.0143-.15.0926-.1875.1219-63.4311,49.0442-117.9374,60.0017-117.9374,60.0017-21.8745,2.754-39.9789,2.4326-52.5347,1.6002-61.0497-4.0475-102.9591-27.6046-113.0155-34.2549-1.0378-.6864-9.3152-6.2044-9.3386-6.1698Z"/>
  <path class="cls-9" d="M647.2406,745.5368h0c65.4894,27.257,75.0253,27.7687,94.0987,28.7916.0352.002,3.25.1733,3.25.1733h0c3.5032.1164,6.7571-.0506,24.1575.1,18.7663.1618,33.3269.5146,44.9578.9016,40.3333,1.3421,37.0754,1.6565,43.6075,1.5023,0,0,77.1766-1.8219,131.0054-57.2673.0031-.0035.8705-.8973.8713-.8975-.0016.0006-6.6282,2.5172-7.5464,2.8673-8.8381,3.368-14.0823,6.1411-28.9875,12.3675-6.1835,2.5832-10.1025,4.1666-10.1025,4.1666-6.7931,2.7684-9.4195,3.7636-15.6382,6.4266-23.0595,9.8768-25.382,12.1239-33.4621,15.0283-18.8538,6.7743-34.7514,4.7936-50.0646,3.5477-69.374-5.6449-75.7318,8.4081-131.4407-1.4847-11.4841-2.0394-20.0651-4.1883-33.9341-7.8005-3.3594-.875-12.9586-3.8171-21.8788-6.1257-1.0143-.2626-8.8936-2.297-8.8936-2.297Z"/>
  <path class="cls-2" d="M667.2516,641.0093c-.5424-.5069-19.821,12.3691-18.0021,26.8547.5884,4.6885,3.3925,9.5877,4.1453,9.3789.7148-.199-.6342-4.9563-.6356-9.5978-.0055-15.4818,14.9791-26.1814,14.4923-26.6358Z"/>
  <path class="cls-10" d="M772.5772,712.4538c.358-2.7271,40.8416,11.8799,91.8328-5.7814,37.0672-12.8378,59.411-35.7058,64.0998-30.8301,3.665,3.8108-5.3279,22.6163-19.5363,34.9699-45.6263,39.6688-136.9337,5.7404-136.3963,1.6416Z"/>
</svg>