<?xml version="1.0" encoding="UTF-8"?>
<svg id="Layer_1" data-name="Layer 1" xmlns="http://www.w3.org/2000/svg" viewBox="0 0 1621.4173 1264.252">
  <defs>
    <style>
      .cls-1 {
        fill: #a36f51;
      }

      .cls-2 {
        fill: #a57557;
      }

      .cls-3 {
        fill: #825436;
      }

      .cls-4 {
        fill: #462817;
      }

      .cls-5 {
        fill: #5b341b;
      }

      .cls-6 {
        fill: #824f20;
      }

      .cls-7 {
        fill: #653d20;
      }

      .cls-8 {
        fill: #834e20;
      }
    </style>
  </defs>
  <g>
    <path class="cls-6" d="M883.6901,1262.6131c-.1099,0-.2119-.0654-.2554-.1699-15.5613-37.4424-26.7739-75.7666-33.3264-113.9102-7.384-42.9814-9.0818-73.4746-11.4314-115.6787l-.3665-6.5713c-2.0945-37.4229-5.7275-75.3672-9.241-112.0625-2.0762-21.6816-4.2227-44.1016-6.0293-66.1758-7.6619-93.6104-18.9763-197.1406-33.6326-307.7461l-14.1125,50.9639c-.0308.1104-.1265.1904-.2405.2012-.0088.001-.0176.001-.0261.001-.1045,0-.2012-.0596-.248-.1543-.0129-.0254-14.9609-30.2373-14.9609-30.2373-.0173-.0352-.0271-.0732-.0286-.1123L737.4509,14.0916c1.7388-7.248,8.2317-12.4531,15.4465-12.4531,1.3611,0,2.7061.1904,3.9973.5645,7.3384,2.1279,12.0688,9.958,10.7693,17.8262,15.8518,147.8125,32.7246,295.7256,50.1519,439.5576,3.9817,32.8633,7.7712,63.7051,11.4358,93.5312,21.7517,177.0312,37.4675,304.9395,47.0845,480.5801,4.1753,76.251,6.7424,153.1758,7.6306,228.6357.0015.1318-.0911.2471-.2209.2734-.0186.0039-.0374.0059-.0557.0059Z"/>
    <path class="cls-8" d="M752.8975,1.9156c1.3123-.0001,2.6294.179,3.92.5531,7.0971,2.0575,11.8832,9.5865,10.5735,17.5154,19.908,185.7523,37.6772,336.6917,50.1501,439.6359,27.7803,229.2795,47.2934,369.0764,58.5189,574.0933,5.3378,97.4888,7.0258,177.2915,7.63,228.6233-19.3926-46.6614-28.5412-86.0955-33.3094-113.8501-7.7597-45.1694-9.2426-76.6367-11.794-122.2188-3.3325-59.5396-10.4066-118.811-15.2709-178.2449-5.7186-69.8721-15.6014-171.8582-33.8125-309.106-9.4583,34.156-14.4748,52.2715-14.4748,52.2715-.0009-.0022-5.8528-11.8293-14.9612-30.2388-7.4466-182.2899-14.8934-364.58-22.34-546.87,1.7833-7.3866,8.3963-12.1635,15.1702-12.1639M752.8991,1.3625v.553l-.0006-.553h-.0011c-7.3411.0006-13.9472,5.2943-15.7079,12.5872-.012.0498-.0171.1012-.0149.1525l11.4129,279.3846,10.9271,267.4855c.0031.0774.0225.1531.0568.2224l6.004,12.1348c5.5708,11.2593,8.9283,18.0454,8.9568,18.103.0936.1902.287.3088.4961.3088.0173,0,.0346-.001.0521-.0024.2285-.0217.42-.1819.4812-.4028l13.7501-49.6545c14.5697,110.0962,25.8226,213.1597,33.4528,306.3865,1.8066,22.0745,3.9532,44.4932,6.0291,66.1741,3.5134,36.6943,7.1465,74.6377,9.2408,112.0566l.3665,6.5708c2.3502,42.2129,4.048,72.7126,11.4346,115.7107,6.5563,38.1626,17.7748,76.5073,33.3438,113.9685.0871.2095.2908.3411.5105.3411.0369,0,.0743-.0037.1116-.0115.2595-.0532.4448-.2834.4417-.5483-.8882-75.4636-3.4555-152.3916-7.6308-228.647-9.6175-175.6501-25.334-303.5627-47.0865-480.6006-3.6645-29.8254-7.4538-60.6663-11.4357-93.5288-17.4256-143.8214-34.296-291.7133-50.1413-439.5544,1.28-7.9792-3.5298-15.9026-10.9775-18.0615-1.3163-.3817-2.6865-.5751-4.0723-.5751h0Z"/>
  </g>
  <path class="cls-7" d="M759.57,180.1404c-5.7756.5002-7.3664,57.0209-3.764,101.9788,3.8328,47.8339,11.6007,58.3206,17.1247,120.3094,3.5152,39.4468,3.2337,67.3404,5.3922,67.3829,2.4422.0482,5.3663-35.6092,6.5392-58.0412,6.1494-117.6115-16.9814-232.3497-25.2921-231.6299Z"/>
  <ellipse class="cls-3" cx="765.8279" cy="262.5977" rx="6.0308" ry="25.8218" transform="translate(-24.5281 87.1347) rotate(-6.4096)"/>
  <path class="cls-7" d="M833.7166,753.9633c1.0296-.0179.5439,19.9873,5.7233,50.6351,4.6384,27.4465,10.8061,45.593,13.8199,55.88,19.8778,67.8474,5.089,143.6775,1.7775,143.7591-1.1982.0295-1.3699-17.4201-5.7364-52.4791-5.8057-46.6145-10.7481-57.8866-15.1166-89.5029-8.2391-59.6282-2.0709-108.2642-.4676-108.2921Z"/>
  <path class="cls-3" d="M845.1618,867.3727c2.3193-.6802,9.7664,10.6768,11.8866,23.7033.7612,4.6769.1211,5.3599-1.4452,28.361-.8402,12.338-1.0369,17.7358-1.8424,17.7723-.9805.0444-2.1453-7.8894-2.6607-12.3532-1.8805-16.2858,2.6718-19.2247-.2303-29.129-1.9543-6.6698-4.5563-7.5715-6.0323-15.683-.8371-4.6004-1.4281-12.1574.3244-12.6714Z"/>
  <g>
    <path class="cls-5" d="M773.6972,598.0213c-.0918,0-.1748-.0576-.2073-.1445l-13.7593-36.7979c-.0161-.043-.0183-.0898-.0066-.1338l3.8962-14.7002c.0251-.0947.1101-.1621.2083-.1641.002-.001.0037-.001.0056-.001.0959,0,.1814.0625.2107.1543l12.7231,39.752c.0125.0391.0139.0801.0042.1201l-2.8599,11.7461c-.0232.0938-.105.1621-.2019.168-.0044,0-.0088.001-.0132.001Z"/>
    <path class="cls-5" d="M763.8343,546.3018c4.241,13.2507,8.482,26.5012,12.7231,39.7517-.9534,3.9155-1.9067,7.8308-2.8601,11.7463-9.0421-24.1821-13.7593-36.7981-13.7593-36.7981,0,0,1.2988-4.8999,3.8964-14.7M763.8343,545.8592c-.0038,0-.0075.0002-.0113.0002-.1965.0049-.3662.1389-.4165.3291l-3.8964,14.7c-.0235.0886-.0189.1824.0132.2683l13.7593,36.7981c.0649.1736.2308.2876.4143.2876.0088,0,.0176-.0005.0265-.001.194-.0115.3577-.1482.4037-.3369l1.4301-5.8733,1.4301-5.873c.0193-.0791.0163-.1621-.0085-.2395l-1.0892-3.4031-11.6339-36.3486c-.0588-.1838-.2294-.3079-.4214-.3079h0Z"/>
  </g>
  <path class="cls-5" d="M795.8846,527.7122c-2.1897,4.6599-4.3795,9.3199-6.5692,13.9798,14.589,134.8072,22.5296,202.1539,23.8207,202.0264,1.3324-.1315-4.4176-72.1292-17.2515-216.0062Z"/>
  <path class="cls-4" d="M771.4685,586.1632c.5225-2.1459,1.045-4.2919,1.5676-6.4378-2.3244-7.2623-4.6488-14.5246-6.9732-21.7869-1.4237,5.3711-2.1355,8.0567-2.1355,8.0567,0,0,2.5854,6.9144,7.5412,20.1681Z"/>
  <ellipse class="cls-1" cx="849.6473" cy="880.2773" rx="2.3809" ry="7.3588" transform="translate(-218.2979 283.384) rotate(-16.8128)"/>
  <path class="cls-2" d="M765.1831,252.2872c.5878-.2459,3.8091,3.5126,3.913,8.1222.104,4.6174-2.9559,8.5009-3.5822,8.2734-.5574-.2024,1.0598-3.5709.751-9.2317-.2468-4.5254-1.5314-6.9758-1.0818-7.1639Z"/>
</svg>