<?xml version="1.0" encoding="UTF-8"?>
<svg id="Layer_1" data-name="Layer 1" xmlns="http://www.w3.org/2000/svg" viewBox="0 0 1621.4173 1264.252">
  <defs>
    <style>
      .cls-1 {
        fill: #ccb697;
      }

      .cls-2 {
        fill: #ca935c;
      }

      .cls-3 {
        fill: #ac7a36;
      }

      .cls-4 {
        fill: #e0d0be;
      }

      .cls-5 {
        fill: #b3b1b2;
      }
    </style>
  </defs>
  <rect class="cls-2" x="717.6206" y="608.6865" width="186.1762" height="46.8789" rx="23.4394" ry="23.4394" transform="translate(-160.0372 970.4813) rotate(-57.1604)"/>
  <rect class="cls-1" x="772.3871" y="614.4327" width="74.2012" height="39.5784" rx="11.0191" ry="11.0191" transform="translate(-162.357 970.4147) rotate(-57.1604)"/>
  <rect class="cls-4" x="775.1098" y="616.1187" width="69.5705" height="37.1084" rx="10.3315" ry="10.3315" transform="translate(-162.5495 970.9634) rotate(-57.1604)"/>
  <path class="cls-3" d="M754.2795,684.2161c-1.2802.2657-3.5321,15.5731,5.5383,22.7045,10.1966,8.0168,26.5814-.6827,26.4131-1.8162-.1463-.9857-12.818,3.7016-22.1189-2.9844-8.6379-6.2094-8.6841-18.1423-9.8325-17.9039Z"/>
  <path class="cls-3" d="M832.9662,559.6793c-.2851-1.276,12.7364-9.6324,22.9705-4.3039,11.5047,5.99,10.3252,24.5036,9.223,24.8171-.9585.2726-1.9059-13.205-11.8291-18.9269-9.2158-5.314-20.1087-.4416-20.3644-1.5863Z"/>
  <path class="cls-5" d="M820.6997,604.1036c.2915-.3972,13.7668,4.4167,14.8419,14.362.7651,7.0779-5.1388,13.1607-5.5665,12.9466-.3903-.1954,4.0119-5.5221,3.2109-12.0757-1.179-9.6465-12.7638-14.8548-12.4864-15.2328Z"/>
  <ellipse class="cls-5" cx="787.218" cy="645.8779" rx="8.357" ry="2.073" transform="translate(-182.3434 957.039) rotate(-57.1604)"/>
</svg>