<?xml version="1.0" encoding="UTF-8"?>
<svg id="Layer_1" data-name="Layer 1" xmlns="http://www.w3.org/2000/svg" viewBox="0 0 1621.4173 1264.252">
  <defs>
    <style>
      .cls-1 {
        fill: #8bb2b8;
      }

      .cls-2 {
        fill: #66412d;
      }

      .cls-3 {
        fill: #a7825e;
      }

      .cls-4 {
        fill: #368fad;
      }

      .cls-5 {
        fill: #b3947f;
      }

      .cls-6 {
        fill: #785441;
      }

      .cls-7 {
        fill: #95babd;
      }

      .cls-8 {
        fill: #826458;
      }

      .cls-9 {
        fill: #a9876d;
      }

      .cls-10 {
        fill: #b99a85;
      }

      .cls-11 {
        fill: #98b6b7;
      }

      .cls-12 {
        fill: #c6a894;
      }

      .cls-13 {
        fill: #8c7051;
      }

      .cls-14 {
        fill: #78abb3;
      }

      .cls-15 {
        fill: #9b7b5a;
      }

      .cls-16 {
        fill: #8e6c4a;
      }
    </style>
  </defs>
  <path class="cls-15" d="M818.4827,503.2238l-30.6771,72.2039c3.019,6.0413,10.9231,19.784,27.2777,29.5425,11.1317,6.6421,22.2376,9.0869,31.2035,9.7579,8.4143.6296,14.944-.303,17.8416-.7948,13.4793-20.4684,26.9587-40.9367,40.4379-61.4051-6.7024,1.3074-26.4418,4.2485-47.6836-6.0569-27.0279-13.1126-36.5239-37.9857-38.4-43.2475Z"/>
  <path class="cls-16" d="M822.0088,656.9552c-2.6532.4965-20.9638,3.6065-36.3045-9.0482-11.4505-9.4457-14.289-21.9351-14.9942-25.6746,7.4941-12.5824,14.9883-25.1647,22.4824-37.7471,2.3666,3.3627,5.753,7.5775,10.4043,11.8484,5.464,5.0172,10.3037,7.9356,11.4867,8.6365,9.0239,5.3465,17.155,7.1904,22.1677,8.2845,3.7068.8092,6.8397,1.235,9.0358,1.4734-8.0927,14.0757-16.1853,28.1514-24.278,42.2271Z"/>
  <path class="cls-15" d="M822.0108,658.1493c-2.825.4539-20.5362,2.9969-35.6953-9.3688-12.0127-9.799-14.9129-22.8343-15.6055-26.5481,7.099-11.976,14.198-23.9522,21.2971-35.9283,3.9492,5.2041,11.2027,13.3953,22.6837,20.0678,12.3999,7.2065,15.0963,37.8553,7.32,51.7774Z"/>
  <path class="cls-16" d="M812.8779,658.1557c-9.2123,13.8105-18.4244,27.6212-27.6366,41.4317-2.8242.4029-11.5034,1.2698-20.4228-3.8139-11.4392-6.5199-14.6085-17.8889-15.1675-20.0513,8.4634-13.8813,16.9268-27.7627,25.3902-41.6441,2.0349,3.7225,6.2311,10.2086,13.8716,15.6266,9.7705,6.9284,19.6139,8.1677,23.9651,8.451Z"/>
  <path class="cls-15" d="M784.3545,701.249c-2.8242.4029-11.5034,1.2698-20.4228-3.8139-11.4392-6.5199-14.6085-17.8889-15.1675-20.0513,8.4708-13.8127,16.9415-27.6256,25.4123-41.4384,1.6554,3.4024,6.0935,11.3684,15.4794,17.3039,9.3097,5.8873,3.8374,34.1883-5.3015,47.9997Z"/>
  <path class="cls-16" d="M780.5375,700.8308c-7.7759,12.2039-15.552,24.4076-23.3279,36.6114-.6409.2686-10.036,4.0147-18.4459-1.8118-7.1981-4.9869-8.0258-13.0731-8.1216-14.1972,7.1115-12.156,14.223-24.312,21.3345-36.4681,1.1993,2.3313,4.5663,8.1143,11.6163,12.1232,7.3547,4.1823,14.3563,3.9538,16.9447,3.7424Z"/>
  <path class="cls-15" d="M757.2096,737.4423c-.6409.2686-10.036,4.0147-18.4459-1.8118-7.1981-4.9869-8.0258-13.0731-8.1216-14.1972,7.1115-12.156,14.223-24.312,21.3345-36.4681.6003,1.9417,2.8671,8.4184,9.5517,12.8112,8.5077,5.591,3.4573,27.462-4.3187,39.6659Z"/>
  <path class="cls-2" d="M725.5332,766.8253c-8.1278-3.5031-13.24-9.7692-11.4183-13.9957,1.8217-4.2265,9.8873-4.8128,18.0151-1.3098,8.1278,3.5033,13.24,9.7694,11.4184,13.9958-1.8217,4.2265-9.8873,4.8128-18.0152,1.3096Z"/>
  <path class="cls-6" d="M727.2602,765.4198c-.2599-.1002-.9169-.359-1.7881-.7826-5.4332-2.6421-12.2756-8.3323-11.3573-11.8077.9795-3.7069,11.0689-5.9567,18.7307-2.559,7.2251,3.2039,12.428,11.4904,10.4785,14.8154-1.8197,3.1035-10.2707,2.5671-16.0638.3338Z"/>
  <path class="cls-16" d="M750.988,738.6523c-1.6858.1707-4.8999.2647-8.5311-1.1568-4.654-1.8219-7.2567-5.0619-8.2532-6.4558-3.3869,6.0676-6.7738,12.1353-10.1607,18.2029-1.427,4.3683.7865,9.1349,4.9844,10.8501,4.2821,1.7497,9.2983-.2192,11.262-4.4768,3.5662-5.6545,7.1324-11.3091,10.6986-16.9636Z"/>
  <path class="cls-15" d="M741.8533,738.718c-4.654-1.8219-7.2567-5.0619-8.2532-6.4558-3.3869,6.0676-6.7738,12.1353-10.1607,18.2029-1.427,4.3683.7865,9.1349,4.9844,10.8501,4.2821,1.7497,9.2983-.2192,11.262-4.4768,3.5662-5.6545,5.7987-16.6989,2.1675-18.1204Z"/>
  <path class="cls-3" d="M851.7968,545.0371c-20.4963-11.4645-38.7865-34.7033-33.2584-44.4087,5.6288-9.8822,35.9394-5.7125,56.921,6.8479,18.7327,11.2141,36.5616,33.0272,31.265,42.616-5.3975,9.7714-34.5348,6.3513-54.9276-5.0553Z"/>
  <path class="cls-13" d="M895.519,543.235c-4.4045-5.7975-14.5904-17.5257-32.1558-24.8213-14.7422-6.1231-27.991-6.3448-35.2119-5.9467-.5282-2.1248-.8857-5.1783.736-7.5551,3.8846-5.6927,16.31-3.5849,21.175-2.2708,5.577,1.5063,13.0524,4.1537,21.1752,8.9904,6.9808,4.1567,12.3754,8.701,16.2777,12.4835,1.6905,1.4526,5.9807,5.5254,7.5419,12.1033.6643,2.7991.6416,5.2396.4619,7.0167Z"/>
  <path class="cls-4" d="M855.1593,537.9611c-18.4731-10.3513-30.421-24.1351-26.6863-30.7867,3.7346-6.6517,21.7375-3.6524,40.2107,6.6991,19.9483,11.1781,25.2397,20.3184,26.3796,23.8536,1.5381,4.7699.6029,6.4631.3067,6.9331-3.9863,6.325-25.0654,1.7874-40.2107-6.6991Z"/>
  <path class="cls-16" d="M901.8809,556.9002c-1.4514,2.375-10.4271,15.9664-36.7921,55.4051-7.0722,1.356-13.0564,1.3566-17.3017,1.0631-.0003,0-8.6582-.5988-16.2898-3.3687-.6205-.2252-2.5039-.9087-2.4644-1.0359.0296-.0954,1.1176.1636,1.2642.1965,3.8624.8702,21.5944-4.7639,30.3373-11.8309.4243-.3431,4.6887-3.8105,8.2087-6.6195.1013-.0809.1547-.1225.2374-.1901.8598-.7006,2.0405-1.7893,5.1687-4.9302,8.2402-8.2734,12.7183-12.8218,30.2628-32.9957-.0002.0003-2.5946,4.2463-2.6313,4.3063Z"/>
  <path class="cls-9" d="M819.1386,528.7536l.0003.0006c6.904,13.123-23.8016,39.0143-19.248,46.9724,5.612,9.808,63.1475-10.4723,61.7278-19.3248-.6658-4.151-13.8786-2.699-27.3039-14.9696-4.6393-4.2403-8.0026-8.6712-8.1425-8.8571-6.4305-8.5468-8.3137-15.678-9.2367-15.4945-.8381.1666.0919,6.2599,2.203,11.673Z"/>
  <path class="cls-9" d="M751.6649,685.6724c-6.9722,11.9029-13.9444,23.8059-20.9166,35.7088.121,1.7478.6363,5.7224,3.4554,9.6586,2.2444,3.1337,4.933,4.8246,6.4461,5.6289.9284.5119,2.2733,1.1401,3.9829,1.5743,1.2093.3071,1.8178.4456,1.9398.3256.9404-.9245-7.7411-7.665-9.1189-16.5516-.3107-2.0046-.3378-4.6856,3.0474-13.5161,4.9892-13.0139,11.2218-22.9274,11.1639-22.8286Z"/>
  <ellipse class="cls-10" cx="813.5781" cy="588.3945" rx="6.2165" ry="4.0234" transform="translate(-180.3954 446.5001) rotate(-27.7508)"/>
  <path class="cls-9" d="M774.1615,627.3414c1.6765,7.0229,12.4882,8.9457,13.0351,8.0191.4476-.7584-6.0892-3.2444-7.9432-9.728-1.4739-5.1547,1.0251-9.2943.1953-9.6276-1.0491-.4213-6.6703,5.5431-5.2873,11.3364Z"/>
  <ellipse class="cls-10" cx="787.7186" cy="640.2287" rx="2.0933" ry="1.5915" transform="translate(-207.5052 440.4212) rotate(-27.7508)"/>
  <path class="cls-10" d="M769.7442,649.6857l-16.509,26.6497c.0864.9928.899,8.7652,7.9785,13.5121,7.1021,4.762,14.6281,2.5342,15.5729,2.2367.456-.096.971-.2574,1.0069-.5298.1741-1.3178-11.4322-.9263-15.4671-6.1313-7.2496-9.352,11.0761-35.3088,8.9591-36.5483-.3323-.1946-1.0015.3176-1.5413.8109Z"/>
  <path class="cls-9" d="M725.7915,755.7419c1.6733,3.1803,6.7841,2.5211,6.8838,2.1374.0865-.3324-3.5603-.5669-4.928-3.1664-1.3677-2.5995.5045-5.7378.1815-5.8548-.3728-.1351-3.8107,3.7035-2.1374,6.8838Z"/>
  <ellipse class="cls-9" cx="730.4568" cy="745.3007" rx="1.2034" ry=".8173" transform="translate(-263.0157 425.8438) rotate(-27.7508)"/>
  <path class="cls-8" d="M743.115,762.0802c-.1421-.2157-2.5913,2.08-6.7134,2.8549-4.6692.8776-8.2006-.8134-8.266-.5681-.0717.2692,4.0685,2.7243,8.6332,1.7617,3.9138-.8254,6.4985-3.8171,6.3462-4.0485Z"/>
  <ellipse class="cls-8" cx="723.1942" cy="761.8472" rx=".5116" ry="1.5384" transform="translate(-297.7198 1009.1437) rotate(-60.1075)"/>
  <path class="cls-12" d="M822.7932,536.2294l.0002.0004c5.2693,10.0158-18.166,29.7767-14.6906,35.8505,4.2832,7.4857,48.1958-7.9927,47.1122-14.7492-.5081-3.1682-10.5925-2.0599-20.839-11.4252-3.5408-3.2363-6.1078-6.6181-6.2145-6.7599-4.9079-6.5231-6.3452-11.9658-7.0496-11.8258-.6396.1272.0701,4.7778,1.6814,8.9091Z"/>
  <path class="cls-12" d="M830.8724,526.5413c-.2104.2654,8.8006,10.4218,23.643,17.4029,15.5347,7.3067,29.7988,7.5328,29.8636,7.1988.0624-.3214-13.0495-1.05-28.914-8.4227-15.4748-7.1915-24.3872-16.4379-24.5926-16.1789Z"/>
  <ellipse class="cls-12" cx="827.4727" cy="520.2175" rx=".9615" ry="2.0513" transform="translate(-147.0523 445.1282) rotate(-27.7508)"/>
  <path class="cls-12" d="M821.4114,503.0528c-.3974,3.1676,1.334,6.0196,1.802,5.903.559-.1393-1.3121-4.356.8076-7.276,1.723-2.3734,4.9212-2.3063,4.843-2.9102-.0706-.5448-3.2668-1.3585-5.4994.2859-1.6203,1.1934-1.8513,3.185-1.9532,3.9973Z"/>
  <path class="cls-14" d="M860.2511,537.8706c-8.7769-4.8766-14.2806-12.5012-13.5301-13.421.8024-.9833,7.3901,7.3691,18.9675,8.9917,11.6888,1.6382,19.44-4.8483,24.3598-.2564,1.715,1.6007,2.9656,4.4351,2.1061,6.434-2.2542,5.2428-19.256,5.2788-31.9033-1.7483Z"/>
  <path class="cls-14" d="M836.6464,507.4367c1.2316-1.8002,5.4177-.6364,7.7582-.0612,4.033.9909,7.0984,2.6248,6.8467,3.6495-.1499.6104-4.471-1.8474-7.7583.0611-2.0733,1.2036-2.0991,3.1658-3.3832,3.2067-2.0516.0654-4.8343-4.8526-3.4634-6.8561Z"/>
  <path class="cls-7" d="M860.688,538.1671c-9.2045-4.9122-14.6692-12.8964-13.967-13.7174.7582-.8865,7.3705,8.1379,18.9765,9.6368,10.608,1.3701,17.8762-4.4981,22.4427-.2362,1.5801,1.4747,2.7322,4.0859,1.9403,5.9276-2.0634,4.7988-17.7032,4.6275-29.3925-1.6108Z"/>
  <path class="cls-1" d="M837.3299,508.1896c1.2923-1.8574,5.7263-.6281,8.2051-.019,4.2712,1.0494,7.5226,2.7593,7.2623,3.8192-.155.6314-4.7393-1.939-8.2052.0188-2.1859,1.2347-2.202,3.2669-3.5599,3.3019-2.1695.056-5.1408-5.0537-3.7023-7.1209Z"/>
  <ellipse class="cls-11" cx="855.7198" cy="510.3585" rx=".9675" ry="1.454" transform="translate(-139.2127 457.1469) rotate(-27.7508)"/>
  <path class="cls-5" d="M726.1661,755.5448c1.6733,3.1803,6.43,2.7074,6.5102,2.334.0695-.3235-3.3487-.6783-4.7164-3.2778-1.3677-2.5995.2759-5.6175-.0301-5.7434-.3532-.1454-3.4371,3.5069-1.7638,6.6872Z"/>
  <ellipse class="cls-5" cx="730.7532" cy="745.1448" rx="1.2034" ry=".8173" transform="translate(-262.909 425.9639) rotate(-27.7508)"/>
</svg>