<?xml version="1.0" encoding="UTF-8"?>
<svg id="Layer_1" data-name="Layer 1" xmlns="http://www.w3.org/2000/svg" viewBox="0 0 1621.4173 1264.252">
  <defs>
    <style>
      .cls-1 {
        fill: #8bb2b8;
      }

      .cls-2 {
        fill: #66412d;
      }

      .cls-3 {
        fill: #a7825e;
      }

      .cls-4 {
        fill: #368fad;
      }

      .cls-5 {
        fill: #b3947f;
      }

      .cls-6 {
        fill: #785441;
      }

      .cls-7 {
        fill: #95babd;
      }

      .cls-8 {
        fill: #826458;
      }

      .cls-9 {
        fill: #a9876d;
      }

      .cls-10 {
        fill: #b99a85;
      }

      .cls-11 {
        fill: #98b6b7;
      }

      .cls-12 {
        fill: #c6a894;
      }

      .cls-13 {
        fill: #8c7051;
      }

      .cls-14 {
        fill: #78abb3;
      }

      .cls-15 {
        fill: #9b7b5a;
      }

      .cls-16 {
        fill: #8e6c4a;
      }
    </style>
  </defs>
  <path class="cls-15" d="M847.6401,62.2762l-136.9961,318.996c13.256,26.7864,47.9979,87.7377,120.2042,131.2032,49.147,29.5844,98.2515,40.5944,137.9168,43.7179,37.2248,2.9309,66.1366-1.0841,78.9681-3.2104,60.0014-90.347,120.0035-180.6935,180.005-271.0406-29.6828,5.6706-117.0859,18.3465-210.9099-27.6232-119.3809-58.4919-160.976-168.7258-169.1881-192.0429Z"/>
  <path class="cls-16" d="M860.6018,742.6432c-11.7495,2.1516-92.8329,15.5997-160.5025-40.665-50.5092-41.9967-62.856-97.3148-65.9126-113.8751,33.3798-55.5521,66.76-111.1035,100.1398-166.6556,10.4153,14.9215,25.3286,33.6316,45.8383,52.6113,24.0937,22.2963,45.4606,35.2945,50.6834,38.4167,39.8413,23.8147,75.7925,32.1143,97.9562,37.0425,16.3899,3.6448,30.2465,5.583,39.9606,6.6754-36.0546,62.1498-72.1086,124.3001-108.1632,186.4499Z"/>
  <path class="cls-15" d="M860.5903,747.9275c-12.5091,1.96-90.9301,12.9093-157.801-42.073-52.9913-43.57-65.6016-101.3049-68.6026-117.7515,31.6212-52.8755,63.2421-105.7517,94.8633-158.6272,17.3871,23.0974,49.345,59.4707,100.0373,89.1957,54.7493,32.1038,66.1547,167.7801,31.5031,229.256Z"/>
  <path class="cls-16" d="M820.1746,747.799c-41.0043,60.9573-82.008,121.9151-123.0123,182.8724-12.505,1.7346-50.9278,5.4217-90.3112-17.2285-50.5098-29.0492-64.3393-79.4148-66.7759-88.9936,37.6914-61.2836,75.3832-122.5673,113.0747-183.8509,8.9412,16.5079,27.3989,45.2832,61.1175,69.3907,43.1182,30.828,86.6567,36.4817,105.9073,37.8099Z"/>
  <path class="cls-15" d="M693.2094,938.0091c-12.505,1.7346-50.9278,5.4217-90.3112-17.2285-50.5098-29.0492-64.3393-79.4148-66.7759-88.9936,37.7232-60.9798,75.4461-121.9603,113.1693-182.9401,7.2673,15.0851,26.7699,50.413,68.2034,76.8408,41.0971,26.213,16.3941,151.3591-24.2856,212.3215Z"/>
  <path class="cls-16" d="M676.3252,936.0931c-34.6206,53.872-69.2415,107.7434-103.862,161.6154-2.841,1.1778-44.4813,17.5939-81.5974-8.3349-31.7682-22.1923-35.2917-57.9903-35.6966-62.9663,31.6792-53.6716,63.3588-107.3435,95.038-161.0151,5.267,10.3374,20.068,35.9867,51.1973,53.8485,32.4749,18.6342,63.4627,17.7435,74.9208,16.8524Z"/>
  <path class="cls-15" d="M572.4632,1097.7085c-2.841,1.1778-44.4813,17.5939-81.5974-8.3349-31.7682-22.1923-35.2917-57.9903-35.6966-62.9663,31.6792-53.6716,63.3588-107.3435,95.038-161.0151,2.623,8.6029,12.5432,37.303,42.0491,56.8574,37.5532,24.8878,14.8275,121.5869-19.7931,175.4589Z"/>
  <path class="cls-2" d="M431.781,1227.1924c-35.9078-15.6418-58.423-43.4591-50.2889-62.1311,8.1341-18.672,43.837-21.1282,79.7448-5.4864,35.9078,15.6427,58.423,43.4599,50.2892,62.1318-8.1341,18.672-43.837,21.1282-79.7451,5.4858Z"/>
  <path class="cls-6" d="M439.4476,1221.0027c-1.1483-.4479-4.0512-1.6043-7.8992-3.4938-23.998-11.7854-54.18-37.0838-50.0563-52.4475,4.3984-16.3873,49.0854-26.1697,82.9328-11.0024,31.9183,14.3024,54.8001,51.0621,46.1157,65.7426-8.1061,13.7027-45.4951,11.1836-71.093,1.2012Z"/>
  <path class="cls-16" d="M544.91,1102.9562c-7.4632.7266-21.688,1.0872-37.7328-5.2659-20.5638-8.1426-32.0262-22.525-36.4118-28.7106-15.0922,26.7927-30.1848,53.5856-45.277,80.3784-6.3899,19.3064,3.3234,40.4379,21.8709,48.1005,18.9193,7.8165,41.1516-.8102,49.9147-19.6175,15.8787-24.9614,31.7574-49.9235,47.6361-74.8849Z"/>
  <path class="cls-15" d="M504.485,1103.0899c-20.5638-8.1426-32.0262-22.525-36.4118-28.7106-15.0922,26.7927-30.1848,53.5856-45.277,80.3784-6.3899,19.3064,3.3234,40.4379,21.8709,48.1005,18.9193,7.8165,41.1516-.8102,49.9147-19.6175,15.8787-24.9614,25.9481-73.7977,9.9033-80.1508Z"/>
  <path class="cls-3" d="M994.3462,247.885c-90.5052-51.0859-171.0453-154.2388-146.4148-197.093,25.0788-43.6347,159.1405-24.6618,251.7746,31.2824,82.7048,49.9477,161.2281,146.7832,137.6241,189.1257-24.0535,43.1485-152.9356,27.5127-242.9839-23.3151Z"/>
  <path class="cls-13" d="M1187.8607,240.6618c-19.3914-25.7311-64.2656-77.8069-141.8724-110.3941-65.1333-27.3499-123.7593-28.5587-155.7208-26.921-2.301-9.4121-3.8307-22.9306,3.387-33.4207,17.2882-25.1253,72.238-15.5837,93.7448-9.6851,24.6538,6.7617,57.6894,18.6055,93.5521,40.1489,30.8207,18.5146,54.6152,38.7172,71.819,55.5227,7.4559,6.457,26.3714,24.5543,33.167,53.6903,2.8914,12.3982,2.7493,23.198,1.9233,31.0589Z"/>
  <path class="cls-4" d="M1009.3478,216.6295c-81.5711-46.1252-134.2069-107.3279-117.5657-136.6987,16.6409-29.3715,96.2574-15.7894,177.8289,30.3366,88.0848,49.809,111.3439,90.3487,116.3274,106.0124,6.7244,21.1344,2.5569,28.6114,1.2382,30.6862-17.7491,27.9215-110.9526,7.4791-177.8289-30.3366Z"/>
  <path class="cls-16" d="M1215.7792,301.2436c-6.4635,10.4851-46.4174,70.4767-163.7679,244.5515-31.3199,5.8792-57.8019,5.779-76.5832,4.407-.0013-.0001-38.3048-2.7987-72.029-15.1873-2.7421-1.0071-11.0648-4.0645-10.888-4.6263.1328-.4219,4.9428.743,5.5911.8914,17.0774,3.9172,95.6433-20.7106,134.4547-51.834,1.8835-1.5111,20.8142-16.7821,36.4399-29.1522.4498-.3564.6867-.5396,1.0539-.8372,3.817-3.0856,9.0606-7.883,22.9579-21.7289,36.6075-36.4704,56.5028-56.5217,134.4888-145.4955-.001.0013-11.5548,18.7463-11.7182,19.0116Z"/>
  <path class="cls-9" d="M850.1039,175.2646l.0014.0026c30.3266,58.1916-105.9995,172.2405-85.9856,207.5359,24.6661,43.4996,279.6263-45.2574,273.4955-84.4571-2.8749-18.381-61.3704-12.1823-120.5704-66.7142-20.4574-18.8443-35.2647-38.51-35.8805-39.335-28.3101-37.9327-36.521-69.5226-40.6086-68.7265-3.7116.723.2989,27.7037,9.5482,51.6942Z"/>
  <path class="cls-9" d="M548.8162,868.5161c-31.0585,52.554-62.1174,105.1082-93.1759,157.6623.5056,7.7365,2.7177,25.3344,15.1252,42.8014,9.8782,13.9061,21.7471,21.4349,28.429,25.0205,4.0995,2.2812,10.0406,5.0846,17.5985,7.0353,5.3462,1.38,8.0367,2.0032,8.5785,1.4744,4.1776-4.0751-34.125-34.0531-40.0691-73.4023-1.3407-8.8762-1.4144-20.7412,13.7181-59.7603,22.3021-57.5047,50.0536-101.2677,49.7957-100.8312Z"/>
  <ellipse class="cls-10" cx="824.4721" cy="439.0971" rx="27.51" ry="17.805" transform="translate(-109.6003 430.7727) rotate(-27.5283)"/>
  <path class="cls-9" d="M649.3726,610.7711c7.2984,31.1072,55.1104,39.8019,57.5463,35.7111,1.9938-3.3485-26.8909-14.4623-34.9836-43.1856-6.434-22.8366,4.6959-41.1125,1.0298-42.6014-4.6355-1.8823-29.6131,24.415-23.5925,50.0759Z"/>
  <ellipse class="cls-10" cx="709.1452" cy="668.0343" rx="9.2633" ry="7.0427" transform="translate(-228.4688 403.3898) rotate(-27.5283)"/>
  <path class="cls-10" d="M629.4407,709.5756l-73.5152,117.6489c.3655,4.3949,3.8278,38.8042,35.0749,59.9321,31.3469,21.1954,64.6901,11.4661,68.8762,10.1656,2.0198-.4171,4.3013-1.1224,4.465-2.3271.793-5.8285-50.5751-4.2956-68.3411-27.3988-31.9209-41.51,49.6218-156.0613,40.2749-161.5829-1.467-.8668-4.4373,1.3883-6.8347,3.5622Z"/>
  <path class="cls-9" d="M433.1145,1178.1495c7.3502,14.1026,29.9782,11.2733,30.4262,9.5769.3883-1.4695-15.7455-2.57-21.7534-14.0971-6.0078-11.527,2.331-25.3826.904-25.906-1.6472-.6044-16.927,16.3236-9.5769,30.4262Z"/>
  <ellipse class="cls-9" cx="453.9389" cy="1132.0246" rx="5.3254" ry="3.6168" transform="translate(-471.8123 337.9686) rotate(-27.5283)"/>
  <path class="cls-8" d="M509.6668,1206.4964c-.625-.9571-11.503,9.1601-29.7579,12.5182-20.6776,3.8035-36.2761-3.7407-36.5695-2.6559-.322,1.1901,17.9573,12.1258,38.1741,7.9443,17.3341-3.5852,28.8236-16.7802,28.1533-17.8066Z"/>
  <ellipse class="cls-8" cx="421.5155" cy="1205.1226" rx="2.2641" ry="6.8081" transform="translate(-832.4296 965.086) rotate(-59.8849)"/>
  <path class="cls-12" d="M866.1483,208.41l.001.002c23.146,44.4133-80.9015,131.4583-65.6264,158.3967,18.8258,33.2,213.4179-34.5416,208.7387-64.4598-2.1942-14.0288-46.8395-9.2979-92.0224-50.918-15.6136-14.3825-26.9149-29.3918-27.3849-30.0215-21.607-28.9512-27.8738-53.0614-30.9935-52.4538-2.8328.5518.2281,21.1442,7.2874,39.4544Z"/>
  <path class="cls-12" d="M902.0675,165.6759c-.9358,1.1706,38.7661,46.2709,104.3282,77.4191,68.6201,32.6014,131.739,33.8469,132.0314,32.3701.2815-1.4213-57.7298-4.8708-127.8084-37.77-68.3568-32.0906-107.6381-73.1615-108.5513-72.0192Z"/>
  <ellipse class="cls-12" cx="887.1317" cy="137.6328" rx="4.2551" ry="9.0775" transform="translate(36.8264 425.6022) rotate(-27.5283)"/>
  <path class="cls-12" d="M860.6034,61.5698c-1.8129,14.0108,5.7999,26.6613,7.873,26.1534,2.476-.6067-5.7317-19.2993,3.6987-32.1845,7.6657-10.4735,21.8175-10.1215,21.4816-12.7951-.3029-2.412-14.4332-6.0679-24.3413,1.1707-7.191,5.2531-8.2471,14.0625-8.712,17.6555Z"/>
  <path class="cls-14" d="M1031.8821,216.3163c-38.7566-21.7314-62.9809-55.5671-59.6439-59.6242,3.5678-4.3378,32.5768,32.7376,83.7822,40.117,51.6984,7.4504,86.1109-21.1212,107.8037-.7161,7.5618,7.113,13.0475,19.6776,9.2094,28.5085-10.0655,23.1622-85.304,23.0293-141.1514-8.2852Z"/>
  <path class="cls-14" d="M927.9476,81.2318c5.4813-7.9451,23.9858-2.723,34.3335-.1377,17.8303,4.4541,31.3673,11.7375,30.2359,16.2679-.6738,2.6986-19.7537-8.252-34.3339.137-9.1957,5.2906-9.3437,13.9735-15.027,14.1326-9.08.254-21.3097-21.5575-15.2086-30.3998Z"/>
  <path class="cls-7" d="M1033.8106,217.636c-40.6483-21.8963-64.6939-57.3227-61.5721-60.9437,3.3703-3.9099,32.477,36.1393,83.8109,42.9719,46.92,6.2454,79.1846-19.598,99.3194-.6594,6.9669,6.553,12.0204,18.1285,8.4845,26.2645-9.2136,21.2004-78.4216,20.1737-130.0427-7.6333Z"/>
  <path class="cls-1" d="M930.9593,84.5754c5.7509-8.1975,25.3515-2.6809,36.3104.057,18.8833,4.7172,33.2424,12.3399,32.0722,17.0257-.6969,2.7913-20.9396-8.6621-36.3108-.0577-9.6946,5.4264-9.8006,14.4191-15.8104,14.5508-9.6015.2103-22.6626-22.4526-16.2614-31.5759Z"/>
  <ellipse class="cls-11" cx="1012.3028" cy="94.4896" rx="4.2815" ry="6.4343" transform="translate(70.9381 478.57) rotate(-27.5283)"/>
  <path class="cls-5" d="M434.7753,1177.2839c7.3502,14.1026,28.4082,12.0916,28.7695,10.4403.3132-1.4303-14.8072-3.0591-20.815-14.5862-6.0078-11.527,1.3174-24.8544-.0344-25.4169-1.5605-.6496-15.2703,15.4601-7.9201,29.5627Z"/>
  <ellipse class="cls-5" cx="455.2533" cy="1131.3396" rx="5.3254" ry="3.6168" transform="translate(-471.3469 338.4986) rotate(-27.5283)"/>
</svg>