<?xml version="1.0" encoding="UTF-8"?>
<svg id="Layer_1" data-name="Layer 1" xmlns="http://www.w3.org/2000/svg" viewBox="0 0 1621.4173 1264.252">
  <defs>
    <style>
      .cls-1 {
        fill: #191412;
      }

      .cls-2 {
        fill: #010101;
      }

      .cls-3 {
        fill: #0a0909;
      }

      .cls-4 {
        fill: #362a28;
      }

      .cls-5 {
        fill: #302218;
      }

      .cls-6 {
        fill: #191513;
      }

      .cls-7 {
        fill: #281e14;
      }

      .cls-8 {
        fill: #b5ada2;
      }

      .cls-9 {
        fill: #36281a;
      }

      .cls-10 {
        fill: #110f0e;
      }

      .cls-11 {
        fill: #161211;
      }

      .cls-12 {
        fill: #fff;
      }

      .cls-13 {
        fill: #221918;
      }

      .cls-14 {
        fill: #191516;
      }

      .cls-15 {
        fill: #1b1c1c;
      }

      .cls-16 {
        fill: #221c1a;
      }

      .cls-17 {
        fill: #a79885;
      }

      .cls-18 {
        fill: #070606;
      }

      .cls-19 {
        fill: #241911;
      }
    </style>
  </defs>
  <g>
    <path class="cls-6" d="M818.0064,835.2461c-3.8985,34.6954-13.4451,59.9972-21.8655,77.1547-10.2168,20.8186-21.274,34.7374-25.5079,60.0327-3.0078,17.9699-1.2002,33.4844.9201,44.0819,4.5183,3.7534,9.8508,8.9113,14.9431,15.7537,7.6698,10.3059,11.7442,20.3345,13.9763,27.476,16.714-6.6225,33.428-13.2447,50.142-19.8673-1.8611-4.9371-4.8523-12.5193-9.0065-21.5836-8.6729-18.9242-12.4916-22.6808-14.1717-30.1146-3.2739-14.487,5.1389-27.5834,15.9429-43.8926,20.0177-30.2169,36.6064-54.4919,49.6008-73.22,5.5114-32.6735,11.0227-65.3466,16.5337-98.0204l-95.6583,10.6287c1.3834,17.1902,2.7672,34.3805,4.1509,51.5707Z"/>
    <path class="cls-1" d="M1129.9529,539.4611c-14.8857,115.8548-54.1905,172.6439-88.5724,203.1266-.0005.0005-4.1014,3.636-85.0296,68.496-4.8126,19.8684-8.9166,43.2868-10.6288,69.6772-2.9496,45.461,2.1965,84.347,8.5342,113.5716,8.5712,18.8294,17.1427,37.6585,25.7139,56.4879-21.1121,1.4528-42.2243,2.9059-63.3364,4.3588-10.7741-12.869-21.5479-25.7379-32.322-38.6069-.1335-31.3984-2.5521-56.7917-4.7621-74.2923-4.3815-34.6972-9.3583-49.589-8.2286-75.6907,1.1294-26.0958,7.6586-47.1357,12.9907-60.8198-24.4066-2.9524-48.8135-5.9048-73.2201-8.8571-32.0654,12.0268-84.8496,27.2581-151.1639,25.9812-56.6232-1.0903-102.2537-13.815-132.2684-24.8003-10.7488,20.1265-27.2191,45.9867-51.9624,72.0389-20.4801,21.5632-40.9338,37.2631-57.8674,48.4198-6.449,13.319-13.8005,33.1586-15.3526,57.8674-2.7602,43.9401,14.6069,74.8312,15.3526,75.582.0046.0046.0184.0179.0227.0398.2675,1.3387-41.3566,10.5887-41.3566,10.5887l-20.0767-139.3542c5.3656-15.783,12.4301-38.4221,18.8955-66.1341,5.3873-23.0911,12.1327-52.0027,12.9907-74.401,2.1763-56.822-33.761-65.9084-56.6865-138.608-25.9861-82.4053-6.8585-156.4976,15.3526-173.1675.1532-.1149.7447-.5468,25.9812-18.8955,11.8879-5.0026,30.1628-11.7768,53.1436-16.5336,62.6535-12.9688,113.5871-1.2767,131.0875,2.3619,48.1724,10.0156,127.2993,18.1136,263.3559,9.4476,9.1525-6.8156,22.1494-14.729,38.9719-20.0764,39.8688-12.6732,74.7663-2.5232,88.5724,2.3622,11.9448-4.0412,28.6221-10.6541,47.0747-21.4649,22.5045-13.1847,68.301-40.0153,65.1175-65.1395-3.2375-25.5541-54.6235-29.4345-54.3248-51.9627.1644-12.3932,15.8857-24.0654,29.5243-27.1622,17.9042-4.0652,25.356,8.206,51.9624,14.1716,31.3608,7.0317,40.0344-5.7511,65.6912-.2167,23.9453,5.1651,31.0938,19.471,57.1294,41.5507,63.0842,53.4985,106.325,41.7719,118.0968,76.7629,7.9981,23.7732-2.9348,56.0186-22.4381,73.2201-36.4809,32.175-88.5086-1.0191-141.0694,33.4606-18.0283,11.8264-28.9295,26.8982-34.895,36.61Z"/>
    <path class="cls-1" d="M355.2382,680.7837c-.5905,5.3143-4.1336,124.592-4.1336,124.592l-16.5333,4.1333,4.1333-155.2973,16.5336,26.5719Z"/>
    <path class="cls-18" d="M331.6186,861.4717c-15.8635,26.0445-20.0382,48.3376-21.2574,62.0008,0,.0008-3.6031,29.6366,10.4586,75.1064.9499,3.0716,2.4178,7.4551,4.2051,7.4138,2.8209-.0654-1.3665-17.8001,7.2335-35.2813,4.7343-9.6235,7.8194-8.0407,11.9573-17.7145,4.8201-11.2686,1.9509-16.4953,5.3876-30.2562,2.8398-11.3702,4.9405-8.3703,9.996-23.1246,5.7919-16.904,7.3877-33.5471,8.6394-46.6009.2755-2.8717.4618-5.2579.5805-6.896.1708-2.3555.2047-10.2181-2.3619-18.305-3.6659-11.5504-11.4442-19.1018-15.3526-22.4383-1.0607-.76-5.6324-3.8719-10.2349-2.3619-2.9932.9818-5.0401,3.3718-6.2987,6.4952-2.5891,6.4258-5.7764,16.6674-5.9048,29.5243-.0914,9.1556,1.3962,16.8341,2.9524,22.4383Z"/>
    <path class="cls-6" d="M479.4444,861.4225c25.3693,66.2431,44.6528,113.9969,59.0484,144.0782,2.9046,6.0697,9.5816,19.7185,3.9368,29.9177-.0005.0008-45.6643,18.1082-45.6643,18.1082h0l-20.4701-25.1939-11.0222-3.9365c-2.4382-12.6854-5.0582-25.548-7.8733-38.5783-6.0942-28.2096-12.7043-55.3702-19.6828-81.4523,13.9092-14.3144,27.8182-28.6288,41.7275-42.9432Z"/>
    <path class="cls-2" d="M978.6498,1047.9198c8.0862,10.0373,16.1726,20.0747,24.2588,30.112h-75.2866c-3.6628-7.6175-7.3254-15.2352-10.9883-22.8527,20.672-2.4199,41.3441-4.8395,62.0161-7.2593Z"/>
    <path class="cls-2" d="M542.4296,1035.4184c8.4964,12.6292,16.9926,25.2587,25.489,37.888h-65.7586c-1.7982-6.5933-3.5965-13.1865-5.3947-19.7798,15.2214-6.036,30.4428-12.0722,45.6643-18.1082Z"/>
    <path class="cls-2" d="M417.8294,1052.0013c6.6293,11.4325,13.2583,22.8647,19.8875,34.2971-19.9353-.388-39.8705-.7761-59.8058-1.1641-.4718-7.5016-.9438-15.0029-1.4156-22.5045,13.778-3.5429,27.5558-7.0857,41.3338-10.6286Z"/>
    <path class="cls-2" d="M849.722,1037.5592c8.0882,11.4325,16.1759,22.8647,24.2642,34.2971-24.3224-.388-48.645-.7761-72.9676-1.1641-1.2836-6.628-2.5674-13.2562-3.851-19.8842,17.5182-4.4162,35.0362-8.8326,52.5544-13.2488Z"/>
    <path class="cls-15" d="M331.6186,861.4717c-4.7544,7.5307-9.9733,17.3753-14.0964,29.4582-6.5866,19.3029-7.6897,36.4438-7.4566,48.1972,4.7108-3.9281,10.9911-10.4083,13.9585-19.8865,2.5863-8.2605,1.1723-14.0594,1.181-23.3239.0077-8.0448,1.089-19.8278,6.4135-34.445Z"/>
    <path class="cls-15" d="M332.8737,843.2502c.2782,6.7829.4746,8.6054.0233,8.704-.8037.1756-3.3626-5.1784-3.721-11.1518-.3993-6.6519,2.0094-12.7447,2.9076-12.6246.58.0778.2835,2.7155.7901,15.0724Z"/>
    <path class="cls-15" d="M337.2229,813.0963c-.7684-.9647,2.4306-7.3199,7.3337-7.3337,4.886-.0137,8.138,6.2787,7.3337,7.3337-.6262.8215-3.4952-1.8188-8.4784-1.4666-3.8248.2702-5.7019,2.0779-6.1889,1.4666Z"/>
    <circle class="cls-2" cx="1162.0146" cy="356.337" r="15.2986"/>
    <path class="cls-12" d="M1152.0025,354.7455c.7159.2229,1.2718-3.1873,4.6915-5.4866,3.882-2.6101,7.9199-1.4113,8.0606-2.286.178-1.1079-5.9697-5.1167-10.2624-2.4898-4.3036,2.6336-3.4949,9.9494-2.4898,10.2624Z"/>
    <path class="cls-19" d="M1270.8013,357.3459c-1.9394,19.0667-5.1996,40.5156-10.5619,63.7089-5.5879,24.1676-12.4004,45.6535-19.3375,64.2023,5.2334,1.4929,28.334,7.4568,52.7156-5.0093,3.6456-1.8639,27.3521-14.4733,35.7086-42.4241,7.6989-25.7514-2.5747-48.0831-5.9283-52.531-1.0196-1.3522-1.8815-2.2863-1.8819-2.287-.6673-.7233-2.9848-3.1536-11.6368-8.5615,0-.0004-.0083-.005-.0083-.0054-6.1427-3.9387-11.184-5.7268-15.8323-7.4766-5.5387-2.0844-13.4128-5.2032-23.2371-9.6163Z"/>
    <path class="cls-9" d="M1032.1915,285.0992c5.1872-8.7872,20.9062-8.2034,30.5987-3.2622,10.2978,5.25,18.8924,18.0187,15.4617,25.7847-4.2882,9.7075-27.9783,12.9852-39.8379,1.5709-6.0056-5.7805-10.5198-16.8131-6.2225-24.0934Z"/>
    <path class="cls-7" d="M1040.2511,289.3316c4.2925-7.2716,17.3003-6.7885,25.3209-2.6996,8.5216,4.3445,15.6338,14.9108,12.7948,21.3373-3.5486,8.0332-23.1526,10.7454-32.9666,1.3-4.9697-4.7834-8.7053-13.9132-5.1492-19.9377Z"/>
    <ellipse class="cls-12" cx="1152.5695" cy="360.9991" rx=".9226" ry="2.1036"/>
    <path class="cls-3" d="M872.6801,896.1738c-1.0684-7.3262-2.0132-17.5098-1.3591-29.5846,1.6573-30.5965,12.8817-60.4129,12.9907-60.8198h0c-11.3681-4.6426-27.9594-9.7371-48.3524-10.4077-9.6054-.3158-18.2192.4102-25.5692,1.5422,4.4652.9359,4.6077.9657,4.6077.9657h0s1.7428,24.425.0978,50.2418c-.4322,6.7822-1.0074,12.2343-1.3778,15.4512,11.9349,7.8567,19.7933,15.7381,24.8003,21.5525,5.4805,6.3643,8.9478,11.8815,15.9431,13.8766,6.871,1.9596,13.6259-.4825,18.219-2.8178Z"/>
    <polygon class="cls-3" points="479.3253 864.5182 437.7169 904.3656 448.6719 947.5397 479.3253 864.5182"/>
    <path class="cls-14" d="M558.677,1073.3064c-1.9154-4.8614-3.9202-9.7884-6.0194-14.7759-3.3583-7.9792-6.7771-15.6837-10.228-23.112,8.4964,12.6292,16.9926,25.2587,25.489,37.888h-9.2416Z"/>
    <path class="cls-16" d="M539.4106,1036.5907c-14.2151,5.6454-28.4302,11.2905-42.6452,16.9359h0l.8991,3.297c13.9154-6.7444,27.8308-13.4885,41.7461-20.2329Z"/>
    <polygon class="cls-16" points="417.8522 1052.0411 376.8182 1067.7602 376.4956 1062.6298 417.8522 1052.0411"/>
    <path class="cls-16" d="M849.722,1037.5592c.1846.6341-17.0858,6.3515-51.7993,17.1486-.2517-1.2999-.5034-2.5998-.7551-3.8997,34.8567-9.4657,52.3704-13.8807,52.5544-13.2488Z"/>
    <polygon class="cls-16" points="978.6498 1047.9198 918.8761 1059.8425 916.6337 1055.1791 978.6498 1047.9198"/>
    <path class="cls-17" d="M1140.6391,302.3327c-2.6984,1.8013-6.8703,2.7288-10.0863,1.2011-8.9687-4.2597-10.2334-27.481-2.101-44.1327,9.538-19.5292,31.9552-29.9266,35.8513-26.1997,3.8589,3.6909-14.8122,17.0609-17.3518,44.8995-.8746,9.5867.2594,19.8452-6.3122,24.2317Z"/>
    <path class="cls-8" d="M1127.5318,292.7419c-1.1369.5961,1.1852,9.1752,6.2271,9.8848,5.1181.7203,8.4449-7.3162,7.6797-7.9207-.4816-.3803-2.3656,2.3514-5.8258,2.2461-4.3747-.1331-7.1895-4.6773-8.081-4.2102Z"/>
    <ellipse class="cls-8" cx="1127.0086" cy="287.6197" rx="1.0333" ry="1.5254"/>
    <path class="cls-13" d="M1186.2046,299.4697c3.96-1.8227,8.0869,7.7071,30.597,25.3136,8.9044,6.9647,19.4839,15.2395,34.9466,23.4102,10.3304,5.4588,13.7819,6.0845,13.5812,7.4794-.9114,6.3342-41.7811,16.0748-54.8727.4784-4.6048-5.4856-6.5869-15.1573-10.5724-14.8467-2.5084.1955-3.0272,4.1277-4.8249,4.2086-5.9635.2681-16.8473-42.3647-8.8548-46.0436Z"/>
    <path class="cls-4" d="M1212.0303,321.0523c-.9537.834,3.6598,10.0496,12.3354,15.9388,7.3446,4.9855,15.8905,6.4271,16.3602,5.3623.3594-.8146-4.1254-2.8311-12.8863-9.151-11.0809-7.9938-15.0547-12.81-15.8093-12.1501Z"/>
    <path class="cls-4" d="M1190.0425,335.2028c-.8741.5333,2.6366,9.5893,4.7994,9.2817.7036-.1001,1.3571-1.2042,1.3295-2.1311-.0291-.9783-.8144-1.6637-1.3295-2.1314-3.548-3.2204-4.3812-5.2742-4.7994-5.0192Z"/>
    <path class="cls-4" d="M1246.7054,362.5617c.0296-.0759,1.2943-.3075,4.163-1.0999,1.741-.481,3.2898-.9522,3.9653-1.1705,5.0035-1.6164,8.6704-4.396,8.7831-4.3457.117.052-3.4307,3.2082-8.996,5.1342-4.2825,1.482-7.9675,1.6154-7.9155,1.4819Z"/>
    <path class="cls-5" d="M1309.8706,374.4389c-7.9792-4.4507-14.7856-7.5511-19.7019-9.6159-1.2938-.5432-2.2889-.9481-19.3675-7.4773-3.4989,25.4209-4.5191,33.141-4.4665,33.1484.0904.0128,1.8268-23.1572,9.8515-24.8437,1.4623-.3074,3.2059.123,6.6921.9841,4.6891,1.158,7.9593,2.8153,9.0545,3.346,3.5791,1.7349,9.176,3.6776,17.9379,4.4583Z"/>
    <path class="cls-10" d="M334.5712,809.5091c1.2976-48.7591,2.5955-97.5184,3.8931-146.2775,1.8802,6.2093,3.9985,10.9829,5.5691,14.1699.0003.0008,2.3131,4.6937,10.0384,17.1241-2.9411-2.2823-7.2542-4.9633-10.481-3.5431-5.7638,2.5368-4.6036,16.6357-4.2811,21.4052,1.1087,16.4052.5649,44.6783-4.7384,97.1215Z"/>
  </g>
  <circle class="cls-2" cx="1290.3783" cy="411.3185" r="13.5113"/>
  <circle class="cls-11" cx="1292.6778" cy="411.8776" r="11.9984"/>
</svg>