<?xml version="1.0" encoding="UTF-8"?>
<svg id="Layer_1" data-name="Layer 1" xmlns="http://www.w3.org/2000/svg" viewBox="0 0 1621.4173 1264.252">
  <defs>
    <style>
      .cls-1 {
        fill: #c0e3dd;
      }

      .cls-2 {
        fill: #154b25;
      }

      .cls-3 {
        fill: #8dcdca;
      }

      .cls-4 {
        fill: #a45f31;
      }

      .cls-5 {
        fill: #d1ebe4;
      }

      .cls-6 {
        fill: #5c9d6d;
      }

      .cls-7 {
        fill: #593626;
      }

      .cls-8 {
        fill: #1b3b21;
      }

      .cls-9 {
        fill: #d3edec;
      }

      .cls-10 {
        fill: #42a270;
      }

      .cls-11 {
        fill: #7bb9b7;
      }

      .cls-12 {
        fill: #fff;
      }

      .cls-13 {
        fill: #5f9a9a;
      }

      .cls-14 {
        fill: #bbe3e3;
      }

      .cls-15 {
        fill: #69b0af;
      }

      .cls-16 {
        fill: #d6e9e6;
      }

      .cls-17 {
        fill: #0f733f;
      }

      .cls-18 {
        fill: #d4ece9;
      }

      .cls-19 {
        fill: #046938;
      }
    </style>
  </defs>
  <g>
    <rect class="cls-10" x="308.2225" y="244.7742" width="18.5273" height="505.5293"/>
    <rect class="cls-10" x="387.7501" y="414.7985" width="16.3577" height="407.4929"/>
    <rect class="cls-7" x="369.1108" y="394.8914" width="51.6823" height="130.6709" rx="18.76" ry="18.76"/>
    <rect class="cls-7" x="282.5859" y="192.7861" width="62.8994" height="159.0316" rx="22.8316" ry="22.8316"/>
    <circle class="cls-4" cx="322.5975" cy="211.5266" r="9.7788"/>
    <circle class="cls-4" cx="331.2689" cy="224.597" r="4.8894"/>
    <circle class="cls-4" cx="408.2059" cy="411.3604" r="8.0349"/>
    <circle class="cls-4" cx="401.0808" cy="422.0999" r="4.0175"/>
    <path class="cls-19" d="M272.0802,826.4726h138.7128c-.0349-25.3237,3.349-73.3997,30.0825-125.3431,34.6819-67.388,88.0256-101.1882,110.3018-113.6446-17.5767,2.7317-62.9047,12.1837-103.617,50.1371-47.6689,44.4386-57.7443,98.8038-60.1647,115.3158-3.1991-45.191-15.0192-128.1174-65.1784-217.2615-51.877-92.1974-119.5393-146.215-157.0968-172.1378,32.6548,28.9102,106.6705,102.9178,127.0146,218.9325,6.4223,36.6252,6.1319,69.6599,3.3424,96.9324-8.1084-21.0018-32.4921-75.7718-91.9184-115.3161-77.4857-51.5612-158.4948-39.9365-177.1517-36.7671,29.8147,8.7403,102.7118,34.4531,163.7817,105.2882,67.4852,78.2755,79.1669,163.6761,81.8911,193.8642Z"/>
    <path class="cls-6" d="M394.7439,826.5253c-.0017-.0132-9.9724-80.7102-12.1133-96.3067-18.2223-132.7486-116.7192-266.3473-115.7955-266.8754.2532-.1448,8.0863,10.1312,19.189,31.7866,14.4991,28.2803,82.3932,160.7061,33.3051,258.487-.0009.0017-5.3976,10.7522-47.249,73.1491,79.7101-.1565,122.6635-.2406,122.6638-.2406h0Z"/>
    <path class="cls-8" d="M26.4073,527.3203c.5784-3.9947,113.9738-16.58,198.0371,51.726,50.5551,41.0787,74.1384,98.1178,71.0331,100.3572-3.0023,2.1653-29.4243-48.0033-84.886-89.0163-88.0685-65.1252-184.7203-59.3652-184.1842-63.0669Z"/>
    <path class="cls-8" d="M409.3186,722.063c-1.3136-.615,7.7133-35.0103,30.4375-65.5071,42.4015-56.9044,110.5848-70.8363,111.4212-69.0709.8242,1.7393-64.0221,18.0853-109.4359,78.3344-21.3577,28.3343-31.2068,56.8128-32.4228,56.2436Z"/>
    <path class="cls-8" d="M326.7423,351.4308c-.3633-.0224-2.8871,37.9082-4.5663,59.9563-2.5809,33.8873-5.7575,75.5936-8.1402,106.8761,4.2642,8.7487,8.5281,17.4983,12.7923,26.247-.2124-84.7992-.1403-119.3573-.0142-134.2748.1601-18.9513-.5382-37.9106-.0505-56.8571.0112-.4344.0513-1.9427-.021-1.9475Z"/>
    <path class="cls-8" d="M403.8604,525.4963c-1.6154-.0369-4.7222,65.126-9.3196,195.4639,3.3084-7.6461,6.6171-15.2924,9.9255-22.9385,1.1128-114.9914.9106-172.4908-.6059-172.5254Z"/>
    <path class="cls-2" d="M164.7185,363.556c2.0505-2.1198,87.0389,53.2127,149.3171,154.707,71.4287,116.4068,76.4009,233.9191,73.36,234.6749-2.9439.7318-12.2804-108.2584-85.5339-228.6462-63.3072-104.0418-139.1196-158.6925-137.1432-160.7356Z"/>
  </g>
  <g>
    <g>
      <rect class="cls-10" x="1325.5648" y="305.3711" width="18.5273" height="505.5293" transform="translate(2669.6568 1116.2715) rotate(180)"/>
      <rect class="cls-10" x="1248.2067" y="475.3954" width="16.3577" height="407.4929" transform="translate(2512.7712 1358.2837) rotate(180)"/>
      <rect class="cls-7" x="1231.5214" y="455.4883" width="51.6823" height="130.6709" rx="18.76" ry="18.76" transform="translate(2514.7252 1041.6475) rotate(180)"/>
      <rect class="cls-7" x="1306.8293" y="253.383" width="62.8994" height="159.0316" rx="22.8316" ry="22.8316" transform="translate(2676.558 665.7975) rotate(180)"/>
      <circle class="cls-4" cx="1329.717" cy="272.1235" r="9.7788"/>
      <circle class="cls-4" cx="1321.0456" cy="285.1939" r="4.8894"/>
      <circle class="cls-4" cx="1244.1087" cy="471.9572" r="8.0349"/>
      <circle class="cls-4" cx="1251.2337" cy="482.6967" r="4.0175"/>
      <path class="cls-19" d="M1380.2344,887.0695h-138.7128c.0349-25.3237-3.349-73.3997-30.0825-125.3431-34.6819-67.388-88.0256-101.1882-110.3018-113.6446,17.5767,2.7317,62.9047,12.1837,103.617,50.1371,47.6689,44.4386,57.7443,98.8038,60.1647,115.3158,3.1991-45.191,15.0192-128.1174,65.1784-217.2615,51.877-92.1974,119.5393-146.215,157.0968-172.1378-32.6548,28.9102-106.6705,102.9178-127.0146,218.9325-6.4223,36.6252-6.1319,69.6599-3.3424,96.9324,8.1084-21.0018,32.4921-75.7718,91.9184-115.3161,77.4857-51.5612,158.4948-39.9365,177.1517-36.7671-29.8147,8.7403-102.7118,34.4531-163.7817,105.2882-67.4852,78.2755-79.1669,163.6761-81.8911,193.8642Z"/>
      <path class="cls-6" d="M1257.5707,887.1221c.0017-.0132,9.9724-80.7102,12.1133-96.3067,18.2223-132.7486,116.7192-266.3473,115.7955-266.8754-.2532-.1448-8.0863,10.1312-19.189,31.7866-14.4991,28.2803-82.3932,160.7061-33.3051,258.487.0009.0017,5.3976,10.7522,47.249,73.1491-79.7101-.1565-122.6635-.2406-122.6638-.2406h0Z"/>
      <path class="cls-8" d="M1625.9072,587.9171c-.5784-3.9947-113.9738-16.58-198.0371,51.726-50.5551,41.0787-74.1384,98.1178-71.0331,100.3572,3.0023,2.1653,29.4243-48.0033,84.886-89.0163,88.0685-65.1252,184.7203-59.3652,184.1842-63.0669Z"/>
      <path class="cls-8" d="M1242.996,782.6598c1.3136-.615-7.7133-35.0103-30.4375-65.5071-42.4015-56.9044-110.5848-70.8363-111.4212-69.0709-.8242,1.7393,64.0221,18.0853,109.4359,78.3344,21.3577,28.3343,31.2068,56.8128,32.4228,56.2436Z"/>
      <path class="cls-8" d="M1325.5898,411.8688c1.0101-.0619,6.3971,74.6089,12.6892,166.9911-4.2642,8.7492-8.5283,17.498-12.7925,26.2472-.1342-23.8209-1.0238-185.8695.0209-192.996.0172-.1177.0418-.2399.0824-.2423Z"/>
      <path class="cls-8" d="M1248.4542,586.0931c1.6154-.0369,4.7222,65.126,9.3196,195.4639-3.3084-7.6461-6.6171-15.2924-9.9255-22.9385-1.1128-114.9914-.9106-172.4908.6059-172.5254Z"/>
      <path class="cls-2" d="M1487.596,424.1529c-2.0505-2.1198-87.0389,53.2127-149.3171,154.707-71.4287,116.4068-76.4009,233.9191-73.36,234.6749,2.9439.7318,12.2804-108.2584,85.5339-228.6462,63.3072-104.0418,139.1196-158.6925,137.1432-160.7356Z"/>
      <rect class="cls-10" x="978.2835" y="412.0749" width="16.3577" height="407.4929" transform="translate(1972.9248 1231.6428) rotate(180)"/>
      <rect class="cls-7" x="961.5982" y="392.1679" width="51.6823" height="130.6709" rx="18.76" ry="18.76" transform="translate(1974.8787 915.0066) rotate(180)"/>
      <circle class="cls-4" cx="974.1855" cy="408.6368" r="8.0349"/>
      <circle class="cls-4" cx="981.3105" cy="419.3763" r="4.0175"/>
      <path class="cls-8" d="M978.531,522.7726c1.1543-.0247,2.6973,31.5635,3.5415,48.8414,2.2022,45.08,3.4202,104.5706.2369,175.5241-1.4338-3.7495-2.8673-7.499-4.3011-11.2485-1.0256-104.8303-1.6131-213.0713.5226-213.1169Z"/>
      <path class="cls-8" d="M978.7402,819.8473h0c.0006,0-26.4757-79.9192-77.4877-112.7412-52.6208-33.8572-117.1569-8.4679-117.7803-13.2339-.7137-5.4562,82.6532-48.0152,145.5711-7.9401,61.6972,39.2977,62.475,131.7765,56.6718,134.2473-1.0951.4663-6.9755-.3353-6.9749-.3321Z"/>
      <path class="cls-19" d="M986.3379,820.8851c-6.662,2.0434-14.7211-79.7179-77.5403-115.8421-54.8887-31.5635-117.1535-8.4865-117.7803-13.2339-.7352-5.5675,83.387-48.7827,145.5711-7.9401,61.9126,40.6645,56.7353,134.8735,49.7495,137.0162Z"/>
      <rect class="cls-10" x="597.5468" y="386.5141" width="16.94" height="430.0392"/>
      <rect class="cls-7" x="578.9075" y="366.6071" width="51.6823" height="130.6709" rx="18.76" ry="18.76"/>
      <circle class="cls-4" cx="618.0026" cy="383.076" r="8.0349"/>
      <circle class="cls-4" cx="610.8776" cy="393.8155" r="4.0175"/>
      <path class="cls-8" d="M614.4851,497.0799h0s-4.1083,46.0182-4.3696,48.9731c-2.172,24.5831-3.498,72.7885-.2368,175.5243,1.4338-3.7492,2.8672-7.4993,4.301-11.2485.2004-140.0638.3054-213.249.3054-213.249Z"/>
      <path class="cls-8" d="M613.4479,819.6629h0c-.0006,0,26.4757-93.1437,77.4877-131.3968,52.6208-39.4596,117.1569-9.8692,117.7803-15.4237.7137-6.3591-82.6532-55.9604-145.5711-9.254-61.6972,45.8004-62.475,153.582-56.6718,156.4616,1.0951.5435,6.9755-.3908,6.9749-.3871Z"/>
      <path class="cls-19" d="M605.8502,820.8725c6.662,2.3815,14.7211-92.909,77.5403-135.0109,54.8887-36.7864,117.1535-9.8908,117.7803-15.4237.7352-6.4888-83.387-56.855-145.5711-9.254-61.9126,47.3934-56.7353,157.1914-49.7495,159.6886Z"/>
      <path class="cls-8" d="M596.5172,819.3628h0s-16.9403-83.3738-49.58-117.6144c-33.669-35.3207-74.9621-8.834-75.3609-13.8059-.4567-5.692,52.8851-50.0907,93.1427-8.2834,39.4765,40.9963,39.9742,137.4726,36.2611,140.0501-.7007.4864-4.4632-.3498-4.4629-.3465Z"/>
      <path class="cls-19" d="M601.3785,820.4455c-3.7916-1.2006-3.8308-13.8717-3.8957-16.4669-.4958-19.825-18.1932-79.9305-45.7179-104.3825-31.3063-27.8114-74.9065-9.1267-75.361-13.806-.5086-5.2381,53.4655-35.3878,93.1428-8.2831,50.1597,34.2652,42.1092,135.8768,34.8839,141.8954-1.7482,1.456-3.0504,1.0439-3.0521,1.0432Z"/>
    </g>
    <path class="cls-17" d="M978.3042,737.8417c4.1183-33.098,8.3083-72.7887,37.5529-85.8562,34.4702-15.4024,74.6098,7.6232,73.7424,13.0166-.93,5.7835-48.2265-11.359-74.3335,13.4149-22.4959,21.3474-20.7395,67.1125-20.0538,86.4762.7521,21.2327,5.3489,48.2256-1.8197,50.6191-1.2759.426-2.5077-.0667-3.143-.3307-11.6445-4.8417-16.2442-42.7911-11.9454-77.34Z"/>
    <path class="cls-8" d="M977.5316,740.2671c-1.3608-.3828-1.7616-44.769,28.0843-66.1419,22.623-16.2005,52.0735-11.6236,52.2864-10.1037.2031,1.4501-26.3318-.7622-48.5368,16.0588-28.7491,21.7785-30.5519,60.5472-31.8338,60.1867Z"/>
    <path class="cls-8" d="M994.698,523.7961c-5.4059.4597-8.4654.2231-10.3114-.1357-.5741-.1117-2.1312-.4491-3.9028.1246-1.1185.3622-1.9353.9623-2.4493,1.4116.0898-.8142.1794-1.6283.2692-2.4425h16.3944v1.042Z"/>
  </g>
  <g>
    <path class="cls-13" d="M1398.2882,903.2605c-1.9624,31.3887-333.108,6.757-468.4749,126.6029-10.1463,8.9829-36.8855,34.4416-77.6378,40.5835-58.3662,8.7966-88.8429-41.6383-155.276-63.9631-69.1093-23.2243-128.0047-2.2342-172.0388,7.499C317.9563,1059.7174-5.5336,955.2207-4.4896,903.2605c1.1421-56.8406,391.6807-103.2233,701.389-103.2233,402.7361,0,703.2685,73.1574,701.3887,103.2233Z"/>
    <path class="cls-15" d="M1308.2911,893.4331c-1.6909,27.0449-287.0103,5.8219-403.6443,109.0828-8.7422,7.7398-31.7811,29.6754-66.8938,34.9673-50.2891,7.5793-76.5482-35.8761-133.7879-55.1115-59.5455-20.0103-110.2906-1.925-148.2309,6.4613-178.2716,39.4055-456.9948-50.6302-456.0953-95.3999.9841-48.9746,337.4774-88.9386,604.3263-88.9386,347.0029,0,605.9456,63.0334,604.326,88.9386Z"/>
    <path class="cls-11" d="M1168.0376,882.054c-1.2922,20.6679-219.335,4.4491-308.4674,83.3617-6.6808,5.9148-24.2873,22.6781-51.1207,26.7222-38.4312,5.7921-58.4986-27.4167-102.2415-42.1165-45.505-15.292-84.2847-1.4711-113.279,4.9377-136.2362,30.1139-349.2382-38.6919-348.5508-72.9052.752-37.4267,257.9022-67.9674,461.8298-67.9674,265.1817,0,463.0673,48.1705,461.8296,67.9674Z"/>
    <path class="cls-18" d="M146.1991,898.9051c.8044-8.2384,20.268-13.67,59.0465-25.3164,5.6905-1.7091,7.8246-2.0834,15.4266-4.3601,21.997-6.5876,33.1492-11.5489,45.4433-15.7719,15.0518-5.1701,25.9053-7.2037,46.3181-11.0281,48.5614-9.0983,90.3505-9.3455,90.4306-8.3813.0492.5942-15.7424,1.6229-51.9977,7.1131-.0017.0003-20.6828,3.132-48.6759,8.7673-10.7883,2.1717-22.4341,4.6767-36.8469,10.0907-6.2151,2.3346-5.2694,2.327-12.0206,4.9075-21.8986,8.3701-28.2711,7.0824-39.7013,12.9087-7.9218,4.038-20.9534,10.6808-21.4489,19.0193-1.0035,16.883,50.5903,34.9227,99.277,47.3374,61.7395,15.743,72.113,3.0658,103.433,23.3802,9.4655,6.1395,23.0538,16.7255,42.7319,17.3388,10.3105.3214,13.4155-2.3718,37.6788-6.6829,19.8887-3.5338,38.9192-5.4762,39.0165-4.5946.0692.6216-9.2801,2.5791-32.1554,7.7934-40.9589,9.3366-39.1664,9.4856-43.7578,10.1669-29.1339,4.3237-42.8807-10.3398-77.4482-21.4925-35.0984-11.3239-40.9446-2.6656-83.1204-9.0667-66.0477-10.0239-133.432-43.6601-131.6292-62.1289Z"/>
    <path class="cls-16" d="M759.2466,1019.2184c-.9034,1.832,40.9463,43.0994,91.3128,39.0396,39.9931-3.2236,53.0665-30.2543,135.4236-74.8201,20.3144-10.9928,38.0295-19.3246,55.601-26.2592,6.7713-2.6723,19.3383-7.4328,34.4079-12.572,17.0017-5.7983,26.5146-8.4385,26.4677-8.602-.1139-.3975-58.6345,7.0748-119.1234,35.3363-77.5723,36.2432-88.0287,73.2774-139.3937,75.6683-47.8428,2.2269-83.8727-29.4604-84.696-27.7909Z"/>
    <path class="cls-1" d="M1213.3467,886.4106c-.559,7.7503-29.1328,13.6824-56.4083,19.3452-19.0494,3.9549-30.4029,4.7563-45.6802,6.6168-57.1367,6.9578-95.9208,19.8077-96.1417,18.9133-.1945-.7873,30.114-9.6809,63.8296-16.6922,9.6371-2.0041,18.6008-3.8681,31.1227-5.8052,25.0162-3.8699,31.5912-2.9817,46.8696-6.6401,14.1255-3.3823,36.4332-8.724,36.9888-15.7378,1.499-18.9317-155.9377-44.2441-155.7614-45.1694.1865-.9786,176.5884,25.6612,175.181,45.1694Z"/>
    <path class="cls-12" d="M783.3058,869.2197c-.1275,2.0394-21.6429.439-30.4381,8.2257-.6592.5836-2.3966,2.2378-5.0443,2.6368-3.7922.5715-5.7724-2.7053-10.0887-4.1559-4.4902-1.5089-8.3168-.1452-11.1778.4872-13.4431,2.9715-34.4611-3.8179-34.3933-7.1939.0742-3.6931,25.4485-6.7067,45.5711-6.7067,26.1668,0,45.6932,4.7532,45.5711,6.7067Z"/>
    <path class="cls-5" d="M562.1803,878.5498c.7123,14.8087,77.851,19.4175,77.8859,19.0556.0326-.337-66.8585-4.6956-67.6314-19.0556-.7198-13.3746,56.3431-27.4658,56.1617-28.3037-.1962-.9055-67.0839,14.4183-66.4162,28.3037Z"/>
    <path class="cls-1" d="M701.1372,804.3745c-.016-.8608-29.1236-1.9603-62.0685.5218-.0017.0001-23.4932.1643-49.3951,7.0938-.809.2164-3.2984.8825-3.2498,1.1466.091.4912,8.8773-.8614,18.0601-2.0364,1.0934-.1399,18.0041-2.2821,34.75-3.3629,10.4335-.6734,9.8133-.2254,25.4087-.8719,10.1612-.4212,36.5093-1.6927,36.4945-2.491Z"/>
    <path class="cls-3" d="M1081.0602,874.1685c-1.0266,15.0172-174.2584,3.2327-245.0728,60.5701-5.3078,4.2976-19.2959,16.4778-40.6146,19.4162-30.533,4.2085-46.4763-19.9208-81.2294-30.6016-36.153-11.1111-66.9629-1.0689-89.9985,3.5877-108.2377,21.8806-277.4646-28.1133-276.9184-52.9725.5975-27.194,204.8995-49.3847,366.9169-49.3847,210.6829,0,367.9001,35.0004,366.9167,49.3847Z"/>
    <path class="cls-14" d="M957.4506,872.2976c-.6518,9.5351-110.6447,2.0526-155.6081,38.4588-3.3702,2.7288-12.2519,10.4625-25.7881,12.3283-19.3868,2.6722-29.51-12.6487-51.5763-19.4304-22.9552-7.0549-42.5179-.6787-57.1442,2.278-68.7251,13.893-176.1751-17.8505-175.8283-33.6347.3794-17.2667,130.1002-31.3567,232.9725-31.3567,133.7724,0,233.5968,22.2234,232.9725,31.3567Z"/>
    <path class="cls-9" d="M847.2672,871.5504c-.3113,4.5537-52.8411.9803-74.3144,18.3669-1.6095,1.3032-5.8512,4.9966-12.3157,5.8877-9.2587,1.2762-14.0932-6.0407-24.6315-9.2795-10.9628-3.3693-20.3054-.3241-27.2906,1.0879-32.8213,6.6349-84.1367-8.5249-83.9711-16.0631.1812-8.2462,62.1325-14.9751,111.2617-14.9751,63.8862,0,111.5598,10.6133,111.2616,14.9751Z"/>
    <path class="cls-9" d="M405.2612,874.7987c.9417,8.645,22.4496,12.5595,41.6861,16.5423,56.8106,11.7623,97.7082,24.9271,97.7093,24.9235.0023-.0072-173.8748-23.1951-172.921-44.9947.5092-11.6336,50.699-20.3733,52.4938-15.8806,1.2042,3.0139-19.9293,10.5866-18.9681,19.4095Z"/>
    <ellipse class="cls-9" cx="453.2336" cy="853.6247" rx="7.6094" ry="2.6468"/>
    <path class="cls-9" d="M967.9468,868.8824c-.9417,8.645-22.4496,12.5595-41.6861,16.5423-56.8106,11.7623-97.7082,24.9271-97.7093,24.9235-.0023-.0072,173.8748-23.1951,172.921-44.9947-.5092-11.6336-50.699-20.3733-52.4938-15.8806-1.2044,3.0139,19.9293,10.5866,18.9681,19.4095Z"/>
    <path class="cls-9" d="M728.1645,937.1076c-.377.4312,7.5557,11.2985,21.4403,18.1596,10.199,5.0397,13.7113,3.0269,26.2017,8.0873,15.4758,6.2699,14.2503,11.0479,22.6001,13.0546,12.3851,2.9766,21.0564-6.0986,60.5518-32.6847,17.5578-11.819,28.496-18.542,28.2322-18.9683-.3095-.5009-15.9152,7.9935-31.7612,17.6449-35.3891,21.5549-43.9512,31.8124-57.0228,28.7145-8.0077-1.8976-6.523-6.1565-20.6153-11.7311-12.8537-5.0846-16.8524-2.635-28.4525-7.7197-13.6615-5.9884-20.8247-14.9571-21.1743-14.5571Z"/>
  </g>
  <path class="cls-8" d="M326.7511,352.4334c-6.1478.46-9.6277.2236-11.7272-.1354-.6649-.1138-2.5063-.6428-4.4384.1242-1.117.4432-1.8914,1.1597-2.3715,1.6967-.0215-.9473-.0428-1.8955-.0643-2.8428,1.1438.0321,2.7937.0721,4.7847.097,1.9488.024,3.373.0184,4.7622.0224,3.0384.0096,6.0567.008,9.0544-.004v1.0419Z"/>
  <path class="cls-8" d="M404.1458,526.3702c-5.4397.46-8.5188.2236-10.3765-.1354-.5883-.1138-2.2176-.6428-3.9272.1242-.9884.4432-1.6735,1.1597-2.0983,1.6967-.019-.9473-.0379-1.8955-.0569-2.8428,1.012.0321,2.4719.0721,4.2336.097,1.7244.024,2.9845.0184,4.2137.0224,2.6884.0096,5.359.008,8.0115-.004v1.0419Z"/>
</svg>