<?xml version="1.0" encoding="UTF-8"?>
<svg id="Layer_1" data-name="Layer 1" xmlns="http://www.w3.org/2000/svg" viewBox="0 0 1621.4173 1264.252">
  <defs>
    <style>
      .cls-1 {
        fill: #c0e3dd;
      }

      .cls-2 {
        fill: #d1ebe4;
      }

      .cls-3 {
        fill: #dbf0ee;
      }

      .cls-4 {
        fill: #d1ebe7;
      }

      .cls-5 {
        fill: #7bb9b7;
      }

      .cls-6 {
        fill: #e2e9e6;
      }

      .cls-7 {
        fill: #fff;
      }

      .cls-8 {
        fill: #5f9a9a;
      }

      .cls-9 {
        fill: #69b0af;
      }

      .cls-10 {
        fill: #d6e9e6;
      }

      .cls-11 {
        fill: #8fc7c5;
      }

      .cls-12 {
        fill: #e1edeb;
      }

      .cls-13 {
        fill: #dff1ed;
      }

      .cls-14 {
        fill: #b2dfdb;
      }

      .cls-15 {
        fill: #d4ece9;
      }
    </style>
  </defs>
  <path class="cls-8" d="M1614.8382,594.8755c-2.2499,35.9867-381.9039,7.7468-537.1003,145.1486-11.6326,10.2987-42.2888,39.4869-89.0108,46.5285-66.9161,10.0852-101.8572-47.7377-178.0219-73.3329-79.2328-26.6263-146.7557-2.5615-197.2402,8.5975C376.2519,774.2512,5.3751,654.4472,6.572,594.8755c1.3094-65.167,449.0567-118.3442,804.1332-118.3442,461.7317,0,806.288,83.874,804.1329,118.3442Z"/>
  <path class="cls-9" d="M1511.6577,583.6085c-1.9386,31.0066-329.0535,6.6747-462.7729,125.062-10.0228,8.8735-36.4366,34.0224-76.6929,40.0896-57.6558,8.6896-87.7615-41.1315-153.386-63.1846-68.2681-22.9416-126.4467-2.207-169.9448,7.4078-204.386,45.1779-523.9386-58.0469-522.9072-109.3747,1.1282-56.1488,386.9134-101.9669,692.8521-101.9669,397.8342,0,694.7087,72.267,692.8518,101.9669Z"/>
  <path class="cls-5" d="M1350.8589,570.5625c-1.4815,23.6955-251.4647,5.1009-353.6538,95.5731-7.6595,6.7812-27.845,26.0001-58.6092,30.6367-44.0609,6.6406-67.0679-31.4329-117.2185-48.2861-52.1709-17.5321-96.6313-1.6866-129.8729,5.661-156.193,34.5252-400.397-44.3598-399.6089-83.5848.8622-42.9092,295.6815-77.9238,529.4817-77.9238,304.0273,0,530.9005,55.2269,529.4815,77.9238Z"/>
  <path class="cls-11" d="M1237.6054,569.8121c-1.1076,17.7153-188.0007,3.8135-264.3996,71.4526-5.7264,5.0698-20.8176,19.4383-43.8175,22.9047-32.9409,4.9647-50.1415-23.5-87.6352-36.0998-39.0041-13.1074-72.2438-1.2609-97.0959,4.2323-116.7735,25.8118-299.3459-33.1644-298.7567-62.4899.6446-32.0799,221.0582-58.2576,395.8526-58.2576,227.2977,0,396.9133,41.2889,395.8524,58.2576Z"/>
  <path class="cls-14" d="M1133.3232,561.5346c-.7441,11.9013-126.3013,2.562-177.6271,48.0028-3.8471,3.4059-13.9855,13.0589-29.4372,15.3877-22.1301,3.3353-33.6857-15.7876-58.8745-24.2523-26.2035-8.8057-48.5343-.8471-65.2303,2.8433-78.4499,17.3407-201.1045-22.2803-200.7086-41.9815.4331-21.5517,148.5098-39.1382,265.9389-39.1382,152.7016,0,266.6516,27.7384,265.9388,39.1382Z"/>
  <path class="cls-1" d="M783.8592,632.1261c.0571.5858-20.8697-.8773-48.2982,7.8566-13.1092,4.1741-21.4482,8.6856-37.931,10.6205-8.7714,1.0297-15.4306.8109-20.261.6322-53.0965-1.9649-64.8242-3.1474-64.9554-3.1607-.5628-.0571.5261.0658-.0013-.0002-51.1975-6.3998-121.518-9.8232-171.3833-20.5458-40.5436-8.7182-112.7381-31.9751-111.7699-55.2759.8987-21.6278,64.5245-35.8992,65.494-33.6719.8088,1.8583-42.4675,14.1123-42.4826,32.8734-.0144,18.5891,42.4505,33.777,57.3694,39.113,18.8704,6.7492,33.7473,9.0859,47.3196,11.1454,58.4779,8.8735,87.7169,13.3104,127.1395,18.0171,107.1566,12.794,50.4366,3.394,84.8301,6.5746,5.4477.5038,17.8477,1.6633,33.7585-1.0115,10.53-1.7702,15.6949-4.0703,24.0229-6.5747,30.341-9.1244,57.0847-7.2543,57.149-6.5921Z"/>
  <path class="cls-1" d="M431.9251,545.1441c-.1318-.2648-35.7709,9.1795-36.3521,25.1493-.6664,18.301,45.2789,29.4513,45.4554,29.0637.1719-.3775-42.5875-12.7622-42.293-29.4766.2578-14.621,33.3177-24.4794,33.1898-24.7364Z"/>
  <path class="cls-10" d="M860.7326,687.0168c-1.0357,2.1004,46.9444,49.4129,104.6889,44.7584,55.0467-4.437,63.6691-51.6411,155.2614-85.7802,33.1307-12.3486,69.2847-20.2292,69.2867-20.2297,40.3586-8.5864,64.8026-9.2341,64.7357-10.0613-.061-.7571-66.6806-9.3447-137.0568,16.422-85.505,31.3059-95.8677,83.7763-159.813,86.7527-54.8512,2.5531-96.159-33.776-97.1029-31.8619Z"/>
  <path class="cls-4" d="M1457.0538,571.8886c0,15.1582-86.7769,26.5348-87.3883,24.0378-.4697-1.9177,50.2162-10.628,50.2162-24.0378s-50.6859-22.1203-50.2162-24.0379c.6113-2.4972,87.3883,8.8798,87.3883,24.0379Z"/>
  <ellipse class="cls-1" cx="1353.578" cy="549.337" rx="6.0688" ry="1.8311"/>
  <path class="cls-12" d="M1062.5867,554.8303c0,12.3137-52.1126,21.1047-52.3422,20.33-.2066-.6979,41.8483-8.6787,41.8483-20.33s-42.0549-19.6323-41.8483-20.3302c.2296-.7747,52.3422,8.0165,52.3422,20.3302Z"/>
  <path class="cls-1" d="M1183.9775,563.9553c-.3437,9.2166-37.2481,14.5247-37.5039,13.6379-.2145-.7417,25.3649-5.2484,25.7473-13.6379.3929-8.6198-26.0793-15.5468-25.7454-16.4494.3942-1.0658,37.8503,7.1015,37.502,16.4494Z"/>
  <ellipse class="cls-4" cx="1087.4949" cy="552.9991" rx="6.0688" ry="1.8311"/>
  <ellipse class="cls-13" cx="1146.4723" cy="566.5517" rx="6.0688" ry="1.8311"/>
  <path class="cls-6" d="M1212.2536,565.3599c-.8167,13.5113-89.2551,17.7162-89.2951,17.3861-.0374-.3075,76.6523-4.2842,77.5385-17.3861.8252-12.2028-64.5966-25.0594-64.3887-25.8239.225-.8262,76.9108,13.1551,76.1453,25.8239Z"/>
  <path class="cls-1" d="M1282.269,564.7206c-.6409,8.8857-33.4003,15.6867-64.6714,22.179-21.8399,4.5343-34.8565,5.4531-52.3717,7.5861-65.5064,7.977-109.972,22.7093-110.2252,21.6839-.223-.9026,34.5253-11.099,73.1797-19.1373,11.0488-2.2976,21.3256-4.4347,35.6817-6.6556,28.6808-4.4368,36.2189-3.4185,53.7354-7.6128,16.1947-3.8778,41.7702-10.0019,42.4072-18.0432,1.7186-21.7049-178.7805-50.7253-178.5784-51.7861.2138-1.122,202.4563,29.4202,200.8427,51.7861Z"/>
  <path class="cls-3" d="M1028.5442,554.2109c-.4181,6.6867-70.9615,1.4394-99.7985,26.97-2.1615,1.9136-7.8577,7.337-16.5391,8.6455-12.4337,1.8739-18.9261-8.8701-33.0782-13.626-14.7222-4.9474-27.2686-.4759-36.6492,1.5975-44.0765,9.7428-112.9891-12.518-112.7667-23.587.2433-12.1087,83.4392-21.9895,149.4159-21.9895,85.7943,0,149.8162,15.5846,149.4158,21.9895Z"/>
  <path class="cls-15" d="M487.8146,575.366c.6409,8.8857,33.4003,15.6867,64.6714,22.179,21.8399,4.5343,34.8565,5.4531,52.3717,7.5861,65.5064,7.977,109.972,22.7093,110.2252,21.6839.223-.9026-34.5253-11.099-73.1797-19.1373-11.0488-2.2976-21.3256-4.4347-35.6817-6.6556-28.6808-4.4368-36.2189-3.4185-53.7354-7.6128-16.1947-3.8778-41.7702-10.0019-42.4072-18.0432-1.7186-21.7049,178.7805-50.7253,178.5784-51.7861-.2138-1.122-202.4563,29.4202-200.8427,51.7861Z"/>
  <path class="cls-15" d="M162.064,583.6697c.9223-9.4452,23.237-15.6724,67.696-29.025,6.5241-1.9595,8.9708-2.3886,17.6864-4.9988,25.2193-7.5526,38.0051-13.2407,52.1001-18.0822,17.2567-5.9275,29.7001-8.2589,53.1031-12.6436,55.6751-10.4311,103.5856-10.7144,103.6775-9.609.0564.6812-18.0485,1.8606-59.6147,8.1551-.002.0003-23.7126,3.5908-55.8062,10.0516-12.3686,2.4898-25.7205,5.3617-42.2445,11.5688-7.1256,2.6766-6.0413,2.6679-13.7815,5.6264-25.1065,9.5962-32.4125,8.1198-45.517,14.7997-9.0823,4.6295-24.0229,12.2454-24.5909,21.8054-1.1505,19.3561,58.0011,40.0384,113.8198,54.2717,70.7836,18.0491,82.6766,3.5149,118.5846,26.8051,10.852,7.0388,26.4308,19.1755,48.9916,19.8787,11.8209.3685,15.3807-2.7192,43.1982-7.6618,22.8021-4.0515,44.6203-6.2784,44.7318-5.2676.0794.7127-10.6395,2.9569-36.8657,8.935-46.9588,10.7043-44.9037,10.8752-50.1677,11.6562-33.4016,4.957-49.1621-11.8545-88.7933-24.6409-40.2399-12.9827-46.9424-3.0561-95.2964-10.3948-75.7229-11.4922-152.978-50.0557-150.9111-71.2299Z"/>
  <path class="cls-7" d="M946.2482,552.41c-.1462,2.3382-24.8133.5033-34.8968,9.4307-.7558.6691-2.7476,2.5656-5.7833,3.0231-4.3477.6553-6.6179-3.1016-11.5666-4.7646-5.148-1.73-9.5351-.1664-12.8152.5586-15.4124,3.4068-39.5092-4.3772-39.4315-8.2477.0851-4.2341,29.1764-7.6891,52.2467-7.6891,29.9999,0,52.3867,5.4495,52.2467,7.6891Z"/>
  <path class="cls-7" d="M677.369,561.1325c0,12.3137,52.1126,21.1047,52.3422,20.33.2066-.6979-41.8483-8.6787-41.8483-20.33s42.0549-19.6323,41.8483-20.3302c-.2296-.7747-52.3422,8.0165-52.3422,20.3302Z"/>
  <path class="cls-2" d="M632.7245,566.4445c.8167,16.978,89.2551,22.2619,89.2951,21.8471.0374-.3864-76.6523-5.3834-77.5385-21.8471-.8252-15.3338,64.5966-31.4892,64.3887-32.4498-.225-1.0381-76.9108,16.5304-76.1453,32.4498Z"/>
  <path class="cls-1" d="M887.0922,632.0262c-.9657,1.6349,21.8762,27.3891,45.4797,21.2996,17.4309-4.497,27.0615-24.2401,25.1078-26.288-1.9023-1.9941-13.665,13.9674-33.9933,15.885-20.8061,1.9627-35.8372-12.1783-36.5942-10.8966Z"/>
  <ellipse class="cls-4" cx="881.974" cy="622.6974" rx="6.0688" ry="1.8311"/>
  <path class="cls-1" d="M832.0414,642.475c-.3129.8021,14.4243,6.1221,33.9861,15.8505,45.4258,22.5908,55.2316,38.2981,72.123,33.9108,17.0258-4.4223,26.1376-25.3351,25.1078-26.288-.9616-.8895-10.0118,16.3099-26.7155,19.6293-18.6414,3.7045-27.7749-13.6616-67.3175-30.9544-19.0337-8.324-36.846-13.0152-37.1838-12.1482Z"/>
  <ellipse class="cls-4" cx="1006.9559" cy="644.6585" rx="6.0688" ry="1.8311" transform="translate(-160.9118 900.8415) rotate(-45)"/>
  <path class="cls-1" d="M772.4654,502.3928c-.0262-.6013,33.2147-3.8873,72.6373-3.7932,63.9505.1527,112.9054,9.1249,112.8267,9.862-.0741.6945-43.6738-6.0367-110.1714-7.0172-43.8102-.6459-75.267,1.533-75.2926.9483Z"/>
  <path class="cls-1" d="M703.6228,489.9269c-.0184-.9869-33.3898-2.2474-71.1607.5982-.002.0002-26.9346.1884-56.6308,8.133-.9275.2481-3.7816,1.0118-3.7258,1.3145.1043.5631,10.1777-.9875,20.7057-2.3347,1.2535-.1604,20.6414-2.6164,39.8404-3.8555,11.9619-.7721,11.2509-.2584,29.1307-.9997,11.6497-.4829,41.8575-1.9406,41.8404-2.8558Z"/>
</svg>