<?xml version="1.0" encoding="UTF-8"?>
<svg id="Layer_1" data-name="Layer 1" xmlns="http://www.w3.org/2000/svg" viewBox="0 0 1621.4173 1264.252">
  <defs>
    <style>
      .cls-1 {
        fill: #db8255;
      }

      .cls-2 {
        fill: #fdd19d;
      }

      .cls-3 {
        fill: #eba079;
      }
    </style>
  </defs>
  <path class="cls-3" d="M1190.2573,999.3037c-70.5803,128.2755-231.2788,266.2303-417.2512,250.507-227.5497-19.2384-345.4306-256.0796-353.0484-271.9863C242.078,606.3962,555.4619,9.1066,805.2858,8.6922c256.6934-.4258,583.8998,629.0712,384.9715,990.6115Z"/>
  <path class="cls-1" d="M1192.6587,994.3265c-15.8675,30.0223-121.9889,230.8116-328.9132,258.141-174.1517,23.0009-343.1212-86.9789-379.6215-174.8621-2.4445-5.8855-2.6975-7.8263-2.7929-8.9734-6.0617-72.8526,364.5706-57.172,534.5313-281.9794,99.1948-131.205,96.8793-300.4717,95.2857-340.6706-1.6755-42.266-5.7625-124.1991-50.3045-210.666-56.0687-108.8435-165.7359-204.4804-165.7387-204.4824h0c.0151.0149,50.4819,32.8065,68.444,45.5169,43.0564,30.4681,68.6086,65.3304,99.2379,107.8361,26.2866,36.479,90.1476,125.102,131.7836,248.8958,34.7249,103.245,114.6128,340.7711-1.9119,561.2439Z"/>
  <ellipse class="cls-2" cx="578.997" cy="441.6011" rx="138.8077" ry="55.767" transform="translate(-18.5174 857.8049) rotate(-72.1922)"/>
  <ellipse class="cls-2" cx="678.2589" cy="229.3056" rx="13.053" ry="12.5927" transform="translate(434.2015 902.3971) rotate(-88.7491)"/>
</svg>