<?xml version="1.0" encoding="UTF-8"?>
<svg id="Layer_1" data-name="Layer 1" xmlns="http://www.w3.org/2000/svg" viewBox="0 0 1621.4173 1264.252">
  <defs>
    <style>
      .cls-1 {
        fill: #db8255;
      }

      .cls-2 {
        fill: #fdd19d;
      }

      .cls-3 {
        fill: #eba079;
      }
    </style>
  </defs>
  <path class="cls-3" d="M862.8112,682.5303c-9.6889,17.609-31.7488,36.5468-57.2782,34.3883-31.2369-2.641-47.419-35.1533-48.4647-37.3369-24.4184-50.9878,18.6013-132.9807,52.8959-133.0376,35.2376-.0585,80.1548,86.3557,52.847,135.9862Z"/>
  <path class="cls-1" d="M863.1409,681.8471c-2.1782,4.1213-16.746,31.6847-45.1516,35.4363-23.9067,3.1575-47.102-11.94-52.1125-24.0042-.3356-.8079-.3703-1.0744-.3834-1.2318-.8321-10.0008,50.0464-7.8483,73.3778-38.7087,13.617-18.0112,13.2991-41.2473,13.0803-46.7656-.23-5.8021-.791-17.0494-6.9055-28.9192-7.6968-14.9415-22.7514-28.07-22.7518-28.0703h0c.0021.002,6.9299,4.5035,9.3957,6.2483,5.9106,4.1825,9.4182,8.9682,13.6229,14.8032,3.6085,5.0077,12.375,17.1734,18.0906,34.1672,4.7669,14.173,15.7335,46.7794-.2625,77.0448Z"/>
  <ellipse class="cls-2" cx="778.9004" cy="605.9717" rx="19.0548" ry="7.6554" transform="translate(-36.2445 1162.2326) rotate(-72.1922)"/>
  <ellipse class="cls-2" cx="792.5266" cy="576.8288" rx="1.7919" ry="1.7287" transform="translate(198.5343 1356.5743) rotate(-88.7491)"/>
</svg>