<?xml version="1.0" encoding="UTF-8"?>
<svg id="Layer_1" data-name="Layer 1" xmlns="http://www.w3.org/2000/svg" viewBox="0 0 1621.4173 1264.252">
  <defs>
    <style>
      .cls-1 {
        fill: #e1b899;
      }

      .cls-2 {
        fill: #e9c3a2;
      }

      .cls-3 {
        fill: #f9dfca;
      }
    </style>
  </defs>
  <path class="cls-2" d="M864.1202,682.2086c-9.9408,17.4471-32.591,36.2015-58.8225,34.0418-32.096-2.6425-48.7478-34.8829-49.824-37.0482-25.1287-50.5604,19.0066-131.8011,54.242-131.8304,36.2044-.0301,82.4224,85.6626,54.4045,134.8367Z"/>
  <path class="cls-1" d="M864.4583,681.5316c-13.0136,22.413-40.3907,38.7426-62.1927,34.7445-3.6356-.6667-14.0627-3.5977-22.9393-9.6356-4.754-3.2337-8.0436-6.4648-8.0442-6.4653-3.0446-2.9905-6.7041-7.3399-6.7476-7.3885,4.0587,1.8693,27.6351,12.2893,50.5799,1.6463,10.1505-4.7083,16.9709-12.0515,19.6066-15.1358,6.9146-8.0915,9.7196-15.7659,12.4494-23.4612,7.5258-21.2147,6.6784-39.8711,5.7319-48.9279-.869-8.3139-1.3602-17.8996-7.1179-28.6713-7.9198-14.8166-23.3978-27.8421-23.3983-27.8424.0021.0021,7.1236,4.4696,9.6584,6.201,6.076,4.1506,9.6838,8.8972,14.0084,14.6843,3.7114,4.9666,12.7281,17.0327,18.6139,33.8822,5.3743,15.3852,16.5904,47.4369-.2087,76.3696Z"/>
  <ellipse class="cls-3" cx="777.8466" cy="606.2542" rx="18.9453" ry="7.8416" transform="translate(-44.9431 1149.9515) rotate(-71.3895)"/>
  <circle class="cls-3" cx="791.8236" cy="577.3774" r="1.7761"/>
</svg>