<?xml version="1.0" encoding="UTF-8"?>
<svg id="Layer_1" data-name="Layer 1" xmlns="http://www.w3.org/2000/svg" viewBox="0 0 1621.4173 1264.252">
  <defs>
    <style>
      .cls-1 {
        fill: #e1b899;
      }

      .cls-2 {
        fill: #e9c3a2;
      }

      .cls-3 {
        fill: #f9dfca;
      }
    </style>
  </defs>
  <path class="cls-2" d="M1208.4385,1005.067c-74.0245,129.9203-242.6896,269.5753-438.0232,253.4931-239.0038-19.6776-363.0017-259.7562-371.0154-275.88C212.2783,606.1805,540.9326,1.2202,803.3144,1.0022c269.5966-.224,613.7599,637.8888,405.1241,1004.0648Z"/>
  <path class="cls-1" d="M1210.9568,1000.0259c-96.9059,166.8985-300.7704,288.4975-463.1192,258.7258-27.0726-4.9645-104.718-26.7907-170.8177-71.752-35.401-24.0798-59.8969-48.1402-59.9011-48.1441-22.6716-22.2685-49.9225-54.657-50.246-55.0189,30.223,13.9199,205.7852,91.5123,376.6447,12.2593,75.5859-35.0607,126.3741-89.7417,146.0008-112.7088,51.4897-60.2533,72.3769-117.401,92.7047-174.704,56.0411-157.9759,49.731-296.9014,42.6825-364.3425-6.4708-61.9096-10.1284-133.2901-53.0034-213.5015-58.9753-110.3325-174.2324-207.3268-174.2358-207.329.0159.0153,53.046,33.2826,71.9214,46.176,45.2454,30.9073,72.1107,66.2529,104.3142,109.3472,27.6374,36.9842,94.78,126.8346,138.6088,252.3044,40.0198,114.5664,123.5411,353.2398-1.5538,568.6883Z"/>
  <ellipse class="cls-3" cx="566.0004" cy="439.4715" rx="141.0768" ry="58.3927" transform="translate(-31.1204 835.6259) rotate(-71.3895)"/>
  <circle class="cls-3" cx="670.0804" cy="224.4398" r="13.226"/>
</svg>