<?xml version="1.0" encoding="UTF-8"?>
<svg id="Layer_1" data-name="Layer 1" xmlns="http://www.w3.org/2000/svg" viewBox="0 0 1621.4173 1264.252">
  <defs>
    <style>
      .cls-1 {
        fill: #e9c3a2;
      }

      .cls-2 {
        fill: #f9dfca;
      }

      .cls-3 {
        fill: #d6b19a;
      }

      .cls-4 {
        fill: #d1af9c;
      }

      .cls-5 {
        fill: #f0e6de;
      }
    </style>
  </defs>
  <path class="cls-1" d="M626.5706,551.8439c-3.4532-1.3197-9.4022-3.5946-11.624-2.5638-13.9866,6.4891,41.0497,163.7629,181.0208,169.2659,90.5321,3.5594,198.3654-57.0897,210.8662-147.5017,3.4147-15.4972,1.2031-19.2254-1.3692-19.8378-7.3286-1.7445-21.1727,20.9473-36.4093,19.6035-12.0673-1.0643-13.9409-16.2291-22.8805-16.0077-7.2911.1805-13.1365,10.4435-23.8658,29.7658-8,14.4072-10.1801,20.8926-14.7343,21.0015-3.6857.0881-5.8656-4.0735-15.4851-17.4147-14.3821-19.9465-18.0092-22.4321-22.0856-22.7017-10.4267-.6896-16.8019,13.5803-24.5905,12.5964-11.0901-1.4011-7.5827-31.5233-16.6486-32.4704-8.3604-.8734-14.6104,24.4025-32.3465,26.0428-17.5386,1.6221-30.4028-21.3395-42.7135-19.0472-14.525,2.7046-7.6598,36.7259-20.7167,38.9078-12.8724,2.1512-28.1096-29.4842-51.0858-28.1864-13.3328.7531-18.2929,11.9755-28.3019,10.3399-10.57-1.7272-8.9481-14.8819-27.0297-21.7923Z"/>
  <path class="cls-2" d="M669.1434,640.2475c4.4398,8.7406,31.3189,61.658,104.8789,71.4126,54.3132,7.2023,104.1337-13.0966,102.9105-15.9155-1.2922-2.9778-58.3438,16.3221-113.0005,2.1498-61.7675-16.0161-89.4284-66.7298-95.859-64.5744-2.0506.6872.555,5.9134,1.0701,6.9275Z"/>
  <path class="cls-3" d="M888.0156,683.3436c.4088-3.0976,3.6195-5.4634,7.1711-5.284,3.5517.1793,6.0995,2.8358,5.6906,5.9335-.4088,3.0976-3.6195,5.4634-7.1711,5.284-3.5517-.1793-6.0995-2.8358-5.6906-5.9335Z"/>
  <path class="cls-4" d="M870.4227,675.1726c.2666-2.0202,2.4245-3.5598,4.8197-3.4389,2.3952.1209,4.1207,1.8567,3.8541,3.8769s-2.4245,3.5598-4.8197,3.4389-4.1207-1.8567-3.8541-3.8769Z"/>
  <path class="cls-4" d="M915.3595,669.7931c.5657-4.286-3.221-7.9748-8.4578-8.2392-5.2368-.2644-9.9406,2.9957-10.5063,7.2817-.5657,4.286,3.221,7.9748,8.4578,8.2392,5.2368.2644,9.9406-2.9957,10.5063-7.2817Z"/>
  <path class="cls-5" d="M629.3612,553.8262c.4134-.4998,4.0888,1.7168,6.9224,3.9147,5.1458,3.9914,7.572,8.3111,7.9117,8.9305,1.3118,2.3951,1.0995,3.0264,2.5707,4.2817,2.4001,2.0468,6.2379,3.1601,8.7028,3.4253,9.3769,1.0088,13.7912-8.6488,23.3387-10.0313,18.8216-2.7256,39.3155,29.3494,54.1809,27.1357,13.6527-2.0332,8.5702-30.9053,22.9558-33.0078,12.3968-1.8118,23.9711,18.4858,40.3487,17.1267,16.1101-1.3367,21.3103-22.3372,30.0638-21.5308,9.2048.8479,8.6313,24.549,19.3833,25.3233,3.2694.2354,7.8357-1.6319,10.2849-3.4255,3.2917-2.4109,2.853-4.759,6.7243-6.3613.0015-.0004,2.6146-1.0824,6.5269-1.101,13.0992-.0628,24.3749,36.6912,38.2987,37.0633,16.9638.4533,37.2335-48.1181,43.7827-45.1375,1.4749.6712,3.6426,4.6246,7.7843,7.1228,1.1032.6656,2.2779,1.2365,2.2779,1.2365,0,0,2.3286,1.1321,5.0117,1.8872,18.0052,5.0676,31.9998-1.9278,31.9998-1.9278,3.1964-1.6651,5.0929-3.4413,6.3854-5.0728,2.4016-3.0321,3.0713-6.0149,3.0705-6.0153-.0022-.0009-1.2291,15.3786-10.1106,21.2768-11.7524,7.8046-24.6282-7.7169-41.6717-4.8058-26.1083,4.4594-23.9674,42.7812-39.1621,43.5512-14.5339.7363-25.1533-33.8879-45.4357-33.5166-11.9372.2184-18.0677,12.6716-27.7799,11.0438-10.431-1.7485-10.098-16.1375-18.5184-16.8576-9.6622-.8263-15.6922,17.6409-26.9381,17.4379-11.6772-.2106-15.4807-20.1615-26.9366-20.3455-11.1669-.1793-12.7983,18.7387-29.6302,21.074-15.5425,2.1565-22.7569-12.7808-52.0244-14.6816-9.3389-.6064-14.3752.5397-26.6945-1.3444-7.7463-1.1846-20.3427-3.218-24.6542-9.1197-1.1382-1.5593-.8566-2.2362-1.2164-3.9378-.2138-1.0125-.479-1.839-1.2261-3.4577-1.9464-4.2169-7.0699-9.4976-6.5269-10.1538Z"/>
</svg>