<?xml version="1.0" encoding="UTF-8"?>
<svg id="Layer_1" data-name="Layer 1" xmlns="http://www.w3.org/2000/svg" viewBox="0 0 1621.4173 1264.252">
  <defs>
    <style>
      .cls-1 {
        fill: #432816;
      }

      .cls-2 {
        fill: #724526;
      }

      .cls-3 {
        fill: #975a35;
      }

      .cls-4 {
        fill: #563419;
      }

      .cls-5 {
        fill: #bf7c54;
      }

      .cls-6 {
        fill: #734a23;
      }

      .cls-7 {
        fill: #643d1e;
      }

      .cls-8 {
        fill: #ad7a50;
      }

      .cls-9 {
        fill: #693e1c;
      }

      .cls-10 {
        fill: #613920;
      }
    </style>
  </defs>
  <path class="cls-4" d="M783.7616,584.7565c.0409.2169,7.0048,37.1942,7.0448,37.4067.0115.0612,4.1454,22.0108,4.1511,22.0406.0553.2935,6.7632,35.9124,6.8174,36.2,5.6111-26.4965,12.7018-39.5177,18.4283-46.5138,1.6319-1.9937,8.6732-10.2416,6.1347-15.4838-1.1047-2.2814-3.2358-2.3666-4.2518-4.1513-1.7531-3.0795.6781-9.702,15.5351-24.3278-17.9532-1.7236-35.9064-3.4471-53.8596-5.1707Z"/>
  <path class="cls-1" d="M837.6549,589.8603c-.1191,1.2403-12.2785,1.0878-27.1589-.3408-14.8804-1.4286-26.8468-3.5922-26.7277-4.8325.1191-1.2403,12.2785-1.0877,27.1589.3408,14.8804,1.4286,26.8468,3.5921,26.7277,4.8324Z"/>
  <path class="cls-7" d="M823.9627,625.4514c1.5508-4.0408-2.8852-9.4087-5.1224-9.2084-.3847.0344-.7741.2397-1.0085.5525-1.3788,1.8392,4.3219,5.0969,3.4994,8.4033-.7095,2.8522-5.8659,4.6113-5.6697,5.1098.0021.0053.0066.01.0135.0141.7513.4374,6.85-1.1252,8.2877-4.8712Z"/>
  <ellipse class="cls-7" cx="817.4052" cy="625.5681" rx="1.0191" ry=".5435" transform="translate(116.5857 1379.4505) rotate(-84.5162)"/>
  <path class="cls-7" d="M790.0537,596.1927c-2.9333,2.2433,4.7982,13.3314,7.9381,31.067,1.8398,10.3917.8426,15.9456,1.1989,15.9501.9631.0124,7.0052-40.6143-5.3497-46.6535-.3806-.1861-2.6006-1.2711-3.7873-.3636Z"/>
  <path class="cls-9" d="M822.2035,593.0907c-.0163.1473-1.3887.0847-3.0632.046-6.503-.1502-9.2511.2515-12.5052.2568-7.8848.0127-16.5777-2.3056-16.4984-3.3813.1051-1.425,15.5569-1.6934,16.1286.5473.0897.3516-.2627.6246-.0952.9919.4584,1.0053,3.5113.1976,6.7791.0593,5.0321-.213,9.2835,1.2161,9.2543,1.48Z"/>
  <path class="cls-6" d="M819.5926,592.8387c-.0142.1288-1.2147.0741-2.6794.0403-5.6882-.1314-8.0921.22-10.9384.2246-6.8969.0111-14.5006-2.0167-14.4313-2.9577.0919-1.2465,13.6077-1.4812,14.1078.4788.0785.3076-.2298.5464-.0833.8676.4009.8793,3.0714.1728,5.9297.0519,4.4016-.1863,8.1204,1.0638,8.0948,1.2945Z"/>
  <path class="cls-6" d="M792.2767,599.5793c-2.2848,1.7473,3.7373,10.3839,6.1831,24.1982,1.433,8.0941.6563,12.4201.9338,12.4236.7502.0097,5.4564-31.6347-4.1669-36.3386-.2965-.1449-2.0256-.9901-2.9499-.2832Z"/>
  <path class="cls-6" d="M823.7357,625.3838c1.0419-2.9287-1.8278-6.7768-3.2942-6.6175-.2521.0274-.5085.1782-.664.4057-.9149,1.3374,2.7968,3.6531,2.2366,6.0466-.4832,2.0647-3.8713,3.3689-3.7461,3.7277.0013.0038.0043.0072.0088.0101.4891.311,4.493-.8575,5.4589-3.5725Z"/>
  <ellipse class="cls-6" cx="817.3815" cy="625.815" rx=".6247" ry=".3332" transform="translate(178.8446 1433.2972) rotate(-89.1028)"/>
  <path class="cls-8" d="M796.8535,603.0833c-.0889.1402-1.3912-.9148-2.1726-.4427s-.4532,2.1156-.6187,2.1291c-.2267.0185-1.2174-3.0351-.2733-3.6055s3.1864,1.727,3.0646,1.9191Z"/>
  <path class="cls-8" d="M821.7506,619.9019c-.0493.0596-.5694-.2605-.9533-.0286-.3839.232-.3425.8413-.4181.8572-.1037.0218-.353-1.0854.1109-1.3657s1.3281.4554,1.2606.5371Z"/>
  <path class="cls-8" d="M805.1233,591.1419c-.0978.2506-2.2997-1.1236-4.1446-.4486-.2783.1018-.8668.3667-1.2263.1049-.2847-.2073-.204-.5835-.49-.7139-.279-.1272-.5294.1518-.9906.2549-.5849.1308-1.0565-.1224-1.4306-.2658-1.6355-.6273-3.5209.0321-3.5338-.0659-.0112-.0847,1.408-.5004,3.2413-.5061.0891-.0003.3505.0252.7155.0289.5928.0059.9637-.0351,1.2953-.0532.5248-.0286.9015.0053,1.6547.0732,1.5865.143,2.8732.2718,4.1812,1.0127.1187.0672.7811.4424.7278.5788Z"/>
  <path class="cls-8" d="M798.1405,609.2896c.0595-.0063.2001.3134.3314.6301.8837,2.1314,1.6983,4.0965,1.7946,6.892.0573,1.6654-.1465,3.4415-.3297,3.4345-.2123-.008-.165-2.403-.9078-6.3666-.453-2.4176-1.0416-4.5737-.8885-4.5901Z"/>
  <path class="cls-6" d="M803.1387,664.7153c-.3142-.0265-.8215-5.5199,1.1355-11.7602,2.6903-8.5791,8.7068-14.3246,8.9951-14.1739.2543.1329-4.0449,4.8021-7.0731,12.9356-2.75,7.3862-2.7379,13.0255-3.0574,12.9985Z"/>
  <path class="cls-7" d="M819.8852,607.7896c-1.6691-1.8386,1.5932-8.7903,6.792-12.6423,3.0809-2.2827,6.402-3.1532,6.6149-2.7711.316.567-6.8649,2.7212-9.5731,9.1381-1.2199,2.8905-1.531,6.6184-2.9224,6.7268-.4684.0365-.8395-.3724-.9113-.4515Z"/>
  <path class="cls-6" d="M820.3457,605.6121c-1.3385-1.4745,1.2777-7.0495,5.447-10.1387,2.4708-1.8306,5.1342-2.5287,5.3049-2.2223.2534.4547-5.5054,2.1823-7.6773,7.3284-.9783,2.3181-1.2278,5.3077-2.3437,5.3947-.3757.0292-.6732-.2986-.7308-.3621Z"/>
  <path class="cls-8" d="M820.0241,606.0228c.0773.0008.1557.6065.5776.759.4219.1525.8694-.2631.9294-.2143.0822.0669-.6216.9573-1.1313.773-.5097-.1842-.4816-1.3189-.3756-1.3177Z"/>
  <path class="cls-8" d="M815.268,592.3093c-.0188.0691-.6737-.1446-1.7814-.2165-1.4925-.097-2.3926.1553-2.4082.0727-.0173-.0914,1.0542-.5562,2.319-.4569,1.0402.0817,1.8925.5201,1.8706.6007Z"/>
  <path class="cls-10" d="M825.7628,589.1275c-.0757.7883-7.8035.6913-17.2605-.2166-9.4571-.9079-17.0621-2.283-16.9865-3.0712.0757-.7883,7.8035-.6913,17.2605.2166,9.4571.9079,17.0621,2.2829,16.9865,3.0712Z"/>
  <path class="cls-6" d="M828.9768,590.1188c-.0999-.084,2.2229-.1193,2.2701-.5653.0473-.4461-2.2168-.9669-2.1015-1.0282.1581-.0839,4.6682.7549,4.6111,1.2938-.0571.539-4.6428.4148-4.7798.2997Z"/>
  <path class="cls-6" d="M791.7857,586.5029c.1949-.087-3.735-.8232-3.6804-1.4564.0544-.6332,4.0524-.6863,3.8753-.8054-.2428-.1632-8.1469-.3333-8.2128.4316-.0659.765,7.7508,1.9494,8.0179,1.8301Z"/>
  <path class="cls-6" d="M796.8707,584.4748c.0043-.087,8.6771-.2376,19.3685,1.6472,3.3394.5887,6.3575,1.2846,6.346,1.3451-.0149.0792-5.2163-1.0112-11.8737-1.8588-8.5002-1.0824-13.8441-1.0651-13.8408-1.1335Z"/>
  <path class="cls-10" d="M820.1366,588.2952c-.0757.7883-7.8035.6913-17.2605-.2166-9.4571-.9079-17.0621-2.283-16.9865-3.0712.0757-.7883,7.8035-.6913,17.2605.2166,9.4571.9079,17.0621,2.2829,16.9865,3.0712Z"/>
  <path class="cls-10" d="M820.1366,588.2952c-.0757.7883-7.8035.6913-17.2605-.2166-9.4571-.9079-17.0621-2.283-16.9865-3.0712.0757-.7883,7.8035-.6913,17.2605.2166,9.4571.9079,17.0621,2.2829,16.9865,3.0712Z"/>
  <path class="cls-10" d="M820.1366,588.2952c-.0757.7883-7.8035.6913-17.2605-.2166-9.4571-.9079-17.0621-2.283-16.9865-3.0712.0757-.7883,7.8035-.6913,17.2605.2166,9.4571.9079,17.0621,2.2829,16.9865,3.0712Z"/>
  <path class="cls-2" d="M818.4044,588.2694c-.0587.6113-6.051.5361-13.3843-.1679-7.3333-.704-13.2305-1.7703-13.1718-2.3815.0587-.6113,6.051-.536,13.3843.168,7.3333.704,13.2305,1.7703,13.1718,2.3815Z"/>
  <path class="cls-3" d="M816.7871,588.0966c-.0507.5284-5.2307.4634-11.5699-.1452s-11.4369-1.5303-11.3862-2.0587c.0507-.5284,5.2307-.4634,11.5699.1452,6.3392.6086,11.4369,1.5303,11.3862,2.0587Z"/>
  <path class="cls-5" d="M812.8935,587.5601c-.0325.3383-3.3487.2967-7.4071-.0929-4.0583-.3896-7.3219-.9797-7.2895-1.318.0325-.3383,3.3487-.2967,7.4071.093,4.0583.3896,7.3219.9797,7.2895,1.318Z"/>
</svg>