<?xml version="1.0" encoding="UTF-8"?>
<svg id="Layer_1" data-name="Layer 1" xmlns="http://www.w3.org/2000/svg" viewBox="0 0 1621.4173 1264.252">
  <defs>
    <style>
      .cls-1 {
        fill: #432816;
      }

      .cls-2 {
        fill: #724526;
      }

      .cls-3 {
        fill: #975a35;
      }

      .cls-4 {
        fill: #563419;
      }

      .cls-5 {
        fill: #bf7c54;
      }

      .cls-6 {
        fill: #734a23;
      }

      .cls-7 {
        fill: #643d1e;
      }

      .cls-8 {
        fill: #ad7a50;
      }

      .cls-9 {
        fill: #693e1c;
      }

      .cls-10 {
        fill: #613920;
      }
    </style>
  </defs>
  <path class="cls-4" d="M470.2939,33.7207c.5168,2.7403,88.4894,469.8639,88.995,472.5487.145.7729,52.3681,278.0564,52.4393,278.433.6982,3.7083,85.438,453.6707,86.1224,457.3046,70.8837-334.7233,160.4581-499.2165,232.799-587.5959,20.6153-25.1857,109.5658-129.3791,77.4979-195.6027-13.9558-28.8207-40.8772-29.8963-53.7116-52.4422-22.1462-38.9025,8.5666-122.5629,196.2507-307.3257-226.7976-21.7733-453.5952-43.5467-680.3929-65.32Z"/>
  <path class="cls-1" d="M1151.1123,98.1959c-1.5042,15.6687-155.111,13.7416-343.0908-4.3051-187.9798-18.0467-339.1476-45.379-337.6433-61.0477,1.5042-15.6687,155.111-13.7409,343.0907,4.3058,187.9798,18.0467,339.1477,45.3783,337.6434,61.0469Z"/>
  <path class="cls-7" d="M978.1427,547.8073c19.591-51.0469-36.4476-118.8573-64.7097-116.3272-4.8595.4349-9.7785,3.0279-12.7405,6.9798-17.4174,23.2346,54.5972,64.3875,44.2069,106.1559-8.9628,36.0315-74.1024,58.2528-71.6234,64.5505.0264.067.0833.1266.1708.1776,9.4912,5.5253,86.5347-14.2147,104.6959-61.5366Z"/>
  <ellipse class="cls-7" cx="895.3038" cy="549.2815" rx="12.8744" ry="6.8663" transform="translate(262.9775 1387.9963) rotate(-84.5162)"/>
  <path class="cls-7" d="M549.7804,178.1905c-37.0561,28.3386,60.6145,168.4114,100.2803,392.4606,23.2416,131.2753,10.6445,201.4358,15.145,201.4936,12.1672.1571,88.4946-513.0692-67.5816-589.361-4.8083-2.3508-32.852-16.0579-47.8438-4.5932Z"/>
  <path class="cls-9" d="M955.9195,139.0044c-.2055,1.8605-17.5426,1.0699-38.6961.5816-82.1503-1.8977-116.8671,3.1777-157.9741,3.2438-99.6059.161-209.4212-29.1263-208.4193-42.7154,1.3272-18.0021,196.5257-21.3925,203.7478,6.9145,1.1332,4.4419-3.3192,7.8906-1.203,12.5305,5.7905,12.6994,44.3576,2.496,85.6379.7489,63.5688-2.6902,117.2761,15.3631,116.9069,18.6961Z"/>
  <path class="cls-6" d="M922.9372,135.8207c-.1797,1.6274-15.3446.9359-33.8478.5088-71.8575-1.6599-102.2246,2.7795-138.1812,2.8374-87.126.1408-183.1824-25.477-182.306-37.3635,1.1609-15.7466,171.9025-18.7122,178.2197,6.0481.9913,3.8854-2.9034,6.902-1.0522,10.9605,5.065,11.1083,38.7999,2.1833,74.9081.6551,55.6041-2.3531,102.5823,13.4383,102.2594,16.3536Z"/>
  <path class="cls-6" d="M577.8628,220.9728c-28.8631,22.073,47.2129,131.1764,78.1087,305.6891,18.103,102.2509,8.291,156.8992,11.7965,156.9442,9.4771.1224,68.9288-399.6317-52.6396-459.0557-3.7452-1.8311-25.5886-12.5075-37.2657-3.5776Z"/>
  <path class="cls-6" d="M975.275,546.9537c13.1624-36.9977-23.0906-85.6091-41.6142-83.597-3.185.3459-6.4231,2.2509-8.3886,5.1246-11.5574,16.8955,35.3315,46.1485,28.2546,76.3845-6.1046,26.0831-48.9056,42.5585-47.3234,47.0909.0168.0482.0537.0909.1107.1272,6.1791,3.9287,56.7589-10.8323,68.9608-45.1302Z"/>
  <ellipse class="cls-6" cx="895.0044" cy="552.4008" rx="7.8912" ry="4.2087" transform="translate(328.6573 1438.6459) rotate(-89.1028)"/>
  <path class="cls-8" d="M635.68,265.2384c-1.1235,1.7713-17.5745-11.5563-27.4454-5.5923-9.871,5.964-5.7251,26.7262-7.8157,26.8968-2.864.2338-15.3794-38.3416-3.4529-45.5476,11.9265-7.2059,40.2533,21.8165,38.7141,24.243Z"/>
  <path class="cls-8" d="M950.1982,477.702c-.6231.7527-7.1932-3.2914-12.0433-.361-4.8501,2.9304-4.3262,10.6276-5.2824,10.8291-1.3099.276-4.4589-13.7122,1.4012-17.2528,5.8601-3.5406,16.7781,5.7535,15.9245,6.7847Z"/>
  <path class="cls-8" d="M740.1503,114.3862c-1.2359,3.1662-29.0513-14.1937-52.3571-5.6669-3.5157,1.2863-10.9496,4.6329-15.4915,1.3257-3.5971-2.6193-2.5772-7.3711-6.19-9.019-3.5242-1.6073-6.6882,1.9174-12.5138,3.2205-7.389,1.6525-13.346-1.5459-18.0718-3.358-20.6604-7.924-44.4781.4053-44.6411-.8323-.1418-1.0701,17.7873-6.3212,40.9465-6.3934,1.1261-.0037,4.4278.3185,9.0383.3645,7.4886.0748,12.1741-.4431,16.3637-.6716,6.6299-.3618,11.3885.0675,20.9029.925,20.0413,1.807,36.2962,3.4331,52.8196,12.7933,1.499.8492,9.8668,5.589,9.1944,7.3123Z"/>
  <path class="cls-8" d="M651.9386,343.6402c.7522-.0799,2.5277,3.9585,4.1864,7.9603,11.1636,26.9259,21.4546,51.7505,22.6708,87.0646.7241,21.0388-1.8509,43.4757-4.1654,43.3877-2.6824-.101-2.0841-30.356-11.4674-80.4273-5.7228-30.5413-13.1585-57.7788-11.2244-57.9853Z"/>
  <path class="cls-6" d="M715.079,1043.8175c-3.9694-.3353-10.3781-69.7315,14.3439-148.5638,33.9859-108.3778,109.9907-180.959,113.6324-179.0554,3.2123,1.6788-51.0976,60.6637-89.3527,163.4124-34.7405,93.3077-34.5867,164.5476-38.6235,164.2068Z"/>
  <path class="cls-7" d="M926.6339,324.6915c-21.085-23.2261,20.1262-111.0453,85.8016-159.7066,38.9201-28.8366,80.8751-39.8338,83.5639-35.0062,3.9914,7.1632-86.7227,34.3764-120.9346,115.4388-15.4105,36.5152-19.3411,83.6084-36.9184,84.9777-5.9177.4607-10.6049-4.7041-11.5124-5.7038Z"/>
  <path class="cls-6" d="M932.4505,297.1833c-16.9095-18.6266,16.1406-89.0547,68.8101-128.0795,31.2126-23.126,64.8592-31.9448,67.0155-28.0738,3.201,5.7447-69.5488,27.5687-96.9857,92.5782-12.3587,29.284-15.511,67.0512-29.6074,68.1493-4.7458.3695-8.5048-3.7725-9.2326-4.5742Z"/>
  <path class="cls-8" d="M928.3879,302.372c.9771.0107,1.9672,7.6619,7.2964,9.5882,5.3292,1.9263,10.9825-3.3236,11.7407-2.7071,1.0386.8445-7.853,12.0928-14.2919,9.7654-6.439-2.3274-6.0837-16.6612-4.7452-16.6465Z"/>
  <path class="cls-8" d="M868.3055,129.1332c-.2379.8733-8.511-1.8264-22.5041-2.7354-18.8549-1.2252-30.2248,1.9613-30.4221.9179-.2188-1.154,13.318-7.0263,29.2952-5.7715,13.1408,1.032,23.908,6.57,23.631,7.589Z"/>
  <path class="cls-10" d="M1000.883,88.9376c-.956,9.958-98.579,8.7333-218.0473-2.736-119.4683-11.4694-215.5413-28.8401-214.5853-38.7981.956-9.958,98.5789-8.7329,218.0473,2.7365,119.4683,11.4694,215.5413,28.8396,214.5853,38.7977Z"/>
  <path class="cls-6" d="M1041.485,101.461c-1.2625-1.0613,28.0819-1.5067,28.678-7.1417.5977-5.6356-28.0036-12.2151-26.5471-12.9885,1.9969-1.0593,58.9715,9.5361,58.2507,16.3446-.7207,6.8085-58.6514,5.2401-60.3816,3.7857Z"/>
  <path class="cls-6" d="M571.66,55.7822c2.462-1.0997-47.1829-10.3997-46.4931-18.3977.6873-7.9993,51.1925-8.6698,48.9552-10.1743-3.0677-2.0612-102.9172-4.2109-103.7499,5.4528-.8327,9.6637,97.9136,24.6261,101.2878,23.1192Z"/>
  <path class="cls-6" d="M635.8972,30.1622c.0543-1.0994,109.6147-3.0018,244.6765,20.8091,42.1862,7.4372,80.3129,16.2286,80.1667,16.9918-.1879,1.0003-65.8958-12.7736-149.9967-23.482-107.3803-13.6737-174.8883-13.4554-174.8465-14.3189Z"/>
  <path class="cls-10" d="M929.809,78.4238c-.956,9.958-98.579,8.7333-218.0473-2.736-119.4683-11.4694-215.5413-28.8401-214.5853-38.7981.956-9.958,98.5789-8.7329,218.0473,2.7365,119.4683,11.4694,215.5413,28.8396,214.5853,38.7977Z"/>
  <path class="cls-10" d="M929.809,78.4238c-.956,9.958-98.579,8.7333-218.0473-2.736-119.4683-11.4694-215.5413-28.8401-214.5853-38.7981.956-9.958,98.5789-8.7329,218.0473,2.7365,119.4683,11.4694,215.5413,28.8396,214.5853,38.7977Z"/>
  <path class="cls-10" d="M929.809,78.4238c-.956,9.958-98.579,8.7333-218.0473-2.736-119.4683-11.4694-215.5413-28.8401-214.5853-38.7981.956-9.958,98.5789-8.7329,218.0473,2.7365,119.4683,11.4694,215.5413,28.8396,214.5853,38.7977Z"/>
  <path class="cls-2" d="M907.9268,78.0977c-.7413,7.7218-76.4411,6.7721-169.0804-2.1216-92.6393-8.8937-167.1371-22.3635-166.3958-30.0852.7413-7.7218,76.4411-6.7717,169.0804,2.122,92.6393,8.8937,167.1372,22.3631,166.3959,30.0849Z"/>
  <path class="cls-3" d="M887.496,75.9147c-.6408,6.675-66.0785,5.854-146.1594-1.834-80.0809-7.688-144.4796-19.3318-143.8388-26.0068.6408-6.675,66.0785-5.8537,146.1594,1.8343,80.0809,7.688,144.4796,19.3315,143.8388,26.0065Z"/>
  <path class="cls-5" d="M838.3085,69.1372c-.4103,4.2733-42.3035,3.7478-93.5713-1.1741-51.2678-4.9219-92.4959-12.3762-92.0857-16.6496.4103-4.2733,42.3035-3.7476,93.5713,1.1743,51.2678,4.9219,92.4959,12.376,92.0857,16.6494Z"/>
</svg>