<?xml version="1.0" encoding="UTF-8"?>
<svg id="Layer_1" data-name="Layer 1" xmlns="http://www.w3.org/2000/svg" viewBox="0 0 1621.4173 1264.252">
  <defs>
    <style>
      .cls-1 {
        fill: #ca6628;
      }

      .cls-2 {
        fill: #e2b199;
      }

      .cls-3 {
        fill: #afafb0;
      }

      .cls-4 {
        fill: #ab474b;
      }

      .cls-5 {
        fill: #7d7c7c;
      }

      .cls-6 {
        fill: #fff;
      }

      .cls-7 {
        fill: #dc7427;
      }

      .cls-8 {
        fill: #9f3134;
      }

      .cls-9 {
        fill: #fff9c9;
      }

      .cls-10 {
        fill: #f68720;
      }

      .cls-11 {
        fill: #e5e3da;
      }

      .cls-12 {
        fill: #d8d4d4;
      }

      .cls-13 {
        fill: #852328;
      }
    </style>
  </defs>
  <g>
    <path class="cls-5" d="M665.4064,749.4531c2.3109-1.7603-.0868-7.096-2.2979-16.0704-16.0656-65.2044,18.7938-155.7423,59.798-162.7083,19.4419-3.3028,34.6074,13.1433,42.1859,5.5201,7.0879-7.1297,2.1311-29.8743-10.6144-36.5957-21.9618-11.5818-61.4219,27.377-65.98,22.1724-4.7296-5.4004,44.5145-39.6317,43.336-84.5468-.5822-22.1888-13.3906-43.9598-20.7709-43.0589-7.54.9203-6.9421,25.2026-13.3784,51.7931-16.1254,66.6192-71.5397,127.6301-98.5667,119.8612-14.772-4.2463-24.9789-30.1641-18.9038-46.1152,6.0519-15.8899,25.2765-14.0533,33.8764-31.8742,8.2022-16.997,2.1658-42.3986-7.3185-44.9662-15.9856-4.3278-60.5432,51.1298-61.5162,108.5731-1.5596,92.0853,109.2748,166.3006,120.1505,158.016Z"/>
    <path class="cls-3" d="M657.9525,743.5899c6.8762-3.9884-19.8545-35.739-11.6365-84.3639,7.7275-45.722,44.1974-93.5939,79.9739-94.3511,18.2613-.3865,31.7747,11.0785,38.3392,5.0168,6.3624-5.8752,1.6406-24.8883-9.9921-30.6175-20.0448-9.8726-55.4735,22.2238-59.6612,17.8395-4.3454-4.5492,40.009-32.6076,38.4988-70.0691-.7464-18.5068-12.584-36.7849-19.273-36.1062-6.8338.6933-6.0528,20.9457-11.6329,43.0534-13.9803,55.3884-63.6715,105.715-88.2757,98.972-13.4476-3.6856-22.9652-25.396-17.6084-38.6363,5.3363-13.1893,22.8013-11.4695,30.431-26.244,7.2769-14.0914,1.5493-35.3304-7.0833-37.5643-14.043-3.634-48.4938,42.9791-54.7618,89.9236-12.0164,89.9965,81.108,169.8605,92.682,163.1472Z"/>
    <path class="cls-5" d="M652.4978,456.8619c3.4088-9.4236,13.698-9.5146,14.7274-16.9093.9718-6.9804-6.964-15.7543-12.1819-14.9091-6.1858,1.0021-9.0194,15.5986-8.7272,25.4545.436,14.7127,8.0405,25.7144,8.7272,25.4547.6391-.2417-5.912-9.7844-2.5454-19.0909Z"/>
    <path class="cls-3" d="M651.2578,456.9154c2.6395-7.2969,10.6067-7.3674,11.4037-13.0933.7525-5.4051-5.3924-12.199-9.4328-11.5444-4.7898.776-6.9839,12.0784-6.7577,19.71.3376,11.3924,6.2259,19.9113,6.7577,19.7102.4948-.1872-4.5778-7.5763-1.971-14.7826Z"/>
    <path class="cls-5" d="M746.2018,510.168c8.672-5.0219,16.6081,1.5275,22.1532-3.4718,5.2345-4.7191,4.8031-16.5417.2644-19.2512-5.3806-3.2121-16.9399,6.1403-23.0566,13.8741-9.1309,11.5448-10.3862,24.8597-9.6934,25.1027.6448.2261,1.768-11.2942,10.3324-16.2537Z"/>
    <path class="cls-3" d="M745.218,509.4112c6.7149-3.8886,12.8601,1.1828,17.1538-2.6883,4.0532-3.6541,3.7192-12.8086.2047-14.9067-4.1663-2.4872-13.117,4.7546-17.8533,10.743-7.0703,8.9394-8.0423,19.2495-7.5059,19.4376.4993.175,1.369-8.7454,8.0007-12.5857Z"/>
    <path class="cls-5" d="M744.8372,529.9873c4.0443-2.3724,3.2081-7.1137,6.5221-8.2183,3.1283-1.0428,7.842,1.8592,7.8984,4.3318.0669,2.9312-6.4063,5.4805-10.9654,6.1872-6.8057,1.055-12.5159-1.5044-12.4551-1.8425.0567-.3146,5.0058,1.8847,8.9999-.4583Z"/>
    <path class="cls-3" d="M744.9184,530.5623c3.1316-1.837,2.4841-5.5083,5.0502-6.3636,2.4223-.8075,6.0723,1.4396,6.116,3.3542.0518,2.2697-4.9605,4.2437-8.4908,4.7909-5.2698.8169-9.6914-1.1649-9.6443-1.4267.0439-.2436,3.8761,1.4594,6.9688-.3548Z"/>
    <path class="cls-5" d="M814.5437,686.4987c.7254,1.4383,2.067,3.9943,3.4092,3.8184,1.4038-.1839,1.1734-3.106,2.9091-4.5456,2.9914-2.4813,8.9491,1.8236,13.4004,2.8246,12.8125,2.8817,20.657-20.2625,33.3167-20.7273,15.715-.577,35.807,30.2091,39.0608,61.091,2.8029,26.6044-7.6516,46.0559,1.1487,51.2729,7.8268,4.6397,19.1525-8.9335,31.0191-4.3636,14.8653,5.7247,10.672,32.2548,18.3816,33.8183,13.997,2.8386,53.9511-79.3094,35.6141-92.7277-12.1286-8.8755-39.7751,19.6251-49.4005,12.0001-16.7071-13.2353,34.3744-124.6288,90.7591-125.4549,21.2966-.312,37.7541,15.2313,41.3584,10.9092,4.489-5.3828-14.5696-37.2513-40.2097-40.3639-33.0302-4.0099-66.7636,40.9414-76.9727,54.5456-13.3568,17.7987-19.7821,32.917-24.1257,31.6365-7.6118-2.2441,13.1271-48.3756-10.3397-81.8183-11.1113-15.8348-29.8957-25.6359-35.6143-21.8184-6.3688,4.2516,8.6652,21.9238,2.2976,45.8184-4.6947,17.6168-18.7115,29.944-24.478,34.5052-.616.4872-1.0581.8244-1.9453,1.4949-18.6771,14.1126-29.9579,17.0162-42.907,28.4482-1.3944,1.2312-4.9442,4.4468-6.6819,9.682-.6702,2.0193-1.9528,6.0825,0,9.9544Z"/>
    <path class="cls-3" d="M819.2802,691.5962c.7275-.0328-.0946-3.9639,2.1273-5.6429,4.1389-3.1277,13.1285,5.8757,19.7774,2.0257.6631-.3839.9963-.7565,1.5059-1.1635,4.511-3.6031,17.4329-10.3656,22.6016-11.2752,14.3225-2.5202,42.1,27.0597,44.5334,61.3287,1.8644,26.2546-11.8478,45.51-4.324,51.0352,6.6965,4.9178,18.8124-9.0644,31.0189-4.3636,14.8653,5.7247,10.6722,32.2548,18.3816,33.8183,13.997,2.8386,53.9511-79.3094,35.6143-92.7277-12.1286-8.8755-39.7753,19.6251-49.4005,12.0001-16.7073-13.2353,34.3744-124.6288,90.7589-125.4549,21.2968-.312,37.7543,15.2313,41.3586,10.9092,4.489-5.3828-14.5696-37.2513-40.2097-40.3639-33.0302-4.0099-66.7636,40.9414-76.9727,54.5456-13.3568,17.7987-19.7821,32.917-24.1257,31.6365-7.6118-2.2441,13.1271-48.3756-10.3397-81.8183-11.1113-15.8348-29.8957-25.6359-35.6143-21.8184-6.3688,4.2516,8.6652,21.9238,2.2976,45.8184-4.6949,17.6175-18.7132,29.945-24.4785,34.5059-.6219.4919-1.0617.8273-1.9448,1.4941-26.9331,20.3408-41.9366,19.9241-45.3711,31.4891-1.9632,6.6109,1.8019,14.0668,2.8053,14.0215Z"/>
    <path class="cls-5" d="M947.5078,590.4421c4.5754-8.9156,14.7933-7.702,16.7514-14.9067,1.8485-6.8009-4.9114-16.5098-10.1944-16.3326-6.2629.2102-10.9233,14.3299-11.8825,24.1434-1.4319,14.6494,4.7171,26.526,5.4312,26.3555.6645-.1588-4.6244-10.4547-.1057-19.2596Z"/>
    <path class="cls-3" d="M946.271,590.338c3.5429-6.9036,11.4548-5.9639,12.971-11.5426,1.4314-5.2661-3.803-12.784-7.8938-12.6467-4.8495.1627-8.4582,11.096-9.2009,18.6948-1.1088,11.3434,3.6526,20.5397,4.2055,20.4077.5146-.1229-3.5808-8.0953-.0818-14.9132Z"/>
    <path class="cls-5" d="M957.0843,607.8478c2.1174-4.1835-1.1513-7.7182,1.038-10.4404,2.0665-2.5697,7.6008-2.6798,8.9862-.6309,1.6423,2.4289-2.4219,8.0753-5.8736,11.1365-5.1525,4.5698-11.3394,5.5071-11.4712,5.1899-.1226-.2952,5.2295-1.1236,7.3206-5.2552Z"/>
    <path class="cls-3" d="M957.4638,608.2874c1.6396-3.2394-.8915-5.9764.8037-8.0842,1.6002-1.9898,5.8855-2.075,6.9582-.4885,1.2717,1.8807-1.8754,6.2529-4.548,8.6233-3.9897,3.5385-8.7804,4.2643-8.8824,4.0187-.0949-.2286,4.0493-.87,5.6685-4.0692Z"/>
    <path class="cls-5" d="M978.7513,687.7717c10.0081.5099,13.0983,10.3246,20.4714,9.1509,6.9601-1.1078,13.0359-11.2589,10.7044-16.0029-2.7639-5.624-17.5518-4.074-26.8934-.9179-13.9449,4.7112-22.248,15.1955-21.7993,15.7765.4177.5407,7.6328-8.5103,17.5168-8.0066Z"/>
    <path class="cls-3" d="M978.3382,686.6013c7.7495.3949,10.1423,7.9946,15.8515,7.0858,5.3893-.8578,10.094-8.718,8.2887-12.3915-2.1401-4.3548-13.5908-3.1546-20.8242-.7108-10.7979,3.648-17.2272,11.7662-16.8797,12.2162.3234.4187,5.9103-6.5897,13.5637-6.1997Z"/>
    <path class="cls-5" d="M966.8146,703.6521c4.684.2124,6.5643-4.2197,9.9454-3.3416,3.1917.8288,5.5651,5.8295,4.266,7.9342-1.54,2.495-8.3575,1.1084-12.5663-.7813-6.2828-2.8209-9.6785-8.077-9.4434-8.3274.2188-.233,3.1723,4.3066,7.7982,4.5163Z"/>
    <path class="cls-3" d="M966.5697,704.1786c3.6269.1644,5.0829-3.2674,7.701-2.5875,2.4714.6418,4.3092,4.514,3.3033,6.1436-1.1925,1.9319-6.4714.8583-9.7304-.605-4.8649-2.1843-7.4943-6.2542-7.3122-6.4481.1695-.1804,2.4564,3.3347,6.0383,3.497Z"/>
    <path class="cls-5" d="M835.2802,616.9595c12.6477-34.2333-.1846-44.9181,10.909-66.5455,18.0826-35.2521,64.5026-30.8944,66.5457-51.2729,2.3115-23.0536-56.6052-33.5202-58.9092-65.4548-2.1988-30.477,49.1932-52.3977,43.6364-63.2729-3.7865-7.4105-31.3698-4.5133-51.2729,8.7273-24.2247,16.1156-40.3144,49.7108-31.6363,75.2729,9.9339,29.2606,47.3715,33.4155,45.8182,51.2729-1.2498,14.367-25.4547,11.3584-38.1819,32.7274-15.5407,26.0926,9.2354,49.5722-4.3636,94.9093-5.2307,17.4383-13.315,28.6965-12.0001,29.4547,1.8118,1.0447,19.5317-18.9601,29.4547-45.8184Z"/>
    <path class="cls-3" d="M828.9638,619.4151c12.4234-36.0135,1.0246-47.276,10.909-66.5455,18.0826-35.2521,64.5026-30.8944,66.5457-51.2729,2.3115-23.0536-56.6052-33.5202-58.9092-65.4548-2.1988-30.477,49.1932-52.3977,43.6364-63.2729-3.7865-7.4105-31.3698-4.5133-51.2729,8.7273-24.2247,16.1156-40.3144,49.7108-31.6363,75.2729,9.9339,29.2606,47.3715,33.4155,45.8182,51.2729-1.2668,14.5635-28.14,11.6032-38.1819,32.7274-10.4885,22.0637,12.2418,38.4901,5.9528,78.8172-2.9508,18.9221-10.6838,32.8022-9.5455,33.2728,1.2159.5028,10.3567-15.2035,16.6837-33.5445Z"/>
    <path class="cls-5" d="M889.7456,433.364c7.5505-6.5888,16.5934-1.6794,21.0792-7.6475,4.2346-5.6337,1.5484-17.1551-3.425-18.9459-5.8959-2.1229-15.4516,9.2689-19.975,18.0304-6.7525,13.0789-5.4363,26.388-4.7098,26.4939.6761.0985-.4263-11.4238,7.0306-17.9308Z"/>
    <path class="cls-3" d="M888.6351,432.8095c5.8465-5.1019,12.8487-1.3004,16.3221-5.9217,3.2789-4.3623,1.199-13.2836-2.6521-14.6703-4.5653-1.6438-11.9645,7.1772-15.4671,13.9614-5.2287,10.1273-4.2095,20.4329-3.6469,20.5148.5235.0762-.3301-8.8457,5.444-13.8843Z"/>
    <path class="cls-5" d="M796.1891,474.3229c1.7444,6.867,7.8877,8.3197,25.0911,20.7273,16.9943,12.2569,17.066,15.2148,16.9091,16.3637-1.0631,7.7872-22.6301,5.7724-27.8184,18-3.9724,9.362,4.8911,19.4506,2.1818,21.2727-3.0659,2.062-18.0248-8.4319-16.9091-18,1.1782-10.1044,19.2959-10.7064,20.7275-21.2727,1.1355-8.3808-8.9911-17.3846-15.8183-23.4548-9.4422-8.3951-15.0051-8.9691-15.8183-14.1817-1.3885-8.9017,12.9778-19.1343,15.2728-17.4546,1.8498,1.3538-6.1018,9.0102-3.8184,18Z"/>
    <path class="cls-3" d="M793.5322,474.6773c1.7444,6.867,7.8877,8.3197,25.0911,20.7273,16.9943,12.2569,17.066,15.2148,16.9091,16.3637-1.0631,7.7872-22.6301,5.7724-27.8184,18-3.9724,9.362,4.8911,19.4506,2.1818,21.2727-3.0659,2.062-18.0248-8.4319-16.9091-18,1.1782-10.1044,19.2959-10.7064,20.7275-21.2727,1.1355-8.3808-8.9911-17.3846-15.8183-23.4548-9.4422-8.3951-15.0051-8.9691-15.8183-14.1817-1.3885-8.9017,12.9778-19.1343,15.2728-17.4546,1.8498,1.3538-6.1018,9.0102-3.8184,18Z"/>
    <path class="cls-12" d="M912.044,634.4077c4.5551-5.196,7.7422-15.1419,1.6363-36.0001,3.8766,9.0189,8.4496,24.1792,2.7275,38.7273-2.2629,5.7535-8.1961,16.6481-13.091,15.8183-2.0205-.3426-3.796-2.6714-4-4.909-.483-5.3017,8.0216-8.269,12.7271-13.6365Z"/>
    <path class="cls-12" d="M927.5577,747.7204c-4.5551-5.196-7.7422-15.1419-1.6363-36.0001-3.8766,9.0189-8.4496,24.1792-2.7275,38.7273,2.2629,5.7535,8.1961,16.6481,13.091,15.8183,2.0205-.3426,3.796-2.6714,4-4.909.483-5.3017-8.0216-8.269-12.7271-13.6365Z"/>
    <path class="cls-12" d="M593.0266,542.1283c-4.5551,5.196-7.7422,15.1419-1.6363,36.0001-3.8766-9.0189-8.4496-24.1792-2.7275-38.7273,2.2629-5.7535,8.1961-16.6481,13.091-15.8183,2.0205.3426,3.796,2.6714,4,4.909.483,5.3017-8.0216,8.269-12.7271,13.6365Z"/>
    <path class="cls-12" d="M724.0789,492.0939c1.607,6.7205-.2109,17.0051-15.3376,32.6105,7.6346-6.1711,18.7486-17.4505,20.4697-32.9885.6807-6.1449.5116-18.5492-4.2056-20.0974-1.9472-.6389-4.6036.5933-5.8274,2.4778-2.8992,4.465,3.2409,11.0553,4.901,17.9976Z"/>
    <path class="cls-12" d="M833.258,428.2046c-1.607,6.7205.2109,17.0051,15.3376,32.6105-7.6346-6.1711-18.7486-17.4505-20.4697-32.9885-.6807-6.1449-.5116-18.5492,4.2056-20.0974,1.9472-.6389,4.6036.5933,5.8274,2.4778,2.8992,4.465-3.2409,11.0553-4.901,17.9976Z"/>
    <path class="cls-12" d="M633.4598,676.4523c-2.0593-.5458-2.9775,1.1427-5.4776.9683-10.3725-.724-14.6026-31.1919-17.0191-30.8302-1.8065.2706-3.8108,17.9798,3.6978,37.2043,7.2334,18.5199,17.3055,31.8895,22.4967,29.8619,6.7038-2.6183,4.6934-34.9796-3.6978-37.2043Z"/>
    <path class="cls-12" d="M877.2388,500.524c1.664-.6896,3.1754-.2967,5.39-.9569,9.1881-2.7392.9185-14.7953,3.2703-15.2412,1.7582-.3332,10.6423,5.6086,11.4387,14.3713.7672,8.4415-3.1101,15.6936-8.6603,16.198-7.1674.6514-18.219-11.5611-11.4387-14.3713Z"/>
    <path class="cls-12" d="M639.6455,623.3123c-1.1452-.0965,1.0926-26.5812,19.1634-41.0465,7.4798-5.9873,17.6644-9.8979,18.5163-8.1663.5922,1.2038-3.1207,5.5533-6.6072,8.3298-3.2854,2.6164-6.2197,3.588-6.9711,4.0204-16.205,9.3268-23.2408,36.9353-24.1014,36.8628Z"/>
    <path class="cls-12" d="M965.4135,644.7443c-1.1205-.2554,4.7935-26.1682,24.7072-37.9686,8.2425-4.8842,18.8734-7.3344,19.4752-5.5008.4183,1.2747-3.8655,5.0631-7.7056,7.3256-3.6185,2.132-6.6597,2.6843-7.4642,3.0076-17.3486,6.9726-28.1705,33.3282-29.0126,33.1362Z"/>
    <ellipse class="cls-12" cx="1046.8626" cy="599.9531" rx="3" ry="9" transform="translate(137.517 1393.0204) rotate(-70.9095)"/>
    <ellipse class="cls-12" cx="894.2081" cy="576.1185" rx="3.3636" ry="4.6364"/>
    <ellipse class="cls-12" cx="752.1345" cy="555.4075" rx="5.7273" ry="5"/>
    <ellipse class="cls-12" cx="579.3159" cy="619.6804" rx="2.1818" ry="6"/>
    <ellipse class="cls-12" cx="655.5888" cy="440.68" rx="2.6364" ry="3.9091"/>
    <path class="cls-12" d="M828.7712,509.7712c.0014,3.1729-4.4843,4.8862-4.9093,4.4544-.3311-.3363,1.8509-1.9243,1.8184-4.5454-.0316-2.5485-2.1316-4.0422-1.8184-4.3636.412-.4228,4.9079,1.2786,4.9093,4.4546Z"/>
    <path class="cls-12" d="M990.1595,744.86c-.6384.0953-.3499-5.7902-4.5538-9.1791-4.633-3.7346-11.1902-1.5904-11.3041-2.4016-.1293-.9193,8.0142-5.6446,13.3975-1.6981,5.4048,3.9622,3.2473,13.1614,2.4605,13.2788Z"/>
    <ellipse class="cls-12" cx="983.4079" cy="738.6808" rx="1.3636" ry="2"/>
    <path class="cls-12" d="M990.0957,691.8507c-.0208-.4495,3.8588-.8108,6.3821-4.1585,2.7808-3.6894,1.7948-8.1931,2.3397-8.3534.6176-.1817,3.2082,5.2124.2374,9.4612-2.9827,4.2658-8.9335,3.6046-8.9592,3.0507Z"/>
    <path class="cls-12" d="M975.0869,705.959c-.1015-.0167.0019-.9014-.627-1.6247-.693-.7971-1.747-.7904-1.757-.9198-.0113-.1467,1.318-.47,2.1271.3961.8124.8696.382,2.169.2569,2.1484Z"/>
    <path class="cls-12" d="M947.9639,569.7101c-.018.3882,3.3332.7004,5.5129,3.5921,2.4021,3.1869,1.5503,7.0772,2.021,7.2156.5335.157,2.7713-4.5025.2051-8.1726-2.5764-3.6848-7.7168-3.1137-7.739-2.6352Z"/>
    <path class="cls-12" d="M963.4608,600.949c-.0746.0708-.7175-.5457-1.6737-.4811-1.0538.0713-1.6848.9155-1.7941.8453-.1238-.0796.4211-1.3344,1.6-1.4565,1.1837-.1226,1.9597,1.005,1.8678,1.0923Z"/>
    <ellipse class="cls-12" cx="962.288" cy="603.2761" rx=".4791" ry=".4107"/>
    <ellipse class="cls-12" cx="950.7201" cy="577.9156" rx=".5476" ry="1.677"/>
    <path class="cls-12" d="M838.831,672.7554c.3221.7518,3.9412-.0318,6.182-.7273,3.583-1.1121,6.997-3.0404,14.9089-10.1817,3.0345-2.739,5.0939-4.5978,8.0002-7.6365,5.4701-5.7195,12.8175-14.4458,12.0001-15.2728-.7209-.7296-7.7042,4.7808-12.7274,9.4547-6.2386,5.8049-5.8917,7.0052-10.9092,11.6362-9.154,8.4489-17.9701,11.5242-17.4546,12.7274Z"/>
    <path class="cls-12" d="M895.5496,416.2555c-.018.3882,3.3332.7004,5.5129,3.5921,2.4021,3.1869,1.5503,7.0772,2.021,7.2156.5335.157,2.7713-4.5025.2051-8.1726-2.5764-3.6848-7.7168-3.1137-7.739-2.6352Z"/>
    <path class="cls-12" d="M758.1207,492.8805c-.228.3148,2.4032,2.4136,2.6401,6.0271.261,3.9822-2.5847,6.7683-2.267,7.1422.36.4238,4.7865-2.2453,4.6533-6.7216-.1337-4.4942-4.7454-6.8356-5.0263-6.4476Z"/>
    <ellipse class="cls-12" cx="750.5006" cy="526.8" rx=".9074" ry="1.2507"/>
    <path class="cls-2" d="M792.7146,766.3575c-1.2858,1.111-1.0712,2.7689-1.558,2.792-.6706.0319-2.1093-3.0654-.988-4.4697,1.4004-1.754,5.9088.2423,5.8575.6976-.0328.2922-1.9243-.218-3.3114.9802Z"/>
    <path class="cls-2" d="M810.2154,786.9356c-.1795-1.4225-.9528-1.9609-.8476-2.3322.145-.5114,1.8356-.2764,2.1819,1.1474.4326,1.7782-1.5056,4.2863-1.6918,4.0566-.1196-.1474.551-1.3374.3575-2.8718Z"/>
    <circle class="cls-2" cx="796.1341" cy="767.9611" r=".6674"/>
  </g>
  <g>
    <g>
      <path class="cls-8" d="M724.3787,891.8041c-55.3423-20.5285-66.5181-82.1555-67.9168-90.6781-2.4121-14.6982-2.4329-34.0821,4.0383-36.3446,8.0944-2.8302,19.8396,23.4025,29.0022,20.9257,9.7515-2.636,2.3778-33.9504,11.7478-67.1827,14.4831-51.3657,62.5232-84.4566,70.8538-78.9303,4.8064,3.1883-5.2831,18.1181-2.9368,49.1938,1.0015,13.2649,2.3819,31.5501,12.1149,35.6103,12.6007,5.2566,24.7404-19.3625,42.5855-16.1532,15.8286,2.8467,28.8669,26.2782,27.901,46.257-1.082,22.3862-19.5895,37.1944-16.1531,40.75,4.1432,4.2873,28.0937-20.2977,37.813-14.3176,9.9743,6.137,3.6706,43.6686-16.1532,70.4867-18.9189,25.5938-45.231,34.7727-56.5362,38.5473-12.7841,4.2686-42.7911,14.2878-76.3605,1.8356Z"/>
      <path class="cls-10" d="M728.225,885.7743c-14.5309-10.2638-27.5088-28.9287-27.285-49.2461.2713-24.6313,19.688-28.3265,27.285-64.8851,3.8891-18.7153.9927-28.2962,6.6549-30.6124,9.2602-3.7881,32.1189,15.6571,36.6018,38.5983,2.3834,12.1971-.9515,22.7011,2.9947,24.2903,5.2406,2.1105,12.6398-16.1129,21.9611-14.9735,11.6614,1.4255,16.3413,31.9109,16.6372,33.9399,2.7291,18.7125-2.2646,36.6173-3.6633,41.4715-.1613.5597-.2311.8432-.3296,1.1198-5.3819,15.1119-19.808,27.1895-36.2691,30.9452-22.3076,5.0896-39.5743-7.1066-44.5877-10.6478Z"/>
      <path class="cls-9" d="M751.2754,804.8845c-.901,2.98-3.8016,12.5734,0,20.2973,4.2434,8.6218,16.15,13.5174,24.623,10.9806,6.8279-2.0442,8.004-7.8902,11.646-7.3204,5.8456.9144,10.5328,17.1816,7.9859,31.2779-2.7217,15.0637-15.1177,35.4704-33.9399,36.2691-20.9521.8891-34.5827-23.1671-38.2656-38.9311-4.3926-18.8019,2.8627-36.5227,11.646-46.9169,6.6988-7.9273,16.9948-14.7982,18.6337-13.3097.8084.7342-.9483,3.0859-2.3292,7.6531Z"/>
    </g>
    <path class="cls-13" d="M862.029,818.7596c.07,6.8077-3.9313,16.2878-21.8828,27.9605,8.6864-4.2535,21.8351-12.6508,26.8952-27.1983,2.0012-5.7532,4.5586-17.7051.3671-20.2264-1.7303-1.0407-4.5521-.4395-6.1408,1.1022-3.7638,3.6531.6889,11.3296.7613,18.362Z"/>
    <path class="cls-13" d="M832.4298,736.4104c15.3366,17.5574-2.4802,46.5728-3.7465,46.3191-1.1954-.2395,10.05-27.0251-2.4217-41.7687-11.3617-13.4314-35.5411-8.753-35.5086-9.9544.0348-1.2827,27.7091-10.5863,41.6768,5.4041Z"/>
    <path class="cls-13" d="M711.8272,750.4184c-4.1139-1.0303-4.3115-24.6172,4.3423-46.2315,4.0981-10.2357,10.5853-21.0383,21.4554-29.1183,4.9886-3.7082,13.447-8.7359,15.5809-6.6409,3.0107,2.9555-12.6413,14.795-11.1109,30.6507,1.7288,17.9108,20.7604,28.4824,18.0073,32.5665-2.4624,3.6527-16.2397-6.9515-29.8844-1.9156-13.0567,4.8189-14.9064,21.5618-18.3905,20.6892Z"/>
    <path class="cls-13" d="M695.6445,866.5081c-.4318.3556-11.4535-9.2029-20.1512-25.0313-2.6667-4.853-5.5331-13.5374-11.266-30.9063-.8887-2.6923-3.1662-9.8438-3.1927-19.2845-.0161-5.7398-.0247-8.8054,1.9156-10.217,6.5443-4.761,31.3209,12.1573,29.1183,20.4339-.8173,3.0712-5.4559,5.3519-9.1953,4.9807-5.8539-.5811-7.9795-7.5092-10.071-6.8963-2.9509.8647-3.4712,16.0475,2.1528,32.4386,7.3679,21.4735,21.1796,34.0783,20.6893,34.4822Z"/>
    <path class="cls-13" d="M766.534,750.4513c-2.4628,2.8482,5.2194,9.1489,7.9357,22.4443,2.2956,11.2363-.4664,20.0721,1.7879,20.6893,2.0039.5488,3.336-6.6663,9.9615-9.4507,6.2808-2.6397,11.5365,1.1322,13.282-1.4032,1.6437-2.3874-1.0318-8.6152-4.8531-9.5801-5.0859-1.2841-9.5251,7.4295-12.5157,6.1302-4.1498-1.8028,3.6266-18.9148-3.8313-26.5014-3.5623-3.6237-9.9581-4.4208-11.767-2.3286Z"/>
    <path class="cls-13" d="M796.2404,887.4528c.6988,1.0063,10.3524-2.3066,16.9183-10.4099,7.1332-8.8035,7.0575-18.862,7.0317-22.2841-.0533-7.084-2.0997-13.3681-2.8096-13.282-.9289.1126,2.3675,10.8949-1.4035,22.2217-5.2152,15.6647-20.6439,22.4483-19.7369,23.7544Z"/>
    <path class="cls-7" d="M753.7562,810.2861c-3.2197,3.7539-1.0215,10.263,1.2203,13.6977,5.2321,8.0164,18.3304,10.9749,24.7022,5.977,3.4942-2.7407,4.9543-7.8655,3.7357-8.9384-1.4795-1.3024-6.0348,5.0627-11.7054,3.9575-4.0082-.7812-7.5402-5.0804-8.4648-9.2007-.8978-4.0011,1.0054-6.3068-.5009-7.7346-1.7749-1.6823-6.5912-.5518-8.9871,2.2415Z"/>
    <path class="cls-11" d="M770.4166,883.9482c-.7701,4.4505-12.8551,8.328-21.2031,4.0166-8.2211-4.2459-9.7749-15.6755-9.0346-16.0462.7389-.37,6.4035,12.7743,10.1792,11.8222,2.6491-.668,1.2884-7.4925,4.8944-9.3838,4.7942-2.5144,15.9672,4.9497,15.1642,9.5912Z"/>
    <ellipse class="cls-11" cx="734.7277" cy="866.5177" rx="2.9814" ry="4.749"/>
    <path class="cls-4" d="M720.732,729.3034c-1.7401-.4358-1.8237-10.4125,1.8367-19.5548,1.7334-4.3294,4.4773-8.8987,9.0751-12.3164,2.1101-1.5685,5.6877-3.6951,6.5904-2.8089,1.2735,1.2501-5.347,6.2579-4.6997,12.9645.7312,7.5759,8.7811,12.0474,7.6166,13.7749-1.0415,1.545-6.869-2.9403-12.6404-.8103-5.5227,2.0383-6.3051,9.1201-7.7788,8.751Z"/>
    <path class="cls-4" d="M772.3081,761.1234c-1.5511,1.7939,3.2873,5.7622,4.9981,14.136,1.4458,7.0769-.2938,12.642,1.1261,13.0307,1.2621.3456,2.1011-4.1986,6.274-5.9523,3.9558-1.6625,7.266.7131,8.3654-.8837,1.0352-1.5036-.6498-5.4261-3.0566-6.0338-3.2032-.8087-5.9991,4.6793-7.8827,3.861-2.6137-1.1355,2.2841-11.9131-2.4131-16.6913-2.2436-2.2823-6.2718-2.7843-7.4112-1.4666Z"/>
    <path class="cls-4" d="M687.2956,858.5013c-.248.1615-8.8391-9.7169-15.4375-24.4827-3.2125-7.189-6.0969-15.8132-9.2857-25.4739-.7325-2.2191-2.6097-8.1135-2.6316-15.8948-.0133-4.7309-.0202-7.2576,1.5791-8.4211,5.394-3.9242,25.8154,10.0203,24,16.8423-.6735,2.5313-4.4968,4.411-7.5789,4.1051-4.825-.4789-6.577-6.1892-8.3008-5.6842-2.3201.6798-2.3683,12.5754,1.7744,26.7369,5.7385,19.6168,16.1579,32.0923,15.8811,32.2723Z"/>
    <path class="cls-4" d="M830.4931,738.5741c14.7058,17.5887-2.4633,46.5772-3.7465,46.3191-1.1987-.241,9.9292-26.3182-2.4217-41.7687-10.9285-13.6712-33.6975-10.8386-33.572-12.1182.135-1.376,26.7864-7.9251,39.7401,7.5678Z"/>
    <path class="cls-4" d="M862.2098,819.9551c.2393,5.2987-2.2651,12.9862-15.1465,22.9145,13.4732-8.3791,17.6007-17.9383,19.0279-22.3241,1.2853-3.9498,3.6212-13.6558.2842-15.663-1.3399-.806-3.5251-.3404-4.7553.8536-2.904,2.8185.3448,8.7959.5897,14.219Z"/>
    <path class="cls-1" d="M753.2832,815.3962c-2.0783,3.8971,2.8116,9.4689,3.21,9.9125,5.0585,5.6328,14.4706,7.1004,20.0349,3.7361,2.8338-1.7134,4.0181-4.9164,3.0298-5.5871-1.1438-.7759-4.7059,3.1286-9.4936,2.4737-2.9363-.4017-5.8369-2.4811-6.7935-4.9106-.8804-2.2358.6545-3.5724-.4784-5.6747-.7949-1.4754-2.4479-2.6115-4.2731-2.7594-2.2512-.1824-4.3625,1.1714-5.2361,2.8096Z"/>
    <circle class="cls-2" cx="761.039" cy="819.1014" r="1.3703"/>
    <circle class="cls-6" cx="734.5297" cy="868.2358" r="1.7181"/>
    <path class="cls-6" d="M764.9634,883.732c.1358,2.7076-5.5946,5.9765-10.4929,5.287-4.5578-.6417-7.5546-4.5924-7.3224-4.9273.2697-.3891,5.2301,3.6194,7.0043,2.2105,1.5221-1.2087-.9874-5.065.5513-6.5959,2.0185-2.0082,10.102.8835,10.2597,4.0258Z"/>
    <path class="cls-2" d="M863.8292,808.6401c-1.4614.8169-1.5834,2.4595-2.0578,2.3852-.6536-.1025-1.427-3.3771-.066-4.5097,1.6996-1.4145,5.654,1.407,5.5141,1.8362-.0897.2756-1.8139-.5925-3.3903.2883Z"/>
    <path class="cls-2" d="M826.9113,740.8962c-1.8135-1.672-3.4275-1.5225-3.7008-2.1276-.3764-.8334,2.1078-2.3989,4.1421-.9103,2.5407,1.8591,2.7726,7.3069,2.273,7.2114-.3207-.0612-.7583-2.3699-2.7143-4.1735Z"/>
    <circle class="cls-2" cx="820.9184" cy="736.8374" r=".7212"/>
    <path class="cls-2" d="M681.4844,798.9933c.2104,1.1501-.5657,2.2976-1.5024,2.797-1.7063.9097-3.8962-.3578-3.8464-.8309.0615-.5832,3.5419-.0972,4.0867-1.5251.38-.9957-.9389-2.2116-.7041-2.4073.221-.1842,1.7199.6195,1.9662,1.9662Z"/>
  </g>
</svg>