<?xml version="1.0" encoding="UTF-8"?>
<svg id="Layer_1" data-name="Layer 1" xmlns="http://www.w3.org/2000/svg" viewBox="0 0 1621.4173 1264.252">
  <defs>
    <style>
      .cls-1 {
        fill: #ffcb05;
      }

      .cls-2 {
        fill: #fbe35b;
      }

      .cls-3 {
        fill: #ffde9d;
      }
    </style>
  </defs>
  <path class="cls-1" d="M1218.5482,1257.8188c-271.8925-290.3655-543.7867-580.7327-815.6791-871.0999,154.6826-11.3943,309.3652-22.7868,464.0496-34.181-107.0196-114.4536-214.0409-228.9054-321.0605-343.359,122.1851-.9153,244.3719-1.8305,366.557-2.7458,78.5978,141.8604,157.1939,283.7207,235.7917,425.5811-134.2129,19.9098-268.4257,39.8195-402.6386,59.7275,157.6594,255.3602,315.3205,510.7186,472.9799,766.0771Z"/>
  <path class="cls-2" d="M865.252,350.0389c-10.2953-14.3308-53.011-73.8142-63.301-88.1484-60.5973-84.4148-121.1736-168.8909-181.7289-253.4282-24.7888.2389-49.5758.4778-74.3646.7166,150.1781,160.2712,319.3787,340.8443,319.3945,340.86Z"/>
  <path class="cls-2" d="M430.3867,416.1058c359.4109-47.9825,436.8423-61.0178,436.5315-63.568-.2631-2.1602-56.2237,4.1414-168.3118,12.3977-74.7224,5.504-173.7117,12.7953-295.7372,21.7834,9.1725,9.7956,18.345,19.5913,27.5176,29.3869Z"/>
  <ellipse class="cls-3" cx="710.8774" cy="655.9088" rx="6.5249" ry="83.5191" transform="translate(-249.2759 538.9962) rotate(-35.7545)"/>
  <ellipse class="cls-3" cx="904.6125" cy="248.0452" rx="13.49" ry="173.5806" transform="translate(33.2292 595.2359) rotate(-37.0578)"/>
</svg>