<?xml version="1.0" encoding="UTF-8"?>
<svg id="Layer_1" data-name="Layer 1" xmlns="http://www.w3.org/2000/svg" viewBox="0 0 1621.4173 1264.252">
  <defs>
    <style>
      .cls-1 {
        fill: #ffcb05;
      }

      .cls-2 {
        fill: #fbe35b;
      }

      .cls-3 {
        fill: #ffde9d;
      }
    </style>
  </defs>
  <path class="cls-1" d="M934.5984,822.1931c-82.593-88.2045-165.1864-176.4096-247.7794-264.6146,46.988-3.4612,93.9761-6.922,140.9647-10.3832-32.5094-34.7676-65.0194-69.5348-97.5288-104.3024,37.1162-.278,74.233-.5561,111.3493-.8341,23.8757,43.093,47.7509,86.186,71.6266,129.2791-40.7699,6.048-81.5399,12.096-122.3098,18.1435,47.8923,77.5709,95.7851,155.1413,143.6774,232.7118Z"/>
  <path class="cls-2" d="M827.2773,546.4362c-3.1274-4.3533-16.1032-22.4226-19.229-26.7769-18.4077-25.6427-36.809-51.3041-55.2039-76.9841-7.5301.0726-15.0597.1451-22.5898.2177,45.6197,48.6857,97.0179,103.5385,97.0227,103.5433Z"/>
  <path class="cls-2" d="M695.178,566.5054c109.1785-14.5757,132.6999-18.5354,132.6055-19.3101-.0799-.6562-17.0791,1.258-51.1282,3.7661-22.6985,1.672-52.7685,3.8868-89.8363,6.6171,2.7863,2.9756,5.5727,5.9513,8.359,8.9269Z"/>
  <ellipse class="cls-3" cx="780.3828" cy="639.3505" rx="1.9821" ry="25.3706" transform="translate(-226.5009 576.4885) rotate(-35.7545)"/>
  <ellipse class="cls-3" cx="839.2339" cy="515.4535" rx="4.0979" ry="52.7287" transform="translate(-141.1211 609.8463) rotate(-37.0578)"/>
</svg>