<?xml version="1.0" encoding="UTF-8"?>
<svg id="Layer_1" data-name="Layer 1" xmlns="http://www.w3.org/2000/svg" viewBox="0 0 1621.4173 1264.252">
  <defs>
    <style>
      .cls-1 {
        fill: #b5b5b5;
      }

      .cls-2 {
        fill: #838384;
      }

      .cls-3 {
        fill: #bababa;
      }

      .cls-4 {
        fill: #6b6c6c;
      }

      .cls-5 {
        fill: #fff;
      }

      .cls-6 {
        fill: #868686;
      }

      .cls-7 {
        fill: #4a4b4a;
      }

      .cls-8 {
        fill: #d4d2d1;
      }

      .cls-9 {
        fill: #181817;
      }

      .cls-10 {
        fill: #c8c8c8;
      }

      .cls-11 {
        fill: #c4c3c3;
      }
    </style>
  </defs>
  <rect class="cls-9" x="793.111" y="681.6916" width="35.1952" height="20.593" rx="3.2772" ry="3.2772" transform="translate(1502.6968 -118.7206) rotate(90)"/>
  <path class="cls-7" d="M815.7128,699.7261c-.3125.3012-2.4493,2.2925-5.4816,1.8721-2.2684-.3144-3.6642-1.7879-4.0671-2.2465-1.3556,14.1655-2.7114,28.3309-4.067,42.4964,2.2831,3.9408,6.4288,5.8652,10.0792,4.8674,3.514-.9605,5.1817-4.2495,5.4817-4.8674-.6484-14.0407-1.2968-28.0813-1.9451-42.122Z"/>
  <rect class="cls-7" x="801.8674" y="685.7278" width="18.9081" height="10.0869" rx="3.2227" ry="3.2227" transform="translate(1502.0927 -120.5502) rotate(90)"/>
  <path class="cls-9" d="M810.9906,665.6069c-.3598.0913-3.8375.9739-3.8364,2.2499.0011,1.2727,3.4628,2.1486,3.8364,2.2431,2.3805.6023,4.4382.2813,5.6163,0,.9041-.3771,1.4963-1.2642,1.4977-2.2431.0014-.9813-.5914-1.8718-1.4977-2.2499-1.1773-.2819-3.2358-.6042-5.6163,0Z"/>
  <path class="cls-9" d="M810.9906,635.5444c-.3598.0913-3.8375.9739-3.8364,2.2499.0011,1.2727,3.4628,2.1486,3.8364,2.2431,2.3805.6023,4.4382.2813,5.6163,0,.9041-.3771,1.4963-1.2642,1.4977-2.2431.0014-.9813-.5914-1.8718-1.4977-2.2499-1.1773-.2819-3.2358-.6042-5.6163,0Z"/>
  <path class="cls-9" d="M810.9906,650.8807c-.3598.0913-3.8375.9739-3.8364,2.2499.0011,1.2727,3.4628,2.1486,3.8364,2.2431,2.3805.6023,4.4382.2813,5.6163,0,.9041-.3771,1.4963-1.2642,1.4977-2.2431.0014-.9813-.5914-1.8718-1.4977-2.2499-1.1773-.2819-3.2358-.6042-5.6163,0Z"/>
  <path class="cls-9" d="M810.9906,621.6137c-.3598.0913-3.8375.9739-3.8364,2.2499.0011,1.2727,3.4628,2.1486,3.8364,2.2431,2.3805.6023,4.4382.2813,5.6163,0,.9041-.3771,1.4963-1.2642,1.4977-2.2431.0014-.9813-.5914-1.8718-1.4977-2.2499-1.1773-.2819-3.2358-.6042-5.6163,0Z"/>
  <path class="cls-9" d="M807.996,642.9222c.3598.0913,3.8375.9739,3.8364,2.2499-.0011,1.2727-3.4628,2.1486-3.8364,2.2431-2.3805.6023-4.4382.2813-5.6163,0-.9041-.3771-1.4963-1.2642-1.4977-2.2431-.0014-.9813.5914-1.8718,1.4977-2.2499,1.1773-.2819,3.2358-.6042,5.6163,0Z"/>
  <path class="cls-9" d="M807.7464,657.5557c.3598.0913,3.8375.9739,3.8364,2.2499-.0011,1.2727-3.4628,2.1486-3.8364,2.2431-2.3805.6023-4.4382.2813-5.6163,0-.9041-.3771-1.4963-1.2642-1.4977-2.2431-.0014-.9813.5914-1.8718,1.4977-2.2499,1.1773-.2819,3.2358-.6042,5.6163,0Z"/>
  <path class="cls-9" d="M807.7464,628.2887c.3598.0913,3.8375.9739,3.8364,2.2499-.0011,1.2727-3.4628,2.1486-3.8364,2.2431-2.3805.6023-4.4382.2813-5.6163,0-.9041-.3771-1.4963-1.2642-1.4977-2.2431-.0014-.9813.5914-1.8718,1.4977-2.2499,1.1773-.2819,3.2358-.6042,5.6163,0Z"/>
  <path class="cls-9" d="M808.1208,599.4897c.3598.0913,3.8375.9739,3.8364,2.2499-.0011,1.2727-3.4628,2.1486-3.8364,2.2431-2.3805.6023-4.4382.2813-5.6163,0-.9041-.3771-1.4963-1.2642-1.4977-2.2431-.0014-.9813.5914-1.8718,1.4977-2.2499,1.1773-.2819,3.2358-.6042,5.6163,0Z"/>
  <path class="cls-9" d="M807.8712,614.1232c.3598.0913,3.8375.9739,3.8364,2.2499-.0011,1.2727-3.4628,2.1486-3.8364,2.2431-2.3805.6023-4.4382.2813-5.6163,0-.9041-.3771-1.4963-1.2642-1.4977-2.2431-.0014-.9813.5914-1.8718,1.4977-2.2499,1.1773-.2819,3.2358-.6042,5.6163,0Z"/>
  <path class="cls-9" d="M807.8712,584.8562c.3598.0913,3.8375.9739,3.8364,2.2499-.0011,1.2727-3.4628,2.1486-3.8364,2.2431-2.3805.6023-4.4382.2813-5.6163,0-.9041-.3771-1.4963-1.2642-1.4977-2.2431-.0014-.9813.5914-1.8718,1.4977-2.2499,1.1773-.2819,3.2358-.6042,5.6163,0Z"/>
  <path class="cls-9" d="M810.9906,591.3298c-.3598.0913-3.8375.9739-3.8364,2.2499.0011,1.2727,3.4628,2.1486,3.8364,2.2431,2.3805.6023,4.4382.2813,5.6163,0,.9041-.3771,1.4963-1.2642,1.4977-2.2431.0014-.9813-.5914-1.8718-1.4977-2.2499-1.1773-.2819-3.2358-.6042-5.6163,0Z"/>
  <path class="cls-9" d="M810.9906,606.6661c-.3598.0913-3.8375.9739-3.8364,2.2499.0011,1.2727,3.4628,2.1486,3.8364,2.2431,2.3805.6023,4.4382.2813,5.6163,0,.9041-.3771,1.4963-1.2642,1.4977-2.2431.0014-.9813-.5914-1.8718-1.4977-2.2499-1.1773-.2819-3.2358-.6042-5.6163,0Z"/>
  <path class="cls-9" d="M810.9906,577.3991c-.3598.0913-3.8375.9739-3.8364,2.2499.0011,1.2727,3.4628,2.1486,3.8364,2.2431,2.3805.6023,4.4382.2813,5.6163,0,.9041-.3771,1.4963-1.2642,1.4977-2.2431.0014-.9813-.5914-1.8718-1.4977-2.2499-1.1773-.2819-3.2358-.6042-5.6163,0Z"/>
  <path class="cls-9" d="M808.1208,569.0382c.3598.0913,3.8375.9739,3.8364,2.2499-.0011,1.2727-3.4628,2.1486-3.8364,2.2431-2.3805.6023-4.4382.2813-5.6163,0-.9041-.3771-1.4963-1.2642-1.4977-2.2431-.0014-.9813.5914-1.8718,1.4977-2.2499,1.1773-.2819,3.2358-.6042,5.6163,0Z"/>
  <path class="cls-9" d="M807.8712,554.4047c.3598.0913,3.8375.9739,3.8364,2.2499-.0011,1.2727-3.4628,2.1486-3.8364,2.2431-2.3805.6023-4.4382.2813-5.6163,0-.9041-.3771-1.4963-1.2642-1.4977-2.2431-.0014-.9813.5914-1.8718,1.4977-2.2499,1.1773-.2819,3.2358-.6042,5.6163,0Z"/>
  <path class="cls-9" d="M810.9906,560.8782c-.3598.0913-3.8375.9739-3.8364,2.2499.0011,1.2727,3.4628,2.1486,3.8364,2.2431,2.3805.6023,4.4382.2813,5.6163,0,.9041-.3771,1.4963-1.2642,1.4977-2.2431.0014-.9813-.5914-1.8718-1.4977-2.2499-1.1773-.2819-3.2358-.6042-5.6163,0Z"/>
  <path class="cls-9" d="M810.9906,546.9475c-.3598.0913-3.8375.9739-3.8364,2.2499.0011,1.2727,3.4628,2.1486,3.8364,2.2431,2.3805.6023,4.4382.2813,5.6163,0,.9041-.3771,1.4963-1.2642,1.4977-2.2431.0014-.9813-.5914-1.8718-1.4977-2.2499-1.1773-.2819-3.2358-.6042-5.6163,0Z"/>
  <path class="cls-9" d="M816.248,520.4243c-.6644-.6526-3.0336-2.8186-6.7507-3.1148-4.7795-.3809-7.9927,2.6322-8.4905,3.1148v25.4604c.1928,1.5103,1.5474,2.5408,2.8854,2.3713,1.1293-.143,2.0774-1.1195,2.2153-2.3713v-16.4744c.2896-.2265,1.2818-.9449,2.741-.9438,1.455.0011,2.4441.7169,2.7341.9438v11.9814c.1662,1.1299,1.088,1.9855,2.1692,2.0593,1.1923.0813,2.3056-.8067,2.4961-2.0593v-20.9674Z"/>
  <path class="cls-4" d="M813.6405,697.2264c.2078-1.8854.3467-3.9811.3544-6.2563.0082-2.4317-.1348-4.6622-.3544-6.6541,0-.3179.2615-.5794.5794-.5794.3187,0,.5794.2607.5794.5794.1786,1.9995.29,4.1841.2876,6.5293-.0023,2.2885-.1128,4.423-.2876,6.3811,0,.3178-.2616.5794-.5794.5794-.3187,0-.5794-.2607-.5794-.5794Z"/>
  <path class="cls-4" d="M807.2921,697.0811c0-.3986.3261-.7247.7247-.7247.2288.0725.5679.1521.9835.1521s.7547-.0796.9835-.1521c.049.0002.3048.006.5118.2129.1314.1314.2129.3125.2129.5118,0,.3986-.3262.7247-.7248.7247.0454.628-.3558,1.1408-.7963,1.2143-.5232.0872-1.1822-.4318-1.1707-1.2143-.4204-.0809-.7247-.3948-.7247-.7247Z"/>
  <path class="cls-4" d="M810.7087,706.6528c-2.6533,0-4.0291-3.5679-3.791-3.791.2025-.1898,1.6036,2.0125,3.791,2.0125s3.5884-2.2023,3.7909-2.0125c.2381.2231-1.1376,3.791-3.7909,3.791Z"/>
  <path class="cls-4" d="M813.3808,712.9243c.4035,1.1387.9245,2.8965,1.1453,5.0859.3787,3.7533-.3645,6.3978-.7313,8.5102-.4896,2.8189-.7117,7.0083.7449,12.6132.0431,1.2405-.9167,2.1249-1.7872,2.0593-.6202-.0467-1.2019-.5761-1.4309-1.3104-.4218-1.6289-.8819-4.1364-.6128-7.1451.2122-2.3724.7896-4.0706,1.014-4.7738.8907-2.7907,1.7926-7.3598,1.6581-15.0391Z"/>
  <ellipse class="cls-4" cx="805.8046" cy="737.6515" rx="1.0866" ry="2.8549"/>
  <ellipse class="cls-1" cx="805.8046" cy="736.6983" rx=".6116" ry="1.6069"/>
  <path class="cls-1" d="M812.0902,735.2152c-.1293-.0209-.9036,1.2513-.4939,2.6108.3494,1.1594,1.4261,1.9384,1.5407,1.8795.1107-.0569-.7283-.8695-1.0363-2.2587-.291-1.3123.0969-2.2143-.0105-2.2316Z"/>
  <path class="cls-6" d="M806.8912,677.0426c0,.2832.2316.5148.5148.5148,1.0775-.2668,2.5175-.5148,4.222-.5148,1.1101,0,2.5674.1052,4.222.5148.0348-.0001.2166-.0042.3636-.1512.0933-.0933.1512-.222.1512-.3636,0-.2831-.2317-.5148-.5148-.5148-1.0563-.2697-2.4689-.5226-4.1429-.5304-1.7475-.0081-3.217.2537-4.3011.5304-.2986.0575-.5148.2805-.5148.5148Z"/>
  <path class="cls-3" d="M808.4168,682.9906c-1.1116.6731-1.4059,1.8428-1.4668,1.8124-.0712-.0355.213-1.6906,1.4668-2.2843.84-.3978,1.7849-.1629,1.791-.0673.0061.0938-.8961-.0027-1.791.5392Z"/>
  <path class="cls-4" d="M802.4327,658.8834c-.1234.6329.1656,1.0607.0331,1.0625-.1649.0023-.8876-.6567-.7645-1.2448.1231-.5883,1.0496-.9005,1.2012-.8314.1258.0573-.3405.3504-.4698,1.0137Z"/>
  <path class="cls-2" d="M807.0979,661.6073c-1.5508.2706-2.9013-.3177-2.8861-.4007.0134-.073,1.0774.2759,2.6729.0817,1.2514-.1523,2.0593-.545,2.0854-.4766.0271.071-.8007.6087-1.8721.7956Z"/>
  <path class="cls-10" d="M807.1577,661.6633c-1.5874.3156-2.9509-.4027-2.94-.4459.0106-.0418,1.3049.5674,2.9594.2579,1.0486-.1962,1.7672-.6727,1.7827-.6403.0163.0341-.7524.6196-1.8021.8283Z"/>
  <ellipse class="cls-10" cx="802.0384" cy="658.7422" rx=".0878" ry=".2633"/>
  <path class="cls-4" d="M803.1602,644.2499c-.1234.6329.1656,1.0607.0331,1.0625-.1649.0023-.8876-.6567-.7645-1.2448.1231-.5883,1.0496-.9005,1.2012-.8314.1258.0573-.3405.3504-.4698,1.0137Z"/>
  <path class="cls-2" d="M807.8254,646.9738c-1.5508.2706-2.9013-.3177-2.8861-.4007.0134-.073,1.0774.2759,2.6729.0817,1.2514-.1523,2.0593-.545,2.0854-.4766.0271.071-.8007.6087-1.8721.7956Z"/>
  <path class="cls-10" d="M807.8852,647.0298c-1.5874.3156-2.9509-.4027-2.94-.4459.0106-.0418,1.3049.5674,2.9594.2579,1.0486-.1962,1.7672-.6727,1.7827-.6403.0163.0341-.7524.6196-1.8021.8283Z"/>
  <ellipse class="cls-10" cx="802.7658" cy="644.1087" rx=".0878" ry=".2633"/>
  <path class="cls-4" d="M802.8932,629.6309c-.1234.6329.1656,1.0607.0331,1.0625-.1649.0023-.8876-.6567-.7645-1.2448.1231-.5883,1.0496-.9005,1.2012-.8314.1258.0573-.3405.3504-.4698,1.0137Z"/>
  <path class="cls-2" d="M807.5584,632.3547c-1.5508.2706-2.9013-.3177-2.8861-.4007.0134-.073,1.0774.2759,2.6729.0817,1.2514-.1523,2.0593-.545,2.0854-.4766.0271.071-.8007.6087-1.8721.7956Z"/>
  <path class="cls-10" d="M807.6182,632.4107c-1.5874.3156-2.9509-.4027-2.94-.4459.0106-.0418,1.3049.5674,2.9594.2579,1.0486-.1962,1.7672-.6727,1.7827-.6403.0163.0341-.7524.6196-1.8021.8283Z"/>
  <ellipse class="cls-10" cx="802.4988" cy="629.4896" rx=".0878" ry=".2633"/>
  <path class="cls-4" d="M802.8826,615.451c-.1234.6329.1656,1.0607.0331,1.0625-.1649.0023-.8876-.6567-.7645-1.2448.1231-.5883,1.0496-.9005,1.2012-.8314.1258.0573-.3405.3504-.4698,1.0137Z"/>
  <path class="cls-2" d="M807.5478,618.1748c-1.5508.2706-2.9013-.3177-2.8861-.4007.0134-.073,1.0774.2759,2.6729.0817,1.2514-.1523,2.0593-.545,2.0854-.4766.0271.071-.8007.6087-1.8721.7956Z"/>
  <path class="cls-10" d="M807.6076,618.2308c-1.5874.3156-2.9509-.4027-2.94-.4459.0106-.0418,1.3049.5674,2.9594.2579,1.0486-.1962,1.7672-.6727,1.7827-.6403.0163.0341-.7524.6196-1.8021.8283Z"/>
  <ellipse class="cls-10" cx="802.4882" cy="615.3097" rx=".0878" ry=".2633"/>
  <path class="cls-4" d="M803.1914,600.8175c-.1234.6329.1656,1.0607.0331,1.0625-.1649.0023-.8876-.6567-.7645-1.2448.1231-.5883,1.0496-.9005,1.2012-.8314.1258.0573-.3405.3504-.4698,1.0137Z"/>
  <path class="cls-2" d="M807.8566,603.5414c-1.5508.2706-2.9013-.3177-2.8861-.4007.0134-.073,1.0774.2759,2.6729.0817,1.2514-.1523,2.0593-.545,2.0854-.4766.0271.071-.8007.6087-1.8721.7956Z"/>
  <path class="cls-10" d="M807.9164,603.5973c-1.5874.3156-2.9509-.4027-2.94-.4459.0106-.0418,1.3049.5674,2.9594.2579,1.0486-.1962,1.7672-.6727,1.7827-.6403.0163.0341-.7524.6196-1.8021.8283Z"/>
  <ellipse class="cls-10" cx="802.7971" cy="600.6763" rx=".0878" ry=".2633"/>
  <path class="cls-4" d="M802.3801,586.0269c-.1234.6329.1656,1.0607.0331,1.0625-.1649.0023-.8876-.6567-.7645-1.2448.1231-.5883,1.0496-.9005,1.2012-.8314.1258.0573-.3405.3504-.4698,1.0137Z"/>
  <path class="cls-2" d="M807.0454,588.7508c-1.5508.2706-2.9013-.3177-2.8861-.4007.0134-.073,1.0774.2759,2.6729.0817,1.2514-.1523,2.0593-.545,2.0854-.4766.0271.071-.8007.6087-1.8721.7956Z"/>
  <path class="cls-10" d="M807.1051,588.8068c-1.5874.3156-2.9509-.4027-2.94-.4459.0106-.0418,1.3049.5674,2.9594.2579,1.0486-.1962,1.7672-.6727,1.7827-.6403.0163.0341-.7524.6196-1.8021.8283Z"/>
  <ellipse class="cls-10" cx="801.9858" cy="585.8857" rx=".0878" ry=".2633"/>
  <path class="cls-4" d="M802.9878,570.3659c-.1234.6329.1656,1.0607.0331,1.0625-.1649.0023-.8876-.6567-.7645-1.2448.1231-.5883,1.0496-.9005,1.2012-.8314.1258.0573-.3405.3504-.4698,1.0137Z"/>
  <path class="cls-2" d="M807.653,573.0898c-1.5508.2706-2.9013-.3177-2.8861-.4007.0134-.073,1.0774.2759,2.6729.0817,1.2514-.1523,2.0593-.545,2.0854-.4766.0271.071-.8007.6087-1.8721.7956Z"/>
  <path class="cls-10" d="M807.7128,573.1458c-1.5874.3156-2.9509-.4027-2.94-.4459.0106-.0418,1.3049.5674,2.9594.2579,1.0486-.1962,1.7672-.6727,1.7827-.6403.0163.0341-.7524.6196-1.8021.8283Z"/>
  <ellipse class="cls-10" cx="802.5934" cy="570.2247" rx=".0878" ry=".2633"/>
  <path class="cls-4" d="M802.7148,555.5884c-.1234.6329.1656,1.0607.0331,1.0625-.1649.0023-.8876-.6567-.7645-1.2448.1231-.5883,1.0496-.9005,1.2012-.8314.1258.0573-.3405.3504-.4698,1.0137Z"/>
  <path class="cls-2" d="M807.38,558.3122c-1.5508.2706-2.9013-.3177-2.8861-.4007.0134-.073,1.0774.2759,2.6729.0817,1.2514-.1523,2.0593-.545,2.0854-.4766.0271.071-.8007.6087-1.8721.7956Z"/>
  <path class="cls-10" d="M807.4398,558.3682c-1.5874.3156-2.9509-.4027-2.94-.4459.0106-.0418,1.3049.5674,2.9594.2579,1.0486-.1962,1.7672-.6727,1.7827-.6403.0163.0341-.7524.6196-1.8021.8283Z"/>
  <ellipse class="cls-10" cx="802.3205" cy="555.4472" rx=".0878" ry=".2633"/>
  <path class="cls-11" d="M810.7087,706.53c-1.6801-.115-2.5971-2.0751-2.5588-2.1133.028-.0279.6812.8604,1.9381,1.1805.079.0201.3397.0854.6207.1009,1.6874.0934,3.0573-1.6651,3.1147-1.6074.0626.063-1.1504,2.5737-3.1147,2.4392Z"/>
  <ellipse class="cls-11" cx="811.7128" cy="702.696" rx="1.0041" ry=".3588"/>
  <ellipse class="cls-11" cx="813.8246" cy="719.9348" rx=".2028" ry="1.0296"/>
  <rect class="cls-11" x="807.2965" y="689.2687" width="8.05" height="2.5316" rx=".8847" ry=".8847" transform="translate(1501.856 -120.787) rotate(90)"/>
  <rect class="cls-5" x="809.0026" y="688.1618" width="4.8206" height="1.516" rx=".5662" ry=".5662" transform="translate(1500.3327 -122.4931) rotate(90)"/>
  <path class="cls-3" d="M803.0685,546.9122c1.2584.312,2.409-.7606,2.4687-.664.0617.0998-1.0253,1.473-2.3313,1.2169-1.1731-.2301-1.7037-1.614-1.6373-1.6704.0565-.0479.5294.8769,1.4998,1.1175Z"/>
  <path class="cls-3" d="M813.4625,542.3244c1.2584.312,2.409-.7606,2.4687-.664.0617.0998-1.0253,1.473-2.3313,1.2169-1.1731-.2301-1.7037-1.614-1.6373-1.6704.0565-.0479.5294.8769,1.4998,1.1175Z"/>
  <path class="cls-3" d="M806.1145,529.3284v.6786c.2237-.2029,1.2134-1.0554,2.7342-1.0554,1.5207,0,2.5104.8524,2.7341,1.0554v-.6786c-.339-.2373-1.3251-.8619-2.7341-.8619-1.409,0-2.3952.6246-2.7342.8619Z"/>
  <path class="cls-3" d="M808.1006,519.54c3.8236-.2789,6.5175,1.7202,6.6385,1.4693.1287-.2667-2.7143-2.9432-6.3107-2.7883-3.6261.1562-6.2503,3.1149-6.108,3.3499.1243.2053,2.2956-1.7767,5.7802-2.031Z"/>
  <path class="cls-5" d="M808.6471,518.7551c-1.8048.0523-3.0632.9175-3.0889.858-.0272-.063,1.3438-1.1318,3.1643-1.1857,2.2134-.0654,3.8894,1.4051,3.8561,1.4728-.0322.0655-1.6506-1.2112-3.9314-1.1452Z"/>
  <ellipse class="cls-5" cx="803.7407" cy="520.4126" rx=".5148" ry=".1989" transform="translate(-152.6095 567.5584) rotate(-35.7448)"/>
  <path class="cls-4" d="M816.2902,563.9246c.1234-.6329-.1656-1.0607-.0331-1.0625.1649-.0023.8876.6567.7645,1.2448-.1231.5883-1.0496.9005-1.2012.8314-.1258-.0573.3405-.3504.4698-1.0137Z"/>
  <path class="cls-2" d="M811.625,561.2007c1.5508-.2706,2.9013.3177,2.8861.4007-.0134.073-1.0774-.2759-2.6729-.0817-1.2514.1523-2.0593.545-2.0854.4766-.0271-.071.8007-.6087,1.8721-.7956Z"/>
  <path class="cls-10" d="M811.5652,561.1447c1.5874-.3156,2.9509.4027,2.94.4459-.0106.0418-1.3049-.5674-2.9594-.2579-1.0486.1962-1.7672.6727-1.7827.6403-.0163-.0341.7524-.6196,1.8021-.8283Z"/>
  <ellipse class="cls-10" cx="816.6845" cy="564.0658" rx=".0878" ry=".2633"/>
  <path class="cls-4" d="M816.3364,580.4521c.1234-.6329-.1656-1.0607-.0331-1.0625.1649-.0023.8876.6567.7645,1.2448-.1231.5883-1.0496.9005-1.2012.8314-.1258-.0573.3405-.3504.4698-1.0137Z"/>
  <path class="cls-2" d="M811.6712,577.7282c1.5508-.2706,2.9013.3177,2.8861.4007-.0134.073-1.0774-.2759-2.6729-.0817-1.2514.1523-2.0593.545-2.0854.4766-.0271-.071.8007-.6087,1.8721-.7956Z"/>
  <path class="cls-10" d="M811.6114,577.6722c1.5874-.3156,2.9509.4027,2.94.4459-.0106.0418-1.3049-.5674-2.9594-.2579-1.0486.1962-1.7672.6727-1.7827.6403-.0163-.0341.7524-.6196,1.8021-.8283Z"/>
  <ellipse class="cls-10" cx="816.7308" cy="580.5933" rx=".0878" ry=".2633"/>
  <path class="cls-4" d="M816.2514,594.4941c.1234-.6329-.1656-1.0607-.0331-1.0625.1649-.0023.8876.6567.7645,1.2448-.1231.5883-1.0496.9005-1.2012.8314-.1258-.0573.3405-.3504.4698-1.0137Z"/>
  <path class="cls-2" d="M811.5862,591.7702c1.5508-.2706,2.9013.3177,2.8861.4007-.0134.073-1.0774-.2759-2.6729-.0817-1.2514.1523-2.0593.545-2.0854.4766-.0271-.071.8007-.6087,1.8721-.7956Z"/>
  <path class="cls-10" d="M811.5264,591.7142c1.5874-.3156,2.9509.4027,2.94.4459-.0106.0418-1.3049-.5674-2.9594-.2579-1.0486.1962-1.7672.6727-1.7827.6403-.0163-.0341.7524-.6196,1.8021-.8283Z"/>
  <ellipse class="cls-10" cx="816.6458" cy="594.6353" rx=".0878" ry=".2633"/>
  <path class="cls-4" d="M815.8126,609.8304c.1234-.6329-.1656-1.0607-.0331-1.0625.1649-.0023.8876.6567.7645,1.2448-.1231.5883-1.0496.9005-1.2012.8314-.1258-.0573.3405-.3504.4698-1.0137Z"/>
  <path class="cls-2" d="M811.1474,607.1065c1.5508-.2706,2.9013.3177,2.8861.4007-.0134.073-1.0774-.2759-2.6729-.0817-1.2514.1523-2.0593.545-2.0854.4766-.0271-.071.8007-.6087,1.8721-.7956Z"/>
  <path class="cls-10" d="M811.0876,607.0505c1.5874-.3156,2.9509.4027,2.94.4459-.0106.0418-1.3049-.5674-2.9594-.2579-1.0486.1962-1.7672.6727-1.7827.6403-.0163-.0341.7524-.6196,1.8021-.8283Z"/>
  <ellipse class="cls-10" cx="816.207" cy="609.9716" rx=".0878" ry=".2633"/>
  <path class="cls-4" d="M815.5727,624.7781c.1234-.6329-.1656-1.0607-.0331-1.0625.1649-.0023.8876.6567.7645,1.2448-.1231.5883-1.0496.9005-1.2012.8314-.1258-.0573.3405-.3504.4698-1.0137Z"/>
  <path class="cls-2" d="M810.9075,622.0542c1.5508-.2706,2.9013.3177,2.8861.4007-.0134.073-1.0774-.2759-2.6729-.0817-1.2514.1523-2.0593.545-2.0854.4766-.0271-.071.8007-.6087,1.8721-.7956Z"/>
  <path class="cls-10" d="M810.8477,621.9982c1.5874-.3156,2.9509.4027,2.94.4459-.0106.0418-1.3049-.5674-2.9594-.2579-1.0486.1962-1.7672.6727-1.7827.6403-.0163-.0341.7524-.6196,1.8021-.8283Z"/>
  <ellipse class="cls-10" cx="815.9671" cy="624.9193" rx=".0878" ry=".2633"/>
  <path class="cls-4" d="M815.822,638.693c.1234-.6329-.1656-1.0607-.0331-1.0625.1649-.0023.8876.6567.7645,1.2448-.1231.5883-1.0496.9005-1.2012.8314-.1258-.0573.3405-.3504.4698-1.0137Z"/>
  <path class="cls-2" d="M811.1568,635.9692c1.5508-.2706,2.9013.3177,2.8861.4007-.0134.073-1.0774-.2759-2.6729-.0817-1.2514.1523-2.0593.545-2.0854.4766-.0271-.071.8007-.6087,1.8721-.7956Z"/>
  <path class="cls-10" d="M811.097,635.9132c1.5874-.3156,2.9509.4027,2.94.4459-.0106.0418-1.3049-.5674-2.9594-.2579-1.0486.1962-1.7672.6727-1.7827.6403-.0163-.0341.7524-.6196,1.8021-.8283Z"/>
  <ellipse class="cls-10" cx="816.2163" cy="638.8343" rx=".0878" ry=".2633"/>
  <path class="cls-4" d="M816.0218,653.9008c.1234-.6329-.1656-1.0607-.0331-1.0625.1649-.0023.8876.6567.7645,1.2448-.1231.5883-1.0496.9005-1.2012.8314-.1258-.0573.3405-.3504.4698-1.0137Z"/>
  <path class="cls-2" d="M811.3565,651.1769c1.5508-.2706,2.9013.3177,2.8861.4007-.0134.073-1.0774-.2759-2.6729-.0817-1.2514.1523-2.0593.545-2.0854.4766-.0271-.071.8007-.6087,1.8721-.7956Z"/>
  <path class="cls-10" d="M811.2968,651.1209c1.5874-.3156,2.9509.4027,2.94.4459-.0106.0418-1.3049-.5674-2.9594-.2579-1.0486.1962-1.7672.6727-1.7827.6403-.0163-.0341.7524-.6196,1.8021-.8283Z"/>
  <ellipse class="cls-10" cx="816.4161" cy="654.042" rx=".0878" ry=".2633"/>
  <path class="cls-4" d="M816.2361,668.6883c.1234-.6329-.1656-1.0607-.0331-1.0625.1649-.0023.8876.6567.7645,1.2448-.1231.5883-1.0496.9005-1.2012.8314-.1258-.0573.3405-.3504.4698-1.0137Z"/>
  <path class="cls-2" d="M811.5709,665.9644c1.5508-.2706,2.9013.3177,2.8861.4007-.0134.073-1.0774-.2759-2.6729-.0817-1.2514.1523-2.0593.545-2.0854.4766-.0271-.071.8007-.6087,1.8721-.7956Z"/>
  <path class="cls-10" d="M811.5111,665.9084c1.5874-.3156,2.9509.4027,2.94.4459-.0106.0418-1.3049-.5674-2.9594-.2579-1.0486.1962-1.7672.6727-1.7827.6403-.0163-.0341.7524-.6196,1.8021-.8283Z"/>
  <ellipse class="cls-10" cx="816.6305" cy="668.8295" rx=".0878" ry=".2633"/>
  <path class="cls-4" d="M816.1895,549.9676c.1234-.6329-.1656-1.0607-.0331-1.0625.1649-.0023.8876.6567.7645,1.2448-.1231.5883-1.0496.9005-1.2012.8314-.1258-.0573.3405-.3504.4698-1.0137Z"/>
  <path class="cls-2" d="M811.5243,547.2437c1.5508-.2706,2.9013.3177,2.8861.4007-.0134.073-1.0774-.2759-2.6729-.0817-1.2514.1523-2.0593.545-2.0854.4766-.0271-.071.8007-.6087,1.8721-.7956Z"/>
  <path class="cls-10" d="M811.4645,547.1877c1.5874-.3156,2.9509.4027,2.94.4459-.0106.0418-1.3049-.5674-2.9594-.2579-1.0486.1962-1.7672.6727-1.7827.6403-.0163-.0341.7524-.6196,1.8021-.8283Z"/>
  <ellipse class="cls-10" cx="816.5839" cy="550.1088" rx=".0878" ry=".2633"/>
  <path class="cls-8" d="M805.0559,528.0303c-1.1669.8962-1.1559,2.9496-1.5787,2.8923-.0241-.0033-.0414-.009-.0607-.0242-.3619-.2846-.7727-2.9836.5271-4.0437,1.3002-1.0604,3.8589-.1109,4.0665.3051.0102.0204.014.0402.0117.0658-.0348.3906-1.8645-.0411-2.9659.8047Z"/>
  <path class="cls-5" d="M804.1404,528.1069c-.1875-.1076-.1738-.6295.0895-.9215.2891-.3205.8129-.2907.8351-.2211.0263.0829-.6332.3011-.5972.4942.0227.1218.2987.1066.3253.2312.0378.1767-.4472.5351-.6527.4172Z"/>
  <ellipse class="cls-5" cx="803.4821" cy="530.2565" rx=".1366" ry=".2951"/>
  <ellipse class="cls-5" cx="814.4472" cy="540.9617" rx=".9204" ry=".2434"/>
  <ellipse class="cls-5" cx="813.2304" cy="550.5498" rx=".9204" ry=".441"/>
  <ellipse class="cls-5" cx="812.4191" cy="564.0446" rx="1.1389" ry=".546"/>
  <ellipse class="cls-5" cx="806.4285" cy="555.7443" rx="1.0765" ry=".2971"/>
  <ellipse class="cls-5" cx="807.5083" cy="570.8861" rx="1.2759" ry=".3981"/>
  <ellipse class="cls-5" cx="812.8044" cy="580.0388" rx="1.0968" ry=".3937"/>
  <ellipse class="cls-5" cx="807.6331" cy="585.7399" rx="1.1511" ry=".3067"/>
  <ellipse class="cls-5" cx="812.2163" cy="594.6865" rx="1.2481" ry=".2121"/>
  <ellipse class="cls-5" cx="806.8497" cy="599.8639" rx="1.3105" ry=".234"/>
  <ellipse class="cls-5" cx="811.9667" cy="609.909" rx="1.3105" ry=".3259"/>
  <ellipse class="cls-5" cx="806.9779" cy="615.0698" rx=".7455" ry=".4008"/>
  <ellipse class="cls-5" cx="811.6079" cy="625.1452" rx=".8268" ry=".2259"/>
  <ellipse class="cls-5" cx="806.8497" cy="629.0684" rx=".8736" ry=".2652"/>
  <ellipse class="cls-5" cx="809.7104" cy="638.771" rx=".665" ry=".3265"/>
  <ellipse class="cls-5" cx="807.8793" cy="643.7727" rx="1.0296" ry=".336"/>
  <ellipse class="cls-5" cx="812.2943" cy="654.6146" rx="1.014" ry=".3094"/>
  <ellipse class="cls-5" cx="805.2774" cy="658.8986" rx=".8302" ry=".4197"/>
  <ellipse class="cls-5" cx="812.7886" cy="668.7297" rx=".9254" ry=".363"/>
  <ellipse class="cls-5" cx="812.5408" cy="671.1564" rx=".7644" ry=".1259"/>
  <ellipse class="cls-5" cx="808.8434" cy="675.0251" rx=".6864" ry=".217"/>
  <circle class="cls-5" cx="804.6488" cy="677.1056" r=".9516"/>
</svg>