<?xml version="1.0" encoding="UTF-8"?>
<svg id="Layer_1" data-name="Layer 1" xmlns="http://www.w3.org/2000/svg" viewBox="0 0 1621.4173 1264.252">
  <defs>
    <style>
      .cls-1 {
        fill: #b5b5b5;
      }

      .cls-2 {
        fill: #838384;
      }

      .cls-3 {
        fill: #bababa;
      }

      .cls-4 {
        fill: #6b6c6c;
      }

      .cls-5 {
        fill: #fff;
      }

      .cls-6 {
        fill: #868686;
      }

      .cls-7 {
        fill: #4a4b4a;
      }

      .cls-8 {
        fill: #d4d2d1;
      }

      .cls-9 {
        fill: #181817;
      }

      .cls-10 {
        fill: #c8c8c8;
      }

      .cls-11 {
        fill: #c4c3c3;
      }
    </style>
  </defs>
  <rect class="cls-9" x="714.1459" y="904.1056" width="193.1255" height="112.9991" rx="17.9831" ry="17.9831" transform="translate(1771.3138 149.8964) rotate(90)"/>
  <path class="cls-7" d="M838.1678,1003.0653c-1.715,1.653-13.4397,12.5795-30.0792,10.2727-12.4471-1.7254-20.1064-9.8108-22.3173-12.3272-7.4388,77.7297-14.878,155.4592-22.3168,233.1889,12.5282,21.6244,35.2765,32.1838,55.3072,26.7089,19.2821-5.2704,28.4335-23.3183,30.0796-26.7089-3.5578-77.0449-7.1157-154.0895-10.6735-231.1344Z"/>
  <rect class="cls-7" x="762.1945" y="926.2533" width="103.7536" height="55.3492" rx="17.6839" ry="17.6839" transform="translate(1767.9992 139.8565) rotate(90)"/>
  <path class="cls-9" d="M812.2558,815.8445c-1.9741.5011-21.0573,5.3441-21.0511,12.3457.006,6.9839,19.0012,11.7901,21.0511,12.3087,13.0625,3.305,24.3536,1.5438,30.8179,0,4.9608-2.0692,8.2107-6.937,8.218-12.3087.0076-5.3848-3.245-10.2713-8.218-12.3457-6.4604-1.5468-17.7555-3.3151-30.8179,0Z"/>
  <path class="cls-9" d="M812.2558,650.8837c-1.9741.5011-21.0573,5.3441-21.0511,12.3457.006,6.9839,19.0012,11.7901,21.0511,12.3087,13.0625,3.305,24.3536,1.5438,30.8179,0,4.9608-2.0692,8.2107-6.937,8.218-12.3087.0076-5.3848-3.245-10.2713-8.218-12.3457-6.4604-1.5468-17.7555-3.3151-30.8179,0Z"/>
  <path class="cls-9" d="M812.2558,735.038c-1.9741.5011-21.0573,5.3441-21.0511,12.3457.006,6.9839,19.0012,11.7901,21.0511,12.3087,13.0625,3.305,24.3536,1.5438,30.8179,0,4.9608-2.0692,8.2107-6.937,8.218-12.3087.0076-5.3848-3.245-10.2713-8.218-12.3457-6.4604-1.5468-17.7555-3.3151-30.8179,0Z"/>
  <path class="cls-9" d="M812.2558,574.4425c-1.9741.5011-21.0573,5.3441-21.0511,12.3457.006,6.9839,19.0012,11.7901,21.0511,12.3087,13.0625,3.305,24.3536,1.5438,30.8179,0,4.9608-2.0692,8.2107-6.937,8.218-12.3087.0076-5.3848-3.245-10.2713-8.218-12.3457-6.4604-1.5468-17.7555-3.3151-30.8179,0Z"/>
  <path class="cls-9" d="M795.8235,691.3675c1.9741.5011,21.0573,5.3441,21.0511,12.3457-.006,6.9839-19.0012,11.7901-21.0511,12.3087-13.0625,3.305-24.3536,1.5438-30.8179,0-4.9608-2.0692-8.2107-6.937-8.218-12.3087-.0076-5.3848,3.245-10.2713,8.218-12.3457,6.4604-1.5468,17.7555-3.3151,30.8179,0Z"/>
  <path class="cls-9" d="M794.4538,771.6653c1.9741.5011,21.0573,5.3441,21.0511,12.3457-.006,6.9839-19.0012,11.7901-21.0511,12.3087-13.0625,3.305-24.3536,1.5438-30.8179,0-4.9608-2.0692-8.2107-6.937-8.218-12.3087-.0076-5.3848,3.245-10.2713,8.218-12.3457,6.4604-1.5468,17.7555-3.3151,30.8179,0Z"/>
  <path class="cls-9" d="M794.4538,611.0698c1.9741.5011,21.0573,5.3441,21.0511,12.3457-.006,6.9839-19.0012,11.7901-21.0511,12.3087-13.0625,3.305-24.3536,1.5438-30.8179,0-4.9608-2.0692-8.2107-6.937-8.218-12.3087-.0076-5.3848,3.245-10.2713,8.218-12.3457,6.4604-1.5468,17.7555-3.3151,30.8179,0Z"/>
  <path class="cls-9" d="M796.5083,453.0423c1.9741.5011,21.0573,5.3441,21.0511,12.3457-.006,6.9839-19.0012,11.7901-21.0511,12.3087-13.0625,3.305-24.3536,1.5438-30.8179,0-4.9608-2.0692-8.2107-6.937-8.218-12.3087-.0076-5.3848,3.245-10.2713,8.218-12.3457,6.4604-1.5468,17.7555-3.3151,30.8179,0Z"/>
  <path class="cls-9" d="M795.1386,533.3401c1.9741.5011,21.0573,5.3441,21.0511,12.3457-.006,6.9839-19.0012,11.7901-21.0511,12.3087-13.0625,3.305-24.3536,1.5438-30.8179,0-4.9608-2.0692-8.2107-6.937-8.218-12.3087-.0076-5.3848,3.245-10.2713,8.218-12.3457,6.4604-1.5468,17.7555-3.3151,30.8179,0Z"/>
  <path class="cls-9" d="M795.1386,372.7446c1.9741.5011,21.0573,5.3441,21.0511,12.3457-.006,6.9839-19.0012,11.7901-21.0511,12.3087-13.0625,3.305-24.3536,1.5438-30.8179,0-4.9608-2.0692-8.2107-6.937-8.218-12.3087-.0076-5.3848,3.245-10.2713,8.218-12.3457,6.4604-1.5468,17.7555-3.3151,30.8179,0Z"/>
  <path class="cls-9" d="M812.2558,408.2665c-1.9741.5011-21.0573,5.3441-21.0511,12.3457.006,6.9839,19.0012,11.7901,21.0511,12.3087,13.0625,3.305,24.3536,1.5438,30.8179,0,4.9608-2.0692,8.2107-6.937,8.218-12.3087.0076-5.3848-3.245-10.2713-8.218-12.3457-6.4604-1.5468-17.7555-3.3151-30.8179,0Z"/>
  <path class="cls-9" d="M812.2558,492.4208c-1.9741.5011-21.0573,5.3441-21.0511,12.3457.006,6.9839,19.0012,11.7901,21.0511,12.3087,13.0625,3.305,24.3536,1.5438,30.8179,0,4.9608-2.0692,8.2107-6.937,8.218-12.3087.0076-5.3848-3.245-10.2713-8.218-12.3457-6.4604-1.5468-17.7555-3.3151-30.8179,0Z"/>
  <path class="cls-9" d="M812.2558,331.8252c-1.9741.5011-21.0573,5.3441-21.0511,12.3457.006,6.9839,19.0012,11.7901,21.0511,12.3087,13.0625,3.305,24.3536,1.5438,30.8179,0,4.9608-2.0692,8.2107-6.937,8.218-12.3087.0076-5.3848-3.245-10.2713-8.218-12.3457-6.4604-1.5468-17.7555-3.3151-30.8179,0Z"/>
  <path class="cls-9" d="M796.5083,285.9467c1.9741.5011,21.0573,5.3441,21.0511,12.3457-.006,6.9839-19.0012,11.7901-21.0511,12.3087-13.0625,3.305-24.3536,1.5438-30.8179,0-4.9608-2.0692-8.2107-6.937-8.218-12.3087-.0076-5.3848,3.245-10.2713,8.218-12.3457,6.4604-1.5468,17.7555-3.3151,30.8179,0Z"/>
  <path class="cls-9" d="M795.1386,205.6489c1.9741.5011,21.0573,5.3441,21.0511,12.3457-.006,6.9839-19.0012,11.7901-21.0511,12.3087-13.0625,3.305-24.3536,1.5438-30.8179,0-4.9608-2.0692-8.2107-6.937-8.218-12.3087-.0076-5.3848,3.245-10.2713,8.218-12.3457,6.4604-1.5468,17.7555-3.3151,30.8179,0Z"/>
  <path class="cls-9" d="M812.2558,241.1708c-1.9741.5011-21.0573,5.3441-21.0511,12.3457.006,6.9839,19.0012,11.7901,21.0511,12.3087,13.0625,3.305,24.3536,1.5438,30.8179,0,4.9608-2.0692,8.2107-6.937,8.218-12.3087.0076-5.3848-3.245-10.2713-8.218-12.3457-6.4604-1.5468-17.7555-3.3151-30.8179,0Z"/>
  <path class="cls-9" d="M812.2558,164.7296c-1.9741.5011-21.0573,5.3441-21.0511,12.3457.006,6.9839,19.0012,11.7901,21.0511,12.3087,13.0625,3.305,24.3536,1.5438,30.8179,0,4.9608-2.0692,8.2107-6.937,8.218-12.3087.0076-5.3848-3.245-10.2713-8.218-12.3457-6.4604-1.5468-17.7555-3.3151-30.8179,0Z"/>
  <path class="cls-9" d="M841.1047,19.1896c-3.6456-3.5808-16.6463-15.4667-37.043-17.092-26.2264-2.0899-43.8578,14.4435-46.5893,17.092v139.7079c1.0577,8.2873,8.4909,13.9419,15.8329,13.012,6.197-.7849,11.3995-6.143,12.156-13.012v-90.3992c1.5888-1.2431,7.0333-5.1851,15.0408-5.1789,7.9839.0062,13.4113,3.9336,15.0028,5.1789v65.7449c.9122,6.1999,5.9703,10.8952,11.9031,11.2999,6.5423.4463,12.6514-4.4267,13.6967-11.2999V19.1896Z"/>
  <path class="cls-4" d="M826.7966,989.3492c1.1405-10.3458,1.9026-21.8456,1.9448-34.3298.0451-13.3431-.7399-25.5827-1.9448-36.5127,0-1.7443,1.4352-3.1795,3.1795-3.1795,1.7487,0,3.1795,1.4307,3.1795,3.1795.98,10.972,1.5915,22.959,1.5784,35.8278-.0129,12.5575-.6189,24.2703-1.5784,35.0147-.0002,1.7441-1.4354,3.1792-3.1795,3.1792-1.7487,0-3.1795-1.4307-3.1795-3.1792Z"/>
  <path class="cls-4" d="M791.9611,988.5515c0-2.1873,1.7896-3.9769,3.9769-3.9769,1.2557.3979,3.1162.8345,5.3969.8345s4.1412-.4368,5.3967-.8345c.2687.0009,1.6728.0329,2.8086,1.1683.721.7208,1.1685,1.715,1.1685,2.8086,0,2.1873-1.7898,3.9769-3.9771,3.9769.2494,3.4459-1.9521,6.2601-4.3695,6.6634-2.8708.4788-6.4873-2.3694-6.4242-6.6634-2.3068-.4439-3.9769-2.1666-3.9769-3.9769Z"/>
  <path class="cls-4" d="M810.7088,1041.0741c-14.5594,0-22.1085-19.5779-20.8021-20.8021,1.1114-1.0415,8.7996,11.043,20.8021,11.043s19.6905-12.0845,20.8019-11.043c1.3064,1.2242-6.2426,20.8021-20.8019,20.8021Z"/>
  <path class="cls-4" d="M825.3712,1075.4874c2.2139,6.2485,5.0727,15.894,6.2847,27.9074,2.0778,20.5954-1.9999,35.1062-4.0131,46.6977-2.6865,15.468-3.9054,38.4566,4.0872,69.2119.2363,6.8068-5.0301,11.6597-9.8071,11.2998-3.4031-.2565-6.5954-3.161-7.8516-7.1908-2.3148-8.9384-4.8394-22.6974-3.3627-39.2072,1.1643-13.0181,4.3326-22.3366,5.5642-26.1953,4.8875-15.313,9.8364-40.3854,9.0982-82.5235Z"/>
  <ellipse class="cls-4" cx="783.7987" cy="1211.1718" rx="5.9626" ry="15.6658"/>
  <ellipse class="cls-1" cx="783.7987" cy="1205.9419" rx="3.356" ry="8.8173"/>
  <path class="cls-1" d="M818.2896,1197.8037c-.7093-.1149-4.9582,6.8662-2.7101,14.326,1.9172,6.3621,7.8256,10.6365,8.4542,10.3135.6072-.3121-3.9963-4.7714-5.6864-12.3939-1.5966-7.2008.5316-12.1502-.0577-12.2456Z"/>
  <path class="cls-6" d="M789.7614,878.5951c0,1.5538,1.2711,2.825,2.8248,2.825,5.9128-1.4638,13.8139-2.825,23.1673-2.825,6.0913,0,14.0879.5774,23.1673,2.825.191-.0007,1.1885-.0231,1.9952-.8298.5121-.5121.8298-1.2184.8298-1.9952,0-1.5535-1.2713-2.8248-2.825-2.8248-5.796-1.4798-13.5477-2.8679-22.7334-2.9105-9.589-.0444-17.6524,1.3919-23.6012,2.9105-1.6386.3153-2.8248,1.5391-2.8248,2.8248Z"/>
  <path class="cls-3" d="M798.1325,911.2337c-6.0997,3.6932-7.7143,10.1122-8.0488,9.9453-.3909-.1949,1.169-9.2765,8.0486-12.5346,4.6092-2.1827,9.7941-.8937,9.8279-.3692.0333.515-4.9169-.0147-9.8277,2.9585Z"/>
  <path class="cls-4" d="M765.2964,778.951c-.6769,3.4726.9085,5.8202.1819,5.8304-.9049.0126-4.8703-3.6036-4.1949-6.8307.6756-3.2282,5.7593-4.9412,6.5911-4.5624.6901.3143-1.8685,1.9227-2.578,5.5627Z"/>
  <path class="cls-2" d="M790.8957,793.8976c-8.5096,1.4847-15.9204-1.7434-15.8369-2.1987.0735-.4004,5.9121,1.514,14.6666.4483,6.8668-.8359,11.2998-2.9907,11.443-2.6154.1486.3897-4.3939,3.3401-10.2727,4.3658Z"/>
  <path class="cls-10" d="M791.2237,794.2048c-8.7105,1.732-16.1926-2.2095-16.1327-2.4467.058-.2296,7.1606,3.1135,16.2388,1.415,5.754-1.0765,9.6971-3.6912,9.7824-3.5133.0897.1872-4.1288,3.3997-9.8886,4.545Z"/>
  <ellipse class="cls-10" cx="763.1325" cy="778.1761" rx=".4815" ry="1.4446"/>
  <path class="cls-4" d="M769.2882,698.6532c-.6769,3.4726.9085,5.8202.1819,5.8304-.9049.0126-4.8703-3.6036-4.1949-6.8307.6756-3.2282,5.7593-4.9412,6.5911-4.5624.6901.3143-1.8685,1.9227-2.578,5.5627Z"/>
  <path class="cls-2" d="M794.8875,713.5999c-8.5096,1.4847-15.9204-1.7434-15.8369-2.1987.0735-.4004,5.9121,1.514,14.6666.4483,6.8668-.8359,11.2998-2.9907,11.443-2.6154.1486.3897-4.3939,3.3401-10.2727,4.3658Z"/>
  <path class="cls-10" d="M795.2155,713.9071c-8.7105,1.732-16.1926-2.2095-16.1327-2.4467.058-.2296,7.1606,3.1135,16.2388,1.415,5.754-1.0765,9.6971-3.6912,9.7824-3.5133.0897.1872-4.1288,3.3997-9.8886,4.545Z"/>
  <ellipse class="cls-10" cx="767.1244" cy="697.8783" rx=".4815" ry="1.4446"/>
  <path class="cls-4" d="M767.8231,618.4346c-.6769,3.4726.9085,5.8202.1819,5.8304-.9049.0126-4.8703-3.6036-4.1949-6.8307.6756-3.2282,5.7593-4.9412,6.5911-4.5624.6901.3143-1.8685,1.9227-2.578,5.5627Z"/>
  <path class="cls-2" d="M793.4224,633.3812c-8.5096,1.4847-15.9204-1.7434-15.8369-2.1987.0735-.4004,5.9121,1.514,14.6666.4483,6.8668-.8359,11.2998-2.9907,11.443-2.6154.1486.3897-4.3939,3.3401-10.2727,4.3658Z"/>
  <path class="cls-10" d="M793.7504,633.6884c-8.7105,1.732-16.1926-2.2095-16.1327-2.4467.058-.2296,7.1606,3.1135,16.2388,1.415,5.754-1.0765,9.6971-3.6912,9.7824-3.5133.0897.1872-4.1288,3.3997-9.8886,4.545Z"/>
  <ellipse class="cls-10" cx="765.6592" cy="617.6597" rx=".4815" ry="1.4446"/>
  <path class="cls-4" d="M767.7648,540.6258c-.6769,3.4726.9085,5.8202.1819,5.8304-.9049.0126-4.8703-3.6036-4.1949-6.8307.6756-3.2282,5.7593-4.9412,6.5911-4.5624.6901.3143-1.8685,1.9227-2.578,5.5627Z"/>
  <path class="cls-2" d="M793.3641,555.5724c-8.5096,1.4847-15.9204-1.7434-15.8369-2.1987.0735-.4004,5.9121,1.514,14.6666.4483,6.8668-.8359,11.2998-2.9907,11.443-2.6154.1486.3897-4.3939,3.3401-10.2727,4.3658Z"/>
  <path class="cls-10" d="M793.6921,555.8796c-8.7105,1.732-16.1926-2.2095-16.1327-2.4467.058-.2296,7.1606,3.1135,16.2388,1.415,5.754-1.0765,9.6971-3.6912,9.7824-3.5133.0897.1872-4.1288,3.3997-9.8886,4.545Z"/>
  <ellipse class="cls-10" cx="765.6009" cy="539.8509" rx=".4815" ry="1.4446"/>
  <path class="cls-4" d="M769.4594,460.328c-.6769,3.4726.9085,5.8202.1819,5.8304-.9049.0126-4.8703-3.6036-4.1949-6.8307.6756-3.2282,5.7593-4.9412,6.5911-4.5624.6901.3143-1.8685,1.9227-2.578,5.5627Z"/>
  <path class="cls-2" d="M795.0587,475.2747c-8.5096,1.4847-15.9204-1.7434-15.8369-2.1987.0735-.4004,5.9121,1.514,14.6666.4483,6.8668-.8359,11.2998-2.9907,11.443-2.6154.1486.3897-4.3939,3.3401-10.2727,4.3658Z"/>
  <path class="cls-10" d="M795.3867,475.5819c-8.7105,1.732-16.1926-2.2095-16.1327-2.4467.058-.2296,7.1606,3.1135,16.2388,1.415,5.754-1.0765,9.6971-3.6912,9.7824-3.5133.0897.1872-4.1288,3.3997-9.8886,4.545Z"/>
  <ellipse class="cls-10" cx="767.2956" cy="459.5531" rx=".4815" ry="1.4446"/>
  <path class="cls-4" d="M765.0079,379.1684c-.6769,3.4726.9085,5.8202.1819,5.8304-.9049.0126-4.8703-3.6036-4.1949-6.8307.6756-3.2282,5.7593-4.9412,6.5911-4.5624.6901.3143-1.8685,1.9227-2.578,5.5627Z"/>
  <path class="cls-2" d="M790.6073,394.115c-8.5096,1.4847-15.9204-1.7434-15.8369-2.1987.0735-.4004,5.9121,1.514,14.6666.4483,6.8668-.8359,11.2998-2.9907,11.443-2.6154.1486.3897-4.3939,3.3401-10.2727,4.3658Z"/>
  <path class="cls-10" d="M790.9352,394.4222c-8.7105,1.732-16.1926-2.2095-16.1327-2.4467.058-.2296,7.1606,3.1135,16.2388,1.415,5.754-1.0765,9.6971-3.6912,9.7824-3.5133.0897.1872-4.1288,3.3997-9.8886,4.545Z"/>
  <ellipse class="cls-10" cx="762.8441" cy="378.3935" rx=".4815" ry="1.4446"/>
  <path class="cls-4" d="M768.3421,293.2324c-.6769,3.4726.9085,5.8202.1819,5.8304-.9049.0126-4.8703-3.6036-4.1949-6.8307.6756-3.2282,5.7593-4.9412,6.5911-4.5624.6901.3143-1.8685,1.9227-2.578,5.5627Z"/>
  <path class="cls-2" d="M793.9415,308.179c-8.5096,1.4847-15.9204-1.7434-15.8369-2.1987.0735-.4004,5.9121,1.514,14.6666.4483,6.8668-.8359,11.2998-2.9907,11.443-2.6154.1486.3897-4.3939,3.3401-10.2727,4.3658Z"/>
  <path class="cls-10" d="M794.2694,308.4862c-8.7105,1.732-16.1926-2.2095-16.1327-2.4467.058-.2296,7.1606,3.1135,16.2388,1.415,5.754-1.0765,9.6971-3.6912,9.7824-3.5133.0897.1872-4.1288,3.3997-9.8886,4.545Z"/>
  <ellipse class="cls-10" cx="766.1783" cy="292.4575" rx=".4815" ry="1.4446"/>
  <path class="cls-4" d="M766.8442,212.1441c-.6769,3.4726.9085,5.8202.1819,5.8304-.9049.0126-4.8703-3.6036-4.1949-6.8307.6756-3.2282,5.7593-4.9412,6.5911-4.5624.6901.3143-1.8685,1.9227-2.578,5.5627Z"/>
  <path class="cls-2" d="M792.4436,227.0907c-8.5096,1.4847-15.9204-1.7434-15.8369-2.1987.0735-.4004,5.9121,1.514,14.6666.4483,6.8668-.8359,11.2998-2.9907,11.443-2.6154.1486.3897-4.3939,3.3401-10.2727,4.3658Z"/>
  <path class="cls-10" d="M792.7715,227.3979c-8.7105,1.732-16.1926-2.2095-16.1327-2.4467.058-.2296,7.1606,3.1135,16.2388,1.415,5.754-1.0765,9.6971-3.6912,9.7824-3.5133.0897.1872-4.1288,3.3997-9.8886,4.545Z"/>
  <ellipse class="cls-10" cx="764.6804" cy="211.3692" rx=".4815" ry="1.4446"/>
  <path class="cls-11" d="M810.7088,1040.4003c-9.219-.6311-14.2512-11.3868-14.0409-11.596.1539-.153,3.7382,4.721,10.6351,6.4777.4332.1104,1.864.4685,3.4057.5538,9.2595.5123,16.7764-9.1369,17.0913-8.8202.3433.3455-6.3123,14.1226-17.0913,13.3847Z"/>
  <ellipse class="cls-11" cx="816.2187" cy="1019.362" rx="5.5099" ry="1.9689"/>
  <ellipse class="cls-11" cx="827.8065" cy="1113.9559" rx="1.1129" ry="5.65"/>
  <rect class="cls-11" x="791.9851" y="945.6829" width="44.1723" height="13.8916" rx="4.8548" ry="4.8548" transform="translate(1766.7 138.5574) rotate(90)"/>
  <rect class="cls-5" x="801.347" y="939.6092" width="26.452" height="8.3188" rx="3.1069" ry="3.1069" transform="translate(1758.3415 129.1956) rotate(90)"/>
  <path class="cls-3" d="M768.7851,164.5356c6.9052,1.712,13.219-4.1734,13.5466-3.6436.3384.5474-5.6261,8.0827-12.7924,6.6772-6.4369-1.2624-9.3485-8.8565-8.9841-9.1658.31-.263,2.9048,4.8119,8.23,6.1322Z"/>
  <path class="cls-3" d="M825.8197,139.3614c6.9052,1.712,13.219-4.1734,13.5466-3.6436.3384.5474-5.6261,8.0827-12.7924,6.6772-6.4369-1.2624-9.3485-8.8565-8.9841-9.1658.31-.263,2.9048,4.8119,8.23,6.1322Z"/>
  <path class="cls-3" d="M785.4991,68.0489v3.7236c1.2275-1.1136,6.6585-5.7911,15.003-5.7911,8.3444,0,13.7751,4.6774,15.0028,5.7911v-3.7236c-1.86-1.302-7.2714-4.7295-15.0028-4.7296-7.7317,0-13.1431,3.4276-15.003,4.7296Z"/>
  <path class="cls-3" d="M796.3978,14.3374c20.9809-1.5307,35.7632,9.439,36.4274,8.0626.7062-1.4632-14.8942-16.1502-34.6283-15.2999-19.8975.8574-34.2972,17.0925-33.5164,18.3816.6822,1.1265,12.5964-9.7494,31.7173-11.1444Z"/>
  <path class="cls-5" d="M799.3963,10.0301c-9.9037.2867-16.8088,5.0345-16.9498,4.7083-.1494-.3457,7.374-6.2107,17.3633-6.506,12.1456-.3591,21.342,7.7103,21.1592,8.0817-.1768.3594-9.0572-6.6463-21.5727-6.284Z"/>
  <ellipse class="cls-5" cx="772.4735" cy="19.1256" rx="2.825" ry="1.0915" transform="translate(134.3407 454.8637) rotate(-35.7448)"/>
  <path class="cls-4" d="M841.3361,257.8872c.6769-3.4726-.9085-5.8202-.1819-5.8304.9049-.0126,4.8703,3.6036,4.1949,6.8307-.6756,3.2282-5.7593,4.9412-6.5911,4.5624-.6901-.3143,1.8685-1.9227,2.578-5.5627Z"/>
  <path class="cls-2" d="M815.7367,242.9406c8.5096-1.4847,15.9204,1.7434,15.8369,2.1987-.0735.4004-5.9121-1.514-14.6666-.4483-6.8668.8359-11.2998,2.9907-11.443,2.6154-.1486-.3897,4.3939-3.3401,10.2727-4.3658Z"/>
  <path class="cls-10" d="M815.4088,242.6333c8.7105-1.732,16.1926,2.2095,16.1327,2.4467-.058.2296-7.1606-3.1135-16.2388-1.415-5.754,1.0765-9.6971,3.6912-9.7824,3.5133-.0897-.1872,4.1288-3.3997,9.8886-4.545Z"/>
  <ellipse class="cls-10" cx="843.4999" cy="258.6621" rx=".4815" ry="1.4446"/>
  <path class="cls-4" d="M841.5898,348.578c.6769-3.4726-.9085-5.8202-.1819-5.8304.9049-.0126,4.8703,3.6036,4.1949,6.8307-.6756,3.2282-5.7593,4.9412-6.5911,4.5624-.6901-.3143,1.8685-1.9227,2.578-5.5627Z"/>
  <path class="cls-2" d="M815.9904,333.6313c8.5096-1.4847,15.9204,1.7434,15.8369,2.1987-.0735.4004-5.9121-1.514-14.6666-.4483-6.8668.8359-11.2998,2.9907-11.443,2.6154-.1486-.3897,4.3939-3.3401,10.2727-4.3658Z"/>
  <path class="cls-10" d="M815.6625,333.3241c8.7105-1.732,16.1926,2.2095,16.1327,2.4467-.058.2296-7.1606-3.1135-16.2388-1.415-5.754,1.0765-9.6971,3.6912-9.7824,3.5133-.0897-.1872,4.1288-3.3997,9.8886-4.545Z"/>
  <ellipse class="cls-10" cx="843.7536" cy="349.3528" rx=".4815" ry="1.4446"/>
  <path class="cls-4" d="M841.1233,425.6299c.6769-3.4726-.9085-5.8202-.1819-5.8304.9049-.0126,4.8703,3.6036,4.1949,6.8307-.6756,3.2282-5.7593,4.9412-6.5911,4.5624-.6901-.3143,1.8685-1.9227,2.578-5.5627Z"/>
  <path class="cls-2" d="M815.5239,410.6833c8.5096-1.4847,15.9204,1.7434,15.8369,2.1987-.0735.4004-5.9121-1.514-14.6666-.4483-6.8668.8359-11.2998,2.9907-11.443,2.6154-.1486-.3897,4.3939-3.3401,10.2727-4.3658Z"/>
  <path class="cls-10" d="M815.196,410.3761c8.7105-1.732,16.1926,2.2095,16.1327,2.4467-.058.2296-7.1606-3.1135-16.2388-1.415-5.754,1.0765-9.6971,3.6912-9.7824,3.5133-.0897-.1872,4.1288-3.3997,9.8886-4.545Z"/>
  <ellipse class="cls-10" cx="843.2871" cy="426.4048" rx=".4815" ry="1.4446"/>
  <path class="cls-4" d="M838.7155,509.7842c.6769-3.4726-.9085-5.8202-.1819-5.8304.9049-.0126,4.8703,3.6036,4.1949,6.8307-.6756,3.2282-5.7593,4.9412-6.5911,4.5624-.6901-.3143,1.8685-1.9227,2.578-5.5627Z"/>
  <path class="cls-2" d="M813.1162,494.8376c8.5096-1.4847,15.9204,1.7434,15.8369,2.1987-.0735.4004-5.9121-1.514-14.6666-.4483-6.8668.8359-11.2998,2.9907-11.443,2.6154-.1486-.3897,4.3939-3.3401,10.2727-4.3658Z"/>
  <path class="cls-10" d="M812.7882,494.5304c8.7105-1.732,16.1926,2.2095,16.1327,2.4467-.058.2296-7.1606-3.1135-16.2388-1.415-5.754,1.0765-9.6971,3.6912-9.7824,3.5133-.0897-.1872,4.1288-3.3997,9.8886-4.545Z"/>
  <ellipse class="cls-10" cx="840.8793" cy="510.5591" rx=".4815" ry="1.4446"/>
  <path class="cls-4" d="M837.3991,591.8059c.6769-3.4726-.9085-5.8202-.1819-5.8304.9049-.0126,4.8703,3.6036,4.1949,6.8307-.6756,3.2282-5.7593,4.9412-6.5911,4.5624-.6901-.3143,1.8685-1.9227,2.578-5.5627Z"/>
  <path class="cls-2" d="M811.7998,576.8593c8.5096-1.4847,15.9204,1.7434,15.8369,2.1987-.0735.4004-5.9121-1.514-14.6666-.4483-6.8668.8359-11.2998,2.9907-11.443,2.6154-.1486-.3897,4.3939-3.3401,10.2727-4.3658Z"/>
  <path class="cls-10" d="M811.4718,576.5521c8.7105-1.732,16.1926,2.2095,16.1327,2.4467-.058.2296-7.1606-3.1135-16.2388-1.415-5.754,1.0765-9.6971,3.6912-9.7824,3.5133-.0897-.1872,4.1288-3.3997,9.8886-4.545Z"/>
  <ellipse class="cls-10" cx="839.5629" cy="592.5808" rx=".4815" ry="1.4446"/>
  <path class="cls-4" d="M838.7668,668.1612c.6769-3.4726-.9085-5.8202-.1819-5.8304.9049-.0126,4.8703,3.6036,4.1949,6.8307-.6756,3.2282-5.7593,4.9412-6.5911,4.5624-.6901-.3143,1.8685-1.9227,2.578-5.5627Z"/>
  <path class="cls-2" d="M813.1675,653.2145c8.5096-1.4847,15.9204,1.7434,15.8369,2.1987-.0735.4004-5.9121-1.514-14.6666-.4483-6.8668.8359-11.2998,2.9907-11.443,2.6154-.1486-.3897,4.3939-3.3401,10.2727-4.3658Z"/>
  <path class="cls-10" d="M812.8395,652.9073c8.7105-1.732,16.1926,2.2095,16.1327,2.4467-.058.2296-7.1606-3.1135-16.2388-1.415-5.754,1.0765-9.6971,3.6912-9.7824,3.5133-.0897-.1872,4.1288-3.3997,9.8886-4.545Z"/>
  <ellipse class="cls-10" cx="840.9306" cy="668.936" rx=".4815" ry="1.4446"/>
  <path class="cls-4" d="M839.8631,751.6099c.6769-3.4726-.9085-5.8202-.1819-5.8304.9049-.0126,4.8703,3.6036,4.1949,6.8307-.6756,3.2282-5.7593,4.9412-6.5911,4.5624-.6901-.3143,1.8685-1.9227,2.578-5.5627Z"/>
  <path class="cls-2" d="M814.2638,736.6633c8.5096-1.4847,15.9204,1.7434,15.8369,2.1987-.0735.4004-5.9121-1.514-14.6666-.4483-6.8668.8359-11.2998,2.9907-11.443,2.6154-.1486-.3897,4.3939-3.3401,10.2727-4.3658Z"/>
  <path class="cls-10" d="M813.9358,736.356c8.7105-1.732,16.1926,2.2095,16.1327,2.4467-.058.2296-7.1606-3.1135-16.2388-1.415-5.754,1.0765-9.6971,3.6912-9.7824,3.5133-.0897-.1872,4.1288-3.3997,9.8886-4.545Z"/>
  <ellipse class="cls-10" cx="842.0269" cy="752.3848" rx=".4815" ry="1.4446"/>
  <path class="cls-4" d="M841.0394,832.7528c.6769-3.4726-.9085-5.8202-.1819-5.8304.9049-.0126,4.8703,3.6036,4.1949,6.8307-.6756,3.2282-5.7593,4.9412-6.5911,4.5624-.6901-.3143,1.8685-1.9227,2.578-5.5627Z"/>
  <path class="cls-2" d="M815.4401,817.8062c8.5096-1.4847,15.9204,1.7434,15.8369,2.1987-.0735.4004-5.9121-1.514-14.6666-.4483-6.8668.8359-11.2998,2.9907-11.443,2.6154-.1486-.3897,4.3939-3.3401,10.2727-4.3658Z"/>
  <path class="cls-10" d="M815.1121,817.4989c8.7105-1.732,16.1926,2.2095,16.1327,2.4467-.058.2296-7.1606-3.1135-16.2388-1.415-5.754,1.0765-9.6971,3.6912-9.7824,3.5133-.0897-.1872,4.1288-3.3997,9.8886-4.545Z"/>
  <ellipse class="cls-10" cx="843.2032" cy="833.5277" rx=".4815" ry="1.4446"/>
  <path class="cls-4" d="M840.7836,181.3015c.6769-3.4726-.9085-5.8202-.1819-5.8304.9049-.0126,4.8703,3.6036,4.1949,6.8307-.6756,3.2282-5.7593,4.9412-6.5911,4.5624-.6901-.3143,1.8685-1.9227,2.578-5.5627Z"/>
  <path class="cls-2" d="M815.1843,166.3548c8.5096-1.4847,15.9204,1.7434,15.8369,2.1987-.0735.4004-5.9121-1.514-14.6666-.4483-6.8668.8359-11.2998,2.9907-11.443,2.6154-.1486-.3897,4.3939-3.3401,10.2727-4.3658Z"/>
  <path class="cls-10" d="M814.8563,166.0476c8.7105-1.732,16.1926,2.2095,16.1327,2.4467-.058.2296-7.1606-3.1135-16.2388-1.415-5.754,1.0765-9.6971,3.6912-9.7824,3.5133-.0897-.1872,4.1288-3.3997,9.8886-4.545Z"/>
  <ellipse class="cls-10" cx="842.9475" cy="182.0764" rx=".4815" ry="1.4446"/>
  <path class="cls-8" d="M779.6904,60.9259c-6.4029,4.9174-6.3429,16.1853-8.663,15.8709-.1323-.0179-.2274-.0496-.3331-.1328-1.9857-1.5615-4.2402-16.372,2.8921-22.1889,7.1348-5.8187,21.1745-.6087,22.3142,1.6739.056.1121.0771.2204.0644.3611-.1912,2.1431-10.2312-.2256-16.2746,4.4158Z"/>
  <path class="cls-5" d="M774.6668,61.3463c-1.0288-.5904-.9535-3.4544.4912-5.0564,1.5862-1.7587,4.4607-1.5952,4.5822-1.213.1446.4549-3.4748,1.6525-3.2769,2.7116.1248.6682,1.639.585,1.7851,1.2687.2074.9697-2.4538,2.9363-3.5816,2.2891Z"/>
  <ellipse class="cls-5" cx="771.0545" cy="73.1414" rx=".7493" ry="1.6195"/>
  <ellipse class="cls-5" cx="831.2232" cy="131.8835" rx="5.0507" ry="1.3359"/>
  <ellipse class="cls-5" cx="824.546" cy="184.4962" rx="5.0507" ry="2.4199"/>
  <ellipse class="cls-5" cx="820.0945" cy="258.5456" rx="6.2492" ry="2.9962"/>
  <ellipse class="cls-5" cx="787.2221" cy="212.9996" rx="5.9068" ry="1.6304"/>
  <ellipse class="cls-5" cx="793.1473" cy="296.0867" rx="7.0011" ry="2.1846"/>
  <ellipse class="cls-5" cx="822.2084" cy="346.3099" rx="6.0186" ry="2.1601"/>
  <ellipse class="cls-5" cx="793.8322" cy="377.5934" rx="6.3163" ry="1.6829"/>
  <ellipse class="cls-5" cx="818.9816" cy="426.6857" rx="6.8484" ry="1.1637"/>
  <ellipse class="cls-5" cx="789.5334" cy="455.0954" rx="7.1908" ry="1.2841"/>
  <ellipse class="cls-5" cx="817.6119" cy="510.2156" rx="7.1908" ry="1.7881"/>
  <ellipse class="cls-5" cx="790.2367" cy="538.5342" rx="4.0905" ry="2.1995"/>
  <ellipse class="cls-5" cx="815.643" cy="593.8204" rx="4.5371" ry="1.2396"/>
  <ellipse class="cls-5" cx="789.5334" cy="615.3485" rx="4.7939" ry="1.4553"/>
  <ellipse class="cls-5" cx="805.231" cy="668.589" rx="3.6492" ry="1.7917"/>
  <ellipse class="cls-5" cx="795.1833" cy="696.0347" rx="5.65" ry="1.8437"/>
  <ellipse class="cls-5" cx="819.4096" cy="755.5269" rx="5.5643" ry="1.6976"/>
  <ellipse class="cls-5" cx="780.9058" cy="779.0343" rx="4.5556" ry="2.3028"/>
  <ellipse class="cls-5" cx="822.1221" cy="832.9803" rx="5.0776" ry="1.992"/>
  <ellipse class="cls-5" cx="820.7622" cy="846.296" rx="4.1947" ry=".6911"/>
  <ellipse class="cls-5" cx="800.4737" cy="867.5246" rx="3.7666" ry="1.1908"/>
  <circle class="cls-5" cx="777.4568" cy="878.9411" r="5.2219"/>
</svg>