<?xml version="1.0" encoding="UTF-8"?>
<svg id="Layer_1" data-name="Layer 1" xmlns="http://www.w3.org/2000/svg" viewBox="0 0 1621.4173 1264.252">
  <defs>
    <style>
      .cls-1 {
        fill: #e5e0e4;
      }

      .cls-2 {
        fill: #010101;
      }

      .cls-3 {
        fill: #cccbca;
      }

      .cls-4 {
        fill: #1b5229;
      }

      .cls-5 {
        fill: #fff;
      }

      .cls-6 {
        fill: #04af4b;
      }

      .cls-7 {
        stroke-width: .3142px;
      }

      .cls-7, .cls-8, .cls-9, .cls-10, .cls-11, .cls-12, .cls-13, .cls-14, .cls-15 {
        fill: none;
        stroke: #929497;
        stroke-linecap: round;
        stroke-linejoin: round;
      }

      .cls-8 {
        stroke-width: .816px;
      }

      .cls-9 {
        stroke-width: 1.0678px;
      }

      .cls-10 {
        stroke-width: .4378px;
      }

      .cls-11 {
        stroke-width: .3324px;
      }

      .cls-12 {
        stroke-width: .4139px;
      }

      .cls-13 {
        stroke-width: .5415px;
      }

      .cls-14 {
        stroke-width: .5729px;
      }

      .cls-15 {
        stroke-width: .6195px;
      }
    </style>
  </defs>
  <circle class="cls-1" cx="810.7087" cy="632.126" r="46.9816"/>
  <circle class="cls-6" cx="815.919" cy="621.3256" r="33.1309"/>
  <circle class="cls-2" cx="817.4483" cy="618.7036" r="16.5655"/>
  <circle class="cls-5" cx="814.0388" cy="616.8255" r="3.4201"/>
  <path class="cls-3" d="M822.229,677.3975c-.0479.6423-24.049,5.8764-41.3113-7.8753-17.4416-13.8944-17.5415-38.8362-16.9431-39.0163.5795-.1744,1.7689,22.8876,18.7431,36.4962,16.9112,13.5582,39.558,9.7702,39.5113,10.3953Z"/>
  <path class="cls-4" d="M805.5043,596.324c-.3177-.2776-14.2803,8.6937-14.4201,22.1227-.1048,10.0643,7.6052,17.7501,8.0372,17.5178.4178-.2247-6.2142-7.7276-5.8069-17.7909.5271-13.0241,12.4909-21.5865,12.1898-21.8496Z"/>
  <path class="cls-9" d="M801.6455,677.8728c1.223-5.1053-.2364-9.9865-3.6178-12.2604-1.6787-1.1289-3.4994-1.3921-4.8238-1.4069"/>
  <path class="cls-13" d="M802.1016,672.3116c-.6203-2.5892.1199-5.0648,1.8348-6.2181.8514-.5726,1.7748-.706,2.4465-.7135"/>
  <path class="cls-9" d="M774.454,662.6572c-1.223-5.1053.2364-9.9865,3.6178-12.2604,1.6787-1.1289,3.4994-1.3921,4.8238-1.4069"/>
  <path class="cls-13" d="M773.8692,657.6565c.6203-2.5892-.1199-5.0648-1.8348-6.2181-.8514-.5726-1.7748-.706-2.4465-.7135"/>
  <path class="cls-14" d="M774.454,661.6162c-.5971-3.0097.1154-5.8872,1.7664-7.2278.8197-.6655,1.7086-.8206,2.3552-.8294"/>
  <path class="cls-8" d="M842.2776,666.7383c-1.0958-3.8594-3.895-6.5657-6.9992-6.8153-1.5411-.1239-2.8527.3821-3.7407.8679"/>
  <path class="cls-12" d="M840.7957,663.1875c-1.3823-1.4931-1.8157-3.4196-1.1046-4.8299.353-.7001.9183-1.1347,1.3631-1.3911"/>
  <path class="cls-10" d="M841.888,666.0447c-.7285-2.2289-2.2803-3.8795-3.8821-4.1549-.7952-.1367-1.4456.0927-1.8797.3288"/>
  <path class="cls-15" d="M768.9441,611.0588c2.6167-1.5586,5.5723-1.5929,7.4156-.1124.9151.735,1.3751,1.698,1.6119,2.4291"/>
  <path class="cls-7" d="M771.6131,609.8717c1.5412-.1034,2.7847-.9406,3.1275-2.0896.1702-.5704.0847-1.1049-.0271-1.4783"/>
  <path class="cls-11" d="M769.5208,610.8791c1.564-.8503,3.2809-.9523,4.3084-.2692.5101.3391.7495.8047.8659,1.1614"/>
</svg>