<?xml version="1.0" encoding="UTF-8"?>
<svg id="_öltözék1" data-name="öltözék1" xmlns="http://www.w3.org/2000/svg" viewBox="0 0 445.26 281">
  <defs>
    <style>
      .cls-1 {
        fill: #261f20;
      }

      .cls-2 {
        fill: #fff;
      }
    </style>
  </defs>
  <path class="cls-1" d="M281.7242,18.9545c3.167-.0264,16.5771-.1396,26.0674,8.7725,9.3154,8.748,10.1475,21.7715,10.4375,28.5918,4.4658,105.0371,6.6982,157.5547-32.3438,186.3994-29.5635,21.8408-65.5449,19.7568-75.6699,18.7842-10.5029-1.0088-42.373-4.0693-64.377-28.0176-16.9609-18.459-18.3623-44.9629-20.4727-97.2188-1.377-34.0928-3.2031-97.1377,20.8955-110.2061,5.4023-2.9297,12.2227-4.5469,19.1777-4.5469,9.6318,0,18.1699,3.0488,24.0117,8.6055,15.8105,15.0029,6.9561,42.1123-2.4414,70.8213-8.9912,27.4971-18.3018,55.9365-4.7812,72.3203,7.6797,9.2949,23.3047,15.0713,40.7471,15.0713,18.1338,0,34.417-6.1465,42.4658-16.0146,7.1387-8.7529,5.8682-19.5029-5.5039-75.8223-8.7881-43.5225-12.8018-59.4492-3.334-69.1377,8.0703-8.2578,22.416-8.3799,25.1211-8.4023Z"/>
  <path class="cls-2" d="M177.0603,40.9699c3.6729,4.9033,3.5684,13.7041-.6826,17.3945-6.4346,5.5859-20.1094-2.1494-21.9668,1.2793-1.0586,1.9531,3.1348,4.8486,7.3662,11.7197,2.5234,4.1084,9.2783,14.8008,6.2422,22.0576-4.3145,10.3389-24.1699,9.8174-24.1045,14.3301.0547,3.1484,9.6084,2.458,15.9678,9.1934,8.8037,9.3115,7.9668,29.1299-1.4834,37.5332-6.8213,6.0615-16.4951,4.7305-16.6162,7.1055-.1865,3.7383,23.9502,3.2666,27.9941,13.6553,4.3145,11.0459-16.7002,27.5811-13.459,31.4375,2.8477,3.3506,18.1318-9.8672,27.123-4.7656,9.7236,5.5225,4.4014,28.2041,9.6201,29.417,5.4053,1.2461,11.207-22.918,21.9385-23.3545,11.5645-.4893,19.5977,26.957,26.0283,25.3242,5.8838-1.4824-.5801-24.3311,9.9277-31.6904,12.5352-8.7725,39.8623,11.1143,43.0527,6.501,2.8477-4.1094-19.3281-19.3486-15.4883-29.6357,3.1396-8.4531,20.6729-5.0684,24.0664-13.5889,3.9277-9.9014-17.6865-19.5332-16.2529-35.3604,1.3477-14.9014,21.7842-19.8857,19.8389-30.7637-1.6572-9.2607-17.0947-9.1768-18.8701-18.6904-2.2822-12.3428,19.3623-25.8975,16.8545-29.3496-2.0439-2.8281-16.3037,6.8203-23.2666,1.2637-2.7607-2.2402-3.2568-5.9951-3.4619-7.5947-.665-5.0508,1.4004-10.9609,5.5605-13.4365,6.9756-4.1768,17.3164,2.8291,17.791,3.166,11.2939,7.8467,10.374,23.7412,10.9023,66.2246.6123,49.1338,2.0615,46.2891.6455,60.2471-3.2236,31.5723-4.8604,47.6699-16.8535,63.2949-19.04,24.8047-51.4668,29.6553-61.9814,30.999-4.5684.584-24.2744,2.9424-47.3779-4.5244-8.9766-2.9014-21.0869-6.9707-31.585-18.0039-1.4834-1.5586-6.1113-6.5957-10.2842-14.7471-14.0088-27.3633-12.9727-71.6191-11.457-115.3232,1.4941-43.0742,4.085-56.3291,14.4541-62.5771,8.6406-5.2061,24.084-6.3906,29.8174,1.2627Z"/>
</svg>