<?xml version="1.0" encoding="UTF-8"?>
<svg id="_öltözék1" data-name="öltözék1" xmlns="http://www.w3.org/2000/svg" viewBox="0 0 445.26 281">
  <defs>
    <style>
      .cls-1 {
        fill: #261f20;
      }

      .cls-2 {
        fill: #fff;
      }
    </style>
  </defs>
  <path class="cls-1" d="M215.042,261.3623c-8.2881-.124-42.1963-.6289-65.5928-23.3594-1.5537-1.5098-3.6934-3.6055-6.1445-6.8154-9.5957-12.5684-11.3096-25.6445-13.4365-57.2061-.9971-14.7959-1.6777-27.6006-2.1494-37.7949-.332-7.6709-.5879-18.4932-.6855-31.5137-.166-22.1318,1.4932-44.2441,1.7412-66.375.0146-1.3525.0342-3.3799,1.0352-5.7412,6.2686-14.7949,38.4023-12.9033,39.9053-12.7998,8.1572.5586,19.4727,1.334,28.4541,8.3135,18.8037,14.6133,19.3721,48.6455,14.8203,96.7559-2.7988,29.584-5.4922,57.5303,6.7168,62.9619.2529.1035,2.4492,1.0361,5.1621,1.0361,1.3262,0,2.5713-.2275,3.6494-.6836,11.0693-4.582,8.4775-32.0713,5.7451-61.1387-4.4727-47.5635-4.3428-85.1211,15.3818-99.1592,8.1709-5.8154,18.4795-6.4727,31.8818-7.333,4.4355-.2852,29.3525-1.8848,33.1885,7.4961.3535.8643.6592,3.2119,1.2705,7.9053.7061,5.418.9404,9.6777.9883,10.5889.2793,5.2852.0801,7.7061.3711,10.2803.0479.4209.2695,2.2129.2695,4.6064,0,.2812-.001.4902-.002.5459-.0332,3.3994.5137,39.5293.585,50.9668.0771,12.248.1299,20.7949-.6602,32.6641-.8389,12.6025-1.9316,25.2568-5.6738,41.4141-4.6455,20.0596-9.7646,29.6475-14,35.999-4.9707,7.4551-10.1514,12.7031-13.4883,15.7842-9.2793,6.7354-34.5293,23.1211-69.333,22.6016Z"/>
  <path class="cls-2" d="M179.7539,40.5108c3.5186,4.8418,3.1025,13.375-1.1807,16.8506-6.4189,5.2422-19.5029-2.6533-21.4004.6143-1.083,1.8584,2.9082,4.7861,6.8369,11.5674,2.3359,4.0645,8.5869,14.6406,5.4297,21.6094-4.5146,9.8965-23.8018,8.8047-23.877,13.2002-.0605,3.0469,9.2793,2.6514,15.2773,9.3643,8.2861,9.3027,6.8887,28.4912-2.5469,36.3701-6.8252,5.6885-16.2002,4.1143-16.3838,6.4102-.2861,3.6221,23.2139,3.8701,26.8428,14.0664,3.8828,10.8457-17.0645,26.2607-14.0088,30.1162,2.6729,3.3262,17.9355-9.0654,26.5195-3.8398,9.3076,5.6592,3.4424,27.4873,8.5039,28.8242,5.21,1.3613,11.5752-21.9053,22.0283-22.0225,11.251-.1377,18.2686,26.7188,24.585,25.3311,5.7422-1.2803.1426-23.6396,10.5566-30.4561,12.4561-8.1523,38.4648,11.9473,41.6973,7.5732,2.9072-3.9258-18.2119-19.3535-14.2021-29.2236,3.29-8.1035,20.2734-4.2949,23.8174-12.4756,4.1084-9.4941-16.6299-19.4795-14.7949-34.7773,1.7549-14.4297,21.7695-18.6689,20.1982-29.2676-1.3193-9.0352-16.3516-9.4131-17.7881-18.6797-1.8711-12.0566,19.5869-24.5762,17.2549-27.9971-1.9258-2.8096-16.0898,6.1484-22.6787.54-2.6406-2.2275-3.0059-5.9072-3.1553-7.4453-.502-4.9287,1.6738-10.5957,5.7979-12.8926,6.9258-3.8389,16.7656,3.2656,17.2197,3.5879,10.7441,7.958,9.4102,23.3525,8.6738,64.583-.4902,27.8057-.3789,52.8408-1.126,58.4746-4.0742,30.5234-6.127,46.1074-18.2549,60.9053-21.7217,26.5723-57.6895,28.5029-66.3818,28.957-7.1689.3906-50.9385,2.7168-75.4395-25.9932-6.1055-7.1494-11.0869-16.3447-11.5322-99.7686-.3232-62.5791,2.3584-79.5762,14.542-86.2012,8.6309-4.707,23.7051-5.1377,28.9697,2.0947"/>
</svg>