<?xml version="1.0" encoding="UTF-8"?>
<svg id="_öltözék1" data-name="öltözék1" xmlns="http://www.w3.org/2000/svg" viewBox="0 0 445.26 281">
  <defs>
    <style>
      .cls-1 {
        fill: #fff;
      }

      .cls-2 {
        fill: #261f20;
        stroke: #261f20;
        stroke-miterlimit: 10;
        stroke-width: 2px;
      }
    </style>
  </defs>
  <path class="cls-2" d="M319.8236,135.0312c.0713,1.2461.3906,6.6045.6123,13.8125,1.8096,58.7861-7.6416,77.7695-10.5273,83.1455-1.3799,2.5713-3.6934,6.5654-7.1689,11.1777,0,0-3.9727,4.6133-9.1113,8.6299-34.7998,27.1982-120.1182,16.457-141.5693,4.207-8.4541-4.8281-14.6611-11.8369-14.6611-11.8369-5.0732-5.7285-7.0088-10.335-7.4541-11.4443-.9463-2.3594-1.8193-5.3047-2.6201-12.0283-1.1074-9.3008-.9609-16.4766-.9414-17.5059.1582-8.1758-.373-2.2363-1.1582-31.7197-.4326-16.251-.6367-31.7627-.6279-36.4375.0469-25.71.1309-71.3076,28.7979-99.0898,23.7197-22.9883,56.4062-23.5039,68.8154-23.6992,10.3691-.1631,57.124-.9004,80.3438,29.9912,12.9346,17.208,14.3799,42.4043,17.2705,92.7979Z"/>
  <path class="cls-1" d="M268.4631,235.5064c-3.2988-5.2793-3.5156-13.6875.6768-17.3223,6.4141-5.5615,19.7275,2.1045,21.5723-1.2803,1.0469-1.9209-3.083-4.8105-7.2363-11.6396-2.4814-4.1123-9.1172-14.7422-6.1289-21.9785,4.249-10.2812,23.7422-9.7578,23.6855-14.2578-.0381-3.124-9.4482-2.4443-15.6904-9.1367-8.6533-9.2725-7.8193-29.001,1.4541-37.3613,6.7109-6.0342,16.2158-4.6943,16.334-7.0615.1709-3.7441-23.5518-3.2598-27.5117-13.6182-4.2285-10.9795,16.415-27.4297,13.2139-31.2705-2.7939-3.3369-17.8076,9.8164-26.6357,4.7334-9.5615-5.4902-4.3232-28.0703-9.4668-29.2734-5.2949-1.2402-10.9971,22.8135-21.5303,23.2598-11.3711.4658-19.2656-26.8486-25.5879-25.2178-5.7832,1.4736.5635,24.2285-9.7568,31.542-12.2988,8.7295-39.1475-11.0762-42.292-6.4795-2.8135,4.1123,18.9727,19.2627,15.2305,29.5059-3.0879,8.4189-20.3311,5.0439-23.665,13.5205-3.8408,9.8545,17.3809,19.457,15.9834,35.1885-1.3398,14.8408-21.3965,19.8066-19.498,30.6309,1.6104,9.2148,16.7988,9.1367,18.5273,18.6035,2.25,12.2988-19.0098,25.7803-16.5479,29.2139,2.0176,2.8135,16.0225-6.7891,22.8516-1.2607,2.7373,2.2305,3.2012,5.9746,3.415,7.5654.6387,5.0244-1.3789,10.9023-5.4707,13.3652-6.8672,4.1523-17.0117-2.8115-17.4805-3.1426-11.0918-7.8174-10.2012-23.6465-10.708-65.916-.6201-48.9043-2.0361-46.0723-.6396-59.9805,3.1641-31.4072,4.793-47.4492,16.5674-62.9873,21.127-27.8955,57.3428-30.9795,66.1094-31.7168.6631-.0586,1.7666-.1553,3.3008-.2529,6.9814-.4072,43.334-2.5596,65.7783,20.4277,3.542,3.6279,5.665,6.7783,7.3174,9.2529,12.8789,19.2891,14.5391,39.2725,16.4062,77.2402,1.6445,33.4365,2.2705,56.8252-3.5049,85.5596-2.2734,11.3125-5.4453,22.9873-14.8496,27.1621-7.3486,3.2627-19.2822,2.291-24.2227-5.6172Z"/>
</svg>