<?xml version="1.0" encoding="UTF-8"?>
<svg id="_öltözék1" data-name="öltözék1" xmlns="http://www.w3.org/2000/svg" viewBox="0 0 445.26 281">
  <defs>
    <style>
      .cls-1 {
        fill: #fff;
      }

      .cls-2 {
        fill: #261f20;
        stroke: #261f20;
        stroke-miterlimit: 10;
        stroke-width: 1.8245px;
      }
    </style>
  </defs>
  <path class="cls-2" d="M303.5254,135.0319c.0593,1.2459.3251,6.6036.5096,13.8106,1.5061,58.7782-6.3602,77.7591-8.762,83.1343-1.1485,2.5709-3.074,6.5645-5.9668,11.1762,0,0-3.3065,4.6127-7.5835,8.6287-28.9643,27.1946-99.9758,16.4548-117.8299,4.2065-7.0365-4.8275-12.2026-11.8353-12.2026-11.8353-4.2225-5.7277-5.8335-10.3336-6.2041-11.4428-.7876-2.3591-1.5143-5.304-2.1808-12.0267-.9217-9.2995-.7998-16.4743-.7835-17.5035.1317-8.1747-.3105-2.236-.964-31.7155-.3601-16.2488-.5299-31.7584-.5226-36.4326.039-25.7065.1089-71.298,23.9688-99.0765,19.7422-22.9852,46.9476-23.5007,57.2759-23.696,8.6304-.1631,47.545-.9003,66.8711,29.9872,10.7656,17.2057,11.9686,42.3986,14.3745,92.7854Z"/>
  <path class="cls-1" d="M260.7774,235.4936c-2.7457-5.2786-2.9261-13.6857.5633-17.3199,5.3385-5.5608,16.4195,2.1042,17.9549-1.2801.8713-1.9206-2.566-4.8099-6.0229-11.6381-2.0653-4.1118-7.5883-14.7402-5.1012-21.9756,3.5365-10.2799,19.7609-9.7565,19.7138-14.2559-.0317-3.1236-7.8639-2.444-13.0593-9.1355-7.2023-9.2712-6.5081-28.9971,1.2103-37.3563,5.5856-6.0334,13.4966-4.6937,13.595-7.0606.1422-3.7436-19.6024-3.2593-22.8983-13.6163-3.5194-10.978,13.6624-27.426,10.9981-31.2663-2.3254-3.3365-14.8215,9.8151-22.1693,4.7328-7.9582-5.4895-3.5983-28.0665-7.8793-29.2695-4.407-1.2401-9.153,22.8104-17.9199,23.2566-9.4643.4658-16.035-26.845-21.2971-25.2144-4.8134,1.4734.469,24.2253-8.1207,31.5377-10.2365,8.7283-32.5829-11.0747-35.2001-6.4786-2.3417,4.1118,15.7912,19.2601,12.6765,29.5019-2.5701,8.4178-16.9218,5.0433-19.6967,13.5187-3.1968,9.8532,14.4663,19.4544,13.3032,35.1837-1.1152,14.8388-17.8086,19.804-16.2285,30.6267,1.3403,9.2136,13.9819,9.1355,15.4205,18.601,1.8727,12.2972-15.8221,25.7768-13.773,29.2099,1.6793,2.8131,13.3357-6.7881,19.0196-1.2606,2.2783,2.2302,2.6644,5.9738,2.8424,7.5644.5316,5.0237-1.1477,10.9009-4.5533,13.3634-5.7156,4.1518-14.1591-2.8111-14.5492-3.1422-9.2318-7.8163-8.4906-23.6433-8.9124-65.9071-.5161-48.8977-1.6947-46.0661-.5324-59.9724,2.6335-31.403,3.9892-47.4428,13.7892-62.9788,17.5842-27.8918,47.7271-30.9753,55.0236-31.7125.5519-.0586,1.4704-.1553,2.7473-.2529,5.8107-.4072,36.0674-2.5592,54.7481,20.425,2.948,3.6274,4.7151,6.7774,6.0903,9.2517,10.7193,19.2865,12.101,39.2672,13.6551,77.2298,1.3688,33.432,1.8898,56.8176-2.9172,85.5481-1.8922,11.311-4.5322,22.9842-12.3595,27.1585-6.1164,3.2623-16.0488,2.2907-20.1608-5.6164Z"/>
</svg>