<?xml version="1.0" encoding="UTF-8"?>
<svg id="_öltözék1" data-name="öltözék1" xmlns="http://www.w3.org/2000/svg" viewBox="0 0 445.26 281">
  <defs>
    <style>
      .cls-1 {
        fill: #261f20;
      }

      .cls-2 {
        fill: none;
        stroke: #261f20;
        stroke-linecap: round;
        stroke-linejoin: round;
        stroke-width: 7.8724px;
      }

      .cls-3 {
        fill: #fff;
      }
    </style>
  </defs>
  <g>
    <path class="cls-1" d="M296.5181,140.8763c0,67.685-33.7599,122.5676-75.3985,122.5676s-75.3777-54.8826-75.3777-122.5676S179.481,18.3087,221.1196,18.3087s75.3985,54.865,75.3985,122.5676"/>
    <path class="cls-2" d="M299.5181,140.0722c0,67.685-33.7599,122.5676-75.3985,122.5676s-75.3777-54.8826-75.3777-122.5676S182.481,17.5045,224.1196,17.5045s75.3985,54.865,75.3985,122.5676Z"/>
  </g>
  <path class="cls-3" d="M240.7717,184.4812c6.5107-3.6904,14.9404-5.5293,21.459-2.4492,13.1943,6.2344,14.0684,29.043,10.4463,43.0859-.7051,2.7344-3.8936,14.1035-14.3682,24-3.7539,3.5469-17.2383,15.2461-37.1895,14.3262-22.6279-1.043-35.8066-17.4404-38.6045-21.1562-2.3711-3.1484-6.8291-9.2041-8.6699-18.2969-4.3906-21.6875,10.6807-37.9756,13.3252-40.7861,6.8125-7.2412,11.0693-7.5205,12.9873-7.3633,3.4424.2832,6.0518,2.5557,8.0029,4.8623,11.7734,13.9141,14.4326,46.5889,16.1582,46.627,1.7051.0381-2.7725-31.9521,16.4531-42.8496Z"/>
  <path class="cls-3" d="M241.119,96.6266c6.5107,3.6904,14.9404,5.5293,21.459,2.4492,13.1943-6.2344,14.0684-29.043,10.4463-43.0859-.7051-2.7344-3.8936-14.1035-14.3682-24-3.7539-3.5469-17.2383-15.2461-37.1895-14.3262-22.6279,1.043-35.8066,17.4404-38.6045,21.1562-2.3711,3.1484-6.8291,9.2041-8.6699,18.2969-4.3906,21.6875,10.6807,37.9756,13.3252,40.7861,6.8125,7.2412,11.0693,7.5205,12.9873,7.3633,3.4424-.2832,6.0518-2.5557,8.0029-4.8623,11.7734-13.9141,14.4326-46.5889,16.1582-46.627,1.7051-.0381-2.7725,31.9521,16.4531,42.8496Z"/>
</svg>