<?xml version="1.0" encoding="UTF-8"?>
<svg id="szem2" xmlns="http://www.w3.org/2000/svg" viewBox="0 0 445.26 281">
  <defs>
    <style>
      .cls-1 {
        fill: #76c615;
      }

      .cls-2 {
        fill: #261f20;
      }

      .cls-3 {
        fill: #fff;
      }

      .cls-4 {
        fill: none;
        stroke: #261f20;
        stroke-linecap: round;
        stroke-linejoin: round;
        stroke-width: 21.1508px;
      }
    </style>
  </defs>
  <g>
    <path class="cls-1" d="M410.6781,278.4311c1.5409-16.7783,1.5739-37.3366,1.6077-62.3479.016-22.9601-1.8457-70.4387-3.0524-101.8457-.5855-15.0828-1.0391-26.3285-1.0391-29.027,0-4.2234-7.4549-17.5465-7.5245-17.6468-27.852-41.2116-100.2036-55.8924-158.6436-55.8924-65.2933,0-152.0192,18.083-181.216,68.5618-.049.0838-3.6539,7.8435-3.6539,7.8435-.4501.9719-.6675,1.8934-.7691,2.9664-1.884,22.6825-2.0079,77.8112-2.2423,187.3881h356.5332Z"/>
    <path class="cls-2" d="M63.0104,278.4311c.2265-109.4548.3371-164.3152,2.176-186.6475,0,0,2.8212-6.4185,2.8537-6.4862C92.4048,42.5784,167.0001,20.7915,239.0682,20.7915c63.8151,0,125.6351,17.0947,148.7911,51.8704,1.1402,1.7254,5.8803,12.4515,5.8803,12.5353,0,8.3123,4.0413,96.969,4.0097,130.8727-.0202,25.5705-.0439,46.0896-1.5625,62.3612h18.0262c1.465-17.1098,1.4861-37.6695,1.5098-62.3448.0158-23.1442-1.7977-70.7243-3.002-102.2142-.5126-13.5249-1.0077-26.2955-1.0077-28.675,0-7.8769-8.8621-22.6081-8.9464-22.7418C377.7761,24.9311,316.5856,2.5409,239.0682,2.5409c-66.7039,0-155.6097,19.2737-186.5755,73.6069-.1492.2504-3.7324,8.1942-3.7324,8.1942-.8585,1.9107-1.3176,3.8215-1.4826,5.9328-1.8881,23.0858-2.0145,78.3419-2.2419,188.1563h17.9745Z"/>
  </g>
  <g>
    <g id="_6" data-name="6">
      <g>
        <path class="cls-3" d="M67.0223,218.1521c-9.001,0-17.4229-.3527-25.1991-.9489-5.9342-3.9345-26.5237-21.4611-24.7956-49.8126,1.4764-23.8225,17.9879-38.3369,23.0248-42.2168,9.7986-1.0846,18.1018-1.2751,26.7373-1.2751,8.0278,0,16.331.1623,24.9285.5432,26.2293,1.1658,52.639,4.2045,78.4411,9.0349,1.9654.3792,3.4608,2.6578,3.5605,5.4249l2.0414,56.135c.1139,2.7671-1.2248,5.2361-3.1523,5.8869-25.9587,8.7368-53.0283,14.2163-80.4635,16.2796-8.7874.6773-17.1713.9489-25.1232.9489"/>
        <path class="cls-2" d="M66.8182,129.6566c7.9709,0,16.2361.1904,24.7529.5432,29.2249,1.3016,55.421,4.7741,78.0138,8.9802.7026,18.7205,1.3815,37.441,2.0651,56.1615-20.1859,6.7546-47.2365,13.6467-79.7276,16.1157-8.7115.6508-17.0336.9224-24.9095.9224-8.9251,0-17.2663-.3527-24.9665-.9224-2.4924-1.9259-22.4599-18.0151-20.9075-43.573,1.3625-22.1119,17.8739-35.3247,20.9075-37.6844,7.9139-.3262,16.1791-.5432,24.7719-.5432M66.8182,118.1262c-8.6925,0-17.0336.1904-25.0282.5432-1.3198.0811-2.6016.5696-3.7504,1.4374-7.0214,5.4265-23.547,20.8633-25.1232,46.8004-1.9654,31.9068,20.5704,51.0893,25.1042,54.6148,1.1061.8694,2.331,1.3579,3.5748,1.439,8.4219.6508,16.9767.977,25.4175.977s16.9767-.3262,25.3558-.977c27.6725-2.0898,54.9937-7.5975,81.2041-16.4154,3.8691-1.3016,6.5324-6.2396,6.3378-11.8019l-1.0302-28.1346-1.0302-27.9988c-.1946-5.5623-3.2092-10.1195-7.1543-10.8531-25.9397-4.8552-52.4634-7.9221-78.8494-9.0878-8.6165-.3809-16.9577-.5432-25.0282-.5432"/>
        <path class="cls-2" d="M114.0969,162.4508c2.274,7.8368-4.3581,16.6455-14.8166,19.6791-10.4632,3.0336-20.7888-.8367-23.0628-8.6735-2.274-7.8166,4.3534-16.6254,14.8166-19.6779,10.4632-3.0336,20.7888.8355,23.0628,8.6723"/>
        <path class="cls-3" d="M387.1489,215.9244c7.7632-.2651,15.0148-.8657,21.7012-1.6906,4.9838-4.107,22.1434-22.2299,19.6853-50.514-2.0866-23.7651-16.8227-37.7846-21.2994-41.5139-8.4881-.7954-15.6559-.7411-23.1038-.4867-6.9238.2365-14.0796.6433-21.4817,1.2772-22.5824,1.9378-45.2564,5.7526-67.3451,11.3403-1.6822.4369-2.8942,2.7582-2.8857,5.5266l.1555,56.1624c-.0038,2.7688,1.2351,5.197,2.9197,5.7906,22.687,7.967,46.2209,12.646,69.9535,13.8999,7.602.418,14.8422.4425,21.7005.2082"/>
        <path class="cls-2" d="M385.2291,127.4428c-6.7558.2307-13.7545.6603-20.961,1.2594-24.7254,2.1468-46.8095,6.3756-65.8147,11.2333.0435,18.7299.1071,37.4592.1667,56.1885,17.3393,6.1663,40.5015,12.2713,68.1239,13.7983,7.4057.3982,14.4685.4287,21.1438.2007,7.5645-.2584,14.6221-.8523,21.1291-1.6446,2.0467-1.9969,18.4211-18.6547,16.233-44.1528-1.9096-22.0596-16.355-34.7867-19.0067-37.0572-6.7186-.0969-13.7313-.0745-21.0141.1743M384.8355,115.9191c7.3674-.2516,14.4435-.3028,21.2314-.1817,1.1214.0429,2.2244.494,3.2278,1.328,6.1363,5.2201,20.6696,20.1695,22.8909,46.0459,2.7549,31.8313-15.6907,51.655-19.413,55.3097-.9078.9009-1.9293,1.4246-2.9807,1.5417-7.1158.8942-14.3553,1.4679-21.5095,1.7122-7.1541.2443-14.3998.1654-21.5239-.2424-23.5254-1.2875-46.8697-6.0011-69.3855-14.0552-3.3237-1.1888-5.7496-6.0469-5.7745-11.6116l-.0872-28.148-.0826-28.0123c-.0249-5.5647,2.3746-10.2065,5.6932-11.0539,21.8197-5.6033,44.1953-9.4361,66.5192-11.3651,7.29-.6301,14.3541-1.0337,21.1943-1.2674"/>
        <path class="cls-2" d="M310.8531,164.718c-1.7593,7.9014,4.4525,16.5032,13.8775,19.2166,9.4293,2.7133,18.5002-1.4691,20.2594-9.3705,1.76-7.8812-4.4476-16.4831-13.8775-19.2154-9.4293-2.7133-18.5002,1.4679-20.2595,9.3693"/>
        <path class="cls-2" d="M182.399,278.429c-9.3008-27.5439-18.0801-55.5205-4.3965-72.2671,8.0117-9.8218,24.2178-15.9385,42.2656-15.9385,17.3613,0,32.9131,5.7485,40.5566,14.9995,13.457,16.3071,4.1895,44.6128-4.7588,71.9805-.1338.4092-.2666.8169-.4004,1.2256h62.6914c.0391-8.5142-.084-21.1328-.9375-36.3857-3.1396-56.1113-4.71-84.167-21.8213-103.3804-21.085-23.6753-53.667-25.6309-63.7344-26.2354-2.5908-.1558-41.7256-1.249-74.209,23.6641-31.4336,24.1079-34.9346,65.6162-33.3535,142.3374h58.0977Z"/>
        <path class="cls-2" d="M252.309,278.4291h6.7152c9.2186-28.1946,18.8677-57.5465,4.2466-75.2427-8.8827-10.7595-25.8583-16.1393-43.0025-16.1393-17.6307,0-35.429,5.6979-44.7492,17.0947-14.5739,17.854-5.8321,46.5847,3.5114,74.2874h6.7473c-9.158-27.037-18.0442-54.6443-5.2955-70.2489,7.422-9.0997,22.675-14.7646,39.7861-14.7646,16.4401,0,31.0345,5.3134,38.0928,13.8431,12.3325,14.9322,3.3509,42.4009-5.3312,68.9637-.2406.7348-.4813,1.4705-.721,2.2066Z"/>
        <path class="cls-2" d="M127.4799,278.4293c-1.5801-75.5293,1.7559-116.52,32.1191-139.7983,13.7324-10.5278,39.375-25.5781,72.2646-23.0112,7.8018.6089,39.498,3.083,60.3994,26.8101,17.248,19.5801,18.8232,46.3555,21.9727,99.9062.8896,15.1216.9824,27.6382.9092,36.0933,2.5547.0098,5.1094.02,7.6641.0298h0c-.0615-59.3535-.7871-66.0107-2.2393-79.3252-.1191-1.0923-.1748-1.6392-.2598-2.3042-2.0078-15.73-5.166-40.4712-22.7764-60.0469-22.5547-25.0708-55.5898-26.9688-65.6699-27.5479-3.167-.1821-42.9141-1.1401-76.1523,24.3345-32.6699,25.0391-36.2295,67.3022-34.6133,144.8599h6.3818Z"/>
        <path class="cls-3" d="M141.0848,278.4291c2.2209-8.6238,18.1753-14.0138,19.3525-27.1849,1.4072-15.7534-19.8276-25.3401-15.9695-35.1946,3.3349-8.4798,20.5601-5.1115,23.6455-13.5249,3.7725-10.2391-18.0157-25.4065-15.2165-29.4962,3.1335-4.5915,29.9828,15.2013,42.2984,6.4697,10.3228-7.3239,3.973-30.0657,9.7542-31.5411,6.3178-1.6251,14.2103,25.6926,25.5723,25.2055,10.5447-.4349,16.244-24.485,21.5547-23.2444,5.1271,1.2071-.1025,23.7814,9.4521,29.2783,8.8336,5.0776,23.8496-8.0779,26.648-4.743,3.1834,3.838-17.4632,20.2954-13.2237,31.2894,3.973,10.3407,27.688,9.871,27.5035,13.5913-.1185,2.3639-9.6232,1.0391-16.3251,7.0722-9.2846,8.3631-10.1063,28.089-1.4571,37.3562,6.2482,6.7041,15.6344,6.0165,15.687,9.1509.0365,2.4771-5.8829,3.4325-11.9092,5.5157h20.2027c.1586-7.7981.3128-16.6045.5035-26.5824.786-41.9143,1.5917-71.444-15.1835-96.8171-3.4534-5.2118-6.2848-8.1955-7.3239-9.2512-22.4423-22.9762-58.792-20.8315-65.7808-20.4131-1.5257.0842-2.6469.1854-3.3019.2518-8.7641.7375-44.9792,3.8215-66.1123,31.7087-11.7835,15.5524-13.3913,31.5741-16.5586,62.9971-1.3725,13.7143-.0036,11.1374.6105,58.1062h5.5772Z"/>
      </g>
    </g>
    <line class="cls-4" x1="408.9354" y1="101.1941" x2="318.1357" y2="105.9951"/>
    <line class="cls-4" x1="135.9481" y1="102.445" x2="45.1484" y2="107.246"/>
  </g>
</svg>