<?xml version="1.0" encoding="UTF-8"?>
<svg id="szem2" xmlns="http://www.w3.org/2000/svg" viewBox="0 0 445.26 281">
  <defs>
    <style>
      .cls-1 {
        fill: #76c615;
      }

      .cls-2 {
        fill: #261f20;
      }

      .cls-3 {
        fill: #fff;
      }

      .cls-4 {
        fill: none;
        stroke: #261f20;
        stroke-linecap: round;
        stroke-linejoin: round;
        stroke-width: 24.6565px;
      }
    </style>
  </defs>
  <g>
    <path class="cls-1" d="M411.3677,277.2431c1.5649-17.04,1.5984-37.919,1.6328-63.3204.0163-23.3183-1.8745-71.5374-3.1-103.4343-.5947-15.318-1.0554-26.7391-1.0554-29.4798,0-4.2893-7.5712-17.8202-7.6418-17.922C372.917,21.2322,299.4368,6.3224,240.0853,6.3224c-66.3118,0-154.3904,18.3651-184.0426,69.6312-.0498.0851-3.7109,7.9658-3.7109,7.9658-.4571.987-.6779,1.9229-.7811,3.0126-1.9134,23.0363-2.0392,79.0249-2.2772,190.3109h362.0944Z"/>
    <path class="cls-2" d="M60.2278,277.2332c.2265-109.4548.3371-164.3152,2.176-186.6475,0,0,2.8212-6.4185,2.8537-6.4862C89.6223,41.3804,164.2176,19.5936,236.2856,19.5936c63.8151,0,125.6351,17.0947,148.7911,51.8704,1.1402,1.7254,5.8803,12.4515,5.8803,12.5353,0,8.3123,4.0413,96.969,4.0097,130.8727-.0202,25.5705-.0439,46.0896-1.5625,62.3612h18.0262c1.465-17.1098,1.4861-37.6695,1.5098-62.3448.0158-23.1442-1.7977-70.7243-3.002-102.2142-.5126-13.5249-1.0077-26.2955-1.0077-28.675,0-7.8769-8.8621-22.6081-8.9464-22.7418C374.9936,23.7332,313.803,1.343,236.2856,1.343,169.5817,1.343,80.6759,20.6167,49.7102,74.9499c-.1492.2504-3.7324,8.1942-3.7324,8.1942-.8585,1.9107-1.3176,3.8215-1.4826,5.9328-1.8881,23.0858-2.0145,78.3419-2.2419,188.1563h17.9745Z"/>
    <path class="cls-2" d="M181.8534,277.2332c-9.3008-27.5439-18.0801-55.5205-4.3965-72.2671,8.0117-9.8218,24.2178-15.9385,42.2656-15.9385,17.3613,0,32.9131,5.7485,40.5566,14.9995,13.457,16.3071,4.1895,44.6128-4.7588,71.9805-.1338.4092-.2666.8169-.4004,1.2256h62.6914c.0391-8.5142-.084-21.1328-.9375-36.3857-3.1396-56.1113-4.71-84.167-21.8213-103.3804-21.085-23.6753-53.667-25.6309-63.7344-26.2354-2.5908-.1558-41.7256-1.249-74.209,23.6641-31.4336,24.1079-34.9346,65.6162-33.3535,142.3374h58.0977Z"/>
    <path class="cls-2" d="M251.7634,277.2332h6.7152c9.2186-28.1946,18.8677-57.5465,4.2466-75.2427-8.8827-10.7595-25.8583-16.1393-43.0025-16.1393-17.6307,0-35.429,5.6979-44.7492,17.0947-14.5739,17.854-5.8321,46.5847,3.5114,74.2874h6.7473c-9.158-27.037-18.0442-54.6443-5.2955-70.2489,7.422-9.0997,22.675-14.7646,39.7861-14.7646,16.4401,0,31.0345,5.3134,38.0928,13.8431,12.3325,14.9322,3.3509,42.4009-5.3312,68.9637-.2406.7348-.4813,1.4705-.721,2.2066Z"/>
    <path class="cls-2" d="M126.9342,277.2332c-1.5801-75.5293,1.7559-116.52,32.1191-139.7983,13.7324-10.5278,39.375-25.5781,72.2646-23.0112,7.8018.6089,39.498,3.083,60.3994,26.8101,17.248,19.5801,18.8232,46.3555,21.9727,99.9062.8896,15.1216.9824,27.6382.9092,36.0933,2.5557.0137,5.1113.0269,7.667.0405h0c.4639-54.5156-2.2422-79.3359-2.2422-79.3359-.1191-1.0923-.1748-1.6392-.2598-2.3042-2.0078-15.73-5.166-40.4712-22.7764-60.0469-22.5547-25.0708-55.5898-26.9688-65.6699-27.5479-3.167-.1821-42.9141-1.1401-76.1523,24.3345-32.6699,25.0391-36.2295,67.3022-34.6133,144.8599h6.3818Z"/>
    <path class="cls-3" d="M140.5392,277.2332c2.2209-8.6238,18.1753-14.0138,19.3525-27.1849,1.4072-15.7534-19.8276-25.3401-15.9695-35.1946,3.3349-8.4798,20.5601-5.1115,23.6455-13.5249,3.7725-10.2391-18.0157-25.4065-15.2165-29.4962,3.1335-4.5915,29.9828,15.2013,42.2984,6.4697,10.3228-7.3239,3.973-30.0657,9.7542-31.5411,6.3178-1.6251,14.2103,25.6926,25.5723,25.2055,10.5447-.4349,16.244-24.485,21.5547-23.2444,5.1271,1.2071-.1025,23.7814,9.4521,29.2783,8.8336,5.0776,23.8496-8.0779,26.648-4.743,3.1834,3.838-17.4632,20.2954-13.2237,31.2894,3.973,10.3407,27.688,9.871,27.5035,13.5913-.1185,2.3639-9.6232,1.0391-16.3251,7.0722-9.2846,8.3631-10.1063,28.089-1.4571,37.3562,6.2482,6.7041,15.6344,6.0165,15.687,9.1509.0365,2.4771-5.8829,3.4325-11.9092,5.5157h20.2027c.1586-7.7981.3128-16.6045.5035-26.5824.786-41.9143,1.5917-71.444-15.1835-96.8171-3.4534-5.2118-6.2848-8.1955-7.3239-9.2512-22.4423-22.9762-58.792-20.8315-65.7808-20.4131-1.5257.0842-2.6469.1854-3.3019.2518-8.7641.7375-44.9792,3.8215-66.1123,31.7087-11.7835,15.5524-13.3913,31.5741-16.5586,62.9971-1.3725,13.7143-.0036,11.1374.6105,58.1062h5.5772Z"/>
    <g>
      <path class="cls-2" d="M56.7378,73.9077c-6.1879-.4112-12.1583-.4007-17.8897-.0731-2.5209,4.6162-16.1705,30.5714-20.1268,75.258-4.5558,51.6396,7.6571,85.1277,9.2009,89.1576,5.4451,1.5417,11.4039,2.6671,17.8313,3.0942,5.6649.3764,11.7103.1981,18.0644-.7089,23.7138-3.4239,44.0974-16.0577,59.545-28.8061,2.0133-37.9066,4.0511-75.8116,6.0693-113.7166-15.6874-9.6461-34.0851-17.8851-54.9278-21.9088-6.0977-1.1778-12.0185-1.9144-17.7665-2.2964M57.5469,61.7318c6.3687.4232,12.7839,1.2568,19.0805,2.4701,19.9129,3.8323,39.6418,11.6884,58.5953,23.3102,3.7069,2.2853,5.874,6.6119,5.6288,11.1881l-6.0644,113.7169c-.1966,3.5488-1.825,6.8519-4.4641,9.0363-21.317,17.5925-43.211,28.1315-65.0795,31.2695-6.7606.9676-13.5931,1.243-20.2991.7974-6.706-.4456-13.4468-1.623-20.0395-3.478-3.4549-.9799-6.255-3.6122-7.6116-7.1346-2.4817-6.5384-14.6313-41.8661-9.9615-94.8509,3.8623-43.6412,16.4007-70.6787,21.6182-80.266,1.9527-3.6024,5.4845-5.9213,9.377-6.134,6.4018-.3695,12.8757-.3465,19.22.0751"/>
      <path class="cls-3" d="M47.8788,242.3925c5.7855.3845,11.7077.1302,17.5405-.7381,19.0843-2.8842,38.2798-12.4441,57.0566-28.4736,1.2272-1.0323,1.9783-2.603,2.0716-4.2781l5.7684-107.3478c.1076-2.1599-.8981-4.1911-2.5908-5.2765-16.804-10.6157-34.2467-17.7705-51.8765-21.2303-5.7538-1.1315-11.3734-1.8498-16.8146-2.2114-5.8749-.3904-11.5442-.3617-17.0086-.0362-1.7539.106-3.3768,1.2133-4.2804,2.9161-4.6273,8.7453-15.7398,33.4469-19.264,73.4366-4.2609,48.9145,6.4156,80.9162,8.6134,86.8354.6082,1.6599,1.8879,2.8797,3.4599,3.3489,5.6845,1.6337,11.5389,2.6706,17.3244,3.055"/>
      <path class="cls-2" d="M121.9198,198.9113c2.6034,13.3993-8.5262,27.5461-24.855,31.6062-16.3063,4.0603-31.6593-3.5218-34.2627-16.921-2.6079-13.3996,8.5231-27.5661,24.8505-31.6065,16.3108-4.06,31.6638,3.5221,34.2672,16.9213"/>
    </g>
    <g>
      <path class="cls-2" d="M388.5222,73.9077c6.1879-.4112,12.1583-.4007,17.8897-.0731,2.5209,4.6162,16.1705,30.5714,20.1268,75.258,4.5558,51.6396-7.6571,85.1277-9.2009,89.1576-5.4451,1.5417-11.4039,2.6671-17.8313,3.0942-5.6649.3764-11.7103.1981-18.0644-.7089-23.7138-3.4239-44.0974-16.0577-59.545-28.8061-2.0133-37.9066-4.0511-75.8116-6.0693-113.7166,15.6874-9.6461,34.0851-17.8851,54.9278-21.9088,6.0977-1.1778,12.0185-1.9144,17.7665-2.2964M387.7131,61.7318c-6.3687.4232-12.7839,1.2568-19.0805,2.4701-19.9129,3.8323-39.6418,11.6884-58.5953,23.3102-3.7069,2.2853-5.874,6.6119-5.6288,11.1881l6.0644,113.7169c.1966,3.5488,1.825,6.8519,4.4641,9.0363,21.317,17.5925,43.211,28.1315,65.0795,31.2695,6.7606.9676,13.5931,1.243,20.2991.7974,6.706-.4456,13.4468-1.623,20.0395-3.478,3.4549-.9799,6.255-3.6122,7.6116-7.1346,2.4817-6.5384,14.6313-41.8661,9.9615-94.8509-3.8623-43.6412-16.4007-70.6787-21.6182-80.266-1.9527-3.6024-5.4845-5.9213-9.377-6.134-6.4018-.3695-12.8757-.3465-19.22.0751"/>
      <path class="cls-3" d="M397.3812,242.3925c-5.7855.3845-11.7077.1302-17.5405-.7381-19.0843-2.8842-38.2798-12.4441-57.0566-28.4736-1.2272-1.0323-1.9783-2.603-2.0716-4.2781l-5.7684-107.3478c-.1076-2.1599.8981-4.1911,2.5908-5.2765,16.804-10.6157,34.2467-17.7705,51.8765-21.2303,5.7538-1.1315,11.3734-1.8498,16.8146-2.2114,5.8749-.3904,11.5442-.3617,17.0086-.0362,1.7539.106,3.3768,1.2133,4.2804,2.9161,4.6273,8.7453,15.7398,33.4469,19.264,73.4366,4.2609,48.9145-6.4156,80.9162-8.6134,86.8354-.6082,1.6599-1.8879,2.8797-3.4599,3.3489-5.6845,1.6337-11.5389,2.6706-17.3244,3.055"/>
      <path class="cls-2" d="M323.3402,198.9113c-2.6034,13.3993,8.5262,27.5461,24.855,31.6062,16.3063,4.0603,31.6593-3.5218,34.2627-16.921,2.6079-13.3996-8.5231-27.5661-24.8505-31.6065-16.3108-4.06-31.6638,3.5221-34.2672,16.9213"/>
    </g>
  </g>
  <line class="cls-4" x1="337.2548" y1="37.7966" x2="272.0187" y2="121.3819"/>
  <line class="cls-4" x1="111.2747" y1="37.7966" x2="176.5108" y2="121.3819"/>
</svg>