<?xml version="1.0" encoding="UTF-8"?>
<svg id="szem1" xmlns="http://www.w3.org/2000/svg" viewBox="0 0 445.26 281">
  <defs>
    <style>
      .cls-1 {
        fill: #76c615;
      }

      .cls-2 {
        fill: #261f20;
      }

      .cls-3 {
        fill: #fff;
      }
    </style>
  </defs>
  <g>
    <path class="cls-1" d="M407.1951,277.0353c1.5605-16.7783,1.5939-37.3366,1.6282-62.3479.0162-22.9601-1.8691-70.4387-3.0911-101.8457-.593-15.0828-1.0523-26.3285-1.0523-29.027,0-4.2234-7.5496-17.5465-7.62-17.6468-28.2057-41.2116-101.4761-55.8924-160.6582-55.8924-66.1225,0-153.9497,18.083-183.5173,68.5618-.0496.0838-3.7003,7.8435-3.7003,7.8435-.4558.9719-.676,1.8934-.7789,2.9664-1.9079,22.6825-2.0334,77.8112-2.2707,187.3881h361.0608Z"/>
    <path class="cls-2" d="M55.1123,277.0353c.2293-109.4548.3414-164.3152,2.2037-186.6475,0,0,2.857-6.4185,2.8899-6.4862C84.88,41.1826,160.4226,19.3957,233.4058,19.3957c64.6255,0,127.2305,17.0947,150.6806,51.8704,1.1547,1.7254,5.955,12.4515,5.955,12.5353,0,8.3123,4.0927,96.969,4.0607,130.8727-.0204,25.5705-.0444,46.0896-1.5823,62.3612h18.2552c1.4836-17.1098,1.505-37.6695,1.529-62.3448.016-23.1442-1.8205-70.7243-3.0402-102.2142-.5191-13.5249-1.0205-26.2955-1.0205-28.675,0-7.8769-8.9747-22.6081-9.06-22.7418C373.8753,23.5354,311.9076,1.1451,233.4058,1.1451,165.8548,1.1451,75.82,20.4188,44.4611,74.7521c-.1511.2504-3.7797,8.1942-3.7797,8.1942-.8694,1.9107-1.3343,3.8215-1.5014,5.9328-1.9121,23.0858-2.0401,78.3419-2.2703,188.1563h18.2027Z"/>
    <path class="cls-2" d="M178.2823,277.0353c-9.4189-27.5439-18.3097-55.5205-4.4523-72.2671,8.1135-9.8218,24.5253-15.9385,42.8024-15.9385,17.5818,0,33.331,5.7485,41.0717,14.9995,13.6279,16.3071,4.2427,44.6128-4.8192,71.9805-.1355.4092-.27.8169-.4055,1.2256h63.4875c.0396-8.5142-.0851-21.1328-.9494-36.3857-3.1795-56.1113-4.7698-84.167-22.0984-103.3804-21.3527-23.6753-54.3485-25.6309-64.5437-26.2354-2.6237-.1558-42.2555-1.249-75.1514,23.6641-31.8328,24.1079-35.3782,65.6162-33.7771,142.3374h58.8354Z"/>
    <path class="cls-2" d="M249.0802,277.0353h6.8005c9.3357-28.1946,19.1073-57.5465,4.3005-75.2427-8.9955-10.7595-26.1867-16.1393-43.5486-16.1393-17.8546,0-35.8789,5.6979-45.3175,17.0947-14.759,17.854-5.9061,46.5847,3.5559,74.2874h6.833c-9.2743-27.037-18.2734-54.6443-5.3628-70.2489,7.5162-9.0997,22.9629-14.7646,40.2914-14.7646,16.6488,0,31.4286,5.3134,38.5766,13.8431,12.4891,14.9322,3.3935,42.4009-5.3989,68.9637-.2437.7348-.4874,1.4705-.7301,2.2066Z"/>
    <path class="cls-2" d="M122.6658,277.0355c-1.5996-75.5293,1.7783-116.52,32.5273-139.7983,13.9062-10.5278,39.875-25.5781,73.1826-23.0112,7.9004.6089,39.999,3.083,61.166,26.8101,17.4668,19.5801,19.0625,46.3555,22.252,99.9062.9004,15.1216.9941,27.6382.9209,36.0933,2.5596.0151,5.1201.0308,7.6797.0459h0c-.0264-31.9927-.3574-42.2402-1.0215-62.7358-.0938-2.8984-.4189-8.873-1.1641-16.605-.0742-.77-.1602-1.5005-.2637-2.3047-2.0332-15.73-5.2314-40.4712-23.0654-60.0469-22.8418-25.0708-56.2959-26.9688-66.5039-27.5479-3.208-.1821-43.459-1.1401-77.1201,24.3345-33.085,25.0391-36.6895,67.3022-35.0527,144.8599h6.4629Z"/>
    <path class="cls-3" d="M136.4435,277.0353c2.2491-8.6238,18.4061-14.0138,19.5983-27.1849,1.4251-15.7534-20.0793-25.3401-16.1723-35.1946,3.3772-8.4798,20.8212-5.1115,23.9458-13.5249,3.8204-10.2391-18.2445-25.4065-15.4097-29.4962,3.1733-4.5915,30.3636,15.2013,42.8356,6.4697,10.4539-7.3239,4.0234-30.0657,9.8781-31.5411,6.398-1.6251,14.3907,25.6926,25.897,25.2055,10.6787-.4349,16.4503-24.485,21.8284-23.2444,5.1922,1.2071-.1038,23.7814,9.5722,29.2783,8.9458,5.0776,24.1524-8.0779,26.9864-4.743,3.2238,3.838-17.6849,20.2954-13.3916,31.2894,4.0234,10.3407,28.0396,9.871,27.8528,13.5913-.12,2.3639-9.7454,1.0391-16.5324,7.0722-9.4025,8.3631-10.2346,28.089-1.4756,37.3562,6.3276,6.7041,15.833,6.0165,15.8862,9.1509.037,2.4771-5.9576,3.4325-12.0604,5.5157h20.4593c.1606-7.7981.3168-16.6045.5099-26.5824.796-41.9143,1.6119-71.444-15.3763-96.8171-3.4973-5.2118-6.3646-8.1955-7.4169-9.2512-22.7273-22.9762-59.5386-20.8315-66.6162-20.4131-1.5451.0842-2.6805.1854-3.3438.2518-8.8754.7375-45.5504,3.8215-66.9519,31.7087-11.9332,15.5524-13.5613,31.5741-16.7689,62.9971-1.3899,13.7143-.0036,11.1374.6182,58.1062h5.648Z"/>
  </g>
  <g>
    <g>
      <g>
        <path class="cls-3" d="M49.6157,228.5699c5.7204.4842,11.7772.7193,18.145.6024,19.8531-.326,39.7458-3.9853,59.161-10.8834,1.5398-.545,2.5896-1.9462,2.6896-3.5866l3.0662-53.3536c.0959-1.8202-.9936-4.0172-2.7096-4.6001-18.0272-6.2338-36.6539-10.77-55.3347-13.4643-6.1028-.8936-12.0442-1.5748-17.7647-2.059-6.1731-.5225-12.146-.8305-17.8532-.9559-1.0307-.0266-2.0353.3248-2.7856.996-3.7999,3.3532-16.4295,15.9711-19.2155,37.3673-3.3222,25.3833,9.5471,42.8209,12.1552,46.0412.5916.746,1.4409,1.2544,2.4004,1.435,5.5324,1.0442,11.5791,1.9137,18.0458,2.4611"/>
        <path class="cls-2" d="M56.5176,145.256c-6.096-.516-11.9872-.8158-17.6204-.9556-2.3572,2.0653-15.125,13.7367-17.8876,34.8572-3.1746,24.3834,9.7022,40.9875,11.298,42.9897,5.3993,1.0123,11.308,1.8507,17.6399,2.3867,5.5808.4724,11.5203.7169,17.7468.6087,23.2554-.4151,43.0015-5.3792,57.8711-10.6555,1.028-17.9889,2.0689-35.9574,3.0954-53.9282-15.6924-5.3996-33.9936-10.2865-54.6129-13.2831-6.0274-.8679-11.8677-1.5405-17.5303-2.0198M57.1988,137.2087c5.8167.4924,11.8223,1.1596,18.0022,2.0597,18.9327,2.7556,37.8161,7.3536,56.0952,13.6474,3.4351,1.1855,5.6576,4.492,5.4292,8.1075l-.0817,1.4237-3.0137,52.5045c-.1727,3.2432-2.2979,6.0628-5.3727,7.1531-19.7849,7.0256-40.1018,10.769-60.4125,11.1157-6.1862.0911-12.4262-.0989-18.58-.6198s-12.361-1.3846-18.4391-2.5138c-1.919-.3613-3.6223-1.3796-4.8232-2.8913-2.7855-3.4742-16.5193-22.1573-13.0074-49.0934,2.9848-22.8294,16.5003-36.2865,20.5578-39.8761,1.5247-1.3404,3.5114-2.0658,5.5343-2.0146,5.8065.1545,11.8374.4661,18.1116.9972"/>
      </g>
      <path class="cls-2" d="M133.3679,198.7614c.0287,5.207-2.6556,9.2705-5.2836,13.1775-11.0206,16.3823-31.1803,19.3448-37.215,20.2315-1.9947.2932-42.9652,5.9-52.0753-14.3786-7.6613-17.0527,9.7488-43.8947,31.8612-51.1938,27.8775-9.2024,62.6069,12.8631,62.7128,32.1634Z"/>
    </g>
    <g>
      <g>
        <path class="cls-3" d="M397.3342,228.5699c-5.7204.4842-11.7772.7193-18.145.6024-19.8531-.326-39.7458-3.9853-59.161-10.8834-1.5398-.545-2.5896-1.9462-2.6896-3.5866l-3.0662-53.3536c-.0959-1.8202.9936-4.0172,2.7096-4.6001,18.0272-6.2338,36.6539-10.77,55.3347-13.4643,6.1028-.8936,12.0442-1.5748,17.7647-2.059,6.1731-.5225,12.146-.8305,17.8532-.9559,1.0307-.0266,2.0353.3248,2.7856.996,3.7999,3.3532,16.4295,15.9711,19.2155,37.3673,3.3222,25.3833-9.5471,42.8209-12.1552,46.0412-.5916.746-1.4409,1.2544-2.4004,1.435-5.5324,1.0442-11.5791,1.9137-18.0458,2.4611"/>
        <path class="cls-2" d="M390.4323,145.256c6.096-.516,11.9872-.8158,17.6204-.9556,2.3572,2.0653,15.125,13.7367,17.8876,34.8572,3.1746,24.3834-9.7022,40.9875-11.298,42.9897-5.3993,1.0123-11.308,1.8507-17.6399,2.3867-5.5808.4724-11.5203.7169-17.7468.6087-23.2554-.4151-43.0015-5.3792-57.8711-10.6555-1.028-17.9889-2.0689-35.9574-3.0954-53.9282,15.6924-5.3996,33.9936-10.2865,54.6129-13.2831,6.0274-.8679,11.8677-1.5405,17.5303-2.0198M389.7511,137.2087c-5.8167.4924-11.8223,1.1596-18.0022,2.0597-18.9327,2.7556-37.8161,7.3536-56.0952,13.6474-3.4351,1.1855-5.6576,4.492-5.4292,8.1075l.0817,1.4237,3.0137,52.5045c.1727,3.2432,2.2979,6.0628,5.3727,7.1531,19.7849,7.0256,40.1018,10.769,60.4125,11.1157,6.1862.0911,12.4262-.0989,18.58-.6198s12.361-1.3846,18.4391-2.5138c1.919-.3613,3.6223-1.3796,4.8232-2.8913,2.7855-3.4742,16.5193-22.1573,13.0074-49.0934-2.9848-22.8294-16.5003-36.2865-20.5578-39.8761-1.5247-1.3404-3.5114-2.0658-5.5343-2.0146-5.8065.1545-11.8374.4661-18.1116.9972"/>
      </g>
      <path class="cls-2" d="M313.582,198.7614c-.0287,5.207,2.6556,9.2705,5.2836,13.1775,11.0206,16.3823,31.1803,19.3448,37.215,20.2315,1.9947.2932,42.9652,5.9,52.0753-14.3786,7.6613-17.0527-9.7488-43.8947-31.8612-51.1938-27.8775-9.2024-62.6069,12.8631-62.7128,32.1634Z"/>
    </g>
  </g>
</svg>