<?xml version="1.0" encoding="UTF-8"?>
<svg id="beltér1" xmlns="http://www.w3.org/2000/svg" viewBox="0 0 445.26 281">
  <defs>
    <style>
      .cls-1 {
        fill: #76c615;
      }

      .cls-2 {
        fill: #261f20;
      }

      .cls-3 {
        fill: #fff;
      }

      .cls-4 {
        fill: none;
        stroke: #261f20;
        stroke-linecap: round;
        stroke-linejoin: round;
        stroke-width: 16.8145px;
      }
    </style>
  </defs>
  <g>
    <path class="cls-1" d="M406.0659,277.3391c1.5409-16.7783,1.5739-37.3366,1.6077-62.3479.016-22.9601-1.8457-70.4387-3.0524-101.8457-.5855-15.0828-1.0391-26.3285-1.0391-29.027,0-4.2234-7.4549-17.5465-7.5245-17.6468-27.852-41.2116-100.2036-55.8924-158.6436-55.8924-65.2933,0-152.0192,18.083-181.216,68.5618-.049.0838-3.6539,7.8435-3.6539,7.8435-.4501.9719-.6675,1.8934-.7691,2.9664-1.884,22.6825-2.0079,77.8112-2.2423,187.3881h356.5332Z"/>
    <path class="cls-2" d="M58.3982,277.3391c.2265-109.4548.3371-164.3152,2.176-186.6475,0,0,2.8212-6.4185,2.8537-6.4862C87.7926,41.4863,162.3879,19.6995,234.456,19.6995c63.8151,0,125.6351,17.0947,148.7911,51.8704,1.1402,1.7254,5.8803,12.4515,5.8803,12.5353,0,8.3123,4.0413,96.969,4.0097,130.8727-.0202,25.5705-.0439,46.0896-1.5625,62.3612h18.0262c1.465-17.1098,1.4861-37.6695,1.5098-62.3448.0158-23.1442-1.7977-70.7243-3.002-102.2142-.5126-13.5249-1.0077-26.2955-1.0077-28.675,0-7.8769-8.8621-22.6081-8.9464-22.7418C373.1639,23.8391,311.9734,1.4489,234.456,1.4489,167.752,1.4489,78.8462,20.7226,47.8805,75.0558c-.1492.2504-3.7324,8.1942-3.7324,8.1942-.8585,1.9107-1.3176,3.8215-1.4826,5.9328-1.8881,23.0858-2.0145,78.3419-2.2419,188.1563h17.9745Z"/>
    <path class="cls-2" d="M180.0237,277.339c-9.3008-27.5439-18.0801-55.5205-4.3965-72.2671,8.0117-9.8218,24.2178-15.9385,42.2656-15.9385,17.3613,0,32.9131,5.7485,40.5566,14.9995,13.457,16.3071,4.1895,44.6128-4.7588,71.9805-.1338.4092-.2666.8169-.4004,1.2256h62.6914c.0391-8.5142-.084-21.1328-.9375-36.3857-3.1396-56.1113-4.71-84.167-21.8213-103.3804-21.085-23.6753-53.667-25.6309-63.7344-26.2354-2.5908-.1558-41.7256-1.249-74.209,23.6641-31.4336,24.1079-34.9346,65.6162-33.3535,142.3374h58.0977Z"/>
    <path class="cls-2" d="M249.9338,277.3391h6.7152c9.2186-28.1946,18.8677-57.5465,4.2466-75.2427-8.8827-10.7595-25.8583-16.1393-43.0025-16.1393-17.6307,0-35.429,5.6979-44.7492,17.0947-14.5739,17.854-5.8321,46.5847,3.5114,74.2874h6.7473c-9.158-27.037-18.0442-54.6443-5.2955-70.2489,7.422-9.0997,22.675-14.7646,39.7861-14.7646,16.4401,0,31.0345,5.3134,38.0928,13.8431,12.3325,14.9322,3.3509,42.4009-5.3312,68.9637-.2406.7348-.4813,1.4705-.721,2.2066Z"/>
    <path class="cls-2" d="M125.1045,277.3392c-1.5801-75.5293,1.7559-116.52,32.1191-139.7983,13.7324-10.5278,39.375-25.5781,72.2646-23.0112,7.8018.6089,39.498,3.083,60.3994,26.8101,17.248,19.5801,18.8232,46.3555,21.9727,99.9062.8896,15.1216.9824,27.6382.9092,36.0933,2.5674-.001,5.1338-.0024,7.7012-.0034h0s-.0117-.019-.0342-.0576c-.0537-.0913.5625-52.6294-2.2412-79.2344-.1182-1.1226-.208-1.8911-.2607-2.3042-2.0078-15.73-5.166-40.4712-22.7764-60.0469-22.5547-25.0708-55.5898-26.9688-65.6699-27.5479-3.167-.1821-42.9141-1.1401-76.1523,24.3345-32.6699,25.0391-36.2295,67.3022-34.6133,144.8599h6.3818Z"/>
    <path class="cls-3" d="M138.7095,277.3391c2.2209-8.6238,18.1753-14.0138,19.3525-27.1849,1.4072-15.7534-19.8276-25.3401-15.9695-35.1946,3.3349-8.4798,20.5601-5.1115,23.6455-13.5249,3.7725-10.2391-18.0157-25.4065-15.2165-29.4962,3.1335-4.5915,29.9828,15.2013,42.2984,6.4697,10.3228-7.3239,3.973-30.0657,9.7542-31.5411,6.3178-1.6251,14.2103,25.6926,25.5723,25.2055,10.5447-.4349,16.244-24.485,21.5547-23.2444,5.1271,1.2071-.1025,23.7814,9.4521,29.2783,8.8336,5.0776,23.8496-8.0779,26.648-4.743,3.1834,3.838-17.4632,20.2954-13.2237,31.2894,3.973,10.3407,27.688,9.871,27.5035,13.5913-.1185,2.3639-9.6232,1.0391-16.3251,7.0722-9.2846,8.3631-10.1063,28.089-1.4571,37.3562,6.2482,6.7041,15.6344,6.0165,15.687,9.1509.0365,2.4771-5.8829,3.4325-11.9092,5.5157h20.2027c.1586-7.7981.3128-16.6045.5035-26.5824.786-41.9143,1.5917-71.444-15.1835-96.8171-3.4534-5.2118-6.2848-8.1955-7.3239-9.2512-22.4423-22.9762-58.792-20.8315-65.7808-20.4131-1.5257.0842-2.6469.1854-3.3019.2518-8.7641.7375-44.9792,3.8215-66.1123,31.7087-11.7835,15.5524-13.3913,31.5741-16.5586,62.9971-1.3725,13.7143-.0036,11.1374.6105,58.1062h5.5772Z"/>
    <line class="cls-1" x1="89.1063" y1="91.3198" x2="137.2889" y2="144.8818"/>
    <line class="cls-1" x1="359.9451" y1="93.6418" x2="311.7625" y2="147.2038"/>
  </g>
  <g>
    <g>
      <path class="cls-3" d="M48.9921,249.6072c-1.9132.0046-3.6363-.9997-4.4509-2.5642-10.2739-20.2332-16.7761-41.3975-19.2426-62.8506-1.5365-13.1292-1.5684-26.3694-.0949-39.3984.12-1.0298.6426-1.9963,1.475-2.7278,3.3878-2.9053,21.7498-17.4564,50.5643-17.5258l3.5116.0557c26.1398,1.011,42.537,13.46,46.9617,17.2476.8885.7706,1.4159,1.7988,1.4885,2.8936.8712,12.9802.9026,26.0056.0934,38.754-1.3095,20.561-4.8473,41.1065-10.4105,61.0766-.5437,1.89-2.4303,3.2462-4.6059,3.3156,0,0-65.243,1.7237-65.2897,1.7238"/>
      <path class="cls-2" d="M77.2652,128.9148c1.0733-.0026,2.1757.0157,3.2957.0562,25.6615.9899,41.0327,13.6994,43.7623,16.032.8158,11.7779.9691,24.5673.0921,38.2393-1.4506,22.5561-5.3915,42.8026-10.2724,60.2603-21.7146.567-43.4292,1.1564-65.1497,1.7234-7.9178-15.5604-15.9475-36.4212-18.8543-61.4776-1.6853-14.3521-1.3316-27.3353-.0928-38.5183,2.1479-1.8506,19.4837-16.2486,47.2191-16.3154M77.2441,120.1592c-30.6752.0739-50.3239,15.6366-53.9503,18.735-1.6939,1.4631-2.7391,3.3975-2.9733,5.4793-1.4726,13.3931-1.44,26.9346.097,40.2786,2.5376,21.9034,9.1867,43.518,19.7009,64.2221,1.5824,3.1291,5.0754,5.1377,8.8726,5.1286l.2858-.0007,65.1497-1.7457c4.3744-.1166,8.1185-2.8303,9.1826-6.6311,5.6614-20.3567,9.2218-41.1799,10.5544-61.8706.8318-13.0484.8-26.2677-.0947-39.291-.1453-2.2092-1.2294-4.2668-3.0005-5.8081-4.7403-4.0436-22.3295-17.3698-50.0968-18.4188-1.2426-.0625-2.5084-.0804-3.7274-.0775"/>
      <path class="cls-2" d="M98.3128,197.4984c-.9767,6.4607-11.6306,10.4548-23.7848,8.9202-12.1779-1.5129-21.2357-8.0021-20.2532-14.4627.9767-6.4607,11.6015-10.4542,23.7789-8.9203,12.1541,1.5346,21.2357,8.0021,20.259,14.4628"/>
    </g>
    <path class="cls-4" d="M306.9284,89.7478c4.0599-3.5894,21.7621-18.4257,48.0512-17.5156,23.3567.8086,38.8536,13.5399,43.3404,17.5156"/>
    <path class="cls-4" d="M146.4441,91.9488c-4.0599-3.5894-21.7621-18.4257-48.0512-17.5156-23.3567.8086-38.8536,13.5399-43.3404,17.5156"/>
    <g>
      <path class="cls-3" d="M396.2679,249.6072c1.9132.0046,3.6363-.9997,4.4509-2.5642,10.2739-20.2332,16.7761-41.3975,19.2426-62.8506,1.5365-13.1292,1.5684-26.3694.0949-39.3984-.12-1.0298-.6426-1.9963-1.475-2.7278-3.3878-2.9053-21.7498-17.4564-50.5643-17.5258l-3.5116.0557c-26.1398,1.011-42.537,13.46-46.9617,17.2476-.8885.7706-1.4159,1.7988-1.4885,2.8936-.8712,12.9802-.9026,26.0056-.0934,38.754,1.3095,20.561,4.8473,41.1065,10.4105,61.0766.5437,1.89,2.4303,3.2462,4.6059,3.3156,0,0,65.243,1.7237,65.2897,1.7238"/>
      <path class="cls-2" d="M367.9948,128.9148c-1.0733-.0026-2.1757.0157-3.2957.0562-25.6615.9899-41.0327,13.6994-43.7623,16.032-.8158,11.7779-.9691,24.5673-.0921,38.2393,1.4506,22.5561,5.3915,42.8026,10.2724,60.2603,21.7146.567,43.4292,1.1564,65.1497,1.7234,7.9178-15.5604,15.9475-36.4212,18.8543-61.4776,1.6853-14.3521,1.3316-27.3353.0928-38.5183-2.1479-1.8506-19.4837-16.2486-47.2191-16.3154M368.0159,120.1592c30.6752.0739,50.3239,15.6366,53.9503,18.735,1.6939,1.4631,2.7391,3.3975,2.9733,5.4793,1.4726,13.3931,1.44,26.9346-.097,40.2786-2.5376,21.9034-9.1867,43.518-19.7009,64.2221-1.5824,3.1291-5.0754,5.1377-8.8726,5.1286l-.2858-.0007-65.1497-1.7457c-4.3744-.1166-8.1185-2.8303-9.1826-6.6311-5.6614-20.3567-9.2218-41.1799-10.5544-61.8706-.8318-13.0484-.8-26.2677.0947-39.291.1453-2.2092,1.2294-4.2668,3.0005-5.8081,4.7403-4.0436,22.3295-17.3698,50.0968-18.4188,1.2426-.0625,2.5084-.0804,3.7274-.0775"/>
      <path class="cls-2" d="M346.9472,197.4984c.9767,6.4607,11.6306,10.4548,23.7848,8.9202,12.1779-1.5129,21.2357-8.0021,20.2532-14.4627-.9767-6.4607-11.6015-10.4542-23.7789-8.9203-12.1541,1.5346-21.2357,8.0021-20.259,14.4628"/>
    </g>
  </g>
</svg>