<?xml version="1.0" encoding="UTF-8"?>
<svg id="szem1" xmlns="http://www.w3.org/2000/svg" viewBox="0 0 445.26 281">
  <defs>
    <style>
      .cls-1 {
        fill: #76c615;
      }

      .cls-2 {
        fill: #261f20;
      }

      .cls-3 {
        fill: #fff;
      }
    </style>
  </defs>
  <g>
    <path class="cls-1" d="M407.9538,277.2781c1.5409-16.7783,1.5739-37.3366,1.6077-62.3479.016-22.9601-1.8457-70.4387-3.0524-101.8457-.5855-15.0828-1.0391-26.3285-1.0391-29.027,0-4.2234-7.4549-17.5465-7.5245-17.6468-27.852-41.2116-100.2036-55.8924-158.6436-55.8924-65.2933,0-152.0192,18.083-181.216,68.5618-.049.0838-3.6539,7.8435-3.6539,7.8435-.4501.9719-.6675,1.8934-.7691,2.9664-1.884,22.6825-2.0079,77.8112-2.2423,187.3881h356.5332Z"/>
    <path class="cls-2" d="M60.2861,277.2781c.2265-109.4548.3371-164.3152,2.176-186.6475,0,0,2.8212-6.4185,2.8537-6.4862C89.6805,41.4254,164.2758,19.6385,236.3439,19.6385c63.8151,0,125.6351,17.0947,148.7911,51.8704,1.1402,1.7254,5.8803,12.4515,5.8803,12.5353,0,8.3123,4.0413,96.969,4.0097,130.8727-.0202,25.5705-.0439,46.0896-1.5625,62.3612h18.0262c1.465-17.1098,1.4861-37.6695,1.5098-62.3448.0158-23.1442-1.7977-70.7243-3.002-102.2142-.5126-13.5249-1.0077-26.2955-1.0077-28.675,0-7.8769-8.8621-22.6081-8.9464-22.7418C375.0518,23.7782,313.8613,1.3879,236.3439,1.3879,169.6399,1.3879,80.7341,20.6616,49.7684,74.9949c-.1492.2504-3.7324,8.1942-3.7324,8.1942-.8585,1.9107-1.3176,3.8215-1.4826,5.9328-1.8881,23.0858-2.0145,78.3419-2.2419,188.1563h17.9745Z"/>
    <path class="cls-2" d="M181.9116,277.2781c-9.3008-27.5439-18.0801-55.5205-4.3965-72.2671,8.0117-9.8218,24.2178-15.9385,42.2656-15.9385,17.3613,0,32.9131,5.7485,40.5566,14.9995,13.457,16.3071,4.1895,44.6128-4.7588,71.9805-.1338.4092-.2666.8169-.4004,1.2256h62.6914c.0391-8.5142-.084-21.1328-.9375-36.3857-3.1396-56.1113-4.71-84.167-21.8213-103.3804-21.085-23.6753-53.667-25.6309-63.7344-26.2354-2.5908-.1558-41.7256-1.249-74.209,23.6641-31.4336,24.1079-34.9346,65.6162-33.3535,142.3374h58.0977Z"/>
    <path class="cls-2" d="M251.8216,277.2781h6.7152c9.2186-28.1946,18.8677-57.5465,4.2466-75.2427-8.8827-10.7595-25.8583-16.1393-43.0025-16.1393-17.6307,0-35.429,5.6979-44.7492,17.0947-14.5739,17.854-5.8321,46.5847,3.5114,74.2874h6.7473c-9.158-27.037-18.0442-54.6443-5.2955-70.2489,7.422-9.0997,22.675-14.7646,39.7861-14.7646,16.4401,0,31.0345,5.3134,38.0928,13.8431,12.3325,14.9322,3.3509,42.4009-5.3312,68.9637-.2406.7348-.4813,1.4705-.721,2.2066Z"/>
    <path class="cls-2" d="M126.9926,277.2781c-1.5801-75.5293,1.7559-116.52,32.1191-139.7983,13.7324-10.5278,39.375-25.5781,72.2646-23.0112,7.8018.6089,39.498,3.083,60.3994,26.8101,17.248,19.5801,18.8232,46.3555,21.9727,99.9062.8896,15.1216.9824,27.6382.9092,36.0933,2.5684.1411,5.1377.2827,7.7061.4238-.1826-6.9082-.8018-30.1772-.9883-37.1294-.999-37.2417-.834-39.2661-1.5527-44.894-2.0078-15.73-5.166-40.4712-22.7764-60.0469-22.5547-25.0708-55.5898-26.9688-65.6699-27.5479-3.167-.1821-42.9141-1.1401-76.1523,24.3345-32.6699,25.0391-36.2295,67.3022-34.6133,144.8599h6.3818Z"/>
    <path class="cls-3" d="M140.5974,277.2781c2.2209-8.6238,18.1753-14.0138,19.3525-27.1849,1.4072-15.7534-19.8276-25.3401-15.9695-35.1946,3.3349-8.4798,20.5601-5.1115,23.6455-13.5249,3.7725-10.2391-18.0157-25.4065-15.2165-29.4962,3.1335-4.5915,29.9828,15.2013,42.2984,6.4697,10.3228-7.3239,3.973-30.0657,9.7542-31.5411,6.3178-1.6251,14.2103,25.6926,25.5723,25.2055,10.5447-.4349,16.244-24.485,21.5547-23.2444,5.1271,1.2071-.1025,23.7814,9.4521,29.2783,8.8336,5.0776,23.8496-8.0779,26.648-4.743,3.1834,3.838-17.4632,20.2954-13.2237,31.2894,3.973,10.3407,27.688,9.871,27.5035,13.5913-.1185,2.3639-9.6232,1.0391-16.3251,7.0722-9.2846,8.3631-10.1063,28.089-1.4571,37.3562,6.2482,6.7041,15.6344,6.0165,15.687,9.1509.0365,2.4771-5.8829,3.4325-11.9092,5.5157h20.2027c.1586-7.7981.3128-16.6045.5035-26.5824.786-41.9143,1.5917-71.444-15.1835-96.8171-3.4534-5.2118-6.2848-8.1955-7.3239-9.2512-22.4423-22.9762-58.792-20.8315-65.7808-20.4131-1.5257.0842-2.6469.1854-3.3019.2518-8.7641.7375-44.9792,3.8215-66.1123,31.7087-11.7835,15.5524-13.3913,31.5741-16.5586,62.9971-1.3725,13.7143-.0036,11.1374.6105,58.1062h5.5772Z"/>
  </g>
  <g>
    <path class="cls-3" d="M399.3125,256.7325c2.0743,0,3.94-1.1913,4.819-3.1083,11.1116-24.5308,18.1062-50.0727,20.7244-75.9506,1.6063-15.6722,1.6063-31.6803,0-47.5335-.1328-1.2435-.702-2.4095-1.6063-3.2902-3.6807-3.4965-23.6272-21.0335-54.8941-21.0335l-3.8072.1036c-28.206,1.2949-46.0276,16.3449-50.8466,20.93-.9613.9328-1.5305,2.1763-1.6063,3.5234-.936,15.4129-.936,31.1625,0,46.7825,1.4482,24.6083,5.306,49.3984,11.4215,73.6707.5692,2.1755,2.4348,3.7819,4.6862,3.989h.4427c2.0996,0,3.9906-1.2174,4.8443-3.1344,5.5463-12.4334,17.5117-20.4636,30.5143-20.4636,1.3218,0,2.6688.1036,4.0159.2846,11.8895,1.5803,21.9956,9.9211,26.3467,21.7592.721,2.0206,2.5866,3.3937,4.7368,3.4712h.2087Z"/>
    <path class="cls-2" d="M368.3555,111.1104c-1.1637,0-2.3589.0261-3.5732.1036-27.8202,1.2435-44.4529,16.6303-47.4063,19.4541-.8538,14.2216-.9866,29.6605,0,46.1612,1.6316,27.2249,5.9827,51.6522,11.295,72.7126,6.476-14.5322,20.5663-23.5988,35.3334-23.5988,1.5811,0,3.1621.0775,4.7368.3107,13.7868,1.8135,25.5688,11.6049,30.5965,25.179,8.5187-18.8066,17.1702-44.011,20.2817-74.2668,1.7645-17.3299,1.3471-33.0021,0-46.498-2.3589-2.2277-21.1924-19.5576-51.264-19.5576M368.3555,100.5419h0c33.2337,0,54.5779,18.7023,58.5432,22.4588,1.8403,1.7613,2.9787,4.0926,3.238,6.6056,1.6316,16.1378,1.6316,32.5096,0,48.6213-2.6941,26.4478-9.8468,52.5336-21.1924,77.5822-1.7075,3.7827-5.4894,6.2175-9.6065,6.2175-.1328,0-.2593,0-.3921-.0261-4.3005-.1557-8.0507-2.8751-9.5559-6.9163-3.6807-9.9994-12.1235-17.0445-22.0462-18.3663-1.1131-.1289-2.2261-.2071-3.3392-.2071-10.9093,0-20.9837,6.7867-25.67,17.3299-1.7139,3.8341-5.521,6.2689-9.6634,6.2689-.2846,0-.5945-.0261-.9044-.0522-4.4839-.3621-8.2404-3.5748-9.3535-7.9266-6.1914-24.5822-10.1061-49.7091-11.6049-74.681-.936-15.7497-.936-31.7064,0-47.4039.1518-2.668,1.3218-5.155,3.238-6.9946,5.1289-4.9218,24.1648-21.0596,54.268-22.4067,1.3471-.0775,2.7194-.1036,4.0412-.1036"/>
    <path class="cls-2" d="M345.4429,193.3323c.9044,7.823,12.3575,12.9259,25.5688,11.3978,13.2366-1.5028,23.2098-9.0926,22.2992-16.9157-.9044-7.823-12.3259-12.9259-25.5625-11.3978-13.2113,1.5028-23.2098,9.0926-22.3055,16.9157"/>
  </g>
  <g>
    <path class="cls-3" d="M43.9475,257.1173c-2.0743,0-3.94-1.1913-4.819-3.1083-11.1116-24.5308-18.1062-50.0727-20.7244-75.9506-1.6063-15.6722-1.6063-31.6803,0-47.5335.1328-1.2435.702-2.4095,1.6063-3.2902,3.6807-3.4965,23.6272-21.0335,54.8941-21.0335l3.8072.1036c28.206,1.2949,46.0276,16.3449,50.8466,20.93.9613.9328,1.5305,2.1763,1.6063,3.5234.936,15.4129.936,31.1625,0,46.7825-1.4482,24.6083-5.306,49.3984-11.4215,73.6707-.5692,2.1755-2.4348,3.7819-4.6862,3.989h-.4427c-2.0996,0-3.9906-1.2174-4.8443-3.1344-5.5463-12.4334-17.5117-20.4636-30.5143-20.4636-1.3218,0-2.6688.1036-4.0159.2846-11.8895,1.5803-21.9956,9.9211-26.3467,21.7592-.721,2.0206-2.5866,3.3937-4.7368,3.4712h-.2087Z"/>
    <path class="cls-2" d="M76.9045,111.4952c1.1637,0,2.3589.0261,3.5732.1036,27.8202,1.2435,44.4529,16.6303,47.4063,19.4541.8538,14.2216.9866,29.6605,0,46.1612-1.6316,27.2249-5.9827,51.6522-11.295,72.7126-6.476-14.5322-20.5663-23.5988-35.3334-23.5988-1.5811,0-3.1621.0775-4.7368.3107-13.7868,1.8135-25.5688,11.6049-30.5965,25.179-8.5187-18.8066-17.1702-44.011-20.2817-74.2668-1.7645-17.3299-1.3471-33.0021,0-46.498,2.3589-2.2277,21.1924-19.5576,51.264-19.5576M76.9045,100.9267h0c-33.2337,0-54.5779,18.7023-58.5432,22.4588-1.8403,1.7613-2.9787,4.0926-3.238,6.6056-1.6316,16.1378-1.6316,32.5096,0,48.6213,2.6941,26.4478,9.8468,52.5336,21.1924,77.5822,1.7075,3.7827,5.4894,6.2175,9.6065,6.2175.1328,0,.2593,0,.3921-.0261,4.3005-.1557,8.0507-2.8751,9.5559-6.9163,3.6807-9.9994,12.1235-17.0445,22.0462-18.3663,1.1131-.1289,2.2261-.2071,3.3392-.2071,10.9093,0,20.9837,6.7867,25.67,17.3299,1.7139,3.8341,5.521,6.2689,9.6634,6.2689.2846,0,.5945-.0261.9044-.0522,4.4839-.3621,8.2404-3.5748,9.3535-7.9266,6.1914-24.5822,10.1061-49.7091,11.6049-74.681.936-15.7497.936-31.7064,0-47.4039-.1518-2.668-1.3218-5.155-3.238-6.9946-5.1289-4.9218-24.1648-21.0596-54.268-22.4067-1.3471-.0775-2.7194-.1036-4.0412-.1036"/>
    <path class="cls-2" d="M99.8171,193.7171c-.9044,7.823-12.3575,12.9259-25.5688,11.3978-13.2366-1.5028-23.2098-9.0926-22.2992-16.9157.9044-7.823,12.3259-12.9259,25.5625-11.3978,13.2113,1.5028,23.2098,9.0926,22.3055,16.9157"/>
  </g>
</svg>