<?xml version="1.0" encoding="UTF-8"?>
<svg id="szem1" xmlns="http://www.w3.org/2000/svg" viewBox="0 0 445.26 281">
  <defs>
    <style>
      .cls-1 {
        fill: #76c615;
      }

      .cls-2 {
        fill: #261f20;
      }

      .cls-3 {
        fill: #fff;
      }
    </style>
  </defs>
  <g>
    <path class="cls-1" d="M403.3339,277.3309c1.5409-16.7783,1.5739-37.3366,1.6077-62.3479.016-22.9601-1.8457-70.4387-3.0524-101.8457-.5855-15.0828-1.0391-26.3285-1.0391-29.027,0-4.2234-7.4549-17.5465-7.5245-17.6468-27.852-41.2116-100.2036-55.8924-158.6436-55.8924-65.2933,0-152.0192,18.083-181.216,68.5618-.049.0838-3.6539,7.8435-3.6539,7.8435-.4501.9719-.6675,1.8934-.7691,2.9664-1.884,22.6825-2.0079,77.8112-2.2423,187.3881h356.5332Z"/>
    <path class="cls-2" d="M55.6662,277.3309c.2265-109.4548.3371-164.3152,2.176-186.6475,0,0,2.8212-6.4185,2.8537-6.4862C85.0606,41.4782,159.6559,19.6913,231.724,19.6913c63.8151,0,125.6351,17.0947,148.7911,51.8704,1.1402,1.7254,5.8803,12.4515,5.8803,12.5353,0,8.3123,4.0413,96.969,4.0097,130.8727-.0202,25.5705-.0439,46.0896-1.5625,62.3612h18.0262c1.465-17.1098,1.4861-37.6695,1.5098-62.3448.0158-23.1442-1.7977-70.7243-3.002-102.2142-.5126-13.5249-1.0077-26.2955-1.0077-28.675,0-7.8769-8.8621-22.6081-8.9464-22.7418C370.4319,23.8309,309.2414,1.4407,231.724,1.4407,165.02,1.4407,76.1142,20.7144,45.1485,75.0477c-.1492.2504-3.7324,8.1942-3.7324,8.1942-.8585,1.9107-1.3176,3.8215-1.4826,5.9328-1.8881,23.0858-2.0145,78.3419-2.2419,188.1563h17.9745Z"/>
    <path class="cls-2" d="M177.2917,277.3309c-9.3008-27.5439-18.0801-55.5205-4.3965-72.2671,8.0117-9.8218,24.2178-15.9385,42.2656-15.9385,17.3613,0,32.9131,5.7485,40.5566,14.9995,13.457,16.3071,4.1895,44.6128-4.7588,71.9805-.1338.4092-.2666.8169-.4004,1.2256h62.6914c.0391-8.5142-.084-21.1328-.9375-36.3857-3.1396-56.1113-4.71-84.167-21.8213-103.3804-21.085-23.6753-53.667-25.6309-63.7344-26.2354-2.5908-.1558-41.7256-1.249-74.209,23.6641-31.4336,24.1079-34.9346,65.6162-33.3535,142.3374h58.0977Z"/>
    <path class="cls-2" d="M247.2018,277.3309h6.7152c9.2186-28.1946,18.8677-57.5465,4.2466-75.2427-8.8827-10.7595-25.8583-16.1393-43.0025-16.1393-17.6307,0-35.429,5.6979-44.7492,17.0947-14.5739,17.854-5.8321,46.5847,3.5114,74.2874h6.7473c-9.158-27.037-18.0442-54.6443-5.2955-70.2489,7.422-9.0997,22.675-14.7646,39.7861-14.7646,16.4401,0,31.0345,5.3134,38.0928,13.8431,12.3325,14.9322,3.3509,42.4009-5.3312,68.9637-.2406.7348-.4813,1.4705-.721,2.2066Z"/>
    <path class="cls-2" d="M122.3727,277.3308c-1.5801-75.5293,1.7559-116.52,32.1191-139.7983,13.7324-10.5278,39.375-25.5781,72.2646-23.0112,7.8018.6089,39.498,3.083,60.3994,26.8101,17.248,19.5801,18.8232,46.3555,21.9727,99.9062.8896,15.1216.9824,27.6382.9092,36.0933h7.7061c.4072-54.7437-2.2803-79.2954-2.2803-79.2954-.1191-1.0923-.1758-1.6387-.2607-2.3042-2.0078-15.73-5.166-40.4712-22.7764-60.0469-22.5547-25.0708-55.5898-26.9688-65.6699-27.5479-3.167-.1821-42.9141-1.1401-76.1523,24.3345-32.6699,25.0391-36.2295,67.3022-34.6133,144.8599h6.3818Z"/>
    <path class="cls-3" d="M135.9775,277.3309c2.2209-8.6238,18.1753-14.0138,19.3525-27.1849,1.4072-15.7534-19.8276-25.3401-15.9695-35.1946,3.3349-8.4798,20.5601-5.1115,23.6455-13.5249,3.7725-10.2391-18.0157-25.4065-15.2165-29.4962,3.1335-4.5915,29.9828,15.2013,42.2984,6.4697,10.3228-7.3239,3.973-30.0657,9.7542-31.5411,6.3178-1.6251,14.2103,25.6926,25.5723,25.2055,10.5447-.4349,16.244-24.485,21.5547-23.2444,5.1271,1.2071-.1025,23.7814,9.4521,29.2783,8.8336,5.0776,23.8496-8.0779,26.648-4.743,3.1834,3.838-17.4632,20.2954-13.2237,31.2894,3.973,10.3407,27.688,9.871,27.5035,13.5913-.1185,2.3639-9.6232,1.0391-16.3251,7.0722-9.2846,8.3631-10.1063,28.089-1.4571,37.3562,6.2482,6.7041,15.6344,6.0165,15.687,9.1509.0365,2.4771-5.8829,3.4325-11.9092,5.5157h20.2027c.1586-7.7981.3128-16.6045.5035-26.5824.786-41.9143,1.5917-71.444-15.1835-96.8171-3.4534-5.2118-6.2848-8.1955-7.3239-9.2512-22.4423-22.9762-58.792-20.8315-65.7808-20.4131-1.5257.0842-2.6469.1854-3.3019.2518-8.7641.7375-44.9792,3.8215-66.1123,31.7087-11.7835,15.5524-13.3913,31.5741-16.5586,62.9971-1.3725,13.7143-.0036,11.1374.6105,58.1062h5.5772Z"/>
  </g>
  <g>
    <path class="cls-3" d="M364.8495,266.6271c25.3257,0,45.1456-31.5729,45.1456-71.9025s-19.8199-71.8851-45.1456-71.8851-45.166,31.5719-45.166,71.8851,19.8402,71.9025,45.166,71.9025"/>
    <path class="cls-2" d="M363.9336,123.8506c-23.5104,0-42.555,30.5243-42.555,68.1771s19.0446,68.1596,42.555,68.1596c23.4887,0,42.555-30.5243,42.555-68.1596s-19.0663-68.1771-42.555-68.1771M363.9336,115.4045c30.5884,0,53.6544,32.94,53.6544,76.6232s-23.066,76.6057-53.6544,76.6057-53.6544-32.94-53.6544-76.6057,23.066-76.6232,53.6544-76.6232"/>
    <path class="cls-2" d="M342.2251,228.9454c4.3836,0,5.5565-14.4425,5.5565-22.9732s-1.1729-22.9732-5.5565-22.9732c-4.3983,0-5.5711,14.4425-5.5711,22.9732s1.1729,22.9732,5.5711,22.9732"/>
    <path class="cls-2" d="M342.2214,184.3817c-2.4007,0-4.3543,9.6617-4.3543,21.5875s1.9536,21.5885,4.3543,21.5885,4.3396-9.6627,4.3396-21.5885-1.9389-21.5875-4.3396-21.5875M342.2214,181.6279c6.2895,0,6.7843,18.6326,6.7843,24.3413s-.4948,24.3424-6.7843,24.3424c-6.3042,0-6.7843-18.6326-6.7843-24.3424s.4801-24.3413,6.7843-24.3413"/>
  </g>
  <g>
    <path class="cls-3" d="M73.6198,266.5985c-25.3257,0-45.1456-31.5729-45.1456-71.9025s19.8199-71.8851,45.1456-71.8851,45.166,31.5719,45.166,71.8851-19.8402,71.9025-45.166,71.9025"/>
    <path class="cls-2" d="M74.5356,123.822c23.5104,0,42.555,30.5243,42.555,68.1771s-19.0446,68.1596-42.555,68.1596c-23.4887,0-42.555-30.5243-42.555-68.1596s19.0663-68.1771,42.555-68.1771M74.5356,115.3759c-30.5884,0-53.6544,32.94-53.6544,76.6232s23.066,76.6057,53.6544,76.6057,53.6544-32.94,53.6544-76.6057-23.066-76.6232-53.6544-76.6232"/>
    <path class="cls-2" d="M96.2441,228.9168c-4.3836,0-5.5565-14.4425-5.5565-22.9732s1.1729-22.9732,5.5565-22.9732c4.3983,0,5.5711,14.4425,5.5711,22.9732s-1.1729,22.9732-5.5711,22.9732"/>
    <path class="cls-2" d="M96.2478,184.353c2.4007,0,4.3543,9.6617,4.3543,21.5875s-1.9536,21.5885-4.3543,21.5885-4.3396-9.6627-4.3396-21.5885,1.9389-21.5875,4.3396-21.5875M96.2478,181.5992c-6.2895,0-6.7843,18.6326-6.7843,24.3413s.4948,24.3424,6.7843,24.3424c6.3042,0,6.7843-18.6326,6.7843-24.3424s-.4801-24.3413-6.7843-24.3413"/>
  </g>
</svg>