<?xml version="1.0" encoding="UTF-8"?>
<svg id="szem1" xmlns="http://www.w3.org/2000/svg" viewBox="0 0 445.26 281">
  <defs>
    <style>
      .cls-1 {
        fill: #76c615;
      }

      .cls-2 {
        fill: #261f20;
      }

      .cls-3 {
        fill: #fff;
      }
    </style>
  </defs>
  <path class="cls-1" d="M401.6137,277.3644c1.5409-16.7783,1.5739-37.3366,1.6077-62.3479.016-22.9601-1.8457-70.4387-3.0524-101.8457-.5855-15.0828-1.0391-26.3285-1.0391-29.027,0-4.2234-7.4549-17.5465-7.5245-17.6468-27.852-41.2116-100.2036-55.8924-158.6436-55.8924-65.2933,0-152.0192,18.083-181.216,68.5618-.049.0838-3.6539,7.8435-3.6539,7.8435-.4501.9719-.6675,1.8934-.7691,2.9664-1.884,22.6825-2.0079,77.8112-2.2423,187.3881h356.5332Z"/>
  <path class="cls-2" d="M53.946,277.3644c.2265-109.4548.3371-164.3152,2.176-186.6475,0,0,2.8212-6.4185,2.8537-6.4862C83.3405,41.5116,157.9357,19.7247,230.0038,19.7247c63.8151,0,125.6351,17.0947,148.7911,51.8704,1.1402,1.7254,5.8803,12.4515,5.8803,12.5353,0,8.3123,4.0413,96.969,4.0097,130.8727-.0202,25.5705-.0439,46.0896-1.5625,62.3612h18.0262c1.465-17.1098,1.4861-37.6695,1.5098-62.3448.0158-23.1442-1.7977-70.7243-3.002-102.2142-.5126-13.5249-1.0077-26.2955-1.0077-28.675,0-7.8769-8.8621-22.6081-8.9464-22.7418C368.7118,23.8644,307.5212,1.4742,230.0038,1.4742,163.2999,1.4742,74.394,20.7478,43.4283,75.0811c-.1492.2504-3.7324,8.1942-3.7324,8.1942-.8585,1.9107-1.3176,3.8215-1.4826,5.9328-1.8881,23.0858-2.0145,78.3419-2.2419,188.1563h17.9745Z"/>
  <g>
    <path class="cls-3" d="M57.6548,210.7599c-6.2916,0-12.2038-.3455-17.6147-.8831-.9416-.096-1.8036-.5177-2.4361-1.1888-2.7827-2.9362-16.6168-18.7484-15.5253-43.5015.9604-20.8964,12.1288-34.098,15.5253-37.6479.6699-.7297,1.6116-1.1513,2.6094-1.2098,5.5233-.3256,11.3184-.5177,17.3242-.5177,5.5842,0,11.3605.1722,17.3102.5177,18.2659,1.0939,36.6301,3.9539,54.5727,8.4818,1.7099.4228,2.9373,1.9383,2.9748,3.6846l1.4195,52.3463c.0375,1.5741-.862,3.0135-2.3002,3.6658-18.1722,8.2311-37.0939,13.4125-56.2639,15.3695-6.1417.6149-12.0305.8831-17.5959.8831"/>
    <path class="cls-2" d="M57.533,130.8989c5.5093,0,11.2059.1722,17.0994.5177,20.1632,1.2087,38.2417,4.433,53.8419,8.3658.4778,17.4437.9416,34.905,1.4195,52.3475-13.9325,6.3127-32.6012,12.7226-55.0318,15.0252-6.0246.6137-11.7634.8632-17.1931.8632-6.1605,0-11.9368-.3268-17.2352-.8632-1.724-1.8036-15.5019-16.7902-14.4291-40.604.9416-20.6282,12.3209-32.9467,14.4291-35.1345,5.4531-.3256,11.1685-.5177,17.0994-.5177M57.533,123.0695c-6.1042,0-11.9555.1921-17.5772.5177-1.9582.1159-3.8181.9791-5.1813,2.3986-3.6447,3.7993-15.6002,17.904-16.5981,40.2011-1.1899,26.3073,13.6045,43.2321,16.5794,46.3604,1.2836,1.3621,3.0123,2.2065,4.8721,2.3986,5.9871.6137,12.0539.9206,18.041.9206,5.9684,0,12.0305-.3069,17.9988-.9206,19.5917-1.9957,38.9116-7.2731,57.4492-15.6775,2.8811-1.3047,4.6848-4.2022,4.6051-7.3492l-1.382-51.0041-.0375-1.3434c-.0937-3.5112-2.4923-6.5235-5.9075-7.3879-18.1722-4.5852-36.7894-7.4827-55.3036-8.5965-6.0433-.3642-11.8993-.5177-17.5585-.5177"/>
    <path class="cls-2" d="M134.8497,181.7069c.4579,13.8769-21.2714,26.8551-48.5307,28.9746-27.2547,2.1205-49.7328-7.4062-50.1908-21.2832-.4579-13.8769,21.2759-26.8541,48.5307-28.9746,27.2592-2.1194,49.7328,7.4062,50.1908,21.2832"/>
  </g>
  <g>
    <path class="cls-3" d="M378.9258,213.1222c-5.5655,0-11.4355-.2682-17.5772-.9018-19.1513-1.9383-38.0683-7.0997-56.2592-15.3508-1.4429-.6524-2.3424-2.0917-2.3049-3.6846l1.4007-51.79c.0562-1.7662,1.2883-3.7993,2.9936-4.2221,17.9239-4.5477,36.2881-7.4066,54.554-8.4818,5.9684-.3642,11.7634-.5364,17.3289-.5364,6.0059,0,11.8009.1909,17.3242.5364.9979.0586,1.9395.4802,2.6094,1.1899,3.3964,3.5499,14.5649,16.7714,15.5065,37.6678,1.1337,24.7917-12.7238,40.584-15.5065,43.4816-.6324.6723-1.4944,1.0939-2.4361,1.1899-5.4296.5563-11.3418.9018-17.6334.9018"/>
    <g>
      <path class="cls-2" d="M380.2286,130.8989c6.2483,0,12.2697.1921,18.0146.5177,2.221,2.1878,14.2093,14.5063,15.2014,35.1345,1.1302,23.8138-13.4048,38.8003-15.2014,40.604-5.5821.5364-11.6675.8632-18.1577.8632-5.7203,0-11.786-.2495-18.1133-.8632-23.6312-2.3026-43.2992-8.7125-57.9774-15.0252.5034-17.4613.992-34.9038,1.4955-52.3475,16.4352-3.9329,35.4813-7.1571,56.7238-8.3658,6.2089-.3455,12.2104-.5177,18.0146-.5177M380.2286,123.0695c-5.9621,0-12.1315.1534-18.4983.5177-19.5051,1.1138-39.1188,4.0113-58.2636,8.5965-3.598.8643-6.1447,3.8766-6.2237,7.3879l-.0395,1.382-1.456,50.9655c-.1036,3.147,1.8163,6.0445,4.8516,7.3492,19.5298,8.4045,39.8838,13.6818,60.5241,15.6775,6.2878.5938,12.6546.9206,18.9622.9206s12.6991-.3268,18.982-.9206c1.9841-.1921,3.8053-1.0365,5.1576-2.3986,3.134-3.1282,18.7204-20.0531,17.4668-46.3604-1.071-22.2971-13.6664-36.4017-17.4865-40.2011-1.4362-1.4195-3.3956-2.2826-5.4587-2.3986-5.9226-.3256-12.0871-.5177-18.518-.5177"/>
      <path class="cls-2" d="M297.4787,185.0795c.1389,13.0029,21.3709,23.8483,47.4274,24.2272,26.0387.3849,47.0241-9.8512,46.8855-22.8529-.1402-13.0233-21.3541-23.8737-47.4051-24.2345-26.0384-.3838-47.0467,9.8573-46.9078,22.8602"/>
    </g>
  </g>
  <path class="cls-2" d="M175.5715,277.3643c-9.3008-27.5439-18.0801-55.5205-4.3965-72.2671,8.0117-9.8218,24.2178-15.9385,42.2656-15.9385,17.3613,0,32.9131,5.7485,40.5566,14.9995,13.457,16.3071,4.1895,44.6128-4.7588,71.9805-.1338.4092-.2666.8169-.4004,1.2256h62.6914c.0391-8.5142-.084-21.1328-.9375-36.3857-3.1396-56.1113-4.71-84.167-21.8213-103.3804-21.085-23.6753-53.667-25.6309-63.7344-26.2354-2.5908-.1558-41.7256-1.249-74.209,23.6641-31.4336,24.1079-34.9346,65.6162-33.3535,142.3374h58.0977Z"/>
  <path class="cls-2" d="M245.4816,277.3644h6.7152c9.2186-28.1946,18.8677-57.5465,4.2466-75.2427-8.8827-10.7595-25.8583-16.1393-43.0025-16.1393-17.6307,0-35.429,5.6979-44.7492,17.0947-14.5739,17.854-5.8321,46.5847,3.5114,74.2874h6.7473c-9.158-27.037-18.0442-54.6443-5.2955-70.2489,7.422-9.0997,22.675-14.7646,39.7861-14.7646,16.4401,0,31.0345,5.3134,38.0928,13.8431,12.3325,14.9322,3.3509,42.4009-5.3312,68.9637-.2406.7348-.4813,1.4705-.721,2.2066Z"/>
  <path class="cls-2" d="M120.6523,277.3641c-1.5801-75.5293,1.7559-116.52,32.1191-139.7983,13.7324-10.5278,39.375-25.5781,72.2646-23.0112,7.8018.6089,39.498,3.083,60.3994,26.8101,17.248,19.5801,18.8232,46.3555,21.9727,99.9062.8896,15.1216.9824,27.6382.9092,36.0933,2.5586.0005,5.1162.001,7.6748.0015.8135-51.3071-2.249-79.2964-2.249-79.2964-.1191-1.0918-.1758-1.6377-.2607-2.3047-2.0078-15.73-5.166-40.4712-22.7764-60.0469-22.5547-25.0708-55.5898-26.9688-65.6699-27.5479-3.167-.1821-42.9141-1.1401-76.1523,24.3345-32.6699,25.0391-36.2295,67.3022-34.6133,144.8599h6.3818Z"/>
  <path class="cls-3" d="M134.2573,277.3644c2.2209-8.6238,18.1753-14.0138,19.3525-27.1849,1.4072-15.7534-19.8276-25.3401-15.9695-35.1946,3.3349-8.4798,20.5601-5.1115,23.6455-13.5249,3.7725-10.2391-18.0157-25.4065-15.2165-29.4962,3.1335-4.5915,29.9828,15.2013,42.2984,6.4697,10.3228-7.3239,3.973-30.0657,9.7542-31.5411,6.3178-1.6251,14.2103,25.6926,25.5723,25.2055,10.5447-.4349,16.244-24.485,21.5547-23.2444,5.1271,1.2071-.1025,23.7814,9.4521,29.2783,8.8336,5.0776,23.8496-8.0779,26.648-4.743,3.1834,3.838-17.4632,20.2954-13.2237,31.2894,3.973,10.3407,27.688,9.871,27.5035,13.5913-.1185,2.3639-9.6232,1.0391-16.3251,7.0722-9.2846,8.3631-10.1063,28.089-1.4571,37.3562,6.2482,6.7041,15.6344,6.0165,15.687,9.1509.0365,2.4771-5.8829,3.4325-11.9092,5.5157h20.2027c.1586-7.7981.3128-16.6045.5035-26.5824.786-41.9143,1.5917-71.444-15.1835-96.8171-3.4534-5.2118-6.2848-8.1955-7.3239-9.2512-22.4423-22.9762-58.792-20.8315-65.7808-20.4131-1.5257.0842-2.6469.1854-3.3019.2518-8.7641.7375-44.9792,3.8215-66.1123,31.7087-11.7835,15.5524-13.3913,31.5741-16.5586,62.9971-1.3725,13.7143-.0036,11.1374.6105,58.1062h5.5772Z"/>
</svg>