<?xml version="1.0" encoding="UTF-8"?>
<svg id="szem1" xmlns="http://www.w3.org/2000/svg" viewBox="0 0 445.26 281">
  <defs>
    <style>
      .cls-1 {
        fill: #261f20;
      }

      .cls-2 {
        fill: #fff;
      }

      .cls-3 {
        fill: none;
        stroke: #261f20;
        stroke-linecap: round;
        stroke-linejoin: round;
        stroke-width: 26.8718px;
      }
    </style>
  </defs>
  <path class="cls-2" d="M374.2474,114.3355c8.666.1659,16.7645.8321,24.2366,1.7413,5.6114,5.4352,24.9656,29.3433,22.5722,67.4331-1.9426,31.0177-16.8913,49.7453-23.2183,56.3753-.5734.5726-1.1967.8892-1.8327.9138-7.6649.3277-15.6646.4664-23.9786.3072-7.7335-.148-15.7227-.5571-23.9858-1.2253-25.2045-2.0516-50.5529-6.624-75.2708-13.5565-1.8825-.5472-3.2636-3.6396-3.2876-7.3987l-.539-75.5142c-.0431-3.7227,1.314-7.0177,3.1864-7.8572,25.272-11.2678,51.4932-18.1373,77.8869-20.4051,8.477-.7142,16.5748-.9601,24.2306-.8136"/>
  <path class="cls-1" d="M372.2565,227.9029c-7.6741-.1469-15.627-.5419-23.8181-1.1483-28.1052-2.1982-53.2413-7.1059-74.8905-12.8809-.2016-23.8674-.3986-47.7348-.6184-71.6026,19.5992-8.2362,45.8108-16.5189,77.1526-19.0663,8.403-.6687,16.422-.8614,24.0047-.7163,8.5928.1645,16.6149.7677,24.0146,1.6354,2.3526,2.501,21.1843,23.3698,19.0664,55.9077-1.8511,28.1512-18.0701,44.6835-21.0483,47.6356-7.6272.2688-15.59.394-23.8629.2356M371.9752,242.5956c8.3689.1602,16.4041.0723,24.1097-.2298,1.2726-.0801,2.5186-.6779,3.6459-1.7635,6.8924-6.7854,23.1793-26.1524,25.3294-59.1741,2.6705-40.6204-18.5586-65.4782-22.8375-70.0563-1.0438-1.1261-2.1928-1.7708-3.4066-1.8985-8.0925-.9845-16.3208-1.5568-24.4475-1.7123-8.1083-.1552-16.3343.1021-24.4357.7766-26.675,2.1533-53.1134,8.667-78.5814,19.42-3.7568,1.5883-6.4421,7.8653-6.3714,14.9223l.5962,71.5673c.0517,7.0915,2.8429,12.9551,6.6233,13.9605,24.8556,6.667,50.317,11.0627,75.6923,13.0355,8.2865.642,16.3131,1.0036,24.0832,1.1523"/>
  <path class="cls-1" d="M328.6597,179.2864c-1.5354-9.8272,3.7001-20.7392,11.6967-24.3788,8.0001-3.6395,15.7308,1.3465,17.2663,11.1729,1.5359,9.8027-3.6961,20.7155-11.6967,24.3796-8.0001,3.6388-15.7308-1.3465-17.2663-11.1736"/>
  <path class="cls-2" d="M69.1633,115.5888c-8.3488.1598-16.1511.7933-23.3499,1.6569-5.4077,5.1499-24.0609,27.8011-21.7669,63.8782,1.8618,29.3787,16.2576,47.1125,22.3509,53.3904.5522.5422,1.1526.8419,1.7653.8649,7.3842.308,15.091.4369,23.1008.2835,7.4505-.1426,15.1474-.5326,23.1082-1.1681,24.2826-1.9511,48.7045-6.2898,72.5197-12.8638,1.8137-.5189,3.1452-3.4484,3.1696-7.0089l.5427-71.5257c.0426-3.5261-1.2637-6.6466-3.0673-7.4412-24.3435-10.6648-49.6027-17.1633-75.0296-19.3031-8.1665-.6738-15.9678-.9043-23.3434-.7631"/>
  <path class="cls-1" d="M69.7435,223.1818c7.2011-.1378,14.6636-.5106,22.3498-1.0836,26.3724-2.0773,49.9583-6.7215,70.272-12.1877.1851-22.6065.3659-45.2129.5682-67.8197-18.3925-7.8044-42.9898-15.654-72.4001-18.0721-7.8852-.6348-15.4099-.8187-22.5252-.6825-8.0631.1543-15.5906.7243-22.534,1.545-2.2072,2.3685-19.8746,22.1316-17.8817,52.9509,1.7418,26.6643,16.9638,42.326,19.7589,45.1226,7.1571.2559,14.6291.3758,22.392.2272M70.0098,237.0984c-7.853.1503-15.393.0657-22.6236-.2217-1.1942-.0761-2.3635-.6425-3.4215-1.671-6.4687-6.4281-21.755-24.7747-23.7781-56.0522-2.5127-38.4749,17.4035-62.0159,21.418-66.3514.9793-1.0664,2.0574-1.6769,3.1963-1.7976,7.5935-.9311,15.3146-1.4718,22.9402-1.6177,7.6085-.1456,15.3275.0995,22.9296.7397,25.0311,2.0441,49.841,8.2181,73.7409,18.4073,3.5255,1.505,6.0463,7.4509,5.9812,14.1351l-.5474,67.7863c-.0473,6.7168-2.6655,12.2702-6.2127,13.2218-23.3223,6.3106-47.2136,10.4698-71.0244,12.3341-7.7756.6067-15.3074.9478-22.5986,1.0874"/>
  <path class="cls-1" d="M107.4972,179.4136c1.4823-9.3086-3.5583-19.6426-11.261-23.0875-7.7062-3.4448-15.1554,1.2802-16.6377,10.5881-1.4827,9.2854,3.5544,19.6202,11.261,23.0882,7.7062,3.4441,15.1554-1.2802,16.6377-10.5888"/>
  <line class="cls-3" x1="91.6971" y1="36.7379" x2="174.5763" y2="125.3102"/>
  <path class="cls-1" d="M249.9224,280.7282h6.7152c9.2186-28.1946,18.8677-57.5465,4.2466-75.2427-8.8827-10.7595-25.8583-16.1393-43.0025-16.1393-17.6307,0-35.429,5.6979-44.7492,17.0947-14.5739,17.854-5.8321,46.5847,3.5114,74.2874h6.7473c-9.158-27.037-18.0442-54.6443-5.2955-70.2489,7.422-9.0997,22.675-14.7646,39.7861-14.7646,16.4401,0,31.0345,5.3134,38.0928,13.8431,12.3325,14.9322,3.3509,42.4009-5.3312,68.9637-.2406.7348-.4813,1.4705-.721,2.2066Z"/>
  <path class="cls-1" d="M178.3182,280.4811c-9.3008-27.5439-18.0801-55.5205-4.3965-72.2671,8.0117-9.8218,24.2178-15.9385,42.2656-15.9385,17.3613,0,32.9131,5.7485,40.5566,14.9995,13.457,16.3071,4.1895,44.6128-4.7588,71.9805-.1338.4092-.2666.8169-.4004,1.2256h62.6914c.0391-8.5142-.084-21.1328-.9375-36.3857-3.1396-56.1113-4.71-84.167-21.8213-103.3804-21.085-23.6753-53.667-25.6309-63.7344-26.2354-2.5908-.1558-41.7256-1.249-74.209,23.6641-31.4336,24.1079-34.9346,65.6162-33.3535,142.3374h58.0977Z"/>
  <path class="cls-1" d="M248.2283,280.4811h6.7152c9.2186-28.1946,18.8677-57.5465,4.2466-75.2427-8.8827-10.7595-25.8583-16.1393-43.0025-16.1393-17.6307,0-35.429,5.6979-44.7492,17.0947-14.5739,17.854-5.8321,46.5847,3.5114,74.2874h6.7473c-9.158-27.037-18.0442-54.6443-5.2955-70.2489,7.422-9.0997,22.675-14.7646,39.7861-14.7646,16.4401,0,31.0345,5.3134,38.0928,13.8431,12.3325,14.9322,3.3509,42.4009-5.3312,68.9637-.2406.7348-.4813,1.4705-.721,2.2066Z"/>
  <path class="cls-1" d="M123.3992,280.4813c-1.5801-75.5293,1.7559-116.52,32.1191-139.7983,13.7324-10.5278,39.375-25.5781,72.2646-23.0112,7.8018.6089,39.498,3.083,60.3994,26.8101,17.248,19.5801,18.8232,46.3555,21.9727,99.9062.8896,15.1216.9824,27.6382.9092,36.0933l7.9277-.0425h0c0-.1304,2.3652-34.6401-2.5029-79.2529-.1201-1.1001-.1768-1.6509-.2598-2.3042-2.0078-15.73-5.166-40.4712-22.7764-60.0469-22.5547-25.0708-55.5898-26.9688-65.6699-27.5479-3.167-.1821-42.9141-1.1401-76.1523,24.3345-32.6699,25.0391-36.2295,67.3022-34.6133,144.8599h6.3818Z"/>
  <path class="cls-2" d="M137.004,280.4811c2.2209-8.6238,18.1753-14.0138,19.3525-27.1849,1.4072-15.7534-19.8276-25.3401-15.9695-35.1946,3.3349-8.4798,20.5601-5.1115,23.6455-13.5249,3.7725-10.2391-18.0157-25.4065-15.2165-29.4962,3.1335-4.5915,29.9828,15.2013,42.2984,6.4697,10.3228-7.3239,3.973-30.0657,9.7542-31.5411,6.3178-1.6251,14.2103,25.6926,25.5723,25.2055,10.5447-.4349,16.244-24.485,21.5547-23.2444,5.1271,1.2071-.1025,23.7814,9.4521,29.2783,8.8336,5.0776,23.8496-8.0779,26.648-4.743,3.1834,3.838-17.4632,20.2954-13.2237,31.2894,3.973,10.3407,27.688,9.871,27.5035,13.5913-.1185,2.3639-9.6232,1.0391-16.3251,7.0722-9.2846,8.3631-10.1063,28.089-1.4571,37.3562,6.2482,6.7041,15.6344,6.0165,15.687,9.1509.0365,2.4771-5.8829,3.4325-11.9092,5.5157h20.2027c.1586-7.7981.3128-16.6045.5035-26.5824.786-41.9143,1.5917-71.444-15.1835-96.8171-3.4534-5.2118-6.2848-8.1955-7.3239-9.2512-22.4423-22.9762-58.792-20.8315-65.7808-20.4131-1.5257.0842-2.6469.1854-3.3019.2518-8.7641.7375-44.9792,3.8215-66.1123,31.7087-11.7835,15.5524-13.3913,31.5741-16.5586,62.9971-1.3725,13.7143-.0036,11.1374.6105,58.1062h5.5772Z"/>
  <path class="cls-1" d="M178.3182,280.4811c-9.3008-27.5439-18.0801-55.5205-4.3965-72.2671,8.0117-9.8218,24.2178-15.9385,42.2656-15.9385,17.3613,0,32.9131,5.7485,40.5566,14.9995,13.457,16.3071,4.1895,44.6128-4.7588,71.9805-.1338.4092-.2666.8169-.4004,1.2256h62.6914c.0391-8.5142-.084-21.1328-.9375-36.3857-3.1396-56.1113-4.71-84.167-21.8213-103.3804-21.085-23.6753-53.667-25.6309-63.7344-26.2354-2.5908-.1558-41.7256-1.249-74.209,23.6641-31.4336,24.1079-34.9346,65.6162-33.3535,142.3374h58.0977Z"/>
  <path class="cls-1" d="M248.2283,280.4811h6.7152c9.2186-28.1946,18.8677-57.5465,4.2466-75.2427-8.8827-10.7595-25.8583-16.1393-43.0025-16.1393-17.6307,0-35.429,5.6979-44.7492,17.0947-14.5739,17.854-5.8321,46.5847,3.5114,74.2874h6.7473c-9.158-27.037-18.0442-54.6443-5.2955-70.2489,7.422-9.0997,22.675-14.7646,39.7861-14.7646,16.4401,0,31.0345,5.3134,38.0928,13.8431,12.3325,14.9322,3.3509,42.4009-5.3312,68.9637-.2406.7348-.4813,1.4705-.721,2.2066Z"/>
  <path class="cls-1" d="M123.3992,280.4813c-1.5801-75.5293,1.7559-116.52,32.1191-139.7983,13.7324-10.5278,39.375-25.5781,72.2646-23.0112,7.8018.6089,39.498,3.083,60.3994,26.8101,17.248,19.5801,18.8232,46.3555,21.9727,99.9062.8896,15.1216.9824,27.6382.9092,36.0933l7.9277-.0425h0c0-.1304,2.3652-34.6401-2.5029-79.2529-.1201-1.1001-.1768-1.6509-.2598-2.3042-2.0078-15.73-5.166-40.4712-22.7764-60.0469-22.5547-25.0708-55.5898-26.9688-65.6699-27.5479-3.167-.1821-42.9141-1.1401-76.1523,24.3345-32.6699,25.0391-36.2295,67.3022-34.6133,144.8599h6.3818Z"/>
  <path class="cls-2" d="M137.004,280.4811c2.2209-8.6238,18.1753-14.0138,19.3525-27.1849,1.4072-15.7534-19.8276-25.3401-15.9695-35.1946,3.3349-8.4798,20.5601-5.1115,23.6455-13.5249,3.7725-10.2391-18.0157-25.4065-15.2165-29.4962,3.1335-4.5915,29.9828,15.2013,42.2984,6.4697,10.3228-7.3239,3.973-30.0657,9.7542-31.5411,6.3178-1.6251,14.2103,25.6926,25.5723,25.2055,10.5447-.4349,16.244-24.485,21.5547-23.2444,5.1271,1.2071-.1025,23.7814,9.4521,29.2783,8.8336,5.0776,23.8496-8.0779,26.648-4.743,3.1834,3.838-17.4632,20.2954-13.2237,31.2894,3.973,10.3407,27.688,9.871,27.5035,13.5913-.1185,2.3639-9.6232,1.0391-16.3251,7.0722-9.2846,8.3631-10.1063,28.089-1.4571,37.3562,6.2482,6.7041,15.6344,6.0165,15.687,9.1509.0365,2.4771-5.8829,3.4325-11.9092,5.5157h20.2027c.1586-7.7981.3128-16.6045.5035-26.5824.786-41.9143,1.5917-71.444-15.1835-96.8171-3.4534-5.2118-6.2848-8.1955-7.3239-9.2512-22.4423-22.9762-58.792-20.8315-65.7808-20.4131-1.5257.0842-2.6469.1854-3.3019.2518-8.7641.7375-44.9792,3.8215-66.1123,31.7087-11.7835,15.5524-13.3913,31.5741-16.5586,62.9971-1.3725,13.7143-.0036,11.1374.6105,58.1062h5.5772Z"/>
  <line class="cls-3" x1="361.9083" y1="29.1145" x2="275.0505" y2="120.7052"/>
</svg>