<?xml version="1.0" encoding="UTF-8"?>
<svg id="szem1" xmlns="http://www.w3.org/2000/svg" version="1.1" viewBox="0 0 420.712 281.8062">
  <!-- Generator: Adobe Illustrator 29.4.0, SVG Export Plug-In . SVG Version: 2.1.0 Build 152)  -->
  <g>
    <g>
      <path d="M388.1841,260.0529c.6445-13.3951.6646-28.9425.689-46.9056.0151-21.7461-1.748-66.7144-2.8911-96.4607-.5542-14.2854-.9844-24.9364-.9844-27.4921,0-4.0001-7.0605-16.619-7.1265-16.714-26.3789-39.0325-94.905-52.9368-150.2551-52.9368-61.8411,0-143.9812,17.1266-171.6348,64.9366-.0466.0793-3.4607,7.4287-3.4607,7.4287-.4263.9205-.6316,1.7933-.7285,2.8096-1.6997,20.467-1.8867,68.8185-2.0928,163.0891" style="fill: #76c615; stroke: #261f20; stroke-miterlimit: 10; stroke-width: 16.4225px;"/>
      <path d="M125.5706,258.5296c3.2249-.3579,6.4612-.5577,9.7371-.3372,8.4163.5667,16.3496,1.251,24.8213.6929,3.0938-.2039,6.1909-.3135,9.2898-.3496-6.6377-21.4346-10.4839-41.8452.2419-54.9713,7.5876-9.3025,22.9375-15.0961,40.0312-15.0961,16.4426,0,31.1724,5.4448,38.4114,14.2068,11.2051,13.5776,5.7751,35.938-1.4592,58.7566,13.5403-.8406,27.1553.9659,40.6367-.7161,5.1128-.6379,10.4163-1.0824,15.1338-.0615-.1694-7.3354-.4321-15.0466-.7087-23.1057-1.9338-55.9208-2.9026-83.9844-18.4888-100.0164-14.2571-14.6667-36.4778-22.7457-62.5427-22.7457s-51.6958,8.1749-70.2854,22.4125c-27.8916,21.3914-32.5608,57.2583-31.8083,121.4519,2.2668-.3335,4.5684-.3718,6.99-.1211Z" style="fill: #261f20;"/>
      <path d="M115.8052,259.2222c1.7231-.4482,3.4502-.7141,5.2124-.8064-.7341-62.8079,3.7974-98.0382,30.6475-118.6241,18.5391-14.2067,44.0305-21.7944,68.4446-21.7944,23.4607,0,45.9526,7.0006,60.3647,21.8254,14.7957,15.2064,15.7451,42.8728,17.6519,98.191.2683,7.7539.5139,15.137.676,22.1317,2.124.1591,4.1753.5306,6.0942,1.2108-.1704-7.48-.4402-15.3378-.7249-23.5488-1.9648-56.8103-2.9492-85.3176-19.3647-102.1904-14.8228-15.2704-37.8069-23.667-64.6973-23.667-26.7314,0-53.0173,8.3966-72.1262,23.048-29.0559,22.2692-33.7971,58.9368-32.9998,124.1458.2747.0205.5476.0548.8215.0785Z" style="fill: #261f20;"/>
      <path d="M171.9651,258.5259c-6.5247-20.8918-10.4434-40.7161-.5208-52.8618,7.0295-8.6185,21.4766-13.9839,37.6829-13.9839,15.5708,0,29.3938,5.032,36.0786,13.111,10.3872,12.5775,4.8079,34.5463-2.3379,56.9501,2.1611-.2217,4.3247-.3633,6.49-.4453,7.2661-23.1428,12.4673-45.875.498-60.3616-8.4131-10.1909-24.4915-15.2859-40.7288-15.2859-16.6985,0-33.5559,5.3962-42.3835,16.1907-11.4277,14-7.7197,35.0603-1.0862,56.7823,2.1016-.0675,4.2043-.098,6.3076-.0956Z" style="fill: #261f20;"/>
      <path d="M135.3076,258.1925c3.564.24,7.0408.4957,10.509.6746,3.334-3.3716,6.1824-7.2651,6.6428-12.4159,1.333-14.9207-18.7795-24.0004-15.1252-33.3339,3.1584-8.0315,19.4731-4.8412,22.3953-12.8097,3.5728-9.6979-17.063-24.0634-14.4121-27.9366,2.9683-4.349,28.3977,14.3975,40.0623,6.1277,9.7773-6.9366,3.7629-28.4763,9.2385-29.8733,5.9834-1.5394,13.4587,24.3337,24.2205,23.8726,9.9866-.4119,15.3845-23.1906,20.4148-22.0154,4.8557,1.1433-.0969,22.5239,8.9517,27.7303,8.3667,4.8092,22.5889-7.6508,25.2397-4.4923,3.0149,3.6349-16.5396,19.2222-12.5249,29.635,3.7627,9.7937,26.2236,9.3489,26.0493,12.8726-.1123,2.2389-9.1145.9843-15.4622,6.6982-8.793,7.9211-9.572,26.6038-1.3796,35.3811,1.2356,1.3258,2.6018,2.334,3.989,3.146,4.3972-.0194,8.7881-.1918,13.1643-.7378,1.917-.2393,3.8611-.4512,5.7908-.5688.0767-4.1245.1567-8.486.2454-13.125.7441-39.6981,1.5076-67.6667-14.3809-91.6981-3.2708-4.9362-5.9526-7.7621-6.9368-8.762-21.2559-21.7614-55.6833-19.7299-62.3025-19.3336-1.4453.0795-2.5073.1753-3.1272.2383-8.3008.6986-42.6008,3.6196-62.6165,30.0322-11.1606,14.7299-12.6836,29.9043-15.6831,59.6663-.7549,7.5386-.3037,26.9346.1233,41.1051,2.2917-.1726,4.5928-.2338,6.9143-.0775Z" style="fill: #fff;"/>
      <line x1="87.1498" y1="96.0149" x2="132.7848" y2="146.7449" style="fill: #76c615;"/>
    </g>
    <rect x="37.3451" y="257.3634" width="360.1129" height="4.8992" style="fill: #aad7db;"/>
    <rect x="37.3451" y="257.3634" width="360.1129" height="4.8992" style="fill: #aad7db;"/>
  </g>
  <g>
    <path d="M48.8048,243.9346c-1.8205.0044-3.4602-.9513-4.2353-2.44-9.7762-19.2531-15.9635-39.3922-18.3105-59.8061-1.4621-12.4932-1.4925-25.0921-.0903-37.49.1142-.9799.6115-1.8996,1.4035-2.5957,3.2237-2.7646,20.6962-16.6108,48.1149-16.6769l3.3415.053c24.8736.962,40.4765,12.808,44.6868,16.4121.8454.7333,1.3473,1.7117,1.4164,2.7534.829,12.3514.8589,24.7459.0888,36.8768-1.2461,19.565-4.6125,39.1153-9.9062,58.118-.5174,1.7984-2.3126,3.0889-4.3828,3.155,0,0-62.0826,1.6402-62.127,1.6403" style="fill: #fff;"/>
    <path d="M75.7083,129.0886c1.0213-.0025,2.0703.015,3.1361.0535,24.4184.942,39.0451,13.0358,41.6424,15.2554.7763,11.2074.9222,23.3773.0877,36.387-1.3803,21.4635-5.1303,40.7292-9.7748,57.3412-20.6628.5396-41.3255,1.1003-61.9938,1.6399-7.5342-14.8067-15.175-34.6569-17.941-58.4996-1.6037-13.6569-1.2671-26.0111-.0883-36.6524,2.0438-1.761,18.5399-15.4615,44.9318-15.5251M75.6882,120.757c-29.1893.0703-47.8862,14.8791-51.3369,17.8275-1.6118,1.3923-2.6064,3.233-2.8292,5.2139-1.4013,12.7444-1.3702,25.6299.0923,38.3275,2.4147,20.8424,8.7417,41.4099,18.7466,61.1111,1.5058,2.9775,4.8295,4.8888,8.4428,4.8801l.272-.0007,61.9938-1.6611c4.1625-.111,7.7252-2.6932,8.7378-6.3099,5.3872-19.3706,8.7751-39.1851,10.0431-58.8736.7915-12.4164.7612-24.9953-.0901-37.3878-.1383-2.1022-1.1698-4.0601-2.8551-5.5267-4.5106-3.8477-21.2478-16.5284-47.6701-17.5266-1.1824-.0595-2.3868-.0765-3.5469-.0737" style="fill: #261f20;"/>
    <path d="M95.7364,194.35c-.9294,6.1477-11.0673,9.9484-22.6326,8.4881-11.588-1.4396-20.207-7.6145-19.2721-13.7621.9294-6.1477,11.0395-9.9478,22.6271-8.4882,11.5654,1.4603,20.207,7.6145,19.2777,13.7622" style="fill: #261f20;"/>
  </g>
  <path d="M292.3435,91.3739c3.8633-3.4155,20.708-17.5331,45.7236-16.6672,22.2253.7694,36.9715,12.884,41.2409,16.6672" style="fill: none; stroke: #261f20; stroke-linecap: round; stroke-linejoin: round; stroke-width: 16px;"/>
  <path d="M144.3908,93.4683c-3.8633-3.4155-20.708-17.5331-45.7236-16.6672-22.2253.7694-36.9715,12.884-41.2409,16.6672" style="fill: none; stroke: #261f20; stroke-linecap: round; stroke-linejoin: round; stroke-width: 16px;"/>
  <g>
    <path d="M371.9072,244.0128c1.8205.0044,3.4602-.9513,4.2353-2.44,9.7762-19.2531,15.9635-39.3922,18.3105-59.8061,1.4621-12.4932,1.4925-25.0921.0903-37.49-.1142-.9799-.6115-1.8996-1.4035-2.5957-3.2237-2.7646-20.6962-16.6108-48.1149-16.6769l-3.3415.053c-24.8736.962-40.4765,12.808-44.6868,16.4121-.8454.7333-1.3473,1.7117-1.4164,2.7534-.829,12.3514-.8589,24.7459-.0888,36.8768,1.2461,19.565,4.6125,39.1153,9.9062,58.118.5174,1.7984,2.3126,3.0889,4.3828,3.155,0,0,62.0826,1.6402,62.127,1.6403" style="fill: #fff;"/>
    <path d="M345.0036,129.1668c-1.0213-.0025-2.0703.015-3.1361.0535-24.4184.942-39.0451,13.0358-41.6424,15.2554-.7763,11.2074-.9222,23.3773-.0877,36.387,1.3803,21.4635,5.1303,40.7292,9.7748,57.3412,20.6628.5396,41.3255,1.1003,61.9938,1.6399,7.5342-14.8067,15.175-34.6569,17.941-58.4996,1.6037-13.6569,1.2671-26.0111.0883-36.6524-2.0438-1.761-18.5399-15.4615-44.9318-15.5251M345.0237,120.8353c29.1893.0703,47.8862,14.8791,51.3369,17.8275,1.6118,1.3923,2.6064,3.233,2.8292,5.2139,1.4013,12.7444,1.3702,25.6299-.0923,38.3275-2.4147,20.8424-8.7417,41.4099-18.7466,61.1111-1.5058,2.9775-4.8295,4.8888-8.4428,4.8801l-.272-.0007-61.9938-1.6611c-4.1625-.111-7.7252-2.6932-8.7378-6.3099-5.3872-19.3706-8.7751-39.1851-10.0431-58.8736-.7915-12.4164-.7612-24.9953.0901-37.3878.1383-2.1022,1.1698-4.0601,2.8551-5.5267,4.5106-3.8477,21.2478-16.5284,47.6701-17.5266,1.1824-.0595,2.3868-.0765,3.5469-.0737" style="fill: #261f20;"/>
    <path d="M324.9756,194.4282c.9294,6.1477,11.0673,9.9484,22.6326,8.4881,11.588-1.4396,20.207-7.6145,19.2721-13.7621-.9294-6.1477-11.0395-9.9478-22.6271-8.4882-11.5654,1.4603-20.207,7.6145-19.2777,13.7622" style="fill: #261f20;"/>
  </g>
</svg>