<?xml version="1.0" encoding="UTF-8"?>
<svg id="szem2" xmlns="http://www.w3.org/2000/svg" viewBox="0 0 445.26 281">
  <defs>
    <style>
      .cls-1 {
        fill: #261f20;
      }

      .cls-2 {
        fill: #fff;
      }
    </style>
  </defs>
  <g>
    <path class="cls-1" d="M56.7378,77.7162c-6.1879-.4112-12.1583-.4007-17.8897-.0731-2.5209,4.6162-16.1705,30.5714-20.1268,75.258-4.5558,51.6396,7.6571,85.1277,9.2009,89.1576,5.4451,1.5417,11.4039,2.6671,17.8313,3.0942,5.6649.3764,11.7103.1981,18.0644-.7089,23.7138-3.4239,44.0974-16.0577,59.545-28.8061,2.0133-37.9066,4.0511-75.8116,6.0693-113.7166-15.6874-9.6461-34.0851-17.8851-54.9278-21.9088-6.0977-1.1778-12.0185-1.9144-17.7665-2.2964M57.5469,65.5403c6.3687.4232,12.7839,1.2568,19.0805,2.4701,19.9129,3.8323,39.6418,11.6884,58.5953,23.3102,3.7069,2.2853,5.874,6.6119,5.6288,11.1881l-6.0644,113.7169c-.1966,3.5488-1.825,6.8519-4.4641,9.0363-21.317,17.5925-43.211,28.1315-65.0795,31.2695-6.7606.9676-13.5931,1.243-20.2991.7974-6.706-.4456-13.4468-1.623-20.0395-3.478-3.4549-.9799-6.255-3.6122-7.6116-7.1346-2.4817-6.5384-14.6313-41.8661-9.9615-94.8509,3.8623-43.6412,16.4007-70.6787,21.6182-80.266,1.9527-3.6024,5.4845-5.9213,9.377-6.134,6.4018-.3695,12.8757-.3465,19.22.0751"/>
    <path class="cls-2" d="M47.8788,246.201c5.7855.3845,11.7077.1302,17.5405-.7381,19.0843-2.8842,38.2798-12.4441,57.0566-28.4736,1.2272-1.0323,1.9783-2.603,2.0716-4.2781l5.7684-107.3478c.1076-2.1599-.8981-4.1911-2.5908-5.2765-16.804-10.6157-34.2467-17.7705-51.8765-21.2303-5.7538-1.1315-11.3734-1.8498-16.8146-2.2114-5.8749-.3904-11.5442-.3617-17.0086-.0362-1.7539.106-3.3768,1.2133-4.2804,2.9161-4.6273,8.7453-15.7398,33.4469-19.264,73.4366-4.2609,48.9145,6.4156,80.9162,8.6134,86.8354.6082,1.6599,1.8879,2.8797,3.4599,3.3489,5.6845,1.6337,11.5389,2.6706,17.3244,3.055"/>
    <path class="cls-1" d="M121.9198,202.7198c2.6034,13.3993-8.5262,27.5461-24.855,31.6062-16.3063,4.0603-31.6593-3.5218-34.2627-16.921-2.6079-13.3996,8.5231-27.5661,24.8505-31.6065,16.3108-4.06,31.6638,3.5221,34.2672,16.9213"/>
  </g>
  <g>
    <path class="cls-1" d="M388.5222,77.7162c6.1879-.4112,12.1583-.4007,17.8897-.0731,2.5209,4.6162,16.1705,30.5714,20.1268,75.258,4.5558,51.6396-7.6571,85.1277-9.2009,89.1576-5.4451,1.5417-11.4039,2.6671-17.8313,3.0942-5.6649.3764-11.7103.1981-18.0644-.7089-23.7138-3.4239-44.0974-16.0577-59.545-28.8061-2.0133-37.9066-4.0511-75.8116-6.0693-113.7166,15.6874-9.6461,34.0851-17.8851,54.9278-21.9088,6.0977-1.1778,12.0185-1.9144,17.7665-2.2964M387.7131,65.5403c-6.3687.4232-12.7839,1.2568-19.0805,2.4701-19.9129,3.8323-39.6418,11.6884-58.5953,23.3102-3.7069,2.2853-5.874,6.6119-5.6288,11.1881l6.0644,113.7169c.1966,3.5488,1.825,6.8519,4.4641,9.0363,21.317,17.5925,43.211,28.1315,65.0795,31.2695,6.7606.9676,13.5931,1.243,20.2991.7974,6.706-.4456,13.4468-1.623,20.0395-3.478,3.4549-.9799,6.255-3.6122,7.6116-7.1346,2.4817-6.5384,14.6313-41.8661,9.9615-94.8509-3.8623-43.6412-16.4007-70.6787-21.6182-80.266-1.9527-3.6024-5.4845-5.9213-9.377-6.134-6.4018-.3695-12.8757-.3465-19.22.0751"/>
    <path class="cls-2" d="M397.3812,246.201c-5.7855.3845-11.7077.1302-17.5405-.7381-19.0843-2.8842-38.2798-12.4441-57.0566-28.4736-1.2272-1.0323-1.9783-2.603-2.0716-4.2781l-5.7684-107.3478c-.1076-2.1599.8981-4.1911,2.5908-5.2765,16.804-10.6157,34.2467-17.7705,51.8765-21.2303,5.7538-1.1315,11.3734-1.8498,16.8146-2.2114,5.8749-.3904,11.5442-.3617,17.0086-.0362,1.7539.106,3.3768,1.2133,4.2804,2.9161,4.6273,8.7453,15.7398,33.4469,19.264,73.4366,4.2609,48.9145-6.4156,80.9162-8.6134,86.8354-.6082,1.6599-1.8879,2.8797-3.4599,3.3489-5.6845,1.6337-11.5389,2.6706-17.3244,3.055"/>
    <path class="cls-1" d="M323.3402,202.7198c-2.6034,13.3993,8.5262,27.5461,24.855,31.6062,16.3063,4.0603,31.6593-3.5218,34.2627-16.921,2.6079-13.3996-8.5231-27.5661-24.8505-31.6065-16.3108-4.06-31.6638,3.5221-34.2672,16.9213"/>
  </g>
</svg>