<?xml version="1.0" encoding="UTF-8"?>
<svg id="szem1" xmlns="http://www.w3.org/2000/svg" viewBox="0 0 445.26 281">
  <defs>
    <style>
      .cls-1 {
        fill: #261f20;
      }

      .cls-2 {
        fill: #fff;
      }
    </style>
  </defs>
  <path class="cls-2" d="M45.7708,227.6817c5.7204.4842,11.7772.7193,18.145.6024,19.8531-.326,39.7458-3.9853,59.161-10.8834,1.5398-.545,2.5896-1.9462,2.6896-3.5866l3.0662-53.3536c.0959-1.8202-.9936-4.0172-2.7096-4.6001-18.0272-6.2338-36.6539-10.77-55.3347-13.4643-6.1028-.8936-12.0442-1.5748-17.7647-2.059-6.1731-.5225-12.146-.8305-17.8532-.9559-1.0307-.0266-2.0353.3248-2.7856.996-3.7999,3.3532-16.4295,15.9711-19.2155,37.3673-3.3222,25.3833,9.5471,42.8209,12.1552,46.0412.5916.746,1.4409,1.2544,2.4004,1.435,5.5324,1.0442,11.5791,1.9137,18.0458,2.4611"/>
  <path class="cls-1" d="M52.6727,144.3678c-6.096-.516-11.9872-.8158-17.6204-.9556-2.3572,2.0653-15.125,13.7367-17.8876,34.8572-3.1746,24.3834,9.7022,40.9875,11.298,42.9897,5.3993,1.0123,11.308,1.8507,17.6399,2.3867,5.5808.4724,11.5203.7169,17.7468.6087,23.2554-.4151,43.0015-5.3792,57.8711-10.6555,1.028-17.9889,2.0689-35.9574,3.0954-53.9282-15.6924-5.3996-33.9936-10.2865-54.6129-13.2831-6.0274-.8679-11.8677-1.5405-17.5303-2.0198M53.3539,136.3204c5.8167.4924,11.8223,1.1596,18.0022,2.0597,18.9327,2.7556,37.8161,7.3536,56.0952,13.6474,3.4351,1.1855,5.6576,4.492,5.4292,8.1075l-.0817,1.4237-3.0137,52.5045c-.1727,3.2432-2.2979,6.0628-5.3727,7.1531-19.7849,7.0256-40.1018,10.769-60.4125,11.1157-6.1862.0911-12.4262-.0989-18.58-.6198s-12.361-1.3846-18.4391-2.5138c-1.919-.3613-3.6223-1.3796-4.8232-2.8913-2.7855-3.4742-16.5193-22.1573-13.0074-49.0934,2.9848-22.8294,16.5003-36.2865,20.5578-39.8761,1.5247-1.3404,3.5114-2.0658,5.5343-2.0146,5.8065.1545,11.8374.4661,18.1116.9972"/>
  <path class="cls-1" d="M129.523,197.8732c.0287,5.207-2.6556,9.2705-5.2836,13.1775-11.0206,16.3823-31.1803,19.3448-37.215,20.2315-1.9947.2932-42.9652,5.9-52.0753-14.3786-7.6613-17.0527,9.7488-43.8947,31.8612-51.1938,27.8775-9.2024,62.6069,12.8631,62.7128,32.1634Z"/>
  <path class="cls-2" d="M396.4892,227.6817c-5.7204.4842-11.7772.7193-18.145.6024-19.8531-.326-39.7458-3.9853-59.161-10.8834-1.5398-.545-2.5896-1.9462-2.6896-3.5866l-3.0662-53.3536c-.0959-1.8202.9936-4.0172,2.7096-4.6001,18.0272-6.2338,36.6539-10.77,55.3347-13.4643,6.1028-.8936,12.0442-1.5748,17.7647-2.059,6.1731-.5225,12.146-.8305,17.8532-.9559,1.0307-.0266,2.0353.3248,2.7856.996,3.7999,3.3532,16.4295,15.9711,19.2155,37.3673,3.3222,25.3833-9.5471,42.8209-12.1552,46.0412-.5916.746-1.4409,1.2544-2.4004,1.435-5.5324,1.0442-11.5791,1.9137-18.0458,2.4611"/>
  <path class="cls-1" d="M389.5873,144.3678c6.096-.516,11.9872-.8158,17.6204-.9556,2.3572,2.0653,15.125,13.7367,17.8876,34.8572,3.1746,24.3834-9.7022,40.9875-11.298,42.9897-5.3993,1.0123-11.308,1.8507-17.6399,2.3867-5.5808.4724-11.5203.7169-17.7468.6087-23.2554-.4151-43.0015-5.3792-57.8711-10.6555-1.028-17.9889-2.0689-35.9574-3.0954-53.9282,15.6924-5.3996,33.9936-10.2865,54.6129-13.2831,6.0274-.8679,11.8677-1.5405,17.5303-2.0198M388.9061,136.3204c-5.8167.4924-11.8223,1.1596-18.0022,2.0597-18.9327,2.7556-37.8161,7.3536-56.0952,13.6474-3.4351,1.1855-5.6576,4.492-5.4292,8.1075l.0817,1.4237,3.0137,52.5045c.1727,3.2432,2.2979,6.0628,5.3727,7.1531,19.7849,7.0256,40.1018,10.769,60.4125,11.1157,6.1862.0911,12.4262-.0989,18.58-.6198s12.361-1.3846,18.4391-2.5138c1.919-.3613,3.6223-1.3796,4.8232-2.8913,2.7855-3.4742,16.5193-22.1573,13.0074-49.0934-2.9848-22.8294-16.5003-36.2865-20.5578-39.8761-1.5247-1.3404-3.5114-2.0658-5.5343-2.0146-5.8065.1545-11.8374.4661-18.1116.9972"/>
  <path class="cls-1" d="M312.737,197.8732c-.0287,5.207,2.6556,9.2705,5.2836,13.1775,11.0206,16.3823,31.1803,19.3448,37.215,20.2315,1.9947.2932,42.9652,5.9,52.0753-14.3786,7.6613-17.0527-9.7488-43.8947-31.8612-51.1938-27.8775-9.2024-62.6069,12.8631-62.7128,32.1634Z"/>
</svg>