<?xml version="1.0" encoding="UTF-8"?>
<svg id="beltér1" xmlns="http://www.w3.org/2000/svg" viewBox="0 0 445.26 281">
  <defs>
    <style>
      .cls-1 {
        fill: #261f20;
      }

      .cls-2 {
        fill: #fff;
      }
    </style>
  </defs>
  <g>
    <path class="cls-2" d="M372.7625,265.8052c25.3257,0,45.1456-31.5729,45.1456-71.9025s-19.8199-71.8851-45.1456-71.8851-45.166,31.5719-45.166,71.8851,19.8402,71.9025,45.166,71.9025"/>
    <path class="cls-1" d="M371.8466,123.0287c-23.5104,0-42.555,30.5243-42.555,68.1771s19.0446,68.1596,42.555,68.1596c23.4887,0,42.555-30.5243,42.555-68.1596s-19.0663-68.1771-42.555-68.1771M371.8466,114.5826c30.5884,0,53.6544,32.94,53.6544,76.6232s-23.066,76.6057-53.6544,76.6057-53.6544-32.94-53.6544-76.6057,23.066-76.6232,53.6544-76.6232"/>
    <path class="cls-1" d="M350.1381,228.1235c4.3836,0,5.5565-14.4425,5.5565-22.9732s-1.1729-22.9732-5.5565-22.9732c-4.3983,0-5.5711,14.4425-5.5711,22.9732s1.1729,22.9732,5.5711,22.9732"/>
    <path class="cls-1" d="M350.1344,183.5597c-2.4007,0-4.3543,9.6617-4.3543,21.5875s1.9536,21.5885,4.3543,21.5885,4.3396-9.6627,4.3396-21.5885-1.9389-21.5875-4.3396-21.5875M350.1344,180.8059c6.2895,0,6.7843,18.6326,6.7843,24.3413s-.4948,24.3424-6.7843,24.3424c-6.3042,0-6.7843-18.6326-6.7843-24.3424s.4801-24.3413,6.7843-24.3413"/>
  </g>
  <g>
    <path class="cls-2" d="M81.5328,265.7765c-25.3257,0-45.1456-31.5729-45.1456-71.9025s19.8199-71.8851,45.1456-71.8851,45.166,31.5719,45.166,71.8851-19.8402,71.9025-45.166,71.9025"/>
    <path class="cls-1" d="M82.4487,123c23.5104,0,42.555,30.5243,42.555,68.1771s-19.0446,68.1596-42.555,68.1596c-23.4887,0-42.555-30.5243-42.555-68.1596s19.0663-68.1771,42.555-68.1771M82.4487,114.5539c-30.5884,0-53.6544,32.94-53.6544,76.6232s23.066,76.6057,53.6544,76.6057,53.6544-32.94,53.6544-76.6057-23.066-76.6232-53.6544-76.6232"/>
    <path class="cls-1" d="M104.1572,228.0948c-4.3836,0-5.5565-14.4425-5.5565-22.9732s1.1729-22.9732,5.5565-22.9732c4.3983,0,5.5711,14.4425,5.5711,22.9732s-1.1729,22.9732-5.5711,22.9732"/>
    <path class="cls-1" d="M104.1608,183.5311c2.4007,0,4.3543,9.6617,4.3543,21.5875s-1.9536,21.5885-4.3543,21.5885-4.3396-9.6627-4.3396-21.5885,1.9389-21.5875,4.3396-21.5875M104.1608,180.7772c-6.2895,0-6.7843,18.6326-6.7843,24.3413s.4948,24.3424,6.7843,24.3424c6.3042,0,6.7843-18.6326,6.7843-24.3424s-.4801-24.3413-6.7843-24.3413"/>
  </g>
</svg>