<?xml version="1.0" encoding="UTF-8"?>
<svg id="szem2" xmlns="http://www.w3.org/2000/svg" viewBox="0 0 445.26 281">
  <defs>
    <style>
      .cls-1 {
        fill: #261f20;
      }

      .cls-2 {
        fill: #fff;
      }

      .cls-3 {
        stroke-width: 20.7318px;
      }

      .cls-3, .cls-4 {
        fill: none;
        stroke: #261f20;
        stroke-linecap: round;
        stroke-linejoin: round;
      }

      .cls-4 {
        stroke-width: 20.2866px;
      }
    </style>
  </defs>
  <path class="cls-2" d="M378.7534,205.7917c-8.8434,0-18.1856-.228-27.9541-.7675-30.4846-1.6605-60.5974-6.039-89.463-13.0324-2.1179-.4978-3.5646-2.656-3.4376-5.0422l2.2857-45.0724c.1134-2.366,1.7279-4.2956,3.8276-4.5654,28.7386-3.8808,58.085-6.3088,87.2681-7.2423,9.5644-.3116,18.8341-.4363,27.7908-.4363,9.5644,0,18.7978.1457,27.6185.4363.6349.0203,1.2471.1862,1.8231.4978,5.5917,3.1126,24.0358,14.7961,25.6503,34.157,1.9727,23.0549-21.0064,37.1867-25.6321,39.7806-10.3853.9962-19.7638,1.2868-29.7772,1.2868"/>
  <path class="cls-1" d="M378.9757,130.1475c9.5644,0,18.7797.1764,27.5867.4856,3.3786,2.0083,21.7501,13.2849,23.2739,32.1535,1.7279,21.8252-20.5075,35.5519-23.2739,37.1851-8.5667.5078-17.8545.8162-27.7908.8162-8.7663,0-18.0359-.2424-27.75-.8162-36.1671-2.0965-66.2798-7.9665-88.7556-13.7489.7619-15.9774,1.5238-31.9549,2.2857-47.9323,25.1514-3.6192,54.33-6.5542,86.8599-7.6574,9.4919-.3313,18.6844-.4856,27.5641-.4856M378.9757,119.7754c-8.9522,0-18.24.1542-27.8271.4633-29.3282.9934-58.8287,3.597-87.6581,7.7463-4.1995.5953-7.4284,4.7002-7.6688,9.7101l-1.1338,24.0322-1.1519,23.9002c-.2449,5.0975,2.6757,9.6657,6.8706,10.7473,29.1287,7.4809,59.4818,12.1818,90.1841,13.9691,9.3286.5516,18.8205.8162,28.1808.8162s18.8522-.2647,28.2171-.8162c1.2063-.066,2.3945-.4411,3.492-1.0816,5.0702-3.0232,30.2579-19.53,28.0493-47.4467-1.805-22.5977-20.2309-35.8388-28.0675-40.4729-1.1338-.6842-2.3809-1.0594-3.6598-1.1038-8.8796-.2869-18.1674-.4633-27.8271-.4633"/>
  <path class="cls-1" d="M313.3745,164.5776c-1.7879,6.1616,3.4265,13.087,11.6495,15.4722,8.2267,2.3851,16.3452-.6574,18.1331-6.8186,1.7879-6.1462-3.4228-13.0721-11.6495-15.4727-8.2267-2.3847-16.3452.6574-18.1331,6.819"/>
  <path class="cls-2" d="M66.5066,209.1799c8.8434,0,18.1856-.228,27.9541-.7675,30.4846-1.6605,60.5974-6.039,89.463-13.0324,2.1179-.4978,3.5646-2.656,3.4376-5.0422l-2.2857-45.0724c-.1134-2.366-1.7279-4.2956-3.8276-4.5654-28.7386-3.8808-58.085-6.3088-87.2681-7.2423-9.5644-.3116-18.8341-.4363-27.7908-.4363-9.5644,0-18.7978.1457-27.6185.4363-.6349.0203-1.2471.1862-1.8231.4978-5.5917,3.1126-24.0358,14.7961-25.6503,34.157-1.9727,23.0549,21.0064,37.1867,25.6321,39.7806,10.3853.9962,19.7638,1.2868,29.7772,1.2868"/>
  <path class="cls-1" d="M66.2843,133.5358c-9.5644,0-18.7797.1764-27.5867.4856-3.3786,2.0083-21.7501,13.2849-23.2739,32.1535-1.7279,21.8252,20.5075,35.5519,23.2739,37.1851,8.5667.5078,17.8545.8162,27.7908.8162,8.7663,0,18.0359-.2424,27.75-.8162,36.1671-2.0965,66.2798-7.9665,88.7556-13.7489-.7619-15.9774-1.5238-31.9549-2.2857-47.9323-25.1514-3.6192-54.33-6.5542-86.8599-7.6574-9.4919-.3313-18.6844-.4856-27.5641-.4856M66.2843,123.1636c8.9522,0,18.24.1542,27.8271.4633,29.3282.9934,58.8287,3.597,87.6581,7.7463,4.1995.5953,7.4284,4.7002,7.6688,9.7101l1.1338,24.0322,1.1519,23.9002c.2449,5.0975-2.6757,9.6657-6.8706,10.7473-29.1287,7.4809-59.4818,12.1818-90.1841,13.9691-9.3286.5516-18.8205.8162-28.1808.8162s-18.8522-.2647-28.2171-.8162c-1.2063-.066-2.3945-.4411-3.492-1.0816-5.0702-3.0232-30.2579-19.53-28.0493-47.4467,1.805-22.5977,20.2309-35.8388,28.0675-40.4729,1.1338-.6842,2.3809-1.0594,3.6598-1.1038,8.8796-.2869,18.1674-.4633,27.8271-.4633"/>
  <path class="cls-1" d="M131.8855,167.9658c1.7879,6.1616-3.4265,13.087-11.6495,15.4722-8.2267,2.3851-16.3452-.6574-18.1331-6.8186-1.7879-6.1462,3.4228-13.0721,11.6495-15.4727,8.2267-2.3847,16.3452.6574,18.1331,6.819"/>
  <line class="cls-4" x1="384.6436" y1="97.4387" x2="287.7594" y2="101.578"/>
  <line class="cls-3" x1="61.2432" y1="99.9789" x2="150.2441" y2="104.6848"/>
</svg>