<?xml version="1.0" encoding="UTF-8"?>
<svg id="beltér1" xmlns="http://www.w3.org/2000/svg" viewBox="0 0 445.26 281">
  <defs>
    <style>
      .cls-1 {
        fill: #261f20;
      }

      .cls-2 {
        fill: #fff;
      }

      .cls-3 {
        fill: none;
        stroke: #261f20;
        stroke-linecap: round;
        stroke-linejoin: round;
        stroke-width: 18.332px;
      }
    </style>
  </defs>
  <g>
    <path class="cls-2" d="M397.5159,203.675c-6.1827.6428-12.7366,1.1051-19.6193,1.3019-21.4766.6364-42.9611-1.3397-63.8315-5.8937-1.5297-.3195-2.7539-2.2674-2.9004-4.5465l-2.8454-43.0405c-.154-2.2588.7845-4.2117,2.2259-4.621,19.7096-5.7806,39.9873-10.2234,60.2982-13.2327,6.6561-.9916,13.1246-1.7841,19.3865-2.4352,6.6868-.6952,13.1566-1.2279,19.3521-1.5926.4459-.0269.8903.0865,1.3237.341,4.2162,2.5544,18.2629,12.3274,21.3003,30.6267,3.652,21.7871-11.0203,36.9001-13.9986,39.7038-7.1625,1.7025-13.6907,2.6607-20.6914,3.3886"/>
    <path class="cls-1" d="M390.4981,132.4857c6.6868-.6952,13.1469-1.1973,19.3347-1.5434,2.5601,1.6648,16.5159,11.056,19.4414,28.8937,3.3596,20.6352-10.8327,35.3088-12.6058,37.0634-5.9392,1.1058-12.4022,2.0743-19.3491,2.7966-6.1288.6372-12.6334,1.0804-19.4815,1.2407-25.4923.6347-47.1239-2.7601-63.4075-6.6267-1.0424-15.2536-2.0849-30.5073-3.1273-45.7609,17.2274-5.271,37.3378-10.1839,59.9719-13.5979,6.6034-1.0052,13.0151-1.8201,19.2231-2.4655M389.4756,122.6194c-6.2588.6507-12.737,1.4726-19.4092,2.4635-20.4064,3.0768-40.7746,7.6979-60.5212,13.7404-2.8773.8716-4.7301,5.0109-4.4043,9.794l1.5765,22.9426,1.5508,22.8183c.3313,4.8667,2.8235,8.9998,5.863,9.7237,21.1024,4.9987,42.7867,7.2639,64.428,6.7324,6.5763-.1534,13.2385-.5916,19.7827-1.272s13.1542-1.6221,19.6471-2.8276c.8369-.1505,1.6306-.5937,2.3347-1.2827,3.2467-3.2443,19.229-20.777,14.9328-47.1718-3.4897-21.3644-17.6772-32.6204-23.6129-36.4589-.8601-.5685-1.769-.8346-2.6675-.784-6.2363.3726-12.7472.8799-19.5006,1.582"/>
    <path class="cls-1" d="M348.3739,169.416c-.6426,5.9911,3.6858,12.1997,9.6699,13.8708,5.9867,1.6708,11.3627-1.8135,12.0053-7.8042.6441-5.9765-3.6817-12.1858-9.6699-13.8713-5.9867-1.6704-11.3627,1.8135-12.0052,7.8046"/>
  </g>
  <g>
    <path class="cls-2" d="M48.9065,207.8683c6.1034.8464,12.581,1.5245,19.3936,1.9483,21.257,1.3446,42.6133.0788,63.4512-3.7834,1.5269-.2688,2.8079-2.1749,3.0328-4.4476l4.3244-42.9162c.2316-2.2521-.63-4.2346-2.0439-4.6911-19.3264-6.4268-39.2624-11.5356-59.2815-15.2129-6.5603-1.2106-12.9416-2.2159-19.1233-3.0731-6.6011-.9154-12.9928-1.6611-19.1186-2.23-.4408-.0416-.8851.057-1.3234.2971-4.2668,2.4134-18.5262,11.7161-22.1757,29.9023-4.3804,21.6512,9.6287,37.2377,12.4816,40.1377,7.0372,1.9376,13.4719,3.1106,20.3828,4.0689"/>
    <path class="cls-1" d="M58.7891,135.2414c-6.6011-.9154-12.9843-1.6302-19.1031-2.1803-2.5948,1.5791-16.7508,10.5032-20.2732,28.2318-4.0504,20.5098,9.4984,35.6413,11.1939,37.4532,5.846,1.3009,12.2158,2.4821,19.0735,3.433,6.0502.839,12.4796,1.4965,19.2591,1.8827,25.236,1.4754,46.7875-1.2032,63.0568-4.5299,1.5663-15.2085,3.1326-30.4169,4.6989-45.6254-16.8849-5.8357-36.6387-11.4087-58.9455-15.5671-6.5076-1.2223-12.8319-2.2482-18.9603-3.0981M60.1472,125.4158c6.1785.8568,12.5685,1.8918,19.1448,3.1022,20.1114,3.748,40.1308,9.0378,59.4847,15.7277,2.8204.9659,4.5114,5.1635,4.0213,9.9324l-2.3643,22.8744-2.3345,22.7511c-.4985,4.8523-3.1123,8.9003-6.1492,9.5234-21.0833,4.2989-42.6477,5.847-64.0716,4.6018-6.5106-.3703-13.0962-1.028-19.5565-1.9239s-12.9766-2.055-19.3677-3.4738c-.8239-.178-1.5949-.6471-2.2684-1.3588-3.1034-3.3492-18.3258-21.3968-13.146-47.6312,4.2047-21.2342,18.6556-32.0141,24.671-35.6541.8721-.5397,1.7819-.7757,2.6704-.6954,6.166.5781,12.5993,1.2998,19.2661,2.2243"/>
    <path class="cls-1" d="M99.2349,173.5355c.4272,6.0081-4.0786,12.0695-10.0661,13.542-5.9901,1.4721-11.1949-2.1871-11.6221-8.1948-.4292-5.9935,4.074-12.0557,10.0662-13.5424,5.9901-1.4717,11.1949,2.1871,11.622,8.1952"/>
  </g>
  <path class="cls-3" d="M64.4187,110.2707c22.4033-4.7571,44.8063-9.5137,67.2096-14.2708"/>
  <path class="cls-3" d="M390.263,110.2707c-22.4033-4.7571-44.8063-9.5137-67.2096-14.2708"/>
</svg>