<?xml version="1.0" encoding="UTF-8"?>
<svg id="szem1" xmlns="http://www.w3.org/2000/svg" viewBox="0 0 445.26 281">
  <defs>
    <style>
      .cls-1 {
        fill: #261f20;
      }

      .cls-2 {
        fill: #fff;
      }
    </style>
  </defs>
  <path class="cls-2" d="M111.1368,239.5377c2.5714-.0553,4.7355-1.2762,5.3099-2.9593,6.2917-17.9771,10.1188-36.3431,11.4613-54.6165.8482-11.393.708-23.0451-.3807-34.6413-.1135-.9432-.7414-1.831-1.7299-2.497-6.5655-4.328-24.973-14.4816-54.0002-15.2402l-3.3662-.0553c-33.5957,0-54.7416,13.2793-58.5954,15.9243-.9351.6474-1.5362,1.4799-1.643,2.3672-1.5362,11.6521-1.3959,23.4893.4074,35.1781,3.0123,19.124,10.613,37.9895,22.5418,56.0778.9017,1.3868,2.9588,2.2747,5.203,2.2747.0801,0,74.7921-1.8124,74.7921-1.8124"/>
  <path class="cls-1" d="M69.6079,133.382c-33.2332,0-53.8789,13.0948-56.4268,14.7779-1.381,10.0062-1.6641,21.6024.4281,34.4381,3.6182,22.3977,13.3195,41.0227,22.793,54.9122,25.7138-.6101,51.4207-1.2203,77.1276-1.8124,5.5999-15.6285,10.1571-33.754,11.6831-53.9318.9322-12.2255.6491-23.6558-.4281-34.1796-3.2522-2.0895-21.5502-13.3905-51.9248-14.1672-1.1048-.0186-2.175-.0373-3.2522-.0373M69.6079,125.6883c1.2153,0,2.4581.0186,3.7079.0553,32.1285.8139,52.4634,11.6893,59.6997,16.3312,2.0646,1.3321,3.342,3.1072,3.5077,4.9941,1.16,11.6521,1.3326,23.4521.4281,35.0855-1.3879,18.4952-5.4341,37.1011-11.9662,55.3006-1.2153,3.3663-5.7449,5.8074-11.0271,5.9186l-31.507.758-45.6206,1.073h-.4281c-4.6332,0-8.8521-1.7757-10.744-4.5685-12.5876-18.4399-20.5904-37.6932-23.7597-57.2241-1.9196-11.9112-2.0922-23.9883-.4212-35.9361.2279-1.7943,1.4155-3.4775,3.3627-4.735,4.3294-2.8481,27.806-17.0525,64.7679-17.0525"/>
  <path class="cls-1" d="M124.9698,184.2163c3.1893,10.9122-6.0966,23.2198-20.6722,27.4811-14.6145,4.2212-29.0344-1.1948-32.1751-12.1082-3.1893-10.9122,6.048-23.2186,20.6625-27.4799,14.6242-4.2224,28.9955,1.1948,32.1849,12.107"/>
  <path class="cls-2" d="M334.1232,239.5377c-2.5714-.0553-4.7355-1.2762-5.3099-2.9593-6.2917-17.9771-10.1188-36.3431-11.4613-54.6165-.8482-11.393-.708-23.0451.3807-34.6413.1135-.9432.7414-1.831,1.7299-2.497,6.5655-4.328,24.973-14.4816,54.0002-15.2402l3.3662-.0553c33.5957,0,54.7416,13.2793,58.5954,15.9243.9351.6474,1.5362,1.4799,1.643,2.3672,1.5362,11.6521,1.3959,23.4893-.4074,35.1781-3.0123,19.124-10.613,37.9895-22.5418,56.0778-.9017,1.3868-2.9588,2.2747-5.203,2.2747-.0801,0-74.7921-1.8124-74.7921-1.8124"/>
  <path class="cls-1" d="M375.6521,133.382c33.2332,0,53.8789,13.0948,56.4268,14.7779,1.381,10.0062,1.6641,21.6024-.4281,34.4381-3.6182,22.3977-13.3195,41.0227-22.793,54.9122-25.7138-.6101-51.4207-1.2203-77.1276-1.8124-5.5999-15.6285-10.1571-33.754-11.6831-53.9318-.9322-12.2255-.6491-23.6558.4281-34.1796,3.2522-2.0895,21.5502-13.3905,51.9248-14.1672,1.1048-.0186,2.175-.0373,3.2522-.0373M375.6521,125.6883c-1.2153,0-2.4581.0186-3.7079.0553-32.1285.8139-52.4634,11.6893-59.6997,16.3312-2.0646,1.3321-3.342,3.1072-3.5077,4.9941-1.16,11.6521-1.3326,23.4521-.4281,35.0855,1.3879,18.4952,5.4341,37.1011,11.9662,55.3006,1.2153,3.3663,5.7449,5.8074,11.0271,5.9186l31.507.758,45.6206,1.073h.4281c4.6332,0,8.8521-1.7757,10.744-4.5685,12.5876-18.4399,20.5904-37.6932,23.7597-57.2241,1.9196-11.9112,2.0922-23.9883.4212-35.9361-.2279-1.7943-1.4155-3.4775-3.3627-4.735-4.3294-2.8481-27.806-17.0525-64.7679-17.0525"/>
  <path class="cls-1" d="M319.2902,184.2163c-3.1893,10.9122,6.0966,23.2198,20.6722,27.4811,14.6145,4.2212,29.0344-1.1948,32.1751-12.1082,3.1893-10.9122-6.048-23.2186-20.6625-27.4799-14.6242-4.2224-28.9955,1.1948-32.1849,12.107"/>
</svg>