<?xml version="1.0" encoding="UTF-8"?>
<svg id="szem1" xmlns="http://www.w3.org/2000/svg" version="1.1" viewBox="0 0 420.712 281.8062">
  <!-- Generator: Adobe Illustrator 29.4.0, SVG Export Plug-In . SVG Version: 2.1.0 Build 152)  -->
  <g>
    <g>
      <path d="M387.817,259.5663c.6445-13.3951.6646-28.9425.689-46.9056.0151-21.7461-1.748-66.7144-2.8911-96.4607-.5542-14.2854-.9844-24.9364-.9844-27.4921,0-4.0001-7.0605-16.619-7.1265-16.714-26.3789-39.0325-94.905-52.9368-150.2551-52.9368-61.8411,0-143.9812,17.1266-171.6348,64.9366-.0466.0793-3.4607,7.4287-3.4607,7.4287-.4263.9205-.6316,1.7933-.7285,2.8096-1.6997,20.467-1.8867,68.8185-2.0928,163.0891" style="fill: #76c615; stroke: #261f20; stroke-miterlimit: 10; stroke-width: 16.4225px;"/>
      <path d="M125.2035,258.043c3.2249-.3579,6.4612-.5577,9.7371-.3372,8.4163.5667,16.3496,1.251,24.8213.6929,3.0938-.2039,6.1909-.3135,9.2898-.3496-6.6377-21.4346-10.4839-41.8452.2419-54.9713,7.5876-9.3025,22.9375-15.0961,40.0312-15.0961,16.4426,0,31.1724,5.4448,38.4114,14.2068,11.2051,13.5776,5.7751,35.938-1.4592,58.7566,13.5403-.8406,27.1553.9659,40.6367-.7161,5.1128-.6379,10.4163-1.0824,15.1338-.0615-.1694-7.3354-.4321-15.0466-.7087-23.1057-1.9338-55.9208-2.9026-83.9844-18.4888-100.0164-14.2571-14.6667-36.4778-22.7457-62.5427-22.7457s-51.6958,8.1749-70.2854,22.4125c-27.8916,21.3914-32.5608,57.2583-31.8083,121.4519,2.2668-.3335,4.5684-.3718,6.99-.1211Z" style="fill: #261f20;"/>
      <path d="M115.4381,258.7356c1.7231-.4482,3.4502-.7141,5.2124-.8064-.7341-62.8079,3.7974-98.0382,30.6475-118.6241,18.5391-14.2067,44.0305-21.7944,68.4446-21.7944,23.4607,0,45.9526,7.0006,60.3647,21.8254,14.7957,15.2064,15.7451,42.8728,17.6519,98.191.2683,7.7539.5139,15.137.676,22.1317,2.124.1591,4.1753.5306,6.0942,1.2108-.1704-7.48-.4402-15.3378-.7249-23.5488-1.9648-56.8103-2.9492-85.3176-19.3647-102.1904-14.8228-15.2704-37.8069-23.667-64.6973-23.667-26.7314,0-53.0173,8.3966-72.1262,23.048-29.0559,22.2692-33.7971,58.9368-32.9998,124.1458.2747.0205.5476.0548.8215.0785Z" style="fill: #261f20;"/>
      <path d="M171.598,258.0393c-6.5247-20.8918-10.4434-40.7161-.5208-52.8618,7.0295-8.6185,21.4766-13.9839,37.6829-13.9839,15.5708,0,29.3938,5.032,36.0786,13.111,10.3872,12.5775,4.8079,34.5463-2.3379,56.9501,2.1611-.2217,4.3247-.3633,6.49-.4453,7.2661-23.1428,12.4673-45.875.498-60.3616-8.4131-10.1909-24.4915-15.2859-40.7288-15.2859-16.6985,0-33.5559,5.3962-42.3835,16.1907-11.4277,14-7.7197,35.0603-1.0862,56.7823,2.1016-.0675,4.2043-.098,6.3076-.0956Z" style="fill: #261f20;"/>
      <path d="M134.9405,257.7058c3.564.24,7.0408.4957,10.509.6746,3.334-3.3716,6.1824-7.2651,6.6428-12.4159,1.333-14.9207-18.7795-24.0004-15.1252-33.3339,3.1584-8.0315,19.4731-4.8412,22.3953-12.8097,3.5728-9.6979-17.063-24.0634-14.4121-27.9366,2.9683-4.349,28.3977,14.3975,40.0623,6.1277,9.7773-6.9366,3.7629-28.4763,9.2385-29.8733,5.9834-1.5394,13.4587,24.3337,24.2205,23.8726,9.9866-.4119,15.3845-23.1906,20.4148-22.0154,4.8557,1.1433-.0969,22.5239,8.9517,27.7303,8.3667,4.8092,22.5889-7.6508,25.2397-4.4923,3.0149,3.6349-16.5396,19.2222-12.5249,29.635,3.7627,9.7937,26.2236,9.3489,26.0493,12.8726-.1123,2.2389-9.1145.9843-15.4622,6.6982-8.793,7.9211-9.572,26.6038-1.3796,35.3811,1.2356,1.3258,2.6018,2.334,3.989,3.146,4.3972-.0194,8.7881-.1918,13.1643-.7378,1.917-.2393,3.8611-.4512,5.7908-.5688.0767-4.1245.1567-8.486.2454-13.125.7441-39.6981,1.5076-67.6667-14.3809-91.6981-3.2708-4.9362-5.9526-7.7621-6.9368-8.762-21.2559-21.7614-55.6833-19.7299-62.3025-19.3336-1.4453.0795-2.5073.1753-3.1272.2383-8.3008.6986-42.6008,3.6196-62.6165,30.0322-11.1606,14.7299-12.6836,29.9043-15.6831,59.6663-.7549,7.5386-.3037,26.9346.1233,41.1051,2.2917-.1726,4.5928-.2338,6.9143-.0775Z" style="fill: #fff;"/>
      <line x1="86.7827" y1="95.5283" x2="132.4177" y2="146.2582" style="fill: #76c615;"/>
    </g>
    <rect x="34.2498" y="255.2117" width="364.302" height="7.5375" style="fill: #aad7db;"/>
  </g>
  <g>
    <path d="M381.0385,255.1356c2.0743,0,3.94-1.1913,4.819-3.1083,11.1116-24.5308,18.1062-50.0727,20.7244-75.9506,1.6063-15.6722,1.6063-31.6803,0-47.5335-.1328-1.2435-.702-2.4095-1.6063-3.2902-3.6807-3.4965-23.6272-21.0335-54.8941-21.0335l-3.8072.1036c-28.206,1.2949-46.0276,16.3449-50.8466,20.93-.9613.9328-1.5305,2.1763-1.6063,3.5234-.936,15.4129-.936,31.1625,0,46.7825,1.4482,24.6083,5.306,49.3984,11.4215,73.6707.5692,2.1755,2.4348,3.7819,4.6862,3.989h.4427c2.0996,0,3.9906-1.2174,4.8443-3.1344,5.5463-12.4334,17.5117-20.4636,30.5143-20.4636,1.3218,0,2.6688.1036,4.0159.2846,11.8895,1.5803,21.9956,9.9211,26.3467,21.7592.721,2.0206,2.5866,3.3937,4.7368,3.4712h.2087Z" style="fill: #fff;"/>
    <path d="M350.0815,109.5135c-1.1637,0-2.3589.0261-3.5732.1036-27.8202,1.2435-44.4529,16.6303-47.4063,19.4541-.8538,14.2216-.9866,29.6605,0,46.1612,1.6316,27.2249,5.9827,51.6522,11.295,72.7126,6.476-14.5322,20.5663-23.5988,35.3334-23.5988,1.5811,0,3.1621.0775,4.7368.3107,13.7868,1.8135,25.5688,11.6049,30.5965,25.179,8.5187-18.8066,17.1702-44.011,20.2817-74.2668,1.7645-17.3299,1.3471-33.0021,0-46.498-2.3589-2.2277-21.1924-19.5576-51.264-19.5576M350.0815,98.945h0c33.2337,0,54.5779,18.7023,58.5432,22.4588,1.8403,1.7613,2.9787,4.0926,3.238,6.6056,1.6316,16.1378,1.6316,32.5096,0,48.6213-2.6941,26.4478-9.8468,52.5336-21.1924,77.5822-1.7075,3.7827-5.4894,6.2175-9.6065,6.2175-.1328,0-.2593,0-.3921-.0261-4.3005-.1557-8.0507-2.8751-9.5559-6.9163-3.6807-9.9994-12.1235-17.0445-22.0462-18.3663-1.1131-.1289-2.2261-.2071-3.3392-.2071-10.9093,0-20.9837,6.7867-25.67,17.3299-1.7139,3.8341-5.521,6.2689-9.6634,6.2689-.2846,0-.5945-.0261-.9044-.0522-4.4839-.3621-8.2404-3.5748-9.3535-7.9266-6.1914-24.5822-10.1061-49.7091-11.6049-74.681-.936-15.7497-.936-31.7064,0-47.4039.1518-2.668,1.3218-5.155,3.238-6.9946,5.1289-4.9218,24.1648-21.0596,54.268-22.4067,1.3471-.0775,2.7194-.1036,4.0412-.1036" style="fill: #261f20;"/>
    <path d="M327.1689,191.7354c.9044,7.823,12.3575,12.9259,25.5688,11.3978,13.2366-1.5028,23.2098-9.0926,22.2992-16.9157-.9044-7.823-12.3259-12.9259-25.5625-11.3978-13.2113,1.5028-23.2098,9.0926-22.3055,16.9157" style="fill: #261f20;"/>
  </g>
  <g>
    <path d="M39.6735,255.5204c-2.0743,0-3.94-1.1913-4.819-3.1083-11.1116-24.5308-18.1062-50.0727-20.7244-75.9506-1.6063-15.6722-1.6063-31.6803,0-47.5335.1328-1.2435.702-2.4095,1.6063-3.2902,3.6807-3.4965,23.6272-21.0335,54.8941-21.0335l3.8072.1036c28.206,1.2949,46.0276,16.3449,50.8466,20.93.9613.9328,1.5305,2.1763,1.6063,3.5234.936,15.4129.936,31.1625,0,46.7825-1.4482,24.6083-5.306,49.3984-11.4215,73.6707-.5692,2.1755-2.4348,3.7819-4.6862,3.989h-.4427c-2.0996,0-3.9906-1.2174-4.8443-3.1344-5.5463-12.4334-17.5117-20.4636-30.5143-20.4636-1.3218,0-2.6688.1036-4.0159.2846-11.8895,1.5803-21.9956,9.9211-26.3467,21.7592-.721,2.0206-2.5866,3.3937-4.7368,3.4712h-.2087Z" style="fill: #fff;"/>
    <path d="M70.6305,109.8984c1.1637,0,2.3589.0261,3.5732.1036,27.8202,1.2435,44.4529,16.6303,47.4063,19.4541.8538,14.2216.9866,29.6605,0,46.1612-1.6316,27.2249-5.9827,51.6522-11.295,72.7126-6.476-14.5322-20.5663-23.5988-35.3334-23.5988-1.5811,0-3.1621.0775-4.7368.3107-13.7868,1.8135-25.5688,11.6049-30.5965,25.179-8.5187-18.8066-17.1702-44.011-20.2817-74.2668-1.7645-17.3299-1.3471-33.0021,0-46.498,2.3589-2.2277,21.1924-19.5576,51.264-19.5576M70.6305,99.3298h0c-33.2337,0-54.5779,18.7023-58.5432,22.4588-1.8403,1.7613-2.9787,4.0926-3.238,6.6056-1.6316,16.1378-1.6316,32.5096,0,48.6213,2.6941,26.4478,9.8468,52.5336,21.1924,77.5822,1.7075,3.7827,5.4894,6.2175,9.6065,6.2175.1328,0,.2593,0,.3921-.0261,4.3005-.1557,8.0507-2.8751,9.5559-6.9163,3.6807-9.9994,12.1235-17.0445,22.0462-18.3663,1.1131-.1289,2.2261-.2071,3.3392-.2071,10.9093,0,20.9837,6.7867,25.67,17.3299,1.7139,3.8341,5.521,6.2689,9.6634,6.2689.2846,0,.5945-.0261.9044-.0522,4.4839-.3621,8.2404-3.5748,9.3535-7.9266,6.1914-24.5822,10.1061-49.7091,11.6049-74.681.936-15.7497.936-31.7064,0-47.4039-.1518-2.668-1.3218-5.155-3.238-6.9946-5.1289-4.9218-24.1648-21.0596-54.268-22.4067-1.3471-.0775-2.7194-.1036-4.0412-.1036" style="fill: #261f20;"/>
    <path d="M93.5431,192.1202c-.9044,7.823-12.3575,12.9259-25.5688,11.3978-13.2366-1.5028-23.2098-9.0926-22.2992-16.9157.9044-7.823,12.3259-12.9259,25.5625-11.3978,13.2113,1.5028,23.2098,9.0926,22.3055,16.9157" style="fill: #261f20;"/>
  </g>
</svg>