<?xml version="1.0" encoding="UTF-8"?>
<svg id="beltér1" xmlns="http://www.w3.org/2000/svg" viewBox="0 0 445.26 281">
  <defs>
    <style>
      .cls-1 {
        fill: #261f20;
      }

      .cls-2 {
        fill: #fff;
      }

      .cls-3 {
        fill: none;
        stroke: #261f20;
        stroke-linecap: round;
        stroke-linejoin: round;
        stroke-width: 18.332px;
      }
    </style>
  </defs>
  <g>
    <path class="cls-1" d="M183.0205,276.798c-9.3008-27.5439-18.0801-55.5205-4.3965-72.2671,8.0117-9.8218,24.2178-15.9385,42.2656-15.9385,17.3613,0,32.9131,5.7485,40.5566,14.9995,13.457,16.3071,4.1895,44.6128-4.7588,71.9805-.1338.4092-.2666.8169-.4004,1.2256h62.6914c.0391-8.5142-.084-21.1328-.9375-36.3857-3.1396-56.1113-4.71-84.167-21.8213-103.3804-21.085-23.6753-53.667-25.6309-63.7344-26.2354-2.5908-.1558-41.7256-1.249-74.209,23.6641-31.4336,24.1079-34.9346,65.6162-33.3535,142.3374h58.0977Z"/>
    <path class="cls-1" d="M252.9306,276.7981h6.7152c9.2186-28.1946,18.8677-57.5465,4.2466-75.2427-8.8827-10.7595-25.8583-16.1393-43.0025-16.1393-17.6307,0-35.429,5.6979-44.7492,17.0947-14.5739,17.854-5.8321,46.5847,3.5114,74.2874h6.7473c-9.158-27.037-18.0442-54.6443-5.2955-70.2489,7.422-9.0997,22.675-14.7646,39.7861-14.7646,16.4401,0,31.0345,5.3134,38.0928,13.8431,12.3325,14.9322,3.3509,42.4009-5.3312,68.9637-.2406.7348-.4813,1.4705-.721,2.2066Z"/>
    <path class="cls-1" d="M128.1015,276.7982c-1.5801-75.5293,1.7559-116.52,32.1191-139.7983,13.7324-10.5278,39.375-25.5781,72.2646-23.0112,7.8018.6089,39.498,3.083,60.3994,26.8101,17.248,19.5801,18.8232,46.3555,21.9727,99.9062.8896,15.1216.9824,27.6382.9092,36.0933l7.9277-.0425h0c0-.1304,2.3652-34.6401-2.5029-79.2529-.1201-1.1001-.1768-1.6509-.2598-2.3042-2.0078-15.73-5.166-40.4712-22.7764-60.0469-22.5547-25.0708-55.5898-26.9688-65.6699-27.5479-3.167-.1821-42.9141-1.1401-76.1523,24.3345-32.6699,25.0391-36.2295,67.3022-34.6133,144.8599h6.3818Z"/>
    <path class="cls-2" d="M141.7063,276.7981c2.2209-8.6238,18.1753-14.0138,19.3525-27.1849,1.4072-15.7534-19.8276-25.3401-15.9695-35.1946,3.3349-8.4798,20.5601-5.1115,23.6455-13.5249,3.7725-10.2391-18.0157-25.4065-15.2165-29.4962,3.1335-4.5915,29.9828,15.2013,42.2984,6.4697,10.3228-7.3239,3.973-30.0657,9.7542-31.5411,6.3178-1.6251,14.2103,25.6926,25.5723,25.2055,10.5447-.4349,16.244-24.485,21.5547-23.2444,5.1271,1.2071-.1025,23.7814,9.4521,29.2783,8.8336,5.0776,23.8496-8.0779,26.648-4.743,3.1834,3.838-17.4632,20.2954-13.2237,31.2894,3.973,10.3407,27.688,9.871,27.5035,13.5913-.1185,2.3639-9.6232,1.0391-16.3251,7.0722-9.2846,8.3631-10.1063,28.089-1.4571,37.3562,6.2482,6.7041,15.6344,6.0165,15.687,9.1509.0365,2.4771-5.8829,3.4325-11.9092,5.5157h20.2027c.1586-7.7981.3128-16.6045.5035-26.5824.786-41.9143,1.5917-71.444-15.1835-96.8171-3.4534-5.2118-6.2848-8.1955-7.3239-9.2512-22.4423-22.9762-58.792-20.8315-65.7808-20.4131-1.5257.0842-2.6469.1854-3.3019.2518-8.7641.7375-44.9792,3.8215-66.1123,31.7087-11.7835,15.5524-13.3913,31.5741-16.5586,62.9971-1.3725,13.7143-.0036,11.1374.6105,58.1062h5.5772Z"/>
  </g>
  <g>
    <g>
      <path class="cls-2" d="M394.6998,205.4083c-6.1827.6428-12.7366,1.1051-19.6193,1.3019-21.4766.6364-42.9611-1.3397-63.8315-5.8937-1.5297-.3195-2.7539-2.2674-2.9004-4.5465l-2.8454-43.0405c-.154-2.2588.7845-4.2117,2.2259-4.621,19.7096-5.7806,39.9873-10.2234,60.2982-13.2327,6.6561-.9916,13.1246-1.7841,19.3865-2.4352,6.6868-.6952,13.1566-1.2279,19.3521-1.5926.4459-.0269.8903.0865,1.3237.341,4.2162,2.5544,18.2629,12.3274,21.3003,30.6267,3.652,21.7871-11.0203,36.9001-13.9986,39.7038-7.1625,1.7025-13.6907,2.6607-20.6914,3.3886"/>
      <path class="cls-1" d="M387.2993,132.4857c6.6868-.6952,13.1469-1.1973,19.3347-1.5434,2.5601,1.6648,16.5159,11.056,19.4414,28.8937,3.3596,20.6352-10.8327,35.3088-12.6058,37.0634-5.9392,1.1058-12.4022,2.0743-19.3491,2.7966-6.1288.6372-12.6334,1.0804-19.4815,1.2407-25.4923.6347-47.1239-2.7601-63.4075-6.6267-1.0424-15.2536-2.0849-30.5073-3.1273-45.7609,17.2274-5.271,37.3378-10.1839,59.9719-13.5979,6.6034-1.0052,13.0151-1.8201,19.2231-2.4655M386.2768,122.6194c-6.2588.6507-12.737,1.4726-19.4092,2.4635-20.4064,3.0768-40.7746,7.6979-60.5212,13.7404-2.8773.8716-4.7301,5.0109-4.4043,9.794l1.5765,22.9426,1.5508,22.8183c.3313,4.8667,2.8235,8.9998,5.863,9.7237,21.1024,4.9987,42.7867,7.2639,64.428,6.7324,6.5763-.1534,13.2385-.5916,19.7827-1.272s13.1542-1.6221,19.6471-2.8276c.8369-.1505,1.6306-.5937,2.3347-1.2827,3.2467-3.2443,19.229-20.777,14.9328-47.1718-3.4897-21.3644-17.6772-32.6204-23.6129-36.4589-.8601-.5685-1.769-.8346-2.6675-.784-6.2363.3726-12.7472.8799-19.5006,1.582"/>
      <path class="cls-1" d="M345.1751,169.416c-.6426,5.9911,3.6858,12.1997,9.6699,13.8708,5.9867,1.6708,11.3627-1.8135,12.0053-7.8042.6441-5.9765-3.6817-12.1858-9.6699-13.8713-5.9867-1.6704-11.3627,1.8135-12.0052,7.8046"/>
    </g>
    <g>
      <path class="cls-2" d="M48.9065,207.8683c6.1034.8464,12.581,1.5245,19.3936,1.9483,21.257,1.3446,42.6133.0788,63.4512-3.7834,1.5269-.2688,2.8079-2.1749,3.0328-4.4476l4.3244-42.9162c.2316-2.2521-.63-4.2346-2.0439-4.6911-19.3264-6.4268-39.2624-11.5356-59.2815-15.2129-6.5603-1.2106-12.9416-2.2159-19.1233-3.0731-6.6011-.9154-12.9928-1.6611-19.1186-2.23-.4408-.0416-.8851.057-1.3234.2971-4.2668,2.4134-18.5262,11.7161-22.1757,29.9023-4.3804,21.6512,9.6287,37.2377,12.4816,40.1377,7.0372,1.9376,13.4719,3.1106,20.3828,4.0689"/>
      <path class="cls-1" d="M58.7891,135.2414c-6.6011-.9154-12.9843-1.6302-19.1031-2.1803-2.5948,1.5791-16.7508,10.5032-20.2732,28.2318-4.0504,20.5098,9.4984,35.6413,11.1939,37.4532,5.846,1.3009,12.2158,2.4821,19.0735,3.433,6.0502.839,12.4796,1.4965,19.2591,1.8827,25.236,1.4754,46.7875-1.2032,63.0568-4.5299,1.5663-15.2085,3.1326-30.4169,4.6989-45.6254-16.8849-5.8357-36.6387-11.4087-58.9455-15.5671-6.5076-1.2223-12.8319-2.2482-18.9603-3.0981M60.1472,125.4158c6.1785.8568,12.5685,1.8918,19.1448,3.1022,20.1114,3.748,40.1308,9.0378,59.4847,15.7277,2.8204.9659,4.5114,5.1635,4.0213,9.9324l-2.3643,22.8744-2.3345,22.7511c-.4985,4.8523-3.1123,8.9003-6.1492,9.5234-21.0833,4.2989-42.6477,5.847-64.0716,4.6018-6.5106-.3703-13.0962-1.028-19.5565-1.9239s-12.9766-2.055-19.3677-3.4738c-.8239-.178-1.5949-.6471-2.2684-1.3588-3.1034-3.3492-18.3258-21.3968-13.146-47.6312,4.2047-21.2342,18.6556-32.0141,24.671-35.6541.8721-.5397,1.7819-.7757,2.6704-.6954,6.166.5781,12.5993,1.2998,19.2661,2.2243"/>
      <path class="cls-1" d="M99.2349,173.5355c.4272,6.0081-4.0786,12.0695-10.0661,13.542-5.9901,1.4721-11.1949-2.1871-11.6221-8.1948-.4292-5.9935,4.074-12.0557,10.0662-13.5424,5.9901-1.4717,11.1949,2.1871,11.622,8.1952"/>
    </g>
    <path class="cls-3" d="M64.4187,110.2707c22.4033-4.7571,44.8063-9.5137,67.2096-14.2708"/>
    <path class="cls-3" d="M390.263,110.2707c-22.4033-4.7571-44.8063-9.5137-67.2096-14.2708"/>
  </g>
</svg>