<?xml version="1.0" encoding="UTF-8"?>
<svg id="szem1" xmlns="http://www.w3.org/2000/svg" version="1.1" viewBox="0 0 420.712 281.8062">
  <!-- Generator: Adobe Illustrator 29.4.0, SVG Export Plug-In . SVG Version: 2.1.0 Build 152)  -->
  <g>
    <g>
      <path d="M387.587,260.0529c.6445-13.3951.6646-28.9425.689-46.9056.0151-21.7461-1.748-66.7144-2.8911-96.4607-.5542-14.2854-.9844-24.9364-.9844-27.4921,0-4.0001-7.0605-16.619-7.1265-16.714-26.3789-39.0325-94.905-52.9368-150.2551-52.9368-61.8411,0-143.9812,17.1266-171.6348,64.9366-.0466.0793-3.4607,7.4287-3.4607,7.4287-.4263.9205-.6316,1.7933-.7285,2.8096-1.6997,20.467-1.8867,68.8185-2.0928,163.0891" style="fill: #76c615; stroke: #261f20; stroke-miterlimit: 10; stroke-width: 16.4225px;"/>
      <path d="M124.9735,258.5296c3.2249-.3579,6.4612-.5577,9.7371-.3372,8.4163.5667,16.3496,1.251,24.8213.6929,3.0938-.2039,6.1909-.3135,9.2898-.3496-6.6377-21.4346-10.4839-41.8452.2419-54.9713,7.5876-9.3025,22.9375-15.0961,40.0312-15.0961,16.4426,0,31.1724,5.4448,38.4114,14.2068,11.2051,13.5776,5.7751,35.938-1.4592,58.7566,13.5403-.8406,27.1553.9659,40.6367-.7161,5.1128-.6379,10.4163-1.0824,15.1338-.0615-.1694-7.3354-.4321-15.0466-.7087-23.1057-1.9338-55.9208-2.9026-83.9844-18.4888-100.0164-14.2571-14.6667-36.4778-22.7457-62.5427-22.7457s-51.6958,8.1749-70.2854,22.4125c-27.8916,21.3914-32.5608,57.2583-31.8083,121.4519,2.2668-.3335,4.5684-.3718,6.99-.1211Z" style="fill: #261f20;"/>
      <path d="M115.2081,259.2222c1.7231-.4482,3.4502-.7141,5.2124-.8064-.7341-62.8079,3.7974-98.0382,30.6475-118.6241,18.5391-14.2067,44.0305-21.7944,68.4446-21.7944,23.4607,0,45.9526,7.0006,60.3647,21.8254,14.7957,15.2064,15.7451,42.8728,17.6519,98.191.2683,7.7539.5139,15.137.676,22.1317,2.124.1591,4.1753.5306,6.0942,1.2108-.1704-7.48-.4402-15.3378-.7249-23.5488-1.9648-56.8103-2.9492-85.3176-19.3647-102.1904-14.8228-15.2704-37.8069-23.667-64.6973-23.667-26.7314,0-53.0173,8.3966-72.1262,23.048-29.0559,22.2692-33.7971,58.9368-32.9998,124.1458.2747.0205.5476.0548.8215.0785Z" style="fill: #261f20;"/>
      <path d="M171.368,258.5259c-6.5247-20.8918-10.4434-40.7161-.5208-52.8618,7.0295-8.6185,21.4766-13.9839,37.6829-13.9839,15.5708,0,29.3938,5.032,36.0786,13.111,10.3872,12.5775,4.8079,34.5463-2.3379,56.9501,2.1611-.2217,4.3247-.3633,6.49-.4453,7.2661-23.1428,12.4673-45.875.498-60.3616-8.4131-10.1909-24.4915-15.2859-40.7288-15.2859-16.6985,0-33.5559,5.3962-42.3835,16.1907-11.4277,14-7.7197,35.0603-1.0862,56.7823,2.1016-.0675,4.2043-.098,6.3076-.0956Z" style="fill: #261f20;"/>
      <path d="M134.7105,258.1925c3.564.24,7.0408.4957,10.509.6746,3.334-3.3716,6.1824-7.2651,6.6428-12.4159,1.333-14.9207-18.7795-24.0004-15.1252-33.3339,3.1584-8.0315,19.4731-4.8412,22.3953-12.8097,3.5728-9.6979-17.063-24.0634-14.4121-27.9366,2.9683-4.349,28.3977,14.3975,40.0623,6.1277,9.7773-6.9366,3.7629-28.4763,9.2385-29.8733,5.9834-1.5394,13.4587,24.3337,24.2205,23.8726,9.9866-.4119,15.3845-23.1906,20.4148-22.0154,4.8557,1.1433-.0969,22.5239,8.9517,27.7303,8.3667,4.8092,22.5889-7.6508,25.2397-4.4923,3.0149,3.6349-16.5396,19.2222-12.5249,29.635,3.7627,9.7937,26.2236,9.3489,26.0493,12.8726-.1123,2.2389-9.1145.9843-15.4622,6.6982-8.793,7.9211-9.572,26.6038-1.3796,35.3811,1.2356,1.3258,2.6018,2.334,3.989,3.146,4.3972-.0194,8.7881-.1918,13.1643-.7378,1.917-.2393,3.8611-.4512,5.7908-.5688.0767-4.1245.1567-8.486.2454-13.125.7441-39.6981,1.5076-67.6667-14.3809-91.6981-3.2708-4.9362-5.9526-7.7621-6.9368-8.762-21.2559-21.7614-55.6833-19.7299-62.3025-19.3336-1.4453.0795-2.5073.1753-3.1272.2383-8.3008.6986-42.6008,3.6196-62.6165,30.0322-11.1606,14.7299-12.6836,29.9043-15.6831,59.6663-.7549,7.5386-.3037,26.9346.1233,41.1051,2.2917-.1726,4.5928-.2338,6.9143-.0775Z" style="fill: #fff;"/>
      <line x1="86.5527" y1="96.0149" x2="132.1877" y2="146.7449" style="fill: #76c615;"/>
    </g>
    <rect x="36.748" y="257.3634" width="360.1129" height="4.8992" style="fill: #aad7db;"/>
  </g>
  <g>
    <path d="M382.4258,206.3275c-6.1827.6428-12.7366,1.1051-19.6193,1.3019-21.4766.6364-42.9611-1.3397-63.8315-5.8937-1.5297-.3195-2.7539-2.2674-2.9004-4.5465l-2.8454-43.0405c-.154-2.2588.7845-4.2117,2.2259-4.621,19.7096-5.7806,39.9873-10.2234,60.2982-13.2327,6.6561-.9916,13.1246-1.7841,19.3865-2.4352,6.6868-.6952,13.1566-1.2279,19.3521-1.5926.4459-.0269.8903.0865,1.3237.341,4.2162,2.5544,18.2629,12.3274,21.3003,30.6267,3.652,21.7871-11.0203,36.9001-13.9986,39.7038-7.1625,1.7025-13.6907,2.6607-20.6914,3.3886" style="fill: #fff;"/>
    <path d="M375.0253,133.4049c6.6868-.6952,13.1469-1.1973,19.3347-1.5434,2.5601,1.6648,16.5159,11.056,19.4414,28.8937,3.3596,20.6352-10.8327,35.3088-12.6058,37.0634-5.9392,1.1058-12.4022,2.0743-19.3491,2.7966-6.1288.6372-12.6334,1.0804-19.4815,1.2407-25.4923.6347-47.1239-2.7601-63.4075-6.6267-1.0424-15.2536-2.0849-30.5073-3.1273-45.7609,17.2274-5.271,37.3378-10.1839,59.9719-13.5979,6.6034-1.0052,13.0151-1.8201,19.2231-2.4655M374.0028,123.5386c-6.2588.6507-12.737,1.4726-19.4092,2.4635-20.4064,3.0768-40.7746,7.6979-60.5212,13.7404-2.8773.8716-4.7301,5.0109-4.4043,9.794l1.5765,22.9426,1.5508,22.8183c.3313,4.8667,2.8235,8.9998,5.863,9.7237,21.1024,4.9987,42.7867,7.2639,64.428,6.7324,6.5763-.1534,13.2385-.5916,19.7827-1.272s13.1542-1.6221,19.6471-2.8276c.8369-.1505,1.6306-.5937,2.3347-1.2827,3.2467-3.2443,19.229-20.777,14.9328-47.1718-3.4897-21.3644-17.6772-32.6204-23.6129-36.4589-.8601-.5685-1.769-.8346-2.6675-.784-6.2363.3726-12.7472.8799-19.5006,1.582" style="fill: #261f20;"/>
    <path d="M332.9011,170.3352c-.6426,5.9911,3.6858,12.1997,9.6699,13.8708,5.9867,1.6708,11.3627-1.8135,12.0053-7.8042.6441-5.9765-3.6817-12.1858-9.6699-13.8713-5.9867-1.6704-11.3627,1.8135-12.0052,7.8046" style="fill: #261f20;"/>
  </g>
  <g>
    <path d="M36.6324,208.7875c6.1034.8464,12.581,1.5245,19.3936,1.9483,21.257,1.3446,42.6133.0788,63.4512-3.7834,1.5269-.2688,2.8079-2.1749,3.0328-4.4476l4.3244-42.9162c.2316-2.2521-.63-4.2346-2.0439-4.6911-19.3264-6.4268-39.2624-11.5356-59.2815-15.2129-6.5603-1.2106-12.9416-2.2159-19.1233-3.0731-6.6011-.9154-12.9928-1.6611-19.1186-2.23-.4408-.0416-.8851.057-1.3234.2971-4.2668,2.4134-18.5262,11.7161-22.1757,29.9023-4.3804,21.6512,9.6287,37.2377,12.4816,40.1377,7.0372,1.9376,13.4719,3.1106,20.3828,4.0689" style="fill: #fff;"/>
    <path d="M46.5151,136.1606c-6.6011-.9154-12.9843-1.6302-19.1031-2.1803-2.5948,1.5791-16.7508,10.5032-20.2732,28.2318-4.0504,20.5098,9.4984,35.6413,11.1939,37.4532,5.846,1.3009,12.2158,2.4821,19.0735,3.433,6.0502.839,12.4796,1.4965,19.2591,1.8827,25.236,1.4754,46.7875-1.2032,63.0568-4.5299,1.5663-15.2085,3.1326-30.4169,4.6989-45.6254-16.8849-5.8357-36.6387-11.4087-58.9455-15.5671-6.5076-1.2223-12.8319-2.2482-18.9603-3.0981M47.8732,126.335c6.1785.8568,12.5685,1.8918,19.1448,3.1022,20.1114,3.748,40.1308,9.0378,59.4847,15.7277,2.8204.9659,4.5114,5.1635,4.0213,9.9324l-2.3643,22.8744-2.3345,22.7511c-.4985,4.8523-3.1123,8.9003-6.1492,9.5234-21.0833,4.2989-42.6477,5.847-64.0716,4.6018-6.5106-.3703-13.0962-1.028-19.5565-1.9239s-12.9766-2.055-19.3677-3.4738c-.8239-.178-1.5949-.6471-2.2684-1.3588-3.1034-3.3492-18.3258-21.3968-13.146-47.6312,4.2047-21.2342,18.6556-32.0141,24.671-35.6541.8721-.5397,1.7819-.7757,2.6704-.6954,6.166.5781,12.5993,1.2998,19.2661,2.2243" style="fill: #261f20;"/>
    <path d="M86.9608,174.4547c.4272,6.0081-4.0786,12.0695-10.0661,13.542-5.9901,1.4721-11.1949-2.1871-11.6221-8.1948-.4292-5.9935,4.074-12.0557,10.0662-13.5424,5.9901-1.4717,11.1949,2.1871,11.622,8.1952" style="fill: #261f20;"/>
  </g>
  <path d="M66.827,108.9311c22.4033-4.7571,44.8063-9.5137,67.2096-14.2708" style="fill: none; stroke: #261f20; stroke-linecap: round; stroke-linejoin: round; stroke-width: 18.332px;"/>
  <path d="M377.989,108.9311c-22.4033-4.7571-44.8063-9.5137-67.2096-14.2708" style="fill: none; stroke: #261f20; stroke-linecap: round; stroke-linejoin: round; stroke-width: 18.332px;"/>
</svg>