<?xml version="1.0" encoding="UTF-8"?>
<svg id="szem1" xmlns="http://www.w3.org/2000/svg" viewBox="0 0 445.26 281">
  <defs>
    <style>
      .cls-1 {
        fill: #261f20;
      }

      .cls-2 {
        fill: #fff;
      }

      .cls-3 {
        fill: none;
        stroke: #261f20;
        stroke-linecap: round;
        stroke-linejoin: round;
        stroke-width: 12.4274px;
      }
    </style>
  </defs>
  <g>
    <g>
      <path class="cls-2" d="M346.0879,243.2905c-6.474,0-12.5576-.5015-18.1254-1.309-.9689-.1394-1.8559-.7514-2.5067-1.7272-2.8634-4.2059-17.0986-27.1001-15.9754-63.115.9882-30.4151,12.4805-49.5233,15.9754-54.6761.7086-1.0302,1.6583-1.6422,2.6658-1.7272,5.6835-.4726,11.6272-.7514,17.7879-.7514,5.7461,0,11.7285.2227,17.8699.7514,18.8195,1.5606,37.7114,5.7104,56.1549,12.3116,1.7595.6137,3.0032,2.8135,3.0611,5.3483l1.4606,75.9825c.0386,2.2848-.887,4.3742-2.3669,5.3211-18.7231,11.9767-38.1886,19.4687-57.8951,22.2822-6.3198.9197-12.3792,1.309-18.1061,1.309"/>
      <path class="cls-1" d="M345.9626,124.0464c5.669,0,11.5308.2664,17.5951.8009,20.7478,1.8699,39.3504,6.8581,55.4029,12.9425.4917,26.9866.9689,53.9713,1.4606,80.9851-14.3364,9.7662-33.5464,19.6828-56.6273,23.245-6.18.9494-12.1045,1.3354-17.6915,1.3354-6.3391,0-12.2828-.5055-17.7349-1.3354-1.774-2.7903-15.9513-25.9755-14.8474-62.8171.9689-31.9132,12.6781-50.9708,14.8474-54.3555,5.6112-.5037,11.4923-.8009,17.5951-.8009M345.9626,111.9338c-6.2812,0-12.3021.2972-18.0868.8009-2.015.1794-3.9288,1.5148-5.3316,3.7108-3.7311,5.8778-16.0525,27.7277-17.0793,62.1938-1.2244,40.7299,13.999,66.912,17.06,71.7226,1.3208,2.1073,3.1189,3.4136,5.0375,3.7108,6.1366.9186,12.3792,1.4242,18.5399,1.4242s12.3792-.5055,18.5207-1.4242c20.1404-3.0875,40.0397-11.252,59.1147-24.2542,2.9647-2.0185,4.8399-6.5011,4.7386-11.3697l-1.4606-80.9851c-.0964-5.4321-2.5838-10.0923-6.0787-11.4295-18.7183-7.0936-37.856-11.5763-56.9069-13.2994-6.2185-.5635-12.2443-.8009-18.0675-.8009"/>
      <path class="cls-1" d="M309.0273,180.0285c-3.7504,12.8938,7.1875,27.4062,24.4259,32.422,17.2143,5.0146,34.2357-1.3823,37.9861-14.2761,3.7552-12.8938-7.1827-27.4255-24.421-32.422-17.2191-5.0146-34.2406,1.3823-37.991,14.2761"/>
    </g>
    <g>
      <path class="cls-2" d="M94.0897,243.4552c6.474,0,12.5576-.5015,18.1254-1.309.9689-.1394,1.8559-.7514,2.5067-1.7272,2.8634-4.2059,17.0986-27.1001,15.9754-63.115-.9882-30.4151-12.4805-49.5233-15.9754-54.6761-.7086-1.0302-1.6583-1.6422-2.6658-1.7272-5.6835-.4726-11.6272-.7514-17.7879-.7514-5.7461,0-11.7285.2227-17.8699.7514-18.8195,1.5606-37.7114,5.7104-56.1549,12.3116-1.7595.6137-3.0032,2.8135-3.0611,5.3483l-1.4606,75.9825c-.0386,2.2848.887,4.3742,2.3669,5.3211,18.7231,11.9767,38.1886,19.4687,57.8951,22.2822,6.3198.9197,12.3792,1.309,18.1061,1.309"/>
      <path class="cls-1" d="M94.2151,123.4817c-5.669,0-11.5308.2664-17.5951.8009-20.7478,1.8699-39.3504,6.8581-55.4029,12.9425-.4917,26.9866-.9689,53.9713-1.4606,80.9851,14.3364,9.7662,33.5464,19.6828,56.6273,23.245,6.18.9494,12.1045,1.3354,17.6915,1.3354,6.3391,0,12.2828-.5055,17.7349-1.3354,1.774-2.7903,15.9513-25.9755,14.8474-62.8171-.9689-31.9132-12.6781-50.9708-14.8474-54.3555-5.6112-.5037-11.4923-.8009-17.5951-.8009M94.2151,111.3691c6.2812,0,12.3021.2972,18.0868.8009,2.015.1794,3.9288,1.5148,5.3316,3.7108,3.7311,5.8778,16.0525,27.7277,17.0793,62.1938,1.2244,40.7299-13.999,66.912-17.06,71.7226-1.3208,2.1073-3.1189,3.4136-5.0375,3.7108-6.1366.9186-12.3792,1.4242-18.5399,1.4242s-12.3792-.5055-18.5207-1.4242c-20.1404-3.0875-40.0397-11.252-59.1147-24.2542-2.9647-2.0185-4.8399-6.5011-4.7386-11.3697l1.4606-80.9851c.0964-5.4321,2.5838-10.0923,6.0787-11.4295,18.7183-7.0936,37.856-11.5763,56.9069-13.2994,6.2185-.5635,12.2443-.8009,18.0675-.8009"/>
      <path class="cls-1" d="M131.1503,179.4638c3.7504,12.8938-7.1875,27.4062-24.4259,32.422-17.2143,5.0146-34.2357-1.3823-37.9861-14.2761-3.7552-12.8938,7.1827-27.4255,24.421-32.422,17.2191-5.0146,34.2406,1.3823,37.991,14.2761"/>
    </g>
  </g>
  <path class="cls-3" d="M54.4717,110.6027c3.9663-7.347,21.2603-37.7152,46.9431-35.8524,22.818,1.6551,37.9576,27.7146,42.3409,35.8524"/>
  <path class="cls-3" d="M304.8112,105.8384c3.9663-7.347,21.2603-37.7152,46.9431-35.8524,22.818,1.6551,37.9576,27.7146,42.3409,35.8524"/>
</svg>