<?xml version="1.0" encoding="UTF-8"?>
<svg id="szem2" xmlns="http://www.w3.org/2000/svg" version="1.1" viewBox="0 0 420.712 281.8062">
  <!-- Generator: Adobe Illustrator 29.4.0, SVG Export Plug-In . SVG Version: 2.1.0 Build 152)  -->
  <g>
    <g>
      <g>
        <path d="M387.9175,260.0529c.6445-13.3951.6646-28.9425.689-46.9056.0151-21.7461-1.748-66.7144-2.8911-96.4607-.5542-14.2854-.9844-24.9364-.9844-27.4921,0-4.0001-7.0605-16.619-7.1265-16.714-26.3789-39.0325-94.905-52.9368-150.2551-52.9368-61.8411,0-143.9812,17.1266-171.6348,64.9366-.0466.0793-3.4607,7.4287-3.4607,7.4287-.4263.9205-.6316,1.7933-.7285,2.8096-1.6997,20.467-1.8867,68.8185-2.0928,163.0891" style="fill: #76c615; stroke: #261f20; stroke-miterlimit: 10; stroke-width: 16.4225px;"/>
        <path d="M125.304,258.5296c3.2249-.3579,6.4612-.5577,9.7371-.3372,8.4163.5667,16.3496,1.251,24.8213.6929,3.0938-.2039,6.1909-.3135,9.2898-.3496-6.6377-21.4346-10.4839-41.8452.2419-54.9713,7.5876-9.3025,22.9375-15.0961,40.0312-15.0961,16.4426,0,31.1724,5.4448,38.4114,14.2068,11.2051,13.5776,5.7751,35.938-1.4592,58.7566,13.5403-.8406,27.1553.9659,40.6367-.7161,5.1128-.6379,10.4163-1.0824,15.1338-.0615-.1694-7.3354-.4321-15.0466-.7087-23.1057-1.9338-55.9208-2.9026-83.9844-18.4888-100.0164-14.2571-14.6667-36.4778-22.7457-62.5427-22.7457s-51.6958,8.1749-70.2854,22.4125c-27.8916,21.3914-32.5608,57.2583-31.8083,121.4519,2.2668-.3335,4.5684-.3718,6.99-.1211Z" style="fill: #261f20;"/>
        <path d="M115.5386,259.2222c1.7231-.4482,3.4502-.7141,5.2124-.8064-.7341-62.8079,3.7974-98.0382,30.6475-118.6241,18.5391-14.2067,44.0305-21.7944,68.4446-21.7944,23.4607,0,45.9526,7.0006,60.3647,21.8254,14.7957,15.2064,15.7451,42.8728,17.6519,98.191.2683,7.7539.5139,15.137.676,22.1317,2.124.1591,4.1753.5306,6.0942,1.2108-.1704-7.48-.4402-15.3378-.7249-23.5488-1.9648-56.8103-2.9492-85.3176-19.3647-102.1904-14.8228-15.2704-37.8069-23.667-64.6973-23.667-26.7314,0-53.0173,8.3966-72.1262,23.048-29.0559,22.2692-33.7971,58.9368-32.9998,124.1458.2747.0205.5476.0548.8215.0785Z" style="fill: #261f20;"/>
        <path d="M171.6985,258.5259c-6.5247-20.8918-10.4434-40.7161-.5208-52.8618,7.0295-8.6185,21.4766-13.9839,37.6829-13.9839,15.5708,0,29.3938,5.032,36.0786,13.111,10.3872,12.5775,4.8079,34.5463-2.3379,56.9501,2.1611-.2217,4.3247-.3633,6.49-.4453,7.2661-23.1428,12.4673-45.875.498-60.3616-8.4131-10.1909-24.4915-15.2859-40.7288-15.2859-16.6985,0-33.5559,5.3962-42.3835,16.1907-11.4277,14-7.7197,35.0603-1.0862,56.7823,2.1016-.0675,4.2043-.098,6.3076-.0956Z" style="fill: #261f20;"/>
        <path d="M135.041,258.1925c3.564.24,7.0408.4957,10.509.6746,3.334-3.3716,6.1824-7.2651,6.6428-12.4159,1.333-14.9207-18.7795-24.0004-15.1252-33.3339,3.1584-8.0315,19.4731-4.8412,22.3953-12.8097,3.5728-9.6979-17.063-24.0634-14.4121-27.9366,2.9683-4.349,28.3977,14.3975,40.0623,6.1277,9.7773-6.9366,3.7629-28.4763,9.2385-29.8733,5.9834-1.5394,13.4587,24.3337,24.2205,23.8726,9.9866-.4119,15.3845-23.1906,20.4148-22.0154,4.8557,1.1433-.0969,22.5239,8.9517,27.7303,8.3667,4.8092,22.5889-7.6508,25.2397-4.4923,3.0149,3.6349-16.5396,19.2222-12.5249,29.635,3.7627,9.7937,26.2236,9.3489,26.0493,12.8726-.1123,2.2389-9.1145.9843-15.4622,6.6982-8.793,7.9211-9.572,26.6038-1.3796,35.3811,1.2356,1.3258,2.6018,2.334,3.989,3.146,4.3972-.0194,8.7881-.1918,13.1643-.7378,1.917-.2393,3.8611-.4512,5.7908-.5688.0767-4.1245.1567-8.486.2454-13.125.7441-39.6981,1.5076-67.6667-14.3809-91.6981-3.2708-4.9362-5.9526-7.7621-6.9368-8.762-21.2559-21.7614-55.6833-19.7299-62.3025-19.3336-1.4453.0795-2.5073.1753-3.1272.2383-8.3008.6986-42.6008,3.6196-62.6165,30.0322-11.1606,14.7299-12.6836,29.9043-15.6831,59.6663-.7549,7.5386-.3037,26.9346.1233,41.1051,2.2917-.1726,4.5928-.2338,6.9143-.0775Z" style="fill: #fff;"/>
        <line x1="86.8833" y1="96.0149" x2="132.5182" y2="146.7449" style="fill: #76c615;"/>
      </g>
      <rect x="37.0785" y="257.3634" width="360.1129" height="4.8992" style="fill: #aad7db;"/>
    </g>
    <g>
      <path d="M327.9988,235.2999c-5.866,0-11.3782-.4544-16.423-1.1861-.8779-.1263-1.6816-.6808-2.2713-1.565-2.5945-3.8108-15.4927-24.5548-14.475-57.1872.8954-27.5585,11.3083-44.8721,14.475-49.5409.6421-.9335,1.5025-1.488,2.4154-1.565,5.1497-.4282,10.5352-.6808,16.1173-.6808,5.2064,0,10.6269.2018,16.1915.6808,17.052,1.414,34.1695,5.1741,50.8808,11.1553,1.5943.5561,2.7212,2.5493,2.7736,4.846l1.3235,68.8462c.0349,2.0702-.8037,3.9633-2.1446,4.8213-16.9646,10.8518-34.6019,17.6401-52.4576,20.1894-5.7262.8333-11.2166,1.1861-16.4055,1.1861" style="fill: #fff;"/>
      <path d="M327.8852,128.4066c5.1366,0,10.4478.2413,15.9426.7256,18.7991,1.6943,35.6546,6.214,50.1994,11.7269.4455,24.452.8779,48.9023,1.3235,73.3789-12.9899,8.8489-30.3957,17.8342-51.3088,21.0618-5.5996.8603-10.9676,1.21-16.0299,1.21-5.7437,0-11.1292-.458-16.0692-1.21-1.6074-2.5283-14.4531-23.5359-13.4529-56.9173.8779-28.9159,11.4874-46.1836,13.4529-49.2504,5.0841-.4564,10.4129-.7256,15.9426-.7256M327.8852,117.4316c-5.6913,0-11.1467.2692-16.3881.7256-1.8258.1625-3.5598,1.3725-4.8308,3.3623-3.3807,5.3258-14.5449,25.1235-15.4752,56.3525-1.1094,36.9045,12.6842,60.6276,15.4577,64.9864,1.1968,1.9093,2.826,3.093,4.5644,3.3623,5.5602.8324,11.2166,1.2904,16.7987,1.2904s11.2166-.458,16.7812-1.2904c18.2488-2.7975,36.2791-10.1952,53.5626-21.9762,2.6862-1.8289,4.3853-5.8905,4.2936-10.3019l-1.3235-73.3789c-.0874-4.9219-2.3412-9.1445-5.5078-10.3561-16.9603-6.4274-34.3005-10.489-51.5622-12.0503-5.6345-.5106-11.0943-.7256-16.3706-.7256" style="fill: #261f20;"/>
      <path d="M294.419,179.1308c-3.3982,11.6828,6.5124,24.8322,22.1318,29.3769,15.5975,4.5436,31.0203-1.2525,34.4185-12.9353,3.4025-11.6828-6.5081-24.8496-22.1274-29.3769-15.6019-4.5436-31.0247,1.2525-34.4228,12.9353" style="fill: #261f20;"/>
    </g>
    <g>
      <path d="M92.7131,235.2999c5.866,0,11.3782-.4544,16.423-1.1861.8779-.1263,1.6816-.6808,2.2713-1.565,2.5945-3.8108,15.4927-24.5548,14.475-57.1872-.8954-27.5585-11.3083-44.8721-14.475-49.5409-.6421-.9335-1.5025-1.488-2.4154-1.565-5.1497-.4282-10.5352-.6808-16.1173-.6808-5.2064,0-10.6269.2018-16.1915.6808-17.052,1.414-34.1695,5.1741-50.8808,11.1553-1.5943.5561-2.7212,2.5493-2.7736,4.846l-1.3235,68.8462c-.0349,2.0702.8037,3.9633,2.1446,4.8213,16.9646,10.8518,34.6019,17.6401,52.4576,20.1894,5.7262.8333,11.2166,1.1861,16.4055,1.1861" style="fill: #fff;"/>
      <path d="M92.8267,128.4066c-5.1366,0-10.4478.2413-15.9426.7256-18.7991,1.6943-35.6546,6.214-50.1994,11.7269-.4455,24.452-.8779,48.9023-1.3235,73.3789,12.9899,8.8489,30.3957,17.8342,51.3088,21.0618,5.5996.8603,10.9676,1.21,16.0299,1.21,5.7437,0,11.1292-.458,16.0692-1.21,1.6074-2.5283,14.4531-23.5359,13.4529-56.9173-.8779-28.9159-11.4874-46.1836-13.4529-49.2504-5.0841-.4564-10.4129-.7256-15.9426-.7256M92.8267,117.4316c5.6913,0,11.1467.2692,16.3881.7256,1.8258.1625,3.5598,1.3725,4.8308,3.3623,3.3807,5.3258,14.5449,25.1235,15.4752,56.3525,1.1094,36.9045-12.6842,60.6276-15.4577,64.9864-1.1968,1.9093-2.826,3.093-4.5644,3.3623-5.5602.8324-11.2166,1.2904-16.7987,1.2904s-11.2166-.458-16.7812-1.2904c-18.2488-2.7975-36.2791-10.1952-53.5626-21.9762-2.6862-1.8289-4.3853-5.8905-4.2936-10.3019l1.3235-73.3789c.0874-4.9219,2.3412-9.1445,5.5078-10.3561,16.9603-6.4274,34.3005-10.489,51.5622-12.0503,5.6345-.5106,11.0943-.7256,16.3706-.7256" style="fill: #261f20;"/>
      <path d="M126.293,179.1308c3.3982,11.6828-6.5124,24.8322-22.1318,29.3769-15.5975,4.5436-31.0203-1.2525-34.4185-12.9353-3.4025-11.6828,6.5081-24.8496,22.1274-29.3769,15.6019-4.5436,31.0247,1.2525,34.4228,12.9353" style="fill: #261f20;"/>
    </g>
  </g>
  <path d="M44.7402,100.6943c3.8633-8.3319,20.708-42.7712,45.7236-40.6587,22.2253,1.877,36.9715,31.4299,41.2409,40.6587" style="fill: none; stroke: #261f20; stroke-linecap: round; stroke-linejoin: round; stroke-width: 13.0611px;"/>
  <path d="M291.2338,102.2938c3.8633-8.3319,20.708-42.7712,45.7236-40.6587,22.2253,1.877,36.9715,31.4299,41.2409,40.6587" style="fill: none; stroke: #261f20; stroke-linecap: round; stroke-linejoin: round; stroke-width: 13.0611px;"/>
</svg>