<?xml version="1.0" encoding="UTF-8"?>
<svg id="beltér1" xmlns="http://www.w3.org/2000/svg" viewBox="0 0 445.26 281">
  <defs>
    <style>
      .cls-1 {
        fill: #261f20;
      }

      .cls-2 {
        fill: #fff;
      }
    </style>
  </defs>
  <g>
    <path class="cls-1" d="M185.2047,276.5089c-9.3008-27.5439-18.0801-55.5205-4.3965-72.2671,8.0117-9.8218,24.2178-15.9385,42.2656-15.9385,17.3613,0,32.9131,5.7485,40.5566,14.9995,13.457,16.3071,4.1895,44.6128-4.7588,71.9805-.1338.4092-.2666.8169-.4004,1.2256h62.6914c.0391-8.5142-.084-21.1328-.9375-36.3857-3.1396-56.1113-4.71-84.167-21.8213-103.3804-21.085-23.6753-53.667-25.6309-63.7344-26.2354-2.5908-.1558-41.7256-1.249-74.209,23.6641-31.4336,24.1079-34.9346,65.6162-33.3535,142.3374h58.0977Z"/>
    <path class="cls-1" d="M255.1148,276.5089h6.7152c9.2186-28.1946,18.8677-57.5465,4.2466-75.2427-8.8827-10.7595-25.8583-16.1393-43.0025-16.1393-17.6307,0-35.429,5.6979-44.7492,17.0947-14.5739,17.854-5.8321,46.5847,3.5114,74.2874h6.7473c-9.158-27.037-18.0442-54.6443-5.2955-70.2489,7.422-9.0997,22.675-14.7646,39.7861-14.7646,16.4401,0,31.0345,5.3134,38.0928,13.8431,12.3325,14.9322,3.3509,42.4009-5.3312,68.9637-.2406.7348-.4813,1.4705-.721,2.2066Z"/>
    <path class="cls-1" d="M130.2859,276.5092c-1.5801-75.5293,1.7559-116.5205,32.1191-139.7988,13.7324-10.5273,39.375-25.5781,72.2646-23.0107,7.8018.6084,39.498,3.083,60.3994,26.8096,17.248,19.5801,18.8232,46.3555,21.9727,99.9062.8896,15.1221.9824,27.6387.9092,36.0938l7.6768.0498h0c-.249-12.2539-.9072-24.5-.959-36.7559-.0703-16.582.2764-25.8799-1.293-42.5898-.0723-.7695-.1562-1.5-.2598-2.3037-2.0078-15.7305-5.166-40.4717-22.7764-60.0469-22.5547-25.0713-55.5898-26.9688-65.6699-27.5479-3.167-.1826-42.9141-1.1406-76.1523,24.334-32.6699,25.0391-36.2295,67.3027-34.6133,144.8604h6.3818Z"/>
    <path class="cls-2" d="M143.8905,276.5089c2.2209-8.6238,18.1753-14.0138,19.3525-27.1849,1.4072-15.7534-19.8276-25.3401-15.9695-35.1946,3.3349-8.4798,20.5601-5.1115,23.6455-13.5249,3.7725-10.2391-18.0157-25.4065-15.2165-29.4962,3.1335-4.5915,29.9828,15.2013,42.2984,6.4697,10.3228-7.3239,3.973-30.0657,9.7542-31.5411,6.3178-1.6251,14.2103,25.6926,25.5723,25.2055,10.5447-.4349,16.244-24.485,21.5547-23.2444,5.1271,1.2071-.1025,23.7814,9.4521,29.2783,8.8336,5.0776,23.8496-8.0779,26.648-4.743,3.1834,3.838-17.4632,20.2954-13.2237,31.2894,3.973,10.3407,27.688,9.871,27.5035,13.5913-.1185,2.3639-9.6232,1.0391-16.3251,7.0722-9.2846,8.3631-10.1063,28.089-1.4571,37.3562,6.2482,6.7041,15.6344,6.0165,15.687,9.1509.0365,2.4771-5.8829,3.4325-11.9092,5.5157h20.2027c.1586-7.7981.3128-16.6045.5035-26.5824.786-41.9143,1.5917-71.444-15.1835-96.8171-3.4534-5.2118-6.2848-8.1955-7.3239-9.2512-22.4423-22.9762-58.792-20.8315-65.7808-20.4131-1.5257.0842-2.6469.1854-3.3019.2518-8.7641.7375-44.9792,3.8215-66.1123,31.7087-11.7835,15.5524-13.3913,31.5741-16.5586,62.9971-1.3725,13.7143-.0036,11.1374.6105,58.1062h5.5772Z"/>
  </g>
  <g>
    <path class="cls-2" d="M372.7625,265.8052c25.3257,0,45.1456-31.5729,45.1456-71.9025s-19.8199-71.8851-45.1456-71.8851-45.166,31.5719-45.166,71.8851,19.8402,71.9025,45.166,71.9025"/>
    <path class="cls-1" d="M371.8466,123.0287c-23.5104,0-42.555,30.5243-42.555,68.1771s19.0446,68.1596,42.555,68.1596c23.4887,0,42.555-30.5243,42.555-68.1596s-19.0663-68.1771-42.555-68.1771M371.8466,114.5826c30.5884,0,53.6544,32.94,53.6544,76.6232s-23.066,76.6057-53.6544,76.6057-53.6544-32.94-53.6544-76.6057,23.066-76.6232,53.6544-76.6232"/>
    <path class="cls-1" d="M350.1381,228.1235c4.3836,0,5.5565-14.4425,5.5565-22.9732s-1.1729-22.9732-5.5565-22.9732c-4.3983,0-5.5711,14.4425-5.5711,22.9732s1.1729,22.9732,5.5711,22.9732"/>
    <path class="cls-1" d="M350.1344,183.5597c-2.4007,0-4.3543,9.6617-4.3543,21.5875s1.9536,21.5885,4.3543,21.5885,4.3396-9.6627,4.3396-21.5885-1.9389-21.5875-4.3396-21.5875M350.1344,180.8059c6.2895,0,6.7843,18.6326,6.7843,24.3413s-.4948,24.3424-6.7843,24.3424c-6.3042,0-6.7843-18.6326-6.7843-24.3424s.4801-24.3413,6.7843-24.3413"/>
  </g>
  <g>
    <path class="cls-2" d="M81.5328,265.7765c-25.3257,0-45.1456-31.5729-45.1456-71.9025s19.8199-71.8851,45.1456-71.8851,45.166,31.5719,45.166,71.8851-19.8402,71.9025-45.166,71.9025"/>
    <path class="cls-1" d="M82.4487,123c23.5104,0,42.555,30.5243,42.555,68.1771s-19.0446,68.1596-42.555,68.1596c-23.4887,0-42.555-30.5243-42.555-68.1596s19.0663-68.1771,42.555-68.1771M82.4487,114.5539c-30.5884,0-53.6544,32.94-53.6544,76.6232s23.066,76.6057,53.6544,76.6057,53.6544-32.94,53.6544-76.6057-23.066-76.6232-53.6544-76.6232"/>
    <path class="cls-1" d="M104.1572,228.0948c-4.3836,0-5.5565-14.4425-5.5565-22.9732s1.1729-22.9732,5.5565-22.9732c4.3983,0,5.5711,14.4425,5.5711,22.9732s-1.1729,22.9732-5.5711,22.9732"/>
    <path class="cls-1" d="M104.1608,183.5311c2.4007,0,4.3543,9.6617,4.3543,21.5875s-1.9536,21.5885-4.3543,21.5885-4.3396-9.6627-4.3396-21.5885,1.9389-21.5875,4.3396-21.5875M104.1608,180.7772c-6.2895,0-6.7843,18.6326-6.7843,24.3413s.4948,24.3424,6.7843,24.3424c6.3042,0,6.7843-18.6326,6.7843-24.3424s-.4801-24.3413-6.7843-24.3413"/>
  </g>
</svg>