<?xml version="1.0" encoding="UTF-8"?>
<svg id="szem1" xmlns="http://www.w3.org/2000/svg" viewBox="0 0 445.26 281">
  <defs>
    <style>
      .cls-1 {
        fill: #261f20;
      }

      .cls-2 {
        fill: #fff;
      }

      .cls-3 {
        fill: none;
        stroke: #261f20;
        stroke-linecap: round;
        stroke-linejoin: round;
        stroke-width: 26.8718px;
      }
    </style>
  </defs>
  <path class="cls-2" d="M374.2474,114.3355c8.666.1659,16.7645.8321,24.2366,1.7413,5.6114,5.4352,24.9656,29.3433,22.5722,67.4331-1.9426,31.0177-16.8913,49.7453-23.2183,56.3753-.5734.5726-1.1967.8892-1.8327.9138-7.6649.3277-15.6646.4664-23.9786.3072-7.7335-.148-15.7227-.5571-23.9858-1.2253-25.2045-2.0516-50.5529-6.624-75.2708-13.5565-1.8825-.5472-3.2636-3.6396-3.2876-7.3987l-.539-75.5142c-.0431-3.7227,1.314-7.0177,3.1864-7.8572,25.272-11.2678,51.4932-18.1373,77.8869-20.4051,8.477-.7142,16.5748-.9601,24.2306-.8136"/>
  <path class="cls-1" d="M372.2565,227.9029c-7.6741-.1469-15.627-.5419-23.8181-1.1483-28.1052-2.1982-53.2413-7.1059-74.8905-12.8809-.2016-23.8674-.3986-47.7348-.6184-71.6026,19.5992-8.2362,45.8108-16.5189,77.1526-19.0663,8.403-.6687,16.422-.8614,24.0047-.7163,8.5928.1645,16.6149.7677,24.0146,1.6354,2.3526,2.501,21.1843,23.3698,19.0664,55.9077-1.8511,28.1512-18.0701,44.6835-21.0483,47.6356-7.6272.2688-15.59.394-23.8629.2356M371.9752,242.5956c8.3689.1602,16.4041.0723,24.1097-.2298,1.2726-.0801,2.5186-.6779,3.6459-1.7635,6.8924-6.7854,23.1793-26.1524,25.3294-59.1741,2.6705-40.6204-18.5586-65.4782-22.8375-70.0563-1.0438-1.1261-2.1928-1.7708-3.4066-1.8985-8.0925-.9845-16.3208-1.5568-24.4475-1.7123-8.1083-.1552-16.3343.1021-24.4357.7766-26.675,2.1533-53.1134,8.667-78.5814,19.42-3.7568,1.5883-6.4421,7.8653-6.3714,14.9223l.5962,71.5673c.0517,7.0915,2.8429,12.9551,6.6233,13.9605,24.8556,6.667,50.317,11.0627,75.6923,13.0355,8.2865.642,16.3131,1.0036,24.0832,1.1523"/>
  <path class="cls-1" d="M328.6597,179.2864c-1.5354-9.8272,3.7001-20.7392,11.6967-24.3788,8.0001-3.6395,15.7308,1.3465,17.2663,11.1729,1.5359,9.8027-3.6961,20.7155-11.6967,24.3796-8.0001,3.6388-15.7308-1.3465-17.2663-11.1736"/>
  <path class="cls-2" d="M69.1633,115.5888c-8.3488.1598-16.1511.7933-23.3499,1.6569-5.4077,5.1499-24.0609,27.8011-21.7669,63.8782,1.8618,29.3787,16.2576,47.1125,22.3509,53.3904.5522.5422,1.1526.8419,1.7653.8649,7.3842.308,15.091.4369,23.1008.2835,7.4505-.1426,15.1474-.5326,23.1082-1.1681,24.2826-1.9511,48.7045-6.2898,72.5197-12.8638,1.8137-.5189,3.1452-3.4484,3.1696-7.0089l.5427-71.5257c.0426-3.5261-1.2637-6.6466-3.0673-7.4412-24.3435-10.6648-49.6027-17.1633-75.0296-19.3031-8.1665-.6738-15.9678-.9043-23.3434-.7631"/>
  <path class="cls-1" d="M69.7435,223.1818c7.2011-.1378,14.6636-.5106,22.3498-1.0836,26.3724-2.0773,49.9583-6.7215,70.272-12.1877.1851-22.6065.3659-45.2129.5682-67.8197-18.3925-7.8044-42.9898-15.654-72.4001-18.0721-7.8852-.6348-15.4099-.8187-22.5252-.6825-8.0631.1543-15.5906.7243-22.534,1.545-2.2072,2.3685-19.8746,22.1316-17.8817,52.9509,1.7418,26.6643,16.9638,42.326,19.7589,45.1226,7.1571.2559,14.6291.3758,22.392.2272M70.0098,237.0984c-7.853.1503-15.393.0657-22.6236-.2217-1.1942-.0761-2.3635-.6425-3.4215-1.671-6.4687-6.4281-21.755-24.7747-23.7781-56.0522-2.5127-38.4749,17.4035-62.0159,21.418-66.3514.9793-1.0664,2.0574-1.6769,3.1963-1.7976,7.5935-.9311,15.3146-1.4718,22.9402-1.6177,7.6085-.1456,15.3275.0995,22.9296.7397,25.0311,2.0441,49.841,8.2181,73.7409,18.4073,3.5255,1.505,6.0463,7.4509,5.9812,14.1351l-.5474,67.7863c-.0473,6.7168-2.6655,12.2702-6.2127,13.2218-23.3223,6.3106-47.2136,10.4698-71.0244,12.3341-7.7756.6067-15.3074.9478-22.5986,1.0874"/>
  <path class="cls-1" d="M107.4972,179.4136c1.4823-9.3086-3.5583-19.6426-11.261-23.0875-7.7062-3.4448-15.1554,1.2802-16.6377,10.5881-1.4827,9.2854,3.5544,19.6202,11.261,23.0882,7.7062,3.4441,15.1554-1.2802,16.6377-10.5888"/>
  <line class="cls-3" x1="91.6971" y1="36.7379" x2="174.5763" y2="125.3102"/>
  <line class="cls-3" x1="361.9083" y1="29.1145" x2="275.0505" y2="120.7052"/>
</svg>