<?xml version="1.0" encoding="UTF-8"?>
<svg id="szem1" xmlns="http://www.w3.org/2000/svg" viewBox="0 0 445.26 281">
  <defs>
    <style>
      .cls-1 {
        fill: #261f20;
      }

      .cls-2 {
        fill: #fff;
      }
    </style>
  </defs>
  <path class="cls-1" d="M184.6445,276.6672c-9.3008-27.5439-18.0801-55.5205-4.3965-72.2671,8.0117-9.8218,24.2178-15.9385,42.2656-15.9385,17.3613,0,32.9131,5.7485,40.5566,14.9995,13.457,16.3071,4.1895,44.6128-4.7588,71.9805-.1338.4092-.2666.8169-.4004,1.2256h62.6914c.0391-8.5142-.084-21.1328-.9375-36.3857-3.1396-56.1113-4.71-84.167-21.8213-103.3804-21.085-23.6753-53.667-25.6309-63.7344-26.2354-2.5908-.1558-41.7256-1.249-74.209,23.6641-31.4336,24.1079-34.9346,65.6162-33.3535,142.3374h58.0977Z"/>
  <path class="cls-1" d="M254.5546,276.6672h6.7152c9.2186-28.1946,18.8677-57.5465,4.2466-75.2427-8.8827-10.7595-25.8583-16.1393-43.0025-16.1393-17.6307,0-35.429,5.6979-44.7492,17.0947-14.5739,17.854-5.8321,46.5847,3.5114,74.2874h6.7473c-9.158-27.037-18.0442-54.6443-5.2955-70.2489,7.422-9.0997,22.675-14.7646,39.7861-14.7646,16.4401,0,31.0345,5.3134,38.0928,13.8431,12.3325,14.9322,3.3509,42.4009-5.3312,68.9637-.2406.7348-.4813,1.4705-.721,2.2066Z"/>
  <path class="cls-1" d="M129.726,276.667c-1.5801-75.5293,1.7559-116.52,32.1191-139.7983,13.7324-10.5278,39.375-25.5781,72.2646-23.0112,7.8018.6089,39.498,3.083,60.3994,26.8101,17.248,19.5801,18.8232,46.3555,21.9727,99.9062.8896,15.1216.9824,27.6382.9092,36.0933,2.5557.0151,5.1104.0303,7.666.0454h0c.5049-54.1523-2.2412-79.3403-2.2412-79.3403-.1191-1.0928-.1748-1.6396-.2598-2.3047-2.0078-15.73-5.166-40.4712-22.7764-60.0469-22.5547-25.0708-55.5898-26.9688-65.6699-27.5479-3.167-.1821-42.9141-1.1401-76.1523,24.3345-32.6699,25.0391-36.2295,67.3022-34.6133,144.8599h6.3818Z"/>
  <path class="cls-2" d="M143.3303,276.6672c2.2209-8.6238,18.1753-14.0138,19.3525-27.1849,1.4072-15.7534-19.8276-25.3401-15.9695-35.1946,3.3349-8.4798,20.5601-5.1115,23.6455-13.5249,3.7725-10.2391-18.0157-25.4065-15.2165-29.4962,3.1335-4.5915,29.9828,15.2013,42.2984,6.4697,10.3228-7.3239,3.973-30.0657,9.7542-31.5411,6.3178-1.6251,14.2103,25.6926,25.5723,25.2055,10.5447-.4349,16.244-24.485,21.5547-23.2444,5.1271,1.2071-.1025,23.7814,9.4521,29.2783,8.8336,5.0776,23.8496-8.0779,26.648-4.743,3.1834,3.838-17.4632,20.2954-13.2237,31.2894,3.973,10.3407,27.688,9.871,27.5035,13.5913-.1185,2.3639-9.6232,1.0391-16.3251,7.0722-9.2846,8.3631-10.1063,28.089-1.4571,37.3562,6.2482,6.7041,15.6344,6.0165,15.687,9.1509.0365,2.4771-5.8829,3.4325-11.9092,5.5157h20.2027c.1586-7.7981.3128-16.6045.5035-26.5824.786-41.9143,1.5917-71.444-15.1835-96.8171-3.4534-5.2118-6.2848-8.1955-7.3239-9.2512-22.4423-22.9762-58.792-20.8315-65.7808-20.4131-1.5257.0842-2.6469.1854-3.3019.2518-8.7641.7375-44.9792,3.8215-66.1123,31.7087-11.7835,15.5524-13.3913,31.5741-16.5586,62.9971-1.3725,13.7143-.0036,11.1374.6105,58.1062h5.5772Z"/>
  <path class="cls-2" d="M111.1368,239.5377c2.5714-.0553,4.7355-1.2762,5.3099-2.9593,6.2917-17.9771,10.1188-36.3431,11.4613-54.6165.8482-11.393.708-23.0451-.3807-34.6413-.1135-.9432-.7414-1.831-1.7299-2.497-6.5655-4.328-24.973-14.4816-54.0002-15.2402l-3.3662-.0553c-33.5957,0-54.7416,13.2793-58.5954,15.9243-.9351.6474-1.5362,1.4799-1.643,2.3672-1.5362,11.6521-1.3959,23.4893.4074,35.1781,3.0123,19.124,10.613,37.9895,22.5418,56.0778.9017,1.3868,2.9588,2.2747,5.203,2.2747.0801,0,74.7921-1.8124,74.7921-1.8124"/>
  <path class="cls-1" d="M69.6079,133.382c-33.2332,0-53.8789,13.0948-56.4268,14.7779-1.381,10.0062-1.6641,21.6024.4281,34.4381,3.6182,22.3977,13.3195,41.0227,22.793,54.9122,25.7138-.6101,51.4207-1.2203,77.1276-1.8124,5.5999-15.6285,10.1571-33.754,11.6831-53.9318.9322-12.2255.6491-23.6558-.4281-34.1796-3.2522-2.0895-21.5502-13.3905-51.9248-14.1672-1.1048-.0186-2.175-.0373-3.2522-.0373M69.6079,125.6883c1.2153,0,2.4581.0186,3.7079.0553,32.1285.8139,52.4634,11.6893,59.6997,16.3312,2.0646,1.3321,3.342,3.1072,3.5077,4.9941,1.16,11.6521,1.3326,23.4521.4281,35.0855-1.3879,18.4952-5.4341,37.1011-11.9662,55.3006-1.2153,3.3663-5.7449,5.8074-11.0271,5.9186l-31.507.758-45.6206,1.073h-.4281c-4.6332,0-8.8521-1.7757-10.744-4.5685-12.5876-18.4399-20.5904-37.6932-23.7597-57.2241-1.9196-11.9112-2.0922-23.9883-.4212-35.9361.2279-1.7943,1.4155-3.4775,3.3627-4.735,4.3294-2.8481,27.806-17.0525,64.7679-17.0525"/>
  <path class="cls-1" d="M124.9698,184.2163c3.1893,10.9122-6.0966,23.2198-20.6722,27.4811-14.6145,4.2212-29.0344-1.1948-32.1751-12.1082-3.1893-10.9122,6.048-23.2186,20.6625-27.4799,14.6242-4.2224,28.9955,1.1948,32.1849,12.107"/>
  <path class="cls-2" d="M334.1232,239.5377c-2.5714-.0553-4.7355-1.2762-5.3099-2.9593-6.2917-17.9771-10.1188-36.3431-11.4613-54.6165-.8482-11.393-.708-23.0451.3807-34.6413.1135-.9432.7414-1.831,1.7299-2.497,6.5655-4.328,24.973-14.4816,54.0002-15.2402l3.3662-.0553c33.5957,0,54.7416,13.2793,58.5954,15.9243.9351.6474,1.5362,1.4799,1.643,2.3672,1.5362,11.6521,1.3959,23.4893-.4074,35.1781-3.0123,19.124-10.613,37.9895-22.5418,56.0778-.9017,1.3868-2.9588,2.2747-5.203,2.2747-.0801,0-74.7921-1.8124-74.7921-1.8124"/>
  <path class="cls-1" d="M375.6521,133.382c33.2332,0,53.8789,13.0948,56.4268,14.7779,1.381,10.0062,1.6641,21.6024-.4281,34.4381-3.6182,22.3977-13.3195,41.0227-22.793,54.9122-25.7138-.6101-51.4207-1.2203-77.1276-1.8124-5.5999-15.6285-10.1571-33.754-11.6831-53.9318-.9322-12.2255-.6491-23.6558.4281-34.1796,3.2522-2.0895,21.5502-13.3905,51.9248-14.1672,1.1048-.0186,2.175-.0373,3.2522-.0373M375.6521,125.6883c-1.2153,0-2.4581.0186-3.7079.0553-32.1285.8139-52.4634,11.6893-59.6997,16.3312-2.0646,1.3321-3.342,3.1072-3.5077,4.9941-1.16,11.6521-1.3326,23.4521-.4281,35.0855,1.3879,18.4952,5.4341,37.1011,11.9662,55.3006,1.2153,3.3663,5.7449,5.8074,11.0271,5.9186l31.507.758,45.6206,1.073h.4281c4.6332,0,8.8521-1.7757,10.744-4.5685,12.5876-18.4399,20.5904-37.6932,23.7597-57.2241,1.9196-11.9112,2.0922-23.9883.4212-35.9361-.2279-1.7943-1.4155-3.4775-3.3627-4.735-4.3294-2.8481-27.806-17.0525-64.7679-17.0525"/>
  <path class="cls-1" d="M319.2902,184.2163c-3.1893,10.9122,6.0966,23.2198,20.6722,27.4811,14.6145,4.2212,29.0344-1.1948,32.1751-12.1082,3.1893-10.9122-6.048-23.2186-20.6625-27.4799-14.6242-4.2224-28.9955,1.1948-32.1849,12.107"/>
</svg>