<?xml version="1.0" encoding="UTF-8"?>
<svg id="beltér1" xmlns="http://www.w3.org/2000/svg" viewBox="0 0 445.26 281">
  <defs>
    <style>
      .cls-1 {
        fill: #261f20;
      }

      .cls-2 {
        fill: #fff;
      }
    </style>
  </defs>
  <g>
    <path class="cls-2" d="M399.3125,256.2164c2.0743,0,3.94-1.1913,4.819-3.1083,11.1116-24.5308,18.1062-50.0727,20.7244-75.9506,1.6063-15.6722,1.6063-31.6803,0-47.5335-.1328-1.2435-.702-2.4095-1.6063-3.2902-3.6807-3.4965-23.6272-21.0335-54.8941-21.0335l-3.8072.1036c-28.206,1.2949-46.0276,16.3449-50.8466,20.93-.9613.9328-1.5305,2.1763-1.6063,3.5234-.936,15.4129-.936,31.1625,0,46.7825,1.4482,24.6083,5.306,49.3984,11.4215,73.6707.5692,2.1755,2.4348,3.7819,4.6862,3.989h.4427c2.0996,0,3.9906-1.2174,4.8443-3.1344,5.5463-12.4334,17.5117-20.4636,30.5143-20.4636,1.3218,0,2.6688.1036,4.0159.2846,11.8895,1.5803,21.9956,9.9211,26.3467,21.7592.721,2.0206,2.5866,3.3937,4.7368,3.4712h.2087Z"/>
    <path class="cls-1" d="M368.3555,110.5943c-1.1637,0-2.3589.0261-3.5732.1036-27.8202,1.2435-44.4529,16.6303-47.4063,19.4541-.8538,14.2216-.9866,29.6605,0,46.1612,1.6316,27.2249,5.9827,51.6522,11.295,72.7126,6.476-14.5322,20.5663-23.5988,35.3334-23.5988,1.5811,0,3.1621.0775,4.7368.3107,13.7868,1.8135,25.5688,11.6049,30.5965,25.179,8.5187-18.8066,17.1702-44.011,20.2817-74.2668,1.7645-17.3299,1.3471-33.0021,0-46.498-2.3589-2.2277-21.1924-19.5576-51.264-19.5576M368.3555,100.0258h0c33.2337,0,54.5779,18.7023,58.5432,22.4588,1.8403,1.7613,2.9787,4.0926,3.238,6.6056,1.6316,16.1378,1.6316,32.5096,0,48.6213-2.6941,26.4478-9.8468,52.5336-21.1924,77.5822-1.7075,3.7827-5.4894,6.2175-9.6065,6.2175-.1328,0-.2593,0-.3921-.0261-4.3005-.1557-8.0507-2.8751-9.5559-6.9163-3.6807-9.9994-12.1235-17.0445-22.0462-18.3663-1.1131-.1289-2.2261-.2071-3.3392-.2071-10.9093,0-20.9837,6.7867-25.67,17.3299-1.7139,3.8341-5.521,6.2689-9.6634,6.2689-.2846,0-.5945-.0261-.9044-.0522-4.4839-.3621-8.2404-3.5748-9.3535-7.9266-6.1914-24.5822-10.1061-49.7091-11.6049-74.681-.936-15.7497-.936-31.7064,0-47.4039.1518-2.668,1.3218-5.155,3.238-6.9946,5.1289-4.9218,24.1648-21.0596,54.268-22.4067,1.3471-.0775,2.7194-.1036,4.0412-.1036"/>
    <path class="cls-1" d="M345.4429,192.8162c.9044,7.823,12.3575,12.9259,25.5688,11.3978,13.2366-1.5028,23.2098-9.0926,22.2992-16.9157-.9044-7.823-12.3259-12.9259-25.5625-11.3978-13.2113,1.5028-23.2098,9.0926-22.3055,16.9157"/>
  </g>
  <g>
    <path class="cls-2" d="M43.9475,256.6012c-2.0743,0-3.94-1.1913-4.819-3.1083-11.1116-24.5308-18.1062-50.0727-20.7244-75.9506-1.6063-15.6722-1.6063-31.6803,0-47.5335.1328-1.2435.702-2.4095,1.6063-3.2902,3.6807-3.4965,23.6272-21.0335,54.8941-21.0335l3.8072.1036c28.206,1.2949,46.0276,16.3449,50.8466,20.93.9613.9328,1.5305,2.1763,1.6063,3.5234.936,15.4129.936,31.1625,0,46.7825-1.4482,24.6083-5.306,49.3984-11.4215,73.6707-.5692,2.1755-2.4348,3.7819-4.6862,3.989h-.4427c-2.0996,0-3.9906-1.2174-4.8443-3.1344-5.5463-12.4334-17.5117-20.4636-30.5143-20.4636-1.3218,0-2.6688.1036-4.0159.2846-11.8895,1.5803-21.9956,9.9211-26.3467,21.7592-.721,2.0206-2.5866,3.3937-4.7368,3.4712h-.2087Z"/>
    <path class="cls-1" d="M76.9045,110.9792c1.1637,0,2.3589.0261,3.5732.1036,27.8202,1.2435,44.4529,16.6303,47.4063,19.4541.8538,14.2216.9866,29.6605,0,46.1612-1.6316,27.2249-5.9827,51.6522-11.295,72.7126-6.476-14.5322-20.5663-23.5988-35.3334-23.5988-1.5811,0-3.1621.0775-4.7368.3107-13.7868,1.8135-25.5688,11.6049-30.5965,25.179-8.5187-18.8066-17.1702-44.011-20.2817-74.2668-1.7645-17.3299-1.3471-33.0021,0-46.498,2.3589-2.2277,21.1924-19.5576,51.264-19.5576M76.9045,100.4106h0c-33.2337,0-54.5779,18.7023-58.5432,22.4588-1.8403,1.7613-2.9787,4.0926-3.238,6.6056-1.6316,16.1378-1.6316,32.5096,0,48.6213,2.6941,26.4478,9.8468,52.5336,21.1924,77.5822,1.7075,3.7827,5.4894,6.2175,9.6065,6.2175.1328,0,.2593,0,.3921-.0261,4.3005-.1557,8.0507-2.8751,9.5559-6.9163,3.6807-9.9994,12.1235-17.0445,22.0462-18.3663,1.1131-.1289,2.2261-.2071,3.3392-.2071,10.9093,0,20.9837,6.7867,25.67,17.3299,1.7139,3.8341,5.521,6.2689,9.6634,6.2689.2846,0,.5945-.0261.9044-.0522,4.4839-.3621,8.2404-3.5748,9.3535-7.9266,6.1914-24.5822,10.1061-49.7091,11.6049-74.681.936-15.7497.936-31.7064,0-47.4039-.1518-2.668-1.3218-5.155-3.238-6.9946-5.1289-4.9218-24.1648-21.0596-54.268-22.4067-1.3471-.0775-2.7194-.1036-4.0412-.1036"/>
    <path class="cls-1" d="M99.8171,193.201c-.9044,7.823-12.3575,12.9259-25.5688,11.3978-13.2366-1.5028-23.2098-9.0926-22.2992-16.9157.9044-7.823,12.3259-12.9259,25.5625-11.3978,13.2113,1.5028,23.2098,9.0926,22.3055,16.9157"/>
  </g>
</svg>