<?xml version="1.0" encoding="UTF-8"?>
<svg id="beltér1" xmlns="http://www.w3.org/2000/svg" viewBox="0 0 445.26 281">
  <defs>
    <style>
      .cls-1 {
        fill: #261f20;
      }

      .cls-2 {
        fill: #fff;
      }
    </style>
  </defs>
  <g>
    <path class="cls-2" d="M60.3489,210.3065c-6.2916,0-12.2038-.3455-17.6147-.8831-.9416-.096-1.8036-.5177-2.4361-1.1888-2.7827-2.9362-16.6168-18.7484-15.5253-43.5015.9604-20.8964,12.1288-34.098,15.5253-37.6479.6699-.7297,1.6116-1.1513,2.6094-1.2098,5.5233-.3256,11.3184-.5177,17.3242-.5177,5.5842,0,11.3605.1722,17.3102.5177,18.2659,1.0939,36.6301,3.9539,54.5727,8.4818,1.7099.4228,2.9373,1.9383,2.9748,3.6846l1.4195,52.3463c.0375,1.5741-.862,3.0135-2.3002,3.6658-18.1722,8.2311-37.0939,13.4125-56.2639,15.3695-6.1417.6149-12.0305.8831-17.5959.8831"/>
    <path class="cls-1" d="M60.2271,130.4454c5.5093,0,11.2059.1722,17.0994.5177,20.1632,1.2087,38.2417,4.433,53.8419,8.3658.4778,17.4437.9416,34.905,1.4195,52.3475-13.9325,6.3127-32.6012,12.7226-55.0318,15.0252-6.0246.6137-11.7634.8632-17.1931.8632-6.1605,0-11.9368-.3268-17.2352-.8632-1.724-1.8036-15.5019-16.7902-14.4291-40.604.9416-20.6282,12.3209-32.9467,14.4291-35.1345,5.4531-.3256,11.1685-.5177,17.0994-.5177M60.2271,122.616c-6.1042,0-11.9555.1921-17.5772.5177-1.9582.1159-3.8181.9791-5.1813,2.3986-3.6447,3.7993-15.6002,17.904-16.5981,40.2011-1.1899,26.3073,13.6045,43.2321,16.5794,46.3604,1.2836,1.3621,3.0123,2.2065,4.8721,2.3986,5.9871.6137,12.0539.9206,18.041.9206,5.9684,0,12.0305-.3069,17.9988-.9206,19.5917-1.9957,38.9116-7.2731,57.4492-15.6775,2.8811-1.3047,4.6848-4.2022,4.6051-7.3492l-1.382-51.0041-.0375-1.3434c-.0937-3.5112-2.4923-6.5235-5.9075-7.3879-18.1722-4.5852-36.7894-7.4827-55.3036-8.5965-6.0433-.3642-11.8993-.5177-17.5585-.5177"/>
    <path class="cls-1" d="M137.5438,181.2534c.4579,13.8769-21.2714,26.8551-48.5307,28.9746-27.2547,2.1205-49.7328-7.4062-50.1908-21.2832-.4579-13.8769,21.2759-26.8541,48.5307-28.9746,27.2592-2.1194,49.7328,7.4062,50.1908,21.2832"/>
  </g>
  <g>
    <path class="cls-2" d="M381.6199,212.6688c-5.5655,0-11.4355-.2682-17.5772-.9018-19.1513-1.9383-38.0683-7.0997-56.2592-15.3508-1.4429-.6524-2.3424-2.0917-2.3049-3.6846l1.4007-51.79c.0562-1.7662,1.2883-3.7993,2.9936-4.2221,17.9239-4.5477,36.2881-7.4066,54.554-8.4818,5.9684-.3642,11.7634-.5364,17.3289-.5364,6.0059,0,11.8009.1909,17.3242.5364.9979.0586,1.9395.4802,2.6094,1.1899,3.3964,3.5499,14.5649,16.7714,15.5065,37.6678,1.1337,24.7917-12.7238,40.584-15.5065,43.4816-.6324.6723-1.4944,1.0939-2.4361,1.1899-5.4296.5563-11.3418.9018-17.6334.9018"/>
    <g>
      <path class="cls-1" d="M382.9227,130.4454c6.2483,0,12.2697.1921,18.0146.5177,2.221,2.1878,14.2093,14.5063,15.2014,35.1345,1.1302,23.8138-13.4048,38.8003-15.2014,40.604-5.5821.5364-11.6675.8632-18.1577.8632-5.7203,0-11.786-.2495-18.1133-.8632-23.6312-2.3026-43.2992-8.7125-57.9774-15.0252.5034-17.4613.992-34.9038,1.4955-52.3475,16.4352-3.9329,35.4813-7.1571,56.7238-8.3658,6.2089-.3455,12.2104-.5177,18.0146-.5177M382.9227,122.616c-5.9621,0-12.1315.1534-18.4983.5177-19.5051,1.1138-39.1188,4.0113-58.2636,8.5965-3.598.8643-6.1447,3.8766-6.2237,7.3879l-.0395,1.382-1.456,50.9655c-.1036,3.147,1.8163,6.0445,4.8516,7.3492,19.5298,8.4045,39.8838,13.6818,60.5241,15.6775,6.2878.5938,12.6546.9206,18.9622.9206s12.6991-.3268,18.982-.9206c1.9841-.1921,3.8053-1.0365,5.1576-2.3986,3.134-3.1282,18.7204-20.0531,17.4668-46.3604-1.071-22.2971-13.6664-36.4017-17.4865-40.2011-1.4362-1.4195-3.3956-2.2826-5.4587-2.3986-5.9226-.3256-12.0871-.5177-18.518-.5177"/>
      <path class="cls-1" d="M300.1728,184.626c.1389,13.0029,21.3709,23.8483,47.4274,24.2272,26.0387.3849,47.0241-9.8512,46.8855-22.8529-.1402-13.0233-21.3541-23.8737-47.4051-24.2345-26.0384-.3838-47.0467,9.8573-46.9078,22.8602"/>
    </g>
  </g>
</svg>