<?xml version="1.0" encoding="UTF-8"?>
<svg id="szem1" xmlns="http://www.w3.org/2000/svg" version="1.1" viewBox="0 0 420.712 281.8062">
  <!-- Generator: Adobe Illustrator 29.4.0, SVG Export Plug-In . SVG Version: 2.1.0 Build 152)  -->
  <g>
    <g id="_x32_.">
      <path d="M381.1341,260.0117c.6445-13.3951.6646-28.9425.689-46.9056.0151-21.7461-1.748-66.7144-2.8911-96.4607-.5542-14.2854-.9844-24.9364-.9844-27.4921,0-4.0001-7.0605-16.619-7.1265-16.714-26.3789-39.0325-94.905-52.9368-150.2551-52.9368-61.8411,0-143.9812,17.1266-171.6348,64.9366-.0466.0793-3.4607,7.4287-3.4607,7.4287-.4263.9205-.6316,1.7933-.7285,2.8096-1.6997,20.467-1.8867,68.8185-2.0928,163.0891" style="fill: #76c615; stroke: #261f20; stroke-miterlimit: 10; stroke-width: 16.4225px;"/>
    </g>
    <g>
      <path d="M55.9709,213.9652c-6.0213,0-11.6794-.3307-16.8578-.8451-.9012-.0919-1.7261-.4954-2.3314-1.1377-2.6632-2.81-15.9029-17.9428-14.8582-41.6324.9191-19.9985,11.6077-32.6329,14.8582-36.0303.6411-.6983,1.5423-1.1018,2.4973-1.1579,5.286-.3116,10.8321-.4954,16.5799-.4954,5.3443,0,10.8724.1648,16.5664.4954,17.481,1.0469,35.0562,3.784,52.2279,8.1173,1.6365.4046,2.8111,1.855,2.847,3.5262l1.3585,50.0972c.0359,1.5064-.825,2.884-2.2014,3.5083-17.3914,7.8775-35.5001,12.8362-53.8465,14.7091-5.8778.5885-11.5135.8451-16.8399.8451" style="fill: #fff;"/>
      <path d="M55.8543,137.5355c5.2726,0,10.7245.1648,16.3647.4954,19.2968,1.1567,36.5986,4.2425,51.5285,8.0064.4573,16.6942.9012,33.4052,1.3585,50.0983-13.3338,6.0415-31.2005,12.176-52.6673,14.3796-5.7657.5873-11.258.8261-16.4543.8261-5.8958,0-11.4239-.3127-16.4947-.8261-1.6499-1.7261-14.8358-16.0687-13.8091-38.8593.9012-19.7418,11.7915-31.5311,13.8091-33.6249,5.2188-.3116,10.6886-.4954,16.3647-.4954M55.8543,130.0425c-5.842,0-11.4418.1838-16.822.4954-1.8741.111-3.654.937-4.9587,2.2955-3.4881,3.6361-14.9299,17.1347-15.8849,38.4738-1.1388,25.1769,13.02,41.3746,15.867,44.3684,1.2285,1.3036,2.8829,2.1117,4.6628,2.2955,5.7299.5873,11.536.881,17.2658.881,5.7119,0,11.5135-.2937,17.2255-.881,18.7499-1.91,37.2397-6.9606,54.9808-15.0039,2.7573-1.2486,4.4835-4.0217,4.4072-7.0334l-1.3226-48.8126-.0359-1.2856c-.0897-3.3604-2.3852-6.2432-5.6537-7.0704-17.3914-4.3882-35.2087-7.1612-52.9273-8.2272-5.7837-.3486-11.388-.4954-16.804-.4954" style="fill: #261f20;"/>
      <path d="M129.8489,186.1604c.4383,13.2807-20.3575,25.7013-46.4455,27.7296-26.0837,2.0294-47.596-7.088-48.0342-20.3687-.4383-13.2807,20.3618-25.7003,46.4455-27.7296,26.088-2.0284,47.596,7.088,48.0342,20.3687" style="fill: #261f20;"/>
    </g>
    <g>
      <path d="M361.5913,216.2259c-5.3264,0-10.9441-.2567-16.822-.8631-18.3284-1.855-36.4327-6.7947-53.842-14.6912-1.3809-.6243-2.2417-2.0019-2.2059-3.5262l1.3406-49.5647c.0538-1.6903,1.233-3.6361,2.8649-4.0407,17.1537-4.3523,34.7289-7.0884,52.21-8.1173,5.7119-.3486,11.258-.5134,16.5843-.5134,5.7478,0,11.2939.1827,16.5799.5134.955.056,1.8562.4596,2.4973,1.1388,3.2505,3.3973,13.9391,16.0508,14.8403,36.0493,1.085,23.7265-12.1771,38.8403-14.8403,41.6133-.6053.6434-1.4302,1.0469-2.3314,1.1388-5.1963.5324-10.8545.8631-16.8758.8631" style="fill: #fff;"/>
      <g>
        <path d="M362.8382,137.5355c5.9799,0,11.7425.1838,17.2406.4954,2.1255,2.0938,13.5988,13.8831,14.5482,33.6249,1.0817,22.7906-12.8289,37.1332-14.5482,38.8593-5.3422.5134-11.1662.8261-17.3775.8261-5.4745,0-11.2796-.2387-17.335-.8261-22.6158-2.2036-41.4388-8.3381-55.4863-14.3796.4818-16.711.9494-33.4041,1.4312-50.0983,15.7291-3.7639,33.9568-6.8496,54.2865-8.0064,5.9421-.3307,11.6858-.4954,17.2406-.4954M362.8382,130.0425c-5.7059,0-11.6102.1468-17.7035.4954-18.667,1.0659-37.438,3.839-55.7602,8.2272-3.4434.8272-5.8807,3.7101-5.9563,7.0704l-.0378,1.3226-1.3934,48.7756c-.0992,3.0118,1.7382,5.7848,4.6431,7.0334,18.6907,8.0433,38.1701,13.094,57.9236,15.0039,6.0177.5683,12.1109.881,18.1475.881s12.1534-.3127,18.1664-.881c1.8988-.1838,3.6418-.992,4.936-2.2955,2.9994-2.9938,17.916-19.1915,16.7163-44.3684-1.025-21.3391-13.0792-34.8377-16.7352-38.4738-1.3745-1.3585-3.2497-2.1846-5.2241-2.2955-5.6681-.3116-11.5677-.4954-17.7224-.4954" style="fill: #261f20;"/>
        <path d="M283.6438,189.3881c.133,12.4442,20.4527,22.8236,45.3896,23.1862,24.9199.3684,45.0036-9.4279,44.871-21.871-.1342-12.4637-20.4366-22.8479-45.3682-23.1932-24.9196-.3673-45.0252,9.4338-44.8923,21.878" style="fill: #261f20;"/>
      </g>
    </g>
    <g>
      <path d="M116.4407,255.8872c3.2249-.3579,6.4612-.5577,9.7371-.3372,8.4163.5667,16.3496,1.251,24.8213.6929,3.0938-.2039,6.1909-.3135,9.2898-.3496-6.6377-21.4346-10.4839-41.8452.2419-54.9713,7.5876-9.3025,22.9375-15.0961,40.0312-15.0961,16.4426,0,31.1724,5.4448,38.4114,14.2068,11.2051,13.5776,5.7751,35.938-1.4592,58.7566,13.5403-.8406,27.1553.9659,40.6367-.7161,5.1128-.6379,10.4163-1.0824,15.1338-.0615-.1694-7.3354-.4321-15.0466-.7087-23.1057-1.9338-55.9208-2.9026-83.9844-18.4888-100.0164-14.2571-14.6667-36.4778-22.7457-62.5427-22.7457s-51.6958,8.1749-70.2854,22.4125c-27.8916,21.3914-32.5608,57.2583-31.8083,121.4519,2.2668-.3335,4.5684-.3718,6.99-.1211Z" style="fill: #261f20;"/>
      <path d="M162.8353,255.8836c-6.5247-20.8918-10.4434-40.7161-.5208-52.8618,7.0295-8.6185,21.4766-13.9839,37.6829-13.9839,15.5708,0,29.3938,5.032,36.0786,13.111,10.3872,12.5775,4.8079,34.5463-2.3379,56.9501,2.1611-.2217,4.3247-.3633,6.49-.4453,7.2661-23.1428,12.4673-45.875.498-60.3616-8.4131-10.1909-24.4915-15.2859-40.7288-15.2859-16.6985,0-33.5559,5.3962-42.3835,16.1907-11.4277,14-7.7197,35.0603-1.0862,56.7823,2.1016-.0675,4.2043-.098,6.3076-.0956Z" style="fill: #261f20;"/>
      <path d="M126.1778,255.5501c3.564.24,7.0408.4957,10.509.6746,3.334-3.3716,6.1824-7.2651,6.6428-12.4159,1.333-14.9207-18.7795-24.0004-15.1252-33.3339,3.1584-8.0315,19.4731-4.8412,22.3953-12.8097,3.5728-9.6979-17.063-24.0634-14.4121-27.9366,2.9683-4.349,28.3977,14.3975,40.0623,6.1277,9.7773-6.9366,3.7629-28.4763,9.2385-29.8733,5.9834-1.5394,13.4587,24.3337,24.2205,23.8726,9.9866-.4119,15.3845-23.1906,20.4148-22.0154,4.8557,1.1433-.0969,22.5239,8.9517,27.7303,8.3667,4.8092,22.5889-7.6508,25.2397-4.4923,3.0149,3.6349-16.5396,19.2222-12.5249,29.635,3.7627,9.7937,26.2236,9.3489,26.0493,12.8726-.1123,2.2389-9.1145.9843-15.4622,6.6982-8.793,7.9211-9.572,26.6038-1.3796,35.3811,1.2356,1.3258,2.6018,2.334,3.989,3.146,4.3972-.0194,8.7881-.1918,13.1643-.7378,1.917-.2393,3.8611-.4512,5.7908-.5688.0767-4.1245.1567-8.486.2454-13.125.7441-39.6981,1.5076-67.6667-14.3809-91.6981-3.2708-4.9362-5.9526-7.7621-6.9368-8.762-21.2559-21.7614-55.6833-19.7299-62.3025-19.3336-1.4453.0795-2.5073.1753-3.1272.2383-8.3008.6986-42.6008,3.6196-62.6165,30.0322-11.1606,14.7299-12.6836,29.9043-15.6831,59.6663-.7549,7.5386-.3037,26.9346.1233,41.1051,2.2917-.1726,4.5928-.2338,6.9143-.0775Z" style="fill: #fff;"/>
    </g>
  </g>
  <rect x="28.2458" y="255.5922" width="362.74" height="6.7116" style="fill: #aad7db;"/>
</svg>