<?xml version="1.0" encoding="UTF-8"?>
<svg id="szem2" xmlns="http://www.w3.org/2000/svg" viewBox="0 0 445.26 281">
  <defs>
    <style>
      .cls-1 {
        fill: #261f20;
      }

      .cls-2 {
        fill: #fff;
      }

      .cls-3 {
        fill: none;
        stroke: #261f20;
        stroke-linecap: round;
        stroke-linejoin: round;
        stroke-width: 21.1508px;
      }
    </style>
  </defs>
  <path class="cls-2" d="M67.0223,216.7011c-9.001,0-17.4229-.3527-25.1991-.9489-5.9342-3.9345-26.5237-21.4611-24.7956-49.8126,1.4764-23.8225,17.9879-38.3369,23.0248-42.2168,9.7986-1.0846,18.1018-1.2751,26.7373-1.2751,8.0278,0,16.331.1623,24.9285.5432,26.2293,1.1658,52.639,4.2045,78.4411,9.0349,1.9654.3792,3.4608,2.6578,3.5605,5.4249l2.0414,56.135c.1139,2.7671-1.2248,5.2361-3.1523,5.8869-25.9587,8.7368-53.0283,14.2163-80.4635,16.2796-8.7874.6773-17.1713.9489-25.1232.9489"/>
  <path class="cls-1" d="M66.8182,128.2055c7.9709,0,16.2361.1904,24.7529.5432,29.2249,1.3016,55.421,4.7741,78.0138,8.9802.7026,18.7205,1.3815,37.441,2.0651,56.1615-20.1859,6.7546-47.2365,13.6467-79.7276,16.1157-8.7115.6508-17.0336.9224-24.9095.9224-8.9251,0-17.2663-.3527-24.9665-.9224-2.4924-1.9259-22.4599-18.0151-20.9075-43.573,1.3625-22.1119,17.8739-35.3247,20.9075-37.6844,7.9139-.3262,16.1791-.5432,24.7719-.5432M66.8182,116.6752c-8.6925,0-17.0336.1904-25.0282.5432-1.3198.0811-2.6016.5696-3.7504,1.4374-7.0214,5.4265-23.547,20.8633-25.1232,46.8004-1.9654,31.9068,20.5704,51.0893,25.1042,54.6148,1.1061.8694,2.331,1.3579,3.5748,1.439,8.4219.6508,16.9767.977,25.4175.977s16.9767-.3262,25.3558-.977c27.6725-2.0898,54.9937-7.5975,81.2041-16.4154,3.8691-1.3016,6.5324-6.2396,6.3378-11.8019l-1.0302-28.1346-1.0302-27.9988c-.1946-5.5623-3.2092-10.1195-7.1543-10.8531-25.9397-4.8552-52.4634-7.9221-78.8494-9.0878-8.6165-.3809-16.9577-.5432-25.0282-.5432"/>
  <path class="cls-1" d="M114.0969,160.9998c2.274,7.8368-4.3581,16.6455-14.8166,19.6791-10.4632,3.0336-20.7888-.8367-23.0628-8.6735-2.274-7.8166,4.3534-16.6254,14.8166-19.6779,10.4632-3.0336,20.7888.8355,23.0628,8.6723"/>
  <path class="cls-2" d="M387.1489,214.4733c7.7632-.2651,15.0148-.8657,21.7012-1.6906,4.9838-4.107,22.1434-22.2299,19.6853-50.514-2.0866-23.7651-16.8227-37.7846-21.2994-41.5139-8.4881-.7954-15.6559-.7411-23.1038-.4867-6.9238.2365-14.0796.6433-21.4817,1.2772-22.5824,1.9378-45.2564,5.7526-67.3451,11.3403-1.6822.4369-2.8942,2.7582-2.8857,5.5266l.1555,56.1624c-.0038,2.7688,1.2351,5.197,2.9197,5.7906,22.687,7.967,46.2209,12.646,69.9535,13.8999,7.602.418,14.8422.4425,21.7005.2082"/>
  <path class="cls-1" d="M385.2291,125.9917c-6.7558.2307-13.7545.6603-20.961,1.2594-24.7254,2.1468-46.8095,6.3756-65.8147,11.2333.0435,18.7299.1071,37.4592.1667,56.1885,17.3393,6.1663,40.5015,12.2713,68.1239,13.7983,7.4057.3982,14.4685.4287,21.1438.2007,7.5645-.2584,14.6221-.8523,21.1291-1.6446,2.0467-1.9969,18.4211-18.6547,16.233-44.1528-1.9096-22.0596-16.355-34.7867-19.0067-37.0572-6.7186-.0969-13.7313-.0745-21.0141.1743M384.8355,114.4681c7.3674-.2516,14.4435-.3028,21.2314-.1817,1.1214.0429,2.2244.494,3.2278,1.328,6.1363,5.2201,20.6696,20.1695,22.8909,46.0459,2.7549,31.8313-15.6907,51.655-19.413,55.3097-.9078.9009-1.9293,1.4246-2.9807,1.5417-7.1158.8942-14.3553,1.4679-21.5095,1.7122-7.1541.2443-14.3998.1654-21.5239-.2424-23.5254-1.2875-46.8697-6.0011-69.3855-14.0552-3.3237-1.1888-5.7496-6.0469-5.7745-11.6116l-.0872-28.148-.0826-28.0123c-.0249-5.5647,2.3746-10.2065,5.6932-11.0539,21.8197-5.6033,44.1953-9.4361,66.5192-11.3651,7.29-.6301,14.3541-1.0337,21.1943-1.2674"/>
  <path class="cls-1" d="M310.8531,163.267c-1.7593,7.9014,4.4525,16.5032,13.8775,19.2166,9.4293,2.7133,18.5002-1.4691,20.2594-9.3705,1.76-7.8812-4.4476-16.4831-13.8775-19.2154-9.4293-2.7133-18.5002,1.4679-20.2595,9.3693"/>
  <line class="cls-3" x1="408.9354" y1="99.7431" x2="318.1357" y2="104.5441"/>
  <line class="cls-3" x1="135.9481" y1="100.9939" x2="45.1484" y2="105.7949"/>
</svg>