<?xml version="1.0" encoding="UTF-8"?>
<svg id="szem2" xmlns="http://www.w3.org/2000/svg" viewBox="0 0 445.26 281">
  <defs>
    <style>
      .cls-1 {
        fill: #261f20;
      }

      .cls-2 {
        fill: #fff;
      }

      .cls-3 {
        stroke-width: 20.7318px;
      }

      .cls-3, .cls-4 {
        fill: none;
        stroke: #261f20;
        stroke-linecap: round;
        stroke-linejoin: round;
      }

      .cls-4 {
        stroke-width: 20.2866px;
      }
    </style>
  </defs>
  <path class="cls-2" d="M378.7534,205.7917c-8.8434,0-18.1856-.228-27.9541-.7675-30.4846-1.6605-60.5974-6.039-89.463-13.0324-2.1179-.4978-3.5646-2.656-3.4376-5.0422l2.2857-45.0724c.1134-2.366,1.7279-4.2956,3.8276-4.5654,28.7386-3.8808,58.085-6.3088,87.2681-7.2423,9.5644-.3116,18.8341-.4363,27.7908-.4363,9.5644,0,18.7978.1457,27.6185.4363.6349.0203,1.2471.1862,1.8231.4978,5.5917,3.1126,24.0358,14.7961,25.6503,34.157,1.9727,23.0549-21.0064,37.1867-25.6321,39.7806-10.3853.9962-19.7638,1.2868-29.7772,1.2868"/>
  <path class="cls-1" d="M378.9757,130.1475c9.5644,0,18.7797.1764,27.5867.4856,3.3786,2.0083,21.7501,13.2849,23.2739,32.1535,1.7279,21.8252-20.5075,35.5519-23.2739,37.1851-8.5667.5078-17.8545.8162-27.7908.8162-8.7663,0-18.0359-.2424-27.75-.8162-36.1671-2.0965-66.2798-7.9665-88.7556-13.7489.7619-15.9774,1.5238-31.9549,2.2857-47.9323,25.1514-3.6192,54.33-6.5542,86.8599-7.6574,9.4919-.3313,18.6844-.4856,27.5641-.4856M378.9757,119.7754c-8.9522,0-18.24.1542-27.8271.4633-29.3282.9934-58.8287,3.597-87.6581,7.7463-4.1995.5953-7.4284,4.7002-7.6688,9.7101l-1.1338,24.0322-1.1519,23.9002c-.2449,5.0975,2.6757,9.6657,6.8706,10.7473,29.1287,7.4809,59.4818,12.1818,90.1841,13.9691,9.3286.5516,18.8205.8162,28.1808.8162s18.8522-.2647,28.2171-.8162c1.2063-.066,2.3945-.4411,3.492-1.0816,5.0702-3.0232,30.2579-19.53,28.0493-47.4467-1.805-22.5977-20.2309-35.8388-28.0675-40.4729-1.1338-.6842-2.3809-1.0594-3.6598-1.1038-8.8796-.2869-18.1674-.4633-27.8271-.4633"/>
  <path class="cls-1" d="M313.3745,164.5776c-1.7879,6.1616,3.4265,13.087,11.6495,15.4722,8.2267,2.3851,16.3452-.6574,18.1331-6.8186,1.7879-6.1462-3.4228-13.0721-11.6495-15.4727-8.2267-2.3847-16.3452.6574-18.1331,6.819"/>
  <path class="cls-2" d="M66.5066,209.1799c8.8434,0,18.1856-.228,27.9541-.7675,30.4846-1.6605,60.5974-6.039,89.463-13.0324,2.1179-.4978,3.5646-2.656,3.4376-5.0422l-2.2857-45.0724c-.1134-2.366-1.7279-4.2956-3.8276-4.5654-28.7386-3.8808-58.085-6.3088-87.2681-7.2423-9.5644-.3116-18.8341-.4363-27.7908-.4363-9.5644,0-18.7978.1457-27.6185.4363-.6349.0203-1.2471.1862-1.8231.4978-5.5917,3.1126-24.0358,14.7961-25.6503,34.157-1.9727,23.0549,21.0064,37.1867,25.6321,39.7806,10.3853.9962,19.7638,1.2868,29.7772,1.2868"/>
  <path class="cls-1" d="M66.2843,133.5358c-9.5644,0-18.7797.1764-27.5867.4856-3.3786,2.0083-21.7501,13.2849-23.2739,32.1535-1.7279,21.8252,20.5075,35.5519,23.2739,37.1851,8.5667.5078,17.8545.8162,27.7908.8162,8.7663,0,18.0359-.2424,27.75-.8162,36.1671-2.0965,66.2798-7.9665,88.7556-13.7489-.7619-15.9774-1.5238-31.9549-2.2857-47.9323-25.1514-3.6192-54.33-6.5542-86.8599-7.6574-9.4919-.3313-18.6844-.4856-27.5641-.4856M66.2843,123.1636c8.9522,0,18.24.1542,27.8271.4633,29.3282.9934,58.8287,3.597,87.6581,7.7463,4.1995.5953,7.4284,4.7002,7.6688,9.7101l1.1338,24.0322,1.1519,23.9002c.2449,5.0975-2.6757,9.6657-6.8706,10.7473-29.1287,7.4809-59.4818,12.1818-90.1841,13.9691-9.3286.5516-18.8205.8162-28.1808.8162s-18.8522-.2647-28.2171-.8162c-1.2063-.066-2.3945-.4411-3.492-1.0816-5.0702-3.0232-30.2579-19.53-28.0493-47.4467,1.805-22.5977,20.2309-35.8388,28.0675-40.4729,1.1338-.6842,2.3809-1.0594,3.6598-1.1038,8.8796-.2869,18.1674-.4633,27.8271-.4633"/>
  <path class="cls-1" d="M131.8855,167.9658c1.7879,6.1616-3.4265,13.087-11.6495,15.4722-8.2267,2.3851-16.3452-.6574-18.1331-6.8186-1.7879-6.1462,3.4228-13.0721,11.6495-15.4727,8.2267-2.3847,16.3452.6574,18.1331,6.819"/>
  <path class="cls-1" d="M185.0131,276.8835c-9.3008-27.5439-18.0801-55.5205-4.3965-72.2671,8.0117-9.8218,24.2178-15.9385,42.2656-15.9385,17.3613,0,32.9131,5.7485,40.5566,14.9995,13.457,16.3071,4.1895,44.6128-4.7588,71.9805-.1338.4092-.2666.8169-.4004,1.2256h62.6914c.0391-8.5142-.084-21.1328-.9375-36.3857-3.1396-56.1113-4.71-84.167-21.8213-103.3804-21.085-23.6753-53.667-25.6309-63.7344-26.2354-2.5908-.1558-41.7256-1.249-74.209,23.6641-31.4336,24.1079-34.9346,65.6162-33.3535,142.3374h58.0977Z"/>
  <path class="cls-1" d="M254.9232,276.8836h6.7152c9.2186-28.1946,18.8677-57.5465,4.2466-75.2427-8.8827-10.7595-25.8583-16.1393-43.0025-16.1393-17.6307,0-35.429,5.6979-44.7492,17.0947-14.5739,17.854-5.8321,46.5847,3.5114,74.2874h6.7473c-9.158-27.037-18.0442-54.6443-5.2955-70.2489,7.422-9.0997,22.675-14.7646,39.7861-14.7646,16.4401,0,31.0345,5.3134,38.0928,13.8431,12.3325,14.9322,3.3509,42.4009-5.3312,68.9637-.2406.7348-.4813,1.4705-.721,2.2066Z"/>
  <path class="cls-1" d="M130.094,276.8838c-1.5801-75.5293,1.7559-116.52,32.1191-139.7983,13.7324-10.5278,39.375-25.5781,72.2646-23.0112,7.8018.6089,39.498,3.083,60.3994,26.8101,17.248,19.5801,18.8232,46.3555,21.9727,99.9062.8896,15.1216.9824,27.6382.9092,36.0933,2.5547.0098,5.1094.02,7.6641.0298h0c-.0615-59.3535-.7871-66.0107-2.2393-79.3252-.1191-1.0923-.1748-1.6392-.2598-2.3042-2.0078-15.73-5.166-40.4712-22.7764-60.0469-22.5547-25.0708-55.5898-26.9688-65.6699-27.5479-3.167-.1821-42.9141-1.1401-76.1523,24.3345-32.6699,25.0391-36.2295,67.3022-34.6133,144.8599h6.3818Z"/>
  <path class="cls-2" d="M143.6989,276.8836c2.2209-8.6238,18.1753-14.0138,19.3525-27.1849,1.4072-15.7534-19.8276-25.3401-15.9695-35.1946,3.3349-8.4798,20.5601-5.1115,23.6455-13.5249,3.7725-10.2391-18.0157-25.4065-15.2165-29.4962,3.1335-4.5915,29.9828,15.2013,42.2984,6.4697,10.3228-7.3239,3.973-30.0657,9.7542-31.5411,6.3178-1.6251,14.2103,25.6926,25.5723,25.2055,10.5447-.4349,16.244-24.485,21.5547-23.2444,5.1271,1.2071-.1025,23.7814,9.4521,29.2783,8.8336,5.0776,23.8496-8.0779,26.648-4.743,3.1834,3.838-17.4632,20.2954-13.2237,31.2894,3.973,10.3407,27.688,9.871,27.5035,13.5913-.1185,2.3639-9.6232,1.0391-16.3251,7.0722-9.2846,8.3631-10.1063,28.089-1.4571,37.3562,6.2482,6.7041,15.6344,6.0165,15.687,9.1509.0365,2.4771-5.8829,3.4325-11.9092,5.5157h20.2027c.1586-7.7981.3128-16.6045.5035-26.5824.786-41.9143,1.5917-71.444-15.1835-96.8171-3.4534-5.2118-6.2848-8.1955-7.3239-9.2512-22.4423-22.9762-58.792-20.8315-65.7808-20.4131-1.5257.0842-2.6469.1854-3.3019.2518-8.7641.7375-44.9792,3.8215-66.1123,31.7087-11.7835,15.5524-13.3913,31.5741-16.5586,62.9971-1.3725,13.7143-.0036,11.1374.6105,58.1062h5.5772Z"/>
  <line class="cls-4" x1="384.6436" y1="97.4387" x2="287.7594" y2="101.578"/>
  <line class="cls-3" x1="61.2432" y1="99.9789" x2="150.2441" y2="104.6848"/>
</svg>