<?xml version="1.0" encoding="UTF-8"?>
<svg id="szem2" xmlns="http://www.w3.org/2000/svg" version="1.1" viewBox="0 0 420.712 281.8062">
  <!-- Generator: Adobe Illustrator 29.4.0, SVG Export Plug-In . SVG Version: 2.1.0 Build 152)  -->
  <g>
    <path d="M385.5385,260.3136c.6445-13.3951.6646-28.9425.689-46.9056.0151-21.7461-1.748-66.7144-2.8911-96.4607-.5542-14.2854-.9844-24.9364-.9844-27.4921,0-4.0001-7.0605-16.619-7.1265-16.714-26.3789-39.0325-94.905-52.9368-150.2551-52.9368-61.8411,0-143.9812,17.1266-171.6348,64.9366-.0466.0793-3.4607,7.4287-3.4607,7.4287-.4263.9205-.6316,1.7933-.7285,2.8096-1.6997,20.467-1.8867,68.8185-2.0928,163.0891" style="fill: #76c615; stroke: #261f20; stroke-miterlimit: 10; stroke-width: 16.4225px;"/>
    <path d="M346.8866,132.1013c7.8036.1494,15.0964.7493,21.8249,1.568,5.053,4.8944,22.4814,26.4235,20.3262,60.7231-1.7493,27.9313-15.2105,44.7954-20.908,50.7657-.5163.5156-1.0776.8007-1.6503.8228-6.9022.2951-14.1059.42-21.5926.2766-6.964-.1333-14.1582-.5017-21.5991-1.1034-22.6966-1.8475-45.5226-5.9649-67.7809-12.2076-1.6952-.4928-2.9388-3.2774-2.9605-6.6625l-.4853-68.0002c-.0388-3.3523,1.1832-6.3194,2.8694-7.0754,22.7573-10.1466,46.3694-16.3325,70.1368-18.3747,7.6335-.6431,14.9255-.8646,21.8195-.7326" style="fill: #fff;"/>
    <path d="M345.0938,234.3682c-6.9105-.1323-14.072-.488-21.4481-1.034-25.3086-1.9795-47.9435-6.3988-67.4385-11.5992-.1815-21.4925-.3589-42.9849-.5569-64.4777,17.649-7.4167,41.2524-14.8752,69.4755-17.1691,7.5669-.6022,14.7879-.7757,21.6161-.645,7.7378.1481,14.9616.6913,21.625,1.4727,2.1185,2.2522,19.0764,21.0444,17.1692,50.3446-1.6669,25.35-16.272,40.2373-18.9539,42.8956-6.8683.242-14.0387.3548-21.4884.2122M344.8406,247.5989c7.5361.1443,14.7718.0651,21.7107-.2069,1.146-.0722,2.268-.6105,3.2831-1.588,6.2065-6.1103,20.8729-23.5501,22.809-53.286,2.4047-36.5784-16.7119-58.9628-20.565-63.0853-.9399-1.014-1.9746-1.5946-3.0676-1.7096-7.2872-.8865-14.6968-1.4019-22.0148-1.5419-7.3015-.1398-14.709.092-22.0042.6993-24.0207,1.9391-47.8284,7.8046-70.7621,17.4876-3.383,1.4303-5.8011,7.0827-5.7374,13.4375l.5369,64.446c.0466,6.3858,2.56,11.666,5.9642,12.5713,22.3823,6.0036,45.3102,9.9619,68.1605,11.7384,7.4619.5781,14.6899.9037,21.6868,1.0376" style="fill: #261f20;"/>
    <path d="M305.8352,190.5893c-1.3827-8.8493,3.332-18.6756,10.5328-21.953,7.2041-3.2774,14.1655,1.2125,15.5482,10.0611,1.3831,8.8273-3.3283,18.6542-10.5328,21.9537-7.2041,3.2767-14.1655-1.2125-15.5482-10.0618" style="fill: #261f20;"/>
    <path d="M72.16,133.2299c-7.518.1439-14.544.7144-21.0265,1.492-4.8696,4.6374-21.6667,25.0347-19.601,57.522,1.6766,26.4554,14.6399,42.4246,20.1269,48.0777.4972.4882,1.0379.7581,1.5897.7789,6.6495.2774,13.5894.3934,20.8021.2553,6.7091-.1284,13.6401-.4796,20.8088-1.0518,21.8663-1.7569,43.8581-5.664,65.3036-11.5838,1.6333-.4673,2.8323-3.1052,2.8542-6.3115l.4887-64.4085c.0384-3.1752-1.138-5.9853-2.7621-6.7008-21.9212-9.6036-44.667-15.4554-67.5637-17.3824-7.3539-.6068-14.3789-.8143-21.0206-.6871" style="fill: #fff;"/>
    <path d="M72.6825,230.1169c6.4845-.1241,13.2045-.4598,20.1259-.9758,23.7482-1.8706,44.9872-6.0527,63.2796-10.975.1667-20.357.3295-40.714.5117-61.0713-16.5623-7.0278-38.7121-14.0963-65.1959-16.2738-7.1006-.5717-13.8765-.7372-20.2838-.6146-7.2608.139-14.0392.6522-20.2918,1.3913-1.9875,2.1328-17.897,19.9294-16.1024,47.682,1.5684,24.0111,15.2758,38.1143,17.7928,40.6326,6.4449.2304,13.1734.3384,20.1639.2046M72.9223,242.6487c-7.0716.1354-13.8613.0592-20.3724-.1997-1.0754-.0685-2.1283-.5786-3.081-1.5047-5.825-5.7885-19.5902-22.3095-21.412-50.4747-2.2627-34.6464,15.6718-55.845,19.2868-59.7491.8818-.9603,1.8526-1.51,2.8783-1.6188,6.8379-.8385,13.7907-1.3253,20.6576-1.4568,6.8514-.1311,13.8023.0896,20.648.6661,22.5404,1.8407,44.8815,7.4004,66.4033,16.5757,3.1747,1.3553,5.4447,6.7095,5.386,12.7286l-.4929,61.0412c-.0426,6.0485-2.4003,11.0493-5.5945,11.9062-21.0017,5.6827-42.5156,9.428-63.9571,11.1068-7.0019.5463-13.7843.8535-20.3499.9792" style="fill: #261f20;"/>
    <path d="M106.6795,190.7038c1.3348-8.3823-3.2042-17.6881-10.1404-20.7902-6.9394-3.102-13.6474,1.1528-14.9822,9.5345-1.3352,8.3614,3.2007,17.6679,10.1404,20.7908,6.9393,3.1014,13.6474-1.1528,14.9822-9.5351" style="fill: #261f20;"/>
    <path d="M122.925,258.7902c3.2249-.3579,6.4612-.5577,9.7371-.3372,8.4163.5667,16.3496,1.251,24.8213.6929,3.0938-.2039,6.1909-.3135,9.2898-.3496-6.6377-21.4346-10.4839-41.8452.2419-54.9713,7.5876-9.3025,22.9375-15.0961,40.0312-15.0961,16.4426,0,31.1724,5.4448,38.4114,14.2068,11.2051,13.5776,5.7751,35.938-1.4592,58.7566,13.5403-.8406,27.1553.9659,40.6367-.7161,5.1128-.6379,10.4163-1.0824,15.1338-.0615-.1694-7.3354-.4321-15.0466-.7087-23.1057-1.9338-55.9208-2.9026-83.9844-18.4888-100.0164-14.2571-14.6667-36.4778-22.7457-62.5427-22.7457s-51.6958,8.1749-70.2854,22.4125c-27.8916,21.3914-32.5608,57.2583-31.8083,121.4519,2.2668-.3335,4.5684-.3718,6.99-.1211Z" style="fill: #261f20;"/>
    <path d="M169.3195,258.7866c-6.5247-20.8918-10.4434-40.7161-.5208-52.8618,7.0295-8.6185,21.4766-13.9839,37.6829-13.9839,15.5708,0,29.3938,5.032,36.0786,13.111,10.3872,12.5775,4.8079,34.5463-2.3379,56.9501,2.1611-.2217,4.3247-.3633,6.49-.4453,7.2661-23.1428,12.4673-45.875.498-60.3616-8.4131-10.1909-24.4915-15.2859-40.7288-15.2859-16.6985,0-33.5559,5.3962-42.3835,16.1907-11.4277,14-7.7197,35.0603-1.0862,56.7823,2.1016-.0675,4.2043-.098,6.3076-.0956Z" style="fill: #261f20;"/>
    <path d="M132.6621,258.4531c3.564.24,7.0408.4957,10.509.6746,3.334-3.3716,6.1824-7.2651,6.6428-12.4159,1.333-14.9207-18.7795-24.0004-15.1252-33.3339,3.1584-8.0315,19.4731-4.8412,22.3953-12.8097,3.5728-9.6979-17.063-24.0634-14.4121-27.9366,2.9683-4.349,28.3977,14.3975,40.0623,6.1277,9.7773-6.9366,3.7629-28.4763,9.2385-29.8733,5.9834-1.5394,13.4587,24.3337,24.2205,23.8726,9.9866-.4119,15.3845-23.1906,20.4148-22.0154,4.8557,1.1433-.0969,22.5239,8.9517,27.7303,8.3667,4.8092,22.5889-7.6508,25.2397-4.4923,3.0149,3.6349-16.5396,19.2222-12.5249,29.635,3.7627,9.7937,26.2236,9.3489,26.0493,12.8726-.1123,2.2389-9.1145.9843-15.4622,6.6982-8.793,7.9211-9.572,26.6038-1.3796,35.3811,1.2356,1.3258,2.6018,2.334,3.989,3.146,4.3972-.0194,8.7881-.1918,13.1643-.7378,1.917-.2393,3.8611-.4512,5.7908-.5688.0767-4.1245.1567-8.486.2454-13.125.7441-39.6981,1.5076-67.6667-14.3809-91.6981-3.2708-4.9362-5.9526-7.7621-6.9368-8.762-21.2559-21.7614-55.6833-19.7299-62.3025-19.3336-1.4453.0795-2.5073.1753-3.1272.2383-8.3008.6986-42.6008,3.6196-62.6165,30.0322-11.1606,14.7299-12.6836,29.9043-15.6831,59.6663-.7549,7.5386-.3037,26.9346.1233,41.1051,2.2917-.1726,4.5928-.2338,6.9143-.0775Z" style="fill: #fff;"/>
    <line x1="77.0149" y1="69.1771" x2="136.6188" y2="135.4355" style="fill: none; stroke: #261f20; stroke-linecap: round; stroke-linejoin: round; stroke-width: 20.7318px;"/>
    <path d="M348.7797,59.5316c-22.4941,24.7529-44.9883,49.5058-67.4824,74.2587" style="fill: none; stroke: #261f20; stroke-linecap: round; stroke-linejoin: round; stroke-width: 20.7318px;"/>
  </g>
  <rect x="27.5626" y="257.0155" width="360.1193" height="4.8992" style="fill: #aad7db;"/>
</svg>