<?xml version="1.0" encoding="UTF-8"?>
<svg id="beltér1" xmlns="http://www.w3.org/2000/svg" viewBox="0 0 445.26 281">
  <defs>
    <style>
      .cls-1 {
        fill: #261f20;
      }

      .cls-2 {
        fill: #fff;
      }

      .cls-3 {
        fill: none;
        stroke: #261f20;
        stroke-linecap: round;
        stroke-linejoin: round;
        stroke-width: 16.8145px;
      }
    </style>
  </defs>
  <g>
    <path class="cls-2" d="M49.8391,249.113c-1.9132.0046-3.6363-.9997-4.4509-2.5642-10.2739-20.2332-16.7761-41.3975-19.2426-62.8506-1.5365-13.1292-1.5684-26.3694-.0949-39.3984.12-1.0298.6426-1.9963,1.475-2.7278,3.3878-2.9053,21.7498-17.4564,50.5643-17.5258l3.5116.0557c26.1398,1.011,42.537,13.46,46.9617,17.2476.8885.7706,1.4159,1.7988,1.4885,2.8936.8712,12.9802.9026,26.0056.0934,38.754-1.3095,20.561-4.8473,41.1065-10.4105,61.0766-.5437,1.89-2.4303,3.2462-4.6059,3.3156,0,0-65.243,1.7237-65.2897,1.7238"/>
    <path class="cls-1" d="M78.1122,128.4206c1.0733-.0026,2.1757.0157,3.2957.0562,25.6615.9899,41.0327,13.6994,43.7623,16.032.8158,11.7779.9691,24.5673.0921,38.2393-1.4506,22.5561-5.3915,42.8026-10.2724,60.2603-21.7146.567-43.4292,1.1564-65.1497,1.7234-7.9178-15.5604-15.9475-36.4212-18.8543-61.4776-1.6853-14.3521-1.3316-27.3353-.0928-38.5183,2.1479-1.8506,19.4837-16.2486,47.2191-16.3154M78.0911,119.6649c-30.6752.0739-50.3239,15.6366-53.9503,18.735-1.6939,1.4631-2.7391,3.3975-2.9733,5.4793-1.4726,13.3931-1.44,26.9346.097,40.2786,2.5376,21.9034,9.1867,43.518,19.7009,64.2221,1.5824,3.1291,5.0754,5.1377,8.8726,5.1286l.2858-.0007,65.1497-1.7457c4.3744-.1166,8.1185-2.8303,9.1826-6.6311,5.6614-20.3567,9.2218-41.1799,10.5544-61.8706.8318-13.0484.8-26.2677-.0947-39.291-.1453-2.2092-1.2294-4.2668-3.0005-5.8081-4.7403-4.0436-22.3295-17.3698-50.0968-18.4188-1.2426-.0625-2.5084-.0804-3.7274-.0775"/>
    <path class="cls-1" d="M99.1599,197.0042c-.9767,6.4607-11.6306,10.4548-23.7848,8.9202-12.1779-1.5129-21.2357-8.0021-20.2532-14.4627.9767-6.4607,11.6015-10.4542,23.7789-8.9203,12.1541,1.5346,21.2357,8.0021,20.259,14.4628"/>
  </g>
  <path class="cls-3" d="M307.7755,89.2536c4.0599-3.5894,21.7621-18.4257,48.0512-17.5156,23.3567.8086,38.8536,13.5399,43.3404,17.5156"/>
  <path class="cls-3" d="M147.2911,91.4546c-4.0599-3.5894-21.7621-18.4257-48.0512-17.5156-23.3567.8086-38.8536,13.5399-43.3404,17.5156"/>
  <g>
    <path class="cls-2" d="M397.115,249.113c1.9132.0046,3.6363-.9997,4.4509-2.5642,10.2739-20.2332,16.7761-41.3975,19.2426-62.8506,1.5365-13.1292,1.5684-26.3694.0949-39.3984-.12-1.0298-.6426-1.9963-1.475-2.7278-3.3878-2.9053-21.7498-17.4564-50.5643-17.5258l-3.5116.0557c-26.1398,1.011-42.537,13.46-46.9617,17.2476-.8885.7706-1.4159,1.7988-1.4885,2.8936-.8712,12.9802-.9026,26.0056-.0934,38.754,1.3095,20.561,4.8473,41.1065,10.4105,61.0766.5437,1.89,2.4303,3.2462,4.6059,3.3156,0,0,65.243,1.7237,65.2897,1.7238"/>
    <path class="cls-1" d="M368.8419,128.4206c-1.0733-.0026-2.1757.0157-3.2957.0562-25.6615.9899-41.0327,13.6994-43.7623,16.032-.8158,11.7779-.9691,24.5673-.0921,38.2393,1.4506,22.5561,5.3915,42.8026,10.2724,60.2603,21.7146.567,43.4292,1.1564,65.1497,1.7234,7.9178-15.5604,15.9475-36.4212,18.8543-61.4776,1.6853-14.3521,1.3316-27.3353.0928-38.5183-2.1479-1.8506-19.4837-16.2486-47.2191-16.3154M368.863,119.6649c30.6752.0739,50.3239,15.6366,53.9503,18.735,1.6939,1.4631,2.7391,3.3975,2.9733,5.4793,1.4726,13.3931,1.44,26.9346-.097,40.2786-2.5376,21.9034-9.1867,43.518-19.7009,64.2221-1.5824,3.1291-5.0754,5.1377-8.8726,5.1286l-.2858-.0007-65.1497-1.7457c-4.3744-.1166-8.1185-2.8303-9.1826-6.6311-5.6614-20.3567-9.2218-41.1799-10.5544-61.8706-.8318-13.0484-.8-26.2677.0947-39.291.1453-2.2092,1.2294-4.2668,3.0005-5.8081,4.7403-4.0436,22.3295-17.3698,50.0968-18.4188,1.2426-.0625,2.5084-.0804,3.7274-.0775"/>
    <path class="cls-1" d="M347.7942,197.0042c.9767,6.4607,11.6306,10.4548,23.7848,8.9202,12.1779-1.5129,21.2357-8.0021,20.2532-14.4627-.9767-6.4607-11.6015-10.4542-23.7789-8.9203-12.1541,1.5346-21.2357,8.0021-20.259,14.4628"/>
  </g>
</svg>