<?xml version="1.0" encoding="UTF-8"?>
<svg id="szem2" xmlns="http://www.w3.org/2000/svg" version="1.1" viewBox="0 0 420.712 281.8062">
  <!-- Generator: Adobe Illustrator 29.4.0, SVG Export Plug-In . SVG Version: 2.1.0 Build 152)  -->
  <g id="_x36_">
    <g>
      <path d="M389.8988,258.4718c.636-13.2174.6557-28.5584.6798-46.2832.0149-21.4575-1.7248-65.829-2.8527-95.1806-.5468-14.0958-.9713-24.6055-.9713-27.1272,0-3.947-6.9669-16.3985-7.0319-16.4922-26.0289-38.5146-93.6456-52.2343-148.2612-52.2343-61.0204,0-142.0705,16.8994-169.3571,64.0749-.046.0783-3.4148,7.3301-3.4148,7.3301-.4206.9083-.6232,1.7695-.7188,2.7723-1.6772,20.1954-1.8617,67.9052-2.065,160.9249" style="fill: #76c615; stroke: #261f20; stroke-miterlimit: 10; stroke-width: 16.2046px;"/>
      <path d="M55.3265,224.4276c-8.9676,0-17.3582-.3514-25.1055-.9453-5.9122-3.9199-26.4251-21.3814-24.7035-49.6275,1.471-23.734,17.921-38.1944,22.9393-42.0599,9.7622-1.0806,18.0345-1.2703,26.6379-1.2703,7.998,0,16.2703.1617,24.8359.5411,26.1319,1.1615,52.4435,4.1888,78.1496,9.0013,1.9581.3778,3.448,2.6479,3.5473,5.4047l2.0338,55.9264c.1135,2.7568-1.2203,5.2167-3.1406,5.865-25.8623,8.7043-52.8313,14.1635-80.1645,16.2191-8.7548.6748-17.1075.9453-25.0298.9453" style="fill: #fff;"/>
      <path d="M55.1231,136.2609c7.9412,0,16.1757.1897,24.6609.5411,29.1163,1.2967,55.2151,4.7564,77.724,8.9468.7,18.6509,1.3764,37.3019,2.0574,55.9528-20.1109,6.7295-47.061,13.596-79.4314,16.0558-8.6791.6484-16.9703.9189-24.817.9189-8.8919,0-17.2021-.3514-24.8737-.9189-2.4831-1.9187-22.3764-17.9481-20.8298-43.4111,1.3574-22.0297,17.8075-35.1934,20.8298-37.5444,7.8845-.325,16.119-.5411,24.6798-.5411M55.1231,124.7733c-8.6602,0-16.9703.1897-24.9352.5411-1.3149.0808-2.5919.5675-3.7365,1.432-6.9953,5.4064-23.4596,20.7858-25.0298,46.6265-1.9581,31.7883,20.494,50.8995,25.0109,54.4119,1.102.8661,2.3223,1.3528,3.5615,1.4337,8.3906.6484,16.9136.9734,25.3231.9734s16.9136-.325,25.2616-.9734c27.5697-2.082,54.7894-7.5693,80.9024-16.3544,3.8547-1.2967,6.5081-6.2164,6.3142-11.7581l-1.0264-28.03-1.0264-27.8947c-.1939-5.5417-3.1973-10.0819-7.1277-10.8128-25.8433-4.8372-52.2685-7.8926-78.5564-9.0541-8.5845-.3795-16.8947-.5411-24.9352-.5411" style="fill: #261f20;"/>
      <path d="M102.2262,168.9332c2.2655,7.8076-4.3419,16.5837-14.7615,19.606-10.4244,3.0223-20.7116-.8336-22.9771-8.6413-2.2655-7.7875,4.3372-16.5636,14.7615-19.6048,10.4244-3.0223,20.7116.8324,22.9771,8.6401" style="fill: #261f20;"/>
      <path d="M374.2636,222.2081c7.7343-.2642,14.959-.8625,21.6206-1.6843,4.9653-4.0918,22.0612-22.1473,19.6121-50.3263-2.0788-23.6768-16.7602-37.6443-21.2203-41.3596-8.4565-.7924-15.5977-.7384-23.0179-.4849-6.8981.2356-14.0272.6409-21.4019,1.2724-22.4984,1.9306-45.0882,5.7312-67.0949,11.2981-1.6759.4353-2.8834,2.7479-2.875,5.5061l.1549,55.9537c-.0038,2.7585,1.2305,5.1777,2.9089,5.7691,22.6027,7.9374,46.0492,12.599,69.6936,13.8482,7.5738.4165,14.7871.4408,21.6199.2075" style="fill: #fff;"/>
      <path d="M372.3509,134.0553c-6.7307.2299-13.7034.6579-20.8831,1.2547-24.6335,2.1388-46.6356,6.352-65.5701,11.1916.0433,18.6603.1067,37.32.1661,55.9798,17.2748,6.1434,40.351,12.2257,67.8707,13.7471,7.3782.3967,14.4147.4271,21.0652.2,7.5364-.2574,14.5678-.8492,21.0506-1.6384,2.0391-1.9895,18.3527-18.5854,16.1726-43.9888-1.9025-21.9776-16.2942-34.6574-18.936-36.9195-6.6937-.0966-13.6802-.0742-20.936.1736M371.9588,122.5745c7.34-.2507,14.3898-.3016,21.1525-.181,1.1172.0427,2.2162.4922,3.2158,1.323,6.1135,5.2007,20.5928,20.0946,22.8058,45.8748,2.7447,31.7131-15.6324,51.4631-19.3409,55.1042-.9045.8975-1.9221,1.4193-2.9696,1.5359-7.0894.8909-14.302,1.4624-21.4295,1.7059-7.1275.2434-14.3463.1648-21.4439-.2415-23.438-1.2827-46.6956-5.9788-69.1277-14.0029-3.3114-1.1844-5.7282-6.0244-5.753-11.5685l-.0869-28.0434-.0823-27.9082c-.0248-5.544,2.3658-10.1686,5.6721-11.0128,21.7386-5.5825,44.0311-9.4011,66.272-11.3229,7.2629-.6277,14.3007-1.0299,21.1156-1.2626" style="fill: #261f20;"/>
      <path d="M298.2513,171.192c-1.7527,7.872,4.436,16.4418,13.826,19.1452,9.3942,2.7032,18.4314-1.4636,20.1842-9.3357,1.7534-7.852-4.431-16.4219-13.8259-19.144-9.3942-2.7032-18.4315,1.4624-20.1842,9.3345" style="fill: #261f20;"/>
      <path d="M130.7702,256.9687c3.1821-.3532,6.3754-.5503,9.6078-.3327,8.3046.5591,16.1326,1.2344,24.4919.6837,3.0527-.2012,6.1088-.3093,9.1665-.345-6.5496-21.1501-10.3448-41.2899.2387-54.2418,7.487-9.179,22.6331-14.8957,39.5-14.8957,16.2244,0,30.7587,5.3726,37.9016,14.0183,11.0564,13.3975,5.6985,35.4611-1.4399,57.9769,13.3606-.8294,26.7949.9531,40.0975-.7066,5.0449-.6295,10.278-1.068,14.933-.0607-.1672-7.2381-.4264-14.847-.6993-22.7991-1.9082-55.1787-2.8641-82.8699-18.2434-98.6891-14.0679-14.4721-35.9937-22.4439-61.7128-22.4439s-51.0098,8.0664-69.3527,22.1151c-27.5215,21.1075-32.1287,56.4985-31.3862,119.8402,2.2368-.3291,4.5077-.3669,6.8972-.1195Z" style="fill: #261f20;"/>
      <path d="M121.1344,257.6521c1.7003-.4423,3.4044-.7046,5.1432-.7957-.7244-61.9744,3.747-96.7372,30.2408-117.05,18.293-14.0181,43.4462-21.5052,67.5363-21.5052,23.1494,0,45.3428,6.9077,59.5637,21.5358,14.5993,15.0046,15.5362,42.3039,17.4176,96.888.2647,7.651.5071,14.9361.6671,21.838,2.0958.1569,4.1199.5236,6.0134,1.1947-.1681-7.3807-.4343-15.1342-.7152-23.2363-1.9388-56.0564-2.9101-84.1854-19.1078-100.8343-14.6261-15.0677-37.3052-23.3529-63.8387-23.3529-26.3767,0-52.3138,8.2852-71.1691,22.7421-28.6703,21.9736-33.3486,58.1547-32.5618,122.4983.271.0202.5403.0541.8106.0774Z" style="fill: #261f20;"/>
      <path d="M176.5491,256.9651c-6.4381-20.6146-10.3048-40.1758-.5138-52.1603,6.9363-8.5042,21.1916-13.7983,37.1828-13.7983,15.3642,0,29.0037,4.9652,35.5998,12.937,10.2494,12.4106,4.7441,34.0878-2.3069,56.1943,2.1325-.2187,4.2673-.3585,6.4039-.4394,7.1697-22.8357,12.3018-45.2662.4914-59.5606-8.3014-10.0557-24.1664-15.083-40.1883-15.083-16.4769,0-33.1106,5.3246-41.8211,15.9758-11.2761,13.8142-7.6173,34.595-1.0718,56.0288,2.0737-.0666,4.1486-.0967,6.2239-.0943Z" style="fill: #261f20;"/>
      <path d="M140.3781,256.636c3.5167.2368,6.9473.4891,10.3696.6656,3.2897-3.3268,6.1003-7.1687,6.5547-12.2511,1.3153-14.7227-18.5303-23.6819-14.9245-32.8915,3.1165-7.9249,19.2147-4.7769,22.0981-12.6397,3.5253-9.5692-16.8366-23.744-14.2209-27.5659,2.9289-4.2913,28.0209,14.2064,39.5306,6.0464,9.6476-6.8446,3.713-28.0984,9.1159-29.4769,5.904-1.519,13.2801,24.0108,23.899,23.5558,9.854-.4064,15.1804-22.8828,20.1439-21.7232,4.7913,1.1281-.0956,22.225,8.8329,27.3624,8.2557,4.7454,22.2891-7.5492,24.9048-4.4327,2.9749,3.5867-16.3201,18.9671-12.3587,29.2417,3.7128,9.6637,25.8756,9.2248,25.7036,12.7017-.1108,2.2092-8.9936.9712-15.257,6.6094-8.6763,7.816-9.445,26.2507-1.3613,34.9116,1.2192,1.3082,2.5673,2.303,3.9361,3.1042,4.3389-.0192,8.6715-.1892,12.9896-.728,1.8916-.2361,3.8098-.4452,5.7139-.5613.0756-4.0698.1547-8.3734.2421-12.9508.7343-39.1713,1.4876-66.7688-14.19-90.4813-3.2273-4.8707-5.8736-7.6591-6.8447-8.6457-20.9738-21.4726-54.9444-19.468-61.4757-19.0771-1.4261.0784-2.4741.173-3.0857.2351-8.1906.6893-42.0355,3.5716-61.7855,29.6337-11.0125,14.5344-12.5153,29.5075-15.475,58.8745-.7449,7.4385-.2997,26.5771.1217,40.5596,2.2613-.1703,4.5318-.2307,6.8226-.0765Z" style="fill: #fff;"/>
    </g>
    <rect x="43.7156" y="255.8179" width="355.3341" height="4.8341" style="fill: #aad7db;"/>
  </g>
  <line x1="393.4082" y1="108.0309" x2="305.5884" y2="112.6743" style="fill: none; stroke: #261f20; stroke-linecap: round; stroke-linejoin: round; stroke-width: 20.4567px;"/>
  <line x1="129.3798" y1="109.2407" x2="41.5599" y2="113.8841" style="fill: none; stroke: #261f20; stroke-linecap: round; stroke-linejoin: round; stroke-width: 20.4567px;"/>
</svg>