<?xml version="1.0" encoding="UTF-8"?>
<svg id="szem1" xmlns="http://www.w3.org/2000/svg" viewBox="0 0 445.26 281">
  <defs>
    <style>
      .cls-1 {
        fill: #261f20;
      }

      .cls-2 {
        fill: #fff;
      }

      .cls-3 {
        fill: none;
        stroke: #261f20;
        stroke-linecap: round;
        stroke-linejoin: round;
        stroke-width: 12.4274px;
      }
    </style>
  </defs>
  <g>
    <g>
      <path class="cls-1" d="M179.9023,276.6844c-9.3008-27.5439-18.0801-55.5205-4.3965-72.2671,8.0117-9.8218,24.2178-15.9385,42.2656-15.9385,17.3613,0,32.9131,5.7485,40.5566,14.9995,13.457,16.3071,4.1895,44.6128-4.7588,71.9805-.1338.4092-.2666.8169-.4004,1.2256h62.6914c.0391-8.5142-.084-21.1328-.9375-36.3857-3.1396-56.1113-4.71-84.167-21.8213-103.3804-21.085-23.6753-53.667-25.6309-63.7344-26.2354-2.5908-.1558-41.7256-1.249-74.209,23.6641-31.4336,24.1079-34.9346,65.6162-33.3535,142.3374h58.0977Z"/>
      <path class="cls-1" d="M249.8124,276.6845h6.7152c9.2186-28.1946,18.8677-57.5465,4.2466-75.2427-8.8827-10.7595-25.8583-16.1393-43.0025-16.1393-17.6307,0-35.429,5.6979-44.7492,17.0947-14.5739,17.854-5.8321,46.5847,3.5114,74.2874h6.7473c-9.158-27.037-18.0442-54.6443-5.2955-70.2489,7.422-9.0997,22.675-14.7646,39.7861-14.7646,16.4401,0,31.0345,5.3134,38.0928,13.8431,12.3325,14.9322,3.3509,42.4009-5.3312,68.9637-.2406.7348-.4813,1.4705-.721,2.2066Z"/>
      <path class="cls-1" d="M124.9836,276.6842c-1.5801-75.5293,1.7559-116.52,32.1191-139.7983,13.7324-10.5278,39.375-25.5781,72.2646-23.0112,7.8018.6089,39.498,3.083,60.3994,26.8101,17.248,19.5801,18.8232,46.3555,21.9727,99.9062.8896,15.1216.9824,27.6382.9092,36.0933,2.5596-.0073,5.1182-.0146,7.6777-.022h0c-.0332-58.9136-.7734-65.7002-2.2529-79.2734-.1191-1.0928-.1748-1.6396-.2598-2.3042-2.0078-15.73-5.166-40.4712-22.7764-60.0469-22.5547-25.0708-55.5898-26.9688-65.6699-27.5479-3.167-.1821-42.9141-1.1401-76.1523,24.3345-32.6699,25.0391-36.2295,67.3022-34.6133,144.8599h6.3818Z"/>
      <path class="cls-2" d="M138.5881,276.6845c2.2209-8.6238,18.1753-14.0138,19.3525-27.1849,1.4072-15.7534-19.8276-25.3401-15.9695-35.1946,3.3349-8.4798,20.5601-5.1115,23.6455-13.5249,3.7725-10.2391-18.0157-25.4065-15.2165-29.4962,3.1335-4.5915,29.9828,15.2013,42.2984,6.4697,10.3228-7.3239,3.973-30.0657,9.7542-31.5411,6.3178-1.6251,14.2103,25.6926,25.5723,25.2055,10.5447-.4349,16.244-24.485,21.5547-23.2444,5.1271,1.2071-.1025,23.7814,9.4521,29.2783,8.8336,5.0776,23.8496-8.0779,26.648-4.743,3.1834,3.838-17.4632,20.2954-13.2237,31.2894,3.973,10.3407,27.688,9.871,27.5035,13.5913-.1185,2.3639-9.6232,1.0391-16.3251,7.0722-9.2846,8.3631-10.1063,28.089-1.4571,37.3562,6.2482,6.7041,15.6344,6.0165,15.687,9.1509.0365,2.4771-5.8829,3.4325-11.9092,5.5157h20.2027c.1586-7.7981.3128-16.6045.5035-26.5824.786-41.9143,1.5917-71.444-15.1835-96.8171-3.4534-5.2118-6.2848-8.1955-7.3239-9.2512-22.4423-22.9762-58.792-20.8315-65.7808-20.4131-1.5257.0842-2.6469.1854-3.3019.2518-8.7641.7375-44.9792,3.8215-66.1123,31.7087-11.7835,15.5524-13.3913,31.5741-16.5586,62.9971-1.3725,13.7143-.0036,11.1374.6105,58.1062h5.5772Z"/>
    </g>
    <g>
      <path class="cls-2" d="M346.0879,243.2905c-6.474,0-12.5576-.5015-18.1254-1.309-.9689-.1394-1.8559-.7514-2.5067-1.7272-2.8634-4.2059-17.0986-27.1001-15.9754-63.115.9882-30.4151,12.4805-49.5233,15.9754-54.6761.7086-1.0302,1.6583-1.6422,2.6658-1.7272,5.6835-.4726,11.6272-.7514,17.7879-.7514,5.7461,0,11.7285.2227,17.8699.7514,18.8195,1.5606,37.7114,5.7104,56.1549,12.3116,1.7595.6137,3.0032,2.8135,3.0611,5.3483l1.4606,75.9825c.0386,2.2848-.887,4.3742-2.3669,5.3211-18.7231,11.9767-38.1886,19.4687-57.8951,22.2822-6.3198.9197-12.3792,1.309-18.1061,1.309"/>
      <path class="cls-1" d="M345.9626,124.0464c5.669,0,11.5308.2664,17.5951.8009,20.7478,1.8699,39.3504,6.8581,55.4029,12.9425.4917,26.9866.9689,53.9713,1.4606,80.9851-14.3364,9.7662-33.5464,19.6828-56.6273,23.245-6.18.9494-12.1045,1.3354-17.6915,1.3354-6.3391,0-12.2828-.5055-17.7349-1.3354-1.774-2.7903-15.9513-25.9755-14.8474-62.8171.9689-31.9132,12.6781-50.9708,14.8474-54.3555,5.6112-.5037,11.4923-.8009,17.5951-.8009M345.9626,111.9338c-6.2812,0-12.3021.2972-18.0868.8009-2.015.1794-3.9288,1.5148-5.3316,3.7108-3.7311,5.8778-16.0525,27.7277-17.0793,62.1938-1.2244,40.7299,13.999,66.912,17.06,71.7226,1.3208,2.1073,3.1189,3.4136,5.0375,3.7108,6.1366.9186,12.3792,1.4242,18.5399,1.4242s12.3792-.5055,18.5207-1.4242c20.1404-3.0875,40.0397-11.252,59.1147-24.2542,2.9647-2.0185,4.8399-6.5011,4.7386-11.3697l-1.4606-80.9851c-.0964-5.4321-2.5838-10.0923-6.0787-11.4295-18.7183-7.0936-37.856-11.5763-56.9069-13.2994-6.2185-.5635-12.2443-.8009-18.0675-.8009"/>
      <path class="cls-1" d="M309.0273,180.0285c-3.7504,12.8938,7.1875,27.4062,24.4259,32.422,17.2143,5.0146,34.2357-1.3823,37.9861-14.2761,3.7552-12.8938-7.1827-27.4255-24.421-32.422-17.2191-5.0146-34.2406,1.3823-37.991,14.2761"/>
    </g>
    <g>
      <path class="cls-2" d="M94.0897,243.4552c6.474,0,12.5576-.5015,18.1254-1.309.9689-.1394,1.8559-.7514,2.5067-1.7272,2.8634-4.2059,17.0986-27.1001,15.9754-63.115-.9882-30.4151-12.4805-49.5233-15.9754-54.6761-.7086-1.0302-1.6583-1.6422-2.6658-1.7272-5.6835-.4726-11.6272-.7514-17.7879-.7514-5.7461,0-11.7285.2227-17.8699.7514-18.8195,1.5606-37.7114,5.7104-56.1549,12.3116-1.7595.6137-3.0032,2.8135-3.0611,5.3483l-1.4606,75.9825c-.0386,2.2848.887,4.3742,2.3669,5.3211,18.7231,11.9767,38.1886,19.4687,57.8951,22.2822,6.3198.9197,12.3792,1.309,18.1061,1.309"/>
      <path class="cls-1" d="M94.2151,123.4817c-5.669,0-11.5308.2664-17.5951.8009-20.7478,1.8699-39.3504,6.8581-55.4029,12.9425-.4917,26.9866-.9689,53.9713-1.4606,80.9851,14.3364,9.7662,33.5464,19.6828,56.6273,23.245,6.18.9494,12.1045,1.3354,17.6915,1.3354,6.3391,0,12.2828-.5055,17.7349-1.3354,1.774-2.7903,15.9513-25.9755,14.8474-62.8171-.9689-31.9132-12.6781-50.9708-14.8474-54.3555-5.6112-.5037-11.4923-.8009-17.5951-.8009M94.2151,111.3691c6.2812,0,12.3021.2972,18.0868.8009,2.015.1794,3.9288,1.5148,5.3316,3.7108,3.7311,5.8778,16.0525,27.7277,17.0793,62.1938,1.2244,40.7299-13.999,66.912-17.06,71.7226-1.3208,2.1073-3.1189,3.4136-5.0375,3.7108-6.1366.9186-12.3792,1.4242-18.5399,1.4242s-12.3792-.5055-18.5207-1.4242c-20.1404-3.0875-40.0397-11.252-59.1147-24.2542-2.9647-2.0185-4.8399-6.5011-4.7386-11.3697l1.4606-80.9851c.0964-5.4321,2.5838-10.0923,6.0787-11.4295,18.7183-7.0936,37.856-11.5763,56.9069-13.2994,6.2185-.5635,12.2443-.8009,18.0675-.8009"/>
      <path class="cls-1" d="M131.1503,179.4638c3.7504,12.8938-7.1875,27.4062-24.4259,32.422-17.2143,5.0146-34.2357-1.3823-37.9861-14.2761-3.7552-12.8938,7.1827-27.4255,24.421-32.422,17.2191-5.0146,34.2406,1.3823,37.991,14.2761"/>
    </g>
  </g>
  <path class="cls-3" d="M54.4717,110.6027c3.9663-7.347,21.2603-37.7152,46.9431-35.8524,22.818,1.6551,37.9576,27.7146,42.3409,35.8524"/>
  <path class="cls-3" d="M304.8112,105.8384c3.9663-7.347,21.2603-37.7152,46.9431-35.8524,22.818,1.6551,37.9576,27.7146,42.3409,35.8524"/>
</svg>