<?xml version="1.0" encoding="UTF-8"?>
<svg id="szem2" xmlns="http://www.w3.org/2000/svg" version="1.1" viewBox="0 0 420.712 281.8062">
  <!-- Generator: Adobe Illustrator 29.4.0, SVG Export Plug-In . SVG Version: 2.1.0 Build 152)  -->
  <g>
    <g>
      <path d="M387.3797,260.0529c.6445-13.3951.6646-28.9425.689-46.9056.0151-21.7461-1.748-66.7144-2.8911-96.4607-.5542-14.2854-.9844-24.9364-.9844-27.4921,0-4.0001-7.0605-16.619-7.1265-16.714-26.3789-39.0325-94.905-52.9368-150.2551-52.9368-61.8411,0-143.9812,17.1266-171.6348,64.9366-.0466.0793-3.4607,7.4287-3.4607,7.4287-.4263.9205-.6316,1.7933-.7285,2.8096-1.6997,20.467-1.8867,68.8185-2.0928,163.0891" style="fill: #76c615; stroke: #261f20; stroke-miterlimit: 10; stroke-width: 16.4225px;"/>
      <path d="M124.7662,258.5296c3.2249-.3579,6.4612-.5577,9.7371-.3372,8.4163.5667,16.3496,1.251,24.8213.6929,3.0938-.2039,6.1909-.3135,9.2898-.3496-6.6377-21.4346-10.4839-41.8452.2419-54.9713,7.5876-9.3025,22.9375-15.0961,40.0312-15.0961,16.4426,0,31.1724,5.4448,38.4114,14.2068,11.2051,13.5776,5.7751,35.938-1.4592,58.7566,13.5403-.8406,27.1553.9659,40.6367-.7161,5.1128-.6379,10.4163-1.0824,15.1338-.0615-.1694-7.3354-.4321-15.0466-.7087-23.1057-1.9338-55.9208-2.9026-83.9844-18.4888-100.0164-14.2571-14.6667-36.4778-22.7457-62.5427-22.7457s-51.6958,8.1749-70.2854,22.4125c-27.8916,21.3914-32.5608,57.2583-31.8083,121.4519,2.2668-.3335,4.5684-.3718,6.99-.1211Z" style="fill: #261f20;"/>
      <path d="M115.0008,259.2222c1.7231-.4482,3.4502-.7141,5.2124-.8064-.7341-62.8079,3.7974-98.0382,30.6475-118.6241,18.5391-14.2067,44.0305-21.7944,68.4446-21.7944,23.4607,0,45.9526,7.0006,60.3647,21.8254,14.7957,15.2064,15.7451,42.8728,17.6519,98.191.2683,7.7539.5139,15.137.676,22.1317,2.124.1591,4.1753.5306,6.0942,1.2108-.1704-7.48-.4402-15.3378-.7249-23.5488-1.9648-56.8103-2.9492-85.3176-19.3647-102.1904-14.8228-15.2704-37.8069-23.667-64.6973-23.667-26.7314,0-53.0173,8.3966-72.1262,23.048-29.0559,22.2692-33.7971,58.9368-32.9998,124.1458.2747.0205.5476.0548.8215.0785Z" style="fill: #261f20;"/>
      <path d="M171.1607,258.5259c-6.5247-20.8918-10.4434-40.7161-.5208-52.8618,7.0295-8.6185,21.4766-13.9839,37.6829-13.9839,15.5708,0,29.3938,5.032,36.0786,13.111,10.3872,12.5775,4.8079,34.5463-2.3379,56.9501,2.1611-.2217,4.3247-.3633,6.49-.4453,7.2661-23.1428,12.4673-45.875.498-60.3616-8.4131-10.1909-24.4915-15.2859-40.7288-15.2859-16.6985,0-33.5559,5.3962-42.3835,16.1907-11.4277,14-7.7197,35.0603-1.0862,56.7823,2.1016-.0675,4.2043-.098,6.3076-.0956Z" style="fill: #261f20;"/>
      <path d="M134.5033,258.1925c3.564.24,7.0408.4957,10.509.6746,3.334-3.3716,6.1824-7.2651,6.6428-12.4159,1.333-14.9207-18.7795-24.0004-15.1252-33.3339,3.1584-8.0315,19.4731-4.8412,22.3953-12.8097,3.5728-9.6979-17.063-24.0634-14.4121-27.9366,2.9683-4.349,28.3977,14.3975,40.0623,6.1277,9.7773-6.9366,3.7629-28.4763,9.2385-29.8733,5.9834-1.5394,13.4587,24.3337,24.2205,23.8726,9.9866-.4119,15.3845-23.1906,20.4148-22.0154,4.8557,1.1433-.0969,22.5239,8.9517,27.7303,8.3667,4.8092,22.5889-7.6508,25.2397-4.4923,3.0149,3.6349-16.5396,19.2222-12.5249,29.635,3.7627,9.7937,26.2236,9.3489,26.0493,12.8726-.1123,2.2389-9.1145.9843-15.4622,6.6982-8.793,7.9211-9.572,26.6038-1.3796,35.3811,1.2356,1.3258,2.6018,2.334,3.989,3.146,4.3972-.0194,8.7881-.1918,13.1643-.7378,1.917-.2393,3.8611-.4512,5.7908-.5688.0767-4.1245.1567-8.486.2454-13.125.7441-39.6981,1.5076-67.6667-14.3809-91.6981-3.2708-4.9362-5.9526-7.7621-6.9368-8.762-21.2559-21.7614-55.6833-19.7299-62.3025-19.3336-1.4453.0795-2.5073.1753-3.1272.2383-8.3008.6986-42.6008,3.6196-62.6165,30.0322-11.1606,14.7299-12.6836,29.9043-15.6831,59.6663-.7549,7.5386-.3037,26.9346.1233,41.1051,2.2917-.1726,4.5928-.2338,6.9143-.0775Z" style="fill: #fff;"/>
      <line x1="86.3455" y1="96.0149" x2="131.9804" y2="146.7449" style="fill: #76c615;"/>
    </g>
    <rect x="36.5408" y="257.3634" width="360.1129" height="4.8992" style="fill: #aad7db;"/>
  </g>
  <g>
    <path d="M363.8664,100.4004c5.5523,0,10.8854.341,15.986.9342,1.978,4.0053,12.6309,26.4964,13.5124,64.1315,1.0043,43.49-11.8941,70.8493-13.5124,74.1375-4.9559.9879-10.3459,1.5986-16.1132,1.5986-5.0831,0-10.4731-.4857-16.0956-1.5986-20.9814-4.1862-38.441-15.8983-51.4841-27.4317.4517-31.8503.8815-63.7006,1.3289-95.5498,14.587-7.2036,31.5115-13.0783,50.3702-15.2876,5.5173-.6469,10.8503-.9342,16.0079-.9342M363.8664,90.1609c-5.7146,0-11.495.341-17.1921,1.0065-18.0166,2.1008-36.1077,7.5807-53.7296,16.2568-3.4472,1.7071-5.6401,5.2092-5.6927,9.0543l-1.3333,95.5498c-.0351,2.9823,1.2236,5.8385,3.4516,7.8143,17.9991,15.9158,36.9323,25.9581,56.2821,29.8022,5.9821,1.1863,12.0695,1.7971,18.0868,1.7971s12.109-.6107,18.1087-1.7971c3.1446-.6283,5.8023-2.6764,7.2233-5.5501,2.6051-5.3363,15.5562-34.2394,14.5299-78.8621-.8596-36.7546-10.4556-60.09-14.5475-68.4076-1.5306-3.1248-4.548-5.2629-8.0127-5.6576-5.6971-.6655-11.4819-1.0065-17.1745-1.0065" style="fill: #261f20;"/>
    <g>
      <path d="M58.5502,246.327c-5.8985,0-11.9109-.5745-17.7911-1.7061-1.6273-.3059-3.0085-1.33-3.7378-2.7674-2.6302-5.1368-15.6259-32.9456-14.6003-76.4905.898-36.736,11.4095-60.0352,14.6003-66.2871.8023-1.5624,2.3749-2.6227,4.1481-2.82,5.5065-.6283,11.2773-.9703,17.2487-.9703,5.5657,0,11.3365.2873,17.2715.9703,18.1467,2.0295,36.3344,7.3297,54.1073,15.7722,1.8142.8443,2.9538,2.5876,2.9903,4.5272l1.3812,95.5498c.0182,1.4911-.6336,2.911-1.8142,3.9165-18.0145,15.3051-36.854,24.934-56.0309,28.5994-5.862,1.1315-11.8562,1.7061-17.7729,1.7061" style="fill: #fff;"/>
      <g>
        <path d="M58.4317,100.4004c5.3606,0,10.9035.2873,16.6379.9342,19.619,2.2093,37.2096,8.084,52.3888,15.2876.4649,31.8492.9162,63.6995,1.3812,95.5498-13.5565,11.5334-31.7214,23.2455-53.5466,27.4306-5.8438,1.114-11.4459,1.5997-16.729,1.5997-5.9942,0-11.6146-.6107-16.7701-1.5997-1.6775-3.2871-15.0835-30.6464-14.0396-74.1364.9162-37.6351,11.9884-60.1262,14.0396-64.1315,5.3059-.5932,10.867-.9342,16.6379-.9342M58.4317,90.1609c-5.9395,0-11.9474.341-17.8686,1.0065-3.6011.3947-6.7418,2.5328-8.3281,5.6576-4.2575,8.3175-14.2448,31.6529-15.12,68.4076-1.0849,44.604,12.3941,73.5257,15.1017,78.861,1.4769,2.8748,4.2392,4.9405,7.5076,5.5512,6.2358,1.2039,12.5627,1.7971,18.8395,1.7971,6.254,0,12.581-.5932,18.7985-1.7971,20.1296-3.8441,39.8078-13.8677,58.5334-29.8022,2.3156-1.9758,3.6239-4.832,3.5874-7.8143l-1.3812-95.5498c-.0593-3.8452-2.3521-7.3472-5.9395-9.0543-18.3153-8.6761-37.1184-14.1561-55.8622-16.2568-5.9213-.6655-11.9291-1.0065-17.8686-1.0065" style="fill: #261f20;"/>
        <path d="M133.0241,200.1364c3.5464,11.7307-6.7965,24.934-23.097,29.4974-16.2778,4.5623-32.3732-1.2576-35.9196-12.9884-3.5509-11.7307,6.7919-24.9515,23.0925-29.4974,16.2823-4.5623,32.3778,1.2576,35.9241,12.9884" style="fill: #261f20;"/>
      </g>
      <g>
        <path d="M361.7783,241.9616c-5.1913,0-10.4668-.5424-15.6259-1.594-16.8776-3.4767-33.4584-12.549-49.2809-27.0149-1.035-.9326-1.6127-2.2895-1.5967-3.6972l1.2196-90.2006c.0321-1.8144,1.0511-3.4591,2.6277-4.2737,15.642-7.9533,31.6491-12.9733,47.604-14.8892,5.2073-.6272,10.2702-.916,15.1526-.916,5.2715,0,10.3344.3395,15.1967.916,1.5606.1863,2.9447,1.2038,3.6507,2.6797,3.6146,7.5797,12.0755,28.88,12.8498,62.5585.9027,41.192-10.535,67.3922-12.8498,72.2259-.6419,1.3559-1.8575,2.3061-3.2897,2.6114-5.1752,1.0516-10.4668,1.594-15.658,1.594" style="fill: #fff;"/>
        <path d="M298.2154,201.4362c-3.1212,11.074,5.9816,23.5381,20.3278,27.846,14.3261,4.3069,28.4918-1.1872,31.613-12.2612,3.1252-11.074-5.9776-23.5547-20.3238-27.846-14.3301-4.3069-28.4958,1.1872-31.617,12.2612" style="fill: #261f20;"/>
      </g>
    </g>
  </g>
</svg>