<?xml version="1.0" encoding="UTF-8"?>
<svg id="szem1" xmlns="http://www.w3.org/2000/svg" version="1.1" viewBox="0 0 420.712 281.8062">
  <!-- Generator: Adobe Illustrator 29.4.0, SVG Export Plug-In . SVG Version: 2.1.0 Build 152)  -->
  <g>
    <g>
      <path d="M385.9867,267.0632c.6445-13.3951.6646-28.9425.689-46.9056.0151-21.7461-1.748-66.7144-2.8911-96.4607-.5542-14.2854-.9844-24.9364-.9844-27.4921,0-4.0001-7.0605-16.619-7.1265-16.714-26.3789-39.0325-94.905-52.9368-150.2551-52.9368-61.8411,0-143.9812,17.1266-171.6348,64.9366-.0466.0793-3.4607,7.4287-3.4607,7.4287-.4263.9205-.6316,1.7933-.7285,2.8096-1.6997,20.467-1.8867,68.8185-2.0928,163.0891" style="fill: #76c615; stroke: #261f20; stroke-miterlimit: 10; stroke-width: 16.4225px;"/>
      <path d="M123.3732,265.5399c3.2249-.3579,6.4612-.5577,9.7371-.3372,8.4163.5667,16.3496,1.251,24.8213.6929,3.0938-.2039,6.1909-.3135,9.2898-.3496-6.6377-21.4346-10.4839-41.8452.2419-54.9713,7.5876-9.3025,22.9375-15.0961,40.0312-15.0961,16.4426,0,31.1724,5.4448,38.4114,14.2068,11.2051,13.5776,5.7751,35.938-1.4592,58.7566,13.5403-.8406,27.1553.9659,40.6367-.7161,5.1128-.6379,10.4163-1.0824,15.1338-.0615-.1694-7.3354-.4321-15.0466-.7087-23.1057-1.9338-55.9208-2.9026-83.9844-18.4888-100.0164-14.2571-14.6667-36.4778-22.7457-62.5427-22.7457s-51.6958,8.1749-70.2854,22.4125c-27.8916,21.3914-32.5608,57.2583-31.8083,121.4519,2.2668-.3335,4.5684-.3718,6.99-.1211Z" style="fill: #261f20;"/>
      <path d="M113.6078,266.2325c1.7231-.4482,3.4502-.7141,5.2124-.8064-.7341-62.8079,3.7974-98.0382,30.6475-118.6241,18.5391-14.2067,44.0305-21.7944,68.4446-21.7944,23.4607,0,45.9526,7.0006,60.3647,21.8254,14.7957,15.2064,15.7451,42.8728,17.6519,98.191.2683,7.7539.5139,15.137.676,22.1317,2.124.1591,4.1753.5306,6.0942,1.2108-.1704-7.48-.4402-15.3378-.7249-23.5488-1.9648-56.8103-2.9492-85.3176-19.3647-102.1904-14.8228-15.2704-37.8069-23.667-64.6973-23.667-26.7314,0-53.0173,8.3966-72.1262,23.048-29.0559,22.2692-33.7971,58.9368-32.9998,124.1458.2747.0205.5476.0548.8215.0785Z" style="fill: #261f20;"/>
      <path d="M169.7677,265.5362c-6.5247-20.8918-10.4434-40.7161-.5208-52.8618,7.0295-8.6185,21.4766-13.9839,37.6829-13.9839,15.5708,0,29.3938,5.032,36.0786,13.111,10.3872,12.5775,4.8079,34.5463-2.3379,56.9501,2.1611-.2217,4.3247-.3633,6.49-.4453,7.2661-23.1428,12.4673-45.875.498-60.3616-8.4131-10.1909-24.4915-15.2859-40.7288-15.2859-16.6985,0-33.5559,5.3962-42.3835,16.1907-11.4277,14-7.7197,35.0603-1.0862,56.7823,2.1016-.0675,4.2043-.098,6.3076-.0956Z" style="fill: #261f20;"/>
      <path d="M133.1103,265.2027c3.564.24,7.0408.4957,10.509.6746,3.334-3.3716,6.1824-7.2651,6.6428-12.4159,1.333-14.9207-18.7795-24.0004-15.1252-33.3339,3.1584-8.0315,19.4731-4.8412,22.3953-12.8097,3.5728-9.6979-17.063-24.0634-14.4121-27.9366,2.9683-4.349,28.3977,14.3975,40.0623,6.1277,9.7773-6.9366,3.7629-28.4763,9.2385-29.8733,5.9834-1.5394,13.4587,24.3337,24.2205,23.8726,9.9866-.4119,15.3845-23.1906,20.4148-22.0154,4.8557,1.1433-.0969,22.5239,8.9517,27.7303,8.3667,4.8092,22.5889-7.6508,25.2397-4.4923,3.0149,3.6349-16.5396,19.2222-12.5249,29.635,3.7627,9.7937,26.2236,9.3489,26.0493,12.8726-.1123,2.2389-9.1145.9843-15.4622,6.6982-8.793,7.9211-9.572,26.6038-1.3796,35.3811,1.2356,1.3258,2.6018,2.334,3.989,3.146,4.3972-.0194,8.7881-.1918,13.1643-.7378,1.917-.2393,3.8611-.4512,5.7908-.5688.0767-4.1245.1567-8.486.2454-13.125.7441-39.6981,1.5076-67.6667-14.3809-91.6981-3.2708-4.9362-5.9526-7.7621-6.9368-8.762-21.2559-21.7614-55.6833-19.7299-62.3025-19.3336-1.4453.0795-2.5073.1753-3.1272.2383-8.3008.6986-42.6008,3.6196-62.6165,30.0322-11.1606,14.7299-12.6836,29.9043-15.6831,59.6663-.7549,7.5386-.3037,26.9346.1233,41.1051,2.2917-.1726,4.5928-.2338,6.9143-.0775Z" style="fill: #fff;"/>
      <line x1="84.9525" y1="103.0252" x2="130.5874" y2="153.7551" style="fill: #76c615;"/>
    </g>
    <rect x="35.1477" y="264.3736" width="360.1129" height="4.8992" style="fill: #aad7db;"/>
  </g>
  <g>
    <g>
      <path d="M375.4602,237.8707c-5.8563,0-12.0331-.2822-18.4957-.9489-20.1521-2.0396-40.0577-7.4708-59.1992-16.153-1.5183-.6864-2.4648-2.2011-2.4253-3.8771l1.4739-54.4964c.0592-1.8584,1.3556-3.9979,3.15-4.4428,18.8605-4.7854,38.1845-7.7937,57.4048-8.925,6.2803-.3833,12.3782-.5644,18.2345-.5644,6.3197,0,12.4176.2009,18.2296.5644,1.05.0616,2.0408.5053,2.7458,1.2521,3.5739,3.7354,15.326,17.6479,16.3169,39.6362,1.193,26.0873-13.3887,42.7049-16.3169,45.7538-.6655.7074-1.5725,1.1511-2.5634,1.2521-5.7134.5854-11.9345.9489-18.5549.9489" style="fill: #fff;"/>
      <path d="M375.613,152.5903c6.2408,0,12.2549.2021,17.9929.5447,2.2183,2.3021,14.1922,15.2644,15.1831,36.9705,1.1289,25.0582-13.3887,40.8279-15.1831,42.7258-5.5753.5644-11.6535.9083-18.1359.9083-5.7134,0-11.7718-.2625-18.0915-.9083-23.6028-2.4229-43.2471-9.1678-57.9077-15.8104.5028-18.3737.9908-36.7278,1.4937-55.083,16.4155-4.1384,35.4387-7.5312,56.6556-8.803,6.2014-.3636,12.1958-.5447,17.9929-.5447M375.613,144.3518c-5.9549,0-12.1169.1614-18.476.5447-19.4817,1.172-39.0718,4.2209-58.1936,9.0458-3.5937.9095-6.1373,4.0792-6.2162,7.7739l-.0394,1.4542-1.4542,53.6288c-.1035,3.3114,1.8141,6.3604,4.8458,7.7333,19.5063,8.8436,39.8359,14.3968,60.4513,16.4968,6.2803.6248,12.6394.9687,18.9394.9687s12.6838-.3438,18.9591-.9687c1.9817-.2021,3.8007-1.0907,5.1514-2.5239,3.1303-3.2917,18.6979-21.101,17.4458-48.783-1.0697-23.4623-13.65-38.304-17.4655-42.3019-1.4345-1.4937-3.3915-2.4019-5.4521-2.5239-5.9155-.3426-12.0725-.5447-18.4957-.5447" style="fill: #261f20;"/>
      <path d="M288.1722,198.0815c-1.4854,16.4662,22.0825,32.2906,40.3242,37.6163,16.2686,4.7496,45.1738,6.0751,54.1709-10.1351,9.2549-16.6743-6.1323-45.4565-27.981-54.7786-27.5454-11.7524-64.7456,7.6885-66.5142,27.2974Z" style="fill: #261f20;"/>
    </g>
    <g>
      <path d="M45.2517,237.21c5.8563,0,12.0331-.2822,18.4957-.9489,20.1521-2.0396,40.0577-7.4708,59.1992-16.153,1.5183-.6864,2.4648-2.2011,2.4253-3.8771l-1.4739-54.4964c-.0592-1.8584-1.3556-3.9979-3.15-4.4428-18.8605-4.7854-38.1845-7.7937-57.4048-8.925-6.2803-.3833-12.3782-.5644-18.2345-.5644-6.3197,0-12.4176.2009-18.2296.5644-1.05.0616-2.0408.5053-2.7458,1.2521-3.5739,3.7354-15.326,17.6479-16.3169,39.6362-1.193,26.0873,13.3887,42.7049,16.3169,45.7538.6655.7074,1.5725,1.1511,2.5634,1.2521,5.7134.5854,11.9345.9489,18.5549.9489" style="fill: #fff;"/>
      <path d="M45.0989,151.9297c-6.2408,0-12.2549.2021-17.9929.5447-2.2183,2.3021-14.1922,15.2644-15.1831,36.9705-1.1289,25.0582,13.3887,40.8279,15.1831,42.7258,5.5753.5644,11.6535.9083,18.1359.9083,5.7134,0,11.7718-.2625,18.0915-.9083,23.6028-2.4229,43.2471-9.1678,57.9077-15.8104-.5028-18.3737-.9908-36.7278-1.4937-55.083-16.4155-4.1384-35.4387-7.5312-56.6556-8.803-6.2014-.3636-12.1958-.5447-17.9929-.5447M45.0989,143.6911c5.9549,0,12.1169.1614,18.476.5447,19.4817,1.172,39.0718,4.2209,58.1936,9.0458,3.5937.9095,6.1373,4.0792,6.2162,7.7739l.0394,1.4542,1.4542,53.6288c.1035,3.3114-1.8141,6.3604-4.8458,7.7333-19.5063,8.8436-39.8359,14.3968-60.4513,16.4968-6.2803.6248-12.6394.9687-18.9394.9687s-12.6838-.3438-18.9591-.9687c-1.9817-.2021-3.8007-1.0907-5.1514-2.5239-3.1303-3.2917-18.6979-21.101-17.4458-48.783,1.0697-23.4623,13.65-38.304,17.4655-42.3019,1.4345-1.4937,3.3915-2.4019,5.4521-2.5239,5.9155-.3426,12.0725-.5447,18.4957-.5447" style="fill: #261f20;"/>
    </g>
    <path d="M129.4155,198.5519c1.4854,16.4662-22.0825,32.2906-40.3242,37.6163-16.2686,4.7496-45.1738,6.0751-54.1709-10.1351-9.2549-16.6743,6.1323-45.4565,27.981-54.7786,27.5454-11.7524,64.7456,7.6885,66.5142,27.2974Z" style="fill: #261f20;"/>
  </g>
</svg>