<?xml version="1.0" encoding="UTF-8"?>
<svg id="szem2" xmlns="http://www.w3.org/2000/svg" version="1.1" viewBox="0 0 420.712 281.8062">
  <!-- Generator: Adobe Illustrator 29.4.0, SVG Export Plug-In . SVG Version: 2.1.0 Build 152)  -->
  <rect x="31.9194" y="257.3634" width="360.1129" height="4.8992" style="fill: #aad7db;"/>
  <g>
    <g>
      <path d="M389.8423,260.3136c.6445-13.3951.6646-28.9425.689-46.9056.0151-21.7461-1.748-66.7144-2.8911-96.4607-.5542-14.2854-.9844-24.9364-.9844-27.4921,0-4.0001-7.0605-16.619-7.1265-16.714-26.3789-39.0325-94.905-52.9368-150.2551-52.9368-61.8411,0-143.9812,17.1266-171.6348,64.9366-.0466.0793-3.4607,7.4287-3.4607,7.4287-.4263.9205-.6316,1.7933-.7285,2.8096-1.6997,20.467-1.8867,68.8185-2.0928,163.0891" style="fill: #76c615; stroke: #261f20; stroke-miterlimit: 10; stroke-width: 16.4225px;"/>
      <path d="M127.2288,258.7902c3.2249-.3579,6.4612-.5577,9.7371-.3372,8.4163.5667,16.3496,1.251,24.8213.6929,3.0938-.2039,6.1909-.3135,9.2898-.3496-6.6377-21.4346-10.4839-41.8452.2419-54.9713,7.5876-9.3025,22.9375-15.0961,40.0312-15.0961,16.4426,0,31.1724,5.4448,38.4114,14.2068,11.2051,13.5776,5.7751,35.938-1.4592,58.7566,13.5403-.8406,27.1553.9659,40.6367-.7161,5.1128-.6379,10.4163-1.0824,15.1338-.0615-.1694-7.3354-.4321-15.0466-.7087-23.1057-1.9338-55.9208-2.9026-83.9844-18.4888-100.0164-14.2571-14.6667-36.4778-22.7457-62.5427-22.7457s-51.6958,8.1749-70.2854,22.4125c-27.8916,21.3914-32.5608,57.2583-31.8083,121.4519,2.2668-.3335,4.5684-.3718,6.99-.1211Z" style="fill: #261f20;"/>
      <path d="M117.4634,259.4829c1.7231-.4482,3.4502-.7141,5.2124-.8064-.7341-62.8079,3.7974-98.0382,30.6475-118.6241,18.5391-14.2067,44.0305-21.7944,68.4446-21.7944,23.4607,0,45.9526,7.0006,60.3647,21.8254,14.7957,15.2064,15.7451,42.8728,17.6519,98.191.2683,7.7539.5139,15.137.676,22.1317,2.124.1591,4.1753.5306,6.0942,1.2108-.1704-7.48-.4402-15.3378-.7249-23.5488-1.9648-56.8103-2.9492-85.3176-19.3647-102.1904-14.8228-15.2704-37.8069-23.667-64.6973-23.667-26.7314,0-53.0173,8.3966-72.1262,23.048-29.0559,22.2692-33.7971,58.9368-32.9998,124.1458.2747.0205.5476.0548.8215.0785Z" style="fill: #261f20;"/>
      <path d="M173.6233,258.7866c-6.5247-20.8918-10.4434-40.7161-.5208-52.8618,7.0295-8.6185,21.4766-13.9839,37.6829-13.9839,15.5708,0,29.3938,5.032,36.0786,13.111,10.3872,12.5775,4.8079,34.5463-2.3379,56.9501,2.1611-.2217,4.3247-.3633,6.49-.4453,7.2661-23.1428,12.4673-45.875.498-60.3616-8.4131-10.1909-24.4915-15.2859-40.7288-15.2859-16.6985,0-33.5559,5.3962-42.3835,16.1907-11.4277,14-7.7197,35.0603-1.0862,56.7823,2.1016-.0675,4.2043-.098,6.3076-.0956Z" style="fill: #261f20;"/>
      <path d="M136.9659,258.4531c3.564.24,7.0408.4957,10.509.6746,3.334-3.3716,6.1824-7.2651,6.6428-12.4159,1.333-14.9207-18.7795-24.0004-15.1252-33.3339,3.1584-8.0315,19.4731-4.8412,22.3953-12.8097,3.5728-9.6979-17.063-24.0634-14.4121-27.9366,2.9683-4.349,28.3977,14.3975,40.0623,6.1277,9.7773-6.9366,3.7629-28.4763,9.2385-29.8733,5.9834-1.5394,13.4587,24.3337,24.2205,23.8726,9.9866-.4119,15.3845-23.1906,20.4148-22.0154,4.8557,1.1433-.0969,22.5239,8.9517,27.7303,8.3667,4.8092,22.5889-7.6508,25.2397-4.4923,3.0149,3.6349-16.5396,19.2222-12.5249,29.635,3.7627,9.7937,26.2236,9.3489,26.0493,12.8726-.1123,2.2389-9.1145.9843-15.4622,6.6982-8.793,7.9211-9.572,26.6038-1.3796,35.3811,1.2356,1.3258,2.6018,2.334,3.989,3.146,4.3972-.0194,8.7881-.1918,13.1643-.7378,1.917-.2393,3.8611-.4512,5.7908-.5688.0767-4.1245.1567-8.486.2454-13.125.7441-39.6981,1.5076-67.6667-14.3809-91.6981-3.2708-4.9362-5.9526-7.7621-6.9368-8.762-21.2559-21.7614-55.6833-19.7299-62.3025-19.3336-1.4453.0795-2.5073.1753-3.1272.2383-8.3008.6986-42.6008,3.6196-62.6165,30.0322-11.1606,14.7299-12.6836,29.9043-15.6831,59.6663-.7549,7.5386-.3037,26.9346.1233,41.1051,2.2917-.1726,4.5928-.2338,6.9143-.0775Z" style="fill: #fff;"/>
      <line x1="88.8081" y1="96.2756" x2="134.443" y2="147.0055" style="fill: #76c615;"/>
    </g>
    <g>
      <g>
        <path d="M107.1409,221.2117c2.3283-.0501,4.2877-1.1555,4.8078-2.6795,5.6968-16.2773,9.162-32.9068,10.3776-49.4524.768-10.3158.641-20.8662-.3447-31.3659-.1028-.854-.6713-1.6579-1.5663-2.2609-5.9447-3.9188-22.6118-13.1123-48.8944-13.7992l-3.048-.0501c-30.4192,0-49.5657,12.0238-53.0552,14.4186-.8467.5862-1.3909,1.34-1.4877,2.1434-1.3909,10.5504-1.2639,21.2684.3689,31.852,2.7274,17.3158,9.6096,34.3976,20.4105,50.7756.8164,1.2557,2.6791,2.0596,4.711,2.0596.0726,0,67.7205-1.641,67.7205-1.641" style="fill: #fff;"/>
        <path d="M69.5386,125.0931c-30.091,0-48.7846,11.8566-51.0916,13.3806-1.2504,9.0601-1.5067,19.5599.3876,31.182,3.2761,20.28,12.0602,37.144,20.6379,49.7202,23.2825-.5525,46.5588-1.1049,69.8351-1.641,5.0704-14.1508,9.1967-30.5626,10.5784-48.8325.844-11.0696.5877-21.4191-.3876-30.9479-2.9447-1.892-19.5126-12.1244-47.0152-12.8277-1.0003-.0169-1.9694-.0337-2.9447-.0337M69.5386,118.1268c1.1004,0,2.2257.0169,3.3573.0501,29.0907.737,47.5029,10.5841,54.055,14.7871,1.8694,1.2061,3.026,2.8134,3.176,4.5219,1.0503,10.5504,1.2066,21.2346.3876,31.7681-1.2567,16.7465-4.9203,33.5932-10.8348,50.0718-1.1004,3.048-5.2017,5.2583-9.9845,5.359l-28.528.6864-41.3071.9715h-.3876c-4.1951,0-8.0151-1.6078-9.7282-4.1365-11.3974-16.6964-18.6435-34.1293-21.5132-51.8135-1.7381-10.7849-1.8944-21.7202-.3814-32.5383.2063-1.6247,1.2817-3.1487,3.0447-4.2873,3.92-2.5788,25.1769-15.4402,58.644-15.4402" style="fill: #261f20;"/>
      </g>
      <path d="M120.5715,171.121c2.8878,9.8805-5.5202,21.0243-18.7176,24.8827-13.2326,3.8221-26.2892-1.0818-29.133-10.9634-2.8878-9.8805,5.4762-21.0232,18.7088-24.8816,13.2415-3.8232,26.254,1.0818,29.1418,10.9623" style="fill: #261f20;"/>
    </g>
    <g>
      <g>
        <path d="M313.5711,221.2117c-2.3283-.0501-4.2877-1.1555-4.8078-2.6795-5.6968-16.2773-9.162-32.9068-10.3776-49.4524-.768-10.3158-.641-20.8662.3447-31.3659.1028-.854.6713-1.6579,1.5663-2.2609,5.9447-3.9188,22.6118-13.1123,48.8944-13.7992l3.048-.0501c30.4192,0,49.5657,12.0238,53.0552,14.4186.8467.5862,1.3909,1.34,1.4877,2.1434,1.3909,10.5504,1.2639,21.2684-.3689,31.852-2.7274,17.3158-9.6096,34.3976-20.4105,50.7756-.8164,1.2557-2.6791,2.0596-4.711,2.0596-.0726,0-67.7205-1.641-67.7205-1.641" style="fill: #fff;"/>
        <path d="M351.1734,125.0931c30.091,0,48.7846,11.8566,51.0916,13.3806,1.2504,9.0601,1.5067,19.5599-.3876,31.182-3.2761,20.28-12.0602,37.144-20.6379,49.7202-23.2825-.5525-46.5588-1.1049-69.8351-1.641-5.0704-14.1508-9.1967-30.5626-10.5784-48.8325-.844-11.0696-.5877-21.4191.3876-30.9479,2.9447-1.892,19.5126-12.1244,47.0152-12.8277,1.0003-.0169,1.9694-.0337,2.9447-.0337M351.1734,118.1268c-1.1004,0-2.2257.0169-3.3573.0501-29.0907.737-47.5029,10.5841-54.055,14.7871-1.8694,1.2061-3.026,2.8134-3.176,4.5219-1.0503,10.5504-1.2066,21.2346-.3876,31.7681,1.2567,16.7465,4.9203,33.5932,10.8348,50.0718,1.1004,3.048,5.2017,5.2583,9.9845,5.359l28.528.6864,41.3071.9715h.3876c4.1951,0,8.0151-1.6078,9.7282-4.1365,11.3974-16.6964,18.6435-34.1293,21.5132-51.8135,1.7381-10.7849,1.8944-21.7202.3814-32.5383-.2063-1.6247-1.2817-3.1487-3.0447-4.2873-3.92-2.5788-25.1769-15.4402-58.644-15.4402" style="fill: #261f20;"/>
      </g>
      <path d="M300.1405,171.121c-2.8878,9.8805,5.5202,21.0243,18.7176,24.8827,13.2326,3.8221,26.2892-1.0818,29.133-10.9634,2.8878-9.8805-5.4762-21.0232-18.7088-24.8816-13.2415-3.8232-26.254,1.0818-29.1418,10.9623" style="fill: #261f20;"/>
    </g>
  </g>
</svg>