<?xml version="1.0" encoding="UTF-8"?>
<svg id="szem2" xmlns="http://www.w3.org/2000/svg" version="1.1" viewBox="0 0 420.712 281.8062">
  <!-- Generator: Adobe Illustrator 29.4.0, SVG Export Plug-In . SVG Version: 2.1.0 Build 152)  -->
  <g id="_x35_">
    <g>
      <path d="M386.4515,260.0384c.6445-13.3951.6646-28.9425.689-46.9056.0151-21.7461-1.748-66.7144-2.8911-96.4607-.5542-14.2854-.9844-24.9364-.9844-27.4921,0-4.0001-7.0605-16.619-7.1265-16.714-26.3789-39.0325-94.905-52.9368-150.2551-52.9368-61.8411,0-143.9812,17.1266-171.6348,64.9366-.0466.0793-3.4607,7.4287-3.4607,7.4287-.4263.9205-.6316,1.7933-.7285,2.8096-1.6997,20.467-1.8867,68.8185-2.0928,163.0891" style="fill: #76c615; stroke: #261f20; stroke-miterlimit: 10; stroke-width: 16.4225px;"/>
      <path d="M60.9399,135.5736c-9.3065,0-18.2731.1717-26.8427.4725-3.2875,1.9541-21.1635,12.9266-22.6462,31.2863-1.6813,21.2365,19.9544,34.593,22.6462,36.1821,8.3357.4941,17.3729.7942,27.0412.7942,8.5298,0,17.5494-.2359,27.0015-.7942,35.1916-2.04,64.4921-7.7516,86.3616-13.3781-.7413-15.5465-1.4827-31.093-2.224-46.6395-24.473-3.5216-52.8646-6.3774-84.5171-7.4508-9.2359-.3224-18.1805-.4725-26.8206-.4725M60.9399,125.4812c8.7107,0,17.748.1501,27.0765.4509,28.5372.9666,57.242,3.5,85.2938,7.5373,4.0862.5793,7.2281,4.5734,7.4619,9.4482l1.1032,23.384,1.1208,23.2555c.2383,4.96-2.6035,9.405-6.6853,10.4574-28.343,7.2791-57.8774,11.8532-87.7517,13.5924-9.077.5367-18.3129.7942-27.4207.7942s-18.3437-.2575-27.456-.7942c-1.1738-.0642-2.3299-.4292-3.3978-1.0524-4.9334-2.9417-29.4418-19.0032-27.2928-46.167,1.7563-21.9882,19.6852-34.8721,27.3104-39.3813,1.1032-.6658,2.3167-1.0308,3.5611-1.074,8.6401-.2792,17.6774-.4509,27.0765-.4509" style="fill: #261f20;"/>
      <path d="M64.0943,207.1285c8.3296,0,17.129-.2218,26.3299-.7468,28.7135-1.6157,57.0766-5.8762,84.2652-12.6809,1.9948-.4843,3.3574-2.5844,3.2378-4.9062l-2.1529-43.8567c-.1068-2.3021-1.6275-4.1797-3.6052-4.4422-27.0689-3.7761-54.7102-6.1387-82.1977-7.0469-9.0087-.3032-17.7398-.4246-26.1761-.4246-9.0087,0-17.7056.1417-26.0138.4246-.598.0197-1.1747.1812-1.7172.4843-5.2668,3.0287-22.6393,14.3971-24.16,33.2357-1.8581,22.433,19.7859,36.1837,24.1429,38.7077,9.7819.9693,18.6155,1.2521,28.0471,1.2521" style="fill: #fff;"/>
      <path d="M121.2117,168.5149c1.7397,5.9954-3.3341,12.7341-11.3353,15.0549-8.0048,2.3208-15.9043-.6397-17.644-6.6347-1.7397-5.9805,3.3305-12.7195,11.3353-15.0553,8.0048-2.3204,15.9043.6397,17.644,6.6351" style="fill: #261f20;"/>
      <path d="M357.9398,209.8216c-8.8434,0-18.1856-.228-27.9541-.7675-30.4846-1.6605-60.5974-6.039-89.463-13.0324-2.1179-.4978-3.5646-2.656-3.4376-5.0422l2.2857-45.0724c.1134-2.366,1.7279-4.2956,3.8276-4.5654,28.7386-3.8808,58.085-6.3088,87.2681-7.2423,9.5644-.3116,18.8341-.4363,27.7908-.4363,9.5644,0,18.7978.1457,27.6185.4363.6349.0203,1.2471.1862,1.8231.4978,5.5917,3.1126,24.0358,14.7961,25.6503,34.157,1.9727,23.0549-21.0064,37.1867-25.6321,39.7806-10.3853.9962-19.7638,1.2868-29.7772,1.2868" style="fill: #fff;"/>
      <path d="M358.162,134.1774c9.5644,0,18.7797.1764,27.5867.4856,3.3786,2.0083,21.7501,13.2849,23.2739,32.1535,1.7279,21.8252-20.5075,35.5519-23.2739,37.1851-8.5667.5078-17.8545.8162-27.7908.8162-8.7663,0-18.0359-.2424-27.75-.8162-36.1671-2.0965-66.2798-7.9665-88.7556-13.7489.7619-15.9774,1.5238-31.9549,2.2857-47.9323,25.1514-3.6192,54.33-6.5542,86.8599-7.6574,9.4919-.3313,18.6844-.4856,27.5641-.4856M358.162,123.8053c-8.9522,0-18.24.1542-27.8271.4633-29.3282.9934-58.8287,3.597-87.6581,7.7463-4.1995.5953-7.4284,4.7002-7.6688,9.7101l-1.1338,24.0322-1.1519,23.9002c-.2449,5.0975,2.6757,9.6657,6.8706,10.7473,29.1287,7.4809,59.4818,12.1818,90.1841,13.9691,9.3286.5516,18.8205.8162,28.1808.8162s18.8522-.2647,28.2171-.8162c1.2063-.066,2.3945-.4411,3.492-1.0816,5.0702-3.0232,30.2579-19.53,28.0493-47.4467-1.805-22.5977-20.2309-35.8388-28.0675-40.4729-1.1338-.6842-2.3809-1.0594-3.6598-1.1038-8.8796-.2869-18.1674-.4633-27.8271-.4633" style="fill: #261f20;"/>
      <path d="M292.5608,168.6075c-1.7879,6.1616,3.4265,13.087,11.6495,15.4722,8.2267,2.3851,16.3452-.6574,18.1331-6.8186,1.7879-6.1462-3.4228-13.0721-11.6495-15.4727-8.2267-2.3847-16.3452.6574-18.1331,6.819" style="fill: #261f20;"/>
      <path d="M123.838,258.5151c3.2249-.3579,6.4612-.5577,9.7371-.3372,8.4163.5667,16.3496,1.251,24.8213.6929,3.0938-.2039,6.1909-.3135,9.2898-.3496-6.6377-21.4346-10.4839-41.8452.2419-54.9713,7.5876-9.3025,22.9375-15.0961,40.0312-15.0961,16.4426,0,31.1724,5.4448,38.4114,14.2068,11.2051,13.5776,5.7751,35.938-1.4592,58.7566,13.5403-.8406,27.1553.9659,40.6367-.7161,5.1128-.6379,10.4163-1.0824,15.1338-.0615-.1694-7.3354-.4321-15.0466-.7087-23.1057-1.9338-55.9208-2.9026-83.9844-18.4888-100.0164-14.2571-14.6667-36.4778-22.7457-62.5427-22.7457s-51.6958,8.1749-70.2854,22.4125c-27.8916,21.3914-32.5608,57.2583-31.8083,121.4519,2.2668-.3335,4.5684-.3718,6.99-.1211Z" style="fill: #261f20;"/>
      <path d="M114.0726,259.2077c1.7231-.4482,3.4502-.7141,5.2124-.8064-.7341-62.8079,3.7974-98.0382,30.6475-118.6241,18.5391-14.2067,44.0305-21.7944,68.4446-21.7944,23.4607,0,45.9526,7.0006,60.3647,21.8254,14.7957,15.2064,15.7451,42.8728,17.6519,98.191.2683,7.7539.5139,15.137.676,22.1317,2.124.1591,4.1753.5306,6.0942,1.2108-.1704-7.48-.4402-15.3378-.7249-23.5488-1.9648-56.8103-2.9492-85.3176-19.3647-102.1904-14.8228-15.2704-37.8069-23.667-64.6973-23.667-26.7314,0-53.0173,8.3966-72.1262,23.048-29.0559,22.2692-33.7971,58.9368-32.9998,124.1458.2747.0205.5476.0548.8215.0785Z" style="fill: #261f20;"/>
      <path d="M170.2326,258.5114c-6.5247-20.8918-10.4434-40.7161-.5208-52.8618,7.0295-8.6185,21.4766-13.9839,37.6829-13.9839,15.5708,0,29.3938,5.032,36.0786,13.111,10.3872,12.5775,4.8079,34.5463-2.3379,56.9501,2.1611-.2217,4.3247-.3633,6.49-.4453,7.2661-23.1428,12.4673-45.875.498-60.3616-8.4131-10.1909-24.4915-15.2859-40.7288-15.2859-16.6985,0-33.5559,5.3962-42.3835,16.1907-11.4277,14-7.7197,35.0603-1.0862,56.7823,2.1016-.0675,4.2043-.098,6.3076-.0956Z" style="fill: #261f20;"/>
      <path d="M133.5751,258.1779c3.564.24,7.0408.4957,10.509.6746,3.334-3.3716,6.1824-7.2651,6.6428-12.4159,1.333-14.9207-18.7795-24.0004-15.1252-33.3339,3.1584-8.0315,19.4731-4.8412,22.3953-12.8097,3.5728-9.6979-17.063-24.0634-14.4121-27.9366,2.9683-4.349,28.3977,14.3975,40.0623,6.1277,9.7773-6.9366,3.7629-28.4763,9.2385-29.8733,5.9834-1.5394,13.4587,24.3337,24.2205,23.8726,9.9866-.4119,15.3845-23.1906,20.4148-22.0154,4.8557,1.1433-.0969,22.5239,8.9517,27.7303,8.3667,4.8092,22.5889-7.6508,25.2397-4.4923,3.0149,3.6349-16.5396,19.2222-12.5249,29.635,3.7627,9.7937,26.2236,9.3489,26.0493,12.8726-.1123,2.2389-9.1145.9843-15.4622,6.6982-8.793,7.9211-9.572,26.6038-1.3796,35.3811,1.2356,1.3258,2.6018,2.334,3.989,3.146,4.3972-.0194,8.7881-.1918,13.1643-.7378,1.917-.2393,3.8611-.4512,5.7908-.5688.0767-4.1245.1567-8.486.2454-13.125.7441-39.6981,1.5076-67.6667-14.3809-91.6981-3.2708-4.9362-5.9526-7.7621-6.9368-8.762-21.2559-21.7614-55.6833-19.7299-62.3025-19.3336-1.4453.0795-2.5073.1753-3.1272.2383-8.3008.6986-42.6008,3.6196-62.6165,30.0322-11.1606,14.7299-12.6836,29.9043-15.6831,59.6663-.7549,7.5386-.3037,26.9346.1233,41.1051,2.2917-.1726,4.5928-.2338,6.9143-.0775Z" style="fill: #fff;"/>
    </g>
    <rect x="37.5785" y="257.3779" width="360.1129" height="4.8992" style="fill: #aad7db;"/>
  </g>
  <line x1="371.678" y1="104.7607" x2="282.6771" y2="109.4666" style="fill: none; stroke: #261f20; stroke-linecap: round; stroke-linejoin: round; stroke-width: 20.7318px;"/>
  <line x1="53.407" y1="104.7607" x2="142.4079" y2="109.4666" style="fill: none; stroke: #261f20; stroke-linecap: round; stroke-linejoin: round; stroke-width: 20.7318px;"/>
</svg>