<?xml version="1.0" encoding="UTF-8"?>
<svg id="KARAKTER_JAV" data-name="KARAKTER JAV" xmlns="http://www.w3.org/2000/svg" xmlns:xlink="http://www.w3.org/1999/xlink" viewBox="0 0 729.5985 901.2688">
  <defs>
    <style>
      .cls-1 {
        fill: none;
      }

      .cls-2 {
        fill: #271f20;
      }

      .cls-3, .cls-4 {
        fill: #76c615;
      }

      .cls-5 {
        fill: #261f1f;
      }

      .cls-6 {
        clip-path: url(#clippath-1);
      }

      .cls-4 {
        stroke: #271f20;
        stroke-linecap: round;
        stroke-linejoin: round;
        stroke-width: 20.3912px;
      }

      .cls-7 {
        clip-path: url(#clippath);
      }
    </style>
    <clipPath id="clippath">
      <polygon class="cls-1" points="364.8166 55.5232 360.3998 687.2036 11.2131 687.2036 11.2131 55.5232 364.8166 55.5232"/>
    </clipPath>
    <clipPath id="clippath-1">
      <polygon class="cls-1" points="364.817 55.5235 360.4003 687.2039 709.5528 692.0868 718.3859 60.4681 364.817 55.5235"/>
    </clipPath>
  </defs>
  <g>
    <path class="cls-3" d="M218.8058,833.5747c-4.4268,0-8.1331-3.391-8.5087-7.8025-2.1808-24.9301,15.4306-47.0651,40.0943-50.3776,2.0429-.2827,4.0665-.4082,6.0749-.4082,10.8658,0,21.0073,3.8462,29.0599,10.3139l-.2836-103.7696c0-2.2766.9122-4.4584,2.5143-6.0596,1.5983-1.6011,3.7829-2.5124,6.0442-2.5124h18.0062c4.7258,0,8.5547,3.8308,8.5547,8.5403v143.5353c0,4.7095-3.8289,8.5403-8.5547,8.5403h-93.0015Z"/>
    <path class="cls-5" d="M311.8035,681.502v143.5353h-93.0015c-1.7554-20.2982,12.8742-38.5095,32.7163-41.178,1.6672-.2204,3.3153-.3296,4.9481-.3296,18.4125,0,34.8971,13.7366,37.6912,32.6847-.1265-44.914-.2338-89.8136-.3603-134.7123h18.0062ZM311.8035,664.406h-18.0062c-4.538,0-8.8843,1.8052-12.1038,5.0238-3.2042,3.2185-5.0094,7.5821-4.9941,12.1191l.1878,67.349.0498,21.5391c-6.3739-2.5909-13.2996-4.0033-20.4707-4.0033-2.3878,0-4.8063.1562-7.2247.4868-29.1825,3.9247-50.0326,30.0947-47.4724,59.5924.7704,8.8383,8.1637,15.6203,17.0327,15.6203h93.0015c9.4362,0,17.0979-7.6607,17.0979-17.096v-143.5353c0-9.4353-7.6617-17.096-17.0979-17.096"/>
    <path class="cls-3" d="M504.0808,837.3443c4.4268,0,8.1331-3.391,8.5087-7.8025,2.1808-24.9301-15.4306-47.0651-40.0943-50.3776-2.0429-.2827-4.0665-.4082-6.0749-.4082-10.8658,0-21.0073,3.8462-29.0599,10.3139l.2836-103.7696c0-2.2766-.9122-4.4584-2.5143-6.0596-1.5983-1.6011-3.7829-2.5124-6.0442-2.5124h-18.0062c-4.7258,0-8.5547,3.8308-8.5547,8.5403v143.5353c0,4.7095,3.8289,8.5403,8.5547,8.5403h93.0015Z"/>
    <path class="cls-5" d="M411.0831,685.2716v143.5353h93.0015c1.7554-20.2982-12.8742-38.5095-32.7163-41.178-1.6672-.2204-3.3153-.3296-4.9481-.3296-18.4125,0-34.8971,13.7366-37.6912,32.6847.1265-44.914.2338-89.8136.3603-134.7123h-18.0062ZM411.0831,668.1757h18.0062c4.538,0,8.8843,1.8052,12.1038,5.0238,3.2042,3.2185,5.0094,7.5821,4.9941,12.1191l-.1878,67.349-.0498,21.5391c6.3739-2.5909,13.2996-4.0033,20.4707-4.0033,2.3878,0,4.8063.1562,7.2247.4868,29.1825,3.9247,50.0326,30.0947,47.4724,59.5924-.7704,8.8383-8.1637,15.6203-17.0327,15.6203h-93.0015c-9.4362,0-17.0979-7.6607-17.0979-17.096v-143.5353c0-9.4353,7.6617-17.096,17.0979-17.096"/>
  </g>
  <rect class="cls-2" x="349.1804" y="667.11" width="6.5839" height="19.7449"/>
  <g>
    <g>
      <g id="_Mirror_Repeat_" data-name="&amp;lt;Mirror Repeat&amp;gt;">
        <g class="cls-7">
          <path class="cls-4" d="M365.8694,65.7937c-.001,0-46.0488-1.8189-88.1239,12.4665-20.2025,6.8592-42.0806,14.8271-61.8202,35.6782-11.6025,12.2561-18.3186,24.6912-22.1355,33.2045-.524,3.5689-1.0288,7.1867-1.5116,10.8525-.4584,3.4796-.887,6.9222-1.2871,10.3264,0,0-6.0339,94.2415-.3836,194.7354.4838,8.6025,1.8218,24.917,13.6741,33.685,6.3428,4.6924,13.6388,5.6972,18.5729,5.8484,13.6151.9063,27.2298,1.8126,40.8446,2.7188,8.1374,3.0344,13.25,10.5892,12.6457,18.4956-.5432,7.1015-5.6108,13.3446-12.9185,15.9041-31.1973,4.6093-56.441,3.5449-77.3336.0026-23.6419-4.0084-41.5896-11.0129-56.9475-17.0736-55.827-22.0311-80.5252-46.2089-98.1135-36.3766-.7079.3957-7.1015,4.0841-9.1032,10.7925-.7264,2.435-2.85,11.8577,12.7188,28.1356,44.8996,46.9446,125.6509,55.5732,125.6509,55.5732,6.3647.4542,15.7581,1.4578,26.943,3.9445,10.4197,2.3165,15.6294,3.4747,18.3914,6.1698,7.7119,7.5252,2.0606,23.0971-7.2751,52.4044-17.0922,53.6585-19.4719,68.4009-16.4135,84.8065,1.4543,7.7984,3.5636,18.3925,11.9354,27.9342.2889.3291.6441.7243,1.085,1.1744,15.2234,15.5465,51.698,18.0128,51.6984,18.0128,34.8738,0,64.0936,2.0486,90.5949,1.773,1.3602-.0141,23.3114-.2413,24.5595-.2541"/>
        </g>
      </g>
      <g id="_Mirror_Repeat_-2" data-name="&amp;lt;Mirror Repeat&amp;gt;">
        <g class="cls-6">
          <path class="cls-4" d="M363.6207,65.7783c.001.0001,46.0697-1.1748,87.941,13.6976,20.1046,7.141,41.8692,15.4141,61.3153,36.5392,11.43,12.4171,17.9716,24.945,21.669,33.5108.474,3.5759.9282,7.2004,1.3597,10.8726.4097,3.4857.7902,6.9339,1.1426,10.3434,0,0,4.7155,94.3166-2.3395,194.7218-.6041,8.5949-2.17,24.8891-14.1438,33.4905-6.4077,4.6032-13.7171,5.5059-18.6529,5.5881-13.6264.7159-27.2525,1.4316-40.8786,2.1474-8.1791,2.9203-13.3968,10.4029-12.9031,18.317.4438,7.1084,5.4237,13.4218,12.6948,16.0832,31.1298,5.0451,56.3859,4.3338,77.326,1.084,23.6956-3.6774,41.7395-10.4303,57.1807-16.2756,56.1296-21.2483,81.1635-45.0783,98.6125-35.0011.7023.4056,7.0436,4.183,8.9514,10.9188.6923,2.4449,2.6839,11.8964-13.111,27.955-45.5516,46.3121-126.4158,53.8107-126.4158,53.8107-6.3704.3651-15.7769,1.2373-26.9955,3.5673-10.4511,2.1706-15.6764,3.2558-18.4759,5.912-7.8164,7.4166-2.3834,23.066,6.5416,52.501,16.3402,53.8923,18.5136,68.6665,15.226,85.0277-1.5632,7.7773-3.8204,18.3409-12.3248,27.7645-.2935.325-.6542.7152-1.1014,1.1591-15.4393,15.3321-51.9449,17.2881-51.9452,17.2881-34.8704-.4877-64.116,1.1521-90.6108.506-1.3599-.0332-23.3058-.5672-24.5535-.5975"/>
        </g>
      </g>
    </g>
    <rect class="cls-3" x="342.4664" y="77.5323" width="32.1268" height="588.8872"/>
    <rect class="cls-2" x="360.8661" y="56.518" width="6.5839" height="18.7316"/>
  </g>
  <rect class="cls-2" x="359.2713" y="666.6425" width="2.6231" height="20.2921"/>
</svg>