<?xml version="1.0" encoding="UTF-8"?>
<svg id="Főpanel" xmlns="http://www.w3.org/2000/svg" viewBox="0 0 729.5985 901.2688">
  <defs>
    <style>
      .cls-1 {
        fill: #76c615;
      }

      .cls-2 {
        fill: #261f20;
      }
    </style>
  </defs>
  <path class="cls-1" d="M212.0046,869.1302c-5.1784,0-9.5139-3.9667-9.9533-9.1272-2.5511-29.1627,18.0504-55.0559,46.9016-58.9307,2.3897-.3307,4.757-.4775,7.1063-.4775,12.7106,0,24.5739,4.4992,33.9937,12.065l-.3318-121.3877c0-2.6632,1.0671-5.2154,2.9412-7.0884,1.8696-1.873,4.4252-2.9389,7.0704-2.9389h21.0633c5.5281,0,10.0071,4.4812,10.0071,9.9903v167.9048c0,5.5091-4.479,9.9903-10.0071,9.9903h-108.7914Z"/>
  <path class="cls-2" d="M320.7915,691.2385v167.9048h-108.7914c-2.0534-23.7444,15.06-45.0476,38.2709-48.1693,1.9503-.2578,3.8782-.3856,5.7882-.3856,21.5386,0,40.822,16.0687,44.0904,38.2339-.148-52.5395-.2735-105.0622-.4214-157.5838h21.0633ZM320.7915,671.24h-21.0633c-5.3084,0-10.3927,2.1117-14.1588,5.8767-3.7482,3.765-5.8599,8.8694-5.842,14.1767l.2197,78.7835.0583,25.196c-7.456-3.0308-15.5576-4.683-23.9462-4.683-2.7932,0-5.6223.1827-8.4513.5694-34.1371,4.5911-58.5272,35.2042-55.5322,69.7101.9012,10.3389,9.5498,18.2724,19.9245,18.2724h108.7914c11.0383,0,20.0008-8.9613,20.0008-19.9985v-167.9048c0-11.0372-8.9625-19.9985-20.0008-19.9985"/>
  <path class="cls-1" d="M355.4619,685.9166c-96.5425,0-156.482-2.3695-175.2498-35.2961-7.2722-12.8182-3.5823-32.8717,5.3802-81.3536,3.2505-17.6111,6.7566-31.9727,9.5857-43.5233,5.7119-23.286,8.0433-33.8087,3.1788-39.4837-1.2688-1.4695-1.7844-1.7631-12.1771-2.9927-6.9404-.8081-16.692-1.966-31.1108-4.72-30.2634-5.8218-55.864-16.9509-80.5634-35.0574-.6053-.4405-60.8945-44.9748-46.6998-64.6796,1.4347-2.0019,4.8108-5.3432,11.2939-5.3432,7.5098,0,17.6873,4.3523,38.2171,13.4056,35.1863,15.5173,88.3333,38.9501,142.1932,38.9501l5.6761-.0919c37.2621-1.1747,43.947-12.9651,44.5881-14.3056,1.6185-3.3234,3.9141-10.7245,1.1747-15.1138-2.6273-4.2604-10.303-4.7009-22.6236-4.9217-13.9212-.2567-31.2363-.5503-44.4805-12.2118-16.3602-14.4155-16.3422-37.1321-16.3064-57.1496.26-121.4067.3856-182.3393,2.4614-207.3324.1121-1.1758.3497-2.1857.8429-3.2505,0,0,3.9499-8.5029,4.0037-8.5948,31.994-55.3137,127.0256-75.1284,198.5728-75.1284,64.0374,0,143.3185,16.0867,173.8375,61.2453.0762.1098,8.2451,14.7091,8.2451,19.3372,0,2.9568.4977,15.2797,1.1388,31.8068,1.3226,34.4151,3.3626,86.4413,3.3447,111.6002-.0942,69.6182-.13,107.8711-27.4747,126.2354-12.2668,8.2642-25.5244,9.2191-34.433,9.2191-5.5281,0-11.11-.4405-16.5843-.8631-4.7525-.3856-9.4018-.7532-13.8629-.7532-9.5498,0-15.1496,1.818-19.3013,6.2813-5.6178,6.0235-5.5819,17.2983-2.04,23.6525,2.0041,3.5991,10.0116,11.9552,41.2658,12.213,62.1274,0,121.9414-32.3034,154.0789-49.6578,18.1042-9.7695,24.6815-13.1489,30.5728-13.1489,3.125,0,7.604,2.0389,9.496,4.5361,1.5961,2.1117,3.2146,5.7848,1.8382,11.2939-3.1788,12.6714-28.0082,46.0396-71.0361,65.8184-27.3447,12.5604-51.4209,14.5444-70.7402,16.1237-19.1713,1.5793-29.3622,2.736-33.6395,10.2649-3.3626,5.9686,1.2823,20.6598,8.2989,42.9359l2.8649,9.0902c28.8332,92.3359,28.1517,101.2423,23.8924,112.5552-17.759,46.9935-109.5087,47.8207-153.6171,48.2062-.0179,0-38.235.2018-54.102.2018"/>
  <path class="cls-2" d="M393.4279,37.7159c70.9957,0,139.7721,18.7319,165.5341,56.8381,1.2688,1.8909,6.5414,13.6443,6.5414,13.7362,0,9.1082,4.4969,106.256,4.461,143.4071-.0538,67.066-.0941,102.5269-23.0316,117.9533-8.9042,5.9865-18.8216,7.5109-28.8466,7.5109-10.3793,0-20.8437-1.6163-30.4697-1.6163-10.2447,0-19.521,1.8371-26.6273,9.4758-8.5948,9.2382-9.0521,25.2699-3.4344,35.3331,2.847,5.0876,12.0112,17.0237,49.9145,17.3365.5156.018,1.0312.018,1.5423.018,87.7101,0,170.0534-62.8246,183.2035-62.8246.7174,0,1.2105.1838,1.5244.5694,3.524,4.665-21.2471,41.7052-65.4138,61.9985-53.3129,24.4797-95.2199,6.4091-108.881,30.5582-6.1155,10.7794.0179,26.958,10.303,59.9227,28.2055,90.352,27.0488,98.1196,24.0538,106.0531-15.3156,40.5855-105.3347,41.3936-144.3767,41.7243-.5335.0179-1.1567.0179-2.6811.0179-18.3823.1098-35.5001.1838-51.403.1838-99.4613,0-151.1736-3.4344-166.4353-30.2454-5.4922-9.6417-1.4885-31.2745,6.501-74.578,10.173-55.075,22.7895-77.0193,10.5407-91.326-6.5548-7.6388-12.4327-4.0217-48.9954-11.0552-28.21-5.3992-52.7794-15.8849-76.5238-33.2763-22.9195-16.8029-48.9774-44.5881-44.5164-50.7764.5873-.8081,1.6723-1.1937,3.1967-1.1937,17.9608,0,98.2866,52.3568,180.4103,52.3568,1.9817,0,4.0037-.0191,5.9854-.092,42.1267-1.3226,51.385-15.9768,53.295-19.9805.8967-1.892,6.7925-14.7652.6591-24.7006-11.3656-18.3822-48.0404-.899-68.9916-19.3742-12.7286-11.202-12.9482-29.7501-12.9124-49.6388.2555-121.2778.3676-181.9167,2.4255-206.5242,0,0,3.1384-7.0334,3.1743-7.1074,27.107-46.8108,110.096-70.6841,190.2739-70.6841M393.4279,17.7174c-74.2104,0-173.1202,21.1194-207.5711,80.6565-.1659.2746-4.1517,8.9793-4.1517,8.9793-.955,2.0938-1.4661,4.1876-1.6499,6.501-2.1117,25.4347-2.2417,86.4962-2.4973,208.1416-.0404,21.0633-.0942,47.2692,19.6824,64.6785,15.9791,14.0848,36.1816,14.4525,50.9098,14.7103,4.4969.0908,10.9621.2018,14.1588.9359-.2421,1.1018-.7712,3.1586-1.5468,4.7928-1.3944,1.818-11.0517,7.8416-35.8812,8.6318-1.7799.0549-3.5823.0729-5.3622.0729-51.7527,0-103.7385-22.9184-138.1357-38.0871-20.8616-9.2001-32.3393-14.2686-42.2746-14.2686-7.9895,0-15.0779,3.4702-19.4314,9.5117-18.1805,25.2509,28.1517,63.357,48.9236,78.5817,25.9324,19.0065,52.8153,30.705,84.5851,36.8014,14.8044,2.847,25.0491,4.0407,31.8237,4.8489,2.0579.2387,4.2996.5134,5.9899.7521.4573,4.9587-2.8291,18.4192-5.5281,29.4385-2.8649,11.6615-6.4293,26.1689-9.7336,44.0557-9.4198,51.0163-13.3159,72.1345-4.2055,88.1114,20.6957,36.38,74.4659,40.3467,183.8087,40.3467,15.9387,0,33.0925-.0729,51.5106-.1838l2.699-.0179c46.3904-.4046,142.8029-1.2486,162.9651-54.6703,5.4922-14.5264,5.8958-24.3699-23.6727-119.0563l-2.9008-9.2191c-4.8287-15.3155-9.8412-31.1825-8.8683-35.4609,1.614-2.7181,13.7553-3.7101,25.5065-4.683,19.0458-1.5614,45.1396-3.691,74.1028-17.0058,43.0637-19.7777,72.1345-54.7981,76.5597-72.4652,2.4614-9.8614-1.1747-16.6191-3.5823-19.7777-4.0934-5.3813-10.451-8.485-17.4452-8.485-8.7428,0-17.0596,4.4992-35.3342,14.3617-31.3484,16.9318-89.7097,48.4629-147.8693,48.4629l-1.3764-.0179c-23.9103-.2029-31.8057-5.638-32.6127-7.0895-1.8203-3.2315-1.4706-9.7146.6232-11.9731.9908-1.0839,2.8829-3.0857,11.9709-3.0857,4.2055,0,8.6127.3676,13.0783.7162,5.564.4416,11.3118.9001,17.3914.9001,10.1909,0,25.4526-1.1388,40.015-10.9083,31.7699-21.357,31.7878-61.5569,31.8595-134.5365.0179-25.3607-1.9996-77.4979-3.3402-112.0038-.5694-14.8201-1.1209-28.8141-1.1209-31.4213,0-8.6318-9.8591-24.7734-9.9533-24.9202-27.802-41.1179-95.879-65.6525-182.1185-65.6525"/>
  <line class="cls-1" x1="230.9067" y1="116.1956" x2="283.704" y2="174.8876"/>
  <line class="cls-1" x1="527.6854" y1="118.74" x2="474.8881" y2="177.432"/>
  <path class="cls-1" d="M545.7137,873.5398c5.1784,0,9.5139-3.9667,9.9533-9.1272,2.5511-29.1627-18.0504-55.0559-46.9016-58.9307-2.3897-.3307-4.757-.4775-7.1063-.4775-12.7106,0-24.5739,4.4992-33.9937,12.065l.3318-121.3877c0-2.6632-1.0671-5.2154-2.9412-7.0884-1.8696-1.873-4.4252-2.9389-7.0704-2.9389h-21.0633c-5.5281,0-10.0071,4.4812-10.0071,9.9903v167.9048c0,5.5091,4.479,9.9903,10.0071,9.9903h108.7914Z"/>
  <path class="cls-2" d="M436.9269,695.6481v167.9048h108.7914c2.0534-23.7444-15.06-45.0476-38.2709-48.1693-1.9503-.2578-3.8782-.3856-5.7882-.3856-21.5386,0-40.822,16.0687-44.0904,38.2339.148-52.5395.2735-105.0622.4214-157.5838h-21.0633ZM436.9269,675.6496h21.0633c5.3084,0,10.3927,2.1117,14.1588,5.8767,3.7482,3.765,5.8599,8.8694,5.842,14.1767l-.2197,78.7835-.0583,25.196c7.456-3.0308,15.5576-4.683,23.9462-4.683,2.7932,0,5.6223.1827,8.4513.5694,34.1371,4.5911,58.5272,35.2042,55.5322,69.7101-.9012,10.3389-9.5498,18.2724-19.9245,18.2724h-108.7914c-11.0383,0-20.0008-8.9613-20.0008-19.9985v-167.9048c0-11.0372,8.9625-19.9985,20.0008-19.9985"/>
</svg>